<?xml version="1.0" encoding="utf-8"?>
<svg xmlns="http://www.w3.org/2000/svg" xmlns:xlink="http://www.w3.org/1999/xlink" width="600" height="400" viewBox="0 0 2400 1600">
<defs>
  <clipPath id="clip490">
    <rect x="0" y="0" width="2400" height="1600"/>
  </clipPath>
</defs>
<path clip-path="url(#clip490)" d="
M0 1600 L2400 1600 L2400 0 L0 0  Z
  " fill="#ffffff" fill-rule="evenodd" fill-opacity="1"/>
<defs>
  <clipPath id="clip491">
    <rect x="480" y="0" width="1681" height="1600"/>
  </clipPath>
</defs>
<path clip-path="url(#clip490)" d="
M102.74 1521.01 L2352.76 1521.01 L2352.76 47.2441 L102.74 47.2441  Z
  " fill="#ffffff" fill-rule="evenodd" fill-opacity="1"/>
<defs>
  <clipPath id="clip492">
    <rect x="102" y="47" width="2251" height="1475"/>
  </clipPath>
</defs>
<polyline clip-path="url(#clip492)" style="stroke:#000000; stroke-width:2; stroke-opacity:0.1; fill:none" points="
  166.42,1521.01 166.42,47.2441 
  "/>
<polyline clip-path="url(#clip492)" style="stroke:#000000; stroke-width:2; stroke-opacity:0.1; fill:none" points="
  697.084,1521.01 697.084,47.2441 
  "/>
<polyline clip-path="url(#clip492)" style="stroke:#000000; stroke-width:2; stroke-opacity:0.1; fill:none" points="
  1227.75,1521.01 1227.75,47.2441 
  "/>
<polyline clip-path="url(#clip492)" style="stroke:#000000; stroke-width:2; stroke-opacity:0.1; fill:none" points="
  1758.41,1521.01 1758.41,47.2441 
  "/>
<polyline clip-path="url(#clip492)" style="stroke:#000000; stroke-width:2; stroke-opacity:0.1; fill:none" points="
  2289.08,1521.01 2289.08,47.2441 
  "/>
<polyline clip-path="url(#clip490)" style="stroke:#000000; stroke-width:4; stroke-opacity:1; fill:none" points="
  102.74,1521.01 2352.76,1521.01 
  "/>
<polyline clip-path="url(#clip490)" style="stroke:#000000; stroke-width:4; stroke-opacity:1; fill:none" points="
  166.42,1521.01 166.42,1503.32 
  "/>
<polyline clip-path="url(#clip490)" style="stroke:#000000; stroke-width:4; stroke-opacity:1; fill:none" points="
  697.084,1521.01 697.084,1503.32 
  "/>
<polyline clip-path="url(#clip490)" style="stroke:#000000; stroke-width:4; stroke-opacity:1; fill:none" points="
  1227.75,1521.01 1227.75,1503.32 
  "/>
<polyline clip-path="url(#clip490)" style="stroke:#000000; stroke-width:4; stroke-opacity:1; fill:none" points="
  1758.41,1521.01 1758.41,1503.32 
  "/>
<polyline clip-path="url(#clip490)" style="stroke:#000000; stroke-width:4; stroke-opacity:1; fill:none" points="
  2289.08,1521.01 2289.08,1503.32 
  "/>
<path clip-path="url(#clip490)" d="M 0 0 M166.42 1550.2 Q162.809 1550.2 160.98 1553.76 Q159.175 1557.31 159.175 1564.43 Q159.175 1571.54 160.98 1575.11 Q162.809 1578.65 166.42 1578.65 Q170.054 1578.65 171.86 1575.11 Q173.688 1571.54 173.688 1564.43 Q173.688 1557.31 171.86 1553.76 Q170.054 1550.2 166.42 1550.2 M166.42 1546.49 Q172.23 1546.49 175.286 1551.1 Q178.364 1555.68 178.364 1564.43 Q178.364 1573.16 175.286 1577.77 Q172.23 1582.35 166.42 1582.35 Q160.61 1582.35 157.531 1577.77 Q154.475 1573.16 154.475 1564.43 Q154.475 1555.68 157.531 1551.1 Q160.61 1546.49 166.42 1546.49 Z" fill="#000000" fill-rule="evenodd" fill-opacity="1" /><path clip-path="url(#clip490)" d="M 0 0 M687.362 1547.12 L705.718 1547.12 L705.718 1551.06 L691.644 1551.06 L691.644 1559.53 Q692.663 1559.18 693.681 1559.02 Q694.7 1558.83 695.718 1558.83 Q701.505 1558.83 704.885 1562 Q708.264 1565.18 708.264 1570.59 Q708.264 1576.17 704.792 1579.27 Q701.32 1582.35 695.001 1582.35 Q692.825 1582.35 690.556 1581.98 Q688.311 1581.61 685.903 1580.87 L685.903 1576.17 Q687.987 1577.3 690.209 1577.86 Q692.431 1578.42 694.908 1578.42 Q698.913 1578.42 701.251 1576.31 Q703.589 1574.2 703.589 1570.59 Q703.589 1566.98 701.251 1564.87 Q698.913 1562.77 694.908 1562.77 Q693.033 1562.77 691.158 1563.18 Q689.306 1563.6 687.362 1564.48 L687.362 1547.12 Z" fill="#000000" fill-rule="evenodd" fill-opacity="1" /><path clip-path="url(#clip490)" d="M 0 0 M1204.62 1577.74 L1212.26 1577.74 L1212.26 1551.38 L1203.95 1553.05 L1203.95 1548.79 L1212.22 1547.12 L1216.89 1547.12 L1216.89 1577.74 L1224.53 1577.74 L1224.53 1581.68 L1204.62 1581.68 L1204.62 1577.74 Z" fill="#000000" fill-rule="evenodd" fill-opacity="1" /><path clip-path="url(#clip490)" d="M 0 0 M1239.6 1550.2 Q1235.99 1550.2 1234.16 1553.76 Q1232.35 1557.31 1232.35 1564.43 Q1232.35 1571.54 1234.16 1575.11 Q1235.99 1578.65 1239.6 1578.65 Q1243.23 1578.65 1245.04 1575.11 Q1246.87 1571.54 1246.87 1564.43 Q1246.87 1557.31 1245.04 1553.76 Q1243.23 1550.2 1239.6 1550.2 M1239.6 1546.49 Q1245.41 1546.49 1248.47 1551.1 Q1251.54 1555.68 1251.54 1564.43 Q1251.54 1573.16 1248.47 1577.77 Q1245.41 1582.35 1239.6 1582.35 Q1233.79 1582.35 1230.71 1577.77 Q1227.66 1573.16 1227.66 1564.43 Q1227.66 1555.68 1230.71 1551.1 Q1233.79 1546.49 1239.6 1546.49 Z" fill="#000000" fill-rule="evenodd" fill-opacity="1" /><path clip-path="url(#clip490)" d="M 0 0 M1735.78 1577.74 L1743.42 1577.74 L1743.42 1551.38 L1735.11 1553.05 L1735.11 1548.79 L1743.38 1547.12 L1748.05 1547.12 L1748.05 1577.74 L1755.69 1577.74 L1755.69 1581.68 L1735.78 1581.68 L1735.78 1577.74 Z" fill="#000000" fill-rule="evenodd" fill-opacity="1" /><path clip-path="url(#clip490)" d="M 0 0 M1760.81 1547.12 L1779.16 1547.12 L1779.16 1551.06 L1765.09 1551.06 L1765.09 1559.53 Q1766.11 1559.18 1767.13 1559.02 Q1768.15 1558.83 1769.16 1558.83 Q1774.95 1558.83 1778.33 1562 Q1781.71 1565.18 1781.71 1570.59 Q1781.71 1576.17 1778.24 1579.27 Q1774.77 1582.35 1768.45 1582.35 Q1766.27 1582.35 1764 1581.98 Q1761.76 1581.61 1759.35 1580.87 L1759.35 1576.17 Q1761.43 1577.3 1763.66 1577.86 Q1765.88 1578.42 1768.35 1578.42 Q1772.36 1578.42 1774.7 1576.31 Q1777.03 1574.2 1777.03 1570.59 Q1777.03 1566.98 1774.7 1564.87 Q1772.36 1562.77 1768.35 1562.77 Q1766.48 1562.77 1764.6 1563.18 Q1762.75 1563.6 1760.81 1564.48 L1760.81 1547.12 Z" fill="#000000" fill-rule="evenodd" fill-opacity="1" /><path clip-path="url(#clip490)" d="M 0 0 M2270.22 1577.74 L2286.54 1577.74 L2286.54 1581.68 L2264.6 1581.68 L2264.6 1577.74 Q2267.26 1574.99 2271.84 1570.36 Q2276.45 1565.71 2277.63 1564.37 Q2279.87 1561.84 2280.75 1560.11 Q2281.66 1558.35 2281.66 1556.66 Q2281.66 1553.9 2279.71 1552.17 Q2277.79 1550.43 2274.69 1550.43 Q2272.49 1550.43 2270.04 1551.19 Q2267.61 1551.96 2264.83 1553.51 L2264.83 1548.79 Q2267.65 1547.65 2270.11 1547.07 Q2272.56 1546.49 2274.6 1546.49 Q2279.97 1546.49 2283.16 1549.18 Q2286.36 1551.87 2286.36 1556.36 Q2286.36 1558.49 2285.55 1560.41 Q2284.76 1562.3 2282.65 1564.9 Q2282.07 1565.57 2278.97 1568.79 Q2275.87 1571.98 2270.22 1577.74 Z" fill="#000000" fill-rule="evenodd" fill-opacity="1" /><path clip-path="url(#clip490)" d="M 0 0 M2301.61 1550.2 Q2298 1550.2 2296.17 1553.76 Q2294.37 1557.31 2294.37 1564.43 Q2294.37 1571.54 2296.17 1575.11 Q2298 1578.65 2301.61 1578.65 Q2305.25 1578.65 2307.05 1575.11 Q2308.88 1571.54 2308.88 1564.43 Q2308.88 1557.31 2307.05 1553.76 Q2305.25 1550.2 2301.61 1550.2 M2301.61 1546.49 Q2307.42 1546.49 2310.48 1551.1 Q2313.56 1555.68 2313.56 1564.43 Q2313.56 1573.16 2310.48 1577.77 Q2307.42 1582.35 2301.61 1582.35 Q2295.8 1582.35 2292.72 1577.77 Q2289.67 1573.16 2289.67 1564.43 Q2289.67 1555.68 2292.72 1551.1 Q2295.8 1546.49 2301.61 1546.49 Z" fill="#000000" fill-rule="evenodd" fill-opacity="1" /><polyline clip-path="url(#clip492)" style="stroke:#000000; stroke-width:2; stroke-opacity:0.1; fill:none" points="
  102.74,1379.57 2352.76,1379.57 
  "/>
<polyline clip-path="url(#clip492)" style="stroke:#000000; stroke-width:2; stroke-opacity:0.1; fill:none" points="
  102.74,1081.85 2352.76,1081.85 
  "/>
<polyline clip-path="url(#clip492)" style="stroke:#000000; stroke-width:2; stroke-opacity:0.1; fill:none" points="
  102.74,784.126 2352.76,784.126 
  "/>
<polyline clip-path="url(#clip492)" style="stroke:#000000; stroke-width:2; stroke-opacity:0.1; fill:none" points="
  102.74,486.405 2352.76,486.405 
  "/>
<polyline clip-path="url(#clip492)" style="stroke:#000000; stroke-width:2; stroke-opacity:0.1; fill:none" points="
  102.74,188.684 2352.76,188.684 
  "/>
<polyline clip-path="url(#clip490)" style="stroke:#000000; stroke-width:4; stroke-opacity:1; fill:none" points="
  102.74,1521.01 102.74,47.2441 
  "/>
<polyline clip-path="url(#clip490)" style="stroke:#000000; stroke-width:4; stroke-opacity:1; fill:none" points="
  102.74,1379.57 129.74,1379.57 
  "/>
<polyline clip-path="url(#clip490)" style="stroke:#000000; stroke-width:4; stroke-opacity:1; fill:none" points="
  102.74,1081.85 129.74,1081.85 
  "/>
<polyline clip-path="url(#clip490)" style="stroke:#000000; stroke-width:4; stroke-opacity:1; fill:none" points="
  102.74,784.126 129.74,784.126 
  "/>
<polyline clip-path="url(#clip490)" style="stroke:#000000; stroke-width:4; stroke-opacity:1; fill:none" points="
  102.74,486.405 129.74,486.405 
  "/>
<polyline clip-path="url(#clip490)" style="stroke:#000000; stroke-width:4; stroke-opacity:1; fill:none" points="
  102.74,188.684 129.74,188.684 
  "/>
<path clip-path="url(#clip490)" d="M 0 0 M-81.4303 1380.02 L-51.7546 1380.02 L-51.7546 1383.95 L-81.4303 1383.95 L-81.4303 1380.02 Z" fill="#000000" fill-rule="evenodd" fill-opacity="1" /><path clip-path="url(#clip490)" d="M 0 0 M-36.6852 1365.37 Q-40.2963 1365.37 -42.125 1368.93 Q-43.9305 1372.47 -43.9305 1379.6 Q-43.9305 1386.71 -42.125 1390.27 Q-40.2963 1393.82 -36.6852 1393.82 Q-33.051 1393.82 -31.2454 1390.27 Q-29.4167 1386.71 -29.4167 1379.6 Q-29.4167 1372.47 -31.2454 1368.93 Q-33.051 1365.37 -36.6852 1365.37 M-36.6852 1361.66 Q-30.8751 1361.66 -27.8195 1366.27 Q-24.7408 1370.85 -24.7408 1379.6 Q-24.7408 1388.33 -27.8195 1392.94 Q-30.8751 1397.52 -36.6852 1397.52 Q-42.4954 1397.52 -45.5741 1392.94 Q-48.6296 1388.33 -48.6296 1379.6 Q-48.6296 1370.85 -45.5741 1366.27 Q-42.4954 1361.66 -36.6852 1361.66 Z" fill="#000000" fill-rule="evenodd" fill-opacity="1" /><path clip-path="url(#clip490)" d="M 0 0 M-19.6714 1390.97 L-14.7872 1390.97 L-14.7872 1396.85 L-19.6714 1396.85 L-19.6714 1390.97 Z" fill="#000000" fill-rule="evenodd" fill-opacity="1" /><path clip-path="url(#clip490)" d="M 0 0 M0.28218 1365.37 Q-3.32891 1365.37 -5.15761 1368.93 Q-6.96315 1372.47 -6.96315 1379.6 Q-6.96315 1386.71 -5.15761 1390.27 Q-3.32891 1393.82 0.28218 1393.82 Q3.91642 1393.82 5.72197 1390.27 Q7.55066 1386.71 7.55066 1379.6 Q7.55066 1372.47 5.72197 1368.93 Q3.91642 1365.37 0.28218 1365.37 M0.28218 1361.66 Q6.09233 1361.66 9.14787 1366.27 Q12.2266 1370.85 12.2266 1379.6 Q12.2266 1388.33 9.14787 1392.94 Q6.09233 1397.52 0.28218 1397.52 Q-5.52797 1397.52 -8.60666 1392.94 Q-11.6622 1388.33 -11.6622 1379.6 Q-11.6622 1370.85 -8.60666 1366.27 Q-5.52797 1361.66 0.28218 1361.66 Z" fill="#000000" fill-rule="evenodd" fill-opacity="1" /><path clip-path="url(#clip490)" d="M 0 0 M27.2959 1365.37 Q23.6848 1365.37 21.8561 1368.93 Q20.0506 1372.47 20.0506 1379.6 Q20.0506 1386.71 21.8561 1390.27 Q23.6848 1393.82 27.2959 1393.82 Q30.9302 1393.82 32.7357 1390.27 Q34.5644 1386.71 34.5644 1379.6 Q34.5644 1372.47 32.7357 1368.93 Q30.9302 1365.37 27.2959 1365.37 M27.2959 1361.66 Q33.1061 1361.66 36.1616 1366.27 Q39.2403 1370.85 39.2403 1379.6 Q39.2403 1388.33 36.1616 1392.94 Q33.1061 1397.52 27.2959 1397.52 Q21.4858 1397.52 18.4071 1392.94 Q15.3515 1388.33 15.3515 1379.6 Q15.3515 1370.85 18.4071 1366.27 Q21.4858 1361.66 27.2959 1361.66 Z" fill="#000000" fill-rule="evenodd" fill-opacity="1" /><path clip-path="url(#clip490)" d="M 0 0 M57.1569 1366.36 L45.3514 1384.81 L57.1569 1384.81 L57.1569 1366.36 M55.93 1362.29 L61.8096 1362.29 L61.8096 1384.81 L66.7402 1384.81 L66.7402 1388.7 L61.8096 1388.7 L61.8096 1396.85 L57.1569 1396.85 L57.1569 1388.7 L41.5551 1388.7 L41.5551 1384.19 L55.93 1362.29 Z" fill="#000000" fill-rule="evenodd" fill-opacity="1" /><path clip-path="url(#clip490)" d="M 0 0 M-79.347 1082.3 L-49.6713 1082.3 L-49.6713 1086.23 L-79.347 1086.23 L-79.347 1082.3 Z" fill="#000000" fill-rule="evenodd" fill-opacity="1" /><path clip-path="url(#clip490)" d="M 0 0 M-34.6019 1067.65 Q-38.213 1067.65 -40.0417 1071.21 Q-41.8472 1074.75 -41.8472 1081.88 Q-41.8472 1088.99 -40.0417 1092.55 Q-38.213 1096.09 -34.6019 1096.09 Q-30.9677 1096.09 -29.1621 1092.55 Q-27.3334 1088.99 -27.3334 1081.88 Q-27.3334 1074.75 -29.1621 1071.21 Q-30.9677 1067.65 -34.6019 1067.65 M-34.6019 1063.94 Q-28.7917 1063.94 -25.7362 1068.55 Q-22.6575 1073.13 -22.6575 1081.88 Q-22.6575 1090.61 -25.7362 1095.21 Q-28.7917 1099.8 -34.6019 1099.8 Q-40.412 1099.8 -43.4907 1095.21 Q-46.5463 1090.61 -46.5463 1081.88 Q-46.5463 1073.13 -43.4907 1068.55 Q-40.412 1063.94 -34.6019 1063.94 Z" fill="#000000" fill-rule="evenodd" fill-opacity="1" /><path clip-path="url(#clip490)" d="M 0 0 M-17.5881 1093.25 L-12.7039 1093.25 L-12.7039 1099.13 L-17.5881 1099.13 L-17.5881 1093.25 Z" fill="#000000" fill-rule="evenodd" fill-opacity="1" /><path clip-path="url(#clip490)" d="M 0 0 M2.3655 1067.65 Q-1.24559 1067.65 -3.07428 1071.21 Q-4.87983 1074.75 -4.87983 1081.88 Q-4.87983 1088.99 -3.07428 1092.55 Q-1.24559 1096.09 2.3655 1096.09 Q5.99974 1096.09 7.80529 1092.55 Q9.63398 1088.99 9.63398 1081.88 Q9.63398 1074.75 7.80529 1071.21 Q5.99974 1067.65 2.3655 1067.65 M2.3655 1063.94 Q8.17566 1063.94 11.2312 1068.55 Q14.3099 1073.13 14.3099 1081.88 Q14.3099 1090.61 11.2312 1095.21 Q8.17566 1099.8 2.3655 1099.8 Q-3.44465 1099.8 -6.52334 1095.21 Q-9.57888 1090.61 -9.57888 1081.88 Q-9.57888 1073.13 -6.52334 1068.55 Q-3.44465 1063.94 2.3655 1063.94 Z" fill="#000000" fill-rule="evenodd" fill-opacity="1" /><path clip-path="url(#clip490)" d="M 0 0 M29.3792 1067.65 Q25.7682 1067.65 23.9395 1071.21 Q22.1339 1074.75 22.1339 1081.88 Q22.1339 1088.99 23.9395 1092.55 Q25.7682 1096.09 29.3792 1096.09 Q33.0135 1096.09 34.819 1092.55 Q36.6477 1088.99 36.6477 1081.88 Q36.6477 1074.75 34.819 1071.21 Q33.0135 1067.65 29.3792 1067.65 M29.3792 1063.94 Q35.1894 1063.94 38.2449 1068.55 Q41.3236 1073.13 41.3236 1081.88 Q41.3236 1090.61 38.2449 1095.21 Q35.1894 1099.8 29.3792 1099.8 Q23.5691 1099.8 20.4904 1095.21 Q17.4349 1090.61 17.4349 1081.88 Q17.4349 1073.13 20.4904 1068.55 Q23.5691 1063.94 29.3792 1063.94 Z" fill="#000000" fill-rule="evenodd" fill-opacity="1" /><path clip-path="url(#clip490)" d="M 0 0 M50.4208 1095.19 L66.7402 1095.19 L66.7402 1099.13 L44.7958 1099.13 L44.7958 1095.19 Q47.4579 1092.44 52.0412 1087.81 Q56.6476 1083.15 57.8282 1081.81 Q60.0735 1079.29 60.9532 1077.55 Q61.8559 1075.79 61.8559 1074.1 Q61.8559 1071.35 59.9115 1069.61 Q57.9902 1067.88 54.8884 1067.88 Q52.6893 1067.88 50.2356 1068.64 Q47.8051 1069.4 45.0273 1070.96 L45.0273 1066.23 Q47.8514 1065.1 50.3051 1064.52 Q52.7588 1063.94 54.7958 1063.94 Q60.1661 1063.94 63.3605 1066.63 Q66.555 1069.31 66.555 1073.8 Q66.555 1075.93 65.7448 1077.85 Q64.9578 1079.75 62.8513 1082.34 Q62.2726 1083.02 59.1708 1086.23 Q56.0689 1089.43 50.4208 1095.19 Z" fill="#000000" fill-rule="evenodd" fill-opacity="1" /><path clip-path="url(#clip490)" d="M 0 0 M-36.1991 769.925 Q-39.8102 769.925 -41.6389 773.489 Q-43.4444 777.031 -43.4444 784.161 Q-43.4444 791.267 -41.6389 794.832 Q-39.8102 798.374 -36.1991 798.374 Q-32.5649 798.374 -30.7593 794.832 Q-28.9306 791.267 -28.9306 784.161 Q-28.9306 777.031 -30.7593 773.489 Q-32.5649 769.925 -36.1991 769.925 M-36.1991 766.221 Q-30.389 766.221 -27.3334 770.827 Q-24.2547 775.411 -24.2547 784.161 Q-24.2547 792.888 -27.3334 797.494 Q-30.389 802.077 -36.1991 802.077 Q-42.0093 802.077 -45.0879 797.494 Q-48.1435 792.888 -48.1435 784.161 Q-48.1435 775.411 -45.0879 770.827 Q-42.0093 766.221 -36.1991 766.221 Z" fill="#000000" fill-rule="evenodd" fill-opacity="1" /><path clip-path="url(#clip490)" d="M 0 0 M-19.1853 795.526 L-14.3011 795.526 L-14.3011 801.406 L-19.1853 801.406 L-19.1853 795.526 Z" fill="#000000" fill-rule="evenodd" fill-opacity="1" /><path clip-path="url(#clip490)" d="M 0 0 M0.768289 769.925 Q-2.8428 769.925 -4.6715 773.489 Q-6.47704 777.031 -6.47704 784.161 Q-6.47704 791.267 -4.6715 794.832 Q-2.8428 798.374 0.768289 798.374 Q4.40253 798.374 6.20807 794.832 Q8.03677 791.267 8.03677 784.161 Q8.03677 777.031 6.20807 773.489 Q4.40253 769.925 0.768289 769.925 M0.768289 766.221 Q6.57844 766.221 9.63398 770.827 Q12.7127 775.411 12.7127 784.161 Q12.7127 792.888 9.63398 797.494 Q6.57844 802.077 0.768289 802.077 Q-5.04187 802.077 -8.12055 797.494 Q-11.1761 792.888 -11.1761 784.161 Q-11.1761 775.411 -8.12055 770.827 Q-5.04187 766.221 0.768289 766.221 Z" fill="#000000" fill-rule="evenodd" fill-opacity="1" /><path clip-path="url(#clip490)" d="M 0 0 M27.782 769.925 Q24.1709 769.925 22.3422 773.489 Q20.5367 777.031 20.5367 784.161 Q20.5367 791.267 22.3422 794.832 Q24.1709 798.374 27.782 798.374 Q31.4163 798.374 33.2218 794.832 Q35.0505 791.267 35.0505 784.161 Q35.0505 777.031 33.2218 773.489 Q31.4163 769.925 27.782 769.925 M27.782 766.221 Q33.5922 766.221 36.6477 770.827 Q39.7264 775.411 39.7264 784.161 Q39.7264 792.888 36.6477 797.494 Q33.5922 802.077 27.782 802.077 Q21.9719 802.077 18.8932 797.494 Q15.8377 792.888 15.8377 784.161 Q15.8377 775.411 18.8932 770.827 Q21.9719 766.221 27.782 766.221 Z" fill="#000000" fill-rule="evenodd" fill-opacity="1" /><path clip-path="url(#clip490)" d="M 0 0 M54.7958 769.925 Q51.1847 769.925 49.356 773.489 Q47.5504 777.031 47.5504 784.161 Q47.5504 791.267 49.356 794.832 Q51.1847 798.374 54.7958 798.374 Q58.43 798.374 60.2356 794.832 Q62.0643 791.267 62.0643 784.161 Q62.0643 777.031 60.2356 773.489 Q58.43 769.925 54.7958 769.925 M54.7958 766.221 Q60.6059 766.221 63.6615 770.827 Q66.7402 775.411 66.7402 784.161 Q66.7402 792.888 63.6615 797.494 Q60.6059 802.077 54.7958 802.077 Q48.9856 802.077 45.9069 797.494 Q42.8514 792.888 42.8514 784.161 Q42.8514 775.411 45.9069 770.827 Q48.9856 766.221 54.7958 766.221 Z" fill="#000000" fill-rule="evenodd" fill-opacity="1" /><path clip-path="url(#clip490)" d="M 0 0 M-34.6019 472.204 Q-38.213 472.204 -40.0417 475.769 Q-41.8472 479.31 -41.8472 486.44 Q-41.8472 493.546 -40.0417 497.111 Q-38.213 500.653 -34.6019 500.653 Q-30.9677 500.653 -29.1621 497.111 Q-27.3334 493.546 -27.3334 486.44 Q-27.3334 479.31 -29.1621 475.769 Q-30.9677 472.204 -34.6019 472.204 M-34.6019 468.5 Q-28.7917 468.5 -25.7362 473.107 Q-22.6575 477.69 -22.6575 486.44 Q-22.6575 495.167 -25.7362 499.773 Q-28.7917 504.356 -34.6019 504.356 Q-40.412 504.356 -43.4907 499.773 Q-46.5463 495.167 -46.5463 486.44 Q-46.5463 477.69 -43.4907 473.107 Q-40.412 468.5 -34.6019 468.5 Z" fill="#000000" fill-rule="evenodd" fill-opacity="1" /><path clip-path="url(#clip490)" d="M 0 0 M-17.5881 497.805 L-12.7039 497.805 L-12.7039 503.685 L-17.5881 503.685 L-17.5881 497.805 Z" fill="#000000" fill-rule="evenodd" fill-opacity="1" /><path clip-path="url(#clip490)" d="M 0 0 M2.3655 472.204 Q-1.24559 472.204 -3.07428 475.769 Q-4.87983 479.31 -4.87983 486.44 Q-4.87983 493.546 -3.07428 497.111 Q-1.24559 500.653 2.3655 500.653 Q5.99974 500.653 7.80529 497.111 Q9.63398 493.546 9.63398 486.44 Q9.63398 479.31 7.80529 475.769 Q5.99974 472.204 2.3655 472.204 M2.3655 468.5 Q8.17566 468.5 11.2312 473.107 Q14.3099 477.69 14.3099 486.44 Q14.3099 495.167 11.2312 499.773 Q8.17566 504.356 2.3655 504.356 Q-3.44465 504.356 -6.52334 499.773 Q-9.57888 495.167 -9.57888 486.44 Q-9.57888 477.69 -6.52334 473.107 Q-3.44465 468.5 2.3655 468.5 Z" fill="#000000" fill-rule="evenodd" fill-opacity="1" /><path clip-path="url(#clip490)" d="M 0 0 M29.3792 472.204 Q25.7682 472.204 23.9395 475.769 Q22.1339 479.31 22.1339 486.44 Q22.1339 493.546 23.9395 497.111 Q25.7682 500.653 29.3792 500.653 Q33.0135 500.653 34.819 497.111 Q36.6477 493.546 36.6477 486.44 Q36.6477 479.31 34.819 475.769 Q33.0135 472.204 29.3792 472.204 M29.3792 468.5 Q35.1894 468.5 38.2449 473.107 Q41.3236 477.69 41.3236 486.44 Q41.3236 495.167 38.2449 499.773 Q35.1894 504.356 29.3792 504.356 Q23.5691 504.356 20.4904 499.773 Q17.4349 495.167 17.4349 486.44 Q17.4349 477.69 20.4904 473.107 Q23.5691 468.5 29.3792 468.5 Z" fill="#000000" fill-rule="evenodd" fill-opacity="1" /><path clip-path="url(#clip490)" d="M 0 0 M50.4208 499.75 L66.7402 499.75 L66.7402 503.685 L44.7958 503.685 L44.7958 499.75 Q47.4579 496.995 52.0412 492.366 Q56.6476 487.713 57.8282 486.37 Q60.0735 483.847 60.9532 482.111 Q61.8559 480.352 61.8559 478.662 Q61.8559 475.907 59.9115 474.171 Q57.9902 472.435 54.8884 472.435 Q52.6893 472.435 50.2356 473.199 Q47.8051 473.963 45.0273 475.514 L45.0273 470.792 Q47.8514 469.657 50.3051 469.079 Q52.7588 468.5 54.7958 468.5 Q60.1661 468.5 63.3605 471.185 Q66.555 473.87 66.555 478.361 Q66.555 480.491 65.7448 482.412 Q64.9578 484.31 62.8513 486.903 Q62.2726 487.574 59.1708 490.792 Q56.0689 493.986 50.4208 499.75 Z" fill="#000000" fill-rule="evenodd" fill-opacity="1" /><path clip-path="url(#clip490)" d="M 0 0 M-36.6852 174.483 Q-40.2963 174.483 -42.125 178.048 Q-43.9305 181.589 -43.9305 188.719 Q-43.9305 195.825 -42.125 199.39 Q-40.2963 202.932 -36.6852 202.932 Q-33.051 202.932 -31.2454 199.39 Q-29.4167 195.825 -29.4167 188.719 Q-29.4167 181.589 -31.2454 178.048 Q-33.051 174.483 -36.6852 174.483 M-36.6852 170.779 Q-30.8751 170.779 -27.8195 175.386 Q-24.7408 179.969 -24.7408 188.719 Q-24.7408 197.446 -27.8195 202.052 Q-30.8751 206.635 -36.6852 206.635 Q-42.4954 206.635 -45.5741 202.052 Q-48.6296 197.446 -48.6296 188.719 Q-48.6296 179.969 -45.5741 175.386 Q-42.4954 170.779 -36.6852 170.779 Z" fill="#000000" fill-rule="evenodd" fill-opacity="1" /><path clip-path="url(#clip490)" d="M 0 0 M-19.6714 200.085 L-14.7872 200.085 L-14.7872 205.964 L-19.6714 205.964 L-19.6714 200.085 Z" fill="#000000" fill-rule="evenodd" fill-opacity="1" /><path clip-path="url(#clip490)" d="M 0 0 M0.28218 174.483 Q-3.32891 174.483 -5.15761 178.048 Q-6.96315 181.589 -6.96315 188.719 Q-6.96315 195.825 -5.15761 199.39 Q-3.32891 202.932 0.28218 202.932 Q3.91642 202.932 5.72197 199.39 Q7.55066 195.825 7.55066 188.719 Q7.55066 181.589 5.72197 178.048 Q3.91642 174.483 0.28218 174.483 M0.28218 170.779 Q6.09233 170.779 9.14787 175.386 Q12.2266 179.969 12.2266 188.719 Q12.2266 197.446 9.14787 202.052 Q6.09233 206.635 0.28218 206.635 Q-5.52797 206.635 -8.60666 202.052 Q-11.6622 197.446 -11.6622 188.719 Q-11.6622 179.969 -8.60666 175.386 Q-5.52797 170.779 0.28218 170.779 Z" fill="#000000" fill-rule="evenodd" fill-opacity="1" /><path clip-path="url(#clip490)" d="M 0 0 M27.2959 174.483 Q23.6848 174.483 21.8561 178.048 Q20.0506 181.589 20.0506 188.719 Q20.0506 195.825 21.8561 199.39 Q23.6848 202.932 27.2959 202.932 Q30.9302 202.932 32.7357 199.39 Q34.5644 195.825 34.5644 188.719 Q34.5644 181.589 32.7357 178.048 Q30.9302 174.483 27.2959 174.483 M27.2959 170.779 Q33.1061 170.779 36.1616 175.386 Q39.2403 179.969 39.2403 188.719 Q39.2403 197.446 36.1616 202.052 Q33.1061 206.635 27.2959 206.635 Q21.4858 206.635 18.4071 202.052 Q15.3515 197.446 15.3515 188.719 Q15.3515 179.969 18.4071 175.386 Q21.4858 170.779 27.2959 170.779 Z" fill="#000000" fill-rule="evenodd" fill-opacity="1" /><path clip-path="url(#clip490)" d="M 0 0 M57.1569 175.478 L45.3514 193.927 L57.1569 193.927 L57.1569 175.478 M55.93 171.404 L61.8096 171.404 L61.8096 193.927 L66.7402 193.927 L66.7402 197.816 L61.8096 197.816 L61.8096 205.964 L57.1569 205.964 L57.1569 197.816 L41.5551 197.816 L41.5551 193.302 L55.93 171.404 Z" fill="#000000" fill-rule="evenodd" fill-opacity="1" /><path clip-path="url(#clip490)" d="M 0 0 M-179.206 856.504 L-179.206 826.458 L-173.795 826.458 L-173.795 850.075 L-159.727 850.075 L-159.727 827.445 L-154.316 827.445 L-154.316 850.075 L-137.097 850.075 L-137.097 825.885 L-131.686 825.885 L-131.686 856.504 L-179.206 856.504 Z" fill="#000000" fill-rule="evenodd" fill-opacity="1" /><path clip-path="url(#clip490)" d="M 0 0 M-161.86 799.085 Q-162.433 800.072 -162.687 801.25 Q-162.974 802.396 -162.974 803.796 Q-162.974 808.761 -159.727 811.435 Q-156.513 814.077 -150.465 814.077 L-131.686 814.077 L-131.686 819.965 L-167.334 819.965 L-167.334 814.077 L-161.796 814.077 Q-165.043 812.231 -166.602 809.271 Q-168.194 806.31 -168.194 802.077 Q-168.194 801.473 -168.098 800.74 Q-168.035 800.008 -167.875 799.117 L-161.86 799.085 Z" fill="#000000" fill-rule="evenodd" fill-opacity="1" /><path clip-path="url(#clip490)" d="M 0 0 M-161.86 773.432 Q-162.433 774.418 -162.687 775.596 Q-162.974 776.742 -162.974 778.142 Q-162.974 783.107 -159.727 785.781 Q-156.513 788.423 -150.465 788.423 L-131.686 788.423 L-131.686 794.311 L-167.334 794.311 L-167.334 788.423 L-161.796 788.423 Q-165.043 786.577 -166.602 783.617 Q-168.194 780.657 -168.194 776.423 Q-168.194 775.819 -168.098 775.087 Q-168.035 774.355 -167.875 773.463 L-161.86 773.432 Z" fill="#000000" fill-rule="evenodd" fill-opacity="1" /><path clip-path="url(#clip490)" d="M 0 0 M-163.228 754.907 Q-163.228 759.618 -159.536 762.355 Q-155.876 765.093 -149.478 765.093 Q-143.081 765.093 -139.389 762.387 Q-135.729 759.65 -135.729 754.907 Q-135.729 750.229 -139.421 747.491 Q-143.113 744.754 -149.478 744.754 Q-155.812 744.754 -159.504 747.491 Q-163.228 750.229 -163.228 754.907 M-168.194 754.907 Q-168.194 747.269 -163.228 742.908 Q-158.263 738.548 -149.478 738.548 Q-140.726 738.548 -135.729 742.908 Q-130.763 747.269 -130.763 754.907 Q-130.763 762.578 -135.729 766.939 Q-140.726 771.267 -149.478 771.267 Q-158.263 771.267 -163.228 766.939 Q-168.194 762.578 -168.194 754.907 Z" fill="#000000" fill-rule="evenodd" fill-opacity="1" /><path clip-path="url(#clip490)" d="M 0 0 M-161.86 711.748 Q-162.433 712.735 -162.687 713.912 Q-162.974 715.058 -162.974 716.459 Q-162.974 721.424 -159.727 724.097 Q-156.513 726.739 -150.465 726.739 L-131.686 726.739 L-131.686 732.627 L-167.334 732.627 L-167.334 726.739 L-161.796 726.739 Q-165.043 724.893 -166.602 721.933 Q-168.194 718.973 -168.194 714.74 Q-168.194 714.135 -168.098 713.403 Q-168.035 712.671 -167.875 711.78 L-161.86 711.748 Z" fill="#000000" fill-rule="evenodd" fill-opacity="1" /><polyline clip-path="url(#clip492)" style="stroke:#009af9; stroke-width:4; stroke-opacity:1; fill:none" points="
  166.42,784.126 172.332,784.179 176.478,784.03 181.312,784.462 187.85,782.728 192.711,783.836 200.03,778.721 204.391,779.164 210.414,776.697 214.755,776.372 
  220.386,773.75 224.492,772.972 228.3,771.562 232.002,771.223 235.322,770.004 238.742,769.248 241.651,769.111 244.984,766.688 247.678,767.582 252.143,769.334 
  254.886,770.671 257.883,771.886 260.886,775.026 263.463,776.053 266.73,778.484 269.237,779.425 272.971,780.586 275.812,781.609 279.818,783.082 283.516,782.684 
  286.89,783.561 291.76,784.88 295.094,785.206 299.622,784.127 303.277,784.93 309.759,784.972 313.895,785.165 319.603,785.282 324.947,785.352 331.084,785.432 
  337.834,785.475 345.245,785.52 353.72,785.557 363.316,785.593 374.416,785.631 387.475,785.674 402.927,785.724 421.321,785.788 442.45,785.87 464.672,785.964 
  486.338,786.074 505.621,786.171 525.731,786.298 547.213,786.474 568.602,786.662 590.156,786.951 610.923,787.236 631.06,787.746 649.843,788.217 667.487,789.153 
  683.476,790.045 698.114,791.602 711.071,793.483 721.291,795.288 730.739,797.28 738.517,799.843 745.535,802.049 752.412,806.052 758.276,808.839 764.109,814.087 
  769.129,818.787 773.76,821.458 777.582,826.296 781.193,827.973 784.256,832.823 787.918,827.683 790.384,829.303 793.279,828.967 795.801,827.796 799.322,824.131 
  802.994,822.661 805.877,815.971 809.05,815.333 811.476,810.342 814.267,805.054 816.71,801.661 820.793,797.143 823.661,793.825 828.808,788.684 832.272,787.693 
  835.875,785.45 840.161,785.565 843.685,783.952 848.831,784.187 852.583,783.1 858.654,782.844 862.901,782.302 869.012,781.99 874.161,781.764 880.424,781.585 
  886.838,781.462 893.962,781.349 901.88,781.256 910.57,781.165 920.351,781.069 931.258,780.964 943.32,780.842 956.27,780.7 969.038,780.547 981.989,780.377 
  996.934,780.149 1012.64,779.865 1028.87,779.526 1045.43,779.065 1061.71,778.551 1077.72,777.781 1092.89,776.966 1107.32,775.644 1120.58,774.288 1132.87,772.08 
  1143.88,769.763 1153.9,766.473 1162.74,762.585 1169.75,758.926 1176.15,754.408 1182.28,749.614 1187.65,743.518 1192.91,736.98 1197.28,731.56 1201.05,725.846 
  1204.72,721.5 1207.99,717.145 1211.26,714.746 1214.16,712.95 1217.32,714.552 1220.15,716.005 1224.06,726.516 1227.78,725.686 1230.56,736.571 1233.55,739.402 
  1235.88,746.901 1238.45,754.021 1240.86,759.271 1245.08,767.389 1248.22,771.994 1252.17,776.525 1255.51,779.275 1259.4,781.238 1262.82,782.911 1267.03,783.949 
  1270.71,784.857 1275.24,785.441 1279.41,785.887 1284.31,786.192 1289.23,786.409 1294.77,786.57 1300.74,786.683 1307.35,786.773 1314.75,786.844 1323.05,786.908 
  1332.54,786.972 1343.48,787.039 1356.28,787.117 1371.45,787.211 1389.42,787.33 1410.06,787.482 1431.86,787.659 1453.1,787.862 1471.91,788.05 1491.94,788.293 
  1513.25,788.614 1534.49,788.972 1555.97,789.484 1576.62,790.019 1596.73,790.879 1615.44,791.723 1633.09,793.217 1649.04,794.682 1663.7,797.131 1676.64,799.931 
  1686.87,802.94 1696.3,806.296 1704.1,810.484 1711.1,814.516 1718.02,820.958 1723.87,826.259 1729.76,834.81 1734.76,842.556 1739.42,848.689 1743.26,856.13 
  1746.87,860.689 1749.97,867.057 1753.45,865.729 1756.02,867.949 1759.07,867.407 1761.66,865.408 1765.21,859.051 1768.98,854.217 1771.87,843.265 1775.1,839.978 
  1777.49,831.295 1780.14,822.94 1782.53,816.628 1786.21,808.344 1789.07,802.521 1793.74,794.79 1797.24,791.71 1800.77,788.079 1804.99,787.073 1808.46,784.617 
  1813.81,784.231 1817.47,782.663 1824.55,782.071 1828.65,781.241 1835.31,780.646 1840.42,780.301 1846.81,780.002 1853.34,779.805 1860.54,779.627 1868.61,779.477 
  1877.41,779.333 1887.33,779.179 1898.41,779.008 1910.6,778.81 1923.61,778.58 1936.24,778.336 1949.53,778.051 1964.61,777.676 1980.38,777.218 1996.71,776.65 
  2013.22,775.933 2029.52,775.052 2045.4,773.904 2060.52,772.493 2074.78,770.602 2087.95,768.292 2100.05,765.164 2110.96,761.448 2120.8,756.472 2128.65,751.445 
  2135.95,745.639 2142.66,737.848 2148.67,730.535 2154.22,720.312 2159.32,709.741 2163.96,701.522 2167.58,692.217 2171.01,686.21 2173.94,678.369 2177.33,679.837 
  2179.75,677.146 2182.6,677.748 2185.06,680.239 2188.47,688.325 2192.14,694.912 2194.9,708.745 2198.08,713.002 2200.37,724.335 2202.89,734.284 2205.18,742.574 
  2208.44,752.267 2211.26,759.912 2215.95,769.933 2219.29,774.069 2222.77,778.258 2226.79,780.258 2230.23,782.783 2234.93,783.791 2238.63,785.243 2243.96,785.995 
  2248.21,786.676 2253.84,787.106 2258.99,787.402 2265.1,787.613 2271.55,787.772 2278.79,787.869 2286.96,787.999 2289.08,788.02 
  "/>
<polyline clip-path="url(#clip492)" style="stroke:#e26f46; stroke-width:4; stroke-opacity:1; fill:none" points="
  166.42,784.126 172.332,784.124 176.478,784.13 181.312,784.106 187.85,784.175 192.711,784.141 200.03,784.36 204.391,784.434 210.414,784.489 214.755,784.609 
  220.386,784.821 224.492,784.967 228.3,785.085 232.002,785.336 235.322,785.344 238.742,785.85 241.651,785.737 244.984,786.53 247.678,786.455 252.143,787.331 
  254.886,787.265 257.883,787.569 260.886,787.584 263.463,787.695 266.73,787.731 269.237,787.798 272.971,787.807 275.812,787.87 279.818,787.809 283.516,788.025 
  286.89,787.894 291.76,788.458 295.094,788.336 299.622,788.518 303.277,788.47 309.759,788.758 313.895,788.717 319.603,788.752 324.947,788.737 331.084,788.734 
  337.834,788.725 345.245,788.714 353.72,788.701 363.316,788.685 374.416,788.665 387.475,788.639 402.927,788.608 421.321,788.567 442.45,788.512 464.672,788.447 
  486.338,788.371 505.621,788.301 525.731,788.218 547.213,788.115 568.602,787.994 590.156,787.858 610.923,787.69 631.06,787.526 649.843,787.303 667.487,787.12 
  683.476,786.812 698.114,786.604 711.071,786.132 721.291,785.875 730.739,785.399 738.517,785.096 745.535,784.68 752.412,784.244 758.276,783.826 764.109,783.277 
  769.129,782.9 773.76,782.091 777.582,781.814 781.193,781.008 784.256,780.693 787.918,779.852 790.384,779.623 793.279,778.984 795.801,778.707 799.322,778.015 
  802.994,777.984 805.877,777.463 809.05,777.406 811.476,777.074 814.267,776.974 816.71,776.767 820.793,776.709 823.661,776.564 828.808,776.4 832.272,776.301 
  835.875,776.308 840.161,776.158 843.685,776.181 848.831,776.023 852.583,776.042 858.654,775.91 862.901,775.931 869.012,775.902 874.161,775.921 880.424,775.932 
  886.838,775.953 893.962,775.978 901.88,776.008 910.57,776.043 920.351,776.086 931.258,776.137 943.32,776.198 956.27,776.27 969.038,776.348 981.989,776.434 
  996.934,776.545 1012.64,776.677 1028.87,776.834 1045.43,777.016 1061.71,777.23 1077.72,777.467 1092.89,777.751 1107.32,778.047 1120.58,778.423 1132.87,778.794 
  1143.88,779.298 1153.9,779.75 1162.74,780.425 1169.75,780.875 1176.15,781.482 1182.28,782.066 1187.65,782.695 1192.91,783.329 1197.28,784.165 1201.05,784.714 
  1204.72,785.555 1207.99,786.11 1211.26,787.023 1214.16,787.51 1217.32,788.556 1220.15,789.014 1224.06,790.231 1227.78,790.253 1230.56,790.942 1233.55,791.15 
  1235.88,791.561 1238.45,791.762 1240.86,792.011 1245.08,792.3 1248.22,792.433 1252.17,792.675 1255.51,792.703 1259.4,792.859 1262.82,792.859 1267.03,792.955 
  1270.71,792.948 1275.24,792.989 1279.41,792.98 1284.31,792.986 1289.23,792.976 1294.77,792.967 1300.74,792.953 1307.35,792.935 1314.75,792.913 1323.05,792.887 
  1332.54,792.855 1343.48,792.816 1356.28,792.767 1371.45,792.706 1389.42,792.626 1410.06,792.523 1431.86,792.4 1453.1,792.262 1471.91,792.132 1491.94,791.975 
  1513.25,791.783 1534.49,791.563 1555.97,791.309 1576.62,791.012 1596.73,790.695 1615.44,790.304 1633.09,789.929 1649.04,789.412 1663.7,788.985 1676.64,788.283 
  1686.87,787.831 1696.3,787.118 1704.1,786.61 1711.1,785.932 1718.02,785.249 1723.87,784.517 1729.76,783.642 1734.76,782.9 1739.42,781.737 1743.26,781.093 
  1746.87,779.99 1749.97,779.323 1753.45,778.196 1756.02,777.623 1759.07,776.593 1761.66,775.995 1765.21,774.866 1768.98,774.51 1771.87,773.681 1775.1,773.462 
  1777.49,772.924 1780.14,772.679 1782.53,772.34 1786.21,772.138 1789.07,771.886 1793.74,771.684 1797.24,771.498 1800.77,771.463 1804.99,771.286 1808.46,771.283 
  1813.81,771.092 1817.47,771.101 1824.55,770.907 1828.65,770.92 1835.31,770.89 1840.42,770.914 1846.81,770.938 1853.34,770.972 1860.54,771.013 1868.61,771.062 
  1877.41,771.121 1887.33,771.192 1898.41,771.276 1910.6,771.377 1923.61,771.496 1936.24,771.621 1949.53,771.764 1964.61,771.947 1980.38,772.161 1996.71,772.415 
  2013.22,772.709 2029.52,773.049 2045.4,773.435 2060.52,773.876 2074.78,774.368 2087.95,774.924 2100.05,775.539 2110.96,776.219 2120.8,776.98 2128.65,777.705 
  2135.95,778.487 2142.66,779.39 2148.67,780.283 2154.22,781.312 2159.32,782.254 2163.96,783.718 2167.58,784.516 2171.01,785.792 2173.94,786.628 2177.33,787.946 
  2179.75,788.656 2182.6,789.828 2185.06,790.562 2188.47,791.903 2192.14,792.377 2194.9,793.361 2198.08,793.613 2200.37,794.26 2202.89,794.561 2205.18,794.966 
  2208.44,795.222 2211.26,795.532 2215.95,795.819 2219.29,796.011 2222.77,796.077 2226.79,796.239 2230.23,796.261 2234.93,796.378 2238.63,796.382 2243.96,796.446 
  2248.21,796.437 2253.84,796.444 2258.99,796.429 2265.1,796.413 2271.55,796.388 2278.79,796.361 2286.96,796.324 2289.08,796.315 
  "/>
<path clip-path="url(#clip492)" d="
M166.42 784.126 L172.332 784.508 L176.478 784.585 L181.312 784.795 L187.85 787.671 L192.711 786.526 L200.03 795.087 L204.391 794.464 L210.414 801.924 L214.755 802.792 
  L220.386 809.841 L224.492 812.605 L228.3 817.023 L232.002 821.057 L235.322 824.854 L238.742 829.413 L241.651 831.092 L244.984 834.232 L247.678 833.865 L252.143 838.691 
  L254.886 833.46 L257.883 830.884 L260.886 825.962 L263.463 820.358 L266.73 816.958 L269.237 811.618 L272.971 808.743 L275.812 804.184 L279.818 801.842 L283.516 799.322 
  L286.89 797.316 L291.76 801.256 L295.094 797.463 L299.622 798.035 L303.277 796.38 L309.759 799.954 L313.895 797.274 L319.603 797.349 L324.947 796.772 L331.084 796.845 
  L337.834 796.953 L345.245 797.111 L353.72 797.312 L363.316 797.539 L374.416 797.813 L387.475 798.152 L402.927 798.581 L421.321 799.137 L442.45 799.844 L464.672 800.685 
  L486.338 801.619 L505.621 802.565 L525.731 803.715 L547.213 805.19 L568.602 806.98 L590.156 809.302 L610.923 812.178 L631.06 816.023 L649.843 820.758 L667.487 827.179 
  L683.476 834.864 L698.114 845.212 L711.071 857.215 L721.291 869.462 L730.739 886.604 L738.517 904.587 L745.535 926.309 L752.412 953.935 L758.276 983.329 L764.109 1019.44 
  L769.129 1055.86 L773.76 1093.45 L777.582 1125.53 L781.193 1154.89 L784.256 1176.59 L787.918 1196.1 L790.384 1202.66 L793.279 1202.43 L795.801 1193.92 L799.322 1169.24 
  L802.994 1129.16 L805.877 1090.58 L809.05 1044.95 L811.476 1009.52 L814.267 970.867 L816.71 939.735 L820.793 895.352 L823.661 869.765 L828.808 836.378 L832.272 819.426 
  L835.875 807.37 L840.161 799.382 L843.685 795.909 L848.831 798.179 L852.583 798.685 L858.654 802.167 L862.901 802.446 L869.012 803.96 L874.161 804.388 L880.424 805.116 
  L886.838 805.65 L893.962 806.194 L901.88 806.743 L910.57 807.321 L920.351 807.979 L931.258 808.745 L943.32 809.653 L956.27 810.719 L969.038 811.882 L981.989 813.198 
  L996.934 814.929 L1012.64 817.053 L1028.87 819.679 L1045.43 822.982 L1061.71 827.063 L1077.72 832.302 L1092.89 838.787 L1107.32 847.23 L1120.58 857.578 L1132.87 871.077 
  L1143.88 887.373 L1153.9 908.355 L1162.74 933.217 L1169.75 959.457 L1176.15 990.929 L1182.28 1029.25 L1187.65 1070.67 L1192.91 1119.06 L1197.28 1164.52 L1201.05 1205.83 
  L1204.72 1245.25 L1207.99 1276.14 L1211.26 1299.39 L1214.16 1309.75 L1217.32 1307.3 L1220.15 1290.81 L1224.06 1246.74 L1227.78 1186.15 L1230.56 1134.21 L1233.55 1077.21 
  L1235.88 1033.81 L1238.45 989.712 L1240.86 952.695 L1245.08 899.373 L1248.22 868.463 L1252.17 839.764 L1255.51 821.615 L1259.4 808.091 L1262.82 799.414 L1267.03 796.756 
  L1270.71 795.626 L1275.24 798.012 L1279.41 798.984 L1284.31 800.568 L1289.23 801.433 L1294.77 802.24 L1300.74 802.801 L1307.35 803.259 L1314.75 803.648 L1323.05 804.012 
  L1332.54 804.393 L1343.48 804.823 L1356.28 805.338 L1371.45 805.983 L1389.42 806.81 L1410.06 807.859 L1431.86 809.107 L1453.1 810.49 L1471.91 811.886 L1491.94 813.603 
  L1513.25 815.772 L1534.49 818.389 L1555.97 821.723 L1576.62 825.801 L1596.73 831.124 L1615.44 837.661 L1633.09 846.362 L1649.04 856.932 L1663.7 871.045 L1676.64 887.892 
  L1686.87 905.883 L1696.3 929.549 L1704.1 955.137 L1711.1 985.423 L1718.02 1024.19 L1723.87 1065.35 L1729.76 1116.27 L1734.76 1167.18 L1739.42 1220.11 L1743.26 1265.33 
  L1746.87 1306.4 L1749.97 1337.28 L1753.45 1363.24 L1756.02 1373.31 L1759.07 1372.8 L1761.66 1359.95 L1765.21 1323.79 L1768.98 1264.64 L1771.87 1209.58 L1775.1 1143.6 
  L1777.49 1094.63 L1780.14 1042.97 L1782.53 1000.22 L1786.21 943.166 L1789.07 906.499 L1793.74 860.593 L1797.24 835.161 L1800.77 816.41 L1804.99 802.145 L1808.46 795.746 
  L1813.81 799.049 L1817.47 800.927 L1824.55 807.609 L1828.65 808.237 L1835.31 810.614 L1840.42 811.267 L1846.81 812.308 L1853.34 813.096 L1860.54 813.865 L1868.61 814.639 
  L1877.41 815.443 L1887.33 816.354 L1898.41 817.413 L1910.6 818.664 L1923.61 820.125 L1936.24 821.694 L1949.53 823.538 L1964.61 825.929 L1980.38 828.852 L1996.71 832.482 
  L2013.22 836.991 L2029.52 842.603 L2045.4 849.674 L2060.52 858.546 L2074.78 869.825 L2087.95 883.99 L2100.05 901.979 L2110.96 924.371 L2120.8 952.389 L2128.65 982.154 
  L2135.95 1019.52 L2142.66 1064.07 L2148.67 1115.02 L2154.22 1173.19 L2159.32 1236.49 L2163.96 1301.28 L2167.58 1353.73 L2171.01 1401.68 L2173.94 1437.5 L2177.33 1468.15 
  L2179.75 1479.3 L2182.6 1478.14 L2185.06 1462.72 L2188.47 1419.41 L2192.14 1347.44 L2194.9 1282.01 L2198.08 1201.76 L2200.37 1144.2 L2202.89 1084.44 L2205.18 1034.72 
  L2208.44 973.201 L2211.26 929.358 L2215.95 874.125 L2219.29 845.438 L2222.77 823.754 L2226.79 807.177 L2230.23 797.868 L2234.93 796.895 L2238.63 797.591 L2243.96 802.061 
  L2248.21 803.31 L2253.84 805.472 L2258.99 806.366 L2265.1 807.322 L2271.55 807.956 L2278.79 808.502 L2286.96 808.992 L2289.08 809.102 L2289.08 759.15 L2286.96 759.26 
  L2278.79 759.75 L2271.55 760.296 L2265.1 760.93 L2258.99 761.886 L2253.84 762.78 L2248.21 764.942 L2243.96 766.191 L2238.63 770.661 L2234.93 771.357 L2230.23 770.384 
  L2226.79 761.075 L2222.77 744.497 L2219.29 722.814 L2215.95 694.127 L2211.26 638.894 L2208.44 595.051 L2205.18 533.533 L2202.89 483.812 L2200.37 424.053 L2198.08 366.487 
  L2194.9 286.239 L2192.14 220.81 L2188.47 148.843 L2185.06 105.532 L2182.6 90.1157 L2179.75 88.9544 L2177.33 100.102 L2173.94 130.756 L2171.01 166.571 L2167.58 214.524 
  L2163.96 266.971 L2159.32 331.764 L2154.22 395.067 L2148.67 453.228 L2142.66 504.179 L2135.95 548.735 L2128.65 586.098 L2120.8 615.863 L2110.96 643.881 L2100.05 666.273 
  L2087.95 684.262 L2074.78 698.427 L2060.52 709.706 L2045.4 718.578 L2029.52 725.649 L2013.22 731.261 L1996.71 735.77 L1980.38 739.399 L1964.61 742.323 L1949.53 744.714 
  L1936.24 746.558 L1923.61 748.127 L1910.6 749.588 L1898.41 750.839 L1887.33 751.898 L1877.41 752.809 L1868.61 753.613 L1860.54 754.387 L1853.34 755.156 L1846.81 755.944 
  L1840.42 756.985 L1835.31 757.638 L1828.65 760.015 L1824.55 760.643 L1817.47 767.325 L1813.81 769.203 L1808.46 772.506 L1804.99 766.107 L1800.77 751.842 L1797.24 733.091 
  L1793.74 707.659 L1789.07 661.753 L1786.21 625.086 L1782.53 568.028 L1780.14 525.279 L1777.49 473.62 L1775.1 424.654 L1771.87 358.672 L1768.98 303.607 L1765.21 244.465 
  L1761.66 208.303 L1759.07 195.451 L1756.02 194.94 L1753.45 205.009 L1749.97 230.969 L1746.87 261.853 L1743.26 302.919 L1739.42 348.141 L1734.76 401.071 L1729.76 451.982 
  L1723.87 502.9 L1718.02 544.066 L1711.1 582.829 L1704.1 613.115 L1696.3 638.703 L1686.87 662.369 L1676.64 680.36 L1663.7 697.207 L1649.04 711.32 L1633.09 721.89 
  L1615.44 730.591 L1596.73 737.128 L1576.62 742.451 L1555.97 746.529 L1534.49 749.863 L1513.25 752.48 L1491.94 754.649 L1471.91 756.366 L1453.1 757.761 L1431.86 759.145 
  L1410.06 760.393 L1389.42 761.442 L1371.45 762.269 L1356.28 762.914 L1343.48 763.429 L1332.54 763.859 L1323.05 764.24 L1314.75 764.604 L1307.35 764.993 L1300.74 765.451 
  L1294.77 766.012 L1289.23 766.818 L1284.31 767.684 L1279.41 769.268 L1275.24 770.24 L1270.71 772.626 L1267.03 771.496 L1262.82 768.838 L1259.4 760.161 L1255.51 746.637 
  L1252.17 728.488 L1248.22 699.789 L1245.08 668.879 L1240.86 615.557 L1238.45 578.54 L1235.88 534.444 L1233.55 491.041 L1230.56 434.04 L1227.78 382.104 L1224.06 321.513 
  L1220.15 277.44 L1217.32 260.947 L1214.16 258.501 L1211.26 268.859 L1207.99 292.114 L1204.72 323.004 L1201.05 362.421 L1197.28 403.732 L1192.91 449.19 L1187.65 497.581 
  L1182.28 539 L1176.15 577.323 L1169.75 608.795 L1162.74 635.035 L1153.9 659.897 L1143.88 680.879 L1132.87 697.175 L1120.58 710.674 L1107.32 721.022 L1092.89 729.465 
  L1077.72 735.95 L1061.71 741.189 L1045.43 745.27 L1028.87 748.573 L1012.64 751.199 L996.934 753.323 L981.989 755.054 L969.038 756.37 L956.27 757.532 L943.32 758.599 
  L931.258 759.507 L920.351 760.273 L910.57 760.931 L901.88 761.509 L893.962 762.058 L886.838 762.602 L880.424 763.136 L874.161 763.864 L869.012 764.292 L862.901 765.806 
  L858.654 766.085 L852.583 769.567 L848.831 770.073 L843.685 772.343 L840.161 768.87 L835.875 760.882 L832.272 748.826 L828.808 731.874 L823.661 698.487 L820.793 672.9 
  L816.71 628.517 L814.267 597.385 L811.476 558.736 L809.05 523.307 L805.877 477.676 L802.994 439.09 L799.322 399.016 L795.801 374.33 L793.279 365.824 L790.384 365.593 
  L787.918 372.149 L784.256 391.659 L781.193 413.361 L777.582 442.721 L773.76 474.803 L769.129 512.387 L764.109 548.811 L758.276 584.923 L752.412 614.316 L745.535 641.943 
  L738.517 663.665 L730.739 681.648 L721.291 698.79 L711.071 711.037 L698.114 723.039 L683.476 733.388 L667.487 741.073 L649.843 747.494 L631.06 752.229 L610.923 756.074 
  L590.156 758.95 L568.602 761.272 L547.213 763.062 L525.731 764.537 L505.621 765.687 L486.338 766.633 L464.672 767.567 L442.45 768.408 L421.321 769.115 L402.927 769.671 
  L387.475 770.1 L374.416 770.439 L363.316 770.713 L353.72 770.94 L345.245 771.141 L337.834 771.299 L331.084 771.407 L324.947 771.48 L319.603 770.903 L313.895 770.978 
  L309.759 768.298 L303.277 771.872 L299.622 770.217 L295.094 770.789 L291.76 766.996 L286.89 770.936 L283.516 768.93 L279.818 766.41 L275.812 764.068 L272.971 759.509 
  L269.237 756.634 L266.73 751.294 L263.463 747.894 L260.886 742.29 L257.883 737.368 L254.886 734.792 L252.143 729.561 L247.678 734.387 L244.984 734.02 L241.651 737.16 
  L238.742 738.839 L235.322 743.398 L232.002 747.195 L228.3 751.229 L224.492 755.647 L220.386 758.411 L214.755 765.46 L210.414 766.328 L204.391 773.788 L200.03 773.165 
  L192.711 781.726 L187.85 780.581 L181.312 783.457 L176.478 783.667 L172.332 783.744 L166.42 784.126  Z
  " fill="#009af9" fill-rule="evenodd" fill-opacity="0.5"/>
<polyline clip-path="url(#clip492)" style="stroke:#009af9; stroke-width:4; stroke-opacity:1; fill:none" points="
  166.42,784.126 172.332,784.126 176.478,784.126 181.312,784.126 187.85,784.126 192.711,784.126 200.03,784.126 204.391,784.126 210.414,784.126 214.755,784.126 
  220.386,784.126 224.492,784.126 228.3,784.126 232.002,784.126 235.322,784.126 238.742,784.126 241.651,784.126 244.984,784.126 247.678,784.126 252.143,784.126 
  254.886,784.126 257.883,784.126 260.886,784.126 263.463,784.126 266.73,784.126 269.237,784.126 272.971,784.126 275.812,784.126 279.818,784.126 283.516,784.126 
  286.89,784.126 291.76,784.126 295.094,784.126 299.622,784.126 303.277,784.126 309.759,784.126 313.895,784.126 319.603,784.126 324.947,784.126 331.084,784.126 
  337.834,784.126 345.245,784.126 353.72,784.126 363.316,784.126 374.416,784.126 387.475,784.126 402.927,784.126 421.321,784.126 442.45,784.126 464.672,784.126 
  486.338,784.126 505.621,784.126 525.731,784.126 547.213,784.126 568.602,784.126 590.156,784.126 610.923,784.126 631.06,784.126 649.843,784.126 667.487,784.126 
  683.476,784.126 698.114,784.126 711.071,784.126 721.291,784.126 730.739,784.126 738.517,784.126 745.535,784.126 752.412,784.126 758.276,784.126 764.109,784.126 
  769.129,784.126 773.76,784.126 777.582,784.126 781.193,784.126 784.256,784.126 787.918,784.126 790.384,784.126 793.279,784.126 795.801,784.126 799.322,784.126 
  802.994,784.126 805.877,784.126 809.05,784.126 811.476,784.126 814.267,784.126 816.71,784.126 820.793,784.126 823.661,784.126 828.808,784.126 832.272,784.126 
  835.875,784.126 840.161,784.126 843.685,784.126 848.831,784.126 852.583,784.126 858.654,784.126 862.901,784.126 869.012,784.126 874.161,784.126 880.424,784.126 
  886.838,784.126 893.962,784.126 901.88,784.126 910.57,784.126 920.351,784.126 931.258,784.126 943.32,784.126 956.27,784.126 969.038,784.126 981.989,784.126 
  996.934,784.126 1012.64,784.126 1028.87,784.126 1045.43,784.126 1061.71,784.126 1077.72,784.126 1092.89,784.126 1107.32,784.126 1120.58,784.126 1132.87,784.126 
  1143.88,784.126 1153.9,784.126 1162.74,784.126 1169.75,784.126 1176.15,784.126 1182.28,784.126 1187.65,784.126 1192.91,784.126 1197.28,784.126 1201.05,784.126 
  1204.72,784.126 1207.99,784.126 1211.26,784.126 1214.16,784.126 1217.32,784.126 1220.15,784.126 1224.06,784.126 1227.78,784.126 1230.56,784.126 1233.55,784.126 
  1235.88,784.126 1238.45,784.126 1240.86,784.126 1245.08,784.126 1248.22,784.126 1252.17,784.126 1255.51,784.126 1259.4,784.126 1262.82,784.126 1267.03,784.126 
  1270.71,784.126 1275.24,784.126 1279.41,784.126 1284.31,784.126 1289.23,784.126 1294.77,784.126 1300.74,784.126 1307.35,784.126 1314.75,784.126 1323.05,784.126 
  1332.54,784.126 1343.48,784.126 1356.28,784.126 1371.45,784.126 1389.42,784.126 1410.06,784.126 1431.86,784.126 1453.1,784.126 1471.91,784.126 1491.94,784.126 
  1513.25,784.126 1534.49,784.126 1555.97,784.126 1576.62,784.126 1596.73,784.126 1615.44,784.126 1633.09,784.126 1649.04,784.126 1663.7,784.126 1676.64,784.126 
  1686.87,784.126 1696.3,784.126 1704.1,784.126 1711.1,784.126 1718.02,784.126 1723.87,784.126 1729.76,784.126 1734.76,784.126 1739.42,784.126 1743.26,784.126 
  1746.87,784.126 1749.97,784.126 1753.45,784.126 1756.02,784.126 1759.07,784.126 1761.66,784.126 1765.21,784.126 1768.98,784.126 1771.87,784.126 1775.1,784.126 
  1777.49,784.126 1780.14,784.126 1782.53,784.126 1786.21,784.126 1789.07,784.126 1793.74,784.126 1797.24,784.126 1800.77,784.126 1804.99,784.126 1808.46,784.126 
  1813.81,784.126 1817.47,784.126 1824.55,784.126 1828.65,784.126 1835.31,784.126 1840.42,784.126 1846.81,784.126 1853.34,784.126 1860.54,784.126 1868.61,784.126 
  1877.41,784.126 1887.33,784.126 1898.41,784.126 1910.6,784.126 1923.61,784.126 1936.24,784.126 1949.53,784.126 1964.61,784.126 1980.38,784.126 1996.71,784.126 
  2013.22,784.126 2029.52,784.126 2045.4,784.126 2060.52,784.126 2074.78,784.126 2087.95,784.126 2100.05,784.126 2110.96,784.126 2120.8,784.126 2128.65,784.126 
  2135.95,784.126 2142.66,784.126 2148.67,784.126 2154.22,784.126 2159.32,784.126 2163.96,784.126 2167.58,784.126 2171.01,784.126 2173.94,784.126 2177.33,784.126 
  2179.75,784.126 2182.6,784.126 2185.06,784.126 2188.47,784.126 2192.14,784.126 2194.9,784.126 2198.08,784.126 2200.37,784.126 2202.89,784.126 2205.18,784.126 
  2208.44,784.126 2211.26,784.126 2215.95,784.126 2219.29,784.126 2222.77,784.126 2226.79,784.126 2230.23,784.126 2234.93,784.126 2238.63,784.126 2243.96,784.126 
  2248.21,784.126 2253.84,784.126 2258.99,784.126 2265.1,784.126 2271.55,784.126 2278.79,784.126 2286.96,784.126 2289.08,784.126 
  "/>
<path clip-path="url(#clip492)" d="
M166.42 784.126 L172.332 784.505 L176.478 784.577 L181.312 784.779 L187.85 787.556 L192.711 786.159 L200.03 794.165 L204.391 792.397 L210.414 798.24 L214.755 796.481 
  L220.386 800.41 L224.492 799.132 L228.3 799.975 L232.002 800.323 L235.322 800.643 L238.742 803.441 L241.651 801.6 L244.984 805.02 L247.678 803.125 L252.143 817.463 
  L254.886 813.245 L257.883 816.556 L260.886 816.441 L263.463 815.31 L266.73 818.391 L269.237 817.234 L272.971 820.197 L275.812 819.365 L279.818 820.693 L283.516 820.216 
  L286.89 820.041 L291.76 822.864 L295.094 821.824 L299.622 823.209 L303.277 822.732 L309.759 826.129 L313.895 825.373 L319.603 826.026 L324.947 825.729 L331.084 825.753 
  L337.834 825.625 L345.245 825.53 L353.72 825.399 L363.316 825.247 L374.416 825.061 L387.475 824.827 L402.927 824.53 L421.321 824.145 L442.45 823.657 L464.672 823.084 
  L486.338 822.457 L505.621 821.832 L525.731 821.118 L547.213 820.285 L568.602 819.36 L590.156 818.405 L610.923 817.403 L631.06 816.629 L649.843 815.884 L667.487 815.91 
  L683.476 815.801 L698.114 817.001 L711.071 816.812 L721.291 814.099 L730.739 814.39 L738.517 811.812 L745.535 810.424 L752.412 810.024 L758.276 807.278 L764.109 806.595 
  L769.129 805.06 L773.76 806.038 L777.582 806.396 L781.193 808.978 L784.256 809.444 L787.918 816.396 L790.384 816.976 L793.279 820.621 L795.801 822.491 L799.322 826.353 
  L802.994 830.014 L805.877 832.068 L809.05 836.574 L811.476 837.244 L814.267 839.254 L816.71 840.231 L820.793 842.522 L823.661 843.081 L828.808 846.081 L832.272 845.812 
  L835.875 846.356 L840.161 846.703 L843.685 846.66 L848.831 847.381 L852.583 847.184 L858.654 848.051 L862.901 847.78 L869.012 848.046 L874.161 847.818 L880.424 847.738 
  L886.838 847.54 L893.962 847.346 L901.88 847.102 L910.57 846.82 L920.351 846.482 L931.258 846.078 L943.32 845.596 L956.27 845.035 L969.038 844.432 L981.989 843.765 
  L996.934 842.922 L1012.64 841.938 L1028.87 840.806 L1045.43 839.527 L1061.71 838.121 L1077.72 836.66 L1092.89 835.108 L1107.32 833.762 L1120.58 832.258 L1132.87 831.354 
  L1143.88 829.797 L1153.9 829.044 L1162.74 826.458 L1169.75 822.8 L1176.15 820.234 L1182.28 817.342 L1187.65 813.601 L1192.91 810.507 L1197.28 808.095 L1201.05 806.858 
  L1204.72 807.522 L1207.99 807.802 L1211.26 811.232 L1214.16 811.926 L1217.32 815.793 L1220.15 818.177 L1224.06 823.993 L1227.78 829.763 L1230.56 830.968 L1233.55 837.625 
  L1235.88 837.669 L1238.45 839.481 L1240.86 840.598 L1245.08 842.888 L1248.22 843.475 L1252.17 845.03 L1255.51 845.17 L1259.4 846.155 L1262.82 846.05 L1267.03 846.761 
  L1270.71 846.581 L1275.24 846.951 L1279.41 846.797 L1284.31 846.881 L1289.23 846.766 L1294.77 846.709 L1300.74 846.589 L1307.35 846.462 L1314.75 846.301 L1323.05 846.112 
  L1332.54 845.882 L1343.48 845.602 L1356.28 845.252 L1371.45 844.807 L1389.42 844.233 L1410.06 843.505 L1431.86 842.649 L1453.1 841.715 L1471.91 840.793 L1491.94 839.711 
  L1513.25 838.429 L1534.49 836.992 L1555.97 835.405 L1576.62 833.675 L1596.73 831.974 L1615.44 830.15 L1633.09 828.799 L1649.04 827.157 L1663.7 826.617 L1676.64 824.731 
  L1686.87 821.227 L1696.3 819.76 L1704.1 816.285 L1711.1 813.549 L1718.02 811.967 L1723.87 808.15 L1729.76 806.764 L1734.76 804.969 L1739.42 806.621 L1743.26 808.147 
  L1746.87 812.155 L1749.97 814.609 L1753.45 821.78 L1756.02 824.452 L1759.07 830.131 L1761.66 833.737 L1765.21 839.697 L1768.98 845.517 L1771.87 848.896 L1775.1 854.643 
  L1777.49 856.252 L1780.14 858.804 L1782.53 860.39 L1786.21 862.84 L1789.07 863.98 L1793.74 866.198 L1797.24 866.667 L1800.77 867.278 L1804.99 867.844 L1808.46 867.936 
  L1813.81 868.737 L1817.47 868.6 L1824.55 870.016 L1828.65 869.737 L1835.31 870.174 L1840.42 869.883 L1846.81 869.763 L1853.34 869.499 L1860.54 869.232 L1868.61 868.896 
  L1877.41 868.509 L1887.33 868.044 L1898.41 867.487 L1910.6 866.824 L1923.61 866.057 L1936.24 865.245 L1949.53 864.314 L1964.61 863.15 L1980.38 861.795 L1996.71 860.223 
  L2013.22 858.437 L2029.52 856.45 L2045.4 854.29 L2060.52 851.984 L2074.78 849.625 L2087.95 847.169 L2100.05 844.778 L2110.96 842.106 L2120.8 839.236 L2128.65 834.553 
  L2135.95 831.497 L2142.66 827.02 L2148.67 822.106 L2154.22 817.094 L2159.32 812.023 L2163.96 808.78 L2167.58 806.351 L2171.01 807.139 L2173.94 806.862 L2177.33 814.069 
  L2179.75 815.525 L2182.6 820.98 L2185.06 824.344 L2188.47 830.552 L2192.14 837.026 L2194.9 840.413 L2198.08 847.674 L2200.37 849.083 L2202.89 851.945 L2205.18 853.527 
  L2208.44 855.911 L2211.26 857.184 L2215.95 859.946 L2219.29 860.32 L2222.77 861.06 L2226.79 861.68 L2230.23 861.764 L2234.93 862.501 L2238.63 862.369 L2243.96 862.968 
  L2248.21 862.758 L2253.84 862.928 L2258.99 862.745 L2265.1 862.668 L2271.55 862.489 L2278.79 862.306 L2286.96 862.071 L2289.08 862.009 L2289.08 706.243 L2286.96 706.181 
  L2278.79 705.946 L2271.55 705.763 L2265.1 705.584 L2258.99 705.507 L2253.84 705.324 L2248.21 705.494 L2243.96 705.284 L2238.63 705.883 L2234.93 705.75 L2230.23 706.488 
  L2226.79 706.572 L2222.77 707.192 L2219.29 707.932 L2215.95 708.306 L2211.26 711.068 L2208.44 712.341 L2205.18 714.725 L2202.89 716.307 L2200.37 719.169 L2198.08 720.578 
  L2194.9 727.839 L2192.14 731.226 L2188.47 737.7 L2185.06 743.908 L2182.6 747.272 L2179.75 752.727 L2177.33 754.183 L2173.94 761.39 L2171.01 761.113 L2167.58 761.901 
  L2163.96 759.472 L2159.32 756.229 L2154.22 751.158 L2148.67 746.146 L2142.66 741.232 L2135.95 736.755 L2128.65 733.699 L2120.8 729.016 L2110.96 726.146 L2100.05 723.474 
  L2087.95 721.083 L2074.78 718.627 L2060.52 716.268 L2045.4 713.962 L2029.52 711.802 L2013.22 709.815 L1996.71 708.029 L1980.38 706.457 L1964.61 705.102 L1949.53 703.938 
  L1936.24 703.007 L1923.61 702.195 L1910.6 701.428 L1898.41 700.765 L1887.33 700.208 L1877.41 699.743 L1868.61 699.356 L1860.54 699.02 L1853.34 698.753 L1846.81 698.489 
  L1840.42 698.369 L1835.31 698.078 L1828.65 698.515 L1824.55 698.236 L1817.47 699.652 L1813.81 699.514 L1808.46 700.316 L1804.99 700.408 L1800.77 700.974 L1797.24 701.585 
  L1793.74 702.054 L1789.07 704.272 L1786.21 705.412 L1782.53 707.862 L1780.14 709.448 L1777.49 712 L1775.1 713.609 L1771.87 719.356 L1768.98 722.735 L1765.21 728.555 
  L1761.66 734.515 L1759.07 738.121 L1756.02 743.8 L1753.45 746.472 L1749.97 753.643 L1746.87 756.097 L1743.26 760.105 L1739.42 761.631 L1734.76 763.283 L1729.76 761.488 
  L1723.87 760.102 L1718.02 756.285 L1711.1 754.703 L1704.1 751.967 L1696.3 748.492 L1686.87 747.025 L1676.64 743.521 L1663.7 741.635 L1649.04 741.095 L1633.09 739.453 
  L1615.44 738.102 L1596.73 736.278 L1576.62 734.577 L1555.97 732.847 L1534.49 731.26 L1513.25 729.823 L1491.94 728.541 L1471.91 727.459 L1453.1 726.537 L1431.86 725.603 
  L1410.06 724.746 L1389.42 724.019 L1371.45 723.445 L1356.28 723 L1343.48 722.65 L1332.54 722.37 L1323.05 722.14 L1314.75 721.951 L1307.35 721.79 L1300.74 721.663 
  L1294.77 721.543 L1289.23 721.486 L1284.31 721.371 L1279.41 721.455 L1275.24 721.301 L1270.71 721.671 L1267.03 721.491 L1262.82 722.202 L1259.4 722.097 L1255.51 723.082 
  L1252.17 723.222 L1248.22 724.777 L1245.08 725.364 L1240.86 727.654 L1238.45 728.771 L1235.88 730.583 L1233.55 730.627 L1230.56 737.284 L1227.78 738.489 L1224.06 744.259 
  L1220.15 750.075 L1217.32 752.459 L1214.16 756.326 L1211.26 757.02 L1207.99 760.45 L1204.72 760.729 L1201.05 761.394 L1197.28 760.157 L1192.91 757.745 L1187.65 754.651 
  L1182.28 750.91 L1176.15 748.018 L1169.75 745.452 L1162.74 741.794 L1153.9 739.208 L1143.88 738.455 L1132.87 736.898 L1120.58 735.994 L1107.32 734.49 L1092.89 733.144 
  L1077.72 731.592 L1061.71 730.131 L1045.43 728.725 L1028.87 727.446 L1012.64 726.314 L996.934 725.33 L981.989 724.487 L969.038 723.82 L956.27 723.217 L943.32 722.656 
  L931.258 722.174 L920.351 721.77 L910.57 721.432 L901.88 721.15 L893.962 720.906 L886.838 720.712 L880.424 720.514 L874.161 720.434 L869.012 720.206 L862.901 720.472 
  L858.654 720.201 L852.583 721.068 L848.831 720.871 L843.685 721.592 L840.161 721.549 L835.875 721.896 L832.272 722.44 L828.808 722.171 L823.661 725.171 L820.793 725.73 
  L816.71 728.021 L814.267 728.998 L811.476 731.008 L809.05 731.678 L805.877 736.184 L802.994 738.238 L799.322 741.899 L795.801 745.761 L793.279 747.631 L790.384 751.276 
  L787.918 751.856 L784.256 758.808 L781.193 759.274 L777.582 761.856 L773.76 762.214 L769.129 763.192 L764.109 761.657 L758.276 760.974 L752.412 758.228 L745.535 757.828 
  L738.517 756.44 L730.739 753.862 L721.291 754.153 L711.071 751.44 L698.114 751.251 L683.476 752.451 L667.487 752.342 L649.843 752.368 L631.06 751.623 L610.923 750.849 
  L590.156 749.847 L568.602 748.892 L547.213 747.967 L525.731 747.134 L505.621 746.42 L486.338 745.795 L464.672 745.168 L442.45 744.595 L421.321 744.107 L402.927 743.722 
  L387.475 743.425 L374.416 743.191 L363.316 743.005 L353.72 742.853 L345.245 742.722 L337.834 742.627 L331.084 742.499 L324.947 742.523 L319.603 742.226 L313.895 742.879 
  L309.759 742.123 L303.277 745.52 L299.622 745.043 L295.094 746.428 L291.76 745.388 L286.89 748.211 L283.516 748.036 L279.818 747.559 L275.812 748.887 L272.971 748.055 
  L269.237 751.018 L266.73 749.861 L263.463 752.942 L260.886 751.811 L257.883 751.696 L254.886 755.007 L252.143 750.789 L247.678 765.127 L244.984 763.232 L241.651 766.652 
  L238.742 764.811 L235.322 767.609 L232.002 767.929 L228.3 768.277 L224.492 769.12 L220.386 767.842 L214.755 771.771 L210.414 770.012 L204.391 775.855 L200.03 774.087 
  L192.711 782.093 L187.85 780.696 L181.312 783.473 L176.478 783.675 L172.332 783.747 L166.42 784.126  Z
  " fill="#e26f46" fill-rule="evenodd" fill-opacity="0.5"/>
<polyline clip-path="url(#clip492)" style="stroke:#e26f46; stroke-width:4; stroke-opacity:1; fill:none" points="
  166.42,784.126 172.332,784.126 176.478,784.126 181.312,784.126 187.85,784.126 192.711,784.126 200.03,784.126 204.391,784.126 210.414,784.126 214.755,784.126 
  220.386,784.126 224.492,784.126 228.3,784.126 232.002,784.126 235.322,784.126 238.742,784.126 241.651,784.126 244.984,784.126 247.678,784.126 252.143,784.126 
  254.886,784.126 257.883,784.126 260.886,784.126 263.463,784.126 266.73,784.126 269.237,784.126 272.971,784.126 275.812,784.126 279.818,784.126 283.516,784.126 
  286.89,784.126 291.76,784.126 295.094,784.126 299.622,784.126 303.277,784.126 309.759,784.126 313.895,784.126 319.603,784.126 324.947,784.126 331.084,784.126 
  337.834,784.126 345.245,784.126 353.72,784.126 363.316,784.126 374.416,784.126 387.475,784.126 402.927,784.126 421.321,784.126 442.45,784.126 464.672,784.126 
  486.338,784.126 505.621,784.126 525.731,784.126 547.213,784.126 568.602,784.126 590.156,784.126 610.923,784.126 631.06,784.126 649.843,784.126 667.487,784.126 
  683.476,784.126 698.114,784.126 711.071,784.126 721.291,784.126 730.739,784.126 738.517,784.126 745.535,784.126 752.412,784.126 758.276,784.126 764.109,784.126 
  769.129,784.126 773.76,784.126 777.582,784.126 781.193,784.126 784.256,784.126 787.918,784.126 790.384,784.126 793.279,784.126 795.801,784.126 799.322,784.126 
  802.994,784.126 805.877,784.126 809.05,784.126 811.476,784.126 814.267,784.126 816.71,784.126 820.793,784.126 823.661,784.126 828.808,784.126 832.272,784.126 
  835.875,784.126 840.161,784.126 843.685,784.126 848.831,784.126 852.583,784.126 858.654,784.126 862.901,784.126 869.012,784.126 874.161,784.126 880.424,784.126 
  886.838,784.126 893.962,784.126 901.88,784.126 910.57,784.126 920.351,784.126 931.258,784.126 943.32,784.126 956.27,784.126 969.038,784.126 981.989,784.126 
  996.934,784.126 1012.64,784.126 1028.87,784.126 1045.43,784.126 1061.71,784.126 1077.72,784.126 1092.89,784.126 1107.32,784.126 1120.58,784.126 1132.87,784.126 
  1143.88,784.126 1153.9,784.126 1162.74,784.126 1169.75,784.126 1176.15,784.126 1182.28,784.126 1187.65,784.126 1192.91,784.126 1197.28,784.126 1201.05,784.126 
  1204.72,784.126 1207.99,784.126 1211.26,784.126 1214.16,784.126 1217.32,784.126 1220.15,784.126 1224.06,784.126 1227.78,784.126 1230.56,784.126 1233.55,784.126 
  1235.88,784.126 1238.45,784.126 1240.86,784.126 1245.08,784.126 1248.22,784.126 1252.17,784.126 1255.51,784.126 1259.4,784.126 1262.82,784.126 1267.03,784.126 
  1270.71,784.126 1275.24,784.126 1279.41,784.126 1284.31,784.126 1289.23,784.126 1294.77,784.126 1300.74,784.126 1307.35,784.126 1314.75,784.126 1323.05,784.126 
  1332.54,784.126 1343.48,784.126 1356.28,784.126 1371.45,784.126 1389.42,784.126 1410.06,784.126 1431.86,784.126 1453.1,784.126 1471.91,784.126 1491.94,784.126 
  1513.25,784.126 1534.49,784.126 1555.97,784.126 1576.62,784.126 1596.73,784.126 1615.44,784.126 1633.09,784.126 1649.04,784.126 1663.7,784.126 1676.64,784.126 
  1686.87,784.126 1696.3,784.126 1704.1,784.126 1711.1,784.126 1718.02,784.126 1723.87,784.126 1729.76,784.126 1734.76,784.126 1739.42,784.126 1743.26,784.126 
  1746.87,784.126 1749.97,784.126 1753.45,784.126 1756.02,784.126 1759.07,784.126 1761.66,784.126 1765.21,784.126 1768.98,784.126 1771.87,784.126 1775.1,784.126 
  1777.49,784.126 1780.14,784.126 1782.53,784.126 1786.21,784.126 1789.07,784.126 1793.74,784.126 1797.24,784.126 1800.77,784.126 1804.99,784.126 1808.46,784.126 
  1813.81,784.126 1817.47,784.126 1824.55,784.126 1828.65,784.126 1835.31,784.126 1840.42,784.126 1846.81,784.126 1853.34,784.126 1860.54,784.126 1868.61,784.126 
  1877.41,784.126 1887.33,784.126 1898.41,784.126 1910.6,784.126 1923.61,784.126 1936.24,784.126 1949.53,784.126 1964.61,784.126 1980.38,784.126 1996.71,784.126 
  2013.22,784.126 2029.52,784.126 2045.4,784.126 2060.52,784.126 2074.78,784.126 2087.95,784.126 2100.05,784.126 2110.96,784.126 2120.8,784.126 2128.65,784.126 
  2135.95,784.126 2142.66,784.126 2148.67,784.126 2154.22,784.126 2159.32,784.126 2163.96,784.126 2167.58,784.126 2171.01,784.126 2173.94,784.126 2177.33,784.126 
  2179.75,784.126 2182.6,784.126 2185.06,784.126 2188.47,784.126 2192.14,784.126 2194.9,784.126 2198.08,784.126 2200.37,784.126 2202.89,784.126 2205.18,784.126 
  2208.44,784.126 2211.26,784.126 2215.95,784.126 2219.29,784.126 2222.77,784.126 2226.79,784.126 2230.23,784.126 2234.93,784.126 2238.63,784.126 2243.96,784.126 
  2248.21,784.126 2253.84,784.126 2258.99,784.126 2265.1,784.126 2271.55,784.126 2278.79,784.126 2286.96,784.126 2289.08,784.126 
  "/>
<path clip-path="url(#clip490)" d="
M1976.74 277.81 L2277.76 277.81 L2277.76 96.3696 L1976.74 96.3696  Z
  " fill="#ffffff" fill-rule="evenodd" fill-opacity="1"/>
<polyline clip-path="url(#clip490)" style="stroke:#000000; stroke-width:4; stroke-opacity:1; fill:none" points="
  1976.74,277.81 2277.76,277.81 2277.76,96.3696 1976.74,96.3696 1976.74,277.81 
  "/>
<polyline clip-path="url(#clip490)" style="stroke:#009af9; stroke-width:4; stroke-opacity:1; fill:none" points="
  2001.74,156.85 2151.74,156.85 
  "/>
<path clip-path="url(#clip490)" d="M 0 0 M2190.58 176.537 Q2188.77 181.167 2187.06 182.579 Q2185.35 183.991 2182.48 183.991 L2179.07 183.991 L2179.07 180.426 L2181.57 180.426 Q2183.33 180.426 2184.31 179.592 Q2185.28 178.759 2186.46 175.657 L2187.22 173.713 L2176.74 148.204 L2181.25 148.204 L2189.35 168.481 L2197.45 148.204 L2201.97 148.204 L2190.58 176.537 Z" fill="#000000" fill-rule="evenodd" fill-opacity="1" /><path clip-path="url(#clip490)" d="M 0 0 M2207.85 170.194 L2215.49 170.194 L2215.49 143.829 L2207.18 145.495 L2207.18 141.236 L2215.44 139.57 L2220.12 139.57 L2220.12 170.194 L2227.76 170.194 L2227.76 174.13 L2207.85 174.13 L2207.85 170.194 Z" fill="#000000" fill-rule="evenodd" fill-opacity="1" /><polyline clip-path="url(#clip490)" style="stroke:#e26f46; stroke-width:4; stroke-opacity:1; fill:none" points="
  2001.74,217.33 2151.74,217.33 
  "/>
<path clip-path="url(#clip490)" d="M 0 0 M2190.58 237.017 Q2188.77 241.647 2187.06 243.059 Q2185.35 244.471 2182.48 244.471 L2179.07 244.471 L2179.07 240.906 L2181.57 240.906 Q2183.33 240.906 2184.31 240.072 Q2185.28 239.239 2186.46 236.137 L2187.22 234.193 L2176.74 208.684 L2181.25 208.684 L2189.35 228.961 L2197.45 208.684 L2201.97 208.684 L2190.58 237.017 Z" fill="#000000" fill-rule="evenodd" fill-opacity="1" /><path clip-path="url(#clip490)" d="M 0 0 M2211.07 230.674 L2227.38 230.674 L2227.38 234.61 L2205.44 234.61 L2205.44 230.674 Q2208.1 227.92 2212.69 223.29 Q2217.29 218.637 2218.47 217.295 Q2220.72 214.772 2221.6 213.036 Q2222.5 211.276 2222.5 209.587 Q2222.5 206.832 2220.56 205.096 Q2218.63 203.36 2215.53 203.36 Q2213.33 203.36 2210.88 204.124 Q2208.45 204.887 2205.67 206.438 L2205.67 201.716 Q2208.5 200.582 2210.95 200.003 Q2213.4 199.425 2215.44 199.425 Q2220.81 199.425 2224.01 202.11 Q2227.2 204.795 2227.2 209.286 Q2227.2 211.415 2226.39 213.337 Q2225.6 215.235 2223.5 217.827 Q2222.92 218.499 2219.82 221.716 Q2216.71 224.911 2211.07 230.674 Z" fill="#000000" fill-rule="evenodd" fill-opacity="1" /></svg>
