<?xml version="1.0" encoding="utf-8"?>
<svg xmlns="http://www.w3.org/2000/svg" xmlns:xlink="http://www.w3.org/1999/xlink" width="600" height="400" viewBox="0 0 2400 1600">
<defs>
  <clipPath id="clip370">
    <rect x="0" y="0" width="2400" height="1600"/>
  </clipPath>
</defs>
<path clip-path="url(#clip370)" d="M0 1600 L2400 1600 L2400 0 L0 0  Z" fill="#ffffff" fill-rule="evenodd" fill-opacity="1"/>
<defs>
  <clipPath id="clip371">
    <rect x="480" y="0" width="1681" height="1600"/>
  </clipPath>
</defs>
<path clip-path="url(#clip370)" d="M318.014 1423.18 L2352.76 1423.18 L2352.76 47.2441 L318.014 47.2441  Z" fill="#ffffff" fill-rule="evenodd" fill-opacity="1"/>
<defs>
  <clipPath id="clip372">
    <rect x="318" y="47" width="2036" height="1377"/>
  </clipPath>
</defs>
<polyline clip-path="url(#clip372)" style="stroke:#000000; stroke-linecap:round; stroke-linejoin:round; stroke-width:2; stroke-opacity:0.1; fill:none" points="375.601,1423.18 375.601,47.2441 "/>
<polyline clip-path="url(#clip372)" style="stroke:#000000; stroke-linecap:round; stroke-linejoin:round; stroke-width:2; stroke-opacity:0.1; fill:none" points="855.493,1423.18 855.493,47.2441 "/>
<polyline clip-path="url(#clip372)" style="stroke:#000000; stroke-linecap:round; stroke-linejoin:round; stroke-width:2; stroke-opacity:0.1; fill:none" points="1335.38,1423.18 1335.38,47.2441 "/>
<polyline clip-path="url(#clip372)" style="stroke:#000000; stroke-linecap:round; stroke-linejoin:round; stroke-width:2; stroke-opacity:0.1; fill:none" points="1815.28,1423.18 1815.28,47.2441 "/>
<polyline clip-path="url(#clip372)" style="stroke:#000000; stroke-linecap:round; stroke-linejoin:round; stroke-width:2; stroke-opacity:0.1; fill:none" points="2295.17,1423.18 2295.17,47.2441 "/>
<polyline clip-path="url(#clip372)" style="stroke:#000000; stroke-linecap:round; stroke-linejoin:round; stroke-width:2; stroke-opacity:0.1; fill:none" points="318.014,1235.91 2352.76,1235.91 "/>
<polyline clip-path="url(#clip372)" style="stroke:#000000; stroke-linecap:round; stroke-linejoin:round; stroke-width:2; stroke-opacity:0.1; fill:none" points="318.014,985.559 2352.76,985.559 "/>
<polyline clip-path="url(#clip372)" style="stroke:#000000; stroke-linecap:round; stroke-linejoin:round; stroke-width:2; stroke-opacity:0.1; fill:none" points="318.014,735.212 2352.76,735.212 "/>
<polyline clip-path="url(#clip372)" style="stroke:#000000; stroke-linecap:round; stroke-linejoin:round; stroke-width:2; stroke-opacity:0.1; fill:none" points="318.014,484.865 2352.76,484.865 "/>
<polyline clip-path="url(#clip372)" style="stroke:#000000; stroke-linecap:round; stroke-linejoin:round; stroke-width:2; stroke-opacity:0.1; fill:none" points="318.014,234.517 2352.76,234.517 "/>
<polyline clip-path="url(#clip370)" style="stroke:#000000; stroke-linecap:round; stroke-linejoin:round; stroke-width:4; stroke-opacity:1; fill:none" points="318.014,1423.18 2352.76,1423.18 "/>
<polyline clip-path="url(#clip370)" style="stroke:#000000; stroke-linecap:round; stroke-linejoin:round; stroke-width:4; stroke-opacity:1; fill:none" points="375.601,1423.18 375.601,1404.28 "/>
<polyline clip-path="url(#clip370)" style="stroke:#000000; stroke-linecap:round; stroke-linejoin:round; stroke-width:4; stroke-opacity:1; fill:none" points="855.493,1423.18 855.493,1404.28 "/>
<polyline clip-path="url(#clip370)" style="stroke:#000000; stroke-linecap:round; stroke-linejoin:round; stroke-width:4; stroke-opacity:1; fill:none" points="1335.38,1423.18 1335.38,1404.28 "/>
<polyline clip-path="url(#clip370)" style="stroke:#000000; stroke-linecap:round; stroke-linejoin:round; stroke-width:4; stroke-opacity:1; fill:none" points="1815.28,1423.18 1815.28,1404.28 "/>
<polyline clip-path="url(#clip370)" style="stroke:#000000; stroke-linecap:round; stroke-linejoin:round; stroke-width:4; stroke-opacity:1; fill:none" points="2295.17,1423.18 2295.17,1404.28 "/>
<path clip-path="url(#clip370)" d="M375.601 1454.1 Q371.99 1454.1 370.161 1457.66 Q368.356 1461.2 368.356 1468.33 Q368.356 1475.44 370.161 1479.01 Q371.99 1482.55 375.601 1482.55 Q379.235 1482.55 381.041 1479.01 Q382.869 1475.44 382.869 1468.33 Q382.869 1461.2 381.041 1457.66 Q379.235 1454.1 375.601 1454.1 M375.601 1450.39 Q381.411 1450.39 384.467 1455 Q387.545 1459.58 387.545 1468.33 Q387.545 1477.06 384.467 1481.67 Q381.411 1486.25 375.601 1486.25 Q369.791 1486.25 366.712 1481.67 Q363.657 1477.06 363.657 1468.33 Q363.657 1459.58 366.712 1455 Q369.791 1450.39 375.601 1450.39 Z" fill="#000000" fill-rule="nonzero" fill-opacity="1" /><path clip-path="url(#clip370)" d="M845.771 1451.02 L864.127 1451.02 L864.127 1454.96 L850.053 1454.96 L850.053 1463.43 Q851.072 1463.08 852.09 1462.92 Q853.109 1462.73 854.127 1462.73 Q859.914 1462.73 863.294 1465.9 Q866.673 1469.08 866.673 1474.49 Q866.673 1480.07 863.201 1483.17 Q859.729 1486.25 853.41 1486.25 Q851.234 1486.25 848.965 1485.88 Q846.72 1485.51 844.312 1484.77 L844.312 1480.07 Q846.396 1481.2 848.618 1481.76 Q850.84 1482.32 853.317 1482.32 Q857.322 1482.32 859.66 1480.21 Q861.998 1478.1 861.998 1474.49 Q861.998 1470.88 859.66 1468.77 Q857.322 1466.67 853.317 1466.67 Q851.442 1466.67 849.567 1467.08 Q847.715 1467.5 845.771 1468.38 L845.771 1451.02 Z" fill="#000000" fill-rule="nonzero" fill-opacity="1" /><path clip-path="url(#clip370)" d="M1310.07 1481.64 L1317.71 1481.64 L1317.71 1455.28 L1309.4 1456.95 L1309.4 1452.69 L1317.67 1451.02 L1322.34 1451.02 L1322.34 1481.64 L1329.98 1481.64 L1329.98 1485.58 L1310.07 1485.58 L1310.07 1481.64 Z" fill="#000000" fill-rule="nonzero" fill-opacity="1" /><path clip-path="url(#clip370)" d="M1349.42 1454.1 Q1345.81 1454.1 1343.98 1457.66 Q1342.18 1461.2 1342.18 1468.33 Q1342.18 1475.44 1343.98 1479.01 Q1345.81 1482.55 1349.42 1482.55 Q1353.06 1482.55 1354.86 1479.01 Q1356.69 1475.44 1356.69 1468.33 Q1356.69 1461.2 1354.86 1457.66 Q1353.06 1454.1 1349.42 1454.1 M1349.42 1450.39 Q1355.23 1450.39 1358.29 1455 Q1361.37 1459.58 1361.37 1468.33 Q1361.37 1477.06 1358.29 1481.67 Q1355.23 1486.25 1349.42 1486.25 Q1343.61 1486.25 1340.54 1481.67 Q1337.48 1477.06 1337.48 1468.33 Q1337.48 1459.58 1340.54 1455 Q1343.61 1450.39 1349.42 1450.39 Z" fill="#000000" fill-rule="nonzero" fill-opacity="1" /><path clip-path="url(#clip370)" d="M1790.46 1481.64 L1798.1 1481.64 L1798.1 1455.28 L1789.79 1456.95 L1789.79 1452.69 L1798.05 1451.02 L1802.73 1451.02 L1802.73 1481.64 L1810.37 1481.64 L1810.37 1485.58 L1790.46 1485.58 L1790.46 1481.64 Z" fill="#000000" fill-rule="nonzero" fill-opacity="1" /><path clip-path="url(#clip370)" d="M1819.86 1451.02 L1838.22 1451.02 L1838.22 1454.96 L1824.14 1454.96 L1824.14 1463.43 Q1825.16 1463.08 1826.18 1462.92 Q1827.2 1462.73 1828.22 1462.73 Q1834 1462.73 1837.38 1465.9 Q1840.76 1469.08 1840.76 1474.49 Q1840.76 1480.07 1837.29 1483.17 Q1833.82 1486.25 1827.5 1486.25 Q1825.32 1486.25 1823.05 1485.88 Q1820.81 1485.51 1818.4 1484.77 L1818.4 1480.07 Q1820.49 1481.2 1822.71 1481.76 Q1824.93 1482.32 1827.41 1482.32 Q1831.41 1482.32 1833.75 1480.21 Q1836.09 1478.1 1836.09 1474.49 Q1836.09 1470.88 1833.75 1468.77 Q1831.41 1466.67 1827.41 1466.67 Q1825.53 1466.67 1823.66 1467.08 Q1821.8 1467.5 1819.86 1468.38 L1819.86 1451.02 Z" fill="#000000" fill-rule="nonzero" fill-opacity="1" /><path clip-path="url(#clip370)" d="M2273.94 1481.64 L2290.26 1481.64 L2290.26 1485.58 L2268.32 1485.58 L2268.32 1481.64 Q2270.98 1478.89 2275.56 1474.26 Q2280.17 1469.61 2281.35 1468.27 Q2283.59 1465.74 2284.47 1464.01 Q2285.38 1462.25 2285.38 1460.56 Q2285.38 1457.8 2283.43 1456.07 Q2281.51 1454.33 2278.41 1454.33 Q2276.21 1454.33 2273.76 1455.09 Q2271.33 1455.86 2268.55 1457.41 L2268.55 1452.69 Q2271.37 1451.55 2273.83 1450.97 Q2276.28 1450.39 2278.32 1450.39 Q2283.69 1450.39 2286.88 1453.08 Q2290.08 1455.77 2290.08 1460.26 Q2290.08 1462.39 2289.27 1464.31 Q2288.48 1466.2 2286.37 1468.8 Q2285.79 1469.47 2282.69 1472.69 Q2279.59 1475.88 2273.94 1481.64 Z" fill="#000000" fill-rule="nonzero" fill-opacity="1" /><path clip-path="url(#clip370)" d="M2310.08 1454.1 Q2306.47 1454.1 2304.64 1457.66 Q2302.83 1461.2 2302.83 1468.33 Q2302.83 1475.44 2304.64 1479.01 Q2306.47 1482.55 2310.08 1482.55 Q2313.71 1482.55 2315.52 1479.01 Q2317.34 1475.44 2317.34 1468.33 Q2317.34 1461.2 2315.52 1457.66 Q2313.71 1454.1 2310.08 1454.1 M2310.08 1450.39 Q2315.89 1450.39 2318.94 1455 Q2322.02 1459.58 2322.02 1468.33 Q2322.02 1477.06 2318.94 1481.67 Q2315.89 1486.25 2310.08 1486.25 Q2304.27 1486.25 2301.19 1481.67 Q2298.13 1477.06 2298.13 1468.33 Q2298.13 1459.58 2301.19 1455 Q2304.27 1450.39 2310.08 1450.39 Z" fill="#000000" fill-rule="nonzero" fill-opacity="1" /><path clip-path="url(#clip370)" d="M1334.45 1522.27 L1334.45 1532.4 L1346.51 1532.4 L1346.51 1536.95 L1334.45 1536.95 L1334.45 1556.3 Q1334.45 1560.66 1335.62 1561.9 Q1336.83 1563.14 1340.49 1563.14 L1346.51 1563.14 L1346.51 1568.04 L1340.49 1568.04 Q1333.71 1568.04 1331.14 1565.53 Q1328.56 1562.98 1328.56 1556.3 L1328.56 1536.95 L1324.26 1536.95 L1324.26 1532.4 L1328.56 1532.4 L1328.56 1522.27 L1334.45 1522.27 Z" fill="#000000" fill-rule="nonzero" fill-opacity="1" /><polyline clip-path="url(#clip370)" style="stroke:#000000; stroke-linecap:round; stroke-linejoin:round; stroke-width:4; stroke-opacity:1; fill:none" points="318.014,1423.18 318.014,47.2441 "/>
<polyline clip-path="url(#clip370)" style="stroke:#000000; stroke-linecap:round; stroke-linejoin:round; stroke-width:4; stroke-opacity:1; fill:none" points="318.014,1235.91 336.912,1235.91 "/>
<polyline clip-path="url(#clip370)" style="stroke:#000000; stroke-linecap:round; stroke-linejoin:round; stroke-width:4; stroke-opacity:1; fill:none" points="318.014,985.559 336.912,985.559 "/>
<polyline clip-path="url(#clip370)" style="stroke:#000000; stroke-linecap:round; stroke-linejoin:round; stroke-width:4; stroke-opacity:1; fill:none" points="318.014,735.212 336.912,735.212 "/>
<polyline clip-path="url(#clip370)" style="stroke:#000000; stroke-linecap:round; stroke-linejoin:round; stroke-width:4; stroke-opacity:1; fill:none" points="318.014,484.865 336.912,484.865 "/>
<polyline clip-path="url(#clip370)" style="stroke:#000000; stroke-linecap:round; stroke-linejoin:round; stroke-width:4; stroke-opacity:1; fill:none" points="318.014,234.517 336.912,234.517 "/>
<path clip-path="url(#clip370)" d="M114.26 1236.36 L143.936 1236.36 L143.936 1240.29 L114.26 1240.29 L114.26 1236.36 Z" fill="#000000" fill-rule="nonzero" fill-opacity="1" /><path clip-path="url(#clip370)" d="M164.028 1221.71 Q160.417 1221.71 158.589 1225.27 Q156.783 1228.81 156.783 1235.94 Q156.783 1243.05 158.589 1246.61 Q160.417 1250.15 164.028 1250.15 Q167.663 1250.15 169.468 1246.61 Q171.297 1243.05 171.297 1235.94 Q171.297 1228.81 169.468 1225.27 Q167.663 1221.71 164.028 1221.71 M164.028 1218 Q169.839 1218 172.894 1222.61 Q175.973 1227.19 175.973 1235.94 Q175.973 1244.67 172.894 1249.27 Q169.839 1253.86 164.028 1253.86 Q158.218 1253.86 155.14 1249.27 Q152.084 1244.67 152.084 1235.94 Q152.084 1227.19 155.14 1222.61 Q158.218 1218 164.028 1218 Z" fill="#000000" fill-rule="nonzero" fill-opacity="1" /><path clip-path="url(#clip370)" d="M184.19 1247.31 L189.075 1247.31 L189.075 1253.19 L184.19 1253.19 L184.19 1247.31 Z" fill="#000000" fill-rule="nonzero" fill-opacity="1" /><path clip-path="url(#clip370)" d="M209.26 1221.71 Q205.649 1221.71 203.82 1225.27 Q202.014 1228.81 202.014 1235.94 Q202.014 1243.05 203.82 1246.61 Q205.649 1250.15 209.26 1250.15 Q212.894 1250.15 214.699 1246.61 Q216.528 1243.05 216.528 1235.94 Q216.528 1228.81 214.699 1225.27 Q212.894 1221.71 209.26 1221.71 M209.26 1218 Q215.07 1218 218.125 1222.61 Q221.204 1227.19 221.204 1235.94 Q221.204 1244.67 218.125 1249.27 Q215.07 1253.86 209.26 1253.86 Q203.449 1253.86 200.371 1249.27 Q197.315 1244.67 197.315 1235.94 Q197.315 1227.19 200.371 1222.61 Q203.449 1218 209.26 1218 Z" fill="#000000" fill-rule="nonzero" fill-opacity="1" /><path clip-path="url(#clip370)" d="M239.422 1221.71 Q235.81 1221.71 233.982 1225.27 Q232.176 1228.81 232.176 1235.94 Q232.176 1243.05 233.982 1246.61 Q235.81 1250.15 239.422 1250.15 Q243.056 1250.15 244.861 1246.61 Q246.69 1243.05 246.69 1235.94 Q246.69 1228.81 244.861 1225.27 Q243.056 1221.71 239.422 1221.71 M239.422 1218 Q245.232 1218 248.287 1222.61 Q251.366 1227.19 251.366 1235.94 Q251.366 1244.67 248.287 1249.27 Q245.232 1253.86 239.422 1253.86 Q233.611 1253.86 230.533 1249.27 Q227.477 1244.67 227.477 1235.94 Q227.477 1227.19 230.533 1222.61 Q233.611 1218 239.422 1218 Z" fill="#000000" fill-rule="nonzero" fill-opacity="1" /><path clip-path="url(#clip370)" d="M272.431 1222.7 L260.625 1241.15 L272.431 1241.15 L272.431 1222.7 M271.204 1218.63 L277.083 1218.63 L277.083 1241.15 L282.014 1241.15 L282.014 1245.04 L277.083 1245.04 L277.083 1253.19 L272.431 1253.19 L272.431 1245.04 L256.829 1245.04 L256.829 1240.52 L271.204 1218.63 Z" fill="#000000" fill-rule="nonzero" fill-opacity="1" /><path clip-path="url(#clip370)" d="M116.343 986.011 L146.019 986.011 L146.019 989.946 L116.343 989.946 L116.343 986.011 Z" fill="#000000" fill-rule="nonzero" fill-opacity="1" /><path clip-path="url(#clip370)" d="M166.112 971.358 Q162.501 971.358 160.672 974.923 Q158.866 978.465 158.866 985.594 Q158.866 992.701 160.672 996.265 Q162.501 999.807 166.112 999.807 Q169.746 999.807 171.552 996.265 Q173.38 992.701 173.38 985.594 Q173.38 978.465 171.552 974.923 Q169.746 971.358 166.112 971.358 M166.112 967.654 Q171.922 967.654 174.977 972.261 Q178.056 976.844 178.056 985.594 Q178.056 994.321 174.977 998.927 Q171.922 1003.51 166.112 1003.51 Q160.302 1003.51 157.223 998.927 Q154.167 994.321 154.167 985.594 Q154.167 976.844 157.223 972.261 Q160.302 967.654 166.112 967.654 Z" fill="#000000" fill-rule="nonzero" fill-opacity="1" /><path clip-path="url(#clip370)" d="M186.274 996.96 L191.158 996.96 L191.158 1002.84 L186.274 1002.84 L186.274 996.96 Z" fill="#000000" fill-rule="nonzero" fill-opacity="1" /><path clip-path="url(#clip370)" d="M211.343 971.358 Q207.732 971.358 205.903 974.923 Q204.098 978.465 204.098 985.594 Q204.098 992.701 205.903 996.265 Q207.732 999.807 211.343 999.807 Q214.977 999.807 216.783 996.265 Q218.611 992.701 218.611 985.594 Q218.611 978.465 216.783 974.923 Q214.977 971.358 211.343 971.358 M211.343 967.654 Q217.153 967.654 220.209 972.261 Q223.287 976.844 223.287 985.594 Q223.287 994.321 220.209 998.927 Q217.153 1003.51 211.343 1003.51 Q205.533 1003.51 202.454 998.927 Q199.399 994.321 199.399 985.594 Q199.399 976.844 202.454 972.261 Q205.533 967.654 211.343 967.654 Z" fill="#000000" fill-rule="nonzero" fill-opacity="1" /><path clip-path="url(#clip370)" d="M241.505 971.358 Q237.894 971.358 236.065 974.923 Q234.26 978.465 234.26 985.594 Q234.26 992.701 236.065 996.265 Q237.894 999.807 241.505 999.807 Q245.139 999.807 246.945 996.265 Q248.773 992.701 248.773 985.594 Q248.773 978.465 246.945 974.923 Q245.139 971.358 241.505 971.358 M241.505 967.654 Q247.315 967.654 250.371 972.261 Q253.449 976.844 253.449 985.594 Q253.449 994.321 250.371 998.927 Q247.315 1003.51 241.505 1003.51 Q235.695 1003.51 232.616 998.927 Q229.56 994.321 229.56 985.594 Q229.56 976.844 232.616 972.261 Q235.695 967.654 241.505 967.654 Z" fill="#000000" fill-rule="nonzero" fill-opacity="1" /><path clip-path="url(#clip370)" d="M265.695 998.904 L282.014 998.904 L282.014 1002.84 L260.07 1002.84 L260.07 998.904 Q262.732 996.15 267.315 991.52 Q271.921 986.867 273.102 985.525 Q275.347 983.002 276.227 981.265 Q277.13 979.506 277.13 977.816 Q277.13 975.062 275.185 973.326 Q273.264 971.59 270.162 971.59 Q267.963 971.59 265.509 972.353 Q263.079 973.117 260.301 974.668 L260.301 969.946 Q263.125 968.812 265.579 968.233 Q268.032 967.654 270.07 967.654 Q275.44 967.654 278.634 970.34 Q281.829 973.025 281.829 977.515 Q281.829 979.645 281.019 981.566 Q280.231 983.465 278.125 986.057 Q277.546 986.728 274.444 989.946 Q271.343 993.14 265.695 998.904 Z" fill="#000000" fill-rule="nonzero" fill-opacity="1" /><path clip-path="url(#clip370)" d="M164.515 721.011 Q160.903 721.011 159.075 724.575 Q157.269 728.117 157.269 735.247 Q157.269 742.353 159.075 745.918 Q160.903 749.46 164.515 749.46 Q168.149 749.46 169.954 745.918 Q171.783 742.353 171.783 735.247 Q171.783 728.117 169.954 724.575 Q168.149 721.011 164.515 721.011 M164.515 717.307 Q170.325 717.307 173.38 721.913 Q176.459 726.497 176.459 735.247 Q176.459 743.973 173.38 748.58 Q170.325 753.163 164.515 753.163 Q158.704 753.163 155.626 748.58 Q152.57 743.973 152.57 735.247 Q152.57 726.497 155.626 721.913 Q158.704 717.307 164.515 717.307 Z" fill="#000000" fill-rule="nonzero" fill-opacity="1" /><path clip-path="url(#clip370)" d="M184.676 746.612 L189.561 746.612 L189.561 752.492 L184.676 752.492 L184.676 746.612 Z" fill="#000000" fill-rule="nonzero" fill-opacity="1" /><path clip-path="url(#clip370)" d="M209.746 721.011 Q206.135 721.011 204.306 724.575 Q202.5 728.117 202.5 735.247 Q202.5 742.353 204.306 745.918 Q206.135 749.46 209.746 749.46 Q213.38 749.46 215.186 745.918 Q217.014 742.353 217.014 735.247 Q217.014 728.117 215.186 724.575 Q213.38 721.011 209.746 721.011 M209.746 717.307 Q215.556 717.307 218.611 721.913 Q221.69 726.497 221.69 735.247 Q221.69 743.973 218.611 748.58 Q215.556 753.163 209.746 753.163 Q203.936 753.163 200.857 748.58 Q197.801 743.973 197.801 735.247 Q197.801 726.497 200.857 721.913 Q203.936 717.307 209.746 717.307 Z" fill="#000000" fill-rule="nonzero" fill-opacity="1" /><path clip-path="url(#clip370)" d="M239.908 721.011 Q236.297 721.011 234.468 724.575 Q232.662 728.117 232.662 735.247 Q232.662 742.353 234.468 745.918 Q236.297 749.46 239.908 749.46 Q243.542 749.46 245.347 745.918 Q247.176 742.353 247.176 735.247 Q247.176 728.117 245.347 724.575 Q243.542 721.011 239.908 721.011 M239.908 717.307 Q245.718 717.307 248.773 721.913 Q251.852 726.497 251.852 735.247 Q251.852 743.973 248.773 748.58 Q245.718 753.163 239.908 753.163 Q234.097 753.163 231.019 748.58 Q227.963 743.973 227.963 735.247 Q227.963 726.497 231.019 721.913 Q234.097 717.307 239.908 717.307 Z" fill="#000000" fill-rule="nonzero" fill-opacity="1" /><path clip-path="url(#clip370)" d="M270.07 721.011 Q266.458 721.011 264.63 724.575 Q262.824 728.117 262.824 735.247 Q262.824 742.353 264.63 745.918 Q266.458 749.46 270.07 749.46 Q273.704 749.46 275.509 745.918 Q277.338 742.353 277.338 735.247 Q277.338 728.117 275.509 724.575 Q273.704 721.011 270.07 721.011 M270.07 717.307 Q275.88 717.307 278.935 721.913 Q282.014 726.497 282.014 735.247 Q282.014 743.973 278.935 748.58 Q275.88 753.163 270.07 753.163 Q264.259 753.163 261.181 748.58 Q258.125 743.973 258.125 735.247 Q258.125 726.497 261.181 721.913 Q264.259 717.307 270.07 717.307 Z" fill="#000000" fill-rule="nonzero" fill-opacity="1" /><path clip-path="url(#clip370)" d="M166.112 470.663 Q162.501 470.663 160.672 474.228 Q158.866 477.77 158.866 484.899 Q158.866 492.006 160.672 495.57 Q162.501 499.112 166.112 499.112 Q169.746 499.112 171.552 495.57 Q173.38 492.006 173.38 484.899 Q173.38 477.77 171.552 474.228 Q169.746 470.663 166.112 470.663 M166.112 466.96 Q171.922 466.96 174.977 471.566 Q178.056 476.149 178.056 484.899 Q178.056 493.626 174.977 498.233 Q171.922 502.816 166.112 502.816 Q160.302 502.816 157.223 498.233 Q154.167 493.626 154.167 484.899 Q154.167 476.149 157.223 471.566 Q160.302 466.96 166.112 466.96 Z" fill="#000000" fill-rule="nonzero" fill-opacity="1" /><path clip-path="url(#clip370)" d="M186.274 496.265 L191.158 496.265 L191.158 502.145 L186.274 502.145 L186.274 496.265 Z" fill="#000000" fill-rule="nonzero" fill-opacity="1" /><path clip-path="url(#clip370)" d="M211.343 470.663 Q207.732 470.663 205.903 474.228 Q204.098 477.77 204.098 484.899 Q204.098 492.006 205.903 495.57 Q207.732 499.112 211.343 499.112 Q214.977 499.112 216.783 495.57 Q218.611 492.006 218.611 484.899 Q218.611 477.77 216.783 474.228 Q214.977 470.663 211.343 470.663 M211.343 466.96 Q217.153 466.96 220.209 471.566 Q223.287 476.149 223.287 484.899 Q223.287 493.626 220.209 498.233 Q217.153 502.816 211.343 502.816 Q205.533 502.816 202.454 498.233 Q199.399 493.626 199.399 484.899 Q199.399 476.149 202.454 471.566 Q205.533 466.96 211.343 466.96 Z" fill="#000000" fill-rule="nonzero" fill-opacity="1" /><path clip-path="url(#clip370)" d="M241.505 470.663 Q237.894 470.663 236.065 474.228 Q234.26 477.77 234.26 484.899 Q234.26 492.006 236.065 495.57 Q237.894 499.112 241.505 499.112 Q245.139 499.112 246.945 495.57 Q248.773 492.006 248.773 484.899 Q248.773 477.77 246.945 474.228 Q245.139 470.663 241.505 470.663 M241.505 466.96 Q247.315 466.96 250.371 471.566 Q253.449 476.149 253.449 484.899 Q253.449 493.626 250.371 498.233 Q247.315 502.816 241.505 502.816 Q235.695 502.816 232.616 498.233 Q229.56 493.626 229.56 484.899 Q229.56 476.149 232.616 471.566 Q235.695 466.96 241.505 466.96 Z" fill="#000000" fill-rule="nonzero" fill-opacity="1" /><path clip-path="url(#clip370)" d="M265.695 498.209 L282.014 498.209 L282.014 502.145 L260.07 502.145 L260.07 498.209 Q262.732 495.455 267.315 490.825 Q271.921 486.172 273.102 484.83 Q275.347 482.307 276.227 480.571 Q277.13 478.811 277.13 477.122 Q277.13 474.367 275.185 472.631 Q273.264 470.895 270.162 470.895 Q267.963 470.895 265.509 471.659 Q263.079 472.422 260.301 473.973 L260.301 469.251 Q263.125 468.117 265.579 467.538 Q268.032 466.96 270.07 466.96 Q275.44 466.96 278.634 469.645 Q281.829 472.33 281.829 476.821 Q281.829 478.95 281.019 480.872 Q280.231 482.77 278.125 485.362 Q277.546 486.034 274.444 489.251 Q271.343 492.446 265.695 498.209 Z" fill="#000000" fill-rule="nonzero" fill-opacity="1" /><path clip-path="url(#clip370)" d="M164.028 220.316 Q160.417 220.316 158.589 223.881 Q156.783 227.422 156.783 234.552 Q156.783 241.658 158.589 245.223 Q160.417 248.765 164.028 248.765 Q167.663 248.765 169.468 245.223 Q171.297 241.658 171.297 234.552 Q171.297 227.422 169.468 223.881 Q167.663 220.316 164.028 220.316 M164.028 216.612 Q169.839 216.612 172.894 221.219 Q175.973 225.802 175.973 234.552 Q175.973 243.279 172.894 247.885 Q169.839 252.468 164.028 252.468 Q158.218 252.468 155.14 247.885 Q152.084 243.279 152.084 234.552 Q152.084 225.802 155.14 221.219 Q158.218 216.612 164.028 216.612 Z" fill="#000000" fill-rule="nonzero" fill-opacity="1" /><path clip-path="url(#clip370)" d="M184.19 245.918 L189.075 245.918 L189.075 251.797 L184.19 251.797 L184.19 245.918 Z" fill="#000000" fill-rule="nonzero" fill-opacity="1" /><path clip-path="url(#clip370)" d="M209.26 220.316 Q205.649 220.316 203.82 223.881 Q202.014 227.422 202.014 234.552 Q202.014 241.658 203.82 245.223 Q205.649 248.765 209.26 248.765 Q212.894 248.765 214.699 245.223 Q216.528 241.658 216.528 234.552 Q216.528 227.422 214.699 223.881 Q212.894 220.316 209.26 220.316 M209.26 216.612 Q215.07 216.612 218.125 221.219 Q221.204 225.802 221.204 234.552 Q221.204 243.279 218.125 247.885 Q215.07 252.468 209.26 252.468 Q203.449 252.468 200.371 247.885 Q197.315 243.279 197.315 234.552 Q197.315 225.802 200.371 221.219 Q203.449 216.612 209.26 216.612 Z" fill="#000000" fill-rule="nonzero" fill-opacity="1" /><path clip-path="url(#clip370)" d="M239.422 220.316 Q235.81 220.316 233.982 223.881 Q232.176 227.422 232.176 234.552 Q232.176 241.658 233.982 245.223 Q235.81 248.765 239.422 248.765 Q243.056 248.765 244.861 245.223 Q246.69 241.658 246.69 234.552 Q246.69 227.422 244.861 223.881 Q243.056 220.316 239.422 220.316 M239.422 216.612 Q245.232 216.612 248.287 221.219 Q251.366 225.802 251.366 234.552 Q251.366 243.279 248.287 247.885 Q245.232 252.468 239.422 252.468 Q233.611 252.468 230.533 247.885 Q227.477 243.279 227.477 234.552 Q227.477 225.802 230.533 221.219 Q233.611 216.612 239.422 216.612 Z" fill="#000000" fill-rule="nonzero" fill-opacity="1" /><path clip-path="url(#clip370)" d="M272.431 221.311 L260.625 239.76 L272.431 239.76 L272.431 221.311 M271.204 217.237 L277.083 217.237 L277.083 239.76 L282.014 239.76 L282.014 243.649 L277.083 243.649 L277.083 251.797 L272.431 251.797 L272.431 243.649 L256.829 243.649 L256.829 239.135 L271.204 217.237 Z" fill="#000000" fill-rule="nonzero" fill-opacity="1" /><path clip-path="url(#clip370)" d="M44.7161 746.654 L47.5806 746.654 L47.5806 773.581 Q53.6281 773.199 56.8109 769.953 Q59.9619 766.674 59.9619 760.85 Q59.9619 757.476 59.1344 754.325 Q58.3069 751.142 56.6518 748.023 L62.1899 748.023 Q63.5267 751.174 64.227 754.484 Q64.9272 757.794 64.9272 761.2 Q64.9272 769.73 59.9619 774.727 Q54.9967 779.692 46.5303 779.692 Q37.7774 779.692 32.6531 774.982 Q27.4968 770.239 27.4968 762.218 Q27.4968 755.025 32.1438 750.856 Q36.7589 746.654 44.7161 746.654 M42.9973 752.511 Q38.1912 752.574 35.3266 755.216 Q32.4621 757.826 32.4621 762.155 Q32.4621 767.056 35.2312 770.016 Q38.0002 772.945 43.0292 773.39 L42.9973 752.511 Z" fill="#000000" fill-rule="nonzero" fill-opacity="1" /><path clip-path="url(#clip370)" d="M33.8307 716.385 Q33.2578 717.372 33.0032 718.55 Q32.7167 719.696 32.7167 721.096 Q32.7167 726.061 35.9632 728.735 Q39.1779 731.377 45.2253 731.377 L64.0042 731.377 L64.0042 737.265 L28.3562 737.265 L28.3562 731.377 L33.8944 731.377 Q30.6479 729.531 29.0883 726.571 Q27.4968 723.61 27.4968 719.377 Q27.4968 718.773 27.5923 718.04 Q27.656 717.308 27.8151 716.417 L33.8307 716.385 Z" fill="#000000" fill-rule="nonzero" fill-opacity="1" /><path clip-path="url(#clip370)" d="M33.8307 690.732 Q33.2578 691.718 33.0032 692.896 Q32.7167 694.042 32.7167 695.442 Q32.7167 700.407 35.9632 703.081 Q39.1779 705.723 45.2253 705.723 L64.0042 705.723 L64.0042 711.611 L28.3562 711.611 L28.3562 705.723 L33.8944 705.723 Q30.6479 703.877 29.0883 700.917 Q27.4968 697.957 27.4968 693.723 Q27.4968 693.119 27.5923 692.387 Q27.656 691.655 27.8151 690.763 L33.8307 690.732 Z" fill="#000000" fill-rule="nonzero" fill-opacity="1" /><polyline clip-path="url(#clip372)" style="stroke:#4063d8; stroke-linecap:round; stroke-linejoin:round; stroke-width:4; stroke-opacity:1; fill:none" points="375.601,735.212 377.643,735.211 380.909,735.234 384.306,735.204 388.968,735.346 393.344,735.226 398.808,735.627 403.484,735.429 409.105,735.984 413.581,735.893 418.994,736.213 423.06,736.184 428.751,738.542 432.011,736.863 434.824,738.902 438.132,734.739 440.296,735.593 443.151,734.572 445.221,734.922 448.344,733.058 450.395,733.202 453.57,733.138 456.508,733.96 459.229,733.976 461.948,734.333 464.39,734.218 467.166,734.728 469.661,734.277 472.827,735.382 476.043,735.077 481.153,733.63 484.187,734.099 488.527,734.621 491.76,734.577 496.432,734.731 500.024,734.757 504.86,734.78 509.255,734.829 514.457,734.807 520.072,734.821 526.238,734.805 533.357,734.793 541.331,734.78 550.635,734.76 561.624,734.743 574.707,734.723 590.741,734.703 610.385,734.674 633.033,734.636 655.866,734.6 676.428,734.555 694.917,734.532 716.527,734.467 738.283,734.341 759.328,734.327 780.493,733.968 799.535,734.005 818.088,733.324 834.149,733.056 847.518,732.435 859.865,732.066 869.891,731.226 879.087,730.726 886.814,729.922 893.657,729.091 899.879,728.452 905.052,727.78 910.464,725.677 914.398,724.638 919.716,722.576 923.677,721.635 927.27,719.851 930.96,719.618 934.055,718.125 937.419,718.344 940.149,717.321 943.58,720.174 946.277,719.795 950.967,727.296 953.747,723.852 956.286,726.38 959,729.621 961.269,729.934 964.932,732.165 967.163,732.794 971.735,732.462 976.461,738.469 979.31,737.524 983.251,736.423 986.214,736.781 991.121,736.357 994.185,736.467 999.371,736.525 1003.23,736.487 1008.24,736.539 1013.38,736.528 1018.96,736.563 1025.36,736.586 1032.22,736.616 1040.09,736.656 1048.95,736.699 1058.96,736.751 1070.43,736.814 1083.17,736.885 1096.5,736.981 1108.24,737.056 1123.21,737.177 1139.34,737.367 1155.6,737.508 1172.79,737.921 1188.71,738.07 1204.88,738.887 1219.17,739.136 1233.1,740.471 1245.05,741.328 1254.96,742.619 1264.11,743.862 1271.66,745.463 1278.54,747.228 1284.54,748.935 1289.78,751.288 1294.84,753.301 1298.98,755.873 1305.34,762.449 1308.83,763.349 1311.98,768.919 1315,766.75 1316.98,768.68 1319.57,771.154 1321.64,771.808 1325.05,770.514 1326.92,770.008 1330.29,767.762 1333.14,765.408 1335.88,761.7 1338.64,757.676 1341.04,754.174 1344.01,750.09 1346.42,746.991 1350.01,744.21 1353.06,741.426 1357.84,737.565 1360.96,736.671 1364.97,735.622 1368.35,735.099 1372.41,734.65 1376.21,734.391 1380.56,734.166 1385.06,734.034 1390.02,733.919 1395.48,733.844 1401.49,733.783 1408.29,733.732 1415.99,733.689 1424.86,733.646 1435.27,733.602 1447.63,733.552 1462.61,733.492 1480.93,733.417 1502.57,733.31 1525.23,733.196 1546.06,733.056 1563.22,732.962 1584.53,732.781 1606.14,732.507 1627.03,732.341 1648.59,731.708 1667.72,731.563 1686.89,730.4 1703.2,729.908 1717.09,728.666 1729.71,727.846 1740.16,726.188 1749.6,724.917 1757.66,723.014 1764.68,721.185 1771.16,718.81 1776.42,717.205 1782.14,711.412 1785.97,708.986 1790.85,704.28 1794.58,700.603 1798.01,697.097 1801.5,693.154 1804.85,690.161 1807.88,687.17 1811,685.632 1813.73,684.442 1816.85,685.867 1819.63,687.294 1823.78,694.951 1826.98,697.237 1829.61,704.052 1832.5,706.627 1834.62,711.249 1837.32,716.599 1839.71,720.055 1844.7,726.985 1848.36,729.881 1851.86,731.541 1856.21,735.652 1859.16,735.985 1863.18,735.923 1866.43,736.631 1871.97,737.092 1875.66,737.24 1880.81,737.467 1885.78,737.552 1891.33,737.673 1897.66,737.753 1904.38,737.829 1912.14,737.91 1920.81,737.991 1930.62,738.084 1941.88,738.196 1954.42,738.326 1967.76,738.489 1980.02,738.642 1994.47,738.854 2010.59,739.157 2026.91,739.482 2043.9,740.01 2060.12,740.517 2076.12,741.426 2090.76,742.294 2104.61,743.765 2116.9,745.471 2127.03,747.313 2136.53,749.669 2144.21,752.269 2151.39,755.37 2157.43,758.673 2162.89,762.696 2167.92,766.741 2172.25,771.473 2177.59,778.418 2181.27,782.842 2184.49,788.216 2187.68,791.742 2190.33,796.315 2193.36,796.838 2195.55,798.753 2198.86,797.139 2201.09,795.688 2204.48,790.085 2208.03,786.877 2210.56,777.896 2213.5,776.647 2215.48,770.164 2217.92,763.343 2220.08,758.626 2224.45,750.276 2227.22,746.294 2231.56,741.062 2234.64,739.01 2238.54,736.99 2241.89,735.864 2245.89,734.922 2249.69,734.347 2254.01,733.886 2258.52,733.599 2263.47,733.373 2268.93,733.237 2274.94,733.108 2281.75,733.064 2289.46,732.931 2295.17,732.943 "/>
<polyline clip-path="url(#clip372)" style="stroke:#389826; stroke-linecap:round; stroke-linejoin:round; stroke-width:4; stroke-opacity:1; fill:none" points="375.601,735.212 377.643,735.212 380.909,735.21 384.306,735.212 388.968,735.205 393.344,735.204 398.808,735.202 403.484,735.178 409.105,735.231 413.581,735.141 418.994,735.383 423.06,735.26 428.751,735.598 432.011,735.324 434.824,735.431 438.132,735.09 440.296,735.204 443.151,734.878 445.221,734.983 448.344,734.702 450.395,734.768 453.57,734.674 456.508,734.804 459.229,734.742 461.948,734.712 464.39,734.737 467.166,734.657 469.661,734.703 472.827,734.658 476.043,734.764 481.153,734.031 484.187,734.208 488.527,733.832 491.76,733.94 496.432,733.724 500.024,733.779 504.86,733.722 509.255,733.74 514.457,733.733 520.072,733.736 526.238,733.737 533.357,733.74 541.331,733.744 550.635,733.749 561.624,733.755 574.707,733.763 590.741,733.772 610.385,733.786 633.033,733.81 655.866,733.837 676.428,733.871 694.917,733.892 716.527,733.938 738.283,733.983 759.328,734.06 780.493,734.095 799.535,734.241 818.088,734.207 834.149,734.461 847.518,734.426 859.865,734.756 869.891,734.681 879.087,735.078 886.814,734.935 893.657,735.32 899.879,735.153 905.052,735.4 910.464,735.442 914.398,735.618 919.716,735.751 923.677,736.033 927.27,736.127 930.96,736.49 934.055,736.536 937.419,737.043 940.149,737.028 943.58,737.762 946.277,737.724 950.967,738.619 953.747,738.317 956.286,738.634 959,738.559 961.269,738.655 964.932,738.55 967.163,738.62 971.735,738.282 976.461,739.201 979.31,739.01 983.251,739.221 986.214,739.164 991.121,739.349 994.185,739.317 999.371,739.375 1003.23,739.356 1008.24,739.354 1013.38,739.344 1018.96,739.334 1025.36,739.322 1032.22,739.308 1040.09,739.291 1048.95,739.271 1058.96,739.247 1070.43,739.217 1083.17,739.183 1096.5,739.136 1108.24,739.097 1123.21,739.035 1139.34,738.959 1155.6,738.865 1172.79,738.756 1188.71,738.608 1204.88,738.487 1219.17,738.252 1233.1,738.15 1245.05,737.769 1254.96,737.681 1264.11,737.227 1271.66,737.178 1278.54,736.674 1284.54,736.706 1289.78,736.18 1294.84,736.297 1298.98,735.856 1305.34,735.851 1308.83,735.221 1311.98,735.047 1315,734.466 1316.98,734.338 1319.57,733.781 1321.64,733.604 1325.05,732.905 1326.92,732.707 1330.29,732.174 1333.14,732.002 1335.88,731.619 1338.64,731.438 1341.04,731.232 1344.01,731.064 1346.42,730.942 1350.01,730.804 1353.06,730.758 1357.84,730.344 1360.96,730.393 1364.97,730.251 1368.35,730.274 1372.41,730.23 1376.21,730.237 1380.56,730.23 1385.06,730.233 1390.02,730.237 1395.48,730.243 1401.49,730.252 1408.29,730.264 1415.99,730.278 1424.86,730.295 1435.27,730.317 1447.63,730.345 1462.61,730.381 1480.93,730.428 1502.57,730.498 1525.23,730.577 1546.06,730.674 1563.22,730.746 1584.53,730.864 1606.14,730.997 1627.03,731.165 1648.59,731.332 1667.72,731.597 1686.89,731.733 1703.2,732.163 1717.09,732.25 1729.71,732.781 1740.16,732.81 1749.6,733.414 1757.66,733.374 1764.68,733.955 1771.16,733.949 1776.42,734.347 1782.14,734.736 1785.97,735.077 1790.85,735.561 1794.58,735.975 1798.01,736.437 1801.5,736.895 1804.85,737.455 1807.88,737.896 1811,738.536 1813.73,738.924 1816.85,739.704 1819.63,740.076 1823.78,741.057 1826.98,741.13 1829.61,741.623 1832.5,741.702 1834.62,741.988 1837.32,742.061 1839.71,742.27 1844.7,742.187 1848.36,742.56 1851.86,742.438 1856.21,742.923 1859.16,742.848 1863.18,742.926 1866.43,742.917 1871.97,742.977 1875.66,742.962 1880.81,742.955 1885.78,742.942 1891.33,742.924 1897.66,742.903 1904.38,742.878 1912.14,742.847 1920.81,742.811 1930.62,742.767 1941.88,742.711 1954.42,742.646 1967.76,742.564 1980.02,742.485 1994.47,742.379 2010.59,742.242 2026.91,742.08 2043.9,741.882 2060.12,741.649 2076.12,741.391 2090.76,741.063 2104.61,740.763 2116.9,740.299 2127.03,740.009 2136.53,739.458 2144.21,739.175 2151.39,738.568 2157.43,738.289 2162.89,737.663 2167.92,737.343 2172.25,736.76 2177.59,736.2 2181.27,735.459 2184.49,735.018 2187.68,734.233 2190.33,733.779 2193.36,732.95 2195.55,732.532 2198.86,731.607 2201.09,731.184 2204.48,730.233 2208.03,730.17 2210.56,729.529 2213.5,729.492 2215.48,729.115 2217.92,728.947 2220.08,728.714 2224.45,728.465 2227.22,728.335 2231.56,728.105 2234.64,728.064 2238.54,727.981 2241.89,727.961 2245.89,727.934 2249.69,727.925 2254.01,727.922 2258.52,727.922 2263.47,727.929 2268.93,727.937 2274.94,727.953 2281.75,727.966 2289.46,727.99 2295.17,728.006 "/>
<path clip-path="url(#clip372)" d="M375.601 735.212 L377.643 735.219 L380.909 735.319 L384.306 735.446 L388.968 736.264 L393.344 736.425 L398.808 739.042 L403.484 738.674 L409.105 743.42 L413.581 742.758 L418.994 747.355 L423.06 748.178 L428.751 752.908 L432.011 754.464 L434.824 756.597 L438.132 759.786 L440.296 760.781 L443.151 764.529 L445.221 764.566 L448.344 768.995 L450.395 767.951 L453.57 768.31 L456.508 765.733 L459.229 763.875 L461.948 761.916 L464.39 757.906 L467.166 756.305 L469.661 752.282 L472.827 749.963 L476.043 747.041 L481.153 752.641 L484.187 747.405 L488.527 751.285 L491.76 746.708 L496.432 749.605 L500.024 746.292 L504.86 747.085 L509.255 745.84 L514.457 745.949 L520.072 745.876 L526.238 745.927 L533.357 746.064 L541.331 746.192 L550.635 746.378 L561.624 746.613 L574.707 746.918 L590.741 747.328 L610.385 747.885 L633.033 748.618 L655.866 749.473 L676.428 750.355 L694.917 751.279 L716.527 752.633 L738.283 754.371 L759.328 756.518 L780.493 759.777 L799.535 763.257 L818.088 769.095 L834.149 774.449 L847.518 780.609 L859.865 789.422 L869.891 798.295 L879.087 810.275 L886.814 823.551 L893.657 839.047 L899.879 857.651 L905.052 876.823 L910.464 902.126 L914.398 923.922 L919.716 958.766 L923.677 988.055 L927.27 1016.22 L930.96 1044.67 L934.055 1065.71 L937.419 1082.92 L940.149 1089.5 L943.58 1086.42 L946.277 1073.3 L950.967 1031.49 L953.747 996.41 L956.286 962.306 L959 925.286 L961.269 895.679 L964.932 853.578 L967.163 831.396 L971.735 795.7 L976.461 771.118 L979.31 760.32 L983.251 752.747 L986.214 748.246 L991.121 750.635 L994.185 749.515 L999.371 752.137 L1003.23 752.065 L1008.24 753.129 L1013.38 753.748 L1018.96 754.373 L1025.36 754.968 L1032.22 755.477 L1040.09 756.021 L1048.95 756.609 L1058.96 757.288 L1070.43 758.117 L1083.17 759.124 L1096.5 760.297 L1108.24 761.454 L1123.21 763.148 L1139.34 765.321 L1155.6 767.988 L1172.79 771.647 L1188.71 775.917 L1204.88 782.125 L1219.17 788.971 L1233.1 799.249 L1245.05 810.098 L1254.96 822.784 L1264.11 839.236 L1271.66 857.198 L1278.54 879.232 L1284.54 904.206 L1289.78 931.922 L1294.84 965.24 L1298.98 998.062 L1305.34 1059 L1308.83 1096.87 L1311.98 1131.98 L1315 1164.54 L1316.98 1183.75 L1319.57 1204.29 L1321.64 1215.25 L1325.05 1219.57 L1326.92 1212.89 L1330.29 1184.34 L1333.14 1144.44 L1335.88 1096.83 L1338.64 1043.66 L1341.04 996.771 L1344.01 942.426 L1346.42 902.612 L1350.01 853.42 L1353.06 820.298 L1357.84 785.314 L1360.96 768.092 L1364.97 756.594 L1368.35 748.669 L1372.41 747.842 L1376.21 747.501 L1380.56 749.347 L1385.06 750.533 L1390.02 751.635 L1395.48 752.436 L1401.49 753.01 L1408.29 753.473 L1415.99 753.861 L1424.86 754.243 L1435.27 754.667 L1447.63 755.179 L1462.61 755.836 L1480.93 756.712 L1502.57 757.875 L1525.23 759.274 L1546.06 760.76 L1563.22 762.166 L1584.53 764.256 L1606.14 766.87 L1627.03 770.03 L1648.59 774.529 L1667.72 779.515 L1686.89 787.237 L1703.2 795.138 L1717.09 804.8 L1729.71 817.137 L1740.16 830.955 L1749.6 848.224 L1757.66 868.171 L1764.68 890.943 L1771.16 918.721 L1776.42 946.922 L1782.14 985.737 L1785.97 1016.82 L1790.85 1063.6 L1794.58 1104.3 L1798.01 1145.05 L1801.5 1187.82 L1804.85 1227.46 L1807.88 1258.55 L1811 1281.83 L1813.73 1291.06 L1816.85 1285.7 L1819.63 1264.57 L1823.78 1206.53 L1826.98 1145.21 L1829.61 1089.36 L1832.5 1027.79 L1834.62 984.458 L1837.32 934.221 L1839.71 895.021 L1844.7 830.767 L1848.36 797.189 L1851.86 773.735 L1856.21 756.561 L1859.16 747.939 L1863.18 747.546 L1866.43 748.848 L1871.97 755.2 L1875.66 756.203 L1880.81 758.517 L1885.78 759.775 L1891.33 760.933 L1897.66 761.911 L1904.38 762.706 L1912.14 763.502 L1920.81 764.32 L1930.62 765.241 L1941.88 766.349 L1954.42 767.687 L1967.76 769.265 L1980.02 770.892 L1994.47 773.081 L2010.59 775.965 L2026.91 779.508 L2043.9 784.177 L2060.12 789.884 L2076.12 797.489 L2090.76 806.73 L2104.61 819.085 L2116.9 833.912 L2127.03 850.571 L2136.53 872.789 L2144.21 896.573 L2151.39 926.758 L2157.43 959.813 L2162.89 998.11 L2167.92 1042.1 L2172.25 1087.93 L2177.59 1155.18 L2181.27 1207.81 L2184.49 1255.93 L2187.68 1302.75 L2190.33 1337.8 L2193.36 1369.09 L2195.55 1382.69 L2198.86 1384.24 L2201.09 1369.84 L2204.48 1324.19 L2208.03 1249.71 L2210.56 1186.26 L2213.5 1109.4 L2215.48 1058.37 L2217.92 999.719 L2220.08 953.224 L2224.45 876.388 L2227.22 838.957 L2231.56 797.382 L2234.64 775.846 L2238.54 759.486 L2241.89 749.795 L2245.89 748.277 L2249.69 749.23 L2254.01 752.084 L2258.52 754.121 L2263.47 755.759 L2268.93 756.932 L2274.94 757.761 L2281.75 758.406 L2289.46 758.948 L2295.17 759.247 L2295.17 711.177 L2289.46 711.476 L2281.75 712.018 L2274.94 712.663 L2268.93 713.492 L2263.47 714.665 L2258.52 716.303 L2254.01 718.34 L2249.69 721.194 L2245.89 722.147 L2241.89 720.629 L2238.54 710.937 L2234.64 694.577 L2231.56 673.042 L2227.22 631.467 L2224.45 594.036 L2220.08 517.2 L2217.92 470.705 L2215.48 412.057 L2213.5 361.022 L2210.56 284.164 L2208.03 220.715 L2204.48 146.233 L2201.09 100.589 L2198.86 86.1857 L2195.55 87.7358 L2193.36 101.332 L2190.33 132.625 L2187.68 167.676 L2184.49 214.492 L2181.27 262.617 L2177.59 315.243 L2172.25 382.492 L2167.92 428.323 L2162.89 472.314 L2157.43 510.611 L2151.39 543.666 L2144.21 573.851 L2136.53 597.635 L2127.03 619.852 L2116.9 636.512 L2104.61 651.339 L2090.76 663.694 L2076.12 672.935 L2060.12 680.54 L2043.9 686.247 L2026.91 690.916 L2010.59 694.459 L1994.47 697.343 L1980.02 699.532 L1967.76 701.159 L1954.42 702.737 L1941.88 704.075 L1930.62 705.183 L1920.81 706.104 L1912.14 706.922 L1904.38 707.718 L1897.66 708.513 L1891.33 709.491 L1885.78 710.649 L1880.81 711.907 L1875.66 714.221 L1871.97 715.224 L1866.43 721.576 L1863.18 722.878 L1859.16 722.485 L1856.21 713.862 L1851.86 696.689 L1848.36 673.235 L1844.7 639.657 L1839.71 575.403 L1837.32 536.203 L1834.62 485.966 L1832.5 442.63 L1829.61 381.064 L1826.98 325.218 L1823.78 263.889 L1819.63 205.855 L1816.85 184.726 L1813.73 179.361 L1811 188.596 L1807.88 211.869 L1804.85 242.959 L1801.5 282.601 L1798.01 325.371 L1794.58 366.121 L1790.85 406.826 L1785.97 453.603 L1782.14 484.687 L1776.42 523.502 L1771.16 551.703 L1764.68 579.481 L1757.66 602.252 L1749.6 622.2 L1740.16 639.469 L1729.71 653.287 L1717.09 665.624 L1703.2 675.286 L1686.89 683.187 L1667.72 690.909 L1648.59 695.895 L1627.03 700.393 L1606.14 703.554 L1584.53 706.168 L1563.22 708.258 L1546.06 709.664 L1525.23 711.15 L1502.57 712.549 L1480.93 713.712 L1462.61 714.588 L1447.63 715.245 L1435.27 715.756 L1424.86 716.181 L1415.99 716.563 L1408.29 716.951 L1401.49 717.414 L1395.48 717.988 L1390.02 718.789 L1385.06 719.891 L1380.56 721.077 L1376.21 722.923 L1372.41 722.582 L1368.35 721.755 L1364.97 713.83 L1360.96 702.332 L1357.84 685.11 L1353.06 650.126 L1350.01 617.004 L1346.42 567.812 L1344.01 527.998 L1341.04 473.653 L1338.64 426.762 L1335.88 373.594 L1333.14 325.984 L1330.29 286.086 L1326.92 257.538 L1325.05 250.853 L1321.64 255.176 L1319.57 266.129 L1316.98 286.672 L1315 305.882 L1311.98 338.444 L1308.83 373.558 L1305.34 411.424 L1298.98 472.362 L1294.84 505.184 L1289.78 538.502 L1284.54 566.218 L1278.54 591.192 L1271.66 613.226 L1264.11 631.188 L1254.96 647.64 L1245.05 660.326 L1233.1 671.175 L1219.17 681.453 L1204.88 688.299 L1188.71 694.507 L1172.79 698.777 L1155.6 702.436 L1139.34 705.103 L1123.21 707.276 L1108.24 708.97 L1096.5 710.127 L1083.17 711.3 L1070.43 712.307 L1058.96 713.136 L1048.95 713.815 L1040.09 714.402 L1032.22 714.947 L1025.36 715.456 L1018.96 716.051 L1013.38 716.676 L1008.24 717.295 L1003.23 718.359 L999.371 718.286 L994.185 720.909 L991.121 719.789 L986.214 722.178 L983.251 717.677 L979.31 710.104 L976.461 699.306 L971.735 674.724 L967.163 639.028 L964.932 616.846 L961.269 574.745 L959 545.138 L956.286 508.118 L953.747 474.014 L950.967 438.931 L946.277 397.12 L943.58 384.005 L940.149 380.929 L937.419 387.504 L934.055 404.716 L930.96 425.751 L927.27 454.206 L923.677 482.369 L919.716 511.658 L914.398 546.502 L910.464 568.298 L905.052 593.601 L899.879 612.773 L893.657 631.377 L886.814 646.873 L879.087 660.149 L869.891 672.129 L859.865 681.002 L847.518 689.815 L834.149 695.975 L818.088 701.329 L799.535 707.167 L780.493 710.647 L759.328 713.906 L738.283 716.053 L716.527 717.791 L694.917 719.145 L676.428 720.069 L655.866 720.951 L633.033 721.806 L610.385 722.539 L590.741 723.096 L574.707 723.506 L561.624 723.811 L550.635 724.046 L541.331 724.232 L533.357 724.36 L526.238 724.497 L520.072 724.548 L514.457 724.475 L509.255 724.584 L504.86 723.339 L500.024 724.132 L496.432 720.819 L491.76 723.716 L488.527 719.139 L484.187 723.019 L481.153 717.783 L476.043 723.383 L472.827 720.461 L469.661 718.142 L467.166 714.119 L464.39 712.518 L461.948 708.508 L459.229 706.549 L456.508 704.691 L453.57 702.114 L450.395 702.473 L448.344 701.429 L445.221 705.857 L443.151 705.895 L440.296 709.643 L438.132 710.638 L434.824 713.827 L432.011 715.96 L428.751 717.516 L423.06 722.246 L418.994 723.069 L413.581 727.666 L409.105 727.004 L403.484 731.75 L398.808 731.382 L393.344 733.999 L388.968 734.16 L384.306 734.978 L380.909 735.105 L377.643 735.205 L375.601 735.212  Z" fill="#4063d8" fill-rule="evenodd" fill-opacity="0.5"/>
<polyline clip-path="url(#clip372)" style="stroke:#4063d8; stroke-linecap:round; stroke-linejoin:round; stroke-width:4; stroke-opacity:0.2; fill:none" points="375.601,735.212 377.643,735.212 380.909,735.212 384.306,735.212 388.968,735.212 393.344,735.212 398.808,735.212 403.484,735.212 409.105,735.212 413.581,735.212 418.994,735.212 423.06,735.212 428.751,735.212 432.011,735.212 434.824,735.212 438.132,735.212 440.296,735.212 443.151,735.212 445.221,735.212 448.344,735.212 450.395,735.212 453.57,735.212 456.508,735.212 459.229,735.212 461.948,735.212 464.39,735.212 467.166,735.212 469.661,735.212 472.827,735.212 476.043,735.212 481.153,735.212 484.187,735.212 488.527,735.212 491.76,735.212 496.432,735.212 500.024,735.212 504.86,735.212 509.255,735.212 514.457,735.212 520.072,735.212 526.238,735.212 533.357,735.212 541.331,735.212 550.635,735.212 561.624,735.212 574.707,735.212 590.741,735.212 610.385,735.212 633.033,735.212 655.866,735.212 676.428,735.212 694.917,735.212 716.527,735.212 738.283,735.212 759.328,735.212 780.493,735.212 799.535,735.212 818.088,735.212 834.149,735.212 847.518,735.212 859.865,735.212 869.891,735.212 879.087,735.212 886.814,735.212 893.657,735.212 899.879,735.212 905.052,735.212 910.464,735.212 914.398,735.212 919.716,735.212 923.677,735.212 927.27,735.212 930.96,735.212 934.055,735.212 937.419,735.212 940.149,735.212 943.58,735.212 946.277,735.212 950.967,735.212 953.747,735.212 956.286,735.212 959,735.212 961.269,735.212 964.932,735.212 967.163,735.212 971.735,735.212 976.461,735.212 979.31,735.212 983.251,735.212 986.214,735.212 991.121,735.212 994.185,735.212 999.371,735.212 1003.23,735.212 1008.24,735.212 1013.38,735.212 1018.96,735.212 1025.36,735.212 1032.22,735.212 1040.09,735.212 1048.95,735.212 1058.96,735.212 1070.43,735.212 1083.17,735.212 1096.5,735.212 1108.24,735.212 1123.21,735.212 1139.34,735.212 1155.6,735.212 1172.79,735.212 1188.71,735.212 1204.88,735.212 1219.17,735.212 1233.1,735.212 1245.05,735.212 1254.96,735.212 1264.11,735.212 1271.66,735.212 1278.54,735.212 1284.54,735.212 1289.78,735.212 1294.84,735.212 1298.98,735.212 1305.34,735.212 1308.83,735.212 1311.98,735.212 1315,735.212 1316.98,735.212 1319.57,735.212 1321.64,735.212 1325.05,735.212 1326.92,735.212 1330.29,735.212 1333.14,735.212 1335.88,735.212 1338.64,735.212 1341.04,735.212 1344.01,735.212 1346.42,735.212 1350.01,735.212 1353.06,735.212 1357.84,735.212 1360.96,735.212 1364.97,735.212 1368.35,735.212 1372.41,735.212 1376.21,735.212 1380.56,735.212 1385.06,735.212 1390.02,735.212 1395.48,735.212 1401.49,735.212 1408.29,735.212 1415.99,735.212 1424.86,735.212 1435.27,735.212 1447.63,735.212 1462.61,735.212 1480.93,735.212 1502.57,735.212 1525.23,735.212 1546.06,735.212 1563.22,735.212 1584.53,735.212 1606.14,735.212 1627.03,735.212 1648.59,735.212 1667.72,735.212 1686.89,735.212 1703.2,735.212 1717.09,735.212 1729.71,735.212 1740.16,735.212 1749.6,735.212 1757.66,735.212 1764.68,735.212 1771.16,735.212 1776.42,735.212 1782.14,735.212 1785.97,735.212 1790.85,735.212 1794.58,735.212 1798.01,735.212 1801.5,735.212 1804.85,735.212 1807.88,735.212 1811,735.212 1813.73,735.212 1816.85,735.212 1819.63,735.212 1823.78,735.212 1826.98,735.212 1829.61,735.212 1832.5,735.212 1834.62,735.212 1837.32,735.212 1839.71,735.212 1844.7,735.212 1848.36,735.212 1851.86,735.212 1856.21,735.212 1859.16,735.212 1863.18,735.212 1866.43,735.212 1871.97,735.212 1875.66,735.212 1880.81,735.212 1885.78,735.212 1891.33,735.212 1897.66,735.212 1904.38,735.212 1912.14,735.212 1920.81,735.212 1930.62,735.212 1941.88,735.212 1954.42,735.212 1967.76,735.212 1980.02,735.212 1994.47,735.212 2010.59,735.212 2026.91,735.212 2043.9,735.212 2060.12,735.212 2076.12,735.212 2090.76,735.212 2104.61,735.212 2116.9,735.212 2127.03,735.212 2136.53,735.212 2144.21,735.212 2151.39,735.212 2157.43,735.212 2162.89,735.212 2167.92,735.212 2172.25,735.212 2177.59,735.212 2181.27,735.212 2184.49,735.212 2187.68,735.212 2190.33,735.212 2193.36,735.212 2195.55,735.212 2198.86,735.212 2201.09,735.212 2204.48,735.212 2208.03,735.212 2210.56,735.212 2213.5,735.212 2215.48,735.212 2217.92,735.212 2220.08,735.212 2224.45,735.212 2227.22,735.212 2231.56,735.212 2234.64,735.212 2238.54,735.212 2241.89,735.212 2245.89,735.212 2249.69,735.212 2254.01,735.212 2258.52,735.212 2263.47,735.212 2268.93,735.212 2274.94,735.212 2281.75,735.212 2289.46,735.212 2295.17,735.212 "/>
<path clip-path="url(#clip372)" d="M375.601 735.212 L377.643 735.219 L380.909 735.318 L384.306 735.444 L388.968 736.245 L393.344 736.382 L398.808 738.884 L403.484 738.303 L409.105 742.65 L413.581 741.034 L418.994 744.493 L423.06 743.337 L428.751 745.522 L432.011 744.614 L434.824 744.825 L438.132 746.864 L440.296 745.847 L443.151 750.242 L445.221 748.463 L448.344 755.512 L450.395 753.983 L453.57 756.854 L456.508 756.175 L459.229 757.6 L461.948 758.969 L464.39 757.827 L467.166 759.722 L469.661 758.573 L472.827 759.312 L476.043 758.735 L481.153 765.308 L484.187 763.508 L488.527 768.441 L491.76 766.869 L496.432 770.309 L500.024 769.219 L504.86 770.43 L509.255 769.936 L514.457 770.148 L520.072 769.995 L526.238 769.948 L533.357 769.857 L541.331 769.746 L550.635 769.612 L561.624 769.443 L574.707 769.228 L590.741 768.943 L610.385 768.559 L633.033 768.066 L655.866 767.499 L676.428 766.911 L694.917 766.321 L716.527 765.613 L738.283 764.827 L759.328 764.027 L780.493 763.625 L799.535 762.819 L818.088 763.82 L834.149 762.816 L847.518 762.115 L859.865 762.24 L869.891 760.426 L879.087 759.803 L886.814 758.331 L893.657 756.283 L899.879 755.619 L905.052 753.143 L910.464 753.219 L914.398 751.626 L919.716 751.897 L923.677 751.143 L927.27 752.458 L930.96 755.185 L934.055 756.296 L937.419 761.772 L940.149 762.214 L943.58 767.268 L946.277 768.858 L950.967 782.257 L953.747 780.068 L956.286 783.12 L959 784.483 L961.269 785.259 L964.932 788.223 L967.163 788.693 L971.735 790.293 L976.461 791.005 L979.31 791.059 L983.251 792.129 L986.214 791.908 L991.121 793.675 L994.185 793.338 L999.371 794.311 L1003.23 793.994 L1008.24 794.115 L1013.38 793.933 L1018.96 793.823 L1025.36 793.651 L1032.22 793.451 L1040.09 793.21 L1048.95 792.917 L1058.96 792.561 L1070.43 792.121 L1083.17 791.588 L1096.5 790.974 L1108.24 790.38 L1123.21 789.552 L1139.34 788.552 L1155.6 787.417 L1172.79 786.157 L1188.71 784.722 L1204.88 783.629 L1219.17 781.907 L1233.1 781.625 L1245.05 779.345 L1254.96 777.49 L1264.11 775.775 L1271.66 773.136 L1278.54 770.634 L1284.54 768.102 L1289.78 764.837 L1294.84 762.081 L1298.98 759.066 L1305.34 756.537 L1308.83 753.378 L1311.98 752.24 L1315 752.3 L1316.98 752.231 L1319.57 755.056 L1321.64 755.651 L1325.05 764.168 L1326.92 765.296 L1330.29 771.073 L1333.14 773.489 L1335.88 777.284 L1338.64 780.566 L1341.04 781.837 L1344.01 785.322 L1346.42 786.039 L1350.01 788.544 L1353.06 789.062 L1357.84 793.017 L1360.96 792.523 L1364.97 794.535 L1368.35 794.067 L1372.41 794.862 L1376.21 794.627 L1380.56 794.833 L1385.06 794.728 L1390.02 794.707 L1395.48 794.612 L1401.49 794.501 L1408.29 794.359 L1415.99 794.182 L1424.86 793.965 L1435.27 793.693 L1447.63 793.347 L1462.61 792.895 L1480.93 792.286 L1502.57 791.484 L1525.23 790.533 L1546.06 789.536 L1563.22 788.614 L1584.53 787.367 L1606.14 785.925 L1627.03 784.346 L1648.59 782.774 L1667.72 780.824 L1686.89 779.917 L1703.2 777.415 L1717.09 775.661 L1729.71 773.59 L1740.16 771.063 L1749.6 768.493 L1757.66 766.04 L1764.68 762.512 L1771.16 760.552 L1776.42 756.675 L1782.14 756.057 L1785.97 753.367 L1790.85 752.687 L1794.58 751.775 L1798.01 752.98 L1801.5 755.407 L1804.85 759.462 L1807.88 763.287 L1811 769.071 L1813.73 772.785 L1816.85 778.786 L1819.63 783.056 L1823.78 792.736 L1826.98 796.294 L1829.61 799.251 L1832.5 803.952 L1834.62 805.205 L1837.32 807.51 L1839.71 808.941 L1844.7 811.703 L1848.36 812.51 L1851.86 813.265 L1856.21 814.464 L1859.16 814.417 L1863.18 815.054 L1866.43 814.966 L1871.97 815.925 L1875.66 815.648 L1880.81 815.781 L1885.78 815.571 L1891.33 815.429 L1897.66 815.201 L1904.38 814.941 L1912.14 814.62 L1920.81 814.233 L1930.62 813.763 L1941.88 813.179 L1954.42 812.471 L1967.76 811.643 L1980.02 810.806 L1994.47 809.721 L2010.59 808.365 L2026.91 806.807 L2043.9 805.003 L2060.12 802.999 L2076.12 800.936 L2090.76 798.595 L2104.61 796.572 L2116.9 793.849 L2127.03 790.727 L2136.53 788.281 L2144.21 784.336 L2151.39 781.127 L2157.43 777.084 L2162.89 772.887 L2167.92 768.736 L2172.25 764.288 L2177.59 759.317 L2181.27 755.165 L2184.49 752.894 L2187.68 752.542 L2190.33 752.542 L2193.36 758.19 L2195.55 759.866 L2198.86 770.132 L2201.09 772.601 L2204.48 780.142 L2208.03 786.237 L2210.56 789.109 L2213.5 796.11 L2215.48 797.211 L2217.92 799.948 L2220.08 801.481 L2224.45 805.361 L2227.22 806.069 L2231.56 809.144 L2234.64 809.112 L2238.54 810.599 L2241.89 810.445 L2245.89 811.039 L2249.69 810.937 L2254.01 811.083 L2258.52 811.006 L2263.47 810.958 L2268.93 810.846 L2274.94 810.704 L2281.75 810.524 L2289.46 810.302 L2295.17 810.115 L2295.17 660.309 L2289.46 660.121 L2281.75 659.9 L2274.94 659.72 L2268.93 659.578 L2263.47 659.466 L2258.52 659.418 L2254.01 659.341 L2249.69 659.487 L2245.89 659.385 L2241.89 659.979 L2238.54 659.825 L2234.64 661.312 L2231.56 661.28 L2227.22 664.355 L2224.45 665.063 L2220.08 668.943 L2217.92 670.476 L2215.48 673.213 L2213.5 674.314 L2210.56 681.315 L2208.03 684.187 L2204.48 690.282 L2201.09 697.823 L2198.86 700.292 L2195.55 710.558 L2193.36 712.234 L2190.33 717.882 L2187.68 717.882 L2184.49 717.53 L2181.27 715.259 L2177.59 711.107 L2172.25 706.135 L2167.92 701.688 L2162.89 697.537 L2157.43 693.34 L2151.39 689.297 L2144.21 686.088 L2136.53 682.143 L2127.03 679.697 L2116.9 676.575 L2104.61 673.852 L2090.76 671.829 L2076.12 669.488 L2060.12 667.425 L2043.9 665.421 L2026.91 663.617 L2010.59 662.059 L1994.47 660.703 L1980.02 659.618 L1967.76 658.781 L1954.42 657.953 L1941.88 657.245 L1930.62 656.661 L1920.81 656.191 L1912.14 655.804 L1904.38 655.483 L1897.66 655.223 L1891.33 654.995 L1885.78 654.853 L1880.81 654.643 L1875.66 654.776 L1871.97 654.499 L1866.43 655.458 L1863.18 655.37 L1859.16 656.007 L1856.21 655.96 L1851.86 657.159 L1848.36 657.914 L1844.7 658.721 L1839.71 661.483 L1837.32 662.914 L1834.62 665.219 L1832.5 666.472 L1829.61 671.173 L1826.98 674.13 L1823.78 677.688 L1819.63 687.368 L1816.85 691.638 L1813.73 697.639 L1811 701.353 L1807.88 707.137 L1804.85 710.962 L1801.5 715.017 L1798.01 717.444 L1794.58 718.649 L1790.85 717.737 L1785.97 717.057 L1782.14 714.367 L1776.42 713.748 L1771.16 709.872 L1764.68 707.912 L1757.66 704.384 L1749.6 701.931 L1740.16 699.361 L1729.71 696.833 L1717.09 694.763 L1703.2 693.009 L1686.89 690.507 L1667.72 689.6 L1648.59 687.65 L1627.03 686.078 L1606.14 684.499 L1584.53 683.057 L1563.22 681.81 L1546.06 680.888 L1525.23 679.891 L1502.57 678.94 L1480.93 678.137 L1462.61 677.529 L1447.63 677.076 L1435.27 676.731 L1424.86 676.459 L1415.99 676.242 L1408.29 676.065 L1401.49 675.923 L1395.48 675.812 L1390.02 675.717 L1385.06 675.696 L1380.56 675.591 L1376.21 675.797 L1372.41 675.562 L1368.35 676.357 L1364.97 675.889 L1360.96 677.901 L1357.84 677.407 L1353.06 681.362 L1350.01 681.88 L1346.42 684.385 L1344.01 685.101 L1341.04 688.587 L1338.64 689.858 L1335.88 693.14 L1333.14 696.935 L1330.29 699.351 L1326.92 705.128 L1325.05 706.256 L1321.64 714.773 L1319.57 715.367 L1316.98 718.192 L1315 718.124 L1311.98 718.184 L1308.83 717.046 L1305.34 713.887 L1298.98 711.358 L1294.84 708.343 L1289.78 705.587 L1284.54 702.322 L1278.54 699.79 L1271.66 697.288 L1264.11 694.649 L1254.96 692.933 L1245.05 691.079 L1233.1 688.799 L1219.17 688.517 L1204.88 686.795 L1188.71 685.702 L1172.79 684.267 L1155.6 683.007 L1139.34 681.872 L1123.21 680.872 L1108.24 680.044 L1096.5 679.45 L1083.17 678.836 L1070.43 678.303 L1058.96 677.862 L1048.95 677.507 L1040.09 677.214 L1032.22 676.972 L1025.36 676.773 L1018.96 676.601 L1013.38 676.49 L1008.24 676.309 L1003.23 676.43 L999.371 676.113 L994.185 677.086 L991.121 676.749 L986.214 678.516 L983.251 678.295 L979.31 679.365 L976.461 679.419 L971.735 680.131 L967.163 681.731 L964.932 682.201 L961.269 685.165 L959 685.941 L956.286 687.304 L953.747 690.356 L950.967 688.167 L946.277 701.566 L943.58 703.156 L940.149 708.21 L937.419 708.652 L934.055 714.128 L930.96 715.239 L927.27 717.966 L923.677 719.281 L919.716 718.527 L914.398 718.798 L910.464 717.205 L905.052 717.281 L899.879 714.805 L893.657 714.141 L886.814 712.092 L879.087 710.621 L869.891 709.998 L859.865 708.184 L847.518 708.309 L834.149 707.608 L818.088 706.604 L799.535 707.605 L780.493 706.799 L759.328 706.397 L738.283 705.597 L716.527 704.811 L694.917 704.103 L676.428 703.513 L655.866 702.925 L633.033 702.358 L610.385 701.865 L590.741 701.481 L574.707 701.196 L561.624 700.981 L550.635 700.812 L541.331 700.678 L533.357 700.567 L526.238 700.476 L520.072 700.428 L514.457 700.276 L509.255 700.488 L504.86 699.994 L500.024 701.205 L496.432 700.115 L491.76 703.555 L488.527 701.983 L484.187 706.916 L481.153 705.116 L476.043 711.689 L472.827 711.112 L469.661 711.851 L467.166 710.702 L464.39 712.596 L461.948 711.455 L459.229 712.824 L456.508 714.248 L453.57 713.57 L450.395 716.441 L448.344 714.912 L445.221 721.961 L443.151 720.182 L440.296 724.577 L438.132 723.56 L434.824 725.599 L432.011 725.81 L428.751 724.902 L423.06 727.087 L418.994 725.931 L413.581 729.39 L409.105 727.773 L403.484 732.121 L398.808 731.54 L393.344 734.042 L388.968 734.179 L384.306 734.98 L380.909 735.106 L377.643 735.205 L375.601 735.212  Z" fill="#389826" fill-rule="evenodd" fill-opacity="0.5"/>
<polyline clip-path="url(#clip372)" style="stroke:#389826; stroke-linecap:round; stroke-linejoin:round; stroke-width:4; stroke-opacity:0.2; fill:none" points="375.601,735.212 377.643,735.212 380.909,735.212 384.306,735.212 388.968,735.212 393.344,735.212 398.808,735.212 403.484,735.212 409.105,735.212 413.581,735.212 418.994,735.212 423.06,735.212 428.751,735.212 432.011,735.212 434.824,735.212 438.132,735.212 440.296,735.212 443.151,735.212 445.221,735.212 448.344,735.212 450.395,735.212 453.57,735.212 456.508,735.212 459.229,735.212 461.948,735.212 464.39,735.212 467.166,735.212 469.661,735.212 472.827,735.212 476.043,735.212 481.153,735.212 484.187,735.212 488.527,735.212 491.76,735.212 496.432,735.212 500.024,735.212 504.86,735.212 509.255,735.212 514.457,735.212 520.072,735.212 526.238,735.212 533.357,735.212 541.331,735.212 550.635,735.212 561.624,735.212 574.707,735.212 590.741,735.212 610.385,735.212 633.033,735.212 655.866,735.212 676.428,735.212 694.917,735.212 716.527,735.212 738.283,735.212 759.328,735.212 780.493,735.212 799.535,735.212 818.088,735.212 834.149,735.212 847.518,735.212 859.865,735.212 869.891,735.212 879.087,735.212 886.814,735.212 893.657,735.212 899.879,735.212 905.052,735.212 910.464,735.212 914.398,735.212 919.716,735.212 923.677,735.212 927.27,735.212 930.96,735.212 934.055,735.212 937.419,735.212 940.149,735.212 943.58,735.212 946.277,735.212 950.967,735.212 953.747,735.212 956.286,735.212 959,735.212 961.269,735.212 964.932,735.212 967.163,735.212 971.735,735.212 976.461,735.212 979.31,735.212 983.251,735.212 986.214,735.212 991.121,735.212 994.185,735.212 999.371,735.212 1003.23,735.212 1008.24,735.212 1013.38,735.212 1018.96,735.212 1025.36,735.212 1032.22,735.212 1040.09,735.212 1048.95,735.212 1058.96,735.212 1070.43,735.212 1083.17,735.212 1096.5,735.212 1108.24,735.212 1123.21,735.212 1139.34,735.212 1155.6,735.212 1172.79,735.212 1188.71,735.212 1204.88,735.212 1219.17,735.212 1233.1,735.212 1245.05,735.212 1254.96,735.212 1264.11,735.212 1271.66,735.212 1278.54,735.212 1284.54,735.212 1289.78,735.212 1294.84,735.212 1298.98,735.212 1305.34,735.212 1308.83,735.212 1311.98,735.212 1315,735.212 1316.98,735.212 1319.57,735.212 1321.64,735.212 1325.05,735.212 1326.92,735.212 1330.29,735.212 1333.14,735.212 1335.88,735.212 1338.64,735.212 1341.04,735.212 1344.01,735.212 1346.42,735.212 1350.01,735.212 1353.06,735.212 1357.84,735.212 1360.96,735.212 1364.97,735.212 1368.35,735.212 1372.41,735.212 1376.21,735.212 1380.56,735.212 1385.06,735.212 1390.02,735.212 1395.48,735.212 1401.49,735.212 1408.29,735.212 1415.99,735.212 1424.86,735.212 1435.27,735.212 1447.63,735.212 1462.61,735.212 1480.93,735.212 1502.57,735.212 1525.23,735.212 1546.06,735.212 1563.22,735.212 1584.53,735.212 1606.14,735.212 1627.03,735.212 1648.59,735.212 1667.72,735.212 1686.89,735.212 1703.2,735.212 1717.09,735.212 1729.71,735.212 1740.16,735.212 1749.6,735.212 1757.66,735.212 1764.68,735.212 1771.16,735.212 1776.42,735.212 1782.14,735.212 1785.97,735.212 1790.85,735.212 1794.58,735.212 1798.01,735.212 1801.5,735.212 1804.85,735.212 1807.88,735.212 1811,735.212 1813.73,735.212 1816.85,735.212 1819.63,735.212 1823.78,735.212 1826.98,735.212 1829.61,735.212 1832.5,735.212 1834.62,735.212 1837.32,735.212 1839.71,735.212 1844.7,735.212 1848.36,735.212 1851.86,735.212 1856.21,735.212 1859.16,735.212 1863.18,735.212 1866.43,735.212 1871.97,735.212 1875.66,735.212 1880.81,735.212 1885.78,735.212 1891.33,735.212 1897.66,735.212 1904.38,735.212 1912.14,735.212 1920.81,735.212 1930.62,735.212 1941.88,735.212 1954.42,735.212 1967.76,735.212 1980.02,735.212 1994.47,735.212 2010.59,735.212 2026.91,735.212 2043.9,735.212 2060.12,735.212 2076.12,735.212 2090.76,735.212 2104.61,735.212 2116.9,735.212 2127.03,735.212 2136.53,735.212 2144.21,735.212 2151.39,735.212 2157.43,735.212 2162.89,735.212 2167.92,735.212 2172.25,735.212 2177.59,735.212 2181.27,735.212 2184.49,735.212 2187.68,735.212 2190.33,735.212 2193.36,735.212 2195.55,735.212 2198.86,735.212 2201.09,735.212 2204.48,735.212 2208.03,735.212 2210.56,735.212 2213.5,735.212 2215.48,735.212 2217.92,735.212 2220.08,735.212 2224.45,735.212 2227.22,735.212 2231.56,735.212 2234.64,735.212 2238.54,735.212 2241.89,735.212 2245.89,735.212 2249.69,735.212 2254.01,735.212 2258.52,735.212 2263.47,735.212 2268.93,735.212 2274.94,735.212 2281.75,735.212 2289.46,735.212 2295.17,735.212 "/>
<path clip-path="url(#clip370)" d="M1748.15 352.309 L2284.93 352.309 L2284.93 93.1086 L1748.15 93.1086  Z" fill="#ffffff" fill-rule="evenodd" fill-opacity="1"/>
<polyline clip-path="url(#clip370)" style="stroke:#000000; stroke-linecap:round; stroke-linejoin:round; stroke-width:4; stroke-opacity:1; fill:none" points="1748.15,352.309 2284.93,352.309 2284.93,93.1086 1748.15,93.1086 1748.15,352.309 "/>
<polyline clip-path="url(#clip370)" style="stroke:#4063d8; stroke-linecap:round; stroke-linejoin:round; stroke-width:4; stroke-opacity:1; fill:none" points="1770.76,144.949 1906.41,144.949 "/>
<path clip-path="url(#clip370)" d="M1953.04 148.201 L1953.04 150.284 L1933.46 150.284 Q1933.74 154.682 1936.1 156.997 Q1938.48 159.289 1942.72 159.289 Q1945.17 159.289 1947.46 158.687 Q1949.78 158.085 1952.05 156.881 L1952.05 160.909 Q1949.76 161.881 1947.35 162.391 Q1944.94 162.9 1942.46 162.9 Q1936.26 162.9 1932.63 159.289 Q1929.01 155.678 1929.01 149.52 Q1929.01 143.155 1932.44 139.428 Q1935.89 135.678 1941.72 135.678 Q1946.95 135.678 1949.99 139.057 Q1953.04 142.414 1953.04 148.201 M1948.78 146.951 Q1948.74 143.456 1946.82 141.372 Q1944.92 139.289 1941.77 139.289 Q1938.2 139.289 1936.05 141.303 Q1933.92 143.317 1933.6 146.974 L1948.78 146.951 Z" fill="#000000" fill-rule="nonzero" fill-opacity="1" /><path clip-path="url(#clip370)" d="M1975.06 140.284 Q1974.34 139.868 1973.48 139.682 Q1972.65 139.474 1971.63 139.474 Q1968.02 139.474 1966.07 141.835 Q1964.15 144.173 1964.15 148.571 L1964.15 162.229 L1959.87 162.229 L1959.87 136.303 L1964.15 136.303 L1964.15 140.331 Q1965.5 137.969 1967.65 136.835 Q1969.8 135.678 1972.88 135.678 Q1973.32 135.678 1973.85 135.747 Q1974.38 135.794 1975.03 135.909 L1975.06 140.284 Z" fill="#000000" fill-rule="nonzero" fill-opacity="1" /><path clip-path="url(#clip370)" d="M1993.71 140.284 Q1993 139.868 1992.14 139.682 Q1991.31 139.474 1990.29 139.474 Q1986.68 139.474 1984.73 141.835 Q1982.81 144.173 1982.81 148.571 L1982.81 162.229 L1978.53 162.229 L1978.53 136.303 L1982.81 136.303 L1982.81 140.331 Q1984.15 137.969 1986.31 136.835 Q1988.46 135.678 1991.54 135.678 Q1991.98 135.678 1992.51 135.747 Q1993.04 135.794 1993.69 135.909 L1993.71 140.284 Z" fill="#000000" fill-rule="nonzero" fill-opacity="1" /><path clip-path="url(#clip370)" d="M2007.19 139.289 Q2003.76 139.289 2001.77 141.974 Q1999.78 144.636 1999.78 149.289 Q1999.78 153.942 2001.75 156.627 Q2003.74 159.289 2007.19 159.289 Q2010.59 159.289 2012.58 156.604 Q2014.57 153.918 2014.57 149.289 Q2014.57 144.682 2012.58 141.997 Q2010.59 139.289 2007.19 139.289 M2007.19 135.678 Q2012.74 135.678 2015.91 139.289 Q2019.08 142.9 2019.08 149.289 Q2019.08 155.655 2015.91 159.289 Q2012.74 162.9 2007.19 162.9 Q2001.61 162.9 1998.44 159.289 Q1995.29 155.655 1995.29 149.289 Q1995.29 142.9 1998.44 139.289 Q2001.61 135.678 2007.19 135.678 Z" fill="#000000" fill-rule="nonzero" fill-opacity="1" /><path clip-path="url(#clip370)" d="M2041.17 140.284 Q2040.45 139.868 2039.59 139.682 Q2038.76 139.474 2037.74 139.474 Q2034.13 139.474 2032.19 141.835 Q2030.26 144.173 2030.26 148.571 L2030.26 162.229 L2025.98 162.229 L2025.98 136.303 L2030.26 136.303 L2030.26 140.331 Q2031.61 137.969 2033.76 136.835 Q2035.91 135.678 2038.99 135.678 Q2039.43 135.678 2039.96 135.747 Q2040.5 135.794 2041.14 135.909 L2041.17 140.284 Z" fill="#000000" fill-rule="nonzero" fill-opacity="1" /><polyline clip-path="url(#clip370)" style="stroke:#389826; stroke-linecap:round; stroke-linejoin:round; stroke-width:4; stroke-opacity:1; fill:none" points="1770.76,196.789 1906.41,196.789 "/>
<path clip-path="url(#clip370)" d="M1953.04 200.041 L1953.04 202.124 L1933.46 202.124 Q1933.74 206.522 1936.1 208.837 Q1938.48 211.129 1942.72 211.129 Q1945.17 211.129 1947.46 210.527 Q1949.78 209.925 1952.05 208.721 L1952.05 212.749 Q1949.76 213.721 1947.35 214.231 Q1944.94 214.74 1942.46 214.74 Q1936.26 214.74 1932.63 211.129 Q1929.01 207.518 1929.01 201.36 Q1929.01 194.995 1932.44 191.268 Q1935.89 187.518 1941.72 187.518 Q1946.95 187.518 1949.99 190.897 Q1953.04 194.254 1953.04 200.041 M1948.78 198.791 Q1948.74 195.296 1946.82 193.212 Q1944.92 191.129 1941.77 191.129 Q1938.2 191.129 1936.05 193.143 Q1933.92 195.157 1933.6 198.814 L1948.78 198.791 Z" fill="#000000" fill-rule="nonzero" fill-opacity="1" /><path clip-path="url(#clip370)" d="M1975.06 192.124 Q1974.34 191.708 1973.48 191.522 Q1972.65 191.314 1971.63 191.314 Q1968.02 191.314 1966.07 193.675 Q1964.15 196.013 1964.15 200.411 L1964.15 214.069 L1959.87 214.069 L1959.87 188.143 L1964.15 188.143 L1964.15 192.171 Q1965.5 189.809 1967.65 188.675 Q1969.8 187.518 1972.88 187.518 Q1973.32 187.518 1973.85 187.587 Q1974.38 187.634 1975.03 187.749 L1975.06 192.124 Z" fill="#000000" fill-rule="nonzero" fill-opacity="1" /><path clip-path="url(#clip370)" d="M1993.71 192.124 Q1993 191.708 1992.14 191.522 Q1991.31 191.314 1990.29 191.314 Q1986.68 191.314 1984.73 193.675 Q1982.81 196.013 1982.81 200.411 L1982.81 214.069 L1978.53 214.069 L1978.53 188.143 L1982.81 188.143 L1982.81 192.171 Q1984.15 189.809 1986.31 188.675 Q1988.46 187.518 1991.54 187.518 Q1991.98 187.518 1992.51 187.587 Q1993.04 187.634 1993.69 187.749 L1993.71 192.124 Z" fill="#000000" fill-rule="nonzero" fill-opacity="1" /><path clip-path="url(#clip370)" d="M2007.19 191.129 Q2003.76 191.129 2001.77 193.814 Q1999.78 196.476 1999.78 201.129 Q1999.78 205.782 2001.75 208.467 Q2003.74 211.129 2007.19 211.129 Q2010.59 211.129 2012.58 208.444 Q2014.57 205.758 2014.57 201.129 Q2014.57 196.522 2012.58 193.837 Q2010.59 191.129 2007.19 191.129 M2007.19 187.518 Q2012.74 187.518 2015.91 191.129 Q2019.08 194.74 2019.08 201.129 Q2019.08 207.495 2015.91 211.129 Q2012.74 214.74 2007.19 214.74 Q2001.61 214.74 1998.44 211.129 Q1995.29 207.495 1995.29 201.129 Q1995.29 194.74 1998.44 191.129 Q2001.61 187.518 2007.19 187.518 Z" fill="#000000" fill-rule="nonzero" fill-opacity="1" /><path clip-path="url(#clip370)" d="M2041.17 192.124 Q2040.45 191.708 2039.59 191.522 Q2038.76 191.314 2037.74 191.314 Q2034.13 191.314 2032.19 193.675 Q2030.26 196.013 2030.26 200.411 L2030.26 214.069 L2025.98 214.069 L2025.98 188.143 L2030.26 188.143 L2030.26 192.171 Q2031.61 189.809 2033.76 188.675 Q2035.91 187.518 2038.99 187.518 Q2039.43 187.518 2039.96 187.587 Q2040.5 187.634 2041.14 187.749 L2041.17 192.124 Z" fill="#000000" fill-rule="nonzero" fill-opacity="1" /><polyline clip-path="url(#clip370)" style="stroke:#4063d8; stroke-linecap:round; stroke-linejoin:round; stroke-width:4; stroke-opacity:0.2; fill:none" points="1770.76,248.629 1906.41,248.629 "/>
<path clip-path="url(#clip370)" d="M1953.04 251.881 L1953.04 253.964 L1933.46 253.964 Q1933.74 258.362 1936.1 260.677 Q1938.48 262.969 1942.72 262.969 Q1945.17 262.969 1947.46 262.367 Q1949.78 261.765 1952.05 260.561 L1952.05 264.589 Q1949.76 265.561 1947.35 266.071 Q1944.94 266.58 1942.46 266.58 Q1936.26 266.58 1932.63 262.969 Q1929.01 259.358 1929.01 253.2 Q1929.01 246.835 1932.44 243.108 Q1935.89 239.358 1941.72 239.358 Q1946.95 239.358 1949.99 242.737 Q1953.04 246.094 1953.04 251.881 M1948.78 250.631 Q1948.74 247.136 1946.82 245.052 Q1944.92 242.969 1941.77 242.969 Q1938.2 242.969 1936.05 244.983 Q1933.92 246.997 1933.6 250.654 L1948.78 250.631 Z" fill="#000000" fill-rule="nonzero" fill-opacity="1" /><path clip-path="url(#clip370)" d="M1975.06 243.964 Q1974.34 243.548 1973.48 243.362 Q1972.65 243.154 1971.63 243.154 Q1968.02 243.154 1966.07 245.515 Q1964.15 247.853 1964.15 252.251 L1964.15 265.909 L1959.87 265.909 L1959.87 239.983 L1964.15 239.983 L1964.15 244.011 Q1965.5 241.649 1967.65 240.515 Q1969.8 239.358 1972.88 239.358 Q1973.32 239.358 1973.85 239.427 Q1974.38 239.474 1975.03 239.589 L1975.06 243.964 Z" fill="#000000" fill-rule="nonzero" fill-opacity="1" /><path clip-path="url(#clip370)" d="M1993.71 243.964 Q1993 243.548 1992.14 243.362 Q1991.31 243.154 1990.29 243.154 Q1986.68 243.154 1984.73 245.515 Q1982.81 247.853 1982.81 252.251 L1982.81 265.909 L1978.53 265.909 L1978.53 239.983 L1982.81 239.983 L1982.81 244.011 Q1984.15 241.649 1986.31 240.515 Q1988.46 239.358 1991.54 239.358 Q1991.98 239.358 1992.51 239.427 Q1993.04 239.474 1993.69 239.589 L1993.71 243.964 Z" fill="#000000" fill-rule="nonzero" fill-opacity="1" /><path clip-path="url(#clip370)" d="M2007.19 242.969 Q2003.76 242.969 2001.77 245.654 Q1999.78 248.316 1999.78 252.969 Q1999.78 257.622 2001.75 260.307 Q2003.74 262.969 2007.19 262.969 Q2010.59 262.969 2012.58 260.284 Q2014.57 257.598 2014.57 252.969 Q2014.57 248.362 2012.58 245.677 Q2010.59 242.969 2007.19 242.969 M2007.19 239.358 Q2012.74 239.358 2015.91 242.969 Q2019.08 246.58 2019.08 252.969 Q2019.08 259.335 2015.91 262.969 Q2012.74 266.58 2007.19 266.58 Q2001.61 266.58 1998.44 262.969 Q1995.29 259.335 1995.29 252.969 Q1995.29 246.58 1998.44 242.969 Q2001.61 239.358 2007.19 239.358 Z" fill="#000000" fill-rule="nonzero" fill-opacity="1" /><path clip-path="url(#clip370)" d="M2041.17 243.964 Q2040.45 243.548 2039.59 243.362 Q2038.76 243.154 2037.74 243.154 Q2034.13 243.154 2032.19 245.515 Q2030.26 247.853 2030.26 252.251 L2030.26 265.909 L2025.98 265.909 L2025.98 239.983 L2030.26 239.983 L2030.26 244.011 Q2031.61 241.649 2033.76 240.515 Q2035.91 239.358 2038.99 239.358 Q2039.43 239.358 2039.96 239.427 Q2040.5 239.474 2041.14 239.589 L2041.17 243.964 Z" fill="#000000" fill-rule="nonzero" fill-opacity="1" /><path clip-path="url(#clip370)" d="M2082.88 251.881 L2082.88 253.964 L2063.3 253.964 Q2063.57 258.362 2065.94 260.677 Q2068.32 262.969 2072.56 262.969 Q2075.01 262.969 2077.3 262.367 Q2079.62 261.765 2081.88 260.561 L2081.88 264.589 Q2079.59 265.561 2077.19 266.071 Q2074.78 266.58 2072.3 266.58 Q2066.1 266.58 2062.46 262.969 Q2058.85 259.358 2058.85 253.2 Q2058.85 246.835 2062.28 243.108 Q2065.73 239.358 2071.56 239.358 Q2076.79 239.358 2079.82 242.737 Q2082.88 246.094 2082.88 251.881 M2078.62 250.631 Q2078.57 247.136 2076.65 245.052 Q2074.75 242.969 2071.61 242.969 Q2068.04 242.969 2065.89 244.983 Q2063.76 246.997 2063.44 250.654 L2078.62 250.631 Z" fill="#000000" fill-rule="nonzero" fill-opacity="1" /><path clip-path="url(#clip370)" d="M2106.4 240.747 L2106.4 244.774 Q2104.59 243.849 2102.65 243.386 Q2100.7 242.923 2098.62 242.923 Q2095.45 242.923 2093.85 243.895 Q2092.28 244.867 2092.28 246.811 Q2092.28 248.293 2093.41 249.149 Q2094.55 249.983 2097.97 250.747 L2099.43 251.071 Q2103.97 252.043 2105.87 253.825 Q2107.79 255.585 2107.79 258.756 Q2107.79 262.367 2104.92 264.473 Q2102.07 266.58 2097.07 266.58 Q2094.99 266.58 2092.72 266.163 Q2090.47 265.77 2087.97 264.96 L2087.97 260.561 Q2090.33 261.788 2092.62 262.413 Q2094.92 263.015 2097.16 263.015 Q2100.17 263.015 2101.79 261.997 Q2103.41 260.955 2103.41 259.08 Q2103.41 257.344 2102.23 256.418 Q2101.07 255.492 2097.12 254.636 L2095.63 254.288 Q2091.68 253.455 2089.92 251.742 Q2088.16 250.006 2088.16 246.997 Q2088.16 243.339 2090.75 241.349 Q2093.34 239.358 2098.11 239.358 Q2100.47 239.358 2102.56 239.705 Q2104.64 240.052 2106.4 240.747 Z" fill="#000000" fill-rule="nonzero" fill-opacity="1" /><path clip-path="url(#clip370)" d="M2118.78 232.622 L2118.78 239.983 L2127.56 239.983 L2127.56 243.293 L2118.78 243.293 L2118.78 257.367 Q2118.78 260.538 2119.64 261.441 Q2120.52 262.344 2123.18 262.344 L2127.56 262.344 L2127.56 265.909 L2123.18 265.909 Q2118.25 265.909 2116.37 264.08 Q2114.5 262.228 2114.5 257.367 L2114.5 243.293 L2111.37 243.293 L2111.37 239.983 L2114.5 239.983 L2114.5 232.622 L2118.78 232.622 Z" fill="#000000" fill-rule="nonzero" fill-opacity="1" /><path clip-path="url(#clip370)" d="M2133.16 239.983 L2137.42 239.983 L2137.42 265.909 L2133.16 265.909 L2133.16 239.983 M2133.16 229.89 L2137.42 229.89 L2137.42 235.284 L2133.16 235.284 L2133.16 229.89 Z" fill="#000000" fill-rule="nonzero" fill-opacity="1" /><path clip-path="url(#clip370)" d="M2166.51 244.96 Q2168.11 242.089 2170.33 240.724 Q2172.55 239.358 2175.56 239.358 Q2179.62 239.358 2181.81 242.205 Q2184.01 245.029 2184.01 250.261 L2184.01 265.909 L2179.73 265.909 L2179.73 250.399 Q2179.73 246.673 2178.41 244.867 Q2177.09 243.062 2174.38 243.062 Q2171.07 243.062 2169.15 245.261 Q2167.23 247.46 2167.23 251.256 L2167.23 265.909 L2162.95 265.909 L2162.95 250.399 Q2162.95 246.649 2161.63 244.867 Q2160.31 243.062 2157.55 243.062 Q2154.29 243.062 2152.37 245.284 Q2150.45 247.483 2150.45 251.256 L2150.45 265.909 L2146.17 265.909 L2146.17 239.983 L2150.45 239.983 L2150.45 244.011 Q2151.91 241.626 2153.94 240.492 Q2155.98 239.358 2158.78 239.358 Q2161.61 239.358 2163.57 240.793 Q2165.56 242.228 2166.51 244.96 Z" fill="#000000" fill-rule="nonzero" fill-opacity="1" /><path clip-path="url(#clip370)" d="M2204.29 252.876 Q2199.13 252.876 2197.14 254.057 Q2195.15 255.237 2195.15 258.085 Q2195.15 260.353 2196.63 261.696 Q2198.13 263.015 2200.7 263.015 Q2204.24 263.015 2206.37 260.515 Q2208.53 257.992 2208.53 253.825 L2208.53 252.876 L2204.29 252.876 M2212.79 251.117 L2212.79 265.909 L2208.53 265.909 L2208.53 261.973 Q2207.07 264.335 2204.89 265.469 Q2202.72 266.58 2199.57 266.58 Q2195.59 266.58 2193.23 264.358 Q2190.89 262.112 2190.89 258.362 Q2190.89 253.987 2193.8 251.765 Q2196.74 249.543 2202.55 249.543 L2208.53 249.543 L2208.53 249.126 Q2208.53 246.187 2206.58 244.589 Q2204.66 242.969 2201.17 242.969 Q2198.94 242.969 2196.84 243.501 Q2194.73 244.034 2192.79 245.099 L2192.79 241.163 Q2195.12 240.261 2197.32 239.821 Q2199.52 239.358 2201.61 239.358 Q2207.23 239.358 2210.01 242.274 Q2212.79 245.191 2212.79 251.117 Z" fill="#000000" fill-rule="nonzero" fill-opacity="1" /><path clip-path="url(#clip370)" d="M2225.77 232.622 L2225.77 239.983 L2234.55 239.983 L2234.55 243.293 L2225.77 243.293 L2225.77 257.367 Q2225.77 260.538 2226.63 261.441 Q2227.51 262.344 2230.17 262.344 L2234.55 262.344 L2234.55 265.909 L2230.17 265.909 Q2225.24 265.909 2223.36 264.08 Q2221.49 262.228 2221.49 257.367 L2221.49 243.293 L2218.36 243.293 L2218.36 239.983 L2221.49 239.983 L2221.49 232.622 L2225.77 232.622 Z" fill="#000000" fill-rule="nonzero" fill-opacity="1" /><path clip-path="url(#clip370)" d="M2262.32 251.881 L2262.32 253.964 L2242.74 253.964 Q2243.02 258.362 2245.38 260.677 Q2247.76 262.969 2252 262.969 Q2254.45 262.969 2256.74 262.367 Q2259.06 261.765 2261.33 260.561 L2261.33 264.589 Q2259.04 265.561 2256.63 266.071 Q2254.22 266.58 2251.74 266.58 Q2245.54 266.58 2241.91 262.969 Q2238.3 259.358 2238.3 253.2 Q2238.3 246.835 2241.72 243.108 Q2245.17 239.358 2251 239.358 Q2256.23 239.358 2259.27 242.737 Q2262.32 246.094 2262.32 251.881 M2258.06 250.631 Q2258.02 247.136 2256.1 245.052 Q2254.2 242.969 2251.05 242.969 Q2247.49 242.969 2245.33 244.983 Q2243.2 246.997 2242.88 250.654 L2258.06 250.631 Z" fill="#000000" fill-rule="nonzero" fill-opacity="1" /><polyline clip-path="url(#clip370)" style="stroke:#389826; stroke-linecap:round; stroke-linejoin:round; stroke-width:4; stroke-opacity:0.2; fill:none" points="1770.76,300.469 1906.41,300.469 "/>
<path clip-path="url(#clip370)" d="M1953.04 303.721 L1953.04 305.804 L1933.46 305.804 Q1933.74 310.202 1936.1 312.517 Q1938.48 314.809 1942.72 314.809 Q1945.17 314.809 1947.46 314.207 Q1949.78 313.605 1952.05 312.401 L1952.05 316.429 Q1949.76 317.401 1947.35 317.911 Q1944.94 318.42 1942.46 318.42 Q1936.26 318.42 1932.63 314.809 Q1929.01 311.198 1929.01 305.04 Q1929.01 298.675 1932.44 294.948 Q1935.89 291.198 1941.72 291.198 Q1946.95 291.198 1949.99 294.577 Q1953.04 297.934 1953.04 303.721 M1948.78 302.471 Q1948.74 298.976 1946.82 296.892 Q1944.92 294.809 1941.77 294.809 Q1938.2 294.809 1936.05 296.823 Q1933.92 298.837 1933.6 302.494 L1948.78 302.471 Z" fill="#000000" fill-rule="nonzero" fill-opacity="1" /><path clip-path="url(#clip370)" d="M1975.06 295.804 Q1974.34 295.388 1973.48 295.202 Q1972.65 294.994 1971.63 294.994 Q1968.02 294.994 1966.07 297.355 Q1964.15 299.693 1964.15 304.091 L1964.15 317.749 L1959.87 317.749 L1959.87 291.823 L1964.15 291.823 L1964.15 295.851 Q1965.5 293.489 1967.65 292.355 Q1969.8 291.198 1972.88 291.198 Q1973.32 291.198 1973.85 291.267 Q1974.38 291.314 1975.03 291.429 L1975.06 295.804 Z" fill="#000000" fill-rule="nonzero" fill-opacity="1" /><path clip-path="url(#clip370)" d="M1993.71 295.804 Q1993 295.388 1992.14 295.202 Q1991.31 294.994 1990.29 294.994 Q1986.68 294.994 1984.73 297.355 Q1982.81 299.693 1982.81 304.091 L1982.81 317.749 L1978.53 317.749 L1978.53 291.823 L1982.81 291.823 L1982.81 295.851 Q1984.15 293.489 1986.31 292.355 Q1988.46 291.198 1991.54 291.198 Q1991.98 291.198 1992.51 291.267 Q1993.04 291.314 1993.69 291.429 L1993.71 295.804 Z" fill="#000000" fill-rule="nonzero" fill-opacity="1" /><path clip-path="url(#clip370)" d="M2007.19 294.809 Q2003.76 294.809 2001.77 297.494 Q1999.78 300.156 1999.78 304.809 Q1999.78 309.462 2001.75 312.147 Q2003.74 314.809 2007.19 314.809 Q2010.59 314.809 2012.58 312.124 Q2014.57 309.438 2014.57 304.809 Q2014.57 300.202 2012.58 297.517 Q2010.59 294.809 2007.19 294.809 M2007.19 291.198 Q2012.74 291.198 2015.91 294.809 Q2019.08 298.42 2019.08 304.809 Q2019.08 311.175 2015.91 314.809 Q2012.74 318.42 2007.19 318.42 Q2001.61 318.42 1998.44 314.809 Q1995.29 311.175 1995.29 304.809 Q1995.29 298.42 1998.44 294.809 Q2001.61 291.198 2007.19 291.198 Z" fill="#000000" fill-rule="nonzero" fill-opacity="1" /><path clip-path="url(#clip370)" d="M2041.17 295.804 Q2040.45 295.388 2039.59 295.202 Q2038.76 294.994 2037.74 294.994 Q2034.13 294.994 2032.19 297.355 Q2030.26 299.693 2030.26 304.091 L2030.26 317.749 L2025.98 317.749 L2025.98 291.823 L2030.26 291.823 L2030.26 295.851 Q2031.61 293.489 2033.76 292.355 Q2035.91 291.198 2038.99 291.198 Q2039.43 291.198 2039.96 291.267 Q2040.5 291.314 2041.14 291.429 L2041.17 295.804 Z" fill="#000000" fill-rule="nonzero" fill-opacity="1" /><path clip-path="url(#clip370)" d="M2082.88 303.721 L2082.88 305.804 L2063.3 305.804 Q2063.57 310.202 2065.94 312.517 Q2068.32 314.809 2072.56 314.809 Q2075.01 314.809 2077.3 314.207 Q2079.62 313.605 2081.88 312.401 L2081.88 316.429 Q2079.59 317.401 2077.19 317.911 Q2074.78 318.42 2072.3 318.42 Q2066.1 318.42 2062.46 314.809 Q2058.85 311.198 2058.85 305.04 Q2058.85 298.675 2062.28 294.948 Q2065.73 291.198 2071.56 291.198 Q2076.79 291.198 2079.82 294.577 Q2082.88 297.934 2082.88 303.721 M2078.62 302.471 Q2078.57 298.976 2076.65 296.892 Q2074.75 294.809 2071.61 294.809 Q2068.04 294.809 2065.89 296.823 Q2063.76 298.837 2063.44 302.494 L2078.62 302.471 Z" fill="#000000" fill-rule="nonzero" fill-opacity="1" /><path clip-path="url(#clip370)" d="M2106.4 292.587 L2106.4 296.614 Q2104.59 295.689 2102.65 295.226 Q2100.7 294.763 2098.62 294.763 Q2095.45 294.763 2093.85 295.735 Q2092.28 296.707 2092.28 298.651 Q2092.28 300.133 2093.41 300.989 Q2094.55 301.823 2097.97 302.587 L2099.43 302.911 Q2103.97 303.883 2105.87 305.665 Q2107.79 307.425 2107.79 310.596 Q2107.79 314.207 2104.92 316.313 Q2102.07 318.42 2097.07 318.42 Q2094.99 318.42 2092.72 318.003 Q2090.47 317.61 2087.97 316.8 L2087.97 312.401 Q2090.33 313.628 2092.62 314.253 Q2094.92 314.855 2097.16 314.855 Q2100.17 314.855 2101.79 313.837 Q2103.41 312.795 2103.41 310.92 Q2103.41 309.184 2102.23 308.258 Q2101.07 307.332 2097.12 306.476 L2095.63 306.128 Q2091.68 305.295 2089.92 303.582 Q2088.16 301.846 2088.16 298.837 Q2088.16 295.179 2090.75 293.189 Q2093.34 291.198 2098.11 291.198 Q2100.47 291.198 2102.56 291.545 Q2104.64 291.892 2106.4 292.587 Z" fill="#000000" fill-rule="nonzero" fill-opacity="1" /><path clip-path="url(#clip370)" d="M2118.78 284.462 L2118.78 291.823 L2127.56 291.823 L2127.56 295.133 L2118.78 295.133 L2118.78 309.207 Q2118.78 312.378 2119.64 313.281 Q2120.52 314.184 2123.18 314.184 L2127.56 314.184 L2127.56 317.749 L2123.18 317.749 Q2118.25 317.749 2116.37 315.92 Q2114.5 314.068 2114.5 309.207 L2114.5 295.133 L2111.37 295.133 L2111.37 291.823 L2114.5 291.823 L2114.5 284.462 L2118.78 284.462 Z" fill="#000000" fill-rule="nonzero" fill-opacity="1" /><path clip-path="url(#clip370)" d="M2133.16 291.823 L2137.42 291.823 L2137.42 317.749 L2133.16 317.749 L2133.16 291.823 M2133.16 281.73 L2137.42 281.73 L2137.42 287.124 L2133.16 287.124 L2133.16 281.73 Z" fill="#000000" fill-rule="nonzero" fill-opacity="1" /><path clip-path="url(#clip370)" d="M2166.51 296.8 Q2168.11 293.929 2170.33 292.564 Q2172.55 291.198 2175.56 291.198 Q2179.62 291.198 2181.81 294.045 Q2184.01 296.869 2184.01 302.101 L2184.01 317.749 L2179.73 317.749 L2179.73 302.239 Q2179.73 298.513 2178.41 296.707 Q2177.09 294.902 2174.38 294.902 Q2171.07 294.902 2169.15 297.101 Q2167.23 299.3 2167.23 303.096 L2167.23 317.749 L2162.95 317.749 L2162.95 302.239 Q2162.95 298.489 2161.63 296.707 Q2160.31 294.902 2157.55 294.902 Q2154.29 294.902 2152.37 297.124 Q2150.45 299.323 2150.45 303.096 L2150.45 317.749 L2146.17 317.749 L2146.17 291.823 L2150.45 291.823 L2150.45 295.851 Q2151.91 293.466 2153.94 292.332 Q2155.98 291.198 2158.78 291.198 Q2161.61 291.198 2163.57 292.633 Q2165.56 294.068 2166.51 296.8 Z" fill="#000000" fill-rule="nonzero" fill-opacity="1" /><path clip-path="url(#clip370)" d="M2204.29 304.716 Q2199.13 304.716 2197.14 305.897 Q2195.15 307.077 2195.15 309.925 Q2195.15 312.193 2196.63 313.536 Q2198.13 314.855 2200.7 314.855 Q2204.24 314.855 2206.37 312.355 Q2208.53 309.832 2208.53 305.665 L2208.53 304.716 L2204.29 304.716 M2212.79 302.957 L2212.79 317.749 L2208.53 317.749 L2208.53 313.813 Q2207.07 316.175 2204.89 317.309 Q2202.72 318.42 2199.57 318.42 Q2195.59 318.42 2193.23 316.198 Q2190.89 313.952 2190.89 310.202 Q2190.89 305.827 2193.8 303.605 Q2196.74 301.383 2202.55 301.383 L2208.53 301.383 L2208.53 300.966 Q2208.53 298.027 2206.58 296.429 Q2204.66 294.809 2201.17 294.809 Q2198.94 294.809 2196.84 295.341 Q2194.73 295.874 2192.79 296.939 L2192.79 293.003 Q2195.12 292.101 2197.32 291.661 Q2199.52 291.198 2201.61 291.198 Q2207.23 291.198 2210.01 294.114 Q2212.79 297.031 2212.79 302.957 Z" fill="#000000" fill-rule="nonzero" fill-opacity="1" /><path clip-path="url(#clip370)" d="M2225.77 284.462 L2225.77 291.823 L2234.55 291.823 L2234.55 295.133 L2225.77 295.133 L2225.77 309.207 Q2225.77 312.378 2226.63 313.281 Q2227.51 314.184 2230.17 314.184 L2234.55 314.184 L2234.55 317.749 L2230.17 317.749 Q2225.24 317.749 2223.36 315.92 Q2221.49 314.068 2221.49 309.207 L2221.49 295.133 L2218.36 295.133 L2218.36 291.823 L2221.49 291.823 L2221.49 284.462 L2225.77 284.462 Z" fill="#000000" fill-rule="nonzero" fill-opacity="1" /><path clip-path="url(#clip370)" d="M2262.32 303.721 L2262.32 305.804 L2242.74 305.804 Q2243.02 310.202 2245.38 312.517 Q2247.76 314.809 2252 314.809 Q2254.45 314.809 2256.74 314.207 Q2259.06 313.605 2261.33 312.401 L2261.33 316.429 Q2259.04 317.401 2256.63 317.911 Q2254.22 318.42 2251.74 318.42 Q2245.54 318.42 2241.91 314.809 Q2238.3 311.198 2238.3 305.04 Q2238.3 298.675 2241.72 294.948 Q2245.17 291.198 2251 291.198 Q2256.23 291.198 2259.27 294.577 Q2262.32 297.934 2262.32 303.721 M2258.06 302.471 Q2258.02 298.976 2256.1 296.892 Q2254.2 294.809 2251.05 294.809 Q2247.49 294.809 2245.33 296.823 Q2243.2 298.837 2242.88 302.494 L2258.06 302.471 Z" fill="#000000" fill-rule="nonzero" fill-opacity="1" /></svg>
