<?xml version="1.0" encoding="utf-8"?>
<svg xmlns="http://www.w3.org/2000/svg" xmlns:xlink="http://www.w3.org/1999/xlink" width="600" height="400" viewBox="0 0 2400 1600">
<defs>
  <clipPath id="clip070">
    <rect x="0" y="0" width="2400" height="1600"/>
  </clipPath>
</defs>
<path clip-path="url(#clip070)" d="M0 1600 L2400 1600 L2400 0 L0 0  Z" fill="#ffffff" fill-rule="evenodd" fill-opacity="1"/>
<defs>
  <clipPath id="clip071">
    <rect x="480" y="0" width="1681" height="1600"/>
  </clipPath>
</defs>
<path clip-path="url(#clip070)" d="M194.422 1486.45 L2352.76 1486.45 L2352.76 47.2441 L194.422 47.2441  Z" fill="#ffffff" fill-rule="evenodd" fill-opacity="1"/>
<defs>
  <clipPath id="clip072">
    <rect x="194" y="47" width="2159" height="1440"/>
  </clipPath>
</defs>
<polyline clip-path="url(#clip072)" style="stroke:#000000; stroke-linecap:round; stroke-linejoin:round; stroke-width:2; stroke-opacity:0.1; fill:none" points="402.796,1486.45 402.796,47.2441 "/>
<polyline clip-path="url(#clip072)" style="stroke:#000000; stroke-linecap:round; stroke-linejoin:round; stroke-width:2; stroke-opacity:0.1; fill:none" points="835.296,1486.45 835.296,47.2441 "/>
<polyline clip-path="url(#clip072)" style="stroke:#000000; stroke-linecap:round; stroke-linejoin:round; stroke-width:2; stroke-opacity:0.1; fill:none" points="1267.8,1486.45 1267.8,47.2441 "/>
<polyline clip-path="url(#clip072)" style="stroke:#000000; stroke-linecap:round; stroke-linejoin:round; stroke-width:2; stroke-opacity:0.1; fill:none" points="1700.3,1486.45 1700.3,47.2441 "/>
<polyline clip-path="url(#clip072)" style="stroke:#000000; stroke-linecap:round; stroke-linejoin:round; stroke-width:2; stroke-opacity:0.1; fill:none" points="2132.8,1486.45 2132.8,47.2441 "/>
<polyline clip-path="url(#clip070)" style="stroke:#000000; stroke-linecap:round; stroke-linejoin:round; stroke-width:4; stroke-opacity:1; fill:none" points="194.422,1486.45 2352.76,1486.45 "/>
<polyline clip-path="url(#clip070)" style="stroke:#000000; stroke-linecap:round; stroke-linejoin:round; stroke-width:4; stroke-opacity:1; fill:none" points="402.796,1486.45 402.796,1467.55 "/>
<polyline clip-path="url(#clip070)" style="stroke:#000000; stroke-linecap:round; stroke-linejoin:round; stroke-width:4; stroke-opacity:1; fill:none" points="835.296,1486.45 835.296,1467.55 "/>
<polyline clip-path="url(#clip070)" style="stroke:#000000; stroke-linecap:round; stroke-linejoin:round; stroke-width:4; stroke-opacity:1; fill:none" points="1267.8,1486.45 1267.8,1467.55 "/>
<polyline clip-path="url(#clip070)" style="stroke:#000000; stroke-linecap:round; stroke-linejoin:round; stroke-width:4; stroke-opacity:1; fill:none" points="1700.3,1486.45 1700.3,1467.55 "/>
<polyline clip-path="url(#clip070)" style="stroke:#000000; stroke-linecap:round; stroke-linejoin:round; stroke-width:4; stroke-opacity:1; fill:none" points="2132.8,1486.45 2132.8,1467.55 "/>
<path clip-path="url(#clip070)" d="M349.081 1532.02 L378.757 1532.02 L378.757 1535.95 L349.081 1535.95 L349.081 1532.02 Z" fill="#000000" fill-rule="nonzero" fill-opacity="1" /><path clip-path="url(#clip070)" d="M398.849 1517.37 Q395.238 1517.37 393.409 1520.93 Q391.604 1524.47 391.604 1531.6 Q391.604 1538.71 393.409 1542.27 Q395.238 1545.82 398.849 1545.82 Q402.483 1545.82 404.289 1542.27 Q406.117 1538.71 406.117 1531.6 Q406.117 1524.47 404.289 1520.93 Q402.483 1517.37 398.849 1517.37 M398.849 1513.66 Q404.659 1513.66 407.715 1518.27 Q410.793 1522.85 410.793 1531.6 Q410.793 1540.33 407.715 1544.94 Q404.659 1549.52 398.849 1549.52 Q393.039 1549.52 389.96 1544.94 Q386.905 1540.33 386.905 1531.6 Q386.905 1522.85 389.96 1518.27 Q393.039 1513.66 398.849 1513.66 Z" fill="#000000" fill-rule="nonzero" fill-opacity="1" /><path clip-path="url(#clip070)" d="M419.011 1542.97 L423.895 1542.97 L423.895 1548.85 L419.011 1548.85 L419.011 1542.97 Z" fill="#000000" fill-rule="nonzero" fill-opacity="1" /><path clip-path="url(#clip070)" d="M446.927 1518.36 L435.122 1536.81 L446.927 1536.81 L446.927 1518.36 M445.701 1514.29 L451.58 1514.29 L451.58 1536.81 L456.511 1536.81 L456.511 1540.7 L451.58 1540.7 L451.58 1548.85 L446.927 1548.85 L446.927 1540.7 L431.326 1540.7 L431.326 1536.19 L445.701 1514.29 Z" fill="#000000" fill-rule="nonzero" fill-opacity="1" /><path clip-path="url(#clip070)" d="M782.623 1532.02 L812.298 1532.02 L812.298 1535.95 L782.623 1535.95 L782.623 1532.02 Z" fill="#000000" fill-rule="nonzero" fill-opacity="1" /><path clip-path="url(#clip070)" d="M832.391 1517.37 Q828.78 1517.37 826.951 1520.93 Q825.146 1524.47 825.146 1531.6 Q825.146 1538.71 826.951 1542.27 Q828.78 1545.82 832.391 1545.82 Q836.025 1545.82 837.831 1542.27 Q839.659 1538.71 839.659 1531.6 Q839.659 1524.47 837.831 1520.93 Q836.025 1517.37 832.391 1517.37 M832.391 1513.66 Q838.201 1513.66 841.257 1518.27 Q844.335 1522.85 844.335 1531.6 Q844.335 1540.33 841.257 1544.94 Q838.201 1549.52 832.391 1549.52 Q826.581 1549.52 823.502 1544.94 Q820.447 1540.33 820.447 1531.6 Q820.447 1522.85 823.502 1518.27 Q826.581 1513.66 832.391 1513.66 Z" fill="#000000" fill-rule="nonzero" fill-opacity="1" /><path clip-path="url(#clip070)" d="M852.553 1542.97 L857.437 1542.97 L857.437 1548.85 L852.553 1548.85 L852.553 1542.97 Z" fill="#000000" fill-rule="nonzero" fill-opacity="1" /><path clip-path="url(#clip070)" d="M871.65 1544.91 L887.969 1544.91 L887.969 1548.85 L866.025 1548.85 L866.025 1544.91 Q868.687 1542.16 873.27 1537.53 Q877.877 1532.88 879.057 1531.53 Q881.303 1529.01 882.182 1527.27 Q883.085 1525.51 883.085 1523.82 Q883.085 1521.07 881.141 1519.33 Q879.219 1517.6 876.118 1517.6 Q873.918 1517.6 871.465 1518.36 Q869.034 1519.13 866.256 1520.68 L866.256 1515.95 Q869.081 1514.82 871.534 1514.24 Q873.988 1513.66 876.025 1513.66 Q881.395 1513.66 884.59 1516.35 Q887.784 1519.03 887.784 1523.52 Q887.784 1525.65 886.974 1527.57 Q886.187 1529.47 884.08 1532.07 Q883.502 1532.74 880.4 1535.95 Q877.298 1539.15 871.65 1544.91 Z" fill="#000000" fill-rule="nonzero" fill-opacity="1" /><path clip-path="url(#clip070)" d="M1245.18 1517.37 Q1241.57 1517.37 1239.74 1520.93 Q1237.94 1524.47 1237.94 1531.6 Q1237.94 1538.71 1239.74 1542.27 Q1241.57 1545.82 1245.18 1545.82 Q1248.81 1545.82 1250.62 1542.27 Q1252.45 1538.71 1252.45 1531.6 Q1252.45 1524.47 1250.62 1520.93 Q1248.81 1517.37 1245.18 1517.37 M1245.18 1513.66 Q1250.99 1513.66 1254.05 1518.27 Q1257.13 1522.85 1257.13 1531.6 Q1257.13 1540.33 1254.05 1544.94 Q1250.99 1549.52 1245.18 1549.52 Q1239.37 1549.52 1236.29 1544.94 Q1233.24 1540.33 1233.24 1531.6 Q1233.24 1522.85 1236.29 1518.27 Q1239.37 1513.66 1245.18 1513.66 Z" fill="#000000" fill-rule="nonzero" fill-opacity="1" /><path clip-path="url(#clip070)" d="M1265.34 1542.97 L1270.23 1542.97 L1270.23 1548.85 L1265.34 1548.85 L1265.34 1542.97 Z" fill="#000000" fill-rule="nonzero" fill-opacity="1" /><path clip-path="url(#clip070)" d="M1290.41 1517.37 Q1286.8 1517.37 1284.97 1520.93 Q1283.17 1524.47 1283.17 1531.6 Q1283.17 1538.71 1284.97 1542.27 Q1286.8 1545.82 1290.41 1545.82 Q1294.05 1545.82 1295.85 1542.27 Q1297.68 1538.71 1297.68 1531.6 Q1297.68 1524.47 1295.85 1520.93 Q1294.05 1517.37 1290.41 1517.37 M1290.41 1513.66 Q1296.22 1513.66 1299.28 1518.27 Q1302.36 1522.85 1302.36 1531.6 Q1302.36 1540.33 1299.28 1544.94 Q1296.22 1549.52 1290.41 1549.52 Q1284.6 1549.52 1281.52 1544.94 Q1278.47 1540.33 1278.47 1531.6 Q1278.47 1522.85 1281.52 1518.27 Q1284.6 1513.66 1290.41 1513.66 Z" fill="#000000" fill-rule="nonzero" fill-opacity="1" /><path clip-path="url(#clip070)" d="M1678.48 1517.37 Q1674.87 1517.37 1673.04 1520.93 Q1671.23 1524.47 1671.23 1531.6 Q1671.23 1538.71 1673.04 1542.27 Q1674.87 1545.82 1678.48 1545.82 Q1682.11 1545.82 1683.92 1542.27 Q1685.75 1538.71 1685.75 1531.6 Q1685.75 1524.47 1683.92 1520.93 Q1682.11 1517.37 1678.48 1517.37 M1678.48 1513.66 Q1684.29 1513.66 1687.35 1518.27 Q1690.42 1522.85 1690.42 1531.6 Q1690.42 1540.33 1687.35 1544.94 Q1684.29 1549.52 1678.48 1549.52 Q1672.67 1549.52 1669.59 1544.94 Q1666.54 1540.33 1666.54 1531.6 Q1666.54 1522.85 1669.59 1518.27 Q1672.67 1513.66 1678.48 1513.66 Z" fill="#000000" fill-rule="nonzero" fill-opacity="1" /><path clip-path="url(#clip070)" d="M1698.64 1542.97 L1703.53 1542.97 L1703.53 1548.85 L1698.64 1548.85 L1698.64 1542.97 Z" fill="#000000" fill-rule="nonzero" fill-opacity="1" /><path clip-path="url(#clip070)" d="M1717.74 1544.91 L1734.06 1544.91 L1734.06 1548.85 L1712.11 1548.85 L1712.11 1544.91 Q1714.78 1542.16 1719.36 1537.53 Q1723.97 1532.88 1725.15 1531.53 Q1727.39 1529.01 1728.27 1527.27 Q1729.17 1525.51 1729.17 1523.82 Q1729.17 1521.07 1727.23 1519.33 Q1725.31 1517.6 1722.21 1517.6 Q1720.01 1517.6 1717.55 1518.36 Q1715.12 1519.13 1712.35 1520.68 L1712.35 1515.95 Q1715.17 1514.82 1717.62 1514.24 Q1720.08 1513.66 1722.11 1513.66 Q1727.48 1513.66 1730.68 1516.35 Q1733.87 1519.03 1733.87 1523.52 Q1733.87 1525.65 1733.06 1527.57 Q1732.28 1529.47 1730.17 1532.07 Q1729.59 1532.74 1726.49 1535.95 Q1723.39 1539.15 1717.74 1544.91 Z" fill="#000000" fill-rule="nonzero" fill-opacity="1" /><path clip-path="url(#clip070)" d="M2109.94 1517.37 Q2106.33 1517.37 2104.5 1520.93 Q2102.69 1524.47 2102.69 1531.6 Q2102.69 1538.71 2104.5 1542.27 Q2106.33 1545.82 2109.94 1545.82 Q2113.57 1545.82 2115.38 1542.27 Q2117.21 1538.71 2117.21 1531.6 Q2117.21 1524.47 2115.38 1520.93 Q2113.57 1517.37 2109.94 1517.37 M2109.94 1513.66 Q2115.75 1513.66 2118.8 1518.27 Q2121.88 1522.85 2121.88 1531.6 Q2121.88 1540.33 2118.8 1544.94 Q2115.75 1549.52 2109.94 1549.52 Q2104.13 1549.52 2101.05 1544.94 Q2097.99 1540.33 2097.99 1531.6 Q2097.99 1522.85 2101.05 1518.27 Q2104.13 1513.66 2109.94 1513.66 Z" fill="#000000" fill-rule="nonzero" fill-opacity="1" /><path clip-path="url(#clip070)" d="M2130.1 1542.97 L2134.98 1542.97 L2134.98 1548.85 L2130.1 1548.85 L2130.1 1542.97 Z" fill="#000000" fill-rule="nonzero" fill-opacity="1" /><path clip-path="url(#clip070)" d="M2158.02 1518.36 L2146.21 1536.81 L2158.02 1536.81 L2158.02 1518.36 M2156.79 1514.29 L2162.67 1514.29 L2162.67 1536.81 L2167.6 1536.81 L2167.6 1540.7 L2162.67 1540.7 L2162.67 1548.85 L2158.02 1548.85 L2158.02 1540.7 L2142.41 1540.7 L2142.41 1536.19 L2156.79 1514.29 Z" fill="#000000" fill-rule="nonzero" fill-opacity="1" /><polyline clip-path="url(#clip072)" style="stroke:#000000; stroke-linecap:round; stroke-linejoin:round; stroke-width:2; stroke-opacity:0.1; fill:none" points="194.422,1440.1 2352.76,1440.1 "/>
<polyline clip-path="url(#clip072)" style="stroke:#000000; stroke-linecap:round; stroke-linejoin:round; stroke-width:2; stroke-opacity:0.1; fill:none" points="194.422,1133.56 2352.76,1133.56 "/>
<polyline clip-path="url(#clip072)" style="stroke:#000000; stroke-linecap:round; stroke-linejoin:round; stroke-width:2; stroke-opacity:0.1; fill:none" points="194.422,827.021 2352.76,827.021 "/>
<polyline clip-path="url(#clip072)" style="stroke:#000000; stroke-linecap:round; stroke-linejoin:round; stroke-width:2; stroke-opacity:0.1; fill:none" points="194.422,520.483 2352.76,520.483 "/>
<polyline clip-path="url(#clip072)" style="stroke:#000000; stroke-linecap:round; stroke-linejoin:round; stroke-width:2; stroke-opacity:0.1; fill:none" points="194.422,213.945 2352.76,213.945 "/>
<polyline clip-path="url(#clip070)" style="stroke:#000000; stroke-linecap:round; stroke-linejoin:round; stroke-width:4; stroke-opacity:1; fill:none" points="194.422,1486.45 194.422,47.2441 "/>
<polyline clip-path="url(#clip070)" style="stroke:#000000; stroke-linecap:round; stroke-linejoin:round; stroke-width:4; stroke-opacity:1; fill:none" points="194.422,1440.1 213.32,1440.1 "/>
<polyline clip-path="url(#clip070)" style="stroke:#000000; stroke-linecap:round; stroke-linejoin:round; stroke-width:4; stroke-opacity:1; fill:none" points="194.422,1133.56 213.32,1133.56 "/>
<polyline clip-path="url(#clip070)" style="stroke:#000000; stroke-linecap:round; stroke-linejoin:round; stroke-width:4; stroke-opacity:1; fill:none" points="194.422,827.021 213.32,827.021 "/>
<polyline clip-path="url(#clip070)" style="stroke:#000000; stroke-linecap:round; stroke-linejoin:round; stroke-width:4; stroke-opacity:1; fill:none" points="194.422,520.483 213.32,520.483 "/>
<polyline clip-path="url(#clip070)" style="stroke:#000000; stroke-linecap:round; stroke-linejoin:round; stroke-width:4; stroke-opacity:1; fill:none" points="194.422,213.945 213.32,213.945 "/>
<path clip-path="url(#clip070)" d="M50.9921 1440.55 L80.6679 1440.55 L80.6679 1444.48 L50.9921 1444.48 L50.9921 1440.55 Z" fill="#000000" fill-rule="nonzero" fill-opacity="1" /><path clip-path="url(#clip070)" d="M100.76 1425.9 Q97.1493 1425.9 95.3206 1429.46 Q93.515 1433 93.515 1440.13 Q93.515 1447.24 95.3206 1450.8 Q97.1493 1454.34 100.76 1454.34 Q104.395 1454.34 106.2 1450.8 Q108.029 1447.24 108.029 1440.13 Q108.029 1433 106.2 1429.46 Q104.395 1425.9 100.76 1425.9 M100.76 1422.19 Q106.571 1422.19 109.626 1426.8 Q112.705 1431.38 112.705 1440.13 Q112.705 1448.86 109.626 1453.46 Q106.571 1458.05 100.76 1458.05 Q94.9502 1458.05 91.8715 1453.46 Q88.816 1448.86 88.816 1440.13 Q88.816 1431.38 91.8715 1426.8 Q94.9502 1422.19 100.76 1422.19 Z" fill="#000000" fill-rule="nonzero" fill-opacity="1" /><path clip-path="url(#clip070)" d="M120.922 1451.5 L125.807 1451.5 L125.807 1457.38 L120.922 1457.38 L120.922 1451.5 Z" fill="#000000" fill-rule="nonzero" fill-opacity="1" /><path clip-path="url(#clip070)" d="M148.839 1426.89 L137.033 1445.34 L148.839 1445.34 L148.839 1426.89 M147.612 1422.82 L153.492 1422.82 L153.492 1445.34 L158.422 1445.34 L158.422 1449.23 L153.492 1449.23 L153.492 1457.38 L148.839 1457.38 L148.839 1449.23 L133.237 1449.23 L133.237 1444.71 L147.612 1422.82 Z" fill="#000000" fill-rule="nonzero" fill-opacity="1" /><path clip-path="url(#clip070)" d="M53.0754 1134.01 L82.7512 1134.01 L82.7512 1137.95 L53.0754 1137.95 L53.0754 1134.01 Z" fill="#000000" fill-rule="nonzero" fill-opacity="1" /><path clip-path="url(#clip070)" d="M102.844 1119.36 Q99.2326 1119.36 97.4039 1122.92 Q95.5984 1126.46 95.5984 1133.59 Q95.5984 1140.7 97.4039 1144.26 Q99.2326 1147.81 102.844 1147.81 Q106.478 1147.81 108.283 1144.26 Q110.112 1140.7 110.112 1133.59 Q110.112 1126.46 108.283 1122.92 Q106.478 1119.36 102.844 1119.36 M102.844 1115.65 Q108.654 1115.65 111.709 1120.26 Q114.788 1124.84 114.788 1133.59 Q114.788 1142.32 111.709 1146.93 Q108.654 1151.51 102.844 1151.51 Q97.0335 1151.51 93.9549 1146.93 Q90.8993 1142.32 90.8993 1133.59 Q90.8993 1124.84 93.9549 1120.26 Q97.0335 1115.65 102.844 1115.65 Z" fill="#000000" fill-rule="nonzero" fill-opacity="1" /><path clip-path="url(#clip070)" d="M123.006 1144.96 L127.89 1144.96 L127.89 1150.84 L123.006 1150.84 L123.006 1144.96 Z" fill="#000000" fill-rule="nonzero" fill-opacity="1" /><path clip-path="url(#clip070)" d="M142.103 1146.9 L158.422 1146.9 L158.422 1150.84 L136.478 1150.84 L136.478 1146.9 Q139.14 1144.15 143.723 1139.52 Q148.33 1134.87 149.51 1133.52 Q151.755 1131 152.635 1129.26 Q153.538 1127.51 153.538 1125.82 Q153.538 1123.06 151.593 1121.32 Q149.672 1119.59 146.57 1119.59 Q144.371 1119.59 141.918 1120.35 Q139.487 1121.12 136.709 1122.67 L136.709 1117.95 Q139.533 1116.81 141.987 1116.23 Q144.441 1115.65 146.478 1115.65 Q151.848 1115.65 155.042 1118.34 Q158.237 1121.02 158.237 1125.51 Q158.237 1127.64 157.427 1129.57 Q156.64 1131.46 154.533 1134.06 Q153.955 1134.73 150.853 1137.95 Q147.751 1141.14 142.103 1146.9 Z" fill="#000000" fill-rule="nonzero" fill-opacity="1" /><path clip-path="url(#clip070)" d="M101.246 812.819 Q97.6354 812.819 95.8067 816.384 Q94.0012 819.926 94.0012 827.055 Q94.0012 834.162 95.8067 837.727 Q97.6354 841.268 101.246 841.268 Q104.881 841.268 106.686 837.727 Q108.515 834.162 108.515 827.055 Q108.515 819.926 106.686 816.384 Q104.881 812.819 101.246 812.819 M101.246 809.116 Q107.057 809.116 110.112 813.722 Q113.191 818.305 113.191 827.055 Q113.191 835.782 110.112 840.389 Q107.057 844.972 101.246 844.972 Q95.4363 844.972 92.3576 840.389 Q89.3021 835.782 89.3021 827.055 Q89.3021 818.305 92.3576 813.722 Q95.4363 809.116 101.246 809.116 Z" fill="#000000" fill-rule="nonzero" fill-opacity="1" /><path clip-path="url(#clip070)" d="M121.408 838.421 L126.293 838.421 L126.293 844.301 L121.408 844.301 L121.408 838.421 Z" fill="#000000" fill-rule="nonzero" fill-opacity="1" /><path clip-path="url(#clip070)" d="M146.478 812.819 Q142.867 812.819 141.038 816.384 Q139.232 819.926 139.232 827.055 Q139.232 834.162 141.038 837.727 Q142.867 841.268 146.478 841.268 Q150.112 841.268 151.918 837.727 Q153.746 834.162 153.746 827.055 Q153.746 819.926 151.918 816.384 Q150.112 812.819 146.478 812.819 M146.478 809.116 Q152.288 809.116 155.343 813.722 Q158.422 818.305 158.422 827.055 Q158.422 835.782 155.343 840.389 Q152.288 844.972 146.478 844.972 Q140.668 844.972 137.589 840.389 Q134.533 835.782 134.533 827.055 Q134.533 818.305 137.589 813.722 Q140.668 809.116 146.478 809.116 Z" fill="#000000" fill-rule="nonzero" fill-opacity="1" /><path clip-path="url(#clip070)" d="M102.844 506.281 Q99.2326 506.281 97.4039 509.846 Q95.5984 513.388 95.5984 520.517 Q95.5984 527.624 97.4039 531.189 Q99.2326 534.73 102.844 534.73 Q106.478 534.73 108.283 531.189 Q110.112 527.624 110.112 520.517 Q110.112 513.388 108.283 509.846 Q106.478 506.281 102.844 506.281 M102.844 502.578 Q108.654 502.578 111.709 507.184 Q114.788 511.767 114.788 520.517 Q114.788 529.244 111.709 533.851 Q108.654 538.434 102.844 538.434 Q97.0335 538.434 93.9549 533.851 Q90.8993 529.244 90.8993 520.517 Q90.8993 511.767 93.9549 507.184 Q97.0335 502.578 102.844 502.578 Z" fill="#000000" fill-rule="nonzero" fill-opacity="1" /><path clip-path="url(#clip070)" d="M123.006 531.883 L127.89 531.883 L127.89 537.763 L123.006 537.763 L123.006 531.883 Z" fill="#000000" fill-rule="nonzero" fill-opacity="1" /><path clip-path="url(#clip070)" d="M142.103 533.828 L158.422 533.828 L158.422 537.763 L136.478 537.763 L136.478 533.828 Q139.14 531.073 143.723 526.443 Q148.33 521.791 149.51 520.448 Q151.755 517.925 152.635 516.189 Q153.538 514.429 153.538 512.74 Q153.538 509.985 151.593 508.249 Q149.672 506.513 146.57 506.513 Q144.371 506.513 141.918 507.277 Q139.487 508.041 136.709 509.592 L136.709 504.869 Q139.533 503.735 141.987 503.156 Q144.441 502.578 146.478 502.578 Q151.848 502.578 155.042 505.263 Q158.237 507.948 158.237 512.439 Q158.237 514.568 157.427 516.49 Q156.64 518.388 154.533 520.98 Q153.955 521.652 150.853 524.869 Q147.751 528.064 142.103 533.828 Z" fill="#000000" fill-rule="nonzero" fill-opacity="1" /><path clip-path="url(#clip070)" d="M100.76 199.743 Q97.1493 199.743 95.3206 203.308 Q93.515 206.85 93.515 213.979 Q93.515 221.086 95.3206 224.651 Q97.1493 228.192 100.76 228.192 Q104.395 228.192 106.2 224.651 Q108.029 221.086 108.029 213.979 Q108.029 206.85 106.2 203.308 Q104.395 199.743 100.76 199.743 M100.76 196.04 Q106.571 196.04 109.626 200.646 Q112.705 205.229 112.705 213.979 Q112.705 222.706 109.626 227.313 Q106.571 231.896 100.76 231.896 Q94.9502 231.896 91.8715 227.313 Q88.816 222.706 88.816 213.979 Q88.816 205.229 91.8715 200.646 Q94.9502 196.04 100.76 196.04 Z" fill="#000000" fill-rule="nonzero" fill-opacity="1" /><path clip-path="url(#clip070)" d="M120.922 225.345 L125.807 225.345 L125.807 231.225 L120.922 231.225 L120.922 225.345 Z" fill="#000000" fill-rule="nonzero" fill-opacity="1" /><path clip-path="url(#clip070)" d="M148.839 200.739 L137.033 219.188 L148.839 219.188 L148.839 200.739 M147.612 196.665 L153.492 196.665 L153.492 219.188 L158.422 219.188 L158.422 223.077 L153.492 223.077 L153.492 231.225 L148.839 231.225 L148.839 223.077 L133.237 223.077 L133.237 218.563 L147.612 196.665 Z" fill="#000000" fill-rule="nonzero" fill-opacity="1" /><polyline clip-path="url(#clip072)" style="stroke:#009af9; stroke-linecap:round; stroke-linejoin:round; stroke-width:4; stroke-opacity:1; fill:none" points="1267.8,673.752 1375.81,674.446 1482.53,676.56 1586.68,680.189 1687.03,685.488 1782.41,692.653 1871.74,701.918 1954.03,713.531 2028.45,727.743 2094.27,744.782 2150.93,764.839 2198.04,788.049 2235.37,814.475 2262.86,844.091 2280.61,876.778 2288.88,912.309 2288.07,950.354 2278.7,990.473 2261.35,1032.13 2236.73,1074.69 2205.53,1117.44 2168.49,1159.62 2126.35,1200.41 2079.79,1238.96 2029.46,1274.44 1975.95,1306.04 1919.77,1333 1861.37,1354.61 1801.11,1370.28 1739.29,1379.53 1676.14,1381.98 1611.87,1377.42 1546.62,1365.77 1480.54,1347.09 1413.78,1321.58 1346.5,1289.61 1278.92,1251.63 1211.29,1208.22 1143.95,1160.06 1077.33,1107.9 1011.92,1052.52 948.323,994.772 887.237,935.492 829.43,875.522 775.742,815.678 727.058,756.738 684.29,699.424 648.338,644.395 620.067,592.23 600.265,543.429 589.615,498.398 588.661,457.458 597.777,420.835 617.148,388.671 646.75,361.028 686.34,337.896 735.456,319.208 793.425,304.85 859.371,294.68 932.239,288.538 1010.82,286.268 1093.79,287.723 1179.72,292.783 1267.15,301.359 1354.59,313.398 1440.59,328.887 1523.74,347.846 1602.72,370.321 1676.37,396.378 1743.63,426.084 1803.65,459.499 1855.74,496.652 1899.41,537.533 1934.39,582.07 1960.56,630.122 1978.02,681.461 1987.03,735.769 1987.98,792.627 1981.4,851.518 1967.9,911.823 1948.17,972.834 1922.91,1033.76 1892.87,1093.74 1858.73,1151.86 1821.18,1207.19 1780.83,1258.76 1738.23,1305.67 1693.86,1347.01 1648.1,1381.97 1601.29,1409.85 1553.67,1430.04 1505.44,1442.1 1456.73,1445.72 1407.66,1440.76 1358.31,1427.28 1308.77,1405.46 1259.12,1375.68 1209.51,1338.44 1160.09,1294.39 1111.1,1244.28 1062.83,1188.93 1015.65,1129.24 970.011,1066.13 926.428,1000.54 885.496,933.4 847.867,865.594 814.236,797.965 785.322,731.291 761.844,666.274 744.494,603.532 733.911,543.595 730.646,486.901 735.14,433.798 747.697,384.551 768.459,339.339 797.393,298.272 834.276,261.399 878.694,228.715 930.039,200.182 987.522,175.734 1050.19,155.297 1116.94,138.798 1186.55,126.175 1257.71,117.387 1329.07,112.42 1399.24,111.29 1466.87,114.042 1530.66,120.746 1589.39,131.494 1642,146.388 1687.53,165.533 1725.25,189.021 1754.58,216.927 1775.17,249.286 1786.87,286.093 1789.7,327.286 1783.91,372.744 1769.89,422.272 1748.2,475.607 1719.49,532.407 1684.52,592.256 1644.1,654.661 1599.06,719.058 1550.23,784.816 1498.41,851.242 1444.34,917.594 1388.71,983.084 1332.11,1046.9 1275.04,1108.21 1217.91,1166.18 1161.06,1220.02 1104.73,1268.95 1049.08,1312.27 994.226,1349.35 940.247,1379.68 887.182,1402.83 835.067,1418.53 783.943,1426.64 733.877,1427.18 684.975,1420.3 637.398,1406.3 591.369,1385.61 547.183,1358.8 505.214,1326.53 465.912,1289.53 429.802,1248.61 397.473,1204.62 369.571,1158.4 346.78,1110.78 329.799,1062.58 319.326,1014.53 316.026,967.329 320.51,921.557 333.306,877.718 354.836,836.214 385.391,797.346 425.117,761.319 473.996,728.248 531.84,698.166 598.283,671.041 672.786,646.79 754.639,625.293 842.976,606.417 936.785,590.027 1034.93,576.007 1136.16,564.271 1239.16,554.779 1342.55,547.537 1444.91,542.607 1544.84,540.106 1640.96,540.197 1731.96,543.084 1816.58,548.997 1893.73,558.179 1962.41,570.867 2021.83,587.274 2071.34,607.569 2110.51,631.863 2139.11,660.188 2157.09,692.487 2164.6,728.604 2162,768.276 2149.75,811.131 2128.5,856.69 2098.96,904.371 2061.93,953.499 2018.27,1003.32 1968.81,1053.02 1914.39,1101.73 1855.82,1148.57 1793.81,1192.65 1729.05,1233.1 1662.11,1269.11 1593.48,1299.93 1523.61,1324.91 1452.83,1343.51 1381.44,1355.31 1309.69,1360.05 1237.82,1357.6 1166.04,1348.02 1094.59,1331.49 1023.74,1308.35 953.8,1279.07 885.158,1244.27 818.271,1204.63 753.675,1160.95 691.992,1114.06 633.924,1064.85 580.241,1014.2 531.767,962.998 489.36,912.088 453.886,862.261 426.188,814.242 407.056,768.668 397.195,726.081 397.195,686.919 407.499,651.513 428.382,620.086 459.93,592.758 502.031,569.555 554.365,550.419 616.412,535.221 687.455,523.781 766.602,515.882 852.798,511.294 944.857,509.785 1041.48,511.141 1141.31,515.182 1242.92,521.769 1344.88,530.812 1445.77,542.273 1544.22,556.164 1638.93,572.544 1728.7,591.505 1812.44,613.161 1889.21,637.635 1958.23,665.037 2018.89,695.453 2070.74,728.921 2113.54,765.421 2147.19,804.855 2171.79,847.039 2187.58,891.695 2194.94,938.446 2194.36,986.815 2186.45,1036.23 2171.85,1086.02 2151.25,1135.46 2125.36,1183.75 2094.87,1230.04 2060.45,1273.48 2022.71,1313.21 1982.2,1348.4 1939.4,1378.27 1894.7,1402.12 1848.42,1419.35 1800.82,1429.46 1752.07,1432.11 1702.3,1427.09 1651.58,1414.33 1599.96,1393.93 1547.48,1366.12 1494.16,1331.27 1440.07,1289.89 1385.31,1242.58 1330.01,1190.02 1274.38,1132.98 1218.73,1072.26 1163.42,1008.71 1108.91,943.149 1055.76,876.42 1004.61,809.324 956.155,742.627 911.172,677.043 870.463,613.226 834.846,551.766 805.12,493.178 782.044,437.903 766.298,386.305 758.455,338.674 758.955,295.222 768.076,256.096 785.919,221.375 812.39,191.082 847.193,165.197 889.834,143.658 939.625,126.381 995.697,113.269 1057.02,104.222 1122.45,99.1502 1190.7,97.9791 1260.46,100.66 1330.37,107.173 1399.06,117.526 1465.22,131.756 1527.63,149.922 1585.13,172.097 1636.76,198.36 1681.67,228.785 1719.21,263.424 1748.92,302.299 1770.52,345.387 1783.94,392.609 1789.26,443.819 1786.76,498.795 1776.84,557.232 1760.04,618.74 1736.96,682.841 1708.3,748.965 1674.78,816.463 1637.13,884.604 1596.05,952.59 1552.21,1019.56 1506.24,1084.63 1458.67,1146.87 1409.98,1205.35 1360.56,1259.18 1310.73,1307.49 1260.74,1349.5 1210.77,1384.49 1160.94,1411.88 1111.37,1431.23 1062.13,1442.23 1013.3,1444.75 964.968,1438.81 917.25,1424.61 870.309,1402.5 824.366,1372.98 779.707,1336.71 736.693,1294.42 695.761,1246.95 657.426,1195.19 622.274,1140.09 590.952,1082.57 564.152,1023.57 542.595,963.964 527.004,904.587 518.08,846.188 516.475,789.432 522.757,734.89 537.391,683.029 560.706,634.22 592.874,588.734 633.892,546.754 683.568,508.382 741.515,473.657 807.152,442.562 879.705,415.049 958.223,391.048 1041.6,370.489 1128.58,353.312 1217.81,339.481 1307.86,328.993 1397.24,321.882 1484.48,318.222 1568.11,318.125 1646.74,321.732 1719.08,329.205 1783.97,340.714 1840.43,356.423 1887.64,376.474 1925.01,400.969 1952.15,429.96 1968.89,463.429 1975.3,501.285 1971.62,543.347 1958.29,589.345 1935.91,638.912 1905.19,691.592 1866.97,746.836 1822.11,804.014 1771.54,862.424 1716.15,921.299 1656.81,979.83 1594.35,1037.17 1529.5,1092.47 1462.94,1144.88 1395.22,1193.57 1326.82,1237.76 1258.15,1276.76 1189.51,1309.94 1121.16,1336.78 1053.3,1356.9 986.098,1370.04 919.721,1376.08 854.334,1375.06 790.132,1367.16 727.346,1352.7 666.267,1332.13 607.249,1306.03 550.718,1275.07 497.178,1240 447.204,1201.64 401.438,1160.81 360.575,1118.38 325.347,1075.17 296.504,1031.98 274.788,989.555 260.907,948.561 255.507,909.574 259.148,873.072 272.278,839.426 295.208,808.901 328.101,781.653 370.952,757.739 423.587,737.122 485.66,719.689 556.654,705.261 635.894,693.614 722.557,684.499 815.689,677.656 914.227,672.837 1017.02,669.822 1122.83,668.432 1230.39,668.54 1338.41,670.082 1445.57,673.058 1550.6,677.53 1652.25,683.62 1749.33,691.502 1840.74,701.385 1925.48,713.502 2002.66,728.091 2071.54,745.379 2131.53,765.558 2182.18,788.774 2223.22,815.101 2254.56,844.538 2276.24,876.986 2288.5,912.248 2291.67,950.021 2286.24,989.897 2272.78,1031.37 2251.94,1073.82 2224.41,1116.59 2190.92,1158.9 2152.19,1199.97 2108.9,1238.95 2061.71,1275.03 2011.21,1307.37 1957.92,1335.22 1902.3,1357.86 1844.72,1374.66 1785.48,1385.12 1724.83,1388.85 1662.96,1385.58 1600,1375.19 1536.1,1357.73 1471.38,1333.35 1405.96,1302.37 1340.03,1265.23 1273.79,1222.46 1207.52,1174.71 1141.6,1122.71 1076.46,1067.23 1012.64,1009.08 950.777,949.109 891.593,888.145 835.883,827.006 784.504,766.475 738.351,707.29 698.331,650.125 665.329,595.587 640.18,544.202 623.631,496.415 616.308,452.581 618.688,412.969 631.069,377.762 653.553,347.063 686.028,320.901 728.163,299.242 779.413,282.005 839.02,269.068 906.038,260.289 979.349,255.52 1057.7,254.617 1139.72,257.454 1223.97,263.935 1308.99,273.994 1393.29,287.604 1475.47,304.77 1554.15,325.53 1628.1,349.941 1696.2,378.07 1757.51,409.981 1811.26,445.719 1856.87,485.293 1893.96,528.661 1922.35,575.718 1942.05,626.28 1953.23,680.075 1956.24,736.735 1951.55,795.796 1939.74,856.69 1921.45,918.756 1897.4,981.245 1868.32,1043.33 1834.91,1104.12 1797.87,1162.69 1757.84,1218.08 1715.39,1269.34 1671.05,1315.56 1625.23,1355.86 1578.3,1389.46 1530.54,1415.69 1482.16,1433.99 1433.33,1443.96 1384.18,1445.37 1334.79,1438.14 1285.28,1422.38 1235.73,1398.34 1186.26,1366.47 1137.04,1327.32 1088.27,1281.58 1040.25,1230.05 993.315,1173.59 947.891,1113.13 904.483,1049.6 863.663,983.946 826.067,917.093 792.379,849.92 763.314,783.251 739.59,717.836 721.91,654.347 710.925,593.364 707.213,535.375 711.244,480.778 723.359,429.876 743.741,382.889 772.402,339.959 809.166,301.16 853.662,266.509 905.327,235.982 963.411,209.523 1026.99,187.063 1094.99,168.53 1166.19,153.859 1239.31,143.007 1312.96,135.955 1385.75,132.715 1456.29,133.328 1523.24,137.865 1585.34,146.418 1641.45,159.093 1690.56,176.003 1731.85,197.25 1764.69,222.92 1788.64,253.064 1803.48,287.691 1809.2,326.759 1805.96,370.16 1794.13,417.719 1774.22,469.187 1746.87,524.24 1712.83,582.474 1672.91,643.413 1627.97,706.504 1578.84,771.128 1526.36,836.605 1471.32,902.202 1414.44,967.142 1356.34,1030.62 1297.59,1091.81 1238.64,1149.89 1179.84,1204.07 1121.49,1253.56 1063.78,1297.67 1006.86,1335.76 950.813,1367.3 895.702,1391.85 841.572,1409.12 788.47,1418.95 736.464,1421.33 685.658,1416.39 636.204,1404.39 588.316,1385.75 542.279,1360.99 498.453,1330.75 457.275,1295.76 419.257,1256.79 384.977,1214.68 355.073,1170.26 330.219,1124.36 311.115,1077.79 298.457,1031.29 292.92,985.558 295.123,941.182 305.613,898.675 324.831,858.449 353.099,820.813 390.593,785.979 437.334,754.066 493.173,725.108 557.792,699.068 630.699,675.856 711.236,655.341 798.587,637.37 891.793,621.789 989.765,608.455 1091.31,597.256 1195.15,588.121 1299.94,581.029 1404.31,576.014 1506.86,573.168 1606.22,572.636 1701.08,574.609 1790.17,579.313 1872.35,586.994 1946.58,597.903 2011.99,612.274 2067.87,630.31 2113.7,652.161 2149.13,677.907 2174.02,707.544 2188.44,740.974 2192.61,777.991 2186.93,818.284 2171.94,861.429 2148.31,906.898 2116.79,954.064 2078.16,1002.21 2033.28,1050.56 1982.96,1098.26 1928,1144.44 1869.17,1188.21 1807.14,1228.7 1742.53,1265.07 1675.88,1296.55 1607.64,1322.43 1538.19,1342.14 1467.85,1355.2 1396.88,1361.29 1325.52,1360.23 1253.98,1351.99 1182.49,1336.7 1111.29,1314.64 1040.67,1286.23 970.958,1252.02 902.581,1212.67 836.029,1168.93 771.881,1121.61 710.798,1071.58 653.521,1019.73 600.855,966.944 553.654,914.084 512.795,861.972 479.154,811.367 453.57,762.953 436.82,717.323 429.576,674.972 432.385,636.293 445.632,601.57 469.525,570.985 504.072,544.623 549.073,522.478 604.121,504.469 668.602,490.455 741.708,480.25 822.459,473.642 909.72,470.41 1002.23,470.343 1098.63,473.253 1197.51,478.988 1297.42,487.438 1396.89,498.543 1494.53,512.294 1588.96,528.722 1678.94,547.898 1763.31,569.918 1841.06,594.888 1911.34,622.909 1973.47,654.059 2026.95,688.378 2071.46,725.846 2106.87,766.376 2133.22,809.794 2150.71,855.833 2159.71,904.131 2160.67,954.221 2154.18,1005.54 2140.87,1057.44 2121.46,1109.18 2096.63,1159.96 2067.11,1208.93 2033.57,1255.22 1996.63,1297.95 1956.88,1336.26 1914.8,1369.33 1870.82,1396.43 1825.28,1416.91 1778.45,1430.24 1730.52,1436.01 1681.64,1433.97 1631.89,1424.02 1581.34,1406.2 1530.01,1380.72 1477.96,1347.93 1425.24,1308.3 1371.94,1262.41 1318.19,1210.97 1264.19,1154.73 1210.23,1094.51 1156.64,1031.15 1103.88,965.517 1052.47,898.453 1003.03,830.79 956.225,763.315 912.809,696.765 873.556,631.817 839.258,569.081 810.696,509.091 788.609,452.306 773.662,399.105 766.42,349.79 767.317,304.587 776.634,263.652 794.474,227.075 820.753,194.888 855.19,167.075 897.305,143.585 946.429,124.339 1001.71,109.245 1062.15,98.2083 1126.59,91.1419 1193.81,87.9763 1262.48,88.6656 1331.25,93.1917 1398.78,101.566 1463.76,113.827 1524.96,130.036 1581.25,150.271 1631.65,174.615 1675.3,203.147 1711.56,235.929 1739.97,272.992 1760.24,314.328 1772.28,359.874 1776.21,409.504 1772.28,463.02 1760.9,520.146 1742.61,580.522 1718.04,643.705 1687.88,709.163 1652.87,776.285 1613.74,844.379 1571.21,912.685 1525.99,980.384 1478.69,1046.61 1429.87,1110.46 1380.03,1171.04 1329.55,1227.44 1278.78,1278.79 1227.96,1324.29 1177.27,1363.21 1126.85,1394.91 1076.79,1418.89 1027.17,1434.78 978.05,1442.37 929.504,1441.61 881.632,1432.61 834.577,1415.65 788.534,1391.15 743.764,1359.68 700.601,1321.93 659.458,1278.69 620.825,1230.8 585.263,1179.18 553.403,1124.75 525.922,1068.43 503.535,1011.11 486.964,953.637 476.922,896.787 474.077,841.253 479.029,787.636 492.28,736.438 514.208,688.061 545.043,642.807 584.844,600.886 633.493,562.422 690.675,527.468 755.884,496.019 828.424,468.029 907.414,443.427 991.81,422.134 1080.42,404.078 1171.94,389.208 1264.97,377.506 1358.03,368.99 1449.65,363.723 1538.36,361.806 1622.71,363.379 1701.36,368.607 1773.09,377.671 1836.79,390.756 1891.57,408.028 1936.69,429.625 1971.66,455.635 1996.17,486.086 2010.16,520.928 2013.75,560.026 2007.28,603.153 1991.24,649.984 1966.3,700.094 1933.2,752.965 1892.79,807.99 1845.97,864.48 1793.63,921.679 1736.67,978.776 1675.94,1034.92 1612.23,1089.25 1546.23,1140.89 1478.59,1189 1409.81,1232.78 1340.37,1271.49 1270.61,1304.48 1200.84,1331.21 1131.29,1351.25 1062.17,1364.31 993.672,1370.25 925.973,1369.08 859.279,1360.96 793.831,1346.18 729.92,1325.18 667.901,1298.53 608.201,1266.89 551.323,1231.01 497.846,1191.7 448.417,1149.82 403.744,1106.23 364.576,1061.78 331.686,1017.29 305.844,973.529 287.794,931.193 278.222,890.887 277.73,853.122 286.809,818.301 305.816,786.718 334.956,758.558 374.263,733.904 423.596,712.741 482.634,694.973 550.882,680.434 627.674,668.908 712.192,660.148 803.48,653.892 900.463,649.885 1001.97,647.894 1106.76,647.725 1213.54,649.232 1320.99,652.328 1427.79,656.99 1532.63,663.256 1634.25,671.222 1731.47,681.034 1823.16,692.878 1908.32,706.962 1986.07,723.502 2055.67,742.7 2116.51,764.731 2168.18,789.721 2210.39,817.731 2243.06,848.744 2266.25,882.652 2280.17,919.248 2285.18,958.22 2281.75,999.157 2270.45,1041.54 2251.91,1084.77 2226.83,1128.16 2195.92,1170.96 2159.88,1212.36 2119.4,1251.54 2075.1,1287.68 2027.57,1319.96 1977.32,1347.6 1924.78,1369.93 1870.31,1386.31 1814.21,1396.24 1756.7,1399.35 1697.94,1395.37 1638.07,1384.21 1577.18,1365.9 1515.37,1340.61 1452.75,1308.67 1389.45,1270.51 1325.63,1226.67 1261.55,1177.8 1197.5,1124.62 1133.9,1067.89 1071.22,1008.43 1010.05,947.068 951.067,884.624 895.026,821.908 842.749,759.695 795.106,698.715 752.993,639.642 717.296,583.081 688.865,529.564 668.478,479.542 656.807,433.386 654.389,391.38 661.596,353.727 678.612,320.554 705.415,291.913 741.769,267.796 787.223,248.143 841.113,232.857 902.578,221.813 970.58,214.877 1043.93,211.917 1121.31,212.812 1201.34,217.469 1282.56,225.822 1363.52,237.839 1442.79,253.524 1519,272.907 1590.88,296.043 1657.3,322.999 1717.26,353.842 1769.95,388.624 1814.75,427.366 1851.22,470.045 1879.15,516.581 1898.48,566.817 1909.36,620.517 1912.09,677.351 1907.11,736.893 1894.98,798.619 1876.34,861.908 1851.88,926.05 1822.33,990.25 1788.4,1053.64 1750.79,1115.32 1710.16,1174.33 1667.1,1229.71 1622.13,1280.53 1575.71,1325.88 1528.2,1364.92 1479.91,1396.91 1431.07,1421.22 1381.86,1437.38 1332.42,1445.04 1282.85,1444.03 1233.25,1434.38 1183.72,1416.24 1134.4,1389.96 1085.43,1356.05 1037.03,1315.12 989.477,1267.92 943.115,1215.3 898.365,1158.15 855.723,1097.41 815.758,1034.04 779.104,968.992 746.442,903.165 718.485,837.423 695.956,772.562 679.561,709.292 669.959,648.241 667.736,589.937 673.376,534.817 687.229,483.218 709.495,435.392 740.198,391.505 779.176,351.651 826.071,315.863 880.328,284.126 941.203,256.394 1007.77,232.601 1078.96,212.677 1153.55,196.56 1230.21,184.207 1307.57,175.6 1384.19,170.755 1458.64,169.717 1529.56,172.562 1595.61,179.391 1655.62,190.321 1708.53,205.473 1753.46,224.965 "/>
<path clip-path="url(#clip070)" d="M2012.55 198.898 L2280.81 198.898 L2280.81 95.2176 L2012.55 95.2176  Z" fill="#ffffff" fill-rule="evenodd" fill-opacity="1"/>
<polyline clip-path="url(#clip070)" style="stroke:#000000; stroke-linecap:round; stroke-linejoin:round; stroke-width:4; stroke-opacity:1; fill:none" points="2012.55,198.898 2280.81,198.898 2280.81,95.2176 2012.55,95.2176 2012.55,198.898 "/>
<polyline clip-path="url(#clip070)" style="stroke:#009af9; stroke-linecap:round; stroke-linejoin:round; stroke-width:4; stroke-opacity:1; fill:none" points="2036.53,147.058 2180.42,147.058 "/>
<path clip-path="url(#clip070)" d="M2218.24 166.745 Q2216.44 171.375 2214.72 172.787 Q2213.01 174.199 2210.14 174.199 L2206.74 174.199 L2206.74 170.634 L2209.24 170.634 Q2211 170.634 2211.97 169.8 Q2212.94 168.967 2214.12 165.865 L2214.89 163.921 L2204.4 138.412 L2208.91 138.412 L2217.02 158.689 L2225.12 138.412 L2229.63 138.412 L2218.24 166.745 Z" fill="#000000" fill-rule="nonzero" fill-opacity="1" /><path clip-path="url(#clip070)" d="M2236.92 160.402 L2244.56 160.402 L2244.56 134.037 L2236.25 135.703 L2236.25 131.444 L2244.52 129.778 L2249.19 129.778 L2249.19 160.402 L2256.83 160.402 L2256.83 164.338 L2236.92 164.338 L2236.92 160.402 Z" fill="#000000" fill-rule="nonzero" fill-opacity="1" /></svg>
