<?xml version="1.0" encoding="utf-8"?>
<svg xmlns="http://www.w3.org/2000/svg" xmlns:xlink="http://www.w3.org/1999/xlink" width="600" height="400" viewBox="0 0 2400 1600">
<defs>
  <clipPath id="clip160">
    <rect x="0" y="0" width="2400" height="1600"/>
  </clipPath>
</defs>
<path clip-path="url(#clip160)" d="M0 1600 L2400 1600 L2400 0 L0 0  Z" fill="#ffffff" fill-rule="evenodd" fill-opacity="1"/>
<defs>
  <clipPath id="clip161">
    <rect x="480" y="0" width="1681" height="1600"/>
  </clipPath>
</defs>
<path clip-path="url(#clip160)" d="M318.014 1423.18 L2352.76 1423.18 L2352.76 47.2441 L318.014 47.2441  Z" fill="#ffffff" fill-rule="evenodd" fill-opacity="1"/>
<defs>
  <clipPath id="clip162">
    <rect x="318" y="47" width="2036" height="1377"/>
  </clipPath>
</defs>
<polyline clip-path="url(#clip162)" style="stroke:#000000; stroke-linecap:round; stroke-linejoin:round; stroke-width:2; stroke-opacity:0.1; fill:none" points="375.601,1423.18 375.601,47.2441 "/>
<polyline clip-path="url(#clip162)" style="stroke:#000000; stroke-linecap:round; stroke-linejoin:round; stroke-width:2; stroke-opacity:0.1; fill:none" points="855.493,1423.18 855.493,47.2441 "/>
<polyline clip-path="url(#clip162)" style="stroke:#000000; stroke-linecap:round; stroke-linejoin:round; stroke-width:2; stroke-opacity:0.1; fill:none" points="1335.38,1423.18 1335.38,47.2441 "/>
<polyline clip-path="url(#clip162)" style="stroke:#000000; stroke-linecap:round; stroke-linejoin:round; stroke-width:2; stroke-opacity:0.1; fill:none" points="1815.28,1423.18 1815.28,47.2441 "/>
<polyline clip-path="url(#clip162)" style="stroke:#000000; stroke-linecap:round; stroke-linejoin:round; stroke-width:2; stroke-opacity:0.1; fill:none" points="2295.17,1423.18 2295.17,47.2441 "/>
<polyline clip-path="url(#clip162)" style="stroke:#000000; stroke-linecap:round; stroke-linejoin:round; stroke-width:2; stroke-opacity:0.1; fill:none" points="318.014,1232.95 2352.76,1232.95 "/>
<polyline clip-path="url(#clip162)" style="stroke:#000000; stroke-linecap:round; stroke-linejoin:round; stroke-width:2; stroke-opacity:0.1; fill:none" points="318.014,984.079 2352.76,984.079 "/>
<polyline clip-path="url(#clip162)" style="stroke:#000000; stroke-linecap:round; stroke-linejoin:round; stroke-width:2; stroke-opacity:0.1; fill:none" points="318.014,735.212 2352.76,735.212 "/>
<polyline clip-path="url(#clip162)" style="stroke:#000000; stroke-linecap:round; stroke-linejoin:round; stroke-width:2; stroke-opacity:0.1; fill:none" points="318.014,486.345 2352.76,486.345 "/>
<polyline clip-path="url(#clip162)" style="stroke:#000000; stroke-linecap:round; stroke-linejoin:round; stroke-width:2; stroke-opacity:0.1; fill:none" points="318.014,237.478 2352.76,237.478 "/>
<polyline clip-path="url(#clip160)" style="stroke:#000000; stroke-linecap:round; stroke-linejoin:round; stroke-width:4; stroke-opacity:1; fill:none" points="318.014,1423.18 2352.76,1423.18 "/>
<polyline clip-path="url(#clip160)" style="stroke:#000000; stroke-linecap:round; stroke-linejoin:round; stroke-width:4; stroke-opacity:1; fill:none" points="375.601,1423.18 375.601,1404.28 "/>
<polyline clip-path="url(#clip160)" style="stroke:#000000; stroke-linecap:round; stroke-linejoin:round; stroke-width:4; stroke-opacity:1; fill:none" points="855.493,1423.18 855.493,1404.28 "/>
<polyline clip-path="url(#clip160)" style="stroke:#000000; stroke-linecap:round; stroke-linejoin:round; stroke-width:4; stroke-opacity:1; fill:none" points="1335.38,1423.18 1335.38,1404.28 "/>
<polyline clip-path="url(#clip160)" style="stroke:#000000; stroke-linecap:round; stroke-linejoin:round; stroke-width:4; stroke-opacity:1; fill:none" points="1815.28,1423.18 1815.28,1404.28 "/>
<polyline clip-path="url(#clip160)" style="stroke:#000000; stroke-linecap:round; stroke-linejoin:round; stroke-width:4; stroke-opacity:1; fill:none" points="2295.17,1423.18 2295.17,1404.28 "/>
<path clip-path="url(#clip160)" d="M375.601 1454.1 Q371.99 1454.1 370.161 1457.66 Q368.356 1461.2 368.356 1468.33 Q368.356 1475.44 370.161 1479.01 Q371.99 1482.55 375.601 1482.55 Q379.235 1482.55 381.041 1479.01 Q382.869 1475.44 382.869 1468.33 Q382.869 1461.2 381.041 1457.66 Q379.235 1454.1 375.601 1454.1 M375.601 1450.39 Q381.411 1450.39 384.467 1455 Q387.545 1459.58 387.545 1468.33 Q387.545 1477.06 384.467 1481.67 Q381.411 1486.25 375.601 1486.25 Q369.791 1486.25 366.712 1481.67 Q363.657 1477.06 363.657 1468.33 Q363.657 1459.58 366.712 1455 Q369.791 1450.39 375.601 1450.39 Z" fill="#000000" fill-rule="nonzero" fill-opacity="1" /><path clip-path="url(#clip160)" d="M845.771 1451.02 L864.127 1451.02 L864.127 1454.96 L850.053 1454.96 L850.053 1463.43 Q851.072 1463.08 852.09 1462.92 Q853.109 1462.73 854.127 1462.73 Q859.914 1462.73 863.294 1465.9 Q866.673 1469.08 866.673 1474.49 Q866.673 1480.07 863.201 1483.17 Q859.729 1486.25 853.41 1486.25 Q851.234 1486.25 848.965 1485.88 Q846.72 1485.51 844.312 1484.77 L844.312 1480.07 Q846.396 1481.2 848.618 1481.76 Q850.84 1482.32 853.317 1482.32 Q857.322 1482.32 859.66 1480.21 Q861.998 1478.1 861.998 1474.49 Q861.998 1470.88 859.66 1468.77 Q857.322 1466.67 853.317 1466.67 Q851.442 1466.67 849.567 1467.08 Q847.715 1467.5 845.771 1468.38 L845.771 1451.02 Z" fill="#000000" fill-rule="nonzero" fill-opacity="1" /><path clip-path="url(#clip160)" d="M1310.07 1481.64 L1317.71 1481.64 L1317.71 1455.28 L1309.4 1456.95 L1309.4 1452.69 L1317.67 1451.02 L1322.34 1451.02 L1322.34 1481.64 L1329.98 1481.64 L1329.98 1485.58 L1310.07 1485.58 L1310.07 1481.64 Z" fill="#000000" fill-rule="nonzero" fill-opacity="1" /><path clip-path="url(#clip160)" d="M1349.42 1454.1 Q1345.81 1454.1 1343.98 1457.66 Q1342.18 1461.2 1342.18 1468.33 Q1342.18 1475.44 1343.98 1479.01 Q1345.81 1482.55 1349.42 1482.55 Q1353.06 1482.55 1354.86 1479.01 Q1356.69 1475.44 1356.69 1468.33 Q1356.69 1461.2 1354.86 1457.66 Q1353.06 1454.1 1349.42 1454.1 M1349.42 1450.39 Q1355.23 1450.39 1358.29 1455 Q1361.37 1459.58 1361.37 1468.33 Q1361.37 1477.06 1358.29 1481.67 Q1355.23 1486.25 1349.42 1486.25 Q1343.61 1486.25 1340.54 1481.67 Q1337.48 1477.06 1337.48 1468.33 Q1337.48 1459.58 1340.54 1455 Q1343.61 1450.39 1349.42 1450.39 Z" fill="#000000" fill-rule="nonzero" fill-opacity="1" /><path clip-path="url(#clip160)" d="M1790.46 1481.64 L1798.1 1481.64 L1798.1 1455.28 L1789.79 1456.95 L1789.79 1452.69 L1798.05 1451.02 L1802.73 1451.02 L1802.73 1481.64 L1810.37 1481.64 L1810.37 1485.58 L1790.46 1485.58 L1790.46 1481.64 Z" fill="#000000" fill-rule="nonzero" fill-opacity="1" /><path clip-path="url(#clip160)" d="M1819.86 1451.02 L1838.22 1451.02 L1838.22 1454.96 L1824.14 1454.96 L1824.14 1463.43 Q1825.16 1463.08 1826.18 1462.92 Q1827.2 1462.73 1828.22 1462.73 Q1834 1462.73 1837.38 1465.9 Q1840.76 1469.08 1840.76 1474.49 Q1840.76 1480.07 1837.29 1483.17 Q1833.82 1486.25 1827.5 1486.25 Q1825.32 1486.25 1823.05 1485.88 Q1820.81 1485.51 1818.4 1484.77 L1818.4 1480.07 Q1820.49 1481.2 1822.71 1481.76 Q1824.93 1482.32 1827.41 1482.32 Q1831.41 1482.32 1833.75 1480.21 Q1836.09 1478.1 1836.09 1474.49 Q1836.09 1470.88 1833.75 1468.77 Q1831.41 1466.67 1827.41 1466.67 Q1825.53 1466.67 1823.66 1467.08 Q1821.8 1467.5 1819.86 1468.38 L1819.86 1451.02 Z" fill="#000000" fill-rule="nonzero" fill-opacity="1" /><path clip-path="url(#clip160)" d="M2273.94 1481.64 L2290.26 1481.64 L2290.26 1485.58 L2268.32 1485.58 L2268.32 1481.64 Q2270.98 1478.89 2275.56 1474.26 Q2280.17 1469.61 2281.35 1468.27 Q2283.59 1465.74 2284.47 1464.01 Q2285.38 1462.25 2285.38 1460.56 Q2285.38 1457.8 2283.43 1456.07 Q2281.51 1454.33 2278.41 1454.33 Q2276.21 1454.33 2273.76 1455.09 Q2271.33 1455.86 2268.55 1457.41 L2268.55 1452.69 Q2271.37 1451.55 2273.83 1450.97 Q2276.28 1450.39 2278.32 1450.39 Q2283.69 1450.39 2286.88 1453.08 Q2290.08 1455.77 2290.08 1460.26 Q2290.08 1462.39 2289.27 1464.31 Q2288.48 1466.2 2286.37 1468.8 Q2285.79 1469.47 2282.69 1472.69 Q2279.59 1475.88 2273.94 1481.64 Z" fill="#000000" fill-rule="nonzero" fill-opacity="1" /><path clip-path="url(#clip160)" d="M2310.08 1454.1 Q2306.47 1454.1 2304.64 1457.66 Q2302.83 1461.2 2302.83 1468.33 Q2302.83 1475.44 2304.64 1479.01 Q2306.47 1482.55 2310.08 1482.55 Q2313.71 1482.55 2315.52 1479.01 Q2317.34 1475.44 2317.34 1468.33 Q2317.34 1461.2 2315.52 1457.66 Q2313.71 1454.1 2310.08 1454.1 M2310.08 1450.39 Q2315.89 1450.39 2318.94 1455 Q2322.02 1459.58 2322.02 1468.33 Q2322.02 1477.06 2318.94 1481.67 Q2315.89 1486.25 2310.08 1486.25 Q2304.27 1486.25 2301.19 1481.67 Q2298.13 1477.06 2298.13 1468.33 Q2298.13 1459.58 2301.19 1455 Q2304.27 1450.39 2310.08 1450.39 Z" fill="#000000" fill-rule="nonzero" fill-opacity="1" /><path clip-path="url(#clip160)" d="M1334.45 1522.27 L1334.45 1532.4 L1346.51 1532.4 L1346.51 1536.95 L1334.45 1536.95 L1334.45 1556.3 Q1334.45 1560.66 1335.62 1561.9 Q1336.83 1563.14 1340.49 1563.14 L1346.51 1563.14 L1346.51 1568.04 L1340.49 1568.04 Q1333.71 1568.04 1331.14 1565.53 Q1328.56 1562.98 1328.56 1556.3 L1328.56 1536.95 L1324.26 1536.95 L1324.26 1532.4 L1328.56 1532.4 L1328.56 1522.27 L1334.45 1522.27 Z" fill="#000000" fill-rule="nonzero" fill-opacity="1" /><polyline clip-path="url(#clip160)" style="stroke:#000000; stroke-linecap:round; stroke-linejoin:round; stroke-width:4; stroke-opacity:1; fill:none" points="318.014,1423.18 318.014,47.2441 "/>
<polyline clip-path="url(#clip160)" style="stroke:#000000; stroke-linecap:round; stroke-linejoin:round; stroke-width:4; stroke-opacity:1; fill:none" points="318.014,1232.95 336.912,1232.95 "/>
<polyline clip-path="url(#clip160)" style="stroke:#000000; stroke-linecap:round; stroke-linejoin:round; stroke-width:4; stroke-opacity:1; fill:none" points="318.014,984.079 336.912,984.079 "/>
<polyline clip-path="url(#clip160)" style="stroke:#000000; stroke-linecap:round; stroke-linejoin:round; stroke-width:4; stroke-opacity:1; fill:none" points="318.014,735.212 336.912,735.212 "/>
<polyline clip-path="url(#clip160)" style="stroke:#000000; stroke-linecap:round; stroke-linejoin:round; stroke-width:4; stroke-opacity:1; fill:none" points="318.014,486.345 336.912,486.345 "/>
<polyline clip-path="url(#clip160)" style="stroke:#000000; stroke-linecap:round; stroke-linejoin:round; stroke-width:4; stroke-opacity:1; fill:none" points="318.014,237.478 336.912,237.478 "/>
<path clip-path="url(#clip160)" d="M114.26 1233.4 L143.936 1233.4 L143.936 1237.33 L114.26 1237.33 L114.26 1233.4 Z" fill="#000000" fill-rule="nonzero" fill-opacity="1" /><path clip-path="url(#clip160)" d="M164.028 1218.74 Q160.417 1218.74 158.589 1222.31 Q156.783 1225.85 156.783 1232.98 Q156.783 1240.09 158.589 1243.65 Q160.417 1247.19 164.028 1247.19 Q167.663 1247.19 169.468 1243.65 Q171.297 1240.09 171.297 1232.98 Q171.297 1225.85 169.468 1222.31 Q167.663 1218.74 164.028 1218.74 M164.028 1215.04 Q169.839 1215.04 172.894 1219.65 Q175.973 1224.23 175.973 1232.98 Q175.973 1241.71 172.894 1246.31 Q169.839 1250.9 164.028 1250.9 Q158.218 1250.9 155.14 1246.31 Q152.084 1241.71 152.084 1232.98 Q152.084 1224.23 155.14 1219.65 Q158.218 1215.04 164.028 1215.04 Z" fill="#000000" fill-rule="nonzero" fill-opacity="1" /><path clip-path="url(#clip160)" d="M184.19 1244.35 L189.075 1244.35 L189.075 1250.23 L184.19 1250.23 L184.19 1244.35 Z" fill="#000000" fill-rule="nonzero" fill-opacity="1" /><path clip-path="url(#clip160)" d="M209.26 1218.74 Q205.649 1218.74 203.82 1222.31 Q202.014 1225.85 202.014 1232.98 Q202.014 1240.09 203.82 1243.65 Q205.649 1247.19 209.26 1247.19 Q212.894 1247.19 214.699 1243.65 Q216.528 1240.09 216.528 1232.98 Q216.528 1225.85 214.699 1222.31 Q212.894 1218.74 209.26 1218.74 M209.26 1215.04 Q215.07 1215.04 218.125 1219.65 Q221.204 1224.23 221.204 1232.98 Q221.204 1241.71 218.125 1246.31 Q215.07 1250.9 209.26 1250.9 Q203.449 1250.9 200.371 1246.31 Q197.315 1241.71 197.315 1232.98 Q197.315 1224.23 200.371 1219.65 Q203.449 1215.04 209.26 1215.04 Z" fill="#000000" fill-rule="nonzero" fill-opacity="1" /><path clip-path="url(#clip160)" d="M239.422 1218.74 Q235.81 1218.74 233.982 1222.31 Q232.176 1225.85 232.176 1232.98 Q232.176 1240.09 233.982 1243.65 Q235.81 1247.19 239.422 1247.19 Q243.056 1247.19 244.861 1243.65 Q246.69 1240.09 246.69 1232.98 Q246.69 1225.85 244.861 1222.31 Q243.056 1218.74 239.422 1218.74 M239.422 1215.04 Q245.232 1215.04 248.287 1219.65 Q251.366 1224.23 251.366 1232.98 Q251.366 1241.71 248.287 1246.31 Q245.232 1250.9 239.422 1250.9 Q233.611 1250.9 230.533 1246.31 Q227.477 1241.71 227.477 1232.98 Q227.477 1224.23 230.533 1219.65 Q233.611 1215.04 239.422 1215.04 Z" fill="#000000" fill-rule="nonzero" fill-opacity="1" /><path clip-path="url(#clip160)" d="M272.431 1219.74 L260.625 1238.19 L272.431 1238.19 L272.431 1219.74 M271.204 1215.67 L277.083 1215.67 L277.083 1238.19 L282.014 1238.19 L282.014 1242.08 L277.083 1242.08 L277.083 1250.23 L272.431 1250.23 L272.431 1242.08 L256.829 1242.08 L256.829 1237.56 L271.204 1215.67 Z" fill="#000000" fill-rule="nonzero" fill-opacity="1" /><path clip-path="url(#clip160)" d="M116.343 984.53 L146.019 984.53 L146.019 988.465 L116.343 988.465 L116.343 984.53 Z" fill="#000000" fill-rule="nonzero" fill-opacity="1" /><path clip-path="url(#clip160)" d="M166.112 969.877 Q162.501 969.877 160.672 973.442 Q158.866 976.984 158.866 984.113 Q158.866 991.22 160.672 994.785 Q162.501 998.326 166.112 998.326 Q169.746 998.326 171.552 994.785 Q173.38 991.22 173.38 984.113 Q173.38 976.984 171.552 973.442 Q169.746 969.877 166.112 969.877 M166.112 966.174 Q171.922 966.174 174.977 970.78 Q178.056 975.364 178.056 984.113 Q178.056 992.84 174.977 997.447 Q171.922 1002.03 166.112 1002.03 Q160.302 1002.03 157.223 997.447 Q154.167 992.84 154.167 984.113 Q154.167 975.364 157.223 970.78 Q160.302 966.174 166.112 966.174 Z" fill="#000000" fill-rule="nonzero" fill-opacity="1" /><path clip-path="url(#clip160)" d="M186.274 995.479 L191.158 995.479 L191.158 1001.36 L186.274 1001.36 L186.274 995.479 Z" fill="#000000" fill-rule="nonzero" fill-opacity="1" /><path clip-path="url(#clip160)" d="M211.343 969.877 Q207.732 969.877 205.903 973.442 Q204.098 976.984 204.098 984.113 Q204.098 991.22 205.903 994.785 Q207.732 998.326 211.343 998.326 Q214.977 998.326 216.783 994.785 Q218.611 991.22 218.611 984.113 Q218.611 976.984 216.783 973.442 Q214.977 969.877 211.343 969.877 M211.343 966.174 Q217.153 966.174 220.209 970.78 Q223.287 975.364 223.287 984.113 Q223.287 992.84 220.209 997.447 Q217.153 1002.03 211.343 1002.03 Q205.533 1002.03 202.454 997.447 Q199.399 992.84 199.399 984.113 Q199.399 975.364 202.454 970.78 Q205.533 966.174 211.343 966.174 Z" fill="#000000" fill-rule="nonzero" fill-opacity="1" /><path clip-path="url(#clip160)" d="M241.505 969.877 Q237.894 969.877 236.065 973.442 Q234.26 976.984 234.26 984.113 Q234.26 991.22 236.065 994.785 Q237.894 998.326 241.505 998.326 Q245.139 998.326 246.945 994.785 Q248.773 991.22 248.773 984.113 Q248.773 976.984 246.945 973.442 Q245.139 969.877 241.505 969.877 M241.505 966.174 Q247.315 966.174 250.371 970.78 Q253.449 975.364 253.449 984.113 Q253.449 992.84 250.371 997.447 Q247.315 1002.03 241.505 1002.03 Q235.695 1002.03 232.616 997.447 Q229.56 992.84 229.56 984.113 Q229.56 975.364 232.616 970.78 Q235.695 966.174 241.505 966.174 Z" fill="#000000" fill-rule="nonzero" fill-opacity="1" /><path clip-path="url(#clip160)" d="M265.695 997.424 L282.014 997.424 L282.014 1001.36 L260.07 1001.36 L260.07 997.424 Q262.732 994.669 267.315 990.039 Q271.921 985.387 273.102 984.044 Q275.347 981.521 276.227 979.785 Q277.13 978.026 277.13 976.336 Q277.13 973.581 275.185 971.845 Q273.264 970.109 270.162 970.109 Q267.963 970.109 265.509 970.873 Q263.079 971.637 260.301 973.188 L260.301 968.465 Q263.125 967.331 265.579 966.752 Q268.032 966.174 270.07 966.174 Q275.44 966.174 278.634 968.859 Q281.829 971.544 281.829 976.035 Q281.829 978.164 281.019 980.086 Q280.231 981.984 278.125 984.576 Q277.546 985.248 274.444 988.465 Q271.343 991.66 265.695 997.424 Z" fill="#000000" fill-rule="nonzero" fill-opacity="1" /><path clip-path="url(#clip160)" d="M164.515 721.011 Q160.903 721.011 159.075 724.575 Q157.269 728.117 157.269 735.247 Q157.269 742.353 159.075 745.918 Q160.903 749.46 164.515 749.46 Q168.149 749.46 169.954 745.918 Q171.783 742.353 171.783 735.247 Q171.783 728.117 169.954 724.575 Q168.149 721.011 164.515 721.011 M164.515 717.307 Q170.325 717.307 173.38 721.913 Q176.459 726.497 176.459 735.247 Q176.459 743.973 173.38 748.58 Q170.325 753.163 164.515 753.163 Q158.704 753.163 155.626 748.58 Q152.57 743.973 152.57 735.247 Q152.57 726.497 155.626 721.913 Q158.704 717.307 164.515 717.307 Z" fill="#000000" fill-rule="nonzero" fill-opacity="1" /><path clip-path="url(#clip160)" d="M184.676 746.612 L189.561 746.612 L189.561 752.492 L184.676 752.492 L184.676 746.612 Z" fill="#000000" fill-rule="nonzero" fill-opacity="1" /><path clip-path="url(#clip160)" d="M209.746 721.011 Q206.135 721.011 204.306 724.575 Q202.5 728.117 202.5 735.247 Q202.5 742.353 204.306 745.918 Q206.135 749.46 209.746 749.46 Q213.38 749.46 215.186 745.918 Q217.014 742.353 217.014 735.247 Q217.014 728.117 215.186 724.575 Q213.38 721.011 209.746 721.011 M209.746 717.307 Q215.556 717.307 218.611 721.913 Q221.69 726.497 221.69 735.247 Q221.69 743.973 218.611 748.58 Q215.556 753.163 209.746 753.163 Q203.936 753.163 200.857 748.58 Q197.801 743.973 197.801 735.247 Q197.801 726.497 200.857 721.913 Q203.936 717.307 209.746 717.307 Z" fill="#000000" fill-rule="nonzero" fill-opacity="1" /><path clip-path="url(#clip160)" d="M239.908 721.011 Q236.297 721.011 234.468 724.575 Q232.662 728.117 232.662 735.247 Q232.662 742.353 234.468 745.918 Q236.297 749.46 239.908 749.46 Q243.542 749.46 245.347 745.918 Q247.176 742.353 247.176 735.247 Q247.176 728.117 245.347 724.575 Q243.542 721.011 239.908 721.011 M239.908 717.307 Q245.718 717.307 248.773 721.913 Q251.852 726.497 251.852 735.247 Q251.852 743.973 248.773 748.58 Q245.718 753.163 239.908 753.163 Q234.097 753.163 231.019 748.58 Q227.963 743.973 227.963 735.247 Q227.963 726.497 231.019 721.913 Q234.097 717.307 239.908 717.307 Z" fill="#000000" fill-rule="nonzero" fill-opacity="1" /><path clip-path="url(#clip160)" d="M270.07 721.011 Q266.458 721.011 264.63 724.575 Q262.824 728.117 262.824 735.247 Q262.824 742.353 264.63 745.918 Q266.458 749.46 270.07 749.46 Q273.704 749.46 275.509 745.918 Q277.338 742.353 277.338 735.247 Q277.338 728.117 275.509 724.575 Q273.704 721.011 270.07 721.011 M270.07 717.307 Q275.88 717.307 278.935 721.913 Q282.014 726.497 282.014 735.247 Q282.014 743.973 278.935 748.58 Q275.88 753.163 270.07 753.163 Q264.259 753.163 261.181 748.58 Q258.125 743.973 258.125 735.247 Q258.125 726.497 261.181 721.913 Q264.259 717.307 270.07 717.307 Z" fill="#000000" fill-rule="nonzero" fill-opacity="1" /><path clip-path="url(#clip160)" d="M166.112 472.144 Q162.501 472.144 160.672 475.709 Q158.866 479.25 158.866 486.38 Q158.866 493.486 160.672 497.051 Q162.501 500.593 166.112 500.593 Q169.746 500.593 171.552 497.051 Q173.38 493.486 173.38 486.38 Q173.38 479.25 171.552 475.709 Q169.746 472.144 166.112 472.144 M166.112 468.44 Q171.922 468.44 174.977 473.047 Q178.056 477.63 178.056 486.38 Q178.056 495.107 174.977 499.713 Q171.922 504.296 166.112 504.296 Q160.302 504.296 157.223 499.713 Q154.167 495.107 154.167 486.38 Q154.167 477.63 157.223 473.047 Q160.302 468.44 166.112 468.44 Z" fill="#000000" fill-rule="nonzero" fill-opacity="1" /><path clip-path="url(#clip160)" d="M186.274 497.746 L191.158 497.746 L191.158 503.625 L186.274 503.625 L186.274 497.746 Z" fill="#000000" fill-rule="nonzero" fill-opacity="1" /><path clip-path="url(#clip160)" d="M211.343 472.144 Q207.732 472.144 205.903 475.709 Q204.098 479.25 204.098 486.38 Q204.098 493.486 205.903 497.051 Q207.732 500.593 211.343 500.593 Q214.977 500.593 216.783 497.051 Q218.611 493.486 218.611 486.38 Q218.611 479.25 216.783 475.709 Q214.977 472.144 211.343 472.144 M211.343 468.44 Q217.153 468.44 220.209 473.047 Q223.287 477.63 223.287 486.38 Q223.287 495.107 220.209 499.713 Q217.153 504.296 211.343 504.296 Q205.533 504.296 202.454 499.713 Q199.399 495.107 199.399 486.38 Q199.399 477.63 202.454 473.047 Q205.533 468.44 211.343 468.44 Z" fill="#000000" fill-rule="nonzero" fill-opacity="1" /><path clip-path="url(#clip160)" d="M241.505 472.144 Q237.894 472.144 236.065 475.709 Q234.26 479.25 234.26 486.38 Q234.26 493.486 236.065 497.051 Q237.894 500.593 241.505 500.593 Q245.139 500.593 246.945 497.051 Q248.773 493.486 248.773 486.38 Q248.773 479.25 246.945 475.709 Q245.139 472.144 241.505 472.144 M241.505 468.44 Q247.315 468.44 250.371 473.047 Q253.449 477.63 253.449 486.38 Q253.449 495.107 250.371 499.713 Q247.315 504.296 241.505 504.296 Q235.695 504.296 232.616 499.713 Q229.56 495.107 229.56 486.38 Q229.56 477.63 232.616 473.047 Q235.695 468.44 241.505 468.44 Z" fill="#000000" fill-rule="nonzero" fill-opacity="1" /><path clip-path="url(#clip160)" d="M265.695 499.69 L282.014 499.69 L282.014 503.625 L260.07 503.625 L260.07 499.69 Q262.732 496.935 267.315 492.306 Q271.921 487.653 273.102 486.31 Q275.347 483.787 276.227 482.051 Q277.13 480.292 277.13 478.602 Q277.13 475.848 275.185 474.111 Q273.264 472.375 270.162 472.375 Q267.963 472.375 265.509 473.139 Q263.079 473.903 260.301 475.454 L260.301 470.732 Q263.125 469.598 265.579 469.019 Q268.032 468.44 270.07 468.44 Q275.44 468.44 278.634 471.125 Q281.829 473.811 281.829 478.301 Q281.829 480.431 281.019 482.352 Q280.231 484.25 278.125 486.843 Q277.546 487.514 274.444 490.732 Q271.343 493.926 265.695 499.69 Z" fill="#000000" fill-rule="nonzero" fill-opacity="1" /><path clip-path="url(#clip160)" d="M164.028 223.277 Q160.417 223.277 158.589 226.842 Q156.783 230.384 156.783 237.513 Q156.783 244.62 158.589 248.184 Q160.417 251.726 164.028 251.726 Q167.663 251.726 169.468 248.184 Q171.297 244.62 171.297 237.513 Q171.297 230.384 169.468 226.842 Q167.663 223.277 164.028 223.277 M164.028 219.573 Q169.839 219.573 172.894 224.18 Q175.973 228.763 175.973 237.513 Q175.973 246.24 172.894 250.846 Q169.839 255.43 164.028 255.43 Q158.218 255.43 155.14 250.846 Q152.084 246.24 152.084 237.513 Q152.084 228.763 155.14 224.18 Q158.218 219.573 164.028 219.573 Z" fill="#000000" fill-rule="nonzero" fill-opacity="1" /><path clip-path="url(#clip160)" d="M184.19 248.879 L189.075 248.879 L189.075 254.758 L184.19 254.758 L184.19 248.879 Z" fill="#000000" fill-rule="nonzero" fill-opacity="1" /><path clip-path="url(#clip160)" d="M209.26 223.277 Q205.649 223.277 203.82 226.842 Q202.014 230.384 202.014 237.513 Q202.014 244.62 203.82 248.184 Q205.649 251.726 209.26 251.726 Q212.894 251.726 214.699 248.184 Q216.528 244.62 216.528 237.513 Q216.528 230.384 214.699 226.842 Q212.894 223.277 209.26 223.277 M209.26 219.573 Q215.07 219.573 218.125 224.18 Q221.204 228.763 221.204 237.513 Q221.204 246.24 218.125 250.846 Q215.07 255.43 209.26 255.43 Q203.449 255.43 200.371 250.846 Q197.315 246.24 197.315 237.513 Q197.315 228.763 200.371 224.18 Q203.449 219.573 209.26 219.573 Z" fill="#000000" fill-rule="nonzero" fill-opacity="1" /><path clip-path="url(#clip160)" d="M239.422 223.277 Q235.81 223.277 233.982 226.842 Q232.176 230.384 232.176 237.513 Q232.176 244.62 233.982 248.184 Q235.81 251.726 239.422 251.726 Q243.056 251.726 244.861 248.184 Q246.69 244.62 246.69 237.513 Q246.69 230.384 244.861 226.842 Q243.056 223.277 239.422 223.277 M239.422 219.573 Q245.232 219.573 248.287 224.18 Q251.366 228.763 251.366 237.513 Q251.366 246.24 248.287 250.846 Q245.232 255.43 239.422 255.43 Q233.611 255.43 230.533 250.846 Q227.477 246.24 227.477 237.513 Q227.477 228.763 230.533 224.18 Q233.611 219.573 239.422 219.573 Z" fill="#000000" fill-rule="nonzero" fill-opacity="1" /><path clip-path="url(#clip160)" d="M272.431 224.272 L260.625 242.721 L272.431 242.721 L272.431 224.272 M271.204 220.198 L277.083 220.198 L277.083 242.721 L282.014 242.721 L282.014 246.61 L277.083 246.61 L277.083 254.758 L272.431 254.758 L272.431 246.61 L256.829 246.61 L256.829 242.096 L271.204 220.198 Z" fill="#000000" fill-rule="nonzero" fill-opacity="1" /><path clip-path="url(#clip160)" d="M44.7161 746.654 L47.5806 746.654 L47.5806 773.581 Q53.6281 773.199 56.8109 769.953 Q59.9619 766.674 59.9619 760.85 Q59.9619 757.476 59.1344 754.325 Q58.3069 751.142 56.6518 748.023 L62.1899 748.023 Q63.5267 751.174 64.227 754.484 Q64.9272 757.794 64.9272 761.2 Q64.9272 769.73 59.9619 774.727 Q54.9967 779.692 46.5303 779.692 Q37.7774 779.692 32.6531 774.982 Q27.4968 770.239 27.4968 762.218 Q27.4968 755.025 32.1438 750.856 Q36.7589 746.654 44.7161 746.654 M42.9973 752.511 Q38.1912 752.574 35.3266 755.216 Q32.4621 757.826 32.4621 762.155 Q32.4621 767.056 35.2312 770.016 Q38.0002 772.945 43.0292 773.39 L42.9973 752.511 Z" fill="#000000" fill-rule="nonzero" fill-opacity="1" /><path clip-path="url(#clip160)" d="M33.8307 716.385 Q33.2578 717.372 33.0032 718.55 Q32.7167 719.696 32.7167 721.096 Q32.7167 726.061 35.9632 728.735 Q39.1779 731.377 45.2253 731.377 L64.0042 731.377 L64.0042 737.265 L28.3562 737.265 L28.3562 731.377 L33.8944 731.377 Q30.6479 729.531 29.0883 726.571 Q27.4968 723.61 27.4968 719.377 Q27.4968 718.773 27.5923 718.04 Q27.656 717.308 27.8151 716.417 L33.8307 716.385 Z" fill="#000000" fill-rule="nonzero" fill-opacity="1" /><path clip-path="url(#clip160)" d="M33.8307 690.732 Q33.2578 691.718 33.0032 692.896 Q32.7167 694.042 32.7167 695.442 Q32.7167 700.407 35.9632 703.081 Q39.1779 705.723 45.2253 705.723 L64.0042 705.723 L64.0042 711.611 L28.3562 711.611 L28.3562 705.723 L33.8944 705.723 Q30.6479 703.877 29.0883 700.917 Q27.4968 697.957 27.4968 693.723 Q27.4968 693.119 27.5923 692.387 Q27.656 691.655 27.8151 690.763 L33.8307 690.732 Z" fill="#000000" fill-rule="nonzero" fill-opacity="1" /><polyline clip-path="url(#clip162)" style="stroke:#4063d8; stroke-linecap:round; stroke-linejoin:round; stroke-width:4; stroke-opacity:1; fill:none" points="375.601,735.212 377.643,735.211 380.909,735.234 384.306,735.204 388.968,735.345 393.344,735.226 398.808,735.625 403.484,735.428 409.105,735.981 413.581,735.89 418.994,736.209 423.06,736.179 428.751,738.523 432.011,736.854 434.824,738.879 438.132,734.741 440.296,735.589 443.151,734.573 445.221,734.92 448.344,733.065 450.395,733.206 453.57,733.139 456.508,733.954 459.229,733.968 461.948,734.322 464.39,734.206 467.167,734.712 469.661,734.264 472.827,735.362 476.043,735.059 481.153,733.619 484.187,734.084 488.527,734.6 491.76,734.553 496.432,734.705 500.024,734.728 504.86,734.749 509.255,734.796 514.457,734.774 520.072,734.786 526.238,734.77 533.357,734.757 541.331,734.743 550.635,734.723 561.624,734.705 574.707,734.683 590.742,734.662 610.385,734.632 633.033,734.592 655.866,734.552 676.428,734.505 694.917,734.479 716.527,734.409 738.283,734.278 759.328,734.258 780.493,733.889 799.535,733.915 818.088,733.219 834.149,732.927 847.518,732.283 859.865,731.877 869.891,731.003 879.087,730.459 886.814,729.606 893.657,728.72 899.879,728.012 905.052,727.272 910.464,725.084 914.398,723.969 919.716,721.787 923.677,720.741 927.27,718.862 930.96,718.522 934.055,716.96 937.419,717.115 940.149,716.076 943.58,718.928 946.277,718.605 950.967,726.23 953.747,722.944 956.286,725.592 959,728.957 961.27,729.383 964.932,731.764 967.164,732.476 971.736,732.283 976.462,738.358 979.311,737.461 983.251,736.409 986.213,736.789 991.121,736.397 994.184,736.518 999.368,736.589 1003.23,736.559 1008.24,736.618 1013.37,736.612 1018.95,736.65 1025.36,736.676 1032.22,736.708 1040.09,736.751 1048.94,736.797 1058.95,736.851 1070.42,736.919 1083.16,736.994 1096.49,737.095 1108.24,737.175 1123.2,737.304 1139.33,737.503 1155.59,737.657 1172.78,738.084 1188.71,738.253 1204.87,739.095 1219.16,739.376 1233.1,740.754 1245.04,741.668 1254.95,743.017 1264.11,744.339 1271.65,746.023 1278.54,747.888 1284.53,749.713 1289.78,752.19 1294.84,754.356 1298.98,757.077 1305.33,763.881 1308.82,764.974 1311.97,770.675 1314.99,768.693 1316.98,770.712 1319.57,773.265 1321.64,773.975 1325.05,772.659 1326.92,772.124 1330.28,769.752 1333.13,767.213 1335.87,763.289 1338.62,759.084 1341.03,755.33 1343.97,751.106 1346.39,747.757 1349.92,744.84 1352.98,741.856 1357.85,737.654 1360.95,736.719 1364.99,735.608 1368.36,735.057 1372.43,734.583 1376.23,734.31 1380.58,734.074 1385.09,733.935 1390.05,733.814 1395.52,733.735 1401.53,733.671 1408.34,733.619 1416.04,733.574 1424.92,733.528 1435.34,733.481 1447.71,733.428 1462.71,733.364 1481.06,733.284 1502.72,733.169 1525.37,733.047 1546.18,732.898 1563.39,732.794 1584.7,732.6 1606.32,732.31 1627.21,732.124 1648.76,731.466 1667.89,731.286 1687.03,730.085 1703.33,729.53 1717.21,728.228 1729.82,727.319 1740.26,725.572 1749.69,724.182 1757.74,722.149 1764.75,720.163 1771.23,717.621 1776.49,715.808 1782.19,709.854 1786.02,707.213 1790.92,702.223 1794.65,698.281 1798.1,694.517 1801.59,690.319 1804.94,687.097 1807.97,683.94 1811.09,682.297 1813.82,681.079 1816.94,682.615 1819.72,684.26 1823.95,691.908 1827.07,695.326 1829.72,702.398 1832.64,705.095 1834.75,710.016 1837.42,715.468 1839.8,719.218 1845.12,726.258 1848.82,730.141 1852.25,731.572 1856.51,735.691 1859.43,736.027 1863.34,736.09 1866.6,736.765 1871.89,737.205 1875.64,737.364 1880.67,737.595 1885.69,737.694 1891.19,737.816 1897.49,737.902 1904.2,737.982 1911.92,738.066 1920.57,738.152 1930.34,738.25 1941.55,738.367 1954.07,738.504 1967.4,738.674 1979.73,738.837 1994.09,739.06 2010.2,739.376 2026.52,739.723 2043.49,740.263 2059.75,740.812 2075.73,741.74 2090.44,742.649 2104.28,744.253 2116.63,745.773 2127.9,748.514 2136.75,750.674 2145.32,754.015 2152.05,757.317 2158.51,761.189 2164.47,766.365 2169.64,771.269 2174.76,777.877 2179.26,785.248 2182.77,789.091 2185.92,796.564 2189.17,796.884 2191.46,800.723 2194.28,802.313 2196.4,803.524 2199.84,800.846 2202.07,799.044 2205.56,789.389 2208.71,789.539 2210.92,781.963 2213.79,774.224 2215.89,768.683 2219.17,759.55 2221.47,755.046 2226.72,745.332 2230.28,742.001 2233.73,740.02 2238.24,733.595 2240.9,733.695 2244.52,734.076 2247.64,733.435 2253.3,733.109 2256.93,733.117 2261.92,732.911 2267.26,732.906 2272.87,732.811 2279.62,732.809 2286.87,732.674 2295.17,732.827 "/>
<polyline clip-path="url(#clip162)" style="stroke:#389826; stroke-linecap:round; stroke-linejoin:round; stroke-width:4; stroke-opacity:1; fill:none" points="375.601,735.212 377.643,735.212 380.909,735.21 384.306,735.212 388.968,735.205 393.344,735.204 398.808,735.201 403.484,735.179 409.105,735.227 413.581,735.139 418.994,735.375 423.06,735.254 428.751,735.589 432.011,735.316 434.824,735.423 438.132,735.077 440.296,735.194 443.151,734.855 445.221,734.965 448.344,734.666 450.395,734.735 453.57,734.637 456.508,734.765 459.229,734.704 461.948,734.663 464.39,734.693 467.167,734.6 469.661,734.651 472.827,734.598 476.043,734.711 481.153,733.944 484.187,734.13 488.527,733.727 491.76,733.842 496.432,733.609 500.024,733.668 504.86,733.606 509.255,733.624 514.457,733.617 520.072,733.62 526.238,733.622 533.357,733.625 541.331,733.628 550.635,733.634 561.624,733.64 574.707,733.65 590.742,733.659 610.385,733.674 633.033,733.7 655.866,733.729 676.428,733.765 694.917,733.788 716.527,733.836 738.283,733.884 759.328,733.964 780.493,734 799.535,734.151 818.088,734.113 834.149,734.369 847.518,734.339 859.865,734.671 869.891,734.606 879.087,735.008 886.814,734.877 893.657,735.267 899.879,735.115 905.052,735.368 910.464,735.424 914.398,735.608 919.716,735.757 923.677,736.049 927.27,736.154 930.96,736.537 934.055,736.59 937.419,737.127 940.149,737.118 943.58,737.882 946.277,737.85 950.967,738.799 953.747,738.499 956.286,738.826 959,738.768 961.27,738.865 964.932,738.779 967.164,738.851 971.736,738.521 976.462,739.443 979.311,739.252 983.251,739.474 986.213,739.414 991.121,739.614 994.184,739.58 999.368,739.644 1003.23,739.623 1008.24,739.622 1013.37,739.611 1018.95,739.6 1025.36,739.588 1032.22,739.573 1040.09,739.555 1048.94,739.534 1058.95,739.509 1070.42,739.476 1083.16,739.44 1096.49,739.39 1108.24,739.348 1123.2,739.283 1139.33,739.202 1155.59,739.103 1172.78,738.988 1188.71,738.833 1204.87,738.707 1219.16,738.463 1233.1,738.355 1245.04,737.963 1254.95,737.863 1264.11,737.396 1271.65,737.33 1278.54,736.814 1284.53,736.824 1289.78,736.288 1294.84,736.38 1298.98,735.925 1305.33,735.881 1308.82,735.236 1311.97,735.041 1314.99,734.439 1316.98,734.3 1319.57,733.712 1321.64,733.524 1325.05,732.778 1326.92,732.569 1330.28,732.011 1333.13,731.816 1335.87,731.421 1338.62,731.207 1341.03,730.999 1343.97,730.798 1346.39,730.675 1349.92,730.52 1352.98,730.476 1357.85,729.992 1360.95,730.051 1364.99,729.885 1368.36,729.914 1372.43,729.862 1376.23,729.871 1380.58,729.862 1385.09,729.866 1390.05,729.87 1395.52,729.877 1401.53,729.886 1408.34,729.898 1416.04,729.913 1424.92,729.932 1435.34,729.956 1447.71,729.986 1462.71,730.025 1481.06,730.075 1502.72,730.151 1525.37,730.236 1546.18,730.339 1563.39,730.416 1584.7,730.542 1606.32,730.685 1627.21,730.864 1648.76,731.039 1667.89,731.32 1687.03,731.461 1703.33,731.906 1717.21,732.007 1729.82,732.552 1740.26,732.604 1749.69,733.224 1757.74,733.212 1764.75,733.811 1771.23,733.836 1776.49,734.256 1782.19,734.675 1786.02,735.037 1790.92,735.557 1794.65,736 1798.1,736.494 1801.59,736.984 1804.94,737.582 1807.97,738.054 1811.09,738.737 1813.82,739.153 1816.94,739.979 1819.72,740.384 1823.95,741.408 1827.07,741.547 1829.72,742.048 1832.64,742.157 1834.75,742.455 1837.42,742.526 1839.8,742.755 1845.12,742.532 1848.82,743.037 1852.25,742.878 1856.51,743.394 1859.43,743.313 1863.34,743.391 1866.6,743.381 1871.89,743.429 1875.64,743.414 1880.67,743.407 1885.69,743.393 1891.19,743.374 1897.49,743.352 1904.2,743.325 1911.92,743.293 1920.57,743.254 1930.34,743.208 1941.55,743.149 1954.07,743.081 1967.4,742.995 1979.73,742.911 1994.09,742.8 2010.2,742.655 2026.52,742.486 2043.49,742.277 2059.75,742.036 2075.73,741.759 2090.44,741.438 2104.28,741.081 2116.63,740.688 2127.9,740.216 2136.75,739.811 2145.32,739.273 2152.05,738.834 2158.51,738.284 2164.47,737.698 2169.64,737.144 2174.76,736.381 2179.26,735.795 2182.77,734.991 2185.92,734.472 2189.17,733.571 2191.46,733.149 2194.28,732.297 2196.4,731.857 2199.84,730.835 2202.07,730.39 2205.56,729.327 2208.71,729.287 2210.92,728.709 2213.79,728.599 2215.89,728.234 2219.17,728.166 2221.47,727.911 2226.72,728.096 2230.28,727.628 2233.73,727.79 2238.24,727.082 2240.9,727.174 2244.52,727.137 2247.64,727.135 2253.3,727.118 2256.93,727.126 2261.92,727.14 2267.26,727.149 2272.87,727.168 2279.62,727.184 2286.87,727.208 2295.17,727.236 "/>
<path clip-path="url(#clip162)" d="M375.601 735.212 L377.643 735.219 L380.909 735.318 L384.306 735.445 L388.968 736.258 L393.344 736.418 L398.808 739.019 L403.484 738.654 L409.105 743.371 L413.581 742.714 L418.994 747.283 L423.06 748.101 L428.751 752.803 L432.011 754.35 L434.824 756.47 L438.132 759.641 L440.296 760.63 L443.151 764.356 L445.221 764.393 L448.344 768.795 L450.395 767.758 L453.57 768.114 L456.508 765.553 L459.229 763.706 L461.948 761.758 L464.39 757.772 L467.167 756.181 L469.661 752.181 L472.827 749.876 L476.043 746.971 L481.153 752.538 L484.187 747.333 L488.527 751.19 L491.76 746.639 L496.432 749.52 L500.024 746.227 L504.86 747.014 L509.255 745.777 L514.457 745.885 L520.072 745.812 L526.238 745.863 L533.357 745.999 L541.331 746.127 L550.635 746.311 L561.624 746.545 L574.707 746.848 L590.742 747.256 L610.385 747.81 L633.033 748.539 L655.866 749.388 L676.428 750.265 L694.917 751.184 L716.527 752.53 L738.283 754.257 L759.328 756.391 L780.493 759.631 L799.535 763.091 L818.088 768.895 L834.149 774.216 L847.518 780.34 L859.865 789.1 L869.891 797.921 L879.087 809.831 L886.814 823.027 L893.657 838.432 L899.879 856.925 L905.052 875.984 L910.464 901.136 L914.398 922.804 L919.716 957.441 L923.677 986.557 L927.27 1014.55 L930.96 1042.84 L934.055 1063.75 L937.419 1080.86 L940.149 1087.4 L943.58 1084.34 L946.277 1071.3 L950.967 1029.74 L953.747 994.86 L956.286 960.958 L959 924.155 L961.27 894.724 L964.932 852.873 L967.164 830.822 L971.736 795.336 L976.462 770.902 L979.311 760.17 L983.251 752.642 L986.213 748.169 L991.121 750.546 L994.184 749.431 L999.368 752.034 L1003.23 751.964 L1008.24 753.021 L1013.37 753.637 L1018.95 754.258 L1025.36 754.85 L1032.22 755.356 L1040.09 755.897 L1048.94 756.481 L1058.95 757.156 L1070.42 757.98 L1083.16 758.98 L1096.49 760.146 L1108.24 761.297 L1123.2 762.981 L1139.33 765.14 L1155.59 767.791 L1172.78 771.427 L1188.71 775.672 L1204.87 781.841 L1219.16 788.647 L1233.1 798.859 L1245.04 809.644 L1254.95 822.252 L1264.11 838.607 L1271.65 856.46 L1278.54 878.365 L1284.53 903.188 L1289.78 930.743 L1294.84 963.858 L1298.98 996.492 L1305.33 1056.96 L1308.82 1094.61 L1311.97 1129.52 L1314.99 1161.89 L1316.98 1181.03 L1319.57 1201.5 L1321.64 1212.39 L1325.05 1216.67 L1326.92 1210.02 L1330.28 1181.77 L1333.13 1142.16 L1335.87 1094.86 L1338.62 1042.14 L1341.03 995.454 L1343.97 941.79 L1346.39 902.048 L1349.92 853.783 L1352.98 820.543 L1357.85 785.064 L1360.95 767.975 L1364.99 756.579 L1368.36 748.657 L1372.43 747.868 L1376.23 747.486 L1380.58 749.318 L1385.09 750.486 L1390.05 751.578 L1395.52 752.374 L1401.53 752.943 L1408.34 753.403 L1416.04 753.789 L1424.92 754.17 L1435.34 754.593 L1447.71 755.103 L1462.71 755.759 L1481.06 756.633 L1502.72 757.793 L1525.37 759.188 L1546.18 760.667 L1563.39 762.074 L1584.7 764.159 L1606.32 766.768 L1627.21 769.923 L1648.76 774.41 L1667.89 779.389 L1687.03 787.084 L1703.33 794.978 L1717.21 804.61 L1729.82 816.932 L1740.26 830.713 L1749.69 847.957 L1757.74 867.853 L1764.75 890.585 L1771.23 918.284 L1776.49 946.435 L1782.19 985.085 L1786.02 1016.16 L1790.92 1062.99 L1794.65 1103.67 L1798.1 1144.48 L1801.59 1187.04 L1804.94 1226.44 L1807.97 1257.18 L1811.09 1280.04 L1813.82 1288.85 L1816.94 1282.97 L1819.72 1261.35 L1823.95 1201.77 L1827.07 1141.63 L1829.72 1085.58 L1832.64 1023.69 L1834.75 980.936 L1837.42 931.698 L1839.8 892.958 L1845.12 826.123 L1848.82 793.44 L1852.25 771.48 L1856.51 755.814 L1859.43 747.666 L1863.34 747.605 L1866.6 749.003 L1871.89 754.701 L1875.64 755.991 L1880.67 758.269 L1885.69 759.61 L1891.19 760.763 L1897.49 761.742 L1904.2 762.534 L1911.92 763.322 L1920.57 764.132 L1930.34 765.044 L1941.55 766.139 L1954.07 767.462 L1967.4 769.026 L1979.73 770.648 L1994.09 772.803 L2010.2 775.656 L2026.52 779.165 L2043.49 783.769 L2059.75 789.43 L2075.73 796.914 L2090.44 806.094 L2104.28 818.252 L2116.63 833.04 L2127.9 852.342 L2136.75 872.457 L2145.32 900.532 L2152.05 929.229 L2158.51 966.183 L2164.47 1010.28 L2169.64 1058.58 L2174.76 1117.23 L2179.26 1177.47 L2182.77 1228.97 L2185.92 1276.06 L2189.17 1321.95 L2191.46 1349.57 L2194.28 1374.72 L2196.4 1384.24 L2199.84 1378.46 L2202.07 1358.46 L2205.56 1303.06 L2208.71 1232.49 L2210.92 1176.4 L2213.79 1101.2 L2215.89 1047.81 L2219.17 971.917 L2221.47 926.083 L2226.72 845.353 L2230.28 807.358 L2233.73 781.128 L2238.24 762.277 L2240.9 752.764 L2244.52 749.036 L2247.64 748.227 L2253.3 754.109 L2256.93 754.08 L2261.92 755.852 L2267.26 756.915 L2272.87 757.744 L2279.62 758.505 L2286.87 759.053 L2295.17 759.702 L2295.17 710.722 L2286.87 711.37 L2279.62 711.919 L2272.87 712.68 L2267.26 713.509 L2261.92 714.572 L2256.93 716.344 L2253.3 716.315 L2247.64 722.196 L2244.52 721.388 L2240.9 717.66 L2238.24 708.147 L2233.73 689.296 L2230.28 663.066 L2226.72 625.071 L2221.47 544.341 L2219.17 498.507 L2215.89 422.614 L2213.79 369.225 L2210.92 294.027 L2208.71 237.932 L2205.56 167.36 L2202.07 111.965 L2199.84 91.9591 L2196.4 86.1857 L2194.28 95.7027 L2191.46 120.858 L2189.17 148.478 L2185.92 194.362 L2182.77 241.458 L2179.26 292.958 L2174.76 353.197 L2169.64 411.849 L2164.47 460.149 L2158.51 504.241 L2152.05 541.195 L2145.32 569.892 L2136.75 597.967 L2127.9 618.082 L2116.63 637.384 L2104.28 652.172 L2090.44 664.33 L2075.73 673.51 L2059.75 680.994 L2043.49 686.655 L2026.52 691.259 L2010.2 694.768 L1994.09 697.621 L1979.73 699.775 L1967.4 701.398 L1954.07 702.962 L1941.55 704.285 L1930.34 705.38 L1920.57 706.292 L1911.92 707.102 L1904.2 707.89 L1897.49 708.682 L1891.19 709.661 L1885.69 710.814 L1880.67 712.155 L1875.64 714.433 L1871.89 715.723 L1866.6 721.421 L1863.34 722.819 L1859.43 722.758 L1856.51 714.61 L1852.25 698.944 L1848.82 676.984 L1845.12 644.3 L1839.8 577.466 L1837.42 538.726 L1834.75 489.488 L1832.64 446.729 L1829.72 384.843 L1827.07 328.795 L1823.95 268.651 L1819.72 209.071 L1816.94 187.452 L1813.82 181.575 L1811.09 190.386 L1807.97 213.242 L1804.94 243.982 L1801.59 283.388 L1798.1 325.944 L1794.65 366.759 L1790.92 407.438 L1786.02 454.263 L1782.19 485.339 L1776.49 523.989 L1771.23 552.14 L1764.75 579.839 L1757.74 602.571 L1749.69 622.467 L1740.26 639.711 L1729.82 653.492 L1717.21 665.813 L1703.33 675.446 L1687.03 683.34 L1667.89 691.035 L1648.76 696.014 L1627.21 700.501 L1606.32 703.656 L1584.7 706.265 L1563.39 708.35 L1546.18 709.757 L1525.37 711.236 L1502.72 712.631 L1481.06 713.791 L1462.71 714.665 L1447.71 715.321 L1435.34 715.831 L1424.92 716.254 L1416.04 716.635 L1408.34 717.021 L1401.53 717.481 L1395.52 718.05 L1390.05 718.846 L1385.09 719.938 L1380.58 721.106 L1376.23 722.938 L1372.43 722.556 L1368.36 721.767 L1364.99 713.845 L1360.95 702.449 L1357.85 685.36 L1352.98 649.881 L1349.92 616.641 L1346.39 568.376 L1343.97 528.634 L1341.03 474.97 L1338.62 428.285 L1335.87 375.569 L1333.13 328.265 L1330.28 288.659 L1326.92 260.407 L1325.05 253.751 L1321.64 258.032 L1319.57 268.926 L1316.98 289.39 L1314.99 308.532 L1311.97 340.906 L1308.82 375.818 L1305.33 413.468 L1298.98 473.932 L1294.84 506.566 L1289.78 539.681 L1284.53 567.236 L1278.54 592.059 L1271.65 613.964 L1264.11 631.816 L1254.95 648.171 L1245.04 660.779 L1233.1 671.565 L1219.16 681.777 L1204.87 688.583 L1188.71 694.752 L1172.78 698.997 L1155.59 702.633 L1139.33 705.284 L1123.2 707.443 L1108.24 709.127 L1096.49 710.278 L1083.16 711.444 L1070.42 712.444 L1058.95 713.268 L1048.94 713.943 L1040.09 714.527 L1032.22 715.068 L1025.36 715.574 L1018.95 716.165 L1013.37 716.787 L1008.24 717.402 L1003.23 718.46 L999.368 718.39 L994.184 720.993 L991.121 719.878 L986.213 722.255 L983.251 717.782 L979.311 710.254 L976.462 699.522 L971.736 675.088 L967.164 639.602 L964.932 617.551 L961.27 575.7 L959 546.269 L956.286 509.466 L953.747 475.564 L950.967 440.687 L946.277 399.125 L943.58 386.087 L940.149 383.028 L937.419 389.565 L934.055 406.674 L930.96 427.585 L927.27 455.871 L923.677 483.867 L919.716 512.983 L914.398 547.62 L910.464 569.288 L905.052 594.44 L899.879 613.499 L893.657 631.992 L886.814 647.397 L879.087 660.593 L869.891 672.503 L859.865 681.324 L847.518 690.084 L834.149 696.208 L818.088 701.529 L799.535 707.333 L780.493 710.793 L759.328 714.032 L738.283 716.167 L716.527 717.894 L694.917 719.24 L676.428 720.159 L655.866 721.036 L633.033 721.885 L610.385 722.614 L590.742 723.168 L574.707 723.576 L561.624 723.879 L550.635 724.113 L541.331 724.297 L533.357 724.425 L526.238 724.561 L520.072 724.611 L514.457 724.539 L509.255 724.646 L504.86 723.41 L500.024 724.197 L496.432 720.904 L491.76 723.785 L488.527 719.234 L484.187 723.091 L481.153 717.886 L476.043 723.453 L472.827 720.548 L469.661 718.243 L467.167 714.243 L464.39 712.652 L461.948 708.666 L459.229 706.718 L456.508 704.871 L453.57 702.31 L450.395 702.666 L448.344 701.629 L445.221 706.031 L443.151 706.068 L440.296 709.794 L438.132 710.783 L434.824 713.953 L432.011 716.074 L428.751 717.621 L423.06 722.323 L418.994 723.141 L413.581 727.71 L409.105 727.053 L403.484 731.77 L398.808 731.405 L393.344 734.006 L388.968 734.166 L384.306 734.979 L380.909 735.106 L377.643 735.205 L375.601 735.212  Z" fill="#4063d8" fill-rule="evenodd" fill-opacity="0.5"/>
<polyline clip-path="url(#clip162)" style="stroke:#4063d8; stroke-linecap:round; stroke-linejoin:round; stroke-width:4; stroke-opacity:0.2; fill:none" points="375.601,735.212 377.643,735.212 380.909,735.212 384.306,735.212 388.968,735.212 393.344,735.212 398.808,735.212 403.484,735.212 409.105,735.212 413.581,735.212 418.994,735.212 423.06,735.212 428.751,735.212 432.011,735.212 434.824,735.212 438.132,735.212 440.296,735.212 443.151,735.212 445.221,735.212 448.344,735.212 450.395,735.212 453.57,735.212 456.508,735.212 459.229,735.212 461.948,735.212 464.39,735.212 467.167,735.212 469.661,735.212 472.827,735.212 476.043,735.212 481.153,735.212 484.187,735.212 488.527,735.212 491.76,735.212 496.432,735.212 500.024,735.212 504.86,735.212 509.255,735.212 514.457,735.212 520.072,735.212 526.238,735.212 533.357,735.212 541.331,735.212 550.635,735.212 561.624,735.212 574.707,735.212 590.742,735.212 610.385,735.212 633.033,735.212 655.866,735.212 676.428,735.212 694.917,735.212 716.527,735.212 738.283,735.212 759.328,735.212 780.493,735.212 799.535,735.212 818.088,735.212 834.149,735.212 847.518,735.212 859.865,735.212 869.891,735.212 879.087,735.212 886.814,735.212 893.657,735.212 899.879,735.212 905.052,735.212 910.464,735.212 914.398,735.212 919.716,735.212 923.677,735.212 927.27,735.212 930.96,735.212 934.055,735.212 937.419,735.212 940.149,735.212 943.58,735.212 946.277,735.212 950.967,735.212 953.747,735.212 956.286,735.212 959,735.212 961.27,735.212 964.932,735.212 967.164,735.212 971.736,735.212 976.462,735.212 979.311,735.212 983.251,735.212 986.213,735.212 991.121,735.212 994.184,735.212 999.368,735.212 1003.23,735.212 1008.24,735.212 1013.37,735.212 1018.95,735.212 1025.36,735.212 1032.22,735.212 1040.09,735.212 1048.94,735.212 1058.95,735.212 1070.42,735.212 1083.16,735.212 1096.49,735.212 1108.24,735.212 1123.2,735.212 1139.33,735.212 1155.59,735.212 1172.78,735.212 1188.71,735.212 1204.87,735.212 1219.16,735.212 1233.1,735.212 1245.04,735.212 1254.95,735.212 1264.11,735.212 1271.65,735.212 1278.54,735.212 1284.53,735.212 1289.78,735.212 1294.84,735.212 1298.98,735.212 1305.33,735.212 1308.82,735.212 1311.97,735.212 1314.99,735.212 1316.98,735.212 1319.57,735.212 1321.64,735.212 1325.05,735.212 1326.92,735.212 1330.28,735.212 1333.13,735.212 1335.87,735.212 1338.62,735.212 1341.03,735.212 1343.97,735.212 1346.39,735.212 1349.92,735.212 1352.98,735.212 1357.85,735.212 1360.95,735.212 1364.99,735.212 1368.36,735.212 1372.43,735.212 1376.23,735.212 1380.58,735.212 1385.09,735.212 1390.05,735.212 1395.52,735.212 1401.53,735.212 1408.34,735.212 1416.04,735.212 1424.92,735.212 1435.34,735.212 1447.71,735.212 1462.71,735.212 1481.06,735.212 1502.72,735.212 1525.37,735.212 1546.18,735.212 1563.39,735.212 1584.7,735.212 1606.32,735.212 1627.21,735.212 1648.76,735.212 1667.89,735.212 1687.03,735.212 1703.33,735.212 1717.21,735.212 1729.82,735.212 1740.26,735.212 1749.69,735.212 1757.74,735.212 1764.75,735.212 1771.23,735.212 1776.49,735.212 1782.19,735.212 1786.02,735.212 1790.92,735.212 1794.65,735.212 1798.1,735.212 1801.59,735.212 1804.94,735.212 1807.97,735.212 1811.09,735.212 1813.82,735.212 1816.94,735.212 1819.72,735.212 1823.95,735.212 1827.07,735.212 1829.72,735.212 1832.64,735.212 1834.75,735.212 1837.42,735.212 1839.8,735.212 1845.12,735.212 1848.82,735.212 1852.25,735.212 1856.51,735.212 1859.43,735.212 1863.34,735.212 1866.6,735.212 1871.89,735.212 1875.64,735.212 1880.67,735.212 1885.69,735.212 1891.19,735.212 1897.49,735.212 1904.2,735.212 1911.92,735.212 1920.57,735.212 1930.34,735.212 1941.55,735.212 1954.07,735.212 1967.4,735.212 1979.73,735.212 1994.09,735.212 2010.2,735.212 2026.52,735.212 2043.49,735.212 2059.75,735.212 2075.73,735.212 2090.44,735.212 2104.28,735.212 2116.63,735.212 2127.9,735.212 2136.75,735.212 2145.32,735.212 2152.05,735.212 2158.51,735.212 2164.47,735.212 2169.64,735.212 2174.76,735.212 2179.26,735.212 2182.77,735.212 2185.92,735.212 2189.17,735.212 2191.46,735.212 2194.28,735.212 2196.4,735.212 2199.84,735.212 2202.07,735.212 2205.56,735.212 2208.71,735.212 2210.92,735.212 2213.79,735.212 2215.89,735.212 2219.17,735.212 2221.47,735.212 2226.72,735.212 2230.28,735.212 2233.73,735.212 2238.24,735.212 2240.9,735.212 2244.52,735.212 2247.64,735.212 2253.3,735.212 2256.93,735.212 2261.92,735.212 2267.26,735.212 2272.87,735.212 2279.62,735.212 2286.87,735.212 2295.17,735.212 "/>
<path clip-path="url(#clip162)" d="M375.601 735.212 L377.643 735.219 L380.909 735.317 L384.306 735.443 L388.968 736.239 L393.344 736.375 L398.808 738.862 L403.484 738.284 L409.105 742.606 L413.581 740.999 L418.994 744.438 L423.06 743.289 L428.751 745.461 L432.011 744.558 L434.824 744.768 L438.132 746.795 L440.296 745.784 L443.151 750.153 L445.221 748.384 L448.344 755.392 L450.395 753.872 L453.57 756.726 L456.508 756.051 L459.229 757.468 L461.948 758.828 L464.39 757.694 L467.167 759.577 L469.661 758.434 L472.827 759.169 L476.043 758.596 L481.153 765.13 L484.187 763.341 L488.527 768.244 L491.76 766.681 L496.432 770.101 L500.024 769.018 L504.86 770.222 L509.255 769.731 L514.457 769.941 L520.072 769.789 L526.238 769.743 L533.357 769.652 L541.331 769.541 L550.635 769.408 L561.624 769.241 L574.707 769.026 L590.742 768.743 L610.385 768.361 L633.033 767.871 L655.866 767.308 L676.428 766.723 L694.917 766.136 L716.527 765.433 L738.283 764.652 L759.328 763.856 L780.493 763.457 L799.535 762.656 L818.088 763.65 L834.149 762.652 L847.518 761.955 L859.865 762.08 L869.891 760.277 L879.087 759.657 L886.814 758.195 L893.657 756.158 L899.879 755.499 L905.052 753.037 L910.464 753.113 L914.398 751.529 L919.716 751.798 L923.677 751.049 L927.27 752.356 L930.96 755.067 L934.055 756.172 L937.419 761.615 L940.149 762.054 L943.58 767.079 L946.277 768.659 L950.967 781.979 L953.747 779.803 L956.286 782.836 L959 784.191 L961.27 784.962 L964.932 787.908 L967.164 788.376 L971.736 789.966 L976.462 790.674 L979.311 790.728 L983.251 791.79 L986.213 791.571 L991.121 793.328 L994.184 792.993 L999.368 793.959 L1003.23 793.643 L1008.24 793.763 L1013.37 793.583 L1018.95 793.474 L1025.36 793.303 L1032.22 793.104 L1040.09 792.865 L1048.94 792.573 L1058.95 792.22 L1070.42 791.782 L1083.16 791.252 L1096.49 790.642 L1108.24 790.052 L1123.2 789.229 L1139.33 788.235 L1155.59 787.106 L1172.78 785.854 L1188.71 784.427 L1204.87 783.341 L1219.16 781.63 L1233.1 781.347 L1245.04 779.083 L1254.95 777.238 L1264.11 775.536 L1271.65 772.911 L1278.54 770.427 L1284.53 767.908 L1289.78 764.664 L1294.84 761.925 L1298.98 758.926 L1305.33 756.405 L1308.82 753.267 L1311.97 752.131 L1314.99 752.187 L1316.98 752.119 L1319.57 754.943 L1321.64 755.528 L1325.05 764.043 L1326.92 765.154 L1330.28 770.859 L1333.13 773.27 L1335.87 777.046 L1338.62 780.282 L1341.03 781.57 L1343.97 784.976 L1346.39 785.694 L1349.92 788.068 L1352.98 788.62 L1357.85 792.734 L1360.95 792.215 L1364.99 794.303 L1368.36 793.814 L1372.43 794.631 L1376.23 794.388 L1380.58 794.599 L1385.09 794.491 L1390.05 794.471 L1395.52 794.376 L1401.53 794.265 L1408.34 794.123 L1416.04 793.947 L1424.92 793.73 L1435.34 793.459 L1447.71 793.114 L1462.71 792.662 L1481.06 792.056 L1502.72 791.255 L1525.37 790.307 L1546.18 789.314 L1563.39 788.392 L1584.7 787.149 L1606.32 785.711 L1627.21 784.136 L1648.76 782.569 L1667.89 780.627 L1687.03 779.714 L1703.33 777.228 L1717.21 775.468 L1729.82 773.416 L1740.26 770.884 L1749.69 768.334 L1757.74 765.876 L1764.75 762.371 L1771.23 760.402 L1776.49 756.551 L1782.19 755.889 L1786.02 753.212 L1790.92 752.539 L1794.65 751.651 L1798.1 752.907 L1801.59 755.365 L1804.94 759.462 L1807.97 763.278 L1811.09 769.063 L1813.82 772.768 L1816.94 778.745 L1819.72 783.009 L1823.95 793.177 L1827.07 796.23 L1829.72 799.311 L1832.64 803.903 L1834.75 805.142 L1837.42 807.357 L1839.8 808.779 L1845.12 811.707 L1848.82 812.427 L1852.25 813.124 L1856.51 814.324 L1859.43 814.249 L1863.34 814.833 L1866.6 814.749 L1871.89 815.473 L1875.64 815.233 L1880.67 815.315 L1885.69 815.122 L1891.19 814.974 L1897.49 814.752 L1904.2 814.494 L1911.92 814.177 L1920.57 813.794 L1930.34 813.329 L1941.55 812.752 L1954.07 812.051 L1967.4 811.231 L1979.73 810.396 L1994.09 809.326 L2010.2 807.983 L2026.52 806.438 L2043.49 804.65 L2059.75 802.664 L2075.73 800.603 L2090.44 798.303 L2104.28 796.257 L2116.63 793.705 L2127.9 791.561 L2136.75 787.492 L2145.32 785.708 L2152.05 781.007 L2158.51 778.046 L2164.47 773.656 L2169.64 768.86 L2174.76 764.253 L2179.26 759.584 L2182.77 756.811 L2185.92 754.71 L2189.17 756.197 L2191.46 756.449 L2194.28 761.641 L2196.4 763.326 L2199.84 773.297 L2202.07 775.802 L2205.56 783.146 L2208.71 787.853 L2210.92 790.622 L2213.79 796.473 L2215.89 797.76 L2219.17 801.929 L2221.47 803.344 L2226.72 807.321 L2230.28 807.696 L2233.73 808.578 L2238.24 810.333 L2240.9 810.082 L2244.52 810.723 L2247.64 810.651 L2253.3 812.081 L2256.93 811.726 L2261.92 811.926 L2267.26 811.736 L2272.87 811.626 L2279.62 811.457 L2286.87 811.248 L2295.17 811.037 L2295.17 659.387 L2286.87 659.176 L2279.62 658.967 L2272.87 658.798 L2267.26 658.688 L2261.92 658.498 L2256.93 658.698 L2253.3 658.343 L2247.64 659.773 L2244.52 659.701 L2240.9 660.341 L2238.24 660.09 L2233.73 661.845 L2230.28 662.728 L2226.72 663.103 L2221.47 667.08 L2219.17 668.495 L2215.89 672.664 L2213.79 673.951 L2210.92 679.802 L2208.71 682.571 L2205.56 687.278 L2202.07 694.622 L2199.84 697.127 L2196.4 707.098 L2194.28 708.782 L2191.46 713.975 L2189.17 714.227 L2185.92 715.714 L2182.77 713.613 L2179.26 710.84 L2174.76 706.171 L2169.64 701.564 L2164.47 696.768 L2158.51 692.378 L2152.05 689.416 L2145.32 684.715 L2136.75 682.932 L2127.9 678.863 L2116.63 676.719 L2104.28 674.166 L2090.44 672.121 L2075.73 669.821 L2059.75 667.76 L2043.49 665.773 L2026.52 663.986 L2010.2 662.441 L1994.09 661.098 L1979.73 660.028 L1967.4 659.193 L1954.07 658.373 L1941.55 657.672 L1930.34 657.095 L1920.57 656.63 L1911.92 656.247 L1904.2 655.93 L1897.49 655.672 L1891.19 655.449 L1885.69 655.302 L1880.67 655.109 L1875.64 655.191 L1871.89 654.951 L1866.6 655.675 L1863.34 655.591 L1859.43 656.175 L1856.51 656.1 L1852.25 657.3 L1848.82 657.997 L1845.12 658.717 L1839.8 661.645 L1837.42 663.066 L1834.75 665.282 L1832.64 666.521 L1829.72 671.113 L1827.07 674.194 L1823.95 677.247 L1819.72 687.415 L1816.94 691.679 L1813.82 697.656 L1811.09 701.361 L1807.97 707.146 L1804.94 710.962 L1801.59 715.059 L1798.1 717.517 L1794.65 718.773 L1790.92 717.885 L1786.02 717.212 L1782.19 714.535 L1776.49 713.873 L1771.23 710.022 L1764.75 708.053 L1757.74 704.548 L1749.69 702.09 L1740.26 699.54 L1729.82 697.008 L1717.21 694.956 L1703.33 693.196 L1687.03 690.71 L1667.89 689.797 L1648.76 687.855 L1627.21 686.287 L1606.32 684.713 L1584.7 683.275 L1563.39 682.031 L1546.18 681.11 L1525.37 680.117 L1502.72 679.168 L1481.06 678.368 L1462.71 677.761 L1447.71 677.31 L1435.34 676.965 L1424.92 676.694 L1416.04 676.477 L1408.34 676.301 L1401.53 676.159 L1395.52 676.048 L1390.05 675.953 L1385.09 675.932 L1380.58 675.825 L1376.23 676.036 L1372.43 675.792 L1368.36 676.61 L1364.99 676.121 L1360.95 678.209 L1357.85 677.69 L1352.98 681.804 L1349.92 682.356 L1346.39 684.73 L1343.97 685.448 L1341.03 688.854 L1338.62 690.142 L1335.87 693.378 L1333.13 697.154 L1330.28 699.565 L1326.92 705.27 L1325.05 706.381 L1321.64 714.896 L1319.57 715.481 L1316.98 718.305 L1314.99 718.237 L1311.97 718.293 L1308.82 717.157 L1305.33 714.019 L1298.98 711.498 L1294.84 708.499 L1289.78 705.76 L1284.53 702.516 L1278.54 699.997 L1271.65 697.513 L1264.11 694.888 L1254.95 693.186 L1245.04 691.341 L1233.1 689.077 L1219.16 688.794 L1204.87 687.083 L1188.71 685.997 L1172.78 684.57 L1155.59 683.318 L1139.33 682.189 L1123.2 681.195 L1108.24 680.372 L1096.49 679.782 L1083.16 679.172 L1070.42 678.642 L1058.95 678.204 L1048.94 677.851 L1040.09 677.559 L1032.22 677.32 L1025.36 677.121 L1018.95 676.95 L1013.37 676.84 L1008.24 676.661 L1003.23 676.78 L999.368 676.465 L994.184 677.431 L991.121 677.096 L986.213 678.853 L983.251 678.634 L979.311 679.696 L976.462 679.75 L971.736 680.457 L967.164 682.048 L964.932 682.516 L961.27 685.462 L959 686.233 L956.286 687.588 L953.747 690.621 L950.967 688.445 L946.277 701.765 L943.58 703.345 L940.149 708.37 L937.419 708.809 L934.055 714.252 L930.96 715.357 L927.27 718.068 L923.677 719.375 L919.716 718.626 L914.398 718.895 L910.464 717.311 L905.052 717.387 L899.879 714.925 L893.657 714.266 L886.814 712.229 L879.087 710.767 L869.891 710.147 L859.865 708.344 L847.518 708.469 L834.149 707.772 L818.088 706.774 L799.535 707.768 L780.493 706.967 L759.328 706.568 L738.283 705.772 L716.527 704.991 L694.917 704.288 L676.428 703.701 L655.866 703.116 L633.033 702.553 L610.385 702.063 L590.742 701.681 L574.707 701.398 L561.624 701.183 L550.635 701.016 L541.331 700.883 L533.357 700.772 L526.238 700.681 L520.072 700.635 L514.457 700.483 L509.255 700.693 L504.86 700.202 L500.024 701.406 L496.432 700.323 L491.76 703.743 L488.527 702.18 L484.187 707.083 L481.153 705.294 L476.043 711.828 L472.827 711.255 L469.661 711.99 L467.167 710.847 L464.39 712.73 L461.948 711.596 L459.229 712.956 L456.508 714.373 L453.57 713.698 L450.395 716.552 L448.344 715.032 L445.221 722.04 L443.151 720.271 L440.296 724.64 L438.132 723.629 L434.824 725.655 L432.011 725.866 L428.751 724.963 L423.06 727.135 L418.994 725.986 L413.581 729.424 L409.105 727.817 L403.484 732.139 L398.808 731.562 L393.344 734.049 L388.968 734.185 L384.306 734.981 L380.909 735.107 L377.643 735.205 L375.601 735.212  Z" fill="#389826" fill-rule="evenodd" fill-opacity="0.5"/>
<polyline clip-path="url(#clip162)" style="stroke:#389826; stroke-linecap:round; stroke-linejoin:round; stroke-width:4; stroke-opacity:0.2; fill:none" points="375.601,735.212 377.643,735.212 380.909,735.212 384.306,735.212 388.968,735.212 393.344,735.212 398.808,735.212 403.484,735.212 409.105,735.212 413.581,735.212 418.994,735.212 423.06,735.212 428.751,735.212 432.011,735.212 434.824,735.212 438.132,735.212 440.296,735.212 443.151,735.212 445.221,735.212 448.344,735.212 450.395,735.212 453.57,735.212 456.508,735.212 459.229,735.212 461.948,735.212 464.39,735.212 467.167,735.212 469.661,735.212 472.827,735.212 476.043,735.212 481.153,735.212 484.187,735.212 488.527,735.212 491.76,735.212 496.432,735.212 500.024,735.212 504.86,735.212 509.255,735.212 514.457,735.212 520.072,735.212 526.238,735.212 533.357,735.212 541.331,735.212 550.635,735.212 561.624,735.212 574.707,735.212 590.742,735.212 610.385,735.212 633.033,735.212 655.866,735.212 676.428,735.212 694.917,735.212 716.527,735.212 738.283,735.212 759.328,735.212 780.493,735.212 799.535,735.212 818.088,735.212 834.149,735.212 847.518,735.212 859.865,735.212 869.891,735.212 879.087,735.212 886.814,735.212 893.657,735.212 899.879,735.212 905.052,735.212 910.464,735.212 914.398,735.212 919.716,735.212 923.677,735.212 927.27,735.212 930.96,735.212 934.055,735.212 937.419,735.212 940.149,735.212 943.58,735.212 946.277,735.212 950.967,735.212 953.747,735.212 956.286,735.212 959,735.212 961.27,735.212 964.932,735.212 967.164,735.212 971.736,735.212 976.462,735.212 979.311,735.212 983.251,735.212 986.213,735.212 991.121,735.212 994.184,735.212 999.368,735.212 1003.23,735.212 1008.24,735.212 1013.37,735.212 1018.95,735.212 1025.36,735.212 1032.22,735.212 1040.09,735.212 1048.94,735.212 1058.95,735.212 1070.42,735.212 1083.16,735.212 1096.49,735.212 1108.24,735.212 1123.2,735.212 1139.33,735.212 1155.59,735.212 1172.78,735.212 1188.71,735.212 1204.87,735.212 1219.16,735.212 1233.1,735.212 1245.04,735.212 1254.95,735.212 1264.11,735.212 1271.65,735.212 1278.54,735.212 1284.53,735.212 1289.78,735.212 1294.84,735.212 1298.98,735.212 1305.33,735.212 1308.82,735.212 1311.97,735.212 1314.99,735.212 1316.98,735.212 1319.57,735.212 1321.64,735.212 1325.05,735.212 1326.92,735.212 1330.28,735.212 1333.13,735.212 1335.87,735.212 1338.62,735.212 1341.03,735.212 1343.97,735.212 1346.39,735.212 1349.92,735.212 1352.98,735.212 1357.85,735.212 1360.95,735.212 1364.99,735.212 1368.36,735.212 1372.43,735.212 1376.23,735.212 1380.58,735.212 1385.09,735.212 1390.05,735.212 1395.52,735.212 1401.53,735.212 1408.34,735.212 1416.04,735.212 1424.92,735.212 1435.34,735.212 1447.71,735.212 1462.71,735.212 1481.06,735.212 1502.72,735.212 1525.37,735.212 1546.18,735.212 1563.39,735.212 1584.7,735.212 1606.32,735.212 1627.21,735.212 1648.76,735.212 1667.89,735.212 1687.03,735.212 1703.33,735.212 1717.21,735.212 1729.82,735.212 1740.26,735.212 1749.69,735.212 1757.74,735.212 1764.75,735.212 1771.23,735.212 1776.49,735.212 1782.19,735.212 1786.02,735.212 1790.92,735.212 1794.65,735.212 1798.1,735.212 1801.59,735.212 1804.94,735.212 1807.97,735.212 1811.09,735.212 1813.82,735.212 1816.94,735.212 1819.72,735.212 1823.95,735.212 1827.07,735.212 1829.72,735.212 1832.64,735.212 1834.75,735.212 1837.42,735.212 1839.8,735.212 1845.12,735.212 1848.82,735.212 1852.25,735.212 1856.51,735.212 1859.43,735.212 1863.34,735.212 1866.6,735.212 1871.89,735.212 1875.64,735.212 1880.67,735.212 1885.69,735.212 1891.19,735.212 1897.49,735.212 1904.2,735.212 1911.92,735.212 1920.57,735.212 1930.34,735.212 1941.55,735.212 1954.07,735.212 1967.4,735.212 1979.73,735.212 1994.09,735.212 2010.2,735.212 2026.52,735.212 2043.49,735.212 2059.75,735.212 2075.73,735.212 2090.44,735.212 2104.28,735.212 2116.63,735.212 2127.9,735.212 2136.75,735.212 2145.32,735.212 2152.05,735.212 2158.51,735.212 2164.47,735.212 2169.64,735.212 2174.76,735.212 2179.26,735.212 2182.77,735.212 2185.92,735.212 2189.17,735.212 2191.46,735.212 2194.28,735.212 2196.4,735.212 2199.84,735.212 2202.07,735.212 2205.56,735.212 2208.71,735.212 2210.92,735.212 2213.79,735.212 2215.89,735.212 2219.17,735.212 2221.47,735.212 2226.72,735.212 2230.28,735.212 2233.73,735.212 2238.24,735.212 2240.9,735.212 2244.52,735.212 2247.64,735.212 2253.3,735.212 2256.93,735.212 2261.92,735.212 2267.26,735.212 2272.87,735.212 2279.62,735.212 2286.87,735.212 2295.17,735.212 "/>
<path clip-path="url(#clip160)" d="M1748.15 352.309 L2284.93 352.309 L2284.93 93.1086 L1748.15 93.1086  Z" fill="#ffffff" fill-rule="evenodd" fill-opacity="1"/>
<polyline clip-path="url(#clip160)" style="stroke:#000000; stroke-linecap:round; stroke-linejoin:round; stroke-width:4; stroke-opacity:1; fill:none" points="1748.15,352.309 2284.93,352.309 2284.93,93.1086 1748.15,93.1086 1748.15,352.309 "/>
<polyline clip-path="url(#clip160)" style="stroke:#4063d8; stroke-linecap:round; stroke-linejoin:round; stroke-width:4; stroke-opacity:1; fill:none" points="1770.76,144.949 1906.41,144.949 "/>
<path clip-path="url(#clip160)" d="M1953.04 148.201 L1953.04 150.284 L1933.46 150.284 Q1933.74 154.682 1936.1 156.997 Q1938.48 159.289 1942.72 159.289 Q1945.17 159.289 1947.46 158.687 Q1949.78 158.085 1952.05 156.881 L1952.05 160.909 Q1949.76 161.881 1947.35 162.391 Q1944.94 162.9 1942.46 162.9 Q1936.26 162.9 1932.63 159.289 Q1929.01 155.678 1929.01 149.52 Q1929.01 143.155 1932.44 139.428 Q1935.89 135.678 1941.72 135.678 Q1946.95 135.678 1949.99 139.057 Q1953.04 142.414 1953.04 148.201 M1948.78 146.951 Q1948.74 143.456 1946.82 141.372 Q1944.92 139.289 1941.77 139.289 Q1938.2 139.289 1936.05 141.303 Q1933.92 143.317 1933.6 146.974 L1948.78 146.951 Z" fill="#000000" fill-rule="nonzero" fill-opacity="1" /><path clip-path="url(#clip160)" d="M1975.06 140.284 Q1974.34 139.868 1973.48 139.682 Q1972.65 139.474 1971.63 139.474 Q1968.02 139.474 1966.07 141.835 Q1964.15 144.173 1964.15 148.571 L1964.15 162.229 L1959.87 162.229 L1959.87 136.303 L1964.15 136.303 L1964.15 140.331 Q1965.5 137.969 1967.65 136.835 Q1969.8 135.678 1972.88 135.678 Q1973.32 135.678 1973.85 135.747 Q1974.38 135.794 1975.03 135.909 L1975.06 140.284 Z" fill="#000000" fill-rule="nonzero" fill-opacity="1" /><path clip-path="url(#clip160)" d="M1993.71 140.284 Q1993 139.868 1992.14 139.682 Q1991.31 139.474 1990.29 139.474 Q1986.68 139.474 1984.73 141.835 Q1982.81 144.173 1982.81 148.571 L1982.81 162.229 L1978.53 162.229 L1978.53 136.303 L1982.81 136.303 L1982.81 140.331 Q1984.15 137.969 1986.31 136.835 Q1988.46 135.678 1991.54 135.678 Q1991.98 135.678 1992.51 135.747 Q1993.04 135.794 1993.69 135.909 L1993.71 140.284 Z" fill="#000000" fill-rule="nonzero" fill-opacity="1" /><path clip-path="url(#clip160)" d="M2007.19 139.289 Q2003.76 139.289 2001.77 141.974 Q1999.78 144.636 1999.78 149.289 Q1999.78 153.942 2001.75 156.627 Q2003.74 159.289 2007.19 159.289 Q2010.59 159.289 2012.58 156.604 Q2014.57 153.918 2014.57 149.289 Q2014.57 144.682 2012.58 141.997 Q2010.59 139.289 2007.19 139.289 M2007.19 135.678 Q2012.74 135.678 2015.91 139.289 Q2019.08 142.9 2019.08 149.289 Q2019.08 155.655 2015.91 159.289 Q2012.74 162.9 2007.19 162.9 Q2001.61 162.9 1998.44 159.289 Q1995.29 155.655 1995.29 149.289 Q1995.29 142.9 1998.44 139.289 Q2001.61 135.678 2007.19 135.678 Z" fill="#000000" fill-rule="nonzero" fill-opacity="1" /><path clip-path="url(#clip160)" d="M2041.17 140.284 Q2040.45 139.868 2039.59 139.682 Q2038.76 139.474 2037.74 139.474 Q2034.13 139.474 2032.19 141.835 Q2030.26 144.173 2030.26 148.571 L2030.26 162.229 L2025.98 162.229 L2025.98 136.303 L2030.26 136.303 L2030.26 140.331 Q2031.61 137.969 2033.76 136.835 Q2035.91 135.678 2038.99 135.678 Q2039.43 135.678 2039.96 135.747 Q2040.5 135.794 2041.14 135.909 L2041.17 140.284 Z" fill="#000000" fill-rule="nonzero" fill-opacity="1" /><polyline clip-path="url(#clip160)" style="stroke:#389826; stroke-linecap:round; stroke-linejoin:round; stroke-width:4; stroke-opacity:1; fill:none" points="1770.76,196.789 1906.41,196.789 "/>
<path clip-path="url(#clip160)" d="M1953.04 200.041 L1953.04 202.124 L1933.46 202.124 Q1933.74 206.522 1936.1 208.837 Q1938.48 211.129 1942.72 211.129 Q1945.17 211.129 1947.46 210.527 Q1949.78 209.925 1952.05 208.721 L1952.05 212.749 Q1949.76 213.721 1947.35 214.231 Q1944.94 214.74 1942.46 214.74 Q1936.26 214.74 1932.63 211.129 Q1929.01 207.518 1929.01 201.36 Q1929.01 194.995 1932.44 191.268 Q1935.89 187.518 1941.72 187.518 Q1946.95 187.518 1949.99 190.897 Q1953.04 194.254 1953.04 200.041 M1948.78 198.791 Q1948.74 195.296 1946.82 193.212 Q1944.92 191.129 1941.77 191.129 Q1938.2 191.129 1936.05 193.143 Q1933.92 195.157 1933.6 198.814 L1948.78 198.791 Z" fill="#000000" fill-rule="nonzero" fill-opacity="1" /><path clip-path="url(#clip160)" d="M1975.06 192.124 Q1974.34 191.708 1973.48 191.522 Q1972.65 191.314 1971.63 191.314 Q1968.02 191.314 1966.07 193.675 Q1964.15 196.013 1964.15 200.411 L1964.15 214.069 L1959.87 214.069 L1959.87 188.143 L1964.15 188.143 L1964.15 192.171 Q1965.5 189.809 1967.65 188.675 Q1969.8 187.518 1972.88 187.518 Q1973.32 187.518 1973.85 187.587 Q1974.38 187.634 1975.03 187.749 L1975.06 192.124 Z" fill="#000000" fill-rule="nonzero" fill-opacity="1" /><path clip-path="url(#clip160)" d="M1993.71 192.124 Q1993 191.708 1992.14 191.522 Q1991.31 191.314 1990.29 191.314 Q1986.68 191.314 1984.73 193.675 Q1982.81 196.013 1982.81 200.411 L1982.81 214.069 L1978.53 214.069 L1978.53 188.143 L1982.81 188.143 L1982.81 192.171 Q1984.15 189.809 1986.31 188.675 Q1988.46 187.518 1991.54 187.518 Q1991.98 187.518 1992.51 187.587 Q1993.04 187.634 1993.69 187.749 L1993.71 192.124 Z" fill="#000000" fill-rule="nonzero" fill-opacity="1" /><path clip-path="url(#clip160)" d="M2007.19 191.129 Q2003.76 191.129 2001.77 193.814 Q1999.78 196.476 1999.78 201.129 Q1999.78 205.782 2001.75 208.467 Q2003.74 211.129 2007.19 211.129 Q2010.59 211.129 2012.58 208.444 Q2014.57 205.758 2014.57 201.129 Q2014.57 196.522 2012.58 193.837 Q2010.59 191.129 2007.19 191.129 M2007.19 187.518 Q2012.74 187.518 2015.91 191.129 Q2019.08 194.74 2019.08 201.129 Q2019.08 207.495 2015.91 211.129 Q2012.74 214.74 2007.19 214.74 Q2001.61 214.74 1998.44 211.129 Q1995.29 207.495 1995.29 201.129 Q1995.29 194.74 1998.44 191.129 Q2001.61 187.518 2007.19 187.518 Z" fill="#000000" fill-rule="nonzero" fill-opacity="1" /><path clip-path="url(#clip160)" d="M2041.17 192.124 Q2040.45 191.708 2039.59 191.522 Q2038.76 191.314 2037.74 191.314 Q2034.13 191.314 2032.19 193.675 Q2030.26 196.013 2030.26 200.411 L2030.26 214.069 L2025.98 214.069 L2025.98 188.143 L2030.26 188.143 L2030.26 192.171 Q2031.61 189.809 2033.76 188.675 Q2035.91 187.518 2038.99 187.518 Q2039.43 187.518 2039.96 187.587 Q2040.5 187.634 2041.14 187.749 L2041.17 192.124 Z" fill="#000000" fill-rule="nonzero" fill-opacity="1" /><polyline clip-path="url(#clip160)" style="stroke:#4063d8; stroke-linecap:round; stroke-linejoin:round; stroke-width:4; stroke-opacity:0.2; fill:none" points="1770.76,248.629 1906.41,248.629 "/>
<path clip-path="url(#clip160)" d="M1953.04 251.881 L1953.04 253.964 L1933.46 253.964 Q1933.74 258.362 1936.1 260.677 Q1938.48 262.969 1942.72 262.969 Q1945.17 262.969 1947.46 262.367 Q1949.78 261.765 1952.05 260.561 L1952.05 264.589 Q1949.76 265.561 1947.35 266.071 Q1944.94 266.58 1942.46 266.58 Q1936.26 266.58 1932.63 262.969 Q1929.01 259.358 1929.01 253.2 Q1929.01 246.835 1932.44 243.108 Q1935.89 239.358 1941.72 239.358 Q1946.95 239.358 1949.99 242.737 Q1953.04 246.094 1953.04 251.881 M1948.78 250.631 Q1948.74 247.136 1946.82 245.052 Q1944.92 242.969 1941.77 242.969 Q1938.2 242.969 1936.05 244.983 Q1933.92 246.997 1933.6 250.654 L1948.78 250.631 Z" fill="#000000" fill-rule="nonzero" fill-opacity="1" /><path clip-path="url(#clip160)" d="M1975.06 243.964 Q1974.34 243.548 1973.48 243.362 Q1972.65 243.154 1971.63 243.154 Q1968.02 243.154 1966.07 245.515 Q1964.15 247.853 1964.15 252.251 L1964.15 265.909 L1959.87 265.909 L1959.87 239.983 L1964.15 239.983 L1964.15 244.011 Q1965.5 241.649 1967.65 240.515 Q1969.8 239.358 1972.88 239.358 Q1973.32 239.358 1973.85 239.427 Q1974.38 239.474 1975.03 239.589 L1975.06 243.964 Z" fill="#000000" fill-rule="nonzero" fill-opacity="1" /><path clip-path="url(#clip160)" d="M1993.71 243.964 Q1993 243.548 1992.14 243.362 Q1991.31 243.154 1990.29 243.154 Q1986.68 243.154 1984.73 245.515 Q1982.81 247.853 1982.81 252.251 L1982.81 265.909 L1978.53 265.909 L1978.53 239.983 L1982.81 239.983 L1982.81 244.011 Q1984.15 241.649 1986.31 240.515 Q1988.46 239.358 1991.54 239.358 Q1991.98 239.358 1992.51 239.427 Q1993.04 239.474 1993.69 239.589 L1993.71 243.964 Z" fill="#000000" fill-rule="nonzero" fill-opacity="1" /><path clip-path="url(#clip160)" d="M2007.19 242.969 Q2003.76 242.969 2001.77 245.654 Q1999.78 248.316 1999.78 252.969 Q1999.78 257.622 2001.75 260.307 Q2003.74 262.969 2007.19 262.969 Q2010.59 262.969 2012.58 260.284 Q2014.57 257.598 2014.57 252.969 Q2014.57 248.362 2012.58 245.677 Q2010.59 242.969 2007.19 242.969 M2007.19 239.358 Q2012.74 239.358 2015.91 242.969 Q2019.08 246.58 2019.08 252.969 Q2019.08 259.335 2015.91 262.969 Q2012.74 266.58 2007.19 266.58 Q2001.61 266.58 1998.44 262.969 Q1995.29 259.335 1995.29 252.969 Q1995.29 246.58 1998.44 242.969 Q2001.61 239.358 2007.19 239.358 Z" fill="#000000" fill-rule="nonzero" fill-opacity="1" /><path clip-path="url(#clip160)" d="M2041.17 243.964 Q2040.45 243.548 2039.59 243.362 Q2038.76 243.154 2037.74 243.154 Q2034.13 243.154 2032.19 245.515 Q2030.26 247.853 2030.26 252.251 L2030.26 265.909 L2025.98 265.909 L2025.98 239.983 L2030.26 239.983 L2030.26 244.011 Q2031.61 241.649 2033.76 240.515 Q2035.91 239.358 2038.99 239.358 Q2039.43 239.358 2039.96 239.427 Q2040.5 239.474 2041.14 239.589 L2041.17 243.964 Z" fill="#000000" fill-rule="nonzero" fill-opacity="1" /><path clip-path="url(#clip160)" d="M2082.88 251.881 L2082.88 253.964 L2063.3 253.964 Q2063.57 258.362 2065.94 260.677 Q2068.32 262.969 2072.56 262.969 Q2075.01 262.969 2077.3 262.367 Q2079.62 261.765 2081.88 260.561 L2081.88 264.589 Q2079.59 265.561 2077.19 266.071 Q2074.78 266.58 2072.3 266.58 Q2066.1 266.58 2062.46 262.969 Q2058.85 259.358 2058.85 253.2 Q2058.85 246.835 2062.28 243.108 Q2065.73 239.358 2071.56 239.358 Q2076.79 239.358 2079.82 242.737 Q2082.88 246.094 2082.88 251.881 M2078.62 250.631 Q2078.57 247.136 2076.65 245.052 Q2074.75 242.969 2071.61 242.969 Q2068.04 242.969 2065.89 244.983 Q2063.76 246.997 2063.44 250.654 L2078.62 250.631 Z" fill="#000000" fill-rule="nonzero" fill-opacity="1" /><path clip-path="url(#clip160)" d="M2106.4 240.747 L2106.4 244.774 Q2104.59 243.849 2102.65 243.386 Q2100.7 242.923 2098.62 242.923 Q2095.45 242.923 2093.85 243.895 Q2092.28 244.867 2092.28 246.811 Q2092.28 248.293 2093.41 249.149 Q2094.55 249.983 2097.97 250.747 L2099.43 251.071 Q2103.97 252.043 2105.87 253.825 Q2107.79 255.585 2107.79 258.756 Q2107.79 262.367 2104.92 264.473 Q2102.07 266.58 2097.07 266.58 Q2094.99 266.58 2092.72 266.163 Q2090.47 265.77 2087.97 264.96 L2087.97 260.561 Q2090.33 261.788 2092.62 262.413 Q2094.92 263.015 2097.16 263.015 Q2100.17 263.015 2101.79 261.997 Q2103.41 260.955 2103.41 259.08 Q2103.41 257.344 2102.23 256.418 Q2101.07 255.492 2097.12 254.636 L2095.63 254.288 Q2091.68 253.455 2089.92 251.742 Q2088.16 250.006 2088.16 246.997 Q2088.16 243.339 2090.75 241.349 Q2093.34 239.358 2098.11 239.358 Q2100.47 239.358 2102.56 239.705 Q2104.64 240.052 2106.4 240.747 Z" fill="#000000" fill-rule="nonzero" fill-opacity="1" /><path clip-path="url(#clip160)" d="M2118.78 232.622 L2118.78 239.983 L2127.56 239.983 L2127.56 243.293 L2118.78 243.293 L2118.78 257.367 Q2118.78 260.538 2119.64 261.441 Q2120.52 262.344 2123.18 262.344 L2127.56 262.344 L2127.56 265.909 L2123.18 265.909 Q2118.25 265.909 2116.37 264.08 Q2114.5 262.228 2114.5 257.367 L2114.5 243.293 L2111.37 243.293 L2111.37 239.983 L2114.5 239.983 L2114.5 232.622 L2118.78 232.622 Z" fill="#000000" fill-rule="nonzero" fill-opacity="1" /><path clip-path="url(#clip160)" d="M2133.16 239.983 L2137.42 239.983 L2137.42 265.909 L2133.16 265.909 L2133.16 239.983 M2133.16 229.89 L2137.42 229.89 L2137.42 235.284 L2133.16 235.284 L2133.16 229.89 Z" fill="#000000" fill-rule="nonzero" fill-opacity="1" /><path clip-path="url(#clip160)" d="M2166.51 244.96 Q2168.11 242.089 2170.33 240.724 Q2172.55 239.358 2175.56 239.358 Q2179.62 239.358 2181.81 242.205 Q2184.01 245.029 2184.01 250.261 L2184.01 265.909 L2179.73 265.909 L2179.73 250.399 Q2179.73 246.673 2178.41 244.867 Q2177.09 243.062 2174.38 243.062 Q2171.07 243.062 2169.15 245.261 Q2167.23 247.46 2167.23 251.256 L2167.23 265.909 L2162.95 265.909 L2162.95 250.399 Q2162.95 246.649 2161.63 244.867 Q2160.31 243.062 2157.55 243.062 Q2154.29 243.062 2152.37 245.284 Q2150.45 247.483 2150.45 251.256 L2150.45 265.909 L2146.17 265.909 L2146.17 239.983 L2150.45 239.983 L2150.45 244.011 Q2151.91 241.626 2153.94 240.492 Q2155.98 239.358 2158.78 239.358 Q2161.61 239.358 2163.57 240.793 Q2165.56 242.228 2166.51 244.96 Z" fill="#000000" fill-rule="nonzero" fill-opacity="1" /><path clip-path="url(#clip160)" d="M2204.29 252.876 Q2199.13 252.876 2197.14 254.057 Q2195.15 255.237 2195.15 258.085 Q2195.15 260.353 2196.63 261.696 Q2198.13 263.015 2200.7 263.015 Q2204.24 263.015 2206.37 260.515 Q2208.53 257.992 2208.53 253.825 L2208.53 252.876 L2204.29 252.876 M2212.79 251.117 L2212.79 265.909 L2208.53 265.909 L2208.53 261.973 Q2207.07 264.335 2204.89 265.469 Q2202.72 266.58 2199.57 266.58 Q2195.59 266.58 2193.23 264.358 Q2190.89 262.112 2190.89 258.362 Q2190.89 253.987 2193.8 251.765 Q2196.74 249.543 2202.55 249.543 L2208.53 249.543 L2208.53 249.126 Q2208.53 246.187 2206.58 244.589 Q2204.66 242.969 2201.17 242.969 Q2198.94 242.969 2196.84 243.501 Q2194.73 244.034 2192.79 245.099 L2192.79 241.163 Q2195.12 240.261 2197.32 239.821 Q2199.52 239.358 2201.61 239.358 Q2207.23 239.358 2210.01 242.274 Q2212.79 245.191 2212.79 251.117 Z" fill="#000000" fill-rule="nonzero" fill-opacity="1" /><path clip-path="url(#clip160)" d="M2225.77 232.622 L2225.77 239.983 L2234.55 239.983 L2234.55 243.293 L2225.77 243.293 L2225.77 257.367 Q2225.77 260.538 2226.63 261.441 Q2227.51 262.344 2230.17 262.344 L2234.55 262.344 L2234.55 265.909 L2230.17 265.909 Q2225.24 265.909 2223.36 264.08 Q2221.49 262.228 2221.49 257.367 L2221.49 243.293 L2218.36 243.293 L2218.36 239.983 L2221.49 239.983 L2221.49 232.622 L2225.77 232.622 Z" fill="#000000" fill-rule="nonzero" fill-opacity="1" /><path clip-path="url(#clip160)" d="M2262.32 251.881 L2262.32 253.964 L2242.74 253.964 Q2243.02 258.362 2245.38 260.677 Q2247.76 262.969 2252 262.969 Q2254.45 262.969 2256.74 262.367 Q2259.06 261.765 2261.33 260.561 L2261.33 264.589 Q2259.04 265.561 2256.63 266.071 Q2254.22 266.58 2251.74 266.58 Q2245.54 266.58 2241.91 262.969 Q2238.3 259.358 2238.3 253.2 Q2238.3 246.835 2241.72 243.108 Q2245.17 239.358 2251 239.358 Q2256.23 239.358 2259.27 242.737 Q2262.32 246.094 2262.32 251.881 M2258.06 250.631 Q2258.02 247.136 2256.1 245.052 Q2254.2 242.969 2251.05 242.969 Q2247.49 242.969 2245.33 244.983 Q2243.2 246.997 2242.88 250.654 L2258.06 250.631 Z" fill="#000000" fill-rule="nonzero" fill-opacity="1" /><polyline clip-path="url(#clip160)" style="stroke:#389826; stroke-linecap:round; stroke-linejoin:round; stroke-width:4; stroke-opacity:0.2; fill:none" points="1770.76,300.469 1906.41,300.469 "/>
<path clip-path="url(#clip160)" d="M1953.04 303.721 L1953.04 305.804 L1933.46 305.804 Q1933.74 310.202 1936.1 312.517 Q1938.48 314.809 1942.72 314.809 Q1945.17 314.809 1947.46 314.207 Q1949.78 313.605 1952.05 312.401 L1952.05 316.429 Q1949.76 317.401 1947.35 317.911 Q1944.94 318.42 1942.46 318.42 Q1936.26 318.42 1932.63 314.809 Q1929.01 311.198 1929.01 305.04 Q1929.01 298.675 1932.44 294.948 Q1935.89 291.198 1941.72 291.198 Q1946.95 291.198 1949.99 294.577 Q1953.04 297.934 1953.04 303.721 M1948.78 302.471 Q1948.74 298.976 1946.82 296.892 Q1944.92 294.809 1941.77 294.809 Q1938.2 294.809 1936.05 296.823 Q1933.92 298.837 1933.6 302.494 L1948.78 302.471 Z" fill="#000000" fill-rule="nonzero" fill-opacity="1" /><path clip-path="url(#clip160)" d="M1975.06 295.804 Q1974.34 295.388 1973.48 295.202 Q1972.65 294.994 1971.63 294.994 Q1968.02 294.994 1966.07 297.355 Q1964.15 299.693 1964.15 304.091 L1964.15 317.749 L1959.87 317.749 L1959.87 291.823 L1964.15 291.823 L1964.15 295.851 Q1965.5 293.489 1967.65 292.355 Q1969.8 291.198 1972.88 291.198 Q1973.32 291.198 1973.85 291.267 Q1974.38 291.314 1975.03 291.429 L1975.06 295.804 Z" fill="#000000" fill-rule="nonzero" fill-opacity="1" /><path clip-path="url(#clip160)" d="M1993.71 295.804 Q1993 295.388 1992.14 295.202 Q1991.31 294.994 1990.29 294.994 Q1986.68 294.994 1984.73 297.355 Q1982.81 299.693 1982.81 304.091 L1982.81 317.749 L1978.53 317.749 L1978.53 291.823 L1982.81 291.823 L1982.81 295.851 Q1984.15 293.489 1986.31 292.355 Q1988.46 291.198 1991.54 291.198 Q1991.98 291.198 1992.51 291.267 Q1993.04 291.314 1993.69 291.429 L1993.71 295.804 Z" fill="#000000" fill-rule="nonzero" fill-opacity="1" /><path clip-path="url(#clip160)" d="M2007.19 294.809 Q2003.76 294.809 2001.77 297.494 Q1999.78 300.156 1999.78 304.809 Q1999.78 309.462 2001.75 312.147 Q2003.74 314.809 2007.19 314.809 Q2010.59 314.809 2012.58 312.124 Q2014.57 309.438 2014.57 304.809 Q2014.57 300.202 2012.58 297.517 Q2010.59 294.809 2007.19 294.809 M2007.19 291.198 Q2012.74 291.198 2015.91 294.809 Q2019.08 298.42 2019.08 304.809 Q2019.08 311.175 2015.91 314.809 Q2012.74 318.42 2007.19 318.42 Q2001.61 318.42 1998.44 314.809 Q1995.29 311.175 1995.29 304.809 Q1995.29 298.42 1998.44 294.809 Q2001.61 291.198 2007.19 291.198 Z" fill="#000000" fill-rule="nonzero" fill-opacity="1" /><path clip-path="url(#clip160)" d="M2041.17 295.804 Q2040.45 295.388 2039.59 295.202 Q2038.76 294.994 2037.74 294.994 Q2034.13 294.994 2032.19 297.355 Q2030.26 299.693 2030.26 304.091 L2030.26 317.749 L2025.98 317.749 L2025.98 291.823 L2030.26 291.823 L2030.26 295.851 Q2031.61 293.489 2033.76 292.355 Q2035.91 291.198 2038.99 291.198 Q2039.43 291.198 2039.96 291.267 Q2040.5 291.314 2041.14 291.429 L2041.17 295.804 Z" fill="#000000" fill-rule="nonzero" fill-opacity="1" /><path clip-path="url(#clip160)" d="M2082.88 303.721 L2082.88 305.804 L2063.3 305.804 Q2063.57 310.202 2065.94 312.517 Q2068.32 314.809 2072.56 314.809 Q2075.01 314.809 2077.3 314.207 Q2079.62 313.605 2081.88 312.401 L2081.88 316.429 Q2079.59 317.401 2077.19 317.911 Q2074.78 318.42 2072.3 318.42 Q2066.1 318.42 2062.46 314.809 Q2058.85 311.198 2058.85 305.04 Q2058.85 298.675 2062.28 294.948 Q2065.73 291.198 2071.56 291.198 Q2076.79 291.198 2079.82 294.577 Q2082.88 297.934 2082.88 303.721 M2078.62 302.471 Q2078.57 298.976 2076.65 296.892 Q2074.75 294.809 2071.61 294.809 Q2068.04 294.809 2065.89 296.823 Q2063.76 298.837 2063.44 302.494 L2078.62 302.471 Z" fill="#000000" fill-rule="nonzero" fill-opacity="1" /><path clip-path="url(#clip160)" d="M2106.4 292.587 L2106.4 296.614 Q2104.59 295.689 2102.65 295.226 Q2100.7 294.763 2098.62 294.763 Q2095.45 294.763 2093.85 295.735 Q2092.28 296.707 2092.28 298.651 Q2092.28 300.133 2093.41 300.989 Q2094.55 301.823 2097.97 302.587 L2099.43 302.911 Q2103.97 303.883 2105.87 305.665 Q2107.79 307.425 2107.79 310.596 Q2107.79 314.207 2104.92 316.313 Q2102.07 318.42 2097.07 318.42 Q2094.99 318.42 2092.72 318.003 Q2090.47 317.61 2087.97 316.8 L2087.97 312.401 Q2090.33 313.628 2092.62 314.253 Q2094.92 314.855 2097.16 314.855 Q2100.17 314.855 2101.79 313.837 Q2103.41 312.795 2103.41 310.92 Q2103.41 309.184 2102.23 308.258 Q2101.07 307.332 2097.12 306.476 L2095.63 306.128 Q2091.68 305.295 2089.92 303.582 Q2088.16 301.846 2088.16 298.837 Q2088.16 295.179 2090.75 293.189 Q2093.34 291.198 2098.11 291.198 Q2100.47 291.198 2102.56 291.545 Q2104.64 291.892 2106.4 292.587 Z" fill="#000000" fill-rule="nonzero" fill-opacity="1" /><path clip-path="url(#clip160)" d="M2118.78 284.462 L2118.78 291.823 L2127.56 291.823 L2127.56 295.133 L2118.78 295.133 L2118.78 309.207 Q2118.78 312.378 2119.64 313.281 Q2120.52 314.184 2123.18 314.184 L2127.56 314.184 L2127.56 317.749 L2123.18 317.749 Q2118.25 317.749 2116.37 315.92 Q2114.5 314.068 2114.5 309.207 L2114.5 295.133 L2111.37 295.133 L2111.37 291.823 L2114.5 291.823 L2114.5 284.462 L2118.78 284.462 Z" fill="#000000" fill-rule="nonzero" fill-opacity="1" /><path clip-path="url(#clip160)" d="M2133.16 291.823 L2137.42 291.823 L2137.42 317.749 L2133.16 317.749 L2133.16 291.823 M2133.16 281.73 L2137.42 281.73 L2137.42 287.124 L2133.16 287.124 L2133.16 281.73 Z" fill="#000000" fill-rule="nonzero" fill-opacity="1" /><path clip-path="url(#clip160)" d="M2166.51 296.8 Q2168.11 293.929 2170.33 292.564 Q2172.55 291.198 2175.56 291.198 Q2179.62 291.198 2181.81 294.045 Q2184.01 296.869 2184.01 302.101 L2184.01 317.749 L2179.73 317.749 L2179.73 302.239 Q2179.73 298.513 2178.41 296.707 Q2177.09 294.902 2174.38 294.902 Q2171.07 294.902 2169.15 297.101 Q2167.23 299.3 2167.23 303.096 L2167.23 317.749 L2162.95 317.749 L2162.95 302.239 Q2162.95 298.489 2161.63 296.707 Q2160.31 294.902 2157.55 294.902 Q2154.29 294.902 2152.37 297.124 Q2150.45 299.323 2150.45 303.096 L2150.45 317.749 L2146.17 317.749 L2146.17 291.823 L2150.45 291.823 L2150.45 295.851 Q2151.91 293.466 2153.94 292.332 Q2155.98 291.198 2158.78 291.198 Q2161.61 291.198 2163.57 292.633 Q2165.56 294.068 2166.51 296.8 Z" fill="#000000" fill-rule="nonzero" fill-opacity="1" /><path clip-path="url(#clip160)" d="M2204.29 304.716 Q2199.13 304.716 2197.14 305.897 Q2195.15 307.077 2195.15 309.925 Q2195.15 312.193 2196.63 313.536 Q2198.13 314.855 2200.7 314.855 Q2204.24 314.855 2206.37 312.355 Q2208.53 309.832 2208.53 305.665 L2208.53 304.716 L2204.29 304.716 M2212.79 302.957 L2212.79 317.749 L2208.53 317.749 L2208.53 313.813 Q2207.07 316.175 2204.89 317.309 Q2202.72 318.42 2199.57 318.42 Q2195.59 318.42 2193.23 316.198 Q2190.89 313.952 2190.89 310.202 Q2190.89 305.827 2193.8 303.605 Q2196.74 301.383 2202.55 301.383 L2208.53 301.383 L2208.53 300.966 Q2208.53 298.027 2206.58 296.429 Q2204.66 294.809 2201.17 294.809 Q2198.94 294.809 2196.84 295.341 Q2194.73 295.874 2192.79 296.939 L2192.79 293.003 Q2195.12 292.101 2197.32 291.661 Q2199.52 291.198 2201.61 291.198 Q2207.23 291.198 2210.01 294.114 Q2212.79 297.031 2212.79 302.957 Z" fill="#000000" fill-rule="nonzero" fill-opacity="1" /><path clip-path="url(#clip160)" d="M2225.77 284.462 L2225.77 291.823 L2234.55 291.823 L2234.55 295.133 L2225.77 295.133 L2225.77 309.207 Q2225.77 312.378 2226.63 313.281 Q2227.51 314.184 2230.17 314.184 L2234.55 314.184 L2234.55 317.749 L2230.17 317.749 Q2225.24 317.749 2223.36 315.92 Q2221.49 314.068 2221.49 309.207 L2221.49 295.133 L2218.36 295.133 L2218.36 291.823 L2221.49 291.823 L2221.49 284.462 L2225.77 284.462 Z" fill="#000000" fill-rule="nonzero" fill-opacity="1" /><path clip-path="url(#clip160)" d="M2262.32 303.721 L2262.32 305.804 L2242.74 305.804 Q2243.02 310.202 2245.38 312.517 Q2247.76 314.809 2252 314.809 Q2254.45 314.809 2256.74 314.207 Q2259.06 313.605 2261.33 312.401 L2261.33 316.429 Q2259.04 317.401 2256.63 317.911 Q2254.22 318.42 2251.74 318.42 Q2245.54 318.42 2241.91 314.809 Q2238.3 311.198 2238.3 305.04 Q2238.3 298.675 2241.72 294.948 Q2245.17 291.198 2251 291.198 Q2256.23 291.198 2259.27 294.577 Q2262.32 297.934 2262.32 303.721 M2258.06 302.471 Q2258.02 298.976 2256.1 296.892 Q2254.2 294.809 2251.05 294.809 Q2247.49 294.809 2245.33 296.823 Q2243.2 298.837 2242.88 302.494 L2258.06 302.471 Z" fill="#000000" fill-rule="nonzero" fill-opacity="1" /></svg>
