<?xml version="1.0" encoding="utf-8"?>
<svg xmlns="http://www.w3.org/2000/svg" xmlns:xlink="http://www.w3.org/1999/xlink" width="900" height="300" viewBox="0 0 3600 1200">
<defs>
  <clipPath id="clip500">
    <rect x="0" y="0" width="3600" height="1200"/>
  </clipPath>
</defs>
<path clip-path="url(#clip500)" d="M0 1200 L3600 1200 L3600 0 L0 0  Z" fill="#ffffff" fill-rule="evenodd" fill-opacity="1"/>
<defs>
  <clipPath id="clip501">
    <rect x="720" y="0" width="2521" height="1200"/>
  </clipPath>
</defs>
<path clip-path="url(#clip500)" d="M328.268 1068.22 L3552.76 1068.22 L3552.76 47.2441 L328.268 47.2441  Z" fill="#ffffff" fill-rule="evenodd" fill-opacity="1"/>
<defs>
  <clipPath id="clip502">
    <rect x="328" y="47" width="3225" height="1022"/>
  </clipPath>
</defs>
<polyline clip-path="url(#clip502)" style="stroke:#000000; stroke-linecap:round; stroke-linejoin:round; stroke-width:2; stroke-opacity:0.1; fill:none" points="419.527,1068.22 419.527,47.2441 "/>
<polyline clip-path="url(#clip502)" style="stroke:#000000; stroke-linecap:round; stroke-linejoin:round; stroke-width:2; stroke-opacity:0.1; fill:none" points="1180.02,1068.22 1180.02,47.2441 "/>
<polyline clip-path="url(#clip502)" style="stroke:#000000; stroke-linecap:round; stroke-linejoin:round; stroke-width:2; stroke-opacity:0.1; fill:none" points="1940.51,1068.22 1940.51,47.2441 "/>
<polyline clip-path="url(#clip502)" style="stroke:#000000; stroke-linecap:round; stroke-linejoin:round; stroke-width:2; stroke-opacity:0.1; fill:none" points="2701,1068.22 2701,47.2441 "/>
<polyline clip-path="url(#clip502)" style="stroke:#000000; stroke-linecap:round; stroke-linejoin:round; stroke-width:2; stroke-opacity:0.1; fill:none" points="3461.5,1068.22 3461.5,47.2441 "/>
<polyline clip-path="url(#clip500)" style="stroke:#000000; stroke-linecap:round; stroke-linejoin:round; stroke-width:4; stroke-opacity:1; fill:none" points="328.268,1068.22 3552.76,1068.22 "/>
<polyline clip-path="url(#clip500)" style="stroke:#000000; stroke-linecap:round; stroke-linejoin:round; stroke-width:4; stroke-opacity:1; fill:none" points="419.527,1068.22 419.527,1049.32 "/>
<polyline clip-path="url(#clip500)" style="stroke:#000000; stroke-linecap:round; stroke-linejoin:round; stroke-width:4; stroke-opacity:1; fill:none" points="1180.02,1068.22 1180.02,1049.32 "/>
<polyline clip-path="url(#clip500)" style="stroke:#000000; stroke-linecap:round; stroke-linejoin:round; stroke-width:4; stroke-opacity:1; fill:none" points="1940.51,1068.22 1940.51,1049.32 "/>
<polyline clip-path="url(#clip500)" style="stroke:#000000; stroke-linecap:round; stroke-linejoin:round; stroke-width:4; stroke-opacity:1; fill:none" points="2701,1068.22 2701,1049.32 "/>
<polyline clip-path="url(#clip500)" style="stroke:#000000; stroke-linecap:round; stroke-linejoin:round; stroke-width:4; stroke-opacity:1; fill:none" points="3461.5,1068.22 3461.5,1049.32 "/>
<path clip-path="url(#clip500)" d="M419.527 1108.74 Q415.916 1108.74 414.087 1112.3 Q412.281 1115.84 412.281 1122.97 Q412.281 1130.08 414.087 1133.65 Q415.916 1137.19 419.527 1137.19 Q423.161 1137.19 424.967 1133.65 Q426.795 1130.08 426.795 1122.97 Q426.795 1115.84 424.967 1112.3 Q423.161 1108.74 419.527 1108.74 M419.527 1105.03 Q425.337 1105.03 428.392 1109.64 Q431.471 1114.22 431.471 1122.97 Q431.471 1131.7 428.392 1136.31 Q425.337 1140.89 419.527 1140.89 Q413.717 1140.89 410.638 1136.31 Q407.582 1131.7 407.582 1122.97 Q407.582 1114.22 410.638 1109.64 Q413.717 1105.03 419.527 1105.03 Z" fill="#000000" fill-rule="nonzero" fill-opacity="1" /><path clip-path="url(#clip500)" d="M1170.3 1105.66 L1188.65 1105.66 L1188.65 1109.6 L1174.58 1109.6 L1174.58 1118.07 Q1175.6 1117.72 1176.62 1117.56 Q1177.64 1117.37 1178.65 1117.37 Q1184.44 1117.37 1187.82 1120.54 Q1191.2 1123.72 1191.2 1129.13 Q1191.2 1134.71 1187.73 1137.81 Q1184.26 1140.89 1177.94 1140.89 Q1175.76 1140.89 1173.49 1140.52 Q1171.25 1140.15 1168.84 1139.41 L1168.84 1134.71 Q1170.92 1135.84 1173.14 1136.4 Q1175.37 1136.96 1177.84 1136.96 Q1181.85 1136.96 1184.19 1134.85 Q1186.52 1132.74 1186.52 1129.13 Q1186.52 1125.52 1184.19 1123.41 Q1181.85 1121.31 1177.84 1121.31 Q1175.97 1121.31 1174.09 1121.72 Q1172.24 1122.14 1170.3 1123.02 L1170.3 1105.66 Z" fill="#000000" fill-rule="nonzero" fill-opacity="1" /><path clip-path="url(#clip500)" d="M1915.2 1136.28 L1922.84 1136.28 L1922.84 1109.92 L1914.53 1111.59 L1914.53 1107.33 L1922.79 1105.66 L1927.47 1105.66 L1927.47 1136.28 L1935.11 1136.28 L1935.11 1140.22 L1915.2 1140.22 L1915.2 1136.28 Z" fill="#000000" fill-rule="nonzero" fill-opacity="1" /><path clip-path="url(#clip500)" d="M1954.55 1108.74 Q1950.94 1108.74 1949.11 1112.3 Q1947.31 1115.84 1947.31 1122.97 Q1947.31 1130.08 1949.11 1133.65 Q1950.94 1137.19 1954.55 1137.19 Q1958.19 1137.19 1959.99 1133.65 Q1961.82 1130.08 1961.82 1122.97 Q1961.82 1115.84 1959.99 1112.3 Q1958.19 1108.74 1954.55 1108.74 M1954.55 1105.03 Q1960.36 1105.03 1963.42 1109.64 Q1966.5 1114.22 1966.5 1122.97 Q1966.5 1131.7 1963.42 1136.31 Q1960.36 1140.89 1954.55 1140.89 Q1948.74 1140.89 1945.66 1136.31 Q1942.61 1131.7 1942.61 1122.97 Q1942.61 1114.22 1945.66 1109.64 Q1948.74 1105.03 1954.55 1105.03 Z" fill="#000000" fill-rule="nonzero" fill-opacity="1" /><path clip-path="url(#clip500)" d="M2676.19 1136.28 L2683.83 1136.28 L2683.83 1109.92 L2675.52 1111.59 L2675.52 1107.33 L2683.78 1105.66 L2688.46 1105.66 L2688.46 1136.28 L2696.1 1136.28 L2696.1 1140.22 L2676.19 1140.22 L2676.19 1136.28 Z" fill="#000000" fill-rule="nonzero" fill-opacity="1" /><path clip-path="url(#clip500)" d="M2705.59 1105.66 L2723.94 1105.66 L2723.94 1109.6 L2709.87 1109.6 L2709.87 1118.07 Q2710.89 1117.72 2711.91 1117.56 Q2712.93 1117.37 2713.94 1117.37 Q2719.73 1117.37 2723.11 1120.54 Q2726.49 1123.72 2726.49 1129.13 Q2726.49 1134.71 2723.02 1137.81 Q2719.55 1140.89 2713.23 1140.89 Q2711.05 1140.89 2708.78 1140.52 Q2706.54 1140.15 2704.13 1139.41 L2704.13 1134.71 Q2706.21 1135.84 2708.43 1136.4 Q2710.66 1136.96 2713.13 1136.96 Q2717.14 1136.96 2719.48 1134.85 Q2721.81 1132.74 2721.81 1129.13 Q2721.81 1125.52 2719.48 1123.41 Q2717.14 1121.31 2713.13 1121.31 Q2711.26 1121.31 2709.38 1121.72 Q2707.53 1122.14 2705.59 1123.02 L2705.59 1105.66 Z" fill="#000000" fill-rule="nonzero" fill-opacity="1" /><path clip-path="url(#clip500)" d="M3440.27 1136.28 L3456.59 1136.28 L3456.59 1140.22 L3434.65 1140.22 L3434.65 1136.28 Q3437.31 1133.53 3441.89 1128.9 Q3446.5 1124.25 3447.68 1122.91 Q3449.92 1120.38 3450.8 1118.65 Q3451.71 1116.89 3451.71 1115.2 Q3451.71 1112.44 3449.76 1110.71 Q3447.84 1108.97 3444.74 1108.97 Q3442.54 1108.97 3440.08 1109.73 Q3437.65 1110.5 3434.88 1112.05 L3434.88 1107.33 Q3437.7 1106.19 3440.15 1105.61 Q3442.61 1105.03 3444.65 1105.03 Q3450.02 1105.03 3453.21 1107.72 Q3456.4 1110.41 3456.4 1114.9 Q3456.4 1117.03 3455.59 1118.95 Q3454.81 1120.84 3452.7 1123.44 Q3452.12 1124.11 3449.02 1127.33 Q3445.92 1130.52 3440.27 1136.28 Z" fill="#000000" fill-rule="nonzero" fill-opacity="1" /><path clip-path="url(#clip500)" d="M3476.4 1108.74 Q3472.79 1108.74 3470.96 1112.3 Q3469.16 1115.84 3469.16 1122.97 Q3469.16 1130.08 3470.96 1133.65 Q3472.79 1137.19 3476.4 1137.19 Q3480.04 1137.19 3481.84 1133.65 Q3483.67 1130.08 3483.67 1122.97 Q3483.67 1115.84 3481.84 1112.3 Q3480.04 1108.74 3476.4 1108.74 M3476.4 1105.03 Q3482.21 1105.03 3485.27 1109.64 Q3488.35 1114.22 3488.35 1122.97 Q3488.35 1131.7 3485.27 1136.31 Q3482.21 1140.89 3476.4 1140.89 Q3470.59 1140.89 3467.52 1136.31 Q3464.46 1131.7 3464.46 1122.97 Q3464.46 1114.22 3467.52 1109.64 Q3470.59 1105.03 3476.4 1105.03 Z" fill="#000000" fill-rule="nonzero" fill-opacity="1" /><path clip-path="url(#clip500)" d="M1939.57 1185.31 L1939.57 1195.44 L1951.64 1195.44 L1951.64 1199.99 L1939.57 1199.99 L1939.57 1219.34 Q1939.57 1223.7 1940.75 1224.94 Q1941.96 1226.18 1945.62 1226.18 L1951.64 1226.18 L1951.64 1231.08 L1945.62 1231.08 Q1938.84 1231.08 1936.26 1228.57 Q1933.68 1226.02 1933.68 1219.34 L1933.68 1199.99 L1929.39 1199.99 L1929.39 1195.44 L1933.68 1195.44 L1933.68 1185.31 L1939.57 1185.31 Z" fill="#000000" fill-rule="nonzero" fill-opacity="1" /><polyline clip-path="url(#clip502)" style="stroke:#000000; stroke-linecap:round; stroke-linejoin:round; stroke-width:2; stroke-opacity:0.1; fill:none" points="328.268,1039.32 3552.76,1039.32 "/>
<polyline clip-path="url(#clip502)" style="stroke:#000000; stroke-linecap:round; stroke-linejoin:round; stroke-width:2; stroke-opacity:0.1; fill:none" points="328.268,797.914 3552.76,797.914 "/>
<polyline clip-path="url(#clip502)" style="stroke:#000000; stroke-linecap:round; stroke-linejoin:round; stroke-width:2; stroke-opacity:0.1; fill:none" points="328.268,556.503 3552.76,556.503 "/>
<polyline clip-path="url(#clip502)" style="stroke:#000000; stroke-linecap:round; stroke-linejoin:round; stroke-width:2; stroke-opacity:0.1; fill:none" points="328.268,315.092 3552.76,315.092 "/>
<polyline clip-path="url(#clip502)" style="stroke:#000000; stroke-linecap:round; stroke-linejoin:round; stroke-width:2; stroke-opacity:0.1; fill:none" points="328.268,73.6812 3552.76,73.6812 "/>
<polyline clip-path="url(#clip500)" style="stroke:#000000; stroke-linecap:round; stroke-linejoin:round; stroke-width:4; stroke-opacity:1; fill:none" points="328.268,1068.22 328.268,47.2441 "/>
<polyline clip-path="url(#clip500)" style="stroke:#000000; stroke-linecap:round; stroke-linejoin:round; stroke-width:4; stroke-opacity:1; fill:none" points="328.268,1039.32 347.165,1039.32 "/>
<polyline clip-path="url(#clip500)" style="stroke:#000000; stroke-linecap:round; stroke-linejoin:round; stroke-width:4; stroke-opacity:1; fill:none" points="328.268,797.914 347.165,797.914 "/>
<polyline clip-path="url(#clip500)" style="stroke:#000000; stroke-linecap:round; stroke-linejoin:round; stroke-width:4; stroke-opacity:1; fill:none" points="328.268,556.503 347.165,556.503 "/>
<polyline clip-path="url(#clip500)" style="stroke:#000000; stroke-linecap:round; stroke-linejoin:round; stroke-width:4; stroke-opacity:1; fill:none" points="328.268,315.092 347.165,315.092 "/>
<polyline clip-path="url(#clip500)" style="stroke:#000000; stroke-linecap:round; stroke-linejoin:round; stroke-width:4; stroke-opacity:1; fill:none" points="328.268,73.6812 347.165,73.6812 "/>
<path clip-path="url(#clip500)" d="M96.4445 1025.12 Q92.8334 1025.12 91.0048 1028.69 Q89.1992 1032.23 89.1992 1039.36 Q89.1992 1046.47 91.0048 1050.03 Q92.8334 1053.57 96.4445 1053.57 Q100.079 1053.57 101.884 1050.03 Q103.713 1046.47 103.713 1039.36 Q103.713 1032.23 101.884 1028.69 Q100.079 1025.12 96.4445 1025.12 M96.4445 1021.42 Q102.255 1021.42 105.31 1026.03 Q108.389 1030.61 108.389 1039.36 Q108.389 1048.09 105.31 1052.69 Q102.255 1057.28 96.4445 1057.28 Q90.6344 1057.28 87.5557 1052.69 Q84.5002 1048.09 84.5002 1039.36 Q84.5002 1030.61 87.5557 1026.03 Q90.6344 1021.42 96.4445 1021.42 Z" fill="#000000" fill-rule="nonzero" fill-opacity="1" /><path clip-path="url(#clip500)" d="M116.606 1050.72 L121.491 1050.72 L121.491 1056.6 L116.606 1056.6 L116.606 1050.72 Z" fill="#000000" fill-rule="nonzero" fill-opacity="1" /><path clip-path="url(#clip500)" d="M141.676 1025.12 Q138.065 1025.12 136.236 1028.69 Q134.43 1032.23 134.43 1039.36 Q134.43 1046.47 136.236 1050.03 Q138.065 1053.57 141.676 1053.57 Q145.31 1053.57 147.116 1050.03 Q148.944 1046.47 148.944 1039.36 Q148.944 1032.23 147.116 1028.69 Q145.31 1025.12 141.676 1025.12 M141.676 1021.42 Q147.486 1021.42 150.541 1026.03 Q153.62 1030.61 153.62 1039.36 Q153.62 1048.09 150.541 1052.69 Q147.486 1057.28 141.676 1057.28 Q135.866 1057.28 132.787 1052.69 Q129.731 1048.09 129.731 1039.36 Q129.731 1030.61 132.787 1026.03 Q135.866 1021.42 141.676 1021.42 Z" fill="#000000" fill-rule="nonzero" fill-opacity="1" /><path clip-path="url(#clip500)" d="M171.838 1025.12 Q168.227 1025.12 166.398 1028.69 Q164.592 1032.23 164.592 1039.36 Q164.592 1046.47 166.398 1050.03 Q168.227 1053.57 171.838 1053.57 Q175.472 1053.57 177.277 1050.03 Q179.106 1046.47 179.106 1039.36 Q179.106 1032.23 177.277 1028.69 Q175.472 1025.12 171.838 1025.12 M171.838 1021.42 Q177.648 1021.42 180.703 1026.03 Q183.782 1030.61 183.782 1039.36 Q183.782 1048.09 180.703 1052.69 Q177.648 1057.28 171.838 1057.28 Q166.027 1057.28 162.949 1052.69 Q159.893 1048.09 159.893 1039.36 Q159.893 1030.61 162.949 1026.03 Q166.027 1021.42 171.838 1021.42 Z" fill="#000000" fill-rule="nonzero" fill-opacity="1" /><path clip-path="url(#clip500)" d="M202 1025.12 Q198.388 1025.12 196.56 1028.69 Q194.754 1032.23 194.754 1039.36 Q194.754 1046.47 196.56 1050.03 Q198.388 1053.57 202 1053.57 Q205.634 1053.57 207.439 1050.03 Q209.268 1046.47 209.268 1039.36 Q209.268 1032.23 207.439 1028.69 Q205.634 1025.12 202 1025.12 M202 1021.42 Q207.81 1021.42 210.865 1026.03 Q213.944 1030.61 213.944 1039.36 Q213.944 1048.09 210.865 1052.69 Q207.81 1057.28 202 1057.28 Q196.189 1057.28 193.111 1052.69 Q190.055 1048.09 190.055 1039.36 Q190.055 1030.61 193.111 1026.03 Q196.189 1021.42 202 1021.42 Z" fill="#000000" fill-rule="nonzero" fill-opacity="1" /><path clip-path="url(#clip500)" d="M232.161 1025.12 Q228.55 1025.12 226.722 1028.69 Q224.916 1032.23 224.916 1039.36 Q224.916 1046.47 226.722 1050.03 Q228.55 1053.57 232.161 1053.57 Q235.796 1053.57 237.601 1050.03 Q239.43 1046.47 239.43 1039.36 Q239.43 1032.23 237.601 1028.69 Q235.796 1025.12 232.161 1025.12 M232.161 1021.42 Q237.972 1021.42 241.027 1026.03 Q244.106 1030.61 244.106 1039.36 Q244.106 1048.09 241.027 1052.69 Q237.972 1057.28 232.161 1057.28 Q226.351 1057.28 223.273 1052.69 Q220.217 1048.09 220.217 1039.36 Q220.217 1030.61 223.273 1026.03 Q226.351 1021.42 232.161 1021.42 Z" fill="#000000" fill-rule="nonzero" fill-opacity="1" /><path clip-path="url(#clip500)" d="M262.323 1025.12 Q258.712 1025.12 256.883 1028.69 Q255.078 1032.23 255.078 1039.36 Q255.078 1046.47 256.883 1050.03 Q258.712 1053.57 262.323 1053.57 Q265.958 1053.57 267.763 1050.03 Q269.592 1046.47 269.592 1039.36 Q269.592 1032.23 267.763 1028.69 Q265.958 1025.12 262.323 1025.12 M262.323 1021.42 Q268.133 1021.42 271.189 1026.03 Q274.268 1030.61 274.268 1039.36 Q274.268 1048.09 271.189 1052.69 Q268.133 1057.28 262.323 1057.28 Q256.513 1057.28 253.434 1052.69 Q250.379 1048.09 250.379 1039.36 Q250.379 1030.61 253.434 1026.03 Q256.513 1021.42 262.323 1021.42 Z" fill="#000000" fill-rule="nonzero" fill-opacity="1" /><path clip-path="url(#clip500)" d="M97.4399 783.712 Q93.8288 783.712 92.0001 787.277 Q90.1946 790.819 90.1946 797.948 Q90.1946 805.055 92.0001 808.619 Q93.8288 812.161 97.4399 812.161 Q101.074 812.161 102.88 808.619 Q104.708 805.055 104.708 797.948 Q104.708 790.819 102.88 787.277 Q101.074 783.712 97.4399 783.712 M97.4399 780.009 Q103.25 780.009 106.306 784.615 Q109.384 789.198 109.384 797.948 Q109.384 806.675 106.306 811.282 Q103.25 815.865 97.4399 815.865 Q91.6297 815.865 88.5511 811.282 Q85.4955 806.675 85.4955 797.948 Q85.4955 789.198 88.5511 784.615 Q91.6297 780.009 97.4399 780.009 Z" fill="#000000" fill-rule="nonzero" fill-opacity="1" /><path clip-path="url(#clip500)" d="M117.602 809.314 L122.486 809.314 L122.486 815.194 L117.602 815.194 L117.602 809.314 Z" fill="#000000" fill-rule="nonzero" fill-opacity="1" /><path clip-path="url(#clip500)" d="M142.671 783.712 Q139.06 783.712 137.231 787.277 Q135.426 790.819 135.426 797.948 Q135.426 805.055 137.231 808.619 Q139.06 812.161 142.671 812.161 Q146.305 812.161 148.111 808.619 Q149.94 805.055 149.94 797.948 Q149.94 790.819 148.111 787.277 Q146.305 783.712 142.671 783.712 M142.671 780.009 Q148.481 780.009 151.537 784.615 Q154.616 789.198 154.616 797.948 Q154.616 806.675 151.537 811.282 Q148.481 815.865 142.671 815.865 Q136.861 815.865 133.782 811.282 Q130.727 806.675 130.727 797.948 Q130.727 789.198 133.782 784.615 Q136.861 780.009 142.671 780.009 Z" fill="#000000" fill-rule="nonzero" fill-opacity="1" /><path clip-path="url(#clip500)" d="M172.833 783.712 Q169.222 783.712 167.393 787.277 Q165.588 790.819 165.588 797.948 Q165.588 805.055 167.393 808.619 Q169.222 812.161 172.833 812.161 Q176.467 812.161 178.273 808.619 Q180.101 805.055 180.101 797.948 Q180.101 790.819 178.273 787.277 Q176.467 783.712 172.833 783.712 M172.833 780.009 Q178.643 780.009 181.699 784.615 Q184.777 789.198 184.777 797.948 Q184.777 806.675 181.699 811.282 Q178.643 815.865 172.833 815.865 Q167.023 815.865 163.944 811.282 Q160.889 806.675 160.889 797.948 Q160.889 789.198 163.944 784.615 Q167.023 780.009 172.833 780.009 Z" fill="#000000" fill-rule="nonzero" fill-opacity="1" /><path clip-path="url(#clip500)" d="M202.995 783.712 Q199.384 783.712 197.555 787.277 Q195.75 790.819 195.75 797.948 Q195.75 805.055 197.555 808.619 Q199.384 812.161 202.995 812.161 Q206.629 812.161 208.435 808.619 Q210.263 805.055 210.263 797.948 Q210.263 790.819 208.435 787.277 Q206.629 783.712 202.995 783.712 M202.995 780.009 Q208.805 780.009 211.861 784.615 Q214.939 789.198 214.939 797.948 Q214.939 806.675 211.861 811.282 Q208.805 815.865 202.995 815.865 Q197.185 815.865 194.106 811.282 Q191.051 806.675 191.051 797.948 Q191.051 789.198 194.106 784.615 Q197.185 780.009 202.995 780.009 Z" fill="#000000" fill-rule="nonzero" fill-opacity="1" /><path clip-path="url(#clip500)" d="M227.185 811.258 L243.504 811.258 L243.504 815.194 L221.56 815.194 L221.56 811.258 Q224.222 808.504 228.805 803.874 Q233.411 799.221 234.592 797.879 Q236.837 795.356 237.717 793.62 Q238.62 791.86 238.62 790.171 Q238.62 787.416 236.675 785.68 Q234.754 783.944 231.652 783.944 Q229.453 783.944 226.999 784.708 Q224.569 785.471 221.791 787.022 L221.791 782.3 Q224.615 781.166 227.069 780.587 Q229.523 780.009 231.56 780.009 Q236.93 780.009 240.124 782.694 Q243.319 785.379 243.319 789.87 Q243.319 791.999 242.509 793.92 Q241.722 795.819 239.615 798.411 Q239.036 799.083 235.935 802.3 Q232.833 805.495 227.185 811.258 Z" fill="#000000" fill-rule="nonzero" fill-opacity="1" /><path clip-path="url(#clip500)" d="M253.365 780.634 L271.721 780.634 L271.721 784.569 L257.647 784.569 L257.647 793.041 Q258.666 792.694 259.684 792.532 Q260.703 792.346 261.721 792.346 Q267.508 792.346 270.888 795.518 Q274.268 798.689 274.268 804.106 Q274.268 809.684 270.795 812.786 Q267.323 815.865 261.004 815.865 Q258.828 815.865 256.559 815.494 Q254.314 815.124 251.907 814.383 L251.907 809.684 Q253.99 810.819 256.212 811.374 Q258.434 811.93 260.911 811.93 Q264.916 811.93 267.254 809.823 Q269.592 807.717 269.592 804.106 Q269.592 800.495 267.254 798.388 Q264.916 796.282 260.911 796.282 Q259.036 796.282 257.161 796.698 Q255.309 797.115 253.365 797.995 L253.365 780.634 Z" fill="#000000" fill-rule="nonzero" fill-opacity="1" /><path clip-path="url(#clip500)" d="M96.4445 542.301 Q92.8334 542.301 91.0048 545.866 Q89.1992 549.408 89.1992 556.537 Q89.1992 563.644 91.0048 567.209 Q92.8334 570.75 96.4445 570.75 Q100.079 570.75 101.884 567.209 Q103.713 563.644 103.713 556.537 Q103.713 549.408 101.884 545.866 Q100.079 542.301 96.4445 542.301 M96.4445 538.598 Q102.255 538.598 105.31 543.204 Q108.389 547.788 108.389 556.537 Q108.389 565.264 105.31 569.871 Q102.255 574.454 96.4445 574.454 Q90.6344 574.454 87.5557 569.871 Q84.5002 565.264 84.5002 556.537 Q84.5002 547.788 87.5557 543.204 Q90.6344 538.598 96.4445 538.598 Z" fill="#000000" fill-rule="nonzero" fill-opacity="1" /><path clip-path="url(#clip500)" d="M116.606 567.903 L121.491 567.903 L121.491 573.783 L116.606 573.783 L116.606 567.903 Z" fill="#000000" fill-rule="nonzero" fill-opacity="1" /><path clip-path="url(#clip500)" d="M141.676 542.301 Q138.065 542.301 136.236 545.866 Q134.43 549.408 134.43 556.537 Q134.43 563.644 136.236 567.209 Q138.065 570.75 141.676 570.75 Q145.31 570.75 147.116 567.209 Q148.944 563.644 148.944 556.537 Q148.944 549.408 147.116 545.866 Q145.31 542.301 141.676 542.301 M141.676 538.598 Q147.486 538.598 150.541 543.204 Q153.62 547.788 153.62 556.537 Q153.62 565.264 150.541 569.871 Q147.486 574.454 141.676 574.454 Q135.866 574.454 132.787 569.871 Q129.731 565.264 129.731 556.537 Q129.731 547.788 132.787 543.204 Q135.866 538.598 141.676 538.598 Z" fill="#000000" fill-rule="nonzero" fill-opacity="1" /><path clip-path="url(#clip500)" d="M171.838 542.301 Q168.227 542.301 166.398 545.866 Q164.592 549.408 164.592 556.537 Q164.592 563.644 166.398 567.209 Q168.227 570.75 171.838 570.75 Q175.472 570.75 177.277 567.209 Q179.106 563.644 179.106 556.537 Q179.106 549.408 177.277 545.866 Q175.472 542.301 171.838 542.301 M171.838 538.598 Q177.648 538.598 180.703 543.204 Q183.782 547.788 183.782 556.537 Q183.782 565.264 180.703 569.871 Q177.648 574.454 171.838 574.454 Q166.027 574.454 162.949 569.871 Q159.893 565.264 159.893 556.537 Q159.893 547.788 162.949 543.204 Q166.027 538.598 171.838 538.598 Z" fill="#000000" fill-rule="nonzero" fill-opacity="1" /><path clip-path="url(#clip500)" d="M202 542.301 Q198.388 542.301 196.56 545.866 Q194.754 549.408 194.754 556.537 Q194.754 563.644 196.56 567.209 Q198.388 570.75 202 570.75 Q205.634 570.75 207.439 567.209 Q209.268 563.644 209.268 556.537 Q209.268 549.408 207.439 545.866 Q205.634 542.301 202 542.301 M202 538.598 Q207.81 538.598 210.865 543.204 Q213.944 547.788 213.944 556.537 Q213.944 565.264 210.865 569.871 Q207.81 574.454 202 574.454 Q196.189 574.454 193.111 569.871 Q190.055 565.264 190.055 556.537 Q190.055 547.788 193.111 543.204 Q196.189 538.598 202 538.598 Z" fill="#000000" fill-rule="nonzero" fill-opacity="1" /><path clip-path="url(#clip500)" d="M222.208 539.223 L240.564 539.223 L240.564 543.158 L226.49 543.158 L226.49 551.63 Q227.509 551.283 228.527 551.121 Q229.546 550.936 230.564 550.936 Q236.351 550.936 239.731 554.107 Q243.11 557.278 243.11 562.695 Q243.11 568.274 239.638 571.375 Q236.166 574.454 229.847 574.454 Q227.671 574.454 225.402 574.084 Q223.157 573.713 220.749 572.973 L220.749 568.274 Q222.833 569.408 225.055 569.963 Q227.277 570.519 229.754 570.519 Q233.759 570.519 236.097 568.412 Q238.435 566.306 238.435 562.695 Q238.435 559.084 236.097 556.977 Q233.759 554.871 229.754 554.871 Q227.879 554.871 226.004 555.287 Q224.152 555.704 222.208 556.584 L222.208 539.223 Z" fill="#000000" fill-rule="nonzero" fill-opacity="1" /><path clip-path="url(#clip500)" d="M262.323 542.301 Q258.712 542.301 256.883 545.866 Q255.078 549.408 255.078 556.537 Q255.078 563.644 256.883 567.209 Q258.712 570.75 262.323 570.75 Q265.958 570.75 267.763 567.209 Q269.592 563.644 269.592 556.537 Q269.592 549.408 267.763 545.866 Q265.958 542.301 262.323 542.301 M262.323 538.598 Q268.133 538.598 271.189 543.204 Q274.268 547.788 274.268 556.537 Q274.268 565.264 271.189 569.871 Q268.133 574.454 262.323 574.454 Q256.513 574.454 253.434 569.871 Q250.379 565.264 250.379 556.537 Q250.379 547.788 253.434 543.204 Q256.513 538.598 262.323 538.598 Z" fill="#000000" fill-rule="nonzero" fill-opacity="1" /><path clip-path="url(#clip500)" d="M97.4399 300.891 Q93.8288 300.891 92.0001 304.455 Q90.1946 307.997 90.1946 315.127 Q90.1946 322.233 92.0001 325.798 Q93.8288 329.34 97.4399 329.34 Q101.074 329.34 102.88 325.798 Q104.708 322.233 104.708 315.127 Q104.708 307.997 102.88 304.455 Q101.074 300.891 97.4399 300.891 M97.4399 297.187 Q103.25 297.187 106.306 301.793 Q109.384 306.377 109.384 315.127 Q109.384 323.854 106.306 328.46 Q103.25 333.043 97.4399 333.043 Q91.6297 333.043 88.5511 328.46 Q85.4955 323.854 85.4955 315.127 Q85.4955 306.377 88.5511 301.793 Q91.6297 297.187 97.4399 297.187 Z" fill="#000000" fill-rule="nonzero" fill-opacity="1" /><path clip-path="url(#clip500)" d="M117.602 326.492 L122.486 326.492 L122.486 332.372 L117.602 332.372 L117.602 326.492 Z" fill="#000000" fill-rule="nonzero" fill-opacity="1" /><path clip-path="url(#clip500)" d="M142.671 300.891 Q139.06 300.891 137.231 304.455 Q135.426 307.997 135.426 315.127 Q135.426 322.233 137.231 325.798 Q139.06 329.34 142.671 329.34 Q146.305 329.34 148.111 325.798 Q149.94 322.233 149.94 315.127 Q149.94 307.997 148.111 304.455 Q146.305 300.891 142.671 300.891 M142.671 297.187 Q148.481 297.187 151.537 301.793 Q154.616 306.377 154.616 315.127 Q154.616 323.854 151.537 328.46 Q148.481 333.043 142.671 333.043 Q136.861 333.043 133.782 328.46 Q130.727 323.854 130.727 315.127 Q130.727 306.377 133.782 301.793 Q136.861 297.187 142.671 297.187 Z" fill="#000000" fill-rule="nonzero" fill-opacity="1" /><path clip-path="url(#clip500)" d="M172.833 300.891 Q169.222 300.891 167.393 304.455 Q165.588 307.997 165.588 315.127 Q165.588 322.233 167.393 325.798 Q169.222 329.34 172.833 329.34 Q176.467 329.34 178.273 325.798 Q180.101 322.233 180.101 315.127 Q180.101 307.997 178.273 304.455 Q176.467 300.891 172.833 300.891 M172.833 297.187 Q178.643 297.187 181.699 301.793 Q184.777 306.377 184.777 315.127 Q184.777 323.854 181.699 328.46 Q178.643 333.043 172.833 333.043 Q167.023 333.043 163.944 328.46 Q160.889 323.854 160.889 315.127 Q160.889 306.377 163.944 301.793 Q167.023 297.187 172.833 297.187 Z" fill="#000000" fill-rule="nonzero" fill-opacity="1" /><path clip-path="url(#clip500)" d="M202.995 300.891 Q199.384 300.891 197.555 304.455 Q195.75 307.997 195.75 315.127 Q195.75 322.233 197.555 325.798 Q199.384 329.34 202.995 329.34 Q206.629 329.34 208.435 325.798 Q210.263 322.233 210.263 315.127 Q210.263 307.997 208.435 304.455 Q206.629 300.891 202.995 300.891 M202.995 297.187 Q208.805 297.187 211.861 301.793 Q214.939 306.377 214.939 315.127 Q214.939 323.854 211.861 328.46 Q208.805 333.043 202.995 333.043 Q197.185 333.043 194.106 328.46 Q191.051 323.854 191.051 315.127 Q191.051 306.377 194.106 301.793 Q197.185 297.187 202.995 297.187 Z" fill="#000000" fill-rule="nonzero" fill-opacity="1" /><path clip-path="url(#clip500)" d="M221.976 297.812 L244.198 297.812 L244.198 299.803 L231.652 332.372 L226.768 332.372 L238.573 301.747 L221.976 301.747 L221.976 297.812 Z" fill="#000000" fill-rule="nonzero" fill-opacity="1" /><path clip-path="url(#clip500)" d="M253.365 297.812 L271.721 297.812 L271.721 301.747 L257.647 301.747 L257.647 310.219 Q258.666 309.872 259.684 309.71 Q260.703 309.525 261.721 309.525 Q267.508 309.525 270.888 312.696 Q274.268 315.867 274.268 321.284 Q274.268 326.863 270.795 329.965 Q267.323 333.043 261.004 333.043 Q258.828 333.043 256.559 332.673 Q254.314 332.303 251.907 331.562 L251.907 326.863 Q253.99 327.997 256.212 328.553 Q258.434 329.108 260.911 329.108 Q264.916 329.108 267.254 327.002 Q269.592 324.895 269.592 321.284 Q269.592 317.673 267.254 315.567 Q264.916 313.46 260.911 313.46 Q259.036 313.46 257.161 313.877 Q255.309 314.293 253.365 315.173 L253.365 297.812 Z" fill="#000000" fill-rule="nonzero" fill-opacity="1" /><path clip-path="url(#clip500)" d="M96.4445 59.4799 Q92.8334 59.4799 91.0048 63.0447 Q89.1992 66.5864 89.1992 73.7159 Q89.1992 80.8224 91.0048 84.3872 Q92.8334 87.9288 96.4445 87.9288 Q100.079 87.9288 101.884 84.3872 Q103.713 80.8224 103.713 73.7159 Q103.713 66.5864 101.884 63.0447 Q100.079 59.4799 96.4445 59.4799 M96.4445 55.7762 Q102.255 55.7762 105.31 60.3827 Q108.389 64.966 108.389 73.7159 Q108.389 82.4428 105.31 87.0492 Q102.255 91.6325 96.4445 91.6325 Q90.6344 91.6325 87.5557 87.0492 Q84.5002 82.4428 84.5002 73.7159 Q84.5002 64.966 87.5557 60.3827 Q90.6344 55.7762 96.4445 55.7762 Z" fill="#000000" fill-rule="nonzero" fill-opacity="1" /><path clip-path="url(#clip500)" d="M116.606 85.0816 L121.491 85.0816 L121.491 90.9612 L116.606 90.9612 L116.606 85.0816 Z" fill="#000000" fill-rule="nonzero" fill-opacity="1" /><path clip-path="url(#clip500)" d="M141.676 59.4799 Q138.065 59.4799 136.236 63.0447 Q134.43 66.5864 134.43 73.7159 Q134.43 80.8224 136.236 84.3872 Q138.065 87.9288 141.676 87.9288 Q145.31 87.9288 147.116 84.3872 Q148.944 80.8224 148.944 73.7159 Q148.944 66.5864 147.116 63.0447 Q145.31 59.4799 141.676 59.4799 M141.676 55.7762 Q147.486 55.7762 150.541 60.3827 Q153.62 64.966 153.62 73.7159 Q153.62 82.4428 150.541 87.0492 Q147.486 91.6325 141.676 91.6325 Q135.866 91.6325 132.787 87.0492 Q129.731 82.4428 129.731 73.7159 Q129.731 64.966 132.787 60.3827 Q135.866 55.7762 141.676 55.7762 Z" fill="#000000" fill-rule="nonzero" fill-opacity="1" /><path clip-path="url(#clip500)" d="M171.838 59.4799 Q168.227 59.4799 166.398 63.0447 Q164.592 66.5864 164.592 73.7159 Q164.592 80.8224 166.398 84.3872 Q168.227 87.9288 171.838 87.9288 Q175.472 87.9288 177.277 84.3872 Q179.106 80.8224 179.106 73.7159 Q179.106 66.5864 177.277 63.0447 Q175.472 59.4799 171.838 59.4799 M171.838 55.7762 Q177.648 55.7762 180.703 60.3827 Q183.782 64.966 183.782 73.7159 Q183.782 82.4428 180.703 87.0492 Q177.648 91.6325 171.838 91.6325 Q166.027 91.6325 162.949 87.0492 Q159.893 82.4428 159.893 73.7159 Q159.893 64.966 162.949 60.3827 Q166.027 55.7762 171.838 55.7762 Z" fill="#000000" fill-rule="nonzero" fill-opacity="1" /><path clip-path="url(#clip500)" d="M192.81 87.0261 L200.449 87.0261 L200.449 60.6605 L192.138 62.3271 L192.138 58.0679 L200.402 56.4012 L205.078 56.4012 L205.078 87.0261 L212.717 87.0261 L212.717 90.9612 L192.81 90.9612 L192.81 87.0261 Z" fill="#000000" fill-rule="nonzero" fill-opacity="1" /><path clip-path="url(#clip500)" d="M232.161 59.4799 Q228.55 59.4799 226.722 63.0447 Q224.916 66.5864 224.916 73.7159 Q224.916 80.8224 226.722 84.3872 Q228.55 87.9288 232.161 87.9288 Q235.796 87.9288 237.601 84.3872 Q239.43 80.8224 239.43 73.7159 Q239.43 66.5864 237.601 63.0447 Q235.796 59.4799 232.161 59.4799 M232.161 55.7762 Q237.972 55.7762 241.027 60.3827 Q244.106 64.966 244.106 73.7159 Q244.106 82.4428 241.027 87.0492 Q237.972 91.6325 232.161 91.6325 Q226.351 91.6325 223.273 87.0492 Q220.217 82.4428 220.217 73.7159 Q220.217 64.966 223.273 60.3827 Q226.351 55.7762 232.161 55.7762 Z" fill="#000000" fill-rule="nonzero" fill-opacity="1" /><path clip-path="url(#clip500)" d="M262.323 59.4799 Q258.712 59.4799 256.883 63.0447 Q255.078 66.5864 255.078 73.7159 Q255.078 80.8224 256.883 84.3872 Q258.712 87.9288 262.323 87.9288 Q265.958 87.9288 267.763 84.3872 Q269.592 80.8224 269.592 73.7159 Q269.592 66.5864 267.763 63.0447 Q265.958 59.4799 262.323 59.4799 M262.323 55.7762 Q268.133 55.7762 271.189 60.3827 Q274.268 64.966 274.268 73.7159 Q274.268 82.4428 271.189 87.0492 Q268.133 91.6325 262.323 91.6325 Q256.513 91.6325 253.434 87.0492 Q250.379 82.4428 250.379 73.7159 Q250.379 64.966 253.434 60.3827 Q256.513 55.7762 262.323 55.7762 Z" fill="#000000" fill-rule="nonzero" fill-opacity="1" /><path clip-path="url(#clip500)" d="M-18.3535 835.675 L-12.8153 835.675 Q-14.0884 838.157 -14.725 840.831 Q-15.3616 843.504 -15.3616 846.369 Q-15.3616 850.73 -14.0248 852.926 Q-12.688 855.09 -10.0144 855.09 Q-7.97736 855.09 -6.7997 853.53 Q-5.65387 851.971 -4.60353 847.26 L-4.15793 845.255 Q-2.82113 839.017 -0.370337 836.407 Q2.04863 833.765 6.40914 833.765 Q11.3744 833.765 14.2708 837.712 Q17.1672 841.627 17.1672 848.502 Q17.1672 851.366 16.5943 854.485 Q16.0532 857.573 14.9392 861.01 L8.89177 861.01 Q10.5787 857.764 11.438 854.613 Q12.2656 851.462 12.2656 848.374 Q12.2656 844.237 10.8651 842.009 Q9.43285 839.781 6.85474 839.781 Q4.4676 839.781 3.19446 841.404 Q1.92132 842.995 0.743662 848.438 L0.266234 850.475 Q-0.879593 855.918 -3.2349 858.337 Q-5.62204 860.756 -9.75975 860.756 Q-14.7887 860.756 -17.5259 857.191 Q-20.2632 853.626 -20.2632 847.069 Q-20.2632 843.823 -19.7857 840.958 Q-19.3083 838.094 -18.3535 835.675 Z" fill="#000000" fill-rule="nonzero" fill-opacity="1" /><path clip-path="url(#clip500)" d="M-29.5253 818.646 L-19.4038 818.646 L-19.4038 806.583 L-14.8523 806.583 L-14.8523 818.646 L4.49943 818.646 Q8.85994 818.646 10.1013 817.469 Q11.3426 816.259 11.3426 812.599 L11.3426 806.583 L16.2442 806.583 L16.2442 812.599 Q16.2442 819.378 13.7297 821.957 Q11.1834 824.535 4.49943 824.535 L-14.8523 824.535 L-14.8523 828.831 L-19.4038 828.831 L-19.4038 824.535 L-29.5253 824.535 L-29.5253 818.646 Z" fill="#000000" fill-rule="nonzero" fill-opacity="1" /><path clip-path="url(#clip500)" d="M-1.67531 782.68 Q-1.67531 789.778 -0.0520515 792.515 Q1.5712 795.252 5.48611 795.252 Q8.60531 795.252 10.4514 793.215 Q12.2656 791.147 12.2656 787.614 Q12.2656 782.744 8.82811 779.816 Q5.3588 776.856 -0.370337 776.856 L-1.67531 776.856 L-1.67531 782.68 M-4.09428 770.999 L16.2442 770.999 L16.2442 776.856 L10.8333 776.856 Q14.0798 778.861 15.6394 781.853 Q17.1672 784.844 17.1672 789.173 Q17.1672 794.648 14.1116 797.894 Q11.0243 801.109 5.86806 801.109 Q-0.147537 801.109 -3.20308 797.098 Q-6.25862 793.056 -6.25862 785.067 L-6.25862 776.856 L-6.83153 776.856 Q-10.8738 776.856 -13.0699 779.529 Q-15.2979 782.171 -15.2979 786.977 Q-15.2979 790.033 -14.5659 792.929 Q-13.8338 795.825 -12.3697 798.499 L-17.7805 798.499 Q-19.0219 795.284 -19.6266 792.261 Q-20.2632 789.237 -20.2632 786.372 Q-20.2632 778.638 -16.2528 774.818 Q-12.2424 770.999 -4.09428 770.999 Z" fill="#000000" fill-rule="nonzero" fill-opacity="1" /><path clip-path="url(#clip500)" d="M-5.27193 729.304 L16.2442 729.304 L16.2442 735.16 L-5.08096 735.16 Q-10.1417 735.16 -12.6562 737.133 Q-15.1706 739.107 -15.1706 743.054 Q-15.1706 747.796 -12.1469 750.533 Q-9.12318 753.271 -3.9033 753.271 L16.2442 753.271 L16.2442 759.159 L-19.4038 759.159 L-19.4038 753.271 L-13.8656 753.271 Q-17.0803 751.17 -18.6717 748.337 Q-20.2632 745.473 -20.2632 741.749 Q-20.2632 735.606 -16.4437 732.455 Q-12.6562 729.304 -5.27193 729.304 Z" fill="#000000" fill-rule="nonzero" fill-opacity="1" /><path clip-path="url(#clip500)" d="M-13.9929 694.165 L-33.281 694.165 L-33.281 688.309 L16.2442 688.309 L16.2442 694.165 L10.897 694.165 Q14.0798 696.011 15.6394 698.844 Q17.1672 701.645 17.1672 705.591 Q17.1672 712.053 12.011 716.127 Q6.85474 720.169 -1.54799 720.169 Q-9.95073 720.169 -15.1069 716.127 Q-20.2632 712.053 -20.2632 705.591 Q-20.2632 701.645 -18.7036 698.844 Q-17.1758 696.011 -13.9929 694.165 M-1.54799 714.121 Q4.9132 714.121 8.60531 711.48 Q12.2656 708.806 12.2656 704.159 Q12.2656 699.512 8.60531 696.839 Q4.9132 694.165 -1.54799 694.165 Q-8.00918 694.165 -11.6695 696.839 Q-15.3616 699.512 -15.3616 704.159 Q-15.3616 708.806 -11.6695 711.48 Q-8.00918 714.121 -1.54799 714.121 Z" fill="#000000" fill-rule="nonzero" fill-opacity="1" /><path clip-path="url(#clip500)" d="M-1.67531 660.045 Q-1.67531 667.143 -0.0520515 669.88 Q1.5712 672.617 5.48611 672.617 Q8.60531 672.617 10.4514 670.58 Q12.2656 668.511 12.2656 664.978 Q12.2656 660.108 8.82811 657.18 Q5.3588 654.22 -0.370337 654.22 L-1.67531 654.22 L-1.67531 660.045 M-4.09428 648.364 L16.2442 648.364 L16.2442 654.22 L10.8333 654.22 Q14.0798 656.225 15.6394 659.217 Q17.1672 662.209 17.1672 666.538 Q17.1672 672.012 14.1116 675.259 Q11.0243 678.474 5.86806 678.474 Q-0.147537 678.474 -3.20308 674.463 Q-6.25862 670.421 -6.25862 662.432 L-6.25862 654.22 L-6.83153 654.22 Q-10.8738 654.22 -13.0699 656.894 Q-15.2979 659.536 -15.2979 664.342 Q-15.2979 667.397 -14.5659 670.294 Q-13.8338 673.19 -12.3697 675.864 L-17.7805 675.864 Q-19.0219 672.649 -19.6266 669.625 Q-20.2632 666.601 -20.2632 663.737 Q-20.2632 656.003 -16.2528 652.183 Q-12.2424 648.364 -4.09428 648.364 Z" fill="#000000" fill-rule="nonzero" fill-opacity="1" /><path clip-path="url(#clip500)" d="M-13.9293 615.644 Q-14.5022 616.631 -14.7568 617.808 Q-15.0433 618.954 -15.0433 620.355 Q-15.0433 625.32 -11.7968 627.993 Q-8.5821 630.635 -2.53468 630.635 L16.2442 630.635 L16.2442 636.524 L-19.4038 636.524 L-19.4038 630.635 L-13.8656 630.635 Q-17.1121 628.789 -18.6717 625.829 Q-20.2632 622.869 -20.2632 618.636 Q-20.2632 618.031 -20.1677 617.299 Q-20.104 616.567 -19.9449 615.676 L-13.9293 615.644 Z" fill="#000000" fill-rule="nonzero" fill-opacity="1" /><path clip-path="url(#clip500)" d="M-13.9929 587.189 L-33.281 587.189 L-33.281 581.333 L16.2442 581.333 L16.2442 587.189 L10.897 587.189 Q14.0798 589.035 15.6394 591.868 Q17.1672 594.669 17.1672 598.616 Q17.1672 605.077 12.011 609.151 Q6.85474 613.193 -1.54799 613.193 Q-9.95073 613.193 -15.1069 609.151 Q-20.2632 605.077 -20.2632 598.616 Q-20.2632 594.669 -18.7036 591.868 Q-17.1758 589.035 -13.9929 587.189 M-1.54799 607.146 Q4.9132 607.146 8.60531 604.504 Q12.2656 601.83 12.2656 597.183 Q12.2656 592.536 8.60531 589.863 Q4.9132 587.189 -1.54799 587.189 Q-8.00918 587.189 -11.6695 589.863 Q-15.3616 592.536 -15.3616 597.183 Q-15.3616 601.83 -11.6695 604.504 Q-8.00918 607.146 -1.54799 607.146 Z" fill="#000000" fill-rule="nonzero" fill-opacity="1" /><path clip-path="url(#clip500)" d="M-4.22159 572.23 L-4.22159 555.074 L0.99829 555.074 L0.99829 572.23 L-4.22159 572.23 Z" fill="#000000" fill-rule="nonzero" fill-opacity="1" /><path clip-path="url(#clip500)" d="M-13.9929 522.291 L-33.281 522.291 L-33.281 516.434 L16.2442 516.434 L16.2442 522.291 L10.897 522.291 Q14.0798 524.137 15.6394 526.97 Q17.1672 529.771 17.1672 533.717 Q17.1672 540.179 12.011 544.253 Q6.85474 548.295 -1.54799 548.295 Q-9.95073 548.295 -15.1069 544.253 Q-20.2632 540.179 -20.2632 533.717 Q-20.2632 529.771 -18.7036 526.97 Q-17.1758 524.137 -13.9929 522.291 M-1.54799 542.247 Q4.9132 542.247 8.60531 539.606 Q12.2656 536.932 12.2656 532.285 Q12.2656 527.638 8.60531 524.964 Q4.9132 522.291 -1.54799 522.291 Q-8.00918 522.291 -11.6695 524.964 Q-15.3616 527.638 -15.3616 532.285 Q-15.3616 536.932 -11.6695 539.606 Q-8.00918 542.247 -1.54799 542.247 Z" fill="#000000" fill-rule="nonzero" fill-opacity="1" /><path clip-path="url(#clip500)" d="M-3.04393 473.88 L-0.179366 473.88 L-0.179366 500.807 Q5.86806 500.425 9.05091 497.178 Q12.2019 493.9 12.2019 488.075 Q12.2019 484.701 11.3744 481.55 Q10.5469 478.368 8.89177 475.248 L14.4299 475.248 Q15.7667 478.399 16.467 481.71 Q17.1672 485.02 17.1672 488.425 Q17.1672 496.955 12.2019 501.952 Q7.23668 506.918 -1.22971 506.918 Q-9.98255 506.918 -15.1069 502.207 Q-20.2632 497.465 -20.2632 489.444 Q-20.2632 482.251 -15.6162 478.081 Q-11.0011 473.88 -3.04393 473.88 M-4.76267 479.736 Q-9.56878 479.8 -12.4334 482.442 Q-15.2979 485.052 -15.2979 489.38 Q-15.2979 494.282 -12.5288 497.242 Q-9.75975 500.17 -4.73085 500.616 L-4.76267 479.736 Z" fill="#000000" fill-rule="nonzero" fill-opacity="1" /><path clip-path="url(#clip500)" d="M-19.4038 468.469 L-19.4038 462.262 L10.515 451.122 L-19.4038 439.982 L-19.4038 433.776 L16.2442 447.144 L16.2442 455.101 L-19.4038 468.469 Z" fill="#000000" fill-rule="nonzero" fill-opacity="1" /><path clip-path="url(#clip500)" d="M-19.4038 425.691 L-19.4038 419.835 L16.2442 419.835 L16.2442 425.691 L-19.4038 425.691 M-33.281 425.691 L-33.281 419.835 L-25.865 419.835 L-25.865 425.691 L-33.281 425.691 Z" fill="#000000" fill-rule="nonzero" fill-opacity="1" /><path clip-path="url(#clip500)" d="M-1.67531 391.38 Q-1.67531 398.478 -0.0520515 401.215 Q1.5712 403.952 5.48611 403.952 Q8.60531 403.952 10.4514 401.915 Q12.2656 399.847 12.2656 396.314 Q12.2656 391.444 8.82811 388.516 Q5.3588 385.556 -0.370337 385.556 L-1.67531 385.556 L-1.67531 391.38 M-4.09428 379.699 L16.2442 379.699 L16.2442 385.556 L10.8333 385.556 Q14.0798 387.561 15.6394 390.553 Q17.1672 393.544 17.1672 397.873 Q17.1672 403.348 14.1116 406.594 Q11.0243 409.809 5.86806 409.809 Q-0.147537 409.809 -3.20308 405.798 Q-6.25862 401.756 -6.25862 393.767 L-6.25862 385.556 L-6.83153 385.556 Q-10.8738 385.556 -13.0699 388.229 Q-15.2979 390.871 -15.2979 395.677 Q-15.2979 398.733 -14.5659 401.629 Q-13.8338 404.525 -12.3697 407.199 L-17.7805 407.199 Q-19.0219 403.984 -19.6266 400.961 Q-20.2632 397.937 -20.2632 395.072 Q-20.2632 387.338 -16.2528 383.518 Q-12.2424 379.699 -4.09428 379.699 Z" fill="#000000" fill-rule="nonzero" fill-opacity="1" /><path clip-path="url(#clip500)" d="M-29.5253 361.843 L-19.4038 361.843 L-19.4038 349.78 L-14.8523 349.78 L-14.8523 361.843 L4.49943 361.843 Q8.85994 361.843 10.1013 360.666 Q11.3426 359.456 11.3426 355.796 L11.3426 349.78 L16.2442 349.78 L16.2442 355.796 Q16.2442 362.575 13.7297 365.153 Q11.1834 367.732 4.49943 367.732 L-14.8523 367.732 L-14.8523 372.028 L-19.4038 372.028 L-19.4038 367.732 L-29.5253 367.732 L-29.5253 361.843 Z" fill="#000000" fill-rule="nonzero" fill-opacity="1" /><path clip-path="url(#clip500)" d="M-19.4038 342.078 L-19.4038 336.221 L16.2442 336.221 L16.2442 342.078 L-19.4038 342.078 M-33.281 342.078 L-33.281 336.221 L-25.865 336.221 L-25.865 342.078 L-33.281 342.078 Z" fill="#000000" fill-rule="nonzero" fill-opacity="1" /><path clip-path="url(#clip500)" d="M-15.2979 310.154 Q-15.2979 314.864 -11.6058 317.602 Q-7.94553 320.339 -1.54799 320.339 Q4.84954 320.339 8.54165 317.633 Q12.2019 314.896 12.2019 310.154 Q12.2019 305.475 8.50982 302.738 Q4.81771 300 -1.54799 300 Q-7.88187 300 -11.574 302.738 Q-15.2979 305.475 -15.2979 310.154 M-20.2632 310.154 Q-20.2632 302.515 -15.2979 298.154 Q-10.3327 293.794 -1.54799 293.794 Q7.20485 293.794 12.2019 298.154 Q17.1672 302.515 17.1672 310.154 Q17.1672 317.824 12.2019 322.185 Q7.20485 326.514 -1.54799 326.514 Q-10.3327 326.514 -15.2979 322.185 Q-20.2632 317.824 -20.2632 310.154 Z" fill="#000000" fill-rule="nonzero" fill-opacity="1" /><path clip-path="url(#clip500)" d="M-5.27193 254.454 L16.2442 254.454 L16.2442 260.31 L-5.08096 260.31 Q-10.1417 260.31 -12.6562 262.284 Q-15.1706 264.257 -15.1706 268.204 Q-15.1706 272.946 -12.1469 275.683 Q-9.12318 278.421 -3.9033 278.421 L16.2442 278.421 L16.2442 284.309 L-19.4038 284.309 L-19.4038 278.421 L-13.8656 278.421 Q-17.0803 276.32 -18.6717 273.487 Q-20.2632 270.623 -20.2632 266.899 Q-20.2632 260.756 -16.4437 257.605 Q-12.6562 254.454 -5.27193 254.454 Z" fill="#000000" fill-rule="nonzero" fill-opacity="1" /><polyline clip-path="url(#clip502)" style="stroke:#389826; stroke-linecap:round; stroke-linejoin:round; stroke-width:4; stroke-opacity:1; fill:none" points="419.527,1039.32 422.763,1039.31 427.932,1039.05 433.31,1038.73 440.678,1036.66 447.609,1036.22 456.195,1029.83 463.633,1030.57 472.338,1019.9 479.525,1021.54 487.657,1012.16 494.29,1010.96 501.924,1004.4 504.191,1002.66 505.965,1001.07 509.265,998.061 512.026,995.367 515.559,991.643 518.916,988.142 522.488,984.172 526.152,980.262 529.758,977.225 533.654,974.013 537.446,973.277 541.933,972.829 547.049,971.978 551.546,974.696 555.632,980.795 560.159,981.724 563.866,992.911 569.734,982.607 573.551,995.539 579.746,999.679 586.449,1004.53 591.359,1013.85 598.002,999.129 602.52,1010.96 608.897,1008.32 614.079,1014.78 622.494,1008.43 628.629,1014.56 636.857,1014.13 645.295,1015.25 654.565,1015.33 665.53,1015.01 677.375,1014.9 691.364,1014.58 707.835,1014.2 727.017,1013.73 750.717,1013.1 779.83,1012.29 813.868,1011.22 850.638,1009.8 884.859,1008.11 912.713,1006.28 938.433,1004.24 970.688,1001.71 1001.52,998.934 1032.5,995.001 1063.97,989.272 1092.24,983.303 1120.23,972.603 1144.86,962.812 1167.69,948.48 1185.92,937.791 1203.21,917.686 1217.01,900.608 1229.81,875.687 1240.66,848.899 1250.28,817.753 1259.22,780.134 1266.7,741.552 1274.74,689.696 1280.91,643.184 1282.56,629.307 1283.87,617.933 1287.06,589.263 1289.7,564.458 1292.97,532.773 1296.9,493.126 1300.19,460.346 1305.32,409.484 1308.54,381.685 1313.36,348.595 1315.96,337.859 1319.75,332.779 1323.01,338.763 1328.21,368.063 1333.41,412.787 1336.92,462.17 1341.29,532.296 1344.45,587.865 1348.53,658.13 1351.98,715.087 1359.42,815.744 1363.43,862.247 1370.2,922.029 1375.61,957.938 1380.86,982.942 1388.28,998.426 1392.89,1008.26 1401.48,1003.25 1406.77,1007.68 1416.25,1001.97 1422.84,1004.11 1431.73,1002.61 1440.94,1001.87 1450.77,1000.92 1462.54,999.86 1474.95,998.972 1489.29,997.944 1505.91,996.792 1524.11,995.464 1544.7,993.803 1565.92,991.94 1583,989.918 1603.34,987.269 1627.01,984.333 1650.44,980.671 1675.93,975.691 1700.13,969.778 1724.37,961.482 1747.17,951.424 1768.45,938.549 1788.24,922.085 1805.94,903.013 1822.06,878.839 1834.78,855.592 1847.05,820.575 1856.85,786.658 1866.11,742.614 1874.15,694.941 1881.41,640.918 1889.32,569.569 1892.97,531.475 1896.29,493.998 1899.95,450.515 1903.84,402.415 1907.67,354.526 1911.62,306.444 1915.43,264.555 1919.39,228.554 1923.23,205.917 1927.41,197.208 1931.71,210.647 1938.11,263.874 1942.22,325.147 1946.64,414.169 1950.94,505.484 1954.91,591.717 1959.83,688.899 1964.2,764.619 1971.8,865.67 1977.94,922.167 1982.99,957.921 1988.77,984.214 1993.67,1001.93 2002.08,998.492 2006.76,1009.26 2014.47,1008.57 2021.13,1011.45 2029.02,1010.52 2038.06,1009.49 2047.46,1008.88 2058.7,1008.05 2071.16,1007.51 2085.55,1006.96 2102.81,1006.35 2123,1005.65 2147.63,1004.75 2178.18,1003.61 2212.91,1002.09 2248.3,1000.2 2274.39,998.158 2294.94,996.01 2323.16,993.418 2351.23,990.941 2381.01,987.416 2412.39,983.015 2441.4,977.648 2471.29,969.377 2497.96,960.684 2523.5,947.599 2546.5,932.762 2567.11,915.326 2583.52,898.181 2599.05,871.789 2611.51,846.238 2623.05,812.252 2632.97,775.057 2641.74,732.396 2650.08,681.759 2657.04,629.62 2666.14,547.168 2669.38,513.288 2672.36,480.275 2677.88,415.122 2681.2,374.53 2686.28,312.549 2689.87,271.651 2694.83,221.084 2698.45,195.171 2704.22,172.732 2707.97,179.052 2713.29,221.648 2718.53,281.682 2721.83,342.48 2726.13,429.706 2729.38,500.592 2734.2,600.277 2737.75,669.919 2746.22,802.766 2750.6,858.105 2756.62,916.254 2762.39,956.501 2767.62,982.672 2775.03,997.57 2780.29,1006.9 2788.84,1000.51 2794.76,1003.39 2803.33,999.575 2810.82,999.11 2819.7,997.342 2829.53,995.992 2839.91,994.884 2852.07,993.719 2865.41,992.649 2880.52,991.405 2898.06,990.039 2917.42,988.285 2938.4,986.446 2950.07,984.812 2959.1,983.194 2980.82,980.25 2997.64,978.061 3019.26,974.202 3044.38,970.33 3065.99,965.074 3094.31,956.208 3115.23,948.976 3140.23,931.743 3159.66,920.248 3179.32,896.73 3196.39,874.381 3211.51,846.046 3223.5,816.448 3234.66,777.448 3244.09,735.251 3252.54,686.171 3260.49,628.471 3267.21,568.315 3275.82,475.037 3278.94,436.49 3281.63,401.041 3285.85,343.005 3289.04,297.904 3293.5,234.667 3296.87,189.736 3301.44,134.504 3304.86,104.412 3310.18,76.1396 3313.71,79.3033 3318.99,121.998 3324.27,186.035 3327.37,251.207 3331.64,351.732 3334.76,430.895 3339.33,541.883 3342.76,620.876 3350.32,762.34 3354.6,826.619 3360.53,895.068 3366.03,940.746 3371.22,971.924 3378.08,991.7 3383.37,1005.3 3391.16,1003.2 3397.2,1007.77 3405.35,1004.68 3412.99,1004.76 3421.92,1003.38 3431.89,1002.46 3442.76,1001.75 3455.55,1001.04 3461.5,1000.83 "/>
<polyline clip-path="url(#clip502)" style="stroke:#9558b2; stroke-linecap:round; stroke-linejoin:round; stroke-width:4; stroke-opacity:1; fill:none" points="419.527,1039.32 422.763,1039.31 427.932,1039.05 433.31,1038.73 440.678,1036.69 447.609,1036.3 456.195,1030.13 463.633,1031.3 472.338,1021.39 479.525,1024.89 487.657,1017.63 494.29,1020.64 501.924,1019.19 504.191,1019.45 505.965,1019.44 509.265,1019.55 512.026,1019.59 515.559,1019.26 518.916,1019.19 522.488,1018.28 526.152,1017.14 529.758,1016.89 533.654,1014.78 537.446,1016.26 541.933,1014.67 547.049,1007.12 551.546,1004.57 555.632,1005.49 560.159,995.588 563.866,1002.27 569.734,975.435 573.551,980.301 579.746,972.569 586.449,975.109 591.359,976.822 598.002,965.459 602.52,969.083 608.897,963.955 614.079,965.709 622.494,959.387 628.629,961.292 636.857,959.868 645.295,960.534 654.565,960.52 665.53,960.707 677.375,960.952 691.364,961.21 707.835,961.548 727.017,961.968 750.717,962.509 779.83,963.225 813.868,964.133 850.638,965.206 884.859,966.362 912.713,967.446 938.433,968.546 970.688,969.918 1001.52,971.472 1032.5,972.864 1063.97,973.611 1092.24,975.051 1120.23,972.725 1144.86,973.506 1167.69,969.938 1185.92,974.492 1203.21,970.329 1217.01,975.877 1229.81,976.141 1240.66,979.339 1250.28,983.475 1259.22,985.08 1266.7,989.714 1274.74,991.777 1280.91,995.14 1282.56,995.923 1283.87,996.547 1287.06,998.025 1289.7,999.208 1292.97,1000.53 1296.9,1001.66 1300.19,1002.61 1305.32,998.953 1308.54,1000.35 1313.36,989.697 1315.96,990.332 1319.75,985.307 1323.01,983.965 1328.21,977.847 1333.41,971.214 1336.92,969.697 1341.29,957.554 1344.45,958.375 1348.53,953.604 1351.98,952.319 1359.42,938.236 1363.43,938.965 1370.2,932.259 1375.61,933.37 1380.86,932.569 1388.28,929.914 1392.89,930.638 1401.48,925.313 1406.77,926.326 1416.25,922.595 1422.84,923.623 1431.73,923.155 1440.94,923.654 1450.77,923.911 1462.54,924.313 1474.95,924.784 1489.29,925.345 1505.91,926.044 1524.11,926.867 1544.7,927.872 1565.92,928.993 1583,929.986 1603.34,931.262 1627.01,932.892 1650.44,934.665 1675.93,936.61 1700.13,938.758 1724.37,940.476 1747.17,942.261 1768.45,943.381 1788.24,943.468 1805.94,944.434 1822.06,943.738 1834.78,949.969 1847.05,948.481 1856.85,955.251 1866.11,958.212 1874.15,963.236 1881.41,968.425 1889.32,973.783 1892.97,976.861 1896.29,979.531 1899.95,982.706 1903.84,985.867 1907.67,988.974 1911.62,991.34 1915.43,993.696 1919.39,994.343 1923.23,995.793 1927.41,995.046 1931.71,994.501 1938.11,970.954 1942.22,975.779 1946.64,965.253 1950.94,963.532 1954.91,962.699 1959.83,958.81 1964.2,957.606 1971.8,949.533 1977.94,949.7 1982.99,949.147 1988.77,947.577 1993.67,948.239 2002.08,937.468 2006.76,939.297 2014.47,936.161 2021.13,937.16 2029.02,936.775 2038.06,937.04 2047.46,937.235 2058.7,937.445 2071.16,937.767 2085.55,938.136 2102.81,938.606 2123,939.195 2147.63,939.96 2178.18,940.979 2212.91,942.249 2248.3,943.695 2274.39,944.911 2294.94,945.969 2323.16,947.545 2351.23,949.311 2381.01,951.268 2412.39,953.399 2441.4,955.691 2471.29,956.883 2497.96,959.198 2523.5,958.614 2546.5,959.243 2567.11,959.206 2583.52,964.168 2599.05,962.704 2611.51,968.652 2623.05,970.941 2632.97,974.943 2641.74,980.119 2650.08,983.425 2657.04,988.35 2666.14,992.15 2669.38,994.41 2672.36,995.981 2677.88,998.576 2681.2,1000.04 2686.28,997.112 2689.87,998.376 2694.83,988.982 2698.45,989.839 2704.22,969.409 2707.97,969.719 2713.29,959.601 2718.53,953.687 2721.83,951.343 2726.13,940.432 2729.38,940.136 2734.2,933.218 2737.75,931.389 2746.22,915.271 2750.6,916.481 2756.62,911.899 2762.39,912.127 2767.62,911.644 2775.03,909.144 2780.29,909.851 2788.84,906.185 2794.76,907.194 2803.33,906.022 2810.82,906.656 2819.7,906.699 2829.53,907.112 2839.91,907.498 2852.07,907.992 2865.41,908.574 2880.52,909.283 2898.06,910.145 2917.42,911.189 2938.4,912.4 2950.07,913.125 2959.1,913.722 2980.82,915.262 2997.64,916.584 3019.26,918.374 3044.38,920.696 3065.99,922.951 3094.31,924.914 3115.23,928.299 3140.23,926.536 3159.66,931.964 3179.32,928.605 3196.39,932.751 3211.51,934.672 3223.5,940.651 3234.66,943.933 3244.09,949.153 3252.54,954.933 3260.49,959.84 3267.21,965.883 3275.82,972.623 3278.94,975.996 3281.63,978.681 3285.85,983.123 3289.04,986.642 3293.5,989.502 3296.87,993.544 3301.44,990.934 3304.86,995.207 3310.18,979.934 3313.71,982.777 3318.99,974.244 3324.27,967.86 3327.37,967.372 3331.64,950.912 3334.76,952.748 3339.33,944.192 3342.76,943.073 3350.32,925.818 3354.6,927.536 3360.53,921.736 3366.03,922.218 3371.22,921.79 3378.08,918.602 3383.37,919.762 3391.16,915.855 3397.2,917.139 3405.35,915.759 3412.99,916.428 3421.92,916.338 3431.89,916.661 3442.76,916.946 3455.55,917.307 3461.5,917.516 "/>
<path clip-path="url(#clip500)" d="M435.751 236.797 L977.712 236.797 L977.712 81.2766 L435.751 81.2766  Z" fill="#ffffff" fill-rule="evenodd" fill-opacity="1"/>
<polyline clip-path="url(#clip500)" style="stroke:#000000; stroke-linecap:round; stroke-linejoin:round; stroke-width:4; stroke-opacity:1; fill:none" points="435.751,236.797 977.712,236.797 977.712,81.2766 435.751,81.2766 435.751,236.797 "/>
<polyline clip-path="url(#clip500)" style="stroke:#389826; stroke-linecap:round; stroke-linejoin:round; stroke-width:4; stroke-opacity:1; fill:none" points="471.578,133.117 686.544,133.117 "/>
<path clip-path="url(#clip500)" d="M740.798 125.235 L740.798 129.262 Q738.992 128.337 737.048 127.874 Q735.103 127.411 733.02 127.411 Q729.849 127.411 728.251 128.383 Q726.677 129.355 726.677 131.299 Q726.677 132.781 727.812 133.637 Q728.946 134.471 732.372 135.235 L733.83 135.559 Q738.367 136.531 740.265 138.313 Q742.186 140.073 742.186 143.244 Q742.186 146.855 739.316 148.961 Q736.469 151.068 731.469 151.068 Q729.386 151.068 727.117 150.651 Q724.872 150.258 722.372 149.448 L722.372 145.049 Q724.733 146.276 727.025 146.901 Q729.316 147.503 731.562 147.503 Q734.571 147.503 736.191 146.485 Q737.812 145.443 737.812 143.568 Q737.812 141.832 736.631 140.906 Q735.474 139.98 731.515 139.124 L730.034 138.776 Q726.075 137.943 724.316 136.23 Q722.557 134.494 722.557 131.485 Q722.557 127.827 725.15 125.837 Q727.742 123.846 732.511 123.846 Q734.872 123.846 736.955 124.193 Q739.038 124.54 740.798 125.235 Z" fill="#000000" fill-rule="nonzero" fill-opacity="1" /><path clip-path="url(#clip500)" d="M753.182 117.11 L753.182 124.471 L761.955 124.471 L761.955 127.781 L753.182 127.781 L753.182 141.855 Q753.182 145.026 754.038 145.929 Q754.918 146.832 757.58 146.832 L761.955 146.832 L761.955 150.397 L757.58 150.397 Q752.649 150.397 750.774 148.568 Q748.899 146.716 748.899 141.855 L748.899 127.781 L745.774 127.781 L745.774 124.471 L748.899 124.471 L748.899 117.11 L753.182 117.11 Z" fill="#000000" fill-rule="nonzero" fill-opacity="1" /><path clip-path="url(#clip500)" d="M784.617 128.406 L784.617 114.378 L788.876 114.378 L788.876 150.397 L784.617 150.397 L784.617 146.508 Q783.274 148.823 781.214 149.957 Q779.177 151.068 776.307 151.068 Q771.608 151.068 768.645 147.318 Q765.705 143.568 765.705 137.457 Q765.705 131.346 768.645 127.596 Q771.608 123.846 776.307 123.846 Q779.177 123.846 781.214 124.98 Q783.274 126.091 784.617 128.406 M770.103 137.457 Q770.103 142.156 772.024 144.841 Q773.969 147.503 777.348 147.503 Q780.728 147.503 782.672 144.841 Q784.617 142.156 784.617 137.457 Q784.617 132.758 782.672 130.096 Q780.728 127.411 777.348 127.411 Q773.969 127.411 772.024 130.096 Q770.103 132.758 770.103 137.457 Z" fill="#000000" fill-rule="nonzero" fill-opacity="1" /><path clip-path="url(#clip500)" d="M807.881 114.425 Q804.779 119.749 803.274 124.957 Q801.77 130.165 801.77 135.512 Q801.77 140.86 803.274 146.114 Q804.802 151.346 807.881 156.647 L804.177 156.647 Q800.705 151.207 798.969 145.952 Q797.256 140.698 797.256 135.512 Q797.256 130.35 798.969 125.119 Q800.682 119.888 804.177 114.425 L807.881 114.425 Z" fill="#000000" fill-rule="nonzero" fill-opacity="1" /><path clip-path="url(#clip500)" d="M815.705 140.165 L815.705 124.471 L819.964 124.471 L819.964 140.003 Q819.964 143.684 821.399 145.536 Q822.834 147.364 825.705 147.364 Q829.154 147.364 831.144 145.165 Q833.158 142.966 833.158 139.17 L833.158 124.471 L837.417 124.471 L837.417 150.397 L833.158 150.397 L833.158 146.415 Q831.607 148.776 829.547 149.934 Q827.51 151.068 824.802 151.068 Q820.334 151.068 818.019 148.29 Q815.705 145.512 815.705 140.165 M826.422 123.846 L826.422 123.846 Z" fill="#000000" fill-rule="nonzero" fill-opacity="1" /><path clip-path="url(#clip500)" d="M847.603 146.461 L855.241 146.461 L855.241 120.096 L846.931 121.763 L846.931 117.503 L855.195 115.837 L859.871 115.837 L859.871 146.461 L867.51 146.461 L867.51 150.397 L847.603 150.397 L847.603 146.461 Z" fill="#000000" fill-rule="nonzero" fill-opacity="1" /><path clip-path="url(#clip500)" d="M886.584 114.425 Q883.482 119.749 881.977 124.957 Q880.473 130.165 880.473 135.512 Q880.473 140.86 881.977 146.114 Q883.505 151.346 886.584 156.647 L882.88 156.647 Q879.408 151.207 877.672 145.952 Q875.959 140.698 875.959 135.512 Q875.959 130.35 877.672 125.119 Q879.385 119.888 882.88 114.425 L886.584 114.425 Z" fill="#000000" fill-rule="nonzero" fill-opacity="1" /><path clip-path="url(#clip500)" d="M899.061 117.11 L899.061 124.471 L907.834 124.471 L907.834 127.781 L899.061 127.781 L899.061 141.855 Q899.061 145.026 899.917 145.929 Q900.797 146.832 903.459 146.832 L907.834 146.832 L907.834 150.397 L903.459 150.397 Q898.528 150.397 896.653 148.568 Q894.778 146.716 894.778 141.855 L894.778 127.781 L891.653 127.781 L891.653 124.471 L894.778 124.471 L894.778 117.11 L899.061 117.11 Z" fill="#000000" fill-rule="nonzero" fill-opacity="1" /><path clip-path="url(#clip500)" d="M912.764 114.425 L916.468 114.425 Q919.94 119.888 921.653 125.119 Q923.389 130.35 923.389 135.512 Q923.389 140.698 921.653 145.952 Q919.94 151.207 916.468 156.647 L912.764 156.647 Q915.843 151.346 917.348 146.114 Q918.875 140.86 918.875 135.512 Q918.875 130.165 917.348 124.957 Q915.843 119.749 912.764 114.425 Z" fill="#000000" fill-rule="nonzero" fill-opacity="1" /><path clip-path="url(#clip500)" d="M931.26 114.425 L934.963 114.425 Q938.435 119.888 940.148 125.119 Q941.884 130.35 941.884 135.512 Q941.884 140.698 940.148 145.952 Q938.435 151.207 934.963 156.647 L931.26 156.647 Q934.338 151.346 935.843 146.114 Q937.371 140.86 937.371 135.512 Q937.371 130.165 935.843 124.957 Q934.338 119.749 931.26 114.425 Z" fill="#000000" fill-rule="nonzero" fill-opacity="1" /><polyline clip-path="url(#clip500)" style="stroke:#9558b2; stroke-linecap:round; stroke-linejoin:round; stroke-width:4; stroke-opacity:1; fill:none" points="471.578,184.957 686.544,184.957 "/>
<path clip-path="url(#clip500)" d="M740.798 177.075 L740.798 181.102 Q738.992 180.177 737.048 179.714 Q735.103 179.251 733.02 179.251 Q729.849 179.251 728.251 180.223 Q726.677 181.195 726.677 183.139 Q726.677 184.621 727.812 185.477 Q728.946 186.311 732.372 187.075 L733.83 187.399 Q738.367 188.371 740.265 190.153 Q742.186 191.913 742.186 195.084 Q742.186 198.695 739.316 200.801 Q736.469 202.908 731.469 202.908 Q729.386 202.908 727.117 202.491 Q724.872 202.098 722.372 201.288 L722.372 196.889 Q724.733 198.116 727.025 198.741 Q729.316 199.343 731.562 199.343 Q734.571 199.343 736.191 198.325 Q737.812 197.283 737.812 195.408 Q737.812 193.672 736.631 192.746 Q735.474 191.82 731.515 190.964 L730.034 190.616 Q726.075 189.783 724.316 188.07 Q722.557 186.334 722.557 183.325 Q722.557 179.667 725.15 177.677 Q727.742 175.686 732.511 175.686 Q734.872 175.686 736.955 176.033 Q739.038 176.38 740.798 177.075 Z" fill="#000000" fill-rule="nonzero" fill-opacity="1" /><path clip-path="url(#clip500)" d="M753.182 168.95 L753.182 176.311 L761.955 176.311 L761.955 179.621 L753.182 179.621 L753.182 193.695 Q753.182 196.866 754.038 197.769 Q754.918 198.672 757.58 198.672 L761.955 198.672 L761.955 202.237 L757.58 202.237 Q752.649 202.237 750.774 200.408 Q748.899 198.556 748.899 193.695 L748.899 179.621 L745.774 179.621 L745.774 176.311 L748.899 176.311 L748.899 168.95 L753.182 168.95 Z" fill="#000000" fill-rule="nonzero" fill-opacity="1" /><path clip-path="url(#clip500)" d="M784.617 180.246 L784.617 166.218 L788.876 166.218 L788.876 202.237 L784.617 202.237 L784.617 198.348 Q783.274 200.663 781.214 201.797 Q779.177 202.908 776.307 202.908 Q771.608 202.908 768.645 199.158 Q765.705 195.408 765.705 189.297 Q765.705 183.186 768.645 179.436 Q771.608 175.686 776.307 175.686 Q779.177 175.686 781.214 176.82 Q783.274 177.931 784.617 180.246 M770.103 189.297 Q770.103 193.996 772.024 196.681 Q773.969 199.343 777.348 199.343 Q780.728 199.343 782.672 196.681 Q784.617 193.996 784.617 189.297 Q784.617 184.598 782.672 181.936 Q780.728 179.251 777.348 179.251 Q773.969 179.251 772.024 181.936 Q770.103 184.598 770.103 189.297 Z" fill="#000000" fill-rule="nonzero" fill-opacity="1" /><path clip-path="url(#clip500)" d="M807.881 166.265 Q804.779 171.589 803.274 176.797 Q801.77 182.005 801.77 187.352 Q801.77 192.7 803.274 197.954 Q804.802 203.186 807.881 208.487 L804.177 208.487 Q800.705 203.047 798.969 197.792 Q797.256 192.538 797.256 187.352 Q797.256 182.19 798.969 176.959 Q800.682 171.728 804.177 166.265 L807.881 166.265 Z" fill="#000000" fill-rule="nonzero" fill-opacity="1" /><path clip-path="url(#clip500)" d="M815.705 192.005 L815.705 176.311 L819.964 176.311 L819.964 191.843 Q819.964 195.524 821.399 197.376 Q822.834 199.204 825.705 199.204 Q829.154 199.204 831.144 197.005 Q833.158 194.806 833.158 191.01 L833.158 176.311 L837.417 176.311 L837.417 202.237 L833.158 202.237 L833.158 198.255 Q831.607 200.616 829.547 201.774 Q827.51 202.908 824.802 202.908 Q820.334 202.908 818.019 200.13 Q815.705 197.352 815.705 192.005 M826.422 175.686 L826.422 175.686 Z" fill="#000000" fill-rule="nonzero" fill-opacity="1" /><path clip-path="url(#clip500)" d="M850.82 198.301 L867.14 198.301 L867.14 202.237 L845.195 202.237 L845.195 198.301 Q847.857 195.547 852.441 190.917 Q857.047 186.264 858.228 184.922 Q860.473 182.399 861.353 180.663 Q862.255 178.903 862.255 177.214 Q862.255 174.459 860.311 172.723 Q858.39 170.987 855.288 170.987 Q853.089 170.987 850.635 171.751 Q848.204 172.515 845.427 174.065 L845.427 169.343 Q848.251 168.209 850.704 167.63 Q853.158 167.052 855.195 167.052 Q860.565 167.052 863.76 169.737 Q866.954 172.422 866.954 176.913 Q866.954 179.042 866.144 180.964 Q865.357 182.862 863.251 185.454 Q862.672 186.126 859.57 189.343 Q856.468 192.538 850.82 198.301 Z" fill="#000000" fill-rule="nonzero" fill-opacity="1" /><path clip-path="url(#clip500)" d="M886.584 166.265 Q883.482 171.589 881.977 176.797 Q880.473 182.005 880.473 187.352 Q880.473 192.7 881.977 197.954 Q883.505 203.186 886.584 208.487 L882.88 208.487 Q879.408 203.047 877.672 197.792 Q875.959 192.538 875.959 187.352 Q875.959 182.19 877.672 176.959 Q879.385 171.728 882.88 166.265 L886.584 166.265 Z" fill="#000000" fill-rule="nonzero" fill-opacity="1" /><path clip-path="url(#clip500)" d="M899.061 168.95 L899.061 176.311 L907.834 176.311 L907.834 179.621 L899.061 179.621 L899.061 193.695 Q899.061 196.866 899.917 197.769 Q900.797 198.672 903.459 198.672 L907.834 198.672 L907.834 202.237 L903.459 202.237 Q898.528 202.237 896.653 200.408 Q894.778 198.556 894.778 193.695 L894.778 179.621 L891.653 179.621 L891.653 176.311 L894.778 176.311 L894.778 168.95 L899.061 168.95 Z" fill="#000000" fill-rule="nonzero" fill-opacity="1" /><path clip-path="url(#clip500)" d="M912.764 166.265 L916.468 166.265 Q919.94 171.728 921.653 176.959 Q923.389 182.19 923.389 187.352 Q923.389 192.538 921.653 197.792 Q919.94 203.047 916.468 208.487 L912.764 208.487 Q915.843 203.186 917.348 197.954 Q918.875 192.7 918.875 187.352 Q918.875 182.005 917.348 176.797 Q915.843 171.589 912.764 166.265 Z" fill="#000000" fill-rule="nonzero" fill-opacity="1" /><path clip-path="url(#clip500)" d="M931.26 166.265 L934.963 166.265 Q938.435 171.728 940.148 176.959 Q941.884 182.19 941.884 187.352 Q941.884 192.538 940.148 197.792 Q938.435 203.047 934.963 208.487 L931.26 208.487 Q934.338 203.186 935.843 197.954 Q937.371 192.7 937.371 187.352 Q937.371 182.005 935.843 176.797 Q934.338 171.589 931.26 166.265 Z" fill="#000000" fill-rule="nonzero" fill-opacity="1" /></svg>
