<?xml version="1.0" encoding="utf-8"?>
<svg xmlns="http://www.w3.org/2000/svg" xmlns:xlink="http://www.w3.org/1999/xlink" width="900" height="300" viewBox="0 0 3600 1200">
<defs>
  <clipPath id="clip200">
    <rect x="0" y="0" width="3600" height="1200"/>
  </clipPath>
</defs>
<path clip-path="url(#clip200)" d="M0 1200 L3600 1200 L3600 0 L0 0  Z" fill="#ffffff" fill-rule="evenodd" fill-opacity="1"/>
<defs>
  <clipPath id="clip201">
    <rect x="720" y="0" width="2521" height="1200"/>
  </clipPath>
</defs>
<path clip-path="url(#clip200)" d="M391.26 1005.23 L3552.76 1005.23 L3552.76 47.2441 L391.26 47.2441  Z" fill="#ffffff" fill-rule="evenodd" fill-opacity="1"/>
<defs>
  <clipPath id="clip202">
    <rect x="391" y="47" width="3162" height="959"/>
  </clipPath>
</defs>
<polyline clip-path="url(#clip202)" style="stroke:#000000; stroke-linecap:round; stroke-linejoin:round; stroke-width:2; stroke-opacity:0.1; fill:none" points="480.736,1005.23 480.736,47.2441 "/>
<polyline clip-path="url(#clip202)" style="stroke:#000000; stroke-linecap:round; stroke-linejoin:round; stroke-width:2; stroke-opacity:0.1; fill:none" points="1226.37,1005.23 1226.37,47.2441 "/>
<polyline clip-path="url(#clip202)" style="stroke:#000000; stroke-linecap:round; stroke-linejoin:round; stroke-width:2; stroke-opacity:0.1; fill:none" points="1972.01,1005.23 1972.01,47.2441 "/>
<polyline clip-path="url(#clip202)" style="stroke:#000000; stroke-linecap:round; stroke-linejoin:round; stroke-width:2; stroke-opacity:0.1; fill:none" points="2717.64,1005.23 2717.64,47.2441 "/>
<polyline clip-path="url(#clip202)" style="stroke:#000000; stroke-linecap:round; stroke-linejoin:round; stroke-width:2; stroke-opacity:0.1; fill:none" points="3463.28,1005.23 3463.28,47.2441 "/>
<polyline clip-path="url(#clip200)" style="stroke:#000000; stroke-linecap:round; stroke-linejoin:round; stroke-width:4; stroke-opacity:1; fill:none" points="391.26,1005.23 3552.76,1005.23 "/>
<polyline clip-path="url(#clip200)" style="stroke:#000000; stroke-linecap:round; stroke-linejoin:round; stroke-width:4; stroke-opacity:1; fill:none" points="480.736,1005.23 480.736,986.33 "/>
<polyline clip-path="url(#clip200)" style="stroke:#000000; stroke-linecap:round; stroke-linejoin:round; stroke-width:4; stroke-opacity:1; fill:none" points="1226.37,1005.23 1226.37,986.33 "/>
<polyline clip-path="url(#clip200)" style="stroke:#000000; stroke-linecap:round; stroke-linejoin:round; stroke-width:4; stroke-opacity:1; fill:none" points="1972.01,1005.23 1972.01,986.33 "/>
<polyline clip-path="url(#clip200)" style="stroke:#000000; stroke-linecap:round; stroke-linejoin:round; stroke-width:4; stroke-opacity:1; fill:none" points="2717.64,1005.23 2717.64,986.33 "/>
<polyline clip-path="url(#clip200)" style="stroke:#000000; stroke-linecap:round; stroke-linejoin:round; stroke-width:4; stroke-opacity:1; fill:none" points="3463.28,1005.23 3463.28,986.33 "/>
<path clip-path="url(#clip200)" d="M480.736 1045.75 Q477.125 1045.75 475.296 1049.31 Q473.491 1052.85 473.491 1059.98 Q473.491 1067.09 475.296 1070.65 Q477.125 1074.2 480.736 1074.2 Q484.37 1074.2 486.176 1070.65 Q488.005 1067.09 488.005 1059.98 Q488.005 1052.85 486.176 1049.31 Q484.37 1045.75 480.736 1045.75 M480.736 1042.04 Q486.546 1042.04 489.602 1046.65 Q492.68 1051.23 492.68 1059.98 Q492.68 1068.71 489.602 1073.32 Q486.546 1077.9 480.736 1077.9 Q474.926 1077.9 471.847 1073.32 Q468.792 1068.71 468.792 1059.98 Q468.792 1051.23 471.847 1046.65 Q474.926 1042.04 480.736 1042.04 Z" fill="#000000" fill-rule="nonzero" fill-opacity="1" /><path clip-path="url(#clip200)" d="M1216.65 1042.67 L1235.01 1042.67 L1235.01 1046.6 L1220.93 1046.6 L1220.93 1055.08 Q1221.95 1054.73 1222.97 1054.57 Q1223.99 1054.38 1225.01 1054.38 Q1230.79 1054.38 1234.17 1057.55 Q1237.55 1060.72 1237.55 1066.14 Q1237.55 1071.72 1234.08 1074.82 Q1230.61 1077.9 1224.29 1077.9 Q1222.11 1077.9 1219.84 1077.53 Q1217.6 1077.16 1215.19 1076.42 L1215.19 1071.72 Q1217.27 1072.85 1219.5 1073.41 Q1221.72 1073.96 1224.2 1073.96 Q1228.2 1073.96 1230.54 1071.86 Q1232.88 1069.75 1232.88 1066.14 Q1232.88 1062.53 1230.54 1060.42 Q1228.2 1058.32 1224.2 1058.32 Q1222.32 1058.32 1220.45 1058.73 Q1218.59 1059.15 1216.65 1060.03 L1216.65 1042.67 Z" fill="#000000" fill-rule="nonzero" fill-opacity="1" /><path clip-path="url(#clip200)" d="M1946.7 1073.29 L1954.33 1073.29 L1954.33 1046.93 L1946.02 1048.59 L1946.02 1044.33 L1954.29 1042.67 L1958.96 1042.67 L1958.96 1073.29 L1966.6 1073.29 L1966.6 1077.23 L1946.7 1077.23 L1946.7 1073.29 Z" fill="#000000" fill-rule="nonzero" fill-opacity="1" /><path clip-path="url(#clip200)" d="M1986.05 1045.75 Q1982.44 1045.75 1980.61 1049.31 Q1978.8 1052.85 1978.8 1059.98 Q1978.8 1067.09 1980.61 1070.65 Q1982.44 1074.2 1986.05 1074.2 Q1989.68 1074.2 1991.49 1070.65 Q1993.32 1067.09 1993.32 1059.98 Q1993.32 1052.85 1991.49 1049.31 Q1989.68 1045.75 1986.05 1045.75 M1986.05 1042.04 Q1991.86 1042.04 1994.91 1046.65 Q1997.99 1051.23 1997.99 1059.98 Q1997.99 1068.71 1994.91 1073.32 Q1991.86 1077.9 1986.05 1077.9 Q1980.24 1077.9 1977.16 1073.32 Q1974.1 1068.71 1974.1 1059.98 Q1974.1 1051.23 1977.16 1046.65 Q1980.24 1042.04 1986.05 1042.04 Z" fill="#000000" fill-rule="nonzero" fill-opacity="1" /><path clip-path="url(#clip200)" d="M2692.83 1073.29 L2700.47 1073.29 L2700.47 1046.93 L2692.16 1048.59 L2692.16 1044.33 L2700.42 1042.67 L2705.1 1042.67 L2705.1 1073.29 L2712.74 1073.29 L2712.74 1077.23 L2692.83 1077.23 L2692.83 1073.29 Z" fill="#000000" fill-rule="nonzero" fill-opacity="1" /><path clip-path="url(#clip200)" d="M2722.23 1042.67 L2740.58 1042.67 L2740.58 1046.6 L2726.51 1046.6 L2726.51 1055.08 Q2727.53 1054.73 2728.55 1054.57 Q2729.56 1054.38 2730.58 1054.38 Q2736.37 1054.38 2739.75 1057.55 Q2743.13 1060.72 2743.13 1066.14 Q2743.13 1071.72 2739.66 1074.82 Q2736.19 1077.9 2729.87 1077.9 Q2727.69 1077.9 2725.42 1077.53 Q2723.18 1077.16 2720.77 1076.42 L2720.77 1071.72 Q2722.85 1072.85 2725.07 1073.41 Q2727.3 1073.96 2729.77 1073.96 Q2733.78 1073.96 2736.12 1071.86 Q2738.45 1069.75 2738.45 1066.14 Q2738.45 1062.53 2736.12 1060.42 Q2733.78 1058.32 2729.77 1058.32 Q2727.9 1058.32 2726.02 1058.73 Q2724.17 1059.15 2722.23 1060.03 L2722.23 1042.67 Z" fill="#000000" fill-rule="nonzero" fill-opacity="1" /><path clip-path="url(#clip200)" d="M3442.05 1073.29 L3458.37 1073.29 L3458.37 1077.23 L3436.43 1077.23 L3436.43 1073.29 Q3439.09 1070.54 3443.67 1065.91 Q3448.28 1061.26 3449.46 1059.91 Q3451.71 1057.39 3452.59 1055.65 Q3453.49 1053.89 3453.49 1052.2 Q3453.49 1049.45 3451.54 1047.71 Q3449.62 1045.98 3446.52 1045.98 Q3444.32 1045.98 3441.87 1046.74 Q3439.44 1047.51 3436.66 1049.06 L3436.66 1044.33 Q3439.48 1043.2 3441.94 1042.62 Q3444.39 1042.04 3446.43 1042.04 Q3451.8 1042.04 3454.99 1044.73 Q3458.19 1047.41 3458.19 1051.9 Q3458.19 1054.03 3457.38 1055.95 Q3456.59 1057.85 3454.48 1060.45 Q3453.9 1061.12 3450.8 1064.33 Q3447.7 1067.53 3442.05 1073.29 Z" fill="#000000" fill-rule="nonzero" fill-opacity="1" /><path clip-path="url(#clip200)" d="M3478.19 1045.75 Q3474.58 1045.75 3472.75 1049.31 Q3470.94 1052.85 3470.94 1059.98 Q3470.94 1067.09 3472.75 1070.65 Q3474.58 1074.2 3478.19 1074.2 Q3481.82 1074.2 3483.63 1070.65 Q3485.46 1067.09 3485.46 1059.98 Q3485.46 1052.85 3483.63 1049.31 Q3481.82 1045.75 3478.19 1045.75 M3478.19 1042.04 Q3484 1042.04 3487.05 1046.65 Q3490.13 1051.23 3490.13 1059.98 Q3490.13 1068.71 3487.05 1073.32 Q3484 1077.9 3478.19 1077.9 Q3472.38 1077.9 3469.3 1073.32 Q3466.24 1068.71 3466.24 1059.98 Q3466.24 1051.23 3469.3 1046.65 Q3472.38 1042.04 3478.19 1042.04 Z" fill="#000000" fill-rule="nonzero" fill-opacity="1" /><path clip-path="url(#clip200)" d="M1971.07 1122.32 L1971.07 1132.44 L1983.13 1132.44 L1983.13 1137 L1971.07 1137 L1971.07 1156.35 Q1971.07 1160.71 1972.25 1161.95 Q1973.46 1163.19 1977.12 1163.19 L1983.13 1163.19 L1983.13 1168.09 L1977.12 1168.09 Q1970.34 1168.09 1967.76 1165.58 Q1965.18 1163.03 1965.18 1156.35 L1965.18 1137 L1960.88 1137 L1960.88 1132.44 L1965.18 1132.44 L1965.18 1122.32 L1971.07 1122.32 Z" fill="#000000" fill-rule="nonzero" fill-opacity="1" /><polyline clip-path="url(#clip202)" style="stroke:#000000; stroke-linecap:round; stroke-linejoin:round; stroke-width:2; stroke-opacity:0.1; fill:none" points="391.26,978.115 3552.76,978.115 "/>
<polyline clip-path="url(#clip202)" style="stroke:#000000; stroke-linecap:round; stroke-linejoin:round; stroke-width:2; stroke-opacity:0.1; fill:none" points="391.26,751.599 3552.76,751.599 "/>
<polyline clip-path="url(#clip202)" style="stroke:#000000; stroke-linecap:round; stroke-linejoin:round; stroke-width:2; stroke-opacity:0.1; fill:none" points="391.26,525.083 3552.76,525.083 "/>
<polyline clip-path="url(#clip202)" style="stroke:#000000; stroke-linecap:round; stroke-linejoin:round; stroke-width:2; stroke-opacity:0.1; fill:none" points="391.26,298.566 3552.76,298.566 "/>
<polyline clip-path="url(#clip202)" style="stroke:#000000; stroke-linecap:round; stroke-linejoin:round; stroke-width:2; stroke-opacity:0.1; fill:none" points="391.26,72.0501 3552.76,72.0501 "/>
<polyline clip-path="url(#clip200)" style="stroke:#000000; stroke-linecap:round; stroke-linejoin:round; stroke-width:4; stroke-opacity:1; fill:none" points="391.26,1005.23 391.26,47.2441 "/>
<polyline clip-path="url(#clip200)" style="stroke:#000000; stroke-linecap:round; stroke-linejoin:round; stroke-width:4; stroke-opacity:1; fill:none" points="391.26,978.115 410.157,978.115 "/>
<polyline clip-path="url(#clip200)" style="stroke:#000000; stroke-linecap:round; stroke-linejoin:round; stroke-width:4; stroke-opacity:1; fill:none" points="391.26,751.599 410.157,751.599 "/>
<polyline clip-path="url(#clip200)" style="stroke:#000000; stroke-linecap:round; stroke-linejoin:round; stroke-width:4; stroke-opacity:1; fill:none" points="391.26,525.083 410.157,525.083 "/>
<polyline clip-path="url(#clip200)" style="stroke:#000000; stroke-linecap:round; stroke-linejoin:round; stroke-width:4; stroke-opacity:1; fill:none" points="391.26,298.566 410.157,298.566 "/>
<polyline clip-path="url(#clip200)" style="stroke:#000000; stroke-linecap:round; stroke-linejoin:round; stroke-width:4; stroke-opacity:1; fill:none" points="391.26,72.0501 410.157,72.0501 "/>
<path clip-path="url(#clip200)" d="M159.437 963.914 Q155.826 963.914 153.997 967.478 Q152.191 971.02 152.191 978.15 Q152.191 985.256 153.997 988.821 Q155.826 992.363 159.437 992.363 Q163.071 992.363 164.876 988.821 Q166.705 985.256 166.705 978.15 Q166.705 971.02 164.876 967.478 Q163.071 963.914 159.437 963.914 M159.437 960.21 Q165.247 960.21 168.302 964.816 Q171.381 969.4 171.381 978.15 Q171.381 986.876 168.302 991.483 Q165.247 996.066 159.437 996.066 Q153.627 996.066 150.548 991.483 Q147.492 986.876 147.492 978.15 Q147.492 969.4 150.548 964.816 Q153.627 960.21 159.437 960.21 Z" fill="#000000" fill-rule="nonzero" fill-opacity="1" /><path clip-path="url(#clip200)" d="M179.599 989.515 L184.483 989.515 L184.483 995.395 L179.599 995.395 L179.599 989.515 Z" fill="#000000" fill-rule="nonzero" fill-opacity="1" /><path clip-path="url(#clip200)" d="M204.668 963.914 Q201.057 963.914 199.228 967.478 Q197.423 971.02 197.423 978.15 Q197.423 985.256 199.228 988.821 Q201.057 992.363 204.668 992.363 Q208.302 992.363 210.108 988.821 Q211.936 985.256 211.936 978.15 Q211.936 971.02 210.108 967.478 Q208.302 963.914 204.668 963.914 M204.668 960.21 Q210.478 960.21 213.534 964.816 Q216.612 969.4 216.612 978.15 Q216.612 986.876 213.534 991.483 Q210.478 996.066 204.668 996.066 Q198.858 996.066 195.779 991.483 Q192.724 986.876 192.724 978.15 Q192.724 969.4 195.779 964.816 Q198.858 960.21 204.668 960.21 Z" fill="#000000" fill-rule="nonzero" fill-opacity="1" /><path clip-path="url(#clip200)" d="M234.83 963.914 Q231.219 963.914 229.39 967.478 Q227.584 971.02 227.584 978.15 Q227.584 985.256 229.39 988.821 Q231.219 992.363 234.83 992.363 Q238.464 992.363 240.27 988.821 Q242.098 985.256 242.098 978.15 Q242.098 971.02 240.27 967.478 Q238.464 963.914 234.83 963.914 M234.83 960.21 Q240.64 960.21 243.695 964.816 Q246.774 969.4 246.774 978.15 Q246.774 986.876 243.695 991.483 Q240.64 996.066 234.83 996.066 Q229.02 996.066 225.941 991.483 Q222.885 986.876 222.885 978.15 Q222.885 969.4 225.941 964.816 Q229.02 960.21 234.83 960.21 Z" fill="#000000" fill-rule="nonzero" fill-opacity="1" /><path clip-path="url(#clip200)" d="M264.992 963.914 Q261.381 963.914 259.552 967.478 Q257.746 971.02 257.746 978.15 Q257.746 985.256 259.552 988.821 Q261.381 992.363 264.992 992.363 Q268.626 992.363 270.431 988.821 Q272.26 985.256 272.26 978.15 Q272.26 971.02 270.431 967.478 Q268.626 963.914 264.992 963.914 M264.992 960.21 Q270.802 960.21 273.857 964.816 Q276.936 969.4 276.936 978.15 Q276.936 986.876 273.857 991.483 Q270.802 996.066 264.992 996.066 Q259.181 996.066 256.103 991.483 Q253.047 986.876 253.047 978.15 Q253.047 969.4 256.103 964.816 Q259.181 960.21 264.992 960.21 Z" fill="#000000" fill-rule="nonzero" fill-opacity="1" /><path clip-path="url(#clip200)" d="M295.154 963.914 Q291.542 963.914 289.714 967.478 Q287.908 971.02 287.908 978.15 Q287.908 985.256 289.714 988.821 Q291.542 992.363 295.154 992.363 Q298.788 992.363 300.593 988.821 Q302.422 985.256 302.422 978.15 Q302.422 971.02 300.593 967.478 Q298.788 963.914 295.154 963.914 M295.154 960.21 Q300.964 960.21 304.019 964.816 Q307.098 969.4 307.098 978.15 Q307.098 986.876 304.019 991.483 Q300.964 996.066 295.154 996.066 Q289.343 996.066 286.265 991.483 Q283.209 986.876 283.209 978.15 Q283.209 969.4 286.265 964.816 Q289.343 960.21 295.154 960.21 Z" fill="#000000" fill-rule="nonzero" fill-opacity="1" /><path clip-path="url(#clip200)" d="M325.315 963.914 Q321.704 963.914 319.876 967.478 Q318.07 971.02 318.07 978.15 Q318.07 985.256 319.876 988.821 Q321.704 992.363 325.315 992.363 Q328.95 992.363 330.755 988.821 Q332.584 985.256 332.584 978.15 Q332.584 971.02 330.755 967.478 Q328.95 963.914 325.315 963.914 M325.315 960.21 Q331.126 960.21 334.181 964.816 Q337.26 969.4 337.26 978.15 Q337.26 986.876 334.181 991.483 Q331.126 996.066 325.315 996.066 Q319.505 996.066 316.427 991.483 Q313.371 986.876 313.371 978.15 Q313.371 969.4 316.427 964.816 Q319.505 960.21 325.315 960.21 Z" fill="#000000" fill-rule="nonzero" fill-opacity="1" /><path clip-path="url(#clip200)" d="M160.432 737.397 Q156.821 737.397 154.992 740.962 Q153.187 744.504 153.187 751.633 Q153.187 758.74 154.992 762.305 Q156.821 765.846 160.432 765.846 Q164.066 765.846 165.872 762.305 Q167.701 758.74 167.701 751.633 Q167.701 744.504 165.872 740.962 Q164.066 737.397 160.432 737.397 M160.432 733.694 Q166.242 733.694 169.298 738.3 Q172.376 742.884 172.376 751.633 Q172.376 760.36 169.298 764.967 Q166.242 769.55 160.432 769.55 Q154.622 769.55 151.543 764.967 Q148.488 760.36 148.488 751.633 Q148.488 742.884 151.543 738.3 Q154.622 733.694 160.432 733.694 Z" fill="#000000" fill-rule="nonzero" fill-opacity="1" /><path clip-path="url(#clip200)" d="M180.594 762.999 L185.478 762.999 L185.478 768.879 L180.594 768.879 L180.594 762.999 Z" fill="#000000" fill-rule="nonzero" fill-opacity="1" /><path clip-path="url(#clip200)" d="M205.663 737.397 Q202.052 737.397 200.223 740.962 Q198.418 744.504 198.418 751.633 Q198.418 758.74 200.223 762.305 Q202.052 765.846 205.663 765.846 Q209.298 765.846 211.103 762.305 Q212.932 758.74 212.932 751.633 Q212.932 744.504 211.103 740.962 Q209.298 737.397 205.663 737.397 M205.663 733.694 Q211.473 733.694 214.529 738.3 Q217.608 742.884 217.608 751.633 Q217.608 760.36 214.529 764.967 Q211.473 769.55 205.663 769.55 Q199.853 769.55 196.774 764.967 Q193.719 760.36 193.719 751.633 Q193.719 742.884 196.774 738.3 Q199.853 733.694 205.663 733.694 Z" fill="#000000" fill-rule="nonzero" fill-opacity="1" /><path clip-path="url(#clip200)" d="M235.825 737.397 Q232.214 737.397 230.385 740.962 Q228.58 744.504 228.58 751.633 Q228.58 758.74 230.385 762.305 Q232.214 765.846 235.825 765.846 Q239.459 765.846 241.265 762.305 Q243.094 758.74 243.094 751.633 Q243.094 744.504 241.265 740.962 Q239.459 737.397 235.825 737.397 M235.825 733.694 Q241.635 733.694 244.691 738.3 Q247.77 742.884 247.77 751.633 Q247.77 760.36 244.691 764.967 Q241.635 769.55 235.825 769.55 Q230.015 769.55 226.936 764.967 Q223.881 760.36 223.881 751.633 Q223.881 742.884 226.936 738.3 Q230.015 733.694 235.825 733.694 Z" fill="#000000" fill-rule="nonzero" fill-opacity="1" /><path clip-path="url(#clip200)" d="M265.987 737.397 Q262.376 737.397 260.547 740.962 Q258.742 744.504 258.742 751.633 Q258.742 758.74 260.547 762.305 Q262.376 765.846 265.987 765.846 Q269.621 765.846 271.427 762.305 Q273.255 758.74 273.255 751.633 Q273.255 744.504 271.427 740.962 Q269.621 737.397 265.987 737.397 M265.987 733.694 Q271.797 733.694 274.853 738.3 Q277.931 742.884 277.931 751.633 Q277.931 760.36 274.853 764.967 Q271.797 769.55 265.987 769.55 Q260.177 769.55 257.098 764.967 Q254.043 760.36 254.043 751.633 Q254.043 742.884 257.098 738.3 Q260.177 733.694 265.987 733.694 Z" fill="#000000" fill-rule="nonzero" fill-opacity="1" /><path clip-path="url(#clip200)" d="M290.177 764.944 L306.496 764.944 L306.496 768.879 L284.552 768.879 L284.552 764.944 Q287.214 762.189 291.797 757.559 Q296.404 752.907 297.584 751.564 Q299.829 749.041 300.709 747.305 Q301.612 745.546 301.612 743.856 Q301.612 741.101 299.667 739.365 Q297.746 737.629 294.644 737.629 Q292.445 737.629 289.992 738.393 Q287.561 739.157 284.783 740.708 L284.783 735.985 Q287.607 734.851 290.061 734.272 Q292.515 733.694 294.552 733.694 Q299.922 733.694 303.116 736.379 Q306.311 739.064 306.311 743.555 Q306.311 745.684 305.501 747.606 Q304.714 749.504 302.607 752.096 Q302.028 752.768 298.927 755.985 Q295.825 759.18 290.177 764.944 Z" fill="#000000" fill-rule="nonzero" fill-opacity="1" /><path clip-path="url(#clip200)" d="M316.357 734.319 L334.714 734.319 L334.714 738.254 L320.64 738.254 L320.64 746.726 Q321.658 746.379 322.677 746.217 Q323.695 746.032 324.714 746.032 Q330.501 746.032 333.88 749.203 Q337.26 752.374 337.26 757.791 Q337.26 763.37 333.788 766.471 Q330.315 769.55 323.996 769.55 Q321.82 769.55 319.552 769.18 Q317.306 768.809 314.899 768.069 L314.899 763.37 Q316.982 764.504 319.204 765.059 Q321.427 765.615 323.903 765.615 Q327.908 765.615 330.246 763.508 Q332.584 761.402 332.584 757.791 Q332.584 754.18 330.246 752.073 Q327.908 749.967 323.903 749.967 Q322.028 749.967 320.153 750.383 Q318.302 750.8 316.357 751.68 L316.357 734.319 Z" fill="#000000" fill-rule="nonzero" fill-opacity="1" /><path clip-path="url(#clip200)" d="M159.437 510.881 Q155.826 510.881 153.997 514.446 Q152.191 517.988 152.191 525.117 Q152.191 532.224 153.997 535.789 Q155.826 539.33 159.437 539.33 Q163.071 539.33 164.876 535.789 Q166.705 532.224 166.705 525.117 Q166.705 517.988 164.876 514.446 Q163.071 510.881 159.437 510.881 M159.437 507.178 Q165.247 507.178 168.302 511.784 Q171.381 516.367 171.381 525.117 Q171.381 533.844 168.302 538.451 Q165.247 543.034 159.437 543.034 Q153.627 543.034 150.548 538.451 Q147.492 533.844 147.492 525.117 Q147.492 516.367 150.548 511.784 Q153.627 507.178 159.437 507.178 Z" fill="#000000" fill-rule="nonzero" fill-opacity="1" /><path clip-path="url(#clip200)" d="M179.599 536.483 L184.483 536.483 L184.483 542.363 L179.599 542.363 L179.599 536.483 Z" fill="#000000" fill-rule="nonzero" fill-opacity="1" /><path clip-path="url(#clip200)" d="M204.668 510.881 Q201.057 510.881 199.228 514.446 Q197.423 517.988 197.423 525.117 Q197.423 532.224 199.228 535.789 Q201.057 539.33 204.668 539.33 Q208.302 539.33 210.108 535.789 Q211.936 532.224 211.936 525.117 Q211.936 517.988 210.108 514.446 Q208.302 510.881 204.668 510.881 M204.668 507.178 Q210.478 507.178 213.534 511.784 Q216.612 516.367 216.612 525.117 Q216.612 533.844 213.534 538.451 Q210.478 543.034 204.668 543.034 Q198.858 543.034 195.779 538.451 Q192.724 533.844 192.724 525.117 Q192.724 516.367 195.779 511.784 Q198.858 507.178 204.668 507.178 Z" fill="#000000" fill-rule="nonzero" fill-opacity="1" /><path clip-path="url(#clip200)" d="M234.83 510.881 Q231.219 510.881 229.39 514.446 Q227.584 517.988 227.584 525.117 Q227.584 532.224 229.39 535.789 Q231.219 539.33 234.83 539.33 Q238.464 539.33 240.27 535.789 Q242.098 532.224 242.098 525.117 Q242.098 517.988 240.27 514.446 Q238.464 510.881 234.83 510.881 M234.83 507.178 Q240.64 507.178 243.695 511.784 Q246.774 516.367 246.774 525.117 Q246.774 533.844 243.695 538.451 Q240.64 543.034 234.83 543.034 Q229.02 543.034 225.941 538.451 Q222.885 533.844 222.885 525.117 Q222.885 516.367 225.941 511.784 Q229.02 507.178 234.83 507.178 Z" fill="#000000" fill-rule="nonzero" fill-opacity="1" /><path clip-path="url(#clip200)" d="M264.992 510.881 Q261.381 510.881 259.552 514.446 Q257.746 517.988 257.746 525.117 Q257.746 532.224 259.552 535.789 Q261.381 539.33 264.992 539.33 Q268.626 539.33 270.431 535.789 Q272.26 532.224 272.26 525.117 Q272.26 517.988 270.431 514.446 Q268.626 510.881 264.992 510.881 M264.992 507.178 Q270.802 507.178 273.857 511.784 Q276.936 516.367 276.936 525.117 Q276.936 533.844 273.857 538.451 Q270.802 543.034 264.992 543.034 Q259.181 543.034 256.103 538.451 Q253.047 533.844 253.047 525.117 Q253.047 516.367 256.103 511.784 Q259.181 507.178 264.992 507.178 Z" fill="#000000" fill-rule="nonzero" fill-opacity="1" /><path clip-path="url(#clip200)" d="M285.2 507.803 L303.556 507.803 L303.556 511.738 L289.482 511.738 L289.482 520.21 Q290.501 519.863 291.519 519.701 Q292.538 519.515 293.556 519.515 Q299.343 519.515 302.723 522.687 Q306.103 525.858 306.103 531.275 Q306.103 536.853 302.63 539.955 Q299.158 543.034 292.839 543.034 Q290.663 543.034 288.394 542.663 Q286.149 542.293 283.742 541.552 L283.742 536.853 Q285.825 537.988 288.047 538.543 Q290.269 539.099 292.746 539.099 Q296.751 539.099 299.089 536.992 Q301.427 534.886 301.427 531.275 Q301.427 527.664 299.089 525.557 Q296.751 523.451 292.746 523.451 Q290.871 523.451 288.996 523.867 Q287.144 524.284 285.2 525.164 L285.2 507.803 Z" fill="#000000" fill-rule="nonzero" fill-opacity="1" /><path clip-path="url(#clip200)" d="M325.315 510.881 Q321.704 510.881 319.876 514.446 Q318.07 517.988 318.07 525.117 Q318.07 532.224 319.876 535.789 Q321.704 539.33 325.315 539.33 Q328.95 539.33 330.755 535.789 Q332.584 532.224 332.584 525.117 Q332.584 517.988 330.755 514.446 Q328.95 510.881 325.315 510.881 M325.315 507.178 Q331.126 507.178 334.181 511.784 Q337.26 516.367 337.26 525.117 Q337.26 533.844 334.181 538.451 Q331.126 543.034 325.315 543.034 Q319.505 543.034 316.427 538.451 Q313.371 533.844 313.371 525.117 Q313.371 516.367 316.427 511.784 Q319.505 507.178 325.315 507.178 Z" fill="#000000" fill-rule="nonzero" fill-opacity="1" /><path clip-path="url(#clip200)" d="M160.432 284.365 Q156.821 284.365 154.992 287.93 Q153.187 291.471 153.187 298.601 Q153.187 305.707 154.992 309.272 Q156.821 312.814 160.432 312.814 Q164.066 312.814 165.872 309.272 Q167.701 305.707 167.701 298.601 Q167.701 291.471 165.872 287.93 Q164.066 284.365 160.432 284.365 M160.432 280.661 Q166.242 280.661 169.298 285.268 Q172.376 289.851 172.376 298.601 Q172.376 307.328 169.298 311.934 Q166.242 316.518 160.432 316.518 Q154.622 316.518 151.543 311.934 Q148.488 307.328 148.488 298.601 Q148.488 289.851 151.543 285.268 Q154.622 280.661 160.432 280.661 Z" fill="#000000" fill-rule="nonzero" fill-opacity="1" /><path clip-path="url(#clip200)" d="M180.594 309.967 L185.478 309.967 L185.478 315.846 L180.594 315.846 L180.594 309.967 Z" fill="#000000" fill-rule="nonzero" fill-opacity="1" /><path clip-path="url(#clip200)" d="M205.663 284.365 Q202.052 284.365 200.223 287.93 Q198.418 291.471 198.418 298.601 Q198.418 305.707 200.223 309.272 Q202.052 312.814 205.663 312.814 Q209.298 312.814 211.103 309.272 Q212.932 305.707 212.932 298.601 Q212.932 291.471 211.103 287.93 Q209.298 284.365 205.663 284.365 M205.663 280.661 Q211.473 280.661 214.529 285.268 Q217.608 289.851 217.608 298.601 Q217.608 307.328 214.529 311.934 Q211.473 316.518 205.663 316.518 Q199.853 316.518 196.774 311.934 Q193.719 307.328 193.719 298.601 Q193.719 289.851 196.774 285.268 Q199.853 280.661 205.663 280.661 Z" fill="#000000" fill-rule="nonzero" fill-opacity="1" /><path clip-path="url(#clip200)" d="M235.825 284.365 Q232.214 284.365 230.385 287.93 Q228.58 291.471 228.58 298.601 Q228.58 305.707 230.385 309.272 Q232.214 312.814 235.825 312.814 Q239.459 312.814 241.265 309.272 Q243.094 305.707 243.094 298.601 Q243.094 291.471 241.265 287.93 Q239.459 284.365 235.825 284.365 M235.825 280.661 Q241.635 280.661 244.691 285.268 Q247.77 289.851 247.77 298.601 Q247.77 307.328 244.691 311.934 Q241.635 316.518 235.825 316.518 Q230.015 316.518 226.936 311.934 Q223.881 307.328 223.881 298.601 Q223.881 289.851 226.936 285.268 Q230.015 280.661 235.825 280.661 Z" fill="#000000" fill-rule="nonzero" fill-opacity="1" /><path clip-path="url(#clip200)" d="M265.987 284.365 Q262.376 284.365 260.547 287.93 Q258.742 291.471 258.742 298.601 Q258.742 305.707 260.547 309.272 Q262.376 312.814 265.987 312.814 Q269.621 312.814 271.427 309.272 Q273.255 305.707 273.255 298.601 Q273.255 291.471 271.427 287.93 Q269.621 284.365 265.987 284.365 M265.987 280.661 Q271.797 280.661 274.853 285.268 Q277.931 289.851 277.931 298.601 Q277.931 307.328 274.853 311.934 Q271.797 316.518 265.987 316.518 Q260.177 316.518 257.098 311.934 Q254.043 307.328 254.043 298.601 Q254.043 289.851 257.098 285.268 Q260.177 280.661 265.987 280.661 Z" fill="#000000" fill-rule="nonzero" fill-opacity="1" /><path clip-path="url(#clip200)" d="M284.968 281.286 L307.191 281.286 L307.191 283.277 L294.644 315.846 L289.76 315.846 L301.566 285.221 L284.968 285.221 L284.968 281.286 Z" fill="#000000" fill-rule="nonzero" fill-opacity="1" /><path clip-path="url(#clip200)" d="M316.357 281.286 L334.714 281.286 L334.714 285.221 L320.64 285.221 L320.64 293.694 Q321.658 293.346 322.677 293.184 Q323.695 292.999 324.714 292.999 Q330.501 292.999 333.88 296.171 Q337.26 299.342 337.26 304.758 Q337.26 310.337 333.788 313.439 Q330.315 316.518 323.996 316.518 Q321.82 316.518 319.552 316.147 Q317.306 315.777 314.899 315.036 L314.899 310.337 Q316.982 311.471 319.204 312.027 Q321.427 312.582 323.903 312.582 Q327.908 312.582 330.246 310.476 Q332.584 308.37 332.584 304.758 Q332.584 301.147 330.246 299.041 Q327.908 296.934 323.903 296.934 Q322.028 296.934 320.153 297.351 Q318.302 297.768 316.357 298.647 L316.357 281.286 Z" fill="#000000" fill-rule="nonzero" fill-opacity="1" /><path clip-path="url(#clip200)" d="M159.437 57.8488 Q155.826 57.8488 153.997 61.4136 Q152.191 64.9552 152.191 72.0848 Q152.191 79.1913 153.997 82.7561 Q155.826 86.2977 159.437 86.2977 Q163.071 86.2977 164.876 82.7561 Q166.705 79.1913 166.705 72.0848 Q166.705 64.9552 164.876 61.4136 Q163.071 57.8488 159.437 57.8488 M159.437 54.1451 Q165.247 54.1451 168.302 58.7516 Q171.381 63.3349 171.381 72.0848 Q171.381 80.8116 168.302 85.4181 Q165.247 90.0014 159.437 90.0014 Q153.627 90.0014 150.548 85.4181 Q147.492 80.8116 147.492 72.0848 Q147.492 63.3349 150.548 58.7516 Q153.627 54.1451 159.437 54.1451 Z" fill="#000000" fill-rule="nonzero" fill-opacity="1" /><path clip-path="url(#clip200)" d="M179.599 83.4505 L184.483 83.4505 L184.483 89.3301 L179.599 89.3301 L179.599 83.4505 Z" fill="#000000" fill-rule="nonzero" fill-opacity="1" /><path clip-path="url(#clip200)" d="M204.668 57.8488 Q201.057 57.8488 199.228 61.4136 Q197.423 64.9552 197.423 72.0848 Q197.423 79.1913 199.228 82.7561 Q201.057 86.2977 204.668 86.2977 Q208.302 86.2977 210.108 82.7561 Q211.936 79.1913 211.936 72.0848 Q211.936 64.9552 210.108 61.4136 Q208.302 57.8488 204.668 57.8488 M204.668 54.1451 Q210.478 54.1451 213.534 58.7516 Q216.612 63.3349 216.612 72.0848 Q216.612 80.8116 213.534 85.4181 Q210.478 90.0014 204.668 90.0014 Q198.858 90.0014 195.779 85.4181 Q192.724 80.8116 192.724 72.0848 Q192.724 63.3349 195.779 58.7516 Q198.858 54.1451 204.668 54.1451 Z" fill="#000000" fill-rule="nonzero" fill-opacity="1" /><path clip-path="url(#clip200)" d="M234.83 57.8488 Q231.219 57.8488 229.39 61.4136 Q227.584 64.9552 227.584 72.0848 Q227.584 79.1913 229.39 82.7561 Q231.219 86.2977 234.83 86.2977 Q238.464 86.2977 240.27 82.7561 Q242.098 79.1913 242.098 72.0848 Q242.098 64.9552 240.27 61.4136 Q238.464 57.8488 234.83 57.8488 M234.83 54.1451 Q240.64 54.1451 243.695 58.7516 Q246.774 63.3349 246.774 72.0848 Q246.774 80.8116 243.695 85.4181 Q240.64 90.0014 234.83 90.0014 Q229.02 90.0014 225.941 85.4181 Q222.885 80.8116 222.885 72.0848 Q222.885 63.3349 225.941 58.7516 Q229.02 54.1451 234.83 54.1451 Z" fill="#000000" fill-rule="nonzero" fill-opacity="1" /><path clip-path="url(#clip200)" d="M255.802 85.3949 L263.441 85.3949 L263.441 59.0293 L255.131 60.696 L255.131 56.4368 L263.394 54.7701 L268.07 54.7701 L268.07 85.3949 L275.709 85.3949 L275.709 89.3301 L255.802 89.3301 L255.802 85.3949 Z" fill="#000000" fill-rule="nonzero" fill-opacity="1" /><path clip-path="url(#clip200)" d="M295.154 57.8488 Q291.542 57.8488 289.714 61.4136 Q287.908 64.9552 287.908 72.0848 Q287.908 79.1913 289.714 82.7561 Q291.542 86.2977 295.154 86.2977 Q298.788 86.2977 300.593 82.7561 Q302.422 79.1913 302.422 72.0848 Q302.422 64.9552 300.593 61.4136 Q298.788 57.8488 295.154 57.8488 M295.154 54.1451 Q300.964 54.1451 304.019 58.7516 Q307.098 63.3349 307.098 72.0848 Q307.098 80.8116 304.019 85.4181 Q300.964 90.0014 295.154 90.0014 Q289.343 90.0014 286.265 85.4181 Q283.209 80.8116 283.209 72.0848 Q283.209 63.3349 286.265 58.7516 Q289.343 54.1451 295.154 54.1451 Z" fill="#000000" fill-rule="nonzero" fill-opacity="1" /><path clip-path="url(#clip200)" d="M325.315 57.8488 Q321.704 57.8488 319.876 61.4136 Q318.07 64.9552 318.07 72.0848 Q318.07 79.1913 319.876 82.7561 Q321.704 86.2977 325.315 86.2977 Q328.95 86.2977 330.755 82.7561 Q332.584 79.1913 332.584 72.0848 Q332.584 64.9552 330.755 61.4136 Q328.95 57.8488 325.315 57.8488 M325.315 54.1451 Q331.126 54.1451 334.181 58.7516 Q337.26 63.3349 337.26 72.0848 Q337.26 80.8116 334.181 85.4181 Q331.126 90.0014 325.315 90.0014 Q319.505 90.0014 316.427 85.4181 Q313.371 80.8116 313.371 72.0848 Q313.371 63.3349 316.427 58.7516 Q319.505 54.1451 325.315 54.1451 Z" fill="#000000" fill-rule="nonzero" fill-opacity="1" /><path clip-path="url(#clip200)" d="M44.6387 804.179 L50.1768 804.179 Q48.9037 806.661 48.2671 809.335 Q47.6306 812.008 47.6306 814.873 Q47.6306 819.233 48.9673 821.43 Q50.3041 823.594 52.9777 823.594 Q55.0148 823.594 56.1924 822.034 Q57.3383 820.475 58.3886 815.764 L58.8342 813.759 Q60.171 807.521 62.6218 804.911 Q65.0408 802.269 69.4013 802.269 Q74.3665 802.269 77.2629 806.216 Q80.1593 810.131 80.1593 817.005 Q80.1593 819.87 79.5864 822.989 Q79.0453 826.077 77.9313 829.514 L71.8839 829.514 Q73.5708 826.268 74.4302 823.117 Q75.2577 819.966 75.2577 816.878 Q75.2577 812.74 73.8573 810.512 Q72.425 808.284 69.8469 808.284 Q67.4597 808.284 66.1866 809.908 Q64.9134 811.499 63.7358 816.942 L63.2584 818.979 Q62.1125 824.422 59.7572 826.84 Q57.3701 829.259 53.2324 829.259 Q48.2035 829.259 45.4662 825.695 Q42.729 822.13 42.729 815.573 Q42.729 812.327 43.2064 809.462 Q43.6838 806.598 44.6387 804.179 Z" fill="#000000" fill-rule="nonzero" fill-opacity="1" /><path clip-path="url(#clip200)" d="M33.4669 787.15 L43.5883 787.15 L43.5883 775.087 L48.1398 775.087 L48.1398 787.15 L67.4916 787.15 Q71.8521 787.15 73.0934 785.973 Q74.3347 784.763 74.3347 781.103 L74.3347 775.087 L79.2363 775.087 L79.2363 781.103 Q79.2363 787.882 76.7218 790.46 Q74.1755 793.039 67.4916 793.039 L48.1398 793.039 L48.1398 797.335 L43.5883 797.335 L43.5883 793.039 L33.4669 793.039 L33.4669 787.15 Z" fill="#000000" fill-rule="nonzero" fill-opacity="1" /><path clip-path="url(#clip200)" d="M61.3168 751.184 Q61.3168 758.282 62.9401 761.019 Q64.5633 763.756 68.4782 763.756 Q71.5974 763.756 73.4435 761.719 Q75.2577 759.65 75.2577 756.117 Q75.2577 751.248 71.8202 748.319 Q68.3509 745.359 62.6218 745.359 L61.3168 745.359 L61.3168 751.184 M58.8979 739.503 L79.2363 739.503 L79.2363 745.359 L73.8254 745.359 Q77.0719 747.365 78.6315 750.357 Q80.1593 753.348 80.1593 757.677 Q80.1593 763.152 77.1038 766.398 Q74.0164 769.613 68.8602 769.613 Q62.8446 769.613 59.789 765.602 Q56.7335 761.56 56.7335 753.571 L56.7335 745.359 L56.1606 745.359 Q52.1184 745.359 49.9222 748.033 Q47.6942 750.675 47.6942 755.481 Q47.6942 758.536 48.4263 761.433 Q49.1583 764.329 50.6224 767.003 L45.2116 767.003 Q43.9703 763.788 43.3655 760.764 Q42.729 757.741 42.729 754.876 Q42.729 747.142 46.7394 743.322 Q50.7497 739.503 58.8979 739.503 Z" fill="#000000" fill-rule="nonzero" fill-opacity="1" /><path clip-path="url(#clip200)" d="M57.7202 697.808 L79.2363 697.808 L79.2363 703.664 L57.9112 703.664 Q52.8504 703.664 50.336 705.637 Q47.8215 707.611 47.8215 711.558 Q47.8215 716.3 50.8452 719.037 Q53.8689 721.774 59.0888 721.774 L79.2363 721.774 L79.2363 727.663 L43.5883 727.663 L43.5883 721.774 L49.1265 721.774 Q45.9118 719.674 44.3204 716.841 Q42.729 713.977 42.729 710.253 Q42.729 704.11 46.5484 700.959 Q50.336 697.808 57.7202 697.808 Z" fill="#000000" fill-rule="nonzero" fill-opacity="1" /><path clip-path="url(#clip200)" d="M48.9992 662.669 L29.7111 662.669 L29.7111 656.812 L79.2363 656.812 L79.2363 662.669 L73.8891 662.669 Q77.0719 664.515 78.6315 667.348 Q80.1593 670.149 80.1593 674.095 Q80.1593 680.557 75.0031 684.631 Q69.8469 688.673 61.4441 688.673 Q53.0414 688.673 47.8852 684.631 Q42.729 680.557 42.729 674.095 Q42.729 670.149 44.2886 667.348 Q45.8163 664.515 48.9992 662.669 M61.4441 682.625 Q67.9053 682.625 71.5974 679.984 Q75.2577 677.31 75.2577 672.663 Q75.2577 668.016 71.5974 665.343 Q67.9053 662.669 61.4441 662.669 Q54.9829 662.669 51.3227 665.343 Q47.6306 668.016 47.6306 672.663 Q47.6306 677.31 51.3227 679.984 Q54.9829 682.625 61.4441 682.625 Z" fill="#000000" fill-rule="nonzero" fill-opacity="1" /><path clip-path="url(#clip200)" d="M61.3168 628.549 Q61.3168 635.646 62.9401 638.384 Q64.5633 641.121 68.4782 641.121 Q71.5974 641.121 73.4435 639.084 Q75.2577 637.015 75.2577 633.482 Q75.2577 628.612 71.8202 625.684 Q68.3509 622.724 62.6218 622.724 L61.3168 622.724 L61.3168 628.549 M58.8979 616.868 L79.2363 616.868 L79.2363 622.724 L73.8254 622.724 Q77.0719 624.729 78.6315 627.721 Q80.1593 630.713 80.1593 635.042 Q80.1593 640.516 77.1038 643.763 Q74.0164 646.977 68.8602 646.977 Q62.8446 646.977 59.789 642.967 Q56.7335 638.925 56.7335 630.936 L56.7335 622.724 L56.1606 622.724 Q52.1184 622.724 49.9222 625.398 Q47.6942 628.039 47.6942 632.846 Q47.6942 635.901 48.4263 638.798 Q49.1583 641.694 50.6224 644.368 L45.2116 644.368 Q43.9703 641.153 43.3655 638.129 Q42.729 635.105 42.729 632.241 Q42.729 624.507 46.7394 620.687 Q50.7497 616.868 58.8979 616.868 Z" fill="#000000" fill-rule="nonzero" fill-opacity="1" /><path clip-path="url(#clip200)" d="M49.0628 584.148 Q48.4899 585.135 48.2353 586.312 Q47.9488 587.458 47.9488 588.859 Q47.9488 593.824 51.1953 596.497 Q54.41 599.139 60.4574 599.139 L79.2363 599.139 L79.2363 605.027 L43.5883 605.027 L43.5883 599.139 L49.1265 599.139 Q45.88 597.293 44.3204 594.333 Q42.729 591.373 42.729 587.14 Q42.729 586.535 42.8244 585.803 Q42.8881 585.071 43.0472 584.18 L49.0628 584.148 Z" fill="#000000" fill-rule="nonzero" fill-opacity="1" /><path clip-path="url(#clip200)" d="M48.9992 555.693 L29.7111 555.693 L29.7111 549.837 L79.2363 549.837 L79.2363 555.693 L73.8891 555.693 Q77.0719 557.539 78.6315 560.372 Q80.1593 563.173 80.1593 567.12 Q80.1593 573.581 75.0031 577.655 Q69.8469 581.697 61.4441 581.697 Q53.0414 581.697 47.8852 577.655 Q42.729 573.581 42.729 567.12 Q42.729 563.173 44.2886 560.372 Q45.8163 557.539 48.9992 555.693 M61.4441 575.65 Q67.9053 575.65 71.5974 573.008 Q75.2577 570.334 75.2577 565.687 Q75.2577 561.04 71.5974 558.367 Q67.9053 555.693 61.4441 555.693 Q54.9829 555.693 51.3227 558.367 Q47.6306 561.04 47.6306 565.687 Q47.6306 570.334 51.3227 573.008 Q54.9829 575.65 61.4441 575.65 Z" fill="#000000" fill-rule="nonzero" fill-opacity="1" /><path clip-path="url(#clip200)" d="M58.7705 540.734 L58.7705 523.578 L63.9904 523.578 L63.9904 540.734 L58.7705 540.734 Z" fill="#000000" fill-rule="nonzero" fill-opacity="1" /><path clip-path="url(#clip200)" d="M48.9992 490.795 L29.7111 490.795 L29.7111 484.938 L79.2363 484.938 L79.2363 490.795 L73.8891 490.795 Q77.0719 492.641 78.6315 495.474 Q80.1593 498.275 80.1593 502.221 Q80.1593 508.682 75.0031 512.757 Q69.8469 516.799 61.4441 516.799 Q53.0414 516.799 47.8852 512.757 Q42.729 508.682 42.729 502.221 Q42.729 498.275 44.2886 495.474 Q45.8163 492.641 48.9992 490.795 M61.4441 510.751 Q67.9053 510.751 71.5974 508.11 Q75.2577 505.436 75.2577 500.789 Q75.2577 496.142 71.5974 493.468 Q67.9053 490.795 61.4441 490.795 Q54.9829 490.795 51.3227 493.468 Q47.6306 496.142 47.6306 500.789 Q47.6306 505.436 51.3227 508.11 Q54.9829 510.751 61.4441 510.751 Z" fill="#000000" fill-rule="nonzero" fill-opacity="1" /><path clip-path="url(#clip200)" d="M59.9482 442.384 L62.8128 442.384 L62.8128 469.311 Q68.8602 468.929 72.043 465.682 Q75.1941 462.404 75.1941 456.579 Q75.1941 453.205 74.3665 450.054 Q73.539 446.871 71.8839 443.752 L77.4221 443.752 Q78.7589 446.903 79.4591 450.213 Q80.1593 453.524 80.1593 456.929 Q80.1593 465.459 75.1941 470.456 Q70.2288 475.422 61.7624 475.422 Q53.0096 475.422 47.8852 470.711 Q42.729 465.969 42.729 457.948 Q42.729 450.755 47.3759 446.585 Q51.9911 442.384 59.9482 442.384 M58.2295 448.24 Q53.4233 448.304 50.5588 450.946 Q47.6942 453.555 47.6942 457.884 Q47.6942 462.786 50.4633 465.746 Q53.2324 468.674 58.2613 469.12 L58.2295 448.24 Z" fill="#000000" fill-rule="nonzero" fill-opacity="1" /><path clip-path="url(#clip200)" d="M43.5883 436.973 L43.5883 430.766 L73.5071 419.626 L43.5883 408.486 L43.5883 402.28 L79.2363 415.648 L79.2363 423.605 L43.5883 436.973 Z" fill="#000000" fill-rule="nonzero" fill-opacity="1" /><path clip-path="url(#clip200)" d="M43.5883 394.195 L43.5883 388.339 L79.2363 388.339 L79.2363 394.195 L43.5883 394.195 M29.7111 394.195 L29.7111 388.339 L37.1271 388.339 L37.1271 394.195 L29.7111 394.195 Z" fill="#000000" fill-rule="nonzero" fill-opacity="1" /><path clip-path="url(#clip200)" d="M61.3168 359.884 Q61.3168 366.982 62.9401 369.719 Q64.5633 372.456 68.4782 372.456 Q71.5974 372.456 73.4435 370.419 Q75.2577 368.35 75.2577 364.817 Q75.2577 359.948 71.8202 357.02 Q68.3509 354.059 62.6218 354.059 L61.3168 354.059 L61.3168 359.884 M58.8979 348.203 L79.2363 348.203 L79.2363 354.059 L73.8254 354.059 Q77.0719 356.065 78.6315 359.057 Q80.1593 362.048 80.1593 366.377 Q80.1593 371.852 77.1038 375.098 Q74.0164 378.313 68.8602 378.313 Q62.8446 378.313 59.789 374.302 Q56.7335 370.26 56.7335 362.271 L56.7335 354.059 L56.1606 354.059 Q52.1184 354.059 49.9222 356.733 Q47.6942 359.375 47.6942 364.181 Q47.6942 367.236 48.4263 370.133 Q49.1583 373.029 50.6224 375.703 L45.2116 375.703 Q43.9703 372.488 43.3655 369.464 Q42.729 366.441 42.729 363.576 Q42.729 355.842 46.7394 352.022 Q50.7497 348.203 58.8979 348.203 Z" fill="#000000" fill-rule="nonzero" fill-opacity="1" /><path clip-path="url(#clip200)" d="M33.4669 330.347 L43.5883 330.347 L43.5883 318.284 L48.1398 318.284 L48.1398 330.347 L67.4916 330.347 Q71.8521 330.347 73.0934 329.17 Q74.3347 327.96 74.3347 324.3 L74.3347 318.284 L79.2363 318.284 L79.2363 324.3 Q79.2363 331.079 76.7218 333.657 Q74.1755 336.235 67.4916 336.235 L48.1398 336.235 L48.1398 340.532 L43.5883 340.532 L43.5883 336.235 L33.4669 336.235 L33.4669 330.347 Z" fill="#000000" fill-rule="nonzero" fill-opacity="1" /><path clip-path="url(#clip200)" d="M43.5883 310.582 L43.5883 304.725 L79.2363 304.725 L79.2363 310.582 L43.5883 310.582 M29.7111 310.582 L29.7111 304.725 L37.1271 304.725 L37.1271 310.582 L29.7111 310.582 Z" fill="#000000" fill-rule="nonzero" fill-opacity="1" /><path clip-path="url(#clip200)" d="M47.6942 278.658 Q47.6942 283.368 51.3863 286.106 Q55.0466 288.843 61.4441 288.843 Q67.8417 288.843 71.5338 286.137 Q75.1941 283.4 75.1941 278.658 Q75.1941 273.979 71.5019 271.242 Q67.8098 268.504 61.4441 268.504 Q55.1103 268.504 51.4181 271.242 Q47.6942 273.979 47.6942 278.658 M42.729 278.658 Q42.729 271.019 47.6942 266.658 Q52.6595 262.298 61.4441 262.298 Q70.197 262.298 75.1941 266.658 Q80.1593 271.019 80.1593 278.658 Q80.1593 286.328 75.1941 290.689 Q70.197 295.018 61.4441 295.018 Q52.6595 295.018 47.6942 290.689 Q42.729 286.328 42.729 278.658 Z" fill="#000000" fill-rule="nonzero" fill-opacity="1" /><path clip-path="url(#clip200)" d="M57.7202 222.958 L79.2363 222.958 L79.2363 228.814 L57.9112 228.814 Q52.8504 228.814 50.336 230.788 Q47.8215 232.761 47.8215 236.708 Q47.8215 241.45 50.8452 244.187 Q53.8689 246.925 59.0888 246.925 L79.2363 246.925 L79.2363 252.813 L43.5883 252.813 L43.5883 246.925 L49.1265 246.925 Q45.9118 244.824 44.3204 241.991 Q42.729 239.127 42.729 235.403 Q42.729 229.26 46.5484 226.109 Q50.336 222.958 57.7202 222.958 Z" fill="#000000" fill-rule="nonzero" fill-opacity="1" /><polyline clip-path="url(#clip202)" style="stroke:#cb3c33; stroke-linecap:round; stroke-linejoin:round; stroke-width:4; stroke-opacity:1; fill:none" points="480.736,978.115 483.909,978.098 488.978,977.859 494.25,977.553 501.474,975.614 508.27,975.199 516.688,969.204 523.98,969.897 532.516,959.891 539.562,961.43 547.535,952.628 554.039,951.498 561.523,945.345 563.746,943.71 565.485,942.217 568.721,939.397 571.428,936.87 574.892,933.376 578.183,930.091 581.686,926.365 585.279,922.697 588.814,919.847 592.634,916.833 596.352,916.142 600.751,915.722 605.767,914.924 610.176,917.474 614.183,923.197 618.621,924.069 622.256,934.565 628.009,924.897 631.752,937.031 637.825,940.915 644.398,945.465 649.212,954.216 655.725,940.399 660.155,951.499 666.406,949.022 671.487,955.085 679.738,949.125 685.754,954.88 693.821,954.471 702.094,955.526 711.183,955.598 721.933,955.3 733.547,955.2 747.263,954.893 763.412,954.542 782.219,954.1 805.457,953.511 834.001,952.752 867.373,951.744 903.425,950.413 936.978,948.826 964.287,947.111 989.505,945.198 1021.13,942.82 1051.36,940.217 1081.74,936.526 1112.59,931.151 1140.3,925.55 1167.75,915.51 1191.9,906.324 1214.29,892.876 1232.16,882.846 1249.11,863.982 1262.64,847.958 1275.19,824.574 1285.83,799.439 1295.26,770.214 1304.02,734.916 1311.36,698.715 1319.25,650.058 1325.29,606.416 1326.91,593.395 1328.2,582.722 1331.33,555.821 1333.91,532.547 1337.12,502.817 1340.97,465.616 1344.2,434.859 1349.23,387.135 1352.39,361.05 1357.11,330.002 1359.65,319.929 1363.37,315.162 1366.57,320.777 1371.67,348.269 1376.77,390.233 1380.21,436.57 1384.49,502.369 1387.59,554.51 1391.59,620.44 1394.97,673.883 1402.27,768.329 1406.2,811.963 1412.84,868.057 1418.14,901.75 1423.29,925.211 1430.56,939.74 1435.08,948.964 1443.51,944.271 1448.69,948.427 1457.99,943.061 1464.45,945.072 1473.16,943.665 1482.2,942.97 1491.84,942.085 1503.38,941.086 1515.54,940.252 1529.6,939.287 1545.89,938.207 1563.74,936.961 1583.93,935.402 1604.73,933.654 1621.48,931.757 1641.42,929.271 1664.63,926.516 1687.6,923.081 1712.6,918.407 1736.32,912.86 1760.09,905.075 1782.44,895.638 1803.31,883.558 1822.71,868.109 1840.06,850.214 1855.87,827.532 1868.34,805.719 1880.37,772.862 1889.98,741.038 1899.06,699.711 1906.95,654.98 1914.06,604.29 1921.82,537.343 1925.4,501.599 1928.65,466.434 1932.24,425.634 1936.05,380.501 1939.8,335.567 1943.68,290.451 1947.41,251.147 1951.3,217.367 1955.07,196.127 1959.16,187.955 1963.37,200.565 1969.65,250.508 1973.68,308.001 1978.01,391.53 1982.23,477.212 1986.12,558.124 1990.94,649.31 1995.23,720.359 2002.68,815.175 2008.71,868.186 2013.65,901.734 2019.32,926.405 2024.13,943.029 2032.37,939.802 2036.97,949.906 2044.52,949.258 2051.05,951.965 2058.79,951.092 2067.65,950.119 2076.87,949.545 2087.89,948.766 2100.1,948.266 2114.21,947.746 2131.13,947.173 2150.93,946.516 2175.08,945.675 2205.03,944.603 2239.09,943.178 2273.78,941.401 2299.36,939.489 2319.51,937.473 2347.18,935.041 2374.7,932.716 2403.9,929.41 2434.67,925.28 2463.11,920.244 2492.41,912.484 2518.56,904.327 2543.6,892.049 2566.16,878.128 2586.36,861.767 2602.45,845.68 2617.68,820.916 2629.9,796.941 2641.22,765.052 2650.93,730.152 2659.53,690.123 2667.71,642.61 2674.54,593.689 2683.46,516.324 2686.64,484.534 2689.56,453.558 2694.97,392.425 2698.23,354.337 2703.21,296.18 2706.72,257.805 2711.59,210.358 2715.14,186.044 2720.8,164.99 2724.47,170.92 2729.69,210.888 2734.82,267.218 2738.06,324.264 2742.28,406.109 2745.47,472.621 2750.19,566.156 2753.67,631.501 2761.98,756.152 2766.28,808.076 2772.17,862.638 2777.83,900.402 2782.96,924.958 2790.22,938.936 2795.38,947.687 2803.77,941.7 2809.57,944.394 2817.97,940.818 2825.31,940.382 2834.02,938.722 2843.66,937.456 2853.83,936.417 2865.76,935.323 2878.84,934.32 2893.66,933.152 2910.85,931.87 2929.83,930.225 2950.4,928.499 2961.85,926.966 2970.7,925.448 2992,922.685 3008.48,920.632 3029.68,917.011 3054.31,913.377 3075.5,908.446 3103.26,900.127 3123.78,893.341 3148.29,877.172 3167.34,866.385 3186.61,844.318 3203.35,823.348 3218.18,796.762 3229.93,768.99 3240.87,732.396 3250.12,692.803 3258.4,646.751 3266.2,592.611 3272.79,536.166 3281.23,448.643 3284.28,412.474 3286.93,379.212 3291.06,324.757 3294.19,282.439 3298.56,223.103 3301.87,180.945 3306.35,129.121 3309.7,100.885 3314.92,74.3568 3318.38,77.3253 3323.56,117.386 3328.73,177.472 3331.77,238.623 3335.96,332.946 3339.02,407.225 3343.5,511.365 3346.86,585.484 3354.28,718.22 3358.47,778.533 3364.29,842.759 3369.68,885.619 3374.76,914.873 3381.49,933.429 3386.68,946.188 3394.32,944.218 3400.24,948.512 3408.23,945.612 3415.72,945.682 3424.48,944.387 3434.25,943.525 3444.91,942.856 3457.45,942.196 3463.28,941.993 "/>
<polyline clip-path="url(#clip202)" style="stroke:#389826; stroke-linecap:round; stroke-linejoin:round; stroke-width:4; stroke-opacity:1; fill:none" points="480.736,978.115 483.909,978.098 488.978,977.86 494.25,977.557 501.474,975.645 508.27,975.281 516.688,969.485 523.98,970.585 532.516,961.284 539.562,964.574 547.535,957.759 554.039,960.586 561.523,959.224 563.746,959.471 565.485,959.454 568.721,959.559 571.428,959.603 574.892,959.292 578.183,959.223 581.686,958.373 585.279,957.302 588.814,957.069 592.634,955.087 596.352,956.478 600.751,954.983 605.767,947.898 610.176,945.502 614.183,946.37 618.621,937.077 622.256,943.343 628.009,918.167 631.752,922.733 637.825,915.478 644.398,917.862 649.212,919.469 655.725,908.807 660.155,912.207 666.406,907.396 671.487,909.042 679.738,903.109 685.754,904.897 693.821,903.561 702.094,904.186 711.183,904.172 721.933,904.348 733.547,904.578 747.263,904.82 763.412,905.137 782.219,905.531 805.457,906.039 834.001,906.711 867.373,907.563 903.425,908.57 936.978,909.655 964.287,910.672 989.505,911.703 1021.13,912.99 1051.36,914.449 1081.74,915.755 1112.59,916.456 1140.3,917.807 1167.75,915.625 1191.9,916.358 1214.29,913.01 1232.16,917.282 1249.11,913.376 1262.64,918.582 1275.19,918.829 1285.83,921.831 1295.26,925.711 1304.02,927.217 1311.36,931.566 1319.25,933.501 1325.29,936.656 1326.91,937.391 1328.2,937.976 1331.33,939.364 1333.91,940.474 1337.12,941.713 1340.97,942.779 1344.2,943.665 1349.23,940.234 1352.39,941.549 1357.11,931.549 1359.65,932.146 1363.37,927.431 1366.57,926.171 1371.67,920.431 1376.77,914.207 1380.21,912.784 1384.49,901.39 1387.59,902.16 1391.59,897.684 1394.97,896.478 1402.27,883.263 1406.2,883.948 1412.84,877.656 1418.14,878.698 1423.29,877.946 1430.56,875.455 1435.08,876.134 1443.51,871.138 1448.69,872.089 1457.99,868.587 1464.45,869.552 1473.16,869.113 1482.2,869.581 1491.84,869.822 1503.38,870.199 1515.54,870.641 1529.6,871.168 1545.89,871.824 1563.74,872.596 1583.93,873.539 1604.73,874.591 1621.48,875.522 1641.42,876.72 1664.63,878.249 1687.6,879.913 1712.6,881.738 1736.32,883.753 1760.09,885.366 1782.44,887.041 1803.31,888.092 1822.71,888.173 1840.06,889.079 1855.87,888.426 1868.34,894.272 1880.37,892.876 1889.98,899.229 1899.06,902.007 1906.95,906.721 1914.06,911.59 1921.82,916.617 1925.4,919.506 1928.65,922.011 1932.24,924.99 1936.05,927.956 1939.8,930.871 1943.68,933.091 1947.41,935.302 1951.3,935.909 1955.07,937.269 1959.16,936.568 1963.37,936.057 1969.65,913.963 1973.68,918.491 1978.01,908.614 1982.23,906.999 1986.12,906.217 1990.94,902.568 1995.23,901.438 2002.68,893.864 2008.71,894.021 2013.65,893.501 2019.32,892.028 2024.13,892.649 2032.37,882.543 2036.97,884.259 2044.52,881.317 2051.05,882.254 2058.79,881.893 2067.65,882.142 2076.87,882.324 2087.89,882.522 2100.1,882.823 2114.21,883.17 2131.13,883.611 2150.93,884.164 2175.08,884.881 2205.03,885.837 2239.09,887.029 2273.78,888.386 2299.36,889.527 2319.51,890.52 2347.18,891.998 2374.7,893.655 2403.9,895.492 2434.67,897.491 2463.11,899.642 2492.41,900.76 2518.56,902.932 2543.6,902.385 2566.16,902.975 2586.36,902.94 2602.45,907.596 2617.68,906.222 2629.9,911.803 2641.22,913.951 2650.93,917.705 2659.53,922.563 2667.71,925.665 2674.54,930.286 2683.46,933.851 2686.64,935.972 2689.56,937.446 2694.97,939.881 2698.23,941.252 2703.21,938.507 2706.72,939.693 2711.59,930.879 2715.14,931.683 2720.8,912.513 2724.47,912.804 2729.69,903.31 2734.82,897.762 2738.06,895.562 2742.28,885.325 2745.47,885.046 2750.19,878.555 2753.67,876.839 2761.98,861.715 2766.28,862.851 2772.17,858.552 2777.83,858.765 2782.96,858.312 2790.22,855.966 2795.38,856.63 2803.77,853.19 2809.57,854.137 2817.97,853.037 2825.31,853.632 2834.02,853.673 2843.66,854.06 2853.83,854.422 2865.76,854.885 2878.84,855.432 2893.66,856.097 2910.85,856.906 2929.83,857.886 2950.4,859.022 2961.85,859.702 2970.7,860.262 2992,861.707 3008.48,862.947 3029.68,864.627 3054.31,866.806 3075.5,868.921 3103.26,870.763 3123.78,873.94 3148.29,872.286 3167.34,877.379 3186.61,874.227 3203.35,878.117 3218.18,879.92 3229.93,885.53 3240.87,888.609 3250.12,893.507 3258.4,898.931 3266.2,903.535 3272.79,909.205 3281.23,915.529 3284.28,918.694 3286.93,921.213 3291.06,925.381 3294.19,928.683 3298.56,931.366 3301.87,935.16 3306.35,932.71 3309.7,936.72 3314.92,922.389 3318.38,925.056 3323.56,917.05 3328.73,911.06 3331.77,910.602 3335.96,895.157 3339.02,896.88 3343.5,888.852 3346.86,887.803 3354.28,871.612 3358.47,873.224 3364.29,867.782 3369.68,868.234 3374.76,867.832 3381.49,864.841 3386.68,865.929 3394.32,862.264 3400.24,863.468 3408.23,862.174 3415.72,862.801 3424.48,862.717 3434.25,863.02 3444.91,863.288 3457.45,863.626 3463.28,863.822 "/>
<path clip-path="url(#clip200)" d="M496.643 234.697 L1032.31 234.697 L1032.31 79.1769 L496.643 79.1769  Z" fill="#ffffff" fill-rule="evenodd" fill-opacity="1"/>
<polyline clip-path="url(#clip200)" style="stroke:#000000; stroke-linecap:round; stroke-linejoin:round; stroke-width:4; stroke-opacity:1; fill:none" points="496.643,234.697 1032.31,234.697 1032.31,79.1769 496.643,79.1769 496.643,234.697 "/>
<polyline clip-path="url(#clip200)" style="stroke:#cb3c33; stroke-linecap:round; stroke-linejoin:round; stroke-width:4; stroke-opacity:1; fill:none" points="531.771,131.017 742.537,131.017 "/>
<path clip-path="url(#clip200)" d="M796.091 123.135 L796.091 127.163 Q794.285 126.237 792.341 125.774 Q790.396 125.311 788.313 125.311 Q785.142 125.311 783.544 126.283 Q781.97 127.255 781.97 129.2 Q781.97 130.681 783.105 131.538 Q784.239 132.371 787.665 133.135 L789.123 133.459 Q793.66 134.431 795.558 136.214 Q797.48 137.973 797.48 141.144 Q797.48 144.755 794.609 146.862 Q791.762 148.968 786.762 148.968 Q784.679 148.968 782.41 148.552 Q780.165 148.158 777.665 147.348 L777.665 142.95 Q780.026 144.177 782.318 144.802 Q784.609 145.403 786.855 145.403 Q789.864 145.403 791.484 144.385 Q793.105 143.343 793.105 141.468 Q793.105 139.732 791.924 138.806 Q790.767 137.88 786.808 137.024 L785.327 136.677 Q781.369 135.843 779.609 134.13 Q777.85 132.394 777.85 129.385 Q777.85 125.728 780.443 123.737 Q783.035 121.746 787.804 121.746 Q790.165 121.746 792.248 122.093 Q794.331 122.441 796.091 123.135 Z" fill="#000000" fill-rule="nonzero" fill-opacity="1" /><path clip-path="url(#clip200)" d="M808.475 115.01 L808.475 122.371 L817.248 122.371 L817.248 125.681 L808.475 125.681 L808.475 139.755 Q808.475 142.927 809.331 143.829 Q810.211 144.732 812.873 144.732 L817.248 144.732 L817.248 148.297 L812.873 148.297 Q807.942 148.297 806.067 146.468 Q804.193 144.616 804.193 139.755 L804.193 125.681 L801.068 125.681 L801.068 122.371 L804.193 122.371 L804.193 115.01 L808.475 115.01 Z" fill="#000000" fill-rule="nonzero" fill-opacity="1" /><path clip-path="url(#clip200)" d="M839.91 126.306 L839.91 112.279 L844.169 112.279 L844.169 148.297 L839.91 148.297 L839.91 144.408 Q838.567 146.723 836.507 147.857 Q834.47 148.968 831.6 148.968 Q826.901 148.968 823.938 145.218 Q820.998 141.468 820.998 135.357 Q820.998 129.246 823.938 125.496 Q826.901 121.746 831.6 121.746 Q834.47 121.746 836.507 122.88 Q838.567 123.991 839.91 126.306 M825.396 135.357 Q825.396 140.056 827.317 142.741 Q829.262 145.403 832.641 145.403 Q836.021 145.403 837.965 142.741 Q839.91 140.056 839.91 135.357 Q839.91 130.658 837.965 127.996 Q836.021 125.311 832.641 125.311 Q829.262 125.311 827.317 127.996 Q825.396 130.658 825.396 135.357 Z" fill="#000000" fill-rule="nonzero" fill-opacity="1" /><path clip-path="url(#clip200)" d="M863.174 112.325 Q860.072 117.649 858.567 122.857 Q857.063 128.066 857.063 133.413 Q857.063 138.76 858.567 144.014 Q860.095 149.246 863.174 154.547 L859.47 154.547 Q855.998 149.107 854.262 143.852 Q852.549 138.598 852.549 133.413 Q852.549 128.251 854.262 123.019 Q855.975 117.788 859.47 112.325 L863.174 112.325 Z" fill="#000000" fill-rule="nonzero" fill-opacity="1" /><path clip-path="url(#clip200)" d="M870.998 138.065 L870.998 122.371 L875.257 122.371 L875.257 137.903 Q875.257 141.584 876.692 143.436 Q878.127 145.264 880.998 145.264 Q884.447 145.264 886.437 143.065 Q888.451 140.866 888.451 137.07 L888.451 122.371 L892.711 122.371 L892.711 148.297 L888.451 148.297 L888.451 144.315 Q886.9 146.677 884.84 147.834 Q882.803 148.968 880.095 148.968 Q875.627 148.968 873.313 146.19 Q870.998 143.413 870.998 138.065 M881.715 121.746 L881.715 121.746 Z" fill="#000000" fill-rule="nonzero" fill-opacity="1" /><path clip-path="url(#clip200)" d="M902.896 144.362 L910.535 144.362 L910.535 117.996 L902.224 119.663 L902.224 115.404 L910.488 113.737 L915.164 113.737 L915.164 144.362 L922.803 144.362 L922.803 148.297 L902.896 148.297 L902.896 144.362 Z" fill="#000000" fill-rule="nonzero" fill-opacity="1" /><path clip-path="url(#clip200)" d="M941.877 112.325 Q938.775 117.649 937.27 122.857 Q935.766 128.066 935.766 133.413 Q935.766 138.76 937.27 144.014 Q938.798 149.246 941.877 154.547 L938.173 154.547 Q934.701 149.107 932.965 143.852 Q931.252 138.598 931.252 133.413 Q931.252 128.251 932.965 123.019 Q934.678 117.788 938.173 112.325 L941.877 112.325 Z" fill="#000000" fill-rule="nonzero" fill-opacity="1" /><path clip-path="url(#clip200)" d="M954.354 115.01 L954.354 122.371 L963.127 122.371 L963.127 125.681 L954.354 125.681 L954.354 139.755 Q954.354 142.927 955.21 143.829 Q956.09 144.732 958.752 144.732 L963.127 144.732 L963.127 148.297 L958.752 148.297 Q953.821 148.297 951.946 146.468 Q950.071 144.616 950.071 139.755 L950.071 125.681 L946.946 125.681 L946.946 122.371 L950.071 122.371 L950.071 115.01 L954.354 115.01 Z" fill="#000000" fill-rule="nonzero" fill-opacity="1" /><path clip-path="url(#clip200)" d="M968.057 112.325 L971.761 112.325 Q975.233 117.788 976.946 123.019 Q978.682 128.251 978.682 133.413 Q978.682 138.598 976.946 143.852 Q975.233 149.107 971.761 154.547 L968.057 154.547 Q971.136 149.246 972.641 144.014 Q974.168 138.76 974.168 133.413 Q974.168 128.066 972.641 122.857 Q971.136 117.649 968.057 112.325 Z" fill="#000000" fill-rule="nonzero" fill-opacity="1" /><path clip-path="url(#clip200)" d="M986.553 112.325 L990.256 112.325 Q993.729 117.788 995.441 123.019 Q997.178 128.251 997.178 133.413 Q997.178 138.598 995.441 143.852 Q993.729 149.107 990.256 154.547 L986.553 154.547 Q989.631 149.246 991.136 144.014 Q992.664 138.76 992.664 133.413 Q992.664 128.066 991.136 122.857 Q989.631 117.649 986.553 112.325 Z" fill="#000000" fill-rule="nonzero" fill-opacity="1" /><polyline clip-path="url(#clip200)" style="stroke:#389826; stroke-linecap:round; stroke-linejoin:round; stroke-width:4; stroke-opacity:1; fill:none" points="531.771,182.857 742.537,182.857 "/>
<path clip-path="url(#clip200)" d="M796.091 174.975 L796.091 179.003 Q794.285 178.077 792.341 177.614 Q790.396 177.151 788.313 177.151 Q785.142 177.151 783.544 178.123 Q781.97 179.095 781.97 181.04 Q781.97 182.521 783.105 183.378 Q784.239 184.211 787.665 184.975 L789.123 185.299 Q793.66 186.271 795.558 188.054 Q797.48 189.813 797.48 192.984 Q797.48 196.595 794.609 198.702 Q791.762 200.808 786.762 200.808 Q784.679 200.808 782.41 200.392 Q780.165 199.998 777.665 199.188 L777.665 194.79 Q780.026 196.017 782.318 196.642 Q784.609 197.243 786.855 197.243 Q789.864 197.243 791.484 196.225 Q793.105 195.183 793.105 193.308 Q793.105 191.572 791.924 190.646 Q790.767 189.72 786.808 188.864 L785.327 188.517 Q781.369 187.683 779.609 185.97 Q777.85 184.234 777.85 181.225 Q777.85 177.568 780.443 175.577 Q783.035 173.586 787.804 173.586 Q790.165 173.586 792.248 173.933 Q794.331 174.281 796.091 174.975 Z" fill="#000000" fill-rule="nonzero" fill-opacity="1" /><path clip-path="url(#clip200)" d="M808.475 166.85 L808.475 174.211 L817.248 174.211 L817.248 177.521 L808.475 177.521 L808.475 191.595 Q808.475 194.767 809.331 195.669 Q810.211 196.572 812.873 196.572 L817.248 196.572 L817.248 200.137 L812.873 200.137 Q807.942 200.137 806.067 198.308 Q804.193 196.456 804.193 191.595 L804.193 177.521 L801.068 177.521 L801.068 174.211 L804.193 174.211 L804.193 166.85 L808.475 166.85 Z" fill="#000000" fill-rule="nonzero" fill-opacity="1" /><path clip-path="url(#clip200)" d="M839.91 178.146 L839.91 164.119 L844.169 164.119 L844.169 200.137 L839.91 200.137 L839.91 196.248 Q838.567 198.563 836.507 199.697 Q834.47 200.808 831.6 200.808 Q826.901 200.808 823.938 197.058 Q820.998 193.308 820.998 187.197 Q820.998 181.086 823.938 177.336 Q826.901 173.586 831.6 173.586 Q834.47 173.586 836.507 174.72 Q838.567 175.831 839.91 178.146 M825.396 187.197 Q825.396 191.896 827.317 194.581 Q829.262 197.243 832.641 197.243 Q836.021 197.243 837.965 194.581 Q839.91 191.896 839.91 187.197 Q839.91 182.498 837.965 179.836 Q836.021 177.151 832.641 177.151 Q829.262 177.151 827.317 179.836 Q825.396 182.498 825.396 187.197 Z" fill="#000000" fill-rule="nonzero" fill-opacity="1" /><path clip-path="url(#clip200)" d="M863.174 164.165 Q860.072 169.489 858.567 174.697 Q857.063 179.906 857.063 185.253 Q857.063 190.6 858.567 195.854 Q860.095 201.086 863.174 206.387 L859.47 206.387 Q855.998 200.947 854.262 195.692 Q852.549 190.438 852.549 185.253 Q852.549 180.091 854.262 174.859 Q855.975 169.628 859.47 164.165 L863.174 164.165 Z" fill="#000000" fill-rule="nonzero" fill-opacity="1" /><path clip-path="url(#clip200)" d="M870.998 189.905 L870.998 174.211 L875.257 174.211 L875.257 189.743 Q875.257 193.424 876.692 195.276 Q878.127 197.104 880.998 197.104 Q884.447 197.104 886.437 194.905 Q888.451 192.706 888.451 188.91 L888.451 174.211 L892.711 174.211 L892.711 200.137 L888.451 200.137 L888.451 196.155 Q886.9 198.517 884.84 199.674 Q882.803 200.808 880.095 200.808 Q875.627 200.808 873.313 198.03 Q870.998 195.253 870.998 189.905 M881.715 173.586 L881.715 173.586 Z" fill="#000000" fill-rule="nonzero" fill-opacity="1" /><path clip-path="url(#clip200)" d="M906.113 196.202 L922.433 196.202 L922.433 200.137 L900.488 200.137 L900.488 196.202 Q903.15 193.447 907.734 188.817 Q912.34 184.165 913.521 182.822 Q915.766 180.299 916.646 178.563 Q917.548 176.804 917.548 175.114 Q917.548 172.359 915.604 170.623 Q913.683 168.887 910.581 168.887 Q908.382 168.887 905.928 169.651 Q903.498 170.415 900.72 171.966 L900.72 167.244 Q903.544 166.109 905.998 165.531 Q908.451 164.952 910.488 164.952 Q915.859 164.952 919.053 167.637 Q922.247 170.322 922.247 174.813 Q922.247 176.943 921.437 178.864 Q920.65 180.762 918.544 183.355 Q917.965 184.026 914.863 187.243 Q911.761 190.438 906.113 196.202 Z" fill="#000000" fill-rule="nonzero" fill-opacity="1" /><path clip-path="url(#clip200)" d="M941.877 164.165 Q938.775 169.489 937.27 174.697 Q935.766 179.906 935.766 185.253 Q935.766 190.6 937.27 195.854 Q938.798 201.086 941.877 206.387 L938.173 206.387 Q934.701 200.947 932.965 195.692 Q931.252 190.438 931.252 185.253 Q931.252 180.091 932.965 174.859 Q934.678 169.628 938.173 164.165 L941.877 164.165 Z" fill="#000000" fill-rule="nonzero" fill-opacity="1" /><path clip-path="url(#clip200)" d="M954.354 166.85 L954.354 174.211 L963.127 174.211 L963.127 177.521 L954.354 177.521 L954.354 191.595 Q954.354 194.767 955.21 195.669 Q956.09 196.572 958.752 196.572 L963.127 196.572 L963.127 200.137 L958.752 200.137 Q953.821 200.137 951.946 198.308 Q950.071 196.456 950.071 191.595 L950.071 177.521 L946.946 177.521 L946.946 174.211 L950.071 174.211 L950.071 166.85 L954.354 166.85 Z" fill="#000000" fill-rule="nonzero" fill-opacity="1" /><path clip-path="url(#clip200)" d="M968.057 164.165 L971.761 164.165 Q975.233 169.628 976.946 174.859 Q978.682 180.091 978.682 185.253 Q978.682 190.438 976.946 195.692 Q975.233 200.947 971.761 206.387 L968.057 206.387 Q971.136 201.086 972.641 195.854 Q974.168 190.6 974.168 185.253 Q974.168 179.906 972.641 174.697 Q971.136 169.489 968.057 164.165 Z" fill="#000000" fill-rule="nonzero" fill-opacity="1" /><path clip-path="url(#clip200)" d="M986.553 164.165 L990.256 164.165 Q993.729 169.628 995.441 174.859 Q997.178 180.091 997.178 185.253 Q997.178 190.438 995.441 195.692 Q993.729 200.947 990.256 206.387 L986.553 206.387 Q989.631 201.086 991.136 195.854 Q992.664 190.6 992.664 185.253 Q992.664 179.906 991.136 174.697 Q989.631 169.489 986.553 164.165 Z" fill="#000000" fill-rule="nonzero" fill-opacity="1" /></svg>
