<?xml version="1.0" encoding="utf-8"?>
<svg xmlns="http://www.w3.org/2000/svg" xmlns:xlink="http://www.w3.org/1999/xlink" width="768" height="480" viewBox="0 0 3072 1920">
<defs>
  <clipPath id="clip050">
    <rect x="0" y="0" width="3072" height="1920"/>
  </clipPath>
</defs>
<path clip-path="url(#clip050)" d="M0 1920 L3072 1920 L3072 0 L0 0  Z" fill="#ffffff" fill-rule="evenodd" fill-opacity="1"/>
<defs>
  <clipPath id="clip051">
    <rect x="614" y="0" width="2151" height="1920"/>
  </clipPath>
</defs>
<path clip-path="url(#clip050)" d="M179.135 1678.07 L2961.76 1678.07 L2961.76 174.584 L179.135 174.584  Z" fill="#ffffff" fill-rule="evenodd" fill-opacity="1"/>
<defs>
  <clipPath id="clip052">
    <rect x="179" y="174" width="2784" height="1504"/>
  </clipPath>
</defs>
<polyline clip-path="url(#clip052)" style="stroke:#000000; stroke-linecap:round; stroke-linejoin:round; stroke-width:2.8; stroke-opacity:0.4; fill:none" points="179.135,1678.07 179.135,174.584 "/>
<polyline clip-path="url(#clip052)" style="stroke:#000000; stroke-linecap:round; stroke-linejoin:round; stroke-width:2.8; stroke-opacity:0.4; fill:none" points="735.661,1678.07 735.661,174.584 "/>
<polyline clip-path="url(#clip052)" style="stroke:#000000; stroke-linecap:round; stroke-linejoin:round; stroke-width:2.8; stroke-opacity:0.4; fill:none" points="1292.19,1678.07 1292.19,174.584 "/>
<polyline clip-path="url(#clip052)" style="stroke:#000000; stroke-linecap:round; stroke-linejoin:round; stroke-width:2.8; stroke-opacity:0.4; fill:none" points="1848.71,1678.07 1848.71,174.584 "/>
<polyline clip-path="url(#clip052)" style="stroke:#000000; stroke-linecap:round; stroke-linejoin:round; stroke-width:2.8; stroke-opacity:0.4; fill:none" points="2405.24,1678.07 2405.24,174.584 "/>
<polyline clip-path="url(#clip052)" style="stroke:#000000; stroke-linecap:round; stroke-linejoin:round; stroke-width:2.8; stroke-opacity:0.4; fill:none" points="2961.76,1678.07 2961.76,174.584 "/>
<polyline clip-path="url(#clip052)" style="stroke:#000000; stroke-linecap:round; stroke-linejoin:round; stroke-width:2; stroke-opacity:0.06; fill:none" points="290.44,1678.07 290.44,174.584 "/>
<polyline clip-path="url(#clip052)" style="stroke:#000000; stroke-linecap:round; stroke-linejoin:round; stroke-width:2; stroke-opacity:0.06; fill:none" points="401.745,1678.07 401.745,174.584 "/>
<polyline clip-path="url(#clip052)" style="stroke:#000000; stroke-linecap:round; stroke-linejoin:round; stroke-width:2; stroke-opacity:0.06; fill:none" points="513.05,1678.07 513.05,174.584 "/>
<polyline clip-path="url(#clip052)" style="stroke:#000000; stroke-linecap:round; stroke-linejoin:round; stroke-width:2; stroke-opacity:0.06; fill:none" points="624.356,1678.07 624.356,174.584 "/>
<polyline clip-path="url(#clip052)" style="stroke:#000000; stroke-linecap:round; stroke-linejoin:round; stroke-width:2; stroke-opacity:0.06; fill:none" points="846.966,1678.07 846.966,174.584 "/>
<polyline clip-path="url(#clip052)" style="stroke:#000000; stroke-linecap:round; stroke-linejoin:round; stroke-width:2; stroke-opacity:0.06; fill:none" points="958.271,1678.07 958.271,174.584 "/>
<polyline clip-path="url(#clip052)" style="stroke:#000000; stroke-linecap:round; stroke-linejoin:round; stroke-width:2; stroke-opacity:0.06; fill:none" points="1069.58,1678.07 1069.58,174.584 "/>
<polyline clip-path="url(#clip052)" style="stroke:#000000; stroke-linecap:round; stroke-linejoin:round; stroke-width:2; stroke-opacity:0.06; fill:none" points="1180.88,1678.07 1180.88,174.584 "/>
<polyline clip-path="url(#clip052)" style="stroke:#000000; stroke-linecap:round; stroke-linejoin:round; stroke-width:2; stroke-opacity:0.06; fill:none" points="1403.49,1678.07 1403.49,174.584 "/>
<polyline clip-path="url(#clip052)" style="stroke:#000000; stroke-linecap:round; stroke-linejoin:round; stroke-width:2; stroke-opacity:0.06; fill:none" points="1514.8,1678.07 1514.8,174.584 "/>
<polyline clip-path="url(#clip052)" style="stroke:#000000; stroke-linecap:round; stroke-linejoin:round; stroke-width:2; stroke-opacity:0.06; fill:none" points="1626.1,1678.07 1626.1,174.584 "/>
<polyline clip-path="url(#clip052)" style="stroke:#000000; stroke-linecap:round; stroke-linejoin:round; stroke-width:2; stroke-opacity:0.06; fill:none" points="1737.41,1678.07 1737.41,174.584 "/>
<polyline clip-path="url(#clip052)" style="stroke:#000000; stroke-linecap:round; stroke-linejoin:round; stroke-width:2; stroke-opacity:0.06; fill:none" points="1960.02,1678.07 1960.02,174.584 "/>
<polyline clip-path="url(#clip052)" style="stroke:#000000; stroke-linecap:round; stroke-linejoin:round; stroke-width:2; stroke-opacity:0.06; fill:none" points="2071.32,1678.07 2071.32,174.584 "/>
<polyline clip-path="url(#clip052)" style="stroke:#000000; stroke-linecap:round; stroke-linejoin:round; stroke-width:2; stroke-opacity:0.06; fill:none" points="2182.63,1678.07 2182.63,174.584 "/>
<polyline clip-path="url(#clip052)" style="stroke:#000000; stroke-linecap:round; stroke-linejoin:round; stroke-width:2; stroke-opacity:0.06; fill:none" points="2293.93,1678.07 2293.93,174.584 "/>
<polyline clip-path="url(#clip052)" style="stroke:#000000; stroke-linecap:round; stroke-linejoin:round; stroke-width:2; stroke-opacity:0.06; fill:none" points="2516.54,1678.07 2516.54,174.584 "/>
<polyline clip-path="url(#clip052)" style="stroke:#000000; stroke-linecap:round; stroke-linejoin:round; stroke-width:2; stroke-opacity:0.06; fill:none" points="2627.85,1678.07 2627.85,174.584 "/>
<polyline clip-path="url(#clip052)" style="stroke:#000000; stroke-linecap:round; stroke-linejoin:round; stroke-width:2; stroke-opacity:0.06; fill:none" points="2739.15,1678.07 2739.15,174.584 "/>
<polyline clip-path="url(#clip052)" style="stroke:#000000; stroke-linecap:round; stroke-linejoin:round; stroke-width:2; stroke-opacity:0.06; fill:none" points="2850.46,1678.07 2850.46,174.584 "/>
<polyline clip-path="url(#clip050)" style="stroke:#000000; stroke-linecap:round; stroke-linejoin:round; stroke-width:4; stroke-opacity:1; fill:none" points="179.135,1678.07 2961.76,1678.07 "/>
<polyline clip-path="url(#clip050)" style="stroke:#000000; stroke-linecap:round; stroke-linejoin:round; stroke-width:4; stroke-opacity:1; fill:none" points="179.135,174.584 2961.76,174.584 "/>
<polyline clip-path="url(#clip050)" style="stroke:#000000; stroke-linecap:round; stroke-linejoin:round; stroke-width:4; stroke-opacity:1; fill:none" points="179.135,1678.07 179.135,1659.17 "/>
<polyline clip-path="url(#clip050)" style="stroke:#000000; stroke-linecap:round; stroke-linejoin:round; stroke-width:4; stroke-opacity:1; fill:none" points="735.661,1678.07 735.661,1659.17 "/>
<polyline clip-path="url(#clip050)" style="stroke:#000000; stroke-linecap:round; stroke-linejoin:round; stroke-width:4; stroke-opacity:1; fill:none" points="1292.19,1678.07 1292.19,1659.17 "/>
<polyline clip-path="url(#clip050)" style="stroke:#000000; stroke-linecap:round; stroke-linejoin:round; stroke-width:4; stroke-opacity:1; fill:none" points="1848.71,1678.07 1848.71,1659.17 "/>
<polyline clip-path="url(#clip050)" style="stroke:#000000; stroke-linecap:round; stroke-linejoin:round; stroke-width:4; stroke-opacity:1; fill:none" points="2405.24,1678.07 2405.24,1659.17 "/>
<polyline clip-path="url(#clip050)" style="stroke:#000000; stroke-linecap:round; stroke-linejoin:round; stroke-width:4; stroke-opacity:1; fill:none" points="2961.76,1678.07 2961.76,1659.17 "/>
<polyline clip-path="url(#clip050)" style="stroke:#000000; stroke-linecap:round; stroke-linejoin:round; stroke-width:4; stroke-opacity:1; fill:none" points="290.44,1678.07 290.44,1668.62 "/>
<polyline clip-path="url(#clip050)" style="stroke:#000000; stroke-linecap:round; stroke-linejoin:round; stroke-width:4; stroke-opacity:1; fill:none" points="401.745,1678.07 401.745,1668.62 "/>
<polyline clip-path="url(#clip050)" style="stroke:#000000; stroke-linecap:round; stroke-linejoin:round; stroke-width:4; stroke-opacity:1; fill:none" points="513.05,1678.07 513.05,1668.62 "/>
<polyline clip-path="url(#clip050)" style="stroke:#000000; stroke-linecap:round; stroke-linejoin:round; stroke-width:4; stroke-opacity:1; fill:none" points="624.356,1678.07 624.356,1668.62 "/>
<polyline clip-path="url(#clip050)" style="stroke:#000000; stroke-linecap:round; stroke-linejoin:round; stroke-width:4; stroke-opacity:1; fill:none" points="846.966,1678.07 846.966,1668.62 "/>
<polyline clip-path="url(#clip050)" style="stroke:#000000; stroke-linecap:round; stroke-linejoin:round; stroke-width:4; stroke-opacity:1; fill:none" points="958.271,1678.07 958.271,1668.62 "/>
<polyline clip-path="url(#clip050)" style="stroke:#000000; stroke-linecap:round; stroke-linejoin:round; stroke-width:4; stroke-opacity:1; fill:none" points="1069.58,1678.07 1069.58,1668.62 "/>
<polyline clip-path="url(#clip050)" style="stroke:#000000; stroke-linecap:round; stroke-linejoin:round; stroke-width:4; stroke-opacity:1; fill:none" points="1180.88,1678.07 1180.88,1668.62 "/>
<polyline clip-path="url(#clip050)" style="stroke:#000000; stroke-linecap:round; stroke-linejoin:round; stroke-width:4; stroke-opacity:1; fill:none" points="1403.49,1678.07 1403.49,1668.62 "/>
<polyline clip-path="url(#clip050)" style="stroke:#000000; stroke-linecap:round; stroke-linejoin:round; stroke-width:4; stroke-opacity:1; fill:none" points="1514.8,1678.07 1514.8,1668.62 "/>
<polyline clip-path="url(#clip050)" style="stroke:#000000; stroke-linecap:round; stroke-linejoin:round; stroke-width:4; stroke-opacity:1; fill:none" points="1626.1,1678.07 1626.1,1668.62 "/>
<polyline clip-path="url(#clip050)" style="stroke:#000000; stroke-linecap:round; stroke-linejoin:round; stroke-width:4; stroke-opacity:1; fill:none" points="1737.41,1678.07 1737.41,1668.62 "/>
<polyline clip-path="url(#clip050)" style="stroke:#000000; stroke-linecap:round; stroke-linejoin:round; stroke-width:4; stroke-opacity:1; fill:none" points="1960.02,1678.07 1960.02,1668.62 "/>
<polyline clip-path="url(#clip050)" style="stroke:#000000; stroke-linecap:round; stroke-linejoin:round; stroke-width:4; stroke-opacity:1; fill:none" points="2071.32,1678.07 2071.32,1668.62 "/>
<polyline clip-path="url(#clip050)" style="stroke:#000000; stroke-linecap:round; stroke-linejoin:round; stroke-width:4; stroke-opacity:1; fill:none" points="2182.63,1678.07 2182.63,1668.62 "/>
<polyline clip-path="url(#clip050)" style="stroke:#000000; stroke-linecap:round; stroke-linejoin:round; stroke-width:4; stroke-opacity:1; fill:none" points="2293.93,1678.07 2293.93,1668.62 "/>
<polyline clip-path="url(#clip050)" style="stroke:#000000; stroke-linecap:round; stroke-linejoin:round; stroke-width:4; stroke-opacity:1; fill:none" points="2516.54,1678.07 2516.54,1668.62 "/>
<polyline clip-path="url(#clip050)" style="stroke:#000000; stroke-linecap:round; stroke-linejoin:round; stroke-width:4; stroke-opacity:1; fill:none" points="2627.85,1678.07 2627.85,1668.62 "/>
<polyline clip-path="url(#clip050)" style="stroke:#000000; stroke-linecap:round; stroke-linejoin:round; stroke-width:4; stroke-opacity:1; fill:none" points="2739.15,1678.07 2739.15,1668.62 "/>
<polyline clip-path="url(#clip050)" style="stroke:#000000; stroke-linecap:round; stroke-linejoin:round; stroke-width:4; stroke-opacity:1; fill:none" points="2850.46,1678.07 2850.46,1668.62 "/>
<path clip-path="url(#clip050)" d="M168.488 1729.66 Q168.488 1722.23 170.365 1718.18 Q172.984 1712.15 179.16 1712.15 Q180.469 1712.15 181.828 1712.52 Q183.211 1712.86 184.94 1714.22 Q186.694 1715.58 187.756 1717.81 Q189.782 1722.1 189.782 1729.66 Q189.782 1737.05 187.905 1741.08 Q185.163 1746.96 179.11 1746.96 Q176.837 1746.96 174.515 1745.79 Q172.218 1744.63 170.76 1741.84 Q168.488 1737.67 168.488 1729.66 M172.687 1729.05 Q172.687 1736.68 173.231 1739.72 Q173.848 1743 175.528 1744.44 Q177.233 1745.84 179.11 1745.84 Q181.136 1745.84 182.816 1744.34 Q184.52 1742.81 185.039 1739.52 Q185.607 1736.28 185.582 1729.05 Q185.582 1722 185.088 1719.19 Q184.421 1715.9 182.643 1714.59 Q180.889 1713.26 179.11 1713.26 Q178.443 1713.26 177.727 1713.46 Q177.035 1713.66 176.022 1714.22 Q175.009 1714.79 174.219 1716.2 Q173.453 1717.61 173.083 1719.73 Q172.687 1722.47 172.687 1729.05 Z" fill="#000000" fill-rule="nonzero" fill-opacity="1" /><path clip-path="url(#clip050)" d="M725.557 1745.84 Q725.557 1744.93 725.631 1744.66 Q725.73 1744.39 726.125 1743.97 L735.834 1733.15 Q741.145 1727.17 741.145 1721.96 Q741.145 1718.57 739.366 1716.15 Q737.612 1713.73 734.376 1713.73 Q732.153 1713.73 730.275 1715.09 Q728.398 1716.45 727.533 1718.87 Q727.681 1718.82 728.2 1718.82 Q729.46 1718.82 730.152 1719.61 Q730.868 1720.4 730.868 1721.46 Q730.868 1722.82 729.979 1723.49 Q729.114 1724.13 728.25 1724.13 Q727.904 1724.13 727.434 1724.06 Q726.99 1723.98 726.273 1723.29 Q725.557 1722.57 725.557 1721.31 Q725.557 1717.78 728.225 1714.96 Q730.918 1712.15 735.018 1712.15 Q739.663 1712.15 742.701 1714.92 Q745.764 1717.66 745.764 1721.96 Q745.764 1723.46 745.295 1724.85 Q744.85 1726.2 744.233 1727.27 Q743.64 1728.33 742.009 1730.03 Q740.379 1731.74 739.07 1732.95 Q737.76 1734.16 734.821 1736.73 L729.46 1741.94 L738.576 1741.94 Q743.022 1741.94 743.368 1741.55 Q743.862 1740.83 744.48 1737.05 L745.764 1737.05 L744.332 1745.84 L725.557 1745.84 Z" fill="#000000" fill-rule="nonzero" fill-opacity="1" /><path clip-path="url(#clip050)" d="M1280.97 1737.49 L1280.97 1735.94 L1296.51 1712.2 Q1296.9 1711.58 1297.52 1711.6 Q1298.09 1711.6 1298.21 1711.83 Q1298.34 1712.05 1298.34 1712.91 L1298.34 1735.94 L1303.4 1735.94 L1303.4 1737.49 L1298.34 1737.49 L1298.34 1741.89 Q1298.34 1743.35 1298.93 1743.82 Q1299.55 1744.29 1302.17 1744.29 L1303.23 1744.29 L1303.23 1745.84 Q1301.15 1745.7 1296.36 1745.7 Q1291.59 1745.7 1289.52 1745.84 L1289.52 1744.29 L1290.58 1744.29 Q1293.2 1744.29 1293.82 1743.84 Q1294.43 1743.37 1294.43 1741.89 L1294.43 1737.49 L1280.97 1737.49 M1282.4 1735.94 L1294.73 1735.94 L1294.73 1717.06 L1282.4 1735.94 Z" fill="#000000" fill-rule="nonzero" fill-opacity="1" /><path clip-path="url(#clip050)" d="M1838.21 1729.86 Q1838.21 1721.91 1842.26 1717.04 Q1846.32 1712.15 1851.53 1712.15 Q1854.57 1712.15 1856.25 1713.7 Q1857.95 1715.24 1857.95 1717.61 Q1857.95 1718.92 1857.19 1719.49 Q1856.42 1720.05 1855.63 1720.05 Q1854.72 1720.05 1854 1719.44 Q1853.28 1718.82 1853.28 1717.71 Q1853.28 1715.43 1856.07 1715.43 Q1854.76 1713.41 1851.63 1713.41 Q1850.66 1713.41 1849.68 1713.7 Q1848.69 1713.98 1847.4 1714.92 Q1846.12 1715.85 1845.13 1717.34 Q1844.14 1718.82 1843.45 1721.61 Q1842.76 1724.4 1842.76 1728.03 L1842.76 1729.24 Q1844.83 1724.23 1849.08 1724.25 Q1853.33 1724.25 1856.27 1727.49 Q1859.21 1730.73 1859.21 1735.52 Q1859.21 1740.43 1856.15 1743.69 Q1853.08 1746.96 1848.79 1746.96 Q1846.86 1746.96 1845.11 1746.14 Q1843.38 1745.35 1841.75 1743.52 Q1840.14 1741.69 1839.18 1738.19 Q1838.21 1734.68 1838.21 1729.86 M1842.86 1734.41 Q1842.86 1739.37 1843.77 1741.74 Q1843.92 1742.14 1844.24 1742.68 Q1844.59 1743.23 1845.15 1743.94 Q1845.75 1744.63 1846.71 1745.1 Q1847.67 1745.55 1848.79 1745.55 Q1852.17 1745.55 1853.8 1742.26 Q1854.67 1740.43 1854.67 1735.47 Q1854.67 1730.4 1853.75 1728.55 Q1852.2 1725.41 1849.03 1725.41 Q1846.91 1725.41 1845.43 1726.87 Q1843.97 1728.33 1843.4 1730.28 Q1842.86 1732.23 1842.86 1734.41 Z" fill="#000000" fill-rule="nonzero" fill-opacity="1" /><path clip-path="url(#clip050)" d="M2394.74 1738.21 Q2394.74 1732.55 2402.03 1728.9 Q2398.89 1726.77 2398.32 1726.16 Q2396.1 1723.68 2396.1 1720.6 Q2396.1 1717.06 2398.77 1714.62 Q2401.46 1712.15 2405.26 1712.15 Q2408.89 1712.15 2411.64 1714.25 Q2414.38 1716.35 2414.38 1719.68 Q2414.38 1724.38 2408.25 1727.54 Q2412.3 1730.06 2413.27 1731.12 Q2415.74 1733.86 2415.74 1737.35 Q2415.74 1741.4 2412.62 1744.19 Q2409.51 1746.96 2405.21 1746.96 Q2401.01 1746.96 2397.88 1744.51 Q2394.74 1742.06 2394.74 1738.21 M2397.26 1738.21 Q2397.26 1741.35 2399.61 1743.45 Q2401.98 1745.55 2405.26 1745.55 Q2408.45 1745.55 2410.82 1743.72 Q2413.22 1741.89 2413.22 1739.17 Q2413.22 1738.11 2412.85 1737.2 Q2412.5 1736.28 2411.78 1735.57 Q2411.09 1734.83 2410.65 1734.5 Q2410.23 1734.16 2409.41 1733.59 L2403.19 1729.66 Q2397.26 1732.95 2397.26 1738.21 M2398.32 1718.62 Q2398.32 1721.04 2400.87 1722.72 L2407.14 1726.77 Q2412.15 1723.83 2412.15 1719.68 Q2412.15 1716.99 2410.1 1715.21 Q2408.05 1713.41 2405.21 1713.41 Q2402.42 1713.41 2400.37 1714.89 Q2398.32 1716.35 2398.32 1718.62 Z" fill="#000000" fill-rule="nonzero" fill-opacity="1" /><path clip-path="url(#clip050)" d="M2939.73 1716.97 L2939.73 1715.38 Q2945.81 1715.38 2948.94 1712.15 Q2949.81 1712.15 2949.96 1712.35 Q2950.1 1712.54 2950.1 1713.46 L2950.1 1741.84 Q2950.1 1743.35 2950.84 1743.82 Q2951.59 1744.29 2954.82 1744.29 L2956.43 1744.29 L2956.43 1745.84 Q2954.65 1745.7 2948.23 1745.7 Q2941.8 1745.7 2940.05 1745.84 L2940.05 1744.29 L2941.66 1744.29 Q2944.84 1744.29 2945.61 1743.84 Q2946.37 1743.37 2946.37 1741.84 L2946.37 1715.63 Q2943.73 1716.97 2939.73 1716.97 Z" fill="#000000" fill-rule="nonzero" fill-opacity="1" /><path clip-path="url(#clip050)" d="M2962.5 1729.66 Q2962.5 1722.23 2964.38 1718.18 Q2967 1712.15 2973.18 1712.15 Q2974.49 1712.15 2975.84 1712.52 Q2977.23 1712.86 2978.96 1714.22 Q2980.71 1715.58 2981.77 1717.81 Q2983.8 1722.1 2983.8 1729.66 Q2983.8 1737.05 2981.92 1741.08 Q2979.18 1746.96 2973.13 1746.96 Q2970.85 1746.96 2968.53 1745.79 Q2966.24 1744.63 2964.78 1741.84 Q2962.5 1737.67 2962.5 1729.66 M2966.7 1729.05 Q2966.7 1736.68 2967.25 1739.72 Q2967.87 1743 2969.55 1744.44 Q2971.25 1745.84 2973.13 1745.84 Q2975.15 1745.84 2976.83 1744.34 Q2978.54 1742.81 2979.06 1739.52 Q2979.62 1736.28 2979.6 1729.05 Q2979.6 1722 2979.11 1719.19 Q2978.44 1715.9 2976.66 1714.59 Q2974.91 1713.26 2973.13 1713.26 Q2972.46 1713.26 2971.74 1713.46 Q2971.05 1713.66 2970.04 1714.22 Q2969.03 1714.79 2968.24 1716.2 Q2967.47 1717.61 2967.1 1719.73 Q2966.7 1722.47 2966.7 1729.05 Z" fill="#000000" fill-rule="nonzero" fill-opacity="1" /><path clip-path="url(#clip050)" d="M1558.57 1807.85 L1558.57 1806.18 Q1562.06 1806.03 1564.35 1803.59 Q1566.69 1801.1 1567.47 1798.07 Q1568.28 1795.03 1568.36 1791.51 L1570.25 1791.51 L1570.25 1805.48 L1581.1 1805.48 L1581.1 1807.85 L1570.25 1807.85 L1570.25 1828.93 Q1570.25 1837.12 1575.36 1837.12 Q1577.55 1837.12 1578.99 1834.9 Q1580.44 1832.64 1580.44 1828.64 L1580.44 1824.45 L1582.33 1824.45 L1582.33 1828.78 Q1582.33 1832.9 1580.44 1835.97 Q1578.55 1839.05 1574.8 1839.05 Q1573.43 1839.05 1572.06 1838.68 Q1570.73 1838.34 1568.95 1837.45 Q1567.21 1836.53 1566.1 1834.3 Q1565.02 1832.04 1565.02 1828.78 L1565.02 1807.85 L1558.57 1807.85 Z" fill="#000000" fill-rule="nonzero" fill-opacity="1" /><polyline clip-path="url(#clip052)" style="stroke:#000000; stroke-linecap:round; stroke-linejoin:round; stroke-width:2.8; stroke-opacity:0.4; fill:none" points="179.135,1476.96 2961.76,1476.96 "/>
<polyline clip-path="url(#clip052)" style="stroke:#000000; stroke-linecap:round; stroke-linejoin:round; stroke-width:2.8; stroke-opacity:0.4; fill:none" points="179.135,1263.61 2961.76,1263.61 "/>
<polyline clip-path="url(#clip052)" style="stroke:#000000; stroke-linecap:round; stroke-linejoin:round; stroke-width:2.8; stroke-opacity:0.4; fill:none" points="179.135,1050.25 2961.76,1050.25 "/>
<polyline clip-path="url(#clip052)" style="stroke:#000000; stroke-linecap:round; stroke-linejoin:round; stroke-width:2.8; stroke-opacity:0.4; fill:none" points="179.135,836.901 2961.76,836.901 "/>
<polyline clip-path="url(#clip052)" style="stroke:#000000; stroke-linecap:round; stroke-linejoin:round; stroke-width:2.8; stroke-opacity:0.4; fill:none" points="179.135,623.548 2961.76,623.548 "/>
<polyline clip-path="url(#clip052)" style="stroke:#000000; stroke-linecap:round; stroke-linejoin:round; stroke-width:2.8; stroke-opacity:0.4; fill:none" points="179.135,410.195 2961.76,410.195 "/>
<polyline clip-path="url(#clip052)" style="stroke:#000000; stroke-linecap:round; stroke-linejoin:round; stroke-width:2.8; stroke-opacity:0.4; fill:none" points="179.135,196.842 2961.76,196.842 "/>
<polyline clip-path="url(#clip052)" style="stroke:#000000; stroke-linecap:round; stroke-linejoin:round; stroke-width:2; stroke-opacity:0.06; fill:none" points="179.135,1647.64 2961.76,1647.64 "/>
<polyline clip-path="url(#clip052)" style="stroke:#000000; stroke-linecap:round; stroke-linejoin:round; stroke-width:2; stroke-opacity:0.06; fill:none" points="179.135,1604.97 2961.76,1604.97 "/>
<polyline clip-path="url(#clip052)" style="stroke:#000000; stroke-linecap:round; stroke-linejoin:round; stroke-width:2; stroke-opacity:0.06; fill:none" points="179.135,1562.3 2961.76,1562.3 "/>
<polyline clip-path="url(#clip052)" style="stroke:#000000; stroke-linecap:round; stroke-linejoin:round; stroke-width:2; stroke-opacity:0.06; fill:none" points="179.135,1519.63 2961.76,1519.63 "/>
<polyline clip-path="url(#clip052)" style="stroke:#000000; stroke-linecap:round; stroke-linejoin:round; stroke-width:2; stroke-opacity:0.06; fill:none" points="179.135,1434.29 2961.76,1434.29 "/>
<polyline clip-path="url(#clip052)" style="stroke:#000000; stroke-linecap:round; stroke-linejoin:round; stroke-width:2; stroke-opacity:0.06; fill:none" points="179.135,1391.62 2961.76,1391.62 "/>
<polyline clip-path="url(#clip052)" style="stroke:#000000; stroke-linecap:round; stroke-linejoin:round; stroke-width:2; stroke-opacity:0.06; fill:none" points="179.135,1348.95 2961.76,1348.95 "/>
<polyline clip-path="url(#clip052)" style="stroke:#000000; stroke-linecap:round; stroke-linejoin:round; stroke-width:2; stroke-opacity:0.06; fill:none" points="179.135,1306.28 2961.76,1306.28 "/>
<polyline clip-path="url(#clip052)" style="stroke:#000000; stroke-linecap:round; stroke-linejoin:round; stroke-width:2; stroke-opacity:0.06; fill:none" points="179.135,1220.94 2961.76,1220.94 "/>
<polyline clip-path="url(#clip052)" style="stroke:#000000; stroke-linecap:round; stroke-linejoin:round; stroke-width:2; stroke-opacity:0.06; fill:none" points="179.135,1178.27 2961.76,1178.27 "/>
<polyline clip-path="url(#clip052)" style="stroke:#000000; stroke-linecap:round; stroke-linejoin:round; stroke-width:2; stroke-opacity:0.06; fill:none" points="179.135,1135.59 2961.76,1135.59 "/>
<polyline clip-path="url(#clip052)" style="stroke:#000000; stroke-linecap:round; stroke-linejoin:round; stroke-width:2; stroke-opacity:0.06; fill:none" points="179.135,1092.92 2961.76,1092.92 "/>
<polyline clip-path="url(#clip052)" style="stroke:#000000; stroke-linecap:round; stroke-linejoin:round; stroke-width:2; stroke-opacity:0.06; fill:none" points="179.135,1007.58 2961.76,1007.58 "/>
<polyline clip-path="url(#clip052)" style="stroke:#000000; stroke-linecap:round; stroke-linejoin:round; stroke-width:2; stroke-opacity:0.06; fill:none" points="179.135,964.912 2961.76,964.912 "/>
<polyline clip-path="url(#clip052)" style="stroke:#000000; stroke-linecap:round; stroke-linejoin:round; stroke-width:2; stroke-opacity:0.06; fill:none" points="179.135,922.242 2961.76,922.242 "/>
<polyline clip-path="url(#clip052)" style="stroke:#000000; stroke-linecap:round; stroke-linejoin:round; stroke-width:2; stroke-opacity:0.06; fill:none" points="179.135,879.571 2961.76,879.571 "/>
<polyline clip-path="url(#clip052)" style="stroke:#000000; stroke-linecap:round; stroke-linejoin:round; stroke-width:2; stroke-opacity:0.06; fill:none" points="179.135,794.23 2961.76,794.23 "/>
<polyline clip-path="url(#clip052)" style="stroke:#000000; stroke-linecap:round; stroke-linejoin:round; stroke-width:2; stroke-opacity:0.06; fill:none" points="179.135,751.56 2961.76,751.56 "/>
<polyline clip-path="url(#clip052)" style="stroke:#000000; stroke-linecap:round; stroke-linejoin:round; stroke-width:2; stroke-opacity:0.06; fill:none" points="179.135,708.889 2961.76,708.889 "/>
<polyline clip-path="url(#clip052)" style="stroke:#000000; stroke-linecap:round; stroke-linejoin:round; stroke-width:2; stroke-opacity:0.06; fill:none" points="179.135,666.218 2961.76,666.218 "/>
<polyline clip-path="url(#clip052)" style="stroke:#000000; stroke-linecap:round; stroke-linejoin:round; stroke-width:2; stroke-opacity:0.06; fill:none" points="179.135,580.877 2961.76,580.877 "/>
<polyline clip-path="url(#clip052)" style="stroke:#000000; stroke-linecap:round; stroke-linejoin:round; stroke-width:2; stroke-opacity:0.06; fill:none" points="179.135,538.207 2961.76,538.207 "/>
<polyline clip-path="url(#clip052)" style="stroke:#000000; stroke-linecap:round; stroke-linejoin:round; stroke-width:2; stroke-opacity:0.06; fill:none" points="179.135,495.536 2961.76,495.536 "/>
<polyline clip-path="url(#clip052)" style="stroke:#000000; stroke-linecap:round; stroke-linejoin:round; stroke-width:2; stroke-opacity:0.06; fill:none" points="179.135,452.866 2961.76,452.866 "/>
<polyline clip-path="url(#clip052)" style="stroke:#000000; stroke-linecap:round; stroke-linejoin:round; stroke-width:2; stroke-opacity:0.06; fill:none" points="179.135,367.525 2961.76,367.525 "/>
<polyline clip-path="url(#clip052)" style="stroke:#000000; stroke-linecap:round; stroke-linejoin:round; stroke-width:2; stroke-opacity:0.06; fill:none" points="179.135,324.854 2961.76,324.854 "/>
<polyline clip-path="url(#clip052)" style="stroke:#000000; stroke-linecap:round; stroke-linejoin:round; stroke-width:2; stroke-opacity:0.06; fill:none" points="179.135,282.183 2961.76,282.183 "/>
<polyline clip-path="url(#clip052)" style="stroke:#000000; stroke-linecap:round; stroke-linejoin:round; stroke-width:2; stroke-opacity:0.06; fill:none" points="179.135,239.513 2961.76,239.513 "/>
<polyline clip-path="url(#clip050)" style="stroke:#000000; stroke-linecap:round; stroke-linejoin:round; stroke-width:4; stroke-opacity:1; fill:none" points="179.135,1678.07 179.135,174.584 "/>
<polyline clip-path="url(#clip050)" style="stroke:#000000; stroke-linecap:round; stroke-linejoin:round; stroke-width:4; stroke-opacity:1; fill:none" points="2961.76,1678.07 2961.76,174.584 "/>
<polyline clip-path="url(#clip050)" style="stroke:#000000; stroke-linecap:round; stroke-linejoin:round; stroke-width:4; stroke-opacity:1; fill:none" points="179.135,1476.96 198.033,1476.96 "/>
<polyline clip-path="url(#clip050)" style="stroke:#000000; stroke-linecap:round; stroke-linejoin:round; stroke-width:4; stroke-opacity:1; fill:none" points="179.135,1263.61 198.033,1263.61 "/>
<polyline clip-path="url(#clip050)" style="stroke:#000000; stroke-linecap:round; stroke-linejoin:round; stroke-width:4; stroke-opacity:1; fill:none" points="179.135,1050.25 198.033,1050.25 "/>
<polyline clip-path="url(#clip050)" style="stroke:#000000; stroke-linecap:round; stroke-linejoin:round; stroke-width:4; stroke-opacity:1; fill:none" points="179.135,836.901 198.033,836.901 "/>
<polyline clip-path="url(#clip050)" style="stroke:#000000; stroke-linecap:round; stroke-linejoin:round; stroke-width:4; stroke-opacity:1; fill:none" points="179.135,623.548 198.033,623.548 "/>
<polyline clip-path="url(#clip050)" style="stroke:#000000; stroke-linecap:round; stroke-linejoin:round; stroke-width:4; stroke-opacity:1; fill:none" points="179.135,410.195 198.033,410.195 "/>
<polyline clip-path="url(#clip050)" style="stroke:#000000; stroke-linecap:round; stroke-linejoin:round; stroke-width:4; stroke-opacity:1; fill:none" points="179.135,196.842 198.033,196.842 "/>
<polyline clip-path="url(#clip050)" style="stroke:#000000; stroke-linecap:round; stroke-linejoin:round; stroke-width:4; stroke-opacity:1; fill:none" points="179.135,1647.64 188.584,1647.64 "/>
<polyline clip-path="url(#clip050)" style="stroke:#000000; stroke-linecap:round; stroke-linejoin:round; stroke-width:4; stroke-opacity:1; fill:none" points="179.135,1604.97 188.584,1604.97 "/>
<polyline clip-path="url(#clip050)" style="stroke:#000000; stroke-linecap:round; stroke-linejoin:round; stroke-width:4; stroke-opacity:1; fill:none" points="179.135,1562.3 188.584,1562.3 "/>
<polyline clip-path="url(#clip050)" style="stroke:#000000; stroke-linecap:round; stroke-linejoin:round; stroke-width:4; stroke-opacity:1; fill:none" points="179.135,1519.63 188.584,1519.63 "/>
<polyline clip-path="url(#clip050)" style="stroke:#000000; stroke-linecap:round; stroke-linejoin:round; stroke-width:4; stroke-opacity:1; fill:none" points="179.135,1434.29 188.584,1434.29 "/>
<polyline clip-path="url(#clip050)" style="stroke:#000000; stroke-linecap:round; stroke-linejoin:round; stroke-width:4; stroke-opacity:1; fill:none" points="179.135,1391.62 188.584,1391.62 "/>
<polyline clip-path="url(#clip050)" style="stroke:#000000; stroke-linecap:round; stroke-linejoin:round; stroke-width:4; stroke-opacity:1; fill:none" points="179.135,1348.95 188.584,1348.95 "/>
<polyline clip-path="url(#clip050)" style="stroke:#000000; stroke-linecap:round; stroke-linejoin:round; stroke-width:4; stroke-opacity:1; fill:none" points="179.135,1306.28 188.584,1306.28 "/>
<polyline clip-path="url(#clip050)" style="stroke:#000000; stroke-linecap:round; stroke-linejoin:round; stroke-width:4; stroke-opacity:1; fill:none" points="179.135,1220.94 188.584,1220.94 "/>
<polyline clip-path="url(#clip050)" style="stroke:#000000; stroke-linecap:round; stroke-linejoin:round; stroke-width:4; stroke-opacity:1; fill:none" points="179.135,1178.27 188.584,1178.27 "/>
<polyline clip-path="url(#clip050)" style="stroke:#000000; stroke-linecap:round; stroke-linejoin:round; stroke-width:4; stroke-opacity:1; fill:none" points="179.135,1135.59 188.584,1135.59 "/>
<polyline clip-path="url(#clip050)" style="stroke:#000000; stroke-linecap:round; stroke-linejoin:round; stroke-width:4; stroke-opacity:1; fill:none" points="179.135,1092.92 188.584,1092.92 "/>
<polyline clip-path="url(#clip050)" style="stroke:#000000; stroke-linecap:round; stroke-linejoin:round; stroke-width:4; stroke-opacity:1; fill:none" points="179.135,1007.58 188.584,1007.58 "/>
<polyline clip-path="url(#clip050)" style="stroke:#000000; stroke-linecap:round; stroke-linejoin:round; stroke-width:4; stroke-opacity:1; fill:none" points="179.135,964.912 188.584,964.912 "/>
<polyline clip-path="url(#clip050)" style="stroke:#000000; stroke-linecap:round; stroke-linejoin:round; stroke-width:4; stroke-opacity:1; fill:none" points="179.135,922.242 188.584,922.242 "/>
<polyline clip-path="url(#clip050)" style="stroke:#000000; stroke-linecap:round; stroke-linejoin:round; stroke-width:4; stroke-opacity:1; fill:none" points="179.135,879.571 188.584,879.571 "/>
<polyline clip-path="url(#clip050)" style="stroke:#000000; stroke-linecap:round; stroke-linejoin:round; stroke-width:4; stroke-opacity:1; fill:none" points="179.135,794.23 188.584,794.23 "/>
<polyline clip-path="url(#clip050)" style="stroke:#000000; stroke-linecap:round; stroke-linejoin:round; stroke-width:4; stroke-opacity:1; fill:none" points="179.135,751.56 188.584,751.56 "/>
<polyline clip-path="url(#clip050)" style="stroke:#000000; stroke-linecap:round; stroke-linejoin:round; stroke-width:4; stroke-opacity:1; fill:none" points="179.135,708.889 188.584,708.889 "/>
<polyline clip-path="url(#clip050)" style="stroke:#000000; stroke-linecap:round; stroke-linejoin:round; stroke-width:4; stroke-opacity:1; fill:none" points="179.135,666.218 188.584,666.218 "/>
<polyline clip-path="url(#clip050)" style="stroke:#000000; stroke-linecap:round; stroke-linejoin:round; stroke-width:4; stroke-opacity:1; fill:none" points="179.135,580.877 188.584,580.877 "/>
<polyline clip-path="url(#clip050)" style="stroke:#000000; stroke-linecap:round; stroke-linejoin:round; stroke-width:4; stroke-opacity:1; fill:none" points="179.135,538.207 188.584,538.207 "/>
<polyline clip-path="url(#clip050)" style="stroke:#000000; stroke-linecap:round; stroke-linejoin:round; stroke-width:4; stroke-opacity:1; fill:none" points="179.135,495.536 188.584,495.536 "/>
<polyline clip-path="url(#clip050)" style="stroke:#000000; stroke-linecap:round; stroke-linejoin:round; stroke-width:4; stroke-opacity:1; fill:none" points="179.135,452.866 188.584,452.866 "/>
<polyline clip-path="url(#clip050)" style="stroke:#000000; stroke-linecap:round; stroke-linejoin:round; stroke-width:4; stroke-opacity:1; fill:none" points="179.135,367.525 188.584,367.525 "/>
<polyline clip-path="url(#clip050)" style="stroke:#000000; stroke-linecap:round; stroke-linejoin:round; stroke-width:4; stroke-opacity:1; fill:none" points="179.135,324.854 188.584,324.854 "/>
<polyline clip-path="url(#clip050)" style="stroke:#000000; stroke-linecap:round; stroke-linejoin:round; stroke-width:4; stroke-opacity:1; fill:none" points="179.135,282.183 188.584,282.183 "/>
<polyline clip-path="url(#clip050)" style="stroke:#000000; stroke-linecap:round; stroke-linejoin:round; stroke-width:4; stroke-opacity:1; fill:none" points="179.135,239.513 188.584,239.513 "/>
<path clip-path="url(#clip050)" d="M116.355 1465.36 L116.355 1463.78 Q122.432 1463.78 125.57 1460.54 Q126.434 1460.54 126.583 1460.74 Q126.731 1460.94 126.731 1461.85 L126.731 1490.24 Q126.731 1491.74 127.472 1492.21 Q128.213 1492.68 131.449 1492.68 L133.055 1492.68 L133.055 1494.24 Q131.276 1494.09 124.853 1494.09 Q118.431 1494.09 116.677 1494.24 L116.677 1492.68 L118.282 1492.68 Q121.469 1492.68 122.235 1492.24 Q123.001 1491.77 123.001 1490.24 L123.001 1464.03 Q120.357 1465.36 116.355 1465.36 Z" fill="#000000" fill-rule="nonzero" fill-opacity="1" /><path clip-path="url(#clip050)" d="M112.848 1280.89 Q112.848 1279.97 112.922 1279.7 Q113.02 1279.43 113.416 1279.01 L123.124 1268.19 Q128.435 1262.21 128.435 1257 Q128.435 1253.61 126.657 1251.19 Q124.903 1248.77 121.667 1248.77 Q119.443 1248.77 117.566 1250.13 Q115.688 1251.49 114.824 1253.91 Q114.972 1253.86 115.491 1253.86 Q116.751 1253.86 117.442 1254.65 Q118.159 1255.44 118.159 1256.5 Q118.159 1257.86 117.269 1258.53 Q116.405 1259.17 115.54 1259.17 Q115.194 1259.17 114.725 1259.1 Q114.28 1259.02 113.564 1258.33 Q112.848 1257.62 112.848 1256.36 Q112.848 1252.82 115.516 1250.01 Q118.208 1247.19 122.309 1247.19 Q126.953 1247.19 129.992 1249.96 Q133.055 1252.7 133.055 1257 Q133.055 1258.51 132.586 1259.89 Q132.141 1261.25 131.523 1262.31 Q130.93 1263.37 129.3 1265.08 Q127.67 1266.78 126.36 1267.99 Q125.051 1269.2 122.111 1271.77 L116.751 1276.98 L125.866 1276.98 Q130.313 1276.98 130.659 1276.59 Q131.153 1275.87 131.77 1272.09 L133.055 1272.09 L131.622 1280.89 L112.848 1280.89 Z" fill="#000000" fill-rule="nonzero" fill-opacity="1" /><path clip-path="url(#clip050)" d="M112.057 1060.72 Q112.057 1059.21 112.922 1058.49 Q113.786 1057.78 114.898 1057.78 Q116.059 1057.78 116.874 1058.54 Q117.714 1059.28 117.714 1060.59 Q117.714 1062 116.726 1062.79 Q115.763 1063.58 114.379 1063.38 Q115.59 1065.41 117.813 1066.32 Q120.061 1067.24 122.136 1067.24 Q124.31 1067.24 126.064 1065.36 Q127.842 1063.48 127.842 1058.89 Q127.842 1054.98 126.311 1052.74 Q124.804 1050.49 121.815 1050.49 L119.592 1050.49 Q118.826 1050.49 118.603 1050.41 Q118.381 1050.34 118.381 1049.92 Q118.381 1049.43 119.147 1049.33 Q119.913 1049.33 121.123 1049.18 Q124.063 1049.08 125.619 1046.54 Q127.027 1044.16 127.027 1040.78 Q127.027 1037.69 125.545 1036.41 Q124.088 1035.1 122.185 1035.1 Q120.407 1035.1 118.455 1035.84 Q116.504 1036.58 115.441 1038.24 Q118.579 1038.24 118.579 1040.78 Q118.579 1041.89 117.862 1042.63 Q117.171 1043.35 116.01 1043.35 Q114.898 1043.35 114.157 1042.66 Q113.416 1041.94 113.416 1040.73 Q113.416 1037.84 115.985 1035.84 Q118.579 1033.84 122.383 1033.84 Q126.138 1033.84 128.905 1035.81 Q131.696 1037.79 131.696 1040.83 Q131.696 1043.82 129.72 1046.26 Q127.744 1048.71 124.606 1049.72 Q128.46 1050.49 130.757 1053.11 Q133.055 1055.7 133.055 1058.89 Q133.055 1062.84 129.942 1065.75 Q126.83 1068.65 122.284 1068.65 Q118.085 1068.65 115.071 1066.37 Q112.057 1064.1 112.057 1060.72 Z" fill="#000000" fill-rule="nonzero" fill-opacity="1" /><path clip-path="url(#clip050)" d="M110.624 845.831 L110.624 844.275 L126.163 820.535 Q126.558 819.917 127.176 819.942 Q127.744 819.942 127.867 820.164 Q127.991 820.386 127.991 821.251 L127.991 844.275 L133.055 844.275 L133.055 845.831 L127.991 845.831 L127.991 850.228 Q127.991 851.686 128.584 852.155 Q129.201 852.624 131.82 852.624 L132.882 852.624 L132.882 854.181 Q130.807 854.032 126.014 854.032 Q121.247 854.032 119.172 854.181 L119.172 852.624 L120.234 852.624 Q122.852 852.624 123.47 852.18 Q124.088 851.71 124.088 850.228 L124.088 845.831 L110.624 845.831 M112.057 844.275 L124.384 844.275 L124.384 825.401 L112.057 844.275 Z" fill="#000000" fill-rule="nonzero" fill-opacity="1" /><path clip-path="url(#clip050)" d="M112.848 632.676 Q112.848 631.169 113.663 630.601 Q114.478 630.008 115.343 630.008 Q116.504 630.008 117.171 630.749 Q117.862 631.465 117.862 632.478 Q117.862 633.491 117.171 634.232 Q116.504 634.948 115.343 634.948 Q114.774 634.948 114.478 634.85 Q115.145 637.172 117.171 638.852 Q119.221 640.531 121.914 640.531 Q125.298 640.531 127.324 637.246 Q128.534 635.121 128.534 630.304 Q128.534 626.055 127.62 623.931 Q126.212 620.695 123.322 620.695 Q119.221 620.695 116.8 624.227 Q116.504 624.672 116.158 624.697 Q115.664 624.697 115.54 624.425 Q115.441 624.128 115.441 623.363 L115.441 608.392 Q115.441 607.182 115.935 607.182 Q116.133 607.182 116.553 607.33 Q119.74 608.738 123.272 608.763 Q126.904 608.763 130.165 607.281 Q130.412 607.133 130.56 607.133 Q131.054 607.133 131.079 607.701 Q131.079 607.898 130.659 608.491 Q130.263 609.059 129.399 609.825 Q128.534 610.566 127.423 611.283 Q126.311 611.999 124.68 612.493 Q123.075 612.962 121.296 612.962 Q119.172 612.962 116.998 612.296 L116.998 622.152 Q119.616 619.583 123.421 619.583 Q127.472 619.583 130.263 622.844 Q133.055 626.105 133.055 630.65 Q133.055 635.418 129.745 638.679 Q126.459 641.94 122.013 641.94 Q117.961 641.94 115.392 639.049 Q112.848 636.159 112.848 632.676 Z" fill="#000000" fill-rule="nonzero" fill-opacity="1" /><path clip-path="url(#clip050)" d="M112.057 411.492 Q112.057 403.538 116.108 398.671 Q120.16 393.78 125.372 393.78 Q128.411 393.78 130.09 395.336 Q131.795 396.868 131.795 399.239 Q131.795 400.548 131.029 401.117 Q130.263 401.685 129.473 401.685 Q128.559 401.685 127.842 401.067 Q127.126 400.45 127.126 399.338 Q127.126 397.065 129.918 397.065 Q128.608 395.04 125.471 395.04 Q124.508 395.04 123.519 395.336 Q122.531 395.608 121.247 396.546 Q119.962 397.485 118.974 398.967 Q117.986 400.45 117.294 403.241 Q116.602 406.033 116.602 409.664 L116.602 410.874 Q118.678 405.86 122.927 405.884 Q127.176 405.884 130.115 409.12 Q133.055 412.357 133.055 417.149 Q133.055 422.065 129.992 425.326 Q126.928 428.587 122.63 428.587 Q120.703 428.587 118.949 427.772 Q117.22 426.981 115.59 425.153 Q113.984 423.325 113.02 419.817 Q112.057 416.309 112.057 411.492 M116.701 416.037 Q116.701 421.003 117.615 423.374 Q117.764 423.77 118.085 424.313 Q118.431 424.857 118.999 425.573 Q119.592 426.265 120.555 426.734 Q121.518 427.179 122.63 427.179 Q126.014 427.179 127.645 423.893 Q128.509 422.065 128.509 417.1 Q128.509 412.035 127.595 410.183 Q126.039 407.045 122.877 407.045 Q120.753 407.045 119.27 408.503 Q117.813 409.96 117.245 411.912 Q116.701 413.864 116.701 416.037 Z" fill="#000000" fill-rule="nonzero" fill-opacity="1" /><path clip-path="url(#clip050)" d="M111.365 190.333 L113.02 179.933 L114.28 179.933 Q114.429 180.55 114.676 180.822 Q114.947 181.094 116.38 181.316 Q117.838 181.539 120.777 181.539 L133.055 181.539 Q133.055 182.7 132.61 183.317 L125.767 192.927 Q123.594 195.965 122.63 201.573 Q122.062 205.328 122.087 209.873 L122.087 212.442 Q122.087 215.234 119.74 215.234 Q117.418 215.234 117.418 212.442 Q117.418 202.783 123.643 193.421 Q124.31 192.457 126.756 189.024 Q129.226 185.59 129.325 185.442 L118.85 185.442 Q114.256 185.442 113.885 185.738 Q113.391 186.183 112.625 190.333 L111.365 190.333 Z" fill="#000000" fill-rule="nonzero" fill-opacity="1" /><path clip-path="url(#clip050)" d="M1180.15 62.208 L1180.15 59.8735 L1181.96 59.8735 Q1186.08 59.8735 1187 59.2065 Q1187.97 58.5025 1187.97 56.2792 L1187.97 16.2968 Q1187.97 14.1106 1187 13.4436 Q1186.04 12.7395 1181.96 12.7395 L1180.15 12.7395 L1180.15 10.368 Q1182.82 10.5903 1191.67 10.5903 Q1201.68 10.5903 1204.42 10.368 L1204.42 12.7395 L1201.9 12.7395 Q1198.42 12.7395 1196.82 13.1842 Q1195.23 13.6288 1194.97 14.2588 Q1194.71 14.8517 1194.71 16.3709 L1194.71 56.835 Q1194.71 58.7989 1195.27 59.3548 Q1195.86 59.8735 1198.42 59.8735 L1204.64 59.8735 Q1208.5 59.8735 1211.27 58.7248 Q1214.05 57.5761 1215.54 56.131 Q1217.02 54.6858 1217.98 51.9808 Q1218.98 49.2387 1219.28 47.4971 Q1219.61 45.7556 1219.91 42.6429 L1221.8 42.6429 L1219.69 62.208 L1180.15 62.208 Z" fill="#000000" fill-rule="nonzero" fill-opacity="1" /><path clip-path="url(#clip050)" d="M1232.17 58.1319 Q1227.17 53.1666 1227.17 45.9779 Q1227.17 38.7522 1232.06 33.4903 Q1236.99 28.1915 1244.03 28.1915 Q1250.92 28.1915 1255.85 33.4533 Q1260.82 38.6781 1260.82 45.9779 Q1260.82 53.1295 1255.82 58.0949 Q1250.85 63.0603 1243.96 63.0603 Q1237.21 63.0603 1232.17 58.1319 M1233.47 45.348 Q1233.47 52.7219 1235.4 56.0569 Q1238.36 61.1334 1244.03 61.1334 Q1246.85 61.1334 1249.18 59.6141 Q1251.55 58.0949 1252.85 55.5381 Q1254.52 52.2031 1254.52 45.348 Q1254.52 38.0481 1252.52 34.8243 Q1249.55 29.896 1243.96 29.896 Q1241.51 29.896 1239.1 31.1929 Q1236.73 32.4528 1235.29 34.9725 Q1233.47 38.3075 1233.47 45.348 Z" fill="#000000" fill-rule="nonzero" fill-opacity="1" /><path clip-path="url(#clip050)" d="M1264.45 31.8599 L1264.45 30.1924 Q1267.93 30.0442 1270.23 27.5986 Q1272.56 25.1159 1273.34 22.0774 Q1274.16 19.0389 1274.23 15.5187 L1276.12 15.5187 L1276.12 29.4884 L1286.98 29.4884 L1286.98 31.8599 L1276.12 31.8599 L1276.12 52.9442 Q1276.12 61.1334 1281.23 61.1334 Q1283.42 61.1334 1284.87 58.9101 Q1286.31 56.6497 1286.31 52.6478 L1286.31 48.4606 L1288.2 48.4606 L1288.2 52.796 Q1288.2 56.9091 1286.31 59.9847 Q1284.42 63.0603 1280.68 63.0603 Q1279.31 63.0603 1277.94 62.6897 Q1276.6 62.3562 1274.82 61.4669 Q1273.08 60.5405 1271.97 58.3172 Q1270.9 56.0569 1270.9 52.796 L1270.9 31.8599 L1264.45 31.8599 Z" fill="#000000" fill-rule="nonzero" fill-opacity="1" /><path clip-path="url(#clip050)" d="M1294.54 62.208 L1294.54 59.8735 Q1298.58 59.8735 1299.5 59.3918 Q1300.47 58.873 1300.47 56.4274 L1300.47 16.9638 Q1300.47 14.1476 1299.47 13.4436 Q1298.5 12.7395 1294.54 12.7395 L1294.54 10.368 L1305.47 9.55279 L1305.47 45.9779 L1316.18 36.7141 Q1317.85 35.269 1317.85 33.7497 Q1317.85 32.0081 1315.66 31.8599 L1315.66 29.4884 Q1318.85 29.7107 1324.14 29.7107 Q1327.26 29.7107 1329.44 29.4884 L1329.44 31.8599 Q1324.66 32.0823 1319.88 35.936 Q1318.81 36.7882 1316.25 39.0115 Q1313.73 41.1978 1313.73 41.4201 Q1313.73 41.4942 1313.81 41.6795 Q1313.92 41.8648 1314.07 42.013 Q1314.21 42.1612 1314.21 42.2353 L1323.85 55.8345 Q1325.81 58.5766 1327.26 59.2436 Q1328.7 59.8735 1331.22 59.8735 L1331.22 62.208 Q1327.96 61.9857 1324.59 61.9857 Q1322.77 61.9857 1316.4 62.208 L1316.4 59.8735 Q1319.14 59.8735 1319.14 58.0949 Q1319.14 56.8721 1312.99 48.3865 Q1312.55 47.7936 1311.55 46.4967 Q1310.62 45.1256 1310.1 44.4586 L1305.25 48.6088 L1305.25 56.4274 Q1305.25 58.873 1306.17 59.3918 Q1307.14 59.8735 1311.18 59.8735 L1311.18 62.208 Q1306.62 61.9857 1302.84 61.9857 Q1302.06 61.9857 1294.54 62.208 Z" fill="#000000" fill-rule="nonzero" fill-opacity="1" /><path clip-path="url(#clip050)" d="M1333.48 54.9823 Q1333.48 48.5347 1341.08 45.1256 Q1345.64 42.9394 1355.05 42.3836 L1355.05 39.6044 Q1355.05 34.8984 1352.57 32.4157 Q1350.12 29.896 1347.01 29.896 Q1341.45 29.896 1338.78 33.3792 Q1341.04 33.4533 1341.86 34.602 Q1342.67 35.7136 1342.67 36.8624 Q1342.67 38.3816 1341.71 39.3821 Q1340.78 40.3455 1339.19 40.3455 Q1337.67 40.3455 1336.67 39.4192 Q1335.67 38.4557 1335.67 36.7882 Q1335.67 33.0827 1339 30.6371 Q1342.38 28.1915 1347.16 28.1915 Q1353.38 28.1915 1357.53 32.3787 Q1358.83 33.6756 1359.46 35.3431 Q1360.12 37.0106 1360.2 38.1222 Q1360.27 39.1968 1360.27 41.346 L1360.27 56.5015 Q1360.27 56.9462 1360.42 57.6873 Q1360.57 58.4284 1361.24 59.3918 Q1361.94 60.3182 1363.09 60.3182 Q1365.83 60.3182 1365.79 55.464 L1365.79 51.2027 L1367.72 51.2027 L1367.72 55.464 Q1367.72 59.503 1365.57 61.0963 Q1363.46 62.6527 1361.5 62.6527 Q1358.98 62.6527 1357.38 60.7999 Q1355.79 58.9472 1355.57 56.4274 Q1354.42 59.3177 1351.79 61.2075 Q1349.19 63.0603 1345.64 63.0603 Q1342.89 63.0603 1340.3 62.3562 Q1337.74 61.6892 1335.59 59.7994 Q1333.48 57.8726 1333.48 54.9823 M1339.34 54.9082 Q1339.34 57.7243 1341.34 59.54 Q1343.34 61.3557 1346.16 61.3557 Q1349.34 61.3557 1352.2 58.9101 Q1355.05 56.4274 1355.05 51.5732 L1355.05 43.9769 Q1346.64 44.2734 1342.97 47.6454 Q1339.34 50.9803 1339.34 54.9082 Z" fill="#000000" fill-rule="nonzero" fill-opacity="1" /><path clip-path="url(#clip050)" d="M1368.98 48.09 L1368.98 43.6064 L1389.18 43.6064 L1389.18 48.09 L1368.98 48.09 Z" fill="#000000" fill-rule="nonzero" fill-opacity="1" /><path clip-path="url(#clip050)" d="M1394.92 12.7395 L1394.92 10.368 Q1403.11 10.5903 1404.55 10.5903 Q1412.67 10.5903 1415.41 10.368 L1415.41 12.7395 Q1409.19 12.7395 1409.19 14.9258 Q1409.19 15.2222 1409.63 16.2968 L1424.12 54.6117 L1438.01 18.0384 Q1438.39 16.8897 1438.39 16.5191 Q1438.39 14.9999 1436.98 13.9253 Q1435.61 12.8136 1432.86 12.7395 L1432.86 10.368 Q1438.79 10.5903 1441.5 10.5903 Q1445.35 10.5903 1448.87 10.368 L1448.87 12.7395 Q1442.5 12.8136 1440.61 17.8161 L1423.67 62.4303 Q1423.38 63.3567 1423.08 63.6161 Q1422.79 63.8755 1421.86 63.8755 Q1421.12 63.8755 1420.71 63.579 Q1420.34 63.2826 1419.97 62.208 L1402.37 15.6298 Q1401.63 13.5918 1400.29 13.1842 Q1398.96 12.7395 1394.92 12.7395 Z" fill="#000000" fill-rule="nonzero" fill-opacity="1" /><path clip-path="url(#clip050)" d="M1451.21 58.1319 Q1446.2 53.1666 1446.2 45.9779 Q1446.2 38.7522 1451.1 33.4903 Q1456.02 28.1915 1463.06 28.1915 Q1469.96 28.1915 1474.88 33.4533 Q1479.85 38.6781 1479.85 45.9779 Q1479.85 53.1295 1474.85 58.0949 Q1469.88 63.0603 1462.99 63.0603 Q1456.25 63.0603 1451.21 58.1319 M1452.5 45.348 Q1452.5 52.7219 1454.43 56.0569 Q1457.39 61.1334 1463.06 61.1334 Q1465.88 61.1334 1468.21 59.6141 Q1470.59 58.0949 1471.88 55.5381 Q1473.55 52.2031 1473.55 45.348 Q1473.55 38.0481 1471.55 34.8243 Q1468.59 29.896 1462.99 29.896 Q1460.54 29.896 1458.14 31.1929 Q1455.76 32.4528 1454.32 34.9725 Q1452.5 38.3075 1452.5 45.348 Z" fill="#000000" fill-rule="nonzero" fill-opacity="1" /><path clip-path="url(#clip050)" d="M1484.56 62.208 L1484.56 59.8735 Q1488.59 59.8735 1489.52 59.3918 Q1490.45 58.873 1490.45 56.4274 L1490.45 16.9638 Q1490.45 14.1476 1489.45 13.4436 Q1488.48 12.7395 1484.56 12.7395 L1484.56 10.368 L1495.45 9.55279 L1495.45 56.4274 Q1495.45 58.873 1496.41 59.3918 Q1497.38 59.8735 1501.38 59.8735 L1501.38 62.208 Q1500.45 62.208 1498.53 62.1339 Q1496.6 62.0598 1495.19 62.0227 Q1493.78 61.9857 1492.97 61.9857 Q1492.08 61.9857 1484.56 62.208 Z" fill="#000000" fill-rule="nonzero" fill-opacity="1" /><path clip-path="url(#clip050)" d="M1504.49 31.8599 L1504.49 30.1924 Q1507.97 30.0442 1510.27 27.5986 Q1512.61 25.1159 1513.38 22.0774 Q1514.2 19.0389 1514.27 15.5187 L1516.16 15.5187 L1516.16 29.4884 L1527.02 29.4884 L1527.02 31.8599 L1516.16 31.8599 L1516.16 52.9442 Q1516.16 61.1334 1521.28 61.1334 Q1523.46 61.1334 1524.91 58.9101 Q1526.35 56.6497 1526.35 52.6478 L1526.35 48.4606 L1528.24 48.4606 L1528.24 52.796 Q1528.24 56.9091 1526.35 59.9847 Q1524.46 63.0603 1520.72 63.0603 Q1519.35 63.0603 1517.98 62.6897 Q1516.65 62.3562 1514.87 61.4669 Q1513.13 60.5405 1512.01 58.3172 Q1510.94 56.0569 1510.94 52.796 L1510.94 31.8599 L1504.49 31.8599 Z" fill="#000000" fill-rule="nonzero" fill-opacity="1" /><path clip-path="url(#clip050)" d="M1534.58 45.4962 Q1534.58 38.3446 1539.17 33.268 Q1543.77 28.1915 1550.37 28.1915 Q1557.04 28.1915 1560.48 32.5269 Q1563.96 36.8624 1563.96 43.0876 Q1563.96 44.2363 1563.67 44.4586 Q1563.37 44.681 1562.07 44.681 L1540.88 44.681 Q1540.88 52.4255 1543.18 56.0569 Q1546.36 61.1334 1551.74 61.1334 Q1552.48 61.1334 1553.37 60.9852 Q1554.26 60.837 1556.07 60.207 Q1557.89 59.54 1559.48 57.7985 Q1561.07 56.0569 1562 53.3148 Q1562.22 52.2402 1562.96 52.2772 Q1563.96 52.2772 1563.96 53.1666 Q1563.96 53.8336 1563.22 55.3528 Q1562.52 56.835 1561.15 58.6137 Q1559.78 60.3923 1557.11 61.7263 Q1554.48 63.0603 1551.29 63.0603 Q1544.62 63.0603 1539.58 58.0208 Q1534.58 52.9442 1534.58 45.4962 M1540.95 43.0876 L1558.96 43.0876 Q1558.96 41.4942 1558.67 39.7156 Q1558.41 37.9369 1557.59 35.4913 Q1556.81 33.0086 1554.96 31.4523 Q1553.11 29.896 1550.37 29.896 Q1549.14 29.896 1547.81 30.4148 Q1546.51 30.9335 1544.92 32.1934 Q1543.33 33.4533 1542.21 36.3065 Q1541.1 39.1598 1540.95 43.0876 Z" fill="#000000" fill-rule="nonzero" fill-opacity="1" /><path clip-path="url(#clip050)" d="M1568.26 62.208 L1568.26 59.8735 Q1572.3 59.8735 1573.23 59.3918 Q1574.19 58.873 1574.19 56.4274 L1574.19 36.0842 Q1574.19 33.268 1573.19 32.564 Q1572.23 31.8599 1568.26 31.8599 L1568.26 29.4884 L1578.82 28.6732 L1578.82 37.0106 Q1579.9 33.7497 1582.16 31.23 Q1584.46 28.6732 1588.16 28.6732 Q1590.61 28.6732 1592.16 30.0442 Q1593.76 31.4153 1593.76 33.3051 Q1593.76 34.9725 1592.72 35.8248 Q1591.72 36.64 1590.5 36.64 Q1589.13 36.64 1588.16 35.7878 Q1587.24 34.8984 1587.24 33.3792 Q1587.24 32.4528 1587.64 31.7488 Q1588.09 31.0077 1588.42 30.7483 Q1588.75 30.4889 1588.98 30.4148 Q1588.83 30.3407 1588.16 30.3407 Q1583.97 30.3407 1581.57 34.5279 Q1579.19 38.6781 1579.19 44.6069 L1579.19 56.2792 Q1579.19 58.4654 1580.08 59.1695 Q1581.01 59.8735 1584.97 59.8735 L1586.57 59.8735 L1586.57 62.208 Q1583.53 61.9857 1576.93 61.9857 Q1576.01 61.9857 1574.56 62.0227 Q1573.12 62.0598 1571.23 62.1339 Q1569.34 62.208 1568.26 62.208 Z" fill="#000000" fill-rule="nonzero" fill-opacity="1" /><path clip-path="url(#clip050)" d="M1597.91 62.208 L1597.91 59.8735 Q1601.95 59.8735 1602.87 59.3918 Q1603.84 58.873 1603.84 56.4274 L1603.84 36.0842 Q1603.84 33.268 1602.84 32.564 Q1601.87 31.8599 1597.91 31.8599 L1597.91 29.4884 L1608.47 28.6732 L1608.47 37.0106 Q1609.54 33.7497 1611.8 31.23 Q1614.1 28.6732 1617.81 28.6732 Q1620.25 28.6732 1621.81 30.0442 Q1623.4 31.4153 1623.4 33.3051 Q1623.4 34.9725 1622.36 35.8248 Q1621.36 36.64 1620.14 36.64 Q1618.77 36.64 1617.81 35.7878 Q1616.88 34.8984 1616.88 33.3792 Q1616.88 32.4528 1617.29 31.7488 Q1617.73 31.0077 1618.07 30.7483 Q1618.4 30.4889 1618.62 30.4148 Q1618.47 30.3407 1617.81 30.3407 Q1613.62 30.3407 1611.21 34.5279 Q1608.84 38.6781 1608.84 44.6069 L1608.84 56.2792 Q1608.84 58.4654 1609.73 59.1695 Q1610.65 59.8735 1614.62 59.8735 L1616.21 59.8735 L1616.21 62.208 Q1613.17 61.9857 1606.58 61.9857 Q1605.65 61.9857 1604.21 62.0227 Q1602.76 62.0598 1600.87 62.1339 Q1598.98 62.208 1597.91 62.208 Z" fill="#000000" fill-rule="nonzero" fill-opacity="1" /><path clip-path="url(#clip050)" d="M1628.63 54.9823 Q1628.63 48.5347 1636.22 45.1256 Q1640.78 42.9394 1650.19 42.3836 L1650.19 39.6044 Q1650.19 34.8984 1647.71 32.4157 Q1645.26 29.896 1642.15 29.896 Q1636.59 29.896 1633.92 33.3792 Q1636.18 33.4533 1637 34.602 Q1637.82 35.7136 1637.82 36.8624 Q1637.82 38.3816 1636.85 39.3821 Q1635.93 40.3455 1634.33 40.3455 Q1632.81 40.3455 1631.81 39.4192 Q1630.81 38.4557 1630.81 36.7882 Q1630.81 33.0827 1634.15 30.6371 Q1637.52 28.1915 1642.3 28.1915 Q1648.52 28.1915 1652.67 32.3787 Q1653.97 33.6756 1654.6 35.3431 Q1655.27 37.0106 1655.34 38.1222 Q1655.42 39.1968 1655.42 41.346 L1655.42 56.5015 Q1655.42 56.9462 1655.56 57.6873 Q1655.71 58.4284 1656.38 59.3918 Q1657.08 60.3182 1658.23 60.3182 Q1660.97 60.3182 1660.94 55.464 L1660.94 51.2027 L1662.86 51.2027 L1662.86 55.464 Q1662.86 59.503 1660.72 61.0963 Q1658.6 62.6527 1656.64 62.6527 Q1654.12 62.6527 1652.53 60.7999 Q1650.93 58.9472 1650.71 56.4274 Q1649.56 59.3177 1646.93 61.2075 Q1644.34 63.0603 1640.78 63.0603 Q1638.04 63.0603 1635.44 62.3562 Q1632.89 61.6892 1630.74 59.7994 Q1628.63 57.8726 1628.63 54.9823 M1634.48 54.9082 Q1634.48 57.7243 1636.48 59.54 Q1638.48 61.3557 1641.3 61.3557 Q1644.49 61.3557 1647.34 58.9101 Q1650.19 56.4274 1650.19 51.5732 L1650.19 43.9769 Q1641.78 44.2734 1638.11 47.6454 Q1634.48 50.9803 1634.48 54.9082 Z" fill="#000000" fill-rule="nonzero" fill-opacity="1" /><path clip-path="url(#clip050)" d="M1692.88 62.0598 L1692.88 46.8672 Q1692.88 46.0149 1692.92 45.7185 Q1692.95 45.4221 1693.18 45.1997 Q1693.4 44.9774 1693.84 44.9774 Q1694.69 44.9774 1694.77 45.7556 Q1694.99 53.2777 1699.47 57.4279 Q1703.88 61.541 1711.44 61.541 Q1716 61.541 1718.82 58.2802 Q1721.63 54.9823 1721.63 50.6839 Q1721.63 46.5708 1719.26 43.6805 Q1718.26 42.3836 1717 41.5683 Q1715.78 40.7161 1715 40.4567 Q1714.26 40.1973 1712.81 39.8268 Q1703.4 37.5664 1702.81 37.307 Q1698.33 35.7878 1695.58 31.9711 Q1692.88 28.1174 1692.88 23.4114 Q1692.88 17.3343 1697.14 13.036 Q1701.44 8.70052 1707.66 8.70052 Q1710.78 8.70052 1713.37 9.70101 Q1716 10.6644 1717.08 11.5538 Q1718.15 12.4431 1719.82 14.0364 L1722.45 9.70101 Q1723.04 8.70052 1723.6 8.70052 Q1724.19 8.70052 1724.3 9.07107 Q1724.45 9.40457 1724.45 10.5162 L1724.45 25.7829 Q1724.45 26.6352 1724.41 26.9316 Q1724.38 27.228 1724.12 27.4133 Q1723.89 27.5986 1723.45 27.5986 Q1722.71 27.5986 1722.52 26.7093 Q1720.41 10.8497 1707.74 10.8497 Q1703.4 10.8497 1700.55 13.7771 Q1697.73 16.6674 1697.73 20.7805 Q1697.73 24.1154 1699.81 26.8575 Q1701.88 29.5625 1705.4 30.4148 L1715.11 32.7492 Q1719.97 33.8979 1723.23 38.1963 Q1726.49 42.4947 1726.49 48.09 Q1726.49 54.5376 1722.26 59.2065 Q1718.08 63.8755 1711.52 63.8755 Q1706.81 63.8755 1703.18 62.3192 Q1699.55 60.7629 1697.59 58.5766 Q1696.07 61.0963 1695.07 62.5044 L1694.84 62.875 Q1694.25 63.8755 1693.69 63.8755 Q1693.1 63.8755 1692.99 63.5049 Q1692.88 63.1344 1692.88 62.0598 Z" fill="#000000" fill-rule="nonzero" fill-opacity="1" /><path clip-path="url(#clip050)" d="M1737.83 58.1319 Q1732.82 53.1666 1732.82 45.9779 Q1732.82 38.7522 1737.72 33.4903 Q1742.64 28.1915 1749.68 28.1915 Q1756.58 28.1915 1761.51 33.4533 Q1766.47 38.6781 1766.47 45.9779 Q1766.47 53.1295 1761.47 58.0949 Q1756.5 63.0603 1749.61 63.0603 Q1742.87 63.0603 1737.83 58.1319 M1739.12 45.348 Q1739.12 52.7219 1741.05 56.0569 Q1744.02 61.1334 1749.68 61.1334 Q1752.5 61.1334 1754.84 59.6141 Q1757.21 58.0949 1758.5 55.5381 Q1760.17 52.2031 1760.17 45.348 Q1760.17 38.0481 1758.17 34.8243 Q1755.21 29.896 1749.61 29.896 Q1747.16 29.896 1744.76 31.1929 Q1742.38 32.4528 1740.94 34.9725 Q1739.12 38.3075 1739.12 45.348 Z" fill="#000000" fill-rule="nonzero" fill-opacity="1" /><path clip-path="url(#clip050)" d="M1771.18 62.208 L1771.18 59.8735 Q1775.22 59.8735 1776.14 59.3918 Q1777.07 58.873 1777.07 56.4274 L1777.07 16.9638 Q1777.07 14.1476 1776.07 13.4436 Q1775.1 12.7395 1771.18 12.7395 L1771.18 10.368 L1782.07 9.55279 L1782.07 56.4274 Q1782.07 58.873 1783.03 59.3918 Q1784 59.8735 1788 59.8735 L1788 62.208 Q1787.07 62.208 1785.15 62.1339 Q1783.22 62.0598 1781.81 62.0227 Q1780.4 61.9857 1779.59 61.9857 Q1778.7 61.9857 1771.18 62.208 Z" fill="#000000" fill-rule="nonzero" fill-opacity="1" /><path clip-path="url(#clip050)" d="M1792.11 31.8599 L1792.11 29.4884 L1803.27 28.6732 L1803.27 53.8706 Q1803.27 55.6863 1803.41 56.7609 Q1803.56 57.7985 1804.16 59.0213 Q1804.79 60.2441 1806.19 60.7999 Q1807.64 61.3557 1809.94 61.3557 Q1814.05 61.3557 1816.57 57.9837 Q1819.13 54.6117 1819.13 49.6093 L1819.13 36.0842 Q1819.13 33.268 1818.13 32.564 Q1817.12 31.8599 1813.2 31.8599 L1813.2 29.4884 L1824.35 28.6732 L1824.35 55.6122 Q1824.35 58.4284 1825.31 59.1695 Q1826.31 59.8735 1830.28 59.8735 L1830.28 62.208 L1819.35 63.0603 L1819.35 56.2051 Q1816.16 63.0232 1809.57 63.0603 Q1806.23 63.0603 1803.93 62.208 Q1801.67 61.3557 1800.52 60.3182 Q1799.38 59.2436 1798.75 57.2056 Q1798.15 55.1675 1798.08 53.9077 Q1798 52.6478 1798 50.2022 L1798 38.8263 Q1798 33.6756 1797.26 32.7863 Q1796.52 31.8599 1792.11 31.8599 Z" fill="#000000" fill-rule="nonzero" fill-opacity="1" /><path clip-path="url(#clip050)" d="M1833.21 31.8599 L1833.21 30.1924 Q1836.69 30.0442 1838.99 27.5986 Q1841.32 25.1159 1842.1 22.0774 Q1842.92 19.0389 1842.99 15.5187 L1844.88 15.5187 L1844.88 29.4884 L1855.74 29.4884 L1855.74 31.8599 L1844.88 31.8599 L1844.88 52.9442 Q1844.88 61.1334 1849.99 61.1334 Q1852.18 61.1334 1853.62 58.9101 Q1855.07 56.6497 1855.07 52.6478 L1855.07 48.4606 L1856.96 48.4606 L1856.96 52.796 Q1856.96 56.9091 1855.07 59.9847 Q1853.18 63.0603 1849.44 63.0603 Q1848.07 63.0603 1846.69 62.6897 Q1845.36 62.3562 1843.58 61.4669 Q1841.84 60.5405 1840.73 58.3172 Q1839.65 56.0569 1839.65 52.796 L1839.65 31.8599 L1833.21 31.8599 Z" fill="#000000" fill-rule="nonzero" fill-opacity="1" /><path clip-path="url(#clip050)" d="M1863.7 62.208 L1863.7 59.8735 Q1867.74 59.8735 1868.67 59.3918 Q1869.59 58.873 1869.59 56.4274 L1869.59 36.0101 Q1869.59 33.1939 1868.63 32.5269 Q1867.7 31.8599 1864 31.8599 L1864 29.4884 L1874.6 28.6732 L1874.6 56.5015 Q1874.6 58.7619 1875.41 59.3177 Q1876.23 59.8735 1879.93 59.8735 L1879.93 62.208 Q1872.19 61.9857 1872.04 61.9857 Q1871 61.9857 1863.7 62.208 M1866.89 15.4445 Q1866.89 13.9253 1868.04 12.7025 Q1869.22 11.4426 1870.89 11.4426 Q1872.56 11.4426 1873.74 12.5913 Q1874.93 13.703 1874.93 15.4816 Q1874.93 17.2232 1873.74 18.3719 Q1872.56 19.4835 1870.89 19.4835 Q1869.15 19.4835 1868 18.2607 Q1866.89 17.0379 1866.89 15.4445 Z" fill="#000000" fill-rule="nonzero" fill-opacity="1" /><path clip-path="url(#clip050)" d="M1889.31 58.1319 Q1884.31 53.1666 1884.31 45.9779 Q1884.31 38.7522 1889.2 33.4903 Q1894.13 28.1915 1901.17 28.1915 Q1908.06 28.1915 1912.99 33.4533 Q1917.95 38.6781 1917.95 45.9779 Q1917.95 53.1295 1912.95 58.0949 Q1907.98 63.0603 1901.09 63.0603 Q1894.35 63.0603 1889.31 58.1319 M1890.6 45.348 Q1890.6 52.7219 1892.53 56.0569 Q1895.5 61.1334 1901.17 61.1334 Q1903.98 61.1334 1906.32 59.6141 Q1908.69 58.0949 1909.98 55.5381 Q1911.65 52.2031 1911.65 45.348 Q1911.65 38.0481 1909.65 34.8243 Q1906.69 29.896 1901.09 29.896 Q1898.65 29.896 1896.24 31.1929 Q1893.87 32.4528 1892.42 34.9725 Q1890.6 38.3075 1890.6 45.348 Z" fill="#000000" fill-rule="nonzero" fill-opacity="1" /><path clip-path="url(#clip050)" d="M1922.58 62.208 L1922.58 59.8735 Q1926.62 59.8735 1927.55 59.3918 Q1928.48 58.873 1928.48 56.4274 L1928.48 36.0842 Q1928.48 33.268 1927.47 32.564 Q1926.51 31.8599 1922.58 31.8599 L1922.58 29.4884 L1933.26 28.6732 L1933.26 36.64 Q1936.81 28.6732 1944.48 28.6732 Q1950.19 28.6732 1952.45 31.4894 Q1954.12 33.3792 1954.45 35.4913 Q1954.82 37.6035 1954.82 43.0876 L1954.82 57.5761 Q1954.9 59.1695 1956.12 59.54 Q1957.34 59.8735 1960.75 59.8735 L1960.75 62.208 Q1953.01 61.9857 1952.23 61.9857 Q1951.63 61.9857 1943.67 62.208 L1943.67 59.8735 Q1947.71 59.8735 1948.63 59.3918 Q1949.6 58.873 1949.6 56.4274 L1949.6 38.7522 Q1949.6 34.8984 1948.41 32.6381 Q1947.22 30.3407 1943.96 30.3407 Q1940.04 30.3407 1936.89 33.6386 Q1933.74 36.9365 1933.74 42.4947 L1933.74 56.4274 Q1933.74 58.873 1934.66 59.3918 Q1935.63 59.8735 1939.63 59.8735 L1939.63 62.208 Q1931.88 61.9857 1931.14 61.9857 Q1930.55 61.9857 1922.58 62.208 Z" fill="#000000" fill-rule="nonzero" fill-opacity="1" /><polyline clip-path="url(#clip052)" style="stroke:#d77255; stroke-linecap:round; stroke-linejoin:round; stroke-width:5.6; stroke-opacity:1; fill:none" points="179.135,1476.96 180.462,1476.44 182.633,1475.58 185.417,1474.43 188.481,1473.11 191.987,1471.52 195.81,1469.71 199.963,1467.65 204.393,1465.33 209.084,1462.74 214.004,1459.89 219.133,1456.76 224.45,1453.35 229.938,1449.65 235.582,1445.66 241.369,1441.36 247.29,1436.75 253.337,1431.81 259.503,1426.55 265.777,1420.94 272.14,1414.99 278.564,1408.72 285.014,1402.14 291.457,1395.29 297.865,1388.19 304.223,1380.85 310.52,1373.31 316.75,1365.55 322.91,1357.6 329.001,1349.44 335.024,1341.1 340.982,1332.55 346.876,1323.82 352.709,1314.88 358.485,1305.75 364.207,1296.42 369.877,1286.89 375.498,1277.15 381.072,1267.2 386.601,1257.04 392.087,1246.66 397.532,1236.08 402.937,1225.27 408.303,1214.25 413.631,1203.01 418.924,1191.54 424.182,1179.85 429.406,1167.93 434.598,1155.78 439.759,1143.4 444.891,1130.78 449.995,1117.92 455.073,1104.82 460.128,1091.47 465.162,1077.86 470.178,1063.98 475.18,1049.83 480.172,1035.38 485.157,1020.64 490.142,1005.57 495.13,990.164 500.125,974.405 505.128,958.288 510.135,941.823 515.129,925.064 520.085,908.102 524.974,891.046 529.774,873.988 534.472,856.996 539.061,840.115 543.541,823.373 547.911,806.79 552.175,790.375 556.338,774.131 560.405,758.062 564.38,742.162 568.27,726.432 572.079,710.867 575.813,695.461 579.476,680.211 583.074,665.113 586.609,650.163 590.087,635.356 593.512,620.69 596.887,606.162 600.216,591.769 603.501,577.513 606.746,563.388 609.954,549.396 613.128,535.538 616.27,521.814 619.383,508.225 622.469,494.774 625.532,481.461 628.573,468.293 631.595,455.268 634.601,442.395 637.593,429.675 640.573,417.117 643.545,404.724 646.51,392.506 649.473,380.469 652.435,368.623 655.402,356.975 658.377,345.538 661.363,334.325 664.365,323.349 667.391,312.622 670.447,302.165 673.541,291.992 676.684,282.125 679.894,272.582 683.19,263.386 686.6,254.574 690.119,246.29 693.62,238.931 697.041,232.653 700.385,227.455 703.648,223.335 706.832,220.276 709.941,218.259 712.98,217.26 715.952,217.257 718.864,218.227 721.72,220.152 724.526,223.012 727.286,226.793 730.006,231.482 732.69,237.066 735.343,243.539 737.968,250.892 740.568,259.118 743.148,268.211 745.71,278.16 748.255,288.959 750.786,300.592 753.304,313.045 755.81,326.298 758.305,340.332 760.79,355.124 763.266,370.647 765.735,386.88 768.199,403.804 770.661,421.404 773.125,439.671 775.595,458.6 778.078,478.205 780.579,498.505 783.11,519.544 785.681,541.39 788.311,564.161 791.018,587.987 793.793,612.736 796.543,637.534 799.234,661.979 801.868,686.007 804.444,709.55 806.967,732.594 809.441,755.13 811.872,777.16 814.263,798.689 816.621,819.737 818.949,840.309 821.25,860.422 823.53,880.088 825.792,899.324 828.039,918.14 830.273,936.544 832.498,954.552 834.718,972.175 836.934,989.424 839.148,1006.31 841.365,1022.83 843.585,1039.01 845.813,1054.86 848.049,1070.38 850.298,1085.59 852.56,1100.48 854.842,1115.09 857.144,1129.41 859.472,1143.46 861.829,1157.25 864.221,1170.81 866.654,1184.15 869.134,1197.29 871.674,1210.26 874.285,1223.12 876.992,1235.93 879.832,1248.82 882.887,1262.08 886.086,1275.32 889.106,1287.22 892.118,1298.53 895.059,1309.07 897.969,1319.02 900.837,1328.38 903.677,1337.22 906.492,1345.58 909.287,1353.51 912.068,1361.04 914.839,1368.2 917.604,1375.02 920.369,1381.53 923.136,1387.74 925.909,1393.67 928.692,1399.35 931.489,1404.79 934.302,1410 937.135,1414.99 939.991,1419.77 942.874,1424.36 945.786,1428.76 948.731,1432.98 951.713,1437.02 954.736,1440.91 957.802,1444.63 960.919,1448.19 964.089,1451.61 967.32,1454.88 970.617,1458.01 973.99,1461 977.448,1463.86 981.004,1466.59 984.674,1469.19 988.484,1471.68 992.473,1474.05 996.703,1476.33 1001.25,1478.52 1005.8,1480.45 1010.29,1482.11 1014.75,1483.54 1019.18,1484.74 1023.58,1485.75 1027.96,1486.55 1032.33,1487.18 1036.7,1487.63 1041.06,1487.92 1045.44,1488.05 1049.82,1488.02 1054.23,1487.83 1058.66,1487.5 1063.13,1487.02 1067.63,1486.39 1072.17,1485.61 1076.76,1484.67 1081.41,1483.58 1086.11,1482.33 1090.88,1480.92 1095.72,1479.33 1100.63,1477.57 1105.63,1475.63 1110.71,1473.5 1115.89,1471.16 1121.15,1468.62 1126.52,1465.86 1131.99,1462.87 1137.55,1459.64 1143.22,1456.16 1148.98,1452.42 1154.84,1448.42 1160.79,1444.13 1166.84,1439.56 1172.98,1434.69 1179.21,1429.5 1185.53,1423.98 1191.94,1418.14 1198.4,1411.96 1204.9,1405.48 1211.39,1398.72 1217.85,1391.7 1224.26,1384.45 1230.61,1376.98 1236.89,1369.3 1243.1,1361.42 1249.24,1353.35 1255.3,1345.08 1261.29,1336.62 1267.22,1327.97 1273.09,1319.12 1278.9,1310.08 1284.65,1300.84 1290.34,1291.39 1295.99,1281.75 1301.59,1271.89 1307.14,1261.83 1312.64,1251.56 1318.11,1241.07 1323.53,1230.37 1328.92,1219.44 1334.26,1208.3 1339.57,1196.94 1344.85,1185.35 1350.09,1173.54 1355.29,1161.5 1360.47,1149.23 1365.62,1136.72 1370.73,1123.98 1375.82,1110.99 1380.89,1097.75 1385.93,1084.27 1390.96,1070.51 1395.96,1056.49 1400.96,1042.18 1405.95,1027.58 1410.93,1012.66 1415.92,997.418 1420.91,981.825 1425.91,965.877 1430.92,949.57 1435.92,932.942 1440.9,916.061 1445.82,899.038 1450.66,881.972 1455.41,864.943 1460.05,848.004 1464.58,831.196 1469,814.537 1473.32,798.042 1477.53,781.718 1481.64,765.567 1485.65,749.589 1489.58,733.78 1493.43,718.138 1497.2,702.658 1500.89,687.336 1504.52,672.168 1508.09,657.149 1511.59,642.275 1515.04,627.544 1518.44,612.951 1521.79,598.496 1525.09,584.176 1528.36,569.989 1531.58,555.937 1534.77,542.016 1537.93,528.231 1541.05,514.579 1544.15,501.064 1547.22,487.687 1550.27,474.451 1553.31,461.358 1556.32,448.413 1559.32,435.622 1562.3,422.988 1565.28,410.517 1568.24,398.216 1571.21,386.094 1574.17,374.157 1577.13,362.415 1580.1,350.879 1583.08,339.56 1586.08,328.471 1589.09,317.626 1592.13,307.04 1595.21,296.732 1598.33,286.717 1601.5,277.021 1604.75,267.659 1608.11,258.66 1611.58,250.094 1615.11,242.254 1618.57,235.471 1621.95,229.763 1625.25,225.14 1628.47,221.584 1631.61,219.08 1634.68,217.604 1637.69,217.136 1640.63,217.651 1643.51,219.129 1646.34,221.552 1649.12,224.901 1651.86,229.165 1654.56,234.329 1657.22,240.385 1659.86,247.325 1662.47,255.141 1665.06,263.827 1667.63,273.374 1670.18,283.774 1672.72,295.016 1675.25,307.084 1677.76,319.962 1680.26,333.632 1682.75,348.067 1685.23,363.249 1687.7,379.151 1690.16,395.753 1692.63,413.039 1695.09,430.995 1697.56,449.609 1700.03,468.901 1702.53,488.871 1705.04,509.557 1707.59,531.018 1710.19,553.338 1712.86,576.665 1715.61,601.051 1718.39,625.945 1721.1,650.556 1723.77,674.798 1726.37,698.568 1728.92,721.849 1731.41,744.622 1733.86,766.887 1736.27,788.648 1738.64,809.918 1740.98,830.713 1743.3,851.036 1745.59,870.909 1747.86,890.343 1750.11,909.351 1752.35,927.949 1754.58,946.141 1756.8,963.944 1759.02,981.368 1761.23,998.42 1763.45,1015.11 1765.67,1031.46 1767.89,1047.46 1770.12,1063.13 1772.36,1078.48 1774.62,1093.52 1776.89,1108.26 1779.18,1122.71 1781.5,1136.89 1783.84,1150.81 1786.22,1164.47 1788.63,1177.91 1791.09,1191.13 1793.6,1204.19 1796.17,1217.09 1798.83,1229.92 1801.61,1242.75 1804.54,1255.79 1807.74,1269.31 1810.82,1281.71 1813.84,1293.33 1816.81,1304.2 1819.73,1314.43 1822.62,1324.05 1825.47,1333.13 1828.3,1341.71 1831.1,1349.84 1833.89,1357.55 1836.66,1364.88 1839.43,1371.86 1842.2,1378.51 1844.96,1384.86 1847.73,1390.92 1850.51,1396.72 1853.3,1402.27 1856.1,1407.58 1858.93,1412.67 1861.77,1417.55 1864.64,1422.23 1867.54,1426.71 1870.47,1431.02 1873.43,1435.14 1876.43,1439.1 1879.48,1442.9 1882.57,1446.54 1885.72,1450.02 1888.92,1453.36 1892.18,1456.55 1895.52,1459.61 1898.94,1462.53 1902.44,1465.32 1906.06,1467.98 1909.8,1470.52 1913.7,1472.95 1917.8,1475.27 1922.2,1477.5 1926.82,1479.58 1931.3,1481.35 1935.79,1482.9 1940.22,1484.2 1944.64,1485.3 1949.03,1486.2 1953.41,1486.91 1957.77,1487.44 1962.14,1487.8 1966.5,1488.01 1970.88,1488.05 1975.28,1487.94 1979.7,1487.68 1984.15,1487.27 1988.63,1486.7 1993.15,1485.99 1997.72,1485.13 2002.34,1484.11 2007.02,1482.94 2011.76,1481.6 2016.56,1480.1 2021.44,1478.42 2026.4,1476.57 2031.44,1474.52 2036.57,1472.29 2041.79,1469.84 2047.11,1467.19 2052.53,1464.3 2058.05,1461.19 2063.67,1457.82 2069.38,1454.21 2075.2,1450.33 2081.11,1446.18 2087.11,1441.75 2093.21,1437.01 2099.4,1431.97 2105.68,1426.61 2112.05,1420.92 2118.49,1414.9 2124.97,1408.56 2131.47,1401.93 2137.95,1395.02 2144.39,1387.88 2150.77,1380.51 2157.08,1372.93 2163.32,1365.15 2169.49,1357.16 2175.58,1348.99 2181.61,1340.62 2187.57,1332.06 2193.47,1323.31 2199.3,1314.35 2205.08,1305.21 2210.8,1295.86 2216.47,1286.31 2222.09,1276.55 2227.66,1266.59 2233.18,1256.42 2238.67,1246.03 2244.11,1235.43 2249.51,1224.61 2254.88,1213.57 2260.21,1202.31 2265.5,1190.83 2270.75,1179.12 2275.97,1167.19 2281.16,1155.03 2286.32,1142.63 2291.45,1130 2296.56,1117.13 2301.63,1104.01 2306.69,1090.64 2311.72,1077.02 2316.73,1063.12 2321.74,1048.95 2326.73,1034.49 2331.71,1019.73 2336.7,1004.64 2341.69,989.21 2346.68,973.429 2351.69,957.287 2356.69,940.805 2361.68,924.03 2366.64,907.061 2371.52,890.003 2376.31,872.947 2381.01,855.961 2385.59,839.087 2390.06,822.355 2394.42,805.781 2398.68,789.376 2402.84,773.143 2406.9,757.083 2410.87,741.195 2414.76,725.475 2418.56,709.918 2422.29,694.523 2425.95,679.282 2429.54,664.193 2433.07,649.251 2436.55,634.452 2439.97,619.795 2443.34,605.275 2446.67,590.891 2449.95,576.642 2453.19,562.526 2456.4,548.544 2459.57,534.695 2462.71,520.979 2465.82,507.399 2468.91,493.956 2471.97,480.652 2475.01,467.491 2478.03,454.477 2481.03,441.612 2484.03,428.903 2487.01,416.354 2489.98,403.973 2492.94,391.766 2495.9,379.741 2498.87,367.904 2501.83,356.272 2504.81,344.849 2507.8,333.65 2510.8,322.69 2513.83,311.979 2516.88,301.539 2519.98,291.382 2523.13,281.534 2526.34,272.011 2529.65,262.837 2533.06,254.05 2536.59,245.809 2540.08,238.517 2543.5,232.304 2546.84,227.172 2550.1,223.118 2553.27,220.123 2556.38,218.169 2559.41,217.231 2562.38,217.288 2565.29,218.318 2568.14,220.3 2570.95,223.217 2573.7,227.054 2576.42,231.798 2579.1,237.438 2581.75,243.964 2584.38,251.37 2586.98,259.651 2589.56,268.795 2592.12,278.799 2594.66,289.647 2597.19,301.331 2599.71,313.835 2602.21,327.134 2604.71,341.214 2607.19,356.049 2609.67,371.611 2612.14,387.888 2614.6,404.85 2617.06,422.488 2619.52,440.794 2621.99,459.761 2624.48,479.408 2626.98,499.75 2629.51,520.831 2632.09,542.736 2634.72,565.571 2637.43,589.46 2640.21,614.25 2642.96,639.026 2645.65,663.453 2648.28,687.451 2650.85,710.963 2653.37,733.982 2655.84,756.484 2658.27,778.484 2660.66,799.987 2663.01,821.004 2665.34,841.543 2667.64,861.628 2669.92,881.266 2672.18,900.473 2674.42,919.259 2676.66,937.64 2678.88,955.619 2681.1,973.22 2683.32,990.441 2685.53,1007.3 2687.75,1023.81 2689.97,1039.97 2692.2,1055.79 2694.43,1071.29 2696.68,1086.48 2698.95,1101.36 2701.23,1115.94 2703.53,1130.25 2705.86,1144.29 2708.22,1158.07 2710.61,1171.61 2713.05,1184.93 2715.53,1198.06 2718.08,1211.03 2720.7,1223.89 2723.41,1236.7 2726.26,1249.62 2729.33,1262.9 2732.52,1276.06 2735.54,1287.92 2738.55,1299.19 2741.49,1309.69 2744.39,1319.6 2747.26,1328.92 2750.1,1337.74 2752.91,1346.07 2755.71,1353.98 2758.49,1361.48 2761.26,1368.62 2764.02,1375.42 2766.79,1381.91 2769.55,1388.1 2772.33,1394.02 2775.11,1399.69 2777.91,1405.11 2780.72,1410.3 2783.56,1415.28 2786.41,1420.05 2789.3,1424.63 2792.21,1429.02 2795.16,1433.23 2798.14,1437.26 2801.17,1441.13 2804.24,1444.84 2807.36,1448.4 2810.53,1451.81 2813.77,1455.07 2817.07,1458.19 2820.45,1461.17 2823.91,1464.02 2827.47,1466.75 2831.15,1469.34 2834.97,1471.82 2838.97,1474.19 2843.21,1476.46 2847.78,1478.64 2852.32,1480.55 2856.81,1482.2 2861.27,1483.62 2865.69,1484.81 2870.09,1485.8 2874.47,1486.6 2878.84,1487.21 2883.21,1487.65 2887.57,1487.93 2891.95,1488.05 2896.33,1488.01 2900.74,1487.82 2905.18,1487.48 2909.64,1486.99 2914.15,1486.35 2918.69,1485.56 2923.29,1484.61 2927.94,1483.51 2932.64,1482.25 2937.42,1480.83 2942.26,1479.23 2947.18,1477.46 2952.18,1475.51 2957.27,1473.36 2961.76,1471.34 "/>
<polyline clip-path="url(#clip052)" style="stroke:#009afa; stroke-linecap:round; stroke-linejoin:round; stroke-width:5.6; stroke-opacity:1; fill:none" points="179.135,1476.96 180.462,1478.98 182.633,1482.25 185.417,1486.35 188.481,1490.76 191.987,1495.67 195.81,1500.87 199.963,1506.34 204.393,1511.96 209.084,1517.7 214.004,1523.48 219.133,1529.26 224.45,1534.99 229.938,1540.65 235.582,1546.2 241.369,1551.62 247.29,1556.89 253.337,1562.01 259.503,1566.96 265.777,1571.74 272.14,1576.32 278.564,1580.7 285.014,1584.84 291.457,1588.76 297.865,1592.43 304.223,1595.88 310.52,1599.09 316.75,1602.1 322.91,1604.9 329.001,1607.52 335.024,1609.96 340.982,1612.24 346.876,1614.36 352.709,1616.35 358.485,1618.19 364.207,1619.92 369.877,1621.52 375.498,1623.01 381.072,1624.4 386.601,1625.69 392.087,1626.88 397.532,1627.99 402.937,1629 408.303,1629.93 413.631,1630.79 418.924,1631.56 424.182,1632.26 429.406,1632.89 434.598,1633.45 439.759,1633.94 444.891,1634.36 449.995,1634.71 455.073,1635 460.128,1635.23 465.162,1635.39 470.178,1635.49 475.18,1635.52 480.172,1635.48 485.157,1635.38 490.142,1635.21 495.13,1634.96 500.125,1634.65 505.128,1634.25 510.135,1633.78 515.129,1633.22 520.085,1632.58 524.974,1631.86 529.774,1631.06 534.472,1630.19 539.061,1629.24 543.541,1628.23 547.911,1627.14 552.175,1625.99 556.338,1624.77 560.405,1623.48 564.38,1622.13 568.27,1620.7 572.079,1619.2 575.813,1617.63 579.476,1615.99 583.074,1614.27 586.609,1612.47 590.087,1610.59 593.512,1608.62 596.887,1606.57 600.216,1604.42 603.501,1602.18 606.746,1599.84 609.954,1597.39 613.128,1594.84 616.27,1592.17 619.383,1589.37 622.469,1586.45 625.532,1583.39 628.573,1580.2 631.595,1576.85 634.601,1573.34 637.593,1569.66 640.573,1565.81 643.545,1561.76 646.51,1557.5 649.473,1553.03 652.435,1548.32 655.402,1543.36 658.377,1538.12 661.363,1532.59 664.365,1526.72 667.391,1520.5 670.447,1513.89 673.541,1506.82 676.684,1499.25 679.894,1491.1 683.19,1482.26 686.6,1472.58 690.119,1462.01 693.62,1450.87 697.041,1439.37 700.385,1427.5 703.648,1415.31 706.832,1402.82 709.941,1390.03 712.98,1376.95 715.952,1363.61 718.864,1349.99 721.72,1336.11 724.526,1321.96 727.286,1307.55 730.006,1292.87 732.69,1277.93 735.343,1262.74 737.968,1247.28 740.568,1231.57 743.148,1215.62 745.71,1199.43 748.255,1183.03 750.786,1166.42 753.304,1149.64 755.81,1132.7 758.305,1115.64 760.79,1098.49 763.266,1081.28 765.735,1064.03 768.199,1046.77 770.661,1029.52 773.125,1012.31 775.595,995.134 778.078,978.012 780.579,960.945 783.11,943.923 785.681,926.928 788.311,909.916 791.018,892.857 793.793,875.914 796.543,859.714 799.234,844.495 801.868,830.259 804.444,817.004 806.967,804.701 809.441,793.32 811.872,782.826 814.263,773.186 816.621,764.366 818.949,756.337 821.25,749.072 823.53,742.544 825.792,736.73 828.039,731.61 830.273,727.166 832.498,723.379 834.718,720.234 836.934,717.718 839.148,715.816 841.365,714.518 843.585,713.813 845.813,713.693 848.049,714.149 850.298,715.175 852.56,716.765 854.842,718.917 857.144,721.626 859.472,724.896 861.829,728.726 864.221,733.126 866.654,738.104 869.134,743.677 871.674,749.876 874.285,756.737 876.992,764.339 879.832,772.812 882.887,782.451 886.086,793.077 889.106,803.563 892.118,814.412 895.059,825.346 897.969,836.46 900.837,847.667 903.677,858.983 906.492,870.38 909.287,881.855 912.068,893.397 914.839,905.006 917.604,916.675 920.369,928.402 923.136,940.185 925.909,952.021 928.692,963.909 931.489,975.849 934.302,987.841 937.135,999.88 939.991,1011.97 942.874,1024.1 945.786,1036.29 948.731,1048.52 951.713,1060.81 954.736,1073.14 957.802,1085.53 960.919,1097.98 964.089,1110.49 967.32,1123.06 970.617,1135.72 973.99,1148.47 977.448,1161.32 981.004,1174.31 984.674,1187.46 988.484,1200.84 992.473,1214.54 996.703,1228.73 1001.25,1243.6 1005.8,1258.06 1010.29,1271.92 1014.75,1285.3 1019.18,1298.19 1023.58,1310.64 1027.96,1322.66 1032.33,1334.29 1036.7,1345.55 1041.06,1356.47 1045.44,1367.06 1049.82,1377.35 1054.23,1387.35 1058.66,1397.08 1063.13,1406.56 1067.63,1415.8 1072.17,1424.8 1076.76,1433.58 1081.41,1442.15 1086.11,1450.52 1090.88,1458.69 1095.72,1466.66 1100.63,1474.45 1105.63,1482.06 1110.71,1489.49 1115.89,1496.74 1121.15,1503.81 1126.52,1510.71 1131.99,1517.43 1137.55,1523.97 1143.22,1530.31 1148.98,1536.47 1154.84,1542.42 1160.79,1548.18 1166.84,1553.74 1172.98,1559.09 1179.21,1564.25 1185.53,1569.21 1191.94,1573.95 1198.4,1578.49 1204.9,1582.79 1211.39,1586.85 1217.85,1590.66 1224.26,1594.23 1230.61,1597.57 1236.89,1600.68 1243.1,1603.59 1249.24,1606.3 1255.3,1608.82 1261.29,1611.18 1267.22,1613.38 1273.09,1615.43 1278.9,1617.34 1284.65,1619.12 1290.34,1620.78 1295.99,1622.33 1301.59,1623.76 1307.14,1625.1 1312.64,1626.34 1318.11,1627.48 1323.53,1628.54 1328.92,1629.51 1334.26,1630.4 1339.57,1631.21 1344.85,1631.94 1350.09,1632.6 1355.29,1633.19 1360.47,1633.72 1365.62,1634.17 1370.73,1634.56 1375.82,1634.88 1380.89,1635.13 1385.93,1635.32 1390.96,1635.45 1395.96,1635.51 1400.96,1635.51 1405.95,1635.44 1410.93,1635.3 1415.92,1635.09 1420.91,1634.8 1425.91,1634.45 1430.92,1634.01 1435.92,1633.49 1440.9,1632.89 1445.82,1632.2 1450.66,1631.44 1455.41,1630.6 1460.05,1629.69 1464.58,1628.71 1469,1627.66 1473.32,1626.54 1477.53,1625.35 1481.64,1624.09 1485.65,1622.77 1489.58,1621.38 1493.43,1619.91 1497.2,1618.38 1500.89,1616.77 1504.52,1615.09 1508.09,1613.32 1511.59,1611.48 1515.04,1609.56 1518.44,1607.54 1521.79,1605.44 1525.09,1603.25 1528.36,1600.95 1531.58,1598.55 1534.77,1596.05 1537.93,1593.43 1541.05,1590.7 1544.15,1587.84 1547.22,1584.84 1550.27,1581.71 1553.31,1578.44 1556.32,1575.01 1559.32,1571.41 1562.3,1567.64 1565.28,1563.68 1568.24,1559.53 1571.21,1555.16 1574.17,1550.56 1577.13,1545.72 1580.1,1540.62 1583.08,1535.22 1586.08,1529.52 1589.09,1523.47 1592.13,1517.04 1595.21,1510.2 1598.33,1502.87 1601.5,1495.01 1604.75,1486.5 1608.11,1477.24 1611.58,1467.08 1615.11,1456.15 1618.57,1444.83 1621.95,1433.12 1625.25,1421.08 1628.47,1408.73 1631.61,1396.08 1634.68,1383.14 1637.69,1369.92 1640.63,1356.43 1643.51,1342.67 1646.34,1328.64 1649.12,1314.36 1651.86,1299.8 1654.56,1284.99 1657.22,1269.92 1659.86,1254.58 1662.47,1238.99 1665.06,1223.15 1667.63,1207.07 1670.18,1190.77 1672.72,1174.25 1675.25,1157.55 1677.76,1140.69 1680.26,1123.69 1682.75,1106.58 1685.23,1089.39 1687.7,1072.15 1690.16,1054.9 1692.63,1037.64 1695.09,1020.4 1697.56,1003.21 1700.03,986.058 1702.53,968.963 1705.04,951.921 1707.59,934.912 1710.19,917.914 1712.86,900.87 1715.61,883.815 1718.39,867.188 1721.1,851.514 1723.77,836.811 1726.37,823.101 1728.92,810.355 1731.41,798.546 1733.86,787.641 1736.27,777.605 1738.64,768.405 1740.98,760.009 1743.3,752.389 1745.59,745.519 1747.86,739.373 1750.11,733.931 1752.35,729.171 1754.58,725.077 1756.8,721.633 1759.02,718.822 1761.23,716.633 1763.45,715.053 1765.67,714.071 1767.89,713.677 1770.12,713.864 1772.36,714.622 1774.62,715.948 1776.89,717.836 1779.18,720.284 1781.5,723.29 1783.84,726.856 1786.22,730.987 1788.63,735.691 1791.09,740.982 1793.6,746.886 1796.17,753.43 1798.83,760.675 1801.61,768.717 1804.54,777.756 1807.74,788.127 1810.82,798.595 1813.84,809.313 1816.81,820.19 1819.73,831.232 1822.62,842.394 1825.47,853.664 1828.3,865.022 1831.1,876.462 1833.89,887.973 1836.66,899.552 1839.43,911.193 1842.2,922.893 1844.96,934.649 1847.73,946.461 1850.51,958.324 1853.3,970.241 1856.1,982.206 1858.93,994.222 1861.77,1006.29 1864.64,1018.4 1867.54,1030.56 1870.47,1042.77 1873.43,1055.03 1876.43,1067.34 1879.48,1079.7 1882.57,1092.12 1885.72,1104.6 1888.92,1117.15 1892.18,1129.76 1895.52,1142.46 1898.94,1155.26 1902.44,1168.18 1906.06,1181.25 1909.8,1194.52 1913.7,1208.05 1917.8,1221.99 1922.2,1236.53 1926.82,1251.39 1931.3,1265.44 1935.79,1279.08 1940.22,1292.18 1944.64,1304.84 1949.03,1317.05 1953.41,1328.87 1957.77,1340.3 1962.14,1351.37 1966.5,1362.12 1970.88,1372.55 1975.28,1382.68 1979.7,1392.54 1984.15,1402.14 1988.63,1411.48 1993.15,1420.6 1997.72,1429.48 2002.34,1438.15 2007.02,1446.61 2011.76,1454.87 2016.56,1462.94 2021.44,1470.81 2026.4,1478.51 2031.44,1486.02 2036.57,1493.35 2041.79,1500.51 2047.11,1507.49 2052.53,1514.3 2058.05,1520.92 2063.67,1527.35 2069.38,1533.6 2075.2,1539.65 2081.11,1545.5 2087.11,1551.15 2093.21,1556.6 2099.4,1561.85 2105.68,1566.91 2112.05,1571.75 2118.49,1576.39 2124.97,1580.8 2131.47,1584.97 2137.95,1588.9 2144.39,1592.58 2150.77,1596.03 2157.08,1599.25 2163.32,1602.25 2169.49,1605.05 2175.58,1607.66 2181.61,1610.09 2187.57,1612.36 2193.47,1614.48 2199.3,1616.46 2205.08,1618.3 2210.8,1620.02 2216.47,1621.61 2222.09,1623.1 2227.66,1624.48 2233.18,1625.77 2238.67,1626.95 2244.11,1628.05 2249.51,1629.06 2254.88,1629.99 2260.21,1630.84 2265.5,1631.61 2270.75,1632.3 2275.97,1632.93 2281.16,1633.48 2286.32,1633.96 2291.45,1634.38 2296.56,1634.73 2301.63,1635.02 2306.69,1635.24 2311.72,1635.4 2316.73,1635.49 2321.74,1635.52 2326.73,1635.48 2331.71,1635.37 2336.7,1635.19 2341.69,1634.95 2346.68,1634.63 2351.69,1634.23 2356.69,1633.74 2361.68,1633.18 2366.64,1632.54 2371.52,1631.81 2376.31,1631.01 2381.01,1630.13 2385.59,1629.18 2390.06,1628.16 2394.42,1627.07 2398.68,1625.92 2402.84,1624.69 2406.9,1623.4 2410.87,1622.04 2414.76,1620.61 2418.56,1619.11 2422.29,1617.53 2425.95,1615.89 2429.54,1614.16 2433.07,1612.36 2436.55,1610.47 2439.97,1608.5 2443.34,1606.44 2446.67,1604.29 2449.95,1602.04 2453.19,1599.69 2456.4,1597.24 2459.57,1594.68 2462.71,1592 2465.82,1589.2 2468.91,1586.27 2471.97,1583.2 2475.01,1580 2478.03,1576.64 2481.03,1573.12 2484.03,1569.43 2487.01,1565.56 2489.98,1561.5 2492.94,1557.24 2495.9,1552.75 2498.87,1548.03 2501.83,1543.05 2504.81,1537.79 2507.8,1532.24 2510.8,1526.36 2513.83,1520.11 2516.88,1513.47 2519.98,1506.38 2523.13,1498.78 2526.34,1490.58 2529.65,1481.69 2533.06,1471.96 2536.59,1461.34 2540.08,1450.18 2543.5,1438.65 2546.84,1426.76 2550.1,1414.56 2553.27,1402.04 2556.38,1389.23 2559.41,1376.14 2562.38,1362.78 2565.29,1349.15 2568.14,1335.25 2570.95,1321.08 2573.7,1306.66 2576.42,1291.96 2579.1,1277.01 2581.75,1261.8 2584.38,1246.33 2586.98,1230.6 2589.56,1214.63 2592.12,1198.43 2594.66,1182.01 2597.19,1165.4 2599.71,1148.6 2602.21,1131.66 2604.71,1114.6 2607.19,1097.45 2609.67,1080.23 2612.14,1062.98 2614.6,1045.73 2617.06,1028.48 2619.52,1011.27 2621.99,994.102 2624.48,976.983 2626.98,959.919 2629.51,942.903 2632.09,925.902 2634.72,908.886 2637.43,891.826 2640.21,874.902 2642.96,858.764 2645.65,843.601 2648.28,829.425 2650.85,816.23 2653.37,803.982 2655.84,792.657 2658.27,782.215 2660.66,772.625 2663.01,763.854 2665.34,755.875 2667.64,748.655 2669.92,742.172 2672.18,736.401 2674.42,731.324 2676.66,726.92 2678.88,723.173 2681.1,720.066 2683.32,717.587 2685.53,715.722 2687.75,714.46 2689.97,713.79 2692.2,713.704 2694.43,714.194 2696.68,715.254 2698.95,716.877 2701.23,719.061 2703.53,721.805 2705.86,725.108 2708.22,728.972 2710.61,733.405 2713.05,738.418 2715.53,744.029 2718.08,750.265 2720.7,757.172 2723.41,764.821 2726.26,773.363 2729.33,783.078 2732.52,793.705 2735.54,804.208 2738.55,815.067 2741.49,826.012 2744.39,837.132 2747.26,848.348 2750.1,859.67 2752.91,871.072 2755.71,882.551 2758.49,894.098 2761.26,905.71 2764.02,917.383 2766.79,929.114 2769.55,940.9 2772.33,952.74 2775.11,964.632 2777.91,976.574 2780.72,988.567 2783.56,1000.61 2786.41,1012.7 2789.3,1024.84 2792.21,1037.03 2795.16,1049.26 2798.14,1061.55 2801.17,1073.89 2804.24,1086.28 2807.36,1098.73 2810.53,1111.24 2813.77,1123.82 2817.07,1136.48 2820.45,1149.23 2823.91,1162.09 2827.47,1175.09 2831.15,1188.25 2834.97,1201.65 2838.97,1215.37 2843.21,1229.6 2847.78,1244.49 2852.32,1258.89 2856.81,1272.73 2861.27,1286.08 2865.69,1298.94 2870.09,1311.36 2874.47,1323.36 2878.84,1334.97 2883.21,1346.2 2887.57,1357.1 2891.95,1367.67 2896.33,1377.95 2900.74,1387.93 2905.18,1397.65 2909.64,1407.12 2914.15,1416.34 2918.69,1425.33 2923.29,1434.1 2927.94,1442.66 2932.64,1451.01 2937.42,1459.16 2942.26,1467.13 2947.18,1474.91 2952.18,1482.51 2957.27,1489.93 2961.76,1496.23 "/>
</svg>
