<?xml version="1.0" encoding="utf-8"?>
<svg xmlns="http://www.w3.org/2000/svg" xmlns:xlink="http://www.w3.org/1999/xlink" width="768" height="480" viewBox="0 0 3072 1920">
<defs>
  <clipPath id="clip110">
    <rect x="0" y="0" width="3072" height="1920"/>
  </clipPath>
</defs>
<path clip-path="url(#clip110)" d="M0 1920 L3072 1920 L3072 0 L0 0  Z" fill="#ffffff" fill-rule="evenodd" fill-opacity="1"/>
<defs>
  <clipPath id="clip111">
    <rect x="614" y="0" width="2151" height="1920"/>
  </clipPath>
</defs>
<path clip-path="url(#clip110)" d="M214.411 1678.07 L2961.76 1678.07 L2961.76 174.584 L214.411 174.584  Z" fill="#ffffff" fill-rule="evenodd" fill-opacity="1"/>
<defs>
  <clipPath id="clip112">
    <rect x="214" y="174" width="2748" height="1504"/>
  </clipPath>
</defs>
<polyline clip-path="url(#clip112)" style="stroke:#000000; stroke-linecap:round; stroke-linejoin:round; stroke-width:2.8; stroke-opacity:0.4; fill:none" points="214.411,1678.07 214.411,174.584 "/>
<polyline clip-path="url(#clip112)" style="stroke:#000000; stroke-linecap:round; stroke-linejoin:round; stroke-width:2.8; stroke-opacity:0.4; fill:none" points="763.882,1678.07 763.882,174.584 "/>
<polyline clip-path="url(#clip112)" style="stroke:#000000; stroke-linecap:round; stroke-linejoin:round; stroke-width:2.8; stroke-opacity:0.4; fill:none" points="1313.35,1678.07 1313.35,174.584 "/>
<polyline clip-path="url(#clip112)" style="stroke:#000000; stroke-linecap:round; stroke-linejoin:round; stroke-width:2.8; stroke-opacity:0.4; fill:none" points="1862.82,1678.07 1862.82,174.584 "/>
<polyline clip-path="url(#clip112)" style="stroke:#000000; stroke-linecap:round; stroke-linejoin:round; stroke-width:2.8; stroke-opacity:0.4; fill:none" points="2412.29,1678.07 2412.29,174.584 "/>
<polyline clip-path="url(#clip112)" style="stroke:#000000; stroke-linecap:round; stroke-linejoin:round; stroke-width:2.8; stroke-opacity:0.4; fill:none" points="2961.76,1678.07 2961.76,174.584 "/>
<polyline clip-path="url(#clip112)" style="stroke:#000000; stroke-linecap:round; stroke-linejoin:round; stroke-width:2; stroke-opacity:0.06; fill:none" points="324.305,1678.07 324.305,174.584 "/>
<polyline clip-path="url(#clip112)" style="stroke:#000000; stroke-linecap:round; stroke-linejoin:round; stroke-width:2; stroke-opacity:0.06; fill:none" points="434.199,1678.07 434.199,174.584 "/>
<polyline clip-path="url(#clip112)" style="stroke:#000000; stroke-linecap:round; stroke-linejoin:round; stroke-width:2; stroke-opacity:0.06; fill:none" points="544.094,1678.07 544.094,174.584 "/>
<polyline clip-path="url(#clip112)" style="stroke:#000000; stroke-linecap:round; stroke-linejoin:round; stroke-width:2; stroke-opacity:0.06; fill:none" points="653.988,1678.07 653.988,174.584 "/>
<polyline clip-path="url(#clip112)" style="stroke:#000000; stroke-linecap:round; stroke-linejoin:round; stroke-width:2; stroke-opacity:0.06; fill:none" points="873.776,1678.07 873.776,174.584 "/>
<polyline clip-path="url(#clip112)" style="stroke:#000000; stroke-linecap:round; stroke-linejoin:round; stroke-width:2; stroke-opacity:0.06; fill:none" points="983.67,1678.07 983.67,174.584 "/>
<polyline clip-path="url(#clip112)" style="stroke:#000000; stroke-linecap:round; stroke-linejoin:round; stroke-width:2; stroke-opacity:0.06; fill:none" points="1093.56,1678.07 1093.56,174.584 "/>
<polyline clip-path="url(#clip112)" style="stroke:#000000; stroke-linecap:round; stroke-linejoin:round; stroke-width:2; stroke-opacity:0.06; fill:none" points="1203.46,1678.07 1203.46,174.584 "/>
<polyline clip-path="url(#clip112)" style="stroke:#000000; stroke-linecap:round; stroke-linejoin:round; stroke-width:2; stroke-opacity:0.06; fill:none" points="1423.25,1678.07 1423.25,174.584 "/>
<polyline clip-path="url(#clip112)" style="stroke:#000000; stroke-linecap:round; stroke-linejoin:round; stroke-width:2; stroke-opacity:0.06; fill:none" points="1533.14,1678.07 1533.14,174.584 "/>
<polyline clip-path="url(#clip112)" style="stroke:#000000; stroke-linecap:round; stroke-linejoin:round; stroke-width:2; stroke-opacity:0.06; fill:none" points="1643.03,1678.07 1643.03,174.584 "/>
<polyline clip-path="url(#clip112)" style="stroke:#000000; stroke-linecap:round; stroke-linejoin:round; stroke-width:2; stroke-opacity:0.06; fill:none" points="1752.93,1678.07 1752.93,174.584 "/>
<polyline clip-path="url(#clip112)" style="stroke:#000000; stroke-linecap:round; stroke-linejoin:round; stroke-width:2; stroke-opacity:0.06; fill:none" points="1972.72,1678.07 1972.72,174.584 "/>
<polyline clip-path="url(#clip112)" style="stroke:#000000; stroke-linecap:round; stroke-linejoin:round; stroke-width:2; stroke-opacity:0.06; fill:none" points="2082.61,1678.07 2082.61,174.584 "/>
<polyline clip-path="url(#clip112)" style="stroke:#000000; stroke-linecap:round; stroke-linejoin:round; stroke-width:2; stroke-opacity:0.06; fill:none" points="2192.51,1678.07 2192.51,174.584 "/>
<polyline clip-path="url(#clip112)" style="stroke:#000000; stroke-linecap:round; stroke-linejoin:round; stroke-width:2; stroke-opacity:0.06; fill:none" points="2302.4,1678.07 2302.4,174.584 "/>
<polyline clip-path="url(#clip112)" style="stroke:#000000; stroke-linecap:round; stroke-linejoin:round; stroke-width:2; stroke-opacity:0.06; fill:none" points="2522.19,1678.07 2522.19,174.584 "/>
<polyline clip-path="url(#clip112)" style="stroke:#000000; stroke-linecap:round; stroke-linejoin:round; stroke-width:2; stroke-opacity:0.06; fill:none" points="2632.08,1678.07 2632.08,174.584 "/>
<polyline clip-path="url(#clip112)" style="stroke:#000000; stroke-linecap:round; stroke-linejoin:round; stroke-width:2; stroke-opacity:0.06; fill:none" points="2741.98,1678.07 2741.98,174.584 "/>
<polyline clip-path="url(#clip112)" style="stroke:#000000; stroke-linecap:round; stroke-linejoin:round; stroke-width:2; stroke-opacity:0.06; fill:none" points="2851.87,1678.07 2851.87,174.584 "/>
<polyline clip-path="url(#clip110)" style="stroke:#000000; stroke-linecap:round; stroke-linejoin:round; stroke-width:4; stroke-opacity:1; fill:none" points="214.411,1678.07 2961.76,1678.07 "/>
<polyline clip-path="url(#clip110)" style="stroke:#000000; stroke-linecap:round; stroke-linejoin:round; stroke-width:4; stroke-opacity:1; fill:none" points="214.411,174.584 2961.76,174.584 "/>
<polyline clip-path="url(#clip110)" style="stroke:#000000; stroke-linecap:round; stroke-linejoin:round; stroke-width:4; stroke-opacity:1; fill:none" points="214.411,1678.07 214.411,1659.17 "/>
<polyline clip-path="url(#clip110)" style="stroke:#000000; stroke-linecap:round; stroke-linejoin:round; stroke-width:4; stroke-opacity:1; fill:none" points="763.882,1678.07 763.882,1659.17 "/>
<polyline clip-path="url(#clip110)" style="stroke:#000000; stroke-linecap:round; stroke-linejoin:round; stroke-width:4; stroke-opacity:1; fill:none" points="1313.35,1678.07 1313.35,1659.17 "/>
<polyline clip-path="url(#clip110)" style="stroke:#000000; stroke-linecap:round; stroke-linejoin:round; stroke-width:4; stroke-opacity:1; fill:none" points="1862.82,1678.07 1862.82,1659.17 "/>
<polyline clip-path="url(#clip110)" style="stroke:#000000; stroke-linecap:round; stroke-linejoin:round; stroke-width:4; stroke-opacity:1; fill:none" points="2412.29,1678.07 2412.29,1659.17 "/>
<polyline clip-path="url(#clip110)" style="stroke:#000000; stroke-linecap:round; stroke-linejoin:round; stroke-width:4; stroke-opacity:1; fill:none" points="2961.76,1678.07 2961.76,1659.17 "/>
<polyline clip-path="url(#clip110)" style="stroke:#000000; stroke-linecap:round; stroke-linejoin:round; stroke-width:4; stroke-opacity:1; fill:none" points="324.305,1678.07 324.305,1668.62 "/>
<polyline clip-path="url(#clip110)" style="stroke:#000000; stroke-linecap:round; stroke-linejoin:round; stroke-width:4; stroke-opacity:1; fill:none" points="434.199,1678.07 434.199,1668.62 "/>
<polyline clip-path="url(#clip110)" style="stroke:#000000; stroke-linecap:round; stroke-linejoin:round; stroke-width:4; stroke-opacity:1; fill:none" points="544.094,1678.07 544.094,1668.62 "/>
<polyline clip-path="url(#clip110)" style="stroke:#000000; stroke-linecap:round; stroke-linejoin:round; stroke-width:4; stroke-opacity:1; fill:none" points="653.988,1678.07 653.988,1668.62 "/>
<polyline clip-path="url(#clip110)" style="stroke:#000000; stroke-linecap:round; stroke-linejoin:round; stroke-width:4; stroke-opacity:1; fill:none" points="873.776,1678.07 873.776,1668.62 "/>
<polyline clip-path="url(#clip110)" style="stroke:#000000; stroke-linecap:round; stroke-linejoin:round; stroke-width:4; stroke-opacity:1; fill:none" points="983.67,1678.07 983.67,1668.62 "/>
<polyline clip-path="url(#clip110)" style="stroke:#000000; stroke-linecap:round; stroke-linejoin:round; stroke-width:4; stroke-opacity:1; fill:none" points="1093.56,1678.07 1093.56,1668.62 "/>
<polyline clip-path="url(#clip110)" style="stroke:#000000; stroke-linecap:round; stroke-linejoin:round; stroke-width:4; stroke-opacity:1; fill:none" points="1203.46,1678.07 1203.46,1668.62 "/>
<polyline clip-path="url(#clip110)" style="stroke:#000000; stroke-linecap:round; stroke-linejoin:round; stroke-width:4; stroke-opacity:1; fill:none" points="1423.25,1678.07 1423.25,1668.62 "/>
<polyline clip-path="url(#clip110)" style="stroke:#000000; stroke-linecap:round; stroke-linejoin:round; stroke-width:4; stroke-opacity:1; fill:none" points="1533.14,1678.07 1533.14,1668.62 "/>
<polyline clip-path="url(#clip110)" style="stroke:#000000; stroke-linecap:round; stroke-linejoin:round; stroke-width:4; stroke-opacity:1; fill:none" points="1643.03,1678.07 1643.03,1668.62 "/>
<polyline clip-path="url(#clip110)" style="stroke:#000000; stroke-linecap:round; stroke-linejoin:round; stroke-width:4; stroke-opacity:1; fill:none" points="1752.93,1678.07 1752.93,1668.62 "/>
<polyline clip-path="url(#clip110)" style="stroke:#000000; stroke-linecap:round; stroke-linejoin:round; stroke-width:4; stroke-opacity:1; fill:none" points="1972.72,1678.07 1972.72,1668.62 "/>
<polyline clip-path="url(#clip110)" style="stroke:#000000; stroke-linecap:round; stroke-linejoin:round; stroke-width:4; stroke-opacity:1; fill:none" points="2082.61,1678.07 2082.61,1668.62 "/>
<polyline clip-path="url(#clip110)" style="stroke:#000000; stroke-linecap:round; stroke-linejoin:round; stroke-width:4; stroke-opacity:1; fill:none" points="2192.51,1678.07 2192.51,1668.62 "/>
<polyline clip-path="url(#clip110)" style="stroke:#000000; stroke-linecap:round; stroke-linejoin:round; stroke-width:4; stroke-opacity:1; fill:none" points="2302.4,1678.07 2302.4,1668.62 "/>
<polyline clip-path="url(#clip110)" style="stroke:#000000; stroke-linecap:round; stroke-linejoin:round; stroke-width:4; stroke-opacity:1; fill:none" points="2522.19,1678.07 2522.19,1668.62 "/>
<polyline clip-path="url(#clip110)" style="stroke:#000000; stroke-linecap:round; stroke-linejoin:round; stroke-width:4; stroke-opacity:1; fill:none" points="2632.08,1678.07 2632.08,1668.62 "/>
<polyline clip-path="url(#clip110)" style="stroke:#000000; stroke-linecap:round; stroke-linejoin:round; stroke-width:4; stroke-opacity:1; fill:none" points="2741.98,1678.07 2741.98,1668.62 "/>
<polyline clip-path="url(#clip110)" style="stroke:#000000; stroke-linecap:round; stroke-linejoin:round; stroke-width:4; stroke-opacity:1; fill:none" points="2851.87,1678.07 2851.87,1668.62 "/>
<path clip-path="url(#clip110)" d="M203.764 1729.66 Q203.764 1722.23 205.642 1718.18 Q208.26 1712.15 214.436 1712.15 Q215.745 1712.15 217.104 1712.52 Q218.487 1712.86 220.217 1714.22 Q221.971 1715.58 223.033 1717.81 Q225.058 1722.1 225.058 1729.66 Q225.058 1737.05 223.181 1741.08 Q220.439 1746.96 214.387 1746.96 Q212.114 1746.96 209.792 1745.79 Q207.494 1744.63 206.037 1741.84 Q203.764 1737.67 203.764 1729.66 M207.964 1729.05 Q207.964 1736.68 208.507 1739.72 Q209.125 1743 210.805 1744.44 Q212.509 1745.84 214.387 1745.84 Q216.412 1745.84 218.092 1744.34 Q219.797 1742.81 220.315 1739.52 Q220.884 1736.28 220.859 1729.05 Q220.859 1722 220.365 1719.19 Q219.698 1715.9 217.919 1714.59 Q216.165 1713.26 214.387 1713.26 Q213.72 1713.26 213.003 1713.46 Q212.312 1713.66 211.299 1714.22 Q210.286 1714.79 209.495 1716.2 Q208.73 1717.61 208.359 1719.73 Q207.964 1722.47 207.964 1729.05 Z" fill="#000000" fill-rule="nonzero" fill-opacity="1" /><path clip-path="url(#clip110)" d="M753.778 1745.84 Q753.778 1744.93 753.852 1744.66 Q753.951 1744.39 754.346 1743.97 L764.055 1733.15 Q769.366 1727.17 769.366 1721.96 Q769.366 1718.57 767.587 1716.15 Q765.833 1713.73 762.597 1713.73 Q760.374 1713.73 758.496 1715.09 Q756.619 1716.45 755.754 1718.87 Q755.903 1718.82 756.421 1718.82 Q757.681 1718.82 758.373 1719.61 Q759.089 1720.4 759.089 1721.46 Q759.089 1722.82 758.2 1723.49 Q757.335 1724.13 756.471 1724.13 Q756.125 1724.13 755.656 1724.06 Q755.211 1723.98 754.495 1723.29 Q753.778 1722.57 753.778 1721.31 Q753.778 1717.78 756.446 1714.96 Q759.139 1712.15 763.24 1712.15 Q767.884 1712.15 770.922 1714.92 Q773.985 1717.66 773.985 1721.96 Q773.985 1723.46 773.516 1724.85 Q773.071 1726.2 772.454 1727.27 Q771.861 1728.33 770.231 1730.03 Q768.6 1731.74 767.291 1732.95 Q765.982 1734.16 763.042 1736.73 L757.681 1741.94 L766.797 1741.94 Q771.243 1741.94 771.589 1741.55 Q772.083 1740.83 772.701 1737.05 L773.985 1737.05 L772.553 1745.84 L753.778 1745.84 Z" fill="#000000" fill-rule="nonzero" fill-opacity="1" /><path clip-path="url(#clip110)" d="M1302.14 1737.49 L1302.14 1735.94 L1317.68 1712.2 Q1318.07 1711.58 1318.69 1711.6 Q1319.26 1711.6 1319.38 1711.83 Q1319.5 1712.05 1319.5 1712.91 L1319.5 1735.94 L1324.57 1735.94 L1324.57 1737.49 L1319.5 1737.49 L1319.5 1741.89 Q1319.5 1743.35 1320.1 1743.82 Q1320.71 1744.29 1323.33 1744.29 L1324.39 1744.29 L1324.39 1745.84 Q1322.32 1745.7 1317.53 1745.7 Q1312.76 1745.7 1310.68 1745.84 L1310.68 1744.29 L1311.75 1744.29 Q1314.37 1744.29 1314.98 1743.84 Q1315.6 1743.37 1315.6 1741.89 L1315.6 1737.49 L1302.14 1737.49 M1303.57 1735.94 L1315.9 1735.94 L1315.9 1717.06 L1303.57 1735.94 Z" fill="#000000" fill-rule="nonzero" fill-opacity="1" /><path clip-path="url(#clip110)" d="M1852.32 1729.86 Q1852.32 1721.91 1856.38 1717.04 Q1860.43 1712.15 1865.64 1712.15 Q1868.68 1712.15 1870.36 1713.7 Q1872.06 1715.24 1872.06 1717.61 Q1872.06 1718.92 1871.3 1719.49 Q1870.53 1720.05 1869.74 1720.05 Q1868.83 1720.05 1868.11 1719.44 Q1867.39 1718.82 1867.39 1717.71 Q1867.39 1715.43 1870.18 1715.43 Q1868.88 1713.41 1865.74 1713.41 Q1864.77 1713.41 1863.79 1713.7 Q1862.8 1713.98 1861.51 1714.92 Q1860.23 1715.85 1859.24 1717.34 Q1858.25 1718.82 1857.56 1721.61 Q1856.87 1724.4 1856.87 1728.03 L1856.87 1729.24 Q1858.94 1724.23 1863.19 1724.25 Q1867.44 1724.25 1870.38 1727.49 Q1873.32 1730.73 1873.32 1735.52 Q1873.32 1740.43 1870.26 1743.69 Q1867.2 1746.96 1862.9 1746.96 Q1860.97 1746.96 1859.22 1746.14 Q1857.49 1745.35 1855.86 1743.52 Q1854.25 1741.69 1853.29 1738.19 Q1852.32 1734.68 1852.32 1729.86 M1856.97 1734.41 Q1856.97 1739.37 1857.88 1741.74 Q1858.03 1742.14 1858.35 1742.68 Q1858.7 1743.23 1859.27 1743.94 Q1859.86 1744.63 1860.82 1745.1 Q1861.79 1745.55 1862.9 1745.55 Q1866.28 1745.55 1867.91 1742.26 Q1868.78 1740.43 1868.78 1735.47 Q1868.78 1730.4 1867.86 1728.55 Q1866.31 1725.41 1863.14 1725.41 Q1861.02 1725.41 1859.54 1726.87 Q1858.08 1728.33 1857.51 1730.28 Q1856.97 1732.23 1856.97 1734.41 Z" fill="#000000" fill-rule="nonzero" fill-opacity="1" /><path clip-path="url(#clip110)" d="M2401.79 1738.21 Q2401.79 1732.55 2409.08 1728.9 Q2405.94 1726.77 2405.38 1726.16 Q2403.15 1723.68 2403.15 1720.6 Q2403.15 1717.06 2405.82 1714.62 Q2408.51 1712.15 2412.32 1712.15 Q2415.95 1712.15 2418.69 1714.25 Q2421.43 1716.35 2421.43 1719.68 Q2421.43 1724.38 2415.31 1727.54 Q2419.36 1730.06 2420.32 1731.12 Q2422.79 1733.86 2422.79 1737.35 Q2422.79 1741.4 2419.68 1744.19 Q2416.57 1746.96 2412.27 1746.96 Q2408.07 1746.96 2404.93 1744.51 Q2401.79 1742.06 2401.79 1738.21 M2404.31 1738.21 Q2404.31 1741.35 2406.66 1743.45 Q2409.03 1745.55 2412.32 1745.55 Q2415.5 1745.55 2417.88 1743.72 Q2420.27 1741.89 2420.27 1739.17 Q2420.27 1738.11 2419.9 1737.2 Q2419.56 1736.28 2418.84 1735.57 Q2418.15 1734.83 2417.7 1734.5 Q2417.28 1734.16 2416.47 1733.59 L2410.24 1729.66 Q2404.31 1732.95 2404.31 1738.21 M2405.38 1718.62 Q2405.38 1721.04 2407.92 1722.72 L2414.2 1726.77 Q2419.21 1723.83 2419.21 1719.68 Q2419.21 1716.99 2417.16 1715.21 Q2415.11 1713.41 2412.27 1713.41 Q2409.48 1713.41 2407.43 1714.89 Q2405.38 1716.35 2405.38 1718.62 Z" fill="#000000" fill-rule="nonzero" fill-opacity="1" /><path clip-path="url(#clip110)" d="M2939.73 1716.97 L2939.73 1715.38 Q2945.81 1715.38 2948.94 1712.15 Q2949.81 1712.15 2949.96 1712.35 Q2950.1 1712.54 2950.1 1713.46 L2950.1 1741.84 Q2950.1 1743.35 2950.84 1743.82 Q2951.59 1744.29 2954.82 1744.29 L2956.43 1744.29 L2956.43 1745.84 Q2954.65 1745.7 2948.23 1745.7 Q2941.8 1745.7 2940.05 1745.84 L2940.05 1744.29 L2941.66 1744.29 Q2944.84 1744.29 2945.61 1743.84 Q2946.37 1743.37 2946.37 1741.84 L2946.37 1715.63 Q2943.73 1716.97 2939.73 1716.97 Z" fill="#000000" fill-rule="nonzero" fill-opacity="1" /><path clip-path="url(#clip110)" d="M2962.5 1729.66 Q2962.5 1722.23 2964.38 1718.18 Q2967 1712.15 2973.18 1712.15 Q2974.49 1712.15 2975.84 1712.52 Q2977.23 1712.86 2978.96 1714.22 Q2980.71 1715.58 2981.77 1717.81 Q2983.8 1722.1 2983.8 1729.66 Q2983.8 1737.05 2981.92 1741.08 Q2979.18 1746.96 2973.13 1746.96 Q2970.85 1746.96 2968.53 1745.79 Q2966.24 1744.63 2964.78 1741.84 Q2962.5 1737.67 2962.5 1729.66 M2966.7 1729.05 Q2966.7 1736.68 2967.25 1739.72 Q2967.87 1743 2969.55 1744.44 Q2971.25 1745.84 2973.13 1745.84 Q2975.15 1745.84 2976.83 1744.34 Q2978.54 1742.81 2979.06 1739.52 Q2979.62 1736.28 2979.6 1729.05 Q2979.6 1722 2979.11 1719.19 Q2978.44 1715.9 2976.66 1714.59 Q2974.91 1713.26 2973.13 1713.26 Q2972.46 1713.26 2971.74 1713.46 Q2971.05 1713.66 2970.04 1714.22 Q2969.03 1714.79 2968.24 1716.2 Q2967.47 1717.61 2967.1 1719.73 Q2966.7 1722.47 2966.7 1729.05 Z" fill="#000000" fill-rule="nonzero" fill-opacity="1" /><path clip-path="url(#clip110)" d="M1576.21 1807.85 L1576.21 1806.18 Q1579.69 1806.03 1581.99 1803.59 Q1584.33 1801.1 1585.1 1798.07 Q1585.92 1795.03 1585.99 1791.51 L1587.88 1791.51 L1587.88 1805.48 L1598.74 1805.48 L1598.74 1807.85 L1587.88 1807.85 L1587.88 1828.93 Q1587.88 1837.12 1593 1837.12 Q1595.18 1837.12 1596.63 1834.9 Q1598.07 1832.64 1598.07 1828.64 L1598.07 1824.45 L1599.96 1824.45 L1599.96 1828.78 Q1599.96 1832.9 1598.07 1835.97 Q1596.18 1839.05 1592.44 1839.05 Q1591.07 1839.05 1589.7 1838.68 Q1588.37 1838.34 1586.59 1837.45 Q1584.85 1836.53 1583.73 1834.3 Q1582.66 1832.04 1582.66 1828.78 L1582.66 1807.85 L1576.21 1807.85 Z" fill="#000000" fill-rule="nonzero" fill-opacity="1" /><polyline clip-path="url(#clip112)" style="stroke:#000000; stroke-linecap:round; stroke-linejoin:round; stroke-width:2.8; stroke-opacity:0.4; fill:none" points="214.411,1635.52 2961.76,1635.52 "/>
<polyline clip-path="url(#clip112)" style="stroke:#000000; stroke-linecap:round; stroke-linejoin:round; stroke-width:2.8; stroke-opacity:0.4; fill:none" points="214.411,1167.85 2961.76,1167.85 "/>
<polyline clip-path="url(#clip112)" style="stroke:#000000; stroke-linecap:round; stroke-linejoin:round; stroke-width:2.8; stroke-opacity:0.4; fill:none" points="214.411,700.174 2961.76,700.174 "/>
<polyline clip-path="url(#clip112)" style="stroke:#000000; stroke-linecap:round; stroke-linejoin:round; stroke-width:2.8; stroke-opacity:0.4; fill:none" points="214.411,232.503 2961.76,232.503 "/>
<polyline clip-path="url(#clip112)" style="stroke:#000000; stroke-linecap:round; stroke-linejoin:round; stroke-width:2; stroke-opacity:0.06; fill:none" points="214.411,1541.98 2961.76,1541.98 "/>
<polyline clip-path="url(#clip112)" style="stroke:#000000; stroke-linecap:round; stroke-linejoin:round; stroke-width:2; stroke-opacity:0.06; fill:none" points="214.411,1448.45 2961.76,1448.45 "/>
<polyline clip-path="url(#clip112)" style="stroke:#000000; stroke-linecap:round; stroke-linejoin:round; stroke-width:2; stroke-opacity:0.06; fill:none" points="214.411,1354.91 2961.76,1354.91 "/>
<polyline clip-path="url(#clip112)" style="stroke:#000000; stroke-linecap:round; stroke-linejoin:round; stroke-width:2; stroke-opacity:0.06; fill:none" points="214.411,1261.38 2961.76,1261.38 "/>
<polyline clip-path="url(#clip112)" style="stroke:#000000; stroke-linecap:round; stroke-linejoin:round; stroke-width:2; stroke-opacity:0.06; fill:none" points="214.411,1074.31 2961.76,1074.31 "/>
<polyline clip-path="url(#clip112)" style="stroke:#000000; stroke-linecap:round; stroke-linejoin:round; stroke-width:2; stroke-opacity:0.06; fill:none" points="214.411,980.777 2961.76,980.777 "/>
<polyline clip-path="url(#clip112)" style="stroke:#000000; stroke-linecap:round; stroke-linejoin:round; stroke-width:2; stroke-opacity:0.06; fill:none" points="214.411,887.243 2961.76,887.243 "/>
<polyline clip-path="url(#clip112)" style="stroke:#000000; stroke-linecap:round; stroke-linejoin:round; stroke-width:2; stroke-opacity:0.06; fill:none" points="214.411,793.708 2961.76,793.708 "/>
<polyline clip-path="url(#clip112)" style="stroke:#000000; stroke-linecap:round; stroke-linejoin:round; stroke-width:2; stroke-opacity:0.06; fill:none" points="214.411,606.64 2961.76,606.64 "/>
<polyline clip-path="url(#clip112)" style="stroke:#000000; stroke-linecap:round; stroke-linejoin:round; stroke-width:2; stroke-opacity:0.06; fill:none" points="214.411,513.105 2961.76,513.105 "/>
<polyline clip-path="url(#clip112)" style="stroke:#000000; stroke-linecap:round; stroke-linejoin:round; stroke-width:2; stroke-opacity:0.06; fill:none" points="214.411,419.571 2961.76,419.571 "/>
<polyline clip-path="url(#clip112)" style="stroke:#000000; stroke-linecap:round; stroke-linejoin:round; stroke-width:2; stroke-opacity:0.06; fill:none" points="214.411,326.037 2961.76,326.037 "/>
<polyline clip-path="url(#clip110)" style="stroke:#000000; stroke-linecap:round; stroke-linejoin:round; stroke-width:4; stroke-opacity:1; fill:none" points="214.411,1678.07 214.411,174.584 "/>
<polyline clip-path="url(#clip110)" style="stroke:#000000; stroke-linecap:round; stroke-linejoin:round; stroke-width:4; stroke-opacity:1; fill:none" points="2961.76,1678.07 2961.76,174.584 "/>
<polyline clip-path="url(#clip110)" style="stroke:#000000; stroke-linecap:round; stroke-linejoin:round; stroke-width:4; stroke-opacity:1; fill:none" points="214.411,1635.52 233.309,1635.52 "/>
<polyline clip-path="url(#clip110)" style="stroke:#000000; stroke-linecap:round; stroke-linejoin:round; stroke-width:4; stroke-opacity:1; fill:none" points="214.411,1167.85 233.309,1167.85 "/>
<polyline clip-path="url(#clip110)" style="stroke:#000000; stroke-linecap:round; stroke-linejoin:round; stroke-width:4; stroke-opacity:1; fill:none" points="214.411,700.174 233.309,700.174 "/>
<polyline clip-path="url(#clip110)" style="stroke:#000000; stroke-linecap:round; stroke-linejoin:round; stroke-width:4; stroke-opacity:1; fill:none" points="214.411,232.503 233.309,232.503 "/>
<polyline clip-path="url(#clip110)" style="stroke:#000000; stroke-linecap:round; stroke-linejoin:round; stroke-width:4; stroke-opacity:1; fill:none" points="214.411,1541.98 223.86,1541.98 "/>
<polyline clip-path="url(#clip110)" style="stroke:#000000; stroke-linecap:round; stroke-linejoin:round; stroke-width:4; stroke-opacity:1; fill:none" points="214.411,1448.45 223.86,1448.45 "/>
<polyline clip-path="url(#clip110)" style="stroke:#000000; stroke-linecap:round; stroke-linejoin:round; stroke-width:4; stroke-opacity:1; fill:none" points="214.411,1354.91 223.86,1354.91 "/>
<polyline clip-path="url(#clip110)" style="stroke:#000000; stroke-linecap:round; stroke-linejoin:round; stroke-width:4; stroke-opacity:1; fill:none" points="214.411,1261.38 223.86,1261.38 "/>
<polyline clip-path="url(#clip110)" style="stroke:#000000; stroke-linecap:round; stroke-linejoin:round; stroke-width:4; stroke-opacity:1; fill:none" points="214.411,1074.31 223.86,1074.31 "/>
<polyline clip-path="url(#clip110)" style="stroke:#000000; stroke-linecap:round; stroke-linejoin:round; stroke-width:4; stroke-opacity:1; fill:none" points="214.411,980.777 223.86,980.777 "/>
<polyline clip-path="url(#clip110)" style="stroke:#000000; stroke-linecap:round; stroke-linejoin:round; stroke-width:4; stroke-opacity:1; fill:none" points="214.411,887.243 223.86,887.243 "/>
<polyline clip-path="url(#clip110)" style="stroke:#000000; stroke-linecap:round; stroke-linejoin:round; stroke-width:4; stroke-opacity:1; fill:none" points="214.411,793.708 223.86,793.708 "/>
<polyline clip-path="url(#clip110)" style="stroke:#000000; stroke-linecap:round; stroke-linejoin:round; stroke-width:4; stroke-opacity:1; fill:none" points="214.411,606.64 223.86,606.64 "/>
<polyline clip-path="url(#clip110)" style="stroke:#000000; stroke-linecap:round; stroke-linejoin:round; stroke-width:4; stroke-opacity:1; fill:none" points="214.411,513.105 223.86,513.105 "/>
<polyline clip-path="url(#clip110)" style="stroke:#000000; stroke-linecap:round; stroke-linejoin:round; stroke-width:4; stroke-opacity:1; fill:none" points="214.411,419.571 223.86,419.571 "/>
<polyline clip-path="url(#clip110)" style="stroke:#000000; stroke-linecap:round; stroke-linejoin:round; stroke-width:4; stroke-opacity:1; fill:none" points="214.411,326.037 223.86,326.037 "/>
<path clip-path="url(#clip110)" d="M144.023 1639.43 Q144.32 1639.73 144.32 1640.15 Q144.32 1640.57 144.023 1640.87 Q143.727 1641.16 143.307 1641.16 L111.637 1641.16 Q111.217 1641.16 110.921 1640.87 Q110.624 1640.57 110.624 1640.15 Q110.624 1639.73 110.921 1639.43 Q111.217 1639.14 111.637 1639.14 L143.307 1639.14 Q143.727 1639.14 144.023 1639.43 Z" fill="#000000" fill-rule="nonzero" fill-opacity="1" /><path clip-path="url(#clip110)" d="M151.632 1623.92 L151.632 1622.34 Q157.709 1622.34 160.846 1619.1 Q161.711 1619.1 161.859 1619.3 Q162.007 1619.5 162.007 1620.41 L162.007 1648.79 Q162.007 1650.3 162.748 1650.77 Q163.489 1651.24 166.726 1651.24 L168.331 1651.24 L168.331 1652.8 Q166.553 1652.65 160.13 1652.65 Q153.707 1652.65 151.953 1652.8 L151.953 1651.24 L153.559 1651.24 Q156.745 1651.24 157.511 1650.8 Q158.277 1650.33 158.277 1648.79 L158.277 1622.58 Q155.634 1623.92 151.632 1623.92 Z" fill="#000000" fill-rule="nonzero" fill-opacity="1" /><path clip-path="url(#clip110)" d="M147.037 1168.94 Q147.037 1161.51 148.914 1157.46 Q151.533 1151.43 157.709 1151.43 Q159.018 1151.43 160.377 1151.8 Q161.76 1152.15 163.489 1153.51 Q165.243 1154.86 166.306 1157.09 Q168.331 1161.39 168.331 1168.94 Q168.331 1176.33 166.454 1180.36 Q163.712 1186.24 157.659 1186.24 Q155.387 1186.24 153.065 1185.08 Q150.767 1183.91 149.31 1181.12 Q147.037 1176.95 147.037 1168.94 M151.237 1168.33 Q151.237 1175.96 151.78 1179 Q152.398 1182.28 154.077 1183.72 Q155.782 1185.13 157.659 1185.13 Q159.685 1185.13 161.365 1183.62 Q163.069 1182.09 163.588 1178.8 Q164.156 1175.57 164.132 1168.33 Q164.132 1161.29 163.638 1158.47 Q162.971 1155.18 161.192 1153.88 Q159.438 1152.54 157.659 1152.54 Q156.992 1152.54 156.276 1152.74 Q155.584 1152.94 154.572 1153.51 Q153.559 1154.07 152.768 1155.48 Q152.002 1156.89 151.632 1159.01 Q151.237 1161.76 151.237 1168.33 Z" fill="#000000" fill-rule="nonzero" fill-opacity="1" /><path clip-path="url(#clip110)" d="M151.632 688.576 L151.632 686.995 Q157.709 686.995 160.846 683.759 Q161.711 683.759 161.859 683.956 Q162.007 684.154 162.007 685.068 L162.007 713.452 Q162.007 714.959 162.748 715.428 Q163.489 715.898 166.726 715.898 L168.331 715.898 L168.331 717.454 Q166.553 717.306 160.13 717.306 Q153.707 717.306 151.953 717.454 L151.953 715.898 L153.559 715.898 Q156.745 715.898 157.511 715.453 Q158.277 714.984 158.277 713.452 L158.277 687.242 Q155.634 688.576 151.632 688.576 Z" fill="#000000" fill-rule="nonzero" fill-opacity="1" /><path clip-path="url(#clip110)" d="M148.124 249.783 Q148.124 248.869 148.198 248.597 Q148.297 248.325 148.692 247.905 L158.401 237.085 Q163.712 231.107 163.712 225.894 Q163.712 222.51 161.933 220.089 Q160.179 217.668 156.943 217.668 Q154.72 217.668 152.842 219.027 Q150.965 220.386 150.1 222.807 Q150.248 222.757 150.767 222.757 Q152.027 222.757 152.719 223.548 Q153.435 224.338 153.435 225.4 Q153.435 226.759 152.546 227.426 Q151.681 228.068 150.817 228.068 Q150.471 228.068 150.001 227.994 Q149.557 227.92 148.84 227.228 Q148.124 226.512 148.124 225.252 Q148.124 221.72 150.792 218.903 Q153.485 216.087 157.585 216.087 Q162.23 216.087 165.268 218.854 Q168.331 221.596 168.331 225.894 Q168.331 227.401 167.862 228.785 Q167.417 230.143 166.8 231.206 Q166.207 232.268 164.576 233.972 Q162.946 235.677 161.637 236.887 Q160.327 238.098 157.388 240.667 L152.027 245.879 L161.143 245.879 Q165.589 245.879 165.935 245.484 Q166.429 244.768 167.047 240.988 L168.331 240.988 L166.899 249.783 L148.124 249.783 Z" fill="#000000" fill-rule="nonzero" fill-opacity="1" /><path clip-path="url(#clip110)" d="M1251.26 62.208 L1251.26 59.8735 L1253.07 59.8735 Q1257.19 59.8735 1258.11 59.2065 Q1259.08 58.5025 1259.08 56.2792 L1259.08 16.2968 Q1259.08 14.1106 1258.11 13.4436 Q1257.15 12.7395 1253.07 12.7395 L1251.26 12.7395 L1251.26 10.368 L1275.08 10.368 Q1283.35 10.368 1289.09 14.4441 Q1294.87 18.4831 1294.87 24.0413 Q1294.87 28.3026 1291.13 31.6376 Q1287.39 34.9725 1281.61 36.4177 Q1289.13 39.0115 1290.87 45.1997 L1291.83 51.2768 Q1292.13 53.463 1292.31 54.5747 Q1292.54 55.6863 1292.87 57.2056 Q1293.2 58.7248 1293.54 59.4659 Q1293.91 60.17 1294.43 60.9481 Q1294.95 61.6892 1295.61 61.9486 Q1296.32 62.208 1297.24 62.208 Q1298.98 62.208 1300.47 60.6517 Q1301.95 59.0954 1302.24 55.464 Q1302.39 54.2412 1303.17 54.2412 Q1304.13 54.2412 1304.13 55.464 Q1304.13 56.5386 1303.84 57.7985 Q1303.54 59.0213 1302.8 60.4664 Q1302.1 61.9116 1300.54 62.875 Q1298.98 63.8755 1296.95 63.8755 Q1291.02 63.8755 1287.39 60.6887 Q1285.87 59.3177 1285.16 57.5391 Q1284.5 55.7604 1284.38 54.3523 Q1284.27 52.9442 1284.27 49.8316 Q1284.27 45.4221 1283.79 43.4952 Q1283.35 41.5683 1281.38 39.6785 Q1278.72 37.0847 1274.31 37.0847 L1265.6 37.0847 L1265.6 56.2792 Q1265.6 58.4654 1266.52 59.1695 Q1267.49 59.8735 1271.6 59.8735 L1273.42 59.8735 L1273.42 62.208 Q1270.67 61.9857 1262.34 61.9857 Q1254 61.9857 1251.26 62.208 M1265.6 35.4172 L1274.01 35.4172 Q1278.05 35.4172 1280.75 34.4538 Q1283.5 33.4533 1284.79 31.6746 Q1286.09 29.896 1286.57 28.1174 Q1287.05 26.3017 1287.05 24.0413 Q1287.05 21.3733 1286.46 19.3724 Q1285.87 17.3714 1284.57 16.1856 Q1283.27 14.9999 1281.98 14.2588 Q1280.68 13.4806 1278.68 13.1842 Q1276.68 12.8877 1275.31 12.8136 Q1273.93 12.7395 1271.75 12.7395 Q1268.04 12.7395 1267.27 12.8877 Q1266.41 12.9619 1266.08 13.3695 Q1265.75 13.7771 1265.67 14.2588 Q1265.6 14.7034 1265.6 15.778 L1265.6 35.4172 Z" fill="#000000" fill-rule="nonzero" fill-opacity="1" /><path clip-path="url(#clip110)" d="M1306.95 62.208 L1306.95 59.8735 Q1310.99 59.8735 1311.92 59.3918 Q1312.84 58.873 1312.84 56.4274 L1312.84 36.0101 Q1312.84 33.1939 1311.88 32.5269 Q1310.95 31.8599 1307.25 31.8599 L1307.25 29.4884 L1317.85 28.6732 L1317.85 56.5015 Q1317.85 58.7619 1318.66 59.3177 Q1319.48 59.8735 1323.18 59.8735 L1323.18 62.208 Q1315.44 61.9857 1315.29 61.9857 Q1314.25 61.9857 1306.95 62.208 M1310.14 15.4445 Q1310.14 13.9253 1311.29 12.7025 Q1312.47 11.4426 1314.14 11.4426 Q1315.81 11.4426 1316.99 12.5913 Q1318.18 13.703 1318.18 15.4816 Q1318.18 17.2232 1316.99 18.3719 Q1315.81 19.4835 1314.14 19.4835 Q1312.4 19.4835 1311.25 18.2607 Q1310.14 17.0379 1310.14 15.4445 Z" fill="#000000" fill-rule="nonzero" fill-opacity="1" /><path clip-path="url(#clip110)" d="M1327.55 68.2109 Q1327.55 65.7653 1329.41 63.6531 Q1331.3 61.541 1334.56 60.6146 Q1331.22 58.5025 1331.22 53.8706 Q1331.22 50.3133 1333.56 47.5713 Q1330 44.6069 1330 39.7526 Q1330 35.269 1333.56 31.9711 Q1337.11 28.6732 1342.3 28.6732 Q1346.86 28.6732 1350.34 31.4153 Q1353.97 27.858 1358.38 27.8209 Q1360.35 27.8209 1361.27 29.0437 Q1362.24 30.2666 1362.24 31.5635 Q1362.24 32.7122 1361.5 33.268 Q1360.79 33.8238 1360.05 33.8238 Q1359.12 33.8238 1358.46 33.231 Q1357.83 32.601 1357.83 31.6376 Q1357.83 30.0442 1359.05 29.5625 Q1358.83 29.4884 1358.31 29.4884 Q1354.6 29.4884 1351.45 32.4528 Q1354.57 35.3431 1354.57 39.8268 Q1354.57 44.3104 1351.01 47.6083 Q1347.45 50.9062 1342.3 50.9062 Q1338.04 50.9062 1334.78 48.5347 Q1333.48 50.0539 1333.48 52.129 Q1333.48 54.0188 1334.63 55.501 Q1335.78 56.9832 1337.52 57.2056 Q1338.04 57.2797 1343.19 57.2797 Q1346.23 57.2797 1347.9 57.3538 Q1349.56 57.4279 1351.94 57.9467 Q1354.34 58.4284 1356.23 59.3918 Q1361.16 62.1339 1361.2 68.0627 Q1361.2 72.3981 1356.2 75.1032 Q1351.23 77.8452 1344.34 77.8452 Q1337.37 77.8452 1332.44 75.0661 Q1327.55 72.324 1327.55 68.2109 M1331.52 68.2109 Q1331.52 71.3235 1335.19 73.6951 Q1338.86 76.1036 1344.41 76.1036 Q1349.86 76.1036 1353.53 73.7321 Q1357.23 71.3976 1357.23 68.2109 Q1357.23 65.9506 1355.94 64.5054 Q1354.64 63.0603 1351.97 62.4674 Q1349.34 61.9116 1347.49 61.8004 Q1345.64 61.6892 1342.23 61.6892 L1337.74 61.6892 Q1335.15 61.8374 1333.33 63.7273 Q1331.52 65.6171 1331.52 68.2109 M1335.67 39.8268 Q1335.67 49.1646 1342.3 49.1646 Q1345.64 49.1646 1347.67 46.1261 Q1348.9 44.0881 1348.9 39.7526 Q1348.9 30.4148 1342.3 30.4148 Q1338.97 30.4148 1336.89 33.4533 Q1335.67 35.4913 1335.67 39.8268 Z" fill="#000000" fill-rule="nonzero" fill-opacity="1" /><path clip-path="url(#clip110)" d="M1365.91 62.208 L1365.91 59.8735 Q1369.94 59.8735 1370.87 59.3918 Q1371.8 58.873 1371.8 56.4274 L1371.8 36.0101 Q1371.8 33.1939 1370.83 32.5269 Q1369.91 31.8599 1366.2 31.8599 L1366.2 29.4884 L1376.8 28.6732 L1376.8 56.5015 Q1376.8 58.7619 1377.61 59.3177 Q1378.43 59.8735 1382.14 59.8735 L1382.14 62.208 Q1374.39 61.9857 1374.24 61.9857 Q1373.21 61.9857 1365.91 62.208 M1369.09 15.4445 Q1369.09 13.9253 1370.24 12.7025 Q1371.43 11.4426 1373.09 11.4426 Q1374.76 11.4426 1375.95 12.5913 Q1377.13 13.703 1377.13 15.4816 Q1377.13 17.2232 1375.95 18.3719 Q1374.76 19.4835 1373.09 19.4835 Q1371.35 19.4835 1370.2 18.2607 Q1369.09 17.0379 1369.09 15.4445 Z" fill="#000000" fill-rule="nonzero" fill-opacity="1" /><path clip-path="url(#clip110)" d="M1386.99 45.9038 Q1386.99 38.6781 1392.03 33.6756 Q1397.07 28.6732 1403.89 28.6732 Q1409.67 28.6732 1413.45 33.3792 L1413.45 16.9638 Q1413.45 14.1476 1412.45 13.4436 Q1411.48 12.7395 1407.56 12.7395 L1407.56 10.368 L1418.49 9.55279 L1418.49 55.6122 Q1418.49 58.4284 1419.45 59.1695 Q1420.45 59.8735 1424.38 59.8735 L1424.38 62.208 L1413.22 63.0603 L1413.22 58.0208 Q1409.3 63.0232 1403.07 63.0603 Q1396.55 63.0603 1391.77 58.0578 Q1386.99 53.0554 1386.99 45.9038 M1393.29 45.9779 Q1393.29 53.0184 1395.48 56.5015 Q1398.51 61.3557 1403.44 61.3557 Q1409.07 61.3557 1412.41 56.0569 Q1413.26 54.7599 1413.22 53.2407 L1413.22 37.6776 Q1413.22 36.1583 1412.41 34.8984 Q1409.3 30.3407 1404.22 30.3407 Q1398.92 30.3407 1395.62 35.1949 Q1393.29 38.8263 1393.29 45.9779 Z" fill="#000000" fill-rule="nonzero" fill-opacity="1" /><path clip-path="url(#clip110)" d="M1454.47 62.208 L1454.47 59.8735 L1456.28 59.8735 Q1460.4 59.8735 1461.32 59.2065 Q1462.29 58.5025 1462.29 56.2792 L1462.29 16.2968 Q1462.29 14.1106 1461.32 13.4436 Q1460.36 12.7395 1456.28 12.7395 L1454.47 12.7395 L1454.47 10.368 L1482.22 10.368 Q1489.45 10.368 1494.26 14.2588 Q1499.08 18.1125 1499.08 23.189 Q1499.08 27.3763 1495.52 30.7112 Q1492 34.0462 1486.48 35.1208 Q1492.78 35.7878 1496.93 39.6044 Q1501.12 43.384 1501.12 48.3124 Q1501.12 53.8706 1496.34 58.0578 Q1491.56 62.208 1484.22 62.208 L1454.47 62.208 M1468.59 56.835 Q1468.59 58.7989 1469.14 59.3548 Q1469.7 59.8735 1472.29 59.8735 L1481.78 59.8735 Q1487.22 59.8735 1490.37 56.3162 Q1493.52 52.7219 1493.52 48.2383 Q1493.52 43.7546 1490.74 39.9379 Q1488 36.0842 1482.85 36.0842 L1468.59 36.0842 L1468.59 56.835 M1468.59 34.4167 L1479.59 34.4167 Q1485.45 34.4167 1488.56 30.8965 Q1491.71 27.3763 1491.71 23.189 Q1491.71 19.4835 1489.19 16.1115 Q1486.7 12.7395 1481.7 12.7395 L1472.29 12.7395 Q1469.7 12.7395 1469.14 13.2583 Q1468.59 13.7771 1468.59 15.778 L1468.59 34.4167 Z" fill="#000000" fill-rule="nonzero" fill-opacity="1" /><path clip-path="url(#clip110)" d="M1512.53 58.1319 Q1507.53 53.1666 1507.53 45.9779 Q1507.53 38.7522 1512.42 33.4903 Q1517.35 28.1915 1524.39 28.1915 Q1531.28 28.1915 1536.21 33.4533 Q1541.18 38.6781 1541.18 45.9779 Q1541.18 53.1295 1536.17 58.0949 Q1531.21 63.0603 1524.32 63.0603 Q1517.57 63.0603 1512.53 58.1319 M1513.83 45.348 Q1513.83 52.7219 1515.76 56.0569 Q1518.72 61.1334 1524.39 61.1334 Q1527.21 61.1334 1529.54 59.6141 Q1531.91 58.0949 1533.21 55.5381 Q1534.88 52.2031 1534.88 45.348 Q1534.88 38.0481 1532.88 34.8243 Q1529.91 29.896 1524.32 29.896 Q1521.87 29.896 1519.46 31.1929 Q1517.09 32.4528 1515.64 34.9725 Q1513.83 38.3075 1513.83 45.348 Z" fill="#000000" fill-rule="nonzero" fill-opacity="1" /><path clip-path="url(#clip110)" d="M1548.07 45.9038 Q1548.07 38.6781 1553.11 33.6756 Q1558.15 28.6732 1564.97 28.6732 Q1570.75 28.6732 1574.53 33.3792 L1574.53 16.9638 Q1574.53 14.1476 1573.52 13.4436 Q1572.56 12.7395 1568.63 12.7395 L1568.63 10.368 L1579.56 9.55279 L1579.56 55.6122 Q1579.56 58.4284 1580.53 59.1695 Q1581.53 59.8735 1585.46 59.8735 L1585.46 62.208 L1574.3 63.0603 L1574.3 58.0208 Q1570.38 63.0232 1564.15 63.0603 Q1557.63 63.0603 1552.85 58.0578 Q1548.07 53.0554 1548.07 45.9038 M1554.37 45.9779 Q1554.37 53.0184 1556.55 56.5015 Q1559.59 61.3557 1564.52 61.3557 Q1570.15 61.3557 1573.49 56.0569 Q1574.34 54.7599 1574.3 53.2407 L1574.3 37.6776 Q1574.3 36.1583 1573.49 34.8984 Q1570.38 30.3407 1565.3 30.3407 Q1560 30.3407 1556.7 35.1949 Q1554.37 38.8263 1554.37 45.9779 Z" fill="#000000" fill-rule="nonzero" fill-opacity="1" /><path clip-path="url(#clip110)" d="M1589.01 71.62 Q1589.01 70.0266 1589.94 69.1743 Q1590.9 68.3591 1592.2 68.3591 Q1593.57 68.3591 1594.46 69.2114 Q1595.39 70.1007 1595.39 71.5459 Q1595.39 74.3621 1592.42 74.7326 Q1593.87 76.1036 1595.98 76.1036 Q1598.24 76.1036 1600.06 74.4362 Q1601.91 72.7687 1602.69 71.1753 Q1603.5 69.582 1604.65 66.6917 Q1605.73 64.4313 1606.54 62.208 L1595.17 34.4908 Q1594.42 32.6751 1593.28 32.2675 Q1592.13 31.8599 1589.01 31.8599 L1589.01 29.4884 Q1592.42 29.7107 1596.39 29.7107 Q1598.72 29.7107 1604.65 29.4884 L1604.65 31.8599 Q1600.39 31.8599 1600.39 33.8238 Q1600.39 34.0462 1600.83 35.1949 L1609.28 55.6122 L1616.95 36.9365 Q1617.4 35.8619 1617.4 35.1208 Q1617.4 32.0081 1613.84 31.8599 L1613.84 29.4884 Q1618.84 29.7107 1620.44 29.7107 Q1623.55 29.7107 1626.11 29.4884 L1626.11 31.8599 Q1621.03 31.8599 1619.07 36.7141 L1605.69 69.1002 Q1602.06 77.7341 1595.98 77.7711 Q1593.09 77.7711 1591.05 75.9925 Q1589.01 74.2138 1589.01 71.62 Z" fill="#000000" fill-rule="nonzero" fill-opacity="1" /><path clip-path="url(#clip110)" d="M1657.05 62.0598 L1657.05 46.8672 Q1657.05 46.0149 1657.08 45.7185 Q1657.12 45.4221 1657.34 45.1997 Q1657.57 44.9774 1658.01 44.9774 Q1658.86 44.9774 1658.94 45.7556 Q1659.16 53.2777 1663.64 57.4279 Q1668.05 61.541 1675.61 61.541 Q1680.17 61.541 1682.99 58.2802 Q1685.8 54.9823 1685.8 50.6839 Q1685.8 46.5708 1683.43 43.6805 Q1682.43 42.3836 1681.17 41.5683 Q1679.95 40.7161 1679.17 40.4567 Q1678.43 40.1973 1676.98 39.8268 Q1667.57 37.5664 1666.98 37.307 Q1662.49 35.7878 1659.75 31.9711 Q1657.05 28.1174 1657.05 23.4114 Q1657.05 17.3343 1661.31 13.036 Q1665.61 8.70052 1671.83 8.70052 Q1674.94 8.70052 1677.54 9.70101 Q1680.17 10.6644 1681.24 11.5538 Q1682.32 12.4431 1683.99 14.0364 L1686.62 9.70101 Q1687.21 8.70052 1687.77 8.70052 Q1688.36 8.70052 1688.47 9.07107 Q1688.62 9.40457 1688.62 10.5162 L1688.62 25.7829 Q1688.62 26.6352 1688.58 26.9316 Q1688.54 27.228 1688.28 27.4133 Q1688.06 27.5986 1687.62 27.5986 Q1686.88 27.5986 1686.69 26.7093 Q1684.58 10.8497 1671.91 10.8497 Q1667.57 10.8497 1664.72 13.7771 Q1661.9 16.6674 1661.9 20.7805 Q1661.9 24.1154 1663.98 26.8575 Q1666.05 29.5625 1669.57 30.4148 L1679.28 32.7492 Q1684.13 33.8979 1687.4 38.1963 Q1690.66 42.4947 1690.66 48.09 Q1690.66 54.5376 1686.43 59.2065 Q1682.24 63.8755 1675.69 63.8755 Q1670.98 63.8755 1667.35 62.3192 Q1663.72 60.7629 1661.75 58.5766 Q1660.23 61.0963 1659.23 62.5044 L1659.01 62.875 Q1658.42 63.8755 1657.86 63.8755 Q1657.27 63.8755 1657.16 63.5049 Q1657.05 63.1344 1657.05 62.0598 Z" fill="#000000" fill-rule="nonzero" fill-opacity="1" /><path clip-path="url(#clip110)" d="M1701.99 58.1319 Q1696.99 53.1666 1696.99 45.9779 Q1696.99 38.7522 1701.88 33.4903 Q1706.81 28.1915 1713.85 28.1915 Q1720.74 28.1915 1725.67 33.4533 Q1730.64 38.6781 1730.64 45.9779 Q1730.64 53.1295 1725.64 58.0949 Q1720.67 63.0603 1713.78 63.0603 Q1707.03 63.0603 1701.99 58.1319 M1703.29 45.348 Q1703.29 52.7219 1705.22 56.0569 Q1708.18 61.1334 1713.85 61.1334 Q1716.67 61.1334 1719 59.6141 Q1721.37 58.0949 1722.67 55.5381 Q1724.34 52.2031 1724.34 45.348 Q1724.34 38.0481 1722.34 34.8243 Q1719.37 29.896 1713.78 29.896 Q1711.33 29.896 1708.92 31.1929 Q1706.55 32.4528 1705.11 34.9725 Q1703.29 38.3075 1703.29 45.348 Z" fill="#000000" fill-rule="nonzero" fill-opacity="1" /><path clip-path="url(#clip110)" d="M1735.34 62.208 L1735.34 59.8735 Q1739.38 59.8735 1740.31 59.3918 Q1741.24 58.873 1741.24 56.4274 L1741.24 16.9638 Q1741.24 14.1476 1740.24 13.4436 Q1739.27 12.7395 1735.34 12.7395 L1735.34 10.368 L1746.24 9.55279 L1746.24 56.4274 Q1746.24 58.873 1747.2 59.3918 Q1748.17 59.8735 1752.17 59.8735 L1752.17 62.208 Q1751.24 62.208 1749.31 62.1339 Q1747.39 62.0598 1745.98 62.0227 Q1744.57 61.9857 1743.76 61.9857 Q1742.87 61.9857 1735.34 62.208 Z" fill="#000000" fill-rule="nonzero" fill-opacity="1" /><path clip-path="url(#clip110)" d="M1756.28 31.8599 L1756.28 29.4884 L1767.43 28.6732 L1767.43 53.8706 Q1767.43 55.6863 1767.58 56.7609 Q1767.73 57.7985 1768.32 59.0213 Q1768.95 60.2441 1770.36 60.7999 Q1771.81 61.3557 1774.1 61.3557 Q1778.22 61.3557 1780.74 57.9837 Q1783.29 54.6117 1783.29 49.6093 L1783.29 36.0842 Q1783.29 33.268 1782.29 32.564 Q1781.29 31.8599 1777.36 31.8599 L1777.36 29.4884 L1788.52 28.6732 L1788.52 55.6122 Q1788.52 58.4284 1789.48 59.1695 Q1790.48 59.8735 1794.45 59.8735 L1794.45 62.208 L1783.52 63.0603 L1783.52 56.2051 Q1780.33 63.0232 1773.73 63.0603 Q1770.4 63.0603 1768.1 62.208 Q1765.84 61.3557 1764.69 60.3182 Q1763.54 59.2436 1762.91 57.2056 Q1762.32 55.1675 1762.25 53.9077 Q1762.17 52.6478 1762.17 50.2022 L1762.17 38.8263 Q1762.17 33.6756 1761.43 32.7863 Q1760.69 31.8599 1756.28 31.8599 Z" fill="#000000" fill-rule="nonzero" fill-opacity="1" /><path clip-path="url(#clip110)" d="M1797.37 31.8599 L1797.37 30.1924 Q1800.86 30.0442 1803.15 27.5986 Q1805.49 25.1159 1806.27 22.0774 Q1807.08 19.0389 1807.16 15.5187 L1809.05 15.5187 L1809.05 29.4884 L1819.9 29.4884 L1819.9 31.8599 L1809.05 31.8599 L1809.05 52.9442 Q1809.05 61.1334 1814.16 61.1334 Q1816.35 61.1334 1817.79 58.9101 Q1819.24 56.6497 1819.24 52.6478 L1819.24 48.4606 L1821.13 48.4606 L1821.13 52.796 Q1821.13 56.9091 1819.24 59.9847 Q1817.35 63.0603 1813.6 63.0603 Q1812.23 63.0603 1810.86 62.6897 Q1809.53 62.3562 1807.75 61.4669 Q1806.01 60.5405 1804.9 58.3172 Q1803.82 56.0569 1803.82 52.796 L1803.82 31.8599 L1797.37 31.8599 Z" fill="#000000" fill-rule="nonzero" fill-opacity="1" /><path clip-path="url(#clip110)" d="M1827.87 62.208 L1827.87 59.8735 Q1831.91 59.8735 1832.84 59.3918 Q1833.76 58.873 1833.76 56.4274 L1833.76 36.0101 Q1833.76 33.1939 1832.8 32.5269 Q1831.87 31.8599 1828.17 31.8599 L1828.17 29.4884 L1838.76 28.6732 L1838.76 56.5015 Q1838.76 58.7619 1839.58 59.3177 Q1840.4 59.8735 1844.1 59.8735 L1844.1 62.208 Q1836.36 61.9857 1836.21 61.9857 Q1835.17 61.9857 1827.87 62.208 M1831.06 15.4445 Q1831.06 13.9253 1832.21 12.7025 Q1833.39 11.4426 1835.06 11.4426 Q1836.73 11.4426 1837.91 12.5913 Q1839.1 13.703 1839.1 15.4816 Q1839.1 17.2232 1837.91 18.3719 Q1836.73 19.4835 1835.06 19.4835 Q1833.32 19.4835 1832.17 18.2607 Q1831.06 17.0379 1831.06 15.4445 Z" fill="#000000" fill-rule="nonzero" fill-opacity="1" /><path clip-path="url(#clip110)" d="M1853.48 58.1319 Q1848.47 53.1666 1848.47 45.9779 Q1848.47 38.7522 1853.36 33.4903 Q1858.29 28.1915 1865.33 28.1915 Q1872.23 28.1915 1877.15 33.4533 Q1882.12 38.6781 1882.12 45.9779 Q1882.12 53.1295 1877.12 58.0949 Q1872.15 63.0603 1865.26 63.0603 Q1858.52 63.0603 1853.48 58.1319 M1854.77 45.348 Q1854.77 52.7219 1856.7 56.0569 Q1859.66 61.1334 1865.33 61.1334 Q1868.15 61.1334 1870.48 59.6141 Q1872.86 58.0949 1874.15 55.5381 Q1875.82 52.2031 1875.82 45.348 Q1875.82 38.0481 1873.82 34.8243 Q1870.85 29.896 1865.26 29.896 Q1862.81 29.896 1860.41 31.1929 Q1858.03 32.4528 1856.59 34.9725 Q1854.77 38.3075 1854.77 45.348 Z" fill="#000000" fill-rule="nonzero" fill-opacity="1" /><path clip-path="url(#clip110)" d="M1886.75 62.208 L1886.75 59.8735 Q1890.79 59.8735 1891.72 59.3918 Q1892.64 58.873 1892.64 56.4274 L1892.64 36.0842 Q1892.64 33.268 1891.64 32.564 Q1890.68 31.8599 1886.75 31.8599 L1886.75 29.4884 L1897.42 28.6732 L1897.42 36.64 Q1900.98 28.6732 1908.65 28.6732 Q1914.36 28.6732 1916.62 31.4894 Q1918.28 33.3792 1918.62 35.4913 Q1918.99 37.6035 1918.99 43.0876 L1918.99 57.5761 Q1919.06 59.1695 1920.29 59.54 Q1921.51 59.8735 1924.92 59.8735 L1924.92 62.208 Q1917.17 61.9857 1916.4 61.9857 Q1915.8 61.9857 1907.84 62.208 L1907.84 59.8735 Q1911.87 59.8735 1912.8 59.3918 Q1913.76 58.873 1913.76 56.4274 L1913.76 38.7522 Q1913.76 34.8984 1912.58 32.6381 Q1911.39 30.3407 1908.13 30.3407 Q1904.2 30.3407 1901.05 33.6386 Q1897.9 36.9365 1897.9 42.4947 L1897.9 56.4274 Q1897.9 58.873 1898.83 59.3918 Q1899.79 59.8735 1903.8 59.8735 L1903.8 62.208 Q1896.05 61.9857 1895.31 61.9857 Q1894.72 61.9857 1886.75 62.208 Z" fill="#000000" fill-rule="nonzero" fill-opacity="1" /><polyline clip-path="url(#clip112)" style="stroke:#d77255; stroke-linecap:round; stroke-linejoin:round; stroke-width:5.6; stroke-opacity:1; fill:none" points="214.411,700.174 215.925,700.188 218.253,700.267 221.04,700.45 224.19,700.774 227.701,701.281 231.515,702.007 235.603,702.985 239.923,704.244 244.452,705.811 249.159,707.704 254.024,709.943 259.028,712.542 264.159,715.515 269.406,718.873 274.763,722.629 280.224,726.791 285.789,731.373 291.458,736.387 297.234,741.847 303.123,747.77 309.131,754.173 315.269,761.081 321.547,768.517 327.98,776.514 334.584,785.107 341.371,794.328 348.338,804.188 355.453,814.652 362.648,825.624 369.866,837.007 377.069,848.726 384.237,860.728 391.358,872.97 398.427,885.422 405.438,898.057 412.391,910.852 419.286,923.788 426.122,936.849 432.901,950.021 439.622,963.289 446.288,976.643 452.899,990.072 459.457,1003.57 465.963,1017.12 472.418,1030.72 478.823,1044.36 485.181,1058.05 491.493,1071.76 497.759,1085.5 503.981,1099.26 510.162,1113.03 516.302,1126.82 522.403,1140.62 528.467,1154.42 534.496,1168.22 540.491,1182.02 546.471,1195.85 552.443,1209.72 558.41,1223.64 564.374,1237.59 570.336,1251.57 576.295,1265.57 582.25,1279.57 588.2,1293.57 594.142,1307.54 600.073,1321.47 605.99,1335.33 611.889,1349.1 617.769,1362.76 623.624,1376.29 629.455,1389.67 635.259,1402.88 641.033,1415.89 646.777,1428.69 652.49,1441.26 658.173,1453.58 663.824,1465.63 669.443,1477.39 675.031,1488.86 680.586,1500 686.108,1510.8 691.595,1521.24 697.045,1531.29 702.454,1540.95 707.819,1550.18 713.136,1558.97 718.4,1567.3 723.608,1575.16 728.758,1582.54 733.845,1589.43 738.869,1595.82 743.83,1601.71 748.726,1607.11 753.56,1612.02 758.333,1616.44 763.046,1620.38 767.702,1623.85 772.303,1626.85 776.853,1629.39 781.354,1631.48 785.809,1633.13 790.222,1634.34 794.594,1635.12 798.93,1635.49 803.232,1635.44 807.505,1634.98 811.768,1634.12 816.022,1632.85 820.272,1631.17 824.523,1629.09 828.779,1626.6 833.043,1623.7 837.319,1620.38 841.61,1616.64 845.919,1612.49 850.249,1607.9 854.604,1602.88 858.984,1597.43 863.396,1591.53 867.84,1585.19 872.321,1578.39 876.841,1571.13 881.402,1563.4 886.01,1555.2 890.666,1546.52 895.375,1537.35 900.141,1527.68 904.966,1517.5 909.856,1506.81 914.816,1495.59 919.854,1483.82 924.974,1471.49 930.184,1458.59 935.497,1445.08 940.924,1430.93 946.476,1416.11 952.164,1400.6 957.977,1384.42 963.867,1367.71 969.761,1350.72 975.61,1333.59 981.391,1316.45 987.093,1299.35 992.712,1282.33 998.248,1265.42 1003.7,1248.64 1009.08,1232.01 1014.39,1215.53 1019.63,1199.2 1024.81,1183.03 1029.94,1167.02 1035.01,1151.17 1040.05,1135.42 1045.08,1119.74 1050.11,1104.12 1055.14,1088.55 1060.17,1073.04 1065.22,1057.56 1070.29,1042.14 1075.38,1026.76 1080.51,1011.42 1085.67,996.142 1090.87,980.924 1096.11,965.775 1101.41,950.71 1106.75,935.75 1112.14,920.916 1117.59,906.245 1123.07,891.78 1128.6,877.573 1134.14,863.694 1139.69,850.202 1145.23,837.163 1150.75,824.633 1156.22,812.658 1161.65,801.27 1167.02,790.498 1172.32,780.356 1177.56,770.854 1182.72,761.996 1187.81,753.781 1192.83,746.201 1197.78,739.249 1202.66,732.914 1207.47,727.183 1212.21,722.043 1216.89,717.48 1221.52,713.481 1226.08,710.032 1230.6,707.12 1235.07,704.733 1239.49,702.858 1243.88,701.485 1248.22,700.603 1252.53,700.202 1256.81,700.274 1261.07,700.81 1265.32,701.809 1269.56,703.27 1273.81,705.195 1278.07,707.584 1282.33,710.442 1286.61,713.774 1290.91,717.585 1295.24,721.882 1299.59,726.671 1303.97,731.962 1308.38,737.764 1312.84,744.087 1317.34,750.944 1321.89,758.347 1326.49,766.312 1331.15,774.858 1335.88,784.005 1340.68,793.778 1345.57,804.212 1350.56,815.35 1355.66,827.253 1360.92,840.014 1366.38,853.792 1372.17,868.939 1378.73,886.789 1384.83,903.993 1390.74,921.172 1396.47,938.306 1402.06,955.401 1407.5,972.429 1412.81,989.385 1418.01,1006.26 1423.1,1023.04 1428.1,1039.74 1433.01,1056.36 1437.84,1072.89 1442.6,1089.34 1447.3,1105.71 1451.94,1122 1456.54,1138.22 1461.09,1154.36 1465.6,1170.43 1470.09,1186.43 1474.56,1202.42 1479.03,1218.42 1483.5,1234.43 1487.98,1250.45 1492.48,1266.49 1496.99,1282.53 1501.52,1298.55 1506.07,1314.54 1510.64,1330.46 1515.21,1346.29 1519.8,1361.97 1524.38,1377.47 1528.96,1392.73 1533.52,1407.73 1538.07,1422.41 1542.59,1436.74 1547.09,1450.7 1551.55,1464.24 1555.99,1477.36 1560.4,1490.04 1564.77,1502.24 1569.11,1513.97 1573.42,1525.19 1577.69,1535.9 1581.92,1546.09 1586.12,1555.74 1590.28,1564.85 1594.4,1573.4 1598.48,1581.39 1602.52,1588.82 1606.52,1595.68 1610.48,1601.98 1614.39,1607.71 1618.26,1612.89 1622.1,1617.51 1625.89,1621.58 1629.65,1625.12 1633.36,1628.12 1637.05,1630.6 1640.7,1632.57 1644.32,1634.03 1647.91,1634.99 1651.47,1635.46 1655,1635.45 1658.51,1634.97 1662.02,1634.02 1665.52,1632.59 1669.02,1630.7 1672.53,1628.33 1676.04,1625.49 1679.56,1622.17 1683.08,1618.37 1686.63,1614.08 1690.19,1609.31 1693.76,1604.04 1697.36,1598.27 1700.98,1591.99 1704.63,1585.2 1708.3,1577.9 1712.01,1570.08 1715.74,1561.72 1719.51,1552.84 1723.31,1543.41 1727.15,1533.44 1731.03,1522.92 1734.96,1511.83 1738.93,1500.18 1742.95,1487.96 1747.02,1475.15 1751.15,1461.74 1755.35,1447.72 1759.61,1433.05 1763.97,1417.7 1768.42,1401.61 1772.99,1384.7 1777.72,1366.86 1782.64,1347.93 1787.69,1328.12 1792.69,1308.21 1797.6,1288.4 1802.42,1268.73 1807.14,1249.27 1811.78,1230.02 1816.34,1210.99 1820.83,1192.2 1825.25,1173.63 1829.61,1155.28 1833.94,1137.12 1838.25,1119.03 1842.56,1101.03 1846.88,1083.08 1851.21,1065.16 1855.58,1047.26 1859.98,1029.36 1864.44,1011.46 1868.96,993.545 1873.54,975.639 1878.18,957.799 1882.87,940.149 1887.57,922.849 1892.24,906.048 1896.87,889.839 1901.44,874.282 1905.96,859.404 1910.41,845.227 1914.8,831.755 1919.13,818.99 1923.4,806.93 1927.61,795.571 1931.76,784.906 1935.86,774.928 1939.9,765.629 1943.89,756.999 1947.83,749.028 1951.72,741.705 1955.57,735.021 1959.37,728.961 1963.13,723.515 1966.85,718.67 1970.53,714.416 1974.18,710.74 1977.8,707.63 1981.38,705.076 1984.93,703.067 1988.46,701.592 1991.97,700.641 1995.45,700.206 1998.91,700.278 2002.36,700.848 2005.8,701.917 2009.25,703.482 2012.71,705.546 2016.17,708.11 2019.65,711.179 2023.14,714.757 2026.65,718.849 2030.18,723.461 2033.73,728.6 2037.31,734.272 2040.92,740.484 2044.57,747.245 2048.24,754.563 2051.95,762.447 2055.71,770.904 2059.5,779.946 2063.34,789.581 2067.22,799.824 2071.16,810.685 2075.16,822.179 2079.21,834.326 2083.34,847.148 2087.54,860.676 2091.83,874.95 2096.22,890.03 2100.73,905.979 2105.37,922.852 2110.12,940.54 2114.87,958.67 2119.56,976.959 2124.18,995.294 2128.71,1013.6 2133.16,1031.83 2137.54,1049.97 2141.84,1067.98 2146.07,1085.86 2150.23,1103.59 2154.34,1121.19 2158.4,1138.64 2162.41,1155.95 2166.38,1173.12 2170.31,1190.15 2174.24,1207.14 2178.16,1224.09 2182.09,1241.02 2186.03,1257.93 2189.99,1274.83 2193.97,1291.72 2197.97,1308.58 2202.01,1325.42 2206.08,1342.19 2210.18,1358.87 2214.3,1375.4 2218.43,1391.72 2222.57,1407.75 2226.7,1423.45 2230.82,1438.74 2234.92,1453.58 2238.99,1467.93 2243.03,1481.76 2247.04,1495.05 2251.02,1507.78 2254.96,1519.93 2258.86,1531.5 2262.73,1542.46 2266.57,1552.82 2270.37,1562.56 2274.13,1571.69 2277.85,1580.19 2281.54,1588.06 2285.19,1595.31 2288.8,1601.93 2292.38,1607.94 2295.91,1613.32 2299.41,1618.1 2302.88,1622.28 2306.31,1625.87 2309.7,1628.88 2313.06,1631.31 2316.4,1633.18 2319.7,1634.5 2322.98,1635.27 2326.23,1635.52 2329.45,1635.23 2332.66,1634.43 2335.87,1633.12 2339.07,1631.29 2342.28,1628.94 2345.48,1626.07 2348.69,1622.68 2351.91,1618.77 2355.14,1614.33 2358.38,1609.36 2361.64,1603.84 2364.91,1597.79 2368.21,1591.18 2371.52,1584.02 2374.86,1576.3 2378.22,1568.01 2381.6,1559.15 2385.02,1549.7 2388.46,1539.67 2391.94,1529.04 2395.46,1517.81 2399.01,1505.97 2402.6,1493.5 2406.24,1480.41 2409.93,1466.66 2413.67,1452.23 2417.47,1437.12 2421.35,1421.26 2425.31,1404.62 2429.37,1387.11 2433.55,1368.64 2437.88,1349.12 2442.31,1328.71 2446.72,1307.99 2451.08,1287.23 2455.37,1266.53 2459.59,1245.94 2463.74,1225.48 2467.83,1205.18 2471.88,1185.04 2475.87,1165.05 2479.84,1145.2 2483.79,1125.42 2487.74,1105.68 2491.69,1086 2495.66,1066.39 2499.62,1046.9 2503.58,1027.62 2507.53,1008.62 2511.44,990.002 2515.33,971.818 2519.17,954.129 2522.97,936.966 2526.73,920.357 2530.44,904.318 2534.11,888.86 2537.74,873.994 2541.32,859.721 2544.87,846.047 2548.39,832.979 2551.87,820.517 2555.31,808.67 2558.73,797.438 2562.11,786.825 2565.46,776.837 2568.78,767.474 2572.07,758.738 2575.33,750.63 2578.56,743.147 2581.76,736.288 2584.93,730.048 2588.07,724.423 2591.18,719.406 2594.27,714.99 2597.33,711.167 2600.37,707.929 2603.38,705.268 2606.36,703.174 2609.33,701.638 2612.28,700.651 2615.2,700.204 2618.11,700.289 2621.01,700.898 2623.9,702.03 2626.8,703.683 2629.69,705.858 2632.6,708.558 2635.51,711.785 2638.43,715.543 2641.36,719.836 2644.31,724.668 2647.27,730.042 2650.25,735.965 2653.25,742.439 2656.27,749.47 2659.31,757.063 2662.38,765.219 2665.47,773.944 2668.58,783.238 2671.72,793.105 2674.89,803.548 2678.09,814.563 2681.31,826.153 2684.57,838.318 2687.86,851.057 2691.18,864.37 2694.54,878.259 2697.93,892.724 2701.37,907.773 2704.85,923.416 2708.39,939.662 2711.98,956.54 2715.64,974.086 2719.38,992.345 2723.21,1011.4 2727.17,1031.34 2731.26,1052.23 2735.45,1073.86 2739.62,1095.63 2743.75,1117.3 2747.82,1138.77 2751.84,1160.03 2755.81,1181.05 2759.75,1201.85 2763.68,1222.6 2767.63,1243.3 2771.6,1264.02 2775.63,1284.79 2779.72,1305.71 2783.9,1326.76 2788.14,1347.76 2792.35,1368.26 2796.5,1388.01 2800.57,1406.94 2804.57,1425.01 2808.48,1442.24 2812.32,1458.63 2816.09,1474.19 2819.79,1488.95 2823.44,1502.92 2827.03,1516.12 2830.57,1528.56 2834.05,1540.25 2837.5,1551.21 2840.89,1561.45 2844.25,1570.97 2847.57,1579.79 2850.85,1587.92 2854.09,1595.37 2857.3,1602.15 2860.47,1608.26 2863.62,1613.73 2866.73,1618.56 2869.82,1622.75 2872.87,1626.34 2875.91,1629.31 2878.91,1631.7 2881.9,1633.5 2884.86,1634.72 2887.81,1635.38 2890.74,1635.49 2893.65,1635.06 2896.56,1634.08 2899.47,1632.56 2902.38,1630.5 2905.3,1627.9 2908.23,1624.75 2911.16,1621.06 2914.12,1616.81 2917.08,1612 2920.07,1606.63 2923.07,1600.68 2926.1,1594.16 2929.15,1587.06 2932.22,1579.38 2935.31,1571.1 2938.44,1562.22 2941.59,1552.74 2944.77,1542.65 2947.99,1531.94 2951.24,1520.62 2954.52,1508.68 2957.84,1496.11 2961.21,1482.89 2961.76,1480.65 "/>
<polyline clip-path="url(#clip112)" style="stroke:#009afa; stroke-linecap:round; stroke-linejoin:round; stroke-width:5.6; stroke-opacity:1; fill:none" points="214.411,1167.85 215.925,1164.95 218.253,1160.49 221.04,1155.15 224.19,1149.13 227.701,1142.42 231.515,1135.15 235.603,1127.37 239.923,1119.17 244.452,1110.62 249.159,1101.77 254.024,1092.67 259.028,1083.38 264.159,1073.92 269.406,1064.34 274.763,1054.66 280.224,1044.89 285.789,1035.07 291.458,1025.19 297.234,1015.28 303.123,1005.34 309.131,995.378 315.269,985.398 321.547,975.405 327.98,965.397 334.584,955.378 341.371,945.358 348.338,935.373 355.453,925.499 362.648,915.852 369.866,906.523 377.069,897.569 384.237,889.014 391.358,880.873 398.427,873.149 405.438,865.841 412.391,858.945 419.286,852.456 426.122,846.367 432.901,840.671 439.622,835.361 446.288,830.43 452.899,825.872 459.457,821.68 465.963,817.847 472.418,814.369 478.823,811.239 485.181,808.453 491.493,806.006 497.759,803.895 503.981,802.117 510.162,800.667 516.302,799.544 522.403,798.746 528.467,798.271 534.496,798.119 540.491,798.289 546.471,798.782 552.443,799.604 558.41,800.759 564.374,802.253 570.336,804.091 576.295,806.28 582.25,808.825 588.2,811.73 594.142,814.999 600.073,818.635 605.99,822.641 611.889,827.016 617.769,831.761 623.624,836.875 629.455,842.355 635.259,848.2 641.033,854.406 646.777,860.968 652.49,867.884 658.173,875.148 663.824,882.755 669.443,890.699 675.031,898.972 680.586,907.567 686.108,916.473 691.595,925.678 697.045,935.168 702.454,944.923 707.819,954.924 713.136,965.15 718.4,975.575 723.608,986.174 728.758,996.924 733.845,1007.8 738.869,1018.78 743.83,1029.84 748.726,1040.96 753.56,1052.13 758.333,1063.33 763.046,1074.55 767.702,1085.77 772.303,1096.99 776.853,1108.19 781.354,1119.37 785.809,1130.52 790.222,1141.63 794.594,1152.69 798.93,1163.7 803.232,1174.66 807.505,1185.56 811.768,1196.45 816.022,1207.3 820.272,1218.13 824.523,1228.93 828.779,1239.7 833.043,1250.44 837.319,1261.15 841.61,1271.82 845.919,1282.44 850.249,1293.02 854.604,1303.54 858.984,1313.99 863.396,1324.38 867.84,1334.7 872.321,1344.92 876.841,1355.06 881.402,1365.09 886.01,1375.02 890.666,1384.82 895.375,1394.48 900.141,1404.01 904.966,1413.38 909.856,1422.58 914.816,1431.6 919.854,1440.42 924.974,1449.04 930.184,1457.44 935.497,1465.61 940.924,1473.52 946.476,1481.17 952.164,1488.53 957.977,1495.54 963.867,1502.11 969.761,1508.13 975.61,1513.57 981.391,1518.41 987.093,1522.66 992.712,1526.32 998.248,1529.44 1003.7,1532.01 1009.08,1534.08 1014.39,1535.65 1019.63,1536.74 1024.81,1537.38 1029.94,1537.57 1035.01,1537.34 1040.05,1536.68 1045.08,1535.61 1050.11,1534.12 1055.14,1532.22 1060.17,1529.89 1065.22,1527.15 1070.29,1523.97 1075.38,1520.35 1080.51,1516.28 1085.67,1511.75 1090.87,1506.76 1096.11,1501.28 1101.41,1495.31 1106.75,1488.83 1112.14,1481.83 1117.59,1474.32 1123.07,1466.28 1128.6,1457.74 1134.14,1448.7 1139.69,1439.21 1145.23,1429.29 1150.75,1419 1156.22,1408.36 1161.65,1397.44 1167.02,1386.26 1172.32,1374.86 1177.56,1363.29 1182.72,1351.56 1187.81,1339.72 1192.83,1327.79 1197.78,1315.79 1202.66,1303.75 1207.47,1291.67 1212.21,1279.58 1216.89,1267.49 1221.52,1255.42 1226.08,1243.36 1230.6,1231.33 1235.07,1219.34 1239.49,1207.4 1243.88,1195.51 1248.22,1183.68 1252.53,1171.91 1256.81,1160.21 1261.07,1148.57 1265.32,1136.95 1269.56,1125.37 1273.81,1113.82 1278.07,1102.29 1282.33,1090.79 1286.61,1079.33 1290.91,1067.9 1295.24,1056.51 1299.59,1045.16 1303.97,1033.86 1308.38,1022.62 1312.84,1011.43 1317.34,1000.31 1321.89,989.261 1326.49,978.294 1331.15,967.412 1335.88,956.625 1340.68,945.936 1345.57,935.349 1350.56,924.865 1355.66,914.477 1360.92,904.166 1366.38,893.885 1372.17,883.492 1378.73,872.333 1384.83,862.581 1390.74,853.731 1396.47,845.715 1402.06,838.467 1407.5,831.943 1412.81,826.096 1418.01,820.889 1423.1,816.287 1428.1,812.259 1433.01,808.778 1437.84,805.82 1442.6,803.365 1447.3,801.397 1451.94,799.899 1456.54,798.861 1461.09,798.272 1465.6,798.124 1470.09,798.411 1474.56,799.13 1479.03,800.287 1483.5,801.885 1487.98,803.932 1492.48,806.437 1496.99,809.407 1501.52,812.851 1506.07,816.777 1510.64,821.189 1515.21,826.089 1519.8,831.475 1524.38,837.339 1528.96,843.672 1533.52,850.461 1538.07,857.69 1542.59,865.344 1547.09,873.405 1551.55,881.855 1555.99,890.679 1560.4,899.856 1564.77,909.37 1569.11,919.202 1573.42,929.332 1577.69,939.741 1581.92,950.406 1586.12,961.308 1590.28,972.421 1594.4,983.722 1598.48,995.19 1602.52,1006.8 1606.52,1018.53 1610.48,1030.36 1614.39,1042.26 1618.26,1054.23 1622.1,1066.24 1625.89,1078.27 1629.65,1090.32 1633.36,1102.36 1637.05,1114.39 1640.7,1126.39 1644.32,1138.36 1647.91,1150.29 1651.47,1162.16 1655,1173.97 1658.51,1185.71 1662.02,1197.44 1665.52,1209.13 1669.02,1220.79 1672.53,1232.41 1676.04,1244 1679.56,1255.55 1683.08,1267.04 1686.63,1278.49 1690.19,1289.88 1693.76,1301.2 1697.36,1312.44 1700.98,1323.6 1704.63,1334.67 1708.3,1345.63 1712.01,1356.47 1715.74,1367.18 1719.51,1377.75 1723.31,1388.17 1727.15,1398.41 1731.03,1408.47 1734.96,1418.33 1738.93,1427.97 1742.95,1437.38 1747.02,1446.55 1751.15,1455.44 1755.35,1464.06 1759.61,1472.38 1763.97,1480.39 1768.42,1488.07 1772.99,1495.42 1777.72,1502.43 1782.64,1509.06 1787.69,1515.18 1792.69,1520.53 1797.6,1525.08 1802.42,1528.87 1807.14,1531.93 1811.78,1534.29 1816.34,1536 1820.83,1537.07 1825.25,1537.54 1829.61,1537.44 1833.94,1536.77 1838.25,1535.55 1842.56,1533.78 1846.88,1531.45 1851.21,1528.55 1855.58,1525.07 1859.98,1520.99 1864.44,1516.29 1868.96,1510.93 1873.54,1504.9 1878.18,1498.18 1882.87,1490.79 1887.57,1482.78 1892.24,1474.21 1896.87,1465.16 1901.44,1455.66 1905.96,1445.76 1910.41,1435.51 1914.8,1424.94 1919.13,1414.09 1923.4,1402.97 1927.61,1391.63 1931.76,1380.09 1935.86,1368.36 1939.9,1356.49 1943.89,1344.48 1947.83,1332.37 1951.72,1320.16 1955.57,1307.89 1959.37,1295.56 1963.13,1283.19 1966.85,1270.8 1970.53,1258.39 1974.18,1245.99 1977.8,1233.6 1981.38,1221.24 1984.93,1208.9 1988.46,1196.61 1991.97,1184.37 1995.45,1172.18 1998.91,1160.06 2002.36,1148 2005.8,1135.96 2009.25,1123.95 2012.71,1111.97 2016.17,1100.02 2019.65,1088.11 2023.14,1076.24 2026.65,1064.41 2030.18,1052.63 2033.73,1040.91 2037.31,1029.26 2040.92,1017.68 2044.57,1006.19 2048.24,994.795 2051.95,983.508 2055.71,972.343 2059.5,961.311 2063.34,950.427 2067.22,939.705 2071.16,929.16 2075.16,918.808 2079.21,908.662 2083.34,898.738 2087.54,889.049 2091.83,879.609 2096.22,870.424 2100.73,861.514 2105.37,852.91 2110.12,844.727 2114.87,837.162 2119.56,830.319 2124.18,824.205 2128.71,818.807 2133.16,814.1 2137.54,810.056 2141.84,806.647 2146.07,803.845 2150.23,801.625 2154.34,799.963 2158.4,798.84 2162.41,798.238 2166.38,798.142 2170.31,798.539 2174.24,799.426 2178.16,800.802 2182.09,802.673 2186.03,805.043 2189.99,807.923 2193.97,811.323 2197.97,815.257 2202.01,819.737 2206.08,824.77 2210.18,830.367 2214.3,836.523 2218.43,843.231 2222.57,850.473 2226.7,858.225 2230.82,866.46 2234.92,875.151 2238.99,884.269 2243.03,893.787 2247.04,903.68 2251.02,913.924 2254.96,924.493 2258.86,935.366 2262.73,946.515 2266.57,957.918 2270.37,969.549 2274.13,981.385 2277.85,993.397 2281.54,1005.57 2285.19,1017.86 2288.8,1030.27 2292.38,1042.75 2295.91,1055.3 2299.41,1067.9 2302.88,1080.52 2306.31,1093.15 2309.7,1105.77 2313.06,1118.38 2316.4,1130.95 2319.7,1143.48 2322.98,1155.95 2326.23,1168.36 2329.45,1180.7 2332.66,1192.99 2335.87,1205.25 2339.07,1217.47 2342.28,1229.64 2345.48,1241.78 2348.69,1253.86 2351.91,1265.89 2355.14,1277.87 2358.38,1289.77 2361.64,1301.59 2364.91,1313.33 2368.21,1324.97 2371.52,1336.5 2374.86,1347.92 2378.22,1359.2 2381.6,1370.33 2385.02,1381.3 2388.46,1392.1 2391.94,1402.7 2395.46,1413.1 2399.01,1423.27 2402.6,1433.2 2406.24,1442.87 2409.93,1452.26 2413.67,1461.36 2417.47,1470.14 2421.35,1478.59 2425.31,1486.69 2429.37,1494.42 2433.55,1501.76 2437.88,1508.67 2442.31,1515.01 2446.72,1520.58 2451.08,1525.32 2455.37,1529.25 2459.59,1532.38 2463.74,1534.75 2467.83,1536.39 2471.88,1537.32 2475.87,1537.57 2479.84,1537.14 2483.79,1536.05 2487.74,1534.29 2491.69,1531.87 2495.66,1528.77 2499.62,1525 2503.58,1520.56 2507.53,1515.48 2511.44,1509.8 2515.33,1503.53 2519.17,1496.71 2522.97,1489.38 2526.73,1481.56 2530.44,1473.29 2534.11,1464.58 2537.74,1455.47 2541.32,1445.98 2544.87,1436.13 2548.39,1425.94 2551.87,1415.43 2555.31,1404.63 2558.73,1393.56 2562.11,1382.23 2565.46,1370.68 2568.78,1358.93 2572.07,1346.99 2575.33,1334.89 2578.56,1322.66 2581.76,1310.31 2584.93,1297.87 2588.07,1285.35 2591.18,1272.78 2594.27,1260.17 2597.33,1247.54 2600.37,1234.9 2603.38,1222.27 2606.36,1209.65 2609.33,1197.08 2612.28,1184.54 2615.2,1172.06 2618.11,1159.64 2621.01,1147.28 2623.9,1134.94 2626.8,1122.64 2629.69,1110.38 2632.6,1098.15 2635.51,1085.97 2638.43,1073.84 2641.36,1061.77 2644.31,1049.76 2647.27,1037.83 2650.25,1025.99 2653.25,1014.25 2656.27,1002.62 2659.31,991.115 2662.38,979.749 2665.47,968.537 2668.58,957.498 2671.72,946.646 2674.89,936 2678.09,925.58 2681.31,915.404 2684.57,905.49 2687.86,895.86 2691.18,886.532 2694.54,877.526 2697.93,868.863 2701.37,860.56 2704.85,852.636 2708.39,845.114 2711.98,838.01 2715.64,831.343 2719.38,825.139 2723.21,819.42 2727.17,814.219 2731.26,809.595 2735.45,805.662 2739.62,802.553 2743.75,800.285 2747.82,798.834 2751.84,798.17 2755.81,798.266 2759.75,799.097 2763.68,800.662 2767.63,802.962 2771.6,806.02 2775.63,809.865 2779.72,814.548 2783.9,820.117 2788.14,826.572 2792.35,833.79 2796.5,841.653 2800.57,850.089 2804.57,859.037 2808.48,868.446 2812.32,878.275 2816.09,888.485 2819.79,899.043 2823.44,909.92 2827.03,921.089 2830.57,932.522 2834.05,944.196 2837.5,956.085 2840.89,968.167 2844.25,980.42 2847.57,992.819 2850.85,1005.34 2854.09,1017.97 2857.3,1030.69 2860.47,1043.48 2863.62,1056.31 2866.73,1069.18 2869.82,1082.06 2872.87,1094.95 2875.91,1107.83 2878.91,1120.69 2881.9,1133.51 2884.86,1146.29 2887.81,1159.02 2890.74,1171.68 2893.65,1184.27 2896.56,1196.83 2899.47,1209.35 2902.38,1221.84 2905.3,1234.3 2908.23,1246.71 2911.16,1259.07 2914.12,1271.37 2917.08,1283.61 2920.07,1295.78 2923.07,1307.86 2926.1,1319.85 2929.15,1331.73 2932.22,1343.49 2935.31,1355.1 2938.44,1366.57 2941.59,1377.87 2944.77,1388.98 2947.99,1399.89 2951.24,1410.57 2954.52,1421.01 2957.84,1431.19 2961.21,1441.09 2961.76,1442.7 "/>
<polyline clip-path="url(#clip112)" style="stroke:#707070; stroke-linecap:round; stroke-linejoin:round; stroke-width:5.6; stroke-opacity:1; fill:none" points="214.411,746.941 215.925,746.945 218.253,746.967 221.04,747.017 224.19,747.106 227.701,747.244 231.515,747.44 235.603,747.702 239.923,748.037 244.452,748.449 249.159,748.942 254.024,749.518 259.028,750.179 264.159,750.923 269.406,751.751 274.763,752.662 280.224,753.653 285.789,754.724 291.458,755.871 297.234,757.091 303.123,758.382 309.131,759.74 315.269,761.161 321.547,762.642 327.98,764.178 334.584,765.763 341.371,767.389 348.338,769.043 355.453,770.702 362.648,772.335 369.866,773.915 377.069,775.419 384.237,776.83 391.358,778.135 398.427,779.322 405.438,780.383 412.391,781.309 419.286,782.093 426.122,782.73 432.901,783.215 439.622,783.543 446.288,783.713 452.899,783.72 459.457,783.564 465.963,783.243 472.418,782.757 478.823,782.105 485.181,781.287 491.493,780.304 497.759,779.158 503.981,777.849 510.162,776.379 516.302,774.752 522.403,772.968 528.467,771.03 534.496,768.941 540.491,766.705 546.471,764.317 552.443,761.777 558.41,759.087 564.374,756.248 570.336,753.264 576.295,750.138 582.25,746.876 588.2,743.483 594.142,739.966 600.073,736.333 605.99,732.592 611.889,728.754 617.769,724.827 623.624,720.823 629.455,716.752 635.259,712.624 641.033,708.451 646.777,704.243 652.49,700.01 658.173,695.762 663.824,691.511 669.443,687.266 675.031,683.038 680.586,678.837 686.108,674.675 691.595,670.562 697.045,666.509 702.454,662.528 707.819,658.631 713.136,654.828 718.4,651.129 723.608,647.545 728.758,644.083 733.845,640.751 738.869,637.552 743.83,634.492 748.726,631.571 753.56,628.794 758.333,626.158 763.046,623.665 767.702,621.313 772.303,619.101 776.853,617.027 781.354,615.089 785.809,613.285 790.222,611.612 794.594,610.067 798.93,608.648 803.232,607.352 807.505,606.175 811.768,605.112 816.022,604.16 820.272,603.318 824.523,602.584 828.779,601.956 833.043,601.432 837.319,601.012 841.61,600.694 845.919,600.477 850.249,600.357 854.604,600.335 858.984,600.408 863.396,600.574 867.84,600.831 872.321,601.177 876.841,601.609 881.402,602.124 886.01,602.719 890.666,603.391 895.375,604.135 900.141,604.949 904.966,605.828 909.856,606.766 914.816,607.759 919.854,608.801 924.974,609.886 930.184,611.009 935.497,612.162 940.924,613.339 946.476,614.531 952.164,615.729 957.977,616.917 963.867,618.072 969.761,619.167 975.61,620.183 981.391,621.108 987.093,621.935 992.712,622.659 998.248,623.277 1003.7,623.789 1009.08,624.193 1014.39,624.49 1019.63,624.68 1024.81,624.765 1029.94,624.746 1035.01,624.625 1040.05,624.402 1045.08,624.077 1050.11,623.65 1055.14,623.121 1060.17,622.491 1065.22,621.758 1070.29,620.922 1075.38,619.984 1080.51,618.944 1085.67,617.803 1090.87,616.56 1096.11,615.218 1101.41,613.778 1106.75,612.243 1112.14,610.616 1117.59,608.902 1123.07,607.109 1128.6,605.246 1134.14,603.327 1139.69,601.364 1145.23,599.372 1150.75,597.368 1156.22,595.365 1161.65,593.376 1167.02,591.415 1172.32,589.491 1177.56,587.614 1182.72,585.791 1187.81,584.03 1192.83,582.336 1197.78,580.712 1202.66,579.161 1207.47,577.687 1212.21,576.289 1216.89,574.97 1221.52,573.73 1226.08,572.567 1230.6,571.483 1235.07,570.475 1239.49,569.543 1243.88,568.686 1248.22,567.901 1252.53,567.188 1256.81,566.544 1261.07,565.967 1265.32,565.452 1269.56,565 1273.81,564.607 1278.07,564.273 1282.33,563.995 1286.61,563.771 1290.91,563.599 1295.24,563.477 1299.59,563.403 1303.97,563.372 1308.38,563.384 1312.84,563.433 1317.34,563.517 1321.89,563.63 1326.49,563.769 1331.15,563.929 1335.88,564.104 1340.68,564.287 1345.57,564.472 1350.56,564.652 1355.66,564.816 1360.92,564.956 1366.38,565.058 1372.17,565.107 1378.73,565.072 1384.83,564.937 1390.74,564.7 1396.47,564.356 1402.06,563.905 1407.5,563.343 1412.81,562.673 1418.01,561.892 1423.1,561.003 1428.1,560.006 1433.01,558.9 1437.84,557.688 1442.6,556.37 1447.3,554.947 1451.94,553.42 1456.54,551.79 1461.09,550.059 1465.6,548.226 1470.09,546.294 1474.56,544.254 1479.03,542.106 1483.5,539.847 1487.98,537.478 1492.48,534.998 1496.99,532.409 1501.52,529.711 1506.07,526.909 1510.64,524.008 1515.21,521.016 1519.8,517.941 1524.38,514.794 1528.96,511.588 1533.52,508.335 1538.07,505.046 1542.59,501.735 1547.09,498.412 1551.55,495.089 1555.99,491.776 1560.4,488.484 1564.77,485.221 1569.11,481.998 1573.42,478.822 1577.69,475.702 1581.92,472.647 1586.12,469.663 1590.28,466.759 1594.4,463.94 1598.48,461.213 1602.52,458.583 1606.52,456.054 1610.48,453.63 1614.39,451.314 1618.26,449.107 1622.1,447.01 1625.89,445.025 1629.65,443.151 1633.36,441.387 1637.05,439.734 1640.7,438.19 1644.32,436.753 1647.91,435.422 1651.47,434.195 1655,433.069 1658.51,432.043 1662.02,431.109 1665.52,430.269 1669.02,429.518 1672.53,428.857 1676.04,428.282 1679.56,427.794 1683.08,427.39 1686.63,427.068 1690.19,426.828 1693.76,426.666 1697.36,426.582 1700.98,426.572 1704.63,426.636 1708.3,426.769 1712.01,426.969 1715.74,427.233 1719.51,427.558 1723.31,427.939 1727.15,428.373 1731.03,428.855 1734.96,429.38 1738.93,429.944 1742.95,430.54 1747.02,431.163 1751.15,431.807 1755.35,432.465 1759.61,433.13 1763.97,433.796 1768.42,434.455 1772.99,435.1 1777.72,435.722 1782.64,436.312 1787.69,436.846 1792.69,437.293 1797.6,437.645 1802.42,437.898 1807.14,438.053 1811.78,438.11 1816.34,438.07 1820.83,437.934 1825.25,437.706 1829.61,437.387 1833.94,436.978 1838.25,436.479 1842.56,435.89 1846.88,435.21 1851.21,434.44 1855.58,433.578 1859.98,432.624 1864.44,431.577 1868.96,430.436 1873.54,429.203 1878.18,427.882 1882.87,426.484 1887.57,425.026 1892.24,423.528 1896.87,422.005 1901.44,420.472 1905.96,418.941 1910.41,417.423 1914.8,415.927 1919.13,414.461 1923.4,413.033 1927.61,411.65 1931.76,410.317 1935.86,409.039 1939.9,407.822 1943.89,406.669 1947.83,405.583 1951.72,404.567 1955.57,403.623 1959.37,402.754 1963.13,401.959 1966.85,401.241 1970.53,400.599 1974.18,400.033 1977.8,399.543 1981.38,399.129 1984.93,398.79 1988.46,398.525 1991.97,398.333 1995.45,398.212 1998.91,398.162 2002.36,398.179 2005.8,398.264 2009.25,398.415 2012.71,398.632 2016.17,398.912 2019.65,399.256 2023.14,399.66 2026.65,400.125 2030.18,400.648 2033.73,401.227 2037.31,401.86 2040.92,402.544 2044.57,403.276 2048.24,404.054 2051.95,404.873 2055.71,405.729 2059.5,406.618 2063.34,407.535 2067.22,408.475 2071.16,409.431 2075.16,410.397 2079.21,411.367 2083.34,412.333 2087.54,413.287 2091.83,414.22 2096.22,415.124 2100.73,415.987 2105.37,416.796 2110.12,417.527 2114.87,418.153 2119.56,418.656 2124.18,419.03 2128.71,419.273 2133.16,419.384 2137.54,419.364 2141.84,419.215 2146.07,418.939 2150.23,418.539 2154.34,418.016 2158.4,417.374 2162.41,416.615 2166.38,415.74 2170.31,414.752 2174.24,413.647 2178.16,412.424 2182.09,411.082 2186.03,409.621 2189.99,408.038 2193.97,406.333 2197.97,404.506 2202.01,402.558 2206.08,400.49 2210.18,398.306 2214.3,396.015 2218.43,393.624 2222.57,391.148 2226.7,388.6 2230.82,385.994 2234.92,383.343 2238.99,380.66 2243.03,377.957 2247.04,375.245 2251.02,372.534 2254.96,369.834 2258.86,367.153 2262.73,364.501 2266.57,361.884 2270.37,359.31 2274.13,356.787 2277.85,354.321 2281.54,351.918 2285.19,349.581 2288.8,347.317 2292.38,345.128 2295.91,343.017 2299.41,340.987 2302.88,339.038 2306.31,337.172 2309.7,335.389 2313.06,333.689 2316.4,332.072 2319.7,330.537 2322.98,329.082 2326.23,327.706 2329.45,326.408 2332.66,325.182 2335.87,324.025 2339.07,322.936 2342.28,321.912 2345.48,320.952 2348.69,320.053 2351.91,319.214 2355.14,318.432 2358.38,317.707 2361.64,317.034 2364.91,316.413 2368.21,315.839 2371.52,315.311 2374.86,314.825 2378.22,314.377 2381.6,313.964 2385.02,313.582 2388.46,313.225 2391.94,312.89 2395.46,312.572 2399.01,312.263 2402.6,311.959 2406.24,311.653 2409.93,311.338 2413.67,311.005 2417.47,310.647 2421.35,310.255 2425.31,309.817 2429.37,309.32 2433.55,308.751 2437.88,308.092 2442.31,307.334 2446.72,306.488 2451.08,305.556 2455.37,304.539 2459.59,303.438 2463.74,302.253 2467.83,300.984 2471.88,299.63 2475.87,298.193 2479.84,296.672 2483.79,295.059 2487.74,293.354 2491.69,291.556 2495.66,289.667 2499.62,287.691 2503.58,285.639 2507.53,283.52 2511.44,281.35 2515.33,279.139 2519.17,276.901 2522.97,274.644 2526.73,272.38 2530.44,270.117 2534.11,267.863 2537.74,265.624 2541.32,263.408 2544.87,261.221 2548.39,259.07 2551.87,256.961 2555.31,254.899 2558.73,252.889 2562.11,250.938 2565.46,249.05 2568.78,247.23 2572.07,245.481 2575.33,243.809 2578.56,242.215 2581.76,240.703 2584.93,239.275 2588.07,237.933 2591.18,236.677 2594.27,235.509 2597.33,234.429 2600.37,233.437 2603.38,232.533 2606.36,231.716 2609.33,230.985 2612.28,230.339 2615.2,229.777 2618.11,229.297 2621.01,228.897 2623.9,228.575 2626.8,228.329 2629.69,228.159 2632.6,228.063 2635.51,228.041 2638.43,228.09 2641.36,228.211 2644.31,228.4 2647.27,228.658 2650.25,228.981 2653.25,229.368 2656.27,229.816 2659.31,230.323 2662.38,230.885 2665.47,231.501 2668.58,232.165 2671.72,232.875 2674.89,233.625 2678.09,234.412 2681.31,235.23 2684.57,236.073 2687.86,236.938 2691.18,237.816 2694.54,238.704 2697.93,239.593 2701.37,240.478 2704.85,241.352 2708.39,242.208 2711.98,243.04 2715.64,243.84 2719.38,244.601 2723.21,245.315 2727.17,245.973 2731.26,246.562 2735.45,247.063 2739.62,247.453 2743.75,247.726 2747.82,247.883 2751.84,247.924 2755.81,247.854 2759.75,247.674 2763.68,247.385 2767.63,246.987 2771.6,246.478 2775.63,245.857 2779.72,245.119 2783.9,244.262 2788.14,243.292 2792.35,242.234 2796.5,241.111 2800.57,239.938 2804.57,238.731 2808.48,237.5 2812.32,236.255 2816.09,235.006 2819.79,233.762 2823.44,232.53 2827.03,231.316 2830.57,230.127 2834.05,228.969 2837.5,227.847 2840.89,226.766 2844.25,225.73 2847.57,224.743 2850.85,223.809 2854.09,222.931 2857.3,222.11 2860.47,221.35 2863.62,220.651 2866.73,220.015 2869.82,219.442 2872.87,218.934 2875.91,218.49 2878.91,218.11 2881.9,217.793 2884.86,217.54 2887.81,217.348 2890.74,217.218 2893.65,217.148 2896.56,217.136 2899.47,217.181 2902.38,217.283 2905.3,217.441 2908.23,217.654 2911.16,217.919 2914.12,218.237 2917.08,218.604 2920.07,219.02 2923.07,219.481 2926.1,219.986 2929.15,220.532 2932.22,221.115 2935.31,221.732 2938.44,222.379 2941.59,223.052 2944.77,223.747 2947.99,224.457 2951.24,225.179 2954.52,225.905 2957.84,226.629 2961.21,227.346 2961.76,227.462 "/>
</svg>
