<?xml version="1.0" encoding="utf-8"?>
<svg xmlns="http://www.w3.org/2000/svg" xmlns:xlink="http://www.w3.org/1999/xlink" width="600" height="400" viewBox="0 0 2400 1600">
<defs>
  <clipPath id="clip110">
    <rect x="0" y="0" width="2400" height="1600"/>
  </clipPath>
</defs>
<path clip-path="url(#clip110)" d="M0 1600 L2400 1600 L2400 0 L0 0  Z" fill="#ffffff" fill-rule="evenodd" fill-opacity="1"/>
<defs>
  <clipPath id="clip111">
    <rect x="318" y="47" width="2036" height="1377"/>
  </clipPath>
</defs>
<path clip-path="url(#clip110)" d="M318.014 1423.18 L2352.76 1423.18 L2352.76 47.2441 L318.014 47.2441  Z" fill="#ffffff" fill-rule="evenodd" fill-opacity="1"/>
<polyline clip-path="url(#clip111)" style="stroke:#000000; stroke-linecap:round; stroke-linejoin:round; stroke-width:2; stroke-opacity:0.1; fill:none" points="375.601,1423.18 375.601,47.2441 "/>
<polyline clip-path="url(#clip111)" style="stroke:#000000; stroke-linecap:round; stroke-linejoin:round; stroke-width:2; stroke-opacity:0.1; fill:none" points="855.493,1423.18 855.493,47.2441 "/>
<polyline clip-path="url(#clip111)" style="stroke:#000000; stroke-linecap:round; stroke-linejoin:round; stroke-width:2; stroke-opacity:0.1; fill:none" points="1335.38,1423.18 1335.38,47.2441 "/>
<polyline clip-path="url(#clip111)" style="stroke:#000000; stroke-linecap:round; stroke-linejoin:round; stroke-width:2; stroke-opacity:0.1; fill:none" points="1815.28,1423.18 1815.28,47.2441 "/>
<polyline clip-path="url(#clip111)" style="stroke:#000000; stroke-linecap:round; stroke-linejoin:round; stroke-width:2; stroke-opacity:0.1; fill:none" points="2295.17,1423.18 2295.17,47.2441 "/>
<polyline clip-path="url(#clip111)" style="stroke:#000000; stroke-linecap:round; stroke-linejoin:round; stroke-width:2; stroke-opacity:0.1; fill:none" points="318.014,1230.4 2352.76,1230.4 "/>
<polyline clip-path="url(#clip111)" style="stroke:#000000; stroke-linecap:round; stroke-linejoin:round; stroke-width:2; stroke-opacity:0.1; fill:none" points="318.014,982.808 2352.76,982.808 "/>
<polyline clip-path="url(#clip111)" style="stroke:#000000; stroke-linecap:round; stroke-linejoin:round; stroke-width:2; stroke-opacity:0.1; fill:none" points="318.014,735.212 2352.76,735.212 "/>
<polyline clip-path="url(#clip111)" style="stroke:#000000; stroke-linecap:round; stroke-linejoin:round; stroke-width:2; stroke-opacity:0.1; fill:none" points="318.014,487.616 2352.76,487.616 "/>
<polyline clip-path="url(#clip111)" style="stroke:#000000; stroke-linecap:round; stroke-linejoin:round; stroke-width:2; stroke-opacity:0.1; fill:none" points="318.014,240.019 2352.76,240.019 "/>
<polyline clip-path="url(#clip110)" style="stroke:#000000; stroke-linecap:round; stroke-linejoin:round; stroke-width:4; stroke-opacity:1; fill:none" points="318.014,1423.18 2352.76,1423.18 "/>
<polyline clip-path="url(#clip110)" style="stroke:#000000; stroke-linecap:round; stroke-linejoin:round; stroke-width:4; stroke-opacity:1; fill:none" points="375.601,1423.18 375.601,1404.28 "/>
<polyline clip-path="url(#clip110)" style="stroke:#000000; stroke-linecap:round; stroke-linejoin:round; stroke-width:4; stroke-opacity:1; fill:none" points="855.493,1423.18 855.493,1404.28 "/>
<polyline clip-path="url(#clip110)" style="stroke:#000000; stroke-linecap:round; stroke-linejoin:round; stroke-width:4; stroke-opacity:1; fill:none" points="1335.38,1423.18 1335.38,1404.28 "/>
<polyline clip-path="url(#clip110)" style="stroke:#000000; stroke-linecap:round; stroke-linejoin:round; stroke-width:4; stroke-opacity:1; fill:none" points="1815.28,1423.18 1815.28,1404.28 "/>
<polyline clip-path="url(#clip110)" style="stroke:#000000; stroke-linecap:round; stroke-linejoin:round; stroke-width:4; stroke-opacity:1; fill:none" points="2295.17,1423.18 2295.17,1404.28 "/>
<path clip-path="url(#clip110)" d="M375.601 1454.1 Q371.99 1454.1 370.161 1457.66 Q368.356 1461.2 368.356 1468.33 Q368.356 1475.44 370.161 1479.01 Q371.99 1482.55 375.601 1482.55 Q379.235 1482.55 381.041 1479.01 Q382.869 1475.44 382.869 1468.33 Q382.869 1461.2 381.041 1457.66 Q379.235 1454.1 375.601 1454.1 M375.601 1450.39 Q381.411 1450.39 384.467 1455 Q387.545 1459.58 387.545 1468.33 Q387.545 1477.06 384.467 1481.67 Q381.411 1486.25 375.601 1486.25 Q369.791 1486.25 366.712 1481.67 Q363.657 1477.06 363.657 1468.33 Q363.657 1459.58 366.712 1455 Q369.791 1450.39 375.601 1450.39 Z" fill="#000000" fill-rule="nonzero" fill-opacity="1" /><path clip-path="url(#clip110)" d="M845.771 1451.02 L864.127 1451.02 L864.127 1454.96 L850.053 1454.96 L850.053 1463.43 Q851.072 1463.08 852.09 1462.92 Q853.109 1462.73 854.127 1462.73 Q859.914 1462.73 863.294 1465.9 Q866.673 1469.08 866.673 1474.49 Q866.673 1480.07 863.201 1483.17 Q859.729 1486.25 853.41 1486.25 Q851.234 1486.25 848.965 1485.88 Q846.72 1485.51 844.312 1484.77 L844.312 1480.07 Q846.396 1481.2 848.618 1481.76 Q850.84 1482.32 853.317 1482.32 Q857.322 1482.32 859.66 1480.21 Q861.998 1478.1 861.998 1474.49 Q861.998 1470.88 859.66 1468.77 Q857.322 1466.67 853.317 1466.67 Q851.442 1466.67 849.567 1467.08 Q847.715 1467.5 845.771 1468.38 L845.771 1451.02 Z" fill="#000000" fill-rule="nonzero" fill-opacity="1" /><path clip-path="url(#clip110)" d="M1310.07 1481.64 L1317.71 1481.64 L1317.71 1455.28 L1309.4 1456.95 L1309.4 1452.69 L1317.67 1451.02 L1322.34 1451.02 L1322.34 1481.64 L1329.98 1481.64 L1329.98 1485.58 L1310.07 1485.58 L1310.07 1481.64 Z" fill="#000000" fill-rule="nonzero" fill-opacity="1" /><path clip-path="url(#clip110)" d="M1349.42 1454.1 Q1345.81 1454.1 1343.98 1457.66 Q1342.18 1461.2 1342.18 1468.33 Q1342.18 1475.44 1343.98 1479.01 Q1345.81 1482.55 1349.42 1482.55 Q1353.06 1482.55 1354.86 1479.01 Q1356.69 1475.44 1356.69 1468.33 Q1356.69 1461.2 1354.86 1457.66 Q1353.06 1454.1 1349.42 1454.1 M1349.42 1450.39 Q1355.23 1450.39 1358.29 1455 Q1361.37 1459.58 1361.37 1468.33 Q1361.37 1477.06 1358.29 1481.67 Q1355.23 1486.25 1349.42 1486.25 Q1343.61 1486.25 1340.54 1481.67 Q1337.48 1477.06 1337.48 1468.33 Q1337.48 1459.58 1340.54 1455 Q1343.61 1450.39 1349.42 1450.39 Z" fill="#000000" fill-rule="nonzero" fill-opacity="1" /><path clip-path="url(#clip110)" d="M1790.46 1481.64 L1798.1 1481.64 L1798.1 1455.28 L1789.79 1456.95 L1789.79 1452.69 L1798.05 1451.02 L1802.73 1451.02 L1802.73 1481.64 L1810.37 1481.64 L1810.37 1485.58 L1790.46 1485.58 L1790.46 1481.64 Z" fill="#000000" fill-rule="nonzero" fill-opacity="1" /><path clip-path="url(#clip110)" d="M1819.86 1451.02 L1838.22 1451.02 L1838.22 1454.96 L1824.14 1454.96 L1824.14 1463.43 Q1825.16 1463.08 1826.18 1462.92 Q1827.2 1462.73 1828.22 1462.73 Q1834 1462.73 1837.38 1465.9 Q1840.76 1469.08 1840.76 1474.49 Q1840.76 1480.07 1837.29 1483.17 Q1833.82 1486.25 1827.5 1486.25 Q1825.32 1486.25 1823.05 1485.88 Q1820.81 1485.51 1818.4 1484.77 L1818.4 1480.07 Q1820.49 1481.2 1822.71 1481.76 Q1824.93 1482.32 1827.41 1482.32 Q1831.41 1482.32 1833.75 1480.21 Q1836.09 1478.1 1836.09 1474.49 Q1836.09 1470.88 1833.75 1468.77 Q1831.41 1466.67 1827.41 1466.67 Q1825.53 1466.67 1823.66 1467.08 Q1821.8 1467.5 1819.86 1468.38 L1819.86 1451.02 Z" fill="#000000" fill-rule="nonzero" fill-opacity="1" /><path clip-path="url(#clip110)" d="M2273.94 1481.64 L2290.26 1481.64 L2290.26 1485.58 L2268.32 1485.58 L2268.32 1481.64 Q2270.98 1478.89 2275.56 1474.26 Q2280.17 1469.61 2281.35 1468.27 Q2283.59 1465.74 2284.47 1464.01 Q2285.38 1462.25 2285.38 1460.56 Q2285.38 1457.8 2283.43 1456.07 Q2281.51 1454.33 2278.41 1454.33 Q2276.21 1454.33 2273.76 1455.09 Q2271.33 1455.86 2268.55 1457.41 L2268.55 1452.69 Q2271.37 1451.55 2273.83 1450.97 Q2276.28 1450.39 2278.32 1450.39 Q2283.69 1450.39 2286.88 1453.08 Q2290.08 1455.77 2290.08 1460.26 Q2290.08 1462.39 2289.27 1464.31 Q2288.48 1466.2 2286.37 1468.8 Q2285.79 1469.47 2282.69 1472.69 Q2279.59 1475.88 2273.94 1481.64 Z" fill="#000000" fill-rule="nonzero" fill-opacity="1" /><path clip-path="url(#clip110)" d="M2310.08 1454.1 Q2306.47 1454.1 2304.64 1457.66 Q2302.83 1461.2 2302.83 1468.33 Q2302.83 1475.44 2304.64 1479.01 Q2306.47 1482.55 2310.08 1482.55 Q2313.71 1482.55 2315.52 1479.01 Q2317.34 1475.44 2317.34 1468.33 Q2317.34 1461.2 2315.52 1457.66 Q2313.71 1454.1 2310.08 1454.1 M2310.08 1450.39 Q2315.89 1450.39 2318.94 1455 Q2322.02 1459.58 2322.02 1468.33 Q2322.02 1477.06 2318.94 1481.67 Q2315.89 1486.25 2310.08 1486.25 Q2304.27 1486.25 2301.19 1481.67 Q2298.13 1477.06 2298.13 1468.33 Q2298.13 1459.58 2301.19 1455 Q2304.27 1450.39 2310.08 1450.39 Z" fill="#000000" fill-rule="nonzero" fill-opacity="1" /><path clip-path="url(#clip110)" d="M1334.45 1522.27 L1334.45 1532.4 L1346.51 1532.4 L1346.51 1536.95 L1334.45 1536.95 L1334.45 1556.3 Q1334.45 1560.66 1335.62 1561.9 Q1336.83 1563.14 1340.49 1563.14 L1346.51 1563.14 L1346.51 1568.04 L1340.49 1568.04 Q1333.71 1568.04 1331.14 1565.53 Q1328.56 1562.98 1328.56 1556.3 L1328.56 1536.95 L1324.26 1536.95 L1324.26 1532.4 L1328.56 1532.4 L1328.56 1522.27 L1334.45 1522.27 Z" fill="#000000" fill-rule="nonzero" fill-opacity="1" /><polyline clip-path="url(#clip110)" style="stroke:#000000; stroke-linecap:round; stroke-linejoin:round; stroke-width:4; stroke-opacity:1; fill:none" points="318.014,1423.18 318.014,47.2441 "/>
<polyline clip-path="url(#clip110)" style="stroke:#000000; stroke-linecap:round; stroke-linejoin:round; stroke-width:4; stroke-opacity:1; fill:none" points="318.014,1230.4 336.912,1230.4 "/>
<polyline clip-path="url(#clip110)" style="stroke:#000000; stroke-linecap:round; stroke-linejoin:round; stroke-width:4; stroke-opacity:1; fill:none" points="318.014,982.808 336.912,982.808 "/>
<polyline clip-path="url(#clip110)" style="stroke:#000000; stroke-linecap:round; stroke-linejoin:round; stroke-width:4; stroke-opacity:1; fill:none" points="318.014,735.212 336.912,735.212 "/>
<polyline clip-path="url(#clip110)" style="stroke:#000000; stroke-linecap:round; stroke-linejoin:round; stroke-width:4; stroke-opacity:1; fill:none" points="318.014,487.616 336.912,487.616 "/>
<polyline clip-path="url(#clip110)" style="stroke:#000000; stroke-linecap:round; stroke-linejoin:round; stroke-width:4; stroke-opacity:1; fill:none" points="318.014,240.019 336.912,240.019 "/>
<path clip-path="url(#clip110)" d="M114.26 1230.86 L143.936 1230.86 L143.936 1234.79 L114.26 1234.79 L114.26 1230.86 Z" fill="#000000" fill-rule="nonzero" fill-opacity="1" /><path clip-path="url(#clip110)" d="M164.028 1216.2 Q160.417 1216.2 158.589 1219.77 Q156.783 1223.31 156.783 1230.44 Q156.783 1237.55 158.589 1241.11 Q160.417 1244.65 164.028 1244.65 Q167.663 1244.65 169.468 1241.11 Q171.297 1237.55 171.297 1230.44 Q171.297 1223.31 169.468 1219.77 Q167.663 1216.2 164.028 1216.2 M164.028 1212.5 Q169.839 1212.5 172.894 1217.11 Q175.973 1221.69 175.973 1230.44 Q175.973 1239.17 172.894 1243.77 Q169.839 1248.36 164.028 1248.36 Q158.218 1248.36 155.14 1243.77 Q152.084 1239.17 152.084 1230.44 Q152.084 1221.69 155.14 1217.11 Q158.218 1212.5 164.028 1212.5 Z" fill="#000000" fill-rule="nonzero" fill-opacity="1" /><path clip-path="url(#clip110)" d="M184.19 1241.81 L189.075 1241.81 L189.075 1247.68 L184.19 1247.68 L184.19 1241.81 Z" fill="#000000" fill-rule="nonzero" fill-opacity="1" /><path clip-path="url(#clip110)" d="M209.26 1216.2 Q205.649 1216.2 203.82 1219.77 Q202.014 1223.31 202.014 1230.44 Q202.014 1237.55 203.82 1241.11 Q205.649 1244.65 209.26 1244.65 Q212.894 1244.65 214.699 1241.11 Q216.528 1237.55 216.528 1230.44 Q216.528 1223.31 214.699 1219.77 Q212.894 1216.2 209.26 1216.2 M209.26 1212.5 Q215.07 1212.5 218.125 1217.11 Q221.204 1221.69 221.204 1230.44 Q221.204 1239.17 218.125 1243.77 Q215.07 1248.36 209.26 1248.36 Q203.449 1248.36 200.371 1243.77 Q197.315 1239.17 197.315 1230.44 Q197.315 1221.69 200.371 1217.11 Q203.449 1212.5 209.26 1212.5 Z" fill="#000000" fill-rule="nonzero" fill-opacity="1" /><path clip-path="url(#clip110)" d="M239.422 1216.2 Q235.81 1216.2 233.982 1219.77 Q232.176 1223.31 232.176 1230.44 Q232.176 1237.55 233.982 1241.11 Q235.81 1244.65 239.422 1244.65 Q243.056 1244.65 244.861 1241.11 Q246.69 1237.55 246.69 1230.44 Q246.69 1223.31 244.861 1219.77 Q243.056 1216.2 239.422 1216.2 M239.422 1212.5 Q245.232 1212.5 248.287 1217.11 Q251.366 1221.69 251.366 1230.44 Q251.366 1239.17 248.287 1243.77 Q245.232 1248.36 239.422 1248.36 Q233.611 1248.36 230.533 1243.77 Q227.477 1239.17 227.477 1230.44 Q227.477 1221.69 230.533 1217.11 Q233.611 1212.5 239.422 1212.5 Z" fill="#000000" fill-rule="nonzero" fill-opacity="1" /><path clip-path="url(#clip110)" d="M272.431 1217.2 L260.625 1235.65 L272.431 1235.65 L272.431 1217.2 M271.204 1213.12 L277.083 1213.12 L277.083 1235.65 L282.014 1235.65 L282.014 1239.54 L277.083 1239.54 L277.083 1247.68 L272.431 1247.68 L272.431 1239.54 L256.829 1239.54 L256.829 1235.02 L271.204 1213.12 Z" fill="#000000" fill-rule="nonzero" fill-opacity="1" /><path clip-path="url(#clip110)" d="M116.343 983.26 L146.019 983.26 L146.019 987.195 L116.343 987.195 L116.343 983.26 Z" fill="#000000" fill-rule="nonzero" fill-opacity="1" /><path clip-path="url(#clip110)" d="M166.112 968.607 Q162.501 968.607 160.672 972.172 Q158.866 975.713 158.866 982.843 Q158.866 989.95 160.672 993.514 Q162.501 997.056 166.112 997.056 Q169.746 997.056 171.552 993.514 Q173.38 989.95 173.38 982.843 Q173.38 975.713 171.552 972.172 Q169.746 968.607 166.112 968.607 M166.112 964.903 Q171.922 964.903 174.977 969.51 Q178.056 974.093 178.056 982.843 Q178.056 991.57 174.977 996.176 Q171.922 1000.76 166.112 1000.76 Q160.302 1000.76 157.223 996.176 Q154.167 991.57 154.167 982.843 Q154.167 974.093 157.223 969.51 Q160.302 964.903 166.112 964.903 Z" fill="#000000" fill-rule="nonzero" fill-opacity="1" /><path clip-path="url(#clip110)" d="M186.274 994.209 L191.158 994.209 L191.158 1000.09 L186.274 1000.09 L186.274 994.209 Z" fill="#000000" fill-rule="nonzero" fill-opacity="1" /><path clip-path="url(#clip110)" d="M211.343 968.607 Q207.732 968.607 205.903 972.172 Q204.098 975.713 204.098 982.843 Q204.098 989.95 205.903 993.514 Q207.732 997.056 211.343 997.056 Q214.977 997.056 216.783 993.514 Q218.611 989.95 218.611 982.843 Q218.611 975.713 216.783 972.172 Q214.977 968.607 211.343 968.607 M211.343 964.903 Q217.153 964.903 220.209 969.51 Q223.287 974.093 223.287 982.843 Q223.287 991.57 220.209 996.176 Q217.153 1000.76 211.343 1000.76 Q205.533 1000.76 202.454 996.176 Q199.399 991.57 199.399 982.843 Q199.399 974.093 202.454 969.51 Q205.533 964.903 211.343 964.903 Z" fill="#000000" fill-rule="nonzero" fill-opacity="1" /><path clip-path="url(#clip110)" d="M241.505 968.607 Q237.894 968.607 236.065 972.172 Q234.26 975.713 234.26 982.843 Q234.26 989.95 236.065 993.514 Q237.894 997.056 241.505 997.056 Q245.139 997.056 246.945 993.514 Q248.773 989.95 248.773 982.843 Q248.773 975.713 246.945 972.172 Q245.139 968.607 241.505 968.607 M241.505 964.903 Q247.315 964.903 250.371 969.51 Q253.449 974.093 253.449 982.843 Q253.449 991.57 250.371 996.176 Q247.315 1000.76 241.505 1000.76 Q235.695 1000.76 232.616 996.176 Q229.56 991.57 229.56 982.843 Q229.56 974.093 232.616 969.51 Q235.695 964.903 241.505 964.903 Z" fill="#000000" fill-rule="nonzero" fill-opacity="1" /><path clip-path="url(#clip110)" d="M265.695 996.153 L282.014 996.153 L282.014 1000.09 L260.07 1000.09 L260.07 996.153 Q262.732 993.399 267.315 988.769 Q271.921 984.116 273.102 982.774 Q275.347 980.25 276.227 978.514 Q277.13 976.755 277.13 975.065 Q277.13 972.311 275.185 970.575 Q273.264 968.839 270.162 968.839 Q267.963 968.839 265.509 969.602 Q263.079 970.366 260.301 971.917 L260.301 967.195 Q263.125 966.061 265.579 965.482 Q268.032 964.903 270.07 964.903 Q275.44 964.903 278.634 967.589 Q281.829 970.274 281.829 974.764 Q281.829 976.894 281.019 978.815 Q280.231 980.713 278.125 983.306 Q277.546 983.977 274.444 987.195 Q271.343 990.389 265.695 996.153 Z" fill="#000000" fill-rule="nonzero" fill-opacity="1" /><path clip-path="url(#clip110)" d="M164.515 721.011 Q160.903 721.011 159.075 724.575 Q157.269 728.117 157.269 735.247 Q157.269 742.353 159.075 745.918 Q160.903 749.46 164.515 749.46 Q168.149 749.46 169.954 745.918 Q171.783 742.353 171.783 735.247 Q171.783 728.117 169.954 724.575 Q168.149 721.011 164.515 721.011 M164.515 717.307 Q170.325 717.307 173.38 721.913 Q176.459 726.497 176.459 735.247 Q176.459 743.973 173.38 748.58 Q170.325 753.163 164.515 753.163 Q158.704 753.163 155.626 748.58 Q152.57 743.973 152.57 735.247 Q152.57 726.497 155.626 721.913 Q158.704 717.307 164.515 717.307 Z" fill="#000000" fill-rule="nonzero" fill-opacity="1" /><path clip-path="url(#clip110)" d="M184.676 746.612 L189.561 746.612 L189.561 752.492 L184.676 752.492 L184.676 746.612 Z" fill="#000000" fill-rule="nonzero" fill-opacity="1" /><path clip-path="url(#clip110)" d="M209.746 721.011 Q206.135 721.011 204.306 724.575 Q202.5 728.117 202.5 735.247 Q202.5 742.353 204.306 745.918 Q206.135 749.46 209.746 749.46 Q213.38 749.46 215.186 745.918 Q217.014 742.353 217.014 735.247 Q217.014 728.117 215.186 724.575 Q213.38 721.011 209.746 721.011 M209.746 717.307 Q215.556 717.307 218.611 721.913 Q221.69 726.497 221.69 735.247 Q221.69 743.973 218.611 748.58 Q215.556 753.163 209.746 753.163 Q203.936 753.163 200.857 748.58 Q197.801 743.973 197.801 735.247 Q197.801 726.497 200.857 721.913 Q203.936 717.307 209.746 717.307 Z" fill="#000000" fill-rule="nonzero" fill-opacity="1" /><path clip-path="url(#clip110)" d="M239.908 721.011 Q236.297 721.011 234.468 724.575 Q232.662 728.117 232.662 735.247 Q232.662 742.353 234.468 745.918 Q236.297 749.46 239.908 749.46 Q243.542 749.46 245.347 745.918 Q247.176 742.353 247.176 735.247 Q247.176 728.117 245.347 724.575 Q243.542 721.011 239.908 721.011 M239.908 717.307 Q245.718 717.307 248.773 721.913 Q251.852 726.497 251.852 735.247 Q251.852 743.973 248.773 748.58 Q245.718 753.163 239.908 753.163 Q234.097 753.163 231.019 748.58 Q227.963 743.973 227.963 735.247 Q227.963 726.497 231.019 721.913 Q234.097 717.307 239.908 717.307 Z" fill="#000000" fill-rule="nonzero" fill-opacity="1" /><path clip-path="url(#clip110)" d="M270.07 721.011 Q266.458 721.011 264.63 724.575 Q262.824 728.117 262.824 735.247 Q262.824 742.353 264.63 745.918 Q266.458 749.46 270.07 749.46 Q273.704 749.46 275.509 745.918 Q277.338 742.353 277.338 735.247 Q277.338 728.117 275.509 724.575 Q273.704 721.011 270.07 721.011 M270.07 717.307 Q275.88 717.307 278.935 721.913 Q282.014 726.497 282.014 735.247 Q282.014 743.973 278.935 748.58 Q275.88 753.163 270.07 753.163 Q264.259 753.163 261.181 748.58 Q258.125 743.973 258.125 735.247 Q258.125 726.497 261.181 721.913 Q264.259 717.307 270.07 717.307 Z" fill="#000000" fill-rule="nonzero" fill-opacity="1" /><path clip-path="url(#clip110)" d="M166.112 473.414 Q162.501 473.414 160.672 476.979 Q158.866 480.521 158.866 487.65 Q158.866 494.757 160.672 498.322 Q162.501 501.863 166.112 501.863 Q169.746 501.863 171.552 498.322 Q173.38 494.757 173.38 487.65 Q173.38 480.521 171.552 476.979 Q169.746 473.414 166.112 473.414 M166.112 469.711 Q171.922 469.711 174.977 474.317 Q178.056 478.9 178.056 487.65 Q178.056 496.377 174.977 500.984 Q171.922 505.567 166.112 505.567 Q160.302 505.567 157.223 500.984 Q154.167 496.377 154.167 487.65 Q154.167 478.9 157.223 474.317 Q160.302 469.711 166.112 469.711 Z" fill="#000000" fill-rule="nonzero" fill-opacity="1" /><path clip-path="url(#clip110)" d="M186.274 499.016 L191.158 499.016 L191.158 504.896 L186.274 504.896 L186.274 499.016 Z" fill="#000000" fill-rule="nonzero" fill-opacity="1" /><path clip-path="url(#clip110)" d="M211.343 473.414 Q207.732 473.414 205.903 476.979 Q204.098 480.521 204.098 487.65 Q204.098 494.757 205.903 498.322 Q207.732 501.863 211.343 501.863 Q214.977 501.863 216.783 498.322 Q218.611 494.757 218.611 487.65 Q218.611 480.521 216.783 476.979 Q214.977 473.414 211.343 473.414 M211.343 469.711 Q217.153 469.711 220.209 474.317 Q223.287 478.9 223.287 487.65 Q223.287 496.377 220.209 500.984 Q217.153 505.567 211.343 505.567 Q205.533 505.567 202.454 500.984 Q199.399 496.377 199.399 487.65 Q199.399 478.9 202.454 474.317 Q205.533 469.711 211.343 469.711 Z" fill="#000000" fill-rule="nonzero" fill-opacity="1" /><path clip-path="url(#clip110)" d="M241.505 473.414 Q237.894 473.414 236.065 476.979 Q234.26 480.521 234.26 487.65 Q234.26 494.757 236.065 498.322 Q237.894 501.863 241.505 501.863 Q245.139 501.863 246.945 498.322 Q248.773 494.757 248.773 487.65 Q248.773 480.521 246.945 476.979 Q245.139 473.414 241.505 473.414 M241.505 469.711 Q247.315 469.711 250.371 474.317 Q253.449 478.9 253.449 487.65 Q253.449 496.377 250.371 500.984 Q247.315 505.567 241.505 505.567 Q235.695 505.567 232.616 500.984 Q229.56 496.377 229.56 487.65 Q229.56 478.9 232.616 474.317 Q235.695 469.711 241.505 469.711 Z" fill="#000000" fill-rule="nonzero" fill-opacity="1" /><path clip-path="url(#clip110)" d="M265.695 500.96 L282.014 500.96 L282.014 504.896 L260.07 504.896 L260.07 500.96 Q262.732 498.206 267.315 493.576 Q271.921 488.923 273.102 487.581 Q275.347 485.058 276.227 483.322 Q277.13 481.562 277.13 479.873 Q277.13 477.118 275.185 475.382 Q273.264 473.646 270.162 473.646 Q267.963 473.646 265.509 474.41 Q263.079 475.174 260.301 476.724 L260.301 472.002 Q263.125 470.868 265.579 470.289 Q268.032 469.711 270.07 469.711 Q275.44 469.711 278.634 472.396 Q281.829 475.081 281.829 479.572 Q281.829 481.701 281.019 483.623 Q280.231 485.521 278.125 488.113 Q277.546 488.785 274.444 492.002 Q271.343 495.197 265.695 500.96 Z" fill="#000000" fill-rule="nonzero" fill-opacity="1" /><path clip-path="url(#clip110)" d="M164.028 225.818 Q160.417 225.818 158.589 229.383 Q156.783 232.924 156.783 240.054 Q156.783 247.16 158.589 250.725 Q160.417 254.267 164.028 254.267 Q167.663 254.267 169.468 250.725 Q171.297 247.16 171.297 240.054 Q171.297 232.924 169.468 229.383 Q167.663 225.818 164.028 225.818 M164.028 222.114 Q169.839 222.114 172.894 226.721 Q175.973 231.304 175.973 240.054 Q175.973 248.781 172.894 253.387 Q169.839 257.97 164.028 257.97 Q158.218 257.97 155.14 253.387 Q152.084 248.781 152.084 240.054 Q152.084 231.304 155.14 226.721 Q158.218 222.114 164.028 222.114 Z" fill="#000000" fill-rule="nonzero" fill-opacity="1" /><path clip-path="url(#clip110)" d="M184.19 251.42 L189.075 251.42 L189.075 257.299 L184.19 257.299 L184.19 251.42 Z" fill="#000000" fill-rule="nonzero" fill-opacity="1" /><path clip-path="url(#clip110)" d="M209.26 225.818 Q205.649 225.818 203.82 229.383 Q202.014 232.924 202.014 240.054 Q202.014 247.16 203.82 250.725 Q205.649 254.267 209.26 254.267 Q212.894 254.267 214.699 250.725 Q216.528 247.16 216.528 240.054 Q216.528 232.924 214.699 229.383 Q212.894 225.818 209.26 225.818 M209.26 222.114 Q215.07 222.114 218.125 226.721 Q221.204 231.304 221.204 240.054 Q221.204 248.781 218.125 253.387 Q215.07 257.97 209.26 257.97 Q203.449 257.97 200.371 253.387 Q197.315 248.781 197.315 240.054 Q197.315 231.304 200.371 226.721 Q203.449 222.114 209.26 222.114 Z" fill="#000000" fill-rule="nonzero" fill-opacity="1" /><path clip-path="url(#clip110)" d="M239.422 225.818 Q235.81 225.818 233.982 229.383 Q232.176 232.924 232.176 240.054 Q232.176 247.16 233.982 250.725 Q235.81 254.267 239.422 254.267 Q243.056 254.267 244.861 250.725 Q246.69 247.16 246.69 240.054 Q246.69 232.924 244.861 229.383 Q243.056 225.818 239.422 225.818 M239.422 222.114 Q245.232 222.114 248.287 226.721 Q251.366 231.304 251.366 240.054 Q251.366 248.781 248.287 253.387 Q245.232 257.97 239.422 257.97 Q233.611 257.97 230.533 253.387 Q227.477 248.781 227.477 240.054 Q227.477 231.304 230.533 226.721 Q233.611 222.114 239.422 222.114 Z" fill="#000000" fill-rule="nonzero" fill-opacity="1" /><path clip-path="url(#clip110)" d="M272.431 226.813 L260.625 245.262 L272.431 245.262 L272.431 226.813 M271.204 222.739 L277.083 222.739 L277.083 245.262 L282.014 245.262 L282.014 249.151 L277.083 249.151 L277.083 257.299 L272.431 257.299 L272.431 249.151 L256.829 249.151 L256.829 244.637 L271.204 222.739 Z" fill="#000000" fill-rule="nonzero" fill-opacity="1" /><path clip-path="url(#clip110)" d="M44.7161 746.654 L47.5806 746.654 L47.5806 773.581 Q53.6281 773.199 56.8109 769.953 Q59.9619 766.674 59.9619 760.85 Q59.9619 757.476 59.1344 754.325 Q58.3069 751.142 56.6518 748.023 L62.1899 748.023 Q63.5267 751.174 64.227 754.484 Q64.9272 757.794 64.9272 761.2 Q64.9272 769.73 59.9619 774.727 Q54.9967 779.692 46.5303 779.692 Q37.7774 779.692 32.6531 774.982 Q27.4968 770.239 27.4968 762.218 Q27.4968 755.025 32.1438 750.856 Q36.7589 746.654 44.7161 746.654 M42.9973 752.511 Q38.1912 752.574 35.3266 755.216 Q32.4621 757.826 32.4621 762.155 Q32.4621 767.056 35.2312 770.016 Q38.0002 772.945 43.0292 773.39 L42.9973 752.511 Z" fill="#000000" fill-rule="nonzero" fill-opacity="1" /><path clip-path="url(#clip110)" d="M33.8307 716.385 Q33.2578 717.372 33.0032 718.55 Q32.7167 719.696 32.7167 721.096 Q32.7167 726.061 35.9632 728.735 Q39.1779 731.377 45.2253 731.377 L64.0042 731.377 L64.0042 737.265 L28.3562 737.265 L28.3562 731.377 L33.8944 731.377 Q30.6479 729.531 29.0883 726.571 Q27.4968 723.61 27.4968 719.377 Q27.4968 718.773 27.5923 718.04 Q27.656 717.308 27.8151 716.417 L33.8307 716.385 Z" fill="#000000" fill-rule="nonzero" fill-opacity="1" /><path clip-path="url(#clip110)" d="M33.8307 690.732 Q33.2578 691.718 33.0032 692.896 Q32.7167 694.042 32.7167 695.442 Q32.7167 700.407 35.9632 703.081 Q39.1779 705.723 45.2253 705.723 L64.0042 705.723 L64.0042 711.611 L28.3562 711.611 L28.3562 705.723 L33.8944 705.723 Q30.6479 703.877 29.0883 700.917 Q27.4968 697.957 27.4968 693.723 Q27.4968 693.119 27.5923 692.387 Q27.656 691.655 27.8151 690.763 L33.8307 690.732 Z" fill="#000000" fill-rule="nonzero" fill-opacity="1" /><polyline clip-path="url(#clip111)" style="stroke:#4063d8; stroke-linecap:round; stroke-linejoin:round; stroke-width:4; stroke-opacity:1; fill:none" points="375.601,735.212 377.643,735.211 380.909,735.234 384.306,735.204 388.968,735.344 393.344,735.226 398.808,735.622 403.484,735.427 409.105,735.975 413.581,735.886 418.994,736.201 423.06,736.173 428.751,738.505 432.011,736.845 434.824,738.861 438.132,734.744 440.296,735.589 443.151,734.579 445.221,734.926 448.344,733.082 450.395,733.225 453.57,733.162 456.508,733.975 459.229,733.991 461.948,734.344 464.39,734.23 467.167,734.734 469.661,734.288 472.827,735.382 476.043,735.08 481.153,733.649 484.187,734.113 488.527,734.629 491.76,734.585 496.432,734.738 500.024,734.764 504.86,734.786 509.255,734.835 514.457,734.814 520.072,734.828 526.238,734.812 533.357,734.8 541.331,734.787 550.635,734.767 561.624,734.751 574.707,734.73 590.742,734.711 610.385,734.683 633.033,734.645 655.866,734.609 676.428,734.566 694.917,734.543 716.527,734.479 738.283,734.354 759.328,734.341 780.493,733.986 799.535,734.024 818.088,733.352 834.149,733.088 847.518,732.476 859.865,732.112 869.891,731.284 879.087,730.793 886.814,730.001 893.657,729.182 899.879,728.555 905.052,727.894 910.464,725.82 914.398,724.797 919.716,722.765 923.677,721.842 927.27,720.083 930.96,719.858 934.055,718.386 937.419,718.607 940.149,717.596 943.58,720.417 946.277,720.039 950.967,727.448 953.747,724.033 956.286,726.527 959,729.723 961.27,730.026 964.932,732.222 967.164,732.84 971.736,732.502 976.462,738.44 979.311,737.503 983.251,736.411 986.213,736.763 991.121,736.343 994.184,736.451 999.369,736.506 1003.23,736.469 1008.24,736.52 1013.37,736.509 1018.96,736.543 1025.36,736.565 1032.22,736.595 1040.09,736.634 1048.95,736.676 1058.95,736.727 1070.43,736.79 1083.17,736.86 1096.49,736.954 1108.24,737.028 1123.21,737.147 1139.34,737.334 1155.59,737.474 1172.78,737.88 1188.71,738.026 1204.88,738.832 1219.16,739.077 1233.1,740.393 1245.05,741.238 1254.95,742.51 1264.11,743.735 1271.66,745.312 1278.54,747.052 1284.53,748.733 1289.78,751.053 1294.84,753.033 1298.98,755.568 1305.33,762.03 1308.83,762.916 1311.97,768.408 1314.99,766.262 1316.98,768.169 1319.57,770.605 1321.64,771.254 1325.05,769.943 1326.92,769.448 1330.28,767.241 1333.14,764.928 1335.87,761.277 1338.63,757.355 1341.03,753.881 1343.99,749.931 1346.4,746.832 1349.95,744.158 1353.01,741.381 1357.84,737.461 1360.95,736.607 1364.98,735.58 1368.35,735.074 1372.42,734.638 1376.22,734.388 1380.58,734.17 1385.08,734.042 1390.04,733.931 1395.5,733.858 1401.51,733.798 1408.32,733.749 1416.02,733.706 1424.9,733.664 1435.32,733.62 1447.68,733.571 1462.68,733.512 1481.01,733.438 1502.67,733.332 1525.32,733.219 1546.14,733.08 1563.33,732.987 1584.64,732.807 1606.26,732.537 1627.15,732.372 1648.7,731.746 1667.83,731.601 1686.98,730.454 1703.28,729.963 1717.16,728.737 1729.79,727.922 1740.23,726.284 1749.66,725.023 1757.71,723.141 1764.72,721.325 1771.21,718.985 1776.46,717.381 1782.17,711.698 1786,709.289 1790.9,704.641 1794.63,701 1798.07,697.533 1801.56,693.641 1804.91,690.696 1807.94,687.754 1811.06,686.26 1813.79,685.097 1816.91,686.557 1819.69,688.015 1823.89,695.355 1827.04,698.083 1829.68,704.759 1832.59,707.141 1834.7,711.718 1837.38,716.904 1839.77,720.328 1844.95,727.168 1848.64,730.187 1852.1,731.48 1856.61,736.976 1859.32,736.872 1862.92,736.489 1866.03,737.068 1871.9,737.419 1875.41,737.413 1880.31,737.597 1885.44,737.625 1890.79,737.701 1897.11,737.761 1903.75,737.817 1911.37,737.89 1919.99,737.964 1929.64,738.052 1940.77,738.16 1953.21,738.286 1966.51,738.444 1979.02,738.599 1993.15,738.802 2009.22,739.092 2025.57,739.424 2042.46,739.901 2058.84,740.447 2074.77,741.248 2089.62,742.17 2103.45,743.556 2115.94,745.075 2127.23,747.517 2136.14,749.569 2144.72,752.558 2151.5,755.646 2157.96,759.11 2163.37,763.465 2168.36,767.285 2173.47,774.082 2177.77,779.831 2181.44,784.171 2184.18,788.921 2187.41,792.209 2189.88,796.75 2192.98,796.47 2195.06,798.398 2198.14,798.272 2200.32,797.108 2204,792.743 2207.01,787.656 2209.77,781.153 2212.74,771.8 2215.11,766.314 2218.37,759.663 2220.53,755.049 2224.11,749.229 2227.1,745.095 2231.05,740.866 2234.28,738.7 2237.9,736.877 2241.39,735.713 2245.13,734.825 2249.03,734.218 2253.18,733.775 2257.67,733.47 2262.52,733.247 2267.86,733.105 2273.78,732.972 2280.41,732.929 2287.94,732.785 2295.17,732.851 "/>
<polyline clip-path="url(#clip111)" style="stroke:#389826; stroke-linecap:round; stroke-linejoin:round; stroke-width:4; stroke-opacity:1; fill:none" points="375.601,735.212 377.643,735.212 380.909,735.21 384.306,735.212 388.968,735.205 393.344,735.204 398.808,735.202 403.484,735.179 409.105,735.231 413.581,735.142 418.994,735.381 423.06,735.26 428.751,735.595 432.011,735.323 434.824,735.429 438.132,735.092 440.296,735.204 443.151,734.883 445.221,734.987 448.344,734.71 450.395,734.775 453.57,734.683 456.508,734.811 459.229,734.749 461.948,734.721 464.39,734.745 467.167,734.667 469.661,734.712 472.827,734.668 476.043,734.773 481.153,734.05 484.187,734.224 488.527,733.854 491.76,733.96 496.432,733.748 500.024,733.802 504.86,733.746 509.255,733.763 514.457,733.756 520.072,733.759 526.238,733.761 533.357,733.764 541.331,733.767 550.635,733.772 561.624,733.778 574.707,733.786 590.742,733.795 610.385,733.808 633.033,733.832 655.866,733.858 676.428,733.892 694.917,733.913 716.527,733.958 738.283,734.003 759.328,734.078 780.493,734.113 799.535,734.257 818.088,734.224 834.149,734.475 847.518,734.44 859.865,734.766 869.891,734.691 879.087,735.084 886.814,734.941 893.657,735.322 899.879,735.155 905.052,735.399 910.464,735.44 914.398,735.614 919.716,735.745 923.677,736.023 927.27,736.115 930.96,736.473 934.055,736.518 937.419,737.017 940.149,737.002 943.58,737.726 946.277,737.688 950.967,738.57 953.747,738.271 956.286,738.585 959,738.509 961.27,738.604 964.932,738.499 967.164,738.567 971.736,738.233 976.462,739.141 979.311,738.953 983.251,739.161 986.213,739.104 991.121,739.286 994.184,739.255 999.369,739.311 1003.23,739.293 1008.24,739.291 1013.37,739.281 1018.96,739.271 1025.36,739.259 1032.22,739.246 1040.09,739.229 1048.95,739.209 1058.95,739.186 1070.43,739.156 1083.17,739.122 1096.49,739.077 1108.24,739.038 1123.21,738.977 1139.34,738.902 1155.59,738.81 1172.78,738.702 1188.71,738.556 1204.88,738.437 1219.16,738.205 1233.1,738.104 1245.05,737.729 1254.95,737.643 1264.11,737.194 1271.66,737.147 1278.54,736.649 1284.53,736.682 1289.78,736.163 1294.84,736.279 1298.98,735.844 1305.33,735.839 1308.83,735.218 1311.97,735.046 1314.99,734.474 1316.98,734.348 1319.57,733.799 1321.64,733.624 1325.05,732.937 1326.92,732.743 1330.28,732.221 1333.14,732.05 1335.87,731.675 1338.63,731.495 1341.03,731.293 1343.99,731.126 1346.4,731.006 1349.95,730.873 1353.01,730.828 1357.84,730.398 1360.95,730.45 1364.98,730.306 1368.35,730.33 1372.42,730.286 1376.22,730.294 1380.58,730.286 1385.08,730.29 1390.04,730.294 1395.5,730.3 1401.51,730.309 1408.32,730.32 1416.02,730.334 1424.9,730.351 1435.32,730.373 1447.68,730.401 1462.68,730.437 1481.01,730.483 1502.67,730.552 1525.32,730.631 1546.14,730.727 1563.33,730.797 1584.64,730.914 1606.26,731.046 1627.15,731.212 1648.7,731.378 1667.83,731.64 1686.98,731.775 1703.28,732.2 1717.16,732.287 1729.79,732.811 1740.23,732.84 1749.66,733.437 1757.71,733.397 1764.72,733.973 1771.21,733.965 1776.46,734.361 1782.17,734.742 1786,735.079 1790.9,735.559 1794.63,735.969 1798.07,736.426 1801.56,736.879 1804.91,737.432 1807.94,737.868 1811.06,738.498 1813.79,738.881 1816.91,739.653 1819.69,740.022 1823.89,740.983 1827.04,741.071 1829.68,741.555 1832.59,741.624 1834.7,741.91 1837.38,741.968 1839.77,742.182 1844.95,742.002 1848.64,742.448 1852.1,742.285 1856.61,742.934 1859.32,742.839 1862.92,742.879 1866.03,742.875 1871.9,742.921 1875.41,742.906 1880.31,742.894 1885.44,742.88 1890.79,742.861 1897.11,742.839 1903.75,742.815 1911.37,742.785 1919.99,742.748 1929.64,742.706 1940.77,742.651 1953.21,742.588 1966.51,742.508 1979.02,742.429 1993.15,742.327 2009.22,742.193 2025.57,742.035 2042.46,741.841 2058.84,741.616 2074.77,741.352 2089.62,741.055 2103.45,740.705 2115.94,740.348 2127.23,739.876 2136.14,739.519 2144.72,738.985 2151.5,738.606 2157.96,738.058 2163.37,737.619 2168.36,737.087 2173.47,736.479 2177.77,735.94 2181.44,735.193 2184.18,734.778 2187.41,733.993 2189.88,733.546 2192.98,732.719 2195.06,732.326 2198.14,731.428 2200.32,731.006 2204,730.022 2207.01,729.693 2209.77,729.021 2212.74,728.839 2215.11,728.468 2218.37,728.299 2220.53,728.099 2224.11,727.912 2227.1,727.773 2231.05,727.616 2234.28,727.558 2237.9,727.504 2241.39,727.475 2245.13,727.456 2249.03,727.445 2253.18,727.443 2257.67,727.444 2262.52,727.451 2267.86,727.459 2273.78,727.476 2280.41,727.49 2287.94,727.514 2295.17,727.536 "/>
<path clip-path="url(#clip111)" d="M375.601 735.212 L377.643 735.219 L380.909 735.317 L384.306 735.444 L388.968 736.252 L393.344 736.412 L398.808 739 L403.484 738.636 L409.105 743.329 L413.581 742.675 L418.994 747.221 L423.06 748.035 L428.751 752.714 L432.011 754.253 L434.824 756.362 L438.132 759.516 L440.296 760.5 L443.151 764.207 L445.221 764.244 L448.344 768.624 L450.395 767.592 L453.57 767.946 L456.508 765.398 L459.229 763.56 L461.948 761.622 L464.39 757.657 L467.167 756.074 L469.661 752.095 L472.827 749.801 L476.043 746.911 L481.153 752.45 L484.187 747.271 L488.527 751.109 L491.76 746.581 L496.432 749.447 L500.024 746.17 L504.86 746.954 L509.255 745.724 L514.457 745.831 L520.072 745.758 L526.238 745.809 L533.357 745.944 L541.331 746.072 L550.635 746.255 L561.624 746.488 L574.707 746.789 L590.742 747.195 L610.385 747.746 L633.033 748.471 L655.866 749.316 L676.428 750.189 L694.917 751.102 L716.527 752.442 L738.283 754.16 L759.328 756.284 L780.493 759.507 L799.535 762.949 L818.088 768.723 L834.149 774.017 L847.518 780.111 L859.865 788.826 L869.891 797.602 L879.087 809.451 L886.814 822.58 L893.657 837.906 L899.879 856.305 L905.052 875.267 L910.464 900.292 L914.398 921.849 L919.716 956.31 L923.677 985.277 L927.27 1013.13 L930.96 1041.27 L934.055 1062.08 L937.419 1079.1 L940.149 1085.6 L943.58 1082.56 L946.277 1069.59 L950.967 1028.24 L953.747 993.539 L956.286 959.809 L959 923.195 L961.27 893.913 L964.932 852.275 L967.164 830.336 L971.736 795.031 L976.462 770.721 L979.311 760.043 L983.251 752.554 L986.213 748.103 L991.121 750.467 L994.184 749.358 L999.369 751.95 L1003.23 751.879 L1008.24 752.932 L1013.37 753.544 L1018.96 754.162 L1025.36 754.75 L1032.22 755.253 L1040.09 755.792 L1048.95 756.373 L1058.95 757.045 L1070.43 757.865 L1083.17 758.86 L1096.49 760.02 L1108.24 761.165 L1123.21 762.84 L1139.34 764.989 L1155.59 767.626 L1172.78 771.244 L1188.71 775.468 L1204.88 781.606 L1219.16 788.377 L1233.1 798.539 L1245.05 809.269 L1254.95 821.814 L1264.11 838.086 L1271.66 855.849 L1278.54 877.642 L1284.53 902.34 L1289.78 929.754 L1294.84 962.702 L1298.98 995.168 L1305.33 1055.36 L1308.83 1092.82 L1311.97 1127.55 L1314.99 1159.76 L1316.98 1178.79 L1319.57 1199.13 L1321.64 1209.97 L1325.05 1214.24 L1326.92 1207.62 L1330.28 1179.47 L1333.14 1140.04 L1335.87 1092.97 L1338.63 1040.48 L1341.03 994.052 L1343.99 940.541 L1346.4 901.056 L1349.95 852.828 L1353.01 819.861 L1357.84 784.799 L1360.95 767.785 L1364.98 756.434 L1368.35 748.565 L1372.42 747.771 L1376.22 747.403 L1380.58 749.228 L1385.08 750.393 L1390.04 751.481 L1395.5 752.272 L1401.51 752.839 L1408.32 753.297 L1416.02 753.681 L1424.9 754.06 L1435.32 754.48 L1447.68 754.987 L1462.68 755.638 L1481.01 756.507 L1502.67 757.66 L1525.32 759.046 L1546.14 760.517 L1563.33 761.913 L1584.64 763.985 L1606.26 766.578 L1627.15 769.712 L1648.7 774.171 L1667.83 779.117 L1686.98 786.766 L1703.28 794.606 L1717.16 804.179 L1729.79 816.418 L1740.23 830.114 L1749.66 847.243 L1757.71 867.014 L1764.72 889.597 L1771.21 917.126 L1776.46 945.093 L1782.17 983.523 L1786 1014.38 L1790.9 1060.85 L1794.63 1101.25 L1798.07 1141.75 L1801.56 1184.08 L1804.91 1223.28 L1807.94 1253.93 L1811.06 1276.76 L1813.79 1285.66 L1816.91 1280 L1819.69 1258.7 L1823.89 1200.09 L1827.04 1139.98 L1829.68 1084.4 L1832.59 1023.1 L1834.7 980.42 L1837.38 931.144 L1839.77 892.506 L1844.95 827.247 L1848.64 794.417 L1852.1 772.038 L1856.61 755.982 L1859.32 748.232 L1862.92 747.155 L1866.03 748.465 L1871.9 755.563 L1875.41 756.177 L1880.31 758.246 L1885.44 759.586 L1890.79 760.686 L1897.11 761.694 L1903.75 762.486 L1911.37 763.273 L1919.99 764.085 L1929.64 764.985 L1940.77 766.068 L1953.21 767.376 L1966.51 768.926 L1979.02 770.559 L1993.15 772.662 L2009.22 775.479 L2025.57 778.95 L2042.46 783.463 L2058.84 789.088 L2074.77 796.388 L2089.62 805.539 L2103.45 817.367 L2115.94 832.126 L2127.23 850.927 L2136.14 870.795 L2144.72 898.162 L2151.5 926.428 L2157.96 962.454 L2163.37 1000.98 L2168.36 1045.37 L2173.47 1101.03 L2177.77 1156.29 L2181.44 1208.72 L2184.18 1249.66 L2187.41 1297.2 L2189.88 1330.36 L2192.98 1364 L2195.06 1378.51 L2198.14 1384.24 L2200.32 1374.38 L2204 1330.7 L2207.01 1271.73 L2209.77 1205.44 L2212.74 1128.07 L2215.11 1066.86 L2218.37 989.355 L2220.53 943.671 L2224.11 881.253 L2227.1 840.192 L2231.05 800.922 L2234.28 777.723 L2237.9 760.672 L2241.39 750.259 L2245.13 746.905 L2249.03 748.28 L2253.18 750.923 L2257.67 753.261 L2262.52 754.981 L2267.86 756.234 L2273.78 757.122 L2280.41 757.788 L2287.94 758.345 L2295.17 758.788 L2295.17 711.636 L2287.94 712.079 L2280.41 712.636 L2273.78 713.302 L2267.86 714.19 L2262.52 715.443 L2257.67 717.163 L2253.18 719.501 L2249.03 722.144 L2245.13 723.519 L2241.39 720.165 L2237.9 709.752 L2234.28 692.701 L2231.05 669.502 L2227.1 630.232 L2224.11 589.171 L2220.53 526.753 L2218.37 481.069 L2215.11 403.567 L2212.74 342.358 L2209.77 264.983 L2207.01 198.693 L2204 139.719 L2200.32 96.0477 L2198.14 86.1857 L2195.06 91.9111 L2192.98 106.423 L2189.88 140.066 L2187.41 173.228 L2184.18 220.761 L2181.44 261.702 L2177.77 314.138 L2173.47 369.397 L2168.36 425.05 L2163.37 469.446 L2157.96 507.97 L2151.5 543.996 L2144.72 572.262 L2136.14 599.629 L2127.23 619.497 L2115.94 638.298 L2103.45 653.057 L2089.62 664.885 L2074.77 674.036 L2058.84 681.336 L2042.46 686.961 L2025.57 691.474 L2009.22 694.945 L1993.15 697.762 L1979.02 699.865 L1966.51 701.498 L1953.21 703.048 L1940.77 704.356 L1929.64 705.439 L1919.99 706.339 L1911.37 707.151 L1903.75 707.938 L1897.11 708.73 L1890.79 709.738 L1885.44 710.838 L1880.31 712.178 L1875.41 714.247 L1871.9 714.861 L1866.03 721.959 L1862.92 723.269 L1859.32 722.192 L1856.61 714.441 L1852.1 698.386 L1848.64 676.007 L1844.95 643.177 L1839.77 577.918 L1837.38 539.28 L1834.7 490.004 L1832.59 447.325 L1829.68 386.021 L1827.04 330.448 L1823.89 270.335 L1819.69 211.72 L1816.91 190.425 L1813.79 184.767 L1811.06 193.661 L1807.94 216.499 L1804.91 247.14 L1801.56 286.347 L1798.07 328.672 L1794.63 369.174 L1790.9 409.571 L1786 456.044 L1782.17 486.901 L1776.46 525.331 L1771.21 553.298 L1764.72 580.827 L1757.71 603.41 L1749.66 623.181 L1740.23 640.31 L1729.79 654.006 L1717.16 666.244 L1703.28 675.818 L1686.98 683.658 L1667.83 691.307 L1648.7 696.253 L1627.15 700.712 L1606.26 703.846 L1584.64 706.439 L1563.33 708.51 L1546.14 709.907 L1525.32 711.378 L1502.67 712.764 L1481.01 713.917 L1462.68 714.786 L1447.68 715.437 L1435.32 715.944 L1424.9 716.364 L1416.02 716.743 L1408.32 717.127 L1401.51 717.584 L1395.5 718.152 L1390.04 718.943 L1385.08 720.031 L1380.58 721.196 L1376.22 723.021 L1372.42 722.653 L1368.35 721.859 L1364.98 713.99 L1360.95 702.639 L1357.84 685.625 L1353.01 650.563 L1349.95 617.596 L1346.4 569.368 L1343.99 529.883 L1341.03 476.372 L1338.63 429.949 L1335.87 377.454 L1333.14 330.382 L1330.28 290.959 L1326.92 262.807 L1325.05 256.189 L1321.64 260.455 L1319.57 271.291 L1316.98 291.636 L1314.99 310.665 L1311.97 342.873 L1308.83 377.605 L1305.33 415.061 L1298.98 475.256 L1294.84 507.722 L1289.78 540.67 L1284.53 568.084 L1278.54 592.782 L1271.66 614.575 L1264.11 632.338 L1254.95 648.61 L1245.05 661.155 L1233.1 671.885 L1219.16 682.047 L1204.88 688.818 L1188.71 694.956 L1172.78 699.18 L1155.59 702.798 L1139.34 705.435 L1123.21 707.584 L1108.24 709.259 L1096.49 710.404 L1083.17 711.564 L1070.43 712.559 L1058.95 713.379 L1048.95 714.051 L1040.09 714.632 L1032.22 715.17 L1025.36 715.674 L1018.96 716.262 L1013.37 716.88 L1008.24 717.492 L1003.23 718.545 L999.369 718.474 L994.184 721.066 L991.121 719.957 L986.213 722.321 L983.251 717.87 L979.311 710.381 L976.462 699.703 L971.736 675.393 L967.164 640.088 L964.932 618.149 L961.27 576.511 L959 547.229 L956.286 510.615 L953.747 476.885 L950.967 442.187 L946.277 400.836 L943.58 387.864 L940.149 384.821 L937.419 391.324 L934.055 408.347 L930.96 429.151 L927.27 457.293 L923.677 485.147 L919.716 514.114 L914.398 548.575 L910.464 570.132 L905.052 595.157 L899.879 614.118 L893.657 632.518 L886.814 647.844 L879.087 660.973 L869.891 672.822 L859.865 681.598 L847.518 690.313 L834.149 696.406 L818.088 701.701 L799.535 707.475 L780.493 710.917 L759.328 714.14 L738.283 716.264 L716.527 717.982 L694.917 719.322 L676.428 720.235 L655.866 721.108 L633.033 721.953 L610.385 722.678 L590.742 723.229 L574.707 723.635 L561.624 723.936 L550.635 724.169 L541.331 724.352 L533.357 724.48 L526.238 724.615 L520.072 724.665 L514.457 724.593 L509.255 724.7 L504.86 723.47 L500.024 724.254 L496.432 720.977 L491.76 723.843 L488.527 719.315 L484.187 723.153 L481.153 717.974 L476.043 723.513 L472.827 720.623 L469.661 718.329 L467.167 714.35 L464.39 712.767 L461.948 708.802 L459.229 706.864 L456.508 705.026 L453.57 702.478 L450.395 702.832 L448.344 701.8 L445.221 706.18 L443.151 706.217 L440.296 709.924 L438.132 710.908 L434.824 714.062 L432.011 716.171 L428.751 717.71 L423.06 722.389 L418.994 723.203 L413.581 727.748 L409.105 727.095 L403.484 731.788 L398.808 731.424 L393.344 734.012 L388.968 734.172 L384.306 734.98 L380.909 735.107 L377.643 735.205 L375.601 735.212  Z" fill="#4063d8" fill-rule="evenodd" fill-opacity="0.5"/>
<polyline clip-path="url(#clip111)" style="stroke:#4063d8; stroke-linecap:round; stroke-linejoin:round; stroke-width:4; stroke-opacity:0.2; fill:none" points="375.601,735.212 377.643,735.212 380.909,735.212 384.306,735.212 388.968,735.212 393.344,735.212 398.808,735.212 403.484,735.212 409.105,735.212 413.581,735.212 418.994,735.212 423.06,735.212 428.751,735.212 432.011,735.212 434.824,735.212 438.132,735.212 440.296,735.212 443.151,735.212 445.221,735.212 448.344,735.212 450.395,735.212 453.57,735.212 456.508,735.212 459.229,735.212 461.948,735.212 464.39,735.212 467.167,735.212 469.661,735.212 472.827,735.212 476.043,735.212 481.153,735.212 484.187,735.212 488.527,735.212 491.76,735.212 496.432,735.212 500.024,735.212 504.86,735.212 509.255,735.212 514.457,735.212 520.072,735.212 526.238,735.212 533.357,735.212 541.331,735.212 550.635,735.212 561.624,735.212 574.707,735.212 590.742,735.212 610.385,735.212 633.033,735.212 655.866,735.212 676.428,735.212 694.917,735.212 716.527,735.212 738.283,735.212 759.328,735.212 780.493,735.212 799.535,735.212 818.088,735.212 834.149,735.212 847.518,735.212 859.865,735.212 869.891,735.212 879.087,735.212 886.814,735.212 893.657,735.212 899.879,735.212 905.052,735.212 910.464,735.212 914.398,735.212 919.716,735.212 923.677,735.212 927.27,735.212 930.96,735.212 934.055,735.212 937.419,735.212 940.149,735.212 943.58,735.212 946.277,735.212 950.967,735.212 953.747,735.212 956.286,735.212 959,735.212 961.27,735.212 964.932,735.212 967.164,735.212 971.736,735.212 976.462,735.212 979.311,735.212 983.251,735.212 986.213,735.212 991.121,735.212 994.184,735.212 999.369,735.212 1003.23,735.212 1008.24,735.212 1013.37,735.212 1018.96,735.212 1025.36,735.212 1032.22,735.212 1040.09,735.212 1048.95,735.212 1058.95,735.212 1070.43,735.212 1083.17,735.212 1096.49,735.212 1108.24,735.212 1123.21,735.212 1139.34,735.212 1155.59,735.212 1172.78,735.212 1188.71,735.212 1204.88,735.212 1219.16,735.212 1233.1,735.212 1245.05,735.212 1254.95,735.212 1264.11,735.212 1271.66,735.212 1278.54,735.212 1284.53,735.212 1289.78,735.212 1294.84,735.212 1298.98,735.212 1305.33,735.212 1308.83,735.212 1311.97,735.212 1314.99,735.212 1316.98,735.212 1319.57,735.212 1321.64,735.212 1325.05,735.212 1326.92,735.212 1330.28,735.212 1333.14,735.212 1335.87,735.212 1338.63,735.212 1341.03,735.212 1343.99,735.212 1346.4,735.212 1349.95,735.212 1353.01,735.212 1357.84,735.212 1360.95,735.212 1364.98,735.212 1368.35,735.212 1372.42,735.212 1376.22,735.212 1380.58,735.212 1385.08,735.212 1390.04,735.212 1395.5,735.212 1401.51,735.212 1408.32,735.212 1416.02,735.212 1424.9,735.212 1435.32,735.212 1447.68,735.212 1462.68,735.212 1481.01,735.212 1502.67,735.212 1525.32,735.212 1546.14,735.212 1563.33,735.212 1584.64,735.212 1606.26,735.212 1627.15,735.212 1648.7,735.212 1667.83,735.212 1686.98,735.212 1703.28,735.212 1717.16,735.212 1729.79,735.212 1740.23,735.212 1749.66,735.212 1757.71,735.212 1764.72,735.212 1771.21,735.212 1776.46,735.212 1782.17,735.212 1786,735.212 1790.9,735.212 1794.63,735.212 1798.07,735.212 1801.56,735.212 1804.91,735.212 1807.94,735.212 1811.06,735.212 1813.79,735.212 1816.91,735.212 1819.69,735.212 1823.89,735.212 1827.04,735.212 1829.68,735.212 1832.59,735.212 1834.7,735.212 1837.38,735.212 1839.77,735.212 1844.95,735.212 1848.64,735.212 1852.1,735.212 1856.61,735.212 1859.32,735.212 1862.92,735.212 1866.03,735.212 1871.9,735.212 1875.41,735.212 1880.31,735.212 1885.44,735.212 1890.79,735.212 1897.11,735.212 1903.75,735.212 1911.37,735.212 1919.99,735.212 1929.64,735.212 1940.77,735.212 1953.21,735.212 1966.51,735.212 1979.02,735.212 1993.15,735.212 2009.22,735.212 2025.57,735.212 2042.46,735.212 2058.84,735.212 2074.77,735.212 2089.62,735.212 2103.45,735.212 2115.94,735.212 2127.23,735.212 2136.14,735.212 2144.72,735.212 2151.5,735.212 2157.96,735.212 2163.37,735.212 2168.36,735.212 2173.47,735.212 2177.77,735.212 2181.44,735.212 2184.18,735.212 2187.41,735.212 2189.88,735.212 2192.98,735.212 2195.06,735.212 2198.14,735.212 2200.32,735.212 2204,735.212 2207.01,735.212 2209.77,735.212 2212.74,735.212 2215.11,735.212 2218.37,735.212 2220.53,735.212 2224.11,735.212 2227.1,735.212 2231.05,735.212 2234.28,735.212 2237.9,735.212 2241.39,735.212 2245.13,735.212 2249.03,735.212 2253.18,735.212 2257.67,735.212 2262.52,735.212 2267.86,735.212 2273.78,735.212 2280.41,735.212 2287.94,735.212 2295.17,735.212 "/>
<path clip-path="url(#clip111)" d="M375.601 735.212 L377.643 735.219 L380.909 735.317 L384.306 735.441 L388.968 736.234 L393.344 736.369 L398.808 738.843 L403.484 738.269 L409.105 742.569 L413.581 740.97 L418.994 744.391 L423.06 743.248 L428.751 745.408 L432.011 744.511 L434.824 744.72 L438.132 746.736 L440.296 745.73 L443.151 750.077 L445.221 748.317 L448.344 755.289 L450.395 753.777 L453.57 756.616 L456.508 755.945 L459.229 757.354 L461.948 758.708 L464.39 757.579 L467.167 759.453 L469.661 758.316 L472.827 759.047 L476.043 758.477 L481.153 764.977 L484.187 763.197 L488.527 768.076 L491.76 766.521 L496.432 769.924 L500.024 768.845 L504.86 770.043 L509.255 769.555 L514.457 769.764 L520.072 769.613 L526.238 769.567 L533.357 769.476 L541.331 769.366 L550.635 769.234 L561.624 769.067 L574.707 768.854 L590.742 768.573 L610.385 768.193 L633.033 767.705 L655.866 767.144 L676.428 766.562 L694.917 765.979 L716.527 765.279 L738.283 764.502 L759.328 763.71 L780.493 763.313 L799.535 762.516 L818.088 763.505 L834.149 762.513 L847.518 761.819 L859.865 761.943 L869.891 760.149 L879.087 759.532 L886.814 758.077 L893.657 756.051 L899.879 755.395 L905.052 752.946 L910.464 753.022 L914.398 751.446 L919.716 751.713 L923.677 750.968 L927.27 752.268 L930.96 754.966 L934.055 756.065 L937.419 761.48 L940.149 761.917 L943.58 766.917 L946.277 768.488 L950.967 781.741 L953.747 779.576 L956.286 782.593 L959 783.942 L961.27 784.709 L964.932 787.64 L967.164 788.105 L971.736 789.688 L976.462 790.392 L979.311 790.446 L983.251 791.503 L986.213 791.285 L991.121 793.033 L994.184 792.699 L999.369 793.661 L1003.23 793.347 L1008.24 793.466 L1013.37 793.287 L1018.96 793.178 L1025.36 793.008 L1032.22 792.811 L1040.09 792.572 L1048.95 792.282 L1058.95 791.931 L1070.43 791.495 L1083.17 790.968 L1096.49 790.361 L1108.24 789.773 L1123.21 788.954 L1139.34 787.966 L1155.59 786.843 L1172.78 785.597 L1188.71 784.177 L1204.88 783.097 L1219.16 781.394 L1233.1 781.114 L1245.05 778.86 L1254.95 777.025 L1264.11 775.33 L1271.66 772.719 L1278.54 770.247 L1284.53 767.741 L1289.78 764.513 L1294.84 761.788 L1298.98 758.805 L1305.33 756.299 L1308.83 753.176 L1311.97 752.048 L1314.99 752.104 L1316.98 752.037 L1319.57 754.841 L1321.64 755.425 L1325.05 763.88 L1326.92 764.989 L1330.28 770.678 L1333.14 773.074 L1335.87 776.83 L1338.63 780.058 L1341.03 781.331 L1343.99 784.741 L1346.4 785.452 L1349.95 787.852 L1353.01 788.389 L1357.84 792.417 L1360.95 791.911 L1364.98 793.96 L1368.35 793.48 L1372.42 794.286 L1376.22 794.047 L1380.58 794.255 L1385.08 794.149 L1390.04 794.128 L1395.5 794.035 L1401.51 793.924 L1408.32 793.783 L1416.02 793.608 L1424.9 793.393 L1435.32 793.123 L1447.68 792.781 L1462.68 792.332 L1481.01 791.729 L1502.67 790.934 L1525.32 789.991 L1546.14 789.003 L1563.33 788.089 L1584.64 786.853 L1606.26 785.424 L1627.15 783.859 L1648.7 782.301 L1667.83 780.37 L1686.98 779.466 L1703.28 776.992 L1717.16 775.247 L1729.79 773.203 L1740.23 770.69 L1749.66 768.152 L1757.71 765.713 L1764.72 762.226 L1771.21 760.273 L1776.46 756.441 L1782.17 755.799 L1786 753.136 L1790.9 752.466 L1794.63 751.576 L1798.07 752.805 L1801.56 755.235 L1804.91 759.289 L1807.94 763.08 L1811.06 768.825 L1813.79 772.505 L1816.91 778.448 L1819.69 782.684 L1823.89 792.608 L1827.04 795.808 L1829.68 798.825 L1832.59 803.417 L1834.7 804.654 L1837.38 806.887 L1839.77 808.302 L1844.95 811.131 L1848.64 811.886 L1852.1 812.581 L1856.61 813.998 L1859.32 813.889 L1862.92 814.346 L1866.03 814.32 L1871.9 815.528 L1875.41 815.235 L1880.31 815.355 L1885.44 815.151 L1890.79 815.006 L1897.11 814.789 L1903.75 814.533 L1911.37 814.222 L1919.99 813.842 L1929.64 813.384 L1940.77 812.815 L1953.21 812.122 L1966.51 811.309 L1979.02 810.467 L1993.15 809.419 L2009.22 808.088 L2025.57 806.554 L2042.46 804.78 L2058.84 802.806 L2074.77 800.722 L2089.62 798.477 L2103.45 796.308 L2115.94 793.914 L2127.23 791.521 L2136.14 787.624 L2144.72 785.586 L2151.5 781.045 L2157.96 777.84 L2163.37 773.464 L2168.36 769.213 L2173.47 764.593 L2177.77 759.906 L2181.44 756.74 L2184.18 754.381 L2187.41 754.397 L2189.88 753.979 L2192.98 759.35 L2195.06 760.727 L2198.14 768.259 L2200.32 770.983 L2204 779.533 L2207.01 783.604 L2209.77 788.308 L2212.74 793.244 L2215.11 795.061 L2218.37 800.679 L2220.53 801.677 L2224.11 804.706 L2227.1 805.586 L2231.05 807.686 L2234.28 807.949 L2237.9 808.847 L2241.39 808.977 L2245.13 809.273 L2249.03 809.344 L2253.18 809.395 L2257.67 809.382 L2262.52 809.322 L2267.86 809.228 L2273.78 809.094 L2280.41 808.927 L2287.94 808.721 L2295.17 808.505 L2295.17 661.919 L2287.94 661.703 L2280.41 661.497 L2273.78 661.329 L2267.86 661.196 L2262.52 661.102 L2257.67 661.042 L2253.18 661.029 L2249.03 661.08 L2245.13 661.151 L2241.39 661.447 L2237.9 661.577 L2234.28 662.475 L2231.05 662.738 L2227.1 664.838 L2224.11 665.718 L2220.53 668.747 L2218.37 669.745 L2215.11 675.363 L2212.74 677.18 L2209.77 682.116 L2207.01 686.82 L2204 690.89 L2200.32 699.441 L2198.14 702.165 L2195.06 709.696 L2192.98 711.074 L2189.88 716.445 L2187.41 716.027 L2184.18 716.043 L2181.44 713.684 L2177.77 710.518 L2173.47 705.831 L2168.36 701.211 L2163.37 696.96 L2157.96 692.584 L2151.5 689.379 L2144.72 684.838 L2136.14 682.8 L2127.23 678.903 L2115.94 676.51 L2103.45 674.116 L2089.62 671.947 L2074.77 669.702 L2058.84 667.617 L2042.46 665.644 L2025.57 663.87 L2009.22 662.336 L1993.15 661.005 L1979.02 659.957 L1966.51 659.115 L1953.21 658.302 L1940.77 657.609 L1929.64 657.04 L1919.99 656.582 L1911.37 656.202 L1903.75 655.891 L1897.11 655.635 L1890.79 655.418 L1885.44 655.273 L1880.31 655.069 L1875.41 655.189 L1871.9 654.896 L1866.03 656.104 L1862.92 656.078 L1859.32 656.535 L1856.61 656.426 L1852.1 657.843 L1848.64 658.538 L1844.95 659.293 L1839.77 662.122 L1837.38 663.537 L1834.7 665.77 L1832.59 667.007 L1829.68 671.599 L1827.04 674.616 L1823.89 677.816 L1819.69 687.74 L1816.91 691.976 L1813.79 697.919 L1811.06 701.599 L1807.94 707.344 L1804.91 711.135 L1801.56 715.189 L1798.07 717.618 L1794.63 718.848 L1790.9 717.958 L1786 717.288 L1782.17 714.625 L1776.46 713.983 L1771.21 710.151 L1764.72 708.198 L1757.71 704.711 L1749.66 702.272 L1740.23 699.734 L1729.79 697.221 L1717.16 695.177 L1703.28 693.431 L1686.98 690.958 L1667.83 690.054 L1648.7 688.123 L1627.15 686.565 L1606.26 685 L1584.64 683.571 L1563.33 682.335 L1546.14 681.42 L1525.32 680.433 L1502.67 679.49 L1481.01 678.695 L1462.68 678.092 L1447.68 677.643 L1435.32 677.3 L1424.9 677.031 L1416.02 676.816 L1408.32 676.64 L1401.51 676.5 L1395.5 676.389 L1390.04 676.296 L1385.08 676.275 L1380.58 676.169 L1376.22 676.377 L1372.42 676.138 L1368.35 676.944 L1364.98 676.464 L1360.95 678.513 L1357.84 678.007 L1353.01 682.035 L1349.95 682.572 L1346.4 684.972 L1343.99 685.683 L1341.03 689.093 L1338.63 690.366 L1335.87 693.594 L1333.14 697.35 L1330.28 699.746 L1326.92 705.435 L1325.05 706.544 L1321.64 714.999 L1319.57 715.583 L1316.98 718.387 L1314.99 718.32 L1311.97 718.376 L1308.83 717.248 L1305.33 714.125 L1298.98 711.619 L1294.84 708.636 L1289.78 705.911 L1284.53 702.683 L1278.54 700.177 L1271.66 697.705 L1264.11 695.094 L1254.95 693.399 L1245.05 691.564 L1233.1 689.31 L1219.16 689.03 L1204.88 687.327 L1188.71 686.246 L1172.78 684.827 L1155.59 683.581 L1139.34 682.458 L1123.21 681.469 L1108.24 680.651 L1096.49 680.063 L1083.17 679.456 L1070.43 678.929 L1058.95 678.493 L1048.95 678.142 L1040.09 677.852 L1032.22 677.613 L1025.36 677.416 L1018.96 677.246 L1013.37 677.137 L1008.24 676.958 L1003.23 677.077 L999.369 676.763 L994.184 677.725 L991.121 677.391 L986.213 679.139 L983.251 678.921 L979.311 679.978 L976.462 680.032 L971.736 680.736 L967.164 682.319 L964.932 682.783 L961.27 685.715 L959 686.482 L956.286 687.831 L953.747 690.848 L950.967 688.683 L946.277 701.936 L943.58 703.507 L940.149 708.507 L937.419 708.944 L934.055 714.359 L930.96 715.458 L927.27 718.156 L923.677 719.456 L919.716 718.711 L914.398 718.978 L910.464 717.402 L905.052 717.478 L899.879 715.029 L893.657 714.373 L886.814 712.347 L879.087 710.892 L869.891 710.275 L859.865 708.481 L847.518 708.605 L834.149 707.911 L818.088 706.919 L799.535 707.908 L780.493 707.111 L759.328 706.714 L738.283 705.922 L716.527 705.145 L694.917 704.445 L676.428 703.862 L655.866 703.28 L633.033 702.719 L610.385 702.231 L590.742 701.851 L574.707 701.57 L561.624 701.357 L550.635 701.19 L541.331 701.058 L533.357 700.948 L526.238 700.857 L520.072 700.811 L514.457 700.66 L509.255 700.869 L504.86 700.381 L500.024 701.578 L496.432 700.5 L491.76 703.903 L488.527 702.348 L484.187 707.227 L481.153 705.447 L476.043 711.947 L472.827 711.377 L469.661 712.108 L467.167 710.971 L464.39 712.845 L461.948 711.716 L459.229 713.07 L456.508 714.479 L453.57 713.808 L450.395 716.647 L448.344 715.135 L445.221 722.107 L443.151 720.347 L440.296 724.694 L438.132 723.688 L434.824 725.704 L432.011 725.913 L428.751 725.016 L423.06 727.176 L418.994 726.033 L413.581 729.454 L409.105 727.855 L403.484 732.155 L398.808 731.581 L393.344 734.055 L388.968 734.19 L384.306 734.982 L380.909 735.107 L377.643 735.205 L375.601 735.212  Z" fill="#389826" fill-rule="evenodd" fill-opacity="0.5"/>
<polyline clip-path="url(#clip111)" style="stroke:#389826; stroke-linecap:round; stroke-linejoin:round; stroke-width:4; stroke-opacity:0.2; fill:none" points="375.601,735.212 377.643,735.212 380.909,735.212 384.306,735.212 388.968,735.212 393.344,735.212 398.808,735.212 403.484,735.212 409.105,735.212 413.581,735.212 418.994,735.212 423.06,735.212 428.751,735.212 432.011,735.212 434.824,735.212 438.132,735.212 440.296,735.212 443.151,735.212 445.221,735.212 448.344,735.212 450.395,735.212 453.57,735.212 456.508,735.212 459.229,735.212 461.948,735.212 464.39,735.212 467.167,735.212 469.661,735.212 472.827,735.212 476.043,735.212 481.153,735.212 484.187,735.212 488.527,735.212 491.76,735.212 496.432,735.212 500.024,735.212 504.86,735.212 509.255,735.212 514.457,735.212 520.072,735.212 526.238,735.212 533.357,735.212 541.331,735.212 550.635,735.212 561.624,735.212 574.707,735.212 590.742,735.212 610.385,735.212 633.033,735.212 655.866,735.212 676.428,735.212 694.917,735.212 716.527,735.212 738.283,735.212 759.328,735.212 780.493,735.212 799.535,735.212 818.088,735.212 834.149,735.212 847.518,735.212 859.865,735.212 869.891,735.212 879.087,735.212 886.814,735.212 893.657,735.212 899.879,735.212 905.052,735.212 910.464,735.212 914.398,735.212 919.716,735.212 923.677,735.212 927.27,735.212 930.96,735.212 934.055,735.212 937.419,735.212 940.149,735.212 943.58,735.212 946.277,735.212 950.967,735.212 953.747,735.212 956.286,735.212 959,735.212 961.27,735.212 964.932,735.212 967.164,735.212 971.736,735.212 976.462,735.212 979.311,735.212 983.251,735.212 986.213,735.212 991.121,735.212 994.184,735.212 999.369,735.212 1003.23,735.212 1008.24,735.212 1013.37,735.212 1018.96,735.212 1025.36,735.212 1032.22,735.212 1040.09,735.212 1048.95,735.212 1058.95,735.212 1070.43,735.212 1083.17,735.212 1096.49,735.212 1108.24,735.212 1123.21,735.212 1139.34,735.212 1155.59,735.212 1172.78,735.212 1188.71,735.212 1204.88,735.212 1219.16,735.212 1233.1,735.212 1245.05,735.212 1254.95,735.212 1264.11,735.212 1271.66,735.212 1278.54,735.212 1284.53,735.212 1289.78,735.212 1294.84,735.212 1298.98,735.212 1305.33,735.212 1308.83,735.212 1311.97,735.212 1314.99,735.212 1316.98,735.212 1319.57,735.212 1321.64,735.212 1325.05,735.212 1326.92,735.212 1330.28,735.212 1333.14,735.212 1335.87,735.212 1338.63,735.212 1341.03,735.212 1343.99,735.212 1346.4,735.212 1349.95,735.212 1353.01,735.212 1357.84,735.212 1360.95,735.212 1364.98,735.212 1368.35,735.212 1372.42,735.212 1376.22,735.212 1380.58,735.212 1385.08,735.212 1390.04,735.212 1395.5,735.212 1401.51,735.212 1408.32,735.212 1416.02,735.212 1424.9,735.212 1435.32,735.212 1447.68,735.212 1462.68,735.212 1481.01,735.212 1502.67,735.212 1525.32,735.212 1546.14,735.212 1563.33,735.212 1584.64,735.212 1606.26,735.212 1627.15,735.212 1648.7,735.212 1667.83,735.212 1686.98,735.212 1703.28,735.212 1717.16,735.212 1729.79,735.212 1740.23,735.212 1749.66,735.212 1757.71,735.212 1764.72,735.212 1771.21,735.212 1776.46,735.212 1782.17,735.212 1786,735.212 1790.9,735.212 1794.63,735.212 1798.07,735.212 1801.56,735.212 1804.91,735.212 1807.94,735.212 1811.06,735.212 1813.79,735.212 1816.91,735.212 1819.69,735.212 1823.89,735.212 1827.04,735.212 1829.68,735.212 1832.59,735.212 1834.7,735.212 1837.38,735.212 1839.77,735.212 1844.95,735.212 1848.64,735.212 1852.1,735.212 1856.61,735.212 1859.32,735.212 1862.92,735.212 1866.03,735.212 1871.9,735.212 1875.41,735.212 1880.31,735.212 1885.44,735.212 1890.79,735.212 1897.11,735.212 1903.75,735.212 1911.37,735.212 1919.99,735.212 1929.64,735.212 1940.77,735.212 1953.21,735.212 1966.51,735.212 1979.02,735.212 1993.15,735.212 2009.22,735.212 2025.57,735.212 2042.46,735.212 2058.84,735.212 2074.77,735.212 2089.62,735.212 2103.45,735.212 2115.94,735.212 2127.23,735.212 2136.14,735.212 2144.72,735.212 2151.5,735.212 2157.96,735.212 2163.37,735.212 2168.36,735.212 2173.47,735.212 2177.77,735.212 2181.44,735.212 2184.18,735.212 2187.41,735.212 2189.88,735.212 2192.98,735.212 2195.06,735.212 2198.14,735.212 2200.32,735.212 2204,735.212 2207.01,735.212 2209.77,735.212 2212.74,735.212 2215.11,735.212 2218.37,735.212 2220.53,735.212 2224.11,735.212 2227.1,735.212 2231.05,735.212 2234.28,735.212 2237.9,735.212 2241.39,735.212 2245.13,735.212 2249.03,735.212 2253.18,735.212 2257.67,735.212 2262.52,735.212 2267.86,735.212 2273.78,735.212 2280.41,735.212 2287.94,735.212 2295.17,735.212 "/>
<path clip-path="url(#clip110)" d="M1748.15 352.309 L2284.93 352.309 L2284.93 93.1086 L1748.15 93.1086  Z" fill="#ffffff" fill-rule="evenodd" fill-opacity="1"/>
<polyline clip-path="url(#clip110)" style="stroke:#000000; stroke-linecap:round; stroke-linejoin:round; stroke-width:4; stroke-opacity:1; fill:none" points="1748.15,352.309 2284.93,352.309 2284.93,93.1086 1748.15,93.1086 1748.15,352.309 "/>
<polyline clip-path="url(#clip110)" style="stroke:#4063d8; stroke-linecap:round; stroke-linejoin:round; stroke-width:4; stroke-opacity:1; fill:none" points="1770.76,144.949 1906.41,144.949 "/>
<path clip-path="url(#clip110)" d="M1953.04 148.201 L1953.04 150.284 L1933.46 150.284 Q1933.74 154.682 1936.1 156.997 Q1938.48 159.289 1942.72 159.289 Q1945.17 159.289 1947.46 158.687 Q1949.78 158.085 1952.05 156.881 L1952.05 160.909 Q1949.76 161.881 1947.35 162.391 Q1944.94 162.9 1942.46 162.9 Q1936.26 162.9 1932.63 159.289 Q1929.01 155.678 1929.01 149.52 Q1929.01 143.155 1932.44 139.428 Q1935.89 135.678 1941.72 135.678 Q1946.95 135.678 1949.99 139.057 Q1953.04 142.414 1953.04 148.201 M1948.78 146.951 Q1948.74 143.456 1946.82 141.372 Q1944.92 139.289 1941.77 139.289 Q1938.2 139.289 1936.05 141.303 Q1933.92 143.317 1933.6 146.974 L1948.78 146.951 Z" fill="#000000" fill-rule="nonzero" fill-opacity="1" /><path clip-path="url(#clip110)" d="M1975.06 140.284 Q1974.34 139.868 1973.48 139.682 Q1972.65 139.474 1971.63 139.474 Q1968.02 139.474 1966.07 141.835 Q1964.15 144.173 1964.15 148.571 L1964.15 162.229 L1959.87 162.229 L1959.87 136.303 L1964.15 136.303 L1964.15 140.331 Q1965.5 137.969 1967.65 136.835 Q1969.8 135.678 1972.88 135.678 Q1973.32 135.678 1973.85 135.747 Q1974.38 135.794 1975.03 135.909 L1975.06 140.284 Z" fill="#000000" fill-rule="nonzero" fill-opacity="1" /><path clip-path="url(#clip110)" d="M1993.71 140.284 Q1993 139.868 1992.14 139.682 Q1991.31 139.474 1990.29 139.474 Q1986.68 139.474 1984.73 141.835 Q1982.81 144.173 1982.81 148.571 L1982.81 162.229 L1978.53 162.229 L1978.53 136.303 L1982.81 136.303 L1982.81 140.331 Q1984.15 137.969 1986.31 136.835 Q1988.46 135.678 1991.54 135.678 Q1991.98 135.678 1992.51 135.747 Q1993.04 135.794 1993.69 135.909 L1993.71 140.284 Z" fill="#000000" fill-rule="nonzero" fill-opacity="1" /><path clip-path="url(#clip110)" d="M2007.19 139.289 Q2003.76 139.289 2001.77 141.974 Q1999.78 144.636 1999.78 149.289 Q1999.78 153.942 2001.75 156.627 Q2003.74 159.289 2007.19 159.289 Q2010.59 159.289 2012.58 156.604 Q2014.57 153.918 2014.57 149.289 Q2014.57 144.682 2012.58 141.997 Q2010.59 139.289 2007.19 139.289 M2007.19 135.678 Q2012.74 135.678 2015.91 139.289 Q2019.08 142.9 2019.08 149.289 Q2019.08 155.655 2015.91 159.289 Q2012.74 162.9 2007.19 162.9 Q2001.61 162.9 1998.44 159.289 Q1995.29 155.655 1995.29 149.289 Q1995.29 142.9 1998.44 139.289 Q2001.61 135.678 2007.19 135.678 Z" fill="#000000" fill-rule="nonzero" fill-opacity="1" /><path clip-path="url(#clip110)" d="M2041.17 140.284 Q2040.45 139.868 2039.59 139.682 Q2038.76 139.474 2037.74 139.474 Q2034.13 139.474 2032.19 141.835 Q2030.26 144.173 2030.26 148.571 L2030.26 162.229 L2025.98 162.229 L2025.98 136.303 L2030.26 136.303 L2030.26 140.331 Q2031.61 137.969 2033.76 136.835 Q2035.91 135.678 2038.99 135.678 Q2039.43 135.678 2039.96 135.747 Q2040.5 135.794 2041.14 135.909 L2041.17 140.284 Z" fill="#000000" fill-rule="nonzero" fill-opacity="1" /><polyline clip-path="url(#clip110)" style="stroke:#389826; stroke-linecap:round; stroke-linejoin:round; stroke-width:4; stroke-opacity:1; fill:none" points="1770.76,196.789 1906.41,196.789 "/>
<path clip-path="url(#clip110)" d="M1953.04 200.041 L1953.04 202.124 L1933.46 202.124 Q1933.74 206.522 1936.1 208.837 Q1938.48 211.129 1942.72 211.129 Q1945.17 211.129 1947.46 210.527 Q1949.78 209.925 1952.05 208.721 L1952.05 212.749 Q1949.76 213.721 1947.35 214.231 Q1944.94 214.74 1942.46 214.74 Q1936.26 214.74 1932.63 211.129 Q1929.01 207.518 1929.01 201.36 Q1929.01 194.995 1932.44 191.268 Q1935.89 187.518 1941.72 187.518 Q1946.95 187.518 1949.99 190.897 Q1953.04 194.254 1953.04 200.041 M1948.78 198.791 Q1948.74 195.296 1946.82 193.212 Q1944.92 191.129 1941.77 191.129 Q1938.2 191.129 1936.05 193.143 Q1933.92 195.157 1933.6 198.814 L1948.78 198.791 Z" fill="#000000" fill-rule="nonzero" fill-opacity="1" /><path clip-path="url(#clip110)" d="M1975.06 192.124 Q1974.34 191.708 1973.48 191.522 Q1972.65 191.314 1971.63 191.314 Q1968.02 191.314 1966.07 193.675 Q1964.15 196.013 1964.15 200.411 L1964.15 214.069 L1959.87 214.069 L1959.87 188.143 L1964.15 188.143 L1964.15 192.171 Q1965.5 189.809 1967.65 188.675 Q1969.8 187.518 1972.88 187.518 Q1973.32 187.518 1973.85 187.587 Q1974.38 187.634 1975.03 187.749 L1975.06 192.124 Z" fill="#000000" fill-rule="nonzero" fill-opacity="1" /><path clip-path="url(#clip110)" d="M1993.71 192.124 Q1993 191.708 1992.14 191.522 Q1991.31 191.314 1990.29 191.314 Q1986.68 191.314 1984.73 193.675 Q1982.81 196.013 1982.81 200.411 L1982.81 214.069 L1978.53 214.069 L1978.53 188.143 L1982.81 188.143 L1982.81 192.171 Q1984.15 189.809 1986.31 188.675 Q1988.46 187.518 1991.54 187.518 Q1991.98 187.518 1992.51 187.587 Q1993.04 187.634 1993.69 187.749 L1993.71 192.124 Z" fill="#000000" fill-rule="nonzero" fill-opacity="1" /><path clip-path="url(#clip110)" d="M2007.19 191.129 Q2003.76 191.129 2001.77 193.814 Q1999.78 196.476 1999.78 201.129 Q1999.78 205.782 2001.75 208.467 Q2003.74 211.129 2007.19 211.129 Q2010.59 211.129 2012.58 208.444 Q2014.57 205.758 2014.57 201.129 Q2014.57 196.522 2012.58 193.837 Q2010.59 191.129 2007.19 191.129 M2007.19 187.518 Q2012.74 187.518 2015.91 191.129 Q2019.08 194.74 2019.08 201.129 Q2019.08 207.495 2015.91 211.129 Q2012.74 214.74 2007.19 214.74 Q2001.61 214.74 1998.44 211.129 Q1995.29 207.495 1995.29 201.129 Q1995.29 194.74 1998.44 191.129 Q2001.61 187.518 2007.19 187.518 Z" fill="#000000" fill-rule="nonzero" fill-opacity="1" /><path clip-path="url(#clip110)" d="M2041.17 192.124 Q2040.45 191.708 2039.59 191.522 Q2038.76 191.314 2037.74 191.314 Q2034.13 191.314 2032.19 193.675 Q2030.26 196.013 2030.26 200.411 L2030.26 214.069 L2025.98 214.069 L2025.98 188.143 L2030.26 188.143 L2030.26 192.171 Q2031.61 189.809 2033.76 188.675 Q2035.91 187.518 2038.99 187.518 Q2039.43 187.518 2039.96 187.587 Q2040.5 187.634 2041.14 187.749 L2041.17 192.124 Z" fill="#000000" fill-rule="nonzero" fill-opacity="1" /><polyline clip-path="url(#clip110)" style="stroke:#4063d8; stroke-linecap:round; stroke-linejoin:round; stroke-width:4; stroke-opacity:0.2; fill:none" points="1770.76,248.629 1906.41,248.629 "/>
<path clip-path="url(#clip110)" d="M1953.04 251.881 L1953.04 253.964 L1933.46 253.964 Q1933.74 258.362 1936.1 260.677 Q1938.48 262.969 1942.72 262.969 Q1945.17 262.969 1947.46 262.367 Q1949.78 261.765 1952.05 260.561 L1952.05 264.589 Q1949.76 265.561 1947.35 266.071 Q1944.94 266.58 1942.46 266.58 Q1936.26 266.58 1932.63 262.969 Q1929.01 259.358 1929.01 253.2 Q1929.01 246.835 1932.44 243.108 Q1935.89 239.358 1941.72 239.358 Q1946.95 239.358 1949.99 242.737 Q1953.04 246.094 1953.04 251.881 M1948.78 250.631 Q1948.74 247.136 1946.82 245.052 Q1944.92 242.969 1941.77 242.969 Q1938.2 242.969 1936.05 244.983 Q1933.92 246.997 1933.6 250.654 L1948.78 250.631 Z" fill="#000000" fill-rule="nonzero" fill-opacity="1" /><path clip-path="url(#clip110)" d="M1975.06 243.964 Q1974.34 243.548 1973.48 243.362 Q1972.65 243.154 1971.63 243.154 Q1968.02 243.154 1966.07 245.515 Q1964.15 247.853 1964.15 252.251 L1964.15 265.909 L1959.87 265.909 L1959.87 239.983 L1964.15 239.983 L1964.15 244.011 Q1965.5 241.649 1967.65 240.515 Q1969.8 239.358 1972.88 239.358 Q1973.32 239.358 1973.85 239.427 Q1974.38 239.474 1975.03 239.589 L1975.06 243.964 Z" fill="#000000" fill-rule="nonzero" fill-opacity="1" /><path clip-path="url(#clip110)" d="M1993.71 243.964 Q1993 243.548 1992.14 243.362 Q1991.31 243.154 1990.29 243.154 Q1986.68 243.154 1984.73 245.515 Q1982.81 247.853 1982.81 252.251 L1982.81 265.909 L1978.53 265.909 L1978.53 239.983 L1982.81 239.983 L1982.81 244.011 Q1984.15 241.649 1986.31 240.515 Q1988.46 239.358 1991.54 239.358 Q1991.98 239.358 1992.51 239.427 Q1993.04 239.474 1993.69 239.589 L1993.71 243.964 Z" fill="#000000" fill-rule="nonzero" fill-opacity="1" /><path clip-path="url(#clip110)" d="M2007.19 242.969 Q2003.76 242.969 2001.77 245.654 Q1999.78 248.316 1999.78 252.969 Q1999.78 257.622 2001.75 260.307 Q2003.74 262.969 2007.19 262.969 Q2010.59 262.969 2012.58 260.284 Q2014.57 257.598 2014.57 252.969 Q2014.57 248.362 2012.58 245.677 Q2010.59 242.969 2007.19 242.969 M2007.19 239.358 Q2012.74 239.358 2015.91 242.969 Q2019.08 246.58 2019.08 252.969 Q2019.08 259.335 2015.91 262.969 Q2012.74 266.58 2007.19 266.58 Q2001.61 266.58 1998.44 262.969 Q1995.29 259.335 1995.29 252.969 Q1995.29 246.58 1998.44 242.969 Q2001.61 239.358 2007.19 239.358 Z" fill="#000000" fill-rule="nonzero" fill-opacity="1" /><path clip-path="url(#clip110)" d="M2041.17 243.964 Q2040.45 243.548 2039.59 243.362 Q2038.76 243.154 2037.74 243.154 Q2034.13 243.154 2032.19 245.515 Q2030.26 247.853 2030.26 252.251 L2030.26 265.909 L2025.98 265.909 L2025.98 239.983 L2030.26 239.983 L2030.26 244.011 Q2031.61 241.649 2033.76 240.515 Q2035.91 239.358 2038.99 239.358 Q2039.43 239.358 2039.96 239.427 Q2040.5 239.474 2041.14 239.589 L2041.17 243.964 Z" fill="#000000" fill-rule="nonzero" fill-opacity="1" /><path clip-path="url(#clip110)" d="M2082.88 251.881 L2082.88 253.964 L2063.3 253.964 Q2063.57 258.362 2065.94 260.677 Q2068.32 262.969 2072.56 262.969 Q2075.01 262.969 2077.3 262.367 Q2079.62 261.765 2081.88 260.561 L2081.88 264.589 Q2079.59 265.561 2077.19 266.071 Q2074.78 266.58 2072.3 266.58 Q2066.1 266.58 2062.46 262.969 Q2058.85 259.358 2058.85 253.2 Q2058.85 246.835 2062.28 243.108 Q2065.73 239.358 2071.56 239.358 Q2076.79 239.358 2079.82 242.737 Q2082.88 246.094 2082.88 251.881 M2078.62 250.631 Q2078.57 247.136 2076.65 245.052 Q2074.75 242.969 2071.61 242.969 Q2068.04 242.969 2065.89 244.983 Q2063.76 246.997 2063.44 250.654 L2078.62 250.631 Z" fill="#000000" fill-rule="nonzero" fill-opacity="1" /><path clip-path="url(#clip110)" d="M2106.4 240.747 L2106.4 244.774 Q2104.59 243.849 2102.65 243.386 Q2100.7 242.923 2098.62 242.923 Q2095.45 242.923 2093.85 243.895 Q2092.28 244.867 2092.28 246.811 Q2092.28 248.293 2093.41 249.149 Q2094.55 249.983 2097.97 250.747 L2099.43 251.071 Q2103.97 252.043 2105.87 253.825 Q2107.79 255.585 2107.79 258.756 Q2107.79 262.367 2104.92 264.473 Q2102.07 266.58 2097.07 266.58 Q2094.99 266.58 2092.72 266.163 Q2090.47 265.77 2087.97 264.96 L2087.97 260.561 Q2090.33 261.788 2092.62 262.413 Q2094.92 263.015 2097.16 263.015 Q2100.17 263.015 2101.79 261.997 Q2103.41 260.955 2103.41 259.08 Q2103.41 257.344 2102.23 256.418 Q2101.07 255.492 2097.12 254.636 L2095.63 254.288 Q2091.68 253.455 2089.92 251.742 Q2088.16 250.006 2088.16 246.997 Q2088.16 243.339 2090.75 241.349 Q2093.34 239.358 2098.11 239.358 Q2100.47 239.358 2102.56 239.705 Q2104.64 240.052 2106.4 240.747 Z" fill="#000000" fill-rule="nonzero" fill-opacity="1" /><path clip-path="url(#clip110)" d="M2118.78 232.622 L2118.78 239.983 L2127.56 239.983 L2127.56 243.293 L2118.78 243.293 L2118.78 257.367 Q2118.78 260.538 2119.64 261.441 Q2120.52 262.344 2123.18 262.344 L2127.56 262.344 L2127.56 265.909 L2123.18 265.909 Q2118.25 265.909 2116.37 264.08 Q2114.5 262.228 2114.5 257.367 L2114.5 243.293 L2111.37 243.293 L2111.37 239.983 L2114.5 239.983 L2114.5 232.622 L2118.78 232.622 Z" fill="#000000" fill-rule="nonzero" fill-opacity="1" /><path clip-path="url(#clip110)" d="M2133.16 239.983 L2137.42 239.983 L2137.42 265.909 L2133.16 265.909 L2133.16 239.983 M2133.16 229.89 L2137.42 229.89 L2137.42 235.284 L2133.16 235.284 L2133.16 229.89 Z" fill="#000000" fill-rule="nonzero" fill-opacity="1" /><path clip-path="url(#clip110)" d="M2166.51 244.96 Q2168.11 242.089 2170.33 240.724 Q2172.55 239.358 2175.56 239.358 Q2179.62 239.358 2181.81 242.205 Q2184.01 245.029 2184.01 250.261 L2184.01 265.909 L2179.73 265.909 L2179.73 250.399 Q2179.73 246.673 2178.41 244.867 Q2177.09 243.062 2174.38 243.062 Q2171.07 243.062 2169.15 245.261 Q2167.23 247.46 2167.23 251.256 L2167.23 265.909 L2162.95 265.909 L2162.95 250.399 Q2162.95 246.649 2161.63 244.867 Q2160.31 243.062 2157.55 243.062 Q2154.29 243.062 2152.37 245.284 Q2150.45 247.483 2150.45 251.256 L2150.45 265.909 L2146.17 265.909 L2146.17 239.983 L2150.45 239.983 L2150.45 244.011 Q2151.91 241.626 2153.94 240.492 Q2155.98 239.358 2158.78 239.358 Q2161.61 239.358 2163.57 240.793 Q2165.56 242.228 2166.51 244.96 Z" fill="#000000" fill-rule="nonzero" fill-opacity="1" /><path clip-path="url(#clip110)" d="M2204.29 252.876 Q2199.13 252.876 2197.14 254.057 Q2195.15 255.237 2195.15 258.085 Q2195.15 260.353 2196.63 261.696 Q2198.13 263.015 2200.7 263.015 Q2204.24 263.015 2206.37 260.515 Q2208.53 257.992 2208.53 253.825 L2208.53 252.876 L2204.29 252.876 M2212.79 251.117 L2212.79 265.909 L2208.53 265.909 L2208.53 261.973 Q2207.07 264.335 2204.89 265.469 Q2202.72 266.58 2199.57 266.58 Q2195.59 266.58 2193.23 264.358 Q2190.89 262.112 2190.89 258.362 Q2190.89 253.987 2193.8 251.765 Q2196.74 249.543 2202.55 249.543 L2208.53 249.543 L2208.53 249.126 Q2208.53 246.187 2206.58 244.589 Q2204.66 242.969 2201.17 242.969 Q2198.94 242.969 2196.84 243.501 Q2194.73 244.034 2192.79 245.099 L2192.79 241.163 Q2195.12 240.261 2197.32 239.821 Q2199.52 239.358 2201.61 239.358 Q2207.23 239.358 2210.01 242.274 Q2212.79 245.191 2212.79 251.117 Z" fill="#000000" fill-rule="nonzero" fill-opacity="1" /><path clip-path="url(#clip110)" d="M2225.77 232.622 L2225.77 239.983 L2234.55 239.983 L2234.55 243.293 L2225.77 243.293 L2225.77 257.367 Q2225.77 260.538 2226.63 261.441 Q2227.51 262.344 2230.17 262.344 L2234.55 262.344 L2234.55 265.909 L2230.17 265.909 Q2225.24 265.909 2223.36 264.08 Q2221.49 262.228 2221.49 257.367 L2221.49 243.293 L2218.36 243.293 L2218.36 239.983 L2221.49 239.983 L2221.49 232.622 L2225.77 232.622 Z" fill="#000000" fill-rule="nonzero" fill-opacity="1" /><path clip-path="url(#clip110)" d="M2262.32 251.881 L2262.32 253.964 L2242.74 253.964 Q2243.02 258.362 2245.38 260.677 Q2247.76 262.969 2252 262.969 Q2254.45 262.969 2256.74 262.367 Q2259.06 261.765 2261.33 260.561 L2261.33 264.589 Q2259.04 265.561 2256.63 266.071 Q2254.22 266.58 2251.74 266.58 Q2245.54 266.58 2241.91 262.969 Q2238.3 259.358 2238.3 253.2 Q2238.3 246.835 2241.72 243.108 Q2245.17 239.358 2251 239.358 Q2256.23 239.358 2259.27 242.737 Q2262.32 246.094 2262.32 251.881 M2258.06 250.631 Q2258.02 247.136 2256.1 245.052 Q2254.2 242.969 2251.05 242.969 Q2247.49 242.969 2245.33 244.983 Q2243.2 246.997 2242.88 250.654 L2258.06 250.631 Z" fill="#000000" fill-rule="nonzero" fill-opacity="1" /><polyline clip-path="url(#clip110)" style="stroke:#389826; stroke-linecap:round; stroke-linejoin:round; stroke-width:4; stroke-opacity:0.2; fill:none" points="1770.76,300.469 1906.41,300.469 "/>
<path clip-path="url(#clip110)" d="M1953.04 303.721 L1953.04 305.804 L1933.46 305.804 Q1933.74 310.202 1936.1 312.517 Q1938.48 314.809 1942.72 314.809 Q1945.17 314.809 1947.46 314.207 Q1949.78 313.605 1952.05 312.401 L1952.05 316.429 Q1949.76 317.401 1947.35 317.911 Q1944.94 318.42 1942.46 318.42 Q1936.26 318.42 1932.63 314.809 Q1929.01 311.198 1929.01 305.04 Q1929.01 298.675 1932.44 294.948 Q1935.89 291.198 1941.72 291.198 Q1946.95 291.198 1949.99 294.577 Q1953.04 297.934 1953.04 303.721 M1948.78 302.471 Q1948.74 298.976 1946.82 296.892 Q1944.92 294.809 1941.77 294.809 Q1938.2 294.809 1936.05 296.823 Q1933.92 298.837 1933.6 302.494 L1948.78 302.471 Z" fill="#000000" fill-rule="nonzero" fill-opacity="1" /><path clip-path="url(#clip110)" d="M1975.06 295.804 Q1974.34 295.388 1973.48 295.202 Q1972.65 294.994 1971.63 294.994 Q1968.02 294.994 1966.07 297.355 Q1964.15 299.693 1964.15 304.091 L1964.15 317.749 L1959.87 317.749 L1959.87 291.823 L1964.15 291.823 L1964.15 295.851 Q1965.5 293.489 1967.65 292.355 Q1969.8 291.198 1972.88 291.198 Q1973.32 291.198 1973.85 291.267 Q1974.38 291.314 1975.03 291.429 L1975.06 295.804 Z" fill="#000000" fill-rule="nonzero" fill-opacity="1" /><path clip-path="url(#clip110)" d="M1993.71 295.804 Q1993 295.388 1992.14 295.202 Q1991.31 294.994 1990.29 294.994 Q1986.68 294.994 1984.73 297.355 Q1982.81 299.693 1982.81 304.091 L1982.81 317.749 L1978.53 317.749 L1978.53 291.823 L1982.81 291.823 L1982.81 295.851 Q1984.15 293.489 1986.31 292.355 Q1988.46 291.198 1991.54 291.198 Q1991.98 291.198 1992.51 291.267 Q1993.04 291.314 1993.69 291.429 L1993.71 295.804 Z" fill="#000000" fill-rule="nonzero" fill-opacity="1" /><path clip-path="url(#clip110)" d="M2007.19 294.809 Q2003.76 294.809 2001.77 297.494 Q1999.78 300.156 1999.78 304.809 Q1999.78 309.462 2001.75 312.147 Q2003.74 314.809 2007.19 314.809 Q2010.59 314.809 2012.58 312.124 Q2014.57 309.438 2014.57 304.809 Q2014.57 300.202 2012.58 297.517 Q2010.59 294.809 2007.19 294.809 M2007.19 291.198 Q2012.74 291.198 2015.91 294.809 Q2019.08 298.42 2019.08 304.809 Q2019.08 311.175 2015.91 314.809 Q2012.74 318.42 2007.19 318.42 Q2001.61 318.42 1998.44 314.809 Q1995.29 311.175 1995.29 304.809 Q1995.29 298.42 1998.44 294.809 Q2001.61 291.198 2007.19 291.198 Z" fill="#000000" fill-rule="nonzero" fill-opacity="1" /><path clip-path="url(#clip110)" d="M2041.17 295.804 Q2040.45 295.388 2039.59 295.202 Q2038.76 294.994 2037.74 294.994 Q2034.13 294.994 2032.19 297.355 Q2030.26 299.693 2030.26 304.091 L2030.26 317.749 L2025.98 317.749 L2025.98 291.823 L2030.26 291.823 L2030.26 295.851 Q2031.61 293.489 2033.76 292.355 Q2035.91 291.198 2038.99 291.198 Q2039.43 291.198 2039.96 291.267 Q2040.5 291.314 2041.14 291.429 L2041.17 295.804 Z" fill="#000000" fill-rule="nonzero" fill-opacity="1" /><path clip-path="url(#clip110)" d="M2082.88 303.721 L2082.88 305.804 L2063.3 305.804 Q2063.57 310.202 2065.94 312.517 Q2068.32 314.809 2072.56 314.809 Q2075.01 314.809 2077.3 314.207 Q2079.62 313.605 2081.88 312.401 L2081.88 316.429 Q2079.59 317.401 2077.19 317.911 Q2074.78 318.42 2072.3 318.42 Q2066.1 318.42 2062.46 314.809 Q2058.85 311.198 2058.85 305.04 Q2058.85 298.675 2062.28 294.948 Q2065.73 291.198 2071.56 291.198 Q2076.79 291.198 2079.82 294.577 Q2082.88 297.934 2082.88 303.721 M2078.62 302.471 Q2078.57 298.976 2076.65 296.892 Q2074.75 294.809 2071.61 294.809 Q2068.04 294.809 2065.89 296.823 Q2063.76 298.837 2063.44 302.494 L2078.62 302.471 Z" fill="#000000" fill-rule="nonzero" fill-opacity="1" /><path clip-path="url(#clip110)" d="M2106.4 292.587 L2106.4 296.614 Q2104.59 295.689 2102.65 295.226 Q2100.7 294.763 2098.62 294.763 Q2095.45 294.763 2093.85 295.735 Q2092.28 296.707 2092.28 298.651 Q2092.28 300.133 2093.41 300.989 Q2094.55 301.823 2097.97 302.587 L2099.43 302.911 Q2103.97 303.883 2105.87 305.665 Q2107.79 307.425 2107.79 310.596 Q2107.79 314.207 2104.92 316.313 Q2102.07 318.42 2097.07 318.42 Q2094.99 318.42 2092.72 318.003 Q2090.47 317.61 2087.97 316.8 L2087.97 312.401 Q2090.33 313.628 2092.62 314.253 Q2094.92 314.855 2097.16 314.855 Q2100.17 314.855 2101.79 313.837 Q2103.41 312.795 2103.41 310.92 Q2103.41 309.184 2102.23 308.258 Q2101.07 307.332 2097.12 306.476 L2095.63 306.128 Q2091.68 305.295 2089.92 303.582 Q2088.16 301.846 2088.16 298.837 Q2088.16 295.179 2090.75 293.189 Q2093.34 291.198 2098.11 291.198 Q2100.47 291.198 2102.56 291.545 Q2104.64 291.892 2106.4 292.587 Z" fill="#000000" fill-rule="nonzero" fill-opacity="1" /><path clip-path="url(#clip110)" d="M2118.78 284.462 L2118.78 291.823 L2127.56 291.823 L2127.56 295.133 L2118.78 295.133 L2118.78 309.207 Q2118.78 312.378 2119.64 313.281 Q2120.52 314.184 2123.18 314.184 L2127.56 314.184 L2127.56 317.749 L2123.18 317.749 Q2118.25 317.749 2116.37 315.92 Q2114.5 314.068 2114.5 309.207 L2114.5 295.133 L2111.37 295.133 L2111.37 291.823 L2114.5 291.823 L2114.5 284.462 L2118.78 284.462 Z" fill="#000000" fill-rule="nonzero" fill-opacity="1" /><path clip-path="url(#clip110)" d="M2133.16 291.823 L2137.42 291.823 L2137.42 317.749 L2133.16 317.749 L2133.16 291.823 M2133.16 281.73 L2137.42 281.73 L2137.42 287.124 L2133.16 287.124 L2133.16 281.73 Z" fill="#000000" fill-rule="nonzero" fill-opacity="1" /><path clip-path="url(#clip110)" d="M2166.51 296.8 Q2168.11 293.929 2170.33 292.564 Q2172.55 291.198 2175.56 291.198 Q2179.62 291.198 2181.81 294.045 Q2184.01 296.869 2184.01 302.101 L2184.01 317.749 L2179.73 317.749 L2179.73 302.239 Q2179.73 298.513 2178.41 296.707 Q2177.09 294.902 2174.38 294.902 Q2171.07 294.902 2169.15 297.101 Q2167.23 299.3 2167.23 303.096 L2167.23 317.749 L2162.95 317.749 L2162.95 302.239 Q2162.95 298.489 2161.63 296.707 Q2160.31 294.902 2157.55 294.902 Q2154.29 294.902 2152.37 297.124 Q2150.45 299.323 2150.45 303.096 L2150.45 317.749 L2146.17 317.749 L2146.17 291.823 L2150.45 291.823 L2150.45 295.851 Q2151.91 293.466 2153.94 292.332 Q2155.98 291.198 2158.78 291.198 Q2161.61 291.198 2163.57 292.633 Q2165.56 294.068 2166.51 296.8 Z" fill="#000000" fill-rule="nonzero" fill-opacity="1" /><path clip-path="url(#clip110)" d="M2204.29 304.716 Q2199.13 304.716 2197.14 305.897 Q2195.15 307.077 2195.15 309.925 Q2195.15 312.193 2196.63 313.536 Q2198.13 314.855 2200.7 314.855 Q2204.24 314.855 2206.37 312.355 Q2208.53 309.832 2208.53 305.665 L2208.53 304.716 L2204.29 304.716 M2212.79 302.957 L2212.79 317.749 L2208.53 317.749 L2208.53 313.813 Q2207.07 316.175 2204.89 317.309 Q2202.72 318.42 2199.57 318.42 Q2195.59 318.42 2193.23 316.198 Q2190.89 313.952 2190.89 310.202 Q2190.89 305.827 2193.8 303.605 Q2196.74 301.383 2202.55 301.383 L2208.53 301.383 L2208.53 300.966 Q2208.53 298.027 2206.58 296.429 Q2204.66 294.809 2201.17 294.809 Q2198.94 294.809 2196.84 295.341 Q2194.73 295.874 2192.79 296.939 L2192.79 293.003 Q2195.12 292.101 2197.32 291.661 Q2199.52 291.198 2201.61 291.198 Q2207.23 291.198 2210.01 294.114 Q2212.79 297.031 2212.79 302.957 Z" fill="#000000" fill-rule="nonzero" fill-opacity="1" /><path clip-path="url(#clip110)" d="M2225.77 284.462 L2225.77 291.823 L2234.55 291.823 L2234.55 295.133 L2225.77 295.133 L2225.77 309.207 Q2225.77 312.378 2226.63 313.281 Q2227.51 314.184 2230.17 314.184 L2234.55 314.184 L2234.55 317.749 L2230.17 317.749 Q2225.24 317.749 2223.36 315.92 Q2221.49 314.068 2221.49 309.207 L2221.49 295.133 L2218.36 295.133 L2218.36 291.823 L2221.49 291.823 L2221.49 284.462 L2225.77 284.462 Z" fill="#000000" fill-rule="nonzero" fill-opacity="1" /><path clip-path="url(#clip110)" d="M2262.32 303.721 L2262.32 305.804 L2242.74 305.804 Q2243.02 310.202 2245.38 312.517 Q2247.76 314.809 2252 314.809 Q2254.45 314.809 2256.74 314.207 Q2259.06 313.605 2261.33 312.401 L2261.33 316.429 Q2259.04 317.401 2256.63 317.911 Q2254.22 318.42 2251.74 318.42 Q2245.54 318.42 2241.91 314.809 Q2238.3 311.198 2238.3 305.04 Q2238.3 298.675 2241.72 294.948 Q2245.17 291.198 2251 291.198 Q2256.23 291.198 2259.27 294.577 Q2262.32 297.934 2262.32 303.721 M2258.06 302.471 Q2258.02 298.976 2256.1 296.892 Q2254.2 294.809 2251.05 294.809 Q2247.49 294.809 2245.33 296.823 Q2243.2 298.837 2242.88 302.494 L2258.06 302.471 Z" fill="#000000" fill-rule="nonzero" fill-opacity="1" /></svg>
