<?xml version="1.0" encoding="utf-8"?>
<svg xmlns="http://www.w3.org/2000/svg" xmlns:xlink="http://www.w3.org/1999/xlink" width="864" height="480" viewBox="0 0 3456 1920">
<defs>
  <clipPath id="clip700">
    <rect x="0" y="0" width="3456" height="1920"/>
  </clipPath>
</defs>
<path clip-path="url(#clip700)" d="M0 1920 L3456 1920 L3456 0 L0 0  Z" fill="#ffffff" fill-rule="evenodd" fill-opacity="1"/>
<defs>
  <clipPath id="clip701">
    <rect x="691" y="0" width="2420" height="1920"/>
  </clipPath>
</defs>
<path clip-path="url(#clip700)" d="M218.251 1687.07 L3345.76 1687.07 L3345.76 169.184 L218.251 169.184  Z" fill="#ffffff" fill-rule="evenodd" fill-opacity="1"/>
<defs>
  <clipPath id="clip702">
    <rect x="218" y="169" width="3129" height="1519"/>
  </clipPath>
</defs>
<polyline clip-path="url(#clip702)" style="stroke:#000000; stroke-linecap:round; stroke-linejoin:round; stroke-width:2.8; stroke-opacity:0.4; fill:none" points="218.251,1687.07 218.251,169.184 "/>
<polyline clip-path="url(#clip702)" style="stroke:#000000; stroke-linecap:round; stroke-linejoin:round; stroke-width:2.8; stroke-opacity:0.4; fill:none" points="843.754,1687.07 843.754,169.184 "/>
<polyline clip-path="url(#clip702)" style="stroke:#000000; stroke-linecap:round; stroke-linejoin:round; stroke-width:2.8; stroke-opacity:0.4; fill:none" points="1469.26,1687.07 1469.26,169.184 "/>
<polyline clip-path="url(#clip702)" style="stroke:#000000; stroke-linecap:round; stroke-linejoin:round; stroke-width:2.8; stroke-opacity:0.4; fill:none" points="2094.76,1687.07 2094.76,169.184 "/>
<polyline clip-path="url(#clip702)" style="stroke:#000000; stroke-linecap:round; stroke-linejoin:round; stroke-width:2.8; stroke-opacity:0.4; fill:none" points="2720.26,1687.07 2720.26,169.184 "/>
<polyline clip-path="url(#clip702)" style="stroke:#000000; stroke-linecap:round; stroke-linejoin:round; stroke-width:2.8; stroke-opacity:0.4; fill:none" points="3345.76,1687.07 3345.76,169.184 "/>
<polyline clip-path="url(#clip702)" style="stroke:#000000; stroke-linecap:round; stroke-linejoin:round; stroke-width:2; stroke-opacity:0.06; fill:none" points="343.352,1687.07 343.352,169.184 "/>
<polyline clip-path="url(#clip702)" style="stroke:#000000; stroke-linecap:round; stroke-linejoin:round; stroke-width:2; stroke-opacity:0.06; fill:none" points="468.452,1687.07 468.452,169.184 "/>
<polyline clip-path="url(#clip702)" style="stroke:#000000; stroke-linecap:round; stroke-linejoin:round; stroke-width:2; stroke-opacity:0.06; fill:none" points="593.553,1687.07 593.553,169.184 "/>
<polyline clip-path="url(#clip702)" style="stroke:#000000; stroke-linecap:round; stroke-linejoin:round; stroke-width:2; stroke-opacity:0.06; fill:none" points="718.653,1687.07 718.653,169.184 "/>
<polyline clip-path="url(#clip702)" style="stroke:#000000; stroke-linecap:round; stroke-linejoin:round; stroke-width:2; stroke-opacity:0.06; fill:none" points="968.854,1687.07 968.854,169.184 "/>
<polyline clip-path="url(#clip702)" style="stroke:#000000; stroke-linecap:round; stroke-linejoin:round; stroke-width:2; stroke-opacity:0.06; fill:none" points="1093.95,1687.07 1093.95,169.184 "/>
<polyline clip-path="url(#clip702)" style="stroke:#000000; stroke-linecap:round; stroke-linejoin:round; stroke-width:2; stroke-opacity:0.06; fill:none" points="1219.06,1687.07 1219.06,169.184 "/>
<polyline clip-path="url(#clip702)" style="stroke:#000000; stroke-linecap:round; stroke-linejoin:round; stroke-width:2; stroke-opacity:0.06; fill:none" points="1344.16,1687.07 1344.16,169.184 "/>
<polyline clip-path="url(#clip702)" style="stroke:#000000; stroke-linecap:round; stroke-linejoin:round; stroke-width:2; stroke-opacity:0.06; fill:none" points="1594.36,1687.07 1594.36,169.184 "/>
<polyline clip-path="url(#clip702)" style="stroke:#000000; stroke-linecap:round; stroke-linejoin:round; stroke-width:2; stroke-opacity:0.06; fill:none" points="1719.46,1687.07 1719.46,169.184 "/>
<polyline clip-path="url(#clip702)" style="stroke:#000000; stroke-linecap:round; stroke-linejoin:round; stroke-width:2; stroke-opacity:0.06; fill:none" points="1844.56,1687.07 1844.56,169.184 "/>
<polyline clip-path="url(#clip702)" style="stroke:#000000; stroke-linecap:round; stroke-linejoin:round; stroke-width:2; stroke-opacity:0.06; fill:none" points="1969.66,1687.07 1969.66,169.184 "/>
<polyline clip-path="url(#clip702)" style="stroke:#000000; stroke-linecap:round; stroke-linejoin:round; stroke-width:2; stroke-opacity:0.06; fill:none" points="2219.86,1687.07 2219.86,169.184 "/>
<polyline clip-path="url(#clip702)" style="stroke:#000000; stroke-linecap:round; stroke-linejoin:round; stroke-width:2; stroke-opacity:0.06; fill:none" points="2344.96,1687.07 2344.96,169.184 "/>
<polyline clip-path="url(#clip702)" style="stroke:#000000; stroke-linecap:round; stroke-linejoin:round; stroke-width:2; stroke-opacity:0.06; fill:none" points="2470.06,1687.07 2470.06,169.184 "/>
<polyline clip-path="url(#clip702)" style="stroke:#000000; stroke-linecap:round; stroke-linejoin:round; stroke-width:2; stroke-opacity:0.06; fill:none" points="2595.16,1687.07 2595.16,169.184 "/>
<polyline clip-path="url(#clip702)" style="stroke:#000000; stroke-linecap:round; stroke-linejoin:round; stroke-width:2; stroke-opacity:0.06; fill:none" points="2845.36,1687.07 2845.36,169.184 "/>
<polyline clip-path="url(#clip702)" style="stroke:#000000; stroke-linecap:round; stroke-linejoin:round; stroke-width:2; stroke-opacity:0.06; fill:none" points="2970.46,1687.07 2970.46,169.184 "/>
<polyline clip-path="url(#clip702)" style="stroke:#000000; stroke-linecap:round; stroke-linejoin:round; stroke-width:2; stroke-opacity:0.06; fill:none" points="3095.56,1687.07 3095.56,169.184 "/>
<polyline clip-path="url(#clip702)" style="stroke:#000000; stroke-linecap:round; stroke-linejoin:round; stroke-width:2; stroke-opacity:0.06; fill:none" points="3220.66,1687.07 3220.66,169.184 "/>
<polyline clip-path="url(#clip700)" style="stroke:#000000; stroke-linecap:round; stroke-linejoin:round; stroke-width:4; stroke-opacity:1; fill:none" points="218.251,1687.07 3345.76,1687.07 "/>
<polyline clip-path="url(#clip700)" style="stroke:#000000; stroke-linecap:round; stroke-linejoin:round; stroke-width:4; stroke-opacity:1; fill:none" points="218.251,169.184 3345.76,169.184 "/>
<polyline clip-path="url(#clip700)" style="stroke:#000000; stroke-linecap:round; stroke-linejoin:round; stroke-width:4; stroke-opacity:1; fill:none" points="218.251,1687.07 218.251,1668.17 "/>
<polyline clip-path="url(#clip700)" style="stroke:#000000; stroke-linecap:round; stroke-linejoin:round; stroke-width:4; stroke-opacity:1; fill:none" points="843.754,1687.07 843.754,1668.17 "/>
<polyline clip-path="url(#clip700)" style="stroke:#000000; stroke-linecap:round; stroke-linejoin:round; stroke-width:4; stroke-opacity:1; fill:none" points="1469.26,1687.07 1469.26,1668.17 "/>
<polyline clip-path="url(#clip700)" style="stroke:#000000; stroke-linecap:round; stroke-linejoin:round; stroke-width:4; stroke-opacity:1; fill:none" points="2094.76,1687.07 2094.76,1668.17 "/>
<polyline clip-path="url(#clip700)" style="stroke:#000000; stroke-linecap:round; stroke-linejoin:round; stroke-width:4; stroke-opacity:1; fill:none" points="2720.26,1687.07 2720.26,1668.17 "/>
<polyline clip-path="url(#clip700)" style="stroke:#000000; stroke-linecap:round; stroke-linejoin:round; stroke-width:4; stroke-opacity:1; fill:none" points="3345.76,1687.07 3345.76,1668.17 "/>
<polyline clip-path="url(#clip700)" style="stroke:#000000; stroke-linecap:round; stroke-linejoin:round; stroke-width:4; stroke-opacity:1; fill:none" points="343.352,1687.07 343.352,1677.62 "/>
<polyline clip-path="url(#clip700)" style="stroke:#000000; stroke-linecap:round; stroke-linejoin:round; stroke-width:4; stroke-opacity:1; fill:none" points="468.452,1687.07 468.452,1677.62 "/>
<polyline clip-path="url(#clip700)" style="stroke:#000000; stroke-linecap:round; stroke-linejoin:round; stroke-width:4; stroke-opacity:1; fill:none" points="593.553,1687.07 593.553,1677.62 "/>
<polyline clip-path="url(#clip700)" style="stroke:#000000; stroke-linecap:round; stroke-linejoin:round; stroke-width:4; stroke-opacity:1; fill:none" points="718.653,1687.07 718.653,1677.62 "/>
<polyline clip-path="url(#clip700)" style="stroke:#000000; stroke-linecap:round; stroke-linejoin:round; stroke-width:4; stroke-opacity:1; fill:none" points="968.854,1687.07 968.854,1677.62 "/>
<polyline clip-path="url(#clip700)" style="stroke:#000000; stroke-linecap:round; stroke-linejoin:round; stroke-width:4; stroke-opacity:1; fill:none" points="1093.95,1687.07 1093.95,1677.62 "/>
<polyline clip-path="url(#clip700)" style="stroke:#000000; stroke-linecap:round; stroke-linejoin:round; stroke-width:4; stroke-opacity:1; fill:none" points="1219.06,1687.07 1219.06,1677.62 "/>
<polyline clip-path="url(#clip700)" style="stroke:#000000; stroke-linecap:round; stroke-linejoin:round; stroke-width:4; stroke-opacity:1; fill:none" points="1344.16,1687.07 1344.16,1677.62 "/>
<polyline clip-path="url(#clip700)" style="stroke:#000000; stroke-linecap:round; stroke-linejoin:round; stroke-width:4; stroke-opacity:1; fill:none" points="1594.36,1687.07 1594.36,1677.62 "/>
<polyline clip-path="url(#clip700)" style="stroke:#000000; stroke-linecap:round; stroke-linejoin:round; stroke-width:4; stroke-opacity:1; fill:none" points="1719.46,1687.07 1719.46,1677.62 "/>
<polyline clip-path="url(#clip700)" style="stroke:#000000; stroke-linecap:round; stroke-linejoin:round; stroke-width:4; stroke-opacity:1; fill:none" points="1844.56,1687.07 1844.56,1677.62 "/>
<polyline clip-path="url(#clip700)" style="stroke:#000000; stroke-linecap:round; stroke-linejoin:round; stroke-width:4; stroke-opacity:1; fill:none" points="1969.66,1687.07 1969.66,1677.62 "/>
<polyline clip-path="url(#clip700)" style="stroke:#000000; stroke-linecap:round; stroke-linejoin:round; stroke-width:4; stroke-opacity:1; fill:none" points="2219.86,1687.07 2219.86,1677.62 "/>
<polyline clip-path="url(#clip700)" style="stroke:#000000; stroke-linecap:round; stroke-linejoin:round; stroke-width:4; stroke-opacity:1; fill:none" points="2344.96,1687.07 2344.96,1677.62 "/>
<polyline clip-path="url(#clip700)" style="stroke:#000000; stroke-linecap:round; stroke-linejoin:round; stroke-width:4; stroke-opacity:1; fill:none" points="2470.06,1687.07 2470.06,1677.62 "/>
<polyline clip-path="url(#clip700)" style="stroke:#000000; stroke-linecap:round; stroke-linejoin:round; stroke-width:4; stroke-opacity:1; fill:none" points="2595.16,1687.07 2595.16,1677.62 "/>
<polyline clip-path="url(#clip700)" style="stroke:#000000; stroke-linecap:round; stroke-linejoin:round; stroke-width:4; stroke-opacity:1; fill:none" points="2845.36,1687.07 2845.36,1677.62 "/>
<polyline clip-path="url(#clip700)" style="stroke:#000000; stroke-linecap:round; stroke-linejoin:round; stroke-width:4; stroke-opacity:1; fill:none" points="2970.46,1687.07 2970.46,1677.62 "/>
<polyline clip-path="url(#clip700)" style="stroke:#000000; stroke-linecap:round; stroke-linejoin:round; stroke-width:4; stroke-opacity:1; fill:none" points="3095.56,1687.07 3095.56,1677.62 "/>
<polyline clip-path="url(#clip700)" style="stroke:#000000; stroke-linecap:round; stroke-linejoin:round; stroke-width:4; stroke-opacity:1; fill:none" points="3220.66,1687.07 3220.66,1677.62 "/>
<path clip-path="url(#clip700)" d="M207.604 1741.74 Q207.604 1734.3 209.482 1730.25 Q212.1 1724.22 218.276 1724.22 Q219.585 1724.22 220.944 1724.59 Q222.327 1724.94 224.057 1726.3 Q225.811 1727.65 226.873 1729.88 Q228.898 1734.18 228.898 1741.74 Q228.898 1749.12 227.021 1753.15 Q224.279 1759.03 218.227 1759.03 Q215.954 1759.03 213.632 1757.87 Q211.334 1756.71 209.877 1753.91 Q207.604 1749.74 207.604 1741.74 M211.804 1741.12 Q211.804 1748.75 212.347 1751.79 Q212.965 1755.07 214.645 1756.51 Q216.349 1757.92 218.227 1757.92 Q220.252 1757.92 221.932 1756.41 Q223.637 1754.88 224.155 1751.59 Q224.724 1748.36 224.699 1741.12 Q224.699 1734.08 224.205 1731.26 Q223.538 1727.98 221.759 1726.67 Q220.005 1725.33 218.227 1725.33 Q217.56 1725.33 216.843 1725.53 Q216.152 1725.73 215.139 1726.3 Q214.126 1726.86 213.335 1728.27 Q212.57 1729.68 212.199 1731.8 Q211.804 1734.55 211.804 1741.12 Z" fill="#000000" fill-rule="nonzero" fill-opacity="1" /><path clip-path="url(#clip700)" d="M833.65 1757.92 Q833.65 1757 833.724 1756.73 Q833.823 1756.46 834.218 1756.04 L843.927 1745.22 Q849.238 1739.24 849.238 1734.03 Q849.238 1730.64 847.459 1728.22 Q845.705 1725.8 842.469 1725.8 Q840.246 1725.8 838.368 1727.16 Q836.491 1728.52 835.626 1730.94 Q835.775 1730.89 836.293 1730.89 Q837.553 1730.89 838.245 1731.68 Q838.961 1732.47 838.961 1733.53 Q838.961 1734.89 838.072 1735.56 Q837.207 1736.2 836.343 1736.2 Q835.997 1736.2 835.528 1736.13 Q835.083 1736.05 834.367 1735.36 Q833.65 1734.65 833.65 1733.39 Q833.65 1729.85 836.318 1727.04 Q839.011 1724.22 843.112 1724.22 Q847.756 1724.22 850.794 1726.99 Q853.857 1729.73 853.857 1734.03 Q853.857 1735.53 853.388 1736.92 Q852.943 1738.28 852.326 1739.34 Q851.733 1740.4 850.103 1742.11 Q848.472 1743.81 847.163 1745.02 Q845.854 1746.23 842.914 1748.8 L837.553 1754.01 L846.669 1754.01 Q851.115 1754.01 851.461 1753.62 Q851.955 1752.9 852.573 1749.12 L853.857 1749.12 L852.425 1757.92 L833.65 1757.92 Z" fill="#000000" fill-rule="nonzero" fill-opacity="1" /><path clip-path="url(#clip700)" d="M1458.04 1749.57 L1458.04 1748.01 L1473.58 1724.27 Q1473.97 1723.65 1474.59 1723.68 Q1475.16 1723.68 1475.28 1723.9 Q1475.41 1724.12 1475.41 1724.99 L1475.41 1748.01 L1480.47 1748.01 L1480.47 1749.57 L1475.41 1749.57 L1475.41 1753.96 Q1475.41 1755.42 1476 1755.89 Q1476.62 1756.36 1479.24 1756.36 L1480.3 1756.36 L1480.3 1757.92 Q1478.22 1757.77 1473.43 1757.77 Q1468.66 1757.77 1466.59 1757.92 L1466.59 1756.36 L1467.65 1756.36 Q1470.27 1756.36 1470.89 1755.91 Q1471.5 1755.45 1471.5 1753.96 L1471.5 1749.57 L1458.04 1749.57 M1459.47 1748.01 L1471.8 1748.01 L1471.8 1729.14 L1459.47 1748.01 Z" fill="#000000" fill-rule="nonzero" fill-opacity="1" /><path clip-path="url(#clip700)" d="M2084.26 1741.93 Q2084.26 1733.98 2088.31 1729.11 Q2092.36 1724.22 2097.57 1724.22 Q2100.61 1724.22 2102.29 1725.78 Q2104 1727.31 2104 1729.68 Q2104 1730.99 2103.23 1731.56 Q2102.47 1732.13 2101.68 1732.13 Q2100.76 1732.13 2100.05 1731.51 Q2099.33 1730.89 2099.33 1729.78 Q2099.33 1727.51 2102.12 1727.51 Q2100.81 1725.48 2097.67 1725.48 Q2096.71 1725.48 2095.72 1725.78 Q2094.73 1726.05 2093.45 1726.99 Q2092.16 1727.93 2091.18 1729.41 Q2090.19 1730.89 2089.5 1733.68 Q2088.81 1736.47 2088.81 1740.1 L2088.81 1741.32 Q2090.88 1736.3 2095.13 1736.32 Q2099.38 1736.32 2102.32 1739.56 Q2105.26 1742.8 2105.26 1747.59 Q2105.26 1752.51 2102.19 1755.77 Q2099.13 1759.03 2094.83 1759.03 Q2092.91 1759.03 2091.15 1758.21 Q2089.42 1757.42 2087.79 1755.59 Q2086.19 1753.77 2085.22 1750.26 Q2084.26 1746.75 2084.26 1741.93 M2088.9 1746.48 Q2088.9 1751.44 2089.82 1753.81 Q2089.97 1754.21 2090.29 1754.75 Q2090.63 1755.3 2091.2 1756.01 Q2091.79 1756.71 2092.76 1757.17 Q2093.72 1757.62 2094.83 1757.62 Q2098.22 1757.62 2099.85 1754.33 Q2100.71 1752.51 2100.71 1747.54 Q2100.71 1742.48 2099.8 1740.62 Q2098.24 1737.49 2095.08 1737.49 Q2092.96 1737.49 2091.47 1738.94 Q2090.02 1740.4 2089.45 1742.35 Q2088.9 1744.3 2088.9 1746.48 Z" fill="#000000" fill-rule="nonzero" fill-opacity="1" /><path clip-path="url(#clip700)" d="M2709.76 1750.28 Q2709.76 1744.63 2717.05 1740.97 Q2713.91 1738.84 2713.34 1738.23 Q2711.12 1735.76 2711.12 1732.67 Q2711.12 1729.14 2713.79 1726.69 Q2716.48 1724.22 2720.29 1724.22 Q2723.92 1724.22 2726.66 1726.32 Q2729.4 1728.42 2729.4 1731.75 Q2729.4 1736.45 2723.28 1739.61 Q2727.33 1742.13 2728.29 1743.19 Q2730.76 1745.93 2730.76 1749.42 Q2730.76 1753.47 2727.65 1756.26 Q2724.53 1759.03 2720.24 1759.03 Q2716.04 1759.03 2712.9 1756.58 Q2709.76 1754.14 2709.76 1750.28 M2712.28 1750.28 Q2712.28 1753.42 2714.63 1755.52 Q2717 1757.62 2720.29 1757.62 Q2723.47 1757.62 2725.84 1755.79 Q2728.24 1753.96 2728.24 1751.25 Q2728.24 1750.18 2727.87 1749.27 Q2727.52 1748.36 2726.81 1747.64 Q2726.12 1746.9 2725.67 1746.58 Q2725.25 1746.23 2724.44 1745.66 L2718.21 1741.74 Q2712.28 1745.02 2712.28 1750.28 M2713.34 1730.69 Q2713.34 1733.11 2715.89 1734.79 L2722.16 1738.84 Q2727.18 1735.91 2727.18 1731.75 Q2727.18 1729.06 2725.13 1727.28 Q2723.08 1725.48 2720.24 1725.48 Q2717.45 1725.48 2715.39 1726.96 Q2713.34 1728.42 2713.34 1730.69 Z" fill="#000000" fill-rule="nonzero" fill-opacity="1" /><path clip-path="url(#clip700)" d="M3323.73 1729.04 L3323.73 1727.46 Q3329.81 1727.46 3332.94 1724.22 Q3333.81 1724.22 3333.96 1724.42 Q3334.1 1724.62 3334.1 1725.53 L3334.1 1753.91 Q3334.1 1755.42 3334.84 1755.89 Q3335.59 1756.36 3338.82 1756.36 L3340.43 1756.36 L3340.43 1757.92 Q3338.65 1757.77 3332.23 1757.77 Q3325.8 1757.77 3324.05 1757.92 L3324.05 1756.36 L3325.66 1756.36 Q3328.84 1756.36 3329.61 1755.91 Q3330.37 1755.45 3330.37 1753.91 L3330.37 1727.7 Q3327.73 1729.04 3323.73 1729.04 Z" fill="#000000" fill-rule="nonzero" fill-opacity="1" /><path clip-path="url(#clip700)" d="M3346.5 1741.74 Q3346.5 1734.3 3348.38 1730.25 Q3351 1724.22 3357.18 1724.22 Q3358.49 1724.22 3359.84 1724.59 Q3361.23 1724.94 3362.96 1726.3 Q3364.71 1727.65 3365.77 1729.88 Q3367.8 1734.18 3367.8 1741.74 Q3367.8 1749.12 3365.92 1753.15 Q3363.18 1759.03 3357.13 1759.03 Q3354.85 1759.03 3352.53 1757.87 Q3350.24 1756.71 3348.78 1753.91 Q3346.5 1749.74 3346.5 1741.74 M3350.7 1741.12 Q3350.7 1748.75 3351.25 1751.79 Q3351.87 1755.07 3353.55 1756.51 Q3355.25 1757.92 3357.13 1757.92 Q3359.15 1757.92 3360.83 1756.41 Q3362.54 1754.88 3363.06 1751.59 Q3363.62 1748.36 3363.6 1741.12 Q3363.6 1734.08 3363.11 1731.26 Q3362.44 1727.98 3360.66 1726.67 Q3358.91 1725.33 3357.13 1725.33 Q3356.46 1725.33 3355.74 1725.53 Q3355.05 1725.73 3354.04 1726.3 Q3353.03 1726.86 3352.24 1728.27 Q3351.47 1729.68 3351.1 1731.8 Q3350.7 1734.55 3350.7 1741.12 Z" fill="#000000" fill-rule="nonzero" fill-opacity="1" /><path clip-path="url(#clip700)" d="M1770.13 1822.61 L1770.13 1820.94 Q1773.61 1820.79 1775.91 1818.35 Q1778.25 1815.86 1779.02 1812.83 Q1779.84 1809.79 1779.91 1806.27 L1781.8 1806.27 L1781.8 1820.24 L1792.66 1820.24 L1792.66 1822.61 L1781.8 1822.61 L1781.8 1843.69 Q1781.8 1851.88 1786.92 1851.88 Q1789.1 1851.88 1790.55 1849.66 Q1791.99 1847.4 1791.99 1843.4 L1791.99 1839.21 L1793.88 1839.21 L1793.88 1843.54 Q1793.88 1847.66 1791.99 1850.73 Q1790.1 1853.81 1786.36 1853.81 Q1784.99 1853.81 1783.62 1853.44 Q1782.29 1853.1 1780.51 1852.21 Q1778.77 1851.29 1777.65 1849.06 Q1776.58 1846.8 1776.58 1843.54 L1776.58 1822.61 L1770.13 1822.61 Z" fill="#000000" fill-rule="nonzero" fill-opacity="1" /><polyline clip-path="url(#clip702)" style="stroke:#000000; stroke-linecap:round; stroke-linejoin:round; stroke-width:2.8; stroke-opacity:0.4; fill:none" points="218.251,1644.11 3345.76,1644.11 "/>
<polyline clip-path="url(#clip702)" style="stroke:#000000; stroke-linecap:round; stroke-linejoin:round; stroke-width:2.8; stroke-opacity:0.4; fill:none" points="218.251,1171.96 3345.76,1171.96 "/>
<polyline clip-path="url(#clip702)" style="stroke:#000000; stroke-linecap:round; stroke-linejoin:round; stroke-width:2.8; stroke-opacity:0.4; fill:none" points="218.251,699.808 3345.76,699.808 "/>
<polyline clip-path="url(#clip702)" style="stroke:#000000; stroke-linecap:round; stroke-linejoin:round; stroke-width:2.8; stroke-opacity:0.4; fill:none" points="218.251,227.657 3345.76,227.657 "/>
<polyline clip-path="url(#clip702)" style="stroke:#000000; stroke-linecap:round; stroke-linejoin:round; stroke-width:2; stroke-opacity:0.06; fill:none" points="218.251,1549.68 3345.76,1549.68 "/>
<polyline clip-path="url(#clip702)" style="stroke:#000000; stroke-linecap:round; stroke-linejoin:round; stroke-width:2; stroke-opacity:0.06; fill:none" points="218.251,1455.25 3345.76,1455.25 "/>
<polyline clip-path="url(#clip702)" style="stroke:#000000; stroke-linecap:round; stroke-linejoin:round; stroke-width:2; stroke-opacity:0.06; fill:none" points="218.251,1360.82 3345.76,1360.82 "/>
<polyline clip-path="url(#clip702)" style="stroke:#000000; stroke-linecap:round; stroke-linejoin:round; stroke-width:2; stroke-opacity:0.06; fill:none" points="218.251,1266.39 3345.76,1266.39 "/>
<polyline clip-path="url(#clip702)" style="stroke:#000000; stroke-linecap:round; stroke-linejoin:round; stroke-width:2; stroke-opacity:0.06; fill:none" points="218.251,1077.53 3345.76,1077.53 "/>
<polyline clip-path="url(#clip702)" style="stroke:#000000; stroke-linecap:round; stroke-linejoin:round; stroke-width:2; stroke-opacity:0.06; fill:none" points="218.251,983.098 3345.76,983.098 "/>
<polyline clip-path="url(#clip702)" style="stroke:#000000; stroke-linecap:round; stroke-linejoin:round; stroke-width:2; stroke-opacity:0.06; fill:none" points="218.251,888.668 3345.76,888.668 "/>
<polyline clip-path="url(#clip702)" style="stroke:#000000; stroke-linecap:round; stroke-linejoin:round; stroke-width:2; stroke-opacity:0.06; fill:none" points="218.251,794.238 3345.76,794.238 "/>
<polyline clip-path="url(#clip702)" style="stroke:#000000; stroke-linecap:round; stroke-linejoin:round; stroke-width:2; stroke-opacity:0.06; fill:none" points="218.251,605.378 3345.76,605.378 "/>
<polyline clip-path="url(#clip702)" style="stroke:#000000; stroke-linecap:round; stroke-linejoin:round; stroke-width:2; stroke-opacity:0.06; fill:none" points="218.251,510.948 3345.76,510.948 "/>
<polyline clip-path="url(#clip702)" style="stroke:#000000; stroke-linecap:round; stroke-linejoin:round; stroke-width:2; stroke-opacity:0.06; fill:none" points="218.251,416.518 3345.76,416.518 "/>
<polyline clip-path="url(#clip702)" style="stroke:#000000; stroke-linecap:round; stroke-linejoin:round; stroke-width:2; stroke-opacity:0.06; fill:none" points="218.251,322.088 3345.76,322.088 "/>
<polyline clip-path="url(#clip700)" style="stroke:#000000; stroke-linecap:round; stroke-linejoin:round; stroke-width:4; stroke-opacity:1; fill:none" points="218.251,1687.07 218.251,169.184 "/>
<polyline clip-path="url(#clip700)" style="stroke:#000000; stroke-linecap:round; stroke-linejoin:round; stroke-width:4; stroke-opacity:1; fill:none" points="3345.76,1687.07 3345.76,169.184 "/>
<polyline clip-path="url(#clip700)" style="stroke:#000000; stroke-linecap:round; stroke-linejoin:round; stroke-width:4; stroke-opacity:1; fill:none" points="218.251,1644.11 237.149,1644.11 "/>
<polyline clip-path="url(#clip700)" style="stroke:#000000; stroke-linecap:round; stroke-linejoin:round; stroke-width:4; stroke-opacity:1; fill:none" points="218.251,1171.96 237.149,1171.96 "/>
<polyline clip-path="url(#clip700)" style="stroke:#000000; stroke-linecap:round; stroke-linejoin:round; stroke-width:4; stroke-opacity:1; fill:none" points="218.251,699.808 237.149,699.808 "/>
<polyline clip-path="url(#clip700)" style="stroke:#000000; stroke-linecap:round; stroke-linejoin:round; stroke-width:4; stroke-opacity:1; fill:none" points="218.251,227.657 237.149,227.657 "/>
<polyline clip-path="url(#clip700)" style="stroke:#000000; stroke-linecap:round; stroke-linejoin:round; stroke-width:4; stroke-opacity:1; fill:none" points="218.251,1549.68 227.7,1549.68 "/>
<polyline clip-path="url(#clip700)" style="stroke:#000000; stroke-linecap:round; stroke-linejoin:round; stroke-width:4; stroke-opacity:1; fill:none" points="218.251,1455.25 227.7,1455.25 "/>
<polyline clip-path="url(#clip700)" style="stroke:#000000; stroke-linecap:round; stroke-linejoin:round; stroke-width:4; stroke-opacity:1; fill:none" points="218.251,1360.82 227.7,1360.82 "/>
<polyline clip-path="url(#clip700)" style="stroke:#000000; stroke-linecap:round; stroke-linejoin:round; stroke-width:4; stroke-opacity:1; fill:none" points="218.251,1266.39 227.7,1266.39 "/>
<polyline clip-path="url(#clip700)" style="stroke:#000000; stroke-linecap:round; stroke-linejoin:round; stroke-width:4; stroke-opacity:1; fill:none" points="218.251,1077.53 227.7,1077.53 "/>
<polyline clip-path="url(#clip700)" style="stroke:#000000; stroke-linecap:round; stroke-linejoin:round; stroke-width:4; stroke-opacity:1; fill:none" points="218.251,983.098 227.7,983.098 "/>
<polyline clip-path="url(#clip700)" style="stroke:#000000; stroke-linecap:round; stroke-linejoin:round; stroke-width:4; stroke-opacity:1; fill:none" points="218.251,888.668 227.7,888.668 "/>
<polyline clip-path="url(#clip700)" style="stroke:#000000; stroke-linecap:round; stroke-linejoin:round; stroke-width:4; stroke-opacity:1; fill:none" points="218.251,794.238 227.7,794.238 "/>
<polyline clip-path="url(#clip700)" style="stroke:#000000; stroke-linecap:round; stroke-linejoin:round; stroke-width:4; stroke-opacity:1; fill:none" points="218.251,605.378 227.7,605.378 "/>
<polyline clip-path="url(#clip700)" style="stroke:#000000; stroke-linecap:round; stroke-linejoin:round; stroke-width:4; stroke-opacity:1; fill:none" points="218.251,510.948 227.7,510.948 "/>
<polyline clip-path="url(#clip700)" style="stroke:#000000; stroke-linecap:round; stroke-linejoin:round; stroke-width:4; stroke-opacity:1; fill:none" points="218.251,416.518 227.7,416.518 "/>
<polyline clip-path="url(#clip700)" style="stroke:#000000; stroke-linecap:round; stroke-linejoin:round; stroke-width:4; stroke-opacity:1; fill:none" points="218.251,322.088 227.7,322.088 "/>
<path clip-path="url(#clip700)" d="M142.103 1648.02 Q142.4 1648.32 142.4 1648.74 Q142.4 1649.16 142.103 1649.46 Q141.807 1649.75 141.387 1649.75 L109.717 1649.75 Q109.297 1649.75 109.001 1649.46 Q108.704 1649.16 108.704 1648.74 Q108.704 1648.32 109.001 1648.02 Q109.297 1647.73 109.717 1647.73 L141.387 1647.73 Q141.807 1647.73 142.103 1648.02 Z" fill="#000000" fill-rule="nonzero" fill-opacity="1" /><path clip-path="url(#clip700)" d="M149.712 1632.51 L149.712 1630.93 Q155.789 1630.93 158.926 1627.69 Q159.791 1627.69 159.939 1627.89 Q160.087 1628.09 160.087 1629 L160.087 1657.39 Q160.087 1658.89 160.828 1659.36 Q161.569 1659.83 164.806 1659.83 L166.411 1659.83 L166.411 1661.39 Q164.633 1661.24 158.21 1661.24 Q151.787 1661.24 150.033 1661.39 L150.033 1659.83 L151.639 1659.83 Q154.825 1659.83 155.591 1659.39 Q156.357 1658.92 156.357 1657.39 L156.357 1631.18 Q153.714 1632.51 149.712 1632.51 Z" fill="#000000" fill-rule="nonzero" fill-opacity="1" /><path clip-path="url(#clip700)" d="M145.117 1173.06 Q145.117 1165.62 146.994 1161.57 Q149.613 1155.54 155.789 1155.54 Q157.098 1155.54 158.457 1155.91 Q159.84 1156.26 161.569 1157.62 Q163.323 1158.98 164.386 1161.2 Q166.411 1165.5 166.411 1173.06 Q166.411 1180.44 164.534 1184.47 Q161.792 1190.35 155.739 1190.35 Q153.467 1190.35 151.145 1189.19 Q148.847 1188.03 147.39 1185.24 Q145.117 1181.06 145.117 1173.06 M149.317 1172.44 Q149.317 1180.07 149.86 1183.11 Q150.478 1186.4 152.157 1187.83 Q153.862 1189.24 155.739 1189.24 Q157.765 1189.24 159.445 1187.73 Q161.149 1186.2 161.668 1182.91 Q162.236 1179.68 162.212 1172.44 Q162.212 1165.4 161.718 1162.58 Q161.051 1159.3 159.272 1157.99 Q157.518 1156.65 155.739 1156.65 Q155.072 1156.65 154.356 1156.85 Q153.664 1157.05 152.652 1157.62 Q151.639 1158.19 150.848 1159.59 Q150.082 1161 149.712 1163.13 Q149.317 1165.87 149.317 1172.44 Z" fill="#000000" fill-rule="nonzero" fill-opacity="1" /><path clip-path="url(#clip700)" d="M149.712 688.21 L149.712 686.629 Q155.789 686.629 158.926 683.393 Q159.791 683.393 159.939 683.59 Q160.087 683.788 160.087 684.702 L160.087 713.086 Q160.087 714.593 160.828 715.062 Q161.569 715.532 164.806 715.532 L166.411 715.532 L166.411 717.088 Q164.633 716.94 158.21 716.94 Q151.787 716.94 150.033 717.088 L150.033 715.532 L151.639 715.532 Q154.825 715.532 155.591 715.087 Q156.357 714.618 156.357 713.086 L156.357 686.876 Q153.714 688.21 149.712 688.21 Z" fill="#000000" fill-rule="nonzero" fill-opacity="1" /><path clip-path="url(#clip700)" d="M146.204 244.937 Q146.204 244.023 146.278 243.752 Q146.377 243.48 146.772 243.06 L156.481 232.24 Q161.792 226.262 161.792 221.049 Q161.792 217.665 160.013 215.244 Q158.259 212.823 155.023 212.823 Q152.8 212.823 150.922 214.182 Q149.045 215.541 148.18 217.961 Q148.328 217.912 148.847 217.912 Q150.107 217.912 150.799 218.703 Q151.515 219.493 151.515 220.555 Q151.515 221.914 150.626 222.581 Q149.761 223.223 148.897 223.223 Q148.551 223.223 148.081 223.149 Q147.637 223.075 146.92 222.383 Q146.204 221.667 146.204 220.407 Q146.204 216.874 148.872 214.058 Q151.565 211.242 155.665 211.242 Q160.31 211.242 163.348 214.009 Q166.411 216.751 166.411 221.049 Q166.411 222.556 165.942 223.94 Q165.497 225.298 164.88 226.361 Q164.287 227.423 162.656 229.127 Q161.026 230.832 159.717 232.042 Q158.407 233.253 155.468 235.822 L150.107 241.034 L159.223 241.034 Q163.669 241.034 164.015 240.639 Q164.509 239.923 165.127 236.143 L166.411 236.143 L164.979 244.937 L146.204 244.937 Z" fill="#000000" fill-rule="nonzero" fill-opacity="1" /><path clip-path="url(#clip700)" d="M1445.18 62.208 L1445.18 59.8735 L1446.99 59.8735 Q1451.11 59.8735 1452.03 59.2065 Q1453 58.5025 1453 56.2792 L1453 16.2968 Q1453 14.1106 1452.03 13.4436 Q1451.07 12.7395 1446.99 12.7395 L1445.18 12.7395 L1445.18 10.368 L1469 10.368 Q1477.27 10.368 1483.01 14.4441 Q1488.79 18.4831 1488.79 24.0413 Q1488.79 28.3026 1485.05 31.6376 Q1481.31 34.9725 1475.53 36.4177 Q1483.05 39.0115 1484.79 45.1997 L1485.75 51.2768 Q1486.05 53.463 1486.23 54.5747 Q1486.46 55.6863 1486.79 57.2056 Q1487.12 58.7248 1487.46 59.4659 Q1487.83 60.17 1488.35 60.9481 Q1488.87 61.6892 1489.53 61.9486 Q1490.24 62.208 1491.16 62.208 Q1492.9 62.208 1494.39 60.6517 Q1495.87 59.0954 1496.16 55.464 Q1496.31 54.2412 1497.09 54.2412 Q1498.05 54.2412 1498.05 55.464 Q1498.05 56.5386 1497.76 57.7985 Q1497.46 59.0213 1496.72 60.4664 Q1496.02 61.9116 1494.46 62.875 Q1492.9 63.8755 1490.87 63.8755 Q1484.94 63.8755 1481.31 60.6887 Q1479.79 59.3177 1479.08 57.5391 Q1478.42 55.7604 1478.3 54.3523 Q1478.19 52.9442 1478.19 49.8316 Q1478.19 45.4221 1477.71 43.4952 Q1477.27 41.5683 1475.3 39.6785 Q1472.64 37.0847 1468.23 37.0847 L1459.52 37.0847 L1459.52 56.2792 Q1459.52 58.4654 1460.44 59.1695 Q1461.41 59.8735 1465.52 59.8735 L1467.34 59.8735 L1467.34 62.208 Q1464.59 61.9857 1456.26 61.9857 Q1447.92 61.9857 1445.18 62.208 M1459.52 35.4172 L1467.93 35.4172 Q1471.97 35.4172 1474.67 34.4538 Q1477.42 33.4533 1478.71 31.6746 Q1480.01 29.896 1480.49 28.1174 Q1480.97 26.3017 1480.97 24.0413 Q1480.97 21.3733 1480.38 19.3724 Q1479.79 17.3714 1478.49 16.1856 Q1477.19 14.9999 1475.9 14.2588 Q1474.6 13.4806 1472.6 13.1842 Q1470.6 12.8877 1469.23 12.8136 Q1467.85 12.7395 1465.67 12.7395 Q1461.96 12.7395 1461.19 12.8877 Q1460.33 12.9619 1460 13.3695 Q1459.67 13.7771 1459.59 14.2588 Q1459.52 14.7034 1459.52 15.778 L1459.52 35.4172 Z" fill="#000000" fill-rule="nonzero" fill-opacity="1" /><path clip-path="url(#clip700)" d="M1500.87 62.208 L1500.87 59.8735 Q1504.91 59.8735 1505.84 59.3918 Q1506.76 58.873 1506.76 56.4274 L1506.76 36.0101 Q1506.76 33.1939 1505.8 32.5269 Q1504.87 31.8599 1501.17 31.8599 L1501.17 29.4884 L1511.77 28.6732 L1511.77 56.5015 Q1511.77 58.7619 1512.58 59.3177 Q1513.4 59.8735 1517.1 59.8735 L1517.1 62.208 Q1509.36 61.9857 1509.21 61.9857 Q1508.17 61.9857 1500.87 62.208 M1504.06 15.4445 Q1504.06 13.9253 1505.21 12.7025 Q1506.39 11.4426 1508.06 11.4426 Q1509.73 11.4426 1510.91 12.5913 Q1512.1 13.703 1512.1 15.4816 Q1512.1 17.2232 1510.91 18.3719 Q1509.73 19.4835 1508.06 19.4835 Q1506.32 19.4835 1505.17 18.2607 Q1504.06 17.0379 1504.06 15.4445 Z" fill="#000000" fill-rule="nonzero" fill-opacity="1" /><path clip-path="url(#clip700)" d="M1521.47 68.2109 Q1521.47 65.7653 1523.33 63.6531 Q1525.22 61.541 1528.48 60.6146 Q1525.14 58.5025 1525.14 53.8706 Q1525.14 50.3133 1527.48 47.5713 Q1523.92 44.6069 1523.92 39.7526 Q1523.92 35.269 1527.48 31.9711 Q1531.03 28.6732 1536.22 28.6732 Q1540.78 28.6732 1544.26 31.4153 Q1547.89 27.858 1552.3 27.8209 Q1554.27 27.8209 1555.19 29.0437 Q1556.16 30.2666 1556.16 31.5635 Q1556.16 32.7122 1555.42 33.268 Q1554.71 33.8238 1553.97 33.8238 Q1553.04 33.8238 1552.38 33.231 Q1551.75 32.601 1551.75 31.6376 Q1551.75 30.0442 1552.97 29.5625 Q1552.75 29.4884 1552.23 29.4884 Q1548.52 29.4884 1545.37 32.4528 Q1548.49 35.3431 1548.49 39.8268 Q1548.49 44.3104 1544.93 47.6083 Q1541.37 50.9062 1536.22 50.9062 Q1531.96 50.9062 1528.7 48.5347 Q1527.4 50.0539 1527.4 52.129 Q1527.4 54.0188 1528.55 55.501 Q1529.7 56.9832 1531.44 57.2056 Q1531.96 57.2797 1537.11 57.2797 Q1540.15 57.2797 1541.82 57.3538 Q1543.48 57.4279 1545.86 57.9467 Q1548.26 58.4284 1550.15 59.3918 Q1555.08 62.1339 1555.12 68.0627 Q1555.12 72.3981 1550.12 75.1032 Q1545.15 77.8452 1538.26 77.8452 Q1531.29 77.8452 1526.36 75.0661 Q1521.47 72.324 1521.47 68.2109 M1525.44 68.2109 Q1525.44 71.3235 1529.11 73.6951 Q1532.78 76.1036 1538.33 76.1036 Q1543.78 76.1036 1547.45 73.7321 Q1551.15 71.3976 1551.15 68.2109 Q1551.15 65.9506 1549.86 64.5054 Q1548.56 63.0603 1545.89 62.4674 Q1543.26 61.9116 1541.41 61.8004 Q1539.56 61.6892 1536.15 61.6892 L1531.66 61.6892 Q1529.07 61.8374 1527.25 63.7273 Q1525.44 65.6171 1525.44 68.2109 M1529.59 39.8268 Q1529.59 49.1646 1536.22 49.1646 Q1539.56 49.1646 1541.59 46.1261 Q1542.82 44.0881 1542.82 39.7526 Q1542.82 30.4148 1536.22 30.4148 Q1532.89 30.4148 1530.81 33.4533 Q1529.59 35.4913 1529.59 39.8268 Z" fill="#000000" fill-rule="nonzero" fill-opacity="1" /><path clip-path="url(#clip700)" d="M1559.83 62.208 L1559.83 59.8735 Q1563.86 59.8735 1564.79 59.3918 Q1565.72 58.873 1565.72 56.4274 L1565.72 36.0101 Q1565.72 33.1939 1564.75 32.5269 Q1563.83 31.8599 1560.12 31.8599 L1560.12 29.4884 L1570.72 28.6732 L1570.72 56.5015 Q1570.72 58.7619 1571.53 59.3177 Q1572.35 59.8735 1576.06 59.8735 L1576.06 62.208 Q1568.31 61.9857 1568.16 61.9857 Q1567.13 61.9857 1559.83 62.208 M1563.01 15.4445 Q1563.01 13.9253 1564.16 12.7025 Q1565.35 11.4426 1567.01 11.4426 Q1568.68 11.4426 1569.87 12.5913 Q1571.05 13.703 1571.05 15.4816 Q1571.05 17.2232 1569.87 18.3719 Q1568.68 19.4835 1567.01 19.4835 Q1565.27 19.4835 1564.12 18.2607 Q1563.01 17.0379 1563.01 15.4445 Z" fill="#000000" fill-rule="nonzero" fill-opacity="1" /><path clip-path="url(#clip700)" d="M1580.91 45.9038 Q1580.91 38.6781 1585.95 33.6756 Q1590.99 28.6732 1597.81 28.6732 Q1603.59 28.6732 1607.37 33.3792 L1607.37 16.9638 Q1607.37 14.1476 1606.37 13.4436 Q1605.4 12.7395 1601.48 12.7395 L1601.48 10.368 L1612.41 9.55279 L1612.41 55.6122 Q1612.41 58.4284 1613.37 59.1695 Q1614.37 59.8735 1618.3 59.8735 L1618.3 62.208 L1607.14 63.0603 L1607.14 58.0208 Q1603.22 63.0232 1596.99 63.0603 Q1590.47 63.0603 1585.69 58.0578 Q1580.91 53.0554 1580.91 45.9038 M1587.21 45.9779 Q1587.21 53.0184 1589.4 56.5015 Q1592.43 61.3557 1597.36 61.3557 Q1602.99 61.3557 1606.33 56.0569 Q1607.18 54.7599 1607.14 53.2407 L1607.14 37.6776 Q1607.14 36.1583 1606.33 34.8984 Q1603.22 30.3407 1598.14 30.3407 Q1592.84 30.3407 1589.54 35.1949 Q1587.21 38.8263 1587.21 45.9779 Z" fill="#000000" fill-rule="nonzero" fill-opacity="1" /><path clip-path="url(#clip700)" d="M1648.39 62.208 L1648.39 59.8735 L1650.2 59.8735 Q1654.32 59.8735 1655.24 59.2065 Q1656.21 58.5025 1656.21 56.2792 L1656.21 16.2968 Q1656.21 14.1106 1655.24 13.4436 Q1654.28 12.7395 1650.2 12.7395 L1648.39 12.7395 L1648.39 10.368 L1676.14 10.368 Q1683.37 10.368 1688.18 14.2588 Q1693 18.1125 1693 23.189 Q1693 27.3763 1689.44 30.7112 Q1685.92 34.0462 1680.4 35.1208 Q1686.7 35.7878 1690.85 39.6044 Q1695.04 43.384 1695.04 48.3124 Q1695.04 53.8706 1690.26 58.0578 Q1685.48 62.208 1678.14 62.208 L1648.39 62.208 M1662.51 56.835 Q1662.51 58.7989 1663.06 59.3548 Q1663.62 59.8735 1666.21 59.8735 L1675.7 59.8735 Q1681.14 59.8735 1684.29 56.3162 Q1687.44 52.7219 1687.44 48.2383 Q1687.44 43.7546 1684.66 39.9379 Q1681.92 36.0842 1676.77 36.0842 L1662.51 36.0842 L1662.51 56.835 M1662.51 34.4167 L1673.51 34.4167 Q1679.37 34.4167 1682.48 30.8965 Q1685.63 27.3763 1685.63 23.189 Q1685.63 19.4835 1683.11 16.1115 Q1680.62 12.7395 1675.62 12.7395 L1666.21 12.7395 Q1663.62 12.7395 1663.06 13.2583 Q1662.51 13.7771 1662.51 15.778 L1662.51 34.4167 Z" fill="#000000" fill-rule="nonzero" fill-opacity="1" /><path clip-path="url(#clip700)" d="M1706.45 58.1319 Q1701.45 53.1666 1701.45 45.9779 Q1701.45 38.7522 1706.34 33.4903 Q1711.27 28.1915 1718.31 28.1915 Q1725.2 28.1915 1730.13 33.4533 Q1735.1 38.6781 1735.1 45.9779 Q1735.1 53.1295 1730.09 58.0949 Q1725.13 63.0603 1718.24 63.0603 Q1711.49 63.0603 1706.45 58.1319 M1707.75 45.348 Q1707.75 52.7219 1709.68 56.0569 Q1712.64 61.1334 1718.31 61.1334 Q1721.13 61.1334 1723.46 59.6141 Q1725.83 58.0949 1727.13 55.5381 Q1728.8 52.2031 1728.8 45.348 Q1728.8 38.0481 1726.8 34.8243 Q1723.83 29.896 1718.24 29.896 Q1715.79 29.896 1713.38 31.1929 Q1711.01 32.4528 1709.56 34.9725 Q1707.75 38.3075 1707.75 45.348 Z" fill="#000000" fill-rule="nonzero" fill-opacity="1" /><path clip-path="url(#clip700)" d="M1741.99 45.9038 Q1741.99 38.6781 1747.03 33.6756 Q1752.07 28.6732 1758.89 28.6732 Q1764.67 28.6732 1768.45 33.3792 L1768.45 16.9638 Q1768.45 14.1476 1767.44 13.4436 Q1766.48 12.7395 1762.55 12.7395 L1762.55 10.368 L1773.48 9.55279 L1773.48 55.6122 Q1773.48 58.4284 1774.45 59.1695 Q1775.45 59.8735 1779.38 59.8735 L1779.38 62.208 L1768.22 63.0603 L1768.22 58.0208 Q1764.3 63.0232 1758.07 63.0603 Q1751.55 63.0603 1746.77 58.0578 Q1741.99 53.0554 1741.99 45.9038 M1748.29 45.9779 Q1748.29 53.0184 1750.47 56.5015 Q1753.51 61.3557 1758.44 61.3557 Q1764.07 61.3557 1767.41 56.0569 Q1768.26 54.7599 1768.22 53.2407 L1768.22 37.6776 Q1768.22 36.1583 1767.41 34.8984 Q1764.3 30.3407 1759.22 30.3407 Q1753.92 30.3407 1750.62 35.1949 Q1748.29 38.8263 1748.29 45.9779 Z" fill="#000000" fill-rule="nonzero" fill-opacity="1" /><path clip-path="url(#clip700)" d="M1782.93 71.62 Q1782.93 70.0266 1783.86 69.1743 Q1784.82 68.3591 1786.12 68.3591 Q1787.49 68.3591 1788.38 69.2114 Q1789.31 70.1007 1789.31 71.5459 Q1789.31 74.3621 1786.34 74.7326 Q1787.79 76.1036 1789.9 76.1036 Q1792.16 76.1036 1793.98 74.4362 Q1795.83 72.7687 1796.61 71.1753 Q1797.42 69.582 1798.57 66.6917 Q1799.65 64.4313 1800.46 62.208 L1789.09 34.4908 Q1788.34 32.6751 1787.2 32.2675 Q1786.05 31.8599 1782.93 31.8599 L1782.93 29.4884 Q1786.34 29.7107 1790.31 29.7107 Q1792.64 29.7107 1798.57 29.4884 L1798.57 31.8599 Q1794.31 31.8599 1794.31 33.8238 Q1794.31 34.0462 1794.75 35.1949 L1803.2 55.6122 L1810.87 36.9365 Q1811.32 35.8619 1811.32 35.1208 Q1811.32 32.0081 1807.76 31.8599 L1807.76 29.4884 Q1812.76 29.7107 1814.36 29.7107 Q1817.47 29.7107 1820.03 29.4884 L1820.03 31.8599 Q1814.95 31.8599 1812.99 36.7141 L1799.61 69.1002 Q1795.98 77.7341 1789.9 77.7711 Q1787.01 77.7711 1784.97 75.9925 Q1782.93 74.2138 1782.93 71.62 Z" fill="#000000" fill-rule="nonzero" fill-opacity="1" /><path clip-path="url(#clip700)" d="M1850.97 62.0598 L1850.97 46.8672 Q1850.97 46.0149 1851 45.7185 Q1851.04 45.4221 1851.26 45.1997 Q1851.49 44.9774 1851.93 44.9774 Q1852.78 44.9774 1852.86 45.7556 Q1853.08 53.2777 1857.56 57.4279 Q1861.97 61.541 1869.53 61.541 Q1874.09 61.541 1876.91 58.2802 Q1879.72 54.9823 1879.72 50.6839 Q1879.72 46.5708 1877.35 43.6805 Q1876.35 42.3836 1875.09 41.5683 Q1873.87 40.7161 1873.09 40.4567 Q1872.35 40.1973 1870.9 39.8268 Q1861.49 37.5664 1860.9 37.307 Q1856.41 35.7878 1853.67 31.9711 Q1850.97 28.1174 1850.97 23.4114 Q1850.97 17.3343 1855.23 13.036 Q1859.53 8.70052 1865.75 8.70052 Q1868.86 8.70052 1871.46 9.70101 Q1874.09 10.6644 1875.16 11.5538 Q1876.24 12.4431 1877.91 14.0364 L1880.54 9.70101 Q1881.13 8.70052 1881.69 8.70052 Q1882.28 8.70052 1882.39 9.07107 Q1882.54 9.40457 1882.54 10.5162 L1882.54 25.7829 Q1882.54 26.6352 1882.5 26.9316 Q1882.46 27.228 1882.2 27.4133 Q1881.98 27.5986 1881.54 27.5986 Q1880.8 27.5986 1880.61 26.7093 Q1878.5 10.8497 1865.83 10.8497 Q1861.49 10.8497 1858.64 13.7771 Q1855.82 16.6674 1855.82 20.7805 Q1855.82 24.1154 1857.9 26.8575 Q1859.97 29.5625 1863.49 30.4148 L1873.2 32.7492 Q1878.05 33.8979 1881.32 38.1963 Q1884.58 42.4947 1884.58 48.09 Q1884.58 54.5376 1880.35 59.2065 Q1876.16 63.8755 1869.61 63.8755 Q1864.9 63.8755 1861.27 62.3192 Q1857.64 60.7629 1855.67 58.5766 Q1854.15 61.0963 1853.15 62.5044 L1852.93 62.875 Q1852.34 63.8755 1851.78 63.8755 Q1851.19 63.8755 1851.08 63.5049 Q1850.97 63.1344 1850.97 62.0598 Z" fill="#000000" fill-rule="nonzero" fill-opacity="1" /><path clip-path="url(#clip700)" d="M1895.91 58.1319 Q1890.91 53.1666 1890.91 45.9779 Q1890.91 38.7522 1895.8 33.4903 Q1900.73 28.1915 1907.77 28.1915 Q1914.66 28.1915 1919.59 33.4533 Q1924.56 38.6781 1924.56 45.9779 Q1924.56 53.1295 1919.56 58.0949 Q1914.59 63.0603 1907.7 63.0603 Q1900.95 63.0603 1895.91 58.1319 M1897.21 45.348 Q1897.21 52.7219 1899.14 56.0569 Q1902.1 61.1334 1907.77 61.1334 Q1910.59 61.1334 1912.92 59.6141 Q1915.29 58.0949 1916.59 55.5381 Q1918.26 52.2031 1918.26 45.348 Q1918.26 38.0481 1916.26 34.8243 Q1913.29 29.896 1907.7 29.896 Q1905.25 29.896 1902.84 31.1929 Q1900.47 32.4528 1899.03 34.9725 Q1897.21 38.3075 1897.21 45.348 Z" fill="#000000" fill-rule="nonzero" fill-opacity="1" /><path clip-path="url(#clip700)" d="M1929.26 62.208 L1929.26 59.8735 Q1933.3 59.8735 1934.23 59.3918 Q1935.16 58.873 1935.16 56.4274 L1935.16 16.9638 Q1935.16 14.1476 1934.16 13.4436 Q1933.19 12.7395 1929.26 12.7395 L1929.26 10.368 L1940.16 9.55279 L1940.16 56.4274 Q1940.16 58.873 1941.12 59.3918 Q1942.09 59.8735 1946.09 59.8735 L1946.09 62.208 Q1945.16 62.208 1943.23 62.1339 Q1941.31 62.0598 1939.9 62.0227 Q1938.49 61.9857 1937.68 61.9857 Q1936.79 61.9857 1929.26 62.208 Z" fill="#000000" fill-rule="nonzero" fill-opacity="1" /><path clip-path="url(#clip700)" d="M1950.2 31.8599 L1950.2 29.4884 L1961.35 28.6732 L1961.35 53.8706 Q1961.35 55.6863 1961.5 56.7609 Q1961.65 57.7985 1962.24 59.0213 Q1962.87 60.2441 1964.28 60.7999 Q1965.73 61.3557 1968.02 61.3557 Q1972.14 61.3557 1974.66 57.9837 Q1977.21 54.6117 1977.21 49.6093 L1977.21 36.0842 Q1977.21 33.268 1976.21 32.564 Q1975.21 31.8599 1971.28 31.8599 L1971.28 29.4884 L1982.44 28.6732 L1982.44 55.6122 Q1982.44 58.4284 1983.4 59.1695 Q1984.4 59.8735 1988.37 59.8735 L1988.37 62.208 L1977.44 63.0603 L1977.44 56.2051 Q1974.25 63.0232 1967.65 63.0603 Q1964.32 63.0603 1962.02 62.208 Q1959.76 61.3557 1958.61 60.3182 Q1957.46 59.2436 1956.83 57.2056 Q1956.24 55.1675 1956.17 53.9077 Q1956.09 52.6478 1956.09 50.2022 L1956.09 38.8263 Q1956.09 33.6756 1955.35 32.7863 Q1954.61 31.8599 1950.2 31.8599 Z" fill="#000000" fill-rule="nonzero" fill-opacity="1" /><path clip-path="url(#clip700)" d="M1991.29 31.8599 L1991.29 30.1924 Q1994.78 30.0442 1997.07 27.5986 Q1999.41 25.1159 2000.19 22.0774 Q2001 19.0389 2001.08 15.5187 L2002.97 15.5187 L2002.97 29.4884 L2013.82 29.4884 L2013.82 31.8599 L2002.97 31.8599 L2002.97 52.9442 Q2002.97 61.1334 2008.08 61.1334 Q2010.27 61.1334 2011.71 58.9101 Q2013.16 56.6497 2013.16 52.6478 L2013.16 48.4606 L2015.05 48.4606 L2015.05 52.796 Q2015.05 56.9091 2013.16 59.9847 Q2011.27 63.0603 2007.52 63.0603 Q2006.15 63.0603 2004.78 62.6897 Q2003.45 62.3562 2001.67 61.4669 Q1999.93 60.5405 1998.82 58.3172 Q1997.74 56.0569 1997.74 52.796 L1997.74 31.8599 L1991.29 31.8599 Z" fill="#000000" fill-rule="nonzero" fill-opacity="1" /><path clip-path="url(#clip700)" d="M2021.79 62.208 L2021.79 59.8735 Q2025.83 59.8735 2026.76 59.3918 Q2027.68 58.873 2027.68 56.4274 L2027.68 36.0101 Q2027.68 33.1939 2026.72 32.5269 Q2025.79 31.8599 2022.09 31.8599 L2022.09 29.4884 L2032.68 28.6732 L2032.68 56.5015 Q2032.68 58.7619 2033.5 59.3177 Q2034.32 59.8735 2038.02 59.8735 L2038.02 62.208 Q2030.28 61.9857 2030.13 61.9857 Q2029.09 61.9857 2021.79 62.208 M2024.98 15.4445 Q2024.98 13.9253 2026.13 12.7025 Q2027.31 11.4426 2028.98 11.4426 Q2030.65 11.4426 2031.83 12.5913 Q2033.02 13.703 2033.02 15.4816 Q2033.02 17.2232 2031.83 18.3719 Q2030.65 19.4835 2028.98 19.4835 Q2027.24 19.4835 2026.09 18.2607 Q2024.98 17.0379 2024.98 15.4445 Z" fill="#000000" fill-rule="nonzero" fill-opacity="1" /><path clip-path="url(#clip700)" d="M2047.4 58.1319 Q2042.39 53.1666 2042.39 45.9779 Q2042.39 38.7522 2047.28 33.4903 Q2052.21 28.1915 2059.25 28.1915 Q2066.15 28.1915 2071.07 33.4533 Q2076.04 38.6781 2076.04 45.9779 Q2076.04 53.1295 2071.04 58.0949 Q2066.07 63.0603 2059.18 63.0603 Q2052.44 63.0603 2047.4 58.1319 M2048.69 45.348 Q2048.69 52.7219 2050.62 56.0569 Q2053.58 61.1334 2059.25 61.1334 Q2062.07 61.1334 2064.4 59.6141 Q2066.78 58.0949 2068.07 55.5381 Q2069.74 52.2031 2069.74 45.348 Q2069.74 38.0481 2067.74 34.8243 Q2064.77 29.896 2059.18 29.896 Q2056.73 29.896 2054.33 31.1929 Q2051.95 32.4528 2050.51 34.9725 Q2048.69 38.3075 2048.69 45.348 Z" fill="#000000" fill-rule="nonzero" fill-opacity="1" /><path clip-path="url(#clip700)" d="M2080.67 62.208 L2080.67 59.8735 Q2084.71 59.8735 2085.64 59.3918 Q2086.56 58.873 2086.56 56.4274 L2086.56 36.0842 Q2086.56 33.268 2085.56 32.564 Q2084.6 31.8599 2080.67 31.8599 L2080.67 29.4884 L2091.34 28.6732 L2091.34 36.64 Q2094.9 28.6732 2102.57 28.6732 Q2108.28 28.6732 2110.54 31.4894 Q2112.2 33.3792 2112.54 35.4913 Q2112.91 37.6035 2112.91 43.0876 L2112.91 57.5761 Q2112.98 59.1695 2114.21 59.54 Q2115.43 59.8735 2118.84 59.8735 L2118.84 62.208 Q2111.09 61.9857 2110.32 61.9857 Q2109.72 61.9857 2101.76 62.208 L2101.76 59.8735 Q2105.79 59.8735 2106.72 59.3918 Q2107.68 58.873 2107.68 56.4274 L2107.68 38.7522 Q2107.68 34.8984 2106.5 32.6381 Q2105.31 30.3407 2102.05 30.3407 Q2098.12 30.3407 2094.97 33.6386 Q2091.82 36.9365 2091.82 42.4947 L2091.82 56.4274 Q2091.82 58.873 2092.75 59.3918 Q2093.71 59.8735 2097.72 59.8735 L2097.72 62.208 Q2089.97 61.9857 2089.23 61.9857 Q2088.64 61.9857 2080.67 62.208 Z" fill="#000000" fill-rule="nonzero" fill-opacity="1" /><polyline clip-path="url(#clip702)" style="stroke:#d77255; stroke-linecap:round; stroke-linejoin:round; stroke-width:5.6; stroke-opacity:1; fill:none" points="218.251,699.808 219.974,699.823 222.624,699.901 225.797,700.086 229.383,700.413 233.367,700.924 237.709,701.656 242.354,702.641 247.274,703.912 252.424,705.49 257.781,707.4 263.315,709.657 269.011,712.279 274.85,715.278 280.821,718.666 286.918,722.454 293.134,726.654 299.468,731.277 305.92,736.336 312.495,741.846 319.196,747.821 326.034,754.282 333.019,761.252 340.165,768.756 347.487,776.826 355.004,785.497 362.728,794.8 370.658,804.75 378.754,815.309 386.945,826.384 395.161,837.872 403.361,849.701 411.52,861.814 419.628,874.173 427.673,886.741 435.655,899.496 443.57,912.411 451.42,925.471 459.202,938.655 466.919,951.952 474.57,965.346 482.159,978.827 489.685,992.384 497.151,1006.01 504.558,1019.69 511.906,1033.42 519.198,1047.19 526.436,1061.01 533.621,1074.85 540.754,1088.72 547.838,1102.61 554.874,1116.52 561.864,1130.44 568.81,1144.37 575.713,1158.3 582.577,1172.23 589.401,1186.16 596.207,1200.12 603.006,1214.13 609.798,1228.18 616.589,1242.26 623.375,1256.37 630.159,1270.51 636.938,1284.65 643.712,1298.78 650.475,1312.89 657.227,1326.95 663.963,1340.94 670.679,1354.84 677.372,1368.64 684.038,1382.3 690.676,1395.81 697.282,1409.14 703.856,1422.28 710.395,1435.2 716.9,1447.89 723.369,1460.33 729.802,1472.5 736.2,1484.38 742.562,1495.96 748.886,1507.21 755.173,1518.12 761.419,1528.66 767.623,1538.81 773.781,1548.56 779.888,1557.89 785.941,1566.77 791.934,1575.18 797.863,1583.12 803.726,1590.57 809.517,1597.53 815.237,1603.99 820.884,1609.94 826.459,1615.39 831.962,1620.35 837.396,1624.82 842.762,1628.8 848.062,1632.3 853.301,1635.34 858.481,1637.91 863.606,1640.02 868.678,1641.69 873.702,1642.91 878.679,1643.71 883.614,1644.08 888.512,1644.03 893.376,1643.57 898.23,1642.7 903.073,1641.42 907.912,1639.74 912.751,1637.64 917.597,1635.13 922.451,1632.2 927.318,1628.85 932.203,1625.08 937.108,1620.89 942.037,1616.26 946.994,1611.2 951.981,1605.7 957.002,1599.75 962.061,1593.34 967.162,1586.48 972.306,1579.16 977.499,1571.36 982.744,1563.09 988.043,1554.32 993.404,1545.07 998.827,1535.31 1004.32,1525.04 1009.89,1514.25 1015.53,1502.92 1021.27,1491.04 1027.1,1478.6 1033.03,1465.58 1039.07,1451.94 1045.25,1437.66 1051.57,1422.71 1058.04,1407.05 1064.66,1390.72 1071.37,1373.86 1078.08,1356.7 1084.73,1339.41 1091.32,1322.1 1097.81,1304.84 1104.2,1287.65 1110.51,1270.58 1116.72,1253.64 1122.84,1236.85 1128.89,1220.21 1134.85,1203.73 1140.75,1187.4 1146.58,1171.23 1152.36,1155.23 1158.1,1139.33 1163.83,1123.49 1169.55,1107.72 1175.27,1092.01 1181,1076.34 1186.75,1060.73 1192.52,1045.15 1198.32,1029.62 1204.15,1014.14 1210.03,998.718 1215.95,983.353 1221.92,968.061 1227.94,952.851 1234.02,937.745 1240.16,922.769 1246.36,907.956 1252.6,893.349 1258.89,879.006 1265.2,864.99 1271.52,851.365 1277.83,838.2 1284.11,825.545 1290.34,813.449 1296.52,801.949 1302.63,791.069 1308.67,780.825 1314.63,771.229 1320.51,762.281 1326.31,753.983 1332.02,746.326 1337.65,739.303 1343.2,732.903 1348.68,727.113 1354.08,721.92 1359.41,717.309 1364.68,713.268 1369.88,709.783 1375.02,706.839 1380.11,704.426 1385.14,702.529 1390.13,701.14 1395.08,700.246 1399.99,699.838 1404.86,699.907 1409.7,700.445 1414.54,701.45 1419.37,702.922 1424.21,704.861 1429.05,707.27 1433.91,710.153 1438.78,713.513 1443.68,717.357 1448.6,721.691 1453.55,726.523 1458.54,731.861 1463.56,737.714 1468.64,744.094 1473.76,751.013 1478.93,758.483 1484.17,766.521 1489.48,775.144 1494.86,784.374 1500.32,794.236 1505.89,804.766 1511.57,816.005 1517.38,828.015 1523.36,840.892 1529.58,854.794 1536.16,870.07 1543.62,888.067 1550.57,905.451 1557.3,922.788 1563.83,940.089 1570.18,957.345 1576.38,974.538 1582.43,991.655 1588.35,1008.69 1594.15,1025.64 1599.83,1042.5 1605.42,1059.27 1610.92,1075.96 1616.35,1092.57 1621.7,1109.09 1626.98,1125.54 1632.21,1141.91 1637.4,1158.21 1642.53,1174.43 1647.63,1190.58 1652.72,1206.73 1657.81,1222.88 1662.9,1239.05 1668.01,1255.22 1673.13,1271.41 1678.26,1287.6 1683.42,1303.78 1688.6,1319.92 1693.8,1335.99 1699.01,1351.97 1704.22,1367.81 1709.44,1383.46 1714.65,1398.87 1719.85,1414.01 1725.02,1428.84 1730.17,1443.31 1735.29,1457.4 1740.38,1471.08 1745.43,1484.33 1750.44,1497.13 1755.42,1509.45 1760.36,1521.29 1765.27,1532.63 1770.13,1543.45 1774.95,1553.74 1779.73,1563.49 1784.46,1572.68 1789.16,1581.32 1793.8,1589.4 1798.4,1596.9 1802.95,1603.83 1807.45,1610.19 1811.91,1615.99 1816.32,1621.22 1820.68,1625.89 1825,1630.01 1829.28,1633.58 1833.51,1636.62 1837.7,1639.13 1841.86,1641.12 1845.98,1642.59 1850.06,1643.57 1854.12,1644.05 1858.14,1644.05 1862.14,1643.56 1866.14,1642.61 1870.12,1641.17 1874.11,1639.26 1878.09,1636.88 1882.09,1634.01 1886.09,1630.67 1890.11,1626.84 1894.14,1622.51 1898.2,1617.7 1902.27,1612.38 1906.36,1606.56 1910.49,1600.23 1914.64,1593.38 1918.82,1586.01 1923.03,1578.12 1927.28,1569.69 1931.57,1560.72 1935.9,1551.21 1940.27,1541.15 1944.69,1530.53 1949.16,1519.35 1953.68,1507.59 1958.25,1495.26 1962.89,1482.33 1967.59,1468.8 1972.37,1454.65 1977.22,1439.84 1982.18,1424.35 1987.24,1408.12 1992.45,1391.06 1997.83,1373.05 2003.42,1353.95 2009.18,1333.94 2014.87,1313.85 2020.46,1293.84 2025.95,1273.99 2031.33,1254.33 2036.61,1234.89 2041.8,1215.68 2046.91,1196.71 2051.94,1177.96 2056.91,1159.43 2061.83,1141.1 2066.75,1122.84 2071.65,1104.66 2076.56,1086.54 2081.5,1068.45 2086.47,1050.38 2091.48,1032.31 2096.55,1014.23 2101.7,996.149 2106.91,978.072 2112.2,960.062 2117.53,942.24 2122.88,924.77 2128.2,907.803 2133.47,891.434 2138.68,875.722 2143.82,860.698 2148.89,846.379 2153.88,832.771 2158.81,819.878 2163.67,807.696 2168.46,796.222 2173.19,785.448 2177.85,775.368 2182.46,765.974 2187,757.255 2191.49,749.202 2195.92,741.803 2200.3,735.048 2204.63,728.924 2208.91,723.421 2213.14,718.524 2217.34,714.224 2221.49,710.507 2225.6,707.362 2229.68,704.778 2233.73,702.745 2237.75,701.25 2241.74,700.286 2245.7,699.842 2249.64,699.91 2253.56,700.481 2257.49,701.555 2261.41,703.131 2265.35,705.21 2269.29,707.795 2273.25,710.889 2277.22,714.496 2281.22,718.623 2285.24,723.275 2289.28,728.458 2293.36,734.179 2297.47,740.447 2301.61,747.268 2305.8,754.651 2310.02,762.605 2314.29,771.139 2318.61,780.261 2322.98,789.986 2327.4,800.321 2331.89,811.28 2336.43,822.879 2341.05,835.135 2345.75,848.074 2350.53,861.725 2355.41,876.129 2360.41,891.345 2365.54,907.441 2370.83,924.469 2376.23,942.322 2381.63,960.622 2386.98,979.087 2392.23,997.598 2397.4,1016.08 2402.47,1034.49 2407.45,1052.8 2412.34,1070.98 2417.16,1089.03 2421.9,1106.94 2426.58,1124.71 2431.2,1142.33 2435.76,1159.81 2440.28,1177.14 2444.76,1194.34 2449.23,1211.49 2453.69,1228.61 2458.17,1245.7 2462.65,1262.77 2467.16,1279.83 2471.69,1296.88 2476.25,1313.91 2480.85,1330.9 2485.48,1347.84 2490.14,1364.68 2494.83,1381.37 2499.54,1397.84 2504.25,1414.04 2508.96,1429.89 2513.64,1445.33 2518.31,1460.32 2522.94,1474.81 2527.54,1488.77 2532.11,1502.2 2536.63,1515.05 2541.12,1527.32 2545.57,1539 2549.97,1550.08 2554.34,1560.54 2558.66,1570.38 2562.95,1579.6 2567.19,1588.19 2571.39,1596.14 2575.54,1603.46 2579.65,1610.15 2583.72,1616.22 2587.75,1621.67 2591.73,1626.5 2595.67,1630.72 2599.58,1634.35 2603.44,1637.39 2607.27,1639.85 2611.07,1641.74 2614.83,1643.07 2618.56,1643.86 2622.26,1644.11 2625.93,1643.83 2629.59,1643.02 2633.24,1641.7 2636.88,1639.85 2640.53,1637.49 2644.18,1634.6 2647.83,1631.18 2651.5,1627.24 2655.17,1622.76 2658.86,1617.74 2662.57,1612.18 2666.3,1606.07 2670.04,1599.4 2673.82,1592.18 2677.61,1584.39 2681.44,1576.02 2685.29,1567.08 2689.18,1557.55 2693.11,1547.42 2697.07,1536.7 2701.07,1525.36 2705.11,1513.41 2709.2,1500.83 2713.34,1487.61 2717.54,1473.73 2721.8,1459.18 2726.13,1443.92 2730.54,1427.92 2735.04,1411.12 2739.66,1393.46 2744.43,1374.81 2749.35,1355.11 2754.39,1334.52 2759.42,1313.6 2764.38,1292.65 2769.26,1271.74 2774.06,1250.95 2778.79,1230.3 2783.45,1209.8 2788.06,1189.46 2792.61,1169.28 2797.12,1149.25 2801.62,1129.27 2806.11,1109.35 2810.62,1089.47 2815.13,1069.67 2819.64,1050 2824.15,1030.53 2828.64,1011.35 2833.1,992.547 2837.52,974.188 2841.9,956.325 2846.22,938.994 2850.5,922.223 2854.72,906.027 2858.9,890.417 2863.03,875.401 2867.11,860.988 2871.16,847.179 2875.16,833.982 2879.12,821.396 2883.04,809.429 2886.93,798.085 2890.78,787.367 2894.59,777.278 2898.37,767.822 2902.12,758.998 2905.83,750.807 2909.5,743.248 2913.15,736.319 2916.76,730.014 2920.33,724.331 2923.88,719.261 2927.39,714.798 2930.88,710.935 2934.33,707.661 2937.76,704.97 2941.16,702.851 2944.54,701.296 2947.89,700.295 2951.22,699.84 2954.53,699.922 2957.83,700.532 2961.13,701.67 2964.42,703.334 2967.72,705.526 2971.02,708.247 2974.34,711.501 2977.66,715.29 2981,719.618 2984.35,724.491 2987.73,729.913 2991.12,735.888 2994.53,742.419 2997.97,749.513 3001.43,757.172 3004.92,765.402 3008.44,774.203 3011.98,783.582 3015.56,793.54 3019.16,804.075 3022.8,815.191 3026.47,826.887 3030.18,839.164 3033.92,852.019 3037.7,865.455 3041.53,879.47 3045.39,894.07 3049.3,909.259 3053.27,925.044 3057.29,941.443 3061.38,958.478 3065.54,976.184 3069.8,994.613 3074.17,1013.84 3078.67,1033.96 3083.32,1055.05 3088.09,1076.87 3092.84,1098.85 3097.54,1120.73 3102.18,1142.42 3106.75,1163.87 3111.27,1185.09 3115.75,1206.1 3120.23,1227.05 3124.72,1247.94 3129.25,1268.86 3133.83,1289.84 3138.49,1310.95 3143.24,1332.2 3148.07,1353.4 3152.87,1374.11 3157.59,1394.06 3162.23,1413.17 3166.77,1431.43 3171.23,1448.83 3175.6,1465.38 3179.89,1481.1 3184.11,1496.01 3188.26,1510.12 3192.35,1523.45 3196.38,1536.02 3200.35,1547.83 3204.27,1558.9 3208.14,1569.24 3211.96,1578.86 3215.73,1587.78 3219.47,1595.99 3223.16,1603.52 3226.81,1610.36 3230.43,1616.54 3234.01,1622.07 3237.55,1626.94 3241.06,1631.19 3244.54,1634.81 3247.99,1637.82 3251.42,1640.23 3254.82,1642.06 3258.19,1643.3 3261.55,1643.97 3264.88,1644.09 3268.19,1643.65 3271.51,1642.67 3274.82,1641.14 3278.13,1639.07 3281.46,1636.45 3284.79,1633.27 3288.13,1629.55 3291.49,1625.26 3294.87,1620.41 3298.27,1614.99 3301.69,1609 3305.13,1602.42 3308.6,1595.26 3312.1,1587.5 3315.62,1579.15 3319.18,1570.19 3322.77,1560.62 3326.39,1550.44 3330.05,1539.64 3333.75,1528.22 3337.49,1516.16 3341.27,1503.47 3345.1,1490.14 3345.76,1487.76 "/>
<polyline clip-path="url(#clip702)" style="stroke:#009afa; stroke-linecap:round; stroke-linejoin:round; stroke-width:5.6; stroke-opacity:1; fill:none" points="218.251,1171.96 219.974,1169.03 222.624,1164.53 225.797,1159.15 229.383,1153.06 233.367,1146.31 237.709,1138.97 242.354,1131.13 247.274,1122.85 252.424,1114.22 257.781,1105.29 263.315,1096.11 269.011,1086.73 274.85,1077.19 280.821,1067.52 286.918,1057.74 293.134,1047.89 299.468,1037.97 305.92,1028 312.495,1017.99 319.196,1007.96 326.034,997.903 333.019,987.829 340.165,977.74 347.487,967.636 355.004,957.521 362.728,947.406 370.658,937.326 378.754,927.358 386.945,917.616 395.161,908.197 403.361,899.153 411.52,890.515 419.628,882.293 427.673,874.493 435.655,867.112 443.57,860.148 451.42,853.594 459.202,847.444 466.919,841.69 474.57,836.327 482.159,831.347 489.685,826.742 497.151,822.507 504.558,818.635 511.906,815.121 519.198,811.958 526.436,809.143 533.621,806.671 540.754,804.537 547.838,802.739 554.874,801.273 561.864,800.137 568.81,799.329 575.713,798.847 582.577,798.691 589.401,798.86 596.207,799.356 603.006,800.183 609.798,801.346 616.589,802.852 623.375,804.705 630.159,806.912 636.938,809.478 643.712,812.409 650.475,815.706 657.227,819.375 663.963,823.416 670.679,827.83 677.372,832.618 684.038,837.778 690.676,843.308 697.282,849.206 703.856,855.468 710.395,862.091 716.9,869.071 723.369,876.401 729.802,884.079 736.2,892.097 742.562,900.448 748.886,909.123 755.173,918.113 761.419,927.404 767.623,936.981 773.781,946.828 779.888,956.923 785.941,967.245 791.934,977.767 797.863,988.466 803.726,999.318 809.517,1010.3 815.237,1021.38 820.884,1032.54 826.459,1043.77 831.962,1055.05 837.396,1066.36 842.762,1077.68 848.062,1089.01 853.301,1100.34 858.481,1111.65 863.606,1122.94 868.678,1134.19 873.702,1145.41 878.679,1156.57 883.614,1167.69 888.512,1178.76 893.376,1189.76 898.23,1200.75 903.073,1211.71 907.912,1222.64 912.751,1233.55 917.597,1244.43 922.451,1255.27 927.318,1266.08 932.203,1276.85 937.108,1287.58 942.037,1298.25 946.994,1308.87 951.981,1319.43 957.002,1329.92 962.061,1340.33 967.162,1350.66 972.306,1360.89 977.499,1371.02 982.744,1381.04 988.043,1390.94 993.404,1400.7 998.827,1410.31 1004.32,1419.77 1009.89,1429.06 1015.53,1438.17 1021.27,1447.08 1027.1,1455.79 1033.03,1464.27 1039.07,1472.51 1045.25,1480.51 1051.57,1488.24 1058.04,1495.67 1064.66,1502.75 1071.37,1509.38 1078.08,1515.47 1084.73,1520.96 1091.32,1525.85 1097.81,1530.14 1104.2,1533.85 1110.51,1536.99 1116.72,1539.6 1122.84,1541.68 1128.89,1543.27 1134.85,1544.38 1140.75,1545.03 1146.58,1545.23 1152.36,1544.99 1158.1,1544.33 1163.83,1543.25 1169.55,1541.76 1175.27,1539.84 1181,1537.49 1186.75,1534.72 1192.52,1531.51 1198.32,1527.86 1204.15,1523.76 1210.03,1519.19 1215.95,1514.15 1221.92,1508.63 1227.94,1502.6 1234.02,1496.06 1240.16,1489.01 1246.36,1481.42 1252.6,1473.31 1258.89,1464.69 1265.2,1455.57 1271.52,1445.99 1277.83,1435.98 1284.11,1425.59 1290.34,1414.85 1296.52,1403.82 1302.63,1392.54 1308.67,1381.04 1314.63,1369.35 1320.51,1357.52 1326.31,1345.56 1332.02,1333.52 1337.65,1321.41 1343.2,1309.25 1348.68,1297.05 1354.08,1284.85 1359.41,1272.64 1364.68,1260.45 1369.88,1248.28 1375.02,1236.14 1380.11,1224.03 1385.14,1211.98 1390.13,1199.97 1395.08,1188.03 1399.99,1176.15 1404.86,1164.33 1409.7,1152.58 1414.54,1140.85 1419.37,1129.16 1424.21,1117.49 1429.05,1105.86 1433.91,1094.25 1438.78,1082.68 1443.68,1071.14 1448.6,1059.64 1453.55,1048.18 1458.54,1036.77 1463.56,1025.42 1468.64,1014.13 1473.76,1002.9 1478.93,991.743 1484.17,980.669 1489.48,969.684 1494.86,958.792 1500.32,948 1505.89,937.311 1511.57,926.725 1517.38,916.238 1523.36,905.828 1529.58,895.448 1536.16,884.96 1543.62,873.701 1550.57,863.839 1557.3,854.902 1563.83,846.802 1570.18,839.48 1576.38,832.887 1582.43,826.98 1588.35,821.718 1594.15,817.068 1599.83,812.996 1605.42,809.477 1610.92,806.487 1616.35,804.005 1621.7,802.014 1626.98,800.499 1632.21,799.447 1637.4,798.849 1642.53,798.696 1647.63,798.981 1652.72,799.704 1657.81,800.868 1662.9,802.478 1668.01,804.541 1673.13,807.065 1678.26,810.06 1683.42,813.533 1688.6,817.492 1693.8,821.942 1699.01,826.885 1704.22,832.317 1709.44,838.234 1714.65,844.624 1719.85,851.475 1725.02,858.77 1730.17,866.493 1735.29,874.627 1740.38,883.155 1745.43,892.059 1750.44,901.321 1755.42,910.923 1760.36,920.845 1765.27,931.07 1770.13,941.576 1774.95,952.341 1779.73,963.344 1784.46,974.562 1789.16,985.97 1793.8,997.545 1798.4,1009.26 1802.95,1021.11 1807.45,1033.04 1811.91,1045.06 1816.32,1057.14 1820.68,1069.26 1825,1081.41 1829.28,1093.57 1833.51,1105.73 1837.7,1117.88 1841.86,1130 1845.98,1142.08 1850.06,1154.12 1854.12,1166.1 1858.14,1178.03 1862.14,1189.88 1866.14,1201.72 1870.12,1213.52 1874.11,1225.3 1878.09,1237.03 1882.09,1248.73 1886.09,1260.39 1890.11,1272 1894.14,1283.56 1898.2,1295.05 1902.27,1306.48 1906.36,1317.84 1910.49,1329.1 1914.64,1340.27 1918.82,1351.34 1923.03,1362.29 1927.28,1373.1 1931.57,1383.78 1935.9,1394.29 1940.27,1404.64 1944.69,1414.8 1949.16,1424.75 1953.68,1434.49 1958.25,1443.99 1962.89,1453.24 1967.59,1462.23 1972.37,1470.93 1977.22,1479.33 1982.18,1487.42 1987.24,1495.18 1992.45,1502.6 1997.83,1509.68 2003.42,1516.38 2009.18,1522.57 2014.87,1527.97 2020.46,1532.58 2025.95,1536.41 2031.33,1539.5 2036.61,1541.9 2041.8,1543.62 2046.91,1544.71 2051.94,1545.2 2056.91,1545.09 2061.83,1544.43 2066.75,1543.2 2071.65,1541.42 2076.56,1539.07 2081.5,1536.15 2086.47,1532.64 2091.48,1528.53 2096.55,1523.78 2101.7,1518.38 2106.91,1512.3 2112.2,1505.52 2117.53,1498.07 2122.88,1489.98 2128.2,1481.34 2133.47,1472.2 2138.68,1462.61 2143.82,1452.63 2148.89,1442.29 2153.88,1431.62 2158.81,1420.66 2163.67,1409.44 2168.46,1397.99 2173.19,1386.34 2177.85,1374.51 2182.46,1362.52 2187,1350.4 2191.49,1338.17 2195.92,1325.85 2200.3,1313.46 2204.63,1301.01 2208.91,1288.52 2213.14,1276.01 2217.34,1263.49 2221.49,1250.97 2225.6,1238.46 2229.68,1225.98 2233.73,1213.52 2237.75,1201.11 2241.74,1188.75 2245.7,1176.45 2249.64,1164.21 2253.56,1152.03 2257.49,1139.87 2261.41,1127.75 2265.35,1115.66 2269.29,1103.59 2273.25,1091.57 2277.22,1079.58 2281.22,1067.64 2285.24,1055.74 2289.28,1043.91 2293.36,1032.15 2297.47,1020.46 2301.61,1008.86 2305.8,997.351 2310.02,985.955 2314.29,974.681 2318.61,963.543 2322.98,952.552 2327.4,941.726 2331.89,931.079 2336.43,920.625 2341.05,910.381 2345.75,900.36 2350.53,890.577 2355.41,881.043 2360.41,871.769 2365.54,862.77 2370.83,854.08 2376.23,845.813 2381.63,838.17 2386.98,831.255 2392.23,825.075 2397.4,819.62 2402.47,814.862 2407.45,810.774 2412.34,807.327 2417.16,804.493 2421.9,802.247 2426.58,800.565 2431.2,799.426 2435.76,798.814 2440.28,798.713 2444.76,799.11 2449.23,800.002 2453.69,801.387 2458.17,803.271 2462.65,805.66 2467.16,808.564 2471.69,811.993 2476.25,815.96 2480.85,820.477 2485.48,825.555 2490.14,831.2 2494.83,837.411 2499.54,844.18 2504.25,851.487 2508.96,859.31 2513.64,867.62 2518.31,876.391 2522.94,885.593 2527.54,895.199 2532.11,905.184 2536.63,915.524 2541.12,926.192 2545.57,937.166 2549.97,948.421 2554.34,959.931 2558.66,971.673 2562.95,983.62 2567.19,995.747 2571.39,1008.03 2575.54,1020.44 2579.65,1032.96 2583.72,1045.57 2587.75,1058.24 2591.73,1070.96 2595.67,1083.7 2599.58,1096.45 2603.44,1109.19 2607.27,1121.92 2611.07,1134.61 2614.83,1147.26 2618.56,1159.86 2622.26,1172.39 2625.93,1184.85 2629.59,1197.26 2633.24,1209.63 2636.88,1221.97 2640.53,1234.26 2644.18,1246.51 2647.83,1258.71 2651.5,1270.86 2655.17,1282.94 2658.86,1294.96 2662.57,1306.9 2666.3,1318.75 2670.04,1330.5 2673.82,1342.14 2677.61,1353.67 2681.44,1365.06 2685.29,1376.3 2689.18,1387.38 2693.11,1398.28 2697.07,1408.99 2701.07,1419.49 2705.11,1429.76 2709.2,1439.78 2713.34,1449.55 2717.54,1459.03 2721.8,1468.22 2726.13,1477.08 2730.54,1485.61 2735.04,1493.79 2739.66,1501.6 2744.43,1509.02 2749.35,1516 2754.39,1522.41 2759.42,1528.03 2764.38,1532.83 2769.26,1536.79 2774.06,1539.97 2778.79,1542.37 2783.45,1544.03 2788.06,1544.97 2792.61,1545.22 2797.12,1544.79 2801.62,1543.7 2806.11,1541.93 2810.62,1539.49 2815.13,1536.36 2819.64,1532.56 2824.15,1528.09 2828.64,1522.97 2833.1,1517.23 2837.52,1510.9 2841.9,1504.02 2846.22,1496.63 2850.5,1488.74 2854.72,1480.39 2858.9,1471.6 2863.03,1462.41 2867.11,1452.83 2871.16,1442.89 2875.16,1432.6 2879.12,1422 2883.04,1411.1 2886.93,1399.92 2890.78,1388.49 2894.59,1376.83 2898.37,1364.96 2902.12,1352.91 2905.83,1340.7 2909.5,1328.35 2913.15,1315.89 2916.76,1303.33 2920.33,1290.69 2923.88,1278 2927.39,1265.27 2930.88,1252.52 2934.33,1239.75 2937.76,1227 2941.16,1214.27 2944.54,1201.57 2947.89,1188.91 2951.22,1176.31 2954.53,1163.77 2957.83,1151.3 2961.13,1138.84 2964.42,1126.42 2967.72,1114.04 2971.02,1101.7 2974.34,1089.4 2977.66,1077.16 2981,1064.97 2984.35,1052.85 2987.73,1040.81 2991.12,1028.85 2994.53,1017 2997.97,1005.25 3001.43,993.636 3004.92,982.16 3008.44,970.841 3011.98,959.694 3015.56,948.736 3019.16,937.988 3022.8,927.465 3026.47,917.189 3030.18,907.178 3033.92,897.453 3037.7,888.033 3041.53,878.939 3045.39,870.189 3049.3,861.802 3053.27,853.8 3057.29,846.201 3061.38,839.025 3065.54,832.291 3069.8,826.023 3074.17,820.244 3078.67,814.99 3083.32,810.315 3088.09,806.339 3092.84,803.193 3097.54,800.895 3102.18,799.422 3106.75,798.745 3111.27,798.835 3115.75,799.668 3120.23,801.24 3124.72,803.556 3129.25,806.636 3133.83,810.511 3138.49,815.23 3143.24,820.845 3148.07,827.353 3152.87,834.634 3157.59,842.567 3162.23,851.079 3166.77,860.108 3171.23,869.604 3175.6,879.523 3179.89,889.827 3184.11,900.484 3188.26,911.463 3192.35,922.736 3196.38,934.278 3200.35,946.061 3204.27,958.063 3208.14,970.26 3211.96,982.627 3215.73,995.144 3219.47,1007.79 3223.16,1020.54 3226.81,1033.38 3230.43,1046.28 3234.01,1059.24 3237.55,1072.23 3241.06,1085.24 3244.54,1098.25 3247.99,1111.25 3251.42,1124.23 3254.82,1137.18 3258.19,1150.08 3261.55,1162.93 3264.88,1175.71 3268.19,1188.42 3271.51,1201.11 3274.82,1213.75 3278.13,1226.36 3281.46,1238.93 3284.79,1251.46 3288.13,1263.94 3291.49,1276.37 3294.87,1288.72 3298.27,1301.01 3301.69,1313.21 3305.13,1325.31 3308.6,1337.31 3312.1,1349.18 3315.62,1360.91 3319.18,1372.49 3322.77,1383.89 3326.39,1395.11 3330.05,1406.13 3333.75,1416.92 3337.49,1427.46 3341.27,1437.74 3345.1,1447.74 3345.76,1449.44 "/>
<polyline clip-path="url(#clip702)" style="stroke:#707070; stroke-linecap:round; stroke-linejoin:round; stroke-width:5.6; stroke-opacity:1; fill:none" points="218.251,747.023 219.974,747.027 222.624,747.049 225.797,747.1 229.383,747.189 233.367,747.328 237.709,747.526 242.354,747.79 247.274,748.128 252.424,748.544 257.781,749.041 263.315,749.622 269.011,750.288 274.85,751.039 280.821,751.874 286.918,752.793 293.134,753.794 299.468,754.874 305.92,756.031 312.495,757.262 319.196,758.565 326.034,759.935 333.019,761.37 340.165,762.865 347.487,764.415 355.004,766.015 362.728,767.656 370.658,769.325 378.754,771 386.945,772.65 395.161,774.245 403.361,775.763 411.52,777.189 419.628,778.507 427.673,779.706 435.655,780.778 443.57,781.714 451.42,782.506 459.202,783.15 466.919,783.641 474.57,783.974 482.159,784.146 489.685,784.155 497.151,783.999 504.558,783.676 511.906,783.186 519.198,782.529 526.436,781.704 533.621,780.713 540.754,779.557 547.838,778.237 554.874,776.755 561.864,775.113 568.81,773.313 575.713,771.357 582.577,769.25 589.401,766.993 596.207,764.584 603.006,762.021 609.798,759.306 616.589,756.441 623.375,753.43 630.159,750.275 636.938,746.983 643.712,743.558 650.475,740.008 657.227,736.341 663.963,732.566 670.679,728.691 677.372,724.728 684.038,720.686 690.676,716.577 697.282,712.41 703.856,708.197 710.395,703.948 716.9,699.674 723.369,695.386 729.802,691.094 736.2,686.808 742.562,682.539 748.886,678.298 755.173,674.095 761.419,669.942 767.623,665.85 773.781,661.831 779.888,657.895 785.941,654.055 791.934,650.321 797.863,646.702 803.726,643.206 809.517,639.841 815.237,636.61 820.884,633.519 826.459,630.57 831.962,627.765 837.396,625.103 842.762,622.584 848.062,620.209 853.301,617.975 858.481,615.88 863.606,613.922 868.678,612.1 873.702,610.41 878.679,608.849 883.614,607.416 888.512,606.106 893.376,604.918 898.23,603.843 903.073,602.881 907.912,602.03 912.751,601.288 917.597,600.653 922.451,600.124 927.318,599.699 932.203,599.378 937.108,599.157 942.037,599.036 946.994,599.013 951.981,599.086 957.002,599.253 962.061,599.512 967.162,599.86 972.306,600.295 977.499,600.815 982.744,601.415 988.043,602.092 993.404,602.844 998.827,603.665 1004.32,604.551 1009.89,605.498 1015.53,606.5 1021.27,607.552 1027.1,608.648 1033.03,609.781 1039.07,610.945 1045.25,612.133 1051.57,613.337 1058.04,614.546 1064.66,615.746 1071.37,616.912 1078.08,618.018 1084.73,619.044 1091.32,619.978 1097.81,620.814 1104.2,621.546 1110.51,622.171 1116.72,622.688 1122.84,623.097 1128.89,623.397 1134.85,623.59 1140.75,623.677 1146.58,623.658 1152.36,623.537 1158.1,623.312 1163.83,622.984 1169.55,622.554 1175.27,622.021 1181,621.385 1186.75,620.646 1192.52,619.803 1198.32,618.857 1204.15,617.808 1210.03,616.656 1215.95,615.403 1221.92,614.049 1227.94,612.595 1234.02,611.046 1240.16,609.404 1246.36,607.674 1252.6,605.865 1258.89,603.985 1265.2,602.047 1271.52,600.065 1277.83,598.055 1284.11,596.031 1290.34,594.009 1296.52,592.001 1302.63,590.02 1308.67,588.078 1314.63,586.183 1320.51,584.342 1326.31,582.564 1332.02,580.853 1337.65,579.212 1343.2,577.647 1348.68,576.157 1354.08,574.746 1359.41,573.414 1364.68,572.161 1369.88,570.987 1375.02,569.892 1380.11,568.874 1385.14,567.932 1390.13,567.066 1395.08,566.274 1399.99,565.553 1404.86,564.902 1409.7,564.319 1414.54,563.799 1419.37,563.342 1424.21,562.946 1429.05,562.608 1433.91,562.327 1438.78,562.1 1443.68,561.926 1448.6,561.803 1453.55,561.727 1458.54,561.696 1463.56,561.707 1468.64,561.757 1473.76,561.841 1478.93,561.956 1484.17,562.096 1489.48,562.257 1494.86,562.433 1500.32,562.618 1505.89,562.805 1511.57,562.986 1517.38,563.153 1523.36,563.294 1529.58,563.397 1536.16,563.447 1543.62,563.412 1550.57,563.277 1557.3,563.039 1563.83,562.693 1570.18,562.237 1576.38,561.672 1582.43,560.995 1588.35,560.209 1594.15,559.312 1599.83,558.305 1605.42,557.19 1610.92,555.968 1616.35,554.638 1621.7,553.202 1626.98,551.662 1632.21,550.017 1637.4,548.27 1642.53,546.421 1647.63,544.471 1652.72,542.412 1657.81,540.244 1662.9,537.965 1668.01,535.575 1673.13,533.072 1678.26,530.459 1683.42,527.736 1688.6,524.908 1693.8,521.98 1699.01,518.96 1704.22,515.857 1709.44,512.68 1714.65,509.444 1719.85,506.159 1725.02,502.839 1730.17,499.496 1735.29,496.142 1740.38,492.787 1745.43,489.443 1750.44,486.119 1755.42,482.825 1760.36,479.57 1765.27,476.364 1770.13,473.214 1774.95,470.128 1779.73,467.116 1784.46,464.183 1789.16,461.336 1793.8,458.583 1798.4,455.927 1802.95,453.373 1807.45,450.925 1811.91,448.585 1816.32,446.356 1820.68,444.238 1825,442.233 1829.28,440.34 1833.51,438.559 1837.7,436.889 1841.86,435.329 1845.98,433.877 1850.06,432.533 1854.12,431.292 1858.14,430.155 1862.14,429.118 1866.14,428.175 1870.12,427.325 1874.11,426.567 1878.09,425.898 1882.09,425.317 1886.09,424.824 1890.11,424.415 1894.14,424.089 1898.2,423.846 1902.27,423.682 1906.36,423.596 1910.49,423.586 1914.64,423.649 1918.82,423.783 1923.03,423.984 1927.28,424.25 1931.57,424.578 1935.9,424.962 1940.27,425.4 1944.69,425.886 1949.16,426.416 1953.68,426.985 1958.25,427.586 1962.89,428.215 1967.59,428.865 1972.37,429.529 1977.22,430.2 1982.18,430.873 1987.24,431.538 1992.45,432.189 1997.83,432.818 2003.42,433.413 2009.18,433.954 2014.87,434.406 2020.46,434.762 2025.95,435.019 2031.33,435.176 2036.61,435.234 2041.8,435.194 2046.91,435.058 2051.94,434.829 2056.91,434.507 2061.83,434.095 2066.75,433.592 2071.65,432.998 2076.56,432.313 2081.5,431.536 2086.47,430.667 2091.48,429.705 2096.55,428.648 2101.7,427.497 2106.91,426.253 2112.2,424.92 2117.53,423.509 2122.88,422.038 2128.2,420.526 2133.47,418.989 2138.68,417.441 2143.82,415.896 2148.89,414.363 2153.88,412.852 2158.81,411.372 2163.67,409.93 2168.46,408.533 2173.19,407.187 2177.85,405.896 2182.46,404.667 2187,403.502 2191.49,402.405 2195.92,401.379 2200.3,400.426 2204.63,399.547 2208.91,398.744 2213.14,398.018 2217.34,397.369 2221.49,396.797 2225.6,396.302 2229.68,395.884 2233.73,395.541 2237.75,395.272 2241.74,395.078 2245.7,394.955 2249.64,394.903 2253.56,394.921 2257.49,395.006 2261.41,395.158 2265.35,395.376 2269.29,395.658 2273.25,396.004 2277.22,396.412 2281.22,396.881 2285.24,397.408 2289.28,397.992 2293.36,398.631 2297.47,399.321 2301.61,400.06 2305.8,400.844 2310.02,401.671 2314.29,402.535 2318.61,403.432 2322.98,404.358 2327.4,405.307 2331.89,406.272 2336.43,407.248 2341.05,408.227 2345.75,409.202 2350.53,410.165 2355.41,411.107 2360.41,412.02 2365.54,412.892 2370.83,413.709 2376.23,414.448 2381.63,415.081 2386.98,415.59 2392.23,415.969 2397.4,416.215 2402.47,416.328 2407.45,416.309 2412.34,416.16 2417.16,415.883 2421.9,415.479 2426.58,414.953 2431.2,414.305 2435.76,413.539 2440.28,412.657 2444.76,411.661 2449.23,410.546 2453.69,409.312 2458.17,407.959 2462.65,406.484 2467.16,404.887 2471.69,403.167 2476.25,401.324 2480.85,399.358 2485.48,397.271 2490.14,395.067 2494.83,392.754 2499.54,390.342 2504.25,387.843 2508.96,385.271 2513.64,382.64 2518.31,379.963 2522.94,377.255 2527.54,374.526 2532.11,371.788 2536.63,369.052 2541.12,366.325 2545.57,363.619 2549.97,360.94 2554.34,358.298 2558.66,355.7 2562.95,353.152 2567.19,350.662 2571.39,348.234 2575.54,345.875 2579.65,343.589 2583.72,341.378 2587.75,339.246 2591.73,337.196 2595.67,335.228 2599.58,333.343 2603.44,331.543 2607.27,329.826 2611.07,328.193 2614.83,326.642 2618.56,325.173 2622.26,323.783 2625.93,322.472 2629.59,321.234 2633.24,320.065 2636.88,318.965 2640.53,317.931 2644.18,316.961 2647.83,316.053 2651.5,315.205 2655.17,314.416 2658.86,313.683 2662.57,313.004 2666.3,312.376 2670.04,311.797 2673.82,311.263 2677.61,310.772 2681.44,310.319 2685.29,309.902 2689.18,309.516 2693.11,309.156 2697.07,308.818 2701.07,308.496 2705.11,308.184 2709.2,307.877 2713.34,307.568 2717.54,307.25 2721.8,306.915 2726.13,306.554 2730.54,306.157 2735.04,305.715 2739.66,305.215 2744.43,304.641 2749.35,303.976 2754.39,303.212 2759.42,302.358 2764.38,301.418 2769.26,300.392 2774.06,299.281 2778.79,298.085 2783.45,296.804 2788.06,295.438 2792.61,293.988 2797.12,292.453 2801.62,290.825 2806.11,289.105 2810.62,287.29 2815.13,285.383 2819.64,283.39 2824.15,281.318 2828.64,279.18 2833.1,276.989 2837.52,274.757 2841.9,272.497 2846.22,270.22 2850.5,267.934 2854.72,265.649 2858.9,263.373 2863.03,261.113 2867.11,258.875 2871.16,256.668 2875.16,254.496 2879.12,252.366 2883.04,250.283 2886.93,248.254 2890.78,246.284 2894.59,244.377 2898.37,242.539 2902.12,240.774 2905.83,239.085 2909.5,237.475 2913.15,235.948 2916.76,234.506 2920.33,233.15 2923.88,231.882 2927.39,230.702 2930.88,229.611 2934.33,228.609 2937.76,227.695 2941.16,226.87 2944.54,226.131 2947.89,225.478 2951.22,224.91 2954.53,224.425 2957.83,224.021 2961.13,223.694 2964.42,223.446 2967.72,223.273 2971.02,223.176 2974.34,223.153 2977.66,223.202 2981,223.323 2984.35,223.514 2987.73,223.773 2991.12,224.099 2994.53,224.489 2997.97,224.941 3001.43,225.452 3004.92,226.02 3008.44,226.64 3011.98,227.311 3015.56,228.027 3019.16,228.784 3022.8,229.578 3026.47,230.403 3030.18,231.255 3033.92,232.127 3037.7,233.014 3041.53,233.91 3045.39,234.808 3049.3,235.701 3053.27,236.584 3057.29,237.449 3061.38,238.289 3065.54,239.097 3069.8,239.865 3074.17,240.586 3078.67,241.251 3083.32,241.847 3088.09,242.353 3092.84,242.748 3097.54,243.025 3102.18,243.184 3106.75,243.227 3111.27,243.157 3115.75,242.976 3120.23,242.685 3124.72,242.285 3129.25,241.772 3133.83,241.146 3138.49,240.402 3143.24,239.538 3148.07,238.56 3152.87,237.492 3157.59,236.359 3162.23,235.175 3166.77,233.956 3171.23,232.714 3175.6,231.457 3179.89,230.197 3184.11,228.94 3188.26,227.696 3192.35,226.47 3196.38,225.27 3200.35,224.1 3204.27,222.967 3208.14,221.875 3211.96,220.829 3215.73,219.833 3219.47,218.889 3223.16,218.002 3226.81,217.173 3230.43,216.405 3234.01,215.698 3237.55,215.056 3241.06,214.477 3244.54,213.963 3247.99,213.514 3251.42,213.13 3254.82,212.81 3258.19,212.553 3261.55,212.36 3264.88,212.228 3268.19,212.156 3271.51,212.143 3274.82,212.189 3278.13,212.291 3281.46,212.45 3284.79,212.664 3288.13,212.932 3291.49,213.252 3294.87,213.622 3298.27,214.041 3301.69,214.507 3305.13,215.016 3308.6,215.567 3312.1,216.155 3315.62,216.778 3319.18,217.431 3322.77,218.111 3326.39,218.812 3330.05,219.529 3333.75,220.257 3337.49,220.99 3341.27,221.722 3345.1,222.445 3345.76,222.569 "/>
</svg>
