<?xml version="1.0" encoding="utf-8"?>
<svg xmlns="http://www.w3.org/2000/svg" xmlns:xlink="http://www.w3.org/1999/xlink" width="864" height="480" viewBox="0 0 3456 1920">
<defs>
  <clipPath id="clip640">
    <rect x="0" y="0" width="3456" height="1920"/>
  </clipPath>
</defs>
<path clip-path="url(#clip640)" d="M0 1920 L3456 1920 L3456 0 L0 0  Z" fill="#ffffff" fill-rule="evenodd" fill-opacity="1"/>
<defs>
  <clipPath id="clip641">
    <rect x="691" y="0" width="2420" height="1920"/>
  </clipPath>
</defs>
<path clip-path="url(#clip640)" d="M182.975 1687.07 L3345.76 1687.07 L3345.76 169.184 L182.975 169.184  Z" fill="#ffffff" fill-rule="evenodd" fill-opacity="1"/>
<defs>
  <clipPath id="clip642">
    <rect x="182" y="169" width="3164" height="1519"/>
  </clipPath>
</defs>
<polyline clip-path="url(#clip642)" style="stroke:#000000; stroke-linecap:round; stroke-linejoin:round; stroke-width:2.8; stroke-opacity:0.4; fill:none" points="182.975,1687.07 182.975,169.184 "/>
<polyline clip-path="url(#clip642)" style="stroke:#000000; stroke-linecap:round; stroke-linejoin:round; stroke-width:2.8; stroke-opacity:0.4; fill:none" points="815.533,1687.07 815.533,169.184 "/>
<polyline clip-path="url(#clip642)" style="stroke:#000000; stroke-linecap:round; stroke-linejoin:round; stroke-width:2.8; stroke-opacity:0.4; fill:none" points="1448.09,1687.07 1448.09,169.184 "/>
<polyline clip-path="url(#clip642)" style="stroke:#000000; stroke-linecap:round; stroke-linejoin:round; stroke-width:2.8; stroke-opacity:0.4; fill:none" points="2080.65,1687.07 2080.65,169.184 "/>
<polyline clip-path="url(#clip642)" style="stroke:#000000; stroke-linecap:round; stroke-linejoin:round; stroke-width:2.8; stroke-opacity:0.4; fill:none" points="2713.21,1687.07 2713.21,169.184 "/>
<polyline clip-path="url(#clip642)" style="stroke:#000000; stroke-linecap:round; stroke-linejoin:round; stroke-width:2.8; stroke-opacity:0.4; fill:none" points="3345.76,1687.07 3345.76,169.184 "/>
<polyline clip-path="url(#clip642)" style="stroke:#000000; stroke-linecap:round; stroke-linejoin:round; stroke-width:2; stroke-opacity:0.06; fill:none" points="309.486,1687.07 309.486,169.184 "/>
<polyline clip-path="url(#clip642)" style="stroke:#000000; stroke-linecap:round; stroke-linejoin:round; stroke-width:2; stroke-opacity:0.06; fill:none" points="435.998,1687.07 435.998,169.184 "/>
<polyline clip-path="url(#clip642)" style="stroke:#000000; stroke-linecap:round; stroke-linejoin:round; stroke-width:2; stroke-opacity:0.06; fill:none" points="562.51,1687.07 562.51,169.184 "/>
<polyline clip-path="url(#clip642)" style="stroke:#000000; stroke-linecap:round; stroke-linejoin:round; stroke-width:2; stroke-opacity:0.06; fill:none" points="689.021,1687.07 689.021,169.184 "/>
<polyline clip-path="url(#clip642)" style="stroke:#000000; stroke-linecap:round; stroke-linejoin:round; stroke-width:2; stroke-opacity:0.06; fill:none" points="942.044,1687.07 942.044,169.184 "/>
<polyline clip-path="url(#clip642)" style="stroke:#000000; stroke-linecap:round; stroke-linejoin:round; stroke-width:2; stroke-opacity:0.06; fill:none" points="1068.56,1687.07 1068.56,169.184 "/>
<polyline clip-path="url(#clip642)" style="stroke:#000000; stroke-linecap:round; stroke-linejoin:round; stroke-width:2; stroke-opacity:0.06; fill:none" points="1195.07,1687.07 1195.07,169.184 "/>
<polyline clip-path="url(#clip642)" style="stroke:#000000; stroke-linecap:round; stroke-linejoin:round; stroke-width:2; stroke-opacity:0.06; fill:none" points="1321.58,1687.07 1321.58,169.184 "/>
<polyline clip-path="url(#clip642)" style="stroke:#000000; stroke-linecap:round; stroke-linejoin:round; stroke-width:2; stroke-opacity:0.06; fill:none" points="1574.6,1687.07 1574.6,169.184 "/>
<polyline clip-path="url(#clip642)" style="stroke:#000000; stroke-linecap:round; stroke-linejoin:round; stroke-width:2; stroke-opacity:0.06; fill:none" points="1701.11,1687.07 1701.11,169.184 "/>
<polyline clip-path="url(#clip642)" style="stroke:#000000; stroke-linecap:round; stroke-linejoin:round; stroke-width:2; stroke-opacity:0.06; fill:none" points="1827.63,1687.07 1827.63,169.184 "/>
<polyline clip-path="url(#clip642)" style="stroke:#000000; stroke-linecap:round; stroke-linejoin:round; stroke-width:2; stroke-opacity:0.06; fill:none" points="1954.14,1687.07 1954.14,169.184 "/>
<polyline clip-path="url(#clip642)" style="stroke:#000000; stroke-linecap:round; stroke-linejoin:round; stroke-width:2; stroke-opacity:0.06; fill:none" points="2207.16,1687.07 2207.16,169.184 "/>
<polyline clip-path="url(#clip642)" style="stroke:#000000; stroke-linecap:round; stroke-linejoin:round; stroke-width:2; stroke-opacity:0.06; fill:none" points="2333.67,1687.07 2333.67,169.184 "/>
<polyline clip-path="url(#clip642)" style="stroke:#000000; stroke-linecap:round; stroke-linejoin:round; stroke-width:2; stroke-opacity:0.06; fill:none" points="2460.18,1687.07 2460.18,169.184 "/>
<polyline clip-path="url(#clip642)" style="stroke:#000000; stroke-linecap:round; stroke-linejoin:round; stroke-width:2; stroke-opacity:0.06; fill:none" points="2586.69,1687.07 2586.69,169.184 "/>
<polyline clip-path="url(#clip642)" style="stroke:#000000; stroke-linecap:round; stroke-linejoin:round; stroke-width:2; stroke-opacity:0.06; fill:none" points="2839.72,1687.07 2839.72,169.184 "/>
<polyline clip-path="url(#clip642)" style="stroke:#000000; stroke-linecap:round; stroke-linejoin:round; stroke-width:2; stroke-opacity:0.06; fill:none" points="2966.23,1687.07 2966.23,169.184 "/>
<polyline clip-path="url(#clip642)" style="stroke:#000000; stroke-linecap:round; stroke-linejoin:round; stroke-width:2; stroke-opacity:0.06; fill:none" points="3092.74,1687.07 3092.74,169.184 "/>
<polyline clip-path="url(#clip642)" style="stroke:#000000; stroke-linecap:round; stroke-linejoin:round; stroke-width:2; stroke-opacity:0.06; fill:none" points="3219.25,1687.07 3219.25,169.184 "/>
<polyline clip-path="url(#clip640)" style="stroke:#000000; stroke-linecap:round; stroke-linejoin:round; stroke-width:4; stroke-opacity:1; fill:none" points="182.975,1687.07 3345.76,1687.07 "/>
<polyline clip-path="url(#clip640)" style="stroke:#000000; stroke-linecap:round; stroke-linejoin:round; stroke-width:4; stroke-opacity:1; fill:none" points="182.975,169.184 3345.76,169.184 "/>
<polyline clip-path="url(#clip640)" style="stroke:#000000; stroke-linecap:round; stroke-linejoin:round; stroke-width:4; stroke-opacity:1; fill:none" points="182.975,1687.07 182.975,1668.17 "/>
<polyline clip-path="url(#clip640)" style="stroke:#000000; stroke-linecap:round; stroke-linejoin:round; stroke-width:4; stroke-opacity:1; fill:none" points="815.533,1687.07 815.533,1668.17 "/>
<polyline clip-path="url(#clip640)" style="stroke:#000000; stroke-linecap:round; stroke-linejoin:round; stroke-width:4; stroke-opacity:1; fill:none" points="1448.09,1687.07 1448.09,1668.17 "/>
<polyline clip-path="url(#clip640)" style="stroke:#000000; stroke-linecap:round; stroke-linejoin:round; stroke-width:4; stroke-opacity:1; fill:none" points="2080.65,1687.07 2080.65,1668.17 "/>
<polyline clip-path="url(#clip640)" style="stroke:#000000; stroke-linecap:round; stroke-linejoin:round; stroke-width:4; stroke-opacity:1; fill:none" points="2713.21,1687.07 2713.21,1668.17 "/>
<polyline clip-path="url(#clip640)" style="stroke:#000000; stroke-linecap:round; stroke-linejoin:round; stroke-width:4; stroke-opacity:1; fill:none" points="3345.76,1687.07 3345.76,1668.17 "/>
<polyline clip-path="url(#clip640)" style="stroke:#000000; stroke-linecap:round; stroke-linejoin:round; stroke-width:4; stroke-opacity:1; fill:none" points="309.486,1687.07 309.486,1677.62 "/>
<polyline clip-path="url(#clip640)" style="stroke:#000000; stroke-linecap:round; stroke-linejoin:round; stroke-width:4; stroke-opacity:1; fill:none" points="435.998,1687.07 435.998,1677.62 "/>
<polyline clip-path="url(#clip640)" style="stroke:#000000; stroke-linecap:round; stroke-linejoin:round; stroke-width:4; stroke-opacity:1; fill:none" points="562.51,1687.07 562.51,1677.62 "/>
<polyline clip-path="url(#clip640)" style="stroke:#000000; stroke-linecap:round; stroke-linejoin:round; stroke-width:4; stroke-opacity:1; fill:none" points="689.021,1687.07 689.021,1677.62 "/>
<polyline clip-path="url(#clip640)" style="stroke:#000000; stroke-linecap:round; stroke-linejoin:round; stroke-width:4; stroke-opacity:1; fill:none" points="942.044,1687.07 942.044,1677.62 "/>
<polyline clip-path="url(#clip640)" style="stroke:#000000; stroke-linecap:round; stroke-linejoin:round; stroke-width:4; stroke-opacity:1; fill:none" points="1068.56,1687.07 1068.56,1677.62 "/>
<polyline clip-path="url(#clip640)" style="stroke:#000000; stroke-linecap:round; stroke-linejoin:round; stroke-width:4; stroke-opacity:1; fill:none" points="1195.07,1687.07 1195.07,1677.62 "/>
<polyline clip-path="url(#clip640)" style="stroke:#000000; stroke-linecap:round; stroke-linejoin:round; stroke-width:4; stroke-opacity:1; fill:none" points="1321.58,1687.07 1321.58,1677.62 "/>
<polyline clip-path="url(#clip640)" style="stroke:#000000; stroke-linecap:round; stroke-linejoin:round; stroke-width:4; stroke-opacity:1; fill:none" points="1574.6,1687.07 1574.6,1677.62 "/>
<polyline clip-path="url(#clip640)" style="stroke:#000000; stroke-linecap:round; stroke-linejoin:round; stroke-width:4; stroke-opacity:1; fill:none" points="1701.11,1687.07 1701.11,1677.62 "/>
<polyline clip-path="url(#clip640)" style="stroke:#000000; stroke-linecap:round; stroke-linejoin:round; stroke-width:4; stroke-opacity:1; fill:none" points="1827.63,1687.07 1827.63,1677.62 "/>
<polyline clip-path="url(#clip640)" style="stroke:#000000; stroke-linecap:round; stroke-linejoin:round; stroke-width:4; stroke-opacity:1; fill:none" points="1954.14,1687.07 1954.14,1677.62 "/>
<polyline clip-path="url(#clip640)" style="stroke:#000000; stroke-linecap:round; stroke-linejoin:round; stroke-width:4; stroke-opacity:1; fill:none" points="2207.16,1687.07 2207.16,1677.62 "/>
<polyline clip-path="url(#clip640)" style="stroke:#000000; stroke-linecap:round; stroke-linejoin:round; stroke-width:4; stroke-opacity:1; fill:none" points="2333.67,1687.07 2333.67,1677.62 "/>
<polyline clip-path="url(#clip640)" style="stroke:#000000; stroke-linecap:round; stroke-linejoin:round; stroke-width:4; stroke-opacity:1; fill:none" points="2460.18,1687.07 2460.18,1677.62 "/>
<polyline clip-path="url(#clip640)" style="stroke:#000000; stroke-linecap:round; stroke-linejoin:round; stroke-width:4; stroke-opacity:1; fill:none" points="2586.69,1687.07 2586.69,1677.62 "/>
<polyline clip-path="url(#clip640)" style="stroke:#000000; stroke-linecap:round; stroke-linejoin:round; stroke-width:4; stroke-opacity:1; fill:none" points="2839.72,1687.07 2839.72,1677.62 "/>
<polyline clip-path="url(#clip640)" style="stroke:#000000; stroke-linecap:round; stroke-linejoin:round; stroke-width:4; stroke-opacity:1; fill:none" points="2966.23,1687.07 2966.23,1677.62 "/>
<polyline clip-path="url(#clip640)" style="stroke:#000000; stroke-linecap:round; stroke-linejoin:round; stroke-width:4; stroke-opacity:1; fill:none" points="3092.74,1687.07 3092.74,1677.62 "/>
<polyline clip-path="url(#clip640)" style="stroke:#000000; stroke-linecap:round; stroke-linejoin:round; stroke-width:4; stroke-opacity:1; fill:none" points="3219.25,1687.07 3219.25,1677.62 "/>
<path clip-path="url(#clip640)" d="M172.328 1741.74 Q172.328 1734.3 174.205 1730.25 Q176.824 1724.22 183 1724.22 Q184.309 1724.22 185.668 1724.59 Q187.051 1724.94 188.78 1726.3 Q190.534 1727.65 191.596 1729.88 Q193.622 1734.18 193.622 1741.74 Q193.622 1749.12 191.745 1753.15 Q189.003 1759.03 182.95 1759.03 Q180.677 1759.03 178.355 1757.87 Q176.058 1756.71 174.6 1753.91 Q172.328 1749.74 172.328 1741.74 M176.527 1741.12 Q176.527 1748.75 177.071 1751.79 Q177.688 1755.07 179.368 1756.51 Q181.073 1757.92 182.95 1757.92 Q184.976 1757.92 186.656 1756.41 Q188.36 1754.88 188.879 1751.59 Q189.447 1748.36 189.422 1741.12 Q189.422 1734.08 188.928 1731.26 Q188.261 1727.98 186.483 1726.67 Q184.729 1725.33 182.95 1725.33 Q182.283 1725.33 181.567 1725.53 Q180.875 1725.73 179.862 1726.3 Q178.849 1726.86 178.059 1728.27 Q177.293 1729.68 176.923 1731.8 Q176.527 1734.55 176.527 1741.12 Z" fill="#000000" fill-rule="nonzero" fill-opacity="1" /><path clip-path="url(#clip640)" d="M805.429 1757.92 Q805.429 1757 805.503 1756.73 Q805.602 1756.46 805.997 1756.04 L815.706 1745.22 Q821.017 1739.24 821.017 1734.03 Q821.017 1730.64 819.238 1728.22 Q817.484 1725.8 814.248 1725.8 Q812.025 1725.8 810.147 1727.16 Q808.27 1728.52 807.405 1730.94 Q807.553 1730.89 808.072 1730.89 Q809.332 1730.89 810.024 1731.68 Q810.74 1732.47 810.74 1733.53 Q810.74 1734.89 809.851 1735.56 Q808.986 1736.2 808.122 1736.2 Q807.776 1736.2 807.306 1736.13 Q806.862 1736.05 806.145 1735.36 Q805.429 1734.65 805.429 1733.39 Q805.429 1729.85 808.097 1727.04 Q810.79 1724.22 814.89 1724.22 Q819.535 1724.22 822.573 1726.99 Q825.636 1729.73 825.636 1734.03 Q825.636 1735.53 825.167 1736.92 Q824.722 1738.28 824.105 1739.34 Q823.512 1740.4 821.881 1742.11 Q820.251 1743.81 818.942 1745.02 Q817.632 1746.23 814.693 1748.8 L809.332 1754.01 L818.448 1754.01 Q822.894 1754.01 823.24 1753.62 Q823.734 1752.9 824.352 1749.12 L825.636 1749.12 L824.204 1757.92 L805.429 1757.92 Z" fill="#000000" fill-rule="nonzero" fill-opacity="1" /><path clip-path="url(#clip640)" d="M1436.88 1749.57 L1436.88 1748.01 L1452.41 1724.27 Q1452.81 1723.65 1453.43 1723.68 Q1453.99 1723.68 1454.12 1723.9 Q1454.24 1724.12 1454.24 1724.99 L1454.24 1748.01 L1459.31 1748.01 L1459.31 1749.57 L1454.24 1749.57 L1454.24 1753.96 Q1454.24 1755.42 1454.83 1755.89 Q1455.45 1756.36 1458.07 1756.36 L1459.13 1756.36 L1459.13 1757.92 Q1457.06 1757.77 1452.27 1757.77 Q1447.5 1757.77 1445.42 1757.92 L1445.42 1756.36 L1446.48 1756.36 Q1449.1 1756.36 1449.72 1755.91 Q1450.34 1755.45 1450.34 1753.96 L1450.34 1749.57 L1436.88 1749.57 M1438.31 1748.01 L1450.63 1748.01 L1450.63 1729.14 L1438.31 1748.01 Z" fill="#000000" fill-rule="nonzero" fill-opacity="1" /><path clip-path="url(#clip640)" d="M2070.15 1741.93 Q2070.15 1733.98 2074.2 1729.11 Q2078.25 1724.22 2083.46 1724.22 Q2086.5 1724.22 2088.18 1725.78 Q2089.89 1727.31 2089.89 1729.68 Q2089.89 1730.99 2089.12 1731.56 Q2088.36 1732.13 2087.57 1732.13 Q2086.65 1732.13 2085.93 1731.51 Q2085.22 1730.89 2085.22 1729.78 Q2085.22 1727.51 2088.01 1727.51 Q2086.7 1725.48 2083.56 1725.48 Q2082.6 1725.48 2081.61 1725.78 Q2080.62 1726.05 2079.34 1726.99 Q2078.05 1727.93 2077.07 1729.41 Q2076.08 1730.89 2075.39 1733.68 Q2074.69 1736.47 2074.69 1740.1 L2074.69 1741.32 Q2076.77 1736.3 2081.02 1736.32 Q2085.27 1736.32 2088.21 1739.56 Q2091.15 1742.8 2091.15 1747.59 Q2091.15 1752.51 2088.08 1755.77 Q2085.02 1759.03 2080.72 1759.03 Q2078.8 1759.03 2077.04 1758.21 Q2075.31 1757.42 2073.68 1755.59 Q2072.08 1753.77 2071.11 1750.26 Q2070.15 1746.75 2070.15 1741.93 M2074.79 1746.48 Q2074.79 1751.44 2075.71 1753.81 Q2075.86 1754.21 2076.18 1754.75 Q2076.52 1755.3 2077.09 1756.01 Q2077.68 1756.71 2078.65 1757.17 Q2079.61 1757.62 2080.72 1757.62 Q2084.11 1757.62 2085.74 1754.33 Q2086.6 1752.51 2086.6 1747.54 Q2086.6 1742.48 2085.69 1740.62 Q2084.13 1737.49 2080.97 1737.49 Q2078.84 1737.49 2077.36 1738.94 Q2075.91 1740.4 2075.34 1742.35 Q2074.79 1744.3 2074.79 1746.48 Z" fill="#000000" fill-rule="nonzero" fill-opacity="1" /><path clip-path="url(#clip640)" d="M2702.71 1750.28 Q2702.71 1744.63 2709.99 1740.97 Q2706.86 1738.84 2706.29 1738.23 Q2704.07 1735.76 2704.07 1732.67 Q2704.07 1729.14 2706.73 1726.69 Q2709.43 1724.22 2713.23 1724.22 Q2716.86 1724.22 2719.6 1726.32 Q2722.35 1728.42 2722.35 1731.75 Q2722.35 1736.45 2716.22 1739.61 Q2720.27 1742.13 2721.23 1743.19 Q2723.7 1745.93 2723.7 1749.42 Q2723.7 1753.47 2720.59 1756.26 Q2717.48 1759.03 2713.18 1759.03 Q2708.98 1759.03 2705.84 1756.58 Q2702.71 1754.14 2702.71 1750.28 M2705.23 1750.28 Q2705.23 1753.42 2707.57 1755.52 Q2709.95 1757.62 2713.23 1757.62 Q2716.42 1757.62 2718.79 1755.79 Q2721.19 1753.96 2721.19 1751.25 Q2721.19 1750.18 2720.81 1749.27 Q2720.47 1748.36 2719.75 1747.64 Q2719.06 1746.9 2718.62 1746.58 Q2718.2 1746.23 2717.38 1745.66 L2711.16 1741.74 Q2705.23 1745.02 2705.23 1750.28 M2706.29 1730.69 Q2706.29 1733.11 2708.83 1734.79 L2715.11 1738.84 Q2720.12 1735.91 2720.12 1731.75 Q2720.12 1729.06 2718.07 1727.28 Q2716.02 1725.48 2713.18 1725.48 Q2710.39 1725.48 2708.34 1726.96 Q2706.29 1728.42 2706.29 1730.69 Z" fill="#000000" fill-rule="nonzero" fill-opacity="1" /><path clip-path="url(#clip640)" d="M3323.73 1729.04 L3323.73 1727.46 Q3329.81 1727.46 3332.94 1724.22 Q3333.81 1724.22 3333.96 1724.42 Q3334.1 1724.62 3334.1 1725.53 L3334.1 1753.91 Q3334.1 1755.42 3334.84 1755.89 Q3335.59 1756.36 3338.82 1756.36 L3340.43 1756.36 L3340.43 1757.92 Q3338.65 1757.77 3332.23 1757.77 Q3325.8 1757.77 3324.05 1757.92 L3324.05 1756.36 L3325.66 1756.36 Q3328.84 1756.36 3329.61 1755.91 Q3330.37 1755.45 3330.37 1753.91 L3330.37 1727.7 Q3327.73 1729.04 3323.73 1729.04 Z" fill="#000000" fill-rule="nonzero" fill-opacity="1" /><path clip-path="url(#clip640)" d="M3346.5 1741.74 Q3346.5 1734.3 3348.38 1730.25 Q3351 1724.22 3357.18 1724.22 Q3358.49 1724.22 3359.84 1724.59 Q3361.23 1724.94 3362.96 1726.3 Q3364.71 1727.65 3365.77 1729.88 Q3367.8 1734.18 3367.8 1741.74 Q3367.8 1749.12 3365.92 1753.15 Q3363.18 1759.03 3357.13 1759.03 Q3354.85 1759.03 3352.53 1757.87 Q3350.24 1756.71 3348.78 1753.91 Q3346.5 1749.74 3346.5 1741.74 M3350.7 1741.12 Q3350.7 1748.75 3351.25 1751.79 Q3351.87 1755.07 3353.55 1756.51 Q3355.25 1757.92 3357.13 1757.92 Q3359.15 1757.92 3360.83 1756.41 Q3362.54 1754.88 3363.06 1751.59 Q3363.62 1748.36 3363.6 1741.12 Q3363.6 1734.08 3363.11 1731.26 Q3362.44 1727.98 3360.66 1726.67 Q3358.91 1725.33 3357.13 1725.33 Q3356.46 1725.33 3355.74 1725.53 Q3355.05 1725.73 3354.04 1726.3 Q3353.03 1726.86 3352.24 1728.27 Q3351.47 1729.68 3351.1 1731.8 Q3350.7 1734.55 3350.7 1741.12 Z" fill="#000000" fill-rule="nonzero" fill-opacity="1" /><path clip-path="url(#clip640)" d="M1752.49 1822.61 L1752.49 1820.94 Q1755.98 1820.79 1758.27 1818.35 Q1760.61 1815.86 1761.39 1812.83 Q1762.2 1809.79 1762.28 1806.27 L1764.17 1806.27 L1764.17 1820.24 L1775.02 1820.24 L1775.02 1822.61 L1764.17 1822.61 L1764.17 1843.69 Q1764.17 1851.88 1769.28 1851.88 Q1771.47 1851.88 1772.91 1849.66 Q1774.36 1847.4 1774.36 1843.4 L1774.36 1839.21 L1776.25 1839.21 L1776.25 1843.54 Q1776.25 1847.66 1774.36 1850.73 Q1772.47 1853.81 1768.72 1853.81 Q1767.35 1853.81 1765.98 1853.44 Q1764.65 1853.1 1762.87 1852.21 Q1761.13 1851.29 1760.02 1849.06 Q1758.94 1846.8 1758.94 1843.54 L1758.94 1822.61 L1752.49 1822.61 Z" fill="#000000" fill-rule="nonzero" fill-opacity="1" /><polyline clip-path="url(#clip642)" style="stroke:#000000; stroke-linecap:round; stroke-linejoin:round; stroke-width:2.8; stroke-opacity:0.4; fill:none" points="182.975,1484.03 3345.76,1484.03 "/>
<polyline clip-path="url(#clip642)" style="stroke:#000000; stroke-linecap:round; stroke-linejoin:round; stroke-width:2.8; stroke-opacity:0.4; fill:none" points="182.975,1268.64 3345.76,1268.64 "/>
<polyline clip-path="url(#clip642)" style="stroke:#000000; stroke-linecap:round; stroke-linejoin:round; stroke-width:2.8; stroke-opacity:0.4; fill:none" points="182.975,1053.24 3345.76,1053.24 "/>
<polyline clip-path="url(#clip642)" style="stroke:#000000; stroke-linecap:round; stroke-linejoin:round; stroke-width:2.8; stroke-opacity:0.4; fill:none" points="182.975,837.844 3345.76,837.844 "/>
<polyline clip-path="url(#clip642)" style="stroke:#000000; stroke-linecap:round; stroke-linejoin:round; stroke-width:2.8; stroke-opacity:0.4; fill:none" points="182.975,622.448 3345.76,622.448 "/>
<polyline clip-path="url(#clip642)" style="stroke:#000000; stroke-linecap:round; stroke-linejoin:round; stroke-width:2.8; stroke-opacity:0.4; fill:none" points="182.975,407.052 3345.76,407.052 "/>
<polyline clip-path="url(#clip642)" style="stroke:#000000; stroke-linecap:round; stroke-linejoin:round; stroke-width:2.8; stroke-opacity:0.4; fill:none" points="182.975,191.655 3345.76,191.655 "/>
<polyline clip-path="url(#clip642)" style="stroke:#000000; stroke-linecap:round; stroke-linejoin:round; stroke-width:2; stroke-opacity:0.06; fill:none" points="182.975,1656.35 3345.76,1656.35 "/>
<polyline clip-path="url(#clip642)" style="stroke:#000000; stroke-linecap:round; stroke-linejoin:round; stroke-width:2; stroke-opacity:0.06; fill:none" points="182.975,1613.27 3345.76,1613.27 "/>
<polyline clip-path="url(#clip642)" style="stroke:#000000; stroke-linecap:round; stroke-linejoin:round; stroke-width:2; stroke-opacity:0.06; fill:none" points="182.975,1570.19 3345.76,1570.19 "/>
<polyline clip-path="url(#clip642)" style="stroke:#000000; stroke-linecap:round; stroke-linejoin:round; stroke-width:2; stroke-opacity:0.06; fill:none" points="182.975,1527.11 3345.76,1527.11 "/>
<polyline clip-path="url(#clip642)" style="stroke:#000000; stroke-linecap:round; stroke-linejoin:round; stroke-width:2; stroke-opacity:0.06; fill:none" points="182.975,1440.95 3345.76,1440.95 "/>
<polyline clip-path="url(#clip642)" style="stroke:#000000; stroke-linecap:round; stroke-linejoin:round; stroke-width:2; stroke-opacity:0.06; fill:none" points="182.975,1397.87 3345.76,1397.87 "/>
<polyline clip-path="url(#clip642)" style="stroke:#000000; stroke-linecap:round; stroke-linejoin:round; stroke-width:2; stroke-opacity:0.06; fill:none" points="182.975,1354.8 3345.76,1354.8 "/>
<polyline clip-path="url(#clip642)" style="stroke:#000000; stroke-linecap:round; stroke-linejoin:round; stroke-width:2; stroke-opacity:0.06; fill:none" points="182.975,1311.72 3345.76,1311.72 "/>
<polyline clip-path="url(#clip642)" style="stroke:#000000; stroke-linecap:round; stroke-linejoin:round; stroke-width:2; stroke-opacity:0.06; fill:none" points="182.975,1225.56 3345.76,1225.56 "/>
<polyline clip-path="url(#clip642)" style="stroke:#000000; stroke-linecap:round; stroke-linejoin:round; stroke-width:2; stroke-opacity:0.06; fill:none" points="182.975,1182.48 3345.76,1182.48 "/>
<polyline clip-path="url(#clip642)" style="stroke:#000000; stroke-linecap:round; stroke-linejoin:round; stroke-width:2; stroke-opacity:0.06; fill:none" points="182.975,1139.4 3345.76,1139.4 "/>
<polyline clip-path="url(#clip642)" style="stroke:#000000; stroke-linecap:round; stroke-linejoin:round; stroke-width:2; stroke-opacity:0.06; fill:none" points="182.975,1096.32 3345.76,1096.32 "/>
<polyline clip-path="url(#clip642)" style="stroke:#000000; stroke-linecap:round; stroke-linejoin:round; stroke-width:2; stroke-opacity:0.06; fill:none" points="182.975,1010.16 3345.76,1010.16 "/>
<polyline clip-path="url(#clip642)" style="stroke:#000000; stroke-linecap:round; stroke-linejoin:round; stroke-width:2; stroke-opacity:0.06; fill:none" points="182.975,967.082 3345.76,967.082 "/>
<polyline clip-path="url(#clip642)" style="stroke:#000000; stroke-linecap:round; stroke-linejoin:round; stroke-width:2; stroke-opacity:0.06; fill:none" points="182.975,924.003 3345.76,924.003 "/>
<polyline clip-path="url(#clip642)" style="stroke:#000000; stroke-linecap:round; stroke-linejoin:round; stroke-width:2; stroke-opacity:0.06; fill:none" points="182.975,880.923 3345.76,880.923 "/>
<polyline clip-path="url(#clip642)" style="stroke:#000000; stroke-linecap:round; stroke-linejoin:round; stroke-width:2; stroke-opacity:0.06; fill:none" points="182.975,794.765 3345.76,794.765 "/>
<polyline clip-path="url(#clip642)" style="stroke:#000000; stroke-linecap:round; stroke-linejoin:round; stroke-width:2; stroke-opacity:0.06; fill:none" points="182.975,751.686 3345.76,751.686 "/>
<polyline clip-path="url(#clip642)" style="stroke:#000000; stroke-linecap:round; stroke-linejoin:round; stroke-width:2; stroke-opacity:0.06; fill:none" points="182.975,708.606 3345.76,708.606 "/>
<polyline clip-path="url(#clip642)" style="stroke:#000000; stroke-linecap:round; stroke-linejoin:round; stroke-width:2; stroke-opacity:0.06; fill:none" points="182.975,665.527 3345.76,665.527 "/>
<polyline clip-path="url(#clip642)" style="stroke:#000000; stroke-linecap:round; stroke-linejoin:round; stroke-width:2; stroke-opacity:0.06; fill:none" points="182.975,579.369 3345.76,579.369 "/>
<polyline clip-path="url(#clip642)" style="stroke:#000000; stroke-linecap:round; stroke-linejoin:round; stroke-width:2; stroke-opacity:0.06; fill:none" points="182.975,536.289 3345.76,536.289 "/>
<polyline clip-path="url(#clip642)" style="stroke:#000000; stroke-linecap:round; stroke-linejoin:round; stroke-width:2; stroke-opacity:0.06; fill:none" points="182.975,493.21 3345.76,493.21 "/>
<polyline clip-path="url(#clip642)" style="stroke:#000000; stroke-linecap:round; stroke-linejoin:round; stroke-width:2; stroke-opacity:0.06; fill:none" points="182.975,450.131 3345.76,450.131 "/>
<polyline clip-path="url(#clip642)" style="stroke:#000000; stroke-linecap:round; stroke-linejoin:round; stroke-width:2; stroke-opacity:0.06; fill:none" points="182.975,363.972 3345.76,363.972 "/>
<polyline clip-path="url(#clip642)" style="stroke:#000000; stroke-linecap:round; stroke-linejoin:round; stroke-width:2; stroke-opacity:0.06; fill:none" points="182.975,320.893 3345.76,320.893 "/>
<polyline clip-path="url(#clip642)" style="stroke:#000000; stroke-linecap:round; stroke-linejoin:round; stroke-width:2; stroke-opacity:0.06; fill:none" points="182.975,277.814 3345.76,277.814 "/>
<polyline clip-path="url(#clip642)" style="stroke:#000000; stroke-linecap:round; stroke-linejoin:round; stroke-width:2; stroke-opacity:0.06; fill:none" points="182.975,234.735 3345.76,234.735 "/>
<polyline clip-path="url(#clip640)" style="stroke:#000000; stroke-linecap:round; stroke-linejoin:round; stroke-width:4; stroke-opacity:1; fill:none" points="182.975,1687.07 182.975,169.184 "/>
<polyline clip-path="url(#clip640)" style="stroke:#000000; stroke-linecap:round; stroke-linejoin:round; stroke-width:4; stroke-opacity:1; fill:none" points="3345.76,1687.07 3345.76,169.184 "/>
<polyline clip-path="url(#clip640)" style="stroke:#000000; stroke-linecap:round; stroke-linejoin:round; stroke-width:4; stroke-opacity:1; fill:none" points="182.975,1484.03 201.873,1484.03 "/>
<polyline clip-path="url(#clip640)" style="stroke:#000000; stroke-linecap:round; stroke-linejoin:round; stroke-width:4; stroke-opacity:1; fill:none" points="182.975,1268.64 201.873,1268.64 "/>
<polyline clip-path="url(#clip640)" style="stroke:#000000; stroke-linecap:round; stroke-linejoin:round; stroke-width:4; stroke-opacity:1; fill:none" points="182.975,1053.24 201.873,1053.24 "/>
<polyline clip-path="url(#clip640)" style="stroke:#000000; stroke-linecap:round; stroke-linejoin:round; stroke-width:4; stroke-opacity:1; fill:none" points="182.975,837.844 201.873,837.844 "/>
<polyline clip-path="url(#clip640)" style="stroke:#000000; stroke-linecap:round; stroke-linejoin:round; stroke-width:4; stroke-opacity:1; fill:none" points="182.975,622.448 201.873,622.448 "/>
<polyline clip-path="url(#clip640)" style="stroke:#000000; stroke-linecap:round; stroke-linejoin:round; stroke-width:4; stroke-opacity:1; fill:none" points="182.975,407.052 201.873,407.052 "/>
<polyline clip-path="url(#clip640)" style="stroke:#000000; stroke-linecap:round; stroke-linejoin:round; stroke-width:4; stroke-opacity:1; fill:none" points="182.975,191.655 201.873,191.655 "/>
<polyline clip-path="url(#clip640)" style="stroke:#000000; stroke-linecap:round; stroke-linejoin:round; stroke-width:4; stroke-opacity:1; fill:none" points="182.975,1656.35 192.424,1656.35 "/>
<polyline clip-path="url(#clip640)" style="stroke:#000000; stroke-linecap:round; stroke-linejoin:round; stroke-width:4; stroke-opacity:1; fill:none" points="182.975,1613.27 192.424,1613.27 "/>
<polyline clip-path="url(#clip640)" style="stroke:#000000; stroke-linecap:round; stroke-linejoin:round; stroke-width:4; stroke-opacity:1; fill:none" points="182.975,1570.19 192.424,1570.19 "/>
<polyline clip-path="url(#clip640)" style="stroke:#000000; stroke-linecap:round; stroke-linejoin:round; stroke-width:4; stroke-opacity:1; fill:none" points="182.975,1527.11 192.424,1527.11 "/>
<polyline clip-path="url(#clip640)" style="stroke:#000000; stroke-linecap:round; stroke-linejoin:round; stroke-width:4; stroke-opacity:1; fill:none" points="182.975,1440.95 192.424,1440.95 "/>
<polyline clip-path="url(#clip640)" style="stroke:#000000; stroke-linecap:round; stroke-linejoin:round; stroke-width:4; stroke-opacity:1; fill:none" points="182.975,1397.87 192.424,1397.87 "/>
<polyline clip-path="url(#clip640)" style="stroke:#000000; stroke-linecap:round; stroke-linejoin:round; stroke-width:4; stroke-opacity:1; fill:none" points="182.975,1354.8 192.424,1354.8 "/>
<polyline clip-path="url(#clip640)" style="stroke:#000000; stroke-linecap:round; stroke-linejoin:round; stroke-width:4; stroke-opacity:1; fill:none" points="182.975,1311.72 192.424,1311.72 "/>
<polyline clip-path="url(#clip640)" style="stroke:#000000; stroke-linecap:round; stroke-linejoin:round; stroke-width:4; stroke-opacity:1; fill:none" points="182.975,1225.56 192.424,1225.56 "/>
<polyline clip-path="url(#clip640)" style="stroke:#000000; stroke-linecap:round; stroke-linejoin:round; stroke-width:4; stroke-opacity:1; fill:none" points="182.975,1182.48 192.424,1182.48 "/>
<polyline clip-path="url(#clip640)" style="stroke:#000000; stroke-linecap:round; stroke-linejoin:round; stroke-width:4; stroke-opacity:1; fill:none" points="182.975,1139.4 192.424,1139.4 "/>
<polyline clip-path="url(#clip640)" style="stroke:#000000; stroke-linecap:round; stroke-linejoin:round; stroke-width:4; stroke-opacity:1; fill:none" points="182.975,1096.32 192.424,1096.32 "/>
<polyline clip-path="url(#clip640)" style="stroke:#000000; stroke-linecap:round; stroke-linejoin:round; stroke-width:4; stroke-opacity:1; fill:none" points="182.975,1010.16 192.424,1010.16 "/>
<polyline clip-path="url(#clip640)" style="stroke:#000000; stroke-linecap:round; stroke-linejoin:round; stroke-width:4; stroke-opacity:1; fill:none" points="182.975,967.082 192.424,967.082 "/>
<polyline clip-path="url(#clip640)" style="stroke:#000000; stroke-linecap:round; stroke-linejoin:round; stroke-width:4; stroke-opacity:1; fill:none" points="182.975,924.003 192.424,924.003 "/>
<polyline clip-path="url(#clip640)" style="stroke:#000000; stroke-linecap:round; stroke-linejoin:round; stroke-width:4; stroke-opacity:1; fill:none" points="182.975,880.923 192.424,880.923 "/>
<polyline clip-path="url(#clip640)" style="stroke:#000000; stroke-linecap:round; stroke-linejoin:round; stroke-width:4; stroke-opacity:1; fill:none" points="182.975,794.765 192.424,794.765 "/>
<polyline clip-path="url(#clip640)" style="stroke:#000000; stroke-linecap:round; stroke-linejoin:round; stroke-width:4; stroke-opacity:1; fill:none" points="182.975,751.686 192.424,751.686 "/>
<polyline clip-path="url(#clip640)" style="stroke:#000000; stroke-linecap:round; stroke-linejoin:round; stroke-width:4; stroke-opacity:1; fill:none" points="182.975,708.606 192.424,708.606 "/>
<polyline clip-path="url(#clip640)" style="stroke:#000000; stroke-linecap:round; stroke-linejoin:round; stroke-width:4; stroke-opacity:1; fill:none" points="182.975,665.527 192.424,665.527 "/>
<polyline clip-path="url(#clip640)" style="stroke:#000000; stroke-linecap:round; stroke-linejoin:round; stroke-width:4; stroke-opacity:1; fill:none" points="182.975,579.369 192.424,579.369 "/>
<polyline clip-path="url(#clip640)" style="stroke:#000000; stroke-linecap:round; stroke-linejoin:round; stroke-width:4; stroke-opacity:1; fill:none" points="182.975,536.289 192.424,536.289 "/>
<polyline clip-path="url(#clip640)" style="stroke:#000000; stroke-linecap:round; stroke-linejoin:round; stroke-width:4; stroke-opacity:1; fill:none" points="182.975,493.21 192.424,493.21 "/>
<polyline clip-path="url(#clip640)" style="stroke:#000000; stroke-linecap:round; stroke-linejoin:round; stroke-width:4; stroke-opacity:1; fill:none" points="182.975,450.131 192.424,450.131 "/>
<polyline clip-path="url(#clip640)" style="stroke:#000000; stroke-linecap:round; stroke-linejoin:round; stroke-width:4; stroke-opacity:1; fill:none" points="182.975,363.972 192.424,363.972 "/>
<polyline clip-path="url(#clip640)" style="stroke:#000000; stroke-linecap:round; stroke-linejoin:round; stroke-width:4; stroke-opacity:1; fill:none" points="182.975,320.893 192.424,320.893 "/>
<polyline clip-path="url(#clip640)" style="stroke:#000000; stroke-linecap:round; stroke-linejoin:round; stroke-width:4; stroke-opacity:1; fill:none" points="182.975,277.814 192.424,277.814 "/>
<polyline clip-path="url(#clip640)" style="stroke:#000000; stroke-linecap:round; stroke-linejoin:round; stroke-width:4; stroke-opacity:1; fill:none" points="182.975,234.735 192.424,234.735 "/>
<path clip-path="url(#clip640)" d="M114.435 1472.43 L114.435 1470.85 Q120.512 1470.85 123.65 1467.62 Q124.514 1467.62 124.663 1467.82 Q124.811 1468.01 124.811 1468.93 L124.811 1497.31 Q124.811 1498.82 125.552 1499.29 Q126.293 1499.76 129.529 1499.76 L131.135 1499.76 L131.135 1501.31 Q129.356 1501.16 122.933 1501.16 Q116.511 1501.16 114.757 1501.31 L114.757 1499.76 L116.362 1499.76 Q119.549 1499.76 120.315 1499.31 Q121.081 1498.84 121.081 1497.31 L121.081 1471.1 Q118.437 1472.43 114.435 1472.43 Z" fill="#000000" fill-rule="nonzero" fill-opacity="1" /><path clip-path="url(#clip640)" d="M110.928 1285.92 Q110.928 1285 111.002 1284.73 Q111.1 1284.46 111.496 1284.04 L121.204 1273.22 Q126.515 1267.24 126.515 1262.03 Q126.515 1258.64 124.737 1256.22 Q122.983 1253.8 119.747 1253.8 Q117.523 1253.8 115.646 1255.16 Q113.768 1256.52 112.904 1258.94 Q113.052 1258.89 113.571 1258.89 Q114.831 1258.89 115.522 1259.68 Q116.239 1260.47 116.239 1261.53 Q116.239 1262.89 115.349 1263.56 Q114.485 1264.2 113.62 1264.2 Q113.274 1264.2 112.805 1264.13 Q112.36 1264.05 111.644 1263.36 Q110.928 1262.65 110.928 1261.39 Q110.928 1257.85 113.596 1255.04 Q116.288 1252.22 120.389 1252.22 Q125.033 1252.22 128.072 1254.99 Q131.135 1257.73 131.135 1262.03 Q131.135 1263.54 130.666 1264.92 Q130.221 1266.28 129.603 1267.34 Q129.01 1268.4 127.38 1270.11 Q125.75 1271.81 124.44 1273.02 Q123.131 1274.23 120.191 1276.8 L114.831 1282.01 L123.946 1282.01 Q128.393 1282.01 128.739 1281.62 Q129.233 1280.9 129.85 1277.12 L131.135 1277.12 L129.702 1285.92 L110.928 1285.92 Z" fill="#000000" fill-rule="nonzero" fill-opacity="1" /><path clip-path="url(#clip640)" d="M110.137 1063.7 Q110.137 1062.2 111.002 1061.48 Q111.866 1060.76 112.978 1060.76 Q114.139 1060.76 114.954 1061.53 Q115.794 1062.27 115.794 1063.58 Q115.794 1064.99 114.806 1065.78 Q113.843 1066.57 112.459 1066.37 Q113.67 1068.4 115.893 1069.31 Q118.141 1070.22 120.216 1070.22 Q122.39 1070.22 124.144 1068.35 Q125.922 1066.47 125.922 1061.87 Q125.922 1057.97 124.391 1055.72 Q122.884 1053.48 119.895 1053.48 L117.672 1053.48 Q116.906 1053.48 116.683 1053.4 Q116.461 1053.33 116.461 1052.91 Q116.461 1052.41 117.227 1052.31 Q117.993 1052.31 119.203 1052.17 Q122.143 1052.07 123.699 1049.52 Q125.107 1047.15 125.107 1043.77 Q125.107 1040.68 123.625 1039.39 Q122.168 1038.08 120.265 1038.08 Q118.487 1038.08 116.535 1038.83 Q114.584 1039.57 113.521 1041.22 Q116.659 1041.22 116.659 1043.77 Q116.659 1044.88 115.942 1045.62 Q115.251 1046.34 114.09 1046.34 Q112.978 1046.34 112.237 1045.64 Q111.496 1044.93 111.496 1043.72 Q111.496 1040.83 114.065 1038.83 Q116.659 1036.83 120.463 1036.83 Q124.218 1036.83 126.985 1038.8 Q129.776 1040.78 129.776 1043.82 Q129.776 1046.81 127.8 1049.25 Q125.824 1051.7 122.686 1052.71 Q126.54 1053.48 128.837 1056.09 Q131.135 1058.69 131.135 1061.87 Q131.135 1065.83 128.022 1068.74 Q124.91 1071.63 120.364 1071.63 Q116.165 1071.63 113.151 1069.36 Q110.137 1067.09 110.137 1063.7 Z" fill="#000000" fill-rule="nonzero" fill-opacity="1" /><path clip-path="url(#clip640)" d="M108.704 846.774 L108.704 845.218 L124.243 821.478 Q124.638 820.861 125.256 820.885 Q125.824 820.885 125.947 821.108 Q126.071 821.33 126.071 822.195 L126.071 845.218 L131.135 845.218 L131.135 846.774 L126.071 846.774 L126.071 851.172 Q126.071 852.629 126.664 853.098 Q127.281 853.568 129.9 853.568 L130.962 853.568 L130.962 855.124 Q128.887 854.976 124.094 854.976 Q119.327 854.976 117.252 855.124 L117.252 853.568 L118.314 853.568 Q120.932 853.568 121.55 853.123 Q122.168 852.654 122.168 851.172 L122.168 846.774 L108.704 846.774 M110.137 845.218 L122.464 845.218 L122.464 826.345 L110.137 845.218 Z" fill="#000000" fill-rule="nonzero" fill-opacity="1" /><path clip-path="url(#clip640)" d="M110.928 631.576 Q110.928 630.069 111.743 629.501 Q112.558 628.908 113.423 628.908 Q114.584 628.908 115.251 629.649 Q115.942 630.365 115.942 631.378 Q115.942 632.391 115.251 633.132 Q114.584 633.848 113.423 633.848 Q112.854 633.848 112.558 633.75 Q113.225 636.072 115.251 637.752 Q117.301 639.431 119.994 639.431 Q123.378 639.431 125.404 636.146 Q126.614 634.021 126.614 629.204 Q126.614 624.955 125.7 622.831 Q124.292 619.595 121.402 619.595 Q117.301 619.595 114.88 623.127 Q114.584 623.572 114.238 623.597 Q113.744 623.597 113.62 623.325 Q113.521 623.028 113.521 622.263 L113.521 607.292 Q113.521 606.082 114.015 606.082 Q114.213 606.082 114.633 606.23 Q117.82 607.638 121.352 607.663 Q124.984 607.663 128.245 606.181 Q128.492 606.033 128.64 606.033 Q129.134 606.033 129.159 606.601 Q129.159 606.798 128.739 607.391 Q128.343 607.959 127.479 608.725 Q126.614 609.466 125.503 610.183 Q124.391 610.899 122.76 611.393 Q121.155 611.863 119.376 611.863 Q117.252 611.863 115.078 611.196 L115.078 621.052 Q117.696 618.483 121.501 618.483 Q125.552 618.483 128.343 621.744 Q131.135 625.005 131.135 629.55 Q131.135 634.318 127.825 637.579 Q124.539 640.84 120.093 640.84 Q116.041 640.84 113.472 637.949 Q110.928 635.059 110.928 631.576 Z" fill="#000000" fill-rule="nonzero" fill-opacity="1" /><path clip-path="url(#clip640)" d="M110.137 408.349 Q110.137 400.394 114.188 395.528 Q118.24 390.636 123.452 390.636 Q126.491 390.636 128.17 392.193 Q129.875 393.724 129.875 396.096 Q129.875 397.405 129.109 397.973 Q128.343 398.541 127.553 398.541 Q126.639 398.541 125.922 397.924 Q125.206 397.306 125.206 396.195 Q125.206 393.922 127.998 393.922 Q126.688 391.896 123.551 391.896 Q122.588 391.896 121.599 392.193 Q120.611 392.464 119.327 393.403 Q118.042 394.342 117.054 395.824 Q116.066 397.306 115.374 400.098 Q114.682 402.889 114.682 406.521 L114.682 407.731 Q116.758 402.716 121.007 402.741 Q125.256 402.741 128.195 405.977 Q131.135 409.213 131.135 414.006 Q131.135 418.922 128.072 422.182 Q125.008 425.443 120.71 425.443 Q118.783 425.443 117.029 424.628 Q115.3 423.838 113.67 422.01 Q112.064 420.181 111.1 416.674 Q110.137 413.166 110.137 408.349 M114.781 412.894 Q114.781 417.859 115.695 420.231 Q115.844 420.626 116.165 421.17 Q116.511 421.713 117.079 422.429 Q117.672 423.121 118.635 423.591 Q119.598 424.035 120.71 424.035 Q124.094 424.035 125.725 420.75 Q126.589 418.922 126.589 413.956 Q126.589 408.892 125.675 407.039 Q124.119 403.902 120.957 403.902 Q118.833 403.902 117.35 405.359 Q115.893 406.817 115.325 408.769 Q114.781 410.72 114.781 412.894 Z" fill="#000000" fill-rule="nonzero" fill-opacity="1" /><path clip-path="url(#clip640)" d="M109.445 185.146 L111.1 174.746 L112.36 174.746 Q112.509 175.364 112.756 175.635 Q113.027 175.907 114.46 176.129 Q115.918 176.352 118.857 176.352 L131.135 176.352 Q131.135 177.513 130.69 178.13 L123.847 187.74 Q121.674 190.778 120.71 196.386 Q120.142 200.141 120.167 204.686 L120.167 207.256 Q120.167 210.047 117.82 210.047 Q115.498 210.047 115.498 207.256 Q115.498 197.597 121.723 188.234 Q122.39 187.271 124.836 183.837 Q127.306 180.403 127.405 180.255 L116.93 180.255 Q112.336 180.255 111.965 180.551 Q111.471 180.996 110.705 185.146 L109.445 185.146 Z" fill="#000000" fill-rule="nonzero" fill-opacity="1" /><path clip-path="url(#clip640)" d="M1374.07 62.208 L1374.07 59.8735 L1375.88 59.8735 Q1380 59.8735 1380.92 59.2065 Q1381.89 58.5025 1381.89 56.2792 L1381.89 16.2968 Q1381.89 14.1106 1380.92 13.4436 Q1379.96 12.7395 1375.88 12.7395 L1374.07 12.7395 L1374.07 10.368 Q1376.74 10.5903 1385.59 10.5903 Q1395.6 10.5903 1398.34 10.368 L1398.34 12.7395 L1395.82 12.7395 Q1392.34 12.7395 1390.74 13.1842 Q1389.15 13.6288 1388.89 14.2588 Q1388.63 14.8517 1388.63 16.3709 L1388.63 56.835 Q1388.63 58.7989 1389.19 59.3548 Q1389.78 59.8735 1392.34 59.8735 L1398.56 59.8735 Q1402.42 59.8735 1405.19 58.7248 Q1407.97 57.5761 1409.46 56.131 Q1410.94 54.6858 1411.9 51.9808 Q1412.9 49.2387 1413.2 47.4971 Q1413.53 45.7556 1413.83 42.6429 L1415.72 42.6429 L1413.61 62.208 L1374.07 62.208 Z" fill="#000000" fill-rule="nonzero" fill-opacity="1" /><path clip-path="url(#clip640)" d="M1426.09 58.1319 Q1421.09 53.1666 1421.09 45.9779 Q1421.09 38.7522 1425.98 33.4903 Q1430.91 28.1915 1437.95 28.1915 Q1444.84 28.1915 1449.77 33.4533 Q1454.74 38.6781 1454.74 45.9779 Q1454.74 53.1295 1449.74 58.0949 Q1444.77 63.0603 1437.88 63.0603 Q1431.13 63.0603 1426.09 58.1319 M1427.39 45.348 Q1427.39 52.7219 1429.32 56.0569 Q1432.28 61.1334 1437.95 61.1334 Q1440.77 61.1334 1443.1 59.6141 Q1445.47 58.0949 1446.77 55.5381 Q1448.44 52.2031 1448.44 45.348 Q1448.44 38.0481 1446.44 34.8243 Q1443.47 29.896 1437.88 29.896 Q1435.43 29.896 1433.02 31.1929 Q1430.65 32.4528 1429.21 34.9725 Q1427.39 38.3075 1427.39 45.348 Z" fill="#000000" fill-rule="nonzero" fill-opacity="1" /><path clip-path="url(#clip640)" d="M1458.37 31.8599 L1458.37 30.1924 Q1461.85 30.0442 1464.15 27.5986 Q1466.48 25.1159 1467.26 22.0774 Q1468.08 19.0389 1468.15 15.5187 L1470.04 15.5187 L1470.04 29.4884 L1480.9 29.4884 L1480.9 31.8599 L1470.04 31.8599 L1470.04 52.9442 Q1470.04 61.1334 1475.15 61.1334 Q1477.34 61.1334 1478.79 58.9101 Q1480.23 56.6497 1480.23 52.6478 L1480.23 48.4606 L1482.12 48.4606 L1482.12 52.796 Q1482.12 56.9091 1480.23 59.9847 Q1478.34 63.0603 1474.6 63.0603 Q1473.23 63.0603 1471.86 62.6897 Q1470.52 62.3562 1468.74 61.4669 Q1467 60.5405 1465.89 58.3172 Q1464.82 56.0569 1464.82 52.796 L1464.82 31.8599 L1458.37 31.8599 Z" fill="#000000" fill-rule="nonzero" fill-opacity="1" /><path clip-path="url(#clip640)" d="M1488.46 62.208 L1488.46 59.8735 Q1492.5 59.8735 1493.42 59.3918 Q1494.39 58.873 1494.39 56.4274 L1494.39 16.9638 Q1494.39 14.1476 1493.39 13.4436 Q1492.42 12.7395 1488.46 12.7395 L1488.46 10.368 L1499.39 9.55279 L1499.39 45.9779 L1510.1 36.7141 Q1511.77 35.269 1511.77 33.7497 Q1511.77 32.0081 1509.58 31.8599 L1509.58 29.4884 Q1512.77 29.7107 1518.06 29.7107 Q1521.18 29.7107 1523.36 29.4884 L1523.36 31.8599 Q1518.58 32.0823 1513.8 35.936 Q1512.73 36.7882 1510.17 39.0115 Q1507.65 41.1978 1507.65 41.4201 Q1507.65 41.4942 1507.73 41.6795 Q1507.84 41.8648 1507.99 42.013 Q1508.13 42.1612 1508.13 42.2353 L1517.77 55.8345 Q1519.73 58.5766 1521.18 59.2436 Q1522.62 59.8735 1525.14 59.8735 L1525.14 62.208 Q1521.88 61.9857 1518.51 61.9857 Q1516.69 61.9857 1510.32 62.208 L1510.32 59.8735 Q1513.06 59.8735 1513.06 58.0949 Q1513.06 56.8721 1506.91 48.3865 Q1506.47 47.7936 1505.47 46.4967 Q1504.54 45.1256 1504.02 44.4586 L1499.17 48.6088 L1499.17 56.4274 Q1499.17 58.873 1500.09 59.3918 Q1501.06 59.8735 1505.1 59.8735 L1505.1 62.208 Q1500.54 61.9857 1496.76 61.9857 Q1495.98 61.9857 1488.46 62.208 Z" fill="#000000" fill-rule="nonzero" fill-opacity="1" /><path clip-path="url(#clip640)" d="M1527.4 54.9823 Q1527.4 48.5347 1535 45.1256 Q1539.56 42.9394 1548.97 42.3836 L1548.97 39.6044 Q1548.97 34.8984 1546.49 32.4157 Q1544.04 29.896 1540.93 29.896 Q1535.37 29.896 1532.7 33.3792 Q1534.96 33.4533 1535.78 34.602 Q1536.59 35.7136 1536.59 36.8624 Q1536.59 38.3816 1535.63 39.3821 Q1534.7 40.3455 1533.11 40.3455 Q1531.59 40.3455 1530.59 39.4192 Q1529.59 38.4557 1529.59 36.7882 Q1529.59 33.0827 1532.92 30.6371 Q1536.3 28.1915 1541.08 28.1915 Q1547.3 28.1915 1551.45 32.3787 Q1552.75 33.6756 1553.38 35.3431 Q1554.04 37.0106 1554.12 38.1222 Q1554.19 39.1968 1554.19 41.346 L1554.19 56.5015 Q1554.19 56.9462 1554.34 57.6873 Q1554.49 58.4284 1555.16 59.3918 Q1555.86 60.3182 1557.01 60.3182 Q1559.75 60.3182 1559.71 55.464 L1559.71 51.2027 L1561.64 51.2027 L1561.64 55.464 Q1561.64 59.503 1559.49 61.0963 Q1557.38 62.6527 1555.42 62.6527 Q1552.9 62.6527 1551.3 60.7999 Q1549.71 58.9472 1549.49 56.4274 Q1548.34 59.3177 1545.71 61.2075 Q1543.11 63.0603 1539.56 63.0603 Q1536.81 63.0603 1534.22 62.3562 Q1531.66 61.6892 1529.51 59.7994 Q1527.4 57.8726 1527.4 54.9823 M1533.26 54.9082 Q1533.26 57.7243 1535.26 59.54 Q1537.26 61.3557 1540.08 61.3557 Q1543.26 61.3557 1546.12 58.9101 Q1548.97 56.4274 1548.97 51.5732 L1548.97 43.9769 Q1540.56 44.2734 1536.89 47.6454 Q1533.26 50.9803 1533.26 54.9082 Z" fill="#000000" fill-rule="nonzero" fill-opacity="1" /><path clip-path="url(#clip640)" d="M1562.9 48.09 L1562.9 43.6064 L1583.1 43.6064 L1583.1 48.09 L1562.9 48.09 Z" fill="#000000" fill-rule="nonzero" fill-opacity="1" /><path clip-path="url(#clip640)" d="M1588.84 12.7395 L1588.84 10.368 Q1597.03 10.5903 1598.47 10.5903 Q1606.59 10.5903 1609.33 10.368 L1609.33 12.7395 Q1603.11 12.7395 1603.11 14.9258 Q1603.11 15.2222 1603.55 16.2968 L1618.04 54.6117 L1631.93 18.0384 Q1632.31 16.8897 1632.31 16.5191 Q1632.31 14.9999 1630.9 13.9253 Q1629.53 12.8136 1626.78 12.7395 L1626.78 10.368 Q1632.71 10.5903 1635.42 10.5903 Q1639.27 10.5903 1642.79 10.368 L1642.79 12.7395 Q1636.42 12.8136 1634.53 17.8161 L1617.59 62.4303 Q1617.3 63.3567 1617 63.6161 Q1616.71 63.8755 1615.78 63.8755 Q1615.04 63.8755 1614.63 63.579 Q1614.26 63.2826 1613.89 62.208 L1596.29 15.6298 Q1595.55 13.5918 1594.21 13.1842 Q1592.88 12.7395 1588.84 12.7395 Z" fill="#000000" fill-rule="nonzero" fill-opacity="1" /><path clip-path="url(#clip640)" d="M1645.13 58.1319 Q1640.12 53.1666 1640.12 45.9779 Q1640.12 38.7522 1645.02 33.4903 Q1649.94 28.1915 1656.98 28.1915 Q1663.88 28.1915 1668.8 33.4533 Q1673.77 38.6781 1673.77 45.9779 Q1673.77 53.1295 1668.77 58.0949 Q1663.8 63.0603 1656.91 63.0603 Q1650.17 63.0603 1645.13 58.1319 M1646.42 45.348 Q1646.42 52.7219 1648.35 56.0569 Q1651.31 61.1334 1656.98 61.1334 Q1659.8 61.1334 1662.13 59.6141 Q1664.51 58.0949 1665.8 55.5381 Q1667.47 52.2031 1667.47 45.348 Q1667.47 38.0481 1665.47 34.8243 Q1662.51 29.896 1656.91 29.896 Q1654.46 29.896 1652.06 31.1929 Q1649.68 32.4528 1648.24 34.9725 Q1646.42 38.3075 1646.42 45.348 Z" fill="#000000" fill-rule="nonzero" fill-opacity="1" /><path clip-path="url(#clip640)" d="M1678.48 62.208 L1678.48 59.8735 Q1682.51 59.8735 1683.44 59.3918 Q1684.37 58.873 1684.37 56.4274 L1684.37 16.9638 Q1684.37 14.1476 1683.37 13.4436 Q1682.4 12.7395 1678.48 12.7395 L1678.48 10.368 L1689.37 9.55279 L1689.37 56.4274 Q1689.37 58.873 1690.33 59.3918 Q1691.3 59.8735 1695.3 59.8735 L1695.3 62.208 Q1694.37 62.208 1692.45 62.1339 Q1690.52 62.0598 1689.11 62.0227 Q1687.7 61.9857 1686.89 61.9857 Q1686 61.9857 1678.48 62.208 Z" fill="#000000" fill-rule="nonzero" fill-opacity="1" /><path clip-path="url(#clip640)" d="M1698.41 31.8599 L1698.41 30.1924 Q1701.89 30.0442 1704.19 27.5986 Q1706.53 25.1159 1707.3 22.0774 Q1708.12 19.0389 1708.19 15.5187 L1710.08 15.5187 L1710.08 29.4884 L1720.94 29.4884 L1720.94 31.8599 L1710.08 31.8599 L1710.08 52.9442 Q1710.08 61.1334 1715.2 61.1334 Q1717.38 61.1334 1718.83 58.9101 Q1720.27 56.6497 1720.27 52.6478 L1720.27 48.4606 L1722.16 48.4606 L1722.16 52.796 Q1722.16 56.9091 1720.27 59.9847 Q1718.38 63.0603 1714.64 63.0603 Q1713.27 63.0603 1711.9 62.6897 Q1710.57 62.3562 1708.79 61.4669 Q1707.05 60.5405 1705.93 58.3172 Q1704.86 56.0569 1704.86 52.796 L1704.86 31.8599 L1698.41 31.8599 Z" fill="#000000" fill-rule="nonzero" fill-opacity="1" /><path clip-path="url(#clip640)" d="M1728.5 45.4962 Q1728.5 38.3446 1733.09 33.268 Q1737.69 28.1915 1744.29 28.1915 Q1750.96 28.1915 1754.4 32.5269 Q1757.88 36.8624 1757.88 43.0876 Q1757.88 44.2363 1757.59 44.4586 Q1757.29 44.681 1755.99 44.681 L1734.8 44.681 Q1734.8 52.4255 1737.1 56.0569 Q1740.28 61.1334 1745.66 61.1334 Q1746.4 61.1334 1747.29 60.9852 Q1748.18 60.837 1749.99 60.207 Q1751.81 59.54 1753.4 57.7985 Q1754.99 56.0569 1755.92 53.3148 Q1756.14 52.2402 1756.88 52.2772 Q1757.88 52.2772 1757.88 53.1666 Q1757.88 53.8336 1757.14 55.3528 Q1756.44 56.835 1755.07 58.6137 Q1753.7 60.3923 1751.03 61.7263 Q1748.4 63.0603 1745.21 63.0603 Q1738.54 63.0603 1733.5 58.0208 Q1728.5 52.9442 1728.5 45.4962 M1734.87 43.0876 L1752.88 43.0876 Q1752.88 41.4942 1752.59 39.7156 Q1752.33 37.9369 1751.51 35.4913 Q1750.73 33.0086 1748.88 31.4523 Q1747.03 29.896 1744.29 29.896 Q1743.06 29.896 1741.73 30.4148 Q1740.43 30.9335 1738.84 32.1934 Q1737.25 33.4533 1736.13 36.3065 Q1735.02 39.1598 1734.87 43.0876 Z" fill="#000000" fill-rule="nonzero" fill-opacity="1" /><path clip-path="url(#clip640)" d="M1762.18 62.208 L1762.18 59.8735 Q1766.22 59.8735 1767.15 59.3918 Q1768.11 58.873 1768.11 56.4274 L1768.11 36.0842 Q1768.11 33.268 1767.11 32.564 Q1766.15 31.8599 1762.18 31.8599 L1762.18 29.4884 L1772.74 28.6732 L1772.74 37.0106 Q1773.82 33.7497 1776.08 31.23 Q1778.38 28.6732 1782.08 28.6732 Q1784.53 28.6732 1786.08 30.0442 Q1787.68 31.4153 1787.68 33.3051 Q1787.68 34.9725 1786.64 35.8248 Q1785.64 36.64 1784.42 36.64 Q1783.05 36.64 1782.08 35.7878 Q1781.16 34.8984 1781.16 33.3792 Q1781.16 32.4528 1781.56 31.7488 Q1782.01 31.0077 1782.34 30.7483 Q1782.67 30.4889 1782.9 30.4148 Q1782.75 30.3407 1782.08 30.3407 Q1777.89 30.3407 1775.49 34.5279 Q1773.11 38.6781 1773.11 44.6069 L1773.11 56.2792 Q1773.11 58.4654 1774 59.1695 Q1774.93 59.8735 1778.89 59.8735 L1780.49 59.8735 L1780.49 62.208 Q1777.45 61.9857 1770.85 61.9857 Q1769.93 61.9857 1768.48 62.0227 Q1767.04 62.0598 1765.15 62.1339 Q1763.26 62.208 1762.18 62.208 Z" fill="#000000" fill-rule="nonzero" fill-opacity="1" /><path clip-path="url(#clip640)" d="M1791.83 62.208 L1791.83 59.8735 Q1795.87 59.8735 1796.79 59.3918 Q1797.76 58.873 1797.76 56.4274 L1797.76 36.0842 Q1797.76 33.268 1796.76 32.564 Q1795.79 31.8599 1791.83 31.8599 L1791.83 29.4884 L1802.39 28.6732 L1802.39 37.0106 Q1803.46 33.7497 1805.72 31.23 Q1808.02 28.6732 1811.73 28.6732 Q1814.17 28.6732 1815.73 30.0442 Q1817.32 31.4153 1817.32 33.3051 Q1817.32 34.9725 1816.28 35.8248 Q1815.28 36.64 1814.06 36.64 Q1812.69 36.64 1811.73 35.7878 Q1810.8 34.8984 1810.8 33.3792 Q1810.8 32.4528 1811.21 31.7488 Q1811.65 31.0077 1811.99 30.7483 Q1812.32 30.4889 1812.54 30.4148 Q1812.39 30.3407 1811.73 30.3407 Q1807.54 30.3407 1805.13 34.5279 Q1802.76 38.6781 1802.76 44.6069 L1802.76 56.2792 Q1802.76 58.4654 1803.65 59.1695 Q1804.57 59.8735 1808.54 59.8735 L1810.13 59.8735 L1810.13 62.208 Q1807.09 61.9857 1800.5 61.9857 Q1799.57 61.9857 1798.13 62.0227 Q1796.68 62.0598 1794.79 62.1339 Q1792.9 62.208 1791.83 62.208 Z" fill="#000000" fill-rule="nonzero" fill-opacity="1" /><path clip-path="url(#clip640)" d="M1822.55 54.9823 Q1822.55 48.5347 1830.14 45.1256 Q1834.7 42.9394 1844.11 42.3836 L1844.11 39.6044 Q1844.11 34.8984 1841.63 32.4157 Q1839.18 29.896 1836.07 29.896 Q1830.51 29.896 1827.84 33.3792 Q1830.1 33.4533 1830.92 34.602 Q1831.74 35.7136 1831.74 36.8624 Q1831.74 38.3816 1830.77 39.3821 Q1829.85 40.3455 1828.25 40.3455 Q1826.73 40.3455 1825.73 39.4192 Q1824.73 38.4557 1824.73 36.7882 Q1824.73 33.0827 1828.07 30.6371 Q1831.44 28.1915 1836.22 28.1915 Q1842.44 28.1915 1846.59 32.3787 Q1847.89 33.6756 1848.52 35.3431 Q1849.19 37.0106 1849.26 38.1222 Q1849.34 39.1968 1849.34 41.346 L1849.34 56.5015 Q1849.34 56.9462 1849.48 57.6873 Q1849.63 58.4284 1850.3 59.3918 Q1851 60.3182 1852.15 60.3182 Q1854.89 60.3182 1854.86 55.464 L1854.86 51.2027 L1856.78 51.2027 L1856.78 55.464 Q1856.78 59.503 1854.64 61.0963 Q1852.52 62.6527 1850.56 62.6527 Q1848.04 62.6527 1846.45 60.7999 Q1844.85 58.9472 1844.63 56.4274 Q1843.48 59.3177 1840.85 61.2075 Q1838.26 63.0603 1834.7 63.0603 Q1831.96 63.0603 1829.36 62.3562 Q1826.81 61.6892 1824.66 59.7994 Q1822.55 57.8726 1822.55 54.9823 M1828.4 54.9082 Q1828.4 57.7243 1830.4 59.54 Q1832.4 61.3557 1835.22 61.3557 Q1838.41 61.3557 1841.26 58.9101 Q1844.11 56.4274 1844.11 51.5732 L1844.11 43.9769 Q1835.7 44.2734 1832.03 47.6454 Q1828.4 50.9803 1828.4 54.9082 Z" fill="#000000" fill-rule="nonzero" fill-opacity="1" /><path clip-path="url(#clip640)" d="M1886.8 62.0598 L1886.8 46.8672 Q1886.8 46.0149 1886.84 45.7185 Q1886.87 45.4221 1887.1 45.1997 Q1887.32 44.9774 1887.76 44.9774 Q1888.61 44.9774 1888.69 45.7556 Q1888.91 53.2777 1893.39 57.4279 Q1897.8 61.541 1905.36 61.541 Q1909.92 61.541 1912.74 58.2802 Q1915.55 54.9823 1915.55 50.6839 Q1915.55 46.5708 1913.18 43.6805 Q1912.18 42.3836 1910.92 41.5683 Q1909.7 40.7161 1908.92 40.4567 Q1908.18 40.1973 1906.73 39.8268 Q1897.32 37.5664 1896.73 37.307 Q1892.25 35.7878 1889.5 31.9711 Q1886.8 28.1174 1886.8 23.4114 Q1886.8 17.3343 1891.06 13.036 Q1895.36 8.70052 1901.58 8.70052 Q1904.7 8.70052 1907.29 9.70101 Q1909.92 10.6644 1911 11.5538 Q1912.07 12.4431 1913.74 14.0364 L1916.37 9.70101 Q1916.96 8.70052 1917.52 8.70052 Q1918.11 8.70052 1918.22 9.07107 Q1918.37 9.40457 1918.37 10.5162 L1918.37 25.7829 Q1918.37 26.6352 1918.33 26.9316 Q1918.3 27.228 1918.04 27.4133 Q1917.81 27.5986 1917.37 27.5986 Q1916.63 27.5986 1916.44 26.7093 Q1914.33 10.8497 1901.66 10.8497 Q1897.32 10.8497 1894.47 13.7771 Q1891.65 16.6674 1891.65 20.7805 Q1891.65 24.1154 1893.73 26.8575 Q1895.8 29.5625 1899.32 30.4148 L1909.03 32.7492 Q1913.89 33.8979 1917.15 38.1963 Q1920.41 42.4947 1920.41 48.09 Q1920.41 54.5376 1916.18 59.2065 Q1912 63.8755 1905.44 63.8755 Q1900.73 63.8755 1897.1 62.3192 Q1893.47 60.7629 1891.51 58.5766 Q1889.99 61.0963 1888.99 62.5044 L1888.76 62.875 Q1888.17 63.8755 1887.61 63.8755 Q1887.02 63.8755 1886.91 63.5049 Q1886.8 63.1344 1886.8 62.0598 Z" fill="#000000" fill-rule="nonzero" fill-opacity="1" /><path clip-path="url(#clip640)" d="M1931.75 58.1319 Q1926.74 53.1666 1926.74 45.9779 Q1926.74 38.7522 1931.64 33.4903 Q1936.56 28.1915 1943.6 28.1915 Q1950.5 28.1915 1955.43 33.4533 Q1960.39 38.6781 1960.39 45.9779 Q1960.39 53.1295 1955.39 58.0949 Q1950.42 63.0603 1943.53 63.0603 Q1936.79 63.0603 1931.75 58.1319 M1933.04 45.348 Q1933.04 52.7219 1934.97 56.0569 Q1937.94 61.1334 1943.6 61.1334 Q1946.42 61.1334 1948.76 59.6141 Q1951.13 58.0949 1952.42 55.5381 Q1954.09 52.2031 1954.09 45.348 Q1954.09 38.0481 1952.09 34.8243 Q1949.13 29.896 1943.53 29.896 Q1941.08 29.896 1938.68 31.1929 Q1936.3 32.4528 1934.86 34.9725 Q1933.04 38.3075 1933.04 45.348 Z" fill="#000000" fill-rule="nonzero" fill-opacity="1" /><path clip-path="url(#clip640)" d="M1965.1 62.208 L1965.1 59.8735 Q1969.14 59.8735 1970.06 59.3918 Q1970.99 58.873 1970.99 56.4274 L1970.99 16.9638 Q1970.99 14.1476 1969.99 13.4436 Q1969.02 12.7395 1965.1 12.7395 L1965.1 10.368 L1975.99 9.55279 L1975.99 56.4274 Q1975.99 58.873 1976.95 59.3918 Q1977.92 59.8735 1981.92 59.8735 L1981.92 62.208 Q1980.99 62.208 1979.07 62.1339 Q1977.14 62.0598 1975.73 62.0227 Q1974.32 61.9857 1973.51 61.9857 Q1972.62 61.9857 1965.1 62.208 Z" fill="#000000" fill-rule="nonzero" fill-opacity="1" /><path clip-path="url(#clip640)" d="M1986.03 31.8599 L1986.03 29.4884 L1997.19 28.6732 L1997.19 53.8706 Q1997.19 55.6863 1997.33 56.7609 Q1997.48 57.7985 1998.08 59.0213 Q1998.71 60.2441 2000.11 60.7999 Q2001.56 61.3557 2003.86 61.3557 Q2007.97 61.3557 2010.49 57.9837 Q2013.05 54.6117 2013.05 49.6093 L2013.05 36.0842 Q2013.05 33.268 2012.05 32.564 Q2011.04 31.8599 2007.12 31.8599 L2007.12 29.4884 L2018.27 28.6732 L2018.27 55.6122 Q2018.27 58.4284 2019.23 59.1695 Q2020.23 59.8735 2024.2 59.8735 L2024.2 62.208 L2013.27 63.0603 L2013.27 56.2051 Q2010.08 63.0232 2003.49 63.0603 Q2000.15 63.0603 1997.85 62.208 Q1995.59 61.3557 1994.44 60.3182 Q1993.3 59.2436 1992.67 57.2056 Q1992.07 55.1675 1992 53.9077 Q1991.92 52.6478 1991.92 50.2022 L1991.92 38.8263 Q1991.92 33.6756 1991.18 32.7863 Q1990.44 31.8599 1986.03 31.8599 Z" fill="#000000" fill-rule="nonzero" fill-opacity="1" /><path clip-path="url(#clip640)" d="M2027.13 31.8599 L2027.13 30.1924 Q2030.61 30.0442 2032.91 27.5986 Q2035.24 25.1159 2036.02 22.0774 Q2036.84 19.0389 2036.91 15.5187 L2038.8 15.5187 L2038.8 29.4884 L2049.66 29.4884 L2049.66 31.8599 L2038.8 31.8599 L2038.8 52.9442 Q2038.8 61.1334 2043.91 61.1334 Q2046.1 61.1334 2047.54 58.9101 Q2048.99 56.6497 2048.99 52.6478 L2048.99 48.4606 L2050.88 48.4606 L2050.88 52.796 Q2050.88 56.9091 2048.99 59.9847 Q2047.1 63.0603 2043.36 63.0603 Q2041.99 63.0603 2040.61 62.6897 Q2039.28 62.3562 2037.5 61.4669 Q2035.76 60.5405 2034.65 58.3172 Q2033.57 56.0569 2033.57 52.796 L2033.57 31.8599 L2027.13 31.8599 Z" fill="#000000" fill-rule="nonzero" fill-opacity="1" /><path clip-path="url(#clip640)" d="M2057.62 62.208 L2057.62 59.8735 Q2061.66 59.8735 2062.59 59.3918 Q2063.51 58.873 2063.51 56.4274 L2063.51 36.0101 Q2063.51 33.1939 2062.55 32.5269 Q2061.62 31.8599 2057.92 31.8599 L2057.92 29.4884 L2068.52 28.6732 L2068.52 56.5015 Q2068.52 58.7619 2069.33 59.3177 Q2070.15 59.8735 2073.85 59.8735 L2073.85 62.208 Q2066.11 61.9857 2065.96 61.9857 Q2064.92 61.9857 2057.62 62.208 M2060.81 15.4445 Q2060.81 13.9253 2061.96 12.7025 Q2063.14 11.4426 2064.81 11.4426 Q2066.48 11.4426 2067.66 12.5913 Q2068.85 13.703 2068.85 15.4816 Q2068.85 17.2232 2067.66 18.3719 Q2066.48 19.4835 2064.81 19.4835 Q2063.07 19.4835 2061.92 18.2607 Q2060.81 17.0379 2060.81 15.4445 Z" fill="#000000" fill-rule="nonzero" fill-opacity="1" /><path clip-path="url(#clip640)" d="M2083.23 58.1319 Q2078.23 53.1666 2078.23 45.9779 Q2078.23 38.7522 2083.12 33.4903 Q2088.05 28.1915 2095.09 28.1915 Q2101.98 28.1915 2106.91 33.4533 Q2111.87 38.6781 2111.87 45.9779 Q2111.87 53.1295 2106.87 58.0949 Q2101.9 63.0603 2095.01 63.0603 Q2088.27 63.0603 2083.23 58.1319 M2084.52 45.348 Q2084.52 52.7219 2086.45 56.0569 Q2089.42 61.1334 2095.09 61.1334 Q2097.9 61.1334 2100.24 59.6141 Q2102.61 58.0949 2103.9 55.5381 Q2105.57 52.2031 2105.57 45.348 Q2105.57 38.0481 2103.57 34.8243 Q2100.61 29.896 2095.01 29.896 Q2092.57 29.896 2090.16 31.1929 Q2087.79 32.4528 2086.34 34.9725 Q2084.52 38.3075 2084.52 45.348 Z" fill="#000000" fill-rule="nonzero" fill-opacity="1" /><path clip-path="url(#clip640)" d="M2116.5 62.208 L2116.5 59.8735 Q2120.54 59.8735 2121.47 59.3918 Q2122.4 58.873 2122.4 56.4274 L2122.4 36.0842 Q2122.4 33.268 2121.39 32.564 Q2120.43 31.8599 2116.5 31.8599 L2116.5 29.4884 L2127.18 28.6732 L2127.18 36.64 Q2130.73 28.6732 2138.4 28.6732 Q2144.11 28.6732 2146.37 31.4894 Q2148.04 33.3792 2148.37 35.4913 Q2148.74 37.6035 2148.74 43.0876 L2148.74 57.5761 Q2148.82 59.1695 2150.04 59.54 Q2151.26 59.8735 2154.67 59.8735 L2154.67 62.208 Q2146.93 61.9857 2146.15 61.9857 Q2145.55 61.9857 2137.59 62.208 L2137.59 59.8735 Q2141.63 59.8735 2142.55 59.3918 Q2143.52 58.873 2143.52 56.4274 L2143.52 38.7522 Q2143.52 34.8984 2142.33 32.6381 Q2141.14 30.3407 2137.88 30.3407 Q2133.96 30.3407 2130.81 33.6386 Q2127.66 36.9365 2127.66 42.4947 L2127.66 56.4274 Q2127.66 58.873 2128.58 59.3918 Q2129.55 59.8735 2133.55 59.8735 L2133.55 62.208 Q2125.8 61.9857 2125.06 61.9857 Q2124.47 61.9857 2116.5 62.208 Z" fill="#000000" fill-rule="nonzero" fill-opacity="1" /><polyline clip-path="url(#clip642)" style="stroke:#d77255; stroke-linecap:round; stroke-linejoin:round; stroke-width:5.6; stroke-opacity:1; fill:none" points="182.975,1484.03 184.484,1483.51 186.951,1482.64 190.11,1481.48 193.592,1480.15 197.588,1478.54 201.928,1476.72 206.654,1474.63 211.687,1472.29 217.021,1469.68 222.613,1466.8 228.446,1463.64 234.49,1460.19 240.728,1456.46 247.145,1452.42 253.722,1448.08 260.453,1443.43 267.327,1438.45 274.336,1433.13 281.467,1427.47 288.699,1421.46 296.001,1415.13 303.332,1408.48 310.654,1401.57 317.938,1394.4 325.164,1387 332.321,1379.38 339.401,1371.55 346.403,1363.51 353.326,1355.28 360.172,1346.86 366.943,1338.23 373.642,1329.41 380.272,1320.39 386.837,1311.17 393.341,1301.75 399.786,1292.12 406.174,1282.29 412.51,1272.25 418.794,1261.99 425.029,1251.52 431.217,1240.83 437.36,1229.92 443.459,1218.79 449.516,1207.44 455.531,1195.86 461.508,1184.06 467.445,1172.03 473.346,1159.76 479.212,1147.26 485.045,1134.52 490.846,1121.54 496.618,1108.31 502.364,1094.83 508.086,1081.09 513.787,1067.08 519.473,1052.79 525.147,1038.21 530.814,1023.32 536.479,1008.11 542.149,992.552 547.827,976.642 553.513,960.369 559.204,943.747 564.881,926.828 570.514,909.703 576.07,892.484 581.526,875.263 586.865,858.108 592.081,841.066 597.172,824.164 602.139,807.422 606.986,790.849 611.718,774.451 616.34,758.226 620.858,742.176 625.279,726.295 629.609,710.581 633.853,695.028 638.016,679.633 642.105,664.39 646.124,649.296 650.077,634.348 653.97,619.541 657.805,604.875 661.589,590.344 665.323,575.95 669.011,561.692 672.657,547.567 676.264,533.577 679.835,519.723 683.373,506.004 686.882,492.424 690.363,478.985 693.819,465.689 697.254,452.541 700.671,439.543 704.071,426.703 707.458,414.025 710.836,401.514 714.206,389.179 717.574,377.028 720.941,365.067 724.313,353.309 727.694,341.764 731.088,330.444 734.501,319.362 737.94,308.534 741.412,297.977 744.929,287.706 748.502,277.746 752.15,268.113 755.897,258.83 759.772,249.934 763.773,241.57 767.752,234.14 771.641,227.804 775.442,222.556 779.15,218.398 782.769,215.311 786.303,213.276 789.757,212.268 793.136,212.266 796.445,213.247 799.692,215.191 802.881,218.08 806.018,221.898 809.11,226.633 812.16,232.273 815.175,238.808 818.159,246.233 821.115,254.539 824.047,263.721 826.959,273.766 829.852,284.669 832.728,296.414 835.591,308.989 838.439,322.37 841.275,336.54 844.099,351.473 846.913,367.145 849.72,383.538 852.521,400.627 855.32,418.4 858.121,436.843 860.929,455.962 863.751,475.754 866.595,496.254 869.471,517.497 872.394,539.555 875.385,562.559 878.461,586.605 881.614,611.594 884.74,636.627 887.799,661.305 890.793,685.563 893.72,709.33 896.588,732.597 899.4,755.344 902.163,777.587 904.881,799.323 907.561,820.57 910.206,841.336 912.822,861.641 915.413,881.49 917.983,900.906 920.536,919.898 923.076,938.479 925.606,956.66 928.128,974.449 930.647,991.862 933.164,1008.9 935.683,1025.59 938.207,1041.93 940.738,1057.92 943.28,1073.59 945.836,1088.94 948.408,1103.98 951.002,1118.73 953.619,1133.18 956.264,1147.37 958.944,1161.3 961.662,1174.98 964.428,1188.45 967.248,1201.71 970.134,1214.81 973.104,1227.79 976.18,1240.72 979.409,1253.74 982.88,1267.13 986.517,1280.49 989.949,1292.5 993.373,1303.92 996.715,1314.56 1000.02,1324.6 1003.28,1334.05 1006.51,1342.97 1009.71,1351.42 1012.89,1359.42 1016.05,1367.02 1019.2,1374.25 1022.34,1381.13 1025.48,1387.7 1028.63,1393.97 1031.78,1399.96 1034.94,1405.69 1038.12,1411.18 1041.32,1416.44 1044.54,1421.48 1047.78,1426.3 1051.06,1430.94 1054.37,1435.38 1057.72,1439.64 1061.11,1443.72 1064.54,1447.64 1068.03,1451.39 1071.57,1454.99 1075.17,1458.44 1078.85,1461.74 1082.59,1464.9 1086.43,1467.92 1090.36,1470.81 1094.4,1473.56 1098.57,1476.19 1102.9,1478.7 1107.44,1481.1 1112.25,1483.4 1117.42,1485.61 1122.59,1487.56 1127.69,1489.23 1132.76,1490.68 1137.79,1491.89 1142.79,1492.9 1147.77,1493.72 1152.74,1494.35 1157.7,1494.81 1162.66,1495.1 1167.63,1495.23 1172.62,1495.2 1177.63,1495.01 1182.66,1494.68 1187.74,1494.19 1192.85,1493.55 1198.02,1492.76 1203.24,1491.82 1208.52,1490.72 1213.86,1489.45 1219.29,1488.03 1224.79,1486.43 1230.37,1484.65 1236.05,1482.69 1241.83,1480.54 1247.71,1478.18 1253.7,1475.61 1259.8,1472.82 1266.01,1469.81 1272.33,1466.54 1278.77,1463.03 1285.32,1459.26 1291.98,1455.21 1298.75,1450.89 1305.62,1446.27 1312.6,1441.35 1319.68,1436.11 1326.87,1430.54 1334.15,1424.64 1341.5,1418.41 1348.88,1411.86 1356.26,1405.03 1363.61,1397.95 1370.9,1390.63 1378.11,1383.09 1385.25,1375.33 1392.31,1367.38 1399.28,1359.23 1406.17,1350.88 1412.98,1342.34 1419.72,1333.61 1426.39,1324.68 1432.99,1315.55 1439.53,1306.22 1446,1296.68 1452.42,1286.94 1458.78,1277 1465.09,1266.84 1471.35,1256.47 1477.56,1245.88 1483.72,1235.07 1489.84,1224.05 1495.92,1212.8 1501.95,1201.33 1507.95,1189.63 1513.9,1177.7 1519.82,1165.54 1525.71,1153.15 1531.55,1140.53 1537.37,1127.66 1543.16,1114.55 1548.91,1101.19 1554.65,1087.57 1560.36,1073.69 1566.05,1059.53 1571.73,1045.09 1577.4,1030.34 1583.06,1015.28 1588.73,999.892 1594.4,984.151 1600.09,968.05 1605.78,951.587 1611.46,934.797 1617.12,917.755 1622.72,900.568 1628.22,883.337 1633.62,866.145 1638.89,849.045 1644.04,832.074 1649.07,815.255 1653.97,798.602 1658.75,782.121 1663.43,765.816 1667.99,749.684 1672.46,733.724 1676.83,717.933 1681.11,702.305 1685.31,686.837 1689.44,671.524 1693.49,656.361 1697.47,641.345 1701.39,626.471 1705.25,611.739 1709.06,597.147 1712.82,582.689 1716.53,568.366 1720.19,554.179 1723.82,540.125 1727.41,526.206 1730.96,512.423 1734.48,498.778 1737.97,485.272 1741.44,471.908 1744.89,458.69 1748.31,445.622 1751.72,432.707 1755.11,419.951 1758.49,407.361 1761.87,394.941 1765.24,382.703 1768.6,370.65 1771.97,358.797 1775.35,347.149 1778.74,335.72 1782.14,324.525 1785.57,313.576 1789.02,302.889 1792.52,292.482 1796.06,282.373 1799.67,272.583 1803.37,263.131 1807.18,254.047 1811.13,245.399 1815.14,237.483 1819.07,230.639 1822.91,224.878 1826.66,220.212 1830.33,216.626 1833.9,214.1 1837.39,212.614 1840.8,212.143 1844.14,212.666 1847.42,214.161 1850.63,216.61 1853.8,219.994 1856.91,224.301 1859.98,229.518 1863.01,235.635 1866.01,242.644 1868.97,250.537 1871.92,259.309 1874.84,268.95 1877.74,279.453 1880.62,290.804 1883.49,302.992 1886.35,315.994 1889.19,329.797 1892.02,344.367 1894.83,359.695 1897.64,375.747 1900.45,392.507 1903.24,409.953 1906.04,428.084 1908.85,446.884 1911.66,466.357 1914.49,486.515 1917.35,507.4 1920.25,529.06 1923.21,551.597 1926.24,575.135 1929.37,599.756 1932.52,624.885 1935.61,649.727 1938.63,674.203 1941.59,698.198 1944.49,721.703 1947.32,744.694 1950.11,767.174 1952.85,789.145 1955.54,810.619 1958.2,831.609 1960.83,852.131 1963.44,872.192 1966.02,891.813 1968.58,911.002 1971.12,929.774 1973.66,948.141 1976.18,966.112 1978.7,983.7 1981.22,1000.91 1983.74,1017.76 1986.26,1034.26 1988.78,1050.42 1991.32,1066.24 1993.87,1081.74 1996.43,1096.92 1999.02,1111.8 2001.62,1126.39 2004.25,1140.71 2006.92,1154.75 2009.62,1168.55 2012.36,1182.12 2015.15,1195.47 2018,1208.64 2020.93,1221.68 2023.95,1234.62 2027.1,1247.58 2030.45,1260.74 2034.08,1274.39 2037.57,1286.91 2041.01,1298.64 2044.39,1309.62 2047.71,1319.95 2050.99,1329.66 2054.24,1338.83 2057.45,1347.49 2060.63,1355.7 2063.8,1363.49 2066.96,1370.89 2070.1,1377.93 2073.24,1384.64 2076.39,1391.05 2079.53,1397.17 2082.69,1403.02 2085.86,1408.63 2089.05,1413.99 2092.26,1419.13 2095.49,1424.06 2098.76,1428.78 2102.05,1433.31 2105.38,1437.65 2108.75,1441.82 2112.16,1445.82 2115.62,1449.65 2119.14,1453.32 2122.71,1456.84 2126.35,1460.21 2130.06,1463.43 2133.85,1466.52 2137.74,1469.47 2141.72,1472.28 2145.83,1474.97 2150.08,1477.54 2154.51,1479.98 2159.18,1482.33 2164.18,1484.58 2169.43,1486.68 2174.53,1488.47 2179.63,1490.03 2184.67,1491.35 2189.69,1492.46 2194.68,1493.36 2199.65,1494.08 2204.62,1494.62 2209.58,1494.98 2214.54,1495.19 2219.52,1495.23 2224.52,1495.12 2229.54,1494.85 2234.6,1494.44 2239.69,1493.87 2244.83,1493.15 2250.03,1492.28 2255.28,1491.25 2260.59,1490.07 2265.98,1488.72 2271.44,1487.2 2276.99,1485.51 2282.62,1483.63 2288.35,1481.57 2294.18,1479.31 2300.12,1476.84 2306.16,1474.16 2312.32,1471.25 2318.6,1468.1 2324.98,1464.71 2331.48,1461.06 2338.09,1457.14 2344.81,1452.95 2351.63,1448.47 2358.56,1443.7 2365.59,1438.61 2372.73,1433.19 2379.97,1427.45 2387.29,1421.37 2394.66,1414.97 2402.05,1408.27 2409.42,1401.3 2416.73,1394.08 2423.98,1386.64 2431.16,1378.99 2438.25,1371.13 2445.26,1363.07 2452.19,1354.82 2459.05,1346.37 2465.82,1337.72 2472.52,1328.88 2479.15,1319.85 2485.72,1310.61 2492.22,1301.17 2498.66,1291.53 2505.05,1281.68 2511.38,1271.62 2517.66,1261.35 2523.9,1250.86 2530.08,1240.16 2536.22,1229.23 2542.32,1218.09 2548.38,1206.72 2554.39,1195.13 2560.36,1183.31 2566.3,1171.26 2572.2,1158.98 2578.06,1146.47 2583.89,1133.71 2589.69,1120.72 2595.46,1107.47 2601.21,1093.98 2606.93,1080.22 2612.63,1066.19 2618.31,1051.88 2623.99,1037.28 2629.65,1022.37 2635.32,1007.14 2640.99,991.565 2646.67,975.634 2652.35,959.338 2658.04,942.698 2663.72,925.763 2669.35,908.631 2674.9,891.41 2680.35,874.192 2685.68,857.043 2690.89,840.008 2695.97,823.116 2700.93,806.384 2705.77,789.823 2710.49,773.434 2715.11,757.221 2719.62,741.18 2724.04,725.31 2728.36,709.606 2732.6,694.064 2736.76,678.679 2740.84,663.445 2744.85,648.362 2748.8,633.422 2752.69,618.625 2756.53,603.967 2760.31,589.446 2764.04,575.06 2767.72,560.809 2771.37,546.694 2774.97,532.712 2778.54,518.867 2782.08,505.156 2785.58,491.585 2789.06,478.155 2792.52,464.868 2795.95,451.729 2799.37,438.74 2802.76,425.91 2806.15,413.241 2809.53,400.742 2812.9,388.418 2816.27,376.277 2819.63,364.328 2823.01,352.583 2826.39,341.049 2829.78,329.745 2833.2,318.678 2836.64,307.865 2840.11,297.326 2843.63,287.077 2847.21,277.135 2850.86,267.522 2854.62,258.261 2858.5,249.392 2862.51,241.073 2866.48,233.713 2870.37,227.442 2874.16,222.264 2877.86,218.173 2881.48,215.153 2885.01,213.182 2888.45,212.239 2891.83,212.299 2895.13,213.341 2898.38,215.345 2901.56,218.292 2904.7,222.169 2907.79,226.96 2910.83,232.656 2913.85,239.248 2916.83,246.727 2919.78,255.089 2922.71,264.324 2925.62,274.424 2928.52,285.381 2931.39,297.177 2934.25,309.801 2937.1,323.231 2939.93,337.449 2942.76,352.43 2945.57,368.148 2948.38,384.583 2951.18,401.712 2953.98,419.528 2956.78,438.01 2959.59,457.172 2962.41,477.01 2965.26,497.553 2968.14,518.849 2971.06,540.966 2974.06,564.02 2977.14,588.145 2980.29,613.161 2983.42,638.178 2986.47,662.834 2989.46,687.057 2992.38,710.795 2995.25,734.027 2998.06,756.745 3000.82,778.952 3003.53,800.656 3006.21,821.873 3008.85,842.608 3011.47,862.884 3014.06,882.708 3016.63,902.097 3019.18,921.065 3021.72,939.619 3024.25,957.775 3026.77,975.542 3029.29,992.928 3031.8,1009.95 3034.32,1026.61 3036.85,1042.93 3039.38,1058.9 3041.92,1074.55 3044.48,1089.88 3047.05,1104.9 3049.65,1119.63 3052.26,1134.07 3054.91,1148.24 3057.59,1162.15 3060.32,1175.82 3063.08,1189.27 3065.91,1202.52 3068.8,1215.61 3071.77,1228.59 3074.86,1241.53 3078.1,1254.56 3081.59,1267.99 3085.21,1281.25 3088.65,1293.23 3092.06,1304.6 3095.4,1315.2 3098.71,1325.2 3101.97,1334.61 3105.19,1343.51 3108.39,1351.92 3111.56,1359.9 3114.72,1367.47 3117.87,1374.68 3121.02,1381.54 3124.16,1388.09 3127.3,1394.34 3130.46,1400.32 3133.62,1406.04 3136.8,1411.51 3140,1416.75 3143.22,1421.78 3146.47,1426.59 3149.75,1431.21 3153.06,1435.64 3156.41,1439.89 3159.8,1443.97 3163.24,1447.87 3166.73,1451.62 3170.27,1455.21 3173.88,1458.65 3177.56,1461.94 3181.31,1465.09 3185.15,1468.1 3189.09,1470.98 3193.14,1473.73 3197.32,1476.35 3201.66,1478.85 3206.21,1481.24 3211.04,1483.54 3216.22,1485.74 3221.38,1487.67 3226.49,1489.33 3231.55,1490.76 3236.58,1491.96 3241.58,1492.96 3246.56,1493.76 3251.53,1494.39 3256.49,1494.83 3261.45,1495.11 3266.42,1495.23 3271.41,1495.19 3276.42,1495 3281.46,1494.65 3286.54,1494.16 3291.66,1493.51 3296.82,1492.71 3302.05,1491.75 3307.33,1490.64 3312.68,1489.37 3318.11,1487.93 3323.61,1486.32 3329.21,1484.54 3334.89,1482.56 3340.67,1480.4 3345.76,1478.36 "/>
<polyline clip-path="url(#clip642)" style="stroke:#009afa; stroke-linecap:round; stroke-linejoin:round; stroke-width:5.6; stroke-opacity:1; fill:none" points="182.975,1484.03 184.484,1486.08 186.951,1489.37 190.11,1493.51 193.592,1497.96 197.588,1502.93 201.928,1508.17 206.654,1513.7 211.687,1519.38 217.021,1525.17 222.613,1531.01 228.446,1536.84 234.49,1542.63 240.728,1548.34 247.145,1553.95 253.722,1559.42 260.453,1564.74 267.327,1569.91 274.336,1574.91 281.467,1579.73 288.699,1584.35 296.001,1588.77 303.332,1592.96 310.654,1596.91 317.938,1600.62 325.164,1604.09 332.321,1607.34 339.401,1610.38 346.403,1613.21 353.326,1615.85 360.172,1618.31 366.943,1620.61 373.642,1622.76 380.272,1624.76 386.837,1626.62 393.341,1628.36 399.786,1629.98 406.174,1631.49 412.51,1632.89 418.794,1634.19 425.029,1635.39 431.217,1636.51 437.36,1637.53 443.459,1638.47 449.516,1639.33 455.531,1640.12 461.508,1640.82 467.445,1641.46 473.346,1642.02 479.212,1642.51 485.045,1642.94 490.846,1643.3 496.618,1643.59 502.364,1643.82 508.086,1643.98 513.787,1644.08 519.473,1644.11 525.147,1644.07 530.814,1643.97 536.479,1643.8 542.149,1643.55 547.827,1643.23 553.513,1642.83 559.204,1642.35 564.881,1641.79 570.514,1641.14 576.07,1640.41 581.526,1639.61 586.865,1638.73 592.081,1637.77 597.172,1636.75 602.139,1635.65 606.986,1634.49 611.718,1633.26 616.34,1631.96 620.858,1630.59 625.279,1629.15 629.609,1627.64 633.853,1626.05 638.016,1624.39 642.105,1622.66 646.124,1620.84 650.077,1618.94 653.97,1616.96 657.805,1614.88 661.589,1612.72 665.323,1610.45 669.011,1608.09 672.657,1605.62 676.264,1603.04 679.835,1600.34 683.373,1597.52 686.882,1594.57 690.363,1591.48 693.819,1588.25 697.254,1584.87 700.671,1581.33 704.071,1577.62 707.458,1573.73 710.836,1569.64 714.206,1565.34 717.574,1560.83 720.941,1556.07 724.313,1551.06 727.694,1545.78 731.088,1540.19 734.501,1534.27 737.94,1527.99 741.412,1521.31 744.929,1514.17 748.502,1506.53 752.15,1498.3 755.897,1489.37 759.772,1479.61 763.773,1468.93 767.752,1457.69 771.641,1446.07 775.442,1434.09 779.15,1421.78 782.769,1409.17 786.303,1396.25 789.757,1383.05 793.136,1369.58 796.445,1355.83 799.692,1341.81 802.881,1327.53 806.018,1312.98 809.11,1298.16 812.16,1283.08 815.175,1267.74 818.159,1252.13 821.115,1236.28 824.047,1220.17 826.959,1203.83 829.852,1187.26 832.728,1170.5 835.591,1153.55 838.439,1136.46 841.275,1119.23 844.099,1101.92 846.913,1084.54 849.72,1067.12 852.521,1049.7 855.32,1032.28 858.121,1014.9 860.929,997.556 863.751,980.273 866.595,963.038 869.471,945.852 872.394,928.693 875.385,911.51 878.461,894.295 881.614,877.19 884.74,860.838 887.799,845.476 890.793,831.105 893.72,817.726 896.588,805.306 899.4,793.819 902.163,783.226 904.881,773.495 907.561,764.593 910.206,756.49 912.822,749.157 915.413,742.57 917.983,736.703 920.536,731.536 923.076,727.05 925.606,723.228 928.128,720.055 930.647,717.515 933.164,715.597 935.683,714.287 938.207,713.577 940.738,713.457 943.28,713.919 945.836,714.955 948.408,716.562 951.002,718.735 953.619,721.472 956.264,724.774 958.944,728.643 961.662,733.085 964.428,738.113 967.248,743.742 970.134,750 973.104,756.931 976.18,764.606 979.409,773.164 982.88,782.894 986.517,793.625 989.949,804.21 993.373,815.165 996.715,826.204 1000.02,837.422 1003.28,848.739 1006.51,860.163 1009.71,871.669 1012.89,883.254 1016.05,894.908 1019.2,906.628 1022.34,918.408 1025.48,930.247 1028.63,942.142 1031.78,954.092 1034.94,966.094 1038.12,978.147 1041.32,990.251 1044.54,1002.41 1047.78,1014.61 1051.06,1026.86 1054.37,1039.16 1057.72,1051.51 1061.11,1063.91 1064.54,1076.37 1068.03,1088.87 1071.57,1101.44 1075.17,1114.07 1078.85,1126.76 1082.59,1139.54 1086.43,1152.41 1090.36,1165.39 1094.4,1178.5 1098.57,1191.78 1102.9,1205.29 1107.44,1219.12 1112.25,1233.45 1117.42,1248.46 1122.59,1263.05 1127.69,1277.04 1132.76,1290.55 1137.79,1303.56 1142.79,1316.13 1147.77,1328.26 1152.74,1340.01 1157.7,1351.37 1162.66,1362.39 1167.63,1373.09 1172.62,1383.47 1177.63,1393.57 1182.66,1403.4 1187.74,1412.97 1192.85,1422.29 1198.02,1431.38 1203.24,1440.25 1208.52,1448.9 1213.86,1457.34 1219.29,1465.59 1224.79,1473.64 1230.37,1481.51 1236.05,1489.19 1241.83,1496.69 1247.71,1504.01 1253.7,1511.15 1259.8,1518.12 1266.01,1524.9 1272.33,1531.49 1278.77,1537.9 1285.32,1544.11 1291.98,1550.13 1298.75,1555.94 1305.62,1561.55 1312.6,1566.96 1319.68,1572.17 1326.87,1577.17 1334.15,1581.96 1341.5,1586.54 1348.88,1590.88 1356.26,1594.98 1363.61,1598.83 1370.9,1602.43 1378.11,1605.8 1385.25,1608.94 1392.31,1611.88 1399.28,1614.61 1406.17,1617.16 1412.98,1619.54 1419.72,1621.76 1426.39,1623.83 1432.99,1625.76 1439.53,1627.56 1446,1629.23 1452.42,1630.79 1458.78,1632.24 1465.09,1633.59 1471.35,1634.84 1477.56,1636 1483.72,1637.06 1489.84,1638.04 1495.92,1638.94 1501.95,1639.76 1507.95,1640.5 1513.9,1641.17 1519.82,1641.77 1525.71,1642.29 1531.55,1642.75 1537.37,1643.14 1543.16,1643.46 1548.91,1643.72 1554.65,1643.91 1560.36,1644.04 1566.05,1644.1 1571.73,1644.1 1577.4,1644.03 1583.06,1643.89 1588.73,1643.68 1594.4,1643.39 1600.09,1643.03 1605.78,1642.59 1611.46,1642.06 1617.12,1641.45 1622.72,1640.76 1628.22,1640 1633.62,1639.15 1638.89,1638.23 1644.04,1637.24 1649.07,1636.18 1653.97,1635.04 1658.75,1633.84 1663.43,1632.58 1667.99,1631.24 1672.46,1629.83 1676.83,1628.35 1681.11,1626.8 1685.31,1625.18 1689.44,1623.48 1693.49,1621.7 1697.47,1619.84 1701.39,1617.9 1705.25,1615.87 1709.06,1613.74 1712.82,1611.53 1716.53,1609.21 1720.19,1606.79 1723.82,1604.26 1727.41,1601.62 1730.96,1598.86 1734.48,1595.97 1737.97,1592.95 1741.44,1589.79 1744.89,1586.48 1748.31,1583.01 1751.72,1579.38 1755.11,1575.58 1758.49,1571.58 1761.87,1567.38 1765.24,1562.97 1768.6,1558.33 1771.97,1553.45 1775.35,1548.29 1778.74,1542.85 1782.14,1537.09 1785.57,1530.98 1789.02,1524.49 1792.52,1517.58 1796.06,1510.18 1799.67,1502.24 1803.37,1493.65 1807.18,1484.29 1811.13,1474.03 1815.14,1463 1819.07,1451.56 1822.91,1439.74 1826.66,1427.59 1830.33,1415.12 1833.9,1402.34 1837.39,1389.27 1840.8,1375.93 1844.14,1362.31 1847.42,1348.42 1850.63,1334.26 1853.8,1319.83 1856.91,1305.14 1859.98,1290.18 1863.01,1274.96 1866.01,1259.48 1868.97,1243.74 1871.92,1227.75 1874.84,1211.51 1877.74,1195.05 1880.62,1178.38 1883.49,1161.52 1886.35,1144.49 1889.19,1127.32 1892.02,1110.06 1894.83,1092.71 1897.64,1075.31 1900.45,1057.89 1903.24,1040.47 1906.04,1023.07 1908.85,1005.71 1911.66,988.397 1914.49,971.143 1917.35,953.938 1920.25,936.772 1923.21,919.61 1926.24,902.413 1929.37,885.194 1932.52,868.411 1935.61,852.59 1938.63,837.745 1941.59,823.906 1944.49,811.037 1947.32,799.116 1950.11,788.106 1952.85,777.974 1955.54,768.686 1958.2,760.211 1960.83,752.518 1963.44,745.582 1966.02,739.378 1968.58,733.884 1971.12,729.08 1973.66,724.948 1976.18,721.471 1978.7,718.634 1981.22,716.424 1983.74,714.83 1986.26,713.838 1988.78,713.441 1991.32,713.629 1993.87,714.395 1996.43,715.733 1999.02,717.639 2001.62,720.11 2004.25,723.145 2006.92,726.745 2009.62,730.916 2012.36,735.665 2015.15,741.007 2018,746.963 2020.93,753.572 2023.95,760.884 2027.1,769.005 2030.45,778.13 2034.08,788.6 2037.57,799.171 2041.01,809.99 2044.39,820.976 2047.71,832.123 2050.99,843.391 2054.24,854.769 2057.45,866.237 2060.63,877.786 2063.8,889.409 2066.96,901.098 2070.1,912.85 2073.24,924.662 2076.39,936.531 2079.53,948.456 2082.69,960.433 2085.86,972.465 2089.05,984.545 2092.26,996.678 2095.49,1008.86 2098.76,1021.09 2102.05,1033.37 2105.38,1045.69 2108.75,1058.07 2112.16,1070.5 2115.62,1082.98 2119.14,1095.52 2122.71,1108.11 2126.35,1120.78 2130.06,1133.51 2133.85,1146.34 2137.74,1159.26 2141.72,1172.31 2145.83,1185.5 2150.08,1198.89 2154.51,1212.56 2159.18,1226.62 2164.18,1241.32 2169.43,1256.33 2174.53,1270.5 2179.63,1284.28 2184.67,1297.5 2189.69,1310.29 2194.68,1322.62 2199.65,1334.54 2204.62,1346.08 2209.58,1357.26 2214.54,1368.11 2219.52,1378.64 2224.52,1388.87 2229.54,1398.82 2234.6,1408.51 2239.69,1417.95 2244.83,1427.15 2250.03,1436.12 2255.28,1444.87 2260.59,1453.41 2265.98,1461.75 2271.44,1469.89 2276.99,1477.84 2282.62,1485.61 2288.35,1493.19 2294.18,1500.6 2300.12,1507.83 2306.16,1514.87 2312.32,1521.74 2318.6,1528.43 2324.98,1534.92 2331.48,1541.23 2338.09,1547.34 2344.81,1553.24 2351.63,1558.95 2358.56,1564.45 2365.59,1569.75 2372.73,1574.85 2379.97,1579.74 2387.29,1584.42 2394.66,1588.88 2402.05,1593.09 2409.42,1597.06 2416.73,1600.77 2423.98,1604.25 2431.16,1607.5 2438.25,1610.53 2445.26,1613.35 2452.19,1615.99 2459.05,1618.45 2465.82,1620.74 2472.52,1622.88 2479.15,1624.87 2485.72,1626.73 2492.22,1628.46 2498.66,1630.08 2505.05,1631.58 2511.38,1632.97 2517.66,1634.27 2523.9,1635.47 2530.08,1636.57 2536.22,1637.59 2542.32,1638.53 2548.38,1639.39 2554.39,1640.16 2560.36,1640.87 2566.3,1641.5 2572.2,1642.05 2578.06,1642.54 2583.89,1642.96 2589.69,1643.32 2595.46,1643.61 2601.21,1643.83 2606.93,1643.99 2612.63,1644.08 2618.31,1644.11 2623.99,1644.07 2629.65,1643.96 2635.32,1643.78 2640.99,1643.53 2646.67,1643.21 2652.35,1642.8 2658.04,1642.32 2663.72,1641.75 2669.35,1641.1 2674.9,1640.37 2680.35,1639.55 2685.68,1638.67 2690.89,1637.71 2695.97,1636.68 2700.93,1635.58 2705.77,1634.42 2710.49,1633.18 2715.11,1631.87 2719.62,1630.5 2724.04,1629.06 2728.36,1627.54 2732.6,1625.95 2736.76,1624.29 2740.84,1622.55 2744.85,1620.72 2748.8,1618.82 2752.69,1616.83 2756.53,1614.75 2760.31,1612.58 2764.04,1610.31 2767.72,1607.94 2771.37,1605.46 2774.97,1602.87 2778.54,1600.17 2782.08,1597.34 2785.58,1594.38 2789.06,1591.29 2792.52,1588.05 2795.95,1584.66 2799.37,1581.11 2802.76,1577.38 2806.15,1573.48 2809.53,1569.38 2812.9,1565.07 2816.27,1560.54 2819.63,1555.77 2823.01,1550.74 2826.39,1545.44 2829.78,1539.83 2833.2,1533.89 2836.64,1527.58 2840.11,1520.87 2843.63,1513.71 2847.21,1506.04 2850.86,1497.77 2854.62,1488.79 2858.5,1478.96 2862.51,1468.24 2866.48,1456.97 2870.37,1445.33 2874.16,1433.33 2877.86,1421 2881.48,1408.36 2885.01,1395.43 2888.45,1382.22 2891.83,1368.72 2895.13,1354.96 2898.38,1340.93 2901.56,1326.62 2904.7,1312.06 2907.79,1297.22 2910.83,1282.13 2913.85,1266.77 2916.83,1251.15 2919.78,1235.27 2922.71,1219.15 2925.62,1202.8 2928.52,1186.22 2931.39,1169.44 2934.25,1152.49 2937.1,1135.39 2939.93,1118.16 2942.76,1100.84 2945.57,1083.45 2948.38,1066.04 2951.18,1048.61 2953.98,1031.2 2956.78,1013.82 2959.59,996.481 2962.41,979.197 2965.26,961.968 2968.14,944.781 2971.06,927.619 2974.06,910.443 2977.14,893.218 2980.29,876.143 2983.42,859.851 2986.47,844.549 2989.46,830.243 2992.38,816.924 2995.25,804.565 2998.06,793.133 3000.82,782.596 3003.53,772.919 3006.21,764.067 3008.85,756.013 3011.47,748.727 3014.06,742.185 3016.63,736.362 3019.18,731.237 3021.72,726.794 3024.25,723.013 3026.77,719.879 3029.29,717.378 3031.8,715.498 3034.32,714.226 3036.85,713.553 3039.38,713.469 3041.92,713.966 3044.48,715.038 3047.05,716.68 3049.65,718.888 3052.26,721.659 3054.91,724.996 3057.59,728.901 3060.32,733.379 3063.08,738.442 3065.91,744.109 3068.8,750.407 3071.77,757.382 3074.86,765.112 3078.1,773.73 3081.59,783.554 3085.21,794.274 3088.65,804.88 3092.06,815.84 3095.4,826.89 3098.71,838.115 3101.97,849.439 3105.19,860.868 3108.39,872.379 3111.56,883.968 3114.72,895.627 3117.87,907.35 3121.02,919.134 3124.16,930.977 3127.3,942.875 3130.46,954.828 3133.62,966.834 3136.8,978.89 3140,990.998 3143.22,1003.15 3146.47,1015.36 3149.75,1027.62 3153.06,1039.92 3156.41,1052.27 3159.8,1064.68 3163.24,1077.13 3166.73,1089.64 3170.27,1102.21 3173.88,1114.84 3177.56,1127.55 3181.31,1140.33 3185.15,1153.2 3189.09,1166.19 3193.14,1179.31 3197.32,1192.6 3201.66,1206.13 3206.21,1219.98 3211.04,1234.35 3216.22,1249.39 3221.38,1263.92 3226.49,1277.89 3231.55,1291.36 3236.58,1304.35 3241.58,1316.89 3246.56,1329 3251.53,1340.71 3256.49,1352.06 3261.45,1363.06 3266.42,1373.73 3271.41,1384.1 3276.42,1394.18 3281.46,1404 3286.54,1413.55 3291.66,1422.86 3296.82,1431.93 3302.05,1440.79 3307.33,1449.43 3312.68,1457.86 3318.11,1466.09 3323.61,1474.13 3329.21,1481.99 3334.89,1489.66 3340.67,1497.15 3345.76,1503.49 "/>
</svg>
