<?xml version="1.0" encoding="utf-8"?>
<svg xmlns="http://www.w3.org/2000/svg" xmlns:xlink="http://www.w3.org/1999/xlink" width="576" height="384" viewBox="0 0 2304 1536">
<defs>
  <clipPath id="clip140">
    <rect x="0" y="0" width="2304" height="1536"/>
  </clipPath>
</defs>
<path clip-path="url(#clip140)" d="M0 1536 L2304 1536 L2304 0 L0 0  Z" fill="#ffffff" fill-rule="evenodd" fill-opacity="1"/>
<defs>
  <clipPath id="clip141">
    <rect x="460" y="0" width="1614" height="1536"/>
  </clipPath>
</defs>
<path clip-path="url(#clip140)" d="M108.463 1292.51 L2256.76 1292.51 L2256.76 114.832 L108.463 114.832  Z" fill="#ffffff" fill-rule="evenodd" fill-opacity="1"/>
<defs>
  <clipPath id="clip142">
    <rect x="108" y="114" width="2149" height="1179"/>
  </clipPath>
</defs>
<polyline clip-path="url(#clip142)" style="stroke:#000000; stroke-linecap:round; stroke-linejoin:round; stroke-width:2.8; stroke-opacity:0.4; fill:none" points="108.463,1292.51 108.463,114.832 "/>
<polyline clip-path="url(#clip142)" style="stroke:#000000; stroke-linecap:round; stroke-linejoin:round; stroke-width:2.8; stroke-opacity:0.4; fill:none" points="538.121,1292.51 538.121,114.832 "/>
<polyline clip-path="url(#clip142)" style="stroke:#000000; stroke-linecap:round; stroke-linejoin:round; stroke-width:2.8; stroke-opacity:0.4; fill:none" points="967.78,1292.51 967.78,114.832 "/>
<polyline clip-path="url(#clip142)" style="stroke:#000000; stroke-linecap:round; stroke-linejoin:round; stroke-width:2.8; stroke-opacity:0.4; fill:none" points="1397.44,1292.51 1397.44,114.832 "/>
<polyline clip-path="url(#clip142)" style="stroke:#000000; stroke-linecap:round; stroke-linejoin:round; stroke-width:2.8; stroke-opacity:0.4; fill:none" points="1827.1,1292.51 1827.1,114.832 "/>
<polyline clip-path="url(#clip142)" style="stroke:#000000; stroke-linecap:round; stroke-linejoin:round; stroke-width:2.8; stroke-opacity:0.4; fill:none" points="2256.76,1292.51 2256.76,114.832 "/>
<polyline clip-path="url(#clip142)" style="stroke:#000000; stroke-linecap:round; stroke-linejoin:round; stroke-width:2; stroke-opacity:0.06; fill:none" points="194.395,1292.51 194.395,114.832 "/>
<polyline clip-path="url(#clip142)" style="stroke:#000000; stroke-linecap:round; stroke-linejoin:round; stroke-width:2; stroke-opacity:0.06; fill:none" points="280.326,1292.51 280.326,114.832 "/>
<polyline clip-path="url(#clip142)" style="stroke:#000000; stroke-linecap:round; stroke-linejoin:round; stroke-width:2; stroke-opacity:0.06; fill:none" points="366.258,1292.51 366.258,114.832 "/>
<polyline clip-path="url(#clip142)" style="stroke:#000000; stroke-linecap:round; stroke-linejoin:round; stroke-width:2; stroke-opacity:0.06; fill:none" points="452.19,1292.51 452.19,114.832 "/>
<polyline clip-path="url(#clip142)" style="stroke:#000000; stroke-linecap:round; stroke-linejoin:round; stroke-width:2; stroke-opacity:0.06; fill:none" points="624.053,1292.51 624.053,114.832 "/>
<polyline clip-path="url(#clip142)" style="stroke:#000000; stroke-linecap:round; stroke-linejoin:round; stroke-width:2; stroke-opacity:0.06; fill:none" points="709.985,1292.51 709.985,114.832 "/>
<polyline clip-path="url(#clip142)" style="stroke:#000000; stroke-linecap:round; stroke-linejoin:round; stroke-width:2; stroke-opacity:0.06; fill:none" points="795.917,1292.51 795.917,114.832 "/>
<polyline clip-path="url(#clip142)" style="stroke:#000000; stroke-linecap:round; stroke-linejoin:round; stroke-width:2; stroke-opacity:0.06; fill:none" points="881.848,1292.51 881.848,114.832 "/>
<polyline clip-path="url(#clip142)" style="stroke:#000000; stroke-linecap:round; stroke-linejoin:round; stroke-width:2; stroke-opacity:0.06; fill:none" points="1053.71,1292.51 1053.71,114.832 "/>
<polyline clip-path="url(#clip142)" style="stroke:#000000; stroke-linecap:round; stroke-linejoin:round; stroke-width:2; stroke-opacity:0.06; fill:none" points="1139.64,1292.51 1139.64,114.832 "/>
<polyline clip-path="url(#clip142)" style="stroke:#000000; stroke-linecap:round; stroke-linejoin:round; stroke-width:2; stroke-opacity:0.06; fill:none" points="1225.58,1292.51 1225.58,114.832 "/>
<polyline clip-path="url(#clip142)" style="stroke:#000000; stroke-linecap:round; stroke-linejoin:round; stroke-width:2; stroke-opacity:0.06; fill:none" points="1311.51,1292.51 1311.51,114.832 "/>
<polyline clip-path="url(#clip142)" style="stroke:#000000; stroke-linecap:round; stroke-linejoin:round; stroke-width:2; stroke-opacity:0.06; fill:none" points="1483.37,1292.51 1483.37,114.832 "/>
<polyline clip-path="url(#clip142)" style="stroke:#000000; stroke-linecap:round; stroke-linejoin:round; stroke-width:2; stroke-opacity:0.06; fill:none" points="1569.3,1292.51 1569.3,114.832 "/>
<polyline clip-path="url(#clip142)" style="stroke:#000000; stroke-linecap:round; stroke-linejoin:round; stroke-width:2; stroke-opacity:0.06; fill:none" points="1655.23,1292.51 1655.23,114.832 "/>
<polyline clip-path="url(#clip142)" style="stroke:#000000; stroke-linecap:round; stroke-linejoin:round; stroke-width:2; stroke-opacity:0.06; fill:none" points="1741.17,1292.51 1741.17,114.832 "/>
<polyline clip-path="url(#clip142)" style="stroke:#000000; stroke-linecap:round; stroke-linejoin:round; stroke-width:2; stroke-opacity:0.06; fill:none" points="1913.03,1292.51 1913.03,114.832 "/>
<polyline clip-path="url(#clip142)" style="stroke:#000000; stroke-linecap:round; stroke-linejoin:round; stroke-width:2; stroke-opacity:0.06; fill:none" points="1998.96,1292.51 1998.96,114.832 "/>
<polyline clip-path="url(#clip142)" style="stroke:#000000; stroke-linecap:round; stroke-linejoin:round; stroke-width:2; stroke-opacity:0.06; fill:none" points="2084.89,1292.51 2084.89,114.832 "/>
<polyline clip-path="url(#clip142)" style="stroke:#000000; stroke-linecap:round; stroke-linejoin:round; stroke-width:2; stroke-opacity:0.06; fill:none" points="2170.82,1292.51 2170.82,114.832 "/>
<polyline clip-path="url(#clip140)" style="stroke:#000000; stroke-linecap:round; stroke-linejoin:round; stroke-width:4; stroke-opacity:1; fill:none" points="108.463,1292.51 2256.76,1292.51 "/>
<polyline clip-path="url(#clip140)" style="stroke:#000000; stroke-linecap:round; stroke-linejoin:round; stroke-width:4; stroke-opacity:1; fill:none" points="108.463,114.832 2256.76,114.832 "/>
<polyline clip-path="url(#clip140)" style="stroke:#000000; stroke-linecap:round; stroke-linejoin:round; stroke-width:4; stroke-opacity:1; fill:none" points="108.463,1292.51 108.463,1273.61 "/>
<polyline clip-path="url(#clip140)" style="stroke:#000000; stroke-linecap:round; stroke-linejoin:round; stroke-width:4; stroke-opacity:1; fill:none" points="538.121,1292.51 538.121,1273.61 "/>
<polyline clip-path="url(#clip140)" style="stroke:#000000; stroke-linecap:round; stroke-linejoin:round; stroke-width:4; stroke-opacity:1; fill:none" points="967.78,1292.51 967.78,1273.61 "/>
<polyline clip-path="url(#clip140)" style="stroke:#000000; stroke-linecap:round; stroke-linejoin:round; stroke-width:4; stroke-opacity:1; fill:none" points="1397.44,1292.51 1397.44,1273.61 "/>
<polyline clip-path="url(#clip140)" style="stroke:#000000; stroke-linecap:round; stroke-linejoin:round; stroke-width:4; stroke-opacity:1; fill:none" points="1827.1,1292.51 1827.1,1273.61 "/>
<polyline clip-path="url(#clip140)" style="stroke:#000000; stroke-linecap:round; stroke-linejoin:round; stroke-width:4; stroke-opacity:1; fill:none" points="2256.76,1292.51 2256.76,1273.61 "/>
<polyline clip-path="url(#clip140)" style="stroke:#000000; stroke-linecap:round; stroke-linejoin:round; stroke-width:4; stroke-opacity:1; fill:none" points="194.395,1292.51 194.395,1283.06 "/>
<polyline clip-path="url(#clip140)" style="stroke:#000000; stroke-linecap:round; stroke-linejoin:round; stroke-width:4; stroke-opacity:1; fill:none" points="280.326,1292.51 280.326,1283.06 "/>
<polyline clip-path="url(#clip140)" style="stroke:#000000; stroke-linecap:round; stroke-linejoin:round; stroke-width:4; stroke-opacity:1; fill:none" points="366.258,1292.51 366.258,1283.06 "/>
<polyline clip-path="url(#clip140)" style="stroke:#000000; stroke-linecap:round; stroke-linejoin:round; stroke-width:4; stroke-opacity:1; fill:none" points="452.19,1292.51 452.19,1283.06 "/>
<polyline clip-path="url(#clip140)" style="stroke:#000000; stroke-linecap:round; stroke-linejoin:round; stroke-width:4; stroke-opacity:1; fill:none" points="624.053,1292.51 624.053,1283.06 "/>
<polyline clip-path="url(#clip140)" style="stroke:#000000; stroke-linecap:round; stroke-linejoin:round; stroke-width:4; stroke-opacity:1; fill:none" points="709.985,1292.51 709.985,1283.06 "/>
<polyline clip-path="url(#clip140)" style="stroke:#000000; stroke-linecap:round; stroke-linejoin:round; stroke-width:4; stroke-opacity:1; fill:none" points="795.917,1292.51 795.917,1283.06 "/>
<polyline clip-path="url(#clip140)" style="stroke:#000000; stroke-linecap:round; stroke-linejoin:round; stroke-width:4; stroke-opacity:1; fill:none" points="881.848,1292.51 881.848,1283.06 "/>
<polyline clip-path="url(#clip140)" style="stroke:#000000; stroke-linecap:round; stroke-linejoin:round; stroke-width:4; stroke-opacity:1; fill:none" points="1053.71,1292.51 1053.71,1283.06 "/>
<polyline clip-path="url(#clip140)" style="stroke:#000000; stroke-linecap:round; stroke-linejoin:round; stroke-width:4; stroke-opacity:1; fill:none" points="1139.64,1292.51 1139.64,1283.06 "/>
<polyline clip-path="url(#clip140)" style="stroke:#000000; stroke-linecap:round; stroke-linejoin:round; stroke-width:4; stroke-opacity:1; fill:none" points="1225.58,1292.51 1225.58,1283.06 "/>
<polyline clip-path="url(#clip140)" style="stroke:#000000; stroke-linecap:round; stroke-linejoin:round; stroke-width:4; stroke-opacity:1; fill:none" points="1311.51,1292.51 1311.51,1283.06 "/>
<polyline clip-path="url(#clip140)" style="stroke:#000000; stroke-linecap:round; stroke-linejoin:round; stroke-width:4; stroke-opacity:1; fill:none" points="1483.37,1292.51 1483.37,1283.06 "/>
<polyline clip-path="url(#clip140)" style="stroke:#000000; stroke-linecap:round; stroke-linejoin:round; stroke-width:4; stroke-opacity:1; fill:none" points="1569.3,1292.51 1569.3,1283.06 "/>
<polyline clip-path="url(#clip140)" style="stroke:#000000; stroke-linecap:round; stroke-linejoin:round; stroke-width:4; stroke-opacity:1; fill:none" points="1655.23,1292.51 1655.23,1283.06 "/>
<polyline clip-path="url(#clip140)" style="stroke:#000000; stroke-linecap:round; stroke-linejoin:round; stroke-width:4; stroke-opacity:1; fill:none" points="1741.17,1292.51 1741.17,1283.06 "/>
<polyline clip-path="url(#clip140)" style="stroke:#000000; stroke-linecap:round; stroke-linejoin:round; stroke-width:4; stroke-opacity:1; fill:none" points="1913.03,1292.51 1913.03,1283.06 "/>
<polyline clip-path="url(#clip140)" style="stroke:#000000; stroke-linecap:round; stroke-linejoin:round; stroke-width:4; stroke-opacity:1; fill:none" points="1998.96,1292.51 1998.96,1283.06 "/>
<polyline clip-path="url(#clip140)" style="stroke:#000000; stroke-linecap:round; stroke-linejoin:round; stroke-width:4; stroke-opacity:1; fill:none" points="2084.89,1292.51 2084.89,1283.06 "/>
<polyline clip-path="url(#clip140)" style="stroke:#000000; stroke-linecap:round; stroke-linejoin:round; stroke-width:4; stroke-opacity:1; fill:none" points="2170.82,1292.51 2170.82,1283.06 "/>
<path clip-path="url(#clip140)" d="M97.8156 1337.96 Q97.8156 1330.52 99.6931 1326.47 Q102.312 1320.44 108.487 1320.44 Q109.797 1320.44 111.155 1320.81 Q112.539 1321.16 114.268 1322.52 Q116.022 1323.88 117.084 1326.1 Q119.11 1330.4 119.11 1337.96 Q119.11 1345.35 117.232 1349.37 Q114.49 1355.25 108.438 1355.25 Q106.165 1355.25 103.843 1354.09 Q101.546 1352.93 100.088 1350.14 Q97.8156 1345.96 97.8156 1337.96 M102.015 1337.34 Q102.015 1344.97 102.559 1348.01 Q103.176 1351.3 104.856 1352.73 Q106.561 1354.14 108.438 1354.14 Q110.464 1354.14 112.144 1352.63 Q113.848 1351.1 114.367 1347.82 Q114.935 1344.58 114.91 1337.34 Q114.91 1330.3 114.416 1327.48 Q113.749 1324.2 111.971 1322.89 Q110.217 1321.56 108.438 1321.56 Q107.771 1321.56 107.055 1321.75 Q106.363 1321.95 105.35 1322.52 Q104.337 1323.09 103.547 1324.5 Q102.781 1325.9 102.41 1328.03 Q102.015 1330.77 102.015 1337.34 Z" fill="#000000" fill-rule="nonzero" fill-opacity="1" /><path clip-path="url(#clip140)" d="M528.018 1354.14 Q528.018 1353.23 528.092 1352.95 Q528.191 1352.68 528.586 1352.26 L538.294 1341.44 Q543.606 1335.46 543.606 1330.25 Q543.606 1326.87 541.827 1324.45 Q540.073 1322.03 536.837 1322.03 Q534.614 1322.03 532.736 1323.38 Q530.859 1324.74 529.994 1327.16 Q530.142 1327.11 530.661 1327.11 Q531.921 1327.11 532.613 1327.9 Q533.329 1328.7 533.329 1329.76 Q533.329 1331.12 532.44 1331.78 Q531.575 1332.43 530.71 1332.43 Q530.365 1332.43 529.895 1332.35 Q529.451 1332.28 528.734 1331.59 Q528.018 1330.87 528.018 1329.61 Q528.018 1326.08 530.686 1323.26 Q533.378 1320.44 537.479 1320.44 Q542.123 1320.44 545.162 1323.21 Q548.225 1325.95 548.225 1330.25 Q548.225 1331.76 547.756 1333.14 Q547.311 1334.5 546.693 1335.56 Q546.101 1336.63 544.47 1338.33 Q542.84 1340.03 541.53 1341.24 Q540.221 1342.46 537.281 1345.02 L531.921 1350.24 L541.036 1350.24 Q545.483 1350.24 545.829 1349.84 Q546.323 1349.12 546.941 1345.35 L548.225 1345.35 L546.792 1354.14 L528.018 1354.14 Z" fill="#000000" fill-rule="nonzero" fill-opacity="1" /><path clip-path="url(#clip140)" d="M956.565 1345.79 L956.565 1344.23 L972.103 1320.49 Q972.498 1319.88 973.116 1319.9 Q973.684 1319.9 973.808 1320.12 Q973.931 1320.35 973.931 1321.21 L973.931 1344.23 L978.995 1344.23 L978.995 1345.79 L973.931 1345.79 L973.931 1350.19 Q973.931 1351.64 974.524 1352.11 Q975.142 1352.58 977.76 1352.58 L978.822 1352.58 L978.822 1354.14 Q976.747 1353.99 971.955 1353.99 Q967.187 1353.99 965.112 1354.14 L965.112 1352.58 L966.174 1352.58 Q968.793 1352.58 969.41 1352.14 Q970.028 1351.67 970.028 1350.19 L970.028 1345.79 L956.565 1345.79 M957.997 1344.23 L970.324 1344.23 L970.324 1325.36 L957.997 1344.23 Z" fill="#000000" fill-rule="nonzero" fill-opacity="1" /><path clip-path="url(#clip140)" d="M1386.94 1338.16 Q1386.94 1330.2 1390.99 1325.34 Q1395.04 1320.44 1400.25 1320.44 Q1403.29 1320.44 1404.97 1322 Q1406.68 1323.53 1406.68 1325.9 Q1406.68 1327.21 1405.91 1327.78 Q1405.15 1328.35 1404.36 1328.35 Q1403.44 1328.35 1402.73 1327.73 Q1402.01 1327.11 1402.01 1326 Q1402.01 1323.73 1404.8 1323.73 Q1403.49 1321.7 1400.35 1321.7 Q1399.39 1321.7 1398.4 1322 Q1397.41 1322.27 1396.13 1323.21 Q1394.84 1324.15 1393.86 1325.63 Q1392.87 1327.11 1392.18 1329.91 Q1391.49 1332.7 1391.49 1336.33 L1391.49 1337.54 Q1393.56 1332.52 1397.81 1332.55 Q1402.06 1332.55 1405 1335.79 Q1407.94 1339.02 1407.94 1343.81 Q1407.94 1348.73 1404.87 1351.99 Q1401.81 1355.25 1397.51 1355.25 Q1395.59 1355.25 1393.83 1354.44 Q1392.1 1353.65 1390.47 1351.82 Q1388.87 1349.99 1387.9 1346.48 Q1386.94 1342.97 1386.94 1338.16 M1391.58 1342.7 Q1391.58 1347.67 1392.5 1350.04 Q1392.65 1350.43 1392.97 1350.98 Q1393.31 1351.52 1393.88 1352.24 Q1394.47 1352.93 1395.44 1353.4 Q1396.4 1353.84 1397.51 1353.84 Q1400.9 1353.84 1402.53 1350.56 Q1403.39 1348.73 1403.39 1343.76 Q1403.39 1338.7 1402.48 1336.85 Q1400.92 1333.71 1397.76 1333.71 Q1395.64 1333.71 1394.15 1335.17 Q1392.7 1336.63 1392.13 1338.58 Q1391.58 1340.53 1391.58 1342.7 Z" fill="#000000" fill-rule="nonzero" fill-opacity="1" /><path clip-path="url(#clip140)" d="M1816.6 1346.51 Q1816.6 1340.85 1823.89 1337.19 Q1820.75 1335.07 1820.18 1334.45 Q1817.96 1331.98 1817.96 1328.89 Q1817.96 1325.36 1820.62 1322.91 Q1823.32 1320.44 1827.12 1320.44 Q1830.75 1320.44 1833.5 1322.54 Q1836.24 1324.64 1836.24 1327.98 Q1836.24 1332.67 1830.11 1335.83 Q1834.16 1338.35 1835.13 1339.42 Q1837.6 1342.16 1837.6 1345.64 Q1837.6 1349.69 1834.48 1352.48 Q1831.37 1355.25 1827.07 1355.25 Q1822.87 1355.25 1819.74 1352.81 Q1816.6 1350.36 1816.6 1346.51 M1819.12 1346.51 Q1819.12 1349.64 1821.46 1351.74 Q1823.84 1353.84 1827.12 1353.84 Q1830.31 1353.84 1832.68 1352.02 Q1835.08 1350.19 1835.08 1347.47 Q1835.08 1346.41 1834.71 1345.49 Q1834.36 1344.58 1833.64 1343.86 Q1832.95 1343.12 1832.51 1342.8 Q1832.09 1342.46 1831.27 1341.89 L1825.05 1337.96 Q1819.12 1341.24 1819.12 1346.51 M1820.18 1326.92 Q1820.18 1329.34 1822.72 1331.02 L1829 1335.07 Q1834.01 1332.13 1834.01 1327.98 Q1834.01 1325.29 1831.96 1323.51 Q1829.91 1321.7 1827.07 1321.7 Q1824.28 1321.7 1822.23 1323.19 Q1820.18 1324.64 1820.18 1326.92 Z" fill="#000000" fill-rule="nonzero" fill-opacity="1" /><path clip-path="url(#clip140)" d="M2234.72 1325.26 L2234.72 1323.68 Q2240.8 1323.68 2243.93 1320.44 Q2244.8 1320.44 2244.95 1320.64 Q2245.1 1320.84 2245.1 1321.75 L2245.1 1350.14 Q2245.1 1351.64 2245.84 1352.11 Q2246.58 1352.58 2249.81 1352.58 L2251.42 1352.58 L2251.42 1354.14 Q2249.64 1353.99 2243.22 1353.99 Q2236.8 1353.99 2235.04 1354.14 L2235.04 1352.58 L2236.65 1352.58 Q2239.83 1352.58 2240.6 1352.14 Q2241.37 1351.67 2241.37 1350.14 L2241.37 1323.93 Q2238.72 1325.26 2234.72 1325.26 Z" fill="#000000" fill-rule="nonzero" fill-opacity="1" /><path clip-path="url(#clip140)" d="M2257.5 1337.96 Q2257.5 1330.52 2259.37 1326.47 Q2261.99 1320.44 2268.17 1320.44 Q2269.48 1320.44 2270.84 1320.81 Q2272.22 1321.16 2273.95 1322.52 Q2275.7 1323.88 2276.77 1326.1 Q2278.79 1330.4 2278.79 1337.96 Q2278.79 1345.35 2276.91 1349.37 Q2274.17 1355.25 2268.12 1355.25 Q2265.85 1355.25 2263.52 1354.09 Q2261.23 1352.93 2259.77 1350.14 Q2257.5 1345.96 2257.5 1337.96 M2261.7 1337.34 Q2261.7 1344.97 2262.24 1348.01 Q2262.86 1351.3 2264.54 1352.73 Q2266.24 1354.14 2268.12 1354.14 Q2270.15 1354.14 2271.82 1352.63 Q2273.53 1351.1 2274.05 1347.82 Q2274.62 1344.58 2274.59 1337.34 Q2274.59 1330.3 2274.1 1327.48 Q2273.43 1324.2 2271.65 1322.89 Q2269.9 1321.56 2268.12 1321.56 Q2267.45 1321.56 2266.74 1321.75 Q2266.04 1321.95 2265.03 1322.52 Q2264.02 1323.09 2263.23 1324.5 Q2262.46 1325.9 2262.09 1328.03 Q2261.7 1330.77 2261.7 1337.34 Z" fill="#000000" fill-rule="nonzero" fill-opacity="1" /><path clip-path="url(#clip140)" d="M1170.73 1410.77 L1170.73 1409.1 Q1174.22 1408.95 1176.51 1406.51 Q1178.85 1404.02 1179.63 1400.99 Q1180.44 1397.95 1180.52 1394.43 L1182.41 1394.43 L1182.41 1408.4 L1193.26 1408.4 L1193.26 1410.77 L1182.41 1410.77 L1182.41 1431.85 Q1182.41 1440.04 1187.52 1440.04 Q1189.71 1440.04 1191.15 1437.82 Q1192.6 1435.56 1192.6 1431.56 L1192.6 1427.37 L1194.49 1427.37 L1194.49 1431.7 Q1194.49 1435.82 1192.6 1438.89 Q1190.71 1441.97 1186.96 1441.97 Q1185.59 1441.97 1184.22 1441.6 Q1182.89 1441.26 1181.11 1440.37 Q1179.37 1439.45 1178.26 1437.22 Q1177.18 1434.96 1177.18 1431.7 L1177.18 1410.77 L1170.73 1410.77 Z" fill="#000000" fill-rule="nonzero" fill-opacity="1" /><polyline clip-path="url(#clip142)" style="stroke:#000000; stroke-linecap:round; stroke-linejoin:round; stroke-width:2.8; stroke-opacity:0.4; fill:none" points="108.463,1134.98 2256.76,1134.98 "/>
<polyline clip-path="url(#clip142)" style="stroke:#000000; stroke-linecap:round; stroke-linejoin:round; stroke-width:2.8; stroke-opacity:0.4; fill:none" points="108.463,967.861 2256.76,967.861 "/>
<polyline clip-path="url(#clip142)" style="stroke:#000000; stroke-linecap:round; stroke-linejoin:round; stroke-width:2.8; stroke-opacity:0.4; fill:none" points="108.463,800.742 2256.76,800.742 "/>
<polyline clip-path="url(#clip142)" style="stroke:#000000; stroke-linecap:round; stroke-linejoin:round; stroke-width:2.8; stroke-opacity:0.4; fill:none" points="108.463,633.623 2256.76,633.623 "/>
<polyline clip-path="url(#clip142)" style="stroke:#000000; stroke-linecap:round; stroke-linejoin:round; stroke-width:2.8; stroke-opacity:0.4; fill:none" points="108.463,466.504 2256.76,466.504 "/>
<polyline clip-path="url(#clip142)" style="stroke:#000000; stroke-linecap:round; stroke-linejoin:round; stroke-width:2.8; stroke-opacity:0.4; fill:none" points="108.463,299.386 2256.76,299.386 "/>
<polyline clip-path="url(#clip142)" style="stroke:#000000; stroke-linecap:round; stroke-linejoin:round; stroke-width:2.8; stroke-opacity:0.4; fill:none" points="108.463,132.267 2256.76,132.267 "/>
<polyline clip-path="url(#clip142)" style="stroke:#000000; stroke-linecap:round; stroke-linejoin:round; stroke-width:2; stroke-opacity:0.06; fill:none" points="108.463,1268.67 2256.76,1268.67 "/>
<polyline clip-path="url(#clip142)" style="stroke:#000000; stroke-linecap:round; stroke-linejoin:round; stroke-width:2; stroke-opacity:0.06; fill:none" points="108.463,1235.25 2256.76,1235.25 "/>
<polyline clip-path="url(#clip142)" style="stroke:#000000; stroke-linecap:round; stroke-linejoin:round; stroke-width:2; stroke-opacity:0.06; fill:none" points="108.463,1201.83 2256.76,1201.83 "/>
<polyline clip-path="url(#clip142)" style="stroke:#000000; stroke-linecap:round; stroke-linejoin:round; stroke-width:2; stroke-opacity:0.06; fill:none" points="108.463,1168.4 2256.76,1168.4 "/>
<polyline clip-path="url(#clip142)" style="stroke:#000000; stroke-linecap:round; stroke-linejoin:round; stroke-width:2; stroke-opacity:0.06; fill:none" points="108.463,1101.56 2256.76,1101.56 "/>
<polyline clip-path="url(#clip142)" style="stroke:#000000; stroke-linecap:round; stroke-linejoin:round; stroke-width:2; stroke-opacity:0.06; fill:none" points="108.463,1068.13 2256.76,1068.13 "/>
<polyline clip-path="url(#clip142)" style="stroke:#000000; stroke-linecap:round; stroke-linejoin:round; stroke-width:2; stroke-opacity:0.06; fill:none" points="108.463,1034.71 2256.76,1034.71 "/>
<polyline clip-path="url(#clip142)" style="stroke:#000000; stroke-linecap:round; stroke-linejoin:round; stroke-width:2; stroke-opacity:0.06; fill:none" points="108.463,1001.28 2256.76,1001.28 "/>
<polyline clip-path="url(#clip142)" style="stroke:#000000; stroke-linecap:round; stroke-linejoin:round; stroke-width:2; stroke-opacity:0.06; fill:none" points="108.463,934.437 2256.76,934.437 "/>
<polyline clip-path="url(#clip142)" style="stroke:#000000; stroke-linecap:round; stroke-linejoin:round; stroke-width:2; stroke-opacity:0.06; fill:none" points="108.463,901.013 2256.76,901.013 "/>
<polyline clip-path="url(#clip142)" style="stroke:#000000; stroke-linecap:round; stroke-linejoin:round; stroke-width:2; stroke-opacity:0.06; fill:none" points="108.463,867.59 2256.76,867.59 "/>
<polyline clip-path="url(#clip142)" style="stroke:#000000; stroke-linecap:round; stroke-linejoin:round; stroke-width:2; stroke-opacity:0.06; fill:none" points="108.463,834.166 2256.76,834.166 "/>
<polyline clip-path="url(#clip142)" style="stroke:#000000; stroke-linecap:round; stroke-linejoin:round; stroke-width:2; stroke-opacity:0.06; fill:none" points="108.463,767.318 2256.76,767.318 "/>
<polyline clip-path="url(#clip142)" style="stroke:#000000; stroke-linecap:round; stroke-linejoin:round; stroke-width:2; stroke-opacity:0.06; fill:none" points="108.463,733.895 2256.76,733.895 "/>
<polyline clip-path="url(#clip142)" style="stroke:#000000; stroke-linecap:round; stroke-linejoin:round; stroke-width:2; stroke-opacity:0.06; fill:none" points="108.463,700.471 2256.76,700.471 "/>
<polyline clip-path="url(#clip142)" style="stroke:#000000; stroke-linecap:round; stroke-linejoin:round; stroke-width:2; stroke-opacity:0.06; fill:none" points="108.463,667.047 2256.76,667.047 "/>
<polyline clip-path="url(#clip142)" style="stroke:#000000; stroke-linecap:round; stroke-linejoin:round; stroke-width:2; stroke-opacity:0.06; fill:none" points="108.463,600.199 2256.76,600.199 "/>
<polyline clip-path="url(#clip142)" style="stroke:#000000; stroke-linecap:round; stroke-linejoin:round; stroke-width:2; stroke-opacity:0.06; fill:none" points="108.463,566.776 2256.76,566.776 "/>
<polyline clip-path="url(#clip142)" style="stroke:#000000; stroke-linecap:round; stroke-linejoin:round; stroke-width:2; stroke-opacity:0.06; fill:none" points="108.463,533.352 2256.76,533.352 "/>
<polyline clip-path="url(#clip142)" style="stroke:#000000; stroke-linecap:round; stroke-linejoin:round; stroke-width:2; stroke-opacity:0.06; fill:none" points="108.463,499.928 2256.76,499.928 "/>
<polyline clip-path="url(#clip142)" style="stroke:#000000; stroke-linecap:round; stroke-linejoin:round; stroke-width:2; stroke-opacity:0.06; fill:none" points="108.463,433.081 2256.76,433.081 "/>
<polyline clip-path="url(#clip142)" style="stroke:#000000; stroke-linecap:round; stroke-linejoin:round; stroke-width:2; stroke-opacity:0.06; fill:none" points="108.463,399.657 2256.76,399.657 "/>
<polyline clip-path="url(#clip142)" style="stroke:#000000; stroke-linecap:round; stroke-linejoin:round; stroke-width:2; stroke-opacity:0.06; fill:none" points="108.463,366.233 2256.76,366.233 "/>
<polyline clip-path="url(#clip142)" style="stroke:#000000; stroke-linecap:round; stroke-linejoin:round; stroke-width:2; stroke-opacity:0.06; fill:none" points="108.463,332.809 2256.76,332.809 "/>
<polyline clip-path="url(#clip142)" style="stroke:#000000; stroke-linecap:round; stroke-linejoin:round; stroke-width:2; stroke-opacity:0.06; fill:none" points="108.463,265.962 2256.76,265.962 "/>
<polyline clip-path="url(#clip142)" style="stroke:#000000; stroke-linecap:round; stroke-linejoin:round; stroke-width:2; stroke-opacity:0.06; fill:none" points="108.463,232.538 2256.76,232.538 "/>
<polyline clip-path="url(#clip142)" style="stroke:#000000; stroke-linecap:round; stroke-linejoin:round; stroke-width:2; stroke-opacity:0.06; fill:none" points="108.463,199.114 2256.76,199.114 "/>
<polyline clip-path="url(#clip142)" style="stroke:#000000; stroke-linecap:round; stroke-linejoin:round; stroke-width:2; stroke-opacity:0.06; fill:none" points="108.463,165.69 2256.76,165.69 "/>
<polyline clip-path="url(#clip140)" style="stroke:#000000; stroke-linecap:round; stroke-linejoin:round; stroke-width:4; stroke-opacity:1; fill:none" points="108.463,1292.51 108.463,114.832 "/>
<polyline clip-path="url(#clip140)" style="stroke:#000000; stroke-linecap:round; stroke-linejoin:round; stroke-width:4; stroke-opacity:1; fill:none" points="2256.76,1292.51 2256.76,114.832 "/>
<polyline clip-path="url(#clip140)" style="stroke:#000000; stroke-linecap:round; stroke-linejoin:round; stroke-width:4; stroke-opacity:1; fill:none" points="108.463,1134.98 127.36,1134.98 "/>
<polyline clip-path="url(#clip140)" style="stroke:#000000; stroke-linecap:round; stroke-linejoin:round; stroke-width:4; stroke-opacity:1; fill:none" points="108.463,967.861 127.36,967.861 "/>
<polyline clip-path="url(#clip140)" style="stroke:#000000; stroke-linecap:round; stroke-linejoin:round; stroke-width:4; stroke-opacity:1; fill:none" points="108.463,800.742 127.36,800.742 "/>
<polyline clip-path="url(#clip140)" style="stroke:#000000; stroke-linecap:round; stroke-linejoin:round; stroke-width:4; stroke-opacity:1; fill:none" points="108.463,633.623 127.36,633.623 "/>
<polyline clip-path="url(#clip140)" style="stroke:#000000; stroke-linecap:round; stroke-linejoin:round; stroke-width:4; stroke-opacity:1; fill:none" points="108.463,466.504 127.36,466.504 "/>
<polyline clip-path="url(#clip140)" style="stroke:#000000; stroke-linecap:round; stroke-linejoin:round; stroke-width:4; stroke-opacity:1; fill:none" points="108.463,299.386 127.36,299.386 "/>
<polyline clip-path="url(#clip140)" style="stroke:#000000; stroke-linecap:round; stroke-linejoin:round; stroke-width:4; stroke-opacity:1; fill:none" points="108.463,132.267 127.36,132.267 "/>
<polyline clip-path="url(#clip140)" style="stroke:#000000; stroke-linecap:round; stroke-linejoin:round; stroke-width:4; stroke-opacity:1; fill:none" points="108.463,1268.67 117.912,1268.67 "/>
<polyline clip-path="url(#clip140)" style="stroke:#000000; stroke-linecap:round; stroke-linejoin:round; stroke-width:4; stroke-opacity:1; fill:none" points="108.463,1235.25 117.912,1235.25 "/>
<polyline clip-path="url(#clip140)" style="stroke:#000000; stroke-linecap:round; stroke-linejoin:round; stroke-width:4; stroke-opacity:1; fill:none" points="108.463,1201.83 117.912,1201.83 "/>
<polyline clip-path="url(#clip140)" style="stroke:#000000; stroke-linecap:round; stroke-linejoin:round; stroke-width:4; stroke-opacity:1; fill:none" points="108.463,1168.4 117.912,1168.4 "/>
<polyline clip-path="url(#clip140)" style="stroke:#000000; stroke-linecap:round; stroke-linejoin:round; stroke-width:4; stroke-opacity:1; fill:none" points="108.463,1101.56 117.912,1101.56 "/>
<polyline clip-path="url(#clip140)" style="stroke:#000000; stroke-linecap:round; stroke-linejoin:round; stroke-width:4; stroke-opacity:1; fill:none" points="108.463,1068.13 117.912,1068.13 "/>
<polyline clip-path="url(#clip140)" style="stroke:#000000; stroke-linecap:round; stroke-linejoin:round; stroke-width:4; stroke-opacity:1; fill:none" points="108.463,1034.71 117.912,1034.71 "/>
<polyline clip-path="url(#clip140)" style="stroke:#000000; stroke-linecap:round; stroke-linejoin:round; stroke-width:4; stroke-opacity:1; fill:none" points="108.463,1001.28 117.912,1001.28 "/>
<polyline clip-path="url(#clip140)" style="stroke:#000000; stroke-linecap:round; stroke-linejoin:round; stroke-width:4; stroke-opacity:1; fill:none" points="108.463,934.437 117.912,934.437 "/>
<polyline clip-path="url(#clip140)" style="stroke:#000000; stroke-linecap:round; stroke-linejoin:round; stroke-width:4; stroke-opacity:1; fill:none" points="108.463,901.013 117.912,901.013 "/>
<polyline clip-path="url(#clip140)" style="stroke:#000000; stroke-linecap:round; stroke-linejoin:round; stroke-width:4; stroke-opacity:1; fill:none" points="108.463,867.59 117.912,867.59 "/>
<polyline clip-path="url(#clip140)" style="stroke:#000000; stroke-linecap:round; stroke-linejoin:round; stroke-width:4; stroke-opacity:1; fill:none" points="108.463,834.166 117.912,834.166 "/>
<polyline clip-path="url(#clip140)" style="stroke:#000000; stroke-linecap:round; stroke-linejoin:round; stroke-width:4; stroke-opacity:1; fill:none" points="108.463,767.318 117.912,767.318 "/>
<polyline clip-path="url(#clip140)" style="stroke:#000000; stroke-linecap:round; stroke-linejoin:round; stroke-width:4; stroke-opacity:1; fill:none" points="108.463,733.895 117.912,733.895 "/>
<polyline clip-path="url(#clip140)" style="stroke:#000000; stroke-linecap:round; stroke-linejoin:round; stroke-width:4; stroke-opacity:1; fill:none" points="108.463,700.471 117.912,700.471 "/>
<polyline clip-path="url(#clip140)" style="stroke:#000000; stroke-linecap:round; stroke-linejoin:round; stroke-width:4; stroke-opacity:1; fill:none" points="108.463,667.047 117.912,667.047 "/>
<polyline clip-path="url(#clip140)" style="stroke:#000000; stroke-linecap:round; stroke-linejoin:round; stroke-width:4; stroke-opacity:1; fill:none" points="108.463,600.199 117.912,600.199 "/>
<polyline clip-path="url(#clip140)" style="stroke:#000000; stroke-linecap:round; stroke-linejoin:round; stroke-width:4; stroke-opacity:1; fill:none" points="108.463,566.776 117.912,566.776 "/>
<polyline clip-path="url(#clip140)" style="stroke:#000000; stroke-linecap:round; stroke-linejoin:round; stroke-width:4; stroke-opacity:1; fill:none" points="108.463,533.352 117.912,533.352 "/>
<polyline clip-path="url(#clip140)" style="stroke:#000000; stroke-linecap:round; stroke-linejoin:round; stroke-width:4; stroke-opacity:1; fill:none" points="108.463,499.928 117.912,499.928 "/>
<polyline clip-path="url(#clip140)" style="stroke:#000000; stroke-linecap:round; stroke-linejoin:round; stroke-width:4; stroke-opacity:1; fill:none" points="108.463,433.081 117.912,433.081 "/>
<polyline clip-path="url(#clip140)" style="stroke:#000000; stroke-linecap:round; stroke-linejoin:round; stroke-width:4; stroke-opacity:1; fill:none" points="108.463,399.657 117.912,399.657 "/>
<polyline clip-path="url(#clip140)" style="stroke:#000000; stroke-linecap:round; stroke-linejoin:round; stroke-width:4; stroke-opacity:1; fill:none" points="108.463,366.233 117.912,366.233 "/>
<polyline clip-path="url(#clip140)" style="stroke:#000000; stroke-linecap:round; stroke-linejoin:round; stroke-width:4; stroke-opacity:1; fill:none" points="108.463,332.809 117.912,332.809 "/>
<polyline clip-path="url(#clip140)" style="stroke:#000000; stroke-linecap:round; stroke-linejoin:round; stroke-width:4; stroke-opacity:1; fill:none" points="108.463,265.962 117.912,265.962 "/>
<polyline clip-path="url(#clip140)" style="stroke:#000000; stroke-linecap:round; stroke-linejoin:round; stroke-width:4; stroke-opacity:1; fill:none" points="108.463,232.538 117.912,232.538 "/>
<polyline clip-path="url(#clip140)" style="stroke:#000000; stroke-linecap:round; stroke-linejoin:round; stroke-width:4; stroke-opacity:1; fill:none" points="108.463,199.114 117.912,199.114 "/>
<polyline clip-path="url(#clip140)" style="stroke:#000000; stroke-linecap:round; stroke-linejoin:round; stroke-width:4; stroke-opacity:1; fill:none" points="108.463,165.69 117.912,165.69 "/>
<path clip-path="url(#clip140)" d="M57.2033 1123.38 L57.2033 1121.8 Q63.2803 1121.8 66.4177 1118.56 Q67.2823 1118.56 67.4305 1118.76 Q67.5787 1118.96 67.5787 1119.87 L67.5787 1148.26 Q67.5787 1149.76 68.3198 1150.23 Q69.0609 1150.7 72.2971 1150.7 L73.9028 1150.7 L73.9028 1152.26 Q72.1241 1152.11 65.7013 1152.11 Q59.2784 1152.11 57.5244 1152.26 L57.5244 1150.7 L59.1302 1150.7 Q62.3169 1150.7 63.0827 1150.26 Q63.8485 1149.79 63.8485 1148.26 L63.8485 1122.05 Q61.2052 1123.38 57.2033 1123.38 Z" fill="#000000" fill-rule="nonzero" fill-opacity="1" /><path clip-path="url(#clip140)" d="M53.6954 985.141 Q53.6954 984.227 53.7695 983.955 Q53.8684 983.683 54.2636 983.263 L63.972 972.443 Q69.2832 966.465 69.2832 961.253 Q69.2832 957.868 67.5046 955.447 Q65.7507 953.027 62.5145 953.027 Q60.2912 953.027 58.4138 954.385 Q56.5363 955.744 55.6717 958.165 Q55.8199 958.115 56.3387 958.115 Q57.5986 958.115 58.2903 958.906 Q59.0067 959.696 59.0067 960.759 Q59.0067 962.117 58.1173 962.784 Q57.2527 963.427 56.3881 963.427 Q56.0422 963.427 55.5729 963.353 Q55.1282 963.278 54.4118 962.587 Q53.6954 961.87 53.6954 960.61 Q53.6954 957.078 56.3634 954.262 Q59.0561 951.446 63.1568 951.446 Q67.801 951.446 70.8396 954.212 Q73.9028 956.954 73.9028 961.253 Q73.9028 962.76 73.4334 964.143 Q72.9888 965.502 72.3712 966.564 Q71.7783 967.626 70.1479 969.331 Q68.5174 971.035 67.2082 972.246 Q65.8989 973.456 62.9592 976.025 L57.5986 981.238 L66.7141 981.238 Q71.1607 981.238 71.5066 980.843 Q72.0006 980.126 72.6182 976.347 L73.9028 976.347 L72.47 985.141 L53.6954 985.141 Z" fill="#000000" fill-rule="nonzero" fill-opacity="1" /><path clip-path="url(#clip140)" d="M52.9049 811.204 Q52.9049 809.697 53.7695 808.981 Q54.6342 808.264 55.7458 808.264 Q56.9069 808.264 57.7221 809.03 Q58.562 809.771 58.562 811.08 Q58.562 812.489 57.5739 813.279 Q56.6104 814.07 55.227 813.872 Q56.4375 815.898 58.6608 816.812 Q60.9088 817.726 62.9839 817.726 Q65.1578 817.726 66.9117 815.848 Q68.6904 813.971 68.6904 809.376 Q68.6904 805.473 67.1588 803.225 Q65.6519 800.977 62.6627 800.977 L60.4394 800.977 Q59.6736 800.977 59.4513 800.903 Q59.229 800.829 59.229 800.409 Q59.229 799.915 59.9948 799.816 Q60.7606 799.816 61.9711 799.667 Q64.9108 799.569 66.4671 797.024 Q67.8752 794.653 67.8752 791.268 Q67.8752 788.18 66.393 786.896 Q64.9355 785.587 63.0333 785.587 Q61.2547 785.587 59.3031 786.328 Q57.3515 787.069 56.2893 788.724 Q59.4266 788.724 59.4266 791.268 Q59.4266 792.38 58.7102 793.121 Q58.0185 793.837 56.8575 793.837 Q55.7458 793.837 55.0047 793.146 Q54.2636 792.429 54.2636 791.219 Q54.2636 788.329 56.8328 786.328 Q59.4266 784.327 63.2309 784.327 Q66.9858 784.327 69.7526 786.303 Q72.5441 788.279 72.5441 791.318 Q72.5441 794.307 70.5678 796.752 Q68.5916 799.198 65.4542 800.211 Q69.308 800.977 71.6054 803.595 Q73.9028 806.189 73.9028 809.376 Q73.9028 813.328 70.7902 816.243 Q67.6775 819.134 63.1321 819.134 Q58.9325 819.134 55.9187 816.861 Q52.9049 814.588 52.9049 811.204 Z" fill="#000000" fill-rule="nonzero" fill-opacity="1" /><path clip-path="url(#clip140)" d="M51.4721 642.554 L51.4721 640.997 L67.0105 617.257 Q67.4058 616.64 68.0234 616.664 Q68.5916 616.664 68.7151 616.887 Q68.8386 617.109 68.8386 617.974 L68.8386 640.997 L73.9028 640.997 L73.9028 642.554 L68.8386 642.554 L68.8386 646.951 Q68.8386 648.408 69.4315 648.878 Q70.0491 649.347 72.6676 649.347 L73.7299 649.347 L73.7299 650.903 Q71.6548 650.755 66.8623 650.755 Q62.0946 650.755 60.0195 650.903 L60.0195 649.347 L61.0817 649.347 Q63.7003 649.347 64.3179 648.902 Q64.9355 648.433 64.9355 646.951 L64.9355 642.554 L51.4721 642.554 M52.9049 640.997 L65.2319 640.997 L65.2319 622.124 L52.9049 640.997 Z" fill="#000000" fill-rule="nonzero" fill-opacity="1" /><path clip-path="url(#clip140)" d="M53.6954 475.632 Q53.6954 474.125 54.5106 473.557 Q55.3259 472.964 56.1905 472.964 Q57.3515 472.964 58.0185 473.705 Q58.7102 474.422 58.7102 475.435 Q58.7102 476.448 58.0185 477.189 Q57.3515 477.905 56.1905 477.905 Q55.6223 477.905 55.3259 477.806 Q55.9928 480.128 58.0185 481.808 Q60.0689 483.488 62.7616 483.488 Q66.1459 483.488 68.1716 480.202 Q69.3821 478.078 69.3821 473.261 Q69.3821 469.012 68.468 466.887 Q67.0599 463.651 64.1697 463.651 Q60.0689 463.651 57.648 467.184 Q57.3515 467.628 57.0057 467.653 Q56.5116 467.653 56.3881 467.381 Q56.2893 467.085 56.2893 466.319 L56.2893 451.349 Q56.2893 450.138 56.7833 450.138 Q56.981 450.138 57.4009 450.287 Q60.5877 451.695 64.1202 451.719 Q67.7516 451.719 71.0125 450.237 Q71.2595 450.089 71.4077 450.089 Q71.9018 450.089 71.9265 450.657 Q71.9265 450.855 71.5066 451.448 Q71.1113 452.016 70.2467 452.782 Q69.3821 453.523 68.2704 454.239 Q67.1588 454.956 65.5283 455.45 Q63.9226 455.919 62.144 455.919 Q60.0195 455.919 57.8456 455.252 L57.8456 465.109 Q60.4641 462.54 64.2685 462.54 Q68.3198 462.54 71.1113 465.8 Q73.9028 469.061 73.9028 473.607 Q73.9028 478.374 70.5925 481.635 Q67.307 484.896 62.8604 484.896 Q58.809 484.896 56.2399 482.006 Q53.6954 479.115 53.6954 475.632 Z" fill="#000000" fill-rule="nonzero" fill-opacity="1" /><path clip-path="url(#clip140)" d="M52.9049 300.682 Q52.9049 292.728 56.9563 287.861 Q61.0076 282.97 66.22 282.97 Q69.2585 282.97 70.9384 284.526 Q72.6429 286.058 72.6429 288.43 Q72.6429 289.739 71.8771 290.307 Q71.1113 290.875 70.3208 290.875 Q69.4068 290.875 68.6904 290.258 Q67.974 289.64 67.974 288.528 Q67.974 286.256 70.7654 286.256 Q69.4562 284.23 66.3188 284.23 Q65.3554 284.23 64.3673 284.526 Q63.3791 284.798 62.0946 285.737 Q60.81 286.676 59.8219 288.158 Q58.8337 289.64 58.142 292.432 Q57.4503 295.223 57.4503 298.854 L57.4503 300.065 Q59.5254 295.05 63.7744 295.075 Q68.0234 295.075 70.9631 298.311 Q73.9028 301.547 73.9028 306.34 Q73.9028 311.256 70.8396 314.516 Q67.7763 317.777 63.478 317.777 Q61.5511 317.777 59.7972 316.962 Q58.0679 316.171 56.4375 314.343 Q54.8318 312.515 53.8684 309.008 Q52.9049 305.5 52.9049 300.682 M57.5492 305.228 Q57.5492 310.193 58.4632 312.565 Q58.6114 312.96 58.9325 313.504 Q59.2784 314.047 59.8466 314.763 Q60.4394 315.455 61.4029 315.924 Q62.3663 316.369 63.478 316.369 Q66.8623 316.369 68.4927 313.084 Q69.3574 311.256 69.3574 306.29 Q69.3574 301.226 68.4433 299.373 Q66.887 296.236 63.725 296.236 Q61.6005 296.236 60.1183 297.693 Q58.6608 299.151 58.0926 301.102 Q57.5492 303.054 57.5492 305.228 Z" fill="#000000" fill-rule="nonzero" fill-opacity="1" /><path clip-path="url(#clip140)" d="M52.2132 125.757 L53.8684 115.357 L55.1282 115.357 Q55.2764 115.975 55.5235 116.247 Q55.7952 116.518 57.228 116.741 Q58.6855 116.963 61.6252 116.963 L73.9028 116.963 Q73.9028 118.124 73.4581 118.742 L66.6153 128.351 Q64.4414 131.39 63.478 136.997 Q62.9098 140.752 62.9345 145.298 L62.9345 147.867 Q62.9345 150.658 60.5877 150.658 Q58.2655 150.658 58.2655 147.867 Q58.2655 138.208 64.4908 128.845 Q65.1578 127.882 67.6034 124.448 Q70.0738 121.014 70.1726 120.866 L59.6983 120.866 Q55.1035 120.866 54.733 121.163 Q54.2389 121.607 53.4731 125.757 L52.2132 125.757 Z" fill="#000000" fill-rule="nonzero" fill-opacity="1" /><path clip-path="url(#clip140)" d="M792.309 62.208 L792.309 59.8735 L794.124 59.8735 Q798.237 59.8735 799.164 59.2065 Q800.127 58.5025 800.127 56.2792 L800.127 16.2968 Q800.127 14.1106 799.164 13.4436 Q798.2 12.7395 794.124 12.7395 L792.309 12.7395 L792.309 10.368 Q794.977 10.5903 803.833 10.5903 Q813.838 10.5903 816.58 10.368 L816.58 12.7395 L814.06 12.7395 Q810.577 12.7395 808.983 13.1842 Q807.39 13.6288 807.131 14.2588 Q806.871 14.8517 806.871 16.3709 L806.871 56.835 Q806.871 58.7989 807.427 59.3548 Q808.02 59.8735 810.577 59.8735 L816.802 59.8735 Q820.656 59.8735 823.435 58.7248 Q826.214 57.5761 827.696 56.131 Q829.178 54.6858 830.142 51.9808 Q831.142 49.2387 831.439 47.4971 Q831.772 45.7556 832.069 42.6429 L833.958 42.6429 L831.846 62.208 L792.309 62.208 Z" fill="#000000" fill-rule="nonzero" fill-opacity="1" /><path clip-path="url(#clip140)" d="M844.334 58.1319 Q839.331 53.1666 839.331 45.9779 Q839.331 38.7522 844.223 33.4903 Q849.151 28.1915 856.191 28.1915 Q863.084 28.1915 868.012 33.4533 Q872.977 38.6781 872.977 45.9779 Q872.977 53.1295 867.975 58.0949 Q863.01 63.0603 856.117 63.0603 Q849.373 63.0603 844.334 58.1319 M845.631 45.348 Q845.631 52.7219 847.558 56.0569 Q850.522 61.1334 856.191 61.1334 Q859.008 61.1334 861.342 59.6141 Q863.714 58.0949 865.011 55.5381 Q866.678 52.2031 866.678 45.348 Q866.678 38.0481 864.677 34.8243 Q861.713 29.896 856.117 29.896 Q853.672 29.896 851.263 31.1929 Q848.892 32.4528 847.447 34.9725 Q845.631 38.3075 845.631 45.348 Z" fill="#000000" fill-rule="nonzero" fill-opacity="1" /><path clip-path="url(#clip140)" d="M876.609 31.8599 L876.609 30.1924 Q880.092 30.0442 882.389 27.5986 Q884.724 25.1159 885.502 22.0774 Q886.317 19.0389 886.391 15.5187 L888.281 15.5187 L888.281 29.4884 L899.138 29.4884 L899.138 31.8599 L888.281 31.8599 L888.281 52.9442 Q888.281 61.1334 893.395 61.1334 Q895.581 61.1334 897.026 58.9101 Q898.471 56.6497 898.471 52.6478 L898.471 48.4606 L900.361 48.4606 L900.361 52.796 Q900.361 56.9091 898.471 59.9847 Q896.581 63.0603 892.839 63.0603 Q891.468 63.0603 890.097 62.6897 Q888.763 62.3562 886.984 61.4669 Q885.243 60.5405 884.131 58.3172 Q883.056 56.0569 883.056 52.796 L883.056 31.8599 L876.609 31.8599 Z" fill="#000000" fill-rule="nonzero" fill-opacity="1" /><path clip-path="url(#clip140)" d="M906.698 62.208 L906.698 59.8735 Q910.737 59.8735 911.663 59.3918 Q912.626 58.873 912.626 56.4274 L912.626 16.9638 Q912.626 14.1476 911.626 13.4436 Q910.662 12.7395 906.698 12.7395 L906.698 10.368 L917.629 9.55279 L917.629 45.9779 L928.338 36.7141 Q930.005 35.269 930.005 33.7497 Q930.005 32.0081 927.819 31.8599 L927.819 29.4884 Q931.006 29.7107 936.304 29.7107 Q939.417 29.7107 941.603 29.4884 L941.603 31.8599 Q936.823 32.0823 932.043 35.936 Q930.969 36.7882 928.412 39.0115 Q925.892 41.1978 925.892 41.4201 Q925.892 41.4942 925.966 41.6795 Q926.077 41.8648 926.226 42.013 Q926.374 42.1612 926.374 42.2353 L936.008 55.8345 Q937.972 58.5766 939.417 59.2436 Q940.862 59.8735 943.382 59.8735 L943.382 62.208 Q940.121 61.9857 936.749 61.9857 Q934.933 61.9857 928.56 62.208 L928.56 59.8735 Q931.302 59.8735 931.302 58.0949 Q931.302 56.8721 925.151 48.3865 Q924.706 47.7936 923.706 46.4967 Q922.779 45.1256 922.261 44.4586 L917.406 48.6088 L917.406 56.4274 Q917.406 58.873 918.333 59.3918 Q919.296 59.8735 923.335 59.8735 L923.335 62.208 Q918.777 61.9857 914.998 61.9857 Q914.22 61.9857 906.698 62.208 Z" fill="#000000" fill-rule="nonzero" fill-opacity="1" /><path clip-path="url(#clip140)" d="M945.642 54.9823 Q945.642 48.5347 953.239 45.1256 Q957.796 42.9394 967.208 42.3836 L967.208 39.6044 Q967.208 34.8984 964.726 32.4157 Q962.28 29.896 959.167 29.896 Q953.609 29.896 950.941 33.3792 Q953.202 33.4533 954.017 34.602 Q954.832 35.7136 954.832 36.8624 Q954.832 38.3816 953.869 39.3821 Q952.942 40.3455 951.349 40.3455 Q949.83 40.3455 948.829 39.4192 Q947.829 38.4557 947.829 36.7882 Q947.829 33.0827 951.164 30.6371 Q954.536 28.1915 959.316 28.1915 Q965.541 28.1915 969.691 32.3787 Q970.988 33.6756 971.618 35.3431 Q972.285 37.0106 972.359 38.1222 Q972.433 39.1968 972.433 41.346 L972.433 56.5015 Q972.433 56.9462 972.581 57.6873 Q972.73 58.4284 973.397 59.3918 Q974.101 60.3182 975.249 60.3182 Q977.991 60.3182 977.954 55.464 L977.954 51.2027 L979.881 51.2027 L979.881 55.464 Q979.881 59.503 977.732 61.0963 Q975.62 62.6527 973.656 62.6527 Q971.136 62.6527 969.543 60.7999 Q967.949 58.9472 967.727 56.4274 Q966.578 59.3177 963.948 61.2075 Q961.354 63.0603 957.796 63.0603 Q955.054 63.0603 952.46 62.3562 Q949.904 61.6892 947.755 59.7994 Q945.642 57.8726 945.642 54.9823 M951.497 54.9082 Q951.497 57.7243 953.498 59.54 Q955.499 61.3557 958.315 61.3557 Q961.502 61.3557 964.355 58.9101 Q967.208 56.4274 967.208 51.5732 L967.208 43.9769 Q958.797 44.2734 955.128 47.6454 Q951.497 50.9803 951.497 54.9082 Z" fill="#000000" fill-rule="nonzero" fill-opacity="1" /><path clip-path="url(#clip140)" d="M981.141 48.09 L981.141 43.6064 L1001.34 43.6064 L1001.34 48.09 L981.141 48.09 Z" fill="#000000" fill-rule="nonzero" fill-opacity="1" /><path clip-path="url(#clip140)" d="M1007.08 12.7395 L1007.08 10.368 Q1015.27 10.5903 1016.71 10.5903 Q1024.83 10.5903 1027.57 10.368 L1027.57 12.7395 Q1021.35 12.7395 1021.35 14.9258 Q1021.35 15.2222 1021.79 16.2968 L1036.28 54.6117 L1050.17 18.0384 Q1050.55 16.8897 1050.55 16.5191 Q1050.55 14.9999 1049.14 13.9253 Q1047.77 12.8136 1045.02 12.7395 L1045.02 10.368 Q1050.95 10.5903 1053.66 10.5903 Q1057.51 10.5903 1061.03 10.368 L1061.03 12.7395 Q1054.66 12.8136 1052.77 17.8161 L1035.83 62.4303 Q1035.54 63.3567 1035.24 63.6161 Q1034.95 63.8755 1034.02 63.8755 Q1033.28 63.8755 1032.87 63.579 Q1032.5 63.2826 1032.13 62.208 L1014.53 15.6298 Q1013.79 13.5918 1012.45 13.1842 Q1011.12 12.7395 1007.08 12.7395 Z" fill="#000000" fill-rule="nonzero" fill-opacity="1" /><path clip-path="url(#clip140)" d="M1063.37 58.1319 Q1058.36 53.1666 1058.36 45.9779 Q1058.36 38.7522 1063.26 33.4903 Q1068.18 28.1915 1075.22 28.1915 Q1082.12 28.1915 1087.04 33.4533 Q1092.01 38.6781 1092.01 45.9779 Q1092.01 53.1295 1087.01 58.0949 Q1082.04 63.0603 1075.15 63.0603 Q1068.41 63.0603 1063.37 58.1319 M1064.66 45.348 Q1064.66 52.7219 1066.59 56.0569 Q1069.55 61.1334 1075.22 61.1334 Q1078.04 61.1334 1080.37 59.6141 Q1082.75 58.0949 1084.04 55.5381 Q1085.71 52.2031 1085.71 45.348 Q1085.71 38.0481 1083.71 34.8243 Q1080.75 29.896 1075.15 29.896 Q1072.7 29.896 1070.3 31.1929 Q1067.92 32.4528 1066.48 34.9725 Q1064.66 38.3075 1064.66 45.348 Z" fill="#000000" fill-rule="nonzero" fill-opacity="1" /><path clip-path="url(#clip140)" d="M1096.72 62.208 L1096.72 59.8735 Q1100.75 59.8735 1101.68 59.3918 Q1102.61 58.873 1102.61 56.4274 L1102.61 16.9638 Q1102.61 14.1476 1101.61 13.4436 Q1100.64 12.7395 1096.72 12.7395 L1096.72 10.368 L1107.61 9.55279 L1107.61 56.4274 Q1107.61 58.873 1108.57 59.3918 Q1109.54 59.8735 1113.54 59.8735 L1113.54 62.208 Q1112.61 62.208 1110.69 62.1339 Q1108.76 62.0598 1107.35 62.0227 Q1105.94 61.9857 1105.13 61.9857 Q1104.24 61.9857 1096.72 62.208 Z" fill="#000000" fill-rule="nonzero" fill-opacity="1" /><path clip-path="url(#clip140)" d="M1116.65 31.8599 L1116.65 30.1924 Q1120.13 30.0442 1122.43 27.5986 Q1124.77 25.1159 1125.54 22.0774 Q1126.36 19.0389 1126.43 15.5187 L1128.32 15.5187 L1128.32 29.4884 L1139.18 29.4884 L1139.18 31.8599 L1128.32 31.8599 L1128.32 52.9442 Q1128.32 61.1334 1133.44 61.1334 Q1135.62 61.1334 1137.07 58.9101 Q1138.51 56.6497 1138.51 52.6478 L1138.51 48.4606 L1140.4 48.4606 L1140.4 52.796 Q1140.4 56.9091 1138.51 59.9847 Q1136.62 63.0603 1132.88 63.0603 Q1131.51 63.0603 1130.14 62.6897 Q1128.81 62.3562 1127.03 61.4669 Q1125.29 60.5405 1124.17 58.3172 Q1123.1 56.0569 1123.1 52.796 L1123.1 31.8599 L1116.65 31.8599 Z" fill="#000000" fill-rule="nonzero" fill-opacity="1" /><path clip-path="url(#clip140)" d="M1146.74 45.4962 Q1146.74 38.3446 1151.33 33.268 Q1155.93 28.1915 1162.53 28.1915 Q1169.2 28.1915 1172.64 32.5269 Q1176.12 36.8624 1176.12 43.0876 Q1176.12 44.2363 1175.83 44.4586 Q1175.53 44.681 1174.23 44.681 L1153.04 44.681 Q1153.04 52.4255 1155.34 56.0569 Q1158.52 61.1334 1163.9 61.1334 Q1164.64 61.1334 1165.53 60.9852 Q1166.42 60.837 1168.23 60.207 Q1170.05 59.54 1171.64 57.7985 Q1173.23 56.0569 1174.16 53.3148 Q1174.38 52.2402 1175.12 52.2772 Q1176.12 52.2772 1176.12 53.1666 Q1176.12 53.8336 1175.38 55.3528 Q1174.68 56.835 1173.31 58.6137 Q1171.94 60.3923 1169.27 61.7263 Q1166.64 63.0603 1163.45 63.0603 Q1156.78 63.0603 1151.74 58.0208 Q1146.74 52.9442 1146.74 45.4962 M1153.11 43.0876 L1171.12 43.0876 Q1171.12 41.4942 1170.83 39.7156 Q1170.57 37.9369 1169.75 35.4913 Q1168.97 33.0086 1167.12 31.4523 Q1165.27 29.896 1162.53 29.896 Q1161.3 29.896 1159.97 30.4148 Q1158.67 30.9335 1157.08 32.1934 Q1155.49 33.4533 1154.37 36.3065 Q1153.26 39.1598 1153.11 43.0876 Z" fill="#000000" fill-rule="nonzero" fill-opacity="1" /><path clip-path="url(#clip140)" d="M1180.42 62.208 L1180.42 59.8735 Q1184.46 59.8735 1185.39 59.3918 Q1186.35 58.873 1186.35 56.4274 L1186.35 36.0842 Q1186.35 33.268 1185.35 32.564 Q1184.39 31.8599 1180.42 31.8599 L1180.42 29.4884 L1190.98 28.6732 L1190.98 37.0106 Q1192.06 33.7497 1194.32 31.23 Q1196.62 28.6732 1200.32 28.6732 Q1202.77 28.6732 1204.32 30.0442 Q1205.92 31.4153 1205.92 33.3051 Q1205.92 34.9725 1204.88 35.8248 Q1203.88 36.64 1202.66 36.64 Q1201.29 36.64 1200.32 35.7878 Q1199.4 34.8984 1199.4 33.3792 Q1199.4 32.4528 1199.8 31.7488 Q1200.25 31.0077 1200.58 30.7483 Q1200.91 30.4889 1201.14 30.4148 Q1200.99 30.3407 1200.32 30.3407 Q1196.13 30.3407 1193.73 34.5279 Q1191.35 38.6781 1191.35 44.6069 L1191.35 56.2792 Q1191.35 58.4654 1192.24 59.1695 Q1193.17 59.8735 1197.13 59.8735 L1198.73 59.8735 L1198.73 62.208 Q1195.69 61.9857 1189.09 61.9857 Q1188.17 61.9857 1186.72 62.0227 Q1185.28 62.0598 1183.39 62.1339 Q1181.5 62.208 1180.42 62.208 Z" fill="#000000" fill-rule="nonzero" fill-opacity="1" /><path clip-path="url(#clip140)" d="M1210.07 62.208 L1210.07 59.8735 Q1214.11 59.8735 1215.03 59.3918 Q1216 58.873 1216 56.4274 L1216 36.0842 Q1216 33.268 1215 32.564 Q1214.03 31.8599 1210.07 31.8599 L1210.07 29.4884 L1220.63 28.6732 L1220.63 37.0106 Q1221.7 33.7497 1223.96 31.23 Q1226.26 28.6732 1229.97 28.6732 Q1232.41 28.6732 1233.97 30.0442 Q1235.56 31.4153 1235.56 33.3051 Q1235.56 34.9725 1234.52 35.8248 Q1233.52 36.64 1232.3 36.64 Q1230.93 36.64 1229.97 35.7878 Q1229.04 34.8984 1229.04 33.3792 Q1229.04 32.4528 1229.45 31.7488 Q1229.89 31.0077 1230.23 30.7483 Q1230.56 30.4889 1230.78 30.4148 Q1230.63 30.3407 1229.97 30.3407 Q1225.78 30.3407 1223.37 34.5279 Q1221 38.6781 1221 44.6069 L1221 56.2792 Q1221 58.4654 1221.89 59.1695 Q1222.81 59.8735 1226.78 59.8735 L1228.37 59.8735 L1228.37 62.208 Q1225.33 61.9857 1218.74 61.9857 Q1217.81 61.9857 1216.37 62.0227 Q1214.92 62.0598 1213.03 62.1339 Q1211.14 62.208 1210.07 62.208 Z" fill="#000000" fill-rule="nonzero" fill-opacity="1" /><path clip-path="url(#clip140)" d="M1240.79 54.9823 Q1240.79 48.5347 1248.38 45.1256 Q1252.94 42.9394 1262.35 42.3836 L1262.35 39.6044 Q1262.35 34.8984 1259.87 32.4157 Q1257.42 29.896 1254.31 29.896 Q1248.75 29.896 1246.08 33.3792 Q1248.34 33.4533 1249.16 34.602 Q1249.98 35.7136 1249.98 36.8624 Q1249.98 38.3816 1249.01 39.3821 Q1248.09 40.3455 1246.49 40.3455 Q1244.97 40.3455 1243.97 39.4192 Q1242.97 38.4557 1242.97 36.7882 Q1242.97 33.0827 1246.31 30.6371 Q1249.68 28.1915 1254.46 28.1915 Q1260.68 28.1915 1264.83 32.3787 Q1266.13 33.6756 1266.76 35.3431 Q1267.43 37.0106 1267.5 38.1222 Q1267.58 39.1968 1267.58 41.346 L1267.58 56.5015 Q1267.58 56.9462 1267.72 57.6873 Q1267.87 58.4284 1268.54 59.3918 Q1269.24 60.3182 1270.39 60.3182 Q1273.13 60.3182 1273.1 55.464 L1273.1 51.2027 L1275.02 51.2027 L1275.02 55.464 Q1275.02 59.503 1272.88 61.0963 Q1270.76 62.6527 1268.8 62.6527 Q1266.28 62.6527 1264.69 60.7999 Q1263.09 58.9472 1262.87 56.4274 Q1261.72 59.3177 1259.09 61.2075 Q1256.5 63.0603 1252.94 63.0603 Q1250.2 63.0603 1247.6 62.3562 Q1245.05 61.6892 1242.9 59.7994 Q1240.79 57.8726 1240.79 54.9823 M1246.64 54.9082 Q1246.64 57.7243 1248.64 59.54 Q1250.64 61.3557 1253.46 61.3557 Q1256.65 61.3557 1259.5 58.9101 Q1262.35 56.4274 1262.35 51.5732 L1262.35 43.9769 Q1253.94 44.2734 1250.27 47.6454 Q1246.64 50.9803 1246.64 54.9082 Z" fill="#000000" fill-rule="nonzero" fill-opacity="1" /><path clip-path="url(#clip140)" d="M1305.04 62.0598 L1305.04 46.8672 Q1305.04 46.0149 1305.08 45.7185 Q1305.11 45.4221 1305.34 45.1997 Q1305.56 44.9774 1306 44.9774 Q1306.85 44.9774 1306.93 45.7556 Q1307.15 53.2777 1311.63 57.4279 Q1316.04 61.541 1323.6 61.541 Q1328.16 61.541 1330.98 58.2802 Q1333.79 54.9823 1333.79 50.6839 Q1333.79 46.5708 1331.42 43.6805 Q1330.42 42.3836 1329.16 41.5683 Q1327.94 40.7161 1327.16 40.4567 Q1326.42 40.1973 1324.97 39.8268 Q1315.56 37.5664 1314.97 37.307 Q1310.49 35.7878 1307.74 31.9711 Q1305.04 28.1174 1305.04 23.4114 Q1305.04 17.3343 1309.3 13.036 Q1313.6 8.70052 1319.82 8.70052 Q1322.94 8.70052 1325.53 9.70101 Q1328.16 10.6644 1329.24 11.5538 Q1330.31 12.4431 1331.98 14.0364 L1334.61 9.70101 Q1335.2 8.70052 1335.76 8.70052 Q1336.35 8.70052 1336.46 9.07107 Q1336.61 9.40457 1336.61 10.5162 L1336.61 25.7829 Q1336.61 26.6352 1336.57 26.9316 Q1336.54 27.228 1336.28 27.4133 Q1336.05 27.5986 1335.61 27.5986 Q1334.87 27.5986 1334.68 26.7093 Q1332.57 10.8497 1319.9 10.8497 Q1315.56 10.8497 1312.71 13.7771 Q1309.89 16.6674 1309.89 20.7805 Q1309.89 24.1154 1311.97 26.8575 Q1314.04 29.5625 1317.56 30.4148 L1327.27 32.7492 Q1332.13 33.8979 1335.39 38.1963 Q1338.65 42.4947 1338.65 48.09 Q1338.65 54.5376 1334.42 59.2065 Q1330.24 63.8755 1323.68 63.8755 Q1318.97 63.8755 1315.34 62.3192 Q1311.71 60.7629 1309.75 58.5766 Q1308.23 61.0963 1307.23 62.5044 L1307 62.875 Q1306.41 63.8755 1305.85 63.8755 Q1305.26 63.8755 1305.15 63.5049 Q1305.04 63.1344 1305.04 62.0598 Z" fill="#000000" fill-rule="nonzero" fill-opacity="1" /><path clip-path="url(#clip140)" d="M1349.99 58.1319 Q1344.98 53.1666 1344.98 45.9779 Q1344.98 38.7522 1349.88 33.4903 Q1354.8 28.1915 1361.84 28.1915 Q1368.74 28.1915 1373.67 33.4533 Q1378.63 38.6781 1378.63 45.9779 Q1378.63 53.1295 1373.63 58.0949 Q1368.66 63.0603 1361.77 63.0603 Q1355.03 63.0603 1349.99 58.1319 M1351.28 45.348 Q1351.28 52.7219 1353.21 56.0569 Q1356.18 61.1334 1361.84 61.1334 Q1364.66 61.1334 1367 59.6141 Q1369.37 58.0949 1370.66 55.5381 Q1372.33 52.2031 1372.33 45.348 Q1372.33 38.0481 1370.33 34.8243 Q1367.37 29.896 1361.77 29.896 Q1359.32 29.896 1356.92 31.1929 Q1354.54 32.4528 1353.1 34.9725 Q1351.28 38.3075 1351.28 45.348 Z" fill="#000000" fill-rule="nonzero" fill-opacity="1" /><path clip-path="url(#clip140)" d="M1383.34 62.208 L1383.34 59.8735 Q1387.38 59.8735 1388.3 59.3918 Q1389.23 58.873 1389.23 56.4274 L1389.23 16.9638 Q1389.23 14.1476 1388.23 13.4436 Q1387.26 12.7395 1383.34 12.7395 L1383.34 10.368 L1394.23 9.55279 L1394.23 56.4274 Q1394.23 58.873 1395.19 59.3918 Q1396.16 59.8735 1400.16 59.8735 L1400.16 62.208 Q1399.23 62.208 1397.31 62.1339 Q1395.38 62.0598 1393.97 62.0227 Q1392.56 61.9857 1391.75 61.9857 Q1390.86 61.9857 1383.34 62.208 Z" fill="#000000" fill-rule="nonzero" fill-opacity="1" /><path clip-path="url(#clip140)" d="M1404.27 31.8599 L1404.27 29.4884 L1415.43 28.6732 L1415.43 53.8706 Q1415.43 55.6863 1415.57 56.7609 Q1415.72 57.7985 1416.32 59.0213 Q1416.95 60.2441 1418.35 60.7999 Q1419.8 61.3557 1422.1 61.3557 Q1426.21 61.3557 1428.73 57.9837 Q1431.29 54.6117 1431.29 49.6093 L1431.29 36.0842 Q1431.29 33.268 1430.29 32.564 Q1429.28 31.8599 1425.36 31.8599 L1425.36 29.4884 L1436.51 28.6732 L1436.51 55.6122 Q1436.51 58.4284 1437.47 59.1695 Q1438.47 59.8735 1442.44 59.8735 L1442.44 62.208 L1431.51 63.0603 L1431.51 56.2051 Q1428.32 63.0232 1421.73 63.0603 Q1418.39 63.0603 1416.09 62.208 Q1413.83 61.3557 1412.68 60.3182 Q1411.54 59.2436 1410.91 57.2056 Q1410.31 55.1675 1410.24 53.9077 Q1410.16 52.6478 1410.16 50.2022 L1410.16 38.8263 Q1410.16 33.6756 1409.42 32.7863 Q1408.68 31.8599 1404.27 31.8599 Z" fill="#000000" fill-rule="nonzero" fill-opacity="1" /><path clip-path="url(#clip140)" d="M1445.37 31.8599 L1445.37 30.1924 Q1448.85 30.0442 1451.15 27.5986 Q1453.48 25.1159 1454.26 22.0774 Q1455.08 19.0389 1455.15 15.5187 L1457.04 15.5187 L1457.04 29.4884 L1467.9 29.4884 L1467.9 31.8599 L1457.04 31.8599 L1457.04 52.9442 Q1457.04 61.1334 1462.15 61.1334 Q1464.34 61.1334 1465.78 58.9101 Q1467.23 56.6497 1467.23 52.6478 L1467.23 48.4606 L1469.12 48.4606 L1469.12 52.796 Q1469.12 56.9091 1467.23 59.9847 Q1465.34 63.0603 1461.6 63.0603 Q1460.23 63.0603 1458.85 62.6897 Q1457.52 62.3562 1455.74 61.4669 Q1454 60.5405 1452.89 58.3172 Q1451.81 56.0569 1451.81 52.796 L1451.81 31.8599 L1445.37 31.8599 Z" fill="#000000" fill-rule="nonzero" fill-opacity="1" /><path clip-path="url(#clip140)" d="M1475.86 62.208 L1475.86 59.8735 Q1479.9 59.8735 1480.83 59.3918 Q1481.75 58.873 1481.75 56.4274 L1481.75 36.0101 Q1481.75 33.1939 1480.79 32.5269 Q1479.86 31.8599 1476.16 31.8599 L1476.16 29.4884 L1486.76 28.6732 L1486.76 56.5015 Q1486.76 58.7619 1487.57 59.3177 Q1488.39 59.8735 1492.09 59.8735 L1492.09 62.208 Q1484.35 61.9857 1484.2 61.9857 Q1483.16 61.9857 1475.86 62.208 M1479.05 15.4445 Q1479.05 13.9253 1480.2 12.7025 Q1481.38 11.4426 1483.05 11.4426 Q1484.72 11.4426 1485.9 12.5913 Q1487.09 13.703 1487.09 15.4816 Q1487.09 17.2232 1485.9 18.3719 Q1484.72 19.4835 1483.05 19.4835 Q1481.31 19.4835 1480.16 18.2607 Q1479.05 17.0379 1479.05 15.4445 Z" fill="#000000" fill-rule="nonzero" fill-opacity="1" /><path clip-path="url(#clip140)" d="M1501.47 58.1319 Q1496.47 53.1666 1496.47 45.9779 Q1496.47 38.7522 1501.36 33.4903 Q1506.29 28.1915 1513.33 28.1915 Q1520.22 28.1915 1525.15 33.4533 Q1530.11 38.6781 1530.11 45.9779 Q1530.11 53.1295 1525.11 58.0949 Q1520.14 63.0603 1513.25 63.0603 Q1506.51 63.0603 1501.47 58.1319 M1502.76 45.348 Q1502.76 52.7219 1504.69 56.0569 Q1507.66 61.1334 1513.33 61.1334 Q1516.14 61.1334 1518.48 59.6141 Q1520.85 58.0949 1522.14 55.5381 Q1523.81 52.2031 1523.81 45.348 Q1523.81 38.0481 1521.81 34.8243 Q1518.85 29.896 1513.25 29.896 Q1510.81 29.896 1508.4 31.1929 Q1506.03 32.4528 1504.58 34.9725 Q1502.76 38.3075 1502.76 45.348 Z" fill="#000000" fill-rule="nonzero" fill-opacity="1" /><path clip-path="url(#clip140)" d="M1534.74 62.208 L1534.74 59.8735 Q1538.78 59.8735 1539.71 59.3918 Q1540.64 58.873 1540.64 56.4274 L1540.64 36.0842 Q1540.64 33.268 1539.63 32.564 Q1538.67 31.8599 1534.74 31.8599 L1534.74 29.4884 L1545.42 28.6732 L1545.42 36.64 Q1548.97 28.6732 1556.64 28.6732 Q1562.35 28.6732 1564.61 31.4894 Q1566.28 33.3792 1566.61 35.4913 Q1566.98 37.6035 1566.98 43.0876 L1566.98 57.5761 Q1567.06 59.1695 1568.28 59.54 Q1569.5 59.8735 1572.91 59.8735 L1572.91 62.208 Q1565.17 61.9857 1564.39 61.9857 Q1563.79 61.9857 1555.83 62.208 L1555.83 59.8735 Q1559.87 59.8735 1560.79 59.3918 Q1561.76 58.873 1561.76 56.4274 L1561.76 38.7522 Q1561.76 34.8984 1560.57 32.6381 Q1559.38 30.3407 1556.12 30.3407 Q1552.2 30.3407 1549.05 33.6386 Q1545.9 36.9365 1545.9 42.4947 L1545.9 56.4274 Q1545.9 58.873 1546.82 59.3918 Q1547.79 59.8735 1551.79 59.8735 L1551.79 62.208 Q1544.04 61.9857 1543.3 61.9857 Q1542.71 61.9857 1534.74 62.208 Z" fill="#000000" fill-rule="nonzero" fill-opacity="1" /><polyline clip-path="url(#clip142)" style="stroke:#d77255; stroke-linecap:round; stroke-linejoin:round; stroke-width:5.6; stroke-opacity:1; fill:none" points="108.463,1134.98 109.488,1134.58 111.163,1133.9 113.309,1133 115.674,1131.96 118.389,1130.72 121.336,1129.3 124.547,1127.68 127.965,1125.87 131.588,1123.84 135.386,1121.61 139.348,1119.15 143.454,1116.48 147.691,1113.58 152.049,1110.45 156.517,1107.09 161.089,1103.48 165.758,1099.61 170.519,1095.48 175.362,1091.09 180.275,1086.43 185.234,1081.52 190.214,1076.36 195.187,1071 200.135,1065.44 205.043,1059.69 209.904,1053.78 214.714,1047.71 219.47,1041.47 224.172,1035.09 228.822,1028.55 233.421,1021.86 237.971,1015.01 242.475,1008.02 246.934,1000.86 251.352,993.554 255.729,986.085 260.068,978.455 264.372,970.661 268.64,962.703 272.876,954.579 277.079,946.286 281.251,937.823 285.394,929.189 289.508,920.381 293.594,911.399 297.653,902.24 301.686,892.903 305.695,883.387 309.679,873.688 313.641,863.805 317.581,853.734 321.502,843.471 325.405,833.011 329.291,822.35 333.164,811.48 337.026,800.392 340.88,789.079 344.729,777.527 348.577,765.723 352.428,753.656 356.285,741.312 360.147,728.687 364.013,715.79 367.868,702.663 371.695,689.376 375.469,676.017 379.175,662.655 382.801,649.346 386.344,636.123 389.802,623.009 393.176,610.02 396.468,597.161 399.682,584.438 402.822,571.85 405.891,559.398 408.894,547.076 411.834,534.884 414.717,522.817 417.545,510.872 420.322,499.046 423.052,487.335 425.737,475.737 428.381,464.249 430.987,452.87 433.556,441.596 436.093,430.429 438.598,419.366 441.075,408.407 443.525,397.552 445.95,386.804 448.354,376.16 450.737,365.623 453.101,355.196 455.449,344.881 457.782,334.679 460.102,324.595 462.412,314.633 464.713,304.796 467.007,295.089 469.297,285.519 471.584,276.091 473.871,266.811 476.161,257.689 478.458,248.731 480.763,239.948 483.081,231.35 485.417,222.949 487.776,214.758 490.165,206.789 492.592,199.062 495.069,191.588 497.614,184.385 500.247,177.483 502.964,170.994 505.667,165.229 508.308,160.313 510.89,156.241 513.409,153.016 515.867,150.621 518.268,149.041 520.613,148.259 522.908,148.258 525.156,149.019 527.361,150.527 529.528,152.769 531.659,155.731 533.759,159.405 535.831,163.78 537.878,168.851 539.905,174.612 541.913,181.056 543.905,188.18 545.882,195.974 547.848,204.433 549.801,213.546 551.746,223.302 553.68,233.684 555.606,244.678 557.525,256.264 559.436,268.423 561.343,281.142 563.245,294.401 565.147,308.191 567.049,322.5 568.957,337.333 570.873,352.689 572.805,368.594 574.758,385.077 576.744,402.191 578.775,420.039 580.865,438.695 583.007,458.083 585.13,477.505 587.208,496.652 589.241,515.473 591.229,533.913 593.178,551.966 595.087,569.614 596.964,586.872 598.81,603.736 600.63,620.221 602.427,636.332 604.204,652.086 605.964,667.486 607.71,682.551 609.444,697.286 611.169,711.702 612.887,725.808 614.601,739.611 616.311,753.121 618.021,766.342 619.732,779.289 621.447,791.963 623.166,804.376 624.893,816.532 626.629,828.441 628.376,840.111 630.138,851.552 631.915,862.768 633.712,873.774 635.532,884.579 637.378,895.197 639.257,905.644 641.172,915.936 643.133,926.099 645.15,936.171 647.24,946.204 649.433,956.305 651.791,966.689 654.261,977.055 656.592,986.376 658.917,995.24 661.188,1003.49 663.434,1011.28 665.649,1018.61 667.841,1025.54 670.014,1032.09 672.172,1038.3 674.319,1044.19 676.458,1049.8 678.593,1055.14 680.727,1060.24 682.863,1065.1 685.004,1069.75 687.153,1074.2 689.312,1078.46 691.484,1082.53 693.671,1086.44 695.876,1090.19 698.101,1093.78 700.35,1097.23 702.623,1100.53 704.925,1103.7 707.258,1106.74 709.626,1109.66 712.032,1112.45 714.48,1115.12 716.974,1117.69 719.52,1120.14 722.124,1122.48 724.794,1124.72 727.539,1126.86 730.373,1128.9 733.315,1130.84 736.394,1132.7 739.661,1134.49 743.174,1136.2 746.686,1137.71 750.151,1139.02 753.595,1140.13 757.011,1141.08 760.41,1141.86 763.793,1142.5 767.167,1142.99 770.537,1143.34 773.907,1143.56 777.283,1143.66 780.669,1143.64 784.071,1143.5 787.492,1143.24 790.939,1142.86 794.413,1142.37 797.921,1141.75 801.466,1141.02 805.052,1140.17 808.685,1139.19 812.367,1138.08 816.103,1136.84 819.898,1135.46 823.755,1133.94 827.679,1132.27 831.673,1130.44 835.74,1128.45 839.882,1126.28 844.102,1123.94 848.399,1121.41 852.772,1118.68 857.222,1115.76 861.745,1112.62 866.341,1109.26 871.008,1105.68 875.749,1101.86 880.562,1097.8 885.443,1093.48 890.389,1088.9 895.379,1084.06 900.395,1078.99 905.408,1073.69 910.396,1068.19 915.347,1062.51 920.248,1056.66 925.096,1050.64 929.888,1044.47 934.625,1038.15 939.306,1031.67 943.934,1025.05 948.512,1018.27 953.041,1011.34 957.523,1004.26 961.962,997.018 966.36,989.622 970.718,982.065 975.04,974.347 979.325,966.465 983.577,958.418 987.795,950.203 991.983,941.819 996.14,933.264 1000.27,924.537 1004.37,915.637 1008.44,906.56 1012.48,897.307 1016.5,887.875 1020.5,878.262 1024.47,868.465 1028.42,858.483 1032.35,848.31 1036.26,837.944 1040.16,827.377 1044.04,816.606 1047.9,805.621 1051.76,794.416 1055.61,782.976 1059.46,771.292 1063.31,759.351 1067.16,747.138 1071.02,734.645 1074.89,721.872 1078.75,708.845 1082.59,695.623 1086.39,682.289 1090.13,668.92 1093.8,655.581 1097.38,642.313 1100.88,629.146 1104.29,616.097 1107.62,603.177 1110.87,590.39 1114.04,577.739 1117.15,565.223 1120.18,552.84 1123.15,540.588 1126.06,528.463 1128.91,516.462 1131.71,504.581 1134.46,492.816 1137.17,481.166 1139.83,469.626 1142.46,458.196 1145.04,446.874 1147.59,435.657 1150.11,424.544 1152.6,413.537 1155.07,402.633 1157.5,391.834 1159.92,381.14 1162.31,370.553 1164.68,360.074 1167.04,349.705 1169.38,339.45 1171.7,329.311 1174.02,319.29 1176.32,309.394 1178.62,299.625 1180.91,289.99 1183.2,280.494 1185.49,271.143 1187.77,261.946 1190.07,252.909 1192.37,244.042 1194.68,235.356 1197.01,226.861 1199.35,218.569 1201.73,210.495 1204.14,202.651 1206.59,195.056 1209.1,187.723 1211.69,180.674 1214.37,173.964 1217.1,167.823 1219.76,162.513 1222.38,158.043 1224.92,154.423 1227.41,151.64 1229.84,149.681 1232.21,148.528 1234.53,148.163 1236.8,148.568 1239.02,149.728 1241.2,151.628 1243.35,154.254 1245.47,157.595 1247.55,161.643 1249.61,166.389 1251.64,171.827 1253.66,177.951 1255.66,184.757 1257.64,192.237 1259.61,200.386 1261.57,209.193 1263.52,218.649 1265.46,228.737 1267.39,239.446 1269.31,250.75 1271.23,262.643 1273.13,275.097 1275.04,288.101 1276.94,301.637 1278.84,315.704 1280.75,330.29 1282.66,345.398 1284.58,361.039 1286.52,377.243 1288.49,394.048 1290.5,411.534 1292.56,429.796 1294.68,448.899 1296.82,468.395 1298.92,487.67 1300.98,506.66 1302.99,525.276 1304.95,543.513 1306.88,561.351 1308.77,578.792 1310.63,595.84 1312.46,612.5 1314.27,628.785 1316.06,644.708 1317.82,660.273 1319.58,675.496 1321.32,690.384 1323.04,704.948 1324.77,719.199 1326.48,733.142 1328.19,746.788 1329.9,760.144 1331.61,773.217 1333.32,786.019 1335.04,798.551 1336.76,810.827 1338.5,822.851 1340.24,834.632 1341.99,846.18 1343.76,857.499 1345.55,868.604 1347.36,879.502 1349.19,890.207 1351.05,900.732 1352.95,911.094 1354.89,921.313 1356.88,931.426 1358.93,941.468 1361.07,951.523 1363.34,961.735 1365.81,972.328 1368.18,982.04 1370.52,991.143 1372.81,999.662 1375.07,1007.67 1377.29,1015.21 1379.5,1022.32 1381.68,1029.04 1383.84,1035.41 1386,1041.45 1388.14,1047.19 1390.27,1052.66 1392.41,1057.87 1394.54,1062.84 1396.68,1067.59 1398.83,1072.13 1400.98,1076.47 1403.15,1080.64 1405.33,1084.62 1407.52,1088.45 1409.74,1092.11 1411.98,1095.63 1414.24,1099 1416.53,1102.23 1418.84,1105.33 1421.19,1108.3 1423.58,1111.15 1426.01,1113.88 1428.48,1116.49 1431,1119 1433.58,1121.39 1436.21,1123.68 1438.92,1125.86 1441.71,1127.95 1444.6,1129.94 1447.61,1131.84 1450.78,1133.66 1454.18,1135.41 1457.74,1137.04 1461.21,1138.42 1464.67,1139.63 1468.09,1140.66 1471.5,1141.51 1474.89,1142.22 1478.27,1142.77 1481.64,1143.19 1485.01,1143.48 1488.39,1143.63 1491.77,1143.67 1495.16,1143.58 1498.57,1143.37 1502.01,1143.05 1505.47,1142.61 1508.96,1142.05 1512.49,1141.38 1516.05,1140.58 1519.66,1139.66 1523.32,1138.61 1527.03,1137.44 1530.8,1136.12 1534.63,1134.67 1538.52,1133.07 1542.48,1131.32 1546.51,1129.4 1550.62,1127.32 1554.8,1125.06 1559.06,1122.62 1563.4,1119.99 1567.81,1117.15 1572.3,1114.12 1576.87,1110.86 1581.5,1107.39 1586.21,1103.68 1590.99,1099.73 1595.83,1095.54 1600.75,1091.08 1605.72,1086.36 1610.73,1081.39 1615.75,1076.2 1620.75,1070.79 1625.72,1065.19 1630.65,1059.42 1635.52,1053.48 1640.34,1047.38 1645.1,1041.13 1649.81,1034.73 1654.46,1028.17 1659.06,1021.46 1663.61,1014.6 1668.12,1007.59 1672.58,1000.43 1676.99,993.104 1681.37,985.622 1685.71,977.98 1690.01,970.175 1694.28,962.205 1698.51,954.068 1702.71,945.764 1706.88,937.29 1711.03,928.643 1715.14,919.824 1719.22,910.83 1723.28,901.66 1727.31,892.312 1731.32,882.784 1735.3,873.074 1739.26,863.179 1743.2,853.096 1747.12,842.821 1751.02,832.349 1754.91,821.675 1758.78,810.791 1762.64,799.69 1766.49,788.362 1770.34,776.794 1774.19,764.975 1778.04,752.89 1781.9,740.53 1785.76,727.886 1789.63,714.976 1793.48,701.836 1797.31,688.545 1801.08,675.183 1804.78,661.824 1808.4,648.519 1811.94,635.302 1815.39,622.196 1818.76,609.215 1822.04,596.365 1825.25,583.65 1828.39,571.07 1831.45,558.625 1834.45,546.312 1837.39,534.127 1840.27,522.069 1843.09,510.132 1845.87,498.313 1848.59,486.61 1851.28,475.019 1853.92,463.538 1856.52,452.165 1859.09,440.899 1861.62,429.737 1864.13,418.681 1866.6,407.729 1869.05,396.882 1871.47,386.139 1873.88,375.502 1876.26,364.972 1878.62,354.552 1880.97,344.243 1883.3,334.049 1885.62,323.971 1887.93,314.017 1890.23,304.188 1892.52,294.49 1894.81,284.928 1897.1,275.509 1899.39,266.238 1901.68,257.126 1903.98,248.177 1906.28,239.406 1908.6,230.819 1910.94,222.43 1913.3,214.253 1915.69,206.301 1918.12,198.587 1920.6,191.129 1923.15,183.944 1925.79,177.062 1928.51,170.608 1931.21,164.898 1933.85,160.032 1936.42,156.015 1938.94,152.841 1941.39,150.498 1943.79,148.969 1946.13,148.237 1948.42,148.283 1950.67,149.092 1952.87,150.647 1955.04,152.934 1957.17,155.941 1959.26,159.659 1961.33,164.078 1963.38,169.192 1965.41,174.995 1967.41,181.482 1969.4,188.648 1971.38,196.484 1973.34,204.985 1975.3,214.137 1977.24,223.932 1979.17,234.352 1981.1,245.383 1983.02,257.007 1984.93,269.202 1986.84,281.953 1988.74,295.243 1990.64,309.066 1992.54,323.405 1994.45,338.272 1996.37,353.664 1998.3,369.602 2000.26,386.125 2002.24,403.285 2004.28,421.172 2006.37,439.89 2008.51,459.299 2010.63,478.708 2012.71,497.838 2014.74,516.633 2016.73,535.05 2018.67,553.075 2020.58,570.701 2022.45,587.931 2024.3,604.77 2026.12,621.231 2027.91,637.32 2029.69,653.051 2031.45,668.432 2033.19,683.475 2034.93,698.192 2036.65,712.587 2038.37,726.673 2040.08,740.458 2041.79,753.948 2043.5,767.153 2045.21,780.082 2046.93,792.739 2048.65,805.134 2050.37,817.275 2052.11,829.17 2053.86,840.823 2055.62,852.248 2057.4,863.452 2059.2,874.447 2061.02,885.241 2062.87,895.847 2064.75,906.283 2066.67,916.566 2068.63,926.723 2070.65,936.79 2072.75,946.83 2074.95,956.939 2077.32,967.357 2079.78,977.65 2082.11,986.94 2084.43,995.763 2086.7,1003.99 2088.94,1011.75 2091.16,1019.05 2093.35,1025.95 2095.52,1032.48 2097.68,1038.67 2099.82,1044.55 2101.96,1050.14 2104.1,1055.46 2106.23,1060.54 2108.37,1065.39 2110.51,1070.03 2112.66,1074.47 2114.82,1078.71 2116.99,1082.78 2119.18,1086.68 2121.39,1090.42 2123.61,1094 2125.86,1097.44 2128.14,1100.73 2130.44,1103.89 2132.78,1106.93 2135.15,1109.83 2137.56,1112.62 2140.01,1115.29 2142.5,1117.84 2145.05,1120.28 2147.66,1122.62 2150.33,1124.85 2153.08,1126.99 2155.93,1129.02 2158.87,1130.96 2161.96,1132.82 2165.24,1134.6 2168.77,1136.3 2172.27,1137.8 2175.74,1139.09 2179.18,1140.2 2182.59,1141.13 2185.99,1141.91 2189.37,1142.53 2192.75,1143.01 2196.12,1143.36 2199.49,1143.57 2202.86,1143.67 2206.25,1143.64 2209.66,1143.49 2213.08,1143.22 2216.53,1142.83 2220,1142.33 2223.51,1141.71 2227.06,1140.97 2230.65,1140.11 2234.29,1139.12 2237.97,1138.01 2241.71,1136.76 2245.51,1135.37 2249.37,1133.84 2253.3,1132.16 2256.76,1130.58 "/>
<polyline clip-path="url(#clip142)" style="stroke:#009afa; stroke-linecap:round; stroke-linejoin:round; stroke-width:5.6; stroke-opacity:1; fill:none" points="108.463,1134.98 109.488,1136.57 111.163,1139.12 113.309,1142.33 115.674,1145.79 118.389,1149.64 121.336,1153.71 124.547,1158 127.965,1162.4 131.588,1166.9 135.386,1171.42 139.348,1175.95 143.454,1180.45 147.691,1184.88 152.049,1189.22 156.517,1193.47 161.089,1197.6 165.758,1201.61 170.519,1205.49 175.362,1209.23 180.275,1212.82 185.234,1216.24 190.214,1219.49 195.187,1222.56 200.135,1225.44 205.043,1228.13 209.904,1230.65 214.714,1233 219.47,1235.2 224.172,1237.25 228.822,1239.16 233.421,1240.95 237.971,1242.61 242.475,1244.16 246.934,1245.61 251.352,1246.96 255.729,1248.22 260.068,1249.39 264.372,1250.47 268.64,1251.48 272.876,1252.42 277.079,1253.28 281.251,1254.07 285.394,1254.81 289.508,1255.47 293.594,1256.08 297.653,1256.63 301.686,1257.12 305.695,1257.56 309.679,1257.94 313.641,1258.27 317.581,1258.55 321.502,1258.78 325.405,1258.95 329.291,1259.08 333.164,1259.15 337.026,1259.18 340.88,1259.15 344.729,1259.07 348.577,1258.93 352.428,1258.74 356.285,1258.5 360.147,1258.19 364.013,1257.81 367.868,1257.38 371.695,1256.87 375.469,1256.31 379.175,1255.69 382.801,1255 386.344,1254.26 389.802,1253.47 393.176,1252.62 396.468,1251.71 399.682,1250.76 402.822,1249.75 405.891,1248.69 408.894,1247.57 411.834,1246.4 414.717,1245.17 417.545,1243.88 420.322,1242.53 423.052,1241.12 425.737,1239.65 428.381,1238.11 430.987,1236.5 433.556,1234.82 436.093,1233.06 438.598,1231.23 441.075,1229.31 443.525,1227.31 445.95,1225.22 448.354,1223.03 450.737,1220.74 453.101,1218.35 455.449,1215.84 457.782,1213.22 460.102,1210.47 462.412,1207.59 464.713,1204.57 467.007,1201.4 469.297,1198.07 471.584,1194.56 473.871,1190.87 476.161,1186.99 478.458,1182.88 480.763,1178.55 483.081,1173.96 485.417,1169.08 487.776,1163.9 490.165,1158.37 492.592,1152.44 495.069,1146.05 497.614,1139.12 500.247,1131.55 502.964,1123.26 505.667,1114.54 508.308,1105.53 510.89,1096.23 513.409,1086.68 515.867,1076.89 518.268,1066.87 520.613,1056.63 522.908,1046.18 525.156,1035.51 527.361,1024.64 529.528,1013.55 531.659,1002.26 533.759,990.769 535.831,979.068 537.878,967.164 539.905,955.057 541.913,942.753 543.905,930.255 545.882,917.577 547.848,904.725 549.801,891.718 551.746,878.57 553.68,865.306 555.606,851.944 557.525,838.51 559.436,825.028 561.343,811.514 563.245,797.993 565.147,784.481 567.049,770.994 568.957,757.539 570.873,744.129 572.805,730.757 574.758,717.423 576.744,704.11 578.775,690.778 580.865,677.422 583.007,664.15 585.13,651.464 587.208,639.545 589.241,628.394 591.229,618.014 593.178,608.378 595.087,599.466 596.964,591.246 598.81,583.697 600.63,576.79 602.427,570.503 604.204,564.814 605.964,559.703 607.71,555.151 609.444,551.142 611.169,547.662 612.887,544.697 614.601,542.234 616.311,540.264 618.021,538.775 619.732,537.76 621.447,537.209 623.166,537.115 624.893,537.473 626.629,538.278 628.376,539.524 630.138,541.211 631.915,543.334 633.712,545.896 635.532,548.897 637.378,552.344 639.257,556.245 641.172,560.612 643.133,565.468 645.15,570.846 647.24,576.8 649.433,583.44 651.791,590.989 654.261,599.315 656.592,607.528 658.917,616.027 661.188,624.592 663.434,633.296 665.649,642.076 667.841,650.939 670.014,659.867 672.172,668.856 674.319,677.897 676.458,686.99 678.593,696.13 680.727,705.316 682.863,714.545 685.004,723.816 687.153,733.128 689.312,742.48 691.484,751.87 693.671,761.301 695.876,770.769 698.101,780.276 700.35,789.82 702.623,799.402 704.925,809.022 707.258,818.684 709.626,828.387 712.032,838.137 714.48,847.934 716.974,857.787 719.52,867.7 722.124,877.685 724.794,887.753 727.539,897.926 730.373,908.23 733.315,918.712 736.394,929.443 739.661,940.56 743.174,952.207 746.686,963.528 750.151,974.384 753.595,984.863 757.011,994.958 760.41,1004.71 763.793,1014.12 767.167,1023.23 770.537,1032.05 773.907,1040.6 777.283,1048.9 780.669,1056.96 784.071,1064.79 787.492,1072.42 790.939,1079.84 794.413,1087.08 797.921,1094.13 801.466,1101.01 805.052,1107.72 808.685,1114.27 812.367,1120.67 816.103,1126.92 819.898,1133.02 823.755,1138.98 827.679,1144.8 831.673,1150.48 835.74,1156.02 839.882,1161.42 844.102,1166.68 848.399,1171.8 852.772,1176.77 857.222,1181.6 861.745,1186.26 866.341,1190.77 871.008,1195.12 875.749,1199.32 880.562,1203.36 885.443,1207.24 890.389,1210.96 895.379,1214.51 900.395,1217.88 905.408,1221.06 910.396,1224.05 915.347,1226.84 920.248,1229.45 925.096,1231.89 929.888,1234.17 934.625,1236.29 939.306,1238.27 943.934,1240.12 948.512,1241.84 953.041,1243.44 957.523,1244.94 961.962,1246.34 966.36,1247.64 970.718,1248.85 975.04,1249.97 979.325,1251.02 983.577,1251.99 987.795,1252.88 991.983,1253.71 996.14,1254.47 1000.27,1255.17 1004.37,1255.8 1008.44,1256.38 1012.48,1256.9 1016.5,1257.36 1020.5,1257.77 1024.47,1258.12 1028.42,1258.42 1032.35,1258.68 1036.26,1258.88 1040.16,1259.03 1044.04,1259.12 1047.9,1259.17 1051.76,1259.17 1055.61,1259.11 1059.46,1259 1063.31,1258.84 1067.16,1258.62 1071.02,1258.34 1074.89,1258 1078.75,1257.59 1082.59,1257.12 1086.39,1256.58 1090.13,1255.99 1093.8,1255.33 1097.38,1254.62 1100.88,1253.85 1104.29,1253.02 1107.62,1252.14 1110.87,1251.21 1114.04,1250.23 1117.15,1249.19 1120.18,1248.1 1123.15,1246.95 1126.06,1245.75 1128.91,1244.49 1131.71,1243.17 1134.46,1241.79 1137.17,1240.35 1139.83,1238.84 1142.46,1237.27 1145.04,1235.62 1147.59,1233.9 1150.11,1232.1 1152.6,1230.22 1155.07,1228.26 1157.5,1226.21 1159.92,1224.07 1162.31,1221.83 1164.68,1219.48 1167.04,1217.03 1169.38,1214.46 1171.7,1211.78 1174.02,1208.96 1176.32,1206 1178.62,1202.9 1180.91,1199.65 1183.2,1196.23 1185.49,1192.63 1187.77,1188.83 1190.07,1184.84 1192.37,1180.61 1194.68,1176.14 1197.01,1171.4 1199.35,1166.37 1201.73,1161 1204.14,1155.27 1206.59,1149.11 1209.1,1142.44 1211.69,1135.18 1214.37,1127.22 1217.1,1118.66 1219.76,1109.79 1222.38,1100.62 1224.92,1091.19 1227.41,1081.51 1229.84,1071.6 1232.21,1061.46 1234.53,1051.1 1236.8,1040.54 1239.02,1029.76 1241.2,1018.77 1243.35,1007.58 1245.47,996.181 1247.55,984.577 1249.61,972.766 1251.64,960.755 1253.66,948.544 1255.66,936.136 1257.64,923.541 1259.61,910.769 1261.57,897.834 1263.52,884.75 1265.46,871.541 1267.39,858.222 1269.31,844.827 1271.23,831.363 1273.13,817.866 1275.04,804.35 1276.94,790.837 1278.84,777.335 1280.75,763.864 1282.66,750.432 1284.58,737.046 1286.52,723.696 1288.49,710.378 1290.5,697.062 1292.56,683.72 1294.68,670.361 1296.82,657.339 1298.92,645.064 1300.98,633.546 1302.99,622.809 1304.95,612.825 1306.88,603.576 1308.77,595.033 1310.63,587.172 1312.46,579.966 1314.27,573.39 1316.06,567.421 1317.82,562.04 1319.58,557.227 1321.32,552.964 1323.04,549.237 1324.77,546.031 1326.48,543.333 1328.19,541.132 1329.9,539.418 1331.61,538.18 1333.32,537.411 1335.04,537.103 1336.76,537.249 1338.5,537.843 1340.24,538.881 1341.99,540.36 1343.76,542.277 1345.55,544.632 1347.36,547.425 1349.19,550.661 1351.05,554.346 1352.95,558.491 1354.89,563.112 1356.88,568.239 1358.93,573.913 1361.07,580.213 1363.34,587.293 1365.81,595.417 1368.18,603.618 1370.52,612.012 1372.81,620.535 1375.07,629.184 1377.29,637.927 1379.5,646.755 1381.68,655.652 1383.84,664.613 1386,673.631 1388.14,682.7 1390.27,691.818 1392.41,700.983 1394.54,710.191 1396.68,719.444 1398.83,728.736 1400.98,738.071 1403.15,747.444 1405.33,756.857 1407.52,766.307 1409.74,775.796 1411.98,785.323 1414.24,794.887 1416.53,804.49 1418.84,814.132 1421.19,823.816 1423.58,833.542 1426.01,843.316 1428.48,853.14 1431,863.024 1433.58,872.972 1436.21,883 1438.92,893.121 1441.71,903.359 1444.6,913.75 1447.61,924.352 1450.78,935.264 1454.18,946.667 1457.74,958.31 1461.21,969.31 1464.67,980 1468.09,990.258 1471.5,1000.18 1474.89,1009.74 1478.27,1019 1481.64,1027.95 1485.01,1036.62 1488.39,1045.04 1491.77,1053.21 1495.16,1061.15 1498.57,1068.87 1502.01,1076.39 1505.47,1083.71 1508.96,1090.84 1512.49,1097.8 1516.05,1104.59 1519.66,1111.22 1523.32,1117.69 1527.03,1124.01 1530.8,1130.18 1534.63,1136.2 1538.52,1142.09 1542.48,1147.83 1546.51,1153.44 1550.62,1158.91 1554.8,1164.24 1559.06,1169.42 1563.4,1174.46 1567.81,1179.36 1572.3,1184.09 1576.87,1188.68 1581.5,1193.1 1586.21,1197.37 1590.99,1201.49 1595.83,1205.44 1600.75,1209.24 1605.72,1212.87 1610.73,1216.32 1615.75,1219.59 1620.75,1222.67 1625.72,1225.56 1630.65,1228.25 1635.52,1230.77 1640.34,1233.12 1645.1,1235.32 1649.81,1237.36 1654.46,1239.27 1659.06,1241.05 1663.61,1242.71 1668.12,1244.25 1672.58,1245.7 1676.99,1247.04 1681.37,1248.29 1685.71,1249.46 1690.01,1250.54 1694.28,1251.54 1698.51,1252.47 1702.71,1253.33 1706.88,1254.12 1711.03,1254.85 1715.14,1255.51 1719.22,1256.12 1723.28,1256.66 1727.31,1257.15 1731.32,1257.58 1735.3,1257.96 1739.26,1258.29 1743.2,1258.56 1747.12,1258.79 1751.02,1258.96 1754.91,1259.08 1758.78,1259.16 1762.64,1259.18 1766.49,1259.15 1770.34,1259.06 1774.19,1258.92 1778.04,1258.73 1781.9,1258.48 1785.76,1258.17 1789.63,1257.79 1793.48,1257.35 1797.31,1256.84 1801.08,1256.27 1804.78,1255.64 1808.4,1254.96 1811.94,1254.21 1815.39,1253.41 1818.76,1252.56 1822.04,1251.66 1825.25,1250.7 1828.39,1249.68 1831.45,1248.62 1834.45,1247.5 1837.39,1246.32 1840.27,1245.09 1843.09,1243.8 1845.87,1242.45 1848.59,1241.03 1851.28,1239.56 1853.92,1238.01 1856.52,1236.4 1859.09,1234.71 1861.62,1232.95 1864.13,1231.11 1866.6,1229.19 1869.05,1227.18 1871.47,1225.08 1873.88,1222.89 1876.26,1220.6 1878.62,1218.2 1880.97,1215.68 1883.3,1213.05 1885.62,1210.3 1887.93,1207.41 1890.23,1204.38 1892.52,1201.2 1894.81,1197.85 1897.1,1194.34 1899.39,1190.64 1901.68,1186.74 1903.98,1182.62 1906.28,1178.27 1908.6,1173.66 1910.94,1168.77 1913.3,1163.56 1915.69,1158.01 1918.12,1152.05 1920.6,1145.64 1923.15,1138.67 1925.79,1131.05 1928.51,1122.73 1931.21,1113.99 1933.85,1104.95 1936.42,1095.64 1938.94,1086.07 1941.39,1076.27 1943.79,1066.24 1946.13,1055.98 1948.42,1045.52 1950.67,1034.84 1952.87,1023.95 1955.04,1012.85 1957.17,1001.55 1959.26,990.041 1961.33,978.328 1963.38,966.411 1965.41,954.293 1967.41,941.975 1969.4,929.467 1971.38,916.777 1973.34,903.914 1975.3,890.899 1977.24,877.745 1979.17,864.475 1981.1,851.108 1983.02,837.669 1984.93,824.184 1986.84,810.671 1988.74,797.153 1990.64,783.641 1992.54,770.158 1994.45,756.704 1996.37,743.294 1998.3,729.927 2000.26,716.592 2002.24,703.277 2004.28,689.95 2006.37,676.586 2008.51,663.338 2010.63,650.697 2012.71,638.826 2014.74,627.726 2016.73,617.392 2018.67,607.803 2020.58,598.934 2022.45,590.758 2024.3,583.25 2026.12,576.382 2027.91,570.133 2029.69,564.48 2031.45,559.404 2033.19,554.886 2034.93,550.91 2036.65,547.463 2038.37,544.529 2040.08,542.098 2041.79,540.158 2043.5,538.699 2045.21,537.712 2046.93,537.19 2048.65,537.124 2050.37,537.51 2052.11,538.342 2053.86,539.616 2055.62,541.329 2057.4,543.479 2059.2,546.068 2061.02,549.098 2062.87,552.572 2064.75,556.5 2066.67,560.897 2068.63,565.784 2070.65,571.195 2072.75,577.192 2074.95,583.879 2077.32,591.501 2079.78,599.818 2082.11,608.048 2084.43,616.551 2086.7,625.124 2088.94,633.833 2091.16,642.619 2093.35,651.487 2095.52,660.418 2097.68,669.409 2099.82,678.455 2101.96,687.551 2104.1,696.693 2106.23,705.882 2108.37,715.113 2110.51,724.387 2112.66,733.703 2114.82,743.056 2116.99,752.45 2119.18,761.882 2121.39,771.351 2123.61,780.861 2125.86,790.406 2128.14,799.991 2130.44,809.615 2132.78,819.279 2135.15,828.986 2137.56,838.738 2140.01,848.539 2142.5,858.395 2145.05,868.312 2147.66,878.301 2150.33,888.376 2153.08,898.554 2155.93,908.87 2158.87,919.361 2161.96,930.114 2165.24,941.26 2168.77,952.925 2172.27,964.202 2175.74,975.04 2179.18,985.492 2182.59,995.567 2185.99,1005.3 2189.37,1014.69 2192.75,1023.78 2196.12,1032.59 2199.49,1041.12 2202.86,1049.4 2206.25,1057.45 2209.66,1065.27 2213.08,1072.88 2216.53,1080.29 2220,1087.52 2223.51,1094.56 2227.06,1101.43 2230.65,1108.13 2234.29,1114.67 2237.97,1121.06 2241.71,1127.3 2245.51,1133.39 2249.37,1139.34 2253.3,1145.15 2256.76,1150.07 "/>
</svg>
