<?xml version="1.0" encoding="utf-8"?>
<svg xmlns="http://www.w3.org/2000/svg" xmlns:xlink="http://www.w3.org/1999/xlink" width="768" height="480" viewBox="0 0 3072 1920">
<defs>
  <clipPath id="clip870">
    <rect x="0" y="0" width="3072" height="1920"/>
  </clipPath>
</defs>
<path clip-path="url(#clip870)" d="M0 1920 L3072 1920 L3072 0 L0 0  Z" fill="#ffffff" fill-rule="evenodd" fill-opacity="1"/>
<defs>
  <clipPath id="clip871">
    <rect x="314" y="174" width="1748" height="1493"/>
  </clipPath>
</defs>
<path clip-path="url(#clip870)" d="M214.411 1678.07 L2961.76 1678.07 L2961.76 174.584 L214.411 174.584  Z" fill="#ffffff" fill-rule="evenodd" fill-opacity="1"/>
<defs>
  <clipPath id="clip872">
    <rect x="214" y="174" width="2748" height="1504"/>
  </clipPath>
</defs>
<polyline clip-path="url(#clip872)" style="stroke:#000000; stroke-linecap:round; stroke-linejoin:round; stroke-width:2; stroke-opacity:0.06; fill:none" points="324.305,1678.07 324.305,174.584 "/>
<polyline clip-path="url(#clip872)" style="stroke:#000000; stroke-linecap:round; stroke-linejoin:round; stroke-width:2; stroke-opacity:0.06; fill:none" points="434.199,1678.07 434.199,174.584 "/>
<polyline clip-path="url(#clip872)" style="stroke:#000000; stroke-linecap:round; stroke-linejoin:round; stroke-width:2; stroke-opacity:0.06; fill:none" points="544.094,1678.07 544.094,174.584 "/>
<polyline clip-path="url(#clip872)" style="stroke:#000000; stroke-linecap:round; stroke-linejoin:round; stroke-width:2; stroke-opacity:0.06; fill:none" points="653.988,1678.07 653.988,174.584 "/>
<polyline clip-path="url(#clip872)" style="stroke:#000000; stroke-linecap:round; stroke-linejoin:round; stroke-width:2; stroke-opacity:0.06; fill:none" points="873.776,1678.07 873.776,174.584 "/>
<polyline clip-path="url(#clip872)" style="stroke:#000000; stroke-linecap:round; stroke-linejoin:round; stroke-width:2; stroke-opacity:0.06; fill:none" points="983.67,1678.07 983.67,174.584 "/>
<polyline clip-path="url(#clip872)" style="stroke:#000000; stroke-linecap:round; stroke-linejoin:round; stroke-width:2; stroke-opacity:0.06; fill:none" points="1093.56,1678.07 1093.56,174.584 "/>
<polyline clip-path="url(#clip872)" style="stroke:#000000; stroke-linecap:round; stroke-linejoin:round; stroke-width:2; stroke-opacity:0.06; fill:none" points="1203.46,1678.07 1203.46,174.584 "/>
<polyline clip-path="url(#clip872)" style="stroke:#000000; stroke-linecap:round; stroke-linejoin:round; stroke-width:2; stroke-opacity:0.06; fill:none" points="1423.25,1678.07 1423.25,174.584 "/>
<polyline clip-path="url(#clip872)" style="stroke:#000000; stroke-linecap:round; stroke-linejoin:round; stroke-width:2; stroke-opacity:0.06; fill:none" points="1533.14,1678.07 1533.14,174.584 "/>
<polyline clip-path="url(#clip872)" style="stroke:#000000; stroke-linecap:round; stroke-linejoin:round; stroke-width:2; stroke-opacity:0.06; fill:none" points="1643.03,1678.07 1643.03,174.584 "/>
<polyline clip-path="url(#clip872)" style="stroke:#000000; stroke-linecap:round; stroke-linejoin:round; stroke-width:2; stroke-opacity:0.06; fill:none" points="1752.93,1678.07 1752.93,174.584 "/>
<polyline clip-path="url(#clip872)" style="stroke:#000000; stroke-linecap:round; stroke-linejoin:round; stroke-width:2; stroke-opacity:0.06; fill:none" points="1972.72,1678.07 1972.72,174.584 "/>
<polyline clip-path="url(#clip872)" style="stroke:#000000; stroke-linecap:round; stroke-linejoin:round; stroke-width:2; stroke-opacity:0.06; fill:none" points="2082.61,1678.07 2082.61,174.584 "/>
<polyline clip-path="url(#clip872)" style="stroke:#000000; stroke-linecap:round; stroke-linejoin:round; stroke-width:2; stroke-opacity:0.06; fill:none" points="2192.51,1678.07 2192.51,174.584 "/>
<polyline clip-path="url(#clip872)" style="stroke:#000000; stroke-linecap:round; stroke-linejoin:round; stroke-width:2; stroke-opacity:0.06; fill:none" points="2302.4,1678.07 2302.4,174.584 "/>
<polyline clip-path="url(#clip872)" style="stroke:#000000; stroke-linecap:round; stroke-linejoin:round; stroke-width:2; stroke-opacity:0.06; fill:none" points="2522.19,1678.07 2522.19,174.584 "/>
<polyline clip-path="url(#clip872)" style="stroke:#000000; stroke-linecap:round; stroke-linejoin:round; stroke-width:2; stroke-opacity:0.06; fill:none" points="2632.08,1678.07 2632.08,174.584 "/>
<polyline clip-path="url(#clip872)" style="stroke:#000000; stroke-linecap:round; stroke-linejoin:round; stroke-width:2; stroke-opacity:0.06; fill:none" points="2741.98,1678.07 2741.98,174.584 "/>
<polyline clip-path="url(#clip872)" style="stroke:#000000; stroke-linecap:round; stroke-linejoin:round; stroke-width:2; stroke-opacity:0.06; fill:none" points="2851.87,1678.07 2851.87,174.584 "/>
<polyline clip-path="url(#clip872)" style="stroke:#000000; stroke-linecap:round; stroke-linejoin:round; stroke-width:2; stroke-opacity:0.06; fill:none" points="324.305,1678.07 324.305,174.584 "/>
<polyline clip-path="url(#clip872)" style="stroke:#000000; stroke-linecap:round; stroke-linejoin:round; stroke-width:2; stroke-opacity:0.06; fill:none" points="434.199,1678.07 434.199,174.584 "/>
<polyline clip-path="url(#clip872)" style="stroke:#000000; stroke-linecap:round; stroke-linejoin:round; stroke-width:2; stroke-opacity:0.06; fill:none" points="544.094,1678.07 544.094,174.584 "/>
<polyline clip-path="url(#clip872)" style="stroke:#000000; stroke-linecap:round; stroke-linejoin:round; stroke-width:2; stroke-opacity:0.06; fill:none" points="653.988,1678.07 653.988,174.584 "/>
<polyline clip-path="url(#clip872)" style="stroke:#000000; stroke-linecap:round; stroke-linejoin:round; stroke-width:2; stroke-opacity:0.06; fill:none" points="873.776,1678.07 873.776,174.584 "/>
<polyline clip-path="url(#clip872)" style="stroke:#000000; stroke-linecap:round; stroke-linejoin:round; stroke-width:2; stroke-opacity:0.06; fill:none" points="983.67,1678.07 983.67,174.584 "/>
<polyline clip-path="url(#clip872)" style="stroke:#000000; stroke-linecap:round; stroke-linejoin:round; stroke-width:2; stroke-opacity:0.06; fill:none" points="1093.56,1678.07 1093.56,174.584 "/>
<polyline clip-path="url(#clip872)" style="stroke:#000000; stroke-linecap:round; stroke-linejoin:round; stroke-width:2; stroke-opacity:0.06; fill:none" points="1203.46,1678.07 1203.46,174.584 "/>
<polyline clip-path="url(#clip872)" style="stroke:#000000; stroke-linecap:round; stroke-linejoin:round; stroke-width:2; stroke-opacity:0.06; fill:none" points="1423.25,1678.07 1423.25,174.584 "/>
<polyline clip-path="url(#clip872)" style="stroke:#000000; stroke-linecap:round; stroke-linejoin:round; stroke-width:2; stroke-opacity:0.06; fill:none" points="1533.14,1678.07 1533.14,174.584 "/>
<polyline clip-path="url(#clip872)" style="stroke:#000000; stroke-linecap:round; stroke-linejoin:round; stroke-width:2; stroke-opacity:0.06; fill:none" points="1643.03,1678.07 1643.03,174.584 "/>
<polyline clip-path="url(#clip872)" style="stroke:#000000; stroke-linecap:round; stroke-linejoin:round; stroke-width:2; stroke-opacity:0.06; fill:none" points="1752.93,1678.07 1752.93,174.584 "/>
<polyline clip-path="url(#clip872)" style="stroke:#000000; stroke-linecap:round; stroke-linejoin:round; stroke-width:2; stroke-opacity:0.06; fill:none" points="1972.72,1678.07 1972.72,174.584 "/>
<polyline clip-path="url(#clip872)" style="stroke:#000000; stroke-linecap:round; stroke-linejoin:round; stroke-width:2; stroke-opacity:0.06; fill:none" points="2082.61,1678.07 2082.61,174.584 "/>
<polyline clip-path="url(#clip872)" style="stroke:#000000; stroke-linecap:round; stroke-linejoin:round; stroke-width:2; stroke-opacity:0.06; fill:none" points="2192.51,1678.07 2192.51,174.584 "/>
<polyline clip-path="url(#clip872)" style="stroke:#000000; stroke-linecap:round; stroke-linejoin:round; stroke-width:2; stroke-opacity:0.06; fill:none" points="2302.4,1678.07 2302.4,174.584 "/>
<polyline clip-path="url(#clip872)" style="stroke:#000000; stroke-linecap:round; stroke-linejoin:round; stroke-width:2; stroke-opacity:0.06; fill:none" points="2522.19,1678.07 2522.19,174.584 "/>
<polyline clip-path="url(#clip872)" style="stroke:#000000; stroke-linecap:round; stroke-linejoin:round; stroke-width:2; stroke-opacity:0.06; fill:none" points="2632.08,1678.07 2632.08,174.584 "/>
<polyline clip-path="url(#clip872)" style="stroke:#000000; stroke-linecap:round; stroke-linejoin:round; stroke-width:2; stroke-opacity:0.06; fill:none" points="2741.98,1678.07 2741.98,174.584 "/>
<polyline clip-path="url(#clip872)" style="stroke:#000000; stroke-linecap:round; stroke-linejoin:round; stroke-width:2; stroke-opacity:0.06; fill:none" points="2851.87,1678.07 2851.87,174.584 "/>
<polyline clip-path="url(#clip872)" style="stroke:#000000; stroke-linecap:round; stroke-linejoin:round; stroke-width:2; stroke-opacity:0.06; fill:none" points="214.411,1541.99 2961.76,1541.99 "/>
<polyline clip-path="url(#clip872)" style="stroke:#000000; stroke-linecap:round; stroke-linejoin:round; stroke-width:2; stroke-opacity:0.06; fill:none" points="214.411,1448.46 2961.76,1448.46 "/>
<polyline clip-path="url(#clip872)" style="stroke:#000000; stroke-linecap:round; stroke-linejoin:round; stroke-width:2; stroke-opacity:0.06; fill:none" points="214.411,1354.92 2961.76,1354.92 "/>
<polyline clip-path="url(#clip872)" style="stroke:#000000; stroke-linecap:round; stroke-linejoin:round; stroke-width:2; stroke-opacity:0.06; fill:none" points="214.411,1261.39 2961.76,1261.39 "/>
<polyline clip-path="url(#clip872)" style="stroke:#000000; stroke-linecap:round; stroke-linejoin:round; stroke-width:2; stroke-opacity:0.06; fill:none" points="214.411,1074.32 2961.76,1074.32 "/>
<polyline clip-path="url(#clip872)" style="stroke:#000000; stroke-linecap:round; stroke-linejoin:round; stroke-width:2; stroke-opacity:0.06; fill:none" points="214.411,980.78 2961.76,980.78 "/>
<polyline clip-path="url(#clip872)" style="stroke:#000000; stroke-linecap:round; stroke-linejoin:round; stroke-width:2; stroke-opacity:0.06; fill:none" points="214.411,887.245 2961.76,887.245 "/>
<polyline clip-path="url(#clip872)" style="stroke:#000000; stroke-linecap:round; stroke-linejoin:round; stroke-width:2; stroke-opacity:0.06; fill:none" points="214.411,793.71 2961.76,793.71 "/>
<polyline clip-path="url(#clip872)" style="stroke:#000000; stroke-linecap:round; stroke-linejoin:round; stroke-width:2; stroke-opacity:0.06; fill:none" points="214.411,606.64 2961.76,606.64 "/>
<polyline clip-path="url(#clip872)" style="stroke:#000000; stroke-linecap:round; stroke-linejoin:round; stroke-width:2; stroke-opacity:0.06; fill:none" points="214.411,513.104 2961.76,513.104 "/>
<polyline clip-path="url(#clip872)" style="stroke:#000000; stroke-linecap:round; stroke-linejoin:round; stroke-width:2; stroke-opacity:0.06; fill:none" points="214.411,419.569 2961.76,419.569 "/>
<polyline clip-path="url(#clip872)" style="stroke:#000000; stroke-linecap:round; stroke-linejoin:round; stroke-width:2; stroke-opacity:0.06; fill:none" points="214.411,326.034 2961.76,326.034 "/>
<polyline clip-path="url(#clip872)" style="stroke:#000000; stroke-linecap:round; stroke-linejoin:round; stroke-width:2; stroke-opacity:0.06; fill:none" points="214.411,1541.99 2961.76,1541.99 "/>
<polyline clip-path="url(#clip872)" style="stroke:#000000; stroke-linecap:round; stroke-linejoin:round; stroke-width:2; stroke-opacity:0.06; fill:none" points="214.411,1448.46 2961.76,1448.46 "/>
<polyline clip-path="url(#clip872)" style="stroke:#000000; stroke-linecap:round; stroke-linejoin:round; stroke-width:2; stroke-opacity:0.06; fill:none" points="214.411,1354.92 2961.76,1354.92 "/>
<polyline clip-path="url(#clip872)" style="stroke:#000000; stroke-linecap:round; stroke-linejoin:round; stroke-width:2; stroke-opacity:0.06; fill:none" points="214.411,1261.39 2961.76,1261.39 "/>
<polyline clip-path="url(#clip872)" style="stroke:#000000; stroke-linecap:round; stroke-linejoin:round; stroke-width:2; stroke-opacity:0.06; fill:none" points="214.411,1074.32 2961.76,1074.32 "/>
<polyline clip-path="url(#clip872)" style="stroke:#000000; stroke-linecap:round; stroke-linejoin:round; stroke-width:2; stroke-opacity:0.06; fill:none" points="214.411,980.78 2961.76,980.78 "/>
<polyline clip-path="url(#clip872)" style="stroke:#000000; stroke-linecap:round; stroke-linejoin:round; stroke-width:2; stroke-opacity:0.06; fill:none" points="214.411,887.245 2961.76,887.245 "/>
<polyline clip-path="url(#clip872)" style="stroke:#000000; stroke-linecap:round; stroke-linejoin:round; stroke-width:2; stroke-opacity:0.06; fill:none" points="214.411,793.71 2961.76,793.71 "/>
<polyline clip-path="url(#clip872)" style="stroke:#000000; stroke-linecap:round; stroke-linejoin:round; stroke-width:2; stroke-opacity:0.06; fill:none" points="214.411,606.64 2961.76,606.64 "/>
<polyline clip-path="url(#clip872)" style="stroke:#000000; stroke-linecap:round; stroke-linejoin:round; stroke-width:2; stroke-opacity:0.06; fill:none" points="214.411,513.104 2961.76,513.104 "/>
<polyline clip-path="url(#clip872)" style="stroke:#000000; stroke-linecap:round; stroke-linejoin:round; stroke-width:2; stroke-opacity:0.06; fill:none" points="214.411,419.569 2961.76,419.569 "/>
<polyline clip-path="url(#clip872)" style="stroke:#000000; stroke-linecap:round; stroke-linejoin:round; stroke-width:2; stroke-opacity:0.06; fill:none" points="214.411,326.034 2961.76,326.034 "/>
<polyline clip-path="url(#clip872)" style="stroke:#000000; stroke-linecap:round; stroke-linejoin:round; stroke-width:2.8; stroke-opacity:0.4; fill:none" points="214.411,1678.07 214.411,174.584 "/>
<polyline clip-path="url(#clip872)" style="stroke:#000000; stroke-linecap:round; stroke-linejoin:round; stroke-width:2.8; stroke-opacity:0.4; fill:none" points="763.882,1678.07 763.882,174.584 "/>
<polyline clip-path="url(#clip872)" style="stroke:#000000; stroke-linecap:round; stroke-linejoin:round; stroke-width:2.8; stroke-opacity:0.4; fill:none" points="1313.35,1678.07 1313.35,174.584 "/>
<polyline clip-path="url(#clip872)" style="stroke:#000000; stroke-linecap:round; stroke-linejoin:round; stroke-width:2.8; stroke-opacity:0.4; fill:none" points="1862.82,1678.07 1862.82,174.584 "/>
<polyline clip-path="url(#clip872)" style="stroke:#000000; stroke-linecap:round; stroke-linejoin:round; stroke-width:2.8; stroke-opacity:0.4; fill:none" points="2412.29,1678.07 2412.29,174.584 "/>
<polyline clip-path="url(#clip872)" style="stroke:#000000; stroke-linecap:round; stroke-linejoin:round; stroke-width:2.8; stroke-opacity:0.4; fill:none" points="2961.76,1678.07 2961.76,174.584 "/>
<polyline clip-path="url(#clip872)" style="stroke:#000000; stroke-linecap:round; stroke-linejoin:round; stroke-width:2.8; stroke-opacity:0.4; fill:none" points="214.411,1678.07 214.411,174.584 "/>
<polyline clip-path="url(#clip872)" style="stroke:#000000; stroke-linecap:round; stroke-linejoin:round; stroke-width:2.8; stroke-opacity:0.4; fill:none" points="763.882,1678.07 763.882,174.584 "/>
<polyline clip-path="url(#clip872)" style="stroke:#000000; stroke-linecap:round; stroke-linejoin:round; stroke-width:2.8; stroke-opacity:0.4; fill:none" points="1313.35,1678.07 1313.35,174.584 "/>
<polyline clip-path="url(#clip872)" style="stroke:#000000; stroke-linecap:round; stroke-linejoin:round; stroke-width:2.8; stroke-opacity:0.4; fill:none" points="1862.82,1678.07 1862.82,174.584 "/>
<polyline clip-path="url(#clip872)" style="stroke:#000000; stroke-linecap:round; stroke-linejoin:round; stroke-width:2.8; stroke-opacity:0.4; fill:none" points="2412.29,1678.07 2412.29,174.584 "/>
<polyline clip-path="url(#clip872)" style="stroke:#000000; stroke-linecap:round; stroke-linejoin:round; stroke-width:2.8; stroke-opacity:0.4; fill:none" points="2961.76,1678.07 2961.76,174.584 "/>
<polyline clip-path="url(#clip872)" style="stroke:#000000; stroke-linecap:round; stroke-linejoin:round; stroke-width:2.8; stroke-opacity:0.4; fill:none" points="214.411,1635.53 2961.76,1635.53 "/>
<polyline clip-path="url(#clip872)" style="stroke:#000000; stroke-linecap:round; stroke-linejoin:round; stroke-width:2.8; stroke-opacity:0.4; fill:none" points="214.411,1167.85 2961.76,1167.85 "/>
<polyline clip-path="url(#clip872)" style="stroke:#000000; stroke-linecap:round; stroke-linejoin:round; stroke-width:2.8; stroke-opacity:0.4; fill:none" points="214.411,700.175 2961.76,700.175 "/>
<polyline clip-path="url(#clip872)" style="stroke:#000000; stroke-linecap:round; stroke-linejoin:round; stroke-width:2.8; stroke-opacity:0.4; fill:none" points="214.411,232.499 2961.76,232.499 "/>
<polyline clip-path="url(#clip872)" style="stroke:#000000; stroke-linecap:round; stroke-linejoin:round; stroke-width:2.8; stroke-opacity:0.4; fill:none" points="214.411,1635.53 2961.76,1635.53 "/>
<polyline clip-path="url(#clip872)" style="stroke:#000000; stroke-linecap:round; stroke-linejoin:round; stroke-width:2.8; stroke-opacity:0.4; fill:none" points="214.411,1167.85 2961.76,1167.85 "/>
<polyline clip-path="url(#clip872)" style="stroke:#000000; stroke-linecap:round; stroke-linejoin:round; stroke-width:2.8; stroke-opacity:0.4; fill:none" points="214.411,700.175 2961.76,700.175 "/>
<polyline clip-path="url(#clip872)" style="stroke:#000000; stroke-linecap:round; stroke-linejoin:round; stroke-width:2.8; stroke-opacity:0.4; fill:none" points="214.411,232.499 2961.76,232.499 "/>
<polyline clip-path="url(#clip870)" style="stroke:#000000; stroke-linecap:round; stroke-linejoin:round; stroke-width:4; stroke-opacity:1; fill:none" points="214.411,1678.07 2961.76,1678.07 "/>
<polyline clip-path="url(#clip870)" style="stroke:#000000; stroke-linecap:round; stroke-linejoin:round; stroke-width:4; stroke-opacity:1; fill:none" points="214.411,174.584 2961.76,174.584 "/>
<polyline clip-path="url(#clip870)" style="stroke:#000000; stroke-linecap:round; stroke-linejoin:round; stroke-width:4; stroke-opacity:1; fill:none" points="214.411,1678.07 214.411,1659.17 "/>
<polyline clip-path="url(#clip870)" style="stroke:#000000; stroke-linecap:round; stroke-linejoin:round; stroke-width:4; stroke-opacity:1; fill:none" points="763.882,1678.07 763.882,1659.17 "/>
<polyline clip-path="url(#clip870)" style="stroke:#000000; stroke-linecap:round; stroke-linejoin:round; stroke-width:4; stroke-opacity:1; fill:none" points="1313.35,1678.07 1313.35,1659.17 "/>
<polyline clip-path="url(#clip870)" style="stroke:#000000; stroke-linecap:round; stroke-linejoin:round; stroke-width:4; stroke-opacity:1; fill:none" points="1862.82,1678.07 1862.82,1659.17 "/>
<polyline clip-path="url(#clip870)" style="stroke:#000000; stroke-linecap:round; stroke-linejoin:round; stroke-width:4; stroke-opacity:1; fill:none" points="2412.29,1678.07 2412.29,1659.17 "/>
<polyline clip-path="url(#clip870)" style="stroke:#000000; stroke-linecap:round; stroke-linejoin:round; stroke-width:4; stroke-opacity:1; fill:none" points="2961.76,1678.07 2961.76,1659.17 "/>
<polyline clip-path="url(#clip870)" style="stroke:#000000; stroke-linecap:round; stroke-linejoin:round; stroke-width:4; stroke-opacity:1; fill:none" points="214.411,174.584 214.411,193.482 "/>
<polyline clip-path="url(#clip870)" style="stroke:#000000; stroke-linecap:round; stroke-linejoin:round; stroke-width:4; stroke-opacity:1; fill:none" points="763.882,174.584 763.882,193.482 "/>
<polyline clip-path="url(#clip870)" style="stroke:#000000; stroke-linecap:round; stroke-linejoin:round; stroke-width:4; stroke-opacity:1; fill:none" points="1313.35,174.584 1313.35,193.482 "/>
<polyline clip-path="url(#clip870)" style="stroke:#000000; stroke-linecap:round; stroke-linejoin:round; stroke-width:4; stroke-opacity:1; fill:none" points="1862.82,174.584 1862.82,193.482 "/>
<polyline clip-path="url(#clip870)" style="stroke:#000000; stroke-linecap:round; stroke-linejoin:round; stroke-width:4; stroke-opacity:1; fill:none" points="2412.29,174.584 2412.29,193.482 "/>
<polyline clip-path="url(#clip870)" style="stroke:#000000; stroke-linecap:round; stroke-linejoin:round; stroke-width:4; stroke-opacity:1; fill:none" points="2961.76,174.584 2961.76,193.482 "/>
<polyline clip-path="url(#clip870)" style="stroke:#000000; stroke-linecap:round; stroke-linejoin:round; stroke-width:4; stroke-opacity:1; fill:none" points="324.305,1678.07 324.305,1668.62 "/>
<polyline clip-path="url(#clip870)" style="stroke:#000000; stroke-linecap:round; stroke-linejoin:round; stroke-width:4; stroke-opacity:1; fill:none" points="434.199,1678.07 434.199,1668.62 "/>
<polyline clip-path="url(#clip870)" style="stroke:#000000; stroke-linecap:round; stroke-linejoin:round; stroke-width:4; stroke-opacity:1; fill:none" points="544.094,1678.07 544.094,1668.62 "/>
<polyline clip-path="url(#clip870)" style="stroke:#000000; stroke-linecap:round; stroke-linejoin:round; stroke-width:4; stroke-opacity:1; fill:none" points="653.988,1678.07 653.988,1668.62 "/>
<polyline clip-path="url(#clip870)" style="stroke:#000000; stroke-linecap:round; stroke-linejoin:round; stroke-width:4; stroke-opacity:1; fill:none" points="873.776,1678.07 873.776,1668.62 "/>
<polyline clip-path="url(#clip870)" style="stroke:#000000; stroke-linecap:round; stroke-linejoin:round; stroke-width:4; stroke-opacity:1; fill:none" points="983.67,1678.07 983.67,1668.62 "/>
<polyline clip-path="url(#clip870)" style="stroke:#000000; stroke-linecap:round; stroke-linejoin:round; stroke-width:4; stroke-opacity:1; fill:none" points="1093.56,1678.07 1093.56,1668.62 "/>
<polyline clip-path="url(#clip870)" style="stroke:#000000; stroke-linecap:round; stroke-linejoin:round; stroke-width:4; stroke-opacity:1; fill:none" points="1203.46,1678.07 1203.46,1668.62 "/>
<polyline clip-path="url(#clip870)" style="stroke:#000000; stroke-linecap:round; stroke-linejoin:round; stroke-width:4; stroke-opacity:1; fill:none" points="1423.25,1678.07 1423.25,1668.62 "/>
<polyline clip-path="url(#clip870)" style="stroke:#000000; stroke-linecap:round; stroke-linejoin:round; stroke-width:4; stroke-opacity:1; fill:none" points="1533.14,1678.07 1533.14,1668.62 "/>
<polyline clip-path="url(#clip870)" style="stroke:#000000; stroke-linecap:round; stroke-linejoin:round; stroke-width:4; stroke-opacity:1; fill:none" points="1643.03,1678.07 1643.03,1668.62 "/>
<polyline clip-path="url(#clip870)" style="stroke:#000000; stroke-linecap:round; stroke-linejoin:round; stroke-width:4; stroke-opacity:1; fill:none" points="1752.93,1678.07 1752.93,1668.62 "/>
<polyline clip-path="url(#clip870)" style="stroke:#000000; stroke-linecap:round; stroke-linejoin:round; stroke-width:4; stroke-opacity:1; fill:none" points="1972.72,1678.07 1972.72,1668.62 "/>
<polyline clip-path="url(#clip870)" style="stroke:#000000; stroke-linecap:round; stroke-linejoin:round; stroke-width:4; stroke-opacity:1; fill:none" points="2082.61,1678.07 2082.61,1668.62 "/>
<polyline clip-path="url(#clip870)" style="stroke:#000000; stroke-linecap:round; stroke-linejoin:round; stroke-width:4; stroke-opacity:1; fill:none" points="2192.51,1678.07 2192.51,1668.62 "/>
<polyline clip-path="url(#clip870)" style="stroke:#000000; stroke-linecap:round; stroke-linejoin:round; stroke-width:4; stroke-opacity:1; fill:none" points="2302.4,1678.07 2302.4,1668.62 "/>
<polyline clip-path="url(#clip870)" style="stroke:#000000; stroke-linecap:round; stroke-linejoin:round; stroke-width:4; stroke-opacity:1; fill:none" points="2522.19,1678.07 2522.19,1668.62 "/>
<polyline clip-path="url(#clip870)" style="stroke:#000000; stroke-linecap:round; stroke-linejoin:round; stroke-width:4; stroke-opacity:1; fill:none" points="2632.08,1678.07 2632.08,1668.62 "/>
<polyline clip-path="url(#clip870)" style="stroke:#000000; stroke-linecap:round; stroke-linejoin:round; stroke-width:4; stroke-opacity:1; fill:none" points="2741.98,1678.07 2741.98,1668.62 "/>
<polyline clip-path="url(#clip870)" style="stroke:#000000; stroke-linecap:round; stroke-linejoin:round; stroke-width:4; stroke-opacity:1; fill:none" points="2851.87,1678.07 2851.87,1668.62 "/>
<polyline clip-path="url(#clip870)" style="stroke:#000000; stroke-linecap:round; stroke-linejoin:round; stroke-width:4; stroke-opacity:1; fill:none" points="324.305,174.584 324.305,184.033 "/>
<polyline clip-path="url(#clip870)" style="stroke:#000000; stroke-linecap:round; stroke-linejoin:round; stroke-width:4; stroke-opacity:1; fill:none" points="434.199,174.584 434.199,184.033 "/>
<polyline clip-path="url(#clip870)" style="stroke:#000000; stroke-linecap:round; stroke-linejoin:round; stroke-width:4; stroke-opacity:1; fill:none" points="544.094,174.584 544.094,184.033 "/>
<polyline clip-path="url(#clip870)" style="stroke:#000000; stroke-linecap:round; stroke-linejoin:round; stroke-width:4; stroke-opacity:1; fill:none" points="653.988,174.584 653.988,184.033 "/>
<polyline clip-path="url(#clip870)" style="stroke:#000000; stroke-linecap:round; stroke-linejoin:round; stroke-width:4; stroke-opacity:1; fill:none" points="873.776,174.584 873.776,184.033 "/>
<polyline clip-path="url(#clip870)" style="stroke:#000000; stroke-linecap:round; stroke-linejoin:round; stroke-width:4; stroke-opacity:1; fill:none" points="983.67,174.584 983.67,184.033 "/>
<polyline clip-path="url(#clip870)" style="stroke:#000000; stroke-linecap:round; stroke-linejoin:round; stroke-width:4; stroke-opacity:1; fill:none" points="1093.56,174.584 1093.56,184.033 "/>
<polyline clip-path="url(#clip870)" style="stroke:#000000; stroke-linecap:round; stroke-linejoin:round; stroke-width:4; stroke-opacity:1; fill:none" points="1203.46,174.584 1203.46,184.033 "/>
<polyline clip-path="url(#clip870)" style="stroke:#000000; stroke-linecap:round; stroke-linejoin:round; stroke-width:4; stroke-opacity:1; fill:none" points="1423.25,174.584 1423.25,184.033 "/>
<polyline clip-path="url(#clip870)" style="stroke:#000000; stroke-linecap:round; stroke-linejoin:round; stroke-width:4; stroke-opacity:1; fill:none" points="1533.14,174.584 1533.14,184.033 "/>
<polyline clip-path="url(#clip870)" style="stroke:#000000; stroke-linecap:round; stroke-linejoin:round; stroke-width:4; stroke-opacity:1; fill:none" points="1643.03,174.584 1643.03,184.033 "/>
<polyline clip-path="url(#clip870)" style="stroke:#000000; stroke-linecap:round; stroke-linejoin:round; stroke-width:4; stroke-opacity:1; fill:none" points="1752.93,174.584 1752.93,184.033 "/>
<polyline clip-path="url(#clip870)" style="stroke:#000000; stroke-linecap:round; stroke-linejoin:round; stroke-width:4; stroke-opacity:1; fill:none" points="1972.72,174.584 1972.72,184.033 "/>
<polyline clip-path="url(#clip870)" style="stroke:#000000; stroke-linecap:round; stroke-linejoin:round; stroke-width:4; stroke-opacity:1; fill:none" points="2082.61,174.584 2082.61,184.033 "/>
<polyline clip-path="url(#clip870)" style="stroke:#000000; stroke-linecap:round; stroke-linejoin:round; stroke-width:4; stroke-opacity:1; fill:none" points="2192.51,174.584 2192.51,184.033 "/>
<polyline clip-path="url(#clip870)" style="stroke:#000000; stroke-linecap:round; stroke-linejoin:round; stroke-width:4; stroke-opacity:1; fill:none" points="2302.4,174.584 2302.4,184.033 "/>
<polyline clip-path="url(#clip870)" style="stroke:#000000; stroke-linecap:round; stroke-linejoin:round; stroke-width:4; stroke-opacity:1; fill:none" points="2522.19,174.584 2522.19,184.033 "/>
<polyline clip-path="url(#clip870)" style="stroke:#000000; stroke-linecap:round; stroke-linejoin:round; stroke-width:4; stroke-opacity:1; fill:none" points="2632.08,174.584 2632.08,184.033 "/>
<polyline clip-path="url(#clip870)" style="stroke:#000000; stroke-linecap:round; stroke-linejoin:round; stroke-width:4; stroke-opacity:1; fill:none" points="2741.98,174.584 2741.98,184.033 "/>
<polyline clip-path="url(#clip870)" style="stroke:#000000; stroke-linecap:round; stroke-linejoin:round; stroke-width:4; stroke-opacity:1; fill:none" points="2851.87,174.584 2851.87,184.033 "/>
<path clip-path="url(#clip870)" d="M203.764 1729.66 Q203.764 1722.23 205.642 1718.18 Q208.26 1712.15 214.436 1712.15 Q215.745 1712.15 217.104 1712.52 Q218.487 1712.86 220.217 1714.22 Q221.971 1715.58 223.033 1717.81 Q225.058 1722.1 225.058 1729.66 Q225.058 1737.05 223.181 1741.08 Q220.439 1746.96 214.387 1746.96 Q212.114 1746.96 209.792 1745.79 Q207.494 1744.63 206.037 1741.84 Q203.764 1737.67 203.764 1729.66 M207.964 1729.05 Q207.964 1736.68 208.507 1739.72 Q209.125 1743 210.805 1744.44 Q212.509 1745.84 214.387 1745.84 Q216.412 1745.84 218.092 1744.34 Q219.797 1742.81 220.315 1739.52 Q220.884 1736.28 220.859 1729.05 Q220.859 1722 220.365 1719.19 Q219.698 1715.9 217.919 1714.59 Q216.165 1713.26 214.387 1713.26 Q213.72 1713.26 213.003 1713.46 Q212.312 1713.66 211.299 1714.22 Q210.286 1714.79 209.495 1716.2 Q208.73 1717.61 208.359 1719.73 Q207.964 1722.47 207.964 1729.05 Z" fill="#000000" fill-rule="nonzero" fill-opacity="1" /><path clip-path="url(#clip870)" d="M753.778 1745.84 Q753.778 1744.93 753.852 1744.66 Q753.951 1744.39 754.346 1743.97 L764.055 1733.15 Q769.366 1727.17 769.366 1721.96 Q769.366 1718.57 767.587 1716.15 Q765.833 1713.73 762.597 1713.73 Q760.374 1713.73 758.496 1715.09 Q756.619 1716.45 755.754 1718.87 Q755.903 1718.82 756.421 1718.82 Q757.681 1718.82 758.373 1719.61 Q759.089 1720.4 759.089 1721.46 Q759.089 1722.82 758.2 1723.49 Q757.335 1724.13 756.471 1724.13 Q756.125 1724.13 755.656 1724.06 Q755.211 1723.98 754.495 1723.29 Q753.778 1722.57 753.778 1721.31 Q753.778 1717.78 756.446 1714.96 Q759.139 1712.15 763.24 1712.15 Q767.884 1712.15 770.922 1714.92 Q773.985 1717.66 773.985 1721.96 Q773.985 1723.46 773.516 1724.85 Q773.071 1726.2 772.454 1727.27 Q771.861 1728.33 770.231 1730.03 Q768.6 1731.74 767.291 1732.95 Q765.982 1734.16 763.042 1736.73 L757.681 1741.94 L766.797 1741.94 Q771.243 1741.94 771.589 1741.55 Q772.083 1740.83 772.701 1737.05 L773.985 1737.05 L772.553 1745.84 L753.778 1745.84 Z" fill="#000000" fill-rule="nonzero" fill-opacity="1" /><path clip-path="url(#clip870)" d="M1302.14 1737.49 L1302.14 1735.94 L1317.68 1712.2 Q1318.07 1711.58 1318.69 1711.6 Q1319.26 1711.6 1319.38 1711.83 Q1319.5 1712.05 1319.5 1712.91 L1319.5 1735.94 L1324.57 1735.94 L1324.57 1737.49 L1319.5 1737.49 L1319.5 1741.89 Q1319.5 1743.35 1320.1 1743.82 Q1320.71 1744.29 1323.33 1744.29 L1324.39 1744.29 L1324.39 1745.84 Q1322.32 1745.7 1317.53 1745.7 Q1312.76 1745.7 1310.68 1745.84 L1310.68 1744.29 L1311.75 1744.29 Q1314.37 1744.29 1314.98 1743.84 Q1315.6 1743.37 1315.6 1741.89 L1315.6 1737.49 L1302.14 1737.49 M1303.57 1735.94 L1315.9 1735.94 L1315.9 1717.06 L1303.57 1735.94 Z" fill="#000000" fill-rule="nonzero" fill-opacity="1" /><path clip-path="url(#clip870)" d="M1852.32 1729.86 Q1852.32 1721.91 1856.38 1717.04 Q1860.43 1712.15 1865.64 1712.15 Q1868.68 1712.15 1870.36 1713.7 Q1872.06 1715.24 1872.06 1717.61 Q1872.06 1718.92 1871.3 1719.49 Q1870.53 1720.05 1869.74 1720.05 Q1868.83 1720.05 1868.11 1719.44 Q1867.39 1718.82 1867.39 1717.71 Q1867.39 1715.43 1870.18 1715.43 Q1868.88 1713.41 1865.74 1713.41 Q1864.77 1713.41 1863.79 1713.7 Q1862.8 1713.98 1861.51 1714.92 Q1860.23 1715.85 1859.24 1717.34 Q1858.25 1718.82 1857.56 1721.61 Q1856.87 1724.4 1856.87 1728.03 L1856.87 1729.24 Q1858.94 1724.23 1863.19 1724.25 Q1867.44 1724.25 1870.38 1727.49 Q1873.32 1730.73 1873.32 1735.52 Q1873.32 1740.43 1870.26 1743.69 Q1867.2 1746.96 1862.9 1746.96 Q1860.97 1746.96 1859.22 1746.14 Q1857.49 1745.35 1855.86 1743.52 Q1854.25 1741.69 1853.29 1738.19 Q1852.32 1734.68 1852.32 1729.86 M1856.97 1734.41 Q1856.97 1739.37 1857.88 1741.74 Q1858.03 1742.14 1858.35 1742.68 Q1858.7 1743.23 1859.27 1743.94 Q1859.86 1744.63 1860.82 1745.1 Q1861.79 1745.55 1862.9 1745.55 Q1866.28 1745.55 1867.91 1742.26 Q1868.78 1740.43 1868.78 1735.47 Q1868.78 1730.4 1867.86 1728.55 Q1866.31 1725.41 1863.14 1725.41 Q1861.02 1725.41 1859.54 1726.87 Q1858.08 1728.33 1857.51 1730.28 Q1856.97 1732.23 1856.97 1734.41 Z" fill="#000000" fill-rule="nonzero" fill-opacity="1" /><path clip-path="url(#clip870)" d="M2401.79 1738.21 Q2401.79 1732.55 2409.08 1728.9 Q2405.94 1726.77 2405.38 1726.16 Q2403.15 1723.68 2403.15 1720.6 Q2403.15 1717.06 2405.82 1714.62 Q2408.51 1712.15 2412.32 1712.15 Q2415.95 1712.15 2418.69 1714.25 Q2421.43 1716.35 2421.43 1719.68 Q2421.43 1724.38 2415.31 1727.54 Q2419.36 1730.06 2420.32 1731.12 Q2422.79 1733.86 2422.79 1737.35 Q2422.79 1741.4 2419.68 1744.19 Q2416.57 1746.96 2412.27 1746.96 Q2408.07 1746.96 2404.93 1744.51 Q2401.79 1742.06 2401.79 1738.21 M2404.31 1738.21 Q2404.31 1741.35 2406.66 1743.45 Q2409.03 1745.55 2412.32 1745.55 Q2415.5 1745.55 2417.88 1743.72 Q2420.27 1741.89 2420.27 1739.17 Q2420.27 1738.11 2419.9 1737.2 Q2419.56 1736.28 2418.84 1735.57 Q2418.15 1734.83 2417.7 1734.5 Q2417.28 1734.16 2416.47 1733.59 L2410.24 1729.66 Q2404.31 1732.95 2404.31 1738.21 M2405.38 1718.62 Q2405.38 1721.04 2407.92 1722.72 L2414.2 1726.77 Q2419.21 1723.83 2419.21 1719.68 Q2419.21 1716.99 2417.16 1715.21 Q2415.11 1713.41 2412.27 1713.41 Q2409.48 1713.41 2407.43 1714.89 Q2405.38 1716.35 2405.38 1718.62 Z" fill="#000000" fill-rule="nonzero" fill-opacity="1" /><path clip-path="url(#clip870)" d="M2939.73 1716.97 L2939.73 1715.38 Q2945.81 1715.38 2948.94 1712.15 Q2949.81 1712.15 2949.96 1712.35 Q2950.1 1712.54 2950.1 1713.46 L2950.1 1741.84 Q2950.1 1743.35 2950.84 1743.82 Q2951.59 1744.29 2954.82 1744.29 L2956.43 1744.29 L2956.43 1745.84 Q2954.65 1745.7 2948.23 1745.7 Q2941.8 1745.7 2940.05 1745.84 L2940.05 1744.29 L2941.66 1744.29 Q2944.84 1744.29 2945.61 1743.84 Q2946.37 1743.37 2946.37 1741.84 L2946.37 1715.63 Q2943.73 1716.97 2939.73 1716.97 Z" fill="#000000" fill-rule="nonzero" fill-opacity="1" /><path clip-path="url(#clip870)" d="M2962.5 1729.66 Q2962.5 1722.23 2964.38 1718.18 Q2967 1712.15 2973.18 1712.15 Q2974.49 1712.15 2975.84 1712.52 Q2977.23 1712.86 2978.96 1714.22 Q2980.71 1715.58 2981.77 1717.81 Q2983.8 1722.1 2983.8 1729.66 Q2983.8 1737.05 2981.92 1741.08 Q2979.18 1746.96 2973.13 1746.96 Q2970.85 1746.96 2968.53 1745.79 Q2966.24 1744.63 2964.78 1741.84 Q2962.5 1737.67 2962.5 1729.66 M2966.7 1729.05 Q2966.7 1736.68 2967.25 1739.72 Q2967.87 1743 2969.55 1744.44 Q2971.25 1745.84 2973.13 1745.84 Q2975.15 1745.84 2976.83 1744.34 Q2978.54 1742.81 2979.06 1739.52 Q2979.62 1736.28 2979.6 1729.05 Q2979.6 1722 2979.11 1719.19 Q2978.44 1715.9 2976.66 1714.59 Q2974.91 1713.26 2973.13 1713.26 Q2972.46 1713.26 2971.74 1713.46 Q2971.05 1713.66 2970.04 1714.22 Q2969.03 1714.79 2968.24 1716.2 Q2967.47 1717.61 2967.1 1719.73 Q2966.7 1722.47 2966.7 1729.05 Z" fill="#000000" fill-rule="nonzero" fill-opacity="1" /><path clip-path="url(#clip870)" d="M1576.21 1807.85 L1576.21 1806.18 Q1579.69 1806.03 1581.99 1803.59 Q1584.33 1801.1 1585.1 1798.07 Q1585.92 1795.03 1585.99 1791.51 L1587.88 1791.51 L1587.88 1805.48 L1598.74 1805.48 L1598.74 1807.85 L1587.88 1807.85 L1587.88 1828.93 Q1587.88 1837.12 1593 1837.12 Q1595.18 1837.12 1596.63 1834.9 Q1598.07 1832.64 1598.07 1828.64 L1598.07 1824.45 L1599.96 1824.45 L1599.96 1828.78 Q1599.96 1832.9 1598.07 1835.97 Q1596.18 1839.05 1592.44 1839.05 Q1591.07 1839.05 1589.7 1838.68 Q1588.37 1838.34 1586.59 1837.45 Q1584.85 1836.53 1583.73 1834.3 Q1582.66 1832.04 1582.66 1828.78 L1582.66 1807.85 L1576.21 1807.85 Z" fill="#000000" fill-rule="nonzero" fill-opacity="1" /><polyline clip-path="url(#clip870)" style="stroke:#000000; stroke-linecap:round; stroke-linejoin:round; stroke-width:4; stroke-opacity:1; fill:none" points="214.411,1678.07 214.411,174.584 "/>
<polyline clip-path="url(#clip870)" style="stroke:#000000; stroke-linecap:round; stroke-linejoin:round; stroke-width:4; stroke-opacity:1; fill:none" points="2961.76,1678.07 2961.76,174.584 "/>
<polyline clip-path="url(#clip870)" style="stroke:#000000; stroke-linecap:round; stroke-linejoin:round; stroke-width:4; stroke-opacity:1; fill:none" points="214.411,1635.53 233.309,1635.53 "/>
<polyline clip-path="url(#clip870)" style="stroke:#000000; stroke-linecap:round; stroke-linejoin:round; stroke-width:4; stroke-opacity:1; fill:none" points="214.411,1167.85 233.309,1167.85 "/>
<polyline clip-path="url(#clip870)" style="stroke:#000000; stroke-linecap:round; stroke-linejoin:round; stroke-width:4; stroke-opacity:1; fill:none" points="214.411,700.175 233.309,700.175 "/>
<polyline clip-path="url(#clip870)" style="stroke:#000000; stroke-linecap:round; stroke-linejoin:round; stroke-width:4; stroke-opacity:1; fill:none" points="214.411,232.499 233.309,232.499 "/>
<polyline clip-path="url(#clip870)" style="stroke:#000000; stroke-linecap:round; stroke-linejoin:round; stroke-width:4; stroke-opacity:1; fill:none" points="2961.76,1635.53 2942.87,1635.53 "/>
<polyline clip-path="url(#clip870)" style="stroke:#000000; stroke-linecap:round; stroke-linejoin:round; stroke-width:4; stroke-opacity:1; fill:none" points="2961.76,1167.85 2942.87,1167.85 "/>
<polyline clip-path="url(#clip870)" style="stroke:#000000; stroke-linecap:round; stroke-linejoin:round; stroke-width:4; stroke-opacity:1; fill:none" points="2961.76,700.175 2942.87,700.175 "/>
<polyline clip-path="url(#clip870)" style="stroke:#000000; stroke-linecap:round; stroke-linejoin:round; stroke-width:4; stroke-opacity:1; fill:none" points="2961.76,232.499 2942.87,232.499 "/>
<polyline clip-path="url(#clip870)" style="stroke:#000000; stroke-linecap:round; stroke-linejoin:round; stroke-width:4; stroke-opacity:1; fill:none" points="214.411,1541.99 223.86,1541.99 "/>
<polyline clip-path="url(#clip870)" style="stroke:#000000; stroke-linecap:round; stroke-linejoin:round; stroke-width:4; stroke-opacity:1; fill:none" points="214.411,1448.46 223.86,1448.46 "/>
<polyline clip-path="url(#clip870)" style="stroke:#000000; stroke-linecap:round; stroke-linejoin:round; stroke-width:4; stroke-opacity:1; fill:none" points="214.411,1354.92 223.86,1354.92 "/>
<polyline clip-path="url(#clip870)" style="stroke:#000000; stroke-linecap:round; stroke-linejoin:round; stroke-width:4; stroke-opacity:1; fill:none" points="214.411,1261.39 223.86,1261.39 "/>
<polyline clip-path="url(#clip870)" style="stroke:#000000; stroke-linecap:round; stroke-linejoin:round; stroke-width:4; stroke-opacity:1; fill:none" points="214.411,1074.32 223.86,1074.32 "/>
<polyline clip-path="url(#clip870)" style="stroke:#000000; stroke-linecap:round; stroke-linejoin:round; stroke-width:4; stroke-opacity:1; fill:none" points="214.411,980.78 223.86,980.78 "/>
<polyline clip-path="url(#clip870)" style="stroke:#000000; stroke-linecap:round; stroke-linejoin:round; stroke-width:4; stroke-opacity:1; fill:none" points="214.411,887.245 223.86,887.245 "/>
<polyline clip-path="url(#clip870)" style="stroke:#000000; stroke-linecap:round; stroke-linejoin:round; stroke-width:4; stroke-opacity:1; fill:none" points="214.411,793.71 223.86,793.71 "/>
<polyline clip-path="url(#clip870)" style="stroke:#000000; stroke-linecap:round; stroke-linejoin:round; stroke-width:4; stroke-opacity:1; fill:none" points="214.411,606.64 223.86,606.64 "/>
<polyline clip-path="url(#clip870)" style="stroke:#000000; stroke-linecap:round; stroke-linejoin:round; stroke-width:4; stroke-opacity:1; fill:none" points="214.411,513.104 223.86,513.104 "/>
<polyline clip-path="url(#clip870)" style="stroke:#000000; stroke-linecap:round; stroke-linejoin:round; stroke-width:4; stroke-opacity:1; fill:none" points="214.411,419.569 223.86,419.569 "/>
<polyline clip-path="url(#clip870)" style="stroke:#000000; stroke-linecap:round; stroke-linejoin:round; stroke-width:4; stroke-opacity:1; fill:none" points="214.411,326.034 223.86,326.034 "/>
<polyline clip-path="url(#clip870)" style="stroke:#000000; stroke-linecap:round; stroke-linejoin:round; stroke-width:4; stroke-opacity:1; fill:none" points="2961.76,1541.99 2952.31,1541.99 "/>
<polyline clip-path="url(#clip870)" style="stroke:#000000; stroke-linecap:round; stroke-linejoin:round; stroke-width:4; stroke-opacity:1; fill:none" points="2961.76,1448.46 2952.31,1448.46 "/>
<polyline clip-path="url(#clip870)" style="stroke:#000000; stroke-linecap:round; stroke-linejoin:round; stroke-width:4; stroke-opacity:1; fill:none" points="2961.76,1354.92 2952.31,1354.92 "/>
<polyline clip-path="url(#clip870)" style="stroke:#000000; stroke-linecap:round; stroke-linejoin:round; stroke-width:4; stroke-opacity:1; fill:none" points="2961.76,1261.39 2952.31,1261.39 "/>
<polyline clip-path="url(#clip870)" style="stroke:#000000; stroke-linecap:round; stroke-linejoin:round; stroke-width:4; stroke-opacity:1; fill:none" points="2961.76,1074.32 2952.31,1074.32 "/>
<polyline clip-path="url(#clip870)" style="stroke:#000000; stroke-linecap:round; stroke-linejoin:round; stroke-width:4; stroke-opacity:1; fill:none" points="2961.76,980.78 2952.31,980.78 "/>
<polyline clip-path="url(#clip870)" style="stroke:#000000; stroke-linecap:round; stroke-linejoin:round; stroke-width:4; stroke-opacity:1; fill:none" points="2961.76,887.245 2952.31,887.245 "/>
<polyline clip-path="url(#clip870)" style="stroke:#000000; stroke-linecap:round; stroke-linejoin:round; stroke-width:4; stroke-opacity:1; fill:none" points="2961.76,793.71 2952.31,793.71 "/>
<polyline clip-path="url(#clip870)" style="stroke:#000000; stroke-linecap:round; stroke-linejoin:round; stroke-width:4; stroke-opacity:1; fill:none" points="2961.76,606.64 2952.31,606.64 "/>
<polyline clip-path="url(#clip870)" style="stroke:#000000; stroke-linecap:round; stroke-linejoin:round; stroke-width:4; stroke-opacity:1; fill:none" points="2961.76,513.104 2952.31,513.104 "/>
<polyline clip-path="url(#clip870)" style="stroke:#000000; stroke-linecap:round; stroke-linejoin:round; stroke-width:4; stroke-opacity:1; fill:none" points="2961.76,419.569 2952.31,419.569 "/>
<polyline clip-path="url(#clip870)" style="stroke:#000000; stroke-linecap:round; stroke-linejoin:round; stroke-width:4; stroke-opacity:1; fill:none" points="2961.76,326.034 2952.31,326.034 "/>
<path clip-path="url(#clip870)" d="M144.023 1639.44 Q144.32 1639.74 144.32 1640.16 Q144.32 1640.58 144.023 1640.88 Q143.727 1641.17 143.307 1641.17 L111.637 1641.17 Q111.217 1641.17 110.921 1640.88 Q110.624 1640.58 110.624 1640.16 Q110.624 1639.74 110.921 1639.44 Q111.217 1639.15 111.637 1639.15 L143.307 1639.15 Q143.727 1639.15 144.023 1639.44 Z" fill="#000000" fill-rule="nonzero" fill-opacity="1" /><path clip-path="url(#clip870)" d="M151.632 1623.93 L151.632 1622.35 Q157.709 1622.35 160.846 1619.11 Q161.711 1619.11 161.859 1619.31 Q162.007 1619.51 162.007 1620.42 L162.007 1648.81 Q162.007 1650.31 162.748 1650.78 Q163.489 1651.25 166.726 1651.25 L168.331 1651.25 L168.331 1652.81 Q166.553 1652.66 160.13 1652.66 Q153.707 1652.66 151.953 1652.81 L151.953 1651.25 L153.559 1651.25 Q156.745 1651.25 157.511 1650.81 Q158.277 1650.34 158.277 1648.81 L158.277 1622.6 Q155.634 1623.93 151.632 1623.93 Z" fill="#000000" fill-rule="nonzero" fill-opacity="1" /><path clip-path="url(#clip870)" d="M147.037 1168.95 Q147.037 1161.51 148.914 1157.46 Q151.533 1151.44 157.709 1151.44 Q159.018 1151.44 160.377 1151.81 Q161.76 1152.15 163.489 1153.51 Q165.243 1154.87 166.306 1157.09 Q168.331 1161.39 168.331 1168.95 Q168.331 1176.34 166.454 1180.36 Q163.712 1186.24 157.659 1186.24 Q155.387 1186.24 153.065 1185.08 Q150.767 1183.92 149.31 1181.13 Q147.037 1176.95 147.037 1168.95 M151.237 1168.33 Q151.237 1175.97 151.78 1179 Q152.398 1182.29 154.077 1183.72 Q155.782 1185.13 157.659 1185.13 Q159.685 1185.13 161.365 1183.62 Q163.069 1182.09 163.588 1178.81 Q164.156 1175.57 164.132 1168.33 Q164.132 1161.29 163.638 1158.48 Q162.971 1155.19 161.192 1153.88 Q159.438 1152.55 157.659 1152.55 Q156.992 1152.55 156.276 1152.74 Q155.584 1152.94 154.572 1153.51 Q153.559 1154.08 152.768 1155.49 Q152.002 1156.9 151.632 1159.02 Q151.237 1161.76 151.237 1168.33 Z" fill="#000000" fill-rule="nonzero" fill-opacity="1" /><path clip-path="url(#clip870)" d="M151.632 688.577 L151.632 686.996 Q157.709 686.996 160.846 683.759 Q161.711 683.759 161.859 683.957 Q162.007 684.155 162.007 685.069 L162.007 713.453 Q162.007 714.96 162.748 715.429 Q163.489 715.898 166.726 715.898 L168.331 715.898 L168.331 717.455 Q166.553 717.307 160.13 717.307 Q153.707 717.307 151.953 717.455 L151.953 715.898 L153.559 715.898 Q156.745 715.898 157.511 715.454 Q158.277 714.984 158.277 713.453 L158.277 687.243 Q155.634 688.577 151.632 688.577 Z" fill="#000000" fill-rule="nonzero" fill-opacity="1" /><path clip-path="url(#clip870)" d="M148.124 249.779 Q148.124 248.865 148.198 248.593 Q148.297 248.321 148.692 247.901 L158.401 237.081 Q163.712 231.103 163.712 225.89 Q163.712 222.506 161.933 220.085 Q160.179 217.664 156.943 217.664 Q154.72 217.664 152.842 219.023 Q150.965 220.382 150.1 222.802 Q150.248 222.753 150.767 222.753 Q152.027 222.753 152.719 223.544 Q153.435 224.334 153.435 225.396 Q153.435 226.755 152.546 227.422 Q151.681 228.064 150.817 228.064 Q150.471 228.064 150.001 227.99 Q149.557 227.916 148.84 227.224 Q148.124 226.508 148.124 225.248 Q148.124 221.716 150.792 218.899 Q153.485 216.083 157.585 216.083 Q162.23 216.083 165.268 218.85 Q168.331 221.592 168.331 225.89 Q168.331 227.397 167.862 228.781 Q167.417 230.139 166.8 231.202 Q166.207 232.264 164.576 233.968 Q162.946 235.673 161.637 236.883 Q160.327 238.094 157.388 240.663 L152.027 245.875 L161.143 245.875 Q165.589 245.875 165.935 245.48 Q166.429 244.764 167.047 240.984 L168.331 240.984 L166.899 249.779 L148.124 249.779 Z" fill="#000000" fill-rule="nonzero" fill-opacity="1" /><path clip-path="url(#clip870)" d="M1251.26 62.208 L1251.26 59.8735 L1253.07 59.8735 Q1257.19 59.8735 1258.11 59.2065 Q1259.08 58.5025 1259.08 56.2792 L1259.08 16.2968 Q1259.08 14.1106 1258.11 13.4436 Q1257.15 12.7395 1253.07 12.7395 L1251.26 12.7395 L1251.26 10.368 L1275.08 10.368 Q1283.35 10.368 1289.09 14.4441 Q1294.87 18.4831 1294.87 24.0413 Q1294.87 28.3026 1291.13 31.6376 Q1287.39 34.9725 1281.61 36.4177 Q1289.13 39.0115 1290.87 45.1997 L1291.83 51.2768 Q1292.13 53.463 1292.31 54.5747 Q1292.54 55.6863 1292.87 57.2056 Q1293.2 58.7248 1293.54 59.4659 Q1293.91 60.17 1294.43 60.9481 Q1294.95 61.6892 1295.61 61.9486 Q1296.32 62.208 1297.24 62.208 Q1298.98 62.208 1300.47 60.6517 Q1301.95 59.0954 1302.24 55.464 Q1302.39 54.2412 1303.17 54.2412 Q1304.13 54.2412 1304.13 55.464 Q1304.13 56.5386 1303.84 57.7985 Q1303.54 59.0213 1302.8 60.4664 Q1302.1 61.9116 1300.54 62.875 Q1298.98 63.8755 1296.95 63.8755 Q1291.02 63.8755 1287.39 60.6887 Q1285.87 59.3177 1285.16 57.5391 Q1284.5 55.7604 1284.38 54.3523 Q1284.27 52.9442 1284.27 49.8316 Q1284.27 45.4221 1283.79 43.4952 Q1283.35 41.5683 1281.38 39.6785 Q1278.72 37.0847 1274.31 37.0847 L1265.6 37.0847 L1265.6 56.2792 Q1265.6 58.4654 1266.52 59.1695 Q1267.49 59.8735 1271.6 59.8735 L1273.42 59.8735 L1273.42 62.208 Q1270.67 61.9857 1262.34 61.9857 Q1254 61.9857 1251.26 62.208 M1265.6 35.4172 L1274.01 35.4172 Q1278.05 35.4172 1280.75 34.4538 Q1283.5 33.4533 1284.79 31.6746 Q1286.09 29.896 1286.57 28.1174 Q1287.05 26.3017 1287.05 24.0413 Q1287.05 21.3733 1286.46 19.3724 Q1285.87 17.3714 1284.57 16.1856 Q1283.27 14.9999 1281.98 14.2588 Q1280.68 13.4806 1278.68 13.1842 Q1276.68 12.8877 1275.31 12.8136 Q1273.93 12.7395 1271.75 12.7395 Q1268.04 12.7395 1267.27 12.8877 Q1266.41 12.9619 1266.08 13.3695 Q1265.75 13.7771 1265.67 14.2588 Q1265.6 14.7034 1265.6 15.778 L1265.6 35.4172 Z" fill="#000000" fill-rule="nonzero" fill-opacity="1" /><path clip-path="url(#clip870)" d="M1306.95 62.208 L1306.95 59.8735 Q1310.99 59.8735 1311.92 59.3918 Q1312.84 58.873 1312.84 56.4274 L1312.84 36.0101 Q1312.84 33.1939 1311.88 32.5269 Q1310.95 31.8599 1307.25 31.8599 L1307.25 29.4884 L1317.85 28.6732 L1317.85 56.5015 Q1317.85 58.7619 1318.66 59.3177 Q1319.48 59.8735 1323.18 59.8735 L1323.18 62.208 Q1315.44 61.9857 1315.29 61.9857 Q1314.25 61.9857 1306.95 62.208 M1310.14 15.4445 Q1310.14 13.9253 1311.29 12.7025 Q1312.47 11.4426 1314.14 11.4426 Q1315.81 11.4426 1316.99 12.5913 Q1318.18 13.703 1318.18 15.4816 Q1318.18 17.2232 1316.99 18.3719 Q1315.81 19.4835 1314.14 19.4835 Q1312.4 19.4835 1311.25 18.2607 Q1310.14 17.0379 1310.14 15.4445 Z" fill="#000000" fill-rule="nonzero" fill-opacity="1" /><path clip-path="url(#clip870)" d="M1327.55 68.2109 Q1327.55 65.7653 1329.41 63.6531 Q1331.3 61.541 1334.56 60.6146 Q1331.22 58.5025 1331.22 53.8706 Q1331.22 50.3133 1333.56 47.5713 Q1330 44.6069 1330 39.7526 Q1330 35.269 1333.56 31.9711 Q1337.11 28.6732 1342.3 28.6732 Q1346.86 28.6732 1350.34 31.4153 Q1353.97 27.858 1358.38 27.8209 Q1360.35 27.8209 1361.27 29.0437 Q1362.24 30.2666 1362.24 31.5635 Q1362.24 32.7122 1361.5 33.268 Q1360.79 33.8238 1360.05 33.8238 Q1359.12 33.8238 1358.46 33.231 Q1357.83 32.601 1357.83 31.6376 Q1357.83 30.0442 1359.05 29.5625 Q1358.83 29.4884 1358.31 29.4884 Q1354.6 29.4884 1351.45 32.4528 Q1354.57 35.3431 1354.57 39.8268 Q1354.57 44.3104 1351.01 47.6083 Q1347.45 50.9062 1342.3 50.9062 Q1338.04 50.9062 1334.78 48.5347 Q1333.48 50.0539 1333.48 52.129 Q1333.48 54.0188 1334.63 55.501 Q1335.78 56.9832 1337.52 57.2056 Q1338.04 57.2797 1343.19 57.2797 Q1346.23 57.2797 1347.9 57.3538 Q1349.56 57.4279 1351.94 57.9467 Q1354.34 58.4284 1356.23 59.3918 Q1361.16 62.1339 1361.2 68.0627 Q1361.2 72.3981 1356.2 75.1032 Q1351.23 77.8452 1344.34 77.8452 Q1337.37 77.8452 1332.44 75.0661 Q1327.55 72.324 1327.55 68.2109 M1331.52 68.2109 Q1331.52 71.3235 1335.19 73.6951 Q1338.86 76.1036 1344.41 76.1036 Q1349.86 76.1036 1353.53 73.7321 Q1357.23 71.3976 1357.23 68.2109 Q1357.23 65.9506 1355.94 64.5054 Q1354.64 63.0603 1351.97 62.4674 Q1349.34 61.9116 1347.49 61.8004 Q1345.64 61.6892 1342.23 61.6892 L1337.74 61.6892 Q1335.15 61.8374 1333.33 63.7273 Q1331.52 65.6171 1331.52 68.2109 M1335.67 39.8268 Q1335.67 49.1646 1342.3 49.1646 Q1345.64 49.1646 1347.67 46.1261 Q1348.9 44.0881 1348.9 39.7526 Q1348.9 30.4148 1342.3 30.4148 Q1338.97 30.4148 1336.89 33.4533 Q1335.67 35.4913 1335.67 39.8268 Z" fill="#000000" fill-rule="nonzero" fill-opacity="1" /><path clip-path="url(#clip870)" d="M1365.91 62.208 L1365.91 59.8735 Q1369.94 59.8735 1370.87 59.3918 Q1371.8 58.873 1371.8 56.4274 L1371.8 36.0101 Q1371.8 33.1939 1370.83 32.5269 Q1369.91 31.8599 1366.2 31.8599 L1366.2 29.4884 L1376.8 28.6732 L1376.8 56.5015 Q1376.8 58.7619 1377.61 59.3177 Q1378.43 59.8735 1382.14 59.8735 L1382.14 62.208 Q1374.39 61.9857 1374.24 61.9857 Q1373.21 61.9857 1365.91 62.208 M1369.09 15.4445 Q1369.09 13.9253 1370.24 12.7025 Q1371.43 11.4426 1373.09 11.4426 Q1374.76 11.4426 1375.95 12.5913 Q1377.13 13.703 1377.13 15.4816 Q1377.13 17.2232 1375.95 18.3719 Q1374.76 19.4835 1373.09 19.4835 Q1371.35 19.4835 1370.2 18.2607 Q1369.09 17.0379 1369.09 15.4445 Z" fill="#000000" fill-rule="nonzero" fill-opacity="1" /><path clip-path="url(#clip870)" d="M1386.99 45.9038 Q1386.99 38.6781 1392.03 33.6756 Q1397.07 28.6732 1403.89 28.6732 Q1409.67 28.6732 1413.45 33.3792 L1413.45 16.9638 Q1413.45 14.1476 1412.45 13.4436 Q1411.48 12.7395 1407.56 12.7395 L1407.56 10.368 L1418.49 9.55279 L1418.49 55.6122 Q1418.49 58.4284 1419.45 59.1695 Q1420.45 59.8735 1424.38 59.8735 L1424.38 62.208 L1413.22 63.0603 L1413.22 58.0208 Q1409.3 63.0232 1403.07 63.0603 Q1396.55 63.0603 1391.77 58.0578 Q1386.99 53.0554 1386.99 45.9038 M1393.29 45.9779 Q1393.29 53.0184 1395.48 56.5015 Q1398.51 61.3557 1403.44 61.3557 Q1409.07 61.3557 1412.41 56.0569 Q1413.26 54.7599 1413.22 53.2407 L1413.22 37.6776 Q1413.22 36.1583 1412.41 34.8984 Q1409.3 30.3407 1404.22 30.3407 Q1398.92 30.3407 1395.62 35.1949 Q1393.29 38.8263 1393.29 45.9779 Z" fill="#000000" fill-rule="nonzero" fill-opacity="1" /><path clip-path="url(#clip870)" d="M1454.47 62.208 L1454.47 59.8735 L1456.28 59.8735 Q1460.4 59.8735 1461.32 59.2065 Q1462.29 58.5025 1462.29 56.2792 L1462.29 16.2968 Q1462.29 14.1106 1461.32 13.4436 Q1460.36 12.7395 1456.28 12.7395 L1454.47 12.7395 L1454.47 10.368 L1482.22 10.368 Q1489.45 10.368 1494.26 14.2588 Q1499.08 18.1125 1499.08 23.189 Q1499.08 27.3763 1495.52 30.7112 Q1492 34.0462 1486.48 35.1208 Q1492.78 35.7878 1496.93 39.6044 Q1501.12 43.384 1501.12 48.3124 Q1501.12 53.8706 1496.34 58.0578 Q1491.56 62.208 1484.22 62.208 L1454.47 62.208 M1468.59 56.835 Q1468.59 58.7989 1469.14 59.3548 Q1469.7 59.8735 1472.29 59.8735 L1481.78 59.8735 Q1487.22 59.8735 1490.37 56.3162 Q1493.52 52.7219 1493.52 48.2383 Q1493.52 43.7546 1490.74 39.9379 Q1488 36.0842 1482.85 36.0842 L1468.59 36.0842 L1468.59 56.835 M1468.59 34.4167 L1479.59 34.4167 Q1485.45 34.4167 1488.56 30.8965 Q1491.71 27.3763 1491.71 23.189 Q1491.71 19.4835 1489.19 16.1115 Q1486.7 12.7395 1481.7 12.7395 L1472.29 12.7395 Q1469.7 12.7395 1469.14 13.2583 Q1468.59 13.7771 1468.59 15.778 L1468.59 34.4167 Z" fill="#000000" fill-rule="nonzero" fill-opacity="1" /><path clip-path="url(#clip870)" d="M1512.53 58.1319 Q1507.53 53.1666 1507.53 45.9779 Q1507.53 38.7522 1512.42 33.4903 Q1517.35 28.1915 1524.39 28.1915 Q1531.28 28.1915 1536.21 33.4533 Q1541.18 38.6781 1541.18 45.9779 Q1541.18 53.1295 1536.17 58.0949 Q1531.21 63.0603 1524.32 63.0603 Q1517.57 63.0603 1512.53 58.1319 M1513.83 45.348 Q1513.83 52.7219 1515.76 56.0569 Q1518.72 61.1334 1524.39 61.1334 Q1527.21 61.1334 1529.54 59.6141 Q1531.91 58.0949 1533.21 55.5381 Q1534.88 52.2031 1534.88 45.348 Q1534.88 38.0481 1532.88 34.8243 Q1529.91 29.896 1524.32 29.896 Q1521.87 29.896 1519.46 31.1929 Q1517.09 32.4528 1515.64 34.9725 Q1513.83 38.3075 1513.83 45.348 Z" fill="#000000" fill-rule="nonzero" fill-opacity="1" /><path clip-path="url(#clip870)" d="M1548.07 45.9038 Q1548.07 38.6781 1553.11 33.6756 Q1558.15 28.6732 1564.97 28.6732 Q1570.75 28.6732 1574.53 33.3792 L1574.53 16.9638 Q1574.53 14.1476 1573.52 13.4436 Q1572.56 12.7395 1568.63 12.7395 L1568.63 10.368 L1579.56 9.55279 L1579.56 55.6122 Q1579.56 58.4284 1580.53 59.1695 Q1581.53 59.8735 1585.46 59.8735 L1585.46 62.208 L1574.3 63.0603 L1574.3 58.0208 Q1570.38 63.0232 1564.15 63.0603 Q1557.63 63.0603 1552.85 58.0578 Q1548.07 53.0554 1548.07 45.9038 M1554.37 45.9779 Q1554.37 53.0184 1556.55 56.5015 Q1559.59 61.3557 1564.52 61.3557 Q1570.15 61.3557 1573.49 56.0569 Q1574.34 54.7599 1574.3 53.2407 L1574.3 37.6776 Q1574.3 36.1583 1573.49 34.8984 Q1570.38 30.3407 1565.3 30.3407 Q1560 30.3407 1556.7 35.1949 Q1554.37 38.8263 1554.37 45.9779 Z" fill="#000000" fill-rule="nonzero" fill-opacity="1" /><path clip-path="url(#clip870)" d="M1589.01 71.62 Q1589.01 70.0266 1589.94 69.1743 Q1590.9 68.3591 1592.2 68.3591 Q1593.57 68.3591 1594.46 69.2114 Q1595.39 70.1007 1595.39 71.5459 Q1595.39 74.3621 1592.42 74.7326 Q1593.87 76.1036 1595.98 76.1036 Q1598.24 76.1036 1600.06 74.4362 Q1601.91 72.7687 1602.69 71.1753 Q1603.5 69.582 1604.65 66.6917 Q1605.73 64.4313 1606.54 62.208 L1595.17 34.4908 Q1594.42 32.6751 1593.28 32.2675 Q1592.13 31.8599 1589.01 31.8599 L1589.01 29.4884 Q1592.42 29.7107 1596.39 29.7107 Q1598.72 29.7107 1604.65 29.4884 L1604.65 31.8599 Q1600.39 31.8599 1600.39 33.8238 Q1600.39 34.0462 1600.83 35.1949 L1609.28 55.6122 L1616.95 36.9365 Q1617.4 35.8619 1617.4 35.1208 Q1617.4 32.0081 1613.84 31.8599 L1613.84 29.4884 Q1618.84 29.7107 1620.44 29.7107 Q1623.55 29.7107 1626.11 29.4884 L1626.11 31.8599 Q1621.03 31.8599 1619.07 36.7141 L1605.69 69.1002 Q1602.06 77.7341 1595.98 77.7711 Q1593.09 77.7711 1591.05 75.9925 Q1589.01 74.2138 1589.01 71.62 Z" fill="#000000" fill-rule="nonzero" fill-opacity="1" /><path clip-path="url(#clip870)" d="M1657.05 62.0598 L1657.05 46.8672 Q1657.05 46.0149 1657.08 45.7185 Q1657.12 45.4221 1657.34 45.1997 Q1657.57 44.9774 1658.01 44.9774 Q1658.86 44.9774 1658.94 45.7556 Q1659.16 53.2777 1663.64 57.4279 Q1668.05 61.541 1675.61 61.541 Q1680.17 61.541 1682.99 58.2802 Q1685.8 54.9823 1685.8 50.6839 Q1685.8 46.5708 1683.43 43.6805 Q1682.43 42.3836 1681.17 41.5683 Q1679.95 40.7161 1679.17 40.4567 Q1678.43 40.1973 1676.98 39.8268 Q1667.57 37.5664 1666.98 37.307 Q1662.49 35.7878 1659.75 31.9711 Q1657.05 28.1174 1657.05 23.4114 Q1657.05 17.3343 1661.31 13.036 Q1665.61 8.70052 1671.83 8.70052 Q1674.94 8.70052 1677.54 9.70101 Q1680.17 10.6644 1681.24 11.5538 Q1682.32 12.4431 1683.99 14.0364 L1686.62 9.70101 Q1687.21 8.70052 1687.77 8.70052 Q1688.36 8.70052 1688.47 9.07107 Q1688.62 9.40457 1688.62 10.5162 L1688.62 25.7829 Q1688.62 26.6352 1688.58 26.9316 Q1688.54 27.228 1688.28 27.4133 Q1688.06 27.5986 1687.62 27.5986 Q1686.88 27.5986 1686.69 26.7093 Q1684.58 10.8497 1671.91 10.8497 Q1667.57 10.8497 1664.72 13.7771 Q1661.9 16.6674 1661.9 20.7805 Q1661.9 24.1154 1663.98 26.8575 Q1666.05 29.5625 1669.57 30.4148 L1679.28 32.7492 Q1684.13 33.8979 1687.4 38.1963 Q1690.66 42.4947 1690.66 48.09 Q1690.66 54.5376 1686.43 59.2065 Q1682.24 63.8755 1675.69 63.8755 Q1670.98 63.8755 1667.35 62.3192 Q1663.72 60.7629 1661.75 58.5766 Q1660.23 61.0963 1659.23 62.5044 L1659.01 62.875 Q1658.42 63.8755 1657.86 63.8755 Q1657.27 63.8755 1657.16 63.5049 Q1657.05 63.1344 1657.05 62.0598 Z" fill="#000000" fill-rule="nonzero" fill-opacity="1" /><path clip-path="url(#clip870)" d="M1701.99 58.1319 Q1696.99 53.1666 1696.99 45.9779 Q1696.99 38.7522 1701.88 33.4903 Q1706.81 28.1915 1713.85 28.1915 Q1720.74 28.1915 1725.67 33.4533 Q1730.64 38.6781 1730.64 45.9779 Q1730.64 53.1295 1725.64 58.0949 Q1720.67 63.0603 1713.78 63.0603 Q1707.03 63.0603 1701.99 58.1319 M1703.29 45.348 Q1703.29 52.7219 1705.22 56.0569 Q1708.18 61.1334 1713.85 61.1334 Q1716.67 61.1334 1719 59.6141 Q1721.37 58.0949 1722.67 55.5381 Q1724.34 52.2031 1724.34 45.348 Q1724.34 38.0481 1722.34 34.8243 Q1719.37 29.896 1713.78 29.896 Q1711.33 29.896 1708.92 31.1929 Q1706.55 32.4528 1705.11 34.9725 Q1703.29 38.3075 1703.29 45.348 Z" fill="#000000" fill-rule="nonzero" fill-opacity="1" /><path clip-path="url(#clip870)" d="M1735.34 62.208 L1735.34 59.8735 Q1739.38 59.8735 1740.31 59.3918 Q1741.24 58.873 1741.24 56.4274 L1741.24 16.9638 Q1741.24 14.1476 1740.24 13.4436 Q1739.27 12.7395 1735.34 12.7395 L1735.34 10.368 L1746.24 9.55279 L1746.24 56.4274 Q1746.24 58.873 1747.2 59.3918 Q1748.17 59.8735 1752.17 59.8735 L1752.17 62.208 Q1751.24 62.208 1749.31 62.1339 Q1747.39 62.0598 1745.98 62.0227 Q1744.57 61.9857 1743.76 61.9857 Q1742.87 61.9857 1735.34 62.208 Z" fill="#000000" fill-rule="nonzero" fill-opacity="1" /><path clip-path="url(#clip870)" d="M1756.28 31.8599 L1756.28 29.4884 L1767.43 28.6732 L1767.43 53.8706 Q1767.43 55.6863 1767.58 56.7609 Q1767.73 57.7985 1768.32 59.0213 Q1768.95 60.2441 1770.36 60.7999 Q1771.81 61.3557 1774.1 61.3557 Q1778.22 61.3557 1780.74 57.9837 Q1783.29 54.6117 1783.29 49.6093 L1783.29 36.0842 Q1783.29 33.268 1782.29 32.564 Q1781.29 31.8599 1777.36 31.8599 L1777.36 29.4884 L1788.52 28.6732 L1788.52 55.6122 Q1788.52 58.4284 1789.48 59.1695 Q1790.48 59.8735 1794.45 59.8735 L1794.45 62.208 L1783.52 63.0603 L1783.52 56.2051 Q1780.33 63.0232 1773.73 63.0603 Q1770.4 63.0603 1768.1 62.208 Q1765.84 61.3557 1764.69 60.3182 Q1763.54 59.2436 1762.91 57.2056 Q1762.32 55.1675 1762.25 53.9077 Q1762.17 52.6478 1762.17 50.2022 L1762.17 38.8263 Q1762.17 33.6756 1761.43 32.7863 Q1760.69 31.8599 1756.28 31.8599 Z" fill="#000000" fill-rule="nonzero" fill-opacity="1" /><path clip-path="url(#clip870)" d="M1797.37 31.8599 L1797.37 30.1924 Q1800.86 30.0442 1803.15 27.5986 Q1805.49 25.1159 1806.27 22.0774 Q1807.08 19.0389 1807.16 15.5187 L1809.05 15.5187 L1809.05 29.4884 L1819.9 29.4884 L1819.9 31.8599 L1809.05 31.8599 L1809.05 52.9442 Q1809.05 61.1334 1814.16 61.1334 Q1816.35 61.1334 1817.79 58.9101 Q1819.24 56.6497 1819.24 52.6478 L1819.24 48.4606 L1821.13 48.4606 L1821.13 52.796 Q1821.13 56.9091 1819.24 59.9847 Q1817.35 63.0603 1813.6 63.0603 Q1812.23 63.0603 1810.86 62.6897 Q1809.53 62.3562 1807.75 61.4669 Q1806.01 60.5405 1804.9 58.3172 Q1803.82 56.0569 1803.82 52.796 L1803.82 31.8599 L1797.37 31.8599 Z" fill="#000000" fill-rule="nonzero" fill-opacity="1" /><path clip-path="url(#clip870)" d="M1827.87 62.208 L1827.87 59.8735 Q1831.91 59.8735 1832.84 59.3918 Q1833.76 58.873 1833.76 56.4274 L1833.76 36.0101 Q1833.76 33.1939 1832.8 32.5269 Q1831.87 31.8599 1828.17 31.8599 L1828.17 29.4884 L1838.76 28.6732 L1838.76 56.5015 Q1838.76 58.7619 1839.58 59.3177 Q1840.4 59.8735 1844.1 59.8735 L1844.1 62.208 Q1836.36 61.9857 1836.21 61.9857 Q1835.17 61.9857 1827.87 62.208 M1831.06 15.4445 Q1831.06 13.9253 1832.21 12.7025 Q1833.39 11.4426 1835.06 11.4426 Q1836.73 11.4426 1837.91 12.5913 Q1839.1 13.703 1839.1 15.4816 Q1839.1 17.2232 1837.91 18.3719 Q1836.73 19.4835 1835.06 19.4835 Q1833.32 19.4835 1832.17 18.2607 Q1831.06 17.0379 1831.06 15.4445 Z" fill="#000000" fill-rule="nonzero" fill-opacity="1" /><path clip-path="url(#clip870)" d="M1853.48 58.1319 Q1848.47 53.1666 1848.47 45.9779 Q1848.47 38.7522 1853.36 33.4903 Q1858.29 28.1915 1865.33 28.1915 Q1872.23 28.1915 1877.15 33.4533 Q1882.12 38.6781 1882.12 45.9779 Q1882.12 53.1295 1877.12 58.0949 Q1872.15 63.0603 1865.26 63.0603 Q1858.52 63.0603 1853.48 58.1319 M1854.77 45.348 Q1854.77 52.7219 1856.7 56.0569 Q1859.66 61.1334 1865.33 61.1334 Q1868.15 61.1334 1870.48 59.6141 Q1872.86 58.0949 1874.15 55.5381 Q1875.82 52.2031 1875.82 45.348 Q1875.82 38.0481 1873.82 34.8243 Q1870.85 29.896 1865.26 29.896 Q1862.81 29.896 1860.41 31.1929 Q1858.03 32.4528 1856.59 34.9725 Q1854.77 38.3075 1854.77 45.348 Z" fill="#000000" fill-rule="nonzero" fill-opacity="1" /><path clip-path="url(#clip870)" d="M1886.75 62.208 L1886.75 59.8735 Q1890.79 59.8735 1891.72 59.3918 Q1892.64 58.873 1892.64 56.4274 L1892.64 36.0842 Q1892.64 33.268 1891.64 32.564 Q1890.68 31.8599 1886.75 31.8599 L1886.75 29.4884 L1897.42 28.6732 L1897.42 36.64 Q1900.98 28.6732 1908.65 28.6732 Q1914.36 28.6732 1916.62 31.4894 Q1918.28 33.3792 1918.62 35.4913 Q1918.99 37.6035 1918.99 43.0876 L1918.99 57.5761 Q1919.06 59.1695 1920.29 59.54 Q1921.51 59.8735 1924.92 59.8735 L1924.92 62.208 Q1917.17 61.9857 1916.4 61.9857 Q1915.8 61.9857 1907.84 62.208 L1907.84 59.8735 Q1911.87 59.8735 1912.8 59.3918 Q1913.76 58.873 1913.76 56.4274 L1913.76 38.7522 Q1913.76 34.8984 1912.58 32.6381 Q1911.39 30.3407 1908.13 30.3407 Q1904.2 30.3407 1901.05 33.6386 Q1897.9 36.9365 1897.9 42.4947 L1897.9 56.4274 Q1897.9 58.873 1898.83 59.3918 Q1899.79 59.8735 1903.8 59.8735 L1903.8 62.208 Q1896.05 61.9857 1895.31 61.9857 Q1894.72 61.9857 1886.75 62.208 Z" fill="#000000" fill-rule="nonzero" fill-opacity="1" /><polyline clip-path="url(#clip872)" style="stroke:#d77255; stroke-linecap:round; stroke-linejoin:round; stroke-width:5.6; stroke-opacity:1; fill:none" points="214.411,700.175 215.925,700.189 218.417,700.275 221.263,700.469 224.525,700.816 228.104,701.35 231.987,702.11 236.129,703.127 240.503,704.431 245.073,706.046 249.817,707.991 254.713,710.284 259.745,712.94 264.9,715.971 270.169,719.389 275.545,723.205 281.025,727.431 286.609,732.078 292.296,737.159 298.09,742.687 303.997,748.681 310.025,755.158 316.182,762.141 322.483,769.66 328.941,777.743 335.572,786.427 342.387,795.742 349.378,805.694 356.508,816.239 363.71,827.277 370.927,838.714 378.126,850.478 385.288,862.516 392.402,874.792 399.462,887.272 406.465,899.932 413.409,912.75 420.295,925.705 427.123,938.783 433.893,951.97 440.606,965.252 447.264,978.617 453.867,992.056 460.418,1005.56 466.916,1019.12 473.364,1032.73 479.763,1046.38 486.114,1060.07 492.419,1073.79 498.679,1087.53 504.895,1101.29 511.069,1115.07 517.203,1128.86 523.299,1142.66 529.358,1156.46 535.382,1170.26 541.372,1184.06 547.351,1197.9 553.322,1211.78 559.289,1225.7 565.253,1239.65 571.214,1253.64 577.173,1267.64 583.128,1281.65 589.077,1295.64 595.018,1309.61 600.947,1323.53 606.862,1337.37 612.759,1351.13 618.634,1364.78 624.487,1378.29 630.313,1391.64 636.113,1404.82 641.882,1417.8 647.622,1430.57 653.331,1443.1 659.009,1455.38 664.655,1467.39 670.271,1479.12 675.853,1490.53 681.404,1501.62 686.921,1512.37 692.402,1522.75 697.846,1532.75 703.248,1542.35 708.607,1551.52 713.915,1560.24 719.172,1568.5 724.371,1576.29 729.511,1583.6 734.589,1590.41 739.604,1596.73 744.555,1602.55 749.442,1607.88 754.267,1612.71 759.03,1617.06 763.735,1620.93 768.383,1624.33 772.977,1627.26 777.519,1629.74 782.013,1631.76 786.462,1633.34 790.868,1634.49 795.235,1635.21 799.565,1635.52 803.862,1635.41 808.134,1634.89 812.396,1633.96 816.648,1632.64 820.899,1630.9 825.15,1628.76 829.407,1626.21 833.673,1623.24 837.951,1619.87 842.244,1616.07 846.557,1611.85 850.89,1607.2 855.248,1602.12 859.634,1596.6 864.049,1590.63 868.499,1584.22 872.985,1577.36 877.51,1570.03 882.079,1562.23 886.693,1553.96 891.357,1545.21 896.074,1535.96 900.847,1526.22 905.682,1515.97 910.583,1505.2 915.555,1493.89 920.604,1482.05 925.736,1469.64 930.962,1456.64 936.291,1443.04 941.735,1428.79 947.307,1413.87 953.015,1398.25 958.843,1381.99 964.738,1365.23 970.627,1348.2 976.468,1331.07 982.237,1313.93 987.927,1296.84 993.534,1279.83 999.058,1262.94 1004.5,1246.19 1009.87,1229.57 1015.17,1213.11 1020.4,1196.81 1025.57,1180.67 1030.69,1164.68 1035.75,1148.85 1040.8,1133.1 1045.83,1117.43 1050.85,1101.82 1055.88,1086.26 1060.91,1070.76 1065.97,1055.29 1071.04,1039.87 1076.14,1024.5 1081.27,1009.17 1086.43,993.904 1091.64,978.697 1096.89,963.558 1102.19,948.508 1107.54,933.563 1112.94,918.751 1118.39,904.107 1123.88,889.676 1129.41,875.516 1134.96,861.687 1140.51,848.258 1146.04,835.291 1151.55,822.84 1157.02,810.95 1162.44,799.651 1167.8,788.971 1173.09,778.923 1178.32,769.516 1183.47,760.753 1188.55,752.631 1193.56,745.144 1198.5,738.283 1203.36,732.037 1208.16,726.394 1212.9,721.34 1217.57,716.86 1222.19,712.943 1226.75,709.573 1231.26,706.739 1235.72,704.427 1240.14,702.627 1244.52,701.326 1248.86,700.515 1253.16,700.184 1257.44,700.324 1261.69,700.928 1265.94,701.995 1270.19,703.524 1274.43,705.516 1278.69,707.974 1282.96,710.901 1287.24,714.303 1291.54,718.185 1295.87,722.553 1300.23,727.416 1304.61,732.781 1309.03,738.659 1313.5,745.059 1318,751.995 1322.56,759.479 1327.17,767.528 1331.84,776.16 1336.57,785.397 1341.39,795.265 1346.29,805.802 1351.3,817.047 1356.42,829.07 1361.71,841.968 1367.21,855.919 1373.06,871.323 1379.89,890.024 1385.83,906.865 1391.79,924.292 1397.48,941.366 1403.06,958.533 1408.48,975.554 1413.79,992.529 1418.97,1009.4 1424.05,1026.19 1429.03,1042.88 1433.93,1059.49 1438.75,1076.02 1443.5,1092.46 1448.19,1108.82 1452.82,1125.1 1457.41,1141.3 1461.95,1157.43 1466.46,1173.49 1470.94,1189.48 1475.41,1205.48 1479.88,1221.48 1484.35,1237.49 1488.84,1253.52 1493.34,1269.56 1497.86,1285.59 1502.39,1301.61 1506.94,1317.59 1511.51,1333.5 1516.09,1349.3 1520.67,1364.95 1525.25,1380.41 1529.83,1395.63 1534.39,1410.56 1538.93,1425.18 1543.45,1439.44 1547.94,1453.32 1552.4,1466.79 1556.84,1479.83 1561.24,1492.41 1565.6,1504.52 1569.94,1516.15 1574.24,1527.28 1578.5,1537.89 1582.73,1547.98 1586.92,1557.53 1591.07,1566.53 1595.18,1574.98 1599.26,1582.86 1603.29,1590.18 1607.28,1596.93 1611.22,1603.12 1615.13,1608.75 1619,1613.82 1622.82,1618.34 1626.61,1622.31 1630.35,1625.74 1634.07,1628.64 1637.74,1631.03 1641.39,1632.89 1645,1634.26 1648.58,1635.13 1652.14,1635.51 1655.67,1635.41 1659.18,1634.84 1662.69,1633.79 1666.19,1632.28 1669.69,1630.29 1673.19,1627.84 1676.7,1624.91 1680.22,1621.5 1683.76,1617.6 1687.3,1613.22 1690.86,1608.36 1694.45,1602.99 1698.05,1597.12 1701.67,1590.75 1705.32,1583.87 1709,1576.47 1712.71,1568.54 1716.45,1560.09 1720.23,1551.1 1724.04,1541.57 1727.89,1531.49 1731.78,1520.86 1735.71,1509.67 1739.69,1497.92 1743.72,1485.58 1747.8,1472.66 1751.94,1459.14 1756.15,1445 1760.43,1430.2 1764.8,1414.72 1769.28,1398.48 1773.88,1381.4 1778.64,1363.36 1783.59,1344.22 1788.65,1324.34 1793.63,1304.45 1798.52,1284.65 1803.32,1265.03 1808.03,1245.6 1812.65,1226.39 1817.2,1207.41 1821.67,1188.65 1826.08,1170.13 1830.44,1151.82 1834.76,1133.67 1839.07,1115.6 1843.38,1097.61 1847.7,1079.67 1852.04,1061.75 1856.42,1043.85 1860.83,1025.95 1865.3,1008.05 1869.83,990.13 1874.42,972.229 1879.08,954.412 1883.77,936.814 1888.46,919.598 1893.13,902.902 1897.75,886.814 1902.31,871.384 1906.81,856.641 1911.26,842.598 1915.63,829.26 1919.95,816.63 1924.21,804.705 1928.41,793.479 1932.55,782.947 1936.63,773.1 1940.66,763.929 1944.64,755.426 1948.58,747.58 1952.46,740.38 1956.3,733.815 1960.09,727.874 1963.84,722.544 1967.56,717.813 1971.23,713.671 1974.87,710.103 1978.48,707.101 1982.06,704.651 1985.61,702.745 1989.13,701.371 1992.63,700.519 1996.11,700.182 1999.57,700.349 2003.02,701.015 2006.46,702.178 2009.91,703.838 2013.37,705.997 2016.83,708.658 2020.31,711.824 2023.81,715.5 2027.32,719.691 2030.86,724.403 2034.42,729.643 2038,735.417 2041.62,741.734 2045.27,748.6 2048.95,756.025 2052.67,764.018 2056.43,772.585 2060.23,781.741 2064.08,791.493 2067.97,801.853 2071.92,812.834 2075.93,824.453 2080,836.727 2084.13,849.682 2088.35,863.349 2092.66,877.774 2097.07,893.012 2101.61,909.136 2106.27,926.18 2111.03,943.986 2115.77,962.158 2120.45,980.465 2125.05,998.799 2129.57,1017.09 2134.01,1035.31 2138.36,1053.42 2142.65,1071.41 2146.87,1089.26 2151.02,1106.97 2155.12,1124.54 2159.17,1141.96 2163.17,1159.24 2167.13,1176.39 2171.06,1193.39 2174.98,1210.38 2178.91,1227.32 2182.84,1244.25 2186.78,1261.16 2190.74,1278.05 2194.73,1294.94 2198.74,1311.8 2202.78,1328.62 2206.86,1345.38 2210.96,1362.03 2215.08,1378.53 2219.22,1394.8 2223.36,1410.78 2227.49,1426.4 2231.61,1441.61 2235.7,1456.36 2239.76,1470.61 2243.8,1484.34 2247.8,1497.53 2251.77,1510.15 2255.7,1522.19 2259.6,1533.64 2263.47,1544.49 2267.3,1554.73 2271.09,1564.36 2274.84,1573.36 2278.56,1581.75 2282.24,1589.5 2285.88,1596.63 2289.49,1603.13 2293.05,1609.02 2296.58,1614.29 2300.08,1618.96 2303.53,1623.02 2306.95,1626.5 2310.34,1629.4 2313.7,1631.72 2317.03,1633.49 2320.33,1634.7 2323.6,1635.37 2326.84,1635.51 2330.06,1635.13 2333.28,1634.23 2336.48,1632.82 2339.68,1630.89 2342.89,1628.44 2346.09,1625.48 2349.3,1621.99 2352.53,1617.98 2355.76,1613.43 2359,1608.36 2362.26,1602.74 2365.54,1596.58 2368.84,1589.87 2372.15,1582.6 2375.49,1574.77 2378.86,1566.37 2382.25,1557.4 2385.67,1547.84 2389.13,1537.69 2392.61,1526.95 2396.13,1515.6 2399.69,1503.64 2403.29,1491.06 2406.94,1477.84 2410.64,1463.96 2414.39,1449.41 2418.21,1434.16 2422.1,1418.16 2426.07,1401.36 2430.15,1383.68 2434.37,1365.01 2438.72,1345.29 2443.15,1324.77 2447.56,1304.04 2451.9,1283.29 2456.18,1262.6 2460.38,1242.03 2464.53,1221.61 2468.61,1201.33 2472.64,1181.22 2476.63,1161.26 2480.59,1141.44 2484.54,1121.66 2488.49,1101.94 2492.45,1082.26 2496.41,1062.67 2500.38,1043.22 2504.33,1023.98 2508.27,1005.05 2512.19,986.511 2516.06,968.419 2519.9,950.826 2523.69,933.768 2527.44,917.265 2531.14,901.337 2534.8,885.99 2538.42,871.234 2542,857.074 2545.54,843.516 2549.05,830.561 2552.52,818.217 2555.96,806.486 2559.37,795.371 2562.75,784.877 2566.09,775.008 2569.41,765.765 2572.69,757.148 2575.94,749.159 2579.17,741.795 2582.36,735.054 2585.53,728.932 2588.66,723.423 2591.77,718.521 2594.85,714.219 2597.91,710.508 2600.94,707.38 2603.95,704.827 2606.93,702.84 2609.89,701.409 2612.83,700.525 2615.76,700.181 2618.66,700.366 2621.56,701.074 2624.45,702.305 2627.35,704.057 2630.25,706.332 2633.15,709.132 2636.06,712.459 2638.99,716.318 2641.92,720.713 2644.87,725.647 2647.84,731.125 2650.82,737.152 2653.82,743.731 2656.85,750.869 2659.89,758.568 2662.96,766.833 2666.06,775.665 2669.18,785.069 2672.32,795.046 2675.49,805.596 2678.7,816.72 2681.93,828.42 2685.19,840.693 2688.49,853.543 2691.81,866.963 2695.18,880.962 2698.58,895.537 2702.03,910.698 2705.52,926.454 2709.06,942.82 2712.67,959.824 2716.34,977.497 2720.1,995.904 2723.95,1015.12 2727.94,1035.23 2732.05,1056.3 2736.24,1077.99 2740.41,1099.75 2744.53,1121.39 2748.59,1142.82 2752.6,1164.03 2756.56,1185 2760.49,1205.8 2764.43,1226.54 2768.38,1247.23 2772.36,1267.96 2776.4,1288.76 2780.51,1309.7 2784.7,1330.77 2788.94,1351.71 2793.15,1372.08 2797.28,1391.68 2801.34,1410.45 2805.32,1428.36 2809.21,1445.43 2813.04,1461.66 2816.8,1477.07 2820.49,1491.68 2824.13,1505.5 2827.7,1518.55 2831.23,1530.85 2834.71,1542.4 2838.15,1553.22 2841.54,1563.32 2844.89,1572.71 2848.2,1581.4 2851.47,1589.4 2854.7,1596.72 2857.91,1603.37 2861.08,1609.36 2864.21,1614.71 2867.32,1619.41 2870.4,1623.49 2873.45,1626.96 2876.48,1629.82 2879.48,1632.09 2882.46,1633.78 2885.43,1634.9 2888.37,1635.46 2891.29,1635.46 2894.2,1634.92 2897.11,1633.84 2900.02,1632.22 2902.93,1630.06 2905.85,1627.36 2908.78,1624.11 2911.72,1620.31 2914.68,1615.95 2917.65,1611.03 2920.64,1605.55 2923.65,1599.5 2926.67,1592.87 2929.73,1585.66 2932.8,1577.86 2935.9,1569.47 2939.03,1560.47 2942.19,1550.88 2945.38,1540.67 2948.6,1529.85 2951.86,1518.41 2955.15,1506.35 2958.48,1493.65 2961.76,1480.66 "/>
<polyline clip-path="url(#clip872)" style="stroke:#009afa; stroke-linecap:round; stroke-linejoin:round; stroke-width:5.6; stroke-opacity:1; fill:none" points="214.411,1167.85 215.925,1164.95 218.417,1160.18 221.263,1154.73 224.525,1148.49 228.104,1141.66 231.987,1134.25 236.129,1126.37 240.503,1118.08 245.073,1109.45 249.817,1100.54 254.713,1091.39 259.745,1082.06 264.9,1072.57 270.169,1062.96 275.545,1053.26 281.025,1043.47 286.609,1033.63 292.296,1023.75 298.09,1013.83 303.997,1003.88 310.025,993.916 316.182,983.934 322.483,973.936 328.941,963.926 335.572,953.905 342.387,943.887 349.378,933.913 356.508,924.066 363.71,914.461 370.927,905.185 378.126,896.287 385.288,887.793 392.402,879.713 399.462,872.05 406.465,864.803 413.409,857.968 420.295,851.538 427.123,845.507 433.893,839.868 440.606,834.614 447.264,829.739 453.867,825.235 460.418,821.095 466.916,817.315 473.364,813.888 479.763,810.809 486.114,808.073 492.419,805.676 498.679,803.614 504.895,801.884 511.069,800.483 517.203,799.408 523.299,798.657 529.358,798.23 535.382,798.125 541.372,798.343 547.351,798.884 553.322,799.755 559.289,800.959 565.253,802.504 571.214,804.394 577.173,806.635 583.128,809.232 589.077,812.191 595.018,815.514 600.947,819.205 606.862,823.265 612.759,827.696 618.634,832.495 624.487,837.663 630.313,843.198 636.113,849.096 641.882,855.354 647.622,861.97 653.331,868.937 659.009,876.253 664.655,883.909 670.271,891.903 675.853,900.224 681.404,908.866 686.921,917.817 692.402,927.065 697.846,936.595 703.248,946.387 708.607,956.423 713.915,966.679 719.172,977.131 724.371,987.753 729.511,998.522 734.589,1009.41 739.604,1020.4 744.555,1031.48 749.442,1042.61 754.267,1053.78 759.03,1064.99 763.735,1076.21 768.383,1087.43 772.977,1098.65 777.519,1109.85 782.013,1121.02 786.462,1132.16 790.868,1143.26 795.235,1154.32 799.565,1165.32 803.862,1176.27 808.134,1187.17 812.396,1198.05 816.648,1208.9 820.899,1219.73 825.15,1230.53 829.407,1241.29 833.673,1252.03 837.951,1262.73 842.244,1273.39 846.557,1284.01 850.89,1294.58 855.248,1305.09 859.634,1315.54 864.049,1325.92 868.499,1336.22 872.985,1346.43 877.51,1356.55 882.079,1366.57 886.693,1376.48 891.357,1386.26 896.074,1395.91 900.847,1405.41 905.682,1414.75 910.583,1423.93 915.555,1432.92 920.604,1441.72 925.736,1450.3 930.962,1458.67 936.291,1466.8 941.735,1474.68 947.307,1482.29 953.015,1489.6 958.843,1496.55 964.738,1503.04 970.627,1508.98 976.468,1514.33 982.237,1519.08 987.927,1523.24 993.534,1526.83 999.058,1529.86 1004.5,1532.36 1009.87,1534.35 1015.17,1535.85 1020.4,1536.87 1025.57,1537.44 1030.69,1537.57 1035.75,1537.28 1040.8,1536.56 1045.83,1535.43 1050.85,1533.88 1055.88,1531.91 1060.91,1529.53 1065.97,1526.71 1071.04,1523.47 1076.14,1519.78 1081.27,1515.65 1086.43,1511.06 1091.64,1505.99 1096.89,1500.44 1102.19,1494.4 1107.54,1487.84 1112.94,1480.77 1118.39,1473.18 1123.88,1465.07 1129.41,1456.45 1134.96,1447.34 1140.51,1437.78 1146.04,1427.81 1151.55,1417.46 1157.02,1406.78 1162.44,1395.82 1167.8,1384.6 1173.09,1373.18 1178.32,1361.58 1183.47,1349.84 1188.55,1337.99 1193.56,1326.04 1198.5,1314.04 1203.36,1301.99 1208.16,1289.91 1212.9,1277.82 1217.57,1265.73 1222.19,1253.65 1226.75,1241.6 1231.26,1229.58 1235.72,1217.6 1240.14,1205.66 1244.52,1193.78 1248.86,1181.96 1253.16,1170.2 1257.44,1158.51 1261.69,1146.87 1265.94,1135.26 1270.19,1123.68 1274.43,1112.13 1278.69,1100.61 1282.96,1089.12 1287.24,1077.66 1291.54,1066.23 1295.87,1054.85 1300.23,1043.51 1304.61,1032.22 1309.03,1020.98 1313.5,1009.8 1318,998.69 1322.56,987.654 1327.17,976.699 1331.84,965.831 1336.57,955.057 1341.39,944.382 1346.29,933.808 1351.3,923.34 1356.42,912.963 1361.71,902.66 1367.21,892.374 1373.06,881.94 1379.89,870.432 1385.83,861.046 1391.79,852.216 1397.48,844.368 1403.06,837.22 1408.48,830.821 1413.79,825.084 1418.97,819.988 1424.05,815.49 1429.03,811.564 1433.93,808.181 1438.75,805.318 1443.5,802.956 1448.19,801.078 1452.82,799.669 1457.41,798.717 1461.95,798.212 1466.46,798.147 1470.94,798.516 1475.41,799.319 1479.88,800.559 1484.35,802.243 1488.84,804.377 1493.34,806.97 1497.86,810.03 1502.39,813.566 1506.94,817.584 1511.51,822.089 1516.09,827.082 1520.67,832.559 1525.25,838.514 1529.83,844.935 1534.39,851.809 1538.93,859.121 1543.45,866.854 1547.94,874.991 1552.4,883.513 1556.84,892.405 1561.24,901.648 1565.6,911.223 1569.94,921.114 1574.24,931.298 1578.5,941.758 1582.73,952.47 1586.92,963.413 1591.07,974.564 1595.18,985.899 1599.26,997.395 1603.29,1009.03 1607.28,1020.78 1611.22,1032.62 1615.13,1044.54 1619,1056.51 1622.82,1068.53 1626.61,1080.56 1630.35,1092.61 1634.07,1104.65 1637.74,1116.67 1641.39,1128.67 1645,1140.63 1648.58,1152.55 1652.14,1164.41 1655.67,1176.21 1659.18,1187.95 1662.69,1199.67 1666.19,1211.35 1669.69,1223 1673.19,1234.62 1676.7,1246.2 1680.22,1257.74 1683.76,1269.23 1687.3,1280.67 1690.86,1292.04 1694.45,1303.35 1698.05,1314.58 1701.67,1325.72 1705.32,1336.76 1709,1347.7 1712.71,1358.52 1716.45,1369.21 1720.23,1379.75 1724.04,1390.13 1727.89,1400.34 1731.78,1410.37 1735.71,1420.19 1739.69,1429.79 1743.72,1439.15 1747.8,1448.26 1751.94,1457.11 1756.15,1465.67 1760.43,1473.93 1764.8,1481.88 1769.28,1489.5 1773.88,1496.79 1778.64,1503.72 1783.59,1510.28 1788.65,1516.27 1793.63,1521.46 1798.52,1525.87 1803.32,1529.51 1808.03,1532.44 1812.65,1534.67 1817.2,1536.26 1821.67,1537.22 1826.08,1537.58 1830.44,1537.36 1834.76,1536.59 1839.07,1535.27 1843.38,1533.39 1847.7,1530.95 1852.04,1527.94 1856.42,1524.35 1860.83,1520.15 1865.3,1515.33 1869.83,1509.85 1874.42,1503.68 1879.08,1496.83 1883.77,1489.32 1888.46,1481.19 1893.13,1472.53 1897.75,1463.38 1902.31,1453.8 1906.81,1443.84 1911.26,1433.52 1915.63,1422.9 1919.95,1411.99 1924.21,1400.83 1928.41,1389.45 1932.55,1377.87 1936.63,1366.11 1940.66,1354.21 1944.64,1342.18 1948.58,1330.05 1952.46,1317.83 1956.3,1305.54 1960.09,1293.2 1963.84,1280.83 1967.56,1268.43 1971.23,1256.03 1974.87,1243.63 1978.48,1231.25 1982.06,1218.89 1985.61,1206.56 1989.13,1194.28 1992.63,1182.04 1996.11,1169.87 1999.57,1157.76 2003.02,1145.7 2006.46,1133.67 2009.91,1121.66 2013.37,1109.69 2016.83,1097.75 2020.31,1085.84 2023.81,1073.98 2027.32,1062.16 2030.86,1050.39 2034.42,1038.68 2038,1027.04 2041.62,1015.48 2045.27,1004.01 2048.95,992.636 2052.67,981.371 2056.43,970.23 2060.23,959.224 2064.08,948.369 2067.97,937.68 2071.92,927.169 2075.93,916.854 2080,906.75 2084.13,896.87 2088.35,887.227 2092.66,877.834 2097.07,868.702 2101.61,859.846 2106.27,851.311 2111.03,843.23 2115.77,835.801 2120.45,829.096 2125.05,823.121 2129.57,817.857 2134.01,813.279 2138.36,809.359 2142.65,806.067 2146.87,803.379 2151.02,801.267 2155.12,799.71 2159.17,798.687 2163.17,798.183 2167.13,798.182 2171.06,798.672 2174.98,799.653 2178.91,801.122 2182.84,803.087 2186.78,805.553 2190.74,808.532 2194.73,812.033 2198.74,816.07 2202.78,820.653 2206.86,825.794 2210.96,831.497 2215.08,837.759 2219.22,844.57 2223.36,851.911 2227.49,859.758 2231.61,868.082 2235.7,876.856 2239.76,886.052 2243.8,895.644 2247.8,905.607 2251.77,915.915 2255.7,926.545 2259.6,937.472 2263.47,948.672 2267.3,960.121 2271.09,971.792 2274.84,983.665 2278.56,995.709 2282.24,1007.9 2285.88,1020.22 2289.49,1032.64 2293.05,1045.14 2296.58,1057.7 2300.08,1070.3 2303.53,1082.93 2306.95,1095.56 2310.34,1108.18 2313.7,1120.78 2317.03,1133.34 2320.33,1145.86 2323.6,1158.33 2326.84,1170.72 2330.06,1183.05 2333.28,1195.34 2336.48,1207.59 2339.68,1219.8 2342.89,1231.97 2346.09,1244.09 2349.3,1256.17 2352.53,1268.19 2355.76,1280.15 2359,1292.03 2362.26,1303.84 2365.54,1315.56 2368.84,1327.19 2372.15,1338.7 2375.49,1350.09 2378.86,1361.34 2382.25,1372.45 2385.67,1383.39 2389.13,1394.15 2392.61,1404.72 2396.13,1415.07 2399.69,1425.2 2403.29,1435.08 2406.94,1444.69 2410.64,1454.03 2414.39,1463.07 2418.21,1471.79 2422.1,1480.17 2426.07,1488.2 2430.15,1495.86 2434.37,1503.12 2438.72,1509.94 2443.15,1516.15 2447.56,1521.56 2451.9,1526.14 2456.18,1529.91 2460.38,1532.9 2464.53,1535.13 2468.61,1536.63 2472.64,1537.43 2476.63,1537.54 2480.59,1536.99 2484.54,1535.77 2488.49,1533.89 2492.45,1531.34 2496.41,1528.11 2500.38,1524.21 2504.33,1519.65 2508.27,1514.46 2512.19,1508.66 2516.06,1502.28 2519.9,1495.36 2523.69,1487.94 2527.44,1480.03 2531.14,1471.67 2534.8,1462.89 2538.42,1453.7 2542,1444.14 2545.54,1434.22 2549.05,1423.97 2552.52,1413.41 2555.96,1402.55 2559.37,1391.43 2562.75,1380.06 2566.09,1368.47 2569.41,1356.68 2572.69,1344.71 2575.94,1332.58 2579.17,1320.33 2582.36,1307.96 2585.53,1295.5 2588.66,1282.97 2591.77,1270.39 2594.85,1257.78 2597.91,1245.14 2600.94,1232.5 2603.95,1219.87 2606.93,1207.27 2609.89,1194.7 2612.83,1182.17 2615.76,1169.7 2618.66,1157.29 2621.56,1144.93 2624.45,1132.6 2627.35,1120.31 2630.25,1108.05 2633.15,1095.84 2636.06,1083.67 2638.99,1071.55 2641.92,1059.49 2644.87,1047.5 2647.84,1035.58 2650.82,1023.76 2653.82,1012.04 2656.85,1000.43 2659.89,988.951 2662.96,977.612 2666.06,966.432 2669.18,955.426 2672.32,944.612 2675.49,934.008 2678.7,923.633 2681.93,913.504 2685.19,903.643 2688.49,894.068 2691.81,884.801 2695.18,875.858 2698.58,867.262 2702.03,859.029 2705.52,851.18 2709.06,843.735 2712.67,836.711 2716.34,830.132 2720.1,824.017 2723.95,818.394 2727.94,813.297 2732.05,808.792 2736.24,805.009 2740.41,802.062 2744.53,799.95 2748.59,798.65 2752.6,798.133 2756.56,798.369 2760.49,799.34 2764.43,801.043 2768.38,803.486 2772.36,806.69 2776.4,810.691 2780.51,815.538 2784.7,821.279 2788.94,827.89 2793.15,835.238 2797.28,843.217 2801.34,851.755 2805.32,860.794 2809.21,870.287 2813.04,880.19 2816.8,890.469 2820.49,901.09 2824.13,912.026 2827.7,923.246 2831.23,934.728 2834.71,946.444 2838.15,958.373 2841.54,970.49 2844.89,982.771 2848.2,995.197 2851.47,1007.74 2854.7,1020.39 2857.91,1033.12 2861.08,1045.92 2864.21,1058.76 2867.32,1071.63 2870.4,1084.52 2873.45,1097.41 2876.48,1110.28 2879.48,1123.13 2882.46,1135.95 2885.43,1148.72 2888.37,1161.44 2891.29,1174.08 2894.2,1186.66 2897.11,1199.22 2900.02,1211.73 2902.93,1224.22 2905.85,1236.66 2908.78,1249.06 2911.72,1261.41 2914.68,1273.71 2917.65,1285.94 2920.64,1298.09 2923.65,1310.15 2926.67,1322.12 2929.73,1333.98 2932.8,1345.71 2935.9,1357.3 2939.03,1368.74 2942.19,1380 2945.38,1391.07 2948.6,1401.94 2951.86,1412.58 2955.15,1422.97 2958.48,1433.1 2961.76,1442.7 "/>
<polyline clip-path="url(#clip872)" style="stroke:#707070; stroke-linecap:round; stroke-linejoin:round; stroke-width:5.6; stroke-opacity:1; fill:none" points="214.411,746.942 215.925,746.946 218.417,746.97 221.263,747.024 224.525,747.119 228.104,747.264 231.987,747.469 236.129,747.741 240.503,748.088 245.073,748.512 249.817,749.018 254.713,749.607 259.745,750.28 264.9,751.037 270.169,751.878 275.545,752.801 281.025,753.805 286.609,754.888 292.296,756.046 298.09,757.277 303.997,758.578 310.025,759.946 316.182,761.377 322.483,762.866 328.941,764.41 335.572,766.002 342.387,767.633 349.378,769.289 356.508,770.946 363.71,772.573 370.927,774.143 378.126,775.634 385.288,777.03 392.402,778.319 399.462,779.488 406.465,780.529 413.409,781.435 420.295,782.198 427.123,782.812 433.893,783.274 440.606,783.58 447.264,783.726 453.867,783.709 460.418,783.529 466.916,783.184 473.364,782.673 479.763,781.996 486.114,781.154 492.419,780.147 498.679,778.977 504.895,777.644 511.069,776.151 517.203,774.5 523.299,772.693 529.358,770.733 535.382,768.622 541.372,766.364 547.351,763.954 553.322,761.391 559.289,758.679 565.253,755.819 571.214,752.813 577.173,749.667 583.128,746.385 589.077,742.973 595.018,739.438 600.947,735.788 606.862,732.033 612.759,728.18 618.634,724.242 624.487,720.227 630.313,716.147 636.113,712.012 641.882,707.833 647.622,703.62 653.331,699.384 659.009,695.135 664.655,690.884 670.271,686.641 675.853,682.416 681.404,678.221 686.921,674.065 692.402,669.96 697.846,665.917 703.248,661.948 708.607,658.064 713.915,654.276 719.172,650.594 724.371,647.028 729.511,643.585 734.589,640.271 739.604,637.093 744.555,634.053 749.442,631.154 754.267,628.396 759.03,625.782 763.735,623.31 768.383,620.978 772.977,618.787 777.519,616.733 782.013,614.815 786.462,613.03 790.868,611.376 795.235,609.85 799.565,608.449 803.862,607.171 808.134,606.011 812.396,604.964 816.648,604.029 820.899,603.202 825.15,602.484 829.407,601.872 833.673,601.364 837.951,600.959 842.244,600.656 846.557,600.452 850.89,600.348 855.248,600.34 859.634,600.427 864.049,600.606 868.499,600.876 872.985,601.235 877.51,601.679 882.079,602.206 886.693,602.813 891.357,603.496 896.074,604.251 900.847,605.074 905.682,605.962 910.583,606.909 915.555,607.909 920.604,608.958 925.736,610.049 930.962,611.177 936.291,612.334 941.735,613.514 947.307,614.708 953.015,615.906 958.843,617.09 964.738,618.238 970.627,619.322 976.468,620.325 982.237,621.236 987.927,622.048 993.534,622.757 999.058,623.36 1004.5,623.855 1009.87,624.243 1015.17,624.525 1020.4,624.699 1025.57,624.769 1030.69,624.735 1035.75,624.598 1040.8,624.36 1045.83,624.02 1050.85,623.578 1055.88,623.035 1060.91,622.389 1065.97,621.641 1071.04,620.79 1076.14,619.838 1081.27,618.783 1086.43,617.626 1091.64,616.369 1096.89,615.013 1102.19,613.558 1107.54,612.009 1112.94,610.369 1118.39,608.643 1123.88,606.839 1129.41,604.968 1134.96,603.041 1140.51,601.072 1146.04,599.078 1151.55,597.073 1157.02,595.071 1162.44,593.086 1167.8,591.129 1173.09,589.212 1178.32,587.342 1183.47,585.529 1188.55,583.777 1193.56,582.093 1198.5,580.479 1203.36,578.94 1208.16,577.477 1212.9,576.091 1217.57,574.783 1222.19,573.554 1226.75,572.403 1231.26,571.33 1235.72,570.333 1240.14,569.412 1244.52,568.566 1248.86,567.792 1253.16,567.089 1257.44,566.455 1261.69,565.887 1265.94,565.382 1270.19,564.938 1274.43,564.554 1278.69,564.228 1282.96,563.958 1287.24,563.742 1291.54,563.578 1295.87,563.463 1300.23,563.395 1304.61,563.371 1309.03,563.388 1313.5,563.442 1318,563.531 1322.56,563.648 1327.17,563.791 1331.84,563.953 1336.57,564.13 1341.39,564.314 1346.29,564.499 1351.3,564.676 1356.42,564.838 1361.71,564.973 1367.21,565.068 1373.06,565.107 1379.89,565.053 1385.83,564.904 1391.79,564.645 1397.48,564.283 1403.06,563.809 1408.48,563.228 1413.79,562.535 1418.97,561.734 1424.05,560.824 1429.03,559.805 1433.93,558.679 1438.75,557.446 1443.5,556.107 1448.19,554.664 1452.82,553.117 1457.41,551.468 1461.95,549.716 1466.46,547.864 1470.94,545.912 1475.41,543.852 1479.88,541.682 1484.35,539.403 1488.84,537.012 1493.34,534.511 1497.86,531.901 1502.39,529.183 1506.94,526.362 1511.51,523.443 1516.09,520.434 1520.67,517.345 1525.25,514.186 1529.83,510.969 1534.39,507.708 1538.93,504.414 1543.45,501.1 1547.94,497.776 1552.4,494.454 1556.84,491.145 1561.24,487.858 1565.6,484.602 1569.94,481.387 1574.24,478.221 1578.5,475.113 1582.73,472.071 1586.92,469.102 1591.07,466.213 1595.18,463.412 1599.26,460.703 1603.29,458.092 1607.28,455.583 1611.22,453.179 1615.13,450.884 1619,448.698 1622.82,446.622 1626.61,444.658 1630.35,442.805 1634.07,441.063 1637.74,439.431 1641.39,437.907 1645,436.49 1648.58,435.179 1652.14,433.971 1655.67,432.865 1659.18,431.856 1662.69,430.941 1666.19,430.117 1669.69,429.384 1673.19,428.739 1676.7,428.181 1680.22,427.709 1683.76,427.32 1687.3,427.014 1690.86,426.789 1694.45,426.642 1698.05,426.572 1701.67,426.577 1705.32,426.654 1709,426.8 1712.71,427.012 1716.45,427.288 1720.23,427.624 1724.04,428.016 1727.89,428.459 1731.78,428.95 1735.71,429.483 1739.69,430.053 1743.72,430.655 1747.8,431.282 1751.94,431.929 1756.15,432.589 1760.43,433.255 1764.8,433.92 1769.28,434.577 1773.88,435.218 1778.64,435.835 1783.59,436.416 1788.65,436.936 1793.63,437.365 1798.52,437.699 1803.32,437.934 1808.03,438.07 1812.65,438.108 1817.2,438.049 1821.67,437.896 1826.08,437.65 1830.44,437.314 1834.76,436.888 1839.07,436.372 1843.38,435.766 1847.7,435.069 1852.04,434.281 1856.42,433.402 1860.83,432.43 1865.3,431.364 1869.83,430.206 1874.42,428.955 1879.08,427.618 1883.77,426.207 1888.46,424.74 1893.13,423.236 1897.75,421.71 1902.31,420.176 1906.81,418.647 1911.26,417.133 1915.63,415.641 1919.95,414.182 1924.21,412.763 1928.41,411.388 1932.55,410.066 1936.63,408.799 1940.66,407.594 1944.64,406.454 1948.58,405.381 1952.46,404.379 1956.3,403.449 1960.09,402.594 1963.84,401.814 1967.56,401.11 1971.23,400.482 1974.87,399.931 1978.48,399.456 1982.06,399.056 1985.61,398.732 1989.13,398.481 1992.63,398.302 1996.11,398.195 1999.57,398.157 2003.02,398.188 2006.46,398.286 2009.91,398.449 2013.37,398.678 2016.83,398.971 2020.31,399.326 2023.81,399.742 2027.32,400.218 2030.86,400.752 2034.42,401.341 2038,401.984 2041.62,402.678 2045.27,403.419 2048.95,404.204 2052.67,405.031 2056.43,405.894 2060.23,406.789 2064.08,407.711 2067.97,408.654 2071.92,409.613 2075.93,410.581 2080,411.55 2084.13,412.514 2088.35,413.465 2092.66,414.393 2097.07,415.29 2101.61,416.144 2106.27,416.94 2111.03,417.654 2115.77,418.257 2120.45,418.735 2125.05,419.085 2129.57,419.302 2134.01,419.388 2138.36,419.343 2142.65,419.17 2146.87,418.87 2151.02,418.446 2155.12,417.901 2159.17,417.236 2163.17,416.454 2167.13,415.558 2171.06,414.548 2174.98,413.42 2178.91,412.176 2182.84,410.811 2186.78,409.326 2190.74,407.72 2194.73,405.993 2198.74,404.143 2202.78,402.171 2206.86,400.081 2210.96,397.876 2215.08,395.565 2219.22,393.157 2223.36,390.667 2227.49,388.106 2231.61,385.49 2235.7,382.832 2239.76,380.144 2243.8,377.439 2247.8,374.726 2251.77,372.016 2255.7,369.319 2259.6,366.643 2263.47,363.996 2267.3,361.387 2271.09,358.823 2274.84,356.31 2278.56,353.856 2282.24,351.464 2285.88,349.142 2289.49,346.891 2293.05,344.717 2296.58,342.621 2300.08,340.606 2303.53,338.673 2306.95,336.823 2310.34,335.056 2313.7,333.372 2317.03,331.771 2320.33,330.251 2323.6,328.811 2326.84,327.45 2330.06,326.166 2333.28,324.954 2336.48,323.81 2339.68,322.733 2342.89,321.721 2346.09,320.772 2349.3,319.885 2352.53,319.057 2355.76,318.287 2359,317.571 2362.26,316.909 2365.54,316.297 2368.84,315.732 2372.15,315.212 2375.49,314.733 2378.86,314.293 2382.25,313.886 2385.67,313.509 2389.13,313.157 2392.61,312.825 2396.13,312.509 2399.69,312.202 2403.29,311.898 2406.94,311.59 2410.64,311.272 2414.39,310.936 2418.21,310.572 2422.1,310.172 2426.07,309.724 2430.15,309.215 2434.37,308.629 2438.72,307.952 2443.15,307.176 2447.56,306.313 2451.9,305.365 2456.18,304.333 2460.38,303.216 2464.53,302.014 2468.61,300.729 2472.64,299.36 2476.63,297.906 2480.59,296.368 2484.54,294.738 2488.49,293.015 2492.45,291.2 2496.41,289.294 2500.38,287.303 2504.33,285.237 2508.27,283.107 2512.19,280.928 2516.06,278.712 2519.9,276.469 2523.69,274.211 2527.44,271.946 2531.14,269.684 2534.8,267.432 2538.42,265.197 2542,262.986 2545.54,260.805 2549.05,258.661 2552.52,256.561 2555.96,254.508 2559.37,252.509 2562.75,250.57 2566.09,248.694 2569.41,246.888 2572.69,245.153 2575.94,243.496 2579.17,241.917 2582.36,240.421 2585.53,239.009 2588.66,237.683 2591.77,236.444 2594.85,235.293 2597.91,234.23 2600.94,233.255 2603.95,232.367 2606.93,231.567 2609.89,230.852 2612.83,230.222 2615.76,229.676 2618.66,229.211 2621.56,228.826 2624.45,228.518 2627.35,228.287 2630.25,228.131 2633.15,228.049 2636.06,228.041 2638.99,228.104 2641.92,228.237 2644.87,228.44 2647.84,228.71 2650.82,229.045 2653.82,229.444 2656.85,229.903 2659.89,230.421 2662.96,230.994 2666.06,231.619 2669.18,232.292 2672.32,233.01 2675.49,233.768 2678.7,234.561 2681.93,235.384 2685.19,236.232 2688.49,237.099 2691.81,237.98 2695.18,238.868 2698.58,239.757 2702.03,240.641 2705.52,241.512 2709.06,242.364 2712.67,243.191 2716.34,243.984 2720.1,244.736 2723.95,245.44 2727.94,246.086 2732.05,246.661 2736.24,247.142 2740.41,247.51 2744.53,247.761 2748.59,247.895 2752.6,247.915 2756.56,247.824 2760.49,247.623 2764.43,247.314 2768.38,246.895 2772.36,246.365 2776.4,245.722 2780.51,244.962 2784.7,244.082 2788.94,243.093 2793.15,242.021 2797.28,240.887 2801.34,239.707 2805.32,238.494 2809.21,237.26 2813.04,236.014 2816.8,234.765 2820.49,233.523 2824.13,232.293 2827.7,231.083 2831.23,229.9 2834.71,228.748 2838.15,227.634 2841.54,226.561 2844.89,225.534 2848.2,224.557 2851.47,223.634 2854.7,222.766 2857.91,221.957 2861.08,221.208 2864.21,220.521 2867.32,219.897 2870.4,219.337 2873.45,218.84 2876.48,218.408 2879.48,218.04 2882.46,217.736 2885.43,217.494 2888.37,217.315 2891.29,217.196 2894.2,217.137 2897.11,217.136 2900.02,217.192 2902.93,217.305 2905.85,217.473 2908.78,217.696 2911.72,217.971 2914.68,218.298 2917.65,218.675 2920.64,219.099 2923.65,219.569 2926.67,220.082 2929.73,220.635 2932.8,221.225 2935.9,221.848 2939.03,222.501 2942.19,223.178 2945.38,223.876 2948.6,224.589 2951.86,225.312 2955.15,226.038 2958.48,226.762 2961.76,227.458 "/>
</svg>
