<?xml version="1.0" encoding="utf-8"?>
<svg xmlns="http://www.w3.org/2000/svg" xmlns:xlink="http://www.w3.org/1999/xlink" width="864" height="480" viewBox="0 0 3456 1920">
<defs>
  <clipPath id="clip180">
    <rect x="0" y="0" width="3456" height="1920"/>
  </clipPath>
</defs>
<path clip-path="url(#clip180)" d="M0 1920 L3456 1920 L3456 0 L0 0  Z" fill="#ffffff" fill-rule="evenodd" fill-opacity="1"/>
<defs>
  <clipPath id="clip181">
    <rect x="691" y="0" width="2420" height="1920"/>
  </clipPath>
</defs>
<path clip-path="url(#clip180)" d="M311.694 1676.83 L2784.38 1676.83 L2784.38 110.236 L311.694 110.236  Z" fill="#ffffff" fill-rule="evenodd" fill-opacity="1"/>
<defs>
  <clipPath id="clip182">
    <rect x="311" y="110" width="2474" height="1568"/>
  </clipPath>
</defs>
<polyline clip-path="url(#clip182)" style="stroke:#000000; stroke-linecap:round; stroke-linejoin:round; stroke-width:2.8; stroke-opacity:0.4; fill:none" points="442.753,1676.83 442.753,110.236 "/>
<polyline clip-path="url(#clip182)" style="stroke:#000000; stroke-linecap:round; stroke-linejoin:round; stroke-width:2.8; stroke-opacity:0.4; fill:none" points="787.076,1676.83 787.076,110.236 "/>
<polyline clip-path="url(#clip182)" style="stroke:#000000; stroke-linecap:round; stroke-linejoin:round; stroke-width:2.8; stroke-opacity:0.4; fill:none" points="1131.4,1676.83 1131.4,110.236 "/>
<polyline clip-path="url(#clip182)" style="stroke:#000000; stroke-linecap:round; stroke-linejoin:round; stroke-width:2.8; stroke-opacity:0.4; fill:none" points="1475.72,1676.83 1475.72,110.236 "/>
<polyline clip-path="url(#clip182)" style="stroke:#000000; stroke-linecap:round; stroke-linejoin:round; stroke-width:2.8; stroke-opacity:0.4; fill:none" points="1820.05,1676.83 1820.05,110.236 "/>
<polyline clip-path="url(#clip182)" style="stroke:#000000; stroke-linecap:round; stroke-linejoin:round; stroke-width:2.8; stroke-opacity:0.4; fill:none" points="2164.37,1676.83 2164.37,110.236 "/>
<polyline clip-path="url(#clip182)" style="stroke:#000000; stroke-linecap:round; stroke-linejoin:round; stroke-width:2.8; stroke-opacity:0.4; fill:none" points="2508.69,1676.83 2508.69,110.236 "/>
<polyline clip-path="url(#clip182)" style="stroke:#000000; stroke-linecap:round; stroke-linejoin:round; stroke-width:2; stroke-opacity:0.06; fill:none" points="326.633,1676.83 326.633,110.236 "/>
<polyline clip-path="url(#clip182)" style="stroke:#000000; stroke-linecap:round; stroke-linejoin:round; stroke-width:2; stroke-opacity:0.06; fill:none" points="376.017,1676.83 376.017,110.236 "/>
<polyline clip-path="url(#clip182)" style="stroke:#000000; stroke-linecap:round; stroke-linejoin:round; stroke-width:2; stroke-opacity:0.06; fill:none" points="413.077,1676.83 413.077,110.236 "/>
<polyline clip-path="url(#clip182)" style="stroke:#000000; stroke-linecap:round; stroke-linejoin:round; stroke-width:2; stroke-opacity:0.06; fill:none" points="596.72,1676.83 596.72,110.236 "/>
<polyline clip-path="url(#clip182)" style="stroke:#000000; stroke-linecap:round; stroke-linejoin:round; stroke-width:2; stroke-opacity:0.06; fill:none" points="670.956,1676.83 670.956,110.236 "/>
<polyline clip-path="url(#clip182)" style="stroke:#000000; stroke-linecap:round; stroke-linejoin:round; stroke-width:2; stroke-opacity:0.06; fill:none" points="720.34,1676.83 720.34,110.236 "/>
<polyline clip-path="url(#clip182)" style="stroke:#000000; stroke-linecap:round; stroke-linejoin:round; stroke-width:2; stroke-opacity:0.06; fill:none" points="757.4,1676.83 757.4,110.236 "/>
<polyline clip-path="url(#clip182)" style="stroke:#000000; stroke-linecap:round; stroke-linejoin:round; stroke-width:2; stroke-opacity:0.06; fill:none" points="941.043,1676.83 941.043,110.236 "/>
<polyline clip-path="url(#clip182)" style="stroke:#000000; stroke-linecap:round; stroke-linejoin:round; stroke-width:2; stroke-opacity:0.06; fill:none" points="1015.28,1676.83 1015.28,110.236 "/>
<polyline clip-path="url(#clip182)" style="stroke:#000000; stroke-linecap:round; stroke-linejoin:round; stroke-width:2; stroke-opacity:0.06; fill:none" points="1064.66,1676.83 1064.66,110.236 "/>
<polyline clip-path="url(#clip182)" style="stroke:#000000; stroke-linecap:round; stroke-linejoin:round; stroke-width:2; stroke-opacity:0.06; fill:none" points="1101.72,1676.83 1101.72,110.236 "/>
<polyline clip-path="url(#clip182)" style="stroke:#000000; stroke-linecap:round; stroke-linejoin:round; stroke-width:2; stroke-opacity:0.06; fill:none" points="1285.37,1676.83 1285.37,110.236 "/>
<polyline clip-path="url(#clip182)" style="stroke:#000000; stroke-linecap:round; stroke-linejoin:round; stroke-width:2; stroke-opacity:0.06; fill:none" points="1359.6,1676.83 1359.6,110.236 "/>
<polyline clip-path="url(#clip182)" style="stroke:#000000; stroke-linecap:round; stroke-linejoin:round; stroke-width:2; stroke-opacity:0.06; fill:none" points="1408.99,1676.83 1408.99,110.236 "/>
<polyline clip-path="url(#clip182)" style="stroke:#000000; stroke-linecap:round; stroke-linejoin:round; stroke-width:2; stroke-opacity:0.06; fill:none" points="1446.05,1676.83 1446.05,110.236 "/>
<polyline clip-path="url(#clip182)" style="stroke:#000000; stroke-linecap:round; stroke-linejoin:round; stroke-width:2; stroke-opacity:0.06; fill:none" points="1629.69,1676.83 1629.69,110.236 "/>
<polyline clip-path="url(#clip182)" style="stroke:#000000; stroke-linecap:round; stroke-linejoin:round; stroke-width:2; stroke-opacity:0.06; fill:none" points="1703.92,1676.83 1703.92,110.236 "/>
<polyline clip-path="url(#clip182)" style="stroke:#000000; stroke-linecap:round; stroke-linejoin:round; stroke-width:2; stroke-opacity:0.06; fill:none" points="1753.31,1676.83 1753.31,110.236 "/>
<polyline clip-path="url(#clip182)" style="stroke:#000000; stroke-linecap:round; stroke-linejoin:round; stroke-width:2; stroke-opacity:0.06; fill:none" points="1790.37,1676.83 1790.37,110.236 "/>
<polyline clip-path="url(#clip182)" style="stroke:#000000; stroke-linecap:round; stroke-linejoin:round; stroke-width:2; stroke-opacity:0.06; fill:none" points="1974.01,1676.83 1974.01,110.236 "/>
<polyline clip-path="url(#clip182)" style="stroke:#000000; stroke-linecap:round; stroke-linejoin:round; stroke-width:2; stroke-opacity:0.06; fill:none" points="2048.25,1676.83 2048.25,110.236 "/>
<polyline clip-path="url(#clip182)" style="stroke:#000000; stroke-linecap:round; stroke-linejoin:round; stroke-width:2; stroke-opacity:0.06; fill:none" points="2097.63,1676.83 2097.63,110.236 "/>
<polyline clip-path="url(#clip182)" style="stroke:#000000; stroke-linecap:round; stroke-linejoin:round; stroke-width:2; stroke-opacity:0.06; fill:none" points="2134.69,1676.83 2134.69,110.236 "/>
<polyline clip-path="url(#clip182)" style="stroke:#000000; stroke-linecap:round; stroke-linejoin:round; stroke-width:2; stroke-opacity:0.06; fill:none" points="2318.33,1676.83 2318.33,110.236 "/>
<polyline clip-path="url(#clip182)" style="stroke:#000000; stroke-linecap:round; stroke-linejoin:round; stroke-width:2; stroke-opacity:0.06; fill:none" points="2392.57,1676.83 2392.57,110.236 "/>
<polyline clip-path="url(#clip182)" style="stroke:#000000; stroke-linecap:round; stroke-linejoin:round; stroke-width:2; stroke-opacity:0.06; fill:none" points="2441.95,1676.83 2441.95,110.236 "/>
<polyline clip-path="url(#clip182)" style="stroke:#000000; stroke-linecap:round; stroke-linejoin:round; stroke-width:2; stroke-opacity:0.06; fill:none" points="2479.02,1676.83 2479.02,110.236 "/>
<polyline clip-path="url(#clip182)" style="stroke:#000000; stroke-linecap:round; stroke-linejoin:round; stroke-width:2; stroke-opacity:0.06; fill:none" points="2662.66,1676.83 2662.66,110.236 "/>
<polyline clip-path="url(#clip182)" style="stroke:#000000; stroke-linecap:round; stroke-linejoin:round; stroke-width:2; stroke-opacity:0.06; fill:none" points="2736.89,1676.83 2736.89,110.236 "/>
<polyline clip-path="url(#clip180)" style="stroke:#000000; stroke-linecap:round; stroke-linejoin:round; stroke-width:4; stroke-opacity:1; fill:none" points="311.694,1676.83 2784.38,1676.83 "/>
<polyline clip-path="url(#clip180)" style="stroke:#000000; stroke-linecap:round; stroke-linejoin:round; stroke-width:4; stroke-opacity:1; fill:none" points="311.694,110.236 2784.38,110.236 "/>
<polyline clip-path="url(#clip180)" style="stroke:#000000; stroke-linecap:round; stroke-linejoin:round; stroke-width:4; stroke-opacity:1; fill:none" points="442.753,1676.83 442.753,1657.93 "/>
<polyline clip-path="url(#clip180)" style="stroke:#000000; stroke-linecap:round; stroke-linejoin:round; stroke-width:4; stroke-opacity:1; fill:none" points="787.076,1676.83 787.076,1657.93 "/>
<polyline clip-path="url(#clip180)" style="stroke:#000000; stroke-linecap:round; stroke-linejoin:round; stroke-width:4; stroke-opacity:1; fill:none" points="1131.4,1676.83 1131.4,1657.93 "/>
<polyline clip-path="url(#clip180)" style="stroke:#000000; stroke-linecap:round; stroke-linejoin:round; stroke-width:4; stroke-opacity:1; fill:none" points="1475.72,1676.83 1475.72,1657.93 "/>
<polyline clip-path="url(#clip180)" style="stroke:#000000; stroke-linecap:round; stroke-linejoin:round; stroke-width:4; stroke-opacity:1; fill:none" points="1820.05,1676.83 1820.05,1657.93 "/>
<polyline clip-path="url(#clip180)" style="stroke:#000000; stroke-linecap:round; stroke-linejoin:round; stroke-width:4; stroke-opacity:1; fill:none" points="2164.37,1676.83 2164.37,1657.93 "/>
<polyline clip-path="url(#clip180)" style="stroke:#000000; stroke-linecap:round; stroke-linejoin:round; stroke-width:4; stroke-opacity:1; fill:none" points="2508.69,1676.83 2508.69,1657.93 "/>
<polyline clip-path="url(#clip180)" style="stroke:#000000; stroke-linecap:round; stroke-linejoin:round; stroke-width:4; stroke-opacity:1; fill:none" points="326.633,1676.83 326.633,1667.38 "/>
<polyline clip-path="url(#clip180)" style="stroke:#000000; stroke-linecap:round; stroke-linejoin:round; stroke-width:4; stroke-opacity:1; fill:none" points="376.017,1676.83 376.017,1667.38 "/>
<polyline clip-path="url(#clip180)" style="stroke:#000000; stroke-linecap:round; stroke-linejoin:round; stroke-width:4; stroke-opacity:1; fill:none" points="413.077,1676.83 413.077,1667.38 "/>
<polyline clip-path="url(#clip180)" style="stroke:#000000; stroke-linecap:round; stroke-linejoin:round; stroke-width:4; stroke-opacity:1; fill:none" points="596.72,1676.83 596.72,1667.38 "/>
<polyline clip-path="url(#clip180)" style="stroke:#000000; stroke-linecap:round; stroke-linejoin:round; stroke-width:4; stroke-opacity:1; fill:none" points="670.956,1676.83 670.956,1667.38 "/>
<polyline clip-path="url(#clip180)" style="stroke:#000000; stroke-linecap:round; stroke-linejoin:round; stroke-width:4; stroke-opacity:1; fill:none" points="720.34,1676.83 720.34,1667.38 "/>
<polyline clip-path="url(#clip180)" style="stroke:#000000; stroke-linecap:round; stroke-linejoin:round; stroke-width:4; stroke-opacity:1; fill:none" points="757.4,1676.83 757.4,1667.38 "/>
<polyline clip-path="url(#clip180)" style="stroke:#000000; stroke-linecap:round; stroke-linejoin:round; stroke-width:4; stroke-opacity:1; fill:none" points="941.043,1676.83 941.043,1667.38 "/>
<polyline clip-path="url(#clip180)" style="stroke:#000000; stroke-linecap:round; stroke-linejoin:round; stroke-width:4; stroke-opacity:1; fill:none" points="1015.28,1676.83 1015.28,1667.38 "/>
<polyline clip-path="url(#clip180)" style="stroke:#000000; stroke-linecap:round; stroke-linejoin:round; stroke-width:4; stroke-opacity:1; fill:none" points="1064.66,1676.83 1064.66,1667.38 "/>
<polyline clip-path="url(#clip180)" style="stroke:#000000; stroke-linecap:round; stroke-linejoin:round; stroke-width:4; stroke-opacity:1; fill:none" points="1101.72,1676.83 1101.72,1667.38 "/>
<polyline clip-path="url(#clip180)" style="stroke:#000000; stroke-linecap:round; stroke-linejoin:round; stroke-width:4; stroke-opacity:1; fill:none" points="1285.37,1676.83 1285.37,1667.38 "/>
<polyline clip-path="url(#clip180)" style="stroke:#000000; stroke-linecap:round; stroke-linejoin:round; stroke-width:4; stroke-opacity:1; fill:none" points="1359.6,1676.83 1359.6,1667.38 "/>
<polyline clip-path="url(#clip180)" style="stroke:#000000; stroke-linecap:round; stroke-linejoin:round; stroke-width:4; stroke-opacity:1; fill:none" points="1408.99,1676.83 1408.99,1667.38 "/>
<polyline clip-path="url(#clip180)" style="stroke:#000000; stroke-linecap:round; stroke-linejoin:round; stroke-width:4; stroke-opacity:1; fill:none" points="1446.05,1676.83 1446.05,1667.38 "/>
<polyline clip-path="url(#clip180)" style="stroke:#000000; stroke-linecap:round; stroke-linejoin:round; stroke-width:4; stroke-opacity:1; fill:none" points="1629.69,1676.83 1629.69,1667.38 "/>
<polyline clip-path="url(#clip180)" style="stroke:#000000; stroke-linecap:round; stroke-linejoin:round; stroke-width:4; stroke-opacity:1; fill:none" points="1703.92,1676.83 1703.92,1667.38 "/>
<polyline clip-path="url(#clip180)" style="stroke:#000000; stroke-linecap:round; stroke-linejoin:round; stroke-width:4; stroke-opacity:1; fill:none" points="1753.31,1676.83 1753.31,1667.38 "/>
<polyline clip-path="url(#clip180)" style="stroke:#000000; stroke-linecap:round; stroke-linejoin:round; stroke-width:4; stroke-opacity:1; fill:none" points="1790.37,1676.83 1790.37,1667.38 "/>
<polyline clip-path="url(#clip180)" style="stroke:#000000; stroke-linecap:round; stroke-linejoin:round; stroke-width:4; stroke-opacity:1; fill:none" points="1974.01,1676.83 1974.01,1667.38 "/>
<polyline clip-path="url(#clip180)" style="stroke:#000000; stroke-linecap:round; stroke-linejoin:round; stroke-width:4; stroke-opacity:1; fill:none" points="2048.25,1676.83 2048.25,1667.38 "/>
<polyline clip-path="url(#clip180)" style="stroke:#000000; stroke-linecap:round; stroke-linejoin:round; stroke-width:4; stroke-opacity:1; fill:none" points="2097.63,1676.83 2097.63,1667.38 "/>
<polyline clip-path="url(#clip180)" style="stroke:#000000; stroke-linecap:round; stroke-linejoin:round; stroke-width:4; stroke-opacity:1; fill:none" points="2134.69,1676.83 2134.69,1667.38 "/>
<polyline clip-path="url(#clip180)" style="stroke:#000000; stroke-linecap:round; stroke-linejoin:round; stroke-width:4; stroke-opacity:1; fill:none" points="2318.33,1676.83 2318.33,1667.38 "/>
<polyline clip-path="url(#clip180)" style="stroke:#000000; stroke-linecap:round; stroke-linejoin:round; stroke-width:4; stroke-opacity:1; fill:none" points="2392.57,1676.83 2392.57,1667.38 "/>
<polyline clip-path="url(#clip180)" style="stroke:#000000; stroke-linecap:round; stroke-linejoin:round; stroke-width:4; stroke-opacity:1; fill:none" points="2441.95,1676.83 2441.95,1667.38 "/>
<polyline clip-path="url(#clip180)" style="stroke:#000000; stroke-linecap:round; stroke-linejoin:round; stroke-width:4; stroke-opacity:1; fill:none" points="2479.02,1676.83 2479.02,1667.38 "/>
<polyline clip-path="url(#clip180)" style="stroke:#000000; stroke-linecap:round; stroke-linejoin:round; stroke-width:4; stroke-opacity:1; fill:none" points="2662.66,1676.83 2662.66,1667.38 "/>
<polyline clip-path="url(#clip180)" style="stroke:#000000; stroke-linecap:round; stroke-linejoin:round; stroke-width:4; stroke-opacity:1; fill:none" points="2736.89,1676.83 2736.89,1667.38 "/>
<path clip-path="url(#clip180)" d="M396.492 1734.46 L396.492 1732.88 Q402.569 1732.88 405.706 1729.64 Q406.571 1729.64 406.719 1729.84 Q406.867 1730.04 406.867 1730.95 L406.867 1759.34 Q406.867 1760.84 407.608 1761.31 Q408.349 1761.78 411.585 1761.78 L413.191 1761.78 L413.191 1763.34 Q411.412 1763.19 404.99 1763.19 Q398.567 1763.19 396.813 1763.34 L396.813 1761.78 L398.418 1761.78 Q401.605 1761.78 402.371 1761.34 Q403.137 1760.87 403.137 1759.34 L403.137 1733.13 Q400.494 1734.46 396.492 1734.46 Z" fill="#000000" fill-rule="nonzero" fill-opacity="1" /><path clip-path="url(#clip180)" d="M419.268 1747.16 Q419.268 1739.72 421.146 1735.67 Q423.764 1729.64 429.94 1729.64 Q431.249 1729.64 432.608 1730.01 Q433.991 1730.36 435.721 1731.72 Q437.474 1733.08 438.537 1735.3 Q440.562 1739.6 440.562 1747.16 Q440.562 1754.55 438.685 1758.57 Q435.943 1764.45 429.891 1764.45 Q427.618 1764.45 425.296 1763.29 Q422.998 1762.13 421.541 1759.34 Q419.268 1755.16 419.268 1747.16 M423.468 1746.54 Q423.468 1754.17 424.011 1757.21 Q424.629 1760.5 426.309 1761.93 Q428.013 1763.34 429.891 1763.34 Q431.916 1763.34 433.596 1761.83 Q435.301 1760.3 435.819 1757.02 Q436.388 1753.78 436.363 1746.54 Q436.363 1739.5 435.869 1736.68 Q435.202 1733.4 433.423 1732.09 Q431.669 1730.76 429.891 1730.76 Q429.224 1730.76 428.507 1730.95 Q427.815 1731.15 426.803 1731.72 Q425.79 1732.29 424.999 1733.7 Q424.233 1735.1 423.863 1737.23 Q423.468 1739.97 423.468 1746.54 Z" fill="#000000" fill-rule="nonzero" fill-opacity="1" /><path clip-path="url(#clip180)" d="M467.699 1725.07 Q467.94 1725.31 467.94 1725.65 Q467.94 1725.99 467.699 1726.23 Q467.458 1726.48 467.117 1726.48 L441.385 1726.48 Q441.044 1726.48 440.803 1726.23 Q440.562 1725.99 440.562 1725.65 Q440.562 1725.31 440.803 1725.07 Q441.044 1724.83 441.385 1724.83 L467.117 1724.83 Q467.458 1724.83 467.699 1725.07 Z" fill="#000000" fill-rule="nonzero" fill-opacity="1" /><path clip-path="url(#clip180)" d="M471.954 1730.39 Q471.954 1729.17 472.657 1728.58 Q473.359 1728 474.262 1728 Q475.206 1728 475.868 1728.62 Q476.551 1729.23 476.551 1730.29 Q476.551 1731.43 475.748 1732.08 Q474.965 1732.72 473.841 1732.56 Q474.824 1734.2 476.631 1734.95 Q478.457 1735.69 480.143 1735.69 Q481.91 1735.69 483.335 1734.16 Q484.78 1732.64 484.78 1728.9 Q484.78 1725.73 483.535 1723.91 Q482.311 1722.08 479.882 1722.08 L478.076 1722.08 Q477.454 1722.08 477.273 1722.02 Q477.093 1721.96 477.093 1721.62 Q477.093 1721.22 477.715 1721.14 Q478.337 1721.14 479.32 1721.02 Q481.709 1720.94 482.973 1718.87 Q484.118 1716.94 484.118 1714.19 Q484.118 1711.68 482.913 1710.64 Q481.729 1709.58 480.184 1709.58 Q478.738 1709.58 477.153 1710.18 Q475.567 1710.78 474.704 1712.12 Q477.253 1712.12 477.253 1714.19 Q477.253 1715.1 476.671 1715.7 Q476.109 1716.28 475.166 1716.28 Q474.262 1716.28 473.66 1715.72 Q473.058 1715.14 473.058 1714.15 Q473.058 1711.8 475.146 1710.18 Q477.253 1708.55 480.344 1708.55 Q483.395 1708.55 485.643 1710.16 Q487.911 1711.76 487.911 1714.23 Q487.911 1716.66 486.305 1718.65 Q484.7 1720.63 482.151 1721.46 Q485.282 1722.08 487.148 1724.21 Q489.015 1726.32 489.015 1728.9 Q489.015 1732.12 486.486 1734.48 Q483.957 1736.83 480.264 1736.83 Q476.852 1736.83 474.403 1734.99 Q471.954 1733.14 471.954 1730.39 Z" fill="#000000" fill-rule="nonzero" fill-opacity="1" /><path clip-path="url(#clip180)" d="M740.975 1734.46 L740.975 1732.88 Q747.052 1732.88 750.19 1729.64 Q751.054 1729.64 751.202 1729.84 Q751.351 1730.04 751.351 1730.95 L751.351 1759.34 Q751.351 1760.84 752.092 1761.31 Q752.833 1761.78 756.069 1761.78 L757.675 1761.78 L757.675 1763.34 Q755.896 1763.19 749.473 1763.19 Q743.05 1763.19 741.296 1763.34 L741.296 1761.78 L742.902 1761.78 Q746.089 1761.78 746.855 1761.34 Q747.62 1760.87 747.62 1759.34 L747.62 1733.13 Q744.977 1734.46 740.975 1734.46 Z" fill="#000000" fill-rule="nonzero" fill-opacity="1" /><path clip-path="url(#clip180)" d="M763.752 1747.16 Q763.752 1739.72 765.629 1735.67 Q768.248 1729.64 774.424 1729.64 Q775.733 1729.64 777.091 1730.01 Q778.475 1730.36 780.204 1731.72 Q781.958 1733.08 783.02 1735.3 Q785.046 1739.6 785.046 1747.16 Q785.046 1754.55 783.168 1758.57 Q780.426 1764.45 774.374 1764.45 Q772.101 1764.45 769.779 1763.29 Q767.482 1762.13 766.024 1759.34 Q763.752 1755.16 763.752 1747.16 M767.951 1746.54 Q767.951 1754.17 768.495 1757.21 Q769.112 1760.5 770.792 1761.93 Q772.497 1763.34 774.374 1763.34 Q776.4 1763.34 778.08 1761.83 Q779.784 1760.3 780.303 1757.02 Q780.871 1753.78 780.846 1746.54 Q780.846 1739.5 780.352 1736.68 Q779.685 1733.4 777.907 1732.09 Q776.153 1730.76 774.374 1730.76 Q773.707 1730.76 772.991 1730.95 Q772.299 1731.15 771.286 1731.72 Q770.273 1732.29 769.483 1733.7 Q768.717 1735.1 768.346 1737.23 Q767.951 1739.97 767.951 1746.54 Z" fill="#000000" fill-rule="nonzero" fill-opacity="1" /><path clip-path="url(#clip180)" d="M812.183 1725.07 Q812.423 1725.31 812.423 1725.65 Q812.423 1725.99 812.183 1726.23 Q811.942 1726.48 811.601 1726.48 L785.869 1726.48 Q785.528 1726.48 785.287 1726.23 Q785.046 1725.99 785.046 1725.65 Q785.046 1725.31 785.287 1725.07 Q785.528 1724.83 785.869 1724.83 L811.601 1724.83 Q811.942 1724.83 812.183 1725.07 Z" fill="#000000" fill-rule="nonzero" fill-opacity="1" /><path clip-path="url(#clip180)" d="M816.759 1735.93 Q816.759 1735.19 816.819 1734.97 Q816.899 1734.75 817.221 1734.4 L825.109 1725.61 Q829.424 1720.76 829.424 1716.52 Q829.424 1713.77 827.979 1711.8 Q826.554 1709.84 823.924 1709.84 Q822.118 1709.84 820.593 1710.94 Q819.067 1712.04 818.365 1714.01 Q818.485 1713.97 818.907 1713.97 Q819.93 1713.97 820.492 1714.61 Q821.074 1715.26 821.074 1716.12 Q821.074 1717.22 820.352 1717.76 Q819.649 1718.29 818.947 1718.29 Q818.666 1718.29 818.284 1718.23 Q817.923 1718.17 817.341 1717.6 Q816.759 1717.02 816.759 1716 Q816.759 1713.13 818.927 1710.84 Q821.114 1708.55 824.446 1708.55 Q828.22 1708.55 830.688 1710.8 Q833.177 1713.03 833.177 1716.52 Q833.177 1717.74 832.796 1718.87 Q832.435 1719.97 831.933 1720.84 Q831.451 1721.7 830.126 1723.08 Q828.802 1724.47 827.738 1725.45 Q826.674 1726.44 824.286 1728.52 L819.93 1732.76 L827.337 1732.76 Q830.949 1732.76 831.23 1732.44 Q831.632 1731.85 832.134 1728.78 L833.177 1728.78 L832.013 1735.93 L816.759 1735.93 Z" fill="#000000" fill-rule="nonzero" fill-opacity="1" /><path clip-path="url(#clip180)" d="M1085.92 1734.46 L1085.92 1732.88 Q1092 1732.88 1095.13 1729.64 Q1096 1729.64 1096.15 1729.84 Q1096.3 1730.04 1096.3 1730.95 L1096.3 1759.34 Q1096.3 1760.84 1097.04 1761.31 Q1097.78 1761.78 1101.01 1761.78 L1102.62 1761.78 L1102.62 1763.34 Q1100.84 1763.19 1094.42 1763.19 Q1088 1763.19 1086.24 1763.34 L1086.24 1761.78 L1087.85 1761.78 Q1091.03 1761.78 1091.8 1761.34 Q1092.57 1760.87 1092.57 1759.34 L1092.57 1733.13 Q1089.92 1734.46 1085.92 1734.46 Z" fill="#000000" fill-rule="nonzero" fill-opacity="1" /><path clip-path="url(#clip180)" d="M1108.7 1747.16 Q1108.7 1739.72 1110.57 1735.67 Q1113.19 1729.64 1119.37 1729.64 Q1120.68 1729.64 1122.04 1730.01 Q1123.42 1730.36 1125.15 1731.72 Q1126.9 1733.08 1127.97 1735.3 Q1129.99 1739.6 1129.99 1747.16 Q1129.99 1754.55 1128.11 1758.57 Q1125.37 1764.45 1119.32 1764.45 Q1117.05 1764.45 1114.72 1763.29 Q1112.43 1762.13 1110.97 1759.34 Q1108.7 1755.16 1108.7 1747.16 M1112.9 1746.54 Q1112.9 1754.17 1113.44 1757.21 Q1114.06 1760.5 1115.74 1761.93 Q1117.44 1763.34 1119.32 1763.34 Q1121.34 1763.34 1123.02 1761.83 Q1124.73 1760.3 1125.25 1757.02 Q1125.82 1753.78 1125.79 1746.54 Q1125.79 1739.5 1125.3 1736.68 Q1124.63 1733.4 1122.85 1732.09 Q1121.1 1730.76 1119.32 1730.76 Q1118.65 1730.76 1117.94 1730.95 Q1117.24 1731.15 1116.23 1731.72 Q1115.22 1732.29 1114.43 1733.7 Q1113.66 1735.1 1113.29 1737.23 Q1112.9 1739.97 1112.9 1746.54 Z" fill="#000000" fill-rule="nonzero" fill-opacity="1" /><path clip-path="url(#clip180)" d="M1157.13 1725.07 Q1157.37 1725.31 1157.37 1725.65 Q1157.37 1725.99 1157.13 1726.23 Q1156.89 1726.48 1156.55 1726.48 L1130.81 1726.48 Q1130.47 1726.48 1130.23 1726.23 Q1129.99 1725.99 1129.99 1725.65 Q1129.99 1725.31 1130.23 1725.07 Q1130.47 1724.83 1130.81 1724.83 L1156.55 1724.83 Q1156.89 1724.83 1157.13 1725.07 Z" fill="#000000" fill-rule="nonzero" fill-opacity="1" /><path clip-path="url(#clip180)" d="M1163.31 1712.47 L1163.31 1711.18 Q1168.25 1711.18 1170.8 1708.55 Q1171.5 1708.55 1171.62 1708.71 Q1171.74 1708.87 1171.74 1709.62 L1171.74 1732.68 Q1171.74 1733.9 1172.34 1734.28 Q1172.94 1734.66 1175.57 1734.66 L1176.88 1734.66 L1176.88 1735.93 Q1175.43 1735.81 1170.21 1735.81 Q1165 1735.81 1163.57 1735.93 L1163.57 1734.66 L1164.88 1734.66 Q1167.46 1734.66 1168.09 1734.3 Q1168.71 1733.92 1168.71 1732.68 L1168.71 1711.38 Q1166.56 1712.47 1163.31 1712.47 Z" fill="#000000" fill-rule="nonzero" fill-opacity="1" /><path clip-path="url(#clip180)" d="M1445.04 1734.46 L1445.04 1732.88 Q1451.11 1732.88 1454.25 1729.64 Q1455.11 1729.64 1455.26 1729.84 Q1455.41 1730.04 1455.41 1730.95 L1455.41 1759.34 Q1455.41 1760.84 1456.15 1761.31 Q1456.89 1761.78 1460.13 1761.78 L1461.74 1761.78 L1461.74 1763.34 Q1459.96 1763.19 1453.53 1763.19 Q1447.11 1763.19 1445.36 1763.34 L1445.36 1761.78 L1446.96 1761.78 Q1450.15 1761.78 1450.92 1761.34 Q1451.68 1760.87 1451.68 1759.34 L1451.68 1733.13 Q1449.04 1734.46 1445.04 1734.46 Z" fill="#000000" fill-rule="nonzero" fill-opacity="1" /><path clip-path="url(#clip180)" d="M1467.81 1747.16 Q1467.81 1739.72 1469.69 1735.67 Q1472.31 1729.64 1478.48 1729.64 Q1479.79 1729.64 1481.15 1730.01 Q1482.54 1730.36 1484.26 1731.72 Q1486.02 1733.08 1487.08 1735.3 Q1489.11 1739.6 1489.11 1747.16 Q1489.11 1754.55 1487.23 1758.57 Q1484.49 1764.45 1478.43 1764.45 Q1476.16 1764.45 1473.84 1763.29 Q1471.54 1762.13 1470.09 1759.34 Q1467.81 1755.16 1467.81 1747.16 M1472.01 1746.54 Q1472.01 1754.17 1472.56 1757.21 Q1473.17 1760.5 1474.85 1761.93 Q1476.56 1763.34 1478.43 1763.34 Q1480.46 1763.34 1482.14 1761.83 Q1483.84 1760.3 1484.36 1757.02 Q1484.93 1753.78 1484.91 1746.54 Q1484.91 1739.5 1484.41 1736.68 Q1483.75 1733.4 1481.97 1732.09 Q1480.21 1730.76 1478.43 1730.76 Q1477.77 1730.76 1477.05 1730.95 Q1476.36 1731.15 1475.35 1731.72 Q1474.33 1732.29 1473.54 1733.7 Q1472.78 1735.1 1472.41 1737.23 Q1472.01 1739.97 1472.01 1746.54 Z" fill="#000000" fill-rule="nonzero" fill-opacity="1" /><path clip-path="url(#clip180)" d="M1489.11 1722.78 Q1489.11 1716.74 1490.63 1713.45 Q1492.76 1708.55 1497.78 1708.55 Q1498.84 1708.55 1499.95 1708.85 Q1501.07 1709.13 1502.47 1710.24 Q1503.9 1711.34 1504.76 1713.15 Q1506.41 1716.64 1506.41 1722.78 Q1506.41 1728.78 1504.88 1732.06 Q1502.66 1736.83 1497.74 1736.83 Q1495.89 1736.83 1494 1735.89 Q1492.14 1734.95 1490.95 1732.68 Q1489.11 1729.29 1489.11 1722.78 M1492.52 1722.28 Q1492.52 1728.48 1492.96 1730.95 Q1493.46 1733.62 1494.83 1734.79 Q1496.21 1735.93 1497.74 1735.93 Q1499.38 1735.93 1500.75 1734.7 Q1502.13 1733.46 1502.55 1730.79 Q1503.02 1728.16 1503 1722.28 Q1503 1716.56 1502.59 1714.27 Q1502.05 1711.6 1500.61 1710.54 Q1499.18 1709.46 1497.74 1709.46 Q1497.2 1709.46 1496.61 1709.62 Q1496.05 1709.78 1495.23 1710.24 Q1494.41 1710.7 1493.76 1711.84 Q1493.14 1712.99 1492.84 1714.71 Q1492.52 1716.94 1492.52 1722.28 Z" fill="#000000" fill-rule="nonzero" fill-opacity="1" /><path clip-path="url(#clip180)" d="M1791.23 1734.46 L1791.23 1732.88 Q1797.3 1732.88 1800.44 1729.64 Q1801.3 1729.64 1801.45 1729.84 Q1801.6 1730.04 1801.6 1730.95 L1801.6 1759.34 Q1801.6 1760.84 1802.34 1761.31 Q1803.08 1761.78 1806.32 1761.78 L1807.93 1761.78 L1807.93 1763.34 Q1806.15 1763.19 1799.72 1763.19 Q1793.3 1763.19 1791.55 1763.34 L1791.55 1761.78 L1793.15 1761.78 Q1796.34 1761.78 1797.1 1761.34 Q1797.87 1760.87 1797.87 1759.34 L1797.87 1733.13 Q1795.23 1734.46 1791.23 1734.46 Z" fill="#000000" fill-rule="nonzero" fill-opacity="1" /><path clip-path="url(#clip180)" d="M1814 1747.16 Q1814 1739.72 1815.88 1735.67 Q1818.5 1729.64 1824.67 1729.64 Q1825.98 1729.64 1827.34 1730.01 Q1828.73 1730.36 1830.45 1731.72 Q1832.21 1733.08 1833.27 1735.3 Q1835.3 1739.6 1835.3 1747.16 Q1835.3 1754.55 1833.42 1758.57 Q1830.68 1764.45 1824.62 1764.45 Q1822.35 1764.45 1820.03 1763.29 Q1817.73 1762.13 1816.27 1759.34 Q1814 1755.16 1814 1747.16 M1818.2 1746.54 Q1818.2 1754.17 1818.75 1757.21 Q1819.36 1760.5 1821.04 1761.93 Q1822.75 1763.34 1824.62 1763.34 Q1826.65 1763.34 1828.33 1761.83 Q1830.03 1760.3 1830.55 1757.02 Q1831.12 1753.78 1831.1 1746.54 Q1831.1 1739.5 1830.6 1736.68 Q1829.94 1733.4 1828.16 1732.09 Q1826.4 1730.76 1824.62 1730.76 Q1823.96 1730.76 1823.24 1730.95 Q1822.55 1731.15 1821.54 1731.72 Q1820.52 1732.29 1819.73 1733.7 Q1818.97 1735.1 1818.6 1737.23 Q1818.2 1739.97 1818.2 1746.54 Z" fill="#000000" fill-rule="nonzero" fill-opacity="1" /><path clip-path="url(#clip180)" d="M1835.3 1712.47 L1835.3 1711.18 Q1840.23 1711.18 1842.78 1708.55 Q1843.49 1708.55 1843.61 1708.71 Q1843.73 1708.87 1843.73 1709.62 L1843.73 1732.68 Q1843.73 1733.9 1844.33 1734.28 Q1844.93 1734.66 1847.56 1734.66 L1848.86 1734.66 L1848.86 1735.93 Q1847.42 1735.81 1842.2 1735.81 Q1836.98 1735.81 1835.56 1735.93 L1835.56 1734.66 L1836.86 1734.66 Q1839.45 1734.66 1840.07 1734.3 Q1840.7 1733.92 1840.7 1732.68 L1840.7 1711.38 Q1838.55 1712.47 1835.3 1712.47 Z" fill="#000000" fill-rule="nonzero" fill-opacity="1" /><path clip-path="url(#clip180)" d="M2134.12 1734.46 L2134.12 1732.88 Q2140.2 1732.88 2143.34 1729.64 Q2144.2 1729.64 2144.35 1729.84 Q2144.5 1730.04 2144.5 1730.95 L2144.5 1759.34 Q2144.5 1760.84 2145.24 1761.31 Q2145.98 1761.78 2149.22 1761.78 L2150.82 1761.78 L2150.82 1763.34 Q2149.04 1763.19 2142.62 1763.19 Q2136.2 1763.19 2134.44 1763.34 L2134.44 1761.78 L2136.05 1761.78 Q2139.24 1761.78 2140 1761.34 Q2140.77 1760.87 2140.77 1759.34 L2140.77 1733.13 Q2138.13 1734.46 2134.12 1734.46 Z" fill="#000000" fill-rule="nonzero" fill-opacity="1" /><path clip-path="url(#clip180)" d="M2156.9 1747.16 Q2156.9 1739.72 2158.78 1735.67 Q2161.4 1729.64 2167.57 1729.64 Q2168.88 1729.64 2170.24 1730.01 Q2171.62 1730.36 2173.35 1731.72 Q2175.11 1733.08 2176.17 1735.3 Q2178.19 1739.6 2178.19 1747.16 Q2178.19 1754.55 2176.32 1758.57 Q2173.57 1764.45 2167.52 1764.45 Q2165.25 1764.45 2162.93 1763.29 Q2160.63 1762.13 2159.17 1759.34 Q2156.9 1755.16 2156.9 1747.16 M2161.1 1746.54 Q2161.1 1754.17 2161.64 1757.21 Q2162.26 1760.5 2163.94 1761.93 Q2165.64 1763.34 2167.52 1763.34 Q2169.55 1763.34 2171.23 1761.83 Q2172.93 1760.3 2173.45 1757.02 Q2174.02 1753.78 2173.99 1746.54 Q2173.99 1739.5 2173.5 1736.68 Q2172.83 1733.4 2171.05 1732.09 Q2169.3 1730.76 2167.52 1730.76 Q2166.86 1730.76 2166.14 1730.95 Q2165.45 1731.15 2164.43 1731.72 Q2163.42 1732.29 2162.63 1733.7 Q2161.87 1735.1 2161.49 1737.23 Q2161.1 1739.97 2161.1 1746.54 Z" fill="#000000" fill-rule="nonzero" fill-opacity="1" /><path clip-path="url(#clip180)" d="M2178.19 1735.93 Q2178.19 1735.19 2178.25 1734.97 Q2178.33 1734.75 2178.66 1734.4 L2186.54 1725.61 Q2190.86 1720.76 2190.86 1716.52 Q2190.86 1713.77 2189.41 1711.8 Q2187.99 1709.84 2185.36 1709.84 Q2183.55 1709.84 2182.03 1710.94 Q2180.5 1712.04 2179.8 1714.01 Q2179.92 1713.97 2180.34 1713.97 Q2181.37 1713.97 2181.93 1714.61 Q2182.51 1715.26 2182.51 1716.12 Q2182.51 1717.22 2181.79 1717.76 Q2181.08 1718.29 2180.38 1718.29 Q2180.1 1718.29 2179.72 1718.23 Q2179.36 1718.17 2178.78 1717.6 Q2178.19 1717.02 2178.19 1716 Q2178.19 1713.13 2180.36 1710.84 Q2182.55 1708.55 2185.88 1708.55 Q2189.66 1708.55 2192.12 1710.8 Q2194.61 1713.03 2194.61 1716.52 Q2194.61 1717.74 2194.23 1718.87 Q2193.87 1719.97 2193.37 1720.84 Q2192.89 1721.7 2191.56 1723.08 Q2190.24 1724.47 2189.17 1725.45 Q2188.11 1726.44 2185.72 1728.52 L2181.37 1732.76 L2188.77 1732.76 Q2192.38 1732.76 2192.67 1732.44 Q2193.07 1731.85 2193.57 1728.78 L2194.61 1728.78 L2193.45 1735.93 L2178.19 1735.93 Z" fill="#000000" fill-rule="nonzero" fill-opacity="1" /><path clip-path="url(#clip180)" d="M2478.13 1734.46 L2478.13 1732.88 Q2484.2 1732.88 2487.34 1729.64 Q2488.2 1729.64 2488.35 1729.84 Q2488.5 1730.04 2488.5 1730.95 L2488.5 1759.34 Q2488.5 1760.84 2489.24 1761.31 Q2489.98 1761.78 2493.22 1761.78 L2494.82 1761.78 L2494.82 1763.34 Q2493.05 1763.19 2486.62 1763.19 Q2480.2 1763.19 2478.45 1763.34 L2478.45 1761.78 L2480.05 1761.78 Q2483.24 1761.78 2484 1761.34 Q2484.77 1760.87 2484.77 1759.34 L2484.77 1733.13 Q2482.13 1734.46 2478.13 1734.46 Z" fill="#000000" fill-rule="nonzero" fill-opacity="1" /><path clip-path="url(#clip180)" d="M2500.9 1747.16 Q2500.9 1739.72 2502.78 1735.67 Q2505.4 1729.64 2511.57 1729.64 Q2512.88 1729.64 2514.24 1730.01 Q2515.62 1730.36 2517.35 1731.72 Q2519.11 1733.08 2520.17 1735.3 Q2522.2 1739.6 2522.2 1747.16 Q2522.2 1754.55 2520.32 1758.57 Q2517.58 1764.45 2511.52 1764.45 Q2509.25 1764.45 2506.93 1763.29 Q2504.63 1762.13 2503.17 1759.34 Q2500.9 1755.16 2500.9 1747.16 M2505.1 1746.54 Q2505.1 1754.17 2505.64 1757.21 Q2506.26 1760.5 2507.94 1761.93 Q2509.65 1763.34 2511.52 1763.34 Q2513.55 1763.34 2515.23 1761.83 Q2516.93 1760.3 2517.45 1757.02 Q2518.02 1753.78 2518 1746.54 Q2518 1739.5 2517.5 1736.68 Q2516.84 1733.4 2515.06 1732.09 Q2513.3 1730.76 2511.52 1730.76 Q2510.86 1730.76 2510.14 1730.95 Q2509.45 1731.15 2508.44 1731.72 Q2507.42 1732.29 2506.63 1733.7 Q2505.87 1735.1 2505.5 1737.23 Q2505.1 1739.97 2505.1 1746.54 Z" fill="#000000" fill-rule="nonzero" fill-opacity="1" /><path clip-path="url(#clip180)" d="M2522.2 1730.39 Q2522.2 1729.17 2522.9 1728.58 Q2523.6 1728 2524.5 1728 Q2525.45 1728 2526.11 1728.62 Q2526.79 1729.23 2526.79 1730.29 Q2526.79 1731.43 2525.99 1732.08 Q2525.21 1732.72 2524.08 1732.56 Q2525.07 1734.2 2526.87 1734.95 Q2528.7 1735.69 2530.39 1735.69 Q2532.15 1735.69 2533.58 1734.16 Q2535.02 1732.64 2535.02 1728.9 Q2535.02 1725.73 2533.78 1723.91 Q2532.55 1722.08 2530.12 1722.08 L2528.32 1722.08 Q2527.7 1722.08 2527.51 1722.02 Q2527.33 1721.96 2527.33 1721.62 Q2527.33 1721.22 2527.96 1721.14 Q2528.58 1721.14 2529.56 1721.02 Q2531.95 1720.94 2533.22 1718.87 Q2534.36 1716.94 2534.36 1714.19 Q2534.36 1711.68 2533.16 1710.64 Q2531.97 1709.58 2530.43 1709.58 Q2528.98 1709.58 2527.39 1710.18 Q2525.81 1710.78 2524.95 1712.12 Q2527.49 1712.12 2527.49 1714.19 Q2527.49 1715.1 2526.91 1715.7 Q2526.35 1716.28 2525.41 1716.28 Q2524.5 1716.28 2523.9 1715.72 Q2523.3 1715.14 2523.3 1714.15 Q2523.3 1711.8 2525.39 1710.18 Q2527.49 1708.55 2530.59 1708.55 Q2533.64 1708.55 2535.88 1710.16 Q2538.15 1711.76 2538.15 1714.23 Q2538.15 1716.66 2536.55 1718.65 Q2534.94 1720.63 2532.39 1721.46 Q2535.52 1722.08 2537.39 1724.21 Q2539.26 1726.32 2539.26 1728.9 Q2539.26 1732.12 2536.73 1734.48 Q2534.2 1736.83 2530.51 1736.83 Q2527.09 1736.83 2524.64 1734.99 Q2522.2 1733.14 2522.2 1730.39 Z" fill="#000000" fill-rule="nonzero" fill-opacity="1" /><path clip-path="url(#clip180)" d="M1349.18 1861.14 L1349.18 1858.81 L1351 1858.81 Q1355.11 1858.81 1356.04 1858.14 Q1357 1857.44 1357 1855.22 L1357 1815.46 Q1357 1813.27 1356.04 1812.6 Q1355.07 1811.9 1351 1811.9 L1349.18 1811.9 L1349.18 1809.53 L1391.91 1809.53 L1394.02 1826.61 L1392.13 1826.61 Q1391.61 1822.27 1390.91 1819.79 Q1390.24 1817.27 1388.57 1815.34 Q1386.94 1813.42 1384.24 1812.68 Q1381.57 1811.9 1377.23 1811.9 L1367.45 1811.9 Q1364.86 1811.9 1364.3 1812.45 Q1363.74 1812.97 1363.74 1814.94 L1363.74 1833.13 L1370.56 1833.13 Q1375.79 1833.13 1377.27 1831.32 Q1378.75 1829.5 1378.75 1824.27 L1380.68 1824.27 L1380.68 1844.36 L1378.75 1844.36 Q1378.75 1839.21 1377.27 1837.36 Q1375.79 1835.5 1370.56 1835.5 L1363.74 1835.5 L1363.74 1855.77 Q1363.74 1857.74 1364.3 1858.29 Q1364.89 1858.81 1367.45 1858.81 L1377.57 1858.81 Q1380.83 1858.81 1383.2 1858.4 Q1385.61 1857.96 1387.27 1856.92 Q1388.94 1855.85 1390.05 1854.62 Q1391.2 1853.4 1391.98 1851.21 Q1392.79 1848.99 1393.24 1846.95 Q1393.72 1844.91 1394.24 1841.58 L1396.13 1841.58 L1392.94 1861.14 L1349.18 1861.14 Z" fill="#000000" fill-rule="nonzero" fill-opacity="1" /><path clip-path="url(#clip180)" d="M1400.35 1861.14 L1400.35 1858.81 Q1404.39 1858.81 1405.32 1858.33 Q1406.28 1857.81 1406.28 1855.36 L1406.28 1835.02 Q1406.28 1832.2 1405.28 1831.5 Q1404.32 1830.8 1400.35 1830.8 L1400.35 1828.42 L1410.91 1827.61 L1410.91 1835.95 Q1411.99 1832.69 1414.25 1830.17 Q1416.55 1827.61 1420.25 1827.61 Q1422.7 1827.61 1424.25 1828.98 Q1425.85 1830.35 1425.85 1832.24 Q1425.85 1833.91 1424.81 1834.76 Q1423.81 1835.58 1422.59 1835.58 Q1421.22 1835.58 1420.25 1834.72 Q1419.33 1833.83 1419.33 1832.32 Q1419.33 1831.39 1419.73 1830.69 Q1420.18 1829.94 1420.51 1829.68 Q1420.85 1829.43 1421.07 1829.35 Q1420.92 1829.28 1420.25 1829.28 Q1416.07 1829.28 1413.66 1833.46 Q1411.29 1837.61 1411.29 1843.54 L1411.29 1855.22 Q1411.29 1857.4 1412.17 1858.11 Q1413.1 1858.81 1417.07 1858.81 L1418.66 1858.81 L1418.66 1861.14 Q1415.62 1860.92 1409.03 1860.92 Q1408.1 1860.92 1406.65 1860.96 Q1405.21 1861 1403.32 1861.07 Q1401.43 1861.14 1400.35 1861.14 Z" fill="#000000" fill-rule="nonzero" fill-opacity="1" /><path clip-path="url(#clip180)" d="M1430 1861.14 L1430 1858.81 Q1434.04 1858.81 1434.96 1858.33 Q1435.93 1857.81 1435.93 1855.36 L1435.93 1835.02 Q1435.93 1832.2 1434.93 1831.5 Q1433.96 1830.8 1430 1830.8 L1430 1828.42 L1440.56 1827.61 L1440.56 1835.95 Q1441.63 1832.69 1443.89 1830.17 Q1446.19 1827.61 1449.9 1827.61 Q1452.34 1827.61 1453.9 1828.98 Q1455.49 1830.35 1455.49 1832.24 Q1455.49 1833.91 1454.45 1834.76 Q1453.45 1835.58 1452.23 1835.58 Q1450.86 1835.58 1449.9 1834.72 Q1448.97 1833.83 1448.97 1832.32 Q1448.97 1831.39 1449.38 1830.69 Q1449.82 1829.94 1450.16 1829.68 Q1450.49 1829.43 1450.71 1829.35 Q1450.56 1829.28 1449.9 1829.28 Q1445.71 1829.28 1443.3 1833.46 Q1440.93 1837.61 1440.93 1843.54 L1440.93 1855.22 Q1440.93 1857.4 1441.82 1858.11 Q1442.75 1858.81 1446.71 1858.81 L1448.3 1858.81 L1448.3 1861.14 Q1445.26 1860.92 1438.67 1860.92 Q1437.74 1860.92 1436.3 1860.96 Q1434.85 1861 1432.96 1861.07 Q1431.07 1861.14 1430 1861.14 Z" fill="#000000" fill-rule="nonzero" fill-opacity="1" /><path clip-path="url(#clip180)" d="M1464.64 1857.07 Q1459.64 1852.1 1459.64 1844.91 Q1459.64 1837.69 1464.53 1832.43 Q1469.46 1827.13 1476.5 1827.13 Q1483.39 1827.13 1488.32 1832.39 Q1493.29 1837.61 1493.29 1844.91 Q1493.29 1852.07 1488.29 1857.03 Q1483.32 1862 1476.43 1862 Q1469.68 1862 1464.64 1857.07 M1465.94 1844.28 Q1465.94 1851.66 1467.87 1854.99 Q1470.83 1860.07 1476.5 1860.07 Q1479.32 1860.07 1481.65 1858.55 Q1484.02 1857.03 1485.32 1854.47 Q1486.99 1851.14 1486.99 1844.28 Q1486.99 1836.98 1484.99 1833.76 Q1482.02 1828.83 1476.43 1828.83 Q1473.98 1828.83 1471.57 1830.13 Q1469.2 1831.39 1467.76 1833.91 Q1465.94 1837.24 1465.94 1844.28 Z" fill="#000000" fill-rule="nonzero" fill-opacity="1" /><path clip-path="url(#clip180)" d="M1497.59 1861.14 L1497.59 1858.81 Q1501.63 1858.81 1502.55 1858.33 Q1503.52 1857.81 1503.52 1855.36 L1503.52 1835.02 Q1503.52 1832.2 1502.51 1831.5 Q1501.55 1830.8 1497.59 1830.8 L1497.59 1828.42 L1508.15 1827.61 L1508.15 1835.95 Q1509.22 1832.69 1511.48 1830.17 Q1513.78 1827.61 1517.49 1827.61 Q1519.93 1827.61 1521.49 1828.98 Q1523.08 1830.35 1523.08 1832.24 Q1523.08 1833.91 1522.04 1834.76 Q1521.04 1835.58 1519.82 1835.58 Q1518.45 1835.58 1517.49 1834.72 Q1516.56 1833.83 1516.56 1832.32 Q1516.56 1831.39 1516.97 1830.69 Q1517.41 1829.94 1517.74 1829.68 Q1518.08 1829.43 1518.3 1829.35 Q1518.15 1829.28 1517.49 1829.28 Q1513.3 1829.28 1510.89 1833.46 Q1508.52 1837.61 1508.52 1843.54 L1508.52 1855.22 Q1508.52 1857.4 1509.41 1858.11 Q1510.33 1858.81 1514.3 1858.81 L1515.89 1858.81 L1515.89 1861.14 Q1512.85 1860.92 1506.26 1860.92 Q1505.33 1860.92 1503.89 1860.96 Q1502.44 1861 1500.55 1861.07 Q1498.66 1861.14 1497.59 1861.14 Z" fill="#000000" fill-rule="nonzero" fill-opacity="1" /><path clip-path="url(#clip180)" d="M1557.88 1842.17 Q1557.88 1829.35 1562.66 1819.01 Q1564.69 1814.68 1567.55 1811.05 Q1570.4 1807.41 1572.29 1805.82 Q1574.18 1804.23 1574.7 1804.23 Q1575.44 1804.23 1575.48 1804.97 Q1575.48 1805.34 1574.48 1806.27 Q1562.25 1818.72 1562.28 1842.17 Q1562.28 1865.7 1574.18 1877.67 Q1575.48 1878.97 1575.48 1879.38 Q1575.48 1880.12 1574.7 1880.12 Q1574.18 1880.12 1572.36 1878.6 Q1570.55 1877.08 1567.73 1873.6 Q1564.92 1870.11 1562.88 1865.85 Q1557.88 1855.51 1557.88 1842.17 Z" fill="#000000" fill-rule="nonzero" fill-opacity="1" /><path clip-path="url(#clip180)" d="M1582.29 1830.8 L1582.29 1828.42 L1588.26 1828.42 L1588.26 1819.72 Q1588.26 1814.08 1591.89 1810.86 Q1595.56 1807.64 1600.04 1807.64 Q1603.01 1807.64 1604.94 1809.23 Q1606.86 1810.82 1606.86 1812.97 Q1606.86 1814.42 1605.97 1815.38 Q1605.12 1816.31 1603.53 1816.31 Q1602.01 1816.31 1601.12 1815.34 Q1600.27 1814.38 1600.27 1813.05 Q1600.27 1810.6 1602.53 1809.86 Q1601.38 1809.34 1600.04 1809.3 Q1597.3 1809.3 1595.15 1812.12 Q1593.04 1814.94 1593.04 1819.64 L1593.04 1828.42 L1601.93 1828.42 L1601.93 1830.8 L1593.3 1830.8 L1593.3 1855.22 Q1593.3 1857.4 1594.19 1858.11 Q1595.12 1858.81 1599.04 1858.81 L1600.64 1858.81 L1600.64 1861.14 Q1597.6 1860.92 1591 1860.92 Q1590.08 1860.92 1588.63 1860.96 Q1587.22 1861 1585.3 1861.07 Q1583.41 1861.14 1582.37 1861.14 L1582.37 1858.81 Q1586.41 1858.81 1587.33 1858.33 Q1588.26 1857.81 1588.26 1855.36 L1588.26 1830.8 L1582.29 1830.8 Z" fill="#000000" fill-rule="nonzero" fill-opacity="1" /><path clip-path="url(#clip180)" d="M1605.42 1861.14 L1605.42 1858.81 Q1609.46 1858.81 1610.38 1858.33 Q1611.31 1857.81 1611.31 1855.36 L1611.31 1834.95 Q1611.31 1832.13 1610.35 1831.46 Q1609.42 1830.8 1605.71 1830.8 L1605.71 1828.42 L1616.31 1827.61 L1616.31 1855.44 Q1616.31 1857.7 1617.13 1858.25 Q1617.94 1858.81 1621.65 1858.81 L1621.65 1861.14 Q1613.9 1860.92 1613.75 1860.92 Q1612.72 1860.92 1605.42 1861.14 M1608.6 1814.38 Q1608.6 1812.86 1609.75 1811.64 Q1610.94 1810.38 1612.61 1810.38 Q1614.27 1810.38 1615.46 1811.53 Q1616.64 1812.64 1616.64 1814.42 Q1616.64 1816.16 1615.46 1817.31 Q1614.27 1818.42 1612.61 1818.42 Q1610.86 1818.42 1609.72 1817.2 Q1608.6 1815.97 1608.6 1814.38 Z" fill="#000000" fill-rule="nonzero" fill-opacity="1" /><path clip-path="url(#clip180)" d="M1626.35 1861.14 L1626.35 1858.81 Q1630.39 1858.81 1631.32 1858.33 Q1632.24 1857.81 1632.24 1855.36 L1632.24 1835.02 Q1632.24 1832.2 1631.24 1831.5 Q1630.28 1830.8 1626.35 1830.8 L1626.35 1828.42 L1637.02 1827.61 L1637.02 1835.58 Q1640.58 1827.61 1648.25 1827.61 Q1653.96 1827.61 1656.22 1830.43 Q1657.89 1832.32 1658.22 1834.43 Q1658.59 1836.54 1658.59 1842.02 L1658.59 1856.51 Q1658.66 1858.11 1659.89 1858.48 Q1661.11 1858.81 1664.52 1858.81 L1664.52 1861.14 Q1656.78 1860.92 1656 1860.92 Q1655.4 1860.92 1647.44 1861.14 L1647.44 1858.81 Q1651.48 1858.81 1652.4 1858.33 Q1653.37 1857.81 1653.37 1855.36 L1653.37 1837.69 Q1653.37 1833.83 1652.18 1831.57 Q1650.99 1829.28 1647.73 1829.28 Q1643.81 1829.28 1640.66 1832.58 Q1637.51 1835.87 1637.51 1841.43 L1637.51 1855.36 Q1637.51 1857.81 1638.43 1858.33 Q1639.4 1858.81 1643.4 1858.81 L1643.4 1861.14 Q1635.65 1860.92 1634.91 1860.92 Q1634.32 1860.92 1626.35 1861.14 Z" fill="#000000" fill-rule="nonzero" fill-opacity="1" /><path clip-path="url(#clip180)" d="M1669.19 1853.92 Q1669.19 1847.47 1676.78 1844.06 Q1681.34 1841.88 1690.75 1841.32 L1690.75 1838.54 Q1690.75 1833.83 1688.27 1831.35 Q1685.83 1828.83 1682.71 1828.83 Q1677.16 1828.83 1674.49 1832.32 Q1676.75 1832.39 1677.56 1833.54 Q1678.38 1834.65 1678.38 1835.8 Q1678.38 1837.32 1677.41 1838.32 Q1676.49 1839.28 1674.89 1839.28 Q1673.38 1839.28 1672.38 1838.36 Q1671.37 1837.39 1671.37 1835.72 Q1671.37 1832.02 1674.71 1829.57 Q1678.08 1827.13 1682.86 1827.13 Q1689.09 1827.13 1693.24 1831.32 Q1694.53 1832.61 1695.16 1834.28 Q1695.83 1835.95 1695.91 1837.06 Q1695.98 1838.13 1695.98 1840.28 L1695.98 1855.44 Q1695.98 1855.88 1696.13 1856.62 Q1696.28 1857.36 1696.94 1858.33 Q1697.65 1859.25 1698.8 1859.25 Q1701.54 1859.25 1701.5 1854.4 L1701.5 1850.14 L1703.43 1850.14 L1703.43 1854.4 Q1703.43 1858.44 1701.28 1860.03 Q1699.17 1861.59 1697.2 1861.59 Q1694.68 1861.59 1693.09 1859.74 Q1691.5 1857.88 1691.27 1855.36 Q1690.12 1858.25 1687.49 1860.14 Q1684.9 1862 1681.34 1862 Q1678.6 1862 1676.01 1861.29 Q1673.45 1860.63 1671.3 1858.74 Q1669.19 1856.81 1669.19 1853.92 M1675.04 1853.84 Q1675.04 1856.66 1677.04 1858.48 Q1679.05 1860.29 1681.86 1860.29 Q1685.05 1860.29 1687.9 1857.85 Q1690.75 1855.36 1690.75 1850.51 L1690.75 1842.91 Q1682.34 1843.21 1678.67 1846.58 Q1675.04 1849.92 1675.04 1853.84 Z" fill="#000000" fill-rule="nonzero" fill-opacity="1" /><path clip-path="url(#clip180)" d="M1706.47 1861.14 L1706.47 1858.81 Q1710.5 1858.81 1711.43 1858.33 Q1712.36 1857.81 1712.36 1855.36 L1712.36 1815.9 Q1712.36 1813.08 1711.36 1812.38 Q1710.39 1811.68 1706.47 1811.68 L1706.47 1809.3 L1717.36 1808.49 L1717.36 1855.36 Q1717.36 1857.81 1718.32 1858.33 Q1719.29 1858.81 1723.29 1858.81 L1723.29 1861.14 Q1722.36 1861.14 1720.44 1861.07 Q1718.51 1861 1717.1 1860.96 Q1715.69 1860.92 1714.88 1860.92 Q1713.99 1860.92 1706.47 1861.14 Z" fill="#000000" fill-rule="nonzero" fill-opacity="1" /><path clip-path="url(#clip180)" d="M1729.29 1879.38 Q1729.29 1879.01 1730.26 1878.08 Q1742.48 1865.63 1742.48 1842.17 Q1742.48 1818.64 1730.74 1806.75 Q1729.29 1805.38 1729.29 1804.97 Q1729.29 1804.23 1730.03 1804.23 Q1730.55 1804.23 1732.37 1805.75 Q1734.22 1807.27 1737 1810.75 Q1739.82 1814.23 1741.89 1818.49 Q1746.89 1828.83 1746.89 1842.17 Q1746.89 1854.99 1742.11 1865.33 Q1740.07 1869.67 1737.22 1873.3 Q1734.37 1876.93 1732.48 1878.52 Q1730.59 1880.12 1730.03 1880.12 Q1729.29 1880.12 1729.29 1879.38 Z" fill="#000000" fill-rule="nonzero" fill-opacity="1" /><polyline clip-path="url(#clip182)" style="stroke:#000000; stroke-linecap:round; stroke-linejoin:round; stroke-width:2.8; stroke-opacity:0.4; fill:none" points="311.694,1143.64 2784.38,1143.64 "/>
<polyline clip-path="url(#clip182)" style="stroke:#000000; stroke-linecap:round; stroke-linejoin:round; stroke-width:2.8; stroke-opacity:0.4; fill:none" points="311.694,383.333 2784.38,383.333 "/>
<polyline clip-path="url(#clip182)" style="stroke:#000000; stroke-linecap:round; stroke-linejoin:round; stroke-width:2; stroke-opacity:0.06; fill:none" points="311.694,1563.97 2784.38,1563.97 "/>
<polyline clip-path="url(#clip182)" style="stroke:#000000; stroke-linecap:round; stroke-linejoin:round; stroke-width:2; stroke-opacity:0.06; fill:none" points="311.694,1400.05 2784.38,1400.05 "/>
<polyline clip-path="url(#clip182)" style="stroke:#000000; stroke-linecap:round; stroke-linejoin:round; stroke-width:2; stroke-opacity:0.06; fill:none" points="311.694,1291 2784.38,1291 "/>
<polyline clip-path="url(#clip182)" style="stroke:#000000; stroke-linecap:round; stroke-linejoin:round; stroke-width:2; stroke-opacity:0.06; fill:none" points="311.694,1209.17 2784.38,1209.17 "/>
<polyline clip-path="url(#clip182)" style="stroke:#000000; stroke-linecap:round; stroke-linejoin:round; stroke-width:2; stroke-opacity:0.06; fill:none" points="311.694,803.663 2784.38,803.663 "/>
<polyline clip-path="url(#clip182)" style="stroke:#000000; stroke-linecap:round; stroke-linejoin:round; stroke-width:2; stroke-opacity:0.06; fill:none" points="311.694,639.741 2784.38,639.741 "/>
<polyline clip-path="url(#clip182)" style="stroke:#000000; stroke-linecap:round; stroke-linejoin:round; stroke-width:2; stroke-opacity:0.06; fill:none" points="311.694,530.696 2784.38,530.696 "/>
<polyline clip-path="url(#clip182)" style="stroke:#000000; stroke-linecap:round; stroke-linejoin:round; stroke-width:2; stroke-opacity:0.06; fill:none" points="311.694,448.861 2784.38,448.861 "/>
<polyline clip-path="url(#clip180)" style="stroke:#000000; stroke-linecap:round; stroke-linejoin:round; stroke-width:4; stroke-opacity:1; fill:none" points="311.694,1676.83 311.694,110.236 "/>
<polyline clip-path="url(#clip180)" style="stroke:#000000; stroke-linecap:round; stroke-linejoin:round; stroke-width:4; stroke-opacity:1; fill:none" points="2784.38,1676.83 2784.38,110.236 "/>
<polyline clip-path="url(#clip180)" style="stroke:#000000; stroke-linecap:round; stroke-linejoin:round; stroke-width:4; stroke-opacity:1; fill:none" points="311.694,1143.64 327.096,1143.64 "/>
<polyline clip-path="url(#clip180)" style="stroke:#000000; stroke-linecap:round; stroke-linejoin:round; stroke-width:4; stroke-opacity:1; fill:none" points="311.694,383.333 327.096,383.333 "/>
<polyline clip-path="url(#clip180)" style="stroke:#000000; stroke-linecap:round; stroke-linejoin:round; stroke-width:4; stroke-opacity:1; fill:none" points="311.694,1563.97 319.395,1563.97 "/>
<polyline clip-path="url(#clip180)" style="stroke:#000000; stroke-linecap:round; stroke-linejoin:round; stroke-width:4; stroke-opacity:1; fill:none" points="311.694,1400.05 319.395,1400.05 "/>
<polyline clip-path="url(#clip180)" style="stroke:#000000; stroke-linecap:round; stroke-linejoin:round; stroke-width:4; stroke-opacity:1; fill:none" points="311.694,1291 319.395,1291 "/>
<polyline clip-path="url(#clip180)" style="stroke:#000000; stroke-linecap:round; stroke-linejoin:round; stroke-width:4; stroke-opacity:1; fill:none" points="311.694,1209.17 319.395,1209.17 "/>
<polyline clip-path="url(#clip180)" style="stroke:#000000; stroke-linecap:round; stroke-linejoin:round; stroke-width:4; stroke-opacity:1; fill:none" points="311.694,803.663 319.395,803.663 "/>
<polyline clip-path="url(#clip180)" style="stroke:#000000; stroke-linecap:round; stroke-linejoin:round; stroke-width:4; stroke-opacity:1; fill:none" points="311.694,639.741 319.395,639.741 "/>
<polyline clip-path="url(#clip180)" style="stroke:#000000; stroke-linecap:round; stroke-linejoin:round; stroke-width:4; stroke-opacity:1; fill:none" points="311.694,530.696 319.395,530.696 "/>
<polyline clip-path="url(#clip180)" style="stroke:#000000; stroke-linecap:round; stroke-linejoin:round; stroke-width:4; stroke-opacity:1; fill:none" points="311.694,448.861 319.395,448.861 "/>
<path clip-path="url(#clip180)" d="M167.652 1138.49 L167.652 1136.91 Q173.729 1136.91 176.867 1133.67 Q177.731 1133.67 177.879 1133.87 Q178.028 1134.07 178.028 1134.98 L178.028 1163.37 Q178.028 1164.87 178.769 1165.34 Q179.51 1165.81 182.746 1165.81 L184.352 1165.81 L184.352 1167.37 Q182.573 1167.22 176.15 1167.22 Q169.727 1167.22 167.973 1167.37 L167.973 1165.81 L169.579 1165.81 Q172.766 1165.81 173.532 1165.37 Q174.297 1164.9 174.297 1163.37 L174.297 1137.16 Q171.654 1138.49 167.652 1138.49 Z" fill="#000000" fill-rule="nonzero" fill-opacity="1" /><path clip-path="url(#clip180)" d="M190.429 1151.19 Q190.429 1143.75 192.306 1139.7 Q194.925 1133.67 201.101 1133.67 Q202.41 1133.67 203.769 1134.04 Q205.152 1134.39 206.881 1135.75 Q208.635 1137.11 209.697 1139.33 Q211.723 1143.63 211.723 1151.19 Q211.723 1158.57 209.846 1162.6 Q207.104 1168.48 201.051 1168.48 Q198.779 1168.48 196.456 1167.32 Q194.159 1166.16 192.701 1163.37 Q190.429 1159.19 190.429 1151.19 M194.628 1150.57 Q194.628 1158.2 195.172 1161.24 Q195.789 1164.53 197.469 1165.96 Q199.174 1167.37 201.051 1167.37 Q203.077 1167.37 204.757 1165.86 Q206.461 1164.33 206.98 1161.04 Q207.548 1157.81 207.524 1150.57 Q207.524 1143.53 207.029 1140.71 Q206.362 1137.43 204.584 1136.12 Q202.83 1134.78 201.051 1134.78 Q200.384 1134.78 199.668 1134.98 Q198.976 1135.18 197.963 1135.75 Q196.95 1136.32 196.16 1137.72 Q195.394 1139.13 195.024 1141.26 Q194.628 1144 194.628 1150.57 Z" fill="#000000" fill-rule="nonzero" fill-opacity="1" /><path clip-path="url(#clip180)" d="M238.86 1129.1 Q239.101 1129.34 239.101 1129.68 Q239.101 1130.02 238.86 1130.26 Q238.619 1130.5 238.278 1130.5 L212.546 1130.5 Q212.205 1130.5 211.964 1130.26 Q211.723 1130.02 211.723 1129.68 Q211.723 1129.34 211.964 1129.1 Q212.205 1128.86 212.546 1128.86 L238.278 1128.86 Q238.619 1128.86 238.86 1129.1 Z" fill="#000000" fill-rule="nonzero" fill-opacity="1" /><path clip-path="url(#clip180)" d="M243.436 1139.96 Q243.436 1139.22 243.496 1138.99 Q243.577 1138.77 243.898 1138.43 L251.786 1129.64 Q256.101 1124.78 256.101 1120.55 Q256.101 1117.8 254.656 1115.83 Q253.231 1113.87 250.602 1113.87 Q248.795 1113.87 247.27 1114.97 Q245.744 1116.07 245.042 1118.04 Q245.162 1118 245.584 1118 Q246.607 1118 247.169 1118.64 Q247.751 1119.28 247.751 1120.15 Q247.751 1121.25 247.029 1121.79 Q246.326 1122.32 245.624 1122.32 Q245.343 1122.32 244.961 1122.25 Q244.6 1122.19 244.018 1121.63 Q243.436 1121.05 243.436 1120.03 Q243.436 1117.16 245.604 1114.87 Q247.792 1112.58 251.123 1112.58 Q254.897 1112.58 257.366 1114.83 Q259.854 1117.06 259.854 1120.55 Q259.854 1121.77 259.473 1122.9 Q259.112 1124 258.61 1124.86 Q258.128 1125.73 256.804 1127.11 Q255.479 1128.5 254.415 1129.48 Q253.351 1130.46 250.963 1132.55 L246.607 1136.79 L254.014 1136.79 Q257.627 1136.79 257.908 1136.47 Q258.309 1135.88 258.811 1132.81 L259.854 1132.81 L258.69 1139.96 L243.436 1139.96 Z" fill="#000000" fill-rule="nonzero" fill-opacity="1" /><path clip-path="url(#clip180)" d="M168.897 378.182 L168.897 376.601 Q174.974 376.601 178.111 373.365 Q178.976 373.365 179.124 373.563 Q179.272 373.761 179.272 374.675 L179.272 403.059 Q179.272 404.566 180.013 405.035 Q180.754 405.504 183.99 405.504 L185.596 405.504 L185.596 407.061 Q183.818 406.913 177.395 406.913 Q170.972 406.913 169.218 407.061 L169.218 405.504 L170.824 405.504 Q174.01 405.504 174.776 405.06 Q175.542 404.59 175.542 403.059 L175.542 376.849 Q172.899 378.182 168.897 378.182 Z" fill="#000000" fill-rule="nonzero" fill-opacity="1" /><path clip-path="url(#clip180)" d="M191.673 390.88 Q191.673 383.444 193.551 379.393 Q196.169 373.365 202.345 373.365 Q203.654 373.365 205.013 373.736 Q206.396 374.082 208.126 375.44 Q209.88 376.799 210.942 379.022 Q212.968 383.321 212.968 390.88 Q212.968 398.266 211.09 402.293 Q208.348 408.172 202.296 408.172 Q200.023 408.172 197.701 407.011 Q195.403 405.85 193.946 403.059 Q191.673 398.884 191.673 390.88 M195.873 390.262 Q195.873 397.896 196.416 400.934 Q197.034 404.22 198.714 405.653 Q200.418 407.061 202.296 407.061 Q204.321 407.061 206.001 405.554 Q207.706 404.022 208.224 400.737 Q208.793 397.501 208.768 390.262 Q208.768 383.222 208.274 380.406 Q207.607 377.12 205.828 375.811 Q204.074 374.477 202.296 374.477 Q201.629 374.477 200.912 374.675 Q200.221 374.872 199.208 375.44 Q198.195 376.009 197.404 377.417 Q196.639 378.825 196.268 380.949 Q195.873 383.691 195.873 390.262 Z" fill="#000000" fill-rule="nonzero" fill-opacity="1" /><path clip-path="url(#clip180)" d="M240.104 368.792 Q240.345 369.033 240.345 369.374 Q240.345 369.715 240.104 369.956 Q239.863 370.197 239.522 370.197 L213.79 370.197 Q213.449 370.197 213.208 369.956 Q212.968 369.715 212.968 369.374 Q212.968 369.033 213.208 368.792 Q213.449 368.551 213.79 368.551 L239.522 368.551 Q239.863 368.551 240.104 368.792 Z" fill="#000000" fill-rule="nonzero" fill-opacity="1" /><path clip-path="url(#clip180)" d="M246.286 356.187 L246.286 354.902 Q251.224 354.902 253.773 352.273 Q254.475 352.273 254.596 352.433 Q254.716 352.594 254.716 353.337 L254.716 376.399 Q254.716 377.623 255.318 378.004 Q255.92 378.386 258.55 378.386 L259.854 378.386 L259.854 379.65 Q258.409 379.53 253.191 379.53 Q247.972 379.53 246.547 379.65 L246.547 378.386 L247.852 378.386 Q250.441 378.386 251.063 378.025 Q251.685 377.643 251.685 376.399 L251.685 355.103 Q249.538 356.187 246.286 356.187 Z" fill="#000000" fill-rule="nonzero" fill-opacity="1" /><path clip-path="url(#clip180)" d="M65.9473 1031.71 L48.902 1030.27 L48.902 983.911 L65.9473 982.466 L65.9473 984.356 Q62.5383 984.652 60.5743 984.949 Q58.6104 985.208 56.7577 985.875 Q54.8679 986.505 53.9785 987.32 Q53.0522 988.098 52.3481 989.618 Q51.607 991.137 51.4217 993.101 Q51.2365 995.065 51.2365 998.029 Q51.2365 1001.51 51.3847 1002.36 Q51.607 1003.29 52.274 1003.51 Q52.9039 1003.74 54.275 1003.74 L94.2574 1003.74 Q95.7766 1003.74 96.4066 1003.44 Q96.9994 1003.11 97.4812 1001.36 Q97.9258 999.623 97.9258 995.769 L97.9258 992.73 L100.26 992.73 Q100.038 995.843 100.038 1007.14 Q100.038 1018.37 100.26 1021.49 L97.9258 1021.49 L97.9258 1018.45 Q97.9258 1014.59 97.4812 1012.85 Q96.9994 1011.07 96.4066 1010.78 Q95.7766 1010.48 94.2574 1010.48 L54.275 1010.48 Q53.2004 1010.48 52.7557 1010.55 Q52.3111 1010.63 51.9405 1010.96 Q51.5329 1011.29 51.3847 1012.07 Q51.2365 1012.81 51.2365 1016.15 Q51.2365 1019.11 51.4217 1021.11 Q51.607 1023.08 52.3481 1024.6 Q53.0522 1026.12 53.9785 1026.93 Q54.8679 1027.71 56.7577 1028.38 Q58.6104 1029.01 60.5743 1029.27 Q62.5383 1029.53 65.9473 1029.82 L65.9473 1031.71 Z" fill="#000000" fill-rule="nonzero" fill-opacity="1" /><path clip-path="url(#clip180)" d="M100.26 977.167 L97.9258 977.167 Q97.9258 973.128 97.4441 972.202 Q96.9253 971.275 94.4797 971.275 L74.0624 971.275 Q71.2462 971.275 70.5792 972.239 Q69.9122 973.165 69.9122 976.871 L67.5407 976.871 L66.7255 966.273 L94.5538 966.273 Q96.8142 966.273 97.37 965.458 Q97.9258 964.643 97.9258 960.937 L100.26 960.937 Q100.038 968.682 100.038 968.83 Q100.038 969.867 100.26 977.167 M53.4968 973.98 Q51.9776 973.98 50.7548 972.832 Q49.4949 971.646 49.4949 969.979 Q49.4949 968.311 50.6436 967.125 Q51.7552 965.94 53.5339 965.94 Q55.2755 965.94 56.4242 967.125 Q57.5358 968.311 57.5358 969.979 Q57.5358 971.72 56.313 972.869 Q55.0902 973.98 53.4968 973.98 Z" fill="#000000" fill-rule="nonzero" fill-opacity="1" /><path clip-path="url(#clip180)" d="M100.26 956.231 L97.9258 956.231 Q97.9258 952.192 97.4441 951.266 Q96.9253 950.339 94.4797 950.339 L74.1365 950.339 Q71.3203 950.339 70.6163 951.34 Q69.9122 952.303 69.9122 956.231 L67.5407 956.231 L66.7255 945.559 L74.6923 945.559 Q66.7255 942.002 66.7255 934.332 Q66.7255 925.438 74.1365 924.216 Q71.2462 922.919 68.9858 920.214 Q66.7255 917.472 66.7255 913.21 Q66.7255 907.504 69.5417 905.243 Q71.4315 903.576 73.5436 903.242 Q75.6557 902.909 81.1399 902.909 L95.6284 902.909 Q97.2218 902.835 97.5923 901.612 Q97.9258 900.389 97.9258 896.98 L100.26 896.98 Q100.038 904.725 100.038 905.466 Q100.038 906.059 100.26 914.062 L97.9258 914.062 Q97.9258 910.023 97.4441 909.097 Q96.9253 908.134 94.4797 908.134 L76.8044 908.134 Q72.9507 908.134 70.6904 909.319 Q68.3929 910.505 68.3929 913.766 Q68.3929 917.694 71.6908 920.844 Q74.9887 923.993 80.547 923.993 L94.4797 923.993 Q96.9253 923.993 97.4441 923.067 Q97.9258 922.103 97.9258 918.064 L100.26 918.064 Q100.038 925.809 100.038 926.587 Q100.038 927.18 100.26 935.147 L97.9258 935.147 Q97.9258 931.108 97.4441 930.181 Q96.9253 929.218 94.4797 929.218 L76.8044 929.218 Q72.9507 929.218 70.6904 930.404 Q68.3929 931.589 68.3929 934.85 Q68.3929 938.778 71.6908 941.928 Q74.9887 945.078 80.547 945.078 L94.4797 945.078 Q96.9253 945.078 97.4441 944.151 Q97.9258 943.188 97.9258 939.186 L100.26 939.186 Q100.038 946.93 100.038 947.671 Q100.038 948.264 100.26 956.231 Z" fill="#000000" fill-rule="nonzero" fill-opacity="1" /><path clip-path="url(#clip180)" d="M83.5485 893.386 Q76.3968 893.386 71.3203 888.791 Q66.2438 884.196 66.2438 877.6 Q66.2438 870.93 70.5792 867.484 Q74.9146 864.001 81.1399 864.001 Q82.2886 864.001 82.5109 864.298 Q82.7332 864.594 82.7332 865.891 L82.7332 887.086 Q90.4778 887.086 94.1091 884.789 Q99.1857 881.602 99.1857 876.229 Q99.1857 875.488 99.0375 874.599 Q98.8892 873.71 98.2593 871.894 Q97.5923 870.078 95.8507 868.485 Q94.1091 866.891 91.3671 865.965 Q90.2925 865.743 90.3295 865.002 Q90.3295 864.001 91.2189 864.001 Q91.8858 864.001 93.4051 864.742 Q94.8873 865.446 96.6659 866.817 Q98.4446 868.188 99.7786 870.856 Q101.113 873.487 101.113 876.674 Q101.113 883.344 96.0731 888.383 Q90.9965 893.386 83.5485 893.386 M81.1399 887.012 L81.1399 869.004 Q79.5465 869.004 77.7679 869.3 Q75.9892 869.559 73.5436 870.375 Q71.0609 871.153 69.5046 873.005 Q67.9483 874.858 67.9483 877.6 Q67.9483 878.823 68.4671 880.157 Q68.9858 881.454 70.2457 883.047 Q71.5056 884.641 74.3588 885.752 Q77.212 886.864 81.1399 887.012 Z" fill="#000000" fill-rule="nonzero" fill-opacity="1" /><path clip-path="url(#clip180)" d="M81.2881 829.058 Q68.4671 829.058 58.1287 824.278 Q53.7933 822.24 50.1619 819.387 Q46.5305 816.534 44.9371 814.644 Q43.3437 812.754 43.3437 812.235 Q43.3437 811.494 44.0848 811.457 Q44.4554 811.457 45.3818 812.458 Q57.8323 824.686 81.2881 824.649 Q104.818 824.649 116.787 812.754 Q118.084 811.457 118.491 811.457 Q119.232 811.457 119.232 812.235 Q119.232 812.754 117.713 814.57 Q116.194 816.385 112.711 819.202 Q109.228 822.018 104.966 824.056 Q94.6279 829.058 81.2881 829.058 Z" fill="#000000" fill-rule="nonzero" fill-opacity="1" /><path clip-path="url(#clip180)" d="M99.2598 804.639 L89.2549 804.639 Q88.4027 804.639 88.1062 804.602 Q87.8098 804.565 87.5875 804.342 Q87.3651 804.12 87.3651 803.675 Q87.3651 803.157 87.5875 802.971 Q87.8098 802.749 88.6621 802.601 Q93.8868 801.452 96.6659 799.007 Q99.408 796.524 99.408 792.04 Q99.408 787.779 97.5182 785.63 Q95.6284 783.481 92.5158 783.481 Q86.9575 783.481 85.5494 791.373 Q84.6231 795.931 84.0302 797.821 Q83.4002 799.711 82.0292 801.378 Q79.3612 804.639 75.5816 804.639 Q71.802 804.639 69.0229 801.786 Q66.2438 798.895 66.2438 792.522 Q66.2438 788.261 68.3929 785.37 Q67.726 784.518 67.1701 784.073 Q66.2438 783.073 66.2438 782.554 Q66.2438 781.961 66.6514 781.85 Q67.0219 781.739 68.0965 781.739 L75.7298 781.739 Q76.5821 781.739 76.8786 781.776 Q77.175 781.813 77.3973 782.035 Q77.5826 782.258 77.5826 782.739 Q77.5826 783.592 76.8786 783.629 Q67.6889 784.222 67.6889 792.522 Q67.6889 797.006 69.4305 799.007 Q71.135 801.008 73.4695 801.008 Q74.7664 801.008 75.7669 800.415 Q76.7303 799.785 77.3232 799.007 Q77.879 798.191 78.4349 796.709 Q78.9536 795.227 79.1389 794.338 Q79.3242 793.411 79.6947 791.67 Q80.8434 785.593 83.3261 783.036 Q86.5129 779.849 90.5519 779.849 Q95.0355 779.849 98.074 782.888 Q101.113 785.926 101.113 792.04 Q101.113 796.969 97.8147 800.415 Q98.2593 800.859 98.6669 801.193 Q99.0375 801.526 99.1857 801.675 Q99.3339 801.786 99.4451 801.823 Q99.5192 801.86 99.5933 801.934 Q101.113 803.453 101.113 803.824 Q101.113 804.417 100.705 804.528 Q100.334 804.639 99.2598 804.639 Z" fill="#000000" fill-rule="nonzero" fill-opacity="1" /><path clip-path="url(#clip180)" d="M118.491 772.957 Q118.121 772.957 117.194 771.993 Q104.744 759.765 81.2881 759.765 Q57.7582 759.765 45.8635 771.512 Q44.4924 772.957 44.0848 772.957 Q43.3437 772.957 43.3437 772.216 Q43.3437 771.697 44.863 769.881 Q46.3823 768.029 49.8654 765.249 Q53.3486 762.433 57.6099 760.358 Q67.9483 755.356 81.2881 755.356 Q94.1091 755.356 104.448 760.136 Q108.783 762.174 112.414 765.027 Q116.046 767.88 117.639 769.77 Q119.232 771.66 119.232 772.216 Q119.232 772.957 118.491 772.957 Z" fill="#000000" fill-rule="nonzero" fill-opacity="1" /><polyline clip-path="url(#clip182)" style="stroke:#0000ff; stroke-linecap:round; stroke-linejoin:round; stroke-width:12; stroke-opacity:1; fill:none" points="2714.4,1632.49 2347.54,895.428 2023.33,649.267 1726.82,404.193 1441.55,154.574 "/>
<line clip-path="url(#clip182)" x1="2714.4" y1="1632.49" x2="2714.4" y2="1616.49" style="stroke:#0000ff; stroke-width:12; stroke-opacity:1"/>
<line clip-path="url(#clip182)" x1="2714.4" y1="1632.49" x2="2698.4" y2="1632.49" style="stroke:#0000ff; stroke-width:12; stroke-opacity:1"/>
<line clip-path="url(#clip182)" x1="2714.4" y1="1632.49" x2="2714.4" y2="1648.49" style="stroke:#0000ff; stroke-width:12; stroke-opacity:1"/>
<line clip-path="url(#clip182)" x1="2714.4" y1="1632.49" x2="2730.4" y2="1632.49" style="stroke:#0000ff; stroke-width:12; stroke-opacity:1"/>
<line clip-path="url(#clip182)" x1="2347.54" y1="895.428" x2="2347.54" y2="879.428" style="stroke:#0000ff; stroke-width:12; stroke-opacity:1"/>
<line clip-path="url(#clip182)" x1="2347.54" y1="895.428" x2="2331.54" y2="895.428" style="stroke:#0000ff; stroke-width:12; stroke-opacity:1"/>
<line clip-path="url(#clip182)" x1="2347.54" y1="895.428" x2="2347.54" y2="911.428" style="stroke:#0000ff; stroke-width:12; stroke-opacity:1"/>
<line clip-path="url(#clip182)" x1="2347.54" y1="895.428" x2="2363.54" y2="895.428" style="stroke:#0000ff; stroke-width:12; stroke-opacity:1"/>
<line clip-path="url(#clip182)" x1="2023.33" y1="649.267" x2="2023.33" y2="633.267" style="stroke:#0000ff; stroke-width:12; stroke-opacity:1"/>
<line clip-path="url(#clip182)" x1="2023.33" y1="649.267" x2="2007.33" y2="649.267" style="stroke:#0000ff; stroke-width:12; stroke-opacity:1"/>
<line clip-path="url(#clip182)" x1="2023.33" y1="649.267" x2="2023.33" y2="665.267" style="stroke:#0000ff; stroke-width:12; stroke-opacity:1"/>
<line clip-path="url(#clip182)" x1="2023.33" y1="649.267" x2="2039.33" y2="649.267" style="stroke:#0000ff; stroke-width:12; stroke-opacity:1"/>
<line clip-path="url(#clip182)" x1="1726.82" y1="404.193" x2="1726.82" y2="388.193" style="stroke:#0000ff; stroke-width:12; stroke-opacity:1"/>
<line clip-path="url(#clip182)" x1="1726.82" y1="404.193" x2="1710.82" y2="404.193" style="stroke:#0000ff; stroke-width:12; stroke-opacity:1"/>
<line clip-path="url(#clip182)" x1="1726.82" y1="404.193" x2="1726.82" y2="420.193" style="stroke:#0000ff; stroke-width:12; stroke-opacity:1"/>
<line clip-path="url(#clip182)" x1="1726.82" y1="404.193" x2="1742.82" y2="404.193" style="stroke:#0000ff; stroke-width:12; stroke-opacity:1"/>
<line clip-path="url(#clip182)" x1="1441.55" y1="154.574" x2="1441.55" y2="138.574" style="stroke:#0000ff; stroke-width:12; stroke-opacity:1"/>
<line clip-path="url(#clip182)" x1="1441.55" y1="154.574" x2="1425.55" y2="154.574" style="stroke:#0000ff; stroke-width:12; stroke-opacity:1"/>
<line clip-path="url(#clip182)" x1="1441.55" y1="154.574" x2="1441.55" y2="170.574" style="stroke:#0000ff; stroke-width:12; stroke-opacity:1"/>
<line clip-path="url(#clip182)" x1="1441.55" y1="154.574" x2="1457.55" y2="154.574" style="stroke:#0000ff; stroke-width:12; stroke-opacity:1"/>
<polyline clip-path="url(#clip182)" style="stroke:#7f007f; stroke-linecap:round; stroke-linejoin:round; stroke-width:12; stroke-opacity:1; fill:none" points="2209.32,1329.11 1893.55,1155.61 1533.49,980.292 1127.51,802.586 864.367,623.223 "/>
<circle clip-path="url(#clip182)" cx="2209.32" cy="1329.11" r="14.4" fill="#7f007f" fill-rule="evenodd" fill-opacity="1" stroke="#000000" stroke-opacity="1" stroke-width="1.92"/>
<circle clip-path="url(#clip182)" cx="1893.55" cy="1155.61" r="14.4" fill="#7f007f" fill-rule="evenodd" fill-opacity="1" stroke="#000000" stroke-opacity="1" stroke-width="1.92"/>
<circle clip-path="url(#clip182)" cx="1533.49" cy="980.292" r="14.4" fill="#7f007f" fill-rule="evenodd" fill-opacity="1" stroke="#000000" stroke-opacity="1" stroke-width="1.92"/>
<circle clip-path="url(#clip182)" cx="1127.51" cy="802.586" r="14.4" fill="#7f007f" fill-rule="evenodd" fill-opacity="1" stroke="#000000" stroke-opacity="1" stroke-width="1.92"/>
<circle clip-path="url(#clip182)" cx="864.367" cy="623.223" r="14.4" fill="#7f007f" fill-rule="evenodd" fill-opacity="1" stroke="#000000" stroke-opacity="1" stroke-width="1.92"/>
<polyline clip-path="url(#clip182)" style="stroke:#ff0000; stroke-linecap:round; stroke-linejoin:round; stroke-width:12; stroke-opacity:1; fill:none" points="1938.35,1309.76 1233.1,1176.55 1127.49,1041.18 908.941,902.922 381.676,769.42 "/>
<line clip-path="url(#clip182)" x1="1938.35" y1="1309.76" x2="1938.35" y2="1293.76" style="stroke:#ff0000; stroke-width:12; stroke-opacity:1"/>
<line clip-path="url(#clip182)" x1="1938.35" y1="1309.76" x2="1922.35" y2="1309.76" style="stroke:#ff0000; stroke-width:12; stroke-opacity:1"/>
<line clip-path="url(#clip182)" x1="1938.35" y1="1309.76" x2="1938.35" y2="1325.76" style="stroke:#ff0000; stroke-width:12; stroke-opacity:1"/>
<line clip-path="url(#clip182)" x1="1938.35" y1="1309.76" x2="1954.35" y2="1309.76" style="stroke:#ff0000; stroke-width:12; stroke-opacity:1"/>
<line clip-path="url(#clip182)" x1="1233.1" y1="1176.55" x2="1233.1" y2="1160.55" style="stroke:#ff0000; stroke-width:12; stroke-opacity:1"/>
<line clip-path="url(#clip182)" x1="1233.1" y1="1176.55" x2="1217.1" y2="1176.55" style="stroke:#ff0000; stroke-width:12; stroke-opacity:1"/>
<line clip-path="url(#clip182)" x1="1233.1" y1="1176.55" x2="1233.1" y2="1192.55" style="stroke:#ff0000; stroke-width:12; stroke-opacity:1"/>
<line clip-path="url(#clip182)" x1="1233.1" y1="1176.55" x2="1249.1" y2="1176.55" style="stroke:#ff0000; stroke-width:12; stroke-opacity:1"/>
<line clip-path="url(#clip182)" x1="1127.49" y1="1041.18" x2="1127.49" y2="1025.18" style="stroke:#ff0000; stroke-width:12; stroke-opacity:1"/>
<line clip-path="url(#clip182)" x1="1127.49" y1="1041.18" x2="1111.49" y2="1041.18" style="stroke:#ff0000; stroke-width:12; stroke-opacity:1"/>
<line clip-path="url(#clip182)" x1="1127.49" y1="1041.18" x2="1127.49" y2="1057.18" style="stroke:#ff0000; stroke-width:12; stroke-opacity:1"/>
<line clip-path="url(#clip182)" x1="1127.49" y1="1041.18" x2="1143.49" y2="1041.18" style="stroke:#ff0000; stroke-width:12; stroke-opacity:1"/>
<line clip-path="url(#clip182)" x1="908.941" y1="902.922" x2="908.941" y2="886.922" style="stroke:#ff0000; stroke-width:12; stroke-opacity:1"/>
<line clip-path="url(#clip182)" x1="908.941" y1="902.922" x2="892.941" y2="902.922" style="stroke:#ff0000; stroke-width:12; stroke-opacity:1"/>
<line clip-path="url(#clip182)" x1="908.941" y1="902.922" x2="908.941" y2="918.922" style="stroke:#ff0000; stroke-width:12; stroke-opacity:1"/>
<line clip-path="url(#clip182)" x1="908.941" y1="902.922" x2="924.941" y2="902.922" style="stroke:#ff0000; stroke-width:12; stroke-opacity:1"/>
<line clip-path="url(#clip182)" x1="381.676" y1="769.42" x2="381.676" y2="753.42" style="stroke:#ff0000; stroke-width:12; stroke-opacity:1"/>
<line clip-path="url(#clip182)" x1="381.676" y1="769.42" x2="365.676" y2="769.42" style="stroke:#ff0000; stroke-width:12; stroke-opacity:1"/>
<line clip-path="url(#clip182)" x1="381.676" y1="769.42" x2="381.676" y2="785.42" style="stroke:#ff0000; stroke-width:12; stroke-opacity:1"/>
<line clip-path="url(#clip182)" x1="381.676" y1="769.42" x2="397.676" y2="769.42" style="stroke:#ff0000; stroke-width:12; stroke-opacity:1"/>
<path clip-path="url(#clip180)" d="M2885.52 369.816 L3345.76 369.816 L3345.76 162.456 L2885.52 162.456  Z" fill="#ffffff" fill-rule="evenodd" fill-opacity="1"/>
<polyline clip-path="url(#clip180)" style="stroke:#000000; stroke-linecap:round; stroke-linejoin:round; stroke-width:4; stroke-opacity:1; fill:none" points="2885.52,369.816 3345.76,369.816 3345.76,162.456 2885.52,162.456 2885.52,369.816 "/>
<polyline clip-path="url(#clip180)" style="stroke:#0000ff; stroke-linecap:round; stroke-linejoin:round; stroke-width:12; stroke-opacity:1; fill:none" points="2919.23,214.296 3121.5,214.296 "/>
<line clip-path="url(#clip180)" x1="3020.36" y1="214.296" x2="3020.36" y2="190.202" style="stroke:#0000ff; stroke-width:12; stroke-opacity:1"/>
<line clip-path="url(#clip180)" x1="3020.36" y1="214.296" x2="2996.27" y2="214.296" style="stroke:#0000ff; stroke-width:12; stroke-opacity:1"/>
<line clip-path="url(#clip180)" x1="3020.36" y1="214.296" x2="3020.36" y2="238.39" style="stroke:#0000ff; stroke-width:12; stroke-opacity:1"/>
<line clip-path="url(#clip180)" x1="3020.36" y1="214.296" x2="3044.46" y2="214.296" style="stroke:#0000ff; stroke-width:12; stroke-opacity:1"/>
<path clip-path="url(#clip180)" d="M3155.21 231.576 L3155.21 230.02 L3156.42 230.02 Q3159.16 230.02 3159.78 229.575 Q3160.42 229.106 3160.42 227.624 L3160.42 201.117 Q3160.42 199.659 3159.78 199.215 Q3159.14 198.745 3156.42 198.745 L3155.21 198.745 L3155.21 197.164 L3183.69 197.164 L3185.1 208.553 L3183.84 208.553 Q3183.5 205.662 3183.03 204.007 Q3182.58 202.327 3181.47 201.043 Q3180.38 199.758 3178.58 199.264 Q3176.8 198.745 3173.91 198.745 L3167.39 198.745 Q3165.66 198.745 3165.29 199.116 Q3164.92 199.462 3164.92 200.771 L3164.92 212.9 L3169.46 212.9 Q3172.95 212.9 3173.94 211.69 Q3174.92 210.479 3174.92 206.996 L3176.21 206.996 L3176.21 220.385 L3174.92 220.385 Q3174.92 216.952 3173.94 215.717 Q3172.95 214.481 3169.46 214.481 L3164.92 214.481 L3164.92 227.994 Q3164.92 229.303 3165.29 229.674 Q3165.68 230.02 3167.39 230.02 L3174.13 230.02 Q3176.31 230.02 3177.89 229.748 Q3179.49 229.452 3180.61 228.76 Q3181.72 228.043 3182.46 227.228 Q3183.22 226.413 3183.74 224.956 Q3184.29 223.473 3184.58 222.115 Q3184.9 220.756 3185.25 218.533 L3186.51 218.533 L3184.38 231.576 L3155.21 231.576 Z" fill="#000000" fill-rule="nonzero" fill-opacity="1" /><path clip-path="url(#clip180)" d="M3189.6 231.576 L3189.6 230.02 L3190.81 230.02 Q3193.55 230.02 3194.17 229.575 Q3194.81 229.106 3194.81 227.624 L3194.81 200.969 Q3194.81 199.511 3194.17 199.066 Q3193.53 198.597 3190.81 198.597 L3189.6 198.597 L3189.6 197.016 Q3191.38 197.164 3197.08 197.164 Q3202.74 197.164 3204.52 197.016 L3204.52 198.597 L3203.31 198.597 Q3200.57 198.597 3199.92 199.066 Q3199.31 199.511 3199.31 200.969 L3199.31 217.05 L3215.14 201.932 Q3216.05 201.117 3216.05 200.252 Q3216.05 199.956 3215.91 199.635 Q3215.78 199.289 3215.19 198.943 Q3214.62 198.597 3213.71 198.597 L3213.71 197.016 Q3215.44 197.164 3220.16 197.164 Q3223.14 197.164 3224.45 197.016 L3224.45 198.597 Q3220.25 198.646 3217.27 201.636 L3208.15 210.381 L3219.83 227.574 Q3220.9 229.13 3221.93 229.575 Q3222.97 230.02 3225.15 230.02 L3225.15 231.576 Q3221.96 231.428 3219.34 231.428 Q3213.88 231.428 3212.1 231.576 L3212.1 230.02 Q3215.09 230.02 3215.09 228.488 Q3215.09 227.92 3214.33 226.759 L3205.16 213.221 L3199.31 218.78 L3199.31 227.624 Q3199.31 229.081 3199.92 229.55 Q3200.57 230.02 3203.31 230.02 L3204.52 230.02 L3204.52 231.576 Q3202.74 231.428 3197.03 231.428 Q3191.38 231.428 3189.6 231.576 Z" fill="#000000" fill-rule="nonzero" fill-opacity="1" /><path clip-path="url(#clip180)" d="M3231.72 202.698 L3231.72 201.117 Q3237.79 201.117 3240.93 197.881 Q3241.8 197.881 3241.94 198.078 Q3242.09 198.276 3242.09 199.19 L3242.09 227.574 Q3242.09 229.081 3242.83 229.55 Q3243.57 230.02 3246.81 230.02 L3248.42 230.02 L3248.42 231.576 Q3246.64 231.428 3240.21 231.428 Q3233.79 231.428 3232.04 231.576 L3232.04 230.02 L3233.64 230.02 Q3236.83 230.02 3237.6 229.575 Q3238.36 229.106 3238.36 227.574 L3238.36 201.364 Q3235.72 202.698 3231.72 202.698 Z" fill="#000000" fill-rule="nonzero" fill-opacity="1" /><path clip-path="url(#clip180)" d="M3257.53 218.928 Q3257.53 210.381 3260.72 203.488 Q3262.08 200.598 3263.98 198.177 Q3265.88 195.756 3267.14 194.694 Q3268.4 193.632 3268.75 193.632 Q3269.24 193.632 3269.27 194.126 Q3269.27 194.373 3268.6 194.99 Q3260.45 203.291 3260.47 218.928 Q3260.47 234.615 3268.4 242.594 Q3269.27 243.458 3269.27 243.73 Q3269.27 244.224 3268.75 244.224 Q3268.4 244.224 3267.19 243.211 Q3265.98 242.199 3264.1 239.876 Q3262.23 237.554 3260.87 234.713 Q3257.53 227.821 3257.53 218.928 Z" fill="#000000" fill-rule="nonzero" fill-opacity="1" /><path clip-path="url(#clip180)" d="M3274.65 231.576 Q3274.65 230.662 3274.73 230.39 Q3274.82 230.119 3275.22 229.699 L3284.93 218.879 Q3290.24 212.9 3290.24 207.688 Q3290.24 204.304 3288.46 201.883 Q3286.71 199.462 3283.47 199.462 Q3281.25 199.462 3279.37 200.82 Q3277.49 202.179 3276.63 204.6 Q3276.78 204.551 3277.29 204.551 Q3278.55 204.551 3279.25 205.341 Q3279.96 206.132 3279.96 207.194 Q3279.96 208.553 3279.07 209.22 Q3278.21 209.862 3277.34 209.862 Q3277 209.862 3276.53 209.788 Q3276.08 209.714 3275.37 209.022 Q3274.65 208.306 3274.65 207.046 Q3274.65 203.513 3277.32 200.697 Q3280.01 197.881 3284.11 197.881 Q3288.76 197.881 3291.8 200.647 Q3294.86 203.39 3294.86 207.688 Q3294.86 209.195 3294.39 210.578 Q3293.94 211.937 3293.33 212.999 Q3292.73 214.061 3291.1 215.766 Q3289.47 217.47 3288.16 218.681 Q3286.85 219.891 3283.91 222.461 L3278.55 227.673 L3287.67 227.673 Q3292.12 227.673 3292.46 227.278 Q3292.96 226.561 3293.57 222.782 L3294.86 222.782 L3293.43 231.576 L3274.65 231.576 Z" fill="#000000" fill-rule="nonzero" fill-opacity="1" /><path clip-path="url(#clip180)" d="M3300.32 243.73 Q3300.32 243.483 3300.96 242.866 Q3309.11 234.565 3309.11 218.928 Q3309.11 203.241 3301.28 195.312 Q3300.32 194.398 3300.32 194.126 Q3300.32 193.632 3300.81 193.632 Q3301.16 193.632 3302.37 194.645 Q3303.6 195.657 3305.46 197.98 Q3307.33 200.302 3308.72 203.143 Q3312.05 210.035 3312.05 218.928 Q3312.05 227.475 3308.87 234.368 Q3307.51 237.258 3305.6 239.679 Q3303.7 242.1 3302.44 243.162 Q3301.18 244.224 3300.81 244.224 Q3300.32 244.224 3300.32 243.73 Z" fill="#000000" fill-rule="nonzero" fill-opacity="1" /><polyline clip-path="url(#clip180)" style="stroke:#7f007f; stroke-linecap:round; stroke-linejoin:round; stroke-width:12; stroke-opacity:1; fill:none" points="2919.23,266.136 3121.5,266.136 "/>
<circle clip-path="url(#clip180)" cx="3020.36" cy="266.136" r="21.6847" fill="#7f007f" fill-rule="evenodd" fill-opacity="1" stroke="#000000" stroke-opacity="1" stroke-width="2.89129"/>
<path clip-path="url(#clip180)" d="M3155.21 283.416 L3155.21 281.86 L3156.42 281.86 Q3159.16 281.86 3159.78 281.415 Q3160.42 280.946 3160.42 279.464 L3160.42 252.957 Q3160.42 251.499 3159.78 251.055 Q3159.14 250.585 3156.42 250.585 L3155.21 250.585 L3155.21 249.004 L3183.69 249.004 L3185.1 260.393 L3183.84 260.393 Q3183.5 257.502 3183.03 255.847 Q3182.58 254.167 3181.47 252.883 Q3180.38 251.598 3178.58 251.104 Q3176.8 250.585 3173.91 250.585 L3167.39 250.585 Q3165.66 250.585 3165.29 250.956 Q3164.92 251.302 3164.92 252.611 L3164.92 264.74 L3169.46 264.74 Q3172.95 264.74 3173.94 263.53 Q3174.92 262.319 3174.92 258.836 L3176.21 258.836 L3176.21 272.225 L3174.92 272.225 Q3174.92 268.792 3173.94 267.557 Q3172.95 266.321 3169.46 266.321 L3164.92 266.321 L3164.92 279.834 Q3164.92 281.143 3165.29 281.514 Q3165.68 281.86 3167.39 281.86 L3174.13 281.86 Q3176.31 281.86 3177.89 281.588 Q3179.49 281.292 3180.61 280.6 Q3181.72 279.883 3182.46 279.068 Q3183.22 278.253 3183.74 276.796 Q3184.29 275.313 3184.58 273.955 Q3184.9 272.596 3185.25 270.373 L3186.51 270.373 L3184.38 283.416 L3155.21 283.416 Z" fill="#000000" fill-rule="nonzero" fill-opacity="1" /><path clip-path="url(#clip180)" d="M3189.6 283.416 L3189.6 281.86 L3190.81 281.86 Q3193.55 281.86 3194.17 281.415 Q3194.81 280.946 3194.81 279.464 L3194.81 252.809 Q3194.81 251.351 3194.17 250.906 Q3193.53 250.437 3190.81 250.437 L3189.6 250.437 L3189.6 248.856 Q3191.38 249.004 3197.08 249.004 Q3202.74 249.004 3204.52 248.856 L3204.52 250.437 L3203.31 250.437 Q3200.57 250.437 3199.92 250.906 Q3199.31 251.351 3199.31 252.809 L3199.31 268.89 L3215.14 253.772 Q3216.05 252.957 3216.05 252.092 Q3216.05 251.796 3215.91 251.475 Q3215.78 251.129 3215.19 250.783 Q3214.62 250.437 3213.71 250.437 L3213.71 248.856 Q3215.44 249.004 3220.16 249.004 Q3223.14 249.004 3224.45 248.856 L3224.45 250.437 Q3220.25 250.486 3217.27 253.476 L3208.15 262.221 L3219.83 279.414 Q3220.9 280.97 3221.93 281.415 Q3222.97 281.86 3225.15 281.86 L3225.15 283.416 Q3221.96 283.268 3219.34 283.268 Q3213.88 283.268 3212.1 283.416 L3212.1 281.86 Q3215.09 281.86 3215.09 280.328 Q3215.09 279.76 3214.33 278.599 L3205.16 265.061 L3199.31 270.62 L3199.31 279.464 Q3199.31 280.921 3199.92 281.39 Q3200.57 281.86 3203.31 281.86 L3204.52 281.86 L3204.52 283.416 Q3202.74 283.268 3197.03 283.268 Q3191.38 283.268 3189.6 283.416 Z" fill="#000000" fill-rule="nonzero" fill-opacity="1" /><path clip-path="url(#clip180)" d="M3231.72 254.538 L3231.72 252.957 Q3237.79 252.957 3240.93 249.721 Q3241.8 249.721 3241.94 249.918 Q3242.09 250.116 3242.09 251.03 L3242.09 279.414 Q3242.09 280.921 3242.83 281.39 Q3243.57 281.86 3246.81 281.86 L3248.42 281.86 L3248.42 283.416 Q3246.64 283.268 3240.21 283.268 Q3233.79 283.268 3232.04 283.416 L3232.04 281.86 L3233.64 281.86 Q3236.83 281.86 3237.6 281.415 Q3238.36 280.946 3238.36 279.414 L3238.36 253.204 Q3235.72 254.538 3231.72 254.538 Z" fill="#000000" fill-rule="nonzero" fill-opacity="1" /><path clip-path="url(#clip180)" d="M3257.53 270.768 Q3257.53 262.221 3260.72 255.328 Q3262.08 252.438 3263.98 250.017 Q3265.88 247.596 3267.14 246.534 Q3268.4 245.472 3268.75 245.472 Q3269.24 245.472 3269.27 245.966 Q3269.27 246.213 3268.6 246.83 Q3260.45 255.131 3260.47 270.768 Q3260.47 286.455 3268.4 294.434 Q3269.27 295.298 3269.27 295.57 Q3269.27 296.064 3268.75 296.064 Q3268.4 296.064 3267.19 295.051 Q3265.98 294.039 3264.1 291.716 Q3262.23 289.394 3260.87 286.553 Q3257.53 279.661 3257.53 270.768 Z" fill="#000000" fill-rule="nonzero" fill-opacity="1" /><path clip-path="url(#clip180)" d="M3274.26 276.598 Q3274.26 275.091 3275.12 274.375 Q3275.98 273.658 3277.1 273.658 Q3278.26 273.658 3279.07 274.424 Q3279.91 275.165 3279.91 276.474 Q3279.91 277.883 3278.92 278.673 Q3277.96 279.464 3276.58 279.266 Q3277.79 281.292 3280.01 282.206 Q3282.26 283.12 3284.33 283.12 Q3286.51 283.12 3288.26 281.242 Q3290.04 279.365 3290.04 274.77 Q3290.04 270.867 3288.51 268.619 Q3287 266.371 3284.01 266.371 L3281.79 266.371 Q3281.02 266.371 3280.8 266.297 Q3280.58 266.223 3280.58 265.803 Q3280.58 265.309 3281.35 265.21 Q3282.11 265.21 3283.32 265.061 Q3286.26 264.963 3287.82 262.418 Q3289.23 260.047 3289.23 256.662 Q3289.23 253.574 3287.74 252.29 Q3286.29 250.981 3284.38 250.981 Q3282.61 250.981 3280.65 251.722 Q3278.7 252.463 3277.64 254.118 Q3280.78 254.118 3280.78 256.662 Q3280.78 257.774 3280.06 258.515 Q3279.37 259.231 3278.21 259.231 Q3277.1 259.231 3276.36 258.54 Q3275.61 257.823 3275.61 256.613 Q3275.61 253.723 3278.18 251.722 Q3280.78 249.721 3284.58 249.721 Q3288.34 249.721 3291.1 251.697 Q3293.89 253.673 3293.89 256.712 Q3293.89 259.701 3291.92 262.146 Q3289.94 264.592 3286.81 265.605 Q3290.66 266.371 3292.96 268.989 Q3295.25 271.583 3295.25 274.77 Q3295.25 278.722 3292.14 281.637 Q3289.03 284.528 3284.48 284.528 Q3280.28 284.528 3277.27 282.255 Q3274.26 279.982 3274.26 276.598 Z" fill="#000000" fill-rule="nonzero" fill-opacity="1" /><path clip-path="url(#clip180)" d="M3300.32 295.57 Q3300.32 295.323 3300.96 294.706 Q3309.11 286.405 3309.11 270.768 Q3309.11 255.081 3301.28 247.152 Q3300.32 246.238 3300.32 245.966 Q3300.32 245.472 3300.81 245.472 Q3301.16 245.472 3302.37 246.485 Q3303.6 247.497 3305.46 249.82 Q3307.33 252.142 3308.72 254.983 Q3312.05 261.875 3312.05 270.768 Q3312.05 279.315 3308.87 286.208 Q3307.51 289.098 3305.6 291.519 Q3303.7 293.94 3302.44 295.002 Q3301.18 296.064 3300.81 296.064 Q3300.32 296.064 3300.32 295.57 Z" fill="#000000" fill-rule="nonzero" fill-opacity="1" /><polyline clip-path="url(#clip180)" style="stroke:#ff0000; stroke-linecap:round; stroke-linejoin:round; stroke-width:12; stroke-opacity:1; fill:none" points="2919.23,317.976 3121.5,317.976 "/>
<line clip-path="url(#clip180)" x1="3020.36" y1="317.976" x2="3020.36" y2="293.882" style="stroke:#ff0000; stroke-width:12; stroke-opacity:1"/>
<line clip-path="url(#clip180)" x1="3020.36" y1="317.976" x2="2996.27" y2="317.976" style="stroke:#ff0000; stroke-width:12; stroke-opacity:1"/>
<line clip-path="url(#clip180)" x1="3020.36" y1="317.976" x2="3020.36" y2="342.07" style="stroke:#ff0000; stroke-width:12; stroke-opacity:1"/>
<line clip-path="url(#clip180)" x1="3020.36" y1="317.976" x2="3044.46" y2="317.976" style="stroke:#ff0000; stroke-width:12; stroke-opacity:1"/>
<path clip-path="url(#clip180)" d="M3155.21 335.256 L3155.21 333.7 L3156.42 333.7 Q3159.16 333.7 3159.78 333.255 Q3160.42 332.786 3160.42 331.304 L3160.42 304.797 Q3160.42 303.339 3159.78 302.895 Q3159.14 302.425 3156.42 302.425 L3155.21 302.425 L3155.21 300.844 L3183.69 300.844 L3185.1 312.233 L3183.84 312.233 Q3183.5 309.342 3183.03 307.687 Q3182.58 306.007 3181.47 304.723 Q3180.38 303.438 3178.58 302.944 Q3176.8 302.425 3173.91 302.425 L3167.39 302.425 Q3165.66 302.425 3165.29 302.796 Q3164.92 303.142 3164.92 304.451 L3164.92 316.58 L3169.46 316.58 Q3172.95 316.58 3173.94 315.37 Q3174.92 314.159 3174.92 310.676 L3176.21 310.676 L3176.21 324.065 L3174.92 324.065 Q3174.92 320.632 3173.94 319.397 Q3172.95 318.161 3169.46 318.161 L3164.92 318.161 L3164.92 331.674 Q3164.92 332.983 3165.29 333.354 Q3165.68 333.7 3167.39 333.7 L3174.13 333.7 Q3176.31 333.7 3177.89 333.428 Q3179.49 333.132 3180.61 332.44 Q3181.72 331.723 3182.46 330.908 Q3183.22 330.093 3183.74 328.636 Q3184.29 327.153 3184.58 325.795 Q3184.9 324.436 3185.25 322.213 L3186.51 322.213 L3184.38 335.256 L3155.21 335.256 Z" fill="#000000" fill-rule="nonzero" fill-opacity="1" /><path clip-path="url(#clip180)" d="M3189.6 335.256 L3189.6 333.7 L3190.81 333.7 Q3193.55 333.7 3194.17 333.255 Q3194.81 332.786 3194.81 331.304 L3194.81 304.649 Q3194.81 303.191 3194.17 302.746 Q3193.53 302.277 3190.81 302.277 L3189.6 302.277 L3189.6 300.696 Q3191.38 300.844 3197.08 300.844 Q3202.74 300.844 3204.52 300.696 L3204.52 302.277 L3203.31 302.277 Q3200.57 302.277 3199.92 302.746 Q3199.31 303.191 3199.31 304.649 L3199.31 320.73 L3215.14 305.612 Q3216.05 304.797 3216.05 303.932 Q3216.05 303.636 3215.91 303.315 Q3215.78 302.969 3215.19 302.623 Q3214.62 302.277 3213.71 302.277 L3213.71 300.696 Q3215.44 300.844 3220.16 300.844 Q3223.14 300.844 3224.45 300.696 L3224.45 302.277 Q3220.25 302.326 3217.27 305.316 L3208.15 314.061 L3219.83 331.254 Q3220.9 332.81 3221.93 333.255 Q3222.97 333.7 3225.15 333.7 L3225.15 335.256 Q3221.96 335.108 3219.34 335.108 Q3213.88 335.108 3212.1 335.256 L3212.1 333.7 Q3215.09 333.7 3215.09 332.168 Q3215.09 331.6 3214.33 330.439 L3205.16 316.901 L3199.31 322.46 L3199.31 331.304 Q3199.31 332.761 3199.92 333.23 Q3200.57 333.7 3203.31 333.7 L3204.52 333.7 L3204.52 335.256 Q3202.74 335.108 3197.03 335.108 Q3191.38 335.108 3189.6 335.256 Z" fill="#000000" fill-rule="nonzero" fill-opacity="1" /><path clip-path="url(#clip180)" d="M3231.72 306.378 L3231.72 304.797 Q3237.79 304.797 3240.93 301.561 Q3241.8 301.561 3241.94 301.758 Q3242.09 301.956 3242.09 302.87 L3242.09 331.254 Q3242.09 332.761 3242.83 333.23 Q3243.57 333.7 3246.81 333.7 L3248.42 333.7 L3248.42 335.256 Q3246.64 335.108 3240.21 335.108 Q3233.79 335.108 3232.04 335.256 L3232.04 333.7 L3233.64 333.7 Q3236.83 333.7 3237.6 333.255 Q3238.36 332.786 3238.36 331.254 L3238.36 305.044 Q3235.72 306.378 3231.72 306.378 Z" fill="#000000" fill-rule="nonzero" fill-opacity="1" /><path clip-path="url(#clip180)" d="M3257.53 322.608 Q3257.53 314.061 3260.72 307.168 Q3262.08 304.278 3263.98 301.857 Q3265.88 299.436 3267.14 298.374 Q3268.4 297.312 3268.75 297.312 Q3269.24 297.312 3269.27 297.806 Q3269.27 298.053 3268.6 298.67 Q3260.45 306.971 3260.47 322.608 Q3260.47 338.295 3268.4 346.274 Q3269.27 347.138 3269.27 347.41 Q3269.27 347.904 3268.75 347.904 Q3268.4 347.904 3267.19 346.891 Q3265.98 345.879 3264.1 343.556 Q3262.23 341.234 3260.87 338.393 Q3257.53 331.501 3257.53 322.608 Z" fill="#000000" fill-rule="nonzero" fill-opacity="1" /><path clip-path="url(#clip180)" d="M3273.54 326.906 L3273.54 325.35 L3289.08 301.61 Q3289.47 300.993 3290.09 301.017 Q3290.66 301.017 3290.78 301.24 Q3290.91 301.462 3290.91 302.326 L3290.91 325.35 L3295.97 325.35 L3295.97 326.906 L3290.91 326.906 L3290.91 331.304 Q3290.91 332.761 3291.5 333.23 Q3292.12 333.7 3294.73 333.7 L3295.8 333.7 L3295.8 335.256 Q3293.72 335.108 3288.93 335.108 Q3284.16 335.108 3282.09 335.256 L3282.09 333.7 L3283.15 333.7 Q3285.77 333.7 3286.39 333.255 Q3287 332.786 3287 331.304 L3287 326.906 L3273.54 326.906 M3274.97 325.35 L3287.3 325.35 L3287.3 306.477 L3274.97 325.35 Z" fill="#000000" fill-rule="nonzero" fill-opacity="1" /><path clip-path="url(#clip180)" d="M3300.32 347.41 Q3300.32 347.163 3300.96 346.546 Q3309.11 338.245 3309.11 322.608 Q3309.11 306.921 3301.28 298.992 Q3300.32 298.078 3300.32 297.806 Q3300.32 297.312 3300.81 297.312 Q3301.16 297.312 3302.37 298.325 Q3303.6 299.337 3305.46 301.66 Q3307.33 303.982 3308.72 306.823 Q3312.05 313.715 3312.05 322.608 Q3312.05 331.155 3308.87 338.048 Q3307.51 340.938 3305.6 343.359 Q3303.7 345.78 3302.44 346.842 Q3301.18 347.904 3300.81 347.904 Q3300.32 347.904 3300.32 347.41 Z" fill="#000000" fill-rule="nonzero" fill-opacity="1" /></svg>
