<?xml version="1.0" encoding="utf-8"?>
<svg xmlns="http://www.w3.org/2000/svg" xmlns:xlink="http://www.w3.org/1999/xlink" width="576" height="384" viewBox="0 0 2304 1536">
<defs>
  <clipPath id="clip960">
    <rect x="0" y="0" width="2304" height="1536"/>
  </clipPath>
</defs>
<path clip-path="url(#clip960)" d="M0 1536 L2304 1536 L2304 0 L0 0  Z" fill="#ffffff" fill-rule="evenodd" fill-opacity="1"/>
<defs>
  <clipPath id="clip961">
    <rect x="460" y="0" width="1614" height="1536"/>
  </clipPath>
</defs>
<path clip-path="url(#clip960)" d="M245.822 1280.22 L1831.79 1280.22 L1831.79 47.2441 L245.822 47.2441  Z" fill="#ffffff" fill-rule="evenodd" fill-opacity="1"/>
<defs>
  <clipPath id="clip962">
    <rect x="245" y="47" width="1587" height="1234"/>
  </clipPath>
</defs>
<polyline clip-path="url(#clip962)" style="stroke:#000000; stroke-linecap:round; stroke-linejoin:round; stroke-width:2.8; stroke-opacity:0.4; fill:none" points="368.95,1280.22 368.95,47.2441 "/>
<polyline clip-path="url(#clip962)" style="stroke:#000000; stroke-linecap:round; stroke-linejoin:round; stroke-width:2.8; stroke-opacity:0.4; fill:none" points="596.399,1280.22 596.399,47.2441 "/>
<polyline clip-path="url(#clip962)" style="stroke:#000000; stroke-linecap:round; stroke-linejoin:round; stroke-width:2.8; stroke-opacity:0.4; fill:none" points="823.849,1280.22 823.849,47.2441 "/>
<polyline clip-path="url(#clip962)" style="stroke:#000000; stroke-linecap:round; stroke-linejoin:round; stroke-width:2.8; stroke-opacity:0.4; fill:none" points="1051.3,1280.22 1051.3,47.2441 "/>
<polyline clip-path="url(#clip962)" style="stroke:#000000; stroke-linecap:round; stroke-linejoin:round; stroke-width:2.8; stroke-opacity:0.4; fill:none" points="1278.75,1280.22 1278.75,47.2441 "/>
<polyline clip-path="url(#clip962)" style="stroke:#000000; stroke-linecap:round; stroke-linejoin:round; stroke-width:2.8; stroke-opacity:0.4; fill:none" points="1506.2,1280.22 1506.2,47.2441 "/>
<polyline clip-path="url(#clip962)" style="stroke:#000000; stroke-linecap:round; stroke-linejoin:round; stroke-width:2.8; stroke-opacity:0.4; fill:none" points="1733.65,1280.22 1733.65,47.2441 "/>
<polyline clip-path="url(#clip962)" style="stroke:#000000; stroke-linecap:round; stroke-linejoin:round; stroke-width:2; stroke-opacity:0.06; fill:none" points="292.244,1280.22 292.244,47.2441 "/>
<polyline clip-path="url(#clip962)" style="stroke:#000000; stroke-linecap:round; stroke-linejoin:round; stroke-width:2; stroke-opacity:0.06; fill:none" points="324.866,1280.22 324.866,47.2441 "/>
<polyline clip-path="url(#clip962)" style="stroke:#000000; stroke-linecap:round; stroke-linejoin:round; stroke-width:2; stroke-opacity:0.06; fill:none" points="349.347,1280.22 349.347,47.2441 "/>
<polyline clip-path="url(#clip962)" style="stroke:#000000; stroke-linecap:round; stroke-linejoin:round; stroke-width:2; stroke-opacity:0.06; fill:none" points="470.656,1280.22 470.656,47.2441 "/>
<polyline clip-path="url(#clip962)" style="stroke:#000000; stroke-linecap:round; stroke-linejoin:round; stroke-width:2; stroke-opacity:0.06; fill:none" points="519.694,1280.22 519.694,47.2441 "/>
<polyline clip-path="url(#clip962)" style="stroke:#000000; stroke-linecap:round; stroke-linejoin:round; stroke-width:2; stroke-opacity:0.06; fill:none" points="552.315,1280.22 552.315,47.2441 "/>
<polyline clip-path="url(#clip962)" style="stroke:#000000; stroke-linecap:round; stroke-linejoin:round; stroke-width:2; stroke-opacity:0.06; fill:none" points="576.796,1280.22 576.796,47.2441 "/>
<polyline clip-path="url(#clip962)" style="stroke:#000000; stroke-linecap:round; stroke-linejoin:round; stroke-width:2; stroke-opacity:0.06; fill:none" points="698.105,1280.22 698.105,47.2441 "/>
<polyline clip-path="url(#clip962)" style="stroke:#000000; stroke-linecap:round; stroke-linejoin:round; stroke-width:2; stroke-opacity:0.06; fill:none" points="747.143,1280.22 747.143,47.2441 "/>
<polyline clip-path="url(#clip962)" style="stroke:#000000; stroke-linecap:round; stroke-linejoin:round; stroke-width:2; stroke-opacity:0.06; fill:none" points="779.765,1280.22 779.765,47.2441 "/>
<polyline clip-path="url(#clip962)" style="stroke:#000000; stroke-linecap:round; stroke-linejoin:round; stroke-width:2; stroke-opacity:0.06; fill:none" points="804.246,1280.22 804.246,47.2441 "/>
<polyline clip-path="url(#clip962)" style="stroke:#000000; stroke-linecap:round; stroke-linejoin:round; stroke-width:2; stroke-opacity:0.06; fill:none" points="925.555,1280.22 925.555,47.2441 "/>
<polyline clip-path="url(#clip962)" style="stroke:#000000; stroke-linecap:round; stroke-linejoin:round; stroke-width:2; stroke-opacity:0.06; fill:none" points="974.593,1280.22 974.593,47.2441 "/>
<polyline clip-path="url(#clip962)" style="stroke:#000000; stroke-linecap:round; stroke-linejoin:round; stroke-width:2; stroke-opacity:0.06; fill:none" points="1007.21,1280.22 1007.21,47.2441 "/>
<polyline clip-path="url(#clip962)" style="stroke:#000000; stroke-linecap:round; stroke-linejoin:round; stroke-width:2; stroke-opacity:0.06; fill:none" points="1031.7,1280.22 1031.7,47.2441 "/>
<polyline clip-path="url(#clip962)" style="stroke:#000000; stroke-linecap:round; stroke-linejoin:round; stroke-width:2; stroke-opacity:0.06; fill:none" points="1153,1280.22 1153,47.2441 "/>
<polyline clip-path="url(#clip962)" style="stroke:#000000; stroke-linecap:round; stroke-linejoin:round; stroke-width:2; stroke-opacity:0.06; fill:none" points="1202.04,1280.22 1202.04,47.2441 "/>
<polyline clip-path="url(#clip962)" style="stroke:#000000; stroke-linecap:round; stroke-linejoin:round; stroke-width:2; stroke-opacity:0.06; fill:none" points="1234.66,1280.22 1234.66,47.2441 "/>
<polyline clip-path="url(#clip962)" style="stroke:#000000; stroke-linecap:round; stroke-linejoin:round; stroke-width:2; stroke-opacity:0.06; fill:none" points="1259.15,1280.22 1259.15,47.2441 "/>
<polyline clip-path="url(#clip962)" style="stroke:#000000; stroke-linecap:round; stroke-linejoin:round; stroke-width:2; stroke-opacity:0.06; fill:none" points="1380.45,1280.22 1380.45,47.2441 "/>
<polyline clip-path="url(#clip962)" style="stroke:#000000; stroke-linecap:round; stroke-linejoin:round; stroke-width:2; stroke-opacity:0.06; fill:none" points="1429.49,1280.22 1429.49,47.2441 "/>
<polyline clip-path="url(#clip962)" style="stroke:#000000; stroke-linecap:round; stroke-linejoin:round; stroke-width:2; stroke-opacity:0.06; fill:none" points="1462.11,1280.22 1462.11,47.2441 "/>
<polyline clip-path="url(#clip962)" style="stroke:#000000; stroke-linecap:round; stroke-linejoin:round; stroke-width:2; stroke-opacity:0.06; fill:none" points="1486.59,1280.22 1486.59,47.2441 "/>
<polyline clip-path="url(#clip962)" style="stroke:#000000; stroke-linecap:round; stroke-linejoin:round; stroke-width:2; stroke-opacity:0.06; fill:none" points="1607.9,1280.22 1607.9,47.2441 "/>
<polyline clip-path="url(#clip962)" style="stroke:#000000; stroke-linecap:round; stroke-linejoin:round; stroke-width:2; stroke-opacity:0.06; fill:none" points="1656.94,1280.22 1656.94,47.2441 "/>
<polyline clip-path="url(#clip962)" style="stroke:#000000; stroke-linecap:round; stroke-linejoin:round; stroke-width:2; stroke-opacity:0.06; fill:none" points="1689.56,1280.22 1689.56,47.2441 "/>
<polyline clip-path="url(#clip962)" style="stroke:#000000; stroke-linecap:round; stroke-linejoin:round; stroke-width:2; stroke-opacity:0.06; fill:none" points="1714.04,1280.22 1714.04,47.2441 "/>
<polyline clip-path="url(#clip960)" style="stroke:#000000; stroke-linecap:round; stroke-linejoin:round; stroke-width:4; stroke-opacity:1; fill:none" points="245.822,1280.22 1831.79,1280.22 "/>
<polyline clip-path="url(#clip960)" style="stroke:#000000; stroke-linecap:round; stroke-linejoin:round; stroke-width:4; stroke-opacity:1; fill:none" points="245.822,47.2441 1831.79,47.2441 "/>
<polyline clip-path="url(#clip960)" style="stroke:#000000; stroke-linecap:round; stroke-linejoin:round; stroke-width:4; stroke-opacity:1; fill:none" points="368.95,1280.22 368.95,1261.33 "/>
<polyline clip-path="url(#clip960)" style="stroke:#000000; stroke-linecap:round; stroke-linejoin:round; stroke-width:4; stroke-opacity:1; fill:none" points="596.399,1280.22 596.399,1261.33 "/>
<polyline clip-path="url(#clip960)" style="stroke:#000000; stroke-linecap:round; stroke-linejoin:round; stroke-width:4; stroke-opacity:1; fill:none" points="823.849,1280.22 823.849,1261.33 "/>
<polyline clip-path="url(#clip960)" style="stroke:#000000; stroke-linecap:round; stroke-linejoin:round; stroke-width:4; stroke-opacity:1; fill:none" points="1051.3,1280.22 1051.3,1261.33 "/>
<polyline clip-path="url(#clip960)" style="stroke:#000000; stroke-linecap:round; stroke-linejoin:round; stroke-width:4; stroke-opacity:1; fill:none" points="1278.75,1280.22 1278.75,1261.33 "/>
<polyline clip-path="url(#clip960)" style="stroke:#000000; stroke-linecap:round; stroke-linejoin:round; stroke-width:4; stroke-opacity:1; fill:none" points="1506.2,1280.22 1506.2,1261.33 "/>
<polyline clip-path="url(#clip960)" style="stroke:#000000; stroke-linecap:round; stroke-linejoin:round; stroke-width:4; stroke-opacity:1; fill:none" points="1733.65,1280.22 1733.65,1261.33 "/>
<polyline clip-path="url(#clip960)" style="stroke:#000000; stroke-linecap:round; stroke-linejoin:round; stroke-width:4; stroke-opacity:1; fill:none" points="292.244,1280.22 292.244,1270.78 "/>
<polyline clip-path="url(#clip960)" style="stroke:#000000; stroke-linecap:round; stroke-linejoin:round; stroke-width:4; stroke-opacity:1; fill:none" points="324.866,1280.22 324.866,1270.78 "/>
<polyline clip-path="url(#clip960)" style="stroke:#000000; stroke-linecap:round; stroke-linejoin:round; stroke-width:4; stroke-opacity:1; fill:none" points="349.347,1280.22 349.347,1270.78 "/>
<polyline clip-path="url(#clip960)" style="stroke:#000000; stroke-linecap:round; stroke-linejoin:round; stroke-width:4; stroke-opacity:1; fill:none" points="470.656,1280.22 470.656,1270.78 "/>
<polyline clip-path="url(#clip960)" style="stroke:#000000; stroke-linecap:round; stroke-linejoin:round; stroke-width:4; stroke-opacity:1; fill:none" points="519.694,1280.22 519.694,1270.78 "/>
<polyline clip-path="url(#clip960)" style="stroke:#000000; stroke-linecap:round; stroke-linejoin:round; stroke-width:4; stroke-opacity:1; fill:none" points="552.315,1280.22 552.315,1270.78 "/>
<polyline clip-path="url(#clip960)" style="stroke:#000000; stroke-linecap:round; stroke-linejoin:round; stroke-width:4; stroke-opacity:1; fill:none" points="576.796,1280.22 576.796,1270.78 "/>
<polyline clip-path="url(#clip960)" style="stroke:#000000; stroke-linecap:round; stroke-linejoin:round; stroke-width:4; stroke-opacity:1; fill:none" points="698.105,1280.22 698.105,1270.78 "/>
<polyline clip-path="url(#clip960)" style="stroke:#000000; stroke-linecap:round; stroke-linejoin:round; stroke-width:4; stroke-opacity:1; fill:none" points="747.143,1280.22 747.143,1270.78 "/>
<polyline clip-path="url(#clip960)" style="stroke:#000000; stroke-linecap:round; stroke-linejoin:round; stroke-width:4; stroke-opacity:1; fill:none" points="779.765,1280.22 779.765,1270.78 "/>
<polyline clip-path="url(#clip960)" style="stroke:#000000; stroke-linecap:round; stroke-linejoin:round; stroke-width:4; stroke-opacity:1; fill:none" points="804.246,1280.22 804.246,1270.78 "/>
<polyline clip-path="url(#clip960)" style="stroke:#000000; stroke-linecap:round; stroke-linejoin:round; stroke-width:4; stroke-opacity:1; fill:none" points="925.555,1280.22 925.555,1270.78 "/>
<polyline clip-path="url(#clip960)" style="stroke:#000000; stroke-linecap:round; stroke-linejoin:round; stroke-width:4; stroke-opacity:1; fill:none" points="974.593,1280.22 974.593,1270.78 "/>
<polyline clip-path="url(#clip960)" style="stroke:#000000; stroke-linecap:round; stroke-linejoin:round; stroke-width:4; stroke-opacity:1; fill:none" points="1007.21,1280.22 1007.21,1270.78 "/>
<polyline clip-path="url(#clip960)" style="stroke:#000000; stroke-linecap:round; stroke-linejoin:round; stroke-width:4; stroke-opacity:1; fill:none" points="1031.7,1280.22 1031.7,1270.78 "/>
<polyline clip-path="url(#clip960)" style="stroke:#000000; stroke-linecap:round; stroke-linejoin:round; stroke-width:4; stroke-opacity:1; fill:none" points="1153,1280.22 1153,1270.78 "/>
<polyline clip-path="url(#clip960)" style="stroke:#000000; stroke-linecap:round; stroke-linejoin:round; stroke-width:4; stroke-opacity:1; fill:none" points="1202.04,1280.22 1202.04,1270.78 "/>
<polyline clip-path="url(#clip960)" style="stroke:#000000; stroke-linecap:round; stroke-linejoin:round; stroke-width:4; stroke-opacity:1; fill:none" points="1234.66,1280.22 1234.66,1270.78 "/>
<polyline clip-path="url(#clip960)" style="stroke:#000000; stroke-linecap:round; stroke-linejoin:round; stroke-width:4; stroke-opacity:1; fill:none" points="1259.15,1280.22 1259.15,1270.78 "/>
<polyline clip-path="url(#clip960)" style="stroke:#000000; stroke-linecap:round; stroke-linejoin:round; stroke-width:4; stroke-opacity:1; fill:none" points="1380.45,1280.22 1380.45,1270.78 "/>
<polyline clip-path="url(#clip960)" style="stroke:#000000; stroke-linecap:round; stroke-linejoin:round; stroke-width:4; stroke-opacity:1; fill:none" points="1429.49,1280.22 1429.49,1270.78 "/>
<polyline clip-path="url(#clip960)" style="stroke:#000000; stroke-linecap:round; stroke-linejoin:round; stroke-width:4; stroke-opacity:1; fill:none" points="1462.11,1280.22 1462.11,1270.78 "/>
<polyline clip-path="url(#clip960)" style="stroke:#000000; stroke-linecap:round; stroke-linejoin:round; stroke-width:4; stroke-opacity:1; fill:none" points="1486.59,1280.22 1486.59,1270.78 "/>
<polyline clip-path="url(#clip960)" style="stroke:#000000; stroke-linecap:round; stroke-linejoin:round; stroke-width:4; stroke-opacity:1; fill:none" points="1607.9,1280.22 1607.9,1270.78 "/>
<polyline clip-path="url(#clip960)" style="stroke:#000000; stroke-linecap:round; stroke-linejoin:round; stroke-width:4; stroke-opacity:1; fill:none" points="1656.94,1280.22 1656.94,1270.78 "/>
<polyline clip-path="url(#clip960)" style="stroke:#000000; stroke-linecap:round; stroke-linejoin:round; stroke-width:4; stroke-opacity:1; fill:none" points="1689.56,1280.22 1689.56,1270.78 "/>
<polyline clip-path="url(#clip960)" style="stroke:#000000; stroke-linecap:round; stroke-linejoin:round; stroke-width:4; stroke-opacity:1; fill:none" points="1714.04,1280.22 1714.04,1270.78 "/>
<path clip-path="url(#clip960)" d="M312.412 1328.64 L312.412 1327.06 Q318.489 1327.06 321.626 1323.82 Q322.49 1323.82 322.639 1324.02 Q322.787 1324.22 322.787 1325.13 L322.787 1353.51 Q322.787 1355.02 323.528 1355.49 Q324.269 1355.96 327.505 1355.96 L329.111 1355.96 L329.111 1357.52 Q327.332 1357.37 320.909 1357.37 Q314.487 1357.37 312.733 1357.52 L312.733 1355.96 L314.338 1355.96 Q317.525 1355.96 318.291 1355.52 Q319.057 1355.05 319.057 1353.51 L319.057 1327.3 Q316.413 1328.64 312.412 1328.64 Z" fill="#000000" fill-rule="nonzero" fill-opacity="1" /><path clip-path="url(#clip960)" d="M335.188 1341.34 Q335.188 1333.9 337.065 1329.85 Q339.684 1323.82 345.86 1323.82 Q347.169 1323.82 348.528 1324.19 Q349.911 1324.54 351.64 1325.9 Q353.394 1327.25 354.457 1329.48 Q356.482 1333.78 356.482 1341.34 Q356.482 1348.72 354.605 1352.75 Q351.863 1358.63 345.81 1358.63 Q343.538 1358.63 341.216 1357.47 Q338.918 1356.31 337.461 1353.51 Q335.188 1349.34 335.188 1341.34 M339.388 1340.72 Q339.388 1348.35 339.931 1351.39 Q340.549 1354.68 342.228 1356.11 Q343.933 1357.52 345.81 1357.52 Q347.836 1357.52 349.516 1356.01 Q351.221 1354.48 351.739 1351.19 Q352.307 1347.96 352.283 1340.72 Q352.283 1333.68 351.789 1330.86 Q351.122 1327.58 349.343 1326.27 Q347.589 1324.93 345.81 1324.93 Q345.143 1324.93 344.427 1325.13 Q343.735 1325.33 342.723 1325.9 Q341.71 1326.46 340.919 1327.87 Q340.153 1329.28 339.783 1331.41 Q339.388 1334.15 339.388 1340.72 Z" fill="#000000" fill-rule="nonzero" fill-opacity="1" /><path clip-path="url(#clip960)" d="M383.619 1319.25 Q383.86 1319.49 383.86 1319.83 Q383.86 1320.17 383.619 1320.41 Q383.378 1320.65 383.037 1320.65 L357.305 1320.65 Q356.964 1320.65 356.723 1320.41 Q356.482 1320.17 356.482 1319.83 Q356.482 1319.49 356.723 1319.25 Q356.964 1319.01 357.305 1319.01 L383.037 1319.01 Q383.378 1319.01 383.619 1319.25 Z" fill="#000000" fill-rule="nonzero" fill-opacity="1" /><path clip-path="url(#clip960)" d="M389.801 1306.64 L389.801 1305.36 Q394.739 1305.36 397.288 1302.73 Q397.99 1302.73 398.111 1302.89 Q398.231 1303.05 398.231 1303.79 L398.231 1326.85 Q398.231 1328.08 398.833 1328.46 Q399.435 1328.84 402.065 1328.84 L403.369 1328.84 L403.369 1330.11 Q401.924 1329.99 396.706 1329.99 Q391.487 1329.99 390.062 1330.11 L390.062 1328.84 L391.367 1328.84 Q393.956 1328.84 394.578 1328.48 Q395.2 1328.1 395.2 1326.85 L395.2 1305.56 Q393.053 1306.64 389.801 1306.64 Z" fill="#000000" fill-rule="nonzero" fill-opacity="1" /><path clip-path="url(#clip960)" d="M408.427 1324.57 Q408.427 1323.34 409.13 1322.76 Q409.832 1322.18 410.736 1322.18 Q411.679 1322.18 412.341 1322.8 Q413.024 1323.4 413.024 1324.47 Q413.024 1325.61 412.221 1326.25 Q411.438 1326.89 410.314 1326.73 Q411.298 1328.38 413.104 1329.12 Q414.93 1329.87 416.616 1329.87 Q418.383 1329.87 419.808 1328.34 Q421.253 1326.81 421.253 1323.08 Q421.253 1319.91 420.009 1318.08 Q418.784 1316.26 416.356 1316.26 L414.549 1316.26 Q413.927 1316.26 413.746 1316.2 Q413.566 1316.14 413.566 1315.8 Q413.566 1315.39 414.188 1315.31 Q414.81 1315.31 415.794 1315.19 Q418.182 1315.11 419.447 1313.05 Q420.591 1311.12 420.591 1308.37 Q420.591 1305.86 419.386 1304.82 Q418.202 1303.75 416.657 1303.75 Q415.211 1303.75 413.626 1304.35 Q412.04 1304.96 411.177 1306.3 Q413.726 1306.3 413.726 1308.37 Q413.726 1309.27 413.144 1309.87 Q412.582 1310.46 411.639 1310.46 Q410.736 1310.46 410.133 1309.89 Q409.531 1309.31 409.531 1308.33 Q409.531 1305.98 411.619 1304.35 Q413.726 1302.73 416.817 1302.73 Q419.868 1302.73 422.116 1304.33 Q424.384 1305.94 424.384 1308.41 Q424.384 1310.84 422.778 1312.82 Q421.173 1314.81 418.624 1315.63 Q421.755 1316.26 423.621 1318.38 Q425.488 1320.49 425.488 1323.08 Q425.488 1326.29 422.959 1328.66 Q420.43 1331.01 416.737 1331.01 Q413.325 1331.01 410.876 1329.16 Q408.427 1327.32 408.427 1324.57 Z" fill="#000000" fill-rule="nonzero" fill-opacity="1" /><path clip-path="url(#clip960)" d="M540.022 1328.64 L540.022 1327.06 Q546.099 1327.06 549.236 1323.82 Q550.101 1323.82 550.249 1324.02 Q550.397 1324.22 550.397 1325.13 L550.397 1353.51 Q550.397 1355.02 551.138 1355.49 Q551.879 1355.96 555.115 1355.96 L556.721 1355.96 L556.721 1357.52 Q554.943 1357.37 548.52 1357.37 Q542.097 1357.37 540.343 1357.52 L540.343 1355.96 L541.949 1355.96 Q545.135 1355.96 545.901 1355.52 Q546.667 1355.05 546.667 1353.51 L546.667 1327.3 Q544.024 1328.64 540.022 1328.64 Z" fill="#000000" fill-rule="nonzero" fill-opacity="1" /><path clip-path="url(#clip960)" d="M562.798 1341.34 Q562.798 1333.9 564.676 1329.85 Q567.294 1323.82 573.47 1323.82 Q574.779 1323.82 576.138 1324.19 Q577.521 1324.54 579.251 1325.9 Q581.005 1327.25 582.067 1329.48 Q584.092 1333.78 584.092 1341.34 Q584.092 1348.72 582.215 1352.75 Q579.473 1358.63 573.421 1358.63 Q571.148 1358.63 568.826 1357.47 Q566.528 1356.31 565.071 1353.51 Q562.798 1349.34 562.798 1341.34 M566.998 1340.72 Q566.998 1348.35 567.541 1351.39 Q568.159 1354.68 569.839 1356.11 Q571.543 1357.52 573.421 1357.52 Q575.446 1357.52 577.126 1356.01 Q578.831 1354.48 579.349 1351.19 Q579.918 1347.96 579.893 1340.72 Q579.893 1333.68 579.399 1330.86 Q578.732 1327.58 576.953 1326.27 Q575.199 1324.93 573.421 1324.93 Q572.754 1324.93 572.037 1325.13 Q571.346 1325.33 570.333 1325.9 Q569.32 1326.46 568.529 1327.87 Q567.764 1329.28 567.393 1331.41 Q566.998 1334.15 566.998 1340.72 Z" fill="#000000" fill-rule="nonzero" fill-opacity="1" /><path clip-path="url(#clip960)" d="M611.229 1319.25 Q611.47 1319.49 611.47 1319.83 Q611.47 1320.17 611.229 1320.41 Q610.988 1320.65 610.647 1320.65 L584.915 1320.65 Q584.574 1320.65 584.333 1320.41 Q584.092 1320.17 584.092 1319.83 Q584.092 1319.49 584.333 1319.25 Q584.574 1319.01 584.915 1319.01 L610.647 1319.01 Q610.988 1319.01 611.229 1319.25 Z" fill="#000000" fill-rule="nonzero" fill-opacity="1" /><path clip-path="url(#clip960)" d="M617.411 1306.64 L617.411 1305.36 Q622.349 1305.36 624.898 1302.73 Q625.6 1302.73 625.721 1302.89 Q625.841 1303.05 625.841 1303.79 L625.841 1326.85 Q625.841 1328.08 626.443 1328.46 Q627.045 1328.84 629.675 1328.84 L630.979 1328.84 L630.979 1330.11 Q629.534 1329.99 624.316 1329.99 Q619.097 1329.99 617.672 1330.11 L617.672 1328.84 L618.977 1328.84 Q621.566 1328.84 622.188 1328.48 Q622.81 1328.1 622.81 1326.85 L622.81 1305.56 Q620.663 1306.64 617.411 1306.64 Z" fill="#000000" fill-rule="nonzero" fill-opacity="1" /><path clip-path="url(#clip960)" d="M636.359 1330.11 Q636.359 1329.36 636.419 1329.14 Q636.499 1328.92 636.82 1328.58 L644.708 1319.79 Q649.024 1314.93 649.024 1310.7 Q649.024 1307.95 647.579 1305.98 Q646.154 1304.01 643.524 1304.01 Q641.718 1304.01 640.192 1305.12 Q638.667 1306.22 637.964 1308.19 Q638.085 1308.15 638.506 1308.15 Q639.53 1308.15 640.092 1308.79 Q640.674 1309.43 640.674 1310.3 Q640.674 1311.4 639.951 1311.94 Q639.249 1312.46 638.546 1312.46 Q638.265 1312.46 637.884 1312.4 Q637.523 1312.34 636.941 1311.78 Q636.359 1311.2 636.359 1310.18 Q636.359 1307.3 638.526 1305.02 Q640.714 1302.73 644.046 1302.73 Q647.819 1302.73 650.288 1304.98 Q652.777 1307.2 652.777 1310.7 Q652.777 1311.92 652.396 1313.05 Q652.034 1314.15 651.533 1315.01 Q651.051 1315.88 649.726 1317.26 Q648.402 1318.65 647.338 1319.63 Q646.274 1320.61 643.885 1322.7 L639.53 1326.93 L646.936 1326.93 Q650.549 1326.93 650.83 1326.61 Q651.232 1326.03 651.733 1322.96 L652.777 1322.96 L651.613 1330.11 L636.359 1330.11 Z" fill="#000000" fill-rule="nonzero" fill-opacity="1" /><path clip-path="url(#clip960)" d="M768.094 1328.64 L768.094 1327.06 Q774.171 1327.06 777.308 1323.82 Q778.172 1323.82 778.321 1324.02 Q778.469 1324.22 778.469 1325.13 L778.469 1353.51 Q778.469 1355.02 779.21 1355.49 Q779.951 1355.96 783.187 1355.96 L784.793 1355.96 L784.793 1357.52 Q783.014 1357.37 776.591 1357.37 Q770.169 1357.37 768.415 1357.52 L768.415 1355.96 L770.02 1355.96 Q773.207 1355.96 773.973 1355.52 Q774.739 1355.05 774.739 1353.51 L774.739 1327.3 Q772.095 1328.64 768.094 1328.64 Z" fill="#000000" fill-rule="nonzero" fill-opacity="1" /><path clip-path="url(#clip960)" d="M790.87 1341.34 Q790.87 1333.9 792.747 1329.85 Q795.366 1323.82 801.542 1323.82 Q802.851 1323.82 804.21 1324.19 Q805.593 1324.54 807.322 1325.9 Q809.076 1327.25 810.139 1329.48 Q812.164 1333.78 812.164 1341.34 Q812.164 1348.72 810.287 1352.75 Q807.545 1358.63 801.492 1358.63 Q799.22 1358.63 796.898 1357.47 Q794.6 1356.31 793.143 1353.51 Q790.87 1349.34 790.87 1341.34 M795.07 1340.72 Q795.07 1348.35 795.613 1351.39 Q796.231 1354.68 797.91 1356.11 Q799.615 1357.52 801.492 1357.52 Q803.518 1357.52 805.198 1356.01 Q806.902 1354.48 807.421 1351.19 Q807.989 1347.96 807.965 1340.72 Q807.965 1333.68 807.471 1330.86 Q806.804 1327.58 805.025 1326.27 Q803.271 1324.93 801.492 1324.93 Q800.825 1324.93 800.109 1325.13 Q799.417 1325.33 798.405 1325.9 Q797.392 1326.46 796.601 1327.87 Q795.835 1329.28 795.465 1331.41 Q795.07 1334.15 795.07 1340.72 Z" fill="#000000" fill-rule="nonzero" fill-opacity="1" /><path clip-path="url(#clip960)" d="M839.301 1319.25 Q839.542 1319.49 839.542 1319.83 Q839.542 1320.17 839.301 1320.41 Q839.06 1320.65 838.719 1320.65 L812.987 1320.65 Q812.646 1320.65 812.405 1320.41 Q812.164 1320.17 812.164 1319.83 Q812.164 1319.49 812.405 1319.25 Q812.646 1319.01 812.987 1319.01 L838.719 1319.01 Q839.06 1319.01 839.301 1319.25 Z" fill="#000000" fill-rule="nonzero" fill-opacity="1" /><path clip-path="url(#clip960)" d="M845.483 1306.64 L845.483 1305.36 Q850.421 1305.36 852.97 1302.73 Q853.672 1302.73 853.793 1302.89 Q853.913 1303.05 853.913 1303.79 L853.913 1326.85 Q853.913 1328.08 854.515 1328.46 Q855.117 1328.84 857.747 1328.84 L859.051 1328.84 L859.051 1330.11 Q857.606 1329.99 852.388 1329.99 Q847.169 1329.99 845.744 1330.11 L845.744 1328.84 L847.049 1328.84 Q849.638 1328.84 850.26 1328.48 Q850.882 1328.1 850.882 1326.85 L850.882 1305.56 Q848.735 1306.64 845.483 1306.64 Z" fill="#000000" fill-rule="nonzero" fill-opacity="1" /><path clip-path="url(#clip960)" d="M866.036 1306.64 L866.036 1305.36 Q870.974 1305.36 873.523 1302.73 Q874.225 1302.73 874.346 1302.89 Q874.466 1303.05 874.466 1303.79 L874.466 1326.85 Q874.466 1328.08 875.068 1328.46 Q875.67 1328.84 878.3 1328.84 L879.604 1328.84 L879.604 1330.11 Q878.159 1329.99 872.941 1329.99 Q867.722 1329.99 866.297 1330.11 L866.297 1328.84 L867.602 1328.84 Q870.191 1328.84 870.813 1328.48 Q871.435 1328.1 871.435 1326.85 L871.435 1305.56 Q869.288 1306.64 866.036 1306.64 Z" fill="#000000" fill-rule="nonzero" fill-opacity="1" /><path clip-path="url(#clip960)" d="M994.7 1328.64 L994.7 1327.06 Q1000.78 1327.06 1003.91 1323.82 Q1004.78 1323.82 1004.93 1324.02 Q1005.08 1324.22 1005.08 1325.13 L1005.08 1353.51 Q1005.08 1355.02 1005.82 1355.49 Q1006.56 1355.96 1009.79 1355.96 L1011.4 1355.96 L1011.4 1357.52 Q1009.62 1357.37 1003.2 1357.37 Q996.775 1357.37 995.021 1357.52 L995.021 1355.96 L996.627 1355.96 Q999.814 1355.96 1000.58 1355.52 Q1001.35 1355.05 1001.35 1353.51 L1001.35 1327.3 Q998.702 1328.64 994.7 1328.64 Z" fill="#000000" fill-rule="nonzero" fill-opacity="1" /><path clip-path="url(#clip960)" d="M1017.48 1341.34 Q1017.48 1333.9 1019.35 1329.85 Q1021.97 1323.82 1028.15 1323.82 Q1029.46 1323.82 1030.82 1324.19 Q1032.2 1324.54 1033.93 1325.9 Q1035.68 1327.25 1036.75 1329.48 Q1038.77 1333.78 1038.77 1341.34 Q1038.77 1348.72 1036.89 1352.75 Q1034.15 1358.63 1028.1 1358.63 Q1025.83 1358.63 1023.5 1357.47 Q1021.21 1356.31 1019.75 1353.51 Q1017.48 1349.34 1017.48 1341.34 M1021.68 1340.72 Q1021.68 1348.35 1022.22 1351.39 Q1022.84 1354.68 1024.52 1356.11 Q1026.22 1357.52 1028.1 1357.52 Q1030.12 1357.52 1031.8 1356.01 Q1033.51 1354.48 1034.03 1351.19 Q1034.6 1347.96 1034.57 1340.72 Q1034.57 1333.68 1034.08 1330.86 Q1033.41 1327.58 1031.63 1326.27 Q1029.88 1324.93 1028.1 1324.93 Q1027.43 1324.93 1026.72 1325.13 Q1026.02 1325.33 1025.01 1325.9 Q1024 1326.46 1023.21 1327.87 Q1022.44 1329.28 1022.07 1331.41 Q1021.68 1334.15 1021.68 1340.72 Z" fill="#000000" fill-rule="nonzero" fill-opacity="1" /><path clip-path="url(#clip960)" d="M1065.91 1319.25 Q1066.15 1319.49 1066.15 1319.83 Q1066.15 1320.17 1065.91 1320.41 Q1065.67 1320.65 1065.33 1320.65 L1039.59 1320.65 Q1039.25 1320.65 1039.01 1320.41 Q1038.77 1320.17 1038.77 1319.83 Q1038.77 1319.49 1039.01 1319.25 Q1039.25 1319.01 1039.59 1319.01 L1065.33 1319.01 Q1065.67 1319.01 1065.91 1319.25 Z" fill="#000000" fill-rule="nonzero" fill-opacity="1" /><path clip-path="url(#clip960)" d="M1072.09 1306.64 L1072.09 1305.36 Q1077.03 1305.36 1079.58 1302.73 Q1080.28 1302.73 1080.4 1302.89 Q1080.52 1303.05 1080.52 1303.79 L1080.52 1326.85 Q1080.52 1328.08 1081.12 1328.46 Q1081.72 1328.84 1084.35 1328.84 L1085.66 1328.84 L1085.66 1330.11 Q1084.21 1329.99 1078.99 1329.99 Q1073.78 1329.99 1072.35 1330.11 L1072.35 1328.84 L1073.66 1328.84 Q1076.24 1328.84 1076.87 1328.48 Q1077.49 1328.1 1077.49 1326.85 L1077.49 1305.56 Q1075.34 1306.64 1072.09 1306.64 Z" fill="#000000" fill-rule="nonzero" fill-opacity="1" /><path clip-path="url(#clip960)" d="M1090.6 1316.96 Q1090.6 1310.92 1092.12 1307.63 Q1094.25 1302.73 1099.27 1302.73 Q1100.33 1302.73 1101.43 1303.03 Q1102.56 1303.31 1103.96 1304.41 Q1105.39 1305.52 1106.25 1307.32 Q1107.9 1310.82 1107.9 1316.96 Q1107.9 1322.96 1106.37 1326.23 Q1104.14 1331.01 1099.23 1331.01 Q1097.38 1331.01 1095.49 1330.07 Q1093.63 1329.12 1092.44 1326.85 Q1090.6 1323.46 1090.6 1316.96 M1094.01 1316.46 Q1094.01 1322.66 1094.45 1325.13 Q1094.95 1327.8 1096.32 1328.96 Q1097.7 1330.11 1099.23 1330.11 Q1100.87 1330.11 1102.24 1328.88 Q1103.62 1327.64 1104.04 1324.97 Q1104.5 1322.34 1104.48 1316.46 Q1104.48 1310.74 1104.08 1308.45 Q1103.54 1305.78 1102.1 1304.72 Q1100.67 1303.63 1099.23 1303.63 Q1098.68 1303.63 1098.1 1303.79 Q1097.54 1303.95 1096.72 1304.41 Q1095.89 1304.88 1095.25 1306.02 Q1094.63 1307.16 1094.33 1308.89 Q1094.01 1311.12 1094.01 1316.46 Z" fill="#000000" fill-rule="nonzero" fill-opacity="1" /><path clip-path="url(#clip960)" d="M1232.49 1328.64 L1232.49 1327.06 Q1238.56 1327.06 1241.7 1323.82 Q1242.57 1323.82 1242.71 1324.02 Q1242.86 1324.22 1242.86 1325.13 L1242.86 1353.51 Q1242.86 1355.02 1243.6 1355.49 Q1244.34 1355.96 1247.58 1355.96 L1249.19 1355.96 L1249.19 1357.52 Q1247.41 1357.37 1240.98 1357.37 Q1234.56 1357.37 1232.81 1357.52 L1232.81 1355.96 L1234.41 1355.96 Q1237.6 1355.96 1238.37 1355.52 Q1239.13 1355.05 1239.13 1353.51 L1239.13 1327.3 Q1236.49 1328.64 1232.49 1328.64 Z" fill="#000000" fill-rule="nonzero" fill-opacity="1" /><path clip-path="url(#clip960)" d="M1255.26 1341.34 Q1255.26 1333.9 1257.14 1329.85 Q1259.76 1323.82 1265.93 1323.82 Q1267.24 1323.82 1268.6 1324.19 Q1269.99 1324.54 1271.72 1325.9 Q1273.47 1327.25 1274.53 1329.48 Q1276.56 1333.78 1276.56 1341.34 Q1276.56 1348.72 1274.68 1352.75 Q1271.94 1358.63 1265.89 1358.63 Q1263.61 1358.63 1261.29 1357.47 Q1258.99 1356.31 1257.54 1353.51 Q1255.26 1349.34 1255.26 1341.34 M1259.46 1340.72 Q1259.46 1348.35 1260.01 1351.39 Q1260.62 1354.68 1262.3 1356.11 Q1264.01 1357.52 1265.89 1357.52 Q1267.91 1357.52 1269.59 1356.01 Q1271.3 1354.48 1271.81 1351.19 Q1272.38 1347.96 1272.36 1340.72 Q1272.36 1333.68 1271.86 1330.86 Q1271.2 1327.58 1269.42 1326.27 Q1267.66 1324.93 1265.89 1324.93 Q1265.22 1324.93 1264.5 1325.13 Q1263.81 1325.33 1262.8 1325.9 Q1261.78 1326.46 1260.99 1327.87 Q1260.23 1329.28 1259.86 1331.41 Q1259.46 1334.15 1259.46 1340.72 Z" fill="#000000" fill-rule="nonzero" fill-opacity="1" /><path clip-path="url(#clip960)" d="M1303.69 1319.25 Q1303.93 1319.49 1303.93 1319.83 Q1303.93 1320.17 1303.69 1320.41 Q1303.45 1320.65 1303.11 1320.65 L1277.38 1320.65 Q1277.04 1320.65 1276.8 1320.41 Q1276.56 1320.17 1276.56 1319.83 Q1276.56 1319.49 1276.8 1319.25 Q1277.04 1319.01 1277.38 1319.01 L1303.11 1319.01 Q1303.45 1319.01 1303.69 1319.25 Z" fill="#000000" fill-rule="nonzero" fill-opacity="1" /><path clip-path="url(#clip960)" d="M1307.95 1311.98 Q1307.95 1309.79 1308.59 1308.31 Q1309.23 1306.8 1310.58 1305.32 Q1313.05 1302.73 1316.62 1302.73 Q1318.15 1302.73 1319.49 1303.37 Q1320.86 1304.01 1322.14 1305.48 Q1323.44 1306.92 1324.23 1309.79 Q1325.01 1312.64 1325.01 1316.58 Q1325.01 1322.94 1321.92 1326.97 Q1318.85 1331.01 1314.69 1331.01 Q1312.06 1331.01 1310.52 1329.83 Q1308.97 1328.62 1308.97 1326.57 Q1308.97 1325.51 1309.57 1325.07 Q1310.18 1324.61 1310.86 1324.61 Q1311.6 1324.61 1312.18 1325.11 Q1312.77 1325.59 1312.77 1326.49 Q1312.77 1327.24 1312.28 1327.82 Q1311.82 1328.38 1310.62 1328.38 Q1311.8 1329.87 1314.65 1329.87 Q1315.68 1329.87 1316.7 1329.4 Q1317.72 1328.92 1318.83 1327.78 Q1319.95 1326.61 1320.63 1324.19 Q1321.32 1321.76 1321.32 1318.34 L1321.32 1317.04 Q1319.67 1321.15 1316.18 1321.15 Q1312.73 1321.15 1310.34 1318.5 Q1307.95 1315.86 1307.95 1311.98 M1311.64 1312.02 Q1311.64 1316.1 1312.38 1317.6 Q1313.65 1320.19 1316.22 1320.19 Q1318.73 1320.19 1319.97 1317.96 Q1321.24 1315.71 1321.24 1312.8 Q1321.24 1308.77 1320.57 1307 Q1319.35 1303.75 1316.62 1303.75 Q1313.91 1303.75 1312.51 1306.34 Q1311.64 1307.87 1311.64 1312.02 Z" fill="#000000" fill-rule="nonzero" fill-opacity="1" /><path clip-path="url(#clip960)" d="M1459.94 1328.64 L1459.94 1327.06 Q1466.01 1327.06 1469.15 1323.82 Q1470.02 1323.82 1470.16 1324.02 Q1470.31 1324.22 1470.31 1325.13 L1470.31 1353.51 Q1470.31 1355.02 1471.05 1355.49 Q1471.79 1355.96 1475.03 1355.96 L1476.64 1355.96 L1476.64 1357.52 Q1474.86 1357.37 1468.43 1357.37 Q1462.01 1357.37 1460.26 1357.52 L1460.26 1355.96 L1461.86 1355.96 Q1465.05 1355.96 1465.82 1355.52 Q1466.58 1355.05 1466.58 1353.51 L1466.58 1327.3 Q1463.94 1328.64 1459.94 1328.64 Z" fill="#000000" fill-rule="nonzero" fill-opacity="1" /><path clip-path="url(#clip960)" d="M1482.71 1341.34 Q1482.71 1333.9 1484.59 1329.85 Q1487.21 1323.82 1493.38 1323.82 Q1494.69 1323.82 1496.05 1324.19 Q1497.44 1324.54 1499.17 1325.9 Q1500.92 1327.25 1501.98 1329.48 Q1504.01 1333.78 1504.01 1341.34 Q1504.01 1348.72 1502.13 1352.75 Q1499.39 1358.63 1493.34 1358.63 Q1491.06 1358.63 1488.74 1357.47 Q1486.44 1356.31 1484.99 1353.51 Q1482.71 1349.34 1482.71 1341.34 M1486.91 1340.72 Q1486.91 1348.35 1487.46 1351.39 Q1488.07 1354.68 1489.75 1356.11 Q1491.46 1357.52 1493.34 1357.52 Q1495.36 1357.52 1497.04 1356.01 Q1498.75 1354.48 1499.26 1351.19 Q1499.83 1347.96 1499.81 1340.72 Q1499.81 1333.68 1499.31 1330.86 Q1498.65 1327.58 1496.87 1326.27 Q1495.11 1324.93 1493.34 1324.93 Q1492.67 1324.93 1491.95 1325.13 Q1491.26 1325.33 1490.25 1325.9 Q1489.23 1326.46 1488.44 1327.87 Q1487.68 1329.28 1487.31 1331.41 Q1486.91 1334.15 1486.91 1340.72 Z" fill="#000000" fill-rule="nonzero" fill-opacity="1" /><path clip-path="url(#clip960)" d="M1531.14 1319.25 Q1531.38 1319.49 1531.38 1319.83 Q1531.38 1320.17 1531.14 1320.41 Q1530.9 1320.65 1530.56 1320.65 L1504.83 1320.65 Q1504.49 1320.65 1504.25 1320.41 Q1504.01 1320.17 1504.01 1319.83 Q1504.01 1319.49 1504.25 1319.25 Q1504.49 1319.01 1504.83 1319.01 L1530.56 1319.01 Q1530.9 1319.01 1531.14 1319.25 Z" fill="#000000" fill-rule="nonzero" fill-opacity="1" /><path clip-path="url(#clip960)" d="M1535.4 1323.9 Q1535.4 1319.31 1541.32 1316.34 Q1538.77 1314.61 1538.31 1314.11 Q1536.5 1312.1 1536.5 1309.59 Q1536.5 1306.72 1538.67 1304.74 Q1540.86 1302.73 1543.95 1302.73 Q1546.9 1302.73 1549.13 1304.43 Q1551.36 1306.14 1551.36 1308.85 Q1551.36 1312.66 1546.38 1315.23 Q1549.67 1317.28 1550.45 1318.14 Q1552.46 1320.37 1552.46 1323.2 Q1552.46 1326.49 1549.93 1328.76 Q1547.4 1331.01 1543.91 1331.01 Q1540.5 1331.01 1537.95 1329.02 Q1535.4 1327.04 1535.4 1323.9 M1537.45 1323.9 Q1537.45 1326.45 1539.35 1328.16 Q1541.28 1329.87 1543.95 1329.87 Q1546.54 1329.87 1548.47 1328.38 Q1550.41 1326.89 1550.41 1324.69 Q1550.41 1323.82 1550.11 1323.08 Q1549.83 1322.34 1549.25 1321.76 Q1548.69 1321.15 1548.32 1320.89 Q1547.98 1320.61 1547.32 1320.15 L1542.26 1316.96 Q1537.45 1319.63 1537.45 1323.9 M1538.31 1307.99 Q1538.31 1309.95 1540.38 1311.32 L1545.47 1314.61 Q1549.55 1312.22 1549.55 1308.85 Q1549.55 1306.66 1547.88 1305.22 Q1546.22 1303.75 1543.91 1303.75 Q1541.64 1303.75 1539.97 1304.96 Q1538.31 1306.14 1538.31 1307.99 Z" fill="#000000" fill-rule="nonzero" fill-opacity="1" /><path clip-path="url(#clip960)" d="M1686.81 1328.64 L1686.81 1327.06 Q1692.89 1327.06 1696.03 1323.82 Q1696.89 1323.82 1697.04 1324.02 Q1697.19 1324.22 1697.19 1325.13 L1697.19 1353.51 Q1697.19 1355.02 1697.93 1355.49 Q1698.67 1355.96 1701.91 1355.96 L1703.51 1355.96 L1703.51 1357.52 Q1701.73 1357.37 1695.31 1357.37 Q1688.89 1357.37 1687.13 1357.52 L1687.13 1355.96 L1688.74 1355.96 Q1691.93 1355.96 1692.69 1355.52 Q1693.46 1355.05 1693.46 1353.51 L1693.46 1327.3 Q1690.82 1328.64 1686.81 1328.64 Z" fill="#000000" fill-rule="nonzero" fill-opacity="1" /><path clip-path="url(#clip960)" d="M1709.59 1341.34 Q1709.59 1333.9 1711.47 1329.85 Q1714.09 1323.82 1720.26 1323.82 Q1721.57 1323.82 1722.93 1324.19 Q1724.31 1324.54 1726.04 1325.9 Q1727.8 1327.25 1728.86 1329.48 Q1730.88 1333.78 1730.88 1341.34 Q1730.88 1348.72 1729.01 1352.75 Q1726.26 1358.63 1720.21 1358.63 Q1717.94 1358.63 1715.62 1357.47 Q1713.32 1356.31 1711.86 1353.51 Q1709.59 1349.34 1709.59 1341.34 M1713.79 1340.72 Q1713.79 1348.35 1714.33 1351.39 Q1714.95 1354.68 1716.63 1356.11 Q1718.34 1357.52 1720.21 1357.52 Q1722.24 1357.52 1723.92 1356.01 Q1725.62 1354.48 1726.14 1351.19 Q1726.71 1347.96 1726.68 1340.72 Q1726.68 1333.68 1726.19 1330.86 Q1725.52 1327.58 1723.75 1326.27 Q1721.99 1324.93 1720.21 1324.93 Q1719.55 1324.93 1718.83 1325.13 Q1718.14 1325.33 1717.12 1325.9 Q1716.11 1326.46 1715.32 1327.87 Q1714.56 1329.28 1714.18 1331.41 Q1713.79 1334.15 1713.79 1340.72 Z" fill="#000000" fill-rule="nonzero" fill-opacity="1" /><path clip-path="url(#clip960)" d="M1758.02 1319.25 Q1758.26 1319.49 1758.26 1319.83 Q1758.26 1320.17 1758.02 1320.41 Q1757.78 1320.65 1757.44 1320.65 L1731.71 1320.65 Q1731.37 1320.65 1731.13 1320.41 Q1730.88 1320.17 1730.88 1319.83 Q1730.88 1319.49 1731.13 1319.25 Q1731.37 1319.01 1731.71 1319.01 L1757.44 1319.01 Q1757.78 1319.01 1758.02 1319.25 Z" fill="#000000" fill-rule="nonzero" fill-opacity="1" /><path clip-path="url(#clip960)" d="M1762.86 1310.78 L1764.2 1302.33 L1765.23 1302.33 Q1765.35 1302.83 1765.55 1303.05 Q1765.77 1303.27 1766.93 1303.45 Q1768.12 1303.63 1770.51 1303.63 L1780.48 1303.63 Q1780.48 1304.58 1780.12 1305.08 L1774.56 1312.88 Q1772.79 1315.35 1772.01 1319.91 Q1771.55 1322.96 1771.57 1326.65 L1771.57 1328.74 Q1771.57 1331.01 1769.66 1331.01 Q1767.78 1331.01 1767.78 1328.74 Q1767.78 1320.89 1772.83 1313.29 Q1773.38 1312.5 1775.36 1309.71 Q1777.37 1306.92 1777.45 1306.8 L1768.94 1306.8 Q1765.21 1306.8 1764.91 1307.04 Q1764.5 1307.41 1763.88 1310.78 L1762.86 1310.78 Z" fill="#000000" fill-rule="nonzero" fill-opacity="1" /><path clip-path="url(#clip960)" d="M951.856 1447.26 L951.856 1444.92 L953.672 1444.92 Q957.785 1444.92 958.712 1444.26 Q959.675 1443.55 959.675 1441.33 L959.675 1401.57 Q959.675 1399.38 958.712 1398.72 Q957.748 1398.01 953.672 1398.01 L951.856 1398.01 L951.856 1395.64 L994.581 1395.64 L996.693 1412.72 L994.803 1412.72 Q994.284 1408.39 993.58 1405.9 Q992.913 1403.38 991.246 1401.46 Q989.616 1399.53 986.91 1398.79 Q984.243 1398.01 979.907 1398.01 L970.125 1398.01 Q967.531 1398.01 966.975 1398.57 Q966.419 1399.09 966.419 1401.05 L966.419 1419.24 L973.237 1419.24 Q978.462 1419.24 979.944 1417.43 Q981.426 1415.61 981.426 1410.39 L983.353 1410.39 L983.353 1430.47 L981.426 1430.47 Q981.426 1425.32 979.944 1423.47 Q978.462 1421.62 973.237 1421.62 L966.419 1421.62 L966.419 1441.88 Q966.419 1443.85 966.975 1444.4 Q967.568 1444.92 970.125 1444.92 L980.241 1444.92 Q983.501 1444.92 985.873 1444.52 Q988.282 1444.07 989.949 1443.03 Q991.616 1441.96 992.728 1440.74 Q993.877 1439.51 994.655 1437.33 Q995.47 1435.1 995.915 1433.07 Q996.397 1431.03 996.915 1427.69 L998.805 1427.69 L995.618 1447.26 L951.856 1447.26 Z" fill="#000000" fill-rule="nonzero" fill-opacity="1" /><path clip-path="url(#clip960)" d="M1003.03 1447.26 L1003.03 1444.92 Q1007.07 1444.92 1007.99 1444.44 Q1008.96 1443.92 1008.96 1441.48 L1008.96 1421.13 Q1008.96 1418.32 1007.96 1417.61 Q1006.99 1416.91 1003.03 1416.91 L1003.03 1414.54 L1013.59 1413.72 L1013.59 1422.06 Q1014.66 1418.8 1016.93 1416.28 Q1019.22 1413.72 1022.93 1413.72 Q1025.37 1413.72 1026.93 1415.09 Q1028.52 1416.46 1028.52 1418.35 Q1028.52 1420.02 1027.49 1420.87 Q1026.49 1421.69 1025.26 1421.69 Q1023.89 1421.69 1022.93 1420.84 Q1022 1419.95 1022 1418.43 Q1022 1417.5 1022.41 1416.8 Q1022.85 1416.06 1023.19 1415.8 Q1023.52 1415.54 1023.74 1415.46 Q1023.59 1415.39 1022.93 1415.39 Q1018.74 1415.39 1016.33 1419.58 Q1013.96 1423.73 1013.96 1429.66 L1013.96 1441.33 Q1013.96 1443.51 1014.85 1444.22 Q1015.78 1444.92 1019.74 1444.92 L1021.33 1444.92 L1021.33 1447.26 Q1018.3 1447.03 1011.7 1447.03 Q1010.77 1447.03 1009.33 1447.07 Q1007.88 1447.11 1005.99 1447.18 Q1004.1 1447.26 1003.03 1447.26 Z" fill="#000000" fill-rule="nonzero" fill-opacity="1" /><path clip-path="url(#clip960)" d="M1032.67 1447.26 L1032.67 1444.92 Q1036.71 1444.92 1037.64 1444.44 Q1038.6 1443.92 1038.6 1441.48 L1038.6 1421.13 Q1038.6 1418.32 1037.6 1417.61 Q1036.64 1416.91 1032.67 1416.91 L1032.67 1414.54 L1043.23 1413.72 L1043.23 1422.06 Q1044.31 1418.8 1046.57 1416.28 Q1048.87 1413.72 1052.57 1413.72 Q1055.02 1413.72 1056.57 1415.09 Q1058.17 1416.46 1058.17 1418.35 Q1058.17 1420.02 1057.13 1420.87 Q1056.13 1421.69 1054.91 1421.69 Q1053.54 1421.69 1052.57 1420.84 Q1051.65 1419.95 1051.65 1418.43 Q1051.65 1417.5 1052.05 1416.8 Q1052.5 1416.06 1052.83 1415.8 Q1053.16 1415.54 1053.39 1415.46 Q1053.24 1415.39 1052.57 1415.39 Q1048.38 1415.39 1045.98 1419.58 Q1043.6 1423.73 1043.6 1429.66 L1043.6 1441.33 Q1043.6 1443.51 1044.49 1444.22 Q1045.42 1444.92 1049.39 1444.92 L1050.98 1444.92 L1050.98 1447.26 Q1047.94 1447.03 1041.34 1447.03 Q1040.42 1447.03 1038.97 1447.07 Q1037.53 1447.11 1035.64 1447.18 Q1033.75 1447.26 1032.67 1447.26 Z" fill="#000000" fill-rule="nonzero" fill-opacity="1" /><path clip-path="url(#clip960)" d="M1067.32 1443.18 Q1062.32 1438.22 1062.32 1431.03 Q1062.32 1423.8 1067.21 1418.54 Q1072.14 1413.24 1079.18 1413.24 Q1086.07 1413.24 1091 1418.5 Q1095.96 1423.73 1095.96 1431.03 Q1095.96 1438.18 1090.96 1443.14 Q1086 1448.11 1079.1 1448.11 Q1072.36 1448.11 1067.32 1443.18 M1068.62 1430.4 Q1068.62 1437.77 1070.54 1441.11 Q1073.51 1446.18 1079.18 1446.18 Q1081.99 1446.18 1084.33 1444.66 Q1086.7 1443.14 1088 1440.59 Q1089.66 1437.25 1089.66 1430.4 Q1089.66 1423.1 1087.66 1419.87 Q1084.7 1414.95 1079.1 1414.95 Q1076.66 1414.95 1074.25 1416.24 Q1071.88 1417.5 1070.43 1420.02 Q1068.62 1423.36 1068.62 1430.4 Z" fill="#000000" fill-rule="nonzero" fill-opacity="1" /><path clip-path="url(#clip960)" d="M1100.26 1447.26 L1100.26 1444.92 Q1104.3 1444.92 1105.23 1444.44 Q1106.19 1443.92 1106.19 1441.48 L1106.19 1421.13 Q1106.19 1418.32 1105.19 1417.61 Q1104.23 1416.91 1100.26 1416.91 L1100.26 1414.54 L1110.82 1413.72 L1110.82 1422.06 Q1111.9 1418.8 1114.16 1416.28 Q1116.45 1413.72 1120.16 1413.72 Q1122.61 1413.72 1124.16 1415.09 Q1125.76 1416.46 1125.76 1418.35 Q1125.76 1420.02 1124.72 1420.87 Q1123.72 1421.69 1122.49 1421.69 Q1121.12 1421.69 1120.16 1420.84 Q1119.23 1419.95 1119.23 1418.43 Q1119.23 1417.5 1119.64 1416.8 Q1120.09 1416.06 1120.42 1415.8 Q1120.75 1415.54 1120.98 1415.46 Q1120.83 1415.39 1120.16 1415.39 Q1115.97 1415.39 1113.56 1419.58 Q1111.19 1423.73 1111.19 1429.66 L1111.19 1441.33 Q1111.19 1443.51 1112.08 1444.22 Q1113.01 1444.92 1116.97 1444.92 L1118.57 1444.92 L1118.57 1447.26 Q1115.53 1447.03 1108.93 1447.03 Q1108.01 1447.03 1106.56 1447.07 Q1105.12 1447.11 1103.23 1447.18 Q1101.34 1447.26 1100.26 1447.26 Z" fill="#000000" fill-rule="nonzero" fill-opacity="1" /><polyline clip-path="url(#clip962)" style="stroke:#000000; stroke-linecap:round; stroke-linejoin:round; stroke-width:2.8; stroke-opacity:0.4; fill:none" points="245.822,1180.46 1831.79,1180.46 "/>
<polyline clip-path="url(#clip962)" style="stroke:#000000; stroke-linecap:round; stroke-linejoin:round; stroke-width:2.8; stroke-opacity:0.4; fill:none" points="245.822,755.534 1831.79,755.534 "/>
<polyline clip-path="url(#clip962)" style="stroke:#000000; stroke-linecap:round; stroke-linejoin:round; stroke-width:2.8; stroke-opacity:0.4; fill:none" points="245.822,330.607 1831.79,330.607 "/>
<polyline clip-path="url(#clip962)" style="stroke:#000000; stroke-linecap:round; stroke-linejoin:round; stroke-width:2; stroke-opacity:0.06; fill:none" points="245.822,1262.82 1831.79,1262.82 "/>
<polyline clip-path="url(#clip962)" style="stroke:#000000; stroke-linecap:round; stroke-linejoin:round; stroke-width:2; stroke-opacity:0.06; fill:none" points="245.822,1217.08 1831.79,1217.08 "/>
<polyline clip-path="url(#clip962)" style="stroke:#000000; stroke-linecap:round; stroke-linejoin:round; stroke-width:2; stroke-opacity:0.06; fill:none" points="245.822,990.451 1831.79,990.451 "/>
<polyline clip-path="url(#clip962)" style="stroke:#000000; stroke-linecap:round; stroke-linejoin:round; stroke-width:2; stroke-opacity:0.06; fill:none" points="245.822,898.837 1831.79,898.837 "/>
<polyline clip-path="url(#clip962)" style="stroke:#000000; stroke-linecap:round; stroke-linejoin:round; stroke-width:2; stroke-opacity:0.06; fill:none" points="245.822,837.893 1831.79,837.893 "/>
<polyline clip-path="url(#clip962)" style="stroke:#000000; stroke-linecap:round; stroke-linejoin:round; stroke-width:2; stroke-opacity:0.06; fill:none" points="245.822,792.157 1831.79,792.157 "/>
<polyline clip-path="url(#clip962)" style="stroke:#000000; stroke-linecap:round; stroke-linejoin:round; stroke-width:2; stroke-opacity:0.06; fill:none" points="245.822,565.525 1831.79,565.525 "/>
<polyline clip-path="url(#clip962)" style="stroke:#000000; stroke-linecap:round; stroke-linejoin:round; stroke-width:2; stroke-opacity:0.06; fill:none" points="245.822,473.91 1831.79,473.91 "/>
<polyline clip-path="url(#clip962)" style="stroke:#000000; stroke-linecap:round; stroke-linejoin:round; stroke-width:2; stroke-opacity:0.06; fill:none" points="245.822,412.967 1831.79,412.967 "/>
<polyline clip-path="url(#clip962)" style="stroke:#000000; stroke-linecap:round; stroke-linejoin:round; stroke-width:2; stroke-opacity:0.06; fill:none" points="245.822,367.23 1831.79,367.23 "/>
<polyline clip-path="url(#clip962)" style="stroke:#000000; stroke-linecap:round; stroke-linejoin:round; stroke-width:2; stroke-opacity:0.06; fill:none" points="245.822,140.598 1831.79,140.598 "/>
<polyline clip-path="url(#clip962)" style="stroke:#000000; stroke-linecap:round; stroke-linejoin:round; stroke-width:2; stroke-opacity:0.06; fill:none" points="245.822,48.984 1831.79,48.984 "/>
<polyline clip-path="url(#clip960)" style="stroke:#000000; stroke-linecap:round; stroke-linejoin:round; stroke-width:4; stroke-opacity:1; fill:none" points="245.822,1280.22 245.822,47.2441 "/>
<polyline clip-path="url(#clip960)" style="stroke:#000000; stroke-linecap:round; stroke-linejoin:round; stroke-width:4; stroke-opacity:1; fill:none" points="1831.79,1280.22 1831.79,47.2441 "/>
<polyline clip-path="url(#clip960)" style="stroke:#000000; stroke-linecap:round; stroke-linejoin:round; stroke-width:4; stroke-opacity:1; fill:none" points="245.822,1180.46 260.726,1180.46 "/>
<polyline clip-path="url(#clip960)" style="stroke:#000000; stroke-linecap:round; stroke-linejoin:round; stroke-width:4; stroke-opacity:1; fill:none" points="245.822,755.534 260.726,755.534 "/>
<polyline clip-path="url(#clip960)" style="stroke:#000000; stroke-linecap:round; stroke-linejoin:round; stroke-width:4; stroke-opacity:1; fill:none" points="245.822,330.607 260.726,330.607 "/>
<polyline clip-path="url(#clip960)" style="stroke:#000000; stroke-linecap:round; stroke-linejoin:round; stroke-width:4; stroke-opacity:1; fill:none" points="245.822,1262.82 253.274,1262.82 "/>
<polyline clip-path="url(#clip960)" style="stroke:#000000; stroke-linecap:round; stroke-linejoin:round; stroke-width:4; stroke-opacity:1; fill:none" points="245.822,1217.08 253.274,1217.08 "/>
<polyline clip-path="url(#clip960)" style="stroke:#000000; stroke-linecap:round; stroke-linejoin:round; stroke-width:4; stroke-opacity:1; fill:none" points="245.822,990.451 253.274,990.451 "/>
<polyline clip-path="url(#clip960)" style="stroke:#000000; stroke-linecap:round; stroke-linejoin:round; stroke-width:4; stroke-opacity:1; fill:none" points="245.822,898.837 253.274,898.837 "/>
<polyline clip-path="url(#clip960)" style="stroke:#000000; stroke-linecap:round; stroke-linejoin:round; stroke-width:4; stroke-opacity:1; fill:none" points="245.822,837.893 253.274,837.893 "/>
<polyline clip-path="url(#clip960)" style="stroke:#000000; stroke-linecap:round; stroke-linejoin:round; stroke-width:4; stroke-opacity:1; fill:none" points="245.822,792.157 253.274,792.157 "/>
<polyline clip-path="url(#clip960)" style="stroke:#000000; stroke-linecap:round; stroke-linejoin:round; stroke-width:4; stroke-opacity:1; fill:none" points="245.822,565.525 253.274,565.525 "/>
<polyline clip-path="url(#clip960)" style="stroke:#000000; stroke-linecap:round; stroke-linejoin:round; stroke-width:4; stroke-opacity:1; fill:none" points="245.822,473.91 253.274,473.91 "/>
<polyline clip-path="url(#clip960)" style="stroke:#000000; stroke-linecap:round; stroke-linejoin:round; stroke-width:4; stroke-opacity:1; fill:none" points="245.822,412.967 253.274,412.967 "/>
<polyline clip-path="url(#clip960)" style="stroke:#000000; stroke-linecap:round; stroke-linejoin:round; stroke-width:4; stroke-opacity:1; fill:none" points="245.822,367.23 253.274,367.23 "/>
<polyline clip-path="url(#clip960)" style="stroke:#000000; stroke-linecap:round; stroke-linejoin:round; stroke-width:4; stroke-opacity:1; fill:none" points="245.822,140.598 253.274,140.598 "/>
<polyline clip-path="url(#clip960)" style="stroke:#000000; stroke-linecap:round; stroke-linejoin:round; stroke-width:4; stroke-opacity:1; fill:none" points="245.822,48.984 253.274,48.984 "/>
<path clip-path="url(#clip960)" d="M119.06 1175.31 L119.06 1173.73 Q125.137 1173.73 128.275 1170.49 Q129.139 1170.49 129.287 1170.69 Q129.436 1170.89 129.436 1171.8 L129.436 1200.19 Q129.436 1201.69 130.177 1202.16 Q130.918 1202.63 134.154 1202.63 L135.76 1202.63 L135.76 1204.19 Q133.981 1204.04 127.558 1204.04 Q121.135 1204.04 119.381 1204.19 L119.381 1202.63 L120.987 1202.63 Q124.174 1202.63 124.94 1202.19 Q125.705 1201.72 125.705 1200.19 L125.705 1173.98 Q123.062 1175.31 119.06 1175.31 Z" fill="#000000" fill-rule="nonzero" fill-opacity="1" /><path clip-path="url(#clip960)" d="M141.837 1188.01 Q141.837 1180.57 143.714 1176.52 Q146.333 1170.49 152.509 1170.49 Q153.818 1170.49 155.176 1170.86 Q156.56 1171.21 158.289 1172.57 Q160.043 1173.93 161.105 1176.15 Q163.131 1180.45 163.131 1188.01 Q163.131 1195.39 161.253 1199.42 Q158.511 1205.3 152.459 1205.3 Q150.186 1205.3 147.864 1204.14 Q145.567 1202.98 144.109 1200.19 Q141.837 1196.01 141.837 1188.01 M146.036 1187.39 Q146.036 1195.02 146.58 1198.06 Q147.197 1201.35 148.877 1202.78 Q150.582 1204.19 152.459 1204.19 Q154.485 1204.19 156.165 1202.68 Q157.869 1201.15 158.388 1197.86 Q158.956 1194.63 158.931 1187.39 Q158.931 1180.35 158.437 1177.53 Q157.77 1174.25 155.992 1172.94 Q154.238 1171.6 152.459 1171.6 Q151.792 1171.6 151.076 1171.8 Q150.384 1172 149.371 1172.57 Q148.358 1173.14 147.568 1174.54 Q146.802 1175.95 146.431 1178.08 Q146.036 1180.82 146.036 1187.39 Z" fill="#000000" fill-rule="nonzero" fill-opacity="1" /><path clip-path="url(#clip960)" d="M190.268 1165.92 Q190.508 1166.16 190.508 1166.5 Q190.508 1166.84 190.268 1167.08 Q190.027 1167.32 189.686 1167.32 L163.954 1167.32 Q163.613 1167.32 163.372 1167.08 Q163.131 1166.84 163.131 1166.5 Q163.131 1166.16 163.372 1165.92 Q163.613 1165.68 163.954 1165.68 L189.686 1165.68 Q190.027 1165.68 190.268 1165.92 Z" fill="#000000" fill-rule="nonzero" fill-opacity="1" /><path clip-path="url(#clip960)" d="M194.844 1176.78 Q194.844 1176.03 194.904 1175.81 Q194.984 1175.59 195.306 1175.25 L203.194 1166.46 Q207.509 1161.6 207.509 1157.37 Q207.509 1154.62 206.064 1152.65 Q204.639 1150.68 202.009 1150.68 Q200.203 1150.68 198.678 1151.79 Q197.152 1152.89 196.45 1154.86 Q196.57 1154.82 196.992 1154.82 Q198.015 1154.82 198.577 1155.46 Q199.159 1156.1 199.159 1156.97 Q199.159 1158.07 198.437 1158.61 Q197.734 1159.13 197.032 1159.13 Q196.751 1159.13 196.369 1159.07 Q196.008 1159.01 195.426 1158.45 Q194.844 1157.87 194.844 1156.85 Q194.844 1153.98 197.012 1151.69 Q199.199 1149.4 202.531 1149.4 Q206.305 1149.4 208.773 1151.65 Q211.262 1153.88 211.262 1157.37 Q211.262 1158.59 210.881 1159.72 Q210.52 1160.82 210.018 1161.68 Q209.536 1162.55 208.211 1163.93 Q206.887 1165.32 205.823 1166.3 Q204.759 1167.28 202.371 1169.37 L198.015 1173.61 L205.422 1173.61 Q209.034 1173.61 209.315 1173.29 Q209.717 1172.7 210.219 1169.63 L211.262 1169.63 L210.098 1176.78 L194.844 1176.78 Z" fill="#000000" fill-rule="nonzero" fill-opacity="1" /><path clip-path="url(#clip960)" d="M120.305 750.383 L120.305 748.802 Q126.382 748.802 129.519 745.566 Q130.384 745.566 130.532 745.764 Q130.68 745.961 130.68 746.875 L130.68 775.26 Q130.68 776.766 131.421 777.236 Q132.162 777.705 135.398 777.705 L137.004 777.705 L137.004 779.261 Q135.225 779.113 128.803 779.113 Q122.38 779.113 120.626 779.261 L120.626 777.705 L122.231 777.705 Q125.418 777.705 126.184 777.26 Q126.95 776.791 126.95 775.26 L126.95 749.049 Q124.307 750.383 120.305 750.383 Z" fill="#000000" fill-rule="nonzero" fill-opacity="1" /><path clip-path="url(#clip960)" d="M143.081 763.081 Q143.081 755.645 144.959 751.594 Q147.577 745.566 153.753 745.566 Q155.062 745.566 156.421 745.937 Q157.804 746.282 159.534 747.641 Q161.287 749 162.35 751.223 Q164.375 755.522 164.375 763.081 Q164.375 770.467 162.498 774.494 Q159.756 780.373 153.704 780.373 Q151.431 780.373 149.109 779.212 Q146.811 778.051 145.354 775.26 Q143.081 771.085 143.081 763.081 M147.281 762.463 Q147.281 770.097 147.824 773.135 Q148.442 776.421 150.122 777.853 Q151.826 779.261 153.704 779.261 Q155.729 779.261 157.409 777.755 Q159.114 776.223 159.632 772.937 Q160.201 769.701 160.176 762.463 Q160.176 755.423 159.682 752.607 Q159.015 749.321 157.236 748.012 Q155.482 746.678 153.704 746.678 Q153.037 746.678 152.32 746.875 Q151.628 747.073 150.616 747.641 Q149.603 748.209 148.812 749.617 Q148.046 751.026 147.676 753.15 Q147.281 755.892 147.281 762.463 Z" fill="#000000" fill-rule="nonzero" fill-opacity="1" /><path clip-path="url(#clip960)" d="M191.512 740.992 Q191.753 741.233 191.753 741.574 Q191.753 741.916 191.512 742.157 Q191.271 742.397 190.93 742.397 L165.198 742.397 Q164.857 742.397 164.616 742.157 Q164.375 741.916 164.375 741.574 Q164.375 741.233 164.616 740.992 Q164.857 740.752 165.198 740.752 L190.93 740.752 Q191.271 740.752 191.512 740.992 Z" fill="#000000" fill-rule="nonzero" fill-opacity="1" /><path clip-path="url(#clip960)" d="M197.694 728.387 L197.694 727.103 Q202.632 727.103 205.181 724.474 Q205.883 724.474 206.004 724.634 Q206.124 724.795 206.124 725.537 L206.124 748.599 Q206.124 749.824 206.726 750.205 Q207.328 750.587 209.958 750.587 L211.262 750.587 L211.262 751.851 Q209.817 751.731 204.599 751.731 Q199.38 751.731 197.955 751.851 L197.955 750.587 L199.26 750.587 Q201.849 750.587 202.471 750.225 Q203.093 749.844 203.093 748.599 L203.093 727.304 Q200.946 728.387 197.694 728.387 Z" fill="#000000" fill-rule="nonzero" fill-opacity="1" /><path clip-path="url(#clip960)" d="M149.89 325.457 L149.89 323.876 Q155.967 323.876 159.104 320.64 Q159.969 320.64 160.117 320.837 Q160.265 321.035 160.265 321.949 L160.265 350.333 Q160.265 351.84 161.006 352.309 Q161.748 352.779 164.984 352.779 L166.589 352.779 L166.589 354.335 Q164.811 354.187 158.388 354.187 Q151.965 354.187 150.211 354.335 L150.211 352.779 L151.817 352.779 Q155.004 352.779 155.769 352.334 Q156.535 351.865 156.535 350.333 L156.535 324.123 Q153.892 325.457 149.89 325.457 Z" fill="#000000" fill-rule="nonzero" fill-opacity="1" /><path clip-path="url(#clip960)" d="M172.666 338.154 Q172.666 330.719 174.544 326.667 Q177.162 320.64 183.338 320.64 Q184.648 320.64 186.006 321.01 Q187.39 321.356 189.119 322.715 Q190.873 324.073 191.935 326.297 Q193.961 330.595 193.961 338.154 Q193.961 345.541 192.083 349.567 Q189.341 355.447 183.289 355.447 Q181.016 355.447 178.694 354.286 Q176.397 353.124 174.939 350.333 Q172.666 346.158 172.666 338.154 M176.866 337.537 Q176.866 345.17 177.409 348.209 Q178.027 351.494 179.707 352.927 Q181.411 354.335 183.289 354.335 Q185.315 354.335 186.994 352.828 Q188.699 351.296 189.218 348.011 Q189.786 344.775 189.761 337.537 Q189.761 330.496 189.267 327.68 Q188.6 324.394 186.821 323.085 Q185.068 321.751 183.289 321.751 Q182.622 321.751 181.906 321.949 Q181.214 322.146 180.201 322.715 Q179.188 323.283 178.398 324.691 Q177.632 326.099 177.261 328.223 Q176.866 330.966 176.866 337.537 Z" fill="#000000" fill-rule="nonzero" fill-opacity="1" /><path clip-path="url(#clip960)" d="M193.961 313.778 Q193.961 307.736 195.486 304.444 Q197.614 299.547 202.632 299.547 Q203.695 299.547 204.799 299.848 Q205.923 300.129 207.328 301.233 Q208.753 302.337 209.616 304.143 Q211.262 307.636 211.262 313.778 Q211.262 319.779 209.737 323.051 Q207.509 327.828 202.591 327.828 Q200.745 327.828 198.858 326.884 Q196.992 325.941 195.807 323.673 Q193.961 320.281 193.961 313.778 M197.373 313.276 Q197.373 319.478 197.814 321.947 Q198.316 324.616 199.681 325.78 Q201.066 326.925 202.591 326.925 Q204.237 326.925 205.602 325.7 Q206.987 324.456 207.409 321.786 Q207.87 319.157 207.85 313.276 Q207.85 307.556 207.449 305.267 Q206.907 302.598 205.462 301.534 Q204.037 300.45 202.591 300.45 Q202.05 300.45 201.467 300.611 Q200.905 300.771 200.083 301.233 Q199.26 301.695 198.617 302.839 Q197.995 303.983 197.694 305.709 Q197.373 307.937 197.373 313.276 Z" fill="#000000" fill-rule="nonzero" fill-opacity="1" /><path clip-path="url(#clip960)" d="M34.6352 801.913 L17.5899 800.467 L17.5899 754.112 L34.6352 752.666 L34.6352 754.556 Q31.2261 754.853 29.2622 755.149 Q27.2983 755.408 25.4455 756.075 Q23.5557 756.705 22.6664 757.521 Q21.74 758.299 21.036 759.818 Q20.2949 761.337 20.1096 763.301 Q19.9243 765.265 19.9243 768.23 Q19.9243 771.713 20.0726 772.565 Q20.2949 773.491 20.9619 773.714 Q21.5918 773.936 22.9629 773.936 L62.9452 773.936 Q64.4645 773.936 65.0944 773.64 Q65.6873 773.306 66.169 771.564 Q66.6137 769.823 66.6137 765.969 L66.6137 762.931 L68.9482 762.931 Q68.7258 766.043 68.7258 777.345 Q68.7258 788.573 68.9482 791.685 L66.6137 791.685 L66.6137 788.647 Q66.6137 784.793 66.169 783.052 Q65.6873 781.273 65.0944 780.976 Q64.4645 780.68 62.9452 780.68 L22.9629 780.68 Q21.8883 780.68 21.4436 780.754 Q20.9989 780.828 20.6284 781.162 Q20.2208 781.495 20.0726 782.273 Q19.9243 783.014 19.9243 786.349 Q19.9243 789.314 20.1096 791.315 Q20.2949 793.279 21.036 794.798 Q21.74 796.317 22.6664 797.132 Q23.5557 797.911 25.4455 798.578 Q27.2983 799.208 29.2622 799.467 Q31.2261 799.726 34.6352 800.023 L34.6352 801.913 Z" fill="#000000" fill-rule="nonzero" fill-opacity="1" /><path clip-path="url(#clip960)" d="M68.9482 747.368 L66.6137 747.368 Q66.6137 743.329 66.132 742.402 Q65.6132 741.476 63.1676 741.476 L42.7502 741.476 Q39.9341 741.476 39.2671 742.439 Q38.6001 743.366 38.6001 747.071 L36.2286 747.071 L35.4133 736.473 L63.2417 736.473 Q65.502 736.473 66.0579 735.658 Q66.6137 734.843 66.6137 731.137 L68.9482 731.137 Q68.7258 738.882 68.7258 739.03 Q68.7258 740.068 68.9482 747.368 M22.1847 744.181 Q20.6654 744.181 19.4426 743.032 Q18.1828 741.846 18.1828 740.179 Q18.1828 738.511 19.3315 737.326 Q20.4431 736.14 22.2218 736.14 Q23.9633 736.14 25.112 737.326 Q26.2237 738.511 26.2237 740.179 Q26.2237 741.92 25.0009 743.069 Q23.7781 744.181 22.1847 744.181 Z" fill="#000000" fill-rule="nonzero" fill-opacity="1" /><path clip-path="url(#clip960)" d="M68.9482 726.431 L66.6137 726.431 Q66.6137 722.392 66.132 721.466 Q65.6132 720.54 63.1676 720.54 L42.8244 720.54 Q40.0082 720.54 39.3041 721.54 Q38.6001 722.504 38.6001 726.431 L36.2286 726.431 L35.4133 715.76 L43.3802 715.76 Q35.4133 712.202 35.4133 704.532 Q35.4133 695.639 42.8244 694.416 Q39.9341 693.119 37.6737 690.414 Q35.4133 687.672 35.4133 683.411 Q35.4133 677.704 38.2295 675.444 Q40.1193 673.776 42.2315 673.443 Q44.3436 673.109 49.8278 673.109 L64.3163 673.109 Q65.9096 673.035 66.2802 671.812 Q66.6137 670.589 66.6137 667.18 L68.9482 667.18 Q68.7258 674.925 68.7258 675.666 Q68.7258 676.259 68.9482 684.263 L66.6137 684.263 Q66.6137 680.224 66.132 679.297 Q65.6132 678.334 63.1676 678.334 L45.4923 678.334 Q41.6386 678.334 39.3782 679.52 Q37.0808 680.706 37.0808 683.966 Q37.0808 687.894 40.3787 691.044 Q43.6766 694.194 49.2349 694.194 L63.1676 694.194 Q65.6132 694.194 66.132 693.267 Q66.6137 692.304 66.6137 688.265 L68.9482 688.265 Q68.7258 696.009 68.7258 696.787 Q68.7258 697.38 68.9482 705.347 L66.6137 705.347 Q66.6137 701.308 66.132 700.382 Q65.6132 699.418 63.1676 699.418 L45.4923 699.418 Q41.6386 699.418 39.3782 700.604 Q37.0808 701.79 37.0808 705.051 Q37.0808 708.979 40.3787 712.128 Q43.6766 715.278 49.2349 715.278 L63.1676 715.278 Q65.6132 715.278 66.132 714.351 Q66.6137 713.388 66.6137 709.386 L68.9482 709.386 Q68.7258 717.131 68.7258 717.872 Q68.7258 718.465 68.9482 726.431 Z" fill="#000000" fill-rule="nonzero" fill-opacity="1" /><path clip-path="url(#clip960)" d="M52.2363 663.586 Q45.0847 663.586 40.0082 658.991 Q34.9316 654.396 34.9316 647.801 Q34.9316 641.131 39.2671 637.685 Q43.6025 634.201 49.8278 634.201 Q50.9765 634.201 51.1988 634.498 Q51.4211 634.794 51.4211 636.091 L51.4211 657.287 Q59.1656 657.287 62.797 654.989 Q67.8736 651.803 67.8736 646.43 Q67.8736 645.689 67.7253 644.799 Q67.5771 643.91 66.9472 642.094 Q66.2802 640.278 64.5386 638.685 Q62.797 637.092 60.0549 636.165 Q58.9804 635.943 59.0174 635.202 Q59.0174 634.201 59.9067 634.201 Q60.5737 634.201 62.093 634.943 Q63.5752 635.647 65.3538 637.018 Q67.1325 638.389 68.4664 641.057 Q69.8004 643.688 69.8004 646.874 Q69.8004 653.544 64.7609 658.584 Q59.6844 663.586 52.2363 663.586 M49.8278 657.213 L49.8278 639.204 Q48.2344 639.204 46.4557 639.5 Q44.6771 639.76 42.2315 640.575 Q39.7488 641.353 38.1925 643.206 Q36.6362 645.059 36.6362 647.801 Q36.6362 649.023 37.1549 650.357 Q37.6737 651.654 38.9336 653.248 Q40.1934 654.841 43.0467 655.953 Q45.8999 657.064 49.8278 657.213 Z" fill="#000000" fill-rule="nonzero" fill-opacity="1" /><path clip-path="url(#clip960)" d="M49.976 599.259 Q37.1549 599.259 26.8166 594.478 Q22.4811 592.44 18.8497 589.587 Q15.2184 586.734 13.625 584.844 Q12.0316 582.954 12.0316 582.436 Q12.0316 581.694 12.7727 581.657 Q13.1433 581.657 14.0696 582.658 Q26.5201 594.886 49.976 594.849 Q73.5059 594.849 85.4747 582.954 Q86.7716 581.657 87.1792 581.657 Q87.9203 581.657 87.9203 582.436 Q87.9203 582.954 86.4011 584.77 Q84.8818 586.586 81.3987 589.402 Q77.9155 592.218 73.6541 594.256 Q63.3158 599.259 49.976 599.259 Z" fill="#000000" fill-rule="nonzero" fill-opacity="1" /><path clip-path="url(#clip960)" d="M67.9477 574.839 L57.9428 574.839 Q57.0905 574.839 56.7941 574.802 Q56.4977 574.765 56.2753 574.543 Q56.053 574.32 56.053 573.876 Q56.053 573.357 56.2753 573.172 Q56.4977 572.949 57.3499 572.801 Q62.5747 571.653 65.3538 569.207 Q68.0959 566.724 68.0959 562.241 Q68.0959 557.979 66.2061 555.83 Q64.3163 553.681 61.2037 553.681 Q55.6454 553.681 54.2373 561.574 Q53.3109 566.131 52.7181 568.021 Q52.0881 569.911 50.7171 571.578 Q48.0491 574.839 44.2695 574.839 Q40.4899 574.839 37.7108 571.986 Q34.9316 569.096 34.9316 562.722 Q34.9316 558.461 37.0808 555.571 Q36.4138 554.718 35.858 554.274 Q34.9316 553.273 34.9316 552.754 Q34.9316 552.162 35.3392 552.05 Q35.7098 551.939 36.7844 551.939 L44.4177 551.939 Q45.27 551.939 45.5664 551.976 Q45.8629 552.013 46.0852 552.236 Q46.2705 552.458 46.2705 552.94 Q46.2705 553.792 45.5664 553.829 Q36.3768 554.422 36.3768 562.722 Q36.3768 567.206 38.1184 569.207 Q39.8229 571.208 42.1574 571.208 Q43.4543 571.208 44.4548 570.615 Q45.4182 569.985 46.0111 569.207 Q46.5669 568.392 47.1227 566.909 Q47.6415 565.427 47.8268 564.538 Q48.0121 563.612 48.3826 561.87 Q49.5313 555.793 52.014 553.236 Q55.2007 550.049 59.2397 550.049 Q63.7234 550.049 66.7619 553.088 Q69.8004 556.126 69.8004 562.241 Q69.8004 567.169 66.5025 570.615 Q66.9472 571.06 67.3548 571.393 Q67.7253 571.727 67.8736 571.875 Q68.0218 571.986 68.1329 572.023 Q68.2071 572.06 68.2812 572.134 Q69.8004 573.654 69.8004 574.024 Q69.8004 574.617 69.3928 574.728 Q69.0223 574.839 67.9477 574.839 Z" fill="#000000" fill-rule="nonzero" fill-opacity="1" /><path clip-path="url(#clip960)" d="M87.1792 543.157 Q86.8087 543.157 85.8823 542.194 Q73.4318 529.966 49.976 529.966 Q26.446 529.966 14.5514 541.712 Q13.1803 543.157 12.7727 543.157 Q12.0316 543.157 12.0316 542.416 Q12.0316 541.897 13.5509 540.082 Q15.0701 538.229 18.5533 535.45 Q22.0365 532.634 26.2978 530.558 Q36.6362 525.556 49.976 525.556 Q62.797 525.556 73.1354 530.336 Q77.4708 532.374 81.1022 535.227 Q84.7336 538.081 86.327 539.97 Q87.9203 541.86 87.9203 542.416 Q87.9203 543.157 87.1792 543.157 Z" fill="#000000" fill-rule="nonzero" fill-opacity="1" /><polyline clip-path="url(#clip962)" style="stroke:#0000ff; stroke-linecap:round; stroke-linejoin:round; stroke-width:12; stroke-opacity:1; fill:none" points="1786.9,794.854 1473.93,652.846 877.949,511.025 1088.51,369.349 1021.84,226.455 947.94,82.1398 "/>
<line clip-path="url(#clip962)" x1="1786.9" y1="794.854" x2="1786.9" y2="778.854" style="stroke:#0000ff; stroke-width:12; stroke-opacity:1"/>
<line clip-path="url(#clip962)" x1="1786.9" y1="794.854" x2="1770.9" y2="794.854" style="stroke:#0000ff; stroke-width:12; stroke-opacity:1"/>
<line clip-path="url(#clip962)" x1="1786.9" y1="794.854" x2="1786.9" y2="810.854" style="stroke:#0000ff; stroke-width:12; stroke-opacity:1"/>
<line clip-path="url(#clip962)" x1="1786.9" y1="794.854" x2="1802.9" y2="794.854" style="stroke:#0000ff; stroke-width:12; stroke-opacity:1"/>
<line clip-path="url(#clip962)" x1="1473.93" y1="652.846" x2="1473.93" y2="636.846" style="stroke:#0000ff; stroke-width:12; stroke-opacity:1"/>
<line clip-path="url(#clip962)" x1="1473.93" y1="652.846" x2="1457.93" y2="652.846" style="stroke:#0000ff; stroke-width:12; stroke-opacity:1"/>
<line clip-path="url(#clip962)" x1="1473.93" y1="652.846" x2="1473.93" y2="668.846" style="stroke:#0000ff; stroke-width:12; stroke-opacity:1"/>
<line clip-path="url(#clip962)" x1="1473.93" y1="652.846" x2="1489.93" y2="652.846" style="stroke:#0000ff; stroke-width:12; stroke-opacity:1"/>
<line clip-path="url(#clip962)" x1="877.949" y1="511.025" x2="877.949" y2="495.025" style="stroke:#0000ff; stroke-width:12; stroke-opacity:1"/>
<line clip-path="url(#clip962)" x1="877.949" y1="511.025" x2="861.949" y2="511.025" style="stroke:#0000ff; stroke-width:12; stroke-opacity:1"/>
<line clip-path="url(#clip962)" x1="877.949" y1="511.025" x2="877.949" y2="527.025" style="stroke:#0000ff; stroke-width:12; stroke-opacity:1"/>
<line clip-path="url(#clip962)" x1="877.949" y1="511.025" x2="893.949" y2="511.025" style="stroke:#0000ff; stroke-width:12; stroke-opacity:1"/>
<line clip-path="url(#clip962)" x1="1088.51" y1="369.349" x2="1088.51" y2="353.349" style="stroke:#0000ff; stroke-width:12; stroke-opacity:1"/>
<line clip-path="url(#clip962)" x1="1088.51" y1="369.349" x2="1072.51" y2="369.349" style="stroke:#0000ff; stroke-width:12; stroke-opacity:1"/>
<line clip-path="url(#clip962)" x1="1088.51" y1="369.349" x2="1088.51" y2="385.349" style="stroke:#0000ff; stroke-width:12; stroke-opacity:1"/>
<line clip-path="url(#clip962)" x1="1088.51" y1="369.349" x2="1104.51" y2="369.349" style="stroke:#0000ff; stroke-width:12; stroke-opacity:1"/>
<line clip-path="url(#clip962)" x1="1021.84" y1="226.455" x2="1021.84" y2="210.455" style="stroke:#0000ff; stroke-width:12; stroke-opacity:1"/>
<line clip-path="url(#clip962)" x1="1021.84" y1="226.455" x2="1005.84" y2="226.455" style="stroke:#0000ff; stroke-width:12; stroke-opacity:1"/>
<line clip-path="url(#clip962)" x1="1021.84" y1="226.455" x2="1021.84" y2="242.455" style="stroke:#0000ff; stroke-width:12; stroke-opacity:1"/>
<line clip-path="url(#clip962)" x1="1021.84" y1="226.455" x2="1037.84" y2="226.455" style="stroke:#0000ff; stroke-width:12; stroke-opacity:1"/>
<line clip-path="url(#clip962)" x1="947.94" y1="82.1398" x2="947.94" y2="66.1398" style="stroke:#0000ff; stroke-width:12; stroke-opacity:1"/>
<line clip-path="url(#clip962)" x1="947.94" y1="82.1398" x2="931.94" y2="82.1398" style="stroke:#0000ff; stroke-width:12; stroke-opacity:1"/>
<line clip-path="url(#clip962)" x1="947.94" y1="82.1398" x2="947.94" y2="98.1398" style="stroke:#0000ff; stroke-width:12; stroke-opacity:1"/>
<line clip-path="url(#clip962)" x1="947.94" y1="82.1398" x2="963.94" y2="82.1398" style="stroke:#0000ff; stroke-width:12; stroke-opacity:1"/>
<polyline clip-path="url(#clip962)" style="stroke:#5400aa; stroke-linecap:round; stroke-linejoin:round; stroke-width:12; stroke-opacity:1; fill:none" points="1403.49,1099.46 1055.52,995.919 706.857,890.334 386.164,781.923 445.392,677.034 447.321,572.333 "/>
<circle clip-path="url(#clip962)" cx="1403.49" cy="1099.46" r="14.4" fill="#5400aa" fill-rule="evenodd" fill-opacity="1" stroke="#000000" stroke-opacity="1" stroke-width="1.536"/>
<circle clip-path="url(#clip962)" cx="1055.52" cy="995.919" r="14.4" fill="#5400aa" fill-rule="evenodd" fill-opacity="1" stroke="#000000" stroke-opacity="1" stroke-width="1.536"/>
<circle clip-path="url(#clip962)" cx="706.857" cy="890.334" r="14.4" fill="#5400aa" fill-rule="evenodd" fill-opacity="1" stroke="#000000" stroke-opacity="1" stroke-width="1.536"/>
<circle clip-path="url(#clip962)" cx="386.164" cy="781.923" r="14.4" fill="#5400aa" fill-rule="evenodd" fill-opacity="1" stroke="#000000" stroke-opacity="1" stroke-width="1.536"/>
<circle clip-path="url(#clip962)" cx="445.392" cy="677.034" r="14.4" fill="#5400aa" fill-rule="evenodd" fill-opacity="1" stroke="#000000" stroke-opacity="1" stroke-width="1.536"/>
<circle clip-path="url(#clip962)" cx="447.321" cy="572.333" r="14.4" fill="#5400aa" fill-rule="evenodd" fill-opacity="1" stroke="#000000" stroke-opacity="1" stroke-width="1.536"/>
<polyline clip-path="url(#clip962)" style="stroke:#a90055; stroke-linecap:round; stroke-linejoin:round; stroke-width:12; stroke-opacity:1; fill:none" points="1207.12,1231.37 829.865,1150.27 290.708,1078.19 442.31,995.672 445.381,911.28 445.622,826.028 "/>
<line clip-path="url(#clip962)" x1="1207.12" y1="1231.37" x2="1207.12" y2="1215.37" style="stroke:#a90055; stroke-width:12; stroke-opacity:1"/>
<line clip-path="url(#clip962)" x1="1207.12" y1="1231.37" x2="1191.12" y2="1231.37" style="stroke:#a90055; stroke-width:12; stroke-opacity:1"/>
<line clip-path="url(#clip962)" x1="1207.12" y1="1231.37" x2="1207.12" y2="1247.37" style="stroke:#a90055; stroke-width:12; stroke-opacity:1"/>
<line clip-path="url(#clip962)" x1="1207.12" y1="1231.37" x2="1223.12" y2="1231.37" style="stroke:#a90055; stroke-width:12; stroke-opacity:1"/>
<line clip-path="url(#clip962)" x1="829.865" y1="1150.27" x2="829.865" y2="1134.27" style="stroke:#a90055; stroke-width:12; stroke-opacity:1"/>
<line clip-path="url(#clip962)" x1="829.865" y1="1150.27" x2="813.865" y2="1150.27" style="stroke:#a90055; stroke-width:12; stroke-opacity:1"/>
<line clip-path="url(#clip962)" x1="829.865" y1="1150.27" x2="829.865" y2="1166.27" style="stroke:#a90055; stroke-width:12; stroke-opacity:1"/>
<line clip-path="url(#clip962)" x1="829.865" y1="1150.27" x2="845.865" y2="1150.27" style="stroke:#a90055; stroke-width:12; stroke-opacity:1"/>
<line clip-path="url(#clip962)" x1="290.708" y1="1078.19" x2="290.708" y2="1062.19" style="stroke:#a90055; stroke-width:12; stroke-opacity:1"/>
<line clip-path="url(#clip962)" x1="290.708" y1="1078.19" x2="274.708" y2="1078.19" style="stroke:#a90055; stroke-width:12; stroke-opacity:1"/>
<line clip-path="url(#clip962)" x1="290.708" y1="1078.19" x2="290.708" y2="1094.19" style="stroke:#a90055; stroke-width:12; stroke-opacity:1"/>
<line clip-path="url(#clip962)" x1="290.708" y1="1078.19" x2="306.708" y2="1078.19" style="stroke:#a90055; stroke-width:12; stroke-opacity:1"/>
<line clip-path="url(#clip962)" x1="442.31" y1="995.672" x2="442.31" y2="979.672" style="stroke:#a90055; stroke-width:12; stroke-opacity:1"/>
<line clip-path="url(#clip962)" x1="442.31" y1="995.672" x2="426.31" y2="995.672" style="stroke:#a90055; stroke-width:12; stroke-opacity:1"/>
<line clip-path="url(#clip962)" x1="442.31" y1="995.672" x2="442.31" y2="1011.67" style="stroke:#a90055; stroke-width:12; stroke-opacity:1"/>
<line clip-path="url(#clip962)" x1="442.31" y1="995.672" x2="458.31" y2="995.672" style="stroke:#a90055; stroke-width:12; stroke-opacity:1"/>
<line clip-path="url(#clip962)" x1="445.381" y1="911.28" x2="445.381" y2="895.28" style="stroke:#a90055; stroke-width:12; stroke-opacity:1"/>
<line clip-path="url(#clip962)" x1="445.381" y1="911.28" x2="429.381" y2="911.28" style="stroke:#a90055; stroke-width:12; stroke-opacity:1"/>
<line clip-path="url(#clip962)" x1="445.381" y1="911.28" x2="445.381" y2="927.28" style="stroke:#a90055; stroke-width:12; stroke-opacity:1"/>
<line clip-path="url(#clip962)" x1="445.381" y1="911.28" x2="461.381" y2="911.28" style="stroke:#a90055; stroke-width:12; stroke-opacity:1"/>
<line clip-path="url(#clip962)" x1="445.622" y1="826.028" x2="445.622" y2="810.028" style="stroke:#a90055; stroke-width:12; stroke-opacity:1"/>
<line clip-path="url(#clip962)" x1="445.622" y1="826.028" x2="429.622" y2="826.028" style="stroke:#a90055; stroke-width:12; stroke-opacity:1"/>
<line clip-path="url(#clip962)" x1="445.622" y1="826.028" x2="445.622" y2="842.028" style="stroke:#a90055; stroke-width:12; stroke-opacity:1"/>
<line clip-path="url(#clip962)" x1="445.622" y1="826.028" x2="461.622" y2="826.028" style="stroke:#a90055; stroke-width:12; stroke-opacity:1"/>
<polyline clip-path="url(#clip962)" style="stroke:#ff0000; stroke-linecap:round; stroke-linejoin:round; stroke-width:12; stroke-opacity:1; fill:none" points="1217.6,1245.33 543.978,1220.67 436.387,1155.68 445.248,1086.76 445.379,1017.27 445.388,941.042 "/>
<path clip-path="url(#clip962)" d="M1217.6 1229.33 L1201.6 1245.33 L1217.6 1261.33 L1233.6 1245.33 L1217.6 1229.33 Z" fill="#ff0000" fill-rule="evenodd" fill-opacity="1" stroke="#000000" stroke-opacity="1" stroke-width="1.536"/>
<path clip-path="url(#clip962)" d="M543.978 1204.67 L527.978 1220.67 L543.978 1236.67 L559.978 1220.67 L543.978 1204.67 Z" fill="#ff0000" fill-rule="evenodd" fill-opacity="1" stroke="#000000" stroke-opacity="1" stroke-width="1.536"/>
<path clip-path="url(#clip962)" d="M436.387 1139.68 L420.387 1155.68 L436.387 1171.68 L452.387 1155.68 L436.387 1139.68 Z" fill="#ff0000" fill-rule="evenodd" fill-opacity="1" stroke="#000000" stroke-opacity="1" stroke-width="1.536"/>
<path clip-path="url(#clip962)" d="M445.248 1070.76 L429.248 1086.76 L445.248 1102.76 L461.248 1086.76 L445.248 1070.76 Z" fill="#ff0000" fill-rule="evenodd" fill-opacity="1" stroke="#000000" stroke-opacity="1" stroke-width="1.536"/>
<path clip-path="url(#clip962)" d="M445.379 1001.27 L429.379 1017.27 L445.379 1033.27 L461.379 1017.27 L445.379 1001.27 Z" fill="#ff0000" fill-rule="evenodd" fill-opacity="1" stroke="#000000" stroke-opacity="1" stroke-width="1.536"/>
<path clip-path="url(#clip962)" d="M445.388 925.042 L429.388 941.042 L445.388 957.042 L461.388 941.042 L445.388 925.042 Z" fill="#ff0000" fill-rule="evenodd" fill-opacity="1" stroke="#000000" stroke-opacity="1" stroke-width="1.536"/>
<path clip-path="url(#clip960)" d="M1898.82 347.543 L2256.76 347.543 L2256.76 88.3434 L1898.82 88.3434  Z" fill="#ffffff" fill-rule="evenodd" fill-opacity="1"/>
<polyline clip-path="url(#clip960)" style="stroke:#000000; stroke-linecap:round; stroke-linejoin:round; stroke-width:4; stroke-opacity:1; fill:none" points="1898.82,347.543 2256.76,347.543 2256.76,88.3434 1898.82,88.3434 1898.82,347.543 "/>
<polyline clip-path="url(#clip960)" style="stroke:#0000ff; stroke-linecap:round; stroke-linejoin:round; stroke-width:12; stroke-opacity:1; fill:none" points="1921.16,140.183 2055.23,140.183 "/>
<line clip-path="url(#clip960)" x1="1988.2" y1="140.183" x2="1988.2" y2="119.495" style="stroke:#0000ff; stroke-width:12; stroke-opacity:1"/>
<line clip-path="url(#clip960)" x1="1988.2" y1="140.183" x2="1967.51" y2="140.183" style="stroke:#0000ff; stroke-width:12; stroke-opacity:1"/>
<line clip-path="url(#clip960)" x1="1988.2" y1="140.183" x2="1988.2" y2="160.872" style="stroke:#0000ff; stroke-width:12; stroke-opacity:1"/>
<line clip-path="url(#clip960)" x1="1988.2" y1="140.183" x2="2008.88" y2="140.183" style="stroke:#0000ff; stroke-width:12; stroke-opacity:1"/>
<path clip-path="url(#clip960)" d="M2077.57 157.463 L2077.57 155.907 L2078.78 155.907 Q2081.52 155.907 2082.14 155.462 Q2082.78 154.993 2082.78 153.511 L2082.78 127.004 Q2082.78 125.547 2082.14 125.102 Q2081.5 124.633 2078.78 124.633 L2077.57 124.633 L2077.57 123.052 L2106.05 123.052 L2107.46 134.44 L2106.2 134.44 Q2105.86 131.55 2105.39 129.894 Q2104.94 128.215 2103.83 126.93 Q2102.74 125.646 2100.94 125.151 Q2099.16 124.633 2096.27 124.633 L2089.75 124.633 Q2088.02 124.633 2087.65 125.003 Q2087.28 125.349 2087.28 126.658 L2087.28 138.788 L2091.82 138.788 Q2095.31 138.788 2096.3 137.577 Q2097.28 136.367 2097.28 132.884 L2098.57 132.884 L2098.57 146.273 L2097.28 146.273 Q2097.28 142.839 2096.3 141.604 Q2095.31 140.369 2091.82 140.369 L2087.28 140.369 L2087.28 153.881 Q2087.28 155.191 2087.65 155.561 Q2088.04 155.907 2089.75 155.907 L2096.49 155.907 Q2098.67 155.907 2100.25 155.635 Q2101.85 155.339 2102.97 154.647 Q2104.08 153.931 2104.82 153.116 Q2105.58 152.3 2106.1 150.843 Q2106.65 149.361 2106.94 148.002 Q2107.26 146.643 2107.61 144.42 L2108.87 144.42 L2106.75 157.463 L2077.57 157.463 Z" fill="#000000" fill-rule="nonzero" fill-opacity="1" /><path clip-path="url(#clip960)" d="M2111.96 157.463 L2111.96 155.907 L2113.17 155.907 Q2115.91 155.907 2116.53 155.462 Q2117.17 154.993 2117.17 153.511 L2117.17 126.856 Q2117.17 125.398 2116.53 124.954 Q2115.89 124.484 2113.17 124.484 L2111.96 124.484 L2111.96 122.903 Q2113.74 123.052 2119.44 123.052 Q2125.1 123.052 2126.88 122.903 L2126.88 124.484 L2125.67 124.484 Q2122.93 124.484 2122.28 124.954 Q2121.67 125.398 2121.67 126.856 L2121.67 142.938 L2137.5 127.819 Q2138.41 127.004 2138.41 126.14 Q2138.41 125.843 2138.27 125.522 Q2138.14 125.176 2137.55 124.83 Q2136.98 124.484 2136.07 124.484 L2136.07 122.903 Q2137.8 123.052 2142.52 123.052 Q2145.5 123.052 2146.81 122.903 L2146.81 124.484 Q2142.61 124.534 2139.63 127.523 L2130.51 136.268 L2142.19 153.461 Q2143.26 155.018 2144.29 155.462 Q2145.33 155.907 2147.51 155.907 L2147.51 157.463 Q2144.32 157.315 2141.7 157.315 Q2136.24 157.315 2134.46 157.463 L2134.46 155.907 Q2137.45 155.907 2137.45 154.376 Q2137.45 153.807 2136.69 152.646 L2127.52 139.109 L2121.67 144.667 L2121.67 153.511 Q2121.67 154.968 2122.28 155.438 Q2122.93 155.907 2125.67 155.907 L2126.88 155.907 L2126.88 157.463 Q2125.1 157.315 2119.39 157.315 Q2113.74 157.315 2111.96 157.463 Z" fill="#000000" fill-rule="nonzero" fill-opacity="1" /><path clip-path="url(#clip960)" d="M2154.08 128.585 L2154.08 127.004 Q2160.15 127.004 2163.29 123.768 Q2164.16 123.768 2164.3 123.966 Q2164.45 124.163 2164.45 125.077 L2164.45 153.461 Q2164.45 154.968 2165.19 155.438 Q2165.93 155.907 2169.17 155.907 L2170.78 155.907 L2170.78 157.463 Q2169 157.315 2162.57 157.315 Q2156.15 157.315 2154.4 157.463 L2154.4 155.907 L2156 155.907 Q2159.19 155.907 2159.96 155.462 Q2160.72 154.993 2160.72 153.461 L2160.72 127.251 Q2158.08 128.585 2154.08 128.585 Z" fill="#000000" fill-rule="nonzero" fill-opacity="1" /><path clip-path="url(#clip960)" d="M2179.89 144.815 Q2179.89 136.268 2183.08 129.376 Q2184.44 126.485 2186.34 124.064 Q2188.24 121.644 2189.5 120.581 Q2190.76 119.519 2191.11 119.519 Q2191.6 119.519 2191.63 120.013 Q2191.63 120.26 2190.96 120.878 Q2182.81 129.178 2182.83 144.815 Q2182.83 160.502 2190.76 168.481 Q2191.63 169.346 2191.63 169.617 Q2191.63 170.112 2191.11 170.112 Q2190.76 170.112 2189.55 169.099 Q2188.34 168.086 2186.46 165.764 Q2184.59 163.442 2183.23 160.601 Q2179.89 153.709 2179.89 144.815 Z" fill="#000000" fill-rule="nonzero" fill-opacity="1" /><path clip-path="url(#clip960)" d="M2198.99 128.585 L2198.99 127.004 Q2205.06 127.004 2208.2 123.768 Q2209.07 123.768 2209.21 123.966 Q2209.36 124.163 2209.36 125.077 L2209.36 153.461 Q2209.36 154.968 2210.1 155.438 Q2210.85 155.907 2214.08 155.907 L2215.69 155.907 L2215.69 157.463 Q2213.91 157.315 2207.49 157.315 Q2201.06 157.315 2199.31 157.463 L2199.31 155.907 L2200.91 155.907 Q2204.1 155.907 2204.87 155.462 Q2205.63 154.993 2205.63 153.461 L2205.63 127.251 Q2202.99 128.585 2198.99 128.585 Z" fill="#000000" fill-rule="nonzero" fill-opacity="1" /><path clip-path="url(#clip960)" d="M2222.68 169.617 Q2222.68 169.37 2223.32 168.753 Q2231.47 160.453 2231.47 144.815 Q2231.47 129.129 2223.64 121.199 Q2222.68 120.285 2222.68 120.013 Q2222.68 119.519 2223.17 119.519 Q2223.52 119.519 2224.73 120.532 Q2225.96 121.545 2227.82 123.867 Q2229.69 126.189 2231.08 129.03 Q2234.41 135.922 2234.41 144.815 Q2234.41 153.363 2231.23 160.255 Q2229.87 163.145 2227.96 165.566 Q2226.06 167.987 2224.8 169.049 Q2223.54 170.112 2223.17 170.112 Q2222.68 170.112 2222.68 169.617 Z" fill="#000000" fill-rule="nonzero" fill-opacity="1" /><polyline clip-path="url(#clip960)" style="stroke:#5400aa; stroke-linecap:round; stroke-linejoin:round; stroke-width:12; stroke-opacity:1; fill:none" points="1921.16,192.023 2055.23,192.023 "/>
<circle clip-path="url(#clip960)" cx="1988.2" cy="192.023" r="18.6198" fill="#5400aa" fill-rule="evenodd" fill-opacity="1" stroke="#000000" stroke-opacity="1" stroke-width="2.31304"/>
<path clip-path="url(#clip960)" d="M2077.57 209.303 L2077.57 207.747 L2078.78 207.747 Q2081.52 207.747 2082.14 207.302 Q2082.78 206.833 2082.78 205.351 L2082.78 178.844 Q2082.78 177.387 2082.14 176.942 Q2081.5 176.473 2078.78 176.473 L2077.57 176.473 L2077.57 174.892 L2106.05 174.892 L2107.46 186.28 L2106.2 186.28 Q2105.86 183.39 2105.39 181.734 Q2104.94 180.055 2103.83 178.77 Q2102.74 177.486 2100.94 176.991 Q2099.16 176.473 2096.27 176.473 L2089.75 176.473 Q2088.02 176.473 2087.65 176.843 Q2087.28 177.189 2087.28 178.498 L2087.28 190.628 L2091.82 190.628 Q2095.31 190.628 2096.3 189.417 Q2097.28 188.207 2097.28 184.724 L2098.57 184.724 L2098.57 198.113 L2097.28 198.113 Q2097.28 194.679 2096.3 193.444 Q2095.31 192.209 2091.82 192.209 L2087.28 192.209 L2087.28 205.721 Q2087.28 207.031 2087.65 207.401 Q2088.04 207.747 2089.75 207.747 L2096.49 207.747 Q2098.67 207.747 2100.25 207.475 Q2101.85 207.179 2102.97 206.487 Q2104.08 205.771 2104.82 204.956 Q2105.58 204.14 2106.1 202.683 Q2106.65 201.201 2106.94 199.842 Q2107.26 198.483 2107.61 196.26 L2108.87 196.26 L2106.75 209.303 L2077.57 209.303 Z" fill="#000000" fill-rule="nonzero" fill-opacity="1" /><path clip-path="url(#clip960)" d="M2111.96 209.303 L2111.96 207.747 L2113.17 207.747 Q2115.91 207.747 2116.53 207.302 Q2117.17 206.833 2117.17 205.351 L2117.17 178.696 Q2117.17 177.238 2116.53 176.794 Q2115.89 176.324 2113.17 176.324 L2111.96 176.324 L2111.96 174.743 Q2113.74 174.892 2119.44 174.892 Q2125.1 174.892 2126.88 174.743 L2126.88 176.324 L2125.67 176.324 Q2122.93 176.324 2122.28 176.794 Q2121.67 177.238 2121.67 178.696 L2121.67 194.778 L2137.5 179.659 Q2138.41 178.844 2138.41 177.98 Q2138.41 177.683 2138.27 177.362 Q2138.14 177.016 2137.55 176.67 Q2136.98 176.324 2136.07 176.324 L2136.07 174.743 Q2137.8 174.892 2142.52 174.892 Q2145.5 174.892 2146.81 174.743 L2146.81 176.324 Q2142.61 176.374 2139.63 179.363 L2130.51 188.108 L2142.19 205.301 Q2143.26 206.858 2144.29 207.302 Q2145.33 207.747 2147.51 207.747 L2147.51 209.303 Q2144.32 209.155 2141.7 209.155 Q2136.24 209.155 2134.46 209.303 L2134.46 207.747 Q2137.45 207.747 2137.45 206.216 Q2137.45 205.647 2136.69 204.486 L2127.52 190.949 L2121.67 196.507 L2121.67 205.351 Q2121.67 206.808 2122.28 207.278 Q2122.93 207.747 2125.67 207.747 L2126.88 207.747 L2126.88 209.303 Q2125.1 209.155 2119.39 209.155 Q2113.74 209.155 2111.96 209.303 Z" fill="#000000" fill-rule="nonzero" fill-opacity="1" /><path clip-path="url(#clip960)" d="M2154.08 180.425 L2154.08 178.844 Q2160.15 178.844 2163.29 175.608 Q2164.16 175.608 2164.3 175.806 Q2164.45 176.003 2164.45 176.917 L2164.45 205.301 Q2164.45 206.808 2165.19 207.278 Q2165.93 207.747 2169.17 207.747 L2170.78 207.747 L2170.78 209.303 Q2169 209.155 2162.57 209.155 Q2156.15 209.155 2154.4 209.303 L2154.4 207.747 L2156 207.747 Q2159.19 207.747 2159.96 207.302 Q2160.72 206.833 2160.72 205.301 L2160.72 179.091 Q2158.08 180.425 2154.08 180.425 Z" fill="#000000" fill-rule="nonzero" fill-opacity="1" /><path clip-path="url(#clip960)" d="M2179.89 196.655 Q2179.89 188.108 2183.08 181.216 Q2184.44 178.325 2186.34 175.904 Q2188.24 173.484 2189.5 172.421 Q2190.76 171.359 2191.11 171.359 Q2191.6 171.359 2191.63 171.853 Q2191.63 172.1 2190.96 172.718 Q2182.81 181.018 2182.83 196.655 Q2182.83 212.342 2190.76 220.321 Q2191.63 221.186 2191.63 221.457 Q2191.63 221.952 2191.11 221.952 Q2190.76 221.952 2189.55 220.939 Q2188.34 219.926 2186.46 217.604 Q2184.59 215.282 2183.23 212.441 Q2179.89 205.549 2179.89 196.655 Z" fill="#000000" fill-rule="nonzero" fill-opacity="1" /><path clip-path="url(#clip960)" d="M2197.01 209.303 Q2197.01 208.389 2197.09 208.118 Q2197.18 207.846 2197.58 207.426 L2207.29 196.606 Q2212.6 190.628 2212.6 185.415 Q2212.6 182.031 2210.82 179.61 Q2209.07 177.189 2205.83 177.189 Q2203.61 177.189 2201.73 178.548 Q2199.85 179.906 2198.99 182.327 Q2199.14 182.278 2199.65 182.278 Q2200.91 182.278 2201.61 183.068 Q2202.32 183.859 2202.32 184.921 Q2202.32 186.28 2201.43 186.947 Q2200.57 187.589 2199.7 187.589 Q2199.36 187.589 2198.89 187.515 Q2198.44 187.441 2197.73 186.749 Q2197.01 186.033 2197.01 184.773 Q2197.01 181.24 2199.68 178.424 Q2202.37 175.608 2206.47 175.608 Q2211.12 175.608 2214.16 178.375 Q2217.22 181.117 2217.22 185.415 Q2217.22 186.922 2216.75 188.306 Q2216.3 189.664 2215.69 190.727 Q2215.09 191.789 2213.46 193.493 Q2211.83 195.198 2210.52 196.408 Q2209.21 197.619 2206.28 200.188 L2200.91 205.4 L2210.03 205.4 Q2214.48 205.4 2214.82 205.005 Q2215.32 204.289 2215.93 200.509 L2217.22 200.509 L2215.79 209.303 L2197.01 209.303 Z" fill="#000000" fill-rule="nonzero" fill-opacity="1" /><path clip-path="url(#clip960)" d="M2222.68 221.457 Q2222.68 221.21 2223.32 220.593 Q2231.47 212.293 2231.47 196.655 Q2231.47 180.969 2223.64 173.039 Q2222.68 172.125 2222.68 171.853 Q2222.68 171.359 2223.17 171.359 Q2223.52 171.359 2224.73 172.372 Q2225.96 173.385 2227.82 175.707 Q2229.69 178.029 2231.08 180.87 Q2234.41 187.762 2234.41 196.655 Q2234.41 205.203 2231.23 212.095 Q2229.87 214.985 2227.96 217.406 Q2226.06 219.827 2224.8 220.889 Q2223.54 221.952 2223.17 221.952 Q2222.68 221.952 2222.68 221.457 Z" fill="#000000" fill-rule="nonzero" fill-opacity="1" /><polyline clip-path="url(#clip960)" style="stroke:#a90055; stroke-linecap:round; stroke-linejoin:round; stroke-width:12; stroke-opacity:1; fill:none" points="1921.16,243.863 2055.23,243.863 "/>
<line clip-path="url(#clip960)" x1="1988.2" y1="243.863" x2="1988.2" y2="223.175" style="stroke:#a90055; stroke-width:12; stroke-opacity:1"/>
<line clip-path="url(#clip960)" x1="1988.2" y1="243.863" x2="1967.51" y2="243.863" style="stroke:#a90055; stroke-width:12; stroke-opacity:1"/>
<line clip-path="url(#clip960)" x1="1988.2" y1="243.863" x2="1988.2" y2="264.552" style="stroke:#a90055; stroke-width:12; stroke-opacity:1"/>
<line clip-path="url(#clip960)" x1="1988.2" y1="243.863" x2="2008.88" y2="243.863" style="stroke:#a90055; stroke-width:12; stroke-opacity:1"/>
<path clip-path="url(#clip960)" d="M2077.57 261.143 L2077.57 259.587 L2078.78 259.587 Q2081.52 259.587 2082.14 259.142 Q2082.78 258.673 2082.78 257.191 L2082.78 230.684 Q2082.78 229.227 2082.14 228.782 Q2081.5 228.313 2078.78 228.313 L2077.57 228.313 L2077.57 226.732 L2106.05 226.732 L2107.46 238.12 L2106.2 238.12 Q2105.86 235.23 2105.39 233.574 Q2104.94 231.895 2103.83 230.61 Q2102.74 229.326 2100.94 228.831 Q2099.16 228.313 2096.27 228.313 L2089.75 228.313 Q2088.02 228.313 2087.65 228.683 Q2087.28 229.029 2087.28 230.338 L2087.28 242.468 L2091.82 242.468 Q2095.31 242.468 2096.3 241.257 Q2097.28 240.047 2097.28 236.564 L2098.57 236.564 L2098.57 249.953 L2097.28 249.953 Q2097.28 246.519 2096.3 245.284 Q2095.31 244.049 2091.82 244.049 L2087.28 244.049 L2087.28 257.561 Q2087.28 258.871 2087.65 259.241 Q2088.04 259.587 2089.75 259.587 L2096.49 259.587 Q2098.67 259.587 2100.25 259.315 Q2101.85 259.019 2102.97 258.327 Q2104.08 257.611 2104.82 256.796 Q2105.58 255.98 2106.1 254.523 Q2106.65 253.041 2106.94 251.682 Q2107.26 250.323 2107.61 248.1 L2108.87 248.1 L2106.75 261.143 L2077.57 261.143 Z" fill="#000000" fill-rule="nonzero" fill-opacity="1" /><path clip-path="url(#clip960)" d="M2111.96 261.143 L2111.96 259.587 L2113.17 259.587 Q2115.91 259.587 2116.53 259.142 Q2117.17 258.673 2117.17 257.191 L2117.17 230.536 Q2117.17 229.078 2116.53 228.634 Q2115.89 228.164 2113.17 228.164 L2111.96 228.164 L2111.96 226.583 Q2113.74 226.732 2119.44 226.732 Q2125.1 226.732 2126.88 226.583 L2126.88 228.164 L2125.67 228.164 Q2122.93 228.164 2122.28 228.634 Q2121.67 229.078 2121.67 230.536 L2121.67 246.618 L2137.5 231.499 Q2138.41 230.684 2138.41 229.82 Q2138.41 229.523 2138.27 229.202 Q2138.14 228.856 2137.55 228.51 Q2136.98 228.164 2136.07 228.164 L2136.07 226.583 Q2137.8 226.732 2142.52 226.732 Q2145.5 226.732 2146.81 226.583 L2146.81 228.164 Q2142.61 228.214 2139.63 231.203 L2130.51 239.948 L2142.19 257.141 Q2143.26 258.698 2144.29 259.142 Q2145.33 259.587 2147.51 259.587 L2147.51 261.143 Q2144.32 260.995 2141.7 260.995 Q2136.24 260.995 2134.46 261.143 L2134.46 259.587 Q2137.45 259.587 2137.45 258.056 Q2137.45 257.487 2136.69 256.326 L2127.52 242.789 L2121.67 248.347 L2121.67 257.191 Q2121.67 258.648 2122.28 259.118 Q2122.93 259.587 2125.67 259.587 L2126.88 259.587 L2126.88 261.143 Q2125.1 260.995 2119.39 260.995 Q2113.74 260.995 2111.96 261.143 Z" fill="#000000" fill-rule="nonzero" fill-opacity="1" /><path clip-path="url(#clip960)" d="M2154.08 232.265 L2154.08 230.684 Q2160.15 230.684 2163.29 227.448 Q2164.16 227.448 2164.3 227.646 Q2164.45 227.843 2164.45 228.757 L2164.45 257.141 Q2164.45 258.648 2165.19 259.118 Q2165.93 259.587 2169.17 259.587 L2170.78 259.587 L2170.78 261.143 Q2169 260.995 2162.57 260.995 Q2156.15 260.995 2154.4 261.143 L2154.4 259.587 L2156 259.587 Q2159.19 259.587 2159.96 259.142 Q2160.72 258.673 2160.72 257.141 L2160.72 230.931 Q2158.08 232.265 2154.08 232.265 Z" fill="#000000" fill-rule="nonzero" fill-opacity="1" /><path clip-path="url(#clip960)" d="M2179.89 248.495 Q2179.89 239.948 2183.08 233.056 Q2184.44 230.165 2186.34 227.744 Q2188.24 225.324 2189.5 224.261 Q2190.76 223.199 2191.11 223.199 Q2191.6 223.199 2191.63 223.693 Q2191.63 223.94 2190.96 224.558 Q2182.81 232.858 2182.83 248.495 Q2182.83 264.182 2190.76 272.161 Q2191.63 273.026 2191.63 273.297 Q2191.63 273.792 2191.11 273.792 Q2190.76 273.792 2189.55 272.779 Q2188.34 271.766 2186.46 269.444 Q2184.59 267.122 2183.23 264.281 Q2179.89 257.389 2179.89 248.495 Z" fill="#000000" fill-rule="nonzero" fill-opacity="1" /><path clip-path="url(#clip960)" d="M2196.62 254.325 Q2196.62 252.818 2197.48 252.102 Q2198.35 251.386 2199.46 251.386 Q2200.62 251.386 2201.43 252.151 Q2202.27 252.893 2202.27 254.202 Q2202.27 255.61 2201.28 256.4 Q2200.32 257.191 2198.94 256.993 Q2200.15 259.019 2202.37 259.933 Q2204.62 260.847 2206.7 260.847 Q2208.87 260.847 2210.62 258.97 Q2212.4 257.092 2212.4 252.497 Q2212.4 248.594 2210.87 246.346 Q2209.36 244.098 2206.37 244.098 L2204.15 244.098 Q2203.38 244.098 2203.16 244.024 Q2202.94 243.95 2202.94 243.53 Q2202.94 243.036 2203.71 242.937 Q2204.47 242.937 2205.68 242.789 Q2208.62 242.69 2210.18 240.146 Q2211.59 237.774 2211.59 234.39 Q2211.59 231.302 2210.1 230.017 Q2208.65 228.708 2206.74 228.708 Q2204.97 228.708 2203.01 229.449 Q2201.06 230.19 2200 231.845 Q2203.14 231.845 2203.14 234.39 Q2203.14 235.501 2202.42 236.242 Q2201.73 236.959 2200.57 236.959 Q2199.46 236.959 2198.72 236.267 Q2197.97 235.551 2197.97 234.34 Q2197.97 231.45 2200.54 229.449 Q2203.14 227.448 2206.94 227.448 Q2210.7 227.448 2213.46 229.424 Q2216.26 231.401 2216.26 234.439 Q2216.26 237.428 2214.28 239.874 Q2212.3 242.319 2209.17 243.332 Q2213.02 244.098 2215.32 246.717 Q2217.61 249.311 2217.61 252.497 Q2217.61 256.45 2214.5 259.365 Q2211.39 262.255 2206.84 262.255 Q2202.64 262.255 2199.63 259.982 Q2196.62 257.71 2196.62 254.325 Z" fill="#000000" fill-rule="nonzero" fill-opacity="1" /><path clip-path="url(#clip960)" d="M2222.68 273.297 Q2222.68 273.05 2223.32 272.433 Q2231.47 264.133 2231.47 248.495 Q2231.47 232.809 2223.64 224.879 Q2222.68 223.965 2222.68 223.693 Q2222.68 223.199 2223.17 223.199 Q2223.52 223.199 2224.73 224.212 Q2225.96 225.225 2227.82 227.547 Q2229.69 229.869 2231.08 232.71 Q2234.41 239.602 2234.41 248.495 Q2234.41 257.043 2231.23 263.935 Q2229.87 266.825 2227.96 269.246 Q2226.06 271.667 2224.8 272.729 Q2223.54 273.792 2223.17 273.792 Q2222.68 273.792 2222.68 273.297 Z" fill="#000000" fill-rule="nonzero" fill-opacity="1" /><polyline clip-path="url(#clip960)" style="stroke:#ff0000; stroke-linecap:round; stroke-linejoin:round; stroke-width:12; stroke-opacity:1; fill:none" points="1921.16,295.703 2055.23,295.703 "/>
<path clip-path="url(#clip960)" d="M1988.2 275.015 L1967.51 295.703 L1988.2 316.392 L2008.88 295.703 L1988.2 275.015 Z" fill="#ff0000" fill-rule="evenodd" fill-opacity="1" stroke="#000000" stroke-opacity="1" stroke-width="2.31304"/>
<path clip-path="url(#clip960)" d="M2077.57 312.983 L2077.57 311.427 L2078.78 311.427 Q2081.52 311.427 2082.14 310.982 Q2082.78 310.513 2082.78 309.031 L2082.78 282.524 Q2082.78 281.067 2082.14 280.622 Q2081.5 280.153 2078.78 280.153 L2077.57 280.153 L2077.57 278.572 L2106.05 278.572 L2107.46 289.96 L2106.2 289.96 Q2105.86 287.07 2105.39 285.414 Q2104.94 283.735 2103.83 282.45 Q2102.74 281.166 2100.94 280.671 Q2099.16 280.153 2096.27 280.153 L2089.75 280.153 Q2088.02 280.153 2087.65 280.523 Q2087.28 280.869 2087.28 282.178 L2087.28 294.308 L2091.82 294.308 Q2095.31 294.308 2096.3 293.097 Q2097.28 291.887 2097.28 288.404 L2098.57 288.404 L2098.57 301.793 L2097.28 301.793 Q2097.28 298.359 2096.3 297.124 Q2095.31 295.889 2091.82 295.889 L2087.28 295.889 L2087.28 309.401 Q2087.28 310.711 2087.65 311.081 Q2088.04 311.427 2089.75 311.427 L2096.49 311.427 Q2098.67 311.427 2100.25 311.155 Q2101.85 310.859 2102.97 310.167 Q2104.08 309.451 2104.82 308.636 Q2105.58 307.82 2106.1 306.363 Q2106.65 304.881 2106.94 303.522 Q2107.26 302.163 2107.61 299.94 L2108.87 299.94 L2106.75 312.983 L2077.57 312.983 Z" fill="#000000" fill-rule="nonzero" fill-opacity="1" /><path clip-path="url(#clip960)" d="M2111.96 312.983 L2111.96 311.427 L2113.17 311.427 Q2115.91 311.427 2116.53 310.982 Q2117.17 310.513 2117.17 309.031 L2117.17 282.376 Q2117.17 280.918 2116.53 280.474 Q2115.89 280.004 2113.17 280.004 L2111.96 280.004 L2111.96 278.423 Q2113.74 278.572 2119.44 278.572 Q2125.1 278.572 2126.88 278.423 L2126.88 280.004 L2125.67 280.004 Q2122.93 280.004 2122.28 280.474 Q2121.67 280.918 2121.67 282.376 L2121.67 298.458 L2137.5 283.339 Q2138.41 282.524 2138.41 281.66 Q2138.41 281.363 2138.27 281.042 Q2138.14 280.696 2137.55 280.35 Q2136.98 280.004 2136.07 280.004 L2136.07 278.423 Q2137.8 278.572 2142.52 278.572 Q2145.5 278.572 2146.81 278.423 L2146.81 280.004 Q2142.61 280.054 2139.63 283.043 L2130.51 291.788 L2142.19 308.981 Q2143.26 310.538 2144.29 310.982 Q2145.33 311.427 2147.51 311.427 L2147.51 312.983 Q2144.32 312.835 2141.7 312.835 Q2136.24 312.835 2134.46 312.983 L2134.46 311.427 Q2137.45 311.427 2137.45 309.896 Q2137.45 309.327 2136.69 308.166 L2127.52 294.629 L2121.67 300.187 L2121.67 309.031 Q2121.67 310.488 2122.28 310.958 Q2122.93 311.427 2125.67 311.427 L2126.88 311.427 L2126.88 312.983 Q2125.1 312.835 2119.39 312.835 Q2113.74 312.835 2111.96 312.983 Z" fill="#000000" fill-rule="nonzero" fill-opacity="1" /><path clip-path="url(#clip960)" d="M2154.08 284.105 L2154.08 282.524 Q2160.15 282.524 2163.29 279.288 Q2164.16 279.288 2164.3 279.486 Q2164.45 279.683 2164.45 280.597 L2164.45 308.981 Q2164.45 310.488 2165.19 310.958 Q2165.93 311.427 2169.17 311.427 L2170.78 311.427 L2170.78 312.983 Q2169 312.835 2162.57 312.835 Q2156.15 312.835 2154.4 312.983 L2154.4 311.427 L2156 311.427 Q2159.19 311.427 2159.96 310.982 Q2160.72 310.513 2160.72 308.981 L2160.72 282.771 Q2158.08 284.105 2154.08 284.105 Z" fill="#000000" fill-rule="nonzero" fill-opacity="1" /><path clip-path="url(#clip960)" d="M2179.89 300.335 Q2179.89 291.788 2183.08 284.896 Q2184.44 282.005 2186.34 279.584 Q2188.24 277.164 2189.5 276.101 Q2190.76 275.039 2191.11 275.039 Q2191.6 275.039 2191.63 275.533 Q2191.63 275.78 2190.96 276.398 Q2182.81 284.698 2182.83 300.335 Q2182.83 316.022 2190.76 324.001 Q2191.63 324.866 2191.63 325.137 Q2191.63 325.632 2191.11 325.632 Q2190.76 325.632 2189.55 324.619 Q2188.34 323.606 2186.46 321.284 Q2184.59 318.962 2183.23 316.121 Q2179.89 309.229 2179.89 300.335 Z" fill="#000000" fill-rule="nonzero" fill-opacity="1" /><path clip-path="url(#clip960)" d="M2195.9 304.634 L2195.9 303.077 L2211.44 279.337 Q2211.83 278.72 2212.45 278.745 Q2213.02 278.745 2213.14 278.967 Q2213.27 279.189 2213.27 280.054 L2213.27 303.077 L2218.33 303.077 L2218.33 304.634 L2213.27 304.634 L2213.27 309.031 Q2213.27 310.488 2213.86 310.958 Q2214.48 311.427 2217.1 311.427 L2218.16 311.427 L2218.16 312.983 Q2216.08 312.835 2211.29 312.835 Q2206.52 312.835 2204.45 312.983 L2204.45 311.427 L2205.51 311.427 Q2208.13 311.427 2208.75 310.982 Q2209.36 310.513 2209.36 309.031 L2209.36 304.634 L2195.9 304.634 M2197.33 303.077 L2209.66 303.077 L2209.66 284.204 L2197.33 303.077 Z" fill="#000000" fill-rule="nonzero" fill-opacity="1" /><path clip-path="url(#clip960)" d="M2222.68 325.137 Q2222.68 324.89 2223.32 324.273 Q2231.47 315.973 2231.47 300.335 Q2231.47 284.649 2223.64 276.719 Q2222.68 275.805 2222.68 275.533 Q2222.68 275.039 2223.17 275.039 Q2223.52 275.039 2224.73 276.052 Q2225.96 277.065 2227.82 279.387 Q2229.69 281.709 2231.08 284.55 Q2234.41 291.442 2234.41 300.335 Q2234.41 308.883 2231.23 315.775 Q2229.87 318.665 2227.96 321.086 Q2226.06 323.507 2224.8 324.569 Q2223.54 325.632 2223.17 325.632 Q2222.68 325.632 2222.68 325.137 Z" fill="#000000" fill-rule="nonzero" fill-opacity="1" /></svg>
