<?xml version="1.0" encoding="utf-8"?>
<svg xmlns="http://www.w3.org/2000/svg" xmlns:xlink="http://www.w3.org/1999/xlink" width="576" height="384" viewBox="0 0 2304 1536">
<defs>
  <clipPath id="clip680">
    <rect x="0" y="0" width="2304" height="1536"/>
  </clipPath>
</defs>
<path clip-path="url(#clip680)" d="M0 1536 L2304 1536 L2304 0 L0 0  Z" fill="#ffffff" fill-rule="evenodd" fill-opacity="1"/>
<defs>
  <clipPath id="clip681">
    <rect x="460" y="0" width="1614" height="1536"/>
  </clipPath>
</defs>
<path clip-path="url(#clip680)" d="M298.791 1280.22 L1838.85 1280.22 L1838.85 47.2441 L298.791 47.2441  Z" fill="#ffffff" fill-rule="evenodd" fill-opacity="1"/>
<defs>
  <clipPath id="clip682">
    <rect x="298" y="47" width="1541" height="1234"/>
  </clipPath>
</defs>
<polyline clip-path="url(#clip682)" style="stroke:#000000; stroke-linecap:round; stroke-linejoin:round; stroke-width:2.8; stroke-opacity:0.4; fill:none" points="449.803,1280.22 449.803,47.2441 "/>
<polyline clip-path="url(#clip682)" style="stroke:#000000; stroke-linecap:round; stroke-linejoin:round; stroke-width:2.8; stroke-opacity:0.4; fill:none" points="744.297,1280.22 744.297,47.2441 "/>
<polyline clip-path="url(#clip682)" style="stroke:#000000; stroke-linecap:round; stroke-linejoin:round; stroke-width:2.8; stroke-opacity:0.4; fill:none" points="1038.79,1280.22 1038.79,47.2441 "/>
<polyline clip-path="url(#clip682)" style="stroke:#000000; stroke-linecap:round; stroke-linejoin:round; stroke-width:2.8; stroke-opacity:0.4; fill:none" points="1333.29,1280.22 1333.29,47.2441 "/>
<polyline clip-path="url(#clip682)" style="stroke:#000000; stroke-linecap:round; stroke-linejoin:round; stroke-width:2.8; stroke-opacity:0.4; fill:none" points="1627.78,1280.22 1627.78,47.2441 "/>
<polyline clip-path="url(#clip682)" style="stroke:#000000; stroke-linecap:round; stroke-linejoin:round; stroke-width:2; stroke-opacity:0.06; fill:none" points="350.487,1280.22 350.487,47.2441 "/>
<polyline clip-path="url(#clip682)" style="stroke:#000000; stroke-linecap:round; stroke-linejoin:round; stroke-width:2; stroke-opacity:0.06; fill:none" points="392.724,1280.22 392.724,47.2441 "/>
<polyline clip-path="url(#clip682)" style="stroke:#000000; stroke-linecap:round; stroke-linejoin:round; stroke-width:2; stroke-opacity:0.06; fill:none" points="424.422,1280.22 424.422,47.2441 "/>
<polyline clip-path="url(#clip682)" style="stroke:#000000; stroke-linecap:round; stroke-linejoin:round; stroke-width:2; stroke-opacity:0.06; fill:none" points="581.488,1280.22 581.488,47.2441 "/>
<polyline clip-path="url(#clip682)" style="stroke:#000000; stroke-linecap:round; stroke-linejoin:round; stroke-width:2; stroke-opacity:0.06; fill:none" points="644.981,1280.22 644.981,47.2441 "/>
<polyline clip-path="url(#clip682)" style="stroke:#000000; stroke-linecap:round; stroke-linejoin:round; stroke-width:2; stroke-opacity:0.06; fill:none" points="687.218,1280.22 687.218,47.2441 "/>
<polyline clip-path="url(#clip682)" style="stroke:#000000; stroke-linecap:round; stroke-linejoin:round; stroke-width:2; stroke-opacity:0.06; fill:none" points="718.916,1280.22 718.916,47.2441 "/>
<polyline clip-path="url(#clip682)" style="stroke:#000000; stroke-linecap:round; stroke-linejoin:round; stroke-width:2; stroke-opacity:0.06; fill:none" points="875.982,1280.22 875.982,47.2441 "/>
<polyline clip-path="url(#clip682)" style="stroke:#000000; stroke-linecap:round; stroke-linejoin:round; stroke-width:2; stroke-opacity:0.06; fill:none" points="939.475,1280.22 939.475,47.2441 "/>
<polyline clip-path="url(#clip682)" style="stroke:#000000; stroke-linecap:round; stroke-linejoin:round; stroke-width:2; stroke-opacity:0.06; fill:none" points="981.712,1280.22 981.712,47.2441 "/>
<polyline clip-path="url(#clip682)" style="stroke:#000000; stroke-linecap:round; stroke-linejoin:round; stroke-width:2; stroke-opacity:0.06; fill:none" points="1013.41,1280.22 1013.41,47.2441 "/>
<polyline clip-path="url(#clip682)" style="stroke:#000000; stroke-linecap:round; stroke-linejoin:round; stroke-width:2; stroke-opacity:0.06; fill:none" points="1170.48,1280.22 1170.48,47.2441 "/>
<polyline clip-path="url(#clip682)" style="stroke:#000000; stroke-linecap:round; stroke-linejoin:round; stroke-width:2; stroke-opacity:0.06; fill:none" points="1233.97,1280.22 1233.97,47.2441 "/>
<polyline clip-path="url(#clip682)" style="stroke:#000000; stroke-linecap:round; stroke-linejoin:round; stroke-width:2; stroke-opacity:0.06; fill:none" points="1276.21,1280.22 1276.21,47.2441 "/>
<polyline clip-path="url(#clip682)" style="stroke:#000000; stroke-linecap:round; stroke-linejoin:round; stroke-width:2; stroke-opacity:0.06; fill:none" points="1307.9,1280.22 1307.9,47.2441 "/>
<polyline clip-path="url(#clip682)" style="stroke:#000000; stroke-linecap:round; stroke-linejoin:round; stroke-width:2; stroke-opacity:0.06; fill:none" points="1464.97,1280.22 1464.97,47.2441 "/>
<polyline clip-path="url(#clip682)" style="stroke:#000000; stroke-linecap:round; stroke-linejoin:round; stroke-width:2; stroke-opacity:0.06; fill:none" points="1528.46,1280.22 1528.46,47.2441 "/>
<polyline clip-path="url(#clip682)" style="stroke:#000000; stroke-linecap:round; stroke-linejoin:round; stroke-width:2; stroke-opacity:0.06; fill:none" points="1570.7,1280.22 1570.7,47.2441 "/>
<polyline clip-path="url(#clip682)" style="stroke:#000000; stroke-linecap:round; stroke-linejoin:round; stroke-width:2; stroke-opacity:0.06; fill:none" points="1602.4,1280.22 1602.4,47.2441 "/>
<polyline clip-path="url(#clip682)" style="stroke:#000000; stroke-linecap:round; stroke-linejoin:round; stroke-width:2; stroke-opacity:0.06; fill:none" points="1759.46,1280.22 1759.46,47.2441 "/>
<polyline clip-path="url(#clip682)" style="stroke:#000000; stroke-linecap:round; stroke-linejoin:round; stroke-width:2; stroke-opacity:0.06; fill:none" points="1822.96,1280.22 1822.96,47.2441 "/>
<polyline clip-path="url(#clip680)" style="stroke:#000000; stroke-linecap:round; stroke-linejoin:round; stroke-width:4; stroke-opacity:1; fill:none" points="298.791,1280.22 1838.85,1280.22 "/>
<polyline clip-path="url(#clip680)" style="stroke:#000000; stroke-linecap:round; stroke-linejoin:round; stroke-width:4; stroke-opacity:1; fill:none" points="298.791,47.2441 1838.85,47.2441 "/>
<polyline clip-path="url(#clip680)" style="stroke:#000000; stroke-linecap:round; stroke-linejoin:round; stroke-width:4; stroke-opacity:1; fill:none" points="449.803,1280.22 449.803,1261.33 "/>
<polyline clip-path="url(#clip680)" style="stroke:#000000; stroke-linecap:round; stroke-linejoin:round; stroke-width:4; stroke-opacity:1; fill:none" points="744.297,1280.22 744.297,1261.33 "/>
<polyline clip-path="url(#clip680)" style="stroke:#000000; stroke-linecap:round; stroke-linejoin:round; stroke-width:4; stroke-opacity:1; fill:none" points="1038.79,1280.22 1038.79,1261.33 "/>
<polyline clip-path="url(#clip680)" style="stroke:#000000; stroke-linecap:round; stroke-linejoin:round; stroke-width:4; stroke-opacity:1; fill:none" points="1333.29,1280.22 1333.29,1261.33 "/>
<polyline clip-path="url(#clip680)" style="stroke:#000000; stroke-linecap:round; stroke-linejoin:round; stroke-width:4; stroke-opacity:1; fill:none" points="1627.78,1280.22 1627.78,1261.33 "/>
<polyline clip-path="url(#clip680)" style="stroke:#000000; stroke-linecap:round; stroke-linejoin:round; stroke-width:4; stroke-opacity:1; fill:none" points="350.487,1280.22 350.487,1270.78 "/>
<polyline clip-path="url(#clip680)" style="stroke:#000000; stroke-linecap:round; stroke-linejoin:round; stroke-width:4; stroke-opacity:1; fill:none" points="392.724,1280.22 392.724,1270.78 "/>
<polyline clip-path="url(#clip680)" style="stroke:#000000; stroke-linecap:round; stroke-linejoin:round; stroke-width:4; stroke-opacity:1; fill:none" points="424.422,1280.22 424.422,1270.78 "/>
<polyline clip-path="url(#clip680)" style="stroke:#000000; stroke-linecap:round; stroke-linejoin:round; stroke-width:4; stroke-opacity:1; fill:none" points="581.488,1280.22 581.488,1270.78 "/>
<polyline clip-path="url(#clip680)" style="stroke:#000000; stroke-linecap:round; stroke-linejoin:round; stroke-width:4; stroke-opacity:1; fill:none" points="644.981,1280.22 644.981,1270.78 "/>
<polyline clip-path="url(#clip680)" style="stroke:#000000; stroke-linecap:round; stroke-linejoin:round; stroke-width:4; stroke-opacity:1; fill:none" points="687.218,1280.22 687.218,1270.78 "/>
<polyline clip-path="url(#clip680)" style="stroke:#000000; stroke-linecap:round; stroke-linejoin:round; stroke-width:4; stroke-opacity:1; fill:none" points="718.916,1280.22 718.916,1270.78 "/>
<polyline clip-path="url(#clip680)" style="stroke:#000000; stroke-linecap:round; stroke-linejoin:round; stroke-width:4; stroke-opacity:1; fill:none" points="875.982,1280.22 875.982,1270.78 "/>
<polyline clip-path="url(#clip680)" style="stroke:#000000; stroke-linecap:round; stroke-linejoin:round; stroke-width:4; stroke-opacity:1; fill:none" points="939.475,1280.22 939.475,1270.78 "/>
<polyline clip-path="url(#clip680)" style="stroke:#000000; stroke-linecap:round; stroke-linejoin:round; stroke-width:4; stroke-opacity:1; fill:none" points="981.712,1280.22 981.712,1270.78 "/>
<polyline clip-path="url(#clip680)" style="stroke:#000000; stroke-linecap:round; stroke-linejoin:round; stroke-width:4; stroke-opacity:1; fill:none" points="1013.41,1280.22 1013.41,1270.78 "/>
<polyline clip-path="url(#clip680)" style="stroke:#000000; stroke-linecap:round; stroke-linejoin:round; stroke-width:4; stroke-opacity:1; fill:none" points="1170.48,1280.22 1170.48,1270.78 "/>
<polyline clip-path="url(#clip680)" style="stroke:#000000; stroke-linecap:round; stroke-linejoin:round; stroke-width:4; stroke-opacity:1; fill:none" points="1233.97,1280.22 1233.97,1270.78 "/>
<polyline clip-path="url(#clip680)" style="stroke:#000000; stroke-linecap:round; stroke-linejoin:round; stroke-width:4; stroke-opacity:1; fill:none" points="1276.21,1280.22 1276.21,1270.78 "/>
<polyline clip-path="url(#clip680)" style="stroke:#000000; stroke-linecap:round; stroke-linejoin:round; stroke-width:4; stroke-opacity:1; fill:none" points="1307.9,1280.22 1307.9,1270.78 "/>
<polyline clip-path="url(#clip680)" style="stroke:#000000; stroke-linecap:round; stroke-linejoin:round; stroke-width:4; stroke-opacity:1; fill:none" points="1464.97,1280.22 1464.97,1270.78 "/>
<polyline clip-path="url(#clip680)" style="stroke:#000000; stroke-linecap:round; stroke-linejoin:round; stroke-width:4; stroke-opacity:1; fill:none" points="1528.46,1280.22 1528.46,1270.78 "/>
<polyline clip-path="url(#clip680)" style="stroke:#000000; stroke-linecap:round; stroke-linejoin:round; stroke-width:4; stroke-opacity:1; fill:none" points="1570.7,1280.22 1570.7,1270.78 "/>
<polyline clip-path="url(#clip680)" style="stroke:#000000; stroke-linecap:round; stroke-linejoin:round; stroke-width:4; stroke-opacity:1; fill:none" points="1602.4,1280.22 1602.4,1270.78 "/>
<polyline clip-path="url(#clip680)" style="stroke:#000000; stroke-linecap:round; stroke-linejoin:round; stroke-width:4; stroke-opacity:1; fill:none" points="1759.46,1280.22 1759.46,1270.78 "/>
<polyline clip-path="url(#clip680)" style="stroke:#000000; stroke-linecap:round; stroke-linejoin:round; stroke-width:4; stroke-opacity:1; fill:none" points="1822.96,1280.22 1822.96,1270.78 "/>
<path clip-path="url(#clip680)" d="M393.265 1328.64 L393.265 1327.06 Q399.342 1327.06 402.479 1323.82 Q403.344 1323.82 403.492 1324.02 Q403.64 1324.22 403.64 1325.13 L403.64 1353.51 Q403.64 1355.02 404.381 1355.49 Q405.122 1355.96 408.358 1355.96 L409.964 1355.96 L409.964 1357.52 Q408.185 1357.37 401.763 1357.37 Q395.34 1357.37 393.586 1357.52 L393.586 1355.96 L395.191 1355.96 Q398.378 1355.96 399.144 1355.52 Q399.91 1355.05 399.91 1353.51 L399.91 1327.3 Q397.267 1328.64 393.265 1328.64 Z" fill="#000000" fill-rule="nonzero" fill-opacity="1" /><path clip-path="url(#clip680)" d="M416.041 1341.34 Q416.041 1333.9 417.919 1329.85 Q420.537 1323.82 426.713 1323.82 Q428.022 1323.82 429.381 1324.19 Q430.764 1324.54 432.493 1325.9 Q434.247 1327.25 435.31 1329.48 Q437.335 1333.78 437.335 1341.34 Q437.335 1348.72 435.458 1352.75 Q432.716 1358.63 426.664 1358.63 Q424.391 1358.63 422.069 1357.47 Q419.771 1356.31 418.314 1353.51 Q416.041 1349.34 416.041 1341.34 M420.241 1340.72 Q420.241 1348.35 420.784 1351.39 Q421.402 1354.68 423.082 1356.11 Q424.786 1357.52 426.664 1357.52 Q428.689 1357.52 430.369 1356.01 Q432.074 1354.48 432.592 1351.19 Q433.16 1347.96 433.136 1340.72 Q433.136 1333.68 432.642 1330.86 Q431.975 1327.58 430.196 1326.27 Q428.442 1324.93 426.664 1324.93 Q425.997 1324.93 425.28 1325.13 Q424.588 1325.33 423.576 1325.9 Q422.563 1326.46 421.772 1327.87 Q421.006 1329.28 420.636 1331.41 Q420.241 1334.15 420.241 1340.72 Z" fill="#000000" fill-rule="nonzero" fill-opacity="1" /><path clip-path="url(#clip680)" d="M464.472 1319.25 Q464.713 1319.49 464.713 1319.83 Q464.713 1320.17 464.472 1320.41 Q464.231 1320.65 463.89 1320.65 L438.158 1320.65 Q437.817 1320.65 437.576 1320.41 Q437.335 1320.17 437.335 1319.83 Q437.335 1319.49 437.576 1319.25 Q437.817 1319.01 438.158 1319.01 L463.89 1319.01 Q464.231 1319.01 464.472 1319.25 Z" fill="#000000" fill-rule="nonzero" fill-opacity="1" /><path clip-path="url(#clip680)" d="M470.654 1306.64 L470.654 1305.36 Q475.592 1305.36 478.141 1302.73 Q478.843 1302.73 478.964 1302.89 Q479.084 1303.05 479.084 1303.79 L479.084 1326.85 Q479.084 1328.08 479.686 1328.46 Q480.288 1328.84 482.918 1328.84 L484.222 1328.84 L484.222 1330.11 Q482.777 1329.99 477.559 1329.99 Q472.34 1329.99 470.915 1330.11 L470.915 1328.84 L472.22 1328.84 Q474.809 1328.84 475.431 1328.48 Q476.053 1328.1 476.053 1326.85 L476.053 1305.56 Q473.906 1306.64 470.654 1306.64 Z" fill="#000000" fill-rule="nonzero" fill-opacity="1" /><path clip-path="url(#clip680)" d="M489.28 1324.57 Q489.28 1323.34 489.983 1322.76 Q490.685 1322.18 491.589 1322.18 Q492.532 1322.18 493.194 1322.8 Q493.877 1323.4 493.877 1324.47 Q493.877 1325.61 493.074 1326.25 Q492.291 1326.89 491.167 1326.73 Q492.151 1328.38 493.957 1329.12 Q495.784 1329.87 497.47 1329.87 Q499.236 1329.87 500.661 1328.34 Q502.106 1326.81 502.106 1323.08 Q502.106 1319.91 500.862 1318.08 Q499.637 1316.26 497.209 1316.26 L495.402 1316.26 Q494.78 1316.26 494.599 1316.2 Q494.419 1316.14 494.419 1315.8 Q494.419 1315.39 495.041 1315.31 Q495.663 1315.31 496.647 1315.19 Q499.035 1315.11 500.3 1313.05 Q501.444 1311.12 501.444 1308.37 Q501.444 1305.86 500.239 1304.82 Q499.055 1303.75 497.51 1303.75 Q496.065 1303.75 494.479 1304.35 Q492.893 1304.96 492.03 1306.3 Q494.579 1306.3 494.579 1308.37 Q494.579 1309.27 493.997 1309.87 Q493.435 1310.46 492.492 1310.46 Q491.589 1310.46 490.986 1309.89 Q490.384 1309.31 490.384 1308.33 Q490.384 1305.98 492.472 1304.35 Q494.579 1302.73 497.67 1302.73 Q500.721 1302.73 502.969 1304.33 Q505.237 1305.94 505.237 1308.41 Q505.237 1310.84 503.631 1312.82 Q502.026 1314.81 499.477 1315.63 Q502.608 1316.26 504.474 1318.38 Q506.341 1320.49 506.341 1323.08 Q506.341 1326.29 503.812 1328.66 Q501.283 1331.01 497.59 1331.01 Q494.178 1331.01 491.729 1329.16 Q489.28 1327.32 489.28 1324.57 Z" fill="#000000" fill-rule="nonzero" fill-opacity="1" /><path clip-path="url(#clip680)" d="M687.919 1328.64 L687.919 1327.06 Q693.996 1327.06 697.134 1323.82 Q697.998 1323.82 698.146 1324.02 Q698.295 1324.22 698.295 1325.13 L698.295 1353.51 Q698.295 1355.02 699.036 1355.49 Q699.777 1355.96 703.013 1355.96 L704.619 1355.96 L704.619 1357.52 Q702.84 1357.37 696.417 1357.37 Q689.994 1357.37 688.24 1357.52 L688.24 1355.96 L689.846 1355.96 Q693.033 1355.96 693.799 1355.52 Q694.564 1355.05 694.564 1353.51 L694.564 1327.3 Q691.921 1328.64 687.919 1328.64 Z" fill="#000000" fill-rule="nonzero" fill-opacity="1" /><path clip-path="url(#clip680)" d="M710.696 1341.34 Q710.696 1333.9 712.573 1329.85 Q715.192 1323.82 721.368 1323.82 Q722.677 1323.82 724.036 1324.19 Q725.419 1324.54 727.148 1325.9 Q728.902 1327.25 729.964 1329.48 Q731.99 1333.78 731.99 1341.34 Q731.99 1348.72 730.113 1352.75 Q727.37 1358.63 721.318 1358.63 Q719.045 1358.63 716.723 1357.47 Q714.426 1356.31 712.968 1353.51 Q710.696 1349.34 710.696 1341.34 M714.895 1340.72 Q714.895 1348.35 715.439 1351.39 Q716.056 1354.68 717.736 1356.11 Q719.441 1357.52 721.318 1357.52 Q723.344 1357.52 725.024 1356.01 Q726.728 1354.48 727.247 1351.19 Q727.815 1347.96 727.79 1340.72 Q727.79 1333.68 727.296 1330.86 Q726.629 1327.58 724.851 1326.27 Q723.097 1324.93 721.318 1324.93 Q720.651 1324.93 719.935 1325.13 Q719.243 1325.33 718.23 1325.9 Q717.217 1326.46 716.427 1327.87 Q715.661 1329.28 715.291 1331.41 Q714.895 1334.15 714.895 1340.72 Z" fill="#000000" fill-rule="nonzero" fill-opacity="1" /><path clip-path="url(#clip680)" d="M759.127 1319.25 Q759.368 1319.49 759.368 1319.83 Q759.368 1320.17 759.127 1320.41 Q758.886 1320.65 758.545 1320.65 L732.813 1320.65 Q732.472 1320.65 732.231 1320.41 Q731.99 1320.17 731.99 1319.83 Q731.99 1319.49 732.231 1319.25 Q732.472 1319.01 732.813 1319.01 L758.545 1319.01 Q758.886 1319.01 759.127 1319.25 Z" fill="#000000" fill-rule="nonzero" fill-opacity="1" /><path clip-path="url(#clip680)" d="M765.309 1306.64 L765.309 1305.36 Q770.246 1305.36 772.795 1302.73 Q773.498 1302.73 773.618 1302.89 Q773.739 1303.05 773.739 1303.79 L773.739 1326.85 Q773.739 1328.08 774.341 1328.46 Q774.943 1328.84 777.572 1328.84 L778.877 1328.84 L778.877 1330.11 Q777.432 1329.99 772.213 1329.99 Q766.995 1329.99 765.57 1330.11 L765.57 1328.84 L766.874 1328.84 Q769.463 1328.84 770.086 1328.48 Q770.708 1328.1 770.708 1326.85 L770.708 1305.56 Q768.56 1306.64 765.309 1306.64 Z" fill="#000000" fill-rule="nonzero" fill-opacity="1" /><path clip-path="url(#clip680)" d="M784.256 1330.11 Q784.256 1329.36 784.316 1329.14 Q784.397 1328.92 784.718 1328.58 L792.606 1319.79 Q796.921 1314.93 796.921 1310.7 Q796.921 1307.95 795.476 1305.98 Q794.051 1304.01 791.422 1304.01 Q789.615 1304.01 788.09 1305.12 Q786.564 1306.22 785.862 1308.19 Q785.982 1308.15 786.404 1308.15 Q787.427 1308.15 787.989 1308.79 Q788.572 1309.43 788.572 1310.3 Q788.572 1311.4 787.849 1311.94 Q787.146 1312.46 786.444 1312.46 Q786.163 1312.46 785.782 1312.4 Q785.42 1312.34 784.838 1311.78 Q784.256 1311.2 784.256 1310.18 Q784.256 1307.3 786.424 1305.02 Q788.612 1302.73 791.944 1302.73 Q795.717 1302.73 798.186 1304.98 Q800.675 1307.2 800.675 1310.7 Q800.675 1311.92 800.293 1313.05 Q799.932 1314.15 799.43 1315.01 Q798.948 1315.88 797.624 1317.26 Q796.299 1318.65 795.235 1319.63 Q794.171 1320.61 791.783 1322.7 L787.427 1326.93 L794.834 1326.93 Q798.447 1326.93 798.728 1326.61 Q799.129 1326.03 799.631 1322.96 L800.675 1322.96 L799.51 1330.11 L784.256 1330.11 Z" fill="#000000" fill-rule="nonzero" fill-opacity="1" /><path clip-path="url(#clip680)" d="M983.036 1328.64 L983.036 1327.06 Q989.113 1327.06 992.25 1323.82 Q993.114 1323.82 993.263 1324.02 Q993.411 1324.22 993.411 1325.13 L993.411 1353.51 Q993.411 1355.02 994.152 1355.49 Q994.893 1355.96 998.129 1355.96 L999.735 1355.96 L999.735 1357.52 Q997.956 1357.37 991.533 1357.37 Q985.111 1357.37 983.357 1357.52 L983.357 1355.96 L984.962 1355.96 Q988.149 1355.96 988.915 1355.52 Q989.681 1355.05 989.681 1353.51 L989.681 1327.3 Q987.037 1328.64 983.036 1328.64 Z" fill="#000000" fill-rule="nonzero" fill-opacity="1" /><path clip-path="url(#clip680)" d="M1005.81 1341.34 Q1005.81 1333.9 1007.69 1329.85 Q1010.31 1323.82 1016.48 1323.82 Q1017.79 1323.82 1019.15 1324.19 Q1020.54 1324.54 1022.26 1325.9 Q1024.02 1327.25 1025.08 1329.48 Q1027.11 1333.78 1027.11 1341.34 Q1027.11 1348.72 1025.23 1352.75 Q1022.49 1358.63 1016.43 1358.63 Q1014.16 1358.63 1011.84 1357.47 Q1009.54 1356.31 1008.08 1353.51 Q1005.81 1349.34 1005.81 1341.34 M1010.01 1340.72 Q1010.01 1348.35 1010.56 1351.39 Q1011.17 1354.68 1012.85 1356.11 Q1014.56 1357.52 1016.43 1357.52 Q1018.46 1357.52 1020.14 1356.01 Q1021.84 1354.48 1022.36 1351.19 Q1022.93 1347.96 1022.91 1340.72 Q1022.91 1333.68 1022.41 1330.86 Q1021.75 1327.58 1019.97 1326.27 Q1018.21 1324.93 1016.43 1324.93 Q1015.77 1324.93 1015.05 1325.13 Q1014.36 1325.33 1013.35 1325.9 Q1012.33 1326.46 1011.54 1327.87 Q1010.78 1329.28 1010.41 1331.41 Q1010.01 1334.15 1010.01 1340.72 Z" fill="#000000" fill-rule="nonzero" fill-opacity="1" /><path clip-path="url(#clip680)" d="M1054.24 1319.25 Q1054.48 1319.49 1054.48 1319.83 Q1054.48 1320.17 1054.24 1320.41 Q1054 1320.65 1053.66 1320.65 L1027.93 1320.65 Q1027.59 1320.65 1027.35 1320.41 Q1027.11 1320.17 1027.11 1319.83 Q1027.11 1319.49 1027.35 1319.25 Q1027.59 1319.01 1027.93 1319.01 L1053.66 1319.01 Q1054 1319.01 1054.24 1319.25 Z" fill="#000000" fill-rule="nonzero" fill-opacity="1" /><path clip-path="url(#clip680)" d="M1060.42 1306.64 L1060.42 1305.36 Q1065.36 1305.36 1067.91 1302.73 Q1068.61 1302.73 1068.73 1302.89 Q1068.85 1303.05 1068.85 1303.79 L1068.85 1326.85 Q1068.85 1328.08 1069.46 1328.46 Q1070.06 1328.84 1072.69 1328.84 L1073.99 1328.84 L1073.99 1330.11 Q1072.55 1329.99 1067.33 1329.99 Q1062.11 1329.99 1060.69 1330.11 L1060.69 1328.84 L1061.99 1328.84 Q1064.58 1328.84 1065.2 1328.48 Q1065.82 1328.1 1065.82 1326.85 L1065.82 1305.56 Q1063.68 1306.64 1060.42 1306.64 Z" fill="#000000" fill-rule="nonzero" fill-opacity="1" /><path clip-path="url(#clip680)" d="M1080.98 1306.64 L1080.98 1305.36 Q1085.92 1305.36 1088.46 1302.73 Q1089.17 1302.73 1089.29 1302.89 Q1089.41 1303.05 1089.41 1303.79 L1089.41 1326.85 Q1089.41 1328.08 1090.01 1328.46 Q1090.61 1328.84 1093.24 1328.84 L1094.55 1328.84 L1094.55 1330.11 Q1093.1 1329.99 1087.88 1329.99 Q1082.66 1329.99 1081.24 1330.11 L1081.24 1328.84 L1082.54 1328.84 Q1085.13 1328.84 1085.76 1328.48 Q1086.38 1328.1 1086.38 1326.85 L1086.38 1305.56 Q1084.23 1306.64 1080.98 1306.64 Z" fill="#000000" fill-rule="nonzero" fill-opacity="1" /><path clip-path="url(#clip680)" d="M1276.69 1328.64 L1276.69 1327.06 Q1282.76 1327.06 1285.9 1323.82 Q1286.77 1323.82 1286.91 1324.02 Q1287.06 1324.22 1287.06 1325.13 L1287.06 1353.51 Q1287.06 1355.02 1287.8 1355.49 Q1288.54 1355.96 1291.78 1355.96 L1293.39 1355.96 L1293.39 1357.52 Q1291.61 1357.37 1285.18 1357.37 Q1278.76 1357.37 1277.01 1357.52 L1277.01 1355.96 L1278.61 1355.96 Q1281.8 1355.96 1282.57 1355.52 Q1283.33 1355.05 1283.33 1353.51 L1283.33 1327.3 Q1280.69 1328.64 1276.69 1328.64 Z" fill="#000000" fill-rule="nonzero" fill-opacity="1" /><path clip-path="url(#clip680)" d="M1299.46 1341.34 Q1299.46 1333.9 1301.34 1329.85 Q1303.96 1323.82 1310.13 1323.82 Q1311.44 1323.82 1312.8 1324.19 Q1314.19 1324.54 1315.92 1325.9 Q1317.67 1327.25 1318.73 1329.48 Q1320.76 1333.78 1320.76 1341.34 Q1320.76 1348.72 1318.88 1352.75 Q1316.14 1358.63 1310.09 1358.63 Q1307.81 1358.63 1305.49 1357.47 Q1303.19 1356.31 1301.74 1353.51 Q1299.46 1349.34 1299.46 1341.34 M1303.66 1340.72 Q1303.66 1348.35 1304.21 1351.39 Q1304.82 1354.68 1306.5 1356.11 Q1308.21 1357.52 1310.09 1357.52 Q1312.11 1357.52 1313.79 1356.01 Q1315.5 1354.48 1316.01 1351.19 Q1316.58 1347.96 1316.56 1340.72 Q1316.56 1333.68 1316.06 1330.86 Q1315.4 1327.58 1313.62 1326.27 Q1311.86 1324.93 1310.09 1324.93 Q1309.42 1324.93 1308.7 1325.13 Q1308.01 1325.33 1307 1325.9 Q1305.98 1326.46 1305.19 1327.87 Q1304.43 1329.28 1304.06 1331.41 Q1303.66 1334.15 1303.66 1340.72 Z" fill="#000000" fill-rule="nonzero" fill-opacity="1" /><path clip-path="url(#clip680)" d="M1347.89 1319.25 Q1348.13 1319.49 1348.13 1319.83 Q1348.13 1320.17 1347.89 1320.41 Q1347.65 1320.65 1347.31 1320.65 L1321.58 1320.65 Q1321.24 1320.65 1321 1320.41 Q1320.76 1320.17 1320.76 1319.83 Q1320.76 1319.49 1321 1319.25 Q1321.24 1319.01 1321.58 1319.01 L1347.31 1319.01 Q1347.65 1319.01 1347.89 1319.25 Z" fill="#000000" fill-rule="nonzero" fill-opacity="1" /><path clip-path="url(#clip680)" d="M1354.08 1306.64 L1354.08 1305.36 Q1359.01 1305.36 1361.56 1302.73 Q1362.27 1302.73 1362.39 1302.89 Q1362.51 1303.05 1362.51 1303.79 L1362.51 1326.85 Q1362.51 1328.08 1363.11 1328.46 Q1363.71 1328.84 1366.34 1328.84 L1367.64 1328.84 L1367.64 1330.11 Q1366.2 1329.99 1360.98 1329.99 Q1355.76 1329.99 1354.34 1330.11 L1354.34 1328.84 L1355.64 1328.84 Q1358.23 1328.84 1358.85 1328.48 Q1359.48 1328.1 1359.48 1326.85 L1359.48 1305.56 Q1357.33 1306.64 1354.08 1306.64 Z" fill="#000000" fill-rule="nonzero" fill-opacity="1" /><path clip-path="url(#clip680)" d="M1372.58 1316.96 Q1372.58 1310.92 1374.11 1307.63 Q1376.23 1302.73 1381.25 1302.73 Q1382.32 1302.73 1383.42 1303.03 Q1384.54 1303.31 1385.95 1304.41 Q1387.37 1305.52 1388.24 1307.32 Q1389.88 1310.82 1389.88 1316.96 Q1389.88 1322.96 1388.36 1326.23 Q1386.13 1331.01 1381.21 1331.01 Q1379.37 1331.01 1377.48 1330.07 Q1375.61 1329.12 1374.43 1326.85 Q1372.58 1323.46 1372.58 1316.96 M1375.99 1316.46 Q1375.99 1322.66 1376.44 1325.13 Q1376.94 1327.8 1378.3 1328.96 Q1379.69 1330.11 1381.21 1330.11 Q1382.86 1330.11 1384.22 1328.88 Q1385.61 1327.64 1386.03 1324.97 Q1386.49 1322.34 1386.47 1316.46 Q1386.47 1310.74 1386.07 1308.45 Q1385.53 1305.78 1384.08 1304.72 Q1382.66 1303.63 1381.21 1303.63 Q1380.67 1303.63 1380.09 1303.79 Q1379.53 1303.95 1378.7 1304.41 Q1377.88 1304.88 1377.24 1306.02 Q1376.62 1307.16 1376.32 1308.89 Q1375.99 1311.12 1375.99 1316.46 Z" fill="#000000" fill-rule="nonzero" fill-opacity="1" /><path clip-path="url(#clip680)" d="M1581.52 1328.64 L1581.52 1327.06 Q1587.59 1327.06 1590.73 1323.82 Q1591.6 1323.82 1591.74 1324.02 Q1591.89 1324.22 1591.89 1325.13 L1591.89 1353.51 Q1591.89 1355.02 1592.63 1355.49 Q1593.38 1355.96 1596.61 1355.96 L1598.22 1355.96 L1598.22 1357.52 Q1596.44 1357.37 1590.02 1357.37 Q1583.59 1357.37 1581.84 1357.52 L1581.84 1355.96 L1583.44 1355.96 Q1586.63 1355.96 1587.4 1355.52 Q1588.16 1355.05 1588.16 1353.51 L1588.16 1327.3 Q1585.52 1328.64 1581.52 1328.64 Z" fill="#000000" fill-rule="nonzero" fill-opacity="1" /><path clip-path="url(#clip680)" d="M1604.29 1341.34 Q1604.29 1333.9 1606.17 1329.85 Q1608.79 1323.82 1614.97 1323.82 Q1616.28 1323.82 1617.63 1324.19 Q1619.02 1324.54 1620.75 1325.9 Q1622.5 1327.25 1623.56 1329.48 Q1625.59 1333.78 1625.59 1341.34 Q1625.59 1348.72 1623.71 1352.75 Q1620.97 1358.63 1614.92 1358.63 Q1612.64 1358.63 1610.32 1357.47 Q1608.02 1356.31 1606.57 1353.51 Q1604.29 1349.34 1604.29 1341.34 M1608.49 1340.72 Q1608.49 1348.35 1609.04 1351.39 Q1609.65 1354.68 1611.33 1356.11 Q1613.04 1357.52 1614.92 1357.52 Q1616.94 1357.52 1618.62 1356.01 Q1620.33 1354.48 1620.85 1351.19 Q1621.41 1347.96 1621.39 1340.72 Q1621.39 1333.68 1620.89 1330.86 Q1620.23 1327.58 1618.45 1326.27 Q1616.7 1324.93 1614.92 1324.93 Q1614.25 1324.93 1613.53 1325.13 Q1612.84 1325.33 1611.83 1325.9 Q1610.82 1326.46 1610.03 1327.87 Q1609.26 1329.28 1608.89 1331.41 Q1608.49 1334.15 1608.49 1340.72 Z" fill="#000000" fill-rule="nonzero" fill-opacity="1" /><path clip-path="url(#clip680)" d="M1652.72 1319.25 Q1652.97 1319.49 1652.97 1319.83 Q1652.97 1320.17 1652.72 1320.41 Q1652.48 1320.65 1652.14 1320.65 L1626.41 1320.65 Q1626.07 1320.65 1625.83 1320.41 Q1625.59 1320.17 1625.59 1319.83 Q1625.59 1319.49 1625.83 1319.25 Q1626.07 1319.01 1626.41 1319.01 L1652.14 1319.01 Q1652.48 1319.01 1652.72 1319.25 Z" fill="#000000" fill-rule="nonzero" fill-opacity="1" /><path clip-path="url(#clip680)" d="M1656.98 1311.98 Q1656.98 1309.79 1657.62 1308.31 Q1658.26 1306.8 1659.61 1305.32 Q1662.08 1302.73 1665.65 1302.73 Q1667.18 1302.73 1668.52 1303.37 Q1669.89 1304.01 1671.17 1305.48 Q1672.48 1306.92 1673.26 1309.79 Q1674.04 1312.64 1674.04 1316.58 Q1674.04 1322.94 1670.95 1326.97 Q1667.88 1331.01 1663.72 1331.01 Q1661.09 1331.01 1659.55 1329.83 Q1658 1328.62 1658 1326.57 Q1658 1325.51 1658.61 1325.07 Q1659.21 1324.61 1659.89 1324.61 Q1660.63 1324.61 1661.22 1325.11 Q1661.8 1325.59 1661.8 1326.49 Q1661.8 1327.24 1661.32 1327.82 Q1660.85 1328.38 1659.65 1328.38 Q1660.83 1329.87 1663.68 1329.87 Q1664.71 1329.87 1665.73 1329.4 Q1666.75 1328.92 1667.86 1327.78 Q1668.98 1326.61 1669.67 1324.19 Q1670.35 1321.76 1670.35 1318.34 L1670.35 1317.04 Q1668.7 1321.15 1665.21 1321.15 Q1661.76 1321.15 1659.37 1318.5 Q1656.98 1315.86 1656.98 1311.98 M1660.67 1312.02 Q1660.67 1316.1 1661.42 1317.6 Q1662.68 1320.19 1665.25 1320.19 Q1667.76 1320.19 1669 1317.96 Q1670.27 1315.71 1670.27 1312.8 Q1670.27 1308.77 1669.61 1307 Q1668.38 1303.75 1665.65 1303.75 Q1662.94 1303.75 1661.54 1306.34 Q1660.67 1307.87 1660.67 1312.02 Z" fill="#000000" fill-rule="nonzero" fill-opacity="1" /><path clip-path="url(#clip680)" d="M869.966 1447.26 L869.966 1444.92 L871.781 1444.92 Q875.895 1444.92 876.821 1444.26 Q877.784 1443.55 877.784 1441.33 L877.784 1401.57 Q877.784 1399.38 876.821 1398.72 Q875.858 1398.01 871.781 1398.01 L869.966 1398.01 L869.966 1395.64 L912.69 1395.64 L914.802 1412.72 L912.913 1412.72 Q912.394 1408.39 911.69 1405.9 Q911.023 1403.38 909.355 1401.46 Q907.725 1399.53 905.02 1398.79 Q902.352 1398.01 898.016 1398.01 L888.234 1398.01 Q885.64 1398.01 885.084 1398.57 Q884.528 1399.09 884.528 1401.05 L884.528 1419.24 L891.347 1419.24 Q896.571 1419.24 898.053 1417.43 Q899.536 1415.61 899.536 1410.39 L901.463 1410.39 L901.463 1430.47 L899.536 1430.47 Q899.536 1425.32 898.053 1423.47 Q896.571 1421.62 891.347 1421.62 L884.528 1421.62 L884.528 1441.88 Q884.528 1443.85 885.084 1444.4 Q885.677 1444.92 888.234 1444.92 L898.35 1444.92 Q901.611 1444.92 903.982 1444.52 Q906.391 1444.07 908.058 1443.03 Q909.726 1441.96 910.837 1440.74 Q911.986 1439.51 912.764 1437.33 Q913.58 1435.1 914.024 1433.07 Q914.506 1431.03 915.025 1427.69 L916.915 1427.69 L913.728 1447.26 L869.966 1447.26 Z" fill="#000000" fill-rule="nonzero" fill-opacity="1" /><path clip-path="url(#clip680)" d="M921.139 1447.26 L921.139 1444.92 Q925.178 1444.92 926.104 1444.44 Q927.068 1443.92 927.068 1441.48 L927.068 1421.13 Q927.068 1418.32 926.067 1417.61 Q925.104 1416.91 921.139 1416.91 L921.139 1414.54 L931.699 1413.72 L931.699 1422.06 Q932.774 1418.8 935.034 1416.28 Q937.332 1413.72 941.037 1413.72 Q943.483 1413.72 945.039 1415.09 Q946.633 1416.46 946.633 1418.35 Q946.633 1420.02 945.595 1420.87 Q944.595 1421.69 943.372 1421.69 Q942.001 1421.69 941.037 1420.84 Q940.111 1419.95 940.111 1418.43 Q940.111 1417.5 940.519 1416.8 Q940.963 1416.06 941.297 1415.8 Q941.63 1415.54 941.853 1415.46 Q941.704 1415.39 941.037 1415.39 Q936.85 1415.39 934.442 1419.58 Q932.07 1423.73 932.07 1429.66 L932.07 1441.33 Q932.07 1443.51 932.959 1444.22 Q933.886 1444.92 937.851 1444.92 L939.444 1444.92 L939.444 1447.26 Q936.405 1447.03 929.81 1447.03 Q928.883 1447.03 927.438 1447.07 Q925.993 1447.11 924.103 1447.18 Q922.213 1447.26 921.139 1447.26 Z" fill="#000000" fill-rule="nonzero" fill-opacity="1" /><path clip-path="url(#clip680)" d="M950.783 1447.26 L950.783 1444.92 Q954.822 1444.92 955.748 1444.44 Q956.712 1443.92 956.712 1441.48 L956.712 1421.13 Q956.712 1418.32 955.711 1417.61 Q954.748 1416.91 950.783 1416.91 L950.783 1414.54 L961.343 1413.72 L961.343 1422.06 Q962.418 1418.8 964.678 1416.28 Q966.976 1413.72 970.681 1413.72 Q973.127 1413.72 974.683 1415.09 Q976.277 1416.46 976.277 1418.35 Q976.277 1420.02 975.239 1420.87 Q974.239 1421.69 973.016 1421.69 Q971.645 1421.69 970.681 1420.84 Q969.755 1419.95 969.755 1418.43 Q969.755 1417.5 970.163 1416.8 Q970.607 1416.06 970.941 1415.8 Q971.274 1415.54 971.497 1415.46 Q971.348 1415.39 970.681 1415.39 Q966.494 1415.39 964.086 1419.58 Q961.714 1423.73 961.714 1429.66 L961.714 1441.33 Q961.714 1443.51 962.603 1444.22 Q963.53 1444.92 967.495 1444.92 L969.088 1444.92 L969.088 1447.26 Q966.049 1447.03 959.454 1447.03 Q958.527 1447.03 957.082 1447.07 Q955.637 1447.11 953.747 1447.18 Q951.857 1447.26 950.783 1447.26 Z" fill="#000000" fill-rule="nonzero" fill-opacity="1" /><path clip-path="url(#clip680)" d="M985.429 1443.18 Q980.427 1438.22 980.427 1431.03 Q980.427 1423.8 985.318 1418.54 Q990.246 1413.24 997.287 1413.24 Q1004.18 1413.24 1009.11 1418.5 Q1014.07 1423.73 1014.07 1431.03 Q1014.07 1438.18 1009.07 1443.14 Q1004.11 1448.11 997.213 1448.11 Q990.469 1448.11 985.429 1443.18 M986.726 1430.4 Q986.726 1437.77 988.653 1441.11 Q991.617 1446.18 997.287 1446.18 Q1000.1 1446.18 1002.44 1444.66 Q1004.81 1443.14 1006.11 1440.59 Q1007.77 1437.25 1007.77 1430.4 Q1007.77 1423.1 1005.77 1419.87 Q1002.81 1414.95 997.213 1414.95 Q994.767 1414.95 992.359 1416.24 Q989.987 1417.5 988.542 1420.02 Q986.726 1423.36 986.726 1430.4 Z" fill="#000000" fill-rule="nonzero" fill-opacity="1" /><path clip-path="url(#clip680)" d="M1018.37 1447.26 L1018.37 1444.92 Q1022.41 1444.92 1023.34 1444.44 Q1024.3 1443.92 1024.3 1441.48 L1024.3 1421.13 Q1024.3 1418.32 1023.3 1417.61 Q1022.34 1416.91 1018.37 1416.91 L1018.37 1414.54 L1028.93 1413.72 L1028.93 1422.06 Q1030.01 1418.8 1032.27 1416.28 Q1034.56 1413.72 1038.27 1413.72 Q1040.72 1413.72 1042.27 1415.09 Q1043.87 1416.46 1043.87 1418.35 Q1043.87 1420.02 1042.83 1420.87 Q1041.83 1421.69 1040.6 1421.69 Q1039.23 1421.69 1038.27 1420.84 Q1037.34 1419.95 1037.34 1418.43 Q1037.34 1417.5 1037.75 1416.8 Q1038.2 1416.06 1038.53 1415.8 Q1038.86 1415.54 1039.08 1415.46 Q1038.94 1415.39 1038.27 1415.39 Q1034.08 1415.39 1031.67 1419.58 Q1029.3 1423.73 1029.3 1429.66 L1029.3 1441.33 Q1029.3 1443.51 1030.19 1444.22 Q1031.12 1444.92 1035.08 1444.92 L1036.68 1444.92 L1036.68 1447.26 Q1033.64 1447.03 1027.04 1447.03 Q1026.12 1447.03 1024.67 1447.07 Q1023.23 1447.11 1021.34 1447.18 Q1019.45 1447.26 1018.37 1447.26 Z" fill="#000000" fill-rule="nonzero" fill-opacity="1" /><path clip-path="url(#clip680)" d="M1078.66 1428.29 Q1078.66 1415.46 1083.44 1405.13 Q1085.48 1400.79 1088.33 1397.16 Q1091.18 1393.53 1093.07 1391.93 Q1094.96 1390.34 1095.48 1390.34 Q1096.22 1390.34 1096.26 1391.08 Q1096.26 1391.45 1095.26 1392.38 Q1083.03 1404.83 1083.07 1428.29 Q1083.07 1451.82 1094.96 1463.78 Q1096.26 1465.08 1096.26 1465.49 Q1096.26 1466.23 1095.48 1466.23 Q1094.96 1466.23 1093.15 1464.71 Q1091.33 1463.19 1088.52 1459.71 Q1085.7 1456.22 1083.66 1451.96 Q1078.66 1441.62 1078.66 1428.29 Z" fill="#000000" fill-rule="nonzero" fill-opacity="1" /><path clip-path="url(#clip680)" d="M1103.08 1416.91 L1103.08 1414.54 L1109.04 1414.54 L1109.04 1405.83 Q1109.04 1400.2 1112.68 1396.97 Q1116.34 1393.75 1120.83 1393.75 Q1123.79 1393.75 1125.72 1395.34 Q1127.65 1396.94 1127.65 1399.09 Q1127.65 1400.53 1126.76 1401.49 Q1125.9 1402.42 1124.31 1402.42 Q1122.79 1402.42 1121.9 1401.46 Q1121.05 1400.49 1121.05 1399.16 Q1121.05 1396.71 1123.31 1395.97 Q1122.16 1395.45 1120.83 1395.42 Q1118.09 1395.42 1115.94 1398.23 Q1113.82 1401.05 1113.82 1405.76 L1113.82 1414.54 L1122.72 1414.54 L1122.72 1416.91 L1114.08 1416.91 L1114.08 1441.33 Q1114.08 1443.51 1114.97 1444.22 Q1115.9 1444.92 1119.83 1444.92 L1121.42 1444.92 L1121.42 1447.26 Q1118.38 1447.03 1111.79 1447.03 Q1110.86 1447.03 1109.42 1447.07 Q1108.01 1447.11 1106.08 1447.18 Q1104.19 1447.26 1103.15 1447.26 L1103.15 1444.92 Q1107.19 1444.92 1108.12 1444.44 Q1109.04 1443.92 1109.04 1441.48 L1109.04 1416.91 L1103.08 1416.91 Z" fill="#000000" fill-rule="nonzero" fill-opacity="1" /><path clip-path="url(#clip680)" d="M1126.2 1447.26 L1126.2 1444.92 Q1130.24 1444.92 1131.17 1444.44 Q1132.09 1443.92 1132.09 1441.48 L1132.09 1421.06 Q1132.09 1418.24 1131.13 1417.58 Q1130.2 1416.91 1126.5 1416.91 L1126.5 1414.54 L1137.1 1413.72 L1137.1 1441.55 Q1137.1 1443.81 1137.91 1444.37 Q1138.73 1444.92 1142.43 1444.92 L1142.43 1447.26 Q1134.69 1447.03 1134.54 1447.03 Q1133.5 1447.03 1126.2 1447.26 M1129.39 1400.49 Q1129.39 1398.97 1130.54 1397.75 Q1131.72 1396.49 1133.39 1396.49 Q1135.06 1396.49 1136.24 1397.64 Q1137.43 1398.75 1137.43 1400.53 Q1137.43 1402.27 1136.24 1403.42 Q1135.06 1404.53 1133.39 1404.53 Q1131.65 1404.53 1130.5 1403.31 Q1129.39 1402.09 1129.39 1400.49 Z" fill="#000000" fill-rule="nonzero" fill-opacity="1" /><path clip-path="url(#clip680)" d="M1147.14 1447.26 L1147.14 1444.92 Q1151.18 1444.92 1152.1 1444.44 Q1153.03 1443.92 1153.03 1441.48 L1153.03 1421.13 Q1153.03 1418.32 1152.03 1417.61 Q1151.07 1416.91 1147.14 1416.91 L1147.14 1414.54 L1157.81 1413.72 L1157.81 1421.69 Q1161.37 1413.72 1169.04 1413.72 Q1174.74 1413.72 1177 1416.54 Q1178.67 1418.43 1179 1420.54 Q1179.38 1422.65 1179.38 1428.14 L1179.38 1442.63 Q1179.45 1444.22 1180.67 1444.59 Q1181.9 1444.92 1185.3 1444.92 L1185.3 1447.26 Q1177.56 1447.03 1176.78 1447.03 Q1176.19 1447.03 1168.22 1447.26 L1168.22 1444.92 Q1172.26 1444.92 1173.19 1444.44 Q1174.15 1443.92 1174.15 1441.48 L1174.15 1423.8 Q1174.15 1419.95 1172.96 1417.69 Q1171.78 1415.39 1168.52 1415.39 Q1164.59 1415.39 1161.44 1418.69 Q1158.29 1421.99 1158.29 1427.54 L1158.29 1441.48 Q1158.29 1443.92 1159.22 1444.44 Q1160.18 1444.92 1164.18 1444.92 L1164.18 1447.26 Q1156.44 1447.03 1155.7 1447.03 Q1155.1 1447.03 1147.14 1447.26 Z" fill="#000000" fill-rule="nonzero" fill-opacity="1" /><path clip-path="url(#clip680)" d="M1189.97 1440.03 Q1189.97 1433.58 1197.57 1430.17 Q1202.13 1427.99 1211.54 1427.43 L1211.54 1424.65 Q1211.54 1419.95 1209.06 1417.47 Q1206.61 1414.95 1203.5 1414.95 Q1197.94 1414.95 1195.27 1418.43 Q1197.53 1418.5 1198.35 1419.65 Q1199.16 1420.76 1199.16 1421.91 Q1199.16 1423.43 1198.2 1424.43 Q1197.27 1425.39 1195.68 1425.39 Q1194.16 1425.39 1193.16 1424.47 Q1192.16 1423.51 1192.16 1421.84 Q1192.16 1418.13 1195.49 1415.69 Q1198.87 1413.24 1203.65 1413.24 Q1209.87 1413.24 1214.02 1417.43 Q1215.32 1418.72 1215.95 1420.39 Q1216.62 1422.06 1216.69 1423.17 Q1216.76 1424.25 1216.76 1426.4 L1216.76 1441.55 Q1216.76 1442 1216.91 1442.74 Q1217.06 1443.48 1217.73 1444.44 Q1218.43 1445.37 1219.58 1445.37 Q1222.32 1445.37 1222.29 1440.51 L1222.29 1436.25 L1224.21 1436.25 L1224.21 1440.51 Q1224.21 1444.55 1222.06 1446.15 Q1219.95 1447.7 1217.99 1447.7 Q1215.47 1447.7 1213.87 1445.85 Q1212.28 1444 1212.06 1441.48 Q1210.91 1444.37 1208.28 1446.26 Q1205.68 1448.11 1202.13 1448.11 Q1199.39 1448.11 1196.79 1447.41 Q1194.23 1446.74 1192.09 1444.85 Q1189.97 1442.92 1189.97 1440.03 M1195.83 1439.96 Q1195.83 1442.77 1197.83 1444.59 Q1199.83 1446.41 1202.65 1446.41 Q1205.83 1446.41 1208.69 1443.96 Q1211.54 1441.48 1211.54 1436.62 L1211.54 1429.03 Q1203.13 1429.32 1199.46 1432.69 Q1195.83 1436.03 1195.83 1439.96 Z" fill="#000000" fill-rule="nonzero" fill-opacity="1" /><path clip-path="url(#clip680)" d="M1227.25 1447.26 L1227.25 1444.92 Q1231.29 1444.92 1232.22 1444.44 Q1233.14 1443.92 1233.14 1441.48 L1233.14 1402.01 Q1233.14 1399.2 1232.14 1398.49 Q1231.18 1397.79 1227.25 1397.79 L1227.25 1395.42 L1238.14 1394.6 L1238.14 1441.48 Q1238.14 1443.92 1239.11 1444.44 Q1240.07 1444.92 1244.07 1444.92 L1244.07 1447.26 Q1243.15 1447.26 1241.22 1447.18 Q1239.29 1447.11 1237.89 1447.07 Q1236.48 1447.03 1235.66 1447.03 Q1234.77 1447.03 1227.25 1447.26 Z" fill="#000000" fill-rule="nonzero" fill-opacity="1" /><path clip-path="url(#clip680)" d="M1250.08 1465.49 Q1250.08 1465.12 1251.04 1464.19 Q1263.27 1451.74 1263.27 1428.29 Q1263.27 1404.76 1251.52 1392.86 Q1250.08 1391.49 1250.08 1391.08 Q1250.08 1390.34 1250.82 1390.34 Q1251.34 1390.34 1253.15 1391.86 Q1255 1393.38 1257.78 1396.86 Q1260.6 1400.35 1262.68 1404.61 Q1267.68 1414.95 1267.68 1428.29 Q1267.68 1441.11 1262.9 1451.44 Q1260.86 1455.78 1258.01 1459.41 Q1255.15 1463.04 1253.26 1464.64 Q1251.37 1466.23 1250.82 1466.23 Q1250.08 1466.23 1250.08 1465.49 Z" fill="#000000" fill-rule="nonzero" fill-opacity="1" /><polyline clip-path="url(#clip682)" style="stroke:#000000; stroke-linecap:round; stroke-linejoin:round; stroke-width:2.8; stroke-opacity:0.4; fill:none" points="298.791,1139.82 1838.85,1139.82 "/>
<polyline clip-path="url(#clip682)" style="stroke:#000000; stroke-linecap:round; stroke-linejoin:round; stroke-width:2.8; stroke-opacity:0.4; fill:none" points="298.791,919.601 1838.85,919.601 "/>
<polyline clip-path="url(#clip682)" style="stroke:#000000; stroke-linecap:round; stroke-linejoin:round; stroke-width:2.8; stroke-opacity:0.4; fill:none" points="298.791,699.377 1838.85,699.377 "/>
<polyline clip-path="url(#clip682)" style="stroke:#000000; stroke-linecap:round; stroke-linejoin:round; stroke-width:2.8; stroke-opacity:0.4; fill:none" points="298.791,479.154 1838.85,479.154 "/>
<polyline clip-path="url(#clip682)" style="stroke:#000000; stroke-linecap:round; stroke-linejoin:round; stroke-width:2.8; stroke-opacity:0.4; fill:none" points="298.791,258.93 1838.85,258.93 "/>
<polyline clip-path="url(#clip680)" style="stroke:#000000; stroke-linecap:round; stroke-linejoin:round; stroke-width:4; stroke-opacity:1; fill:none" points="298.791,1280.22 298.791,47.2441 "/>
<polyline clip-path="url(#clip680)" style="stroke:#000000; stroke-linecap:round; stroke-linejoin:round; stroke-width:4; stroke-opacity:1; fill:none" points="1838.85,1280.22 1838.85,47.2441 "/>
<polyline clip-path="url(#clip680)" style="stroke:#000000; stroke-linecap:round; stroke-linejoin:round; stroke-width:4; stroke-opacity:1; fill:none" points="298.791,1139.82 313.655,1139.82 "/>
<polyline clip-path="url(#clip680)" style="stroke:#000000; stroke-linecap:round; stroke-linejoin:round; stroke-width:4; stroke-opacity:1; fill:none" points="298.791,919.601 313.655,919.601 "/>
<polyline clip-path="url(#clip680)" style="stroke:#000000; stroke-linecap:round; stroke-linejoin:round; stroke-width:4; stroke-opacity:1; fill:none" points="298.791,699.377 313.655,699.377 "/>
<polyline clip-path="url(#clip680)" style="stroke:#000000; stroke-linecap:round; stroke-linejoin:round; stroke-width:4; stroke-opacity:1; fill:none" points="298.791,479.154 313.655,479.154 "/>
<polyline clip-path="url(#clip680)" style="stroke:#000000; stroke-linecap:round; stroke-linejoin:round; stroke-width:4; stroke-opacity:1; fill:none" points="298.791,258.93 313.655,258.93 "/>
<path clip-path="url(#clip680)" d="M119.06 1134.67 L119.06 1133.09 Q125.137 1133.09 128.275 1129.86 Q129.139 1129.86 129.287 1130.05 Q129.436 1130.25 129.436 1131.17 L129.436 1159.55 Q129.436 1161.06 130.177 1161.53 Q130.918 1162 134.154 1162 L135.76 1162 L135.76 1163.55 Q133.981 1163.4 127.558 1163.4 Q121.135 1163.4 119.381 1163.55 L119.381 1162 L120.987 1162 Q124.174 1162 124.94 1161.55 Q125.705 1161.08 125.705 1159.55 L125.705 1133.34 Q123.062 1134.67 119.06 1134.67 Z" fill="#000000" fill-rule="nonzero" fill-opacity="1" /><path clip-path="url(#clip680)" d="M141.837 1147.37 Q141.837 1139.94 143.714 1135.88 Q146.333 1129.86 152.509 1129.86 Q153.818 1129.86 155.176 1130.23 Q156.56 1130.57 158.289 1131.93 Q160.043 1133.29 161.105 1135.51 Q163.131 1139.81 163.131 1147.37 Q163.131 1154.76 161.253 1158.78 Q158.511 1164.66 152.459 1164.66 Q150.186 1164.66 147.864 1163.5 Q145.567 1162.34 144.109 1159.55 Q141.837 1155.38 141.837 1147.37 M146.036 1146.75 Q146.036 1154.39 146.58 1157.43 Q147.197 1160.71 148.877 1162.14 Q150.582 1163.55 152.459 1163.55 Q154.485 1163.55 156.165 1162.04 Q157.869 1160.51 158.388 1157.23 Q158.956 1153.99 158.931 1146.75 Q158.931 1139.71 158.437 1136.9 Q157.77 1133.61 155.992 1132.3 Q154.238 1130.97 152.459 1130.97 Q151.792 1130.97 151.076 1131.17 Q150.384 1131.36 149.371 1131.93 Q148.358 1132.5 147.568 1133.91 Q146.802 1135.32 146.431 1137.44 Q146.036 1140.18 146.036 1146.75 Z" fill="#000000" fill-rule="nonzero" fill-opacity="1" /><path clip-path="url(#clip680)" d="M190.268 1125.28 Q190.508 1125.52 190.508 1125.86 Q190.508 1126.21 190.268 1126.45 Q190.027 1126.69 189.686 1126.69 L163.954 1126.69 Q163.613 1126.69 163.372 1126.45 Q163.131 1126.21 163.131 1125.86 Q163.131 1125.52 163.372 1125.28 Q163.613 1125.04 163.954 1125.04 L189.686 1125.04 Q190.027 1125.04 190.268 1125.28 Z" fill="#000000" fill-rule="nonzero" fill-opacity="1" /><path clip-path="url(#clip680)" d="M194.844 1136.14 Q194.844 1135.4 194.904 1135.18 Q194.984 1134.96 195.306 1134.62 L203.194 1125.82 Q207.509 1120.97 207.509 1116.73 Q207.509 1113.98 206.064 1112.02 Q204.639 1110.05 202.009 1110.05 Q200.203 1110.05 198.678 1111.15 Q197.152 1112.26 196.45 1114.22 Q196.57 1114.18 196.992 1114.18 Q198.015 1114.18 198.577 1114.83 Q199.159 1115.47 199.159 1116.33 Q199.159 1117.43 198.437 1117.98 Q197.734 1118.5 197.032 1118.5 Q196.751 1118.5 196.369 1118.44 Q196.008 1118.38 195.426 1117.82 Q194.844 1117.23 194.844 1116.21 Q194.844 1113.34 197.012 1111.05 Q199.199 1108.76 202.531 1108.76 Q206.305 1108.76 208.773 1111.01 Q211.262 1113.24 211.262 1116.73 Q211.262 1117.96 210.881 1119.08 Q210.52 1120.18 210.018 1121.05 Q209.536 1121.91 208.211 1123.3 Q206.887 1124.68 205.823 1125.66 Q204.759 1126.65 202.371 1128.74 L198.015 1132.97 L205.422 1132.97 Q209.034 1132.97 209.315 1132.65 Q209.717 1132.07 210.219 1129 L211.262 1129 L210.098 1136.14 L194.844 1136.14 Z" fill="#000000" fill-rule="nonzero" fill-opacity="1" /><path clip-path="url(#clip680)" d="M217.464 1135.48 Q216.842 1134.82 216.842 1133.95 Q216.842 1133.09 217.464 1132.47 Q218.087 1131.83 219.03 1131.83 Q219.933 1131.83 220.535 1132.43 Q221.158 1133.01 221.158 1133.97 Q221.158 1134.92 220.495 1135.54 Q219.853 1136.14 219.03 1136.14 Q218.087 1136.14 217.464 1135.48 Z" fill="#000000" fill-rule="nonzero" fill-opacity="1" /><path clip-path="url(#clip680)" d="M226.376 1122.99 Q226.376 1116.95 227.902 1113.66 Q230.029 1108.76 235.047 1108.76 Q236.111 1108.76 237.215 1109.07 Q238.339 1109.35 239.744 1110.45 Q241.169 1111.55 242.032 1113.36 Q243.678 1116.85 243.678 1122.99 Q243.678 1129 242.152 1132.27 Q239.924 1137.04 235.007 1137.04 Q233.16 1137.04 231.274 1136.1 Q229.407 1135.16 228.223 1132.89 Q226.376 1129.5 226.376 1122.99 M229.788 1122.49 Q229.788 1128.69 230.23 1131.16 Q230.732 1133.83 232.097 1135 Q233.481 1136.14 235.007 1136.14 Q236.653 1136.14 238.018 1134.92 Q239.403 1133.67 239.824 1131 Q240.286 1128.37 240.266 1122.49 Q240.266 1116.77 239.864 1114.48 Q239.322 1111.81 237.877 1110.75 Q236.452 1109.67 235.007 1109.67 Q234.465 1109.67 233.883 1109.83 Q233.321 1109.99 232.498 1110.45 Q231.675 1110.91 231.033 1112.06 Q230.411 1113.2 230.109 1114.93 Q229.788 1117.15 229.788 1122.49 Z" fill="#000000" fill-rule="nonzero" fill-opacity="1" /><path clip-path="url(#clip680)" d="M246.929 1122.99 Q246.929 1116.95 248.455 1113.66 Q250.582 1108.76 255.6 1108.76 Q256.664 1108.76 257.768 1109.07 Q258.892 1109.35 260.297 1110.45 Q261.722 1111.55 262.585 1113.36 Q264.231 1116.85 264.231 1122.99 Q264.231 1129 262.706 1132.27 Q260.478 1137.04 255.56 1137.04 Q253.714 1137.04 251.827 1136.1 Q249.96 1135.16 248.776 1132.89 Q246.929 1129.5 246.929 1122.99 M250.342 1122.49 Q250.342 1128.69 250.783 1131.16 Q251.285 1133.83 252.65 1135 Q254.035 1136.14 255.56 1136.14 Q257.206 1136.14 258.571 1134.92 Q259.956 1133.67 260.377 1131 Q260.839 1128.37 260.819 1122.49 Q260.819 1116.77 260.417 1114.48 Q259.875 1111.81 258.43 1110.75 Q257.005 1109.67 255.56 1109.67 Q255.018 1109.67 254.436 1109.83 Q253.874 1109.99 253.051 1110.45 Q252.228 1110.91 251.586 1112.06 Q250.964 1113.2 250.663 1114.93 Q250.342 1117.15 250.342 1122.49 Z" fill="#000000" fill-rule="nonzero" fill-opacity="1" /><path clip-path="url(#clip680)" d="M119.502 914.45 L119.502 912.869 Q125.579 912.869 128.716 909.633 Q129.581 909.633 129.729 909.831 Q129.877 910.028 129.877 910.942 L129.877 939.326 Q129.877 940.833 130.618 941.303 Q131.359 941.772 134.595 941.772 L136.201 941.772 L136.201 943.328 Q134.423 943.18 128 943.18 Q121.577 943.18 119.823 943.328 L119.823 941.772 L121.429 941.772 Q124.615 941.772 125.381 941.327 Q126.147 940.858 126.147 939.326 L126.147 913.116 Q123.504 914.45 119.502 914.45 Z" fill="#000000" fill-rule="nonzero" fill-opacity="1" /><path clip-path="url(#clip680)" d="M142.278 927.148 Q142.278 919.712 144.156 915.661 Q146.774 909.633 152.95 909.633 Q154.259 909.633 155.618 910.003 Q157.001 910.349 158.731 911.708 Q160.485 913.067 161.547 915.29 Q163.573 919.588 163.573 927.148 Q163.573 934.534 161.695 938.561 Q158.953 944.44 152.901 944.44 Q150.628 944.44 148.306 943.279 Q146.008 942.118 144.551 939.326 Q142.278 935.151 142.278 927.148 M146.478 926.53 Q146.478 934.163 147.021 937.202 Q147.639 940.487 149.319 941.92 Q151.023 943.328 152.901 943.328 Q154.926 943.328 156.606 941.821 Q158.311 940.29 158.829 937.004 Q159.398 933.768 159.373 926.53 Q159.373 919.49 158.879 916.673 Q158.212 913.388 156.433 912.079 Q154.679 910.745 152.901 910.745 Q152.234 910.745 151.517 910.942 Q150.826 911.14 149.813 911.708 Q148.8 912.276 148.009 913.684 Q147.244 915.092 146.873 917.217 Q146.478 919.959 146.478 926.53 Z" fill="#000000" fill-rule="nonzero" fill-opacity="1" /><path clip-path="url(#clip680)" d="M190.709 905.059 Q190.95 905.3 190.95 905.641 Q190.95 905.982 190.709 906.223 Q190.468 906.464 190.127 906.464 L164.395 906.464 Q164.054 906.464 163.813 906.223 Q163.573 905.982 163.573 905.641 Q163.573 905.3 163.813 905.059 Q164.054 904.818 164.395 904.818 L190.127 904.818 Q190.468 904.818 190.709 905.059 Z" fill="#000000" fill-rule="nonzero" fill-opacity="1" /><path clip-path="url(#clip680)" d="M196.891 892.454 L196.891 891.17 Q201.829 891.17 204.378 888.54 Q205.08 888.54 205.201 888.701 Q205.321 888.862 205.321 889.604 L205.321 912.666 Q205.321 913.891 205.923 914.272 Q206.525 914.653 209.155 914.653 L210.459 914.653 L210.459 915.918 Q209.014 915.797 203.796 915.797 Q198.577 915.797 197.152 915.918 L197.152 914.653 L198.457 914.653 Q201.046 914.653 201.668 914.292 Q202.29 913.911 202.29 912.666 L202.29 891.37 Q200.143 892.454 196.891 892.454 Z" fill="#000000" fill-rule="nonzero" fill-opacity="1" /><path clip-path="url(#clip680)" d="M217.906 915.256 Q217.284 914.593 217.284 913.73 Q217.284 912.867 217.906 912.245 Q218.528 911.603 219.472 911.603 Q220.375 911.603 220.977 912.205 Q221.599 912.787 221.599 913.75 Q221.599 914.694 220.937 915.316 Q220.295 915.918 219.472 915.918 Q218.528 915.918 217.906 915.256 Z" fill="#000000" fill-rule="nonzero" fill-opacity="1" /><path clip-path="url(#clip680)" d="M227.52 896.589 L228.865 888.139 L229.889 888.139 Q230.009 888.641 230.21 888.862 Q230.431 889.082 231.595 889.263 Q232.779 889.444 235.167 889.444 L245.143 889.444 Q245.143 890.387 244.782 890.889 L239.222 898.697 Q237.456 901.165 236.673 905.722 Q236.211 908.772 236.231 912.466 L236.231 914.553 Q236.231 916.821 234.324 916.821 Q232.438 916.821 232.438 914.553 Q232.438 906.705 237.496 899.098 Q238.038 898.315 240.025 895.525 Q242.032 892.735 242.112 892.615 L233.602 892.615 Q229.869 892.615 229.568 892.856 Q229.166 893.217 228.544 896.589 L227.52 896.589 Z" fill="#000000" fill-rule="nonzero" fill-opacity="1" /><path clip-path="url(#clip680)" d="M247.813 909.294 Q247.813 908.07 248.475 907.608 Q249.137 907.127 249.84 907.127 Q250.783 907.127 251.325 907.729 Q251.887 908.311 251.887 909.134 Q251.887 909.957 251.325 910.559 Q250.783 911.141 249.84 911.141 Q249.378 911.141 249.137 911.061 Q249.679 912.947 251.325 914.312 Q252.991 915.677 255.179 915.677 Q257.929 915.677 259.574 913.008 Q260.558 911.281 260.558 907.367 Q260.558 903.915 259.815 902.189 Q258.671 899.56 256.323 899.56 Q252.991 899.56 251.024 902.43 Q250.783 902.791 250.502 902.811 Q250.101 902.811 250 902.59 Q249.92 902.35 249.92 901.727 L249.92 889.564 Q249.92 888.581 250.321 888.581 Q250.482 888.581 250.823 888.701 Q253.412 889.845 256.283 889.865 Q259.233 889.865 261.883 888.661 Q262.083 888.54 262.204 888.54 Q262.605 888.54 262.625 889.002 Q262.625 889.163 262.284 889.644 Q261.963 890.106 261.26 890.728 Q260.558 891.33 259.655 891.912 Q258.751 892.494 257.427 892.896 Q256.122 893.277 254.677 893.277 Q252.951 893.277 251.185 892.735 L251.185 900.744 Q253.312 898.656 256.403 898.656 Q259.695 898.656 261.963 901.306 Q264.231 903.955 264.231 907.648 Q264.231 911.522 261.541 914.172 Q258.872 916.821 255.259 916.821 Q251.967 916.821 249.88 914.473 Q247.813 912.124 247.813 909.294 Z" fill="#000000" fill-rule="nonzero" fill-opacity="1" /><path clip-path="url(#clip680)" d="M119.06 694.226 L119.06 692.645 Q125.137 692.645 128.275 689.409 Q129.139 689.409 129.287 689.607 Q129.436 689.805 129.436 690.719 L129.436 719.103 Q129.436 720.61 130.177 721.079 Q130.918 721.548 134.154 721.548 L135.76 721.548 L135.76 723.105 Q133.981 722.956 127.558 722.956 Q121.135 722.956 119.381 723.105 L119.381 721.548 L120.987 721.548 Q124.174 721.548 124.94 721.104 Q125.705 720.634 125.705 719.103 L125.705 692.893 Q123.062 694.226 119.06 694.226 Z" fill="#000000" fill-rule="nonzero" fill-opacity="1" /><path clip-path="url(#clip680)" d="M141.837 706.924 Q141.837 699.488 143.714 695.437 Q146.333 689.409 152.509 689.409 Q153.818 689.409 155.176 689.78 Q156.56 690.126 158.289 691.484 Q160.043 692.843 161.105 695.066 Q163.131 699.365 163.131 706.924 Q163.131 714.31 161.253 718.337 Q158.511 724.216 152.459 724.216 Q150.186 724.216 147.864 723.055 Q145.567 721.894 144.109 719.103 Q141.837 714.928 141.837 706.924 M146.036 706.306 Q146.036 713.94 146.58 716.978 Q147.197 720.264 148.877 721.697 Q150.582 723.105 152.459 723.105 Q154.485 723.105 156.165 721.598 Q157.869 720.066 158.388 716.781 Q158.956 713.545 158.931 706.306 Q158.931 699.266 158.437 696.45 Q157.77 693.164 155.992 691.855 Q154.238 690.521 152.459 690.521 Q151.792 690.521 151.076 690.719 Q150.384 690.916 149.371 691.484 Q148.358 692.053 147.568 693.461 Q146.802 694.869 146.431 696.993 Q146.036 699.735 146.036 706.306 Z" fill="#000000" fill-rule="nonzero" fill-opacity="1" /><path clip-path="url(#clip680)" d="M190.268 684.836 Q190.508 685.077 190.508 685.418 Q190.508 685.759 190.268 686 Q190.027 686.241 189.686 686.241 L163.954 686.241 Q163.613 686.241 163.372 686 Q163.131 685.759 163.131 685.418 Q163.131 685.077 163.372 684.836 Q163.613 684.595 163.954 684.595 L189.686 684.595 Q190.027 684.595 190.268 684.836 Z" fill="#000000" fill-rule="nonzero" fill-opacity="1" /><path clip-path="url(#clip680)" d="M196.45 672.231 L196.45 670.946 Q201.387 670.946 203.936 668.317 Q204.639 668.317 204.759 668.477 Q204.88 668.638 204.88 669.381 L204.88 692.443 Q204.88 693.667 205.482 694.048 Q206.084 694.43 208.713 694.43 L210.018 694.43 L210.018 695.694 Q208.573 695.574 203.354 695.574 Q198.136 695.574 196.711 695.694 L196.711 694.43 L198.015 694.43 Q200.604 694.43 201.227 694.069 Q201.849 693.687 201.849 692.443 L201.849 671.147 Q199.701 672.231 196.45 672.231 Z" fill="#000000" fill-rule="nonzero" fill-opacity="1" /><path clip-path="url(#clip680)" d="M217.464 695.032 Q216.842 694.37 216.842 693.507 Q216.842 692.643 217.464 692.021 Q218.087 691.379 219.03 691.379 Q219.933 691.379 220.535 691.981 Q221.158 692.563 221.158 693.527 Q221.158 694.47 220.495 695.092 Q219.853 695.694 219.03 695.694 Q218.087 695.694 217.464 695.032 Z" fill="#000000" fill-rule="nonzero" fill-opacity="1" /><path clip-path="url(#clip680)" d="M226.818 689.071 Q226.818 687.846 227.48 687.385 Q228.142 686.903 228.845 686.903 Q229.788 686.903 230.33 687.505 Q230.892 688.087 230.892 688.91 Q230.892 689.733 230.33 690.335 Q229.788 690.917 228.845 690.917 Q228.383 690.917 228.142 690.837 Q228.684 692.724 230.33 694.089 Q231.996 695.453 234.184 695.453 Q236.934 695.453 238.58 692.784 Q239.563 691.058 239.563 687.144 Q239.563 683.692 238.821 681.965 Q237.676 679.336 235.328 679.336 Q231.996 679.336 230.029 682.206 Q229.788 682.568 229.507 682.588 Q229.106 682.588 229.006 682.367 Q228.925 682.126 228.925 681.504 L228.925 669.34 Q228.925 668.357 229.327 668.357 Q229.487 668.357 229.828 668.477 Q232.418 669.621 235.288 669.642 Q238.238 669.642 240.888 668.437 Q241.089 668.317 241.209 668.317 Q241.61 668.317 241.631 668.778 Q241.631 668.939 241.289 669.421 Q240.968 669.882 240.266 670.505 Q239.563 671.107 238.66 671.689 Q237.757 672.271 236.432 672.672 Q235.127 673.054 233.682 673.054 Q231.956 673.054 230.19 672.512 L230.19 680.52 Q232.317 678.433 235.408 678.433 Q238.7 678.433 240.968 681.082 Q243.236 683.732 243.236 687.425 Q243.236 691.299 240.547 693.948 Q237.877 696.598 234.264 696.598 Q230.973 696.598 228.885 694.249 Q226.818 691.901 226.818 689.071 Z" fill="#000000" fill-rule="nonzero" fill-opacity="1" /><path clip-path="url(#clip680)" d="M246.929 682.547 Q246.929 676.506 248.455 673.214 Q250.582 668.317 255.6 668.317 Q256.664 668.317 257.768 668.618 Q258.892 668.899 260.297 670.003 Q261.722 671.107 262.585 672.913 Q264.231 676.406 264.231 682.547 Q264.231 688.549 262.706 691.821 Q260.478 696.598 255.56 696.598 Q253.714 696.598 251.827 695.654 Q249.96 694.711 248.776 692.443 Q246.929 689.051 246.929 682.547 M250.342 682.046 Q250.342 688.248 250.783 690.717 Q251.285 693.386 252.65 694.55 Q254.035 695.694 255.56 695.694 Q257.206 695.694 258.571 694.47 Q259.956 693.226 260.377 690.556 Q260.839 687.927 260.819 682.046 Q260.819 676.325 260.417 674.037 Q259.875 671.368 258.43 670.304 Q257.005 669.22 255.56 669.22 Q255.018 669.22 254.436 669.381 Q253.874 669.541 253.051 670.003 Q252.228 670.464 251.586 671.609 Q250.964 672.753 250.663 674.479 Q250.342 676.707 250.342 682.046 Z" fill="#000000" fill-rule="nonzero" fill-opacity="1" /><path clip-path="url(#clip680)" d="M119.502 474.003 L119.502 472.422 Q125.579 472.422 128.716 469.186 Q129.581 469.186 129.729 469.383 Q129.877 469.581 129.877 470.495 L129.877 498.879 Q129.877 500.386 130.618 500.855 Q131.359 501.325 134.595 501.325 L136.201 501.325 L136.201 502.881 Q134.423 502.733 128 502.733 Q121.577 502.733 119.823 502.881 L119.823 501.325 L121.429 501.325 Q124.615 501.325 125.381 500.88 Q126.147 500.411 126.147 498.879 L126.147 472.669 Q123.504 474.003 119.502 474.003 Z" fill="#000000" fill-rule="nonzero" fill-opacity="1" /><path clip-path="url(#clip680)" d="M142.278 486.7 Q142.278 479.265 144.156 475.213 Q146.774 469.186 152.95 469.186 Q154.259 469.186 155.618 469.556 Q157.001 469.902 158.731 471.261 Q160.485 472.62 161.547 474.843 Q163.573 479.141 163.573 486.7 Q163.573 494.087 161.695 498.113 Q158.953 503.993 152.901 503.993 Q150.628 503.993 148.306 502.832 Q146.008 501.671 144.551 498.879 Q142.278 494.704 142.278 486.7 M146.478 486.083 Q146.478 493.716 147.021 496.755 Q147.639 500.04 149.319 501.473 Q151.023 502.881 152.901 502.881 Q154.926 502.881 156.606 501.374 Q158.311 499.843 158.829 496.557 Q159.398 493.321 159.373 486.083 Q159.373 479.042 158.879 476.226 Q158.212 472.941 156.433 471.631 Q154.679 470.297 152.901 470.297 Q152.234 470.297 151.517 470.495 Q150.826 470.693 149.813 471.261 Q148.8 471.829 148.009 473.237 Q147.244 474.645 146.873 476.77 Q146.478 479.512 146.478 486.083 Z" fill="#000000" fill-rule="nonzero" fill-opacity="1" /><path clip-path="url(#clip680)" d="M190.709 464.612 Q190.95 464.853 190.95 465.194 Q190.95 465.535 190.709 465.776 Q190.468 466.017 190.127 466.017 L164.395 466.017 Q164.054 466.017 163.813 465.776 Q163.573 465.535 163.573 465.194 Q163.573 464.853 163.813 464.612 Q164.054 464.371 164.395 464.371 L190.127 464.371 Q190.468 464.371 190.709 464.612 Z" fill="#000000" fill-rule="nonzero" fill-opacity="1" /><path clip-path="url(#clip680)" d="M196.891 452.007 L196.891 450.723 Q201.829 450.723 204.378 448.093 Q205.08 448.093 205.201 448.254 Q205.321 448.414 205.321 449.157 L205.321 472.219 Q205.321 473.444 205.923 473.825 Q206.525 474.206 209.155 474.206 L210.459 474.206 L210.459 475.471 Q209.014 475.35 203.796 475.35 Q198.577 475.35 197.152 475.471 L197.152 474.206 L198.457 474.206 Q201.046 474.206 201.668 473.845 Q202.29 473.464 202.29 472.219 L202.29 450.923 Q200.143 452.007 196.891 452.007 Z" fill="#000000" fill-rule="nonzero" fill-opacity="1" /><path clip-path="url(#clip680)" d="M217.906 474.808 Q217.284 474.146 217.284 473.283 Q217.284 472.42 217.906 471.798 Q218.528 471.155 219.472 471.155 Q220.375 471.155 220.977 471.758 Q221.599 472.34 221.599 473.303 Q221.599 474.246 220.937 474.869 Q220.295 475.471 219.472 475.471 Q218.528 475.471 217.906 474.808 Z" fill="#000000" fill-rule="nonzero" fill-opacity="1" /><path clip-path="url(#clip680)" d="M227.259 475.471 Q227.259 474.728 227.32 474.507 Q227.4 474.287 227.721 473.945 L235.609 465.154 Q239.924 460.297 239.924 456.062 Q239.924 453.312 238.479 451.345 Q237.054 449.378 234.425 449.378 Q232.618 449.378 231.093 450.482 Q229.568 451.586 228.865 453.553 Q228.985 453.513 229.407 453.513 Q230.431 453.513 230.993 454.155 Q231.575 454.797 231.575 455.66 Q231.575 456.764 230.852 457.306 Q230.15 457.828 229.447 457.828 Q229.166 457.828 228.785 457.768 Q228.423 457.707 227.841 457.145 Q227.259 456.563 227.259 455.54 Q227.259 452.67 229.427 450.381 Q231.615 448.093 234.947 448.093 Q238.72 448.093 241.189 450.341 Q243.678 452.569 243.678 456.062 Q243.678 457.286 243.296 458.41 Q242.935 459.514 242.433 460.377 Q241.952 461.24 240.627 462.625 Q239.302 464.01 238.238 464.993 Q237.175 465.977 234.786 468.064 L230.431 472.299 L237.837 472.299 Q241.45 472.299 241.731 471.978 Q242.132 471.396 242.634 468.325 L243.678 468.325 L242.514 475.471 L227.259 475.471 Z" fill="#000000" fill-rule="nonzero" fill-opacity="1" /><path clip-path="url(#clip680)" d="M247.813 468.847 Q247.813 467.623 248.475 467.161 Q249.137 466.679 249.84 466.679 Q250.783 466.679 251.325 467.282 Q251.887 467.864 251.887 468.687 Q251.887 469.51 251.325 470.112 Q250.783 470.694 249.84 470.694 Q249.378 470.694 249.137 470.613 Q249.679 472.5 251.325 473.865 Q252.991 475.23 255.179 475.23 Q257.929 475.23 259.574 472.56 Q260.558 470.834 260.558 466.92 Q260.558 463.468 259.815 461.742 Q258.671 459.112 256.323 459.112 Q252.991 459.112 251.024 461.983 Q250.783 462.344 250.502 462.364 Q250.101 462.364 250 462.143 Q249.92 461.902 249.92 461.28 L249.92 449.117 Q249.92 448.133 250.321 448.133 Q250.482 448.133 250.823 448.254 Q253.412 449.398 256.283 449.418 Q259.233 449.418 261.883 448.214 Q262.083 448.093 262.204 448.093 Q262.605 448.093 262.625 448.555 Q262.625 448.715 262.284 449.197 Q261.963 449.659 261.26 450.281 Q260.558 450.883 259.655 451.465 Q258.751 452.047 257.427 452.449 Q256.122 452.83 254.677 452.83 Q252.951 452.83 251.185 452.288 L251.185 460.297 Q253.312 458.209 256.403 458.209 Q259.695 458.209 261.963 460.859 Q264.231 463.508 264.231 467.201 Q264.231 471.075 261.541 473.725 Q258.872 476.374 255.259 476.374 Q251.967 476.374 249.88 474.026 Q247.813 471.677 247.813 468.847 Z" fill="#000000" fill-rule="nonzero" fill-opacity="1" /><path clip-path="url(#clip680)" d="M119.06 253.779 L119.06 252.198 Q125.137 252.198 128.275 248.962 Q129.139 248.962 129.287 249.16 Q129.436 249.357 129.436 250.271 L129.436 278.656 Q129.436 280.163 130.177 280.632 Q130.918 281.101 134.154 281.101 L135.76 281.101 L135.76 282.658 Q133.981 282.509 127.558 282.509 Q121.135 282.509 119.381 282.658 L119.381 281.101 L120.987 281.101 Q124.174 281.101 124.94 280.657 Q125.705 280.187 125.705 278.656 L125.705 252.445 Q123.062 253.779 119.06 253.779 Z" fill="#000000" fill-rule="nonzero" fill-opacity="1" /><path clip-path="url(#clip680)" d="M141.837 266.477 Q141.837 259.041 143.714 254.99 Q146.333 248.962 152.509 248.962 Q153.818 248.962 155.176 249.333 Q156.56 249.679 158.289 251.037 Q160.043 252.396 161.105 254.619 Q163.131 258.918 163.131 266.477 Q163.131 273.863 161.253 277.89 Q158.511 283.769 152.459 283.769 Q150.186 283.769 147.864 282.608 Q145.567 281.447 144.109 278.656 Q141.837 274.481 141.837 266.477 M146.036 265.859 Q146.036 273.493 146.58 276.531 Q147.197 279.817 148.877 281.25 Q150.582 282.658 152.459 282.658 Q154.485 282.658 156.165 281.151 Q157.869 279.619 158.388 276.334 Q158.956 273.097 158.931 265.859 Q158.931 258.819 158.437 256.003 Q157.77 252.717 155.992 251.408 Q154.238 250.074 152.459 250.074 Q151.792 250.074 151.076 250.271 Q150.384 250.469 149.371 251.037 Q148.358 251.605 147.568 253.014 Q146.802 254.422 146.431 256.546 Q146.036 259.288 146.036 265.859 Z" fill="#000000" fill-rule="nonzero" fill-opacity="1" /><path clip-path="url(#clip680)" d="M190.268 244.389 Q190.508 244.629 190.508 244.971 Q190.508 245.312 190.268 245.553 Q190.027 245.794 189.686 245.794 L163.954 245.794 Q163.613 245.794 163.372 245.553 Q163.131 245.312 163.131 244.971 Q163.131 244.629 163.372 244.389 Q163.613 244.148 163.954 244.148 L189.686 244.148 Q190.027 244.148 190.268 244.389 Z" fill="#000000" fill-rule="nonzero" fill-opacity="1" /><path clip-path="url(#clip680)" d="M196.45 231.784 L196.45 230.499 Q201.387 230.499 203.936 227.87 Q204.639 227.87 204.759 228.03 Q204.88 228.191 204.88 228.933 L204.88 251.996 Q204.88 253.22 205.482 253.601 Q206.084 253.983 208.713 253.983 L210.018 253.983 L210.018 255.247 Q208.573 255.127 203.354 255.127 Q198.136 255.127 196.711 255.247 L196.711 253.983 L198.015 253.983 Q200.604 253.983 201.227 253.621 Q201.849 253.24 201.849 251.996 L201.849 230.7 Q199.701 231.784 196.45 231.784 Z" fill="#000000" fill-rule="nonzero" fill-opacity="1" /><path clip-path="url(#clip680)" d="M217.464 254.585 Q216.842 253.922 216.842 253.059 Q216.842 252.196 217.464 251.574 Q218.087 250.932 219.03 250.932 Q219.933 250.932 220.535 251.534 Q221.158 252.116 221.158 253.079 Q221.158 254.023 220.495 254.645 Q219.853 255.247 219.03 255.247 Q218.087 255.247 217.464 254.585 Z" fill="#000000" fill-rule="nonzero" fill-opacity="1" /><path clip-path="url(#clip680)" d="M226.376 242.1 Q226.376 236.059 227.902 232.767 Q230.029 227.87 235.047 227.87 Q236.111 227.87 237.215 228.171 Q238.339 228.452 239.744 229.556 Q241.169 230.66 242.032 232.466 Q243.678 235.959 243.678 242.1 Q243.678 248.102 242.152 251.373 Q239.924 256.15 235.007 256.15 Q233.16 256.15 231.274 255.207 Q229.407 254.264 228.223 251.996 Q226.376 248.604 226.376 242.1 M229.788 241.599 Q229.788 247.801 230.23 250.269 Q230.732 252.939 232.097 254.103 Q233.481 255.247 235.007 255.247 Q236.653 255.247 238.018 254.023 Q239.403 252.778 239.824 250.109 Q240.286 247.48 240.266 241.599 Q240.266 235.878 239.864 233.59 Q239.322 230.921 237.877 229.857 Q236.452 228.773 235.007 228.773 Q234.465 228.773 233.883 228.933 Q233.321 229.094 232.498 229.556 Q231.675 230.017 231.033 231.161 Q230.411 232.305 230.109 234.032 Q229.788 236.26 229.788 241.599 Z" fill="#000000" fill-rule="nonzero" fill-opacity="1" /><path clip-path="url(#clip680)" d="M246.929 242.1 Q246.929 236.059 248.455 232.767 Q250.582 227.87 255.6 227.87 Q256.664 227.87 257.768 228.171 Q258.892 228.452 260.297 229.556 Q261.722 230.66 262.585 232.466 Q264.231 235.959 264.231 242.1 Q264.231 248.102 262.706 251.373 Q260.478 256.15 255.56 256.15 Q253.714 256.15 251.827 255.207 Q249.96 254.264 248.776 251.996 Q246.929 248.604 246.929 242.1 M250.342 241.599 Q250.342 247.801 250.783 250.269 Q251.285 252.939 252.65 254.103 Q254.035 255.247 255.56 255.247 Q257.206 255.247 258.571 254.023 Q259.956 252.778 260.377 250.109 Q260.839 247.48 260.819 241.599 Q260.819 235.878 260.417 233.59 Q259.875 230.921 258.43 229.857 Q257.005 228.773 255.56 228.773 Q255.018 228.773 254.436 228.933 Q253.874 229.094 253.051 229.556 Q252.228 230.017 251.586 231.161 Q250.964 232.305 250.663 234.032 Q250.342 236.26 250.342 241.599 Z" fill="#000000" fill-rule="nonzero" fill-opacity="1" /><path clip-path="url(#clip680)" d="M34.6352 801.913 L17.5899 800.467 L17.5899 754.112 L34.6352 752.666 L34.6352 754.556 Q31.2261 754.853 29.2622 755.149 Q27.2983 755.408 25.4455 756.075 Q23.5557 756.705 22.6664 757.521 Q21.74 758.299 21.036 759.818 Q20.2949 761.337 20.1096 763.301 Q19.9243 765.265 19.9243 768.23 Q19.9243 771.713 20.0726 772.565 Q20.2949 773.491 20.9619 773.714 Q21.5918 773.936 22.9629 773.936 L62.9452 773.936 Q64.4645 773.936 65.0944 773.64 Q65.6873 773.306 66.169 771.564 Q66.6137 769.823 66.6137 765.969 L66.6137 762.931 L68.9482 762.931 Q68.7258 766.043 68.7258 777.345 Q68.7258 788.573 68.9482 791.685 L66.6137 791.685 L66.6137 788.647 Q66.6137 784.793 66.169 783.052 Q65.6873 781.273 65.0944 780.976 Q64.4645 780.68 62.9452 780.68 L22.9629 780.68 Q21.8883 780.68 21.4436 780.754 Q20.9989 780.828 20.6284 781.162 Q20.2208 781.495 20.0726 782.273 Q19.9243 783.014 19.9243 786.349 Q19.9243 789.314 20.1096 791.315 Q20.2949 793.279 21.036 794.798 Q21.74 796.317 22.6664 797.132 Q23.5557 797.911 25.4455 798.578 Q27.2983 799.208 29.2622 799.467 Q31.2261 799.726 34.6352 800.023 L34.6352 801.913 Z" fill="#000000" fill-rule="nonzero" fill-opacity="1" /><path clip-path="url(#clip680)" d="M68.9482 747.368 L66.6137 747.368 Q66.6137 743.329 66.132 742.402 Q65.6132 741.476 63.1676 741.476 L42.7502 741.476 Q39.9341 741.476 39.2671 742.439 Q38.6001 743.366 38.6001 747.071 L36.2286 747.071 L35.4133 736.473 L63.2417 736.473 Q65.502 736.473 66.0579 735.658 Q66.6137 734.843 66.6137 731.137 L68.9482 731.137 Q68.7258 738.882 68.7258 739.03 Q68.7258 740.068 68.9482 747.368 M22.1847 744.181 Q20.6654 744.181 19.4426 743.032 Q18.1828 741.846 18.1828 740.179 Q18.1828 738.511 19.3315 737.326 Q20.4431 736.14 22.2218 736.14 Q23.9633 736.14 25.112 737.326 Q26.2237 738.511 26.2237 740.179 Q26.2237 741.92 25.0009 743.069 Q23.7781 744.181 22.1847 744.181 Z" fill="#000000" fill-rule="nonzero" fill-opacity="1" /><path clip-path="url(#clip680)" d="M68.9482 726.431 L66.6137 726.431 Q66.6137 722.392 66.132 721.466 Q65.6132 720.54 63.1676 720.54 L42.8244 720.54 Q40.0082 720.54 39.3041 721.54 Q38.6001 722.504 38.6001 726.431 L36.2286 726.431 L35.4133 715.76 L43.3802 715.76 Q35.4133 712.202 35.4133 704.532 Q35.4133 695.639 42.8244 694.416 Q39.9341 693.119 37.6737 690.414 Q35.4133 687.672 35.4133 683.411 Q35.4133 677.704 38.2295 675.444 Q40.1193 673.776 42.2315 673.443 Q44.3436 673.109 49.8278 673.109 L64.3163 673.109 Q65.9096 673.035 66.2802 671.812 Q66.6137 670.589 66.6137 667.18 L68.9482 667.18 Q68.7258 674.925 68.7258 675.666 Q68.7258 676.259 68.9482 684.263 L66.6137 684.263 Q66.6137 680.224 66.132 679.297 Q65.6132 678.334 63.1676 678.334 L45.4923 678.334 Q41.6386 678.334 39.3782 679.52 Q37.0808 680.706 37.0808 683.966 Q37.0808 687.894 40.3787 691.044 Q43.6766 694.194 49.2349 694.194 L63.1676 694.194 Q65.6132 694.194 66.132 693.267 Q66.6137 692.304 66.6137 688.265 L68.9482 688.265 Q68.7258 696.009 68.7258 696.787 Q68.7258 697.38 68.9482 705.347 L66.6137 705.347 Q66.6137 701.308 66.132 700.382 Q65.6132 699.418 63.1676 699.418 L45.4923 699.418 Q41.6386 699.418 39.3782 700.604 Q37.0808 701.79 37.0808 705.051 Q37.0808 708.979 40.3787 712.128 Q43.6766 715.278 49.2349 715.278 L63.1676 715.278 Q65.6132 715.278 66.132 714.351 Q66.6137 713.388 66.6137 709.386 L68.9482 709.386 Q68.7258 717.131 68.7258 717.872 Q68.7258 718.465 68.9482 726.431 Z" fill="#000000" fill-rule="nonzero" fill-opacity="1" /><path clip-path="url(#clip680)" d="M52.2363 663.586 Q45.0847 663.586 40.0082 658.991 Q34.9316 654.396 34.9316 647.801 Q34.9316 641.131 39.2671 637.685 Q43.6025 634.201 49.8278 634.201 Q50.9765 634.201 51.1988 634.498 Q51.4211 634.794 51.4211 636.091 L51.4211 657.287 Q59.1656 657.287 62.797 654.989 Q67.8736 651.803 67.8736 646.43 Q67.8736 645.689 67.7253 644.799 Q67.5771 643.91 66.9472 642.094 Q66.2802 640.278 64.5386 638.685 Q62.797 637.092 60.0549 636.165 Q58.9804 635.943 59.0174 635.202 Q59.0174 634.201 59.9067 634.201 Q60.5737 634.201 62.093 634.943 Q63.5752 635.647 65.3538 637.018 Q67.1325 638.389 68.4664 641.057 Q69.8004 643.688 69.8004 646.874 Q69.8004 653.544 64.7609 658.584 Q59.6844 663.586 52.2363 663.586 M49.8278 657.213 L49.8278 639.204 Q48.2344 639.204 46.4557 639.5 Q44.6771 639.76 42.2315 640.575 Q39.7488 641.353 38.1925 643.206 Q36.6362 645.059 36.6362 647.801 Q36.6362 649.023 37.1549 650.357 Q37.6737 651.654 38.9336 653.248 Q40.1934 654.841 43.0467 655.953 Q45.8999 657.064 49.8278 657.213 Z" fill="#000000" fill-rule="nonzero" fill-opacity="1" /><path clip-path="url(#clip680)" d="M49.976 599.259 Q37.1549 599.259 26.8166 594.478 Q22.4811 592.44 18.8497 589.587 Q15.2184 586.734 13.625 584.844 Q12.0316 582.954 12.0316 582.436 Q12.0316 581.694 12.7727 581.657 Q13.1433 581.657 14.0696 582.658 Q26.5201 594.886 49.976 594.849 Q73.5059 594.849 85.4747 582.954 Q86.7716 581.657 87.1792 581.657 Q87.9203 581.657 87.9203 582.436 Q87.9203 582.954 86.4011 584.77 Q84.8818 586.586 81.3987 589.402 Q77.9155 592.218 73.6541 594.256 Q63.3158 599.259 49.976 599.259 Z" fill="#000000" fill-rule="nonzero" fill-opacity="1" /><path clip-path="url(#clip680)" d="M67.9477 574.839 L57.9428 574.839 Q57.0905 574.839 56.7941 574.802 Q56.4977 574.765 56.2753 574.543 Q56.053 574.32 56.053 573.876 Q56.053 573.357 56.2753 573.172 Q56.4977 572.949 57.3499 572.801 Q62.5747 571.653 65.3538 569.207 Q68.0959 566.724 68.0959 562.241 Q68.0959 557.979 66.2061 555.83 Q64.3163 553.681 61.2037 553.681 Q55.6454 553.681 54.2373 561.574 Q53.3109 566.131 52.7181 568.021 Q52.0881 569.911 50.7171 571.578 Q48.0491 574.839 44.2695 574.839 Q40.4899 574.839 37.7108 571.986 Q34.9316 569.096 34.9316 562.722 Q34.9316 558.461 37.0808 555.571 Q36.4138 554.718 35.858 554.274 Q34.9316 553.273 34.9316 552.754 Q34.9316 552.162 35.3392 552.05 Q35.7098 551.939 36.7844 551.939 L44.4177 551.939 Q45.27 551.939 45.5664 551.976 Q45.8629 552.013 46.0852 552.236 Q46.2705 552.458 46.2705 552.94 Q46.2705 553.792 45.5664 553.829 Q36.3768 554.422 36.3768 562.722 Q36.3768 567.206 38.1184 569.207 Q39.8229 571.208 42.1574 571.208 Q43.4543 571.208 44.4548 570.615 Q45.4182 569.985 46.0111 569.207 Q46.5669 568.392 47.1227 566.909 Q47.6415 565.427 47.8268 564.538 Q48.0121 563.612 48.3826 561.87 Q49.5313 555.793 52.014 553.236 Q55.2007 550.049 59.2397 550.049 Q63.7234 550.049 66.7619 553.088 Q69.8004 556.126 69.8004 562.241 Q69.8004 567.169 66.5025 570.615 Q66.9472 571.06 67.3548 571.393 Q67.7253 571.727 67.8736 571.875 Q68.0218 571.986 68.1329 572.023 Q68.2071 572.06 68.2812 572.134 Q69.8004 573.654 69.8004 574.024 Q69.8004 574.617 69.3928 574.728 Q69.0223 574.839 67.9477 574.839 Z" fill="#000000" fill-rule="nonzero" fill-opacity="1" /><path clip-path="url(#clip680)" d="M87.1792 543.157 Q86.8087 543.157 85.8823 542.194 Q73.4318 529.966 49.976 529.966 Q26.446 529.966 14.5514 541.712 Q13.1803 543.157 12.7727 543.157 Q12.0316 543.157 12.0316 542.416 Q12.0316 541.897 13.5509 540.082 Q15.0701 538.229 18.5533 535.45 Q22.0365 532.634 26.2978 530.558 Q36.6362 525.556 49.976 525.556 Q62.797 525.556 73.1354 530.336 Q77.4708 532.374 81.1022 535.227 Q84.7336 538.081 86.327 539.97 Q87.9203 541.86 87.9203 542.416 Q87.9203 543.157 87.1792 543.157 Z" fill="#000000" fill-rule="nonzero" fill-opacity="1" /><polyline clip-path="url(#clip682)" style="stroke:#0000ff; stroke-linecap:round; stroke-linejoin:round; stroke-width:12; stroke-opacity:1; fill:none" points="1795.27,943.697 1338.75,732.695 887.186,514.188 473.327,297.246 548.682,82.1398 "/>
<line clip-path="url(#clip682)" x1="1795.27" y1="943.697" x2="1795.27" y2="927.697" style="stroke:#0000ff; stroke-width:12; stroke-opacity:1"/>
<line clip-path="url(#clip682)" x1="1795.27" y1="943.697" x2="1779.27" y2="943.697" style="stroke:#0000ff; stroke-width:12; stroke-opacity:1"/>
<line clip-path="url(#clip682)" x1="1795.27" y1="943.697" x2="1795.27" y2="959.697" style="stroke:#0000ff; stroke-width:12; stroke-opacity:1"/>
<line clip-path="url(#clip682)" x1="1795.27" y1="943.697" x2="1811.27" y2="943.697" style="stroke:#0000ff; stroke-width:12; stroke-opacity:1"/>
<line clip-path="url(#clip682)" x1="1338.75" y1="732.695" x2="1338.75" y2="716.695" style="stroke:#0000ff; stroke-width:12; stroke-opacity:1"/>
<line clip-path="url(#clip682)" x1="1338.75" y1="732.695" x2="1322.75" y2="732.695" style="stroke:#0000ff; stroke-width:12; stroke-opacity:1"/>
<line clip-path="url(#clip682)" x1="1338.75" y1="732.695" x2="1338.75" y2="748.695" style="stroke:#0000ff; stroke-width:12; stroke-opacity:1"/>
<line clip-path="url(#clip682)" x1="1338.75" y1="732.695" x2="1354.75" y2="732.695" style="stroke:#0000ff; stroke-width:12; stroke-opacity:1"/>
<line clip-path="url(#clip682)" x1="887.186" y1="514.188" x2="887.186" y2="498.188" style="stroke:#0000ff; stroke-width:12; stroke-opacity:1"/>
<line clip-path="url(#clip682)" x1="887.186" y1="514.188" x2="871.186" y2="514.188" style="stroke:#0000ff; stroke-width:12; stroke-opacity:1"/>
<line clip-path="url(#clip682)" x1="887.186" y1="514.188" x2="887.186" y2="530.188" style="stroke:#0000ff; stroke-width:12; stroke-opacity:1"/>
<line clip-path="url(#clip682)" x1="887.186" y1="514.188" x2="903.186" y2="514.188" style="stroke:#0000ff; stroke-width:12; stroke-opacity:1"/>
<line clip-path="url(#clip682)" x1="473.327" y1="297.246" x2="473.327" y2="281.246" style="stroke:#0000ff; stroke-width:12; stroke-opacity:1"/>
<line clip-path="url(#clip682)" x1="473.327" y1="297.246" x2="457.327" y2="297.246" style="stroke:#0000ff; stroke-width:12; stroke-opacity:1"/>
<line clip-path="url(#clip682)" x1="473.327" y1="297.246" x2="473.327" y2="313.246" style="stroke:#0000ff; stroke-width:12; stroke-opacity:1"/>
<line clip-path="url(#clip682)" x1="473.327" y1="297.246" x2="489.327" y2="297.246" style="stroke:#0000ff; stroke-width:12; stroke-opacity:1"/>
<line clip-path="url(#clip682)" x1="548.682" y1="82.1398" x2="548.682" y2="66.1398" style="stroke:#0000ff; stroke-width:12; stroke-opacity:1"/>
<line clip-path="url(#clip682)" x1="548.682" y1="82.1398" x2="532.682" y2="82.1398" style="stroke:#0000ff; stroke-width:12; stroke-opacity:1"/>
<line clip-path="url(#clip682)" x1="548.682" y1="82.1398" x2="548.682" y2="98.1398" style="stroke:#0000ff; stroke-width:12; stroke-opacity:1"/>
<line clip-path="url(#clip682)" x1="548.682" y1="82.1398" x2="564.682" y2="82.1398" style="stroke:#0000ff; stroke-width:12; stroke-opacity:1"/>
<polyline clip-path="url(#clip682)" style="stroke:#7f007f; stroke-linecap:round; stroke-linejoin:round; stroke-width:12; stroke-opacity:1; fill:none" points="1535.77,1236.25 1047.2,1070.99 342.378,917.398 545.144,742.646 548.72,571.495 "/>
<circle clip-path="url(#clip682)" cx="1535.77" cy="1236.25" r="14.4" fill="#7f007f" fill-rule="evenodd" fill-opacity="1" stroke="#000000" stroke-opacity="1" stroke-width="1.536"/>
<circle clip-path="url(#clip682)" cx="1047.2" cy="1070.99" r="14.4" fill="#7f007f" fill-rule="evenodd" fill-opacity="1" stroke="#000000" stroke-opacity="1" stroke-width="1.536"/>
<circle clip-path="url(#clip682)" cx="342.378" cy="917.398" r="14.4" fill="#7f007f" fill-rule="evenodd" fill-opacity="1" stroke="#000000" stroke-opacity="1" stroke-width="1.536"/>
<circle clip-path="url(#clip682)" cx="545.144" cy="742.646" r="14.4" fill="#7f007f" fill-rule="evenodd" fill-opacity="1" stroke="#000000" stroke-opacity="1" stroke-width="1.536"/>
<circle clip-path="url(#clip682)" cx="548.72" cy="571.495" r="14.4" fill="#7f007f" fill-rule="evenodd" fill-opacity="1" stroke="#000000" stroke-opacity="1" stroke-width="1.536"/>
<polyline clip-path="url(#clip682)" style="stroke:#ff0000; stroke-linecap:round; stroke-linejoin:round; stroke-width:12; stroke-opacity:1; fill:none" points="1569.72,1245.33 738.347,1213.92 523.18,1073.29 546.647,929.01 548.595,787.865 "/>
<line clip-path="url(#clip682)" x1="1569.72" y1="1245.33" x2="1569.72" y2="1229.33" style="stroke:#ff0000; stroke-width:12; stroke-opacity:1"/>
<line clip-path="url(#clip682)" x1="1569.72" y1="1245.33" x2="1553.72" y2="1245.33" style="stroke:#ff0000; stroke-width:12; stroke-opacity:1"/>
<line clip-path="url(#clip682)" x1="1569.72" y1="1245.33" x2="1569.72" y2="1261.33" style="stroke:#ff0000; stroke-width:12; stroke-opacity:1"/>
<line clip-path="url(#clip682)" x1="1569.72" y1="1245.33" x2="1585.72" y2="1245.33" style="stroke:#ff0000; stroke-width:12; stroke-opacity:1"/>
<line clip-path="url(#clip682)" x1="738.347" y1="1213.92" x2="738.347" y2="1197.92" style="stroke:#ff0000; stroke-width:12; stroke-opacity:1"/>
<line clip-path="url(#clip682)" x1="738.347" y1="1213.92" x2="722.347" y2="1213.92" style="stroke:#ff0000; stroke-width:12; stroke-opacity:1"/>
<line clip-path="url(#clip682)" x1="738.347" y1="1213.92" x2="738.347" y2="1229.92" style="stroke:#ff0000; stroke-width:12; stroke-opacity:1"/>
<line clip-path="url(#clip682)" x1="738.347" y1="1213.92" x2="754.347" y2="1213.92" style="stroke:#ff0000; stroke-width:12; stroke-opacity:1"/>
<line clip-path="url(#clip682)" x1="523.18" y1="1073.29" x2="523.18" y2="1057.29" style="stroke:#ff0000; stroke-width:12; stroke-opacity:1"/>
<line clip-path="url(#clip682)" x1="523.18" y1="1073.29" x2="507.18" y2="1073.29" style="stroke:#ff0000; stroke-width:12; stroke-opacity:1"/>
<line clip-path="url(#clip682)" x1="523.18" y1="1073.29" x2="523.18" y2="1089.29" style="stroke:#ff0000; stroke-width:12; stroke-opacity:1"/>
<line clip-path="url(#clip682)" x1="523.18" y1="1073.29" x2="539.18" y2="1073.29" style="stroke:#ff0000; stroke-width:12; stroke-opacity:1"/>
<line clip-path="url(#clip682)" x1="546.647" y1="929.01" x2="546.647" y2="913.01" style="stroke:#ff0000; stroke-width:12; stroke-opacity:1"/>
<line clip-path="url(#clip682)" x1="546.647" y1="929.01" x2="530.647" y2="929.01" style="stroke:#ff0000; stroke-width:12; stroke-opacity:1"/>
<line clip-path="url(#clip682)" x1="546.647" y1="929.01" x2="546.647" y2="945.01" style="stroke:#ff0000; stroke-width:12; stroke-opacity:1"/>
<line clip-path="url(#clip682)" x1="546.647" y1="929.01" x2="562.647" y2="929.01" style="stroke:#ff0000; stroke-width:12; stroke-opacity:1"/>
<line clip-path="url(#clip682)" x1="548.595" y1="787.865" x2="548.595" y2="771.865" style="stroke:#ff0000; stroke-width:12; stroke-opacity:1"/>
<line clip-path="url(#clip682)" x1="548.595" y1="787.865" x2="532.595" y2="787.865" style="stroke:#ff0000; stroke-width:12; stroke-opacity:1"/>
<line clip-path="url(#clip682)" x1="548.595" y1="787.865" x2="548.595" y2="803.865" style="stroke:#ff0000; stroke-width:12; stroke-opacity:1"/>
<line clip-path="url(#clip682)" x1="548.595" y1="787.865" x2="564.595" y2="787.865" style="stroke:#ff0000; stroke-width:12; stroke-opacity:1"/>
<path clip-path="url(#clip680)" d="M1904.12 295.703 L2256.76 295.703 L2256.76 88.3434 L1904.12 88.3434  Z" fill="#ffffff" fill-rule="evenodd" fill-opacity="1"/>
<polyline clip-path="url(#clip680)" style="stroke:#000000; stroke-linecap:round; stroke-linejoin:round; stroke-width:4; stroke-opacity:1; fill:none" points="1904.12,295.703 2256.76,295.703 2256.76,88.3434 1904.12,88.3434 1904.12,295.703 "/>
<polyline clip-path="url(#clip680)" style="stroke:#0000ff; stroke-linecap:round; stroke-linejoin:round; stroke-width:12; stroke-opacity:1; fill:none" points="1925.87,140.183 2056.4,140.183 "/>
<line clip-path="url(#clip680)" x1="1991.14" y1="140.183" x2="1991.14" y2="120.04" style="stroke:#0000ff; stroke-width:12; stroke-opacity:1"/>
<line clip-path="url(#clip680)" x1="1991.14" y1="140.183" x2="1970.99" y2="140.183" style="stroke:#0000ff; stroke-width:12; stroke-opacity:1"/>
<line clip-path="url(#clip680)" x1="1991.14" y1="140.183" x2="1991.14" y2="160.327" style="stroke:#0000ff; stroke-width:12; stroke-opacity:1"/>
<line clip-path="url(#clip680)" x1="1991.14" y1="140.183" x2="2011.28" y2="140.183" style="stroke:#0000ff; stroke-width:12; stroke-opacity:1"/>
<path clip-path="url(#clip680)" d="M2078.16 157.463 L2078.16 155.907 L2079.37 155.907 Q2082.11 155.907 2082.73 155.462 Q2083.37 154.993 2083.37 153.511 L2083.37 127.004 Q2083.37 125.547 2082.73 125.102 Q2082.09 124.633 2079.37 124.633 L2078.16 124.633 L2078.16 123.052 L2106.64 123.052 L2108.05 134.44 L2106.79 134.44 Q2106.44 131.55 2105.98 129.894 Q2105.53 128.215 2104.42 126.93 Q2103.33 125.646 2101.53 125.151 Q2099.75 124.633 2096.86 124.633 L2090.34 124.633 Q2088.61 124.633 2088.24 125.003 Q2087.87 125.349 2087.87 126.658 L2087.87 138.788 L2092.41 138.788 Q2095.9 138.788 2096.88 137.577 Q2097.87 136.367 2097.87 132.884 L2099.16 132.884 L2099.16 146.273 L2097.87 146.273 Q2097.87 142.839 2096.88 141.604 Q2095.9 140.369 2092.41 140.369 L2087.87 140.369 L2087.87 153.881 Q2087.87 155.191 2088.24 155.561 Q2088.63 155.907 2090.34 155.907 L2097.08 155.907 Q2099.26 155.907 2100.84 155.635 Q2102.44 155.339 2103.55 154.647 Q2104.67 153.931 2105.41 153.116 Q2106.17 152.3 2106.69 150.843 Q2107.23 149.361 2107.53 148.002 Q2107.85 146.643 2108.2 144.42 L2109.46 144.42 L2107.33 157.463 L2078.16 157.463 Z" fill="#000000" fill-rule="nonzero" fill-opacity="1" /><path clip-path="url(#clip680)" d="M2112.55 157.463 L2112.55 155.907 L2113.76 155.907 Q2116.5 155.907 2117.12 155.462 Q2117.76 154.993 2117.76 153.511 L2117.76 126.856 Q2117.76 125.398 2117.12 124.954 Q2116.47 124.484 2113.76 124.484 L2112.55 124.484 L2112.55 122.903 Q2114.32 123.052 2120.03 123.052 Q2125.69 123.052 2127.47 122.903 L2127.47 124.484 L2126.26 124.484 Q2123.51 124.484 2122.87 124.954 Q2122.25 125.398 2122.25 126.856 L2122.25 142.938 L2138.09 127.819 Q2139 127.004 2139 126.14 Q2139 125.843 2138.86 125.522 Q2138.73 125.176 2138.14 124.83 Q2137.57 124.484 2136.66 124.484 L2136.66 122.903 Q2138.39 123.052 2143.1 123.052 Q2146.09 123.052 2147.4 122.903 L2147.4 124.484 Q2143.2 124.534 2140.21 127.523 L2131.1 136.268 L2142.78 153.461 Q2143.85 155.018 2144.88 155.462 Q2145.92 155.907 2148.09 155.907 L2148.09 157.463 Q2144.91 157.315 2142.29 157.315 Q2136.83 157.315 2135.05 157.463 L2135.05 155.907 Q2138.04 155.907 2138.04 154.376 Q2138.04 153.807 2137.27 152.646 L2128.11 139.109 L2122.25 144.667 L2122.25 153.511 Q2122.25 154.968 2122.87 155.438 Q2123.51 155.907 2126.26 155.907 L2127.47 155.907 L2127.47 157.463 Q2125.69 157.315 2119.98 157.315 Q2114.32 157.315 2112.55 157.463 Z" fill="#000000" fill-rule="nonzero" fill-opacity="1" /><path clip-path="url(#clip680)" d="M2154.67 128.585 L2154.67 127.004 Q2160.74 127.004 2163.88 123.768 Q2164.74 123.768 2164.89 123.966 Q2165.04 124.163 2165.04 125.077 L2165.04 153.461 Q2165.04 154.968 2165.78 155.438 Q2166.52 155.907 2169.76 155.907 L2171.36 155.907 L2171.36 157.463 Q2169.59 157.315 2163.16 157.315 Q2156.74 157.315 2154.99 157.463 L2154.99 155.907 L2156.59 155.907 Q2159.78 155.907 2160.54 155.462 Q2161.31 154.993 2161.31 153.461 L2161.31 127.251 Q2158.67 128.585 2154.67 128.585 Z" fill="#000000" fill-rule="nonzero" fill-opacity="1" /><path clip-path="url(#clip680)" d="M2180.48 144.815 Q2180.48 136.268 2183.67 129.376 Q2185.03 126.485 2186.93 124.064 Q2188.83 121.644 2190.09 120.581 Q2191.35 119.519 2191.7 119.519 Q2192.19 119.519 2192.21 120.013 Q2192.21 120.26 2191.55 120.878 Q2183.4 129.178 2183.42 144.815 Q2183.42 160.502 2191.35 168.481 Q2192.21 169.346 2192.21 169.617 Q2192.21 170.112 2191.7 170.112 Q2191.35 170.112 2190.14 169.099 Q2188.93 168.086 2187.05 165.764 Q2185.17 163.442 2183.82 160.601 Q2180.48 153.709 2180.48 144.815 Z" fill="#000000" fill-rule="nonzero" fill-opacity="1" /><path clip-path="url(#clip680)" d="M2197.6 157.463 Q2197.6 156.549 2197.67 156.278 Q2197.77 156.006 2198.17 155.586 L2207.88 144.766 Q2213.19 138.788 2213.19 133.575 Q2213.19 130.191 2211.41 127.77 Q2209.66 125.349 2206.42 125.349 Q2204.2 125.349 2202.32 126.708 Q2200.44 128.066 2199.58 130.487 Q2199.72 130.438 2200.24 130.438 Q2201.5 130.438 2202.19 131.228 Q2202.91 132.019 2202.91 133.081 Q2202.91 134.44 2202.02 135.107 Q2201.16 135.749 2200.29 135.749 Q2199.95 135.749 2199.48 135.675 Q2199.03 135.601 2198.32 134.909 Q2197.6 134.193 2197.6 132.933 Q2197.6 129.4 2200.27 126.584 Q2202.96 123.768 2207.06 123.768 Q2211.71 123.768 2214.74 126.535 Q2217.81 129.277 2217.81 133.575 Q2217.81 135.082 2217.34 136.466 Q2216.89 137.824 2216.28 138.887 Q2215.68 139.949 2214.05 141.653 Q2212.42 143.358 2211.11 144.568 Q2209.8 145.779 2206.86 148.348 L2201.5 153.56 L2210.62 153.56 Q2215.07 153.56 2215.41 153.165 Q2215.91 152.449 2216.52 148.669 L2217.81 148.669 L2216.37 157.463 L2197.6 157.463 Z" fill="#000000" fill-rule="nonzero" fill-opacity="1" /><path clip-path="url(#clip680)" d="M2223.27 169.617 Q2223.27 169.37 2223.91 168.753 Q2232.06 160.453 2232.06 144.815 Q2232.06 129.129 2224.23 121.199 Q2223.27 120.285 2223.27 120.013 Q2223.27 119.519 2223.76 119.519 Q2224.11 119.519 2225.32 120.532 Q2226.55 121.545 2228.4 123.867 Q2230.28 126.189 2231.67 129.03 Q2235 135.922 2235 144.815 Q2235 153.363 2231.81 160.255 Q2230.46 163.145 2228.55 165.566 Q2226.65 167.987 2225.39 169.049 Q2224.13 170.112 2223.76 170.112 Q2223.27 170.112 2223.27 169.617 Z" fill="#000000" fill-rule="nonzero" fill-opacity="1" /><polyline clip-path="url(#clip680)" style="stroke:#7f007f; stroke-linecap:round; stroke-linejoin:round; stroke-width:12; stroke-opacity:1; fill:none" points="1925.87,192.023 2056.4,192.023 "/>
<circle clip-path="url(#clip680)" cx="1991.14" cy="192.023" r="18.1293" fill="#7f007f" fill-rule="evenodd" fill-opacity="1" stroke="#000000" stroke-opacity="1" stroke-width="2.31304"/>
<path clip-path="url(#clip680)" d="M2078.16 209.303 L2078.16 207.747 L2079.37 207.747 Q2082.11 207.747 2082.73 207.302 Q2083.37 206.833 2083.37 205.351 L2083.37 178.844 Q2083.37 177.387 2082.73 176.942 Q2082.09 176.473 2079.37 176.473 L2078.16 176.473 L2078.16 174.892 L2106.64 174.892 L2108.05 186.28 L2106.79 186.28 Q2106.44 183.39 2105.98 181.734 Q2105.53 180.055 2104.42 178.77 Q2103.33 177.486 2101.53 176.991 Q2099.75 176.473 2096.86 176.473 L2090.34 176.473 Q2088.61 176.473 2088.24 176.843 Q2087.87 177.189 2087.87 178.498 L2087.87 190.628 L2092.41 190.628 Q2095.9 190.628 2096.88 189.417 Q2097.87 188.207 2097.87 184.724 L2099.16 184.724 L2099.16 198.113 L2097.87 198.113 Q2097.87 194.679 2096.88 193.444 Q2095.9 192.209 2092.41 192.209 L2087.87 192.209 L2087.87 205.721 Q2087.87 207.031 2088.24 207.401 Q2088.63 207.747 2090.34 207.747 L2097.08 207.747 Q2099.26 207.747 2100.84 207.475 Q2102.44 207.179 2103.55 206.487 Q2104.67 205.771 2105.41 204.956 Q2106.17 204.14 2106.69 202.683 Q2107.23 201.201 2107.53 199.842 Q2107.85 198.483 2108.2 196.26 L2109.46 196.26 L2107.33 209.303 L2078.16 209.303 Z" fill="#000000" fill-rule="nonzero" fill-opacity="1" /><path clip-path="url(#clip680)" d="M2112.55 209.303 L2112.55 207.747 L2113.76 207.747 Q2116.5 207.747 2117.12 207.302 Q2117.76 206.833 2117.76 205.351 L2117.76 178.696 Q2117.76 177.238 2117.12 176.794 Q2116.47 176.324 2113.76 176.324 L2112.55 176.324 L2112.55 174.743 Q2114.32 174.892 2120.03 174.892 Q2125.69 174.892 2127.47 174.743 L2127.47 176.324 L2126.26 176.324 Q2123.51 176.324 2122.87 176.794 Q2122.25 177.238 2122.25 178.696 L2122.25 194.778 L2138.09 179.659 Q2139 178.844 2139 177.98 Q2139 177.683 2138.86 177.362 Q2138.73 177.016 2138.14 176.67 Q2137.57 176.324 2136.66 176.324 L2136.66 174.743 Q2138.39 174.892 2143.1 174.892 Q2146.09 174.892 2147.4 174.743 L2147.4 176.324 Q2143.2 176.374 2140.21 179.363 L2131.1 188.108 L2142.78 205.301 Q2143.85 206.858 2144.88 207.302 Q2145.92 207.747 2148.09 207.747 L2148.09 209.303 Q2144.91 209.155 2142.29 209.155 Q2136.83 209.155 2135.05 209.303 L2135.05 207.747 Q2138.04 207.747 2138.04 206.216 Q2138.04 205.647 2137.27 204.486 L2128.11 190.949 L2122.25 196.507 L2122.25 205.351 Q2122.25 206.808 2122.87 207.278 Q2123.51 207.747 2126.26 207.747 L2127.47 207.747 L2127.47 209.303 Q2125.69 209.155 2119.98 209.155 Q2114.32 209.155 2112.55 209.303 Z" fill="#000000" fill-rule="nonzero" fill-opacity="1" /><path clip-path="url(#clip680)" d="M2154.67 180.425 L2154.67 178.844 Q2160.74 178.844 2163.88 175.608 Q2164.74 175.608 2164.89 175.806 Q2165.04 176.003 2165.04 176.917 L2165.04 205.301 Q2165.04 206.808 2165.78 207.278 Q2166.52 207.747 2169.76 207.747 L2171.36 207.747 L2171.36 209.303 Q2169.59 209.155 2163.16 209.155 Q2156.74 209.155 2154.99 209.303 L2154.99 207.747 L2156.59 207.747 Q2159.78 207.747 2160.54 207.302 Q2161.31 206.833 2161.31 205.301 L2161.31 179.091 Q2158.67 180.425 2154.67 180.425 Z" fill="#000000" fill-rule="nonzero" fill-opacity="1" /><path clip-path="url(#clip680)" d="M2180.48 196.655 Q2180.48 188.108 2183.67 181.216 Q2185.03 178.325 2186.93 175.904 Q2188.83 173.484 2190.09 172.421 Q2191.35 171.359 2191.7 171.359 Q2192.19 171.359 2192.21 171.853 Q2192.21 172.1 2191.55 172.718 Q2183.4 181.018 2183.42 196.655 Q2183.42 212.342 2191.35 220.321 Q2192.21 221.186 2192.21 221.457 Q2192.21 221.952 2191.7 221.952 Q2191.35 221.952 2190.14 220.939 Q2188.93 219.926 2187.05 217.604 Q2185.17 215.282 2183.82 212.441 Q2180.48 205.549 2180.48 196.655 Z" fill="#000000" fill-rule="nonzero" fill-opacity="1" /><path clip-path="url(#clip680)" d="M2197.2 202.485 Q2197.2 200.978 2198.07 200.262 Q2198.93 199.546 2200.05 199.546 Q2201.21 199.546 2202.02 200.311 Q2202.86 201.053 2202.86 202.362 Q2202.86 203.77 2201.87 204.56 Q2200.91 205.351 2199.53 205.153 Q2200.74 207.179 2202.96 208.093 Q2205.21 209.007 2207.28 209.007 Q2209.46 209.007 2211.21 207.13 Q2212.99 205.252 2212.99 200.657 Q2212.99 196.754 2211.46 194.506 Q2209.95 192.258 2206.96 192.258 L2204.74 192.258 Q2203.97 192.258 2203.75 192.184 Q2203.53 192.11 2203.53 191.69 Q2203.53 191.196 2204.29 191.097 Q2205.06 191.097 2206.27 190.949 Q2209.21 190.85 2210.77 188.306 Q2212.17 185.934 2212.17 182.55 Q2212.17 179.462 2210.69 178.177 Q2209.24 176.868 2207.33 176.868 Q2205.55 176.868 2203.6 177.609 Q2201.65 178.35 2200.59 180.005 Q2203.73 180.005 2203.73 182.55 Q2203.73 183.661 2203.01 184.402 Q2202.32 185.119 2201.16 185.119 Q2200.05 185.119 2199.3 184.427 Q2198.56 183.711 2198.56 182.5 Q2198.56 179.61 2201.13 177.609 Q2203.73 175.608 2207.53 175.608 Q2211.29 175.608 2214.05 177.584 Q2216.84 179.561 2216.84 182.599 Q2216.84 185.588 2214.87 188.034 Q2212.89 190.479 2209.75 191.492 Q2213.61 192.258 2215.91 194.877 Q2218.2 197.471 2218.2 200.657 Q2218.2 204.61 2215.09 207.525 Q2211.98 210.415 2207.43 210.415 Q2203.23 210.415 2200.22 208.142 Q2197.2 205.87 2197.2 202.485 Z" fill="#000000" fill-rule="nonzero" fill-opacity="1" /><path clip-path="url(#clip680)" d="M2223.27 221.457 Q2223.27 221.21 2223.91 220.593 Q2232.06 212.293 2232.06 196.655 Q2232.06 180.969 2224.23 173.039 Q2223.27 172.125 2223.27 171.853 Q2223.27 171.359 2223.76 171.359 Q2224.11 171.359 2225.32 172.372 Q2226.55 173.385 2228.4 175.707 Q2230.28 178.029 2231.67 180.87 Q2235 187.762 2235 196.655 Q2235 205.203 2231.81 212.095 Q2230.46 214.985 2228.55 217.406 Q2226.65 219.827 2225.39 220.889 Q2224.13 221.952 2223.76 221.952 Q2223.27 221.952 2223.27 221.457 Z" fill="#000000" fill-rule="nonzero" fill-opacity="1" /><polyline clip-path="url(#clip680)" style="stroke:#ff0000; stroke-linecap:round; stroke-linejoin:round; stroke-width:12; stroke-opacity:1; fill:none" points="1925.87,243.863 2056.4,243.863 "/>
<line clip-path="url(#clip680)" x1="1991.14" y1="243.863" x2="1991.14" y2="223.72" style="stroke:#ff0000; stroke-width:12; stroke-opacity:1"/>
<line clip-path="url(#clip680)" x1="1991.14" y1="243.863" x2="1970.99" y2="243.863" style="stroke:#ff0000; stroke-width:12; stroke-opacity:1"/>
<line clip-path="url(#clip680)" x1="1991.14" y1="243.863" x2="1991.14" y2="264.007" style="stroke:#ff0000; stroke-width:12; stroke-opacity:1"/>
<line clip-path="url(#clip680)" x1="1991.14" y1="243.863" x2="2011.28" y2="243.863" style="stroke:#ff0000; stroke-width:12; stroke-opacity:1"/>
<path clip-path="url(#clip680)" d="M2078.16 261.143 L2078.16 259.587 L2079.37 259.587 Q2082.11 259.587 2082.73 259.142 Q2083.37 258.673 2083.37 257.191 L2083.37 230.684 Q2083.37 229.227 2082.73 228.782 Q2082.09 228.313 2079.37 228.313 L2078.16 228.313 L2078.16 226.732 L2106.64 226.732 L2108.05 238.12 L2106.79 238.12 Q2106.44 235.23 2105.98 233.574 Q2105.53 231.895 2104.42 230.61 Q2103.33 229.326 2101.53 228.831 Q2099.75 228.313 2096.86 228.313 L2090.34 228.313 Q2088.61 228.313 2088.24 228.683 Q2087.87 229.029 2087.87 230.338 L2087.87 242.468 L2092.41 242.468 Q2095.9 242.468 2096.88 241.257 Q2097.87 240.047 2097.87 236.564 L2099.16 236.564 L2099.16 249.953 L2097.87 249.953 Q2097.87 246.519 2096.88 245.284 Q2095.9 244.049 2092.41 244.049 L2087.87 244.049 L2087.87 257.561 Q2087.87 258.871 2088.24 259.241 Q2088.63 259.587 2090.34 259.587 L2097.08 259.587 Q2099.26 259.587 2100.84 259.315 Q2102.44 259.019 2103.55 258.327 Q2104.67 257.611 2105.41 256.796 Q2106.17 255.98 2106.69 254.523 Q2107.23 253.041 2107.53 251.682 Q2107.85 250.323 2108.2 248.1 L2109.46 248.1 L2107.33 261.143 L2078.16 261.143 Z" fill="#000000" fill-rule="nonzero" fill-opacity="1" /><path clip-path="url(#clip680)" d="M2112.55 261.143 L2112.55 259.587 L2113.76 259.587 Q2116.5 259.587 2117.12 259.142 Q2117.76 258.673 2117.76 257.191 L2117.76 230.536 Q2117.76 229.078 2117.12 228.634 Q2116.47 228.164 2113.76 228.164 L2112.55 228.164 L2112.55 226.583 Q2114.32 226.732 2120.03 226.732 Q2125.69 226.732 2127.47 226.583 L2127.47 228.164 L2126.26 228.164 Q2123.51 228.164 2122.87 228.634 Q2122.25 229.078 2122.25 230.536 L2122.25 246.618 L2138.09 231.499 Q2139 230.684 2139 229.82 Q2139 229.523 2138.86 229.202 Q2138.73 228.856 2138.14 228.51 Q2137.57 228.164 2136.66 228.164 L2136.66 226.583 Q2138.39 226.732 2143.1 226.732 Q2146.09 226.732 2147.4 226.583 L2147.4 228.164 Q2143.2 228.214 2140.21 231.203 L2131.1 239.948 L2142.78 257.141 Q2143.85 258.698 2144.88 259.142 Q2145.92 259.587 2148.09 259.587 L2148.09 261.143 Q2144.91 260.995 2142.29 260.995 Q2136.83 260.995 2135.05 261.143 L2135.05 259.587 Q2138.04 259.587 2138.04 258.056 Q2138.04 257.487 2137.27 256.326 L2128.11 242.789 L2122.25 248.347 L2122.25 257.191 Q2122.25 258.648 2122.87 259.118 Q2123.51 259.587 2126.26 259.587 L2127.47 259.587 L2127.47 261.143 Q2125.69 260.995 2119.98 260.995 Q2114.32 260.995 2112.55 261.143 Z" fill="#000000" fill-rule="nonzero" fill-opacity="1" /><path clip-path="url(#clip680)" d="M2154.67 232.265 L2154.67 230.684 Q2160.74 230.684 2163.88 227.448 Q2164.74 227.448 2164.89 227.646 Q2165.04 227.843 2165.04 228.757 L2165.04 257.141 Q2165.04 258.648 2165.78 259.118 Q2166.52 259.587 2169.76 259.587 L2171.36 259.587 L2171.36 261.143 Q2169.59 260.995 2163.16 260.995 Q2156.74 260.995 2154.99 261.143 L2154.99 259.587 L2156.59 259.587 Q2159.78 259.587 2160.54 259.142 Q2161.31 258.673 2161.31 257.141 L2161.31 230.931 Q2158.67 232.265 2154.67 232.265 Z" fill="#000000" fill-rule="nonzero" fill-opacity="1" /><path clip-path="url(#clip680)" d="M2180.48 248.495 Q2180.48 239.948 2183.67 233.056 Q2185.03 230.165 2186.93 227.744 Q2188.83 225.324 2190.09 224.261 Q2191.35 223.199 2191.7 223.199 Q2192.19 223.199 2192.21 223.693 Q2192.21 223.94 2191.55 224.558 Q2183.4 232.858 2183.42 248.495 Q2183.42 264.182 2191.35 272.161 Q2192.21 273.026 2192.21 273.297 Q2192.21 273.792 2191.7 273.792 Q2191.35 273.792 2190.14 272.779 Q2188.93 271.766 2187.05 269.444 Q2185.17 267.122 2183.82 264.281 Q2180.48 257.389 2180.48 248.495 Z" fill="#000000" fill-rule="nonzero" fill-opacity="1" /><path clip-path="url(#clip680)" d="M2196.49 252.794 L2196.49 251.237 L2212.03 227.497 Q2212.42 226.88 2213.04 226.905 Q2213.61 226.905 2213.73 227.127 Q2213.85 227.349 2213.85 228.214 L2213.85 251.237 L2218.92 251.237 L2218.92 252.794 L2213.85 252.794 L2213.85 257.191 Q2213.85 258.648 2214.45 259.118 Q2215.07 259.587 2217.68 259.587 L2218.75 259.587 L2218.75 261.143 Q2216.67 260.995 2211.88 260.995 Q2207.11 260.995 2205.04 261.143 L2205.04 259.587 L2206.1 259.587 Q2208.72 259.587 2209.33 259.142 Q2209.95 258.673 2209.95 257.191 L2209.95 252.794 L2196.49 252.794 M2197.92 251.237 L2210.25 251.237 L2210.25 232.364 L2197.92 251.237 Z" fill="#000000" fill-rule="nonzero" fill-opacity="1" /><path clip-path="url(#clip680)" d="M2223.27 273.297 Q2223.27 273.05 2223.91 272.433 Q2232.06 264.133 2232.06 248.495 Q2232.06 232.809 2224.23 224.879 Q2223.27 223.965 2223.27 223.693 Q2223.27 223.199 2223.76 223.199 Q2224.11 223.199 2225.32 224.212 Q2226.55 225.225 2228.4 227.547 Q2230.28 229.869 2231.67 232.71 Q2235 239.602 2235 248.495 Q2235 257.043 2231.81 263.935 Q2230.46 266.825 2228.55 269.246 Q2226.65 271.667 2225.39 272.729 Q2224.13 273.792 2223.76 273.792 Q2223.27 273.792 2223.27 273.297 Z" fill="#000000" fill-rule="nonzero" fill-opacity="1" /></svg>
