<?xml version="1.0" encoding="utf-8"?>
<svg xmlns="http://www.w3.org/2000/svg" xmlns:xlink="http://www.w3.org/1999/xlink" width="576" height="384" viewBox="0 0 2304 1536">
<defs>
  <clipPath id="clip630">
    <rect x="0" y="0" width="2304" height="1536"/>
  </clipPath>
</defs>
<path clip-path="url(#clip630)" d="M0 1536 L2304 1536 L2304 0 L0 0  Z" fill="#ffffff" fill-rule="evenodd" fill-opacity="1"/>
<defs>
  <clipPath id="clip631">
    <rect x="460" y="0" width="1614" height="1536"/>
  </clipPath>
</defs>
<path clip-path="url(#clip630)" d="M245.822 1280.22 L1831.79 1280.22 L1831.79 47.2441 L245.822 47.2441  Z" fill="#ffffff" fill-rule="evenodd" fill-opacity="1"/>
<defs>
  <clipPath id="clip632">
    <rect x="245" y="47" width="1587" height="1234"/>
  </clipPath>
</defs>
<polyline clip-path="url(#clip632)" style="stroke:#000000; stroke-linecap:round; stroke-linejoin:round; stroke-width:2.8; stroke-opacity:0.4; fill:none" points="377.841,1280.22 377.841,47.2441 "/>
<polyline clip-path="url(#clip632)" style="stroke:#000000; stroke-linecap:round; stroke-linejoin:round; stroke-width:2.8; stroke-opacity:0.4; fill:none" points="603.853,1280.22 603.853,47.2441 "/>
<polyline clip-path="url(#clip632)" style="stroke:#000000; stroke-linecap:round; stroke-linejoin:round; stroke-width:2.8; stroke-opacity:0.4; fill:none" points="829.866,1280.22 829.866,47.2441 "/>
<polyline clip-path="url(#clip632)" style="stroke:#000000; stroke-linecap:round; stroke-linejoin:round; stroke-width:2.8; stroke-opacity:0.4; fill:none" points="1055.88,1280.22 1055.88,47.2441 "/>
<polyline clip-path="url(#clip632)" style="stroke:#000000; stroke-linecap:round; stroke-linejoin:round; stroke-width:2.8; stroke-opacity:0.4; fill:none" points="1281.89,1280.22 1281.89,47.2441 "/>
<polyline clip-path="url(#clip632)" style="stroke:#000000; stroke-linecap:round; stroke-linejoin:round; stroke-width:2.8; stroke-opacity:0.4; fill:none" points="1507.9,1280.22 1507.9,47.2441 "/>
<polyline clip-path="url(#clip632)" style="stroke:#000000; stroke-linecap:round; stroke-linejoin:round; stroke-width:2.8; stroke-opacity:0.4; fill:none" points="1733.92,1280.22 1733.92,47.2441 "/>
<polyline clip-path="url(#clip632)" style="stroke:#000000; stroke-linecap:round; stroke-linejoin:round; stroke-width:2; stroke-opacity:0.06; fill:none" points="252.891,1280.22 252.891,47.2441 "/>
<polyline clip-path="url(#clip632)" style="stroke:#000000; stroke-linecap:round; stroke-linejoin:round; stroke-width:2; stroke-opacity:0.06; fill:none" points="301.62,1280.22 301.62,47.2441 "/>
<polyline clip-path="url(#clip632)" style="stroke:#000000; stroke-linecap:round; stroke-linejoin:round; stroke-width:2; stroke-opacity:0.06; fill:none" points="334.035,1280.22 334.035,47.2441 "/>
<polyline clip-path="url(#clip632)" style="stroke:#000000; stroke-linecap:round; stroke-linejoin:round; stroke-width:2; stroke-opacity:0.06; fill:none" points="358.361,1280.22 358.361,47.2441 "/>
<polyline clip-path="url(#clip632)" style="stroke:#000000; stroke-linecap:round; stroke-linejoin:round; stroke-width:2; stroke-opacity:0.06; fill:none" points="478.904,1280.22 478.904,47.2441 "/>
<polyline clip-path="url(#clip632)" style="stroke:#000000; stroke-linecap:round; stroke-linejoin:round; stroke-width:2; stroke-opacity:0.06; fill:none" points="527.632,1280.22 527.632,47.2441 "/>
<polyline clip-path="url(#clip632)" style="stroke:#000000; stroke-linecap:round; stroke-linejoin:round; stroke-width:2; stroke-opacity:0.06; fill:none" points="560.048,1280.22 560.048,47.2441 "/>
<polyline clip-path="url(#clip632)" style="stroke:#000000; stroke-linecap:round; stroke-linejoin:round; stroke-width:2; stroke-opacity:0.06; fill:none" points="584.374,1280.22 584.374,47.2441 "/>
<polyline clip-path="url(#clip632)" style="stroke:#000000; stroke-linecap:round; stroke-linejoin:round; stroke-width:2; stroke-opacity:0.06; fill:none" points="704.917,1280.22 704.917,47.2441 "/>
<polyline clip-path="url(#clip632)" style="stroke:#000000; stroke-linecap:round; stroke-linejoin:round; stroke-width:2; stroke-opacity:0.06; fill:none" points="753.645,1280.22 753.645,47.2441 "/>
<polyline clip-path="url(#clip632)" style="stroke:#000000; stroke-linecap:round; stroke-linejoin:round; stroke-width:2; stroke-opacity:0.06; fill:none" points="786.06,1280.22 786.06,47.2441 "/>
<polyline clip-path="url(#clip632)" style="stroke:#000000; stroke-linecap:round; stroke-linejoin:round; stroke-width:2; stroke-opacity:0.06; fill:none" points="810.387,1280.22 810.387,47.2441 "/>
<polyline clip-path="url(#clip632)" style="stroke:#000000; stroke-linecap:round; stroke-linejoin:round; stroke-width:2; stroke-opacity:0.06; fill:none" points="930.93,1280.22 930.93,47.2441 "/>
<polyline clip-path="url(#clip632)" style="stroke:#000000; stroke-linecap:round; stroke-linejoin:round; stroke-width:2; stroke-opacity:0.06; fill:none" points="979.658,1280.22 979.658,47.2441 "/>
<polyline clip-path="url(#clip632)" style="stroke:#000000; stroke-linecap:round; stroke-linejoin:round; stroke-width:2; stroke-opacity:0.06; fill:none" points="1012.07,1280.22 1012.07,47.2441 "/>
<polyline clip-path="url(#clip632)" style="stroke:#000000; stroke-linecap:round; stroke-linejoin:round; stroke-width:2; stroke-opacity:0.06; fill:none" points="1036.4,1280.22 1036.4,47.2441 "/>
<polyline clip-path="url(#clip632)" style="stroke:#000000; stroke-linecap:round; stroke-linejoin:round; stroke-width:2; stroke-opacity:0.06; fill:none" points="1156.94,1280.22 1156.94,47.2441 "/>
<polyline clip-path="url(#clip632)" style="stroke:#000000; stroke-linecap:round; stroke-linejoin:round; stroke-width:2; stroke-opacity:0.06; fill:none" points="1205.67,1280.22 1205.67,47.2441 "/>
<polyline clip-path="url(#clip632)" style="stroke:#000000; stroke-linecap:round; stroke-linejoin:round; stroke-width:2; stroke-opacity:0.06; fill:none" points="1238.09,1280.22 1238.09,47.2441 "/>
<polyline clip-path="url(#clip632)" style="stroke:#000000; stroke-linecap:round; stroke-linejoin:round; stroke-width:2; stroke-opacity:0.06; fill:none" points="1262.41,1280.22 1262.41,47.2441 "/>
<polyline clip-path="url(#clip632)" style="stroke:#000000; stroke-linecap:round; stroke-linejoin:round; stroke-width:2; stroke-opacity:0.06; fill:none" points="1382.96,1280.22 1382.96,47.2441 "/>
<polyline clip-path="url(#clip632)" style="stroke:#000000; stroke-linecap:round; stroke-linejoin:round; stroke-width:2; stroke-opacity:0.06; fill:none" points="1431.68,1280.22 1431.68,47.2441 "/>
<polyline clip-path="url(#clip632)" style="stroke:#000000; stroke-linecap:round; stroke-linejoin:round; stroke-width:2; stroke-opacity:0.06; fill:none" points="1464.1,1280.22 1464.1,47.2441 "/>
<polyline clip-path="url(#clip632)" style="stroke:#000000; stroke-linecap:round; stroke-linejoin:round; stroke-width:2; stroke-opacity:0.06; fill:none" points="1488.43,1280.22 1488.43,47.2441 "/>
<polyline clip-path="url(#clip632)" style="stroke:#000000; stroke-linecap:round; stroke-linejoin:round; stroke-width:2; stroke-opacity:0.06; fill:none" points="1608.97,1280.22 1608.97,47.2441 "/>
<polyline clip-path="url(#clip632)" style="stroke:#000000; stroke-linecap:round; stroke-linejoin:round; stroke-width:2; stroke-opacity:0.06; fill:none" points="1657.7,1280.22 1657.7,47.2441 "/>
<polyline clip-path="url(#clip632)" style="stroke:#000000; stroke-linecap:round; stroke-linejoin:round; stroke-width:2; stroke-opacity:0.06; fill:none" points="1690.11,1280.22 1690.11,47.2441 "/>
<polyline clip-path="url(#clip632)" style="stroke:#000000; stroke-linecap:round; stroke-linejoin:round; stroke-width:2; stroke-opacity:0.06; fill:none" points="1714.44,1280.22 1714.44,47.2441 "/>
<polyline clip-path="url(#clip630)" style="stroke:#000000; stroke-linecap:round; stroke-linejoin:round; stroke-width:4; stroke-opacity:1; fill:none" points="245.822,1280.22 1831.79,1280.22 "/>
<polyline clip-path="url(#clip630)" style="stroke:#000000; stroke-linecap:round; stroke-linejoin:round; stroke-width:4; stroke-opacity:1; fill:none" points="245.822,47.2441 1831.79,47.2441 "/>
<polyline clip-path="url(#clip630)" style="stroke:#000000; stroke-linecap:round; stroke-linejoin:round; stroke-width:4; stroke-opacity:1; fill:none" points="377.841,1280.22 377.841,1261.33 "/>
<polyline clip-path="url(#clip630)" style="stroke:#000000; stroke-linecap:round; stroke-linejoin:round; stroke-width:4; stroke-opacity:1; fill:none" points="603.853,1280.22 603.853,1261.33 "/>
<polyline clip-path="url(#clip630)" style="stroke:#000000; stroke-linecap:round; stroke-linejoin:round; stroke-width:4; stroke-opacity:1; fill:none" points="829.866,1280.22 829.866,1261.33 "/>
<polyline clip-path="url(#clip630)" style="stroke:#000000; stroke-linecap:round; stroke-linejoin:round; stroke-width:4; stroke-opacity:1; fill:none" points="1055.88,1280.22 1055.88,1261.33 "/>
<polyline clip-path="url(#clip630)" style="stroke:#000000; stroke-linecap:round; stroke-linejoin:round; stroke-width:4; stroke-opacity:1; fill:none" points="1281.89,1280.22 1281.89,1261.33 "/>
<polyline clip-path="url(#clip630)" style="stroke:#000000; stroke-linecap:round; stroke-linejoin:round; stroke-width:4; stroke-opacity:1; fill:none" points="1507.9,1280.22 1507.9,1261.33 "/>
<polyline clip-path="url(#clip630)" style="stroke:#000000; stroke-linecap:round; stroke-linejoin:round; stroke-width:4; stroke-opacity:1; fill:none" points="1733.92,1280.22 1733.92,1261.33 "/>
<polyline clip-path="url(#clip630)" style="stroke:#000000; stroke-linecap:round; stroke-linejoin:round; stroke-width:4; stroke-opacity:1; fill:none" points="252.891,1280.22 252.891,1270.78 "/>
<polyline clip-path="url(#clip630)" style="stroke:#000000; stroke-linecap:round; stroke-linejoin:round; stroke-width:4; stroke-opacity:1; fill:none" points="301.62,1280.22 301.62,1270.78 "/>
<polyline clip-path="url(#clip630)" style="stroke:#000000; stroke-linecap:round; stroke-linejoin:round; stroke-width:4; stroke-opacity:1; fill:none" points="334.035,1280.22 334.035,1270.78 "/>
<polyline clip-path="url(#clip630)" style="stroke:#000000; stroke-linecap:round; stroke-linejoin:round; stroke-width:4; stroke-opacity:1; fill:none" points="358.361,1280.22 358.361,1270.78 "/>
<polyline clip-path="url(#clip630)" style="stroke:#000000; stroke-linecap:round; stroke-linejoin:round; stroke-width:4; stroke-opacity:1; fill:none" points="478.904,1280.22 478.904,1270.78 "/>
<polyline clip-path="url(#clip630)" style="stroke:#000000; stroke-linecap:round; stroke-linejoin:round; stroke-width:4; stroke-opacity:1; fill:none" points="527.632,1280.22 527.632,1270.78 "/>
<polyline clip-path="url(#clip630)" style="stroke:#000000; stroke-linecap:round; stroke-linejoin:round; stroke-width:4; stroke-opacity:1; fill:none" points="560.048,1280.22 560.048,1270.78 "/>
<polyline clip-path="url(#clip630)" style="stroke:#000000; stroke-linecap:round; stroke-linejoin:round; stroke-width:4; stroke-opacity:1; fill:none" points="584.374,1280.22 584.374,1270.78 "/>
<polyline clip-path="url(#clip630)" style="stroke:#000000; stroke-linecap:round; stroke-linejoin:round; stroke-width:4; stroke-opacity:1; fill:none" points="704.917,1280.22 704.917,1270.78 "/>
<polyline clip-path="url(#clip630)" style="stroke:#000000; stroke-linecap:round; stroke-linejoin:round; stroke-width:4; stroke-opacity:1; fill:none" points="753.645,1280.22 753.645,1270.78 "/>
<polyline clip-path="url(#clip630)" style="stroke:#000000; stroke-linecap:round; stroke-linejoin:round; stroke-width:4; stroke-opacity:1; fill:none" points="786.06,1280.22 786.06,1270.78 "/>
<polyline clip-path="url(#clip630)" style="stroke:#000000; stroke-linecap:round; stroke-linejoin:round; stroke-width:4; stroke-opacity:1; fill:none" points="810.387,1280.22 810.387,1270.78 "/>
<polyline clip-path="url(#clip630)" style="stroke:#000000; stroke-linecap:round; stroke-linejoin:round; stroke-width:4; stroke-opacity:1; fill:none" points="930.93,1280.22 930.93,1270.78 "/>
<polyline clip-path="url(#clip630)" style="stroke:#000000; stroke-linecap:round; stroke-linejoin:round; stroke-width:4; stroke-opacity:1; fill:none" points="979.658,1280.22 979.658,1270.78 "/>
<polyline clip-path="url(#clip630)" style="stroke:#000000; stroke-linecap:round; stroke-linejoin:round; stroke-width:4; stroke-opacity:1; fill:none" points="1012.07,1280.22 1012.07,1270.78 "/>
<polyline clip-path="url(#clip630)" style="stroke:#000000; stroke-linecap:round; stroke-linejoin:round; stroke-width:4; stroke-opacity:1; fill:none" points="1036.4,1280.22 1036.4,1270.78 "/>
<polyline clip-path="url(#clip630)" style="stroke:#000000; stroke-linecap:round; stroke-linejoin:round; stroke-width:4; stroke-opacity:1; fill:none" points="1156.94,1280.22 1156.94,1270.78 "/>
<polyline clip-path="url(#clip630)" style="stroke:#000000; stroke-linecap:round; stroke-linejoin:round; stroke-width:4; stroke-opacity:1; fill:none" points="1205.67,1280.22 1205.67,1270.78 "/>
<polyline clip-path="url(#clip630)" style="stroke:#000000; stroke-linecap:round; stroke-linejoin:round; stroke-width:4; stroke-opacity:1; fill:none" points="1238.09,1280.22 1238.09,1270.78 "/>
<polyline clip-path="url(#clip630)" style="stroke:#000000; stroke-linecap:round; stroke-linejoin:round; stroke-width:4; stroke-opacity:1; fill:none" points="1262.41,1280.22 1262.41,1270.78 "/>
<polyline clip-path="url(#clip630)" style="stroke:#000000; stroke-linecap:round; stroke-linejoin:round; stroke-width:4; stroke-opacity:1; fill:none" points="1382.96,1280.22 1382.96,1270.78 "/>
<polyline clip-path="url(#clip630)" style="stroke:#000000; stroke-linecap:round; stroke-linejoin:round; stroke-width:4; stroke-opacity:1; fill:none" points="1431.68,1280.22 1431.68,1270.78 "/>
<polyline clip-path="url(#clip630)" style="stroke:#000000; stroke-linecap:round; stroke-linejoin:round; stroke-width:4; stroke-opacity:1; fill:none" points="1464.1,1280.22 1464.1,1270.78 "/>
<polyline clip-path="url(#clip630)" style="stroke:#000000; stroke-linecap:round; stroke-linejoin:round; stroke-width:4; stroke-opacity:1; fill:none" points="1488.43,1280.22 1488.43,1270.78 "/>
<polyline clip-path="url(#clip630)" style="stroke:#000000; stroke-linecap:round; stroke-linejoin:round; stroke-width:4; stroke-opacity:1; fill:none" points="1608.97,1280.22 1608.97,1270.78 "/>
<polyline clip-path="url(#clip630)" style="stroke:#000000; stroke-linecap:round; stroke-linejoin:round; stroke-width:4; stroke-opacity:1; fill:none" points="1657.7,1280.22 1657.7,1270.78 "/>
<polyline clip-path="url(#clip630)" style="stroke:#000000; stroke-linecap:round; stroke-linejoin:round; stroke-width:4; stroke-opacity:1; fill:none" points="1690.11,1280.22 1690.11,1270.78 "/>
<polyline clip-path="url(#clip630)" style="stroke:#000000; stroke-linecap:round; stroke-linejoin:round; stroke-width:4; stroke-opacity:1; fill:none" points="1714.44,1280.22 1714.44,1270.78 "/>
<path clip-path="url(#clip630)" d="M321.302 1328.64 L321.302 1327.06 Q327.379 1327.06 330.517 1323.82 Q331.381 1323.82 331.53 1324.02 Q331.678 1324.22 331.678 1325.13 L331.678 1353.51 Q331.678 1355.02 332.419 1355.49 Q333.16 1355.96 336.396 1355.96 L338.002 1355.96 L338.002 1357.52 Q336.223 1357.37 329.8 1357.37 Q323.377 1357.37 321.624 1357.52 L321.624 1355.96 L323.229 1355.96 Q326.416 1355.96 327.182 1355.52 Q327.948 1355.05 327.948 1353.51 L327.948 1327.3 Q325.304 1328.64 321.302 1328.64 Z" fill="#000000" fill-rule="nonzero" fill-opacity="1" /><path clip-path="url(#clip630)" d="M344.079 1341.34 Q344.079 1333.9 345.956 1329.85 Q348.575 1323.82 354.751 1323.82 Q356.06 1323.82 357.419 1324.19 Q358.802 1324.54 360.531 1325.9 Q362.285 1327.25 363.347 1329.48 Q365.373 1333.78 365.373 1341.34 Q365.373 1348.72 363.496 1352.75 Q360.754 1358.63 354.701 1358.63 Q352.429 1358.63 350.106 1357.47 Q347.809 1356.31 346.352 1353.51 Q344.079 1349.34 344.079 1341.34 M348.278 1340.72 Q348.278 1348.35 348.822 1351.39 Q349.44 1354.68 351.119 1356.11 Q352.824 1357.52 354.701 1357.52 Q356.727 1357.52 358.407 1356.01 Q360.111 1354.48 360.63 1351.19 Q361.198 1347.96 361.174 1340.72 Q361.174 1333.68 360.68 1330.86 Q360.013 1327.58 358.234 1326.27 Q356.48 1324.93 354.701 1324.93 Q354.034 1324.93 353.318 1325.13 Q352.626 1325.33 351.613 1325.9 Q350.601 1326.46 349.81 1327.87 Q349.044 1329.28 348.674 1331.41 Q348.278 1334.15 348.278 1340.72 Z" fill="#000000" fill-rule="nonzero" fill-opacity="1" /><path clip-path="url(#clip630)" d="M392.51 1319.25 Q392.751 1319.49 392.751 1319.83 Q392.751 1320.17 392.51 1320.41 Q392.269 1320.65 391.928 1320.65 L366.196 1320.65 Q365.855 1320.65 365.614 1320.41 Q365.373 1320.17 365.373 1319.83 Q365.373 1319.49 365.614 1319.25 Q365.855 1319.01 366.196 1319.01 L391.928 1319.01 Q392.269 1319.01 392.51 1319.25 Z" fill="#000000" fill-rule="nonzero" fill-opacity="1" /><path clip-path="url(#clip630)" d="M398.692 1306.64 L398.692 1305.36 Q403.629 1305.36 406.178 1302.73 Q406.881 1302.73 407.001 1302.89 Q407.122 1303.05 407.122 1303.79 L407.122 1326.85 Q407.122 1328.08 407.724 1328.46 Q408.326 1328.84 410.956 1328.84 L412.26 1328.84 L412.26 1330.11 Q410.815 1329.99 405.596 1329.99 Q400.378 1329.99 398.953 1330.11 L398.953 1328.84 L400.257 1328.84 Q402.847 1328.84 403.469 1328.48 Q404.091 1328.1 404.091 1326.85 L404.091 1305.56 Q401.943 1306.64 398.692 1306.64 Z" fill="#000000" fill-rule="nonzero" fill-opacity="1" /><path clip-path="url(#clip630)" d="M417.318 1324.57 Q417.318 1323.34 418.021 1322.76 Q418.723 1322.18 419.626 1322.18 Q420.57 1322.18 421.232 1322.8 Q421.915 1323.4 421.915 1324.47 Q421.915 1325.61 421.112 1326.25 Q420.329 1326.89 419.205 1326.73 Q420.188 1328.38 421.995 1329.12 Q423.821 1329.87 425.507 1329.87 Q427.274 1329.87 428.699 1328.34 Q430.144 1326.81 430.144 1323.08 Q430.144 1319.91 428.899 1318.08 Q427.675 1316.26 425.246 1316.26 L423.44 1316.26 Q422.818 1316.26 422.637 1316.2 Q422.456 1316.14 422.456 1315.8 Q422.456 1315.39 423.079 1315.31 Q423.701 1315.31 424.684 1315.19 Q427.073 1315.11 428.337 1313.05 Q429.481 1311.12 429.481 1308.37 Q429.481 1305.86 428.277 1304.82 Q427.093 1303.75 425.547 1303.75 Q424.102 1303.75 422.517 1304.35 Q420.931 1304.96 420.068 1306.3 Q422.617 1306.3 422.617 1308.37 Q422.617 1309.27 422.035 1309.87 Q421.473 1310.46 420.53 1310.46 Q419.626 1310.46 419.024 1309.89 Q418.422 1309.31 418.422 1308.33 Q418.422 1305.98 420.51 1304.35 Q422.617 1302.73 425.708 1302.73 Q428.759 1302.73 431.007 1304.33 Q433.275 1305.94 433.275 1308.41 Q433.275 1310.84 431.669 1312.82 Q430.064 1314.81 427.514 1315.63 Q430.646 1316.26 432.512 1318.38 Q434.379 1320.49 434.379 1323.08 Q434.379 1326.29 431.85 1328.66 Q429.321 1331.01 425.628 1331.01 Q422.216 1331.01 419.767 1329.16 Q417.318 1327.32 417.318 1324.57 Z" fill="#000000" fill-rule="nonzero" fill-opacity="1" /><path clip-path="url(#clip630)" d="M547.476 1328.64 L547.476 1327.06 Q553.553 1327.06 556.69 1323.82 Q557.555 1323.82 557.703 1324.02 Q557.851 1324.22 557.851 1325.13 L557.851 1353.51 Q557.851 1355.02 558.592 1355.49 Q559.333 1355.96 562.569 1355.96 L564.175 1355.96 L564.175 1357.52 Q562.397 1357.37 555.974 1357.37 Q549.551 1357.37 547.797 1357.52 L547.797 1355.96 L549.403 1355.96 Q552.589 1355.96 553.355 1355.52 Q554.121 1355.05 554.121 1353.51 L554.121 1327.3 Q551.478 1328.64 547.476 1328.64 Z" fill="#000000" fill-rule="nonzero" fill-opacity="1" /><path clip-path="url(#clip630)" d="M570.252 1341.34 Q570.252 1333.9 572.13 1329.85 Q574.748 1323.82 580.924 1323.82 Q582.233 1323.82 583.592 1324.19 Q584.975 1324.54 586.705 1325.9 Q588.459 1327.25 589.521 1329.48 Q591.547 1333.78 591.547 1341.34 Q591.547 1348.72 589.669 1352.75 Q586.927 1358.63 580.875 1358.63 Q578.602 1358.63 576.28 1357.47 Q573.982 1356.31 572.525 1353.51 Q570.252 1349.34 570.252 1341.34 M574.452 1340.72 Q574.452 1348.35 574.995 1351.39 Q575.613 1354.68 577.293 1356.11 Q578.997 1357.52 580.875 1357.52 Q582.9 1357.52 584.58 1356.01 Q586.285 1354.48 586.803 1351.19 Q587.372 1347.96 587.347 1340.72 Q587.347 1333.68 586.853 1330.86 Q586.186 1327.58 584.407 1326.27 Q582.653 1324.93 580.875 1324.93 Q580.208 1324.93 579.491 1325.13 Q578.8 1325.33 577.787 1325.9 Q576.774 1326.46 575.983 1327.87 Q575.218 1329.28 574.847 1331.41 Q574.452 1334.15 574.452 1340.72 Z" fill="#000000" fill-rule="nonzero" fill-opacity="1" /><path clip-path="url(#clip630)" d="M618.683 1319.25 Q618.924 1319.49 618.924 1319.83 Q618.924 1320.17 618.683 1320.41 Q618.442 1320.65 618.101 1320.65 L592.369 1320.65 Q592.028 1320.65 591.787 1320.41 Q591.547 1320.17 591.547 1319.83 Q591.547 1319.49 591.787 1319.25 Q592.028 1319.01 592.369 1319.01 L618.101 1319.01 Q618.442 1319.01 618.683 1319.25 Z" fill="#000000" fill-rule="nonzero" fill-opacity="1" /><path clip-path="url(#clip630)" d="M624.865 1306.64 L624.865 1305.36 Q629.803 1305.36 632.352 1302.73 Q633.054 1302.73 633.175 1302.89 Q633.295 1303.05 633.295 1303.79 L633.295 1326.85 Q633.295 1328.08 633.897 1328.46 Q634.499 1328.84 637.129 1328.84 L638.433 1328.84 L638.433 1330.11 Q636.988 1329.99 631.77 1329.99 Q626.551 1329.99 625.126 1330.11 L625.126 1328.84 L626.431 1328.84 Q629.02 1328.84 629.642 1328.48 Q630.264 1328.1 630.264 1326.85 L630.264 1305.56 Q628.117 1306.64 624.865 1306.64 Z" fill="#000000" fill-rule="nonzero" fill-opacity="1" /><path clip-path="url(#clip630)" d="M643.813 1330.11 Q643.813 1329.36 643.873 1329.14 Q643.953 1328.92 644.274 1328.58 L652.162 1319.79 Q656.478 1314.93 656.478 1310.7 Q656.478 1307.95 655.033 1305.98 Q653.608 1304.01 650.978 1304.01 Q649.172 1304.01 647.646 1305.12 Q646.121 1306.22 645.418 1308.19 Q645.539 1308.15 645.96 1308.15 Q646.984 1308.15 647.546 1308.79 Q648.128 1309.43 648.128 1310.3 Q648.128 1311.4 647.405 1311.94 Q646.703 1312.46 646 1312.46 Q645.719 1312.46 645.338 1312.4 Q644.977 1312.34 644.395 1311.78 Q643.813 1311.2 643.813 1310.18 Q643.813 1307.3 645.98 1305.02 Q648.168 1302.73 651.5 1302.73 Q655.273 1302.73 657.742 1304.98 Q660.231 1307.2 660.231 1310.7 Q660.231 1311.92 659.85 1313.05 Q659.488 1314.15 658.987 1315.01 Q658.505 1315.88 657.18 1317.26 Q655.856 1318.65 654.792 1319.63 Q653.728 1320.61 651.339 1322.7 L646.984 1326.93 L654.39 1326.93 Q658.003 1326.93 658.284 1326.61 Q658.686 1326.03 659.187 1322.96 L660.231 1322.96 L659.067 1330.11 L643.813 1330.11 Z" fill="#000000" fill-rule="nonzero" fill-opacity="1" /><path clip-path="url(#clip630)" d="M774.111 1328.64 L774.111 1327.06 Q780.188 1327.06 783.325 1323.82 Q784.19 1323.82 784.338 1324.02 Q784.486 1324.22 784.486 1325.13 L784.486 1353.51 Q784.486 1355.02 785.227 1355.49 Q785.968 1355.96 789.204 1355.96 L790.81 1355.96 L790.81 1357.52 Q789.032 1357.37 782.609 1357.37 Q776.186 1357.37 774.432 1357.52 L774.432 1355.96 L776.038 1355.96 Q779.224 1355.96 779.99 1355.52 Q780.756 1355.05 780.756 1353.51 L780.756 1327.3 Q778.113 1328.64 774.111 1328.64 Z" fill="#000000" fill-rule="nonzero" fill-opacity="1" /><path clip-path="url(#clip630)" d="M796.887 1341.34 Q796.887 1333.9 798.765 1329.85 Q801.383 1323.82 807.559 1323.82 Q808.868 1323.82 810.227 1324.19 Q811.61 1324.54 813.34 1325.9 Q815.094 1327.25 816.156 1329.48 Q818.182 1333.78 818.182 1341.34 Q818.182 1348.72 816.304 1352.75 Q813.562 1358.63 807.51 1358.63 Q805.237 1358.63 802.915 1357.47 Q800.617 1356.31 799.16 1353.51 Q796.887 1349.34 796.887 1341.34 M801.087 1340.72 Q801.087 1348.35 801.63 1351.39 Q802.248 1354.68 803.928 1356.11 Q805.632 1357.52 807.51 1357.52 Q809.535 1357.52 811.215 1356.01 Q812.92 1354.48 813.438 1351.19 Q814.007 1347.96 813.982 1340.72 Q813.982 1333.68 813.488 1330.86 Q812.821 1327.58 811.042 1326.27 Q809.288 1324.93 807.51 1324.93 Q806.843 1324.93 806.126 1325.13 Q805.435 1325.33 804.422 1325.9 Q803.409 1326.46 802.618 1327.87 Q801.853 1329.28 801.482 1331.41 Q801.087 1334.15 801.087 1340.72 Z" fill="#000000" fill-rule="nonzero" fill-opacity="1" /><path clip-path="url(#clip630)" d="M845.318 1319.25 Q845.559 1319.49 845.559 1319.83 Q845.559 1320.17 845.318 1320.41 Q845.077 1320.65 844.736 1320.65 L819.004 1320.65 Q818.663 1320.65 818.422 1320.41 Q818.182 1320.17 818.182 1319.83 Q818.182 1319.49 818.422 1319.25 Q818.663 1319.01 819.004 1319.01 L844.736 1319.01 Q845.077 1319.01 845.318 1319.25 Z" fill="#000000" fill-rule="nonzero" fill-opacity="1" /><path clip-path="url(#clip630)" d="M851.5 1306.64 L851.5 1305.36 Q856.438 1305.36 858.987 1302.73 Q859.689 1302.73 859.81 1302.89 Q859.93 1303.05 859.93 1303.79 L859.93 1326.85 Q859.93 1328.08 860.532 1328.46 Q861.134 1328.84 863.764 1328.84 L865.068 1328.84 L865.068 1330.11 Q863.623 1329.99 858.405 1329.99 Q853.186 1329.99 851.761 1330.11 L851.761 1328.84 L853.066 1328.84 Q855.655 1328.84 856.277 1328.48 Q856.899 1328.1 856.899 1326.85 L856.899 1305.56 Q854.752 1306.64 851.5 1306.64 Z" fill="#000000" fill-rule="nonzero" fill-opacity="1" /><path clip-path="url(#clip630)" d="M872.053 1306.64 L872.053 1305.36 Q876.991 1305.36 879.54 1302.73 Q880.243 1302.73 880.363 1302.89 Q880.483 1303.05 880.483 1303.79 L880.483 1326.85 Q880.483 1328.08 881.086 1328.46 Q881.688 1328.84 884.317 1328.84 L885.622 1328.84 L885.622 1330.11 Q884.177 1329.99 878.958 1329.99 Q873.739 1329.99 872.314 1330.11 L872.314 1328.84 L873.619 1328.84 Q876.208 1328.84 876.83 1328.48 Q877.453 1328.1 877.453 1326.85 L877.453 1305.56 Q875.305 1306.64 872.053 1306.64 Z" fill="#000000" fill-rule="nonzero" fill-opacity="1" /><path clip-path="url(#clip630)" d="M999.28 1328.64 L999.28 1327.06 Q1005.36 1327.06 1008.49 1323.82 Q1009.36 1323.82 1009.51 1324.02 Q1009.66 1324.22 1009.66 1325.13 L1009.66 1353.51 Q1009.66 1355.02 1010.4 1355.49 Q1011.14 1355.96 1014.37 1355.96 L1015.98 1355.96 L1015.98 1357.52 Q1014.2 1357.37 1007.78 1357.37 Q1001.36 1357.37 999.602 1357.52 L999.602 1355.96 L1001.21 1355.96 Q1004.39 1355.96 1005.16 1355.52 Q1005.93 1355.05 1005.93 1353.51 L1005.93 1327.3 Q1003.28 1328.64 999.28 1328.64 Z" fill="#000000" fill-rule="nonzero" fill-opacity="1" /><path clip-path="url(#clip630)" d="M1022.06 1341.34 Q1022.06 1333.9 1023.93 1329.85 Q1026.55 1323.82 1032.73 1323.82 Q1034.04 1323.82 1035.4 1324.19 Q1036.78 1324.54 1038.51 1325.9 Q1040.26 1327.25 1041.33 1329.48 Q1043.35 1333.78 1043.35 1341.34 Q1043.35 1348.72 1041.47 1352.75 Q1038.73 1358.63 1032.68 1358.63 Q1030.41 1358.63 1028.08 1357.47 Q1025.79 1356.31 1024.33 1353.51 Q1022.06 1349.34 1022.06 1341.34 M1026.26 1340.72 Q1026.26 1348.35 1026.8 1351.39 Q1027.42 1354.68 1029.1 1356.11 Q1030.8 1357.52 1032.68 1357.52 Q1034.71 1357.52 1036.38 1356.01 Q1038.09 1354.48 1038.61 1351.19 Q1039.18 1347.96 1039.15 1340.72 Q1039.15 1333.68 1038.66 1330.86 Q1037.99 1327.58 1036.21 1326.27 Q1034.46 1324.93 1032.68 1324.93 Q1032.01 1324.93 1031.3 1325.13 Q1030.6 1325.33 1029.59 1325.9 Q1028.58 1326.46 1027.79 1327.87 Q1027.02 1329.28 1026.65 1331.41 Q1026.26 1334.15 1026.26 1340.72 Z" fill="#000000" fill-rule="nonzero" fill-opacity="1" /><path clip-path="url(#clip630)" d="M1070.49 1319.25 Q1070.73 1319.49 1070.73 1319.83 Q1070.73 1320.17 1070.49 1320.41 Q1070.25 1320.65 1069.91 1320.65 L1044.17 1320.65 Q1043.83 1320.65 1043.59 1320.41 Q1043.35 1320.17 1043.35 1319.83 Q1043.35 1319.49 1043.59 1319.25 Q1043.83 1319.01 1044.17 1319.01 L1069.91 1319.01 Q1070.25 1319.01 1070.49 1319.25 Z" fill="#000000" fill-rule="nonzero" fill-opacity="1" /><path clip-path="url(#clip630)" d="M1076.67 1306.64 L1076.67 1305.36 Q1081.61 1305.36 1084.16 1302.73 Q1084.86 1302.73 1084.98 1302.89 Q1085.1 1303.05 1085.1 1303.79 L1085.1 1326.85 Q1085.1 1328.08 1085.7 1328.46 Q1086.3 1328.84 1088.93 1328.84 L1090.24 1328.84 L1090.24 1330.11 Q1088.79 1329.99 1083.57 1329.99 Q1078.36 1329.99 1076.93 1330.11 L1076.93 1328.84 L1078.24 1328.84 Q1080.82 1328.84 1081.45 1328.48 Q1082.07 1328.1 1082.07 1326.85 L1082.07 1305.56 Q1079.92 1306.64 1076.67 1306.64 Z" fill="#000000" fill-rule="nonzero" fill-opacity="1" /><path clip-path="url(#clip630)" d="M1095.18 1316.96 Q1095.18 1310.92 1096.7 1307.63 Q1098.83 1302.73 1103.85 1302.73 Q1104.91 1302.73 1106.01 1303.03 Q1107.14 1303.31 1108.54 1304.41 Q1109.97 1305.52 1110.83 1307.32 Q1112.48 1310.82 1112.48 1316.96 Q1112.48 1322.96 1110.95 1326.23 Q1108.72 1331.01 1103.81 1331.01 Q1101.96 1331.01 1100.07 1330.07 Q1098.21 1329.12 1097.02 1326.85 Q1095.18 1323.46 1095.18 1316.96 M1098.59 1316.46 Q1098.59 1322.66 1099.03 1325.13 Q1099.53 1327.8 1100.9 1328.96 Q1102.28 1330.11 1103.81 1330.11 Q1105.45 1330.11 1106.82 1328.88 Q1108.2 1327.64 1108.62 1324.97 Q1109.09 1322.34 1109.07 1316.46 Q1109.07 1310.74 1108.66 1308.45 Q1108.12 1305.78 1106.68 1304.72 Q1105.25 1303.63 1103.81 1303.63 Q1103.26 1303.63 1102.68 1303.79 Q1102.12 1303.95 1101.3 1304.41 Q1100.47 1304.88 1099.83 1306.02 Q1099.21 1307.16 1098.91 1308.89 Q1098.59 1311.12 1098.59 1316.46 Z" fill="#000000" fill-rule="nonzero" fill-opacity="1" /><path clip-path="url(#clip630)" d="M1235.63 1328.64 L1235.63 1327.06 Q1241.71 1327.06 1244.84 1323.82 Q1245.71 1323.82 1245.86 1324.02 Q1246.01 1324.22 1246.01 1325.13 L1246.01 1353.51 Q1246.01 1355.02 1246.75 1355.49 Q1247.49 1355.96 1250.72 1355.96 L1252.33 1355.96 L1252.33 1357.52 Q1250.55 1357.37 1244.13 1357.37 Q1237.71 1357.37 1235.95 1357.52 L1235.95 1355.96 L1237.56 1355.96 Q1240.74 1355.96 1241.51 1355.52 Q1242.28 1355.05 1242.28 1353.51 L1242.28 1327.3 Q1239.63 1328.64 1235.63 1328.64 Z" fill="#000000" fill-rule="nonzero" fill-opacity="1" /><path clip-path="url(#clip630)" d="M1258.41 1341.34 Q1258.41 1333.9 1260.28 1329.85 Q1262.9 1323.82 1269.08 1323.82 Q1270.39 1323.82 1271.75 1324.19 Q1273.13 1324.54 1274.86 1325.9 Q1276.61 1327.25 1277.68 1329.48 Q1279.7 1333.78 1279.7 1341.34 Q1279.7 1348.72 1277.82 1352.75 Q1275.08 1358.63 1269.03 1358.63 Q1266.76 1358.63 1264.43 1357.47 Q1262.14 1356.31 1260.68 1353.51 Q1258.41 1349.34 1258.41 1341.34 M1262.61 1340.72 Q1262.61 1348.35 1263.15 1351.39 Q1263.77 1354.68 1265.45 1356.11 Q1267.15 1357.52 1269.03 1357.52 Q1271.05 1357.52 1272.73 1356.01 Q1274.44 1354.48 1274.96 1351.19 Q1275.53 1347.96 1275.5 1340.72 Q1275.5 1333.68 1275.01 1330.86 Q1274.34 1327.58 1272.56 1326.27 Q1270.81 1324.93 1269.03 1324.93 Q1268.36 1324.93 1267.65 1325.13 Q1266.95 1325.33 1265.94 1325.9 Q1264.93 1326.46 1264.14 1327.87 Q1263.37 1329.28 1263 1331.41 Q1262.61 1334.15 1262.61 1340.72 Z" fill="#000000" fill-rule="nonzero" fill-opacity="1" /><path clip-path="url(#clip630)" d="M1306.84 1319.25 Q1307.08 1319.49 1307.08 1319.83 Q1307.08 1320.17 1306.84 1320.41 Q1306.6 1320.65 1306.26 1320.65 L1280.52 1320.65 Q1280.18 1320.65 1279.94 1320.41 Q1279.7 1320.17 1279.7 1319.83 Q1279.7 1319.49 1279.94 1319.25 Q1280.18 1319.01 1280.52 1319.01 L1306.26 1319.01 Q1306.6 1319.01 1306.84 1319.25 Z" fill="#000000" fill-rule="nonzero" fill-opacity="1" /><path clip-path="url(#clip630)" d="M1311.09 1311.98 Q1311.09 1309.79 1311.73 1308.31 Q1312.38 1306.8 1313.72 1305.32 Q1316.19 1302.73 1319.76 1302.73 Q1321.29 1302.73 1322.63 1303.37 Q1324 1304.01 1325.28 1305.48 Q1326.59 1306.92 1327.37 1309.79 Q1328.15 1312.64 1328.15 1316.58 Q1328.15 1322.94 1325.06 1326.97 Q1321.99 1331.01 1317.84 1331.01 Q1315.21 1331.01 1313.66 1329.83 Q1312.12 1328.62 1312.12 1326.57 Q1312.12 1325.51 1312.72 1325.07 Q1313.32 1324.61 1314 1324.61 Q1314.75 1324.61 1315.33 1325.11 Q1315.91 1325.59 1315.91 1326.49 Q1315.91 1327.24 1315.43 1327.82 Q1314.97 1328.38 1313.76 1328.38 Q1314.95 1329.87 1317.8 1329.87 Q1318.82 1329.87 1319.84 1329.4 Q1320.87 1328.92 1321.97 1327.78 Q1323.1 1326.61 1323.78 1324.19 Q1324.46 1321.76 1324.46 1318.34 L1324.46 1317.04 Q1322.81 1321.15 1319.32 1321.15 Q1315.87 1321.15 1313.48 1318.5 Q1311.09 1315.86 1311.09 1311.98 M1314.79 1312.02 Q1314.79 1316.1 1315.53 1317.6 Q1316.79 1320.19 1319.36 1320.19 Q1321.87 1320.19 1323.12 1317.96 Q1324.38 1315.71 1324.38 1312.8 Q1324.38 1308.77 1323.72 1307 Q1322.49 1303.75 1319.76 1303.75 Q1317.05 1303.75 1315.65 1306.34 Q1314.79 1307.87 1314.79 1312.02 Z" fill="#000000" fill-rule="nonzero" fill-opacity="1" /><path clip-path="url(#clip630)" d="M1461.64 1328.64 L1461.64 1327.06 Q1467.72 1327.06 1470.86 1323.82 Q1471.72 1323.82 1471.87 1324.02 Q1472.02 1324.22 1472.02 1325.13 L1472.02 1353.51 Q1472.02 1355.02 1472.76 1355.49 Q1473.5 1355.96 1476.74 1355.96 L1478.34 1355.96 L1478.34 1357.52 Q1476.56 1357.37 1470.14 1357.37 Q1463.72 1357.37 1461.96 1357.52 L1461.96 1355.96 L1463.57 1355.96 Q1466.76 1355.96 1467.52 1355.52 Q1468.29 1355.05 1468.29 1353.51 L1468.29 1327.3 Q1465.64 1328.64 1461.64 1328.64 Z" fill="#000000" fill-rule="nonzero" fill-opacity="1" /><path clip-path="url(#clip630)" d="M1484.42 1341.34 Q1484.42 1333.9 1486.3 1329.85 Q1488.92 1323.82 1495.09 1323.82 Q1496.4 1323.82 1497.76 1324.19 Q1499.14 1324.54 1500.87 1325.9 Q1502.63 1327.25 1503.69 1329.48 Q1505.71 1333.78 1505.71 1341.34 Q1505.71 1348.72 1503.84 1352.75 Q1501.09 1358.63 1495.04 1358.63 Q1492.77 1358.63 1490.45 1357.47 Q1488.15 1356.31 1486.69 1353.51 Q1484.42 1349.34 1484.42 1341.34 M1488.62 1340.72 Q1488.62 1348.35 1489.16 1351.39 Q1489.78 1354.68 1491.46 1356.11 Q1493.16 1357.52 1495.04 1357.52 Q1497.07 1357.52 1498.75 1356.01 Q1500.45 1354.48 1500.97 1351.19 Q1501.54 1347.96 1501.51 1340.72 Q1501.51 1333.68 1501.02 1330.86 Q1500.35 1327.58 1498.57 1326.27 Q1496.82 1324.93 1495.04 1324.93 Q1494.37 1324.93 1493.66 1325.13 Q1492.97 1325.33 1491.95 1325.9 Q1490.94 1326.46 1490.15 1327.87 Q1489.38 1329.28 1489.01 1331.41 Q1488.62 1334.15 1488.62 1340.72 Z" fill="#000000" fill-rule="nonzero" fill-opacity="1" /><path clip-path="url(#clip630)" d="M1532.85 1319.25 Q1533.09 1319.49 1533.09 1319.83 Q1533.09 1320.17 1532.85 1320.41 Q1532.61 1320.65 1532.27 1320.65 L1506.54 1320.65 Q1506.2 1320.65 1505.95 1320.41 Q1505.71 1320.17 1505.71 1319.83 Q1505.71 1319.49 1505.95 1319.25 Q1506.2 1319.01 1506.54 1319.01 L1532.27 1319.01 Q1532.61 1319.01 1532.85 1319.25 Z" fill="#000000" fill-rule="nonzero" fill-opacity="1" /><path clip-path="url(#clip630)" d="M1537.11 1323.9 Q1537.11 1319.31 1543.03 1316.34 Q1540.48 1314.61 1540.02 1314.11 Q1538.21 1312.1 1538.21 1309.59 Q1538.21 1306.72 1540.38 1304.74 Q1542.56 1302.73 1545.66 1302.73 Q1548.61 1302.73 1550.83 1304.43 Q1553.06 1306.14 1553.06 1308.85 Q1553.06 1312.66 1548.08 1315.23 Q1551.38 1317.28 1552.16 1318.14 Q1554.17 1320.37 1554.17 1323.2 Q1554.17 1326.49 1551.64 1328.76 Q1549.11 1331.01 1545.62 1331.01 Q1542.2 1331.01 1539.65 1329.02 Q1537.11 1327.04 1537.11 1323.9 M1539.15 1323.9 Q1539.15 1326.45 1541.06 1328.16 Q1542.99 1329.87 1545.66 1329.87 Q1548.25 1329.87 1550.17 1328.38 Q1552.12 1326.89 1552.12 1324.69 Q1552.12 1323.82 1551.82 1323.08 Q1551.54 1322.34 1550.95 1321.76 Q1550.39 1321.15 1550.03 1320.89 Q1549.69 1320.61 1549.03 1320.15 L1543.97 1316.96 Q1539.15 1319.63 1539.15 1323.9 M1540.02 1307.99 Q1540.02 1309.95 1542.08 1311.32 L1547.18 1314.61 Q1551.26 1312.22 1551.26 1308.85 Q1551.26 1306.66 1549.59 1305.22 Q1547.92 1303.75 1545.62 1303.75 Q1543.35 1303.75 1541.68 1304.96 Q1540.02 1306.14 1540.02 1307.99 Z" fill="#000000" fill-rule="nonzero" fill-opacity="1" /><path clip-path="url(#clip630)" d="M1687.08 1328.64 L1687.08 1327.06 Q1693.16 1327.06 1696.3 1323.82 Q1697.16 1323.82 1697.31 1324.02 Q1697.46 1324.22 1697.46 1325.13 L1697.46 1353.51 Q1697.46 1355.02 1698.2 1355.49 Q1698.94 1355.96 1702.18 1355.96 L1703.78 1355.96 L1703.78 1357.52 Q1702 1357.37 1695.58 1357.37 Q1689.16 1357.37 1687.4 1357.52 L1687.4 1355.96 L1689.01 1355.96 Q1692.2 1355.96 1692.96 1355.52 Q1693.73 1355.05 1693.73 1353.51 L1693.73 1327.3 Q1691.09 1328.64 1687.08 1328.64 Z" fill="#000000" fill-rule="nonzero" fill-opacity="1" /><path clip-path="url(#clip630)" d="M1709.86 1341.34 Q1709.86 1333.9 1711.74 1329.85 Q1714.36 1323.82 1720.53 1323.82 Q1721.84 1323.82 1723.2 1324.19 Q1724.58 1324.54 1726.31 1325.9 Q1728.07 1327.25 1729.13 1329.48 Q1731.15 1333.78 1731.15 1341.34 Q1731.15 1348.72 1729.28 1352.75 Q1726.53 1358.63 1720.48 1358.63 Q1718.21 1358.63 1715.89 1357.47 Q1713.59 1356.31 1712.13 1353.51 Q1709.86 1349.34 1709.86 1341.34 M1714.06 1340.72 Q1714.06 1348.35 1714.6 1351.39 Q1715.22 1354.68 1716.9 1356.11 Q1718.61 1357.52 1720.48 1357.52 Q1722.51 1357.52 1724.19 1356.01 Q1725.89 1354.48 1726.41 1351.19 Q1726.98 1347.96 1726.95 1340.72 Q1726.95 1333.68 1726.46 1330.86 Q1725.79 1327.58 1724.02 1326.27 Q1722.26 1324.93 1720.48 1324.93 Q1719.82 1324.93 1719.1 1325.13 Q1718.41 1325.33 1717.39 1325.9 Q1716.38 1326.46 1715.59 1327.87 Q1714.83 1329.28 1714.45 1331.41 Q1714.06 1334.15 1714.06 1340.72 Z" fill="#000000" fill-rule="nonzero" fill-opacity="1" /><path clip-path="url(#clip630)" d="M1758.29 1319.25 Q1758.53 1319.49 1758.53 1319.83 Q1758.53 1320.17 1758.29 1320.41 Q1758.05 1320.65 1757.71 1320.65 L1731.98 1320.65 Q1731.64 1320.65 1731.4 1320.41 Q1731.15 1320.17 1731.15 1319.83 Q1731.15 1319.49 1731.4 1319.25 Q1731.64 1319.01 1731.98 1319.01 L1757.71 1319.01 Q1758.05 1319.01 1758.29 1319.25 Z" fill="#000000" fill-rule="nonzero" fill-opacity="1" /><path clip-path="url(#clip630)" d="M1763.13 1310.78 L1764.47 1302.33 L1765.5 1302.33 Q1765.62 1302.83 1765.82 1303.05 Q1766.04 1303.27 1767.2 1303.45 Q1768.39 1303.63 1770.78 1303.63 L1780.75 1303.63 Q1780.75 1304.58 1780.39 1305.08 L1774.83 1312.88 Q1773.06 1315.35 1772.28 1319.91 Q1771.82 1322.96 1771.84 1326.65 L1771.84 1328.74 Q1771.84 1331.01 1769.93 1331.01 Q1768.05 1331.01 1768.05 1328.74 Q1768.05 1320.89 1773.1 1313.29 Q1773.65 1312.5 1775.63 1309.71 Q1777.64 1306.92 1777.72 1306.8 L1769.21 1306.8 Q1765.48 1306.8 1765.18 1307.04 Q1764.77 1307.41 1764.15 1310.78 L1763.13 1310.78 Z" fill="#000000" fill-rule="nonzero" fill-opacity="1" /><path clip-path="url(#clip630)" d="M951.856 1447.26 L951.856 1444.92 L953.672 1444.92 Q957.785 1444.92 958.712 1444.26 Q959.675 1443.55 959.675 1441.33 L959.675 1401.57 Q959.675 1399.38 958.712 1398.72 Q957.748 1398.01 953.672 1398.01 L951.856 1398.01 L951.856 1395.64 L994.581 1395.64 L996.693 1412.72 L994.803 1412.72 Q994.284 1408.39 993.58 1405.9 Q992.913 1403.38 991.246 1401.46 Q989.616 1399.53 986.91 1398.79 Q984.243 1398.01 979.907 1398.01 L970.125 1398.01 Q967.531 1398.01 966.975 1398.57 Q966.419 1399.09 966.419 1401.05 L966.419 1419.24 L973.237 1419.24 Q978.462 1419.24 979.944 1417.43 Q981.426 1415.61 981.426 1410.39 L983.353 1410.39 L983.353 1430.47 L981.426 1430.47 Q981.426 1425.32 979.944 1423.47 Q978.462 1421.62 973.237 1421.62 L966.419 1421.62 L966.419 1441.88 Q966.419 1443.85 966.975 1444.4 Q967.568 1444.92 970.125 1444.92 L980.241 1444.92 Q983.501 1444.92 985.873 1444.52 Q988.282 1444.07 989.949 1443.03 Q991.616 1441.96 992.728 1440.74 Q993.877 1439.51 994.655 1437.33 Q995.47 1435.1 995.915 1433.07 Q996.397 1431.03 996.915 1427.69 L998.805 1427.69 L995.618 1447.26 L951.856 1447.26 Z" fill="#000000" fill-rule="nonzero" fill-opacity="1" /><path clip-path="url(#clip630)" d="M1003.03 1447.26 L1003.03 1444.92 Q1007.07 1444.92 1007.99 1444.44 Q1008.96 1443.92 1008.96 1441.48 L1008.96 1421.13 Q1008.96 1418.32 1007.96 1417.61 Q1006.99 1416.91 1003.03 1416.91 L1003.03 1414.54 L1013.59 1413.72 L1013.59 1422.06 Q1014.66 1418.8 1016.93 1416.28 Q1019.22 1413.72 1022.93 1413.72 Q1025.37 1413.72 1026.93 1415.09 Q1028.52 1416.46 1028.52 1418.35 Q1028.52 1420.02 1027.49 1420.87 Q1026.49 1421.69 1025.26 1421.69 Q1023.89 1421.69 1022.93 1420.84 Q1022 1419.95 1022 1418.43 Q1022 1417.5 1022.41 1416.8 Q1022.85 1416.06 1023.19 1415.8 Q1023.52 1415.54 1023.74 1415.46 Q1023.59 1415.39 1022.93 1415.39 Q1018.74 1415.39 1016.33 1419.58 Q1013.96 1423.73 1013.96 1429.66 L1013.96 1441.33 Q1013.96 1443.51 1014.85 1444.22 Q1015.78 1444.92 1019.74 1444.92 L1021.33 1444.92 L1021.33 1447.26 Q1018.3 1447.03 1011.7 1447.03 Q1010.77 1447.03 1009.33 1447.07 Q1007.88 1447.11 1005.99 1447.18 Q1004.1 1447.26 1003.03 1447.26 Z" fill="#000000" fill-rule="nonzero" fill-opacity="1" /><path clip-path="url(#clip630)" d="M1032.67 1447.26 L1032.67 1444.92 Q1036.71 1444.92 1037.64 1444.44 Q1038.6 1443.92 1038.6 1441.48 L1038.6 1421.13 Q1038.6 1418.32 1037.6 1417.61 Q1036.64 1416.91 1032.67 1416.91 L1032.67 1414.54 L1043.23 1413.72 L1043.23 1422.06 Q1044.31 1418.8 1046.57 1416.28 Q1048.87 1413.72 1052.57 1413.72 Q1055.02 1413.72 1056.57 1415.09 Q1058.17 1416.46 1058.17 1418.35 Q1058.17 1420.02 1057.13 1420.87 Q1056.13 1421.69 1054.91 1421.69 Q1053.54 1421.69 1052.57 1420.84 Q1051.65 1419.95 1051.65 1418.43 Q1051.65 1417.5 1052.05 1416.8 Q1052.5 1416.06 1052.83 1415.8 Q1053.16 1415.54 1053.39 1415.46 Q1053.24 1415.39 1052.57 1415.39 Q1048.38 1415.39 1045.98 1419.58 Q1043.6 1423.73 1043.6 1429.66 L1043.6 1441.33 Q1043.6 1443.51 1044.49 1444.22 Q1045.42 1444.92 1049.39 1444.92 L1050.98 1444.92 L1050.98 1447.26 Q1047.94 1447.03 1041.34 1447.03 Q1040.42 1447.03 1038.97 1447.07 Q1037.53 1447.11 1035.64 1447.18 Q1033.75 1447.26 1032.67 1447.26 Z" fill="#000000" fill-rule="nonzero" fill-opacity="1" /><path clip-path="url(#clip630)" d="M1067.32 1443.18 Q1062.32 1438.22 1062.32 1431.03 Q1062.32 1423.8 1067.21 1418.54 Q1072.14 1413.24 1079.18 1413.24 Q1086.07 1413.24 1091 1418.5 Q1095.96 1423.73 1095.96 1431.03 Q1095.96 1438.18 1090.96 1443.14 Q1086 1448.11 1079.1 1448.11 Q1072.36 1448.11 1067.32 1443.18 M1068.62 1430.4 Q1068.62 1437.77 1070.54 1441.11 Q1073.51 1446.18 1079.18 1446.18 Q1081.99 1446.18 1084.33 1444.66 Q1086.7 1443.14 1088 1440.59 Q1089.66 1437.25 1089.66 1430.4 Q1089.66 1423.1 1087.66 1419.87 Q1084.7 1414.95 1079.1 1414.95 Q1076.66 1414.95 1074.25 1416.24 Q1071.88 1417.5 1070.43 1420.02 Q1068.62 1423.36 1068.62 1430.4 Z" fill="#000000" fill-rule="nonzero" fill-opacity="1" /><path clip-path="url(#clip630)" d="M1100.26 1447.26 L1100.26 1444.92 Q1104.3 1444.92 1105.23 1444.44 Q1106.19 1443.92 1106.19 1441.48 L1106.19 1421.13 Q1106.19 1418.32 1105.19 1417.61 Q1104.23 1416.91 1100.26 1416.91 L1100.26 1414.54 L1110.82 1413.72 L1110.82 1422.06 Q1111.9 1418.8 1114.16 1416.28 Q1116.45 1413.72 1120.16 1413.72 Q1122.61 1413.72 1124.16 1415.09 Q1125.76 1416.46 1125.76 1418.35 Q1125.76 1420.02 1124.72 1420.87 Q1123.72 1421.69 1122.49 1421.69 Q1121.12 1421.69 1120.16 1420.84 Q1119.23 1419.95 1119.23 1418.43 Q1119.23 1417.5 1119.64 1416.8 Q1120.09 1416.06 1120.42 1415.8 Q1120.75 1415.54 1120.98 1415.46 Q1120.83 1415.39 1120.16 1415.39 Q1115.97 1415.39 1113.56 1419.58 Q1111.19 1423.73 1111.19 1429.66 L1111.19 1441.33 Q1111.19 1443.51 1112.08 1444.22 Q1113.01 1444.92 1116.97 1444.92 L1118.57 1444.92 L1118.57 1447.26 Q1115.53 1447.03 1108.93 1447.03 Q1108.01 1447.03 1106.56 1447.07 Q1105.12 1447.11 1103.23 1447.18 Q1101.34 1447.26 1100.26 1447.26 Z" fill="#000000" fill-rule="nonzero" fill-opacity="1" /><polyline clip-path="url(#clip632)" style="stroke:#000000; stroke-linecap:round; stroke-linejoin:round; stroke-width:2.8; stroke-opacity:0.4; fill:none" points="245.822,1187.46 1831.79,1187.46 "/>
<polyline clip-path="url(#clip632)" style="stroke:#000000; stroke-linecap:round; stroke-linejoin:round; stroke-width:2.8; stroke-opacity:0.4; fill:none" points="245.822,760.549 1831.79,760.549 "/>
<polyline clip-path="url(#clip632)" style="stroke:#000000; stroke-linecap:round; stroke-linejoin:round; stroke-width:2.8; stroke-opacity:0.4; fill:none" points="245.822,333.635 1831.79,333.635 "/>
<polyline clip-path="url(#clip632)" style="stroke:#000000; stroke-linecap:round; stroke-linejoin:round; stroke-width:2; stroke-opacity:0.06; fill:none" points="245.822,1270.21 1831.79,1270.21 "/>
<polyline clip-path="url(#clip632)" style="stroke:#000000; stroke-linecap:round; stroke-linejoin:round; stroke-width:2; stroke-opacity:0.06; fill:none" points="245.822,1224.26 1831.79,1224.26 "/>
<polyline clip-path="url(#clip632)" style="stroke:#000000; stroke-linecap:round; stroke-linejoin:round; stroke-width:2; stroke-opacity:0.06; fill:none" points="245.822,996.564 1831.79,996.564 "/>
<polyline clip-path="url(#clip632)" style="stroke:#000000; stroke-linecap:round; stroke-linejoin:round; stroke-width:2; stroke-opacity:0.06; fill:none" points="245.822,904.522 1831.79,904.522 "/>
<polyline clip-path="url(#clip632)" style="stroke:#000000; stroke-linecap:round; stroke-linejoin:round; stroke-width:2; stroke-opacity:0.06; fill:none" points="245.822,843.293 1831.79,843.293 "/>
<polyline clip-path="url(#clip632)" style="stroke:#000000; stroke-linecap:round; stroke-linejoin:round; stroke-width:2; stroke-opacity:0.06; fill:none" points="245.822,797.343 1831.79,797.343 "/>
<polyline clip-path="url(#clip632)" style="stroke:#000000; stroke-linecap:round; stroke-linejoin:round; stroke-width:2; stroke-opacity:0.06; fill:none" points="245.822,569.651 1831.79,569.651 "/>
<polyline clip-path="url(#clip632)" style="stroke:#000000; stroke-linecap:round; stroke-linejoin:round; stroke-width:2; stroke-opacity:0.06; fill:none" points="245.822,477.609 1831.79,477.609 "/>
<polyline clip-path="url(#clip632)" style="stroke:#000000; stroke-linecap:round; stroke-linejoin:round; stroke-width:2; stroke-opacity:0.06; fill:none" points="245.822,416.38 1831.79,416.38 "/>
<polyline clip-path="url(#clip632)" style="stroke:#000000; stroke-linecap:round; stroke-linejoin:round; stroke-width:2; stroke-opacity:0.06; fill:none" points="245.822,370.429 1831.79,370.429 "/>
<polyline clip-path="url(#clip632)" style="stroke:#000000; stroke-linecap:round; stroke-linejoin:round; stroke-width:2; stroke-opacity:0.06; fill:none" points="245.822,142.738 1831.79,142.738 "/>
<polyline clip-path="url(#clip632)" style="stroke:#000000; stroke-linecap:round; stroke-linejoin:round; stroke-width:2; stroke-opacity:0.06; fill:none" points="245.822,50.6953 1831.79,50.6953 "/>
<polyline clip-path="url(#clip630)" style="stroke:#000000; stroke-linecap:round; stroke-linejoin:round; stroke-width:4; stroke-opacity:1; fill:none" points="245.822,1280.22 245.822,47.2441 "/>
<polyline clip-path="url(#clip630)" style="stroke:#000000; stroke-linecap:round; stroke-linejoin:round; stroke-width:4; stroke-opacity:1; fill:none" points="1831.79,1280.22 1831.79,47.2441 "/>
<polyline clip-path="url(#clip630)" style="stroke:#000000; stroke-linecap:round; stroke-linejoin:round; stroke-width:4; stroke-opacity:1; fill:none" points="245.822,1187.46 260.726,1187.46 "/>
<polyline clip-path="url(#clip630)" style="stroke:#000000; stroke-linecap:round; stroke-linejoin:round; stroke-width:4; stroke-opacity:1; fill:none" points="245.822,760.549 260.726,760.549 "/>
<polyline clip-path="url(#clip630)" style="stroke:#000000; stroke-linecap:round; stroke-linejoin:round; stroke-width:4; stroke-opacity:1; fill:none" points="245.822,333.635 260.726,333.635 "/>
<polyline clip-path="url(#clip630)" style="stroke:#000000; stroke-linecap:round; stroke-linejoin:round; stroke-width:4; stroke-opacity:1; fill:none" points="245.822,1270.21 253.274,1270.21 "/>
<polyline clip-path="url(#clip630)" style="stroke:#000000; stroke-linecap:round; stroke-linejoin:round; stroke-width:4; stroke-opacity:1; fill:none" points="245.822,1224.26 253.274,1224.26 "/>
<polyline clip-path="url(#clip630)" style="stroke:#000000; stroke-linecap:round; stroke-linejoin:round; stroke-width:4; stroke-opacity:1; fill:none" points="245.822,996.564 253.274,996.564 "/>
<polyline clip-path="url(#clip630)" style="stroke:#000000; stroke-linecap:round; stroke-linejoin:round; stroke-width:4; stroke-opacity:1; fill:none" points="245.822,904.522 253.274,904.522 "/>
<polyline clip-path="url(#clip630)" style="stroke:#000000; stroke-linecap:round; stroke-linejoin:round; stroke-width:4; stroke-opacity:1; fill:none" points="245.822,843.293 253.274,843.293 "/>
<polyline clip-path="url(#clip630)" style="stroke:#000000; stroke-linecap:round; stroke-linejoin:round; stroke-width:4; stroke-opacity:1; fill:none" points="245.822,797.343 253.274,797.343 "/>
<polyline clip-path="url(#clip630)" style="stroke:#000000; stroke-linecap:round; stroke-linejoin:round; stroke-width:4; stroke-opacity:1; fill:none" points="245.822,569.651 253.274,569.651 "/>
<polyline clip-path="url(#clip630)" style="stroke:#000000; stroke-linecap:round; stroke-linejoin:round; stroke-width:4; stroke-opacity:1; fill:none" points="245.822,477.609 253.274,477.609 "/>
<polyline clip-path="url(#clip630)" style="stroke:#000000; stroke-linecap:round; stroke-linejoin:round; stroke-width:4; stroke-opacity:1; fill:none" points="245.822,416.38 253.274,416.38 "/>
<polyline clip-path="url(#clip630)" style="stroke:#000000; stroke-linecap:round; stroke-linejoin:round; stroke-width:4; stroke-opacity:1; fill:none" points="245.822,370.429 253.274,370.429 "/>
<polyline clip-path="url(#clip630)" style="stroke:#000000; stroke-linecap:round; stroke-linejoin:round; stroke-width:4; stroke-opacity:1; fill:none" points="245.822,142.738 253.274,142.738 "/>
<polyline clip-path="url(#clip630)" style="stroke:#000000; stroke-linecap:round; stroke-linejoin:round; stroke-width:4; stroke-opacity:1; fill:none" points="245.822,50.6953 253.274,50.6953 "/>
<path clip-path="url(#clip630)" d="M119.06 1182.31 L119.06 1180.73 Q125.137 1180.73 128.275 1177.49 Q129.139 1177.49 129.287 1177.69 Q129.436 1177.89 129.436 1178.8 L129.436 1207.19 Q129.436 1208.69 130.177 1209.16 Q130.918 1209.63 134.154 1209.63 L135.76 1209.63 L135.76 1211.19 Q133.981 1211.04 127.558 1211.04 Q121.135 1211.04 119.381 1211.19 L119.381 1209.63 L120.987 1209.63 Q124.174 1209.63 124.94 1209.19 Q125.705 1208.72 125.705 1207.19 L125.705 1180.98 Q123.062 1182.31 119.06 1182.31 Z" fill="#000000" fill-rule="nonzero" fill-opacity="1" /><path clip-path="url(#clip630)" d="M141.837 1195.01 Q141.837 1187.57 143.714 1183.52 Q146.333 1177.49 152.509 1177.49 Q153.818 1177.49 155.176 1177.86 Q156.56 1178.21 158.289 1179.57 Q160.043 1180.93 161.105 1183.15 Q163.131 1187.45 163.131 1195.01 Q163.131 1202.4 161.253 1206.42 Q158.511 1212.3 152.459 1212.3 Q150.186 1212.3 147.864 1211.14 Q145.567 1209.98 144.109 1207.19 Q141.837 1203.01 141.837 1195.01 M146.036 1194.39 Q146.036 1202.02 146.58 1205.06 Q147.197 1208.35 148.877 1209.78 Q150.582 1211.19 152.459 1211.19 Q154.485 1211.19 156.165 1209.68 Q157.869 1208.15 158.388 1204.87 Q158.956 1201.63 158.931 1194.39 Q158.931 1187.35 158.437 1184.53 Q157.77 1181.25 155.992 1179.94 Q154.238 1178.61 152.459 1178.61 Q151.792 1178.61 151.076 1178.8 Q150.384 1179 149.371 1179.57 Q148.358 1180.14 147.568 1181.55 Q146.802 1182.95 146.431 1185.08 Q146.036 1187.82 146.036 1194.39 Z" fill="#000000" fill-rule="nonzero" fill-opacity="1" /><path clip-path="url(#clip630)" d="M190.268 1172.92 Q190.508 1173.16 190.508 1173.5 Q190.508 1173.84 190.268 1174.08 Q190.027 1174.33 189.686 1174.33 L163.954 1174.33 Q163.613 1174.33 163.372 1174.08 Q163.131 1173.84 163.131 1173.5 Q163.131 1173.16 163.372 1172.92 Q163.613 1172.68 163.954 1172.68 L189.686 1172.68 Q190.027 1172.68 190.268 1172.92 Z" fill="#000000" fill-rule="nonzero" fill-opacity="1" /><path clip-path="url(#clip630)" d="M194.844 1183.78 Q194.844 1183.04 194.904 1182.82 Q194.984 1182.59 195.306 1182.25 L203.194 1173.46 Q207.509 1168.61 207.509 1164.37 Q207.509 1161.62 206.064 1159.65 Q204.639 1157.69 202.009 1157.69 Q200.203 1157.69 198.678 1158.79 Q197.152 1159.89 196.45 1161.86 Q196.57 1161.82 196.992 1161.82 Q198.015 1161.82 198.577 1162.46 Q199.159 1163.11 199.159 1163.97 Q199.159 1165.07 198.437 1165.61 Q197.734 1166.14 197.032 1166.14 Q196.751 1166.14 196.369 1166.08 Q196.008 1166.02 195.426 1165.45 Q194.844 1164.87 194.844 1163.85 Q194.844 1160.98 197.012 1158.69 Q199.199 1156.4 202.531 1156.4 Q206.305 1156.4 208.773 1158.65 Q211.262 1160.88 211.262 1164.37 Q211.262 1165.59 210.881 1166.72 Q210.52 1167.82 210.018 1168.69 Q209.536 1169.55 208.211 1170.93 Q206.887 1172.32 205.823 1173.3 Q204.759 1174.29 202.371 1176.37 L198.015 1180.61 L205.422 1180.61 Q209.034 1180.61 209.315 1180.29 Q209.717 1179.7 210.219 1176.63 L211.262 1176.63 L210.098 1183.78 L194.844 1183.78 Z" fill="#000000" fill-rule="nonzero" fill-opacity="1" /><path clip-path="url(#clip630)" d="M120.305 755.398 L120.305 753.817 Q126.382 753.817 129.519 750.581 Q130.384 750.581 130.532 750.779 Q130.68 750.976 130.68 751.89 L130.68 780.274 Q130.68 781.781 131.421 782.251 Q132.162 782.72 135.398 782.72 L137.004 782.72 L137.004 784.276 Q135.225 784.128 128.803 784.128 Q122.38 784.128 120.626 784.276 L120.626 782.72 L122.231 782.72 Q125.418 782.72 126.184 782.275 Q126.95 781.806 126.95 780.274 L126.95 754.064 Q124.307 755.398 120.305 755.398 Z" fill="#000000" fill-rule="nonzero" fill-opacity="1" /><path clip-path="url(#clip630)" d="M143.081 768.096 Q143.081 760.66 144.959 756.609 Q147.577 750.581 153.753 750.581 Q155.062 750.581 156.421 750.951 Q157.804 751.297 159.534 752.656 Q161.287 754.015 162.35 756.238 Q164.375 760.536 164.375 768.096 Q164.375 775.482 162.498 779.509 Q159.756 785.388 153.704 785.388 Q151.431 785.388 149.109 784.227 Q146.811 783.066 145.354 780.274 Q143.081 776.099 143.081 768.096 M147.281 767.478 Q147.281 775.111 147.824 778.15 Q148.442 781.435 150.122 782.868 Q151.826 784.276 153.704 784.276 Q155.729 784.276 157.409 782.769 Q159.114 781.238 159.632 777.952 Q160.201 774.716 160.176 767.478 Q160.176 760.438 159.682 757.621 Q159.015 754.336 157.236 753.027 Q155.482 751.693 153.704 751.693 Q153.037 751.693 152.32 751.89 Q151.628 752.088 150.616 752.656 Q149.603 753.224 148.812 754.632 Q148.046 756.04 147.676 758.165 Q147.281 760.907 147.281 767.478 Z" fill="#000000" fill-rule="nonzero" fill-opacity="1" /><path clip-path="url(#clip630)" d="M191.512 746.007 Q191.753 746.248 191.753 746.589 Q191.753 746.93 191.512 747.171 Q191.271 747.412 190.93 747.412 L165.198 747.412 Q164.857 747.412 164.616 747.171 Q164.375 746.93 164.375 746.589 Q164.375 746.248 164.616 746.007 Q164.857 745.766 165.198 745.766 L190.93 745.766 Q191.271 745.766 191.512 746.007 Z" fill="#000000" fill-rule="nonzero" fill-opacity="1" /><path clip-path="url(#clip630)" d="M197.694 733.402 L197.694 732.118 Q202.632 732.118 205.181 729.488 Q205.883 729.488 206.004 729.649 Q206.124 729.81 206.124 730.552 L206.124 753.614 Q206.124 754.839 206.726 755.22 Q207.328 755.601 209.958 755.601 L211.262 755.601 L211.262 756.866 Q209.817 756.745 204.599 756.745 Q199.38 756.745 197.955 756.866 L197.955 755.601 L199.26 755.601 Q201.849 755.601 202.471 755.24 Q203.093 754.859 203.093 753.614 L203.093 732.318 Q200.946 733.402 197.694 733.402 Z" fill="#000000" fill-rule="nonzero" fill-opacity="1" /><path clip-path="url(#clip630)" d="M149.89 328.485 L149.89 326.904 Q155.967 326.904 159.104 323.668 Q159.969 323.668 160.117 323.865 Q160.265 324.063 160.265 324.977 L160.265 353.361 Q160.265 354.868 161.006 355.337 Q161.748 355.807 164.984 355.807 L166.589 355.807 L166.589 357.363 Q164.811 357.215 158.388 357.215 Q151.965 357.215 150.211 357.363 L150.211 355.807 L151.817 355.807 Q155.004 355.807 155.769 355.362 Q156.535 354.893 156.535 353.361 L156.535 327.151 Q153.892 328.485 149.89 328.485 Z" fill="#000000" fill-rule="nonzero" fill-opacity="1" /><path clip-path="url(#clip630)" d="M172.666 341.182 Q172.666 333.747 174.544 329.695 Q177.162 323.668 183.338 323.668 Q184.648 323.668 186.006 324.038 Q187.39 324.384 189.119 325.743 Q190.873 327.101 191.935 329.325 Q193.961 333.623 193.961 341.182 Q193.961 348.569 192.083 352.595 Q189.341 358.475 183.289 358.475 Q181.016 358.475 178.694 357.314 Q176.397 356.153 174.939 353.361 Q172.666 349.186 172.666 341.182 M176.866 340.565 Q176.866 348.198 177.409 351.237 Q178.027 354.522 179.707 355.955 Q181.411 357.363 183.289 357.363 Q185.315 357.363 186.994 355.856 Q188.699 354.324 189.218 351.039 Q189.786 347.803 189.761 340.565 Q189.761 333.524 189.267 330.708 Q188.6 327.423 186.821 326.113 Q185.068 324.779 183.289 324.779 Q182.622 324.779 181.906 324.977 Q181.214 325.175 180.201 325.743 Q179.188 326.311 178.398 327.719 Q177.632 329.127 177.261 331.252 Q176.866 333.994 176.866 340.565 Z" fill="#000000" fill-rule="nonzero" fill-opacity="1" /><path clip-path="url(#clip630)" d="M193.961 316.806 Q193.961 310.764 195.486 307.473 Q197.614 302.575 202.632 302.575 Q203.695 302.575 204.799 302.876 Q205.923 303.157 207.328 304.261 Q208.753 305.365 209.616 307.171 Q211.262 310.664 211.262 316.806 Q211.262 322.807 209.737 326.079 Q207.509 330.856 202.591 330.856 Q200.745 330.856 198.858 329.912 Q196.992 328.969 195.807 326.701 Q193.961 323.309 193.961 316.806 M197.373 316.304 Q197.373 322.506 197.814 324.975 Q198.316 327.644 199.681 328.809 Q201.066 329.953 202.591 329.953 Q204.237 329.953 205.602 328.728 Q206.987 327.484 207.409 324.814 Q207.87 322.185 207.85 316.304 Q207.85 310.584 207.449 308.295 Q206.907 305.626 205.462 304.562 Q204.037 303.478 202.591 303.478 Q202.05 303.478 201.467 303.639 Q200.905 303.799 200.083 304.261 Q199.26 304.723 198.617 305.867 Q197.995 307.011 197.694 308.737 Q197.373 310.965 197.373 316.304 Z" fill="#000000" fill-rule="nonzero" fill-opacity="1" /><path clip-path="url(#clip630)" d="M34.6352 801.913 L17.5899 800.467 L17.5899 754.112 L34.6352 752.666 L34.6352 754.556 Q31.2261 754.853 29.2622 755.149 Q27.2983 755.408 25.4455 756.075 Q23.5557 756.705 22.6664 757.521 Q21.74 758.299 21.036 759.818 Q20.2949 761.337 20.1096 763.301 Q19.9243 765.265 19.9243 768.23 Q19.9243 771.713 20.0726 772.565 Q20.2949 773.491 20.9619 773.714 Q21.5918 773.936 22.9629 773.936 L62.9452 773.936 Q64.4645 773.936 65.0944 773.64 Q65.6873 773.306 66.169 771.564 Q66.6137 769.823 66.6137 765.969 L66.6137 762.931 L68.9482 762.931 Q68.7258 766.043 68.7258 777.345 Q68.7258 788.573 68.9482 791.685 L66.6137 791.685 L66.6137 788.647 Q66.6137 784.793 66.169 783.052 Q65.6873 781.273 65.0944 780.976 Q64.4645 780.68 62.9452 780.68 L22.9629 780.68 Q21.8883 780.68 21.4436 780.754 Q20.9989 780.828 20.6284 781.162 Q20.2208 781.495 20.0726 782.273 Q19.9243 783.014 19.9243 786.349 Q19.9243 789.314 20.1096 791.315 Q20.2949 793.279 21.036 794.798 Q21.74 796.317 22.6664 797.132 Q23.5557 797.911 25.4455 798.578 Q27.2983 799.208 29.2622 799.467 Q31.2261 799.726 34.6352 800.023 L34.6352 801.913 Z" fill="#000000" fill-rule="nonzero" fill-opacity="1" /><path clip-path="url(#clip630)" d="M68.9482 747.368 L66.6137 747.368 Q66.6137 743.329 66.132 742.402 Q65.6132 741.476 63.1676 741.476 L42.7502 741.476 Q39.9341 741.476 39.2671 742.439 Q38.6001 743.366 38.6001 747.071 L36.2286 747.071 L35.4133 736.473 L63.2417 736.473 Q65.502 736.473 66.0579 735.658 Q66.6137 734.843 66.6137 731.137 L68.9482 731.137 Q68.7258 738.882 68.7258 739.03 Q68.7258 740.068 68.9482 747.368 M22.1847 744.181 Q20.6654 744.181 19.4426 743.032 Q18.1828 741.846 18.1828 740.179 Q18.1828 738.511 19.3315 737.326 Q20.4431 736.14 22.2218 736.14 Q23.9633 736.14 25.112 737.326 Q26.2237 738.511 26.2237 740.179 Q26.2237 741.92 25.0009 743.069 Q23.7781 744.181 22.1847 744.181 Z" fill="#000000" fill-rule="nonzero" fill-opacity="1" /><path clip-path="url(#clip630)" d="M68.9482 726.431 L66.6137 726.431 Q66.6137 722.392 66.132 721.466 Q65.6132 720.54 63.1676 720.54 L42.8244 720.54 Q40.0082 720.54 39.3041 721.54 Q38.6001 722.504 38.6001 726.431 L36.2286 726.431 L35.4133 715.76 L43.3802 715.76 Q35.4133 712.202 35.4133 704.532 Q35.4133 695.639 42.8244 694.416 Q39.9341 693.119 37.6737 690.414 Q35.4133 687.672 35.4133 683.411 Q35.4133 677.704 38.2295 675.444 Q40.1193 673.776 42.2315 673.443 Q44.3436 673.109 49.8278 673.109 L64.3163 673.109 Q65.9096 673.035 66.2802 671.812 Q66.6137 670.589 66.6137 667.18 L68.9482 667.18 Q68.7258 674.925 68.7258 675.666 Q68.7258 676.259 68.9482 684.263 L66.6137 684.263 Q66.6137 680.224 66.132 679.297 Q65.6132 678.334 63.1676 678.334 L45.4923 678.334 Q41.6386 678.334 39.3782 679.52 Q37.0808 680.706 37.0808 683.966 Q37.0808 687.894 40.3787 691.044 Q43.6766 694.194 49.2349 694.194 L63.1676 694.194 Q65.6132 694.194 66.132 693.267 Q66.6137 692.304 66.6137 688.265 L68.9482 688.265 Q68.7258 696.009 68.7258 696.787 Q68.7258 697.38 68.9482 705.347 L66.6137 705.347 Q66.6137 701.308 66.132 700.382 Q65.6132 699.418 63.1676 699.418 L45.4923 699.418 Q41.6386 699.418 39.3782 700.604 Q37.0808 701.79 37.0808 705.051 Q37.0808 708.979 40.3787 712.128 Q43.6766 715.278 49.2349 715.278 L63.1676 715.278 Q65.6132 715.278 66.132 714.351 Q66.6137 713.388 66.6137 709.386 L68.9482 709.386 Q68.7258 717.131 68.7258 717.872 Q68.7258 718.465 68.9482 726.431 Z" fill="#000000" fill-rule="nonzero" fill-opacity="1" /><path clip-path="url(#clip630)" d="M52.2363 663.586 Q45.0847 663.586 40.0082 658.991 Q34.9316 654.396 34.9316 647.801 Q34.9316 641.131 39.2671 637.685 Q43.6025 634.201 49.8278 634.201 Q50.9765 634.201 51.1988 634.498 Q51.4211 634.794 51.4211 636.091 L51.4211 657.287 Q59.1656 657.287 62.797 654.989 Q67.8736 651.803 67.8736 646.43 Q67.8736 645.689 67.7253 644.799 Q67.5771 643.91 66.9472 642.094 Q66.2802 640.278 64.5386 638.685 Q62.797 637.092 60.0549 636.165 Q58.9804 635.943 59.0174 635.202 Q59.0174 634.201 59.9067 634.201 Q60.5737 634.201 62.093 634.943 Q63.5752 635.647 65.3538 637.018 Q67.1325 638.389 68.4664 641.057 Q69.8004 643.688 69.8004 646.874 Q69.8004 653.544 64.7609 658.584 Q59.6844 663.586 52.2363 663.586 M49.8278 657.213 L49.8278 639.204 Q48.2344 639.204 46.4557 639.5 Q44.6771 639.76 42.2315 640.575 Q39.7488 641.353 38.1925 643.206 Q36.6362 645.059 36.6362 647.801 Q36.6362 649.023 37.1549 650.357 Q37.6737 651.654 38.9336 653.248 Q40.1934 654.841 43.0467 655.953 Q45.8999 657.064 49.8278 657.213 Z" fill="#000000" fill-rule="nonzero" fill-opacity="1" /><path clip-path="url(#clip630)" d="M49.976 599.259 Q37.1549 599.259 26.8166 594.478 Q22.4811 592.44 18.8497 589.587 Q15.2184 586.734 13.625 584.844 Q12.0316 582.954 12.0316 582.436 Q12.0316 581.694 12.7727 581.657 Q13.1433 581.657 14.0696 582.658 Q26.5201 594.886 49.976 594.849 Q73.5059 594.849 85.4747 582.954 Q86.7716 581.657 87.1792 581.657 Q87.9203 581.657 87.9203 582.436 Q87.9203 582.954 86.4011 584.77 Q84.8818 586.586 81.3987 589.402 Q77.9155 592.218 73.6541 594.256 Q63.3158 599.259 49.976 599.259 Z" fill="#000000" fill-rule="nonzero" fill-opacity="1" /><path clip-path="url(#clip630)" d="M67.9477 574.839 L57.9428 574.839 Q57.0905 574.839 56.7941 574.802 Q56.4977 574.765 56.2753 574.543 Q56.053 574.32 56.053 573.876 Q56.053 573.357 56.2753 573.172 Q56.4977 572.949 57.3499 572.801 Q62.5747 571.653 65.3538 569.207 Q68.0959 566.724 68.0959 562.241 Q68.0959 557.979 66.2061 555.83 Q64.3163 553.681 61.2037 553.681 Q55.6454 553.681 54.2373 561.574 Q53.3109 566.131 52.7181 568.021 Q52.0881 569.911 50.7171 571.578 Q48.0491 574.839 44.2695 574.839 Q40.4899 574.839 37.7108 571.986 Q34.9316 569.096 34.9316 562.722 Q34.9316 558.461 37.0808 555.571 Q36.4138 554.718 35.858 554.274 Q34.9316 553.273 34.9316 552.754 Q34.9316 552.162 35.3392 552.05 Q35.7098 551.939 36.7844 551.939 L44.4177 551.939 Q45.27 551.939 45.5664 551.976 Q45.8629 552.013 46.0852 552.236 Q46.2705 552.458 46.2705 552.94 Q46.2705 553.792 45.5664 553.829 Q36.3768 554.422 36.3768 562.722 Q36.3768 567.206 38.1184 569.207 Q39.8229 571.208 42.1574 571.208 Q43.4543 571.208 44.4548 570.615 Q45.4182 569.985 46.0111 569.207 Q46.5669 568.392 47.1227 566.909 Q47.6415 565.427 47.8268 564.538 Q48.0121 563.612 48.3826 561.87 Q49.5313 555.793 52.014 553.236 Q55.2007 550.049 59.2397 550.049 Q63.7234 550.049 66.7619 553.088 Q69.8004 556.126 69.8004 562.241 Q69.8004 567.169 66.5025 570.615 Q66.9472 571.06 67.3548 571.393 Q67.7253 571.727 67.8736 571.875 Q68.0218 571.986 68.1329 572.023 Q68.2071 572.06 68.2812 572.134 Q69.8004 573.654 69.8004 574.024 Q69.8004 574.617 69.3928 574.728 Q69.0223 574.839 67.9477 574.839 Z" fill="#000000" fill-rule="nonzero" fill-opacity="1" /><path clip-path="url(#clip630)" d="M87.1792 543.157 Q86.8087 543.157 85.8823 542.194 Q73.4318 529.966 49.976 529.966 Q26.446 529.966 14.5514 541.712 Q13.1803 543.157 12.7727 543.157 Q12.0316 543.157 12.0316 542.416 Q12.0316 541.897 13.5509 540.082 Q15.0701 538.229 18.5533 535.45 Q22.0365 532.634 26.2978 530.558 Q36.6362 525.556 49.976 525.556 Q62.797 525.556 73.1354 530.336 Q77.4708 532.374 81.1022 535.227 Q84.7336 538.081 86.327 539.97 Q87.9203 541.86 87.9203 542.416 Q87.9203 543.157 87.1792 543.157 Z" fill="#000000" fill-rule="nonzero" fill-opacity="1" /><polyline clip-path="url(#clip632)" style="stroke:#0000ff; stroke-linecap:round; stroke-linejoin:round; stroke-width:12; stroke-opacity:1; fill:none" points="1786.9,798.882 1475.65,656.393 884.666,513.66 1092.89,369.102 1026.63,225.906 953.197,82.1398 "/>
<line clip-path="url(#clip632)" x1="1786.9" y1="798.882" x2="1786.9" y2="782.882" style="stroke:#0000ff; stroke-width:12; stroke-opacity:1"/>
<line clip-path="url(#clip632)" x1="1786.9" y1="798.882" x2="1770.9" y2="798.882" style="stroke:#0000ff; stroke-width:12; stroke-opacity:1"/>
<line clip-path="url(#clip632)" x1="1786.9" y1="798.882" x2="1786.9" y2="814.882" style="stroke:#0000ff; stroke-width:12; stroke-opacity:1"/>
<line clip-path="url(#clip632)" x1="1786.9" y1="798.882" x2="1802.9" y2="798.882" style="stroke:#0000ff; stroke-width:12; stroke-opacity:1"/>
<line clip-path="url(#clip632)" x1="1475.65" y1="656.393" x2="1475.65" y2="640.393" style="stroke:#0000ff; stroke-width:12; stroke-opacity:1"/>
<line clip-path="url(#clip632)" x1="1475.65" y1="656.393" x2="1459.65" y2="656.393" style="stroke:#0000ff; stroke-width:12; stroke-opacity:1"/>
<line clip-path="url(#clip632)" x1="1475.65" y1="656.393" x2="1475.65" y2="672.393" style="stroke:#0000ff; stroke-width:12; stroke-opacity:1"/>
<line clip-path="url(#clip632)" x1="1475.65" y1="656.393" x2="1491.65" y2="656.393" style="stroke:#0000ff; stroke-width:12; stroke-opacity:1"/>
<line clip-path="url(#clip632)" x1="884.666" y1="513.66" x2="884.666" y2="497.66" style="stroke:#0000ff; stroke-width:12; stroke-opacity:1"/>
<line clip-path="url(#clip632)" x1="884.666" y1="513.66" x2="868.666" y2="513.66" style="stroke:#0000ff; stroke-width:12; stroke-opacity:1"/>
<line clip-path="url(#clip632)" x1="884.666" y1="513.66" x2="884.666" y2="529.66" style="stroke:#0000ff; stroke-width:12; stroke-opacity:1"/>
<line clip-path="url(#clip632)" x1="884.666" y1="513.66" x2="900.666" y2="513.66" style="stroke:#0000ff; stroke-width:12; stroke-opacity:1"/>
<line clip-path="url(#clip632)" x1="1092.89" y1="369.102" x2="1092.89" y2="353.102" style="stroke:#0000ff; stroke-width:12; stroke-opacity:1"/>
<line clip-path="url(#clip632)" x1="1092.89" y1="369.102" x2="1076.89" y2="369.102" style="stroke:#0000ff; stroke-width:12; stroke-opacity:1"/>
<line clip-path="url(#clip632)" x1="1092.89" y1="369.102" x2="1092.89" y2="385.102" style="stroke:#0000ff; stroke-width:12; stroke-opacity:1"/>
<line clip-path="url(#clip632)" x1="1092.89" y1="369.102" x2="1108.89" y2="369.102" style="stroke:#0000ff; stroke-width:12; stroke-opacity:1"/>
<line clip-path="url(#clip632)" x1="1026.63" y1="225.906" x2="1026.63" y2="209.906" style="stroke:#0000ff; stroke-width:12; stroke-opacity:1"/>
<line clip-path="url(#clip632)" x1="1026.63" y1="225.906" x2="1010.63" y2="225.906" style="stroke:#0000ff; stroke-width:12; stroke-opacity:1"/>
<line clip-path="url(#clip632)" x1="1026.63" y1="225.906" x2="1026.63" y2="241.906" style="stroke:#0000ff; stroke-width:12; stroke-opacity:1"/>
<line clip-path="url(#clip632)" x1="1026.63" y1="225.906" x2="1042.63" y2="225.906" style="stroke:#0000ff; stroke-width:12; stroke-opacity:1"/>
<line clip-path="url(#clip632)" x1="953.197" y1="82.1398" x2="953.197" y2="66.1398" style="stroke:#0000ff; stroke-width:12; stroke-opacity:1"/>
<line clip-path="url(#clip632)" x1="953.197" y1="82.1398" x2="937.197" y2="82.1398" style="stroke:#0000ff; stroke-width:12; stroke-opacity:1"/>
<line clip-path="url(#clip632)" x1="953.197" y1="82.1398" x2="953.197" y2="98.1398" style="stroke:#0000ff; stroke-width:12; stroke-opacity:1"/>
<line clip-path="url(#clip632)" x1="953.197" y1="82.1398" x2="969.197" y2="82.1398" style="stroke:#0000ff; stroke-width:12; stroke-opacity:1"/>
<polyline clip-path="url(#clip632)" style="stroke:#5400aa; stroke-linecap:round; stroke-linejoin:round; stroke-width:12; stroke-opacity:1; fill:none" points="1405.23,1103.91 1060.11,998.674 713.535,893.981 395.785,787.243 453.757,679.222 455.646,572.827 "/>
<circle clip-path="url(#clip632)" cx="1405.23" cy="1103.91" r="14.4" fill="#5400aa" fill-rule="evenodd" fill-opacity="1" stroke="#000000" stroke-opacity="1" stroke-width="1.536"/>
<circle clip-path="url(#clip632)" cx="1060.11" cy="998.674" r="14.4" fill="#5400aa" fill-rule="evenodd" fill-opacity="1" stroke="#000000" stroke-opacity="1" stroke-width="1.536"/>
<circle clip-path="url(#clip632)" cx="713.535" cy="893.981" r="14.4" fill="#5400aa" fill-rule="evenodd" fill-opacity="1" stroke="#000000" stroke-opacity="1" stroke-width="1.536"/>
<circle clip-path="url(#clip632)" cx="395.785" cy="787.243" r="14.4" fill="#5400aa" fill-rule="evenodd" fill-opacity="1" stroke="#000000" stroke-opacity="1" stroke-width="1.536"/>
<circle clip-path="url(#clip632)" cx="453.757" cy="679.222" r="14.4" fill="#5400aa" fill-rule="evenodd" fill-opacity="1" stroke="#000000" stroke-opacity="1" stroke-width="1.536"/>
<circle clip-path="url(#clip632)" cx="455.646" cy="572.827" r="14.4" fill="#5400aa" fill-rule="evenodd" fill-opacity="1" stroke="#000000" stroke-opacity="1" stroke-width="1.536"/>
<polyline clip-path="url(#clip632)" style="stroke:#a90055; stroke-linecap:round; stroke-linejoin:round; stroke-width:12; stroke-opacity:1; fill:none" points="1212.5,1237.75 831.731,1157.33 290.708,1081.68 450.93,998.196 453.733,913.483 453.83,827.767 "/>
<line clip-path="url(#clip632)" x1="1212.5" y1="1237.75" x2="1212.5" y2="1221.75" style="stroke:#a90055; stroke-width:12; stroke-opacity:1"/>
<line clip-path="url(#clip632)" x1="1212.5" y1="1237.75" x2="1196.5" y2="1237.75" style="stroke:#a90055; stroke-width:12; stroke-opacity:1"/>
<line clip-path="url(#clip632)" x1="1212.5" y1="1237.75" x2="1212.5" y2="1253.75" style="stroke:#a90055; stroke-width:12; stroke-opacity:1"/>
<line clip-path="url(#clip632)" x1="1212.5" y1="1237.75" x2="1228.5" y2="1237.75" style="stroke:#a90055; stroke-width:12; stroke-opacity:1"/>
<line clip-path="url(#clip632)" x1="831.731" y1="1157.33" x2="831.731" y2="1141.33" style="stroke:#a90055; stroke-width:12; stroke-opacity:1"/>
<line clip-path="url(#clip632)" x1="831.731" y1="1157.33" x2="815.731" y2="1157.33" style="stroke:#a90055; stroke-width:12; stroke-opacity:1"/>
<line clip-path="url(#clip632)" x1="831.731" y1="1157.33" x2="831.731" y2="1173.33" style="stroke:#a90055; stroke-width:12; stroke-opacity:1"/>
<line clip-path="url(#clip632)" x1="831.731" y1="1157.33" x2="847.731" y2="1157.33" style="stroke:#a90055; stroke-width:12; stroke-opacity:1"/>
<line clip-path="url(#clip632)" x1="290.708" y1="1081.68" x2="290.708" y2="1065.68" style="stroke:#a90055; stroke-width:12; stroke-opacity:1"/>
<line clip-path="url(#clip632)" x1="290.708" y1="1081.68" x2="274.708" y2="1081.68" style="stroke:#a90055; stroke-width:12; stroke-opacity:1"/>
<line clip-path="url(#clip632)" x1="290.708" y1="1081.68" x2="290.708" y2="1097.68" style="stroke:#a90055; stroke-width:12; stroke-opacity:1"/>
<line clip-path="url(#clip632)" x1="290.708" y1="1081.68" x2="306.708" y2="1081.68" style="stroke:#a90055; stroke-width:12; stroke-opacity:1"/>
<line clip-path="url(#clip632)" x1="450.93" y1="998.196" x2="450.93" y2="982.196" style="stroke:#a90055; stroke-width:12; stroke-opacity:1"/>
<line clip-path="url(#clip632)" x1="450.93" y1="998.196" x2="434.93" y2="998.196" style="stroke:#a90055; stroke-width:12; stroke-opacity:1"/>
<line clip-path="url(#clip632)" x1="450.93" y1="998.196" x2="450.93" y2="1014.2" style="stroke:#a90055; stroke-width:12; stroke-opacity:1"/>
<line clip-path="url(#clip632)" x1="450.93" y1="998.196" x2="466.93" y2="998.196" style="stroke:#a90055; stroke-width:12; stroke-opacity:1"/>
<line clip-path="url(#clip632)" x1="453.733" y1="913.483" x2="453.733" y2="897.483" style="stroke:#a90055; stroke-width:12; stroke-opacity:1"/>
<line clip-path="url(#clip632)" x1="453.733" y1="913.483" x2="437.733" y2="913.483" style="stroke:#a90055; stroke-width:12; stroke-opacity:1"/>
<line clip-path="url(#clip632)" x1="453.733" y1="913.483" x2="453.733" y2="929.483" style="stroke:#a90055; stroke-width:12; stroke-opacity:1"/>
<line clip-path="url(#clip632)" x1="453.733" y1="913.483" x2="469.733" y2="913.483" style="stroke:#a90055; stroke-width:12; stroke-opacity:1"/>
<line clip-path="url(#clip632)" x1="453.83" y1="827.767" x2="453.83" y2="811.767" style="stroke:#a90055; stroke-width:12; stroke-opacity:1"/>
<line clip-path="url(#clip632)" x1="453.83" y1="827.767" x2="437.83" y2="827.767" style="stroke:#a90055; stroke-width:12; stroke-opacity:1"/>
<line clip-path="url(#clip632)" x1="453.83" y1="827.767" x2="453.83" y2="843.767" style="stroke:#a90055; stroke-width:12; stroke-opacity:1"/>
<line clip-path="url(#clip632)" x1="453.83" y1="827.767" x2="469.83" y2="827.767" style="stroke:#a90055; stroke-width:12; stroke-opacity:1"/>
<polyline clip-path="url(#clip632)" style="stroke:#ff0000; stroke-linecap:round; stroke-linejoin:round; stroke-width:12; stroke-opacity:1; fill:none" points="1227.85,1245.33 596.821,1219.71 430.144,1156.43 452.246,1085.53 453.599,1017.44 453.719,939.729 "/>
<path clip-path="url(#clip632)" d="M1227.85 1229.33 L1211.85 1245.33 L1227.85 1261.33 L1243.85 1245.33 L1227.85 1229.33 Z" fill="#ff0000" fill-rule="evenodd" fill-opacity="1" stroke="#000000" stroke-opacity="1" stroke-width="1.536"/>
<path clip-path="url(#clip632)" d="M596.821 1203.71 L580.821 1219.71 L596.821 1235.71 L612.821 1219.71 L596.821 1203.71 Z" fill="#ff0000" fill-rule="evenodd" fill-opacity="1" stroke="#000000" stroke-opacity="1" stroke-width="1.536"/>
<path clip-path="url(#clip632)" d="M430.144 1140.43 L414.144 1156.43 L430.144 1172.43 L446.144 1156.43 L430.144 1140.43 Z" fill="#ff0000" fill-rule="evenodd" fill-opacity="1" stroke="#000000" stroke-opacity="1" stroke-width="1.536"/>
<path clip-path="url(#clip632)" d="M452.246 1069.53 L436.246 1085.53 L452.246 1101.53 L468.246 1085.53 L452.246 1069.53 Z" fill="#ff0000" fill-rule="evenodd" fill-opacity="1" stroke="#000000" stroke-opacity="1" stroke-width="1.536"/>
<path clip-path="url(#clip632)" d="M453.599 1001.44 L437.599 1017.44 L453.599 1033.44 L469.599 1017.44 L453.599 1001.44 Z" fill="#ff0000" fill-rule="evenodd" fill-opacity="1" stroke="#000000" stroke-opacity="1" stroke-width="1.536"/>
<path clip-path="url(#clip632)" d="M453.719 923.729 L437.719 939.729 L453.719 955.729 L469.719 939.729 L453.719 923.729 Z" fill="#ff0000" fill-rule="evenodd" fill-opacity="1" stroke="#000000" stroke-opacity="1" stroke-width="1.536"/>
<path clip-path="url(#clip630)" d="M1898.82 347.543 L2256.76 347.543 L2256.76 88.3434 L1898.82 88.3434  Z" fill="#ffffff" fill-rule="evenodd" fill-opacity="1"/>
<polyline clip-path="url(#clip630)" style="stroke:#000000; stroke-linecap:round; stroke-linejoin:round; stroke-width:4; stroke-opacity:1; fill:none" points="1898.82,347.543 2256.76,347.543 2256.76,88.3434 1898.82,88.3434 1898.82,347.543 "/>
<polyline clip-path="url(#clip630)" style="stroke:#0000ff; stroke-linecap:round; stroke-linejoin:round; stroke-width:12; stroke-opacity:1; fill:none" points="1921.16,140.183 2055.23,140.183 "/>
<line clip-path="url(#clip630)" x1="1988.2" y1="140.183" x2="1988.2" y2="119.495" style="stroke:#0000ff; stroke-width:12; stroke-opacity:1"/>
<line clip-path="url(#clip630)" x1="1988.2" y1="140.183" x2="1967.51" y2="140.183" style="stroke:#0000ff; stroke-width:12; stroke-opacity:1"/>
<line clip-path="url(#clip630)" x1="1988.2" y1="140.183" x2="1988.2" y2="160.872" style="stroke:#0000ff; stroke-width:12; stroke-opacity:1"/>
<line clip-path="url(#clip630)" x1="1988.2" y1="140.183" x2="2008.88" y2="140.183" style="stroke:#0000ff; stroke-width:12; stroke-opacity:1"/>
<path clip-path="url(#clip630)" d="M2077.57 157.463 L2077.57 155.907 L2078.78 155.907 Q2081.52 155.907 2082.14 155.462 Q2082.78 154.993 2082.78 153.511 L2082.78 127.004 Q2082.78 125.547 2082.14 125.102 Q2081.5 124.633 2078.78 124.633 L2077.57 124.633 L2077.57 123.052 L2106.05 123.052 L2107.46 134.44 L2106.2 134.44 Q2105.86 131.55 2105.39 129.894 Q2104.94 128.215 2103.83 126.93 Q2102.74 125.646 2100.94 125.151 Q2099.16 124.633 2096.27 124.633 L2089.75 124.633 Q2088.02 124.633 2087.65 125.003 Q2087.28 125.349 2087.28 126.658 L2087.28 138.788 L2091.82 138.788 Q2095.31 138.788 2096.3 137.577 Q2097.28 136.367 2097.28 132.884 L2098.57 132.884 L2098.57 146.273 L2097.28 146.273 Q2097.28 142.839 2096.3 141.604 Q2095.31 140.369 2091.82 140.369 L2087.28 140.369 L2087.28 153.881 Q2087.28 155.191 2087.65 155.561 Q2088.04 155.907 2089.75 155.907 L2096.49 155.907 Q2098.67 155.907 2100.25 155.635 Q2101.85 155.339 2102.97 154.647 Q2104.08 153.931 2104.82 153.116 Q2105.58 152.3 2106.1 150.843 Q2106.65 149.361 2106.94 148.002 Q2107.26 146.643 2107.61 144.42 L2108.87 144.42 L2106.75 157.463 L2077.57 157.463 Z" fill="#000000" fill-rule="nonzero" fill-opacity="1" /><path clip-path="url(#clip630)" d="M2111.96 157.463 L2111.96 155.907 L2113.17 155.907 Q2115.91 155.907 2116.53 155.462 Q2117.17 154.993 2117.17 153.511 L2117.17 126.856 Q2117.17 125.398 2116.53 124.954 Q2115.89 124.484 2113.17 124.484 L2111.96 124.484 L2111.96 122.903 Q2113.74 123.052 2119.44 123.052 Q2125.1 123.052 2126.88 122.903 L2126.88 124.484 L2125.67 124.484 Q2122.93 124.484 2122.28 124.954 Q2121.67 125.398 2121.67 126.856 L2121.67 142.938 L2137.5 127.819 Q2138.41 127.004 2138.41 126.14 Q2138.41 125.843 2138.27 125.522 Q2138.14 125.176 2137.55 124.83 Q2136.98 124.484 2136.07 124.484 L2136.07 122.903 Q2137.8 123.052 2142.52 123.052 Q2145.5 123.052 2146.81 122.903 L2146.81 124.484 Q2142.61 124.534 2139.63 127.523 L2130.51 136.268 L2142.19 153.461 Q2143.26 155.018 2144.29 155.462 Q2145.33 155.907 2147.51 155.907 L2147.51 157.463 Q2144.32 157.315 2141.7 157.315 Q2136.24 157.315 2134.46 157.463 L2134.46 155.907 Q2137.45 155.907 2137.45 154.376 Q2137.45 153.807 2136.69 152.646 L2127.52 139.109 L2121.67 144.667 L2121.67 153.511 Q2121.67 154.968 2122.28 155.438 Q2122.93 155.907 2125.67 155.907 L2126.88 155.907 L2126.88 157.463 Q2125.1 157.315 2119.39 157.315 Q2113.74 157.315 2111.96 157.463 Z" fill="#000000" fill-rule="nonzero" fill-opacity="1" /><path clip-path="url(#clip630)" d="M2154.08 128.585 L2154.08 127.004 Q2160.15 127.004 2163.29 123.768 Q2164.16 123.768 2164.3 123.966 Q2164.45 124.163 2164.45 125.077 L2164.45 153.461 Q2164.45 154.968 2165.19 155.438 Q2165.93 155.907 2169.17 155.907 L2170.78 155.907 L2170.78 157.463 Q2169 157.315 2162.57 157.315 Q2156.15 157.315 2154.4 157.463 L2154.4 155.907 L2156 155.907 Q2159.19 155.907 2159.96 155.462 Q2160.72 154.993 2160.72 153.461 L2160.72 127.251 Q2158.08 128.585 2154.08 128.585 Z" fill="#000000" fill-rule="nonzero" fill-opacity="1" /><path clip-path="url(#clip630)" d="M2179.89 144.815 Q2179.89 136.268 2183.08 129.376 Q2184.44 126.485 2186.34 124.064 Q2188.24 121.644 2189.5 120.581 Q2190.76 119.519 2191.11 119.519 Q2191.6 119.519 2191.63 120.013 Q2191.63 120.26 2190.96 120.878 Q2182.81 129.178 2182.83 144.815 Q2182.83 160.502 2190.76 168.481 Q2191.63 169.346 2191.63 169.617 Q2191.63 170.112 2191.11 170.112 Q2190.76 170.112 2189.55 169.099 Q2188.34 168.086 2186.46 165.764 Q2184.59 163.442 2183.23 160.601 Q2179.89 153.709 2179.89 144.815 Z" fill="#000000" fill-rule="nonzero" fill-opacity="1" /><path clip-path="url(#clip630)" d="M2198.99 128.585 L2198.99 127.004 Q2205.06 127.004 2208.2 123.768 Q2209.07 123.768 2209.21 123.966 Q2209.36 124.163 2209.36 125.077 L2209.36 153.461 Q2209.36 154.968 2210.1 155.438 Q2210.85 155.907 2214.08 155.907 L2215.69 155.907 L2215.69 157.463 Q2213.91 157.315 2207.49 157.315 Q2201.06 157.315 2199.31 157.463 L2199.31 155.907 L2200.91 155.907 Q2204.1 155.907 2204.87 155.462 Q2205.63 154.993 2205.63 153.461 L2205.63 127.251 Q2202.99 128.585 2198.99 128.585 Z" fill="#000000" fill-rule="nonzero" fill-opacity="1" /><path clip-path="url(#clip630)" d="M2222.68 169.617 Q2222.68 169.37 2223.32 168.753 Q2231.47 160.453 2231.47 144.815 Q2231.47 129.129 2223.64 121.199 Q2222.68 120.285 2222.68 120.013 Q2222.68 119.519 2223.17 119.519 Q2223.52 119.519 2224.73 120.532 Q2225.96 121.545 2227.82 123.867 Q2229.69 126.189 2231.08 129.03 Q2234.41 135.922 2234.41 144.815 Q2234.41 153.363 2231.23 160.255 Q2229.87 163.145 2227.96 165.566 Q2226.06 167.987 2224.8 169.049 Q2223.54 170.112 2223.17 170.112 Q2222.68 170.112 2222.68 169.617 Z" fill="#000000" fill-rule="nonzero" fill-opacity="1" /><polyline clip-path="url(#clip630)" style="stroke:#5400aa; stroke-linecap:round; stroke-linejoin:round; stroke-width:12; stroke-opacity:1; fill:none" points="1921.16,192.023 2055.23,192.023 "/>
<circle clip-path="url(#clip630)" cx="1988.2" cy="192.023" r="18.6198" fill="#5400aa" fill-rule="evenodd" fill-opacity="1" stroke="#000000" stroke-opacity="1" stroke-width="2.31304"/>
<path clip-path="url(#clip630)" d="M2077.57 209.303 L2077.57 207.747 L2078.78 207.747 Q2081.52 207.747 2082.14 207.302 Q2082.78 206.833 2082.78 205.351 L2082.78 178.844 Q2082.78 177.387 2082.14 176.942 Q2081.5 176.473 2078.78 176.473 L2077.57 176.473 L2077.57 174.892 L2106.05 174.892 L2107.46 186.28 L2106.2 186.28 Q2105.86 183.39 2105.39 181.734 Q2104.94 180.055 2103.83 178.77 Q2102.74 177.486 2100.94 176.991 Q2099.16 176.473 2096.27 176.473 L2089.75 176.473 Q2088.02 176.473 2087.65 176.843 Q2087.28 177.189 2087.28 178.498 L2087.28 190.628 L2091.82 190.628 Q2095.31 190.628 2096.3 189.417 Q2097.28 188.207 2097.28 184.724 L2098.57 184.724 L2098.57 198.113 L2097.28 198.113 Q2097.28 194.679 2096.3 193.444 Q2095.31 192.209 2091.82 192.209 L2087.28 192.209 L2087.28 205.721 Q2087.28 207.031 2087.65 207.401 Q2088.04 207.747 2089.75 207.747 L2096.49 207.747 Q2098.67 207.747 2100.25 207.475 Q2101.85 207.179 2102.97 206.487 Q2104.08 205.771 2104.82 204.956 Q2105.58 204.14 2106.1 202.683 Q2106.65 201.201 2106.94 199.842 Q2107.26 198.483 2107.61 196.26 L2108.87 196.26 L2106.75 209.303 L2077.57 209.303 Z" fill="#000000" fill-rule="nonzero" fill-opacity="1" /><path clip-path="url(#clip630)" d="M2111.96 209.303 L2111.96 207.747 L2113.17 207.747 Q2115.91 207.747 2116.53 207.302 Q2117.17 206.833 2117.17 205.351 L2117.17 178.696 Q2117.17 177.238 2116.53 176.794 Q2115.89 176.324 2113.17 176.324 L2111.96 176.324 L2111.96 174.743 Q2113.74 174.892 2119.44 174.892 Q2125.1 174.892 2126.88 174.743 L2126.88 176.324 L2125.67 176.324 Q2122.93 176.324 2122.28 176.794 Q2121.67 177.238 2121.67 178.696 L2121.67 194.778 L2137.5 179.659 Q2138.41 178.844 2138.41 177.98 Q2138.41 177.683 2138.27 177.362 Q2138.14 177.016 2137.55 176.67 Q2136.98 176.324 2136.07 176.324 L2136.07 174.743 Q2137.8 174.892 2142.52 174.892 Q2145.5 174.892 2146.81 174.743 L2146.81 176.324 Q2142.61 176.374 2139.63 179.363 L2130.51 188.108 L2142.19 205.301 Q2143.26 206.858 2144.29 207.302 Q2145.33 207.747 2147.51 207.747 L2147.51 209.303 Q2144.32 209.155 2141.7 209.155 Q2136.24 209.155 2134.46 209.303 L2134.46 207.747 Q2137.45 207.747 2137.45 206.216 Q2137.45 205.647 2136.69 204.486 L2127.52 190.949 L2121.67 196.507 L2121.67 205.351 Q2121.67 206.808 2122.28 207.278 Q2122.93 207.747 2125.67 207.747 L2126.88 207.747 L2126.88 209.303 Q2125.1 209.155 2119.39 209.155 Q2113.74 209.155 2111.96 209.303 Z" fill="#000000" fill-rule="nonzero" fill-opacity="1" /><path clip-path="url(#clip630)" d="M2154.08 180.425 L2154.08 178.844 Q2160.15 178.844 2163.29 175.608 Q2164.16 175.608 2164.3 175.806 Q2164.45 176.003 2164.45 176.917 L2164.45 205.301 Q2164.45 206.808 2165.19 207.278 Q2165.93 207.747 2169.17 207.747 L2170.78 207.747 L2170.78 209.303 Q2169 209.155 2162.57 209.155 Q2156.15 209.155 2154.4 209.303 L2154.4 207.747 L2156 207.747 Q2159.19 207.747 2159.96 207.302 Q2160.72 206.833 2160.72 205.301 L2160.72 179.091 Q2158.08 180.425 2154.08 180.425 Z" fill="#000000" fill-rule="nonzero" fill-opacity="1" /><path clip-path="url(#clip630)" d="M2179.89 196.655 Q2179.89 188.108 2183.08 181.216 Q2184.44 178.325 2186.34 175.904 Q2188.24 173.484 2189.5 172.421 Q2190.76 171.359 2191.11 171.359 Q2191.6 171.359 2191.63 171.853 Q2191.63 172.1 2190.96 172.718 Q2182.81 181.018 2182.83 196.655 Q2182.83 212.342 2190.76 220.321 Q2191.63 221.186 2191.63 221.457 Q2191.63 221.952 2191.11 221.952 Q2190.76 221.952 2189.55 220.939 Q2188.34 219.926 2186.46 217.604 Q2184.59 215.282 2183.23 212.441 Q2179.89 205.549 2179.89 196.655 Z" fill="#000000" fill-rule="nonzero" fill-opacity="1" /><path clip-path="url(#clip630)" d="M2197.01 209.303 Q2197.01 208.389 2197.09 208.118 Q2197.18 207.846 2197.58 207.426 L2207.29 196.606 Q2212.6 190.628 2212.6 185.415 Q2212.6 182.031 2210.82 179.61 Q2209.07 177.189 2205.83 177.189 Q2203.61 177.189 2201.73 178.548 Q2199.85 179.906 2198.99 182.327 Q2199.14 182.278 2199.65 182.278 Q2200.91 182.278 2201.61 183.068 Q2202.32 183.859 2202.32 184.921 Q2202.32 186.28 2201.43 186.947 Q2200.57 187.589 2199.7 187.589 Q2199.36 187.589 2198.89 187.515 Q2198.44 187.441 2197.73 186.749 Q2197.01 186.033 2197.01 184.773 Q2197.01 181.24 2199.68 178.424 Q2202.37 175.608 2206.47 175.608 Q2211.12 175.608 2214.16 178.375 Q2217.22 181.117 2217.22 185.415 Q2217.22 186.922 2216.75 188.306 Q2216.3 189.664 2215.69 190.727 Q2215.09 191.789 2213.46 193.493 Q2211.83 195.198 2210.52 196.408 Q2209.21 197.619 2206.28 200.188 L2200.91 205.4 L2210.03 205.4 Q2214.48 205.4 2214.82 205.005 Q2215.32 204.289 2215.93 200.509 L2217.22 200.509 L2215.79 209.303 L2197.01 209.303 Z" fill="#000000" fill-rule="nonzero" fill-opacity="1" /><path clip-path="url(#clip630)" d="M2222.68 221.457 Q2222.68 221.21 2223.32 220.593 Q2231.47 212.293 2231.47 196.655 Q2231.47 180.969 2223.64 173.039 Q2222.68 172.125 2222.68 171.853 Q2222.68 171.359 2223.17 171.359 Q2223.52 171.359 2224.73 172.372 Q2225.96 173.385 2227.82 175.707 Q2229.69 178.029 2231.08 180.87 Q2234.41 187.762 2234.41 196.655 Q2234.41 205.203 2231.23 212.095 Q2229.87 214.985 2227.96 217.406 Q2226.06 219.827 2224.8 220.889 Q2223.54 221.952 2223.17 221.952 Q2222.68 221.952 2222.68 221.457 Z" fill="#000000" fill-rule="nonzero" fill-opacity="1" /><polyline clip-path="url(#clip630)" style="stroke:#a90055; stroke-linecap:round; stroke-linejoin:round; stroke-width:12; stroke-opacity:1; fill:none" points="1921.16,243.863 2055.23,243.863 "/>
<line clip-path="url(#clip630)" x1="1988.2" y1="243.863" x2="1988.2" y2="223.175" style="stroke:#a90055; stroke-width:12; stroke-opacity:1"/>
<line clip-path="url(#clip630)" x1="1988.2" y1="243.863" x2="1967.51" y2="243.863" style="stroke:#a90055; stroke-width:12; stroke-opacity:1"/>
<line clip-path="url(#clip630)" x1="1988.2" y1="243.863" x2="1988.2" y2="264.552" style="stroke:#a90055; stroke-width:12; stroke-opacity:1"/>
<line clip-path="url(#clip630)" x1="1988.2" y1="243.863" x2="2008.88" y2="243.863" style="stroke:#a90055; stroke-width:12; stroke-opacity:1"/>
<path clip-path="url(#clip630)" d="M2077.57 261.143 L2077.57 259.587 L2078.78 259.587 Q2081.52 259.587 2082.14 259.142 Q2082.78 258.673 2082.78 257.191 L2082.78 230.684 Q2082.78 229.227 2082.14 228.782 Q2081.5 228.313 2078.78 228.313 L2077.57 228.313 L2077.57 226.732 L2106.05 226.732 L2107.46 238.12 L2106.2 238.12 Q2105.86 235.23 2105.39 233.574 Q2104.94 231.895 2103.83 230.61 Q2102.74 229.326 2100.94 228.831 Q2099.16 228.313 2096.27 228.313 L2089.75 228.313 Q2088.02 228.313 2087.65 228.683 Q2087.28 229.029 2087.28 230.338 L2087.28 242.468 L2091.82 242.468 Q2095.31 242.468 2096.3 241.257 Q2097.28 240.047 2097.28 236.564 L2098.57 236.564 L2098.57 249.953 L2097.28 249.953 Q2097.28 246.519 2096.3 245.284 Q2095.31 244.049 2091.82 244.049 L2087.28 244.049 L2087.28 257.561 Q2087.28 258.871 2087.65 259.241 Q2088.04 259.587 2089.75 259.587 L2096.49 259.587 Q2098.67 259.587 2100.25 259.315 Q2101.85 259.019 2102.97 258.327 Q2104.08 257.611 2104.82 256.796 Q2105.58 255.98 2106.1 254.523 Q2106.65 253.041 2106.94 251.682 Q2107.26 250.323 2107.61 248.1 L2108.87 248.1 L2106.75 261.143 L2077.57 261.143 Z" fill="#000000" fill-rule="nonzero" fill-opacity="1" /><path clip-path="url(#clip630)" d="M2111.96 261.143 L2111.96 259.587 L2113.17 259.587 Q2115.91 259.587 2116.53 259.142 Q2117.17 258.673 2117.17 257.191 L2117.17 230.536 Q2117.17 229.078 2116.53 228.634 Q2115.89 228.164 2113.17 228.164 L2111.96 228.164 L2111.96 226.583 Q2113.74 226.732 2119.44 226.732 Q2125.1 226.732 2126.88 226.583 L2126.88 228.164 L2125.67 228.164 Q2122.93 228.164 2122.28 228.634 Q2121.67 229.078 2121.67 230.536 L2121.67 246.618 L2137.5 231.499 Q2138.41 230.684 2138.41 229.82 Q2138.41 229.523 2138.27 229.202 Q2138.14 228.856 2137.55 228.51 Q2136.98 228.164 2136.07 228.164 L2136.07 226.583 Q2137.8 226.732 2142.52 226.732 Q2145.5 226.732 2146.81 226.583 L2146.81 228.164 Q2142.61 228.214 2139.63 231.203 L2130.51 239.948 L2142.19 257.141 Q2143.26 258.698 2144.29 259.142 Q2145.33 259.587 2147.51 259.587 L2147.51 261.143 Q2144.32 260.995 2141.7 260.995 Q2136.24 260.995 2134.46 261.143 L2134.46 259.587 Q2137.45 259.587 2137.45 258.056 Q2137.45 257.487 2136.69 256.326 L2127.52 242.789 L2121.67 248.347 L2121.67 257.191 Q2121.67 258.648 2122.28 259.118 Q2122.93 259.587 2125.67 259.587 L2126.88 259.587 L2126.88 261.143 Q2125.1 260.995 2119.39 260.995 Q2113.74 260.995 2111.96 261.143 Z" fill="#000000" fill-rule="nonzero" fill-opacity="1" /><path clip-path="url(#clip630)" d="M2154.08 232.265 L2154.08 230.684 Q2160.15 230.684 2163.29 227.448 Q2164.16 227.448 2164.3 227.646 Q2164.45 227.843 2164.45 228.757 L2164.45 257.141 Q2164.45 258.648 2165.19 259.118 Q2165.93 259.587 2169.17 259.587 L2170.78 259.587 L2170.78 261.143 Q2169 260.995 2162.57 260.995 Q2156.15 260.995 2154.4 261.143 L2154.4 259.587 L2156 259.587 Q2159.19 259.587 2159.96 259.142 Q2160.72 258.673 2160.72 257.141 L2160.72 230.931 Q2158.08 232.265 2154.08 232.265 Z" fill="#000000" fill-rule="nonzero" fill-opacity="1" /><path clip-path="url(#clip630)" d="M2179.89 248.495 Q2179.89 239.948 2183.08 233.056 Q2184.44 230.165 2186.34 227.744 Q2188.24 225.324 2189.5 224.261 Q2190.76 223.199 2191.11 223.199 Q2191.6 223.199 2191.63 223.693 Q2191.63 223.94 2190.96 224.558 Q2182.81 232.858 2182.83 248.495 Q2182.83 264.182 2190.76 272.161 Q2191.63 273.026 2191.63 273.297 Q2191.63 273.792 2191.11 273.792 Q2190.76 273.792 2189.55 272.779 Q2188.34 271.766 2186.46 269.444 Q2184.59 267.122 2183.23 264.281 Q2179.89 257.389 2179.89 248.495 Z" fill="#000000" fill-rule="nonzero" fill-opacity="1" /><path clip-path="url(#clip630)" d="M2196.62 254.325 Q2196.62 252.818 2197.48 252.102 Q2198.35 251.386 2199.46 251.386 Q2200.62 251.386 2201.43 252.151 Q2202.27 252.893 2202.27 254.202 Q2202.27 255.61 2201.28 256.4 Q2200.32 257.191 2198.94 256.993 Q2200.15 259.019 2202.37 259.933 Q2204.62 260.847 2206.7 260.847 Q2208.87 260.847 2210.62 258.97 Q2212.4 257.092 2212.4 252.497 Q2212.4 248.594 2210.87 246.346 Q2209.36 244.098 2206.37 244.098 L2204.15 244.098 Q2203.38 244.098 2203.16 244.024 Q2202.94 243.95 2202.94 243.53 Q2202.94 243.036 2203.71 242.937 Q2204.47 242.937 2205.68 242.789 Q2208.62 242.69 2210.18 240.146 Q2211.59 237.774 2211.59 234.39 Q2211.59 231.302 2210.1 230.017 Q2208.65 228.708 2206.74 228.708 Q2204.97 228.708 2203.01 229.449 Q2201.06 230.19 2200 231.845 Q2203.14 231.845 2203.14 234.39 Q2203.14 235.501 2202.42 236.242 Q2201.73 236.959 2200.57 236.959 Q2199.46 236.959 2198.72 236.267 Q2197.97 235.551 2197.97 234.34 Q2197.97 231.45 2200.54 229.449 Q2203.14 227.448 2206.94 227.448 Q2210.7 227.448 2213.46 229.424 Q2216.26 231.401 2216.26 234.439 Q2216.26 237.428 2214.28 239.874 Q2212.3 242.319 2209.17 243.332 Q2213.02 244.098 2215.32 246.717 Q2217.61 249.311 2217.61 252.497 Q2217.61 256.45 2214.5 259.365 Q2211.39 262.255 2206.84 262.255 Q2202.64 262.255 2199.63 259.982 Q2196.62 257.71 2196.62 254.325 Z" fill="#000000" fill-rule="nonzero" fill-opacity="1" /><path clip-path="url(#clip630)" d="M2222.68 273.297 Q2222.68 273.05 2223.32 272.433 Q2231.47 264.133 2231.47 248.495 Q2231.47 232.809 2223.64 224.879 Q2222.68 223.965 2222.68 223.693 Q2222.68 223.199 2223.17 223.199 Q2223.52 223.199 2224.73 224.212 Q2225.96 225.225 2227.82 227.547 Q2229.69 229.869 2231.08 232.71 Q2234.41 239.602 2234.41 248.495 Q2234.41 257.043 2231.23 263.935 Q2229.87 266.825 2227.96 269.246 Q2226.06 271.667 2224.8 272.729 Q2223.54 273.792 2223.17 273.792 Q2222.68 273.792 2222.68 273.297 Z" fill="#000000" fill-rule="nonzero" fill-opacity="1" /><polyline clip-path="url(#clip630)" style="stroke:#ff0000; stroke-linecap:round; stroke-linejoin:round; stroke-width:12; stroke-opacity:1; fill:none" points="1921.16,295.703 2055.23,295.703 "/>
<path clip-path="url(#clip630)" d="M1988.2 275.015 L1967.51 295.703 L1988.2 316.392 L2008.88 295.703 L1988.2 275.015 Z" fill="#ff0000" fill-rule="evenodd" fill-opacity="1" stroke="#000000" stroke-opacity="1" stroke-width="2.31304"/>
<path clip-path="url(#clip630)" d="M2077.57 312.983 L2077.57 311.427 L2078.78 311.427 Q2081.52 311.427 2082.14 310.982 Q2082.78 310.513 2082.78 309.031 L2082.78 282.524 Q2082.78 281.067 2082.14 280.622 Q2081.5 280.153 2078.78 280.153 L2077.57 280.153 L2077.57 278.572 L2106.05 278.572 L2107.46 289.96 L2106.2 289.96 Q2105.86 287.07 2105.39 285.414 Q2104.94 283.735 2103.83 282.45 Q2102.74 281.166 2100.94 280.671 Q2099.16 280.153 2096.27 280.153 L2089.75 280.153 Q2088.02 280.153 2087.65 280.523 Q2087.28 280.869 2087.28 282.178 L2087.28 294.308 L2091.82 294.308 Q2095.31 294.308 2096.3 293.097 Q2097.28 291.887 2097.28 288.404 L2098.57 288.404 L2098.57 301.793 L2097.28 301.793 Q2097.28 298.359 2096.3 297.124 Q2095.31 295.889 2091.82 295.889 L2087.28 295.889 L2087.28 309.401 Q2087.28 310.711 2087.65 311.081 Q2088.04 311.427 2089.75 311.427 L2096.49 311.427 Q2098.67 311.427 2100.25 311.155 Q2101.85 310.859 2102.97 310.167 Q2104.08 309.451 2104.82 308.636 Q2105.58 307.82 2106.1 306.363 Q2106.65 304.881 2106.94 303.522 Q2107.26 302.163 2107.61 299.94 L2108.87 299.94 L2106.75 312.983 L2077.57 312.983 Z" fill="#000000" fill-rule="nonzero" fill-opacity="1" /><path clip-path="url(#clip630)" d="M2111.96 312.983 L2111.96 311.427 L2113.17 311.427 Q2115.91 311.427 2116.53 310.982 Q2117.17 310.513 2117.17 309.031 L2117.17 282.376 Q2117.17 280.918 2116.53 280.474 Q2115.89 280.004 2113.17 280.004 L2111.96 280.004 L2111.96 278.423 Q2113.74 278.572 2119.44 278.572 Q2125.1 278.572 2126.88 278.423 L2126.88 280.004 L2125.67 280.004 Q2122.93 280.004 2122.28 280.474 Q2121.67 280.918 2121.67 282.376 L2121.67 298.458 L2137.5 283.339 Q2138.41 282.524 2138.41 281.66 Q2138.41 281.363 2138.27 281.042 Q2138.14 280.696 2137.55 280.35 Q2136.98 280.004 2136.07 280.004 L2136.07 278.423 Q2137.8 278.572 2142.52 278.572 Q2145.5 278.572 2146.81 278.423 L2146.81 280.004 Q2142.61 280.054 2139.63 283.043 L2130.51 291.788 L2142.19 308.981 Q2143.26 310.538 2144.29 310.982 Q2145.33 311.427 2147.51 311.427 L2147.51 312.983 Q2144.32 312.835 2141.7 312.835 Q2136.24 312.835 2134.46 312.983 L2134.46 311.427 Q2137.45 311.427 2137.45 309.896 Q2137.45 309.327 2136.69 308.166 L2127.52 294.629 L2121.67 300.187 L2121.67 309.031 Q2121.67 310.488 2122.28 310.958 Q2122.93 311.427 2125.67 311.427 L2126.88 311.427 L2126.88 312.983 Q2125.1 312.835 2119.39 312.835 Q2113.74 312.835 2111.96 312.983 Z" fill="#000000" fill-rule="nonzero" fill-opacity="1" /><path clip-path="url(#clip630)" d="M2154.08 284.105 L2154.08 282.524 Q2160.15 282.524 2163.29 279.288 Q2164.16 279.288 2164.3 279.486 Q2164.45 279.683 2164.45 280.597 L2164.45 308.981 Q2164.45 310.488 2165.19 310.958 Q2165.93 311.427 2169.17 311.427 L2170.78 311.427 L2170.78 312.983 Q2169 312.835 2162.57 312.835 Q2156.15 312.835 2154.4 312.983 L2154.4 311.427 L2156 311.427 Q2159.19 311.427 2159.96 310.982 Q2160.72 310.513 2160.72 308.981 L2160.72 282.771 Q2158.08 284.105 2154.08 284.105 Z" fill="#000000" fill-rule="nonzero" fill-opacity="1" /><path clip-path="url(#clip630)" d="M2179.89 300.335 Q2179.89 291.788 2183.08 284.896 Q2184.44 282.005 2186.34 279.584 Q2188.24 277.164 2189.5 276.101 Q2190.76 275.039 2191.11 275.039 Q2191.6 275.039 2191.63 275.533 Q2191.63 275.78 2190.96 276.398 Q2182.81 284.698 2182.83 300.335 Q2182.83 316.022 2190.76 324.001 Q2191.63 324.866 2191.63 325.137 Q2191.63 325.632 2191.11 325.632 Q2190.76 325.632 2189.55 324.619 Q2188.34 323.606 2186.46 321.284 Q2184.59 318.962 2183.23 316.121 Q2179.89 309.229 2179.89 300.335 Z" fill="#000000" fill-rule="nonzero" fill-opacity="1" /><path clip-path="url(#clip630)" d="M2195.9 304.634 L2195.9 303.077 L2211.44 279.337 Q2211.83 278.72 2212.45 278.745 Q2213.02 278.745 2213.14 278.967 Q2213.27 279.189 2213.27 280.054 L2213.27 303.077 L2218.33 303.077 L2218.33 304.634 L2213.27 304.634 L2213.27 309.031 Q2213.27 310.488 2213.86 310.958 Q2214.48 311.427 2217.1 311.427 L2218.16 311.427 L2218.16 312.983 Q2216.08 312.835 2211.29 312.835 Q2206.52 312.835 2204.45 312.983 L2204.45 311.427 L2205.51 311.427 Q2208.13 311.427 2208.75 310.982 Q2209.36 310.513 2209.36 309.031 L2209.36 304.634 L2195.9 304.634 M2197.33 303.077 L2209.66 303.077 L2209.66 284.204 L2197.33 303.077 Z" fill="#000000" fill-rule="nonzero" fill-opacity="1" /><path clip-path="url(#clip630)" d="M2222.68 325.137 Q2222.68 324.89 2223.32 324.273 Q2231.47 315.973 2231.47 300.335 Q2231.47 284.649 2223.64 276.719 Q2222.68 275.805 2222.68 275.533 Q2222.68 275.039 2223.17 275.039 Q2223.52 275.039 2224.73 276.052 Q2225.96 277.065 2227.82 279.387 Q2229.69 281.709 2231.08 284.55 Q2234.41 291.442 2234.41 300.335 Q2234.41 308.883 2231.23 315.775 Q2229.87 318.665 2227.96 321.086 Q2226.06 323.507 2224.8 324.569 Q2223.54 325.632 2223.17 325.632 Q2222.68 325.632 2222.68 325.137 Z" fill="#000000" fill-rule="nonzero" fill-opacity="1" /></svg>
