<?xml version="1.0" encoding="utf-8"?>
<svg xmlns="http://www.w3.org/2000/svg" xmlns:xlink="http://www.w3.org/1999/xlink" width="576" height="384" viewBox="0 0 2304 1536">
<defs>
  <clipPath id="clip220">
    <rect x="0" y="0" width="2304" height="1536"/>
  </clipPath>
</defs>
<path clip-path="url(#clip220)" d="M0 1536 L2304 1536 L2304 0 L0 0  Z" fill="#ffffff" fill-rule="evenodd" fill-opacity="1"/>
<defs>
  <clipPath id="clip221">
    <rect x="460" y="0" width="1614" height="1536"/>
  </clipPath>
</defs>
<path clip-path="url(#clip220)" d="M245.822 1280.22 L1831.79 1280.22 L1831.79 47.2441 L245.822 47.2441  Z" fill="#ffffff" fill-rule="evenodd" fill-opacity="1"/>
<defs>
  <clipPath id="clip222">
    <rect x="245" y="47" width="1587" height="1234"/>
  </clipPath>
</defs>
<polyline clip-path="url(#clip222)" style="stroke:#000000; stroke-linecap:round; stroke-linejoin:round; stroke-width:2.8; stroke-opacity:0.4; fill:none" points="407.679,1280.22 407.679,47.2441 "/>
<polyline clip-path="url(#clip222)" style="stroke:#000000; stroke-linecap:round; stroke-linejoin:round; stroke-width:2.8; stroke-opacity:0.4; fill:none" points="711.09,1280.22 711.09,47.2441 "/>
<polyline clip-path="url(#clip222)" style="stroke:#000000; stroke-linecap:round; stroke-linejoin:round; stroke-width:2.8; stroke-opacity:0.4; fill:none" points="1014.5,1280.22 1014.5,47.2441 "/>
<polyline clip-path="url(#clip222)" style="stroke:#000000; stroke-linecap:round; stroke-linejoin:round; stroke-width:2.8; stroke-opacity:0.4; fill:none" points="1317.91,1280.22 1317.91,47.2441 "/>
<polyline clip-path="url(#clip222)" style="stroke:#000000; stroke-linecap:round; stroke-linejoin:round; stroke-width:2.8; stroke-opacity:0.4; fill:none" points="1621.32,1280.22 1621.32,47.2441 "/>
<polyline clip-path="url(#clip222)" style="stroke:#000000; stroke-linecap:round; stroke-linejoin:round; stroke-width:2; stroke-opacity:0.06; fill:none" points="305.356,1280.22 305.356,47.2441 "/>
<polyline clip-path="url(#clip222)" style="stroke:#000000; stroke-linecap:round; stroke-linejoin:round; stroke-width:2; stroke-opacity:0.06; fill:none" points="348.872,1280.22 348.872,47.2441 "/>
<polyline clip-path="url(#clip222)" style="stroke:#000000; stroke-linecap:round; stroke-linejoin:round; stroke-width:2; stroke-opacity:0.06; fill:none" points="381.529,1280.22 381.529,47.2441 "/>
<polyline clip-path="url(#clip222)" style="stroke:#000000; stroke-linecap:round; stroke-linejoin:round; stroke-width:2; stroke-opacity:0.06; fill:none" points="543.352,1280.22 543.352,47.2441 "/>
<polyline clip-path="url(#clip222)" style="stroke:#000000; stroke-linecap:round; stroke-linejoin:round; stroke-width:2; stroke-opacity:0.06; fill:none" points="608.767,1280.22 608.767,47.2441 "/>
<polyline clip-path="url(#clip222)" style="stroke:#000000; stroke-linecap:round; stroke-linejoin:round; stroke-width:2; stroke-opacity:0.06; fill:none" points="652.283,1280.22 652.283,47.2441 "/>
<polyline clip-path="url(#clip222)" style="stroke:#000000; stroke-linecap:round; stroke-linejoin:round; stroke-width:2; stroke-opacity:0.06; fill:none" points="684.94,1280.22 684.94,47.2441 "/>
<polyline clip-path="url(#clip222)" style="stroke:#000000; stroke-linecap:round; stroke-linejoin:round; stroke-width:2; stroke-opacity:0.06; fill:none" points="846.763,1280.22 846.763,47.2441 "/>
<polyline clip-path="url(#clip222)" style="stroke:#000000; stroke-linecap:round; stroke-linejoin:round; stroke-width:2; stroke-opacity:0.06; fill:none" points="912.178,1280.22 912.178,47.2441 "/>
<polyline clip-path="url(#clip222)" style="stroke:#000000; stroke-linecap:round; stroke-linejoin:round; stroke-width:2; stroke-opacity:0.06; fill:none" points="955.694,1280.22 955.694,47.2441 "/>
<polyline clip-path="url(#clip222)" style="stroke:#000000; stroke-linecap:round; stroke-linejoin:round; stroke-width:2; stroke-opacity:0.06; fill:none" points="988.351,1280.22 988.351,47.2441 "/>
<polyline clip-path="url(#clip222)" style="stroke:#000000; stroke-linecap:round; stroke-linejoin:round; stroke-width:2; stroke-opacity:0.06; fill:none" points="1150.17,1280.22 1150.17,47.2441 "/>
<polyline clip-path="url(#clip222)" style="stroke:#000000; stroke-linecap:round; stroke-linejoin:round; stroke-width:2; stroke-opacity:0.06; fill:none" points="1215.59,1280.22 1215.59,47.2441 "/>
<polyline clip-path="url(#clip222)" style="stroke:#000000; stroke-linecap:round; stroke-linejoin:round; stroke-width:2; stroke-opacity:0.06; fill:none" points="1259.1,1280.22 1259.1,47.2441 "/>
<polyline clip-path="url(#clip222)" style="stroke:#000000; stroke-linecap:round; stroke-linejoin:round; stroke-width:2; stroke-opacity:0.06; fill:none" points="1291.76,1280.22 1291.76,47.2441 "/>
<polyline clip-path="url(#clip222)" style="stroke:#000000; stroke-linecap:round; stroke-linejoin:round; stroke-width:2; stroke-opacity:0.06; fill:none" points="1453.58,1280.22 1453.58,47.2441 "/>
<polyline clip-path="url(#clip222)" style="stroke:#000000; stroke-linecap:round; stroke-linejoin:round; stroke-width:2; stroke-opacity:0.06; fill:none" points="1519,1280.22 1519,47.2441 "/>
<polyline clip-path="url(#clip222)" style="stroke:#000000; stroke-linecap:round; stroke-linejoin:round; stroke-width:2; stroke-opacity:0.06; fill:none" points="1562.52,1280.22 1562.52,47.2441 "/>
<polyline clip-path="url(#clip222)" style="stroke:#000000; stroke-linecap:round; stroke-linejoin:round; stroke-width:2; stroke-opacity:0.06; fill:none" points="1595.17,1280.22 1595.17,47.2441 "/>
<polyline clip-path="url(#clip222)" style="stroke:#000000; stroke-linecap:round; stroke-linejoin:round; stroke-width:2; stroke-opacity:0.06; fill:none" points="1757,1280.22 1757,47.2441 "/>
<polyline clip-path="url(#clip222)" style="stroke:#000000; stroke-linecap:round; stroke-linejoin:round; stroke-width:2; stroke-opacity:0.06; fill:none" points="1822.41,1280.22 1822.41,47.2441 "/>
<polyline clip-path="url(#clip220)" style="stroke:#000000; stroke-linecap:round; stroke-linejoin:round; stroke-width:4; stroke-opacity:1; fill:none" points="245.822,1280.22 1831.79,1280.22 "/>
<polyline clip-path="url(#clip220)" style="stroke:#000000; stroke-linecap:round; stroke-linejoin:round; stroke-width:4; stroke-opacity:1; fill:none" points="245.822,47.2441 1831.79,47.2441 "/>
<polyline clip-path="url(#clip220)" style="stroke:#000000; stroke-linecap:round; stroke-linejoin:round; stroke-width:4; stroke-opacity:1; fill:none" points="407.679,1280.22 407.679,1261.33 "/>
<polyline clip-path="url(#clip220)" style="stroke:#000000; stroke-linecap:round; stroke-linejoin:round; stroke-width:4; stroke-opacity:1; fill:none" points="711.09,1280.22 711.09,1261.33 "/>
<polyline clip-path="url(#clip220)" style="stroke:#000000; stroke-linecap:round; stroke-linejoin:round; stroke-width:4; stroke-opacity:1; fill:none" points="1014.5,1280.22 1014.5,1261.33 "/>
<polyline clip-path="url(#clip220)" style="stroke:#000000; stroke-linecap:round; stroke-linejoin:round; stroke-width:4; stroke-opacity:1; fill:none" points="1317.91,1280.22 1317.91,1261.33 "/>
<polyline clip-path="url(#clip220)" style="stroke:#000000; stroke-linecap:round; stroke-linejoin:round; stroke-width:4; stroke-opacity:1; fill:none" points="1621.32,1280.22 1621.32,1261.33 "/>
<polyline clip-path="url(#clip220)" style="stroke:#000000; stroke-linecap:round; stroke-linejoin:round; stroke-width:4; stroke-opacity:1; fill:none" points="305.356,1280.22 305.356,1270.78 "/>
<polyline clip-path="url(#clip220)" style="stroke:#000000; stroke-linecap:round; stroke-linejoin:round; stroke-width:4; stroke-opacity:1; fill:none" points="348.872,1280.22 348.872,1270.78 "/>
<polyline clip-path="url(#clip220)" style="stroke:#000000; stroke-linecap:round; stroke-linejoin:round; stroke-width:4; stroke-opacity:1; fill:none" points="381.529,1280.22 381.529,1270.78 "/>
<polyline clip-path="url(#clip220)" style="stroke:#000000; stroke-linecap:round; stroke-linejoin:round; stroke-width:4; stroke-opacity:1; fill:none" points="543.352,1280.22 543.352,1270.78 "/>
<polyline clip-path="url(#clip220)" style="stroke:#000000; stroke-linecap:round; stroke-linejoin:round; stroke-width:4; stroke-opacity:1; fill:none" points="608.767,1280.22 608.767,1270.78 "/>
<polyline clip-path="url(#clip220)" style="stroke:#000000; stroke-linecap:round; stroke-linejoin:round; stroke-width:4; stroke-opacity:1; fill:none" points="652.283,1280.22 652.283,1270.78 "/>
<polyline clip-path="url(#clip220)" style="stroke:#000000; stroke-linecap:round; stroke-linejoin:round; stroke-width:4; stroke-opacity:1; fill:none" points="684.94,1280.22 684.94,1270.78 "/>
<polyline clip-path="url(#clip220)" style="stroke:#000000; stroke-linecap:round; stroke-linejoin:round; stroke-width:4; stroke-opacity:1; fill:none" points="846.763,1280.22 846.763,1270.78 "/>
<polyline clip-path="url(#clip220)" style="stroke:#000000; stroke-linecap:round; stroke-linejoin:round; stroke-width:4; stroke-opacity:1; fill:none" points="912.178,1280.22 912.178,1270.78 "/>
<polyline clip-path="url(#clip220)" style="stroke:#000000; stroke-linecap:round; stroke-linejoin:round; stroke-width:4; stroke-opacity:1; fill:none" points="955.694,1280.22 955.694,1270.78 "/>
<polyline clip-path="url(#clip220)" style="stroke:#000000; stroke-linecap:round; stroke-linejoin:round; stroke-width:4; stroke-opacity:1; fill:none" points="988.351,1280.22 988.351,1270.78 "/>
<polyline clip-path="url(#clip220)" style="stroke:#000000; stroke-linecap:round; stroke-linejoin:round; stroke-width:4; stroke-opacity:1; fill:none" points="1150.17,1280.22 1150.17,1270.78 "/>
<polyline clip-path="url(#clip220)" style="stroke:#000000; stroke-linecap:round; stroke-linejoin:round; stroke-width:4; stroke-opacity:1; fill:none" points="1215.59,1280.22 1215.59,1270.78 "/>
<polyline clip-path="url(#clip220)" style="stroke:#000000; stroke-linecap:round; stroke-linejoin:round; stroke-width:4; stroke-opacity:1; fill:none" points="1259.1,1280.22 1259.1,1270.78 "/>
<polyline clip-path="url(#clip220)" style="stroke:#000000; stroke-linecap:round; stroke-linejoin:round; stroke-width:4; stroke-opacity:1; fill:none" points="1291.76,1280.22 1291.76,1270.78 "/>
<polyline clip-path="url(#clip220)" style="stroke:#000000; stroke-linecap:round; stroke-linejoin:round; stroke-width:4; stroke-opacity:1; fill:none" points="1453.58,1280.22 1453.58,1270.78 "/>
<polyline clip-path="url(#clip220)" style="stroke:#000000; stroke-linecap:round; stroke-linejoin:round; stroke-width:4; stroke-opacity:1; fill:none" points="1519,1280.22 1519,1270.78 "/>
<polyline clip-path="url(#clip220)" style="stroke:#000000; stroke-linecap:round; stroke-linejoin:round; stroke-width:4; stroke-opacity:1; fill:none" points="1562.52,1280.22 1562.52,1270.78 "/>
<polyline clip-path="url(#clip220)" style="stroke:#000000; stroke-linecap:round; stroke-linejoin:round; stroke-width:4; stroke-opacity:1; fill:none" points="1595.17,1280.22 1595.17,1270.78 "/>
<polyline clip-path="url(#clip220)" style="stroke:#000000; stroke-linecap:round; stroke-linejoin:round; stroke-width:4; stroke-opacity:1; fill:none" points="1757,1280.22 1757,1270.78 "/>
<polyline clip-path="url(#clip220)" style="stroke:#000000; stroke-linecap:round; stroke-linejoin:round; stroke-width:4; stroke-opacity:1; fill:none" points="1822.41,1280.22 1822.41,1270.78 "/>
<path clip-path="url(#clip220)" d="M351.141 1328.64 L351.141 1327.06 Q357.218 1327.06 360.355 1323.82 Q361.22 1323.82 361.368 1324.02 Q361.516 1324.22 361.516 1325.13 L361.516 1353.51 Q361.516 1355.02 362.257 1355.49 Q362.999 1355.96 366.235 1355.96 L367.84 1355.96 L367.84 1357.52 Q366.062 1357.37 359.639 1357.37 Q353.216 1357.37 351.462 1357.52 L351.462 1355.96 L353.068 1355.96 Q356.254 1355.96 357.02 1355.52 Q357.786 1355.05 357.786 1353.51 L357.786 1327.3 Q355.143 1328.64 351.141 1328.64 Z" fill="#000000" fill-rule="nonzero" fill-opacity="1" /><path clip-path="url(#clip220)" d="M373.917 1341.34 Q373.917 1333.9 375.795 1329.85 Q378.413 1323.82 384.589 1323.82 Q385.899 1323.82 387.257 1324.19 Q388.641 1324.54 390.37 1325.9 Q392.124 1327.25 393.186 1329.48 Q395.212 1333.78 395.212 1341.34 Q395.212 1348.72 393.334 1352.75 Q390.592 1358.63 384.54 1358.63 Q382.267 1358.63 379.945 1357.47 Q377.648 1356.31 376.19 1353.51 Q373.917 1349.34 373.917 1341.34 M378.117 1340.72 Q378.117 1348.35 378.66 1351.39 Q379.278 1354.68 380.958 1356.11 Q382.662 1357.52 384.54 1357.52 Q386.566 1357.52 388.245 1356.01 Q389.95 1354.48 390.469 1351.19 Q391.037 1347.96 391.012 1340.72 Q391.012 1333.68 390.518 1330.86 Q389.851 1327.58 388.072 1326.27 Q386.318 1324.93 384.54 1324.93 Q383.873 1324.93 383.156 1325.13 Q382.465 1325.33 381.452 1325.9 Q380.439 1326.46 379.649 1327.87 Q378.883 1329.28 378.512 1331.41 Q378.117 1334.15 378.117 1340.72 Z" fill="#000000" fill-rule="nonzero" fill-opacity="1" /><path clip-path="url(#clip220)" d="M422.348 1319.25 Q422.589 1319.49 422.589 1319.83 Q422.589 1320.17 422.348 1320.41 Q422.107 1320.65 421.766 1320.65 L396.035 1320.65 Q395.693 1320.65 395.453 1320.41 Q395.212 1320.17 395.212 1319.83 Q395.212 1319.49 395.453 1319.25 Q395.693 1319.01 396.035 1319.01 L421.766 1319.01 Q422.107 1319.01 422.348 1319.25 Z" fill="#000000" fill-rule="nonzero" fill-opacity="1" /><path clip-path="url(#clip220)" d="M428.53 1306.64 L428.53 1305.36 Q433.468 1305.36 436.017 1302.73 Q436.72 1302.73 436.84 1302.89 Q436.96 1303.05 436.96 1303.79 L436.96 1326.85 Q436.96 1328.08 437.563 1328.46 Q438.165 1328.84 440.794 1328.84 L442.099 1328.84 L442.099 1330.11 Q440.654 1329.99 435.435 1329.99 Q430.216 1329.99 428.791 1330.11 L428.791 1328.84 L430.096 1328.84 Q432.685 1328.84 433.307 1328.48 Q433.93 1328.1 433.93 1326.85 L433.93 1305.56 Q431.782 1306.64 428.53 1306.64 Z" fill="#000000" fill-rule="nonzero" fill-opacity="1" /><path clip-path="url(#clip220)" d="M447.157 1324.57 Q447.157 1323.34 447.859 1322.76 Q448.562 1322.18 449.465 1322.18 Q450.408 1322.18 451.071 1322.8 Q451.753 1323.4 451.753 1324.47 Q451.753 1325.61 450.95 1326.25 Q450.167 1326.89 449.043 1326.73 Q450.027 1328.38 451.833 1329.12 Q453.66 1329.87 455.346 1329.87 Q457.112 1329.87 458.537 1328.34 Q459.982 1326.81 459.982 1323.08 Q459.982 1319.91 458.738 1318.08 Q457.514 1316.26 455.085 1316.26 L453.278 1316.26 Q452.656 1316.26 452.476 1316.2 Q452.295 1316.14 452.295 1315.8 Q452.295 1315.39 452.917 1315.31 Q453.539 1315.31 454.523 1315.19 Q456.911 1315.11 458.176 1313.05 Q459.32 1311.12 459.32 1308.37 Q459.32 1305.86 458.116 1304.82 Q456.931 1303.75 455.386 1303.75 Q453.941 1303.75 452.355 1304.35 Q450.77 1304.96 449.906 1306.3 Q452.456 1306.3 452.456 1308.37 Q452.456 1309.27 451.873 1309.87 Q451.311 1310.46 450.368 1310.46 Q449.465 1310.46 448.863 1309.89 Q448.261 1309.31 448.261 1308.33 Q448.261 1305.98 450.348 1304.35 Q452.456 1302.73 455.547 1302.73 Q458.597 1302.73 460.845 1304.33 Q463.114 1305.94 463.114 1308.41 Q463.114 1310.84 461.508 1312.82 Q459.902 1314.81 457.353 1315.63 Q460.484 1316.26 462.351 1318.38 Q464.217 1320.49 464.217 1323.08 Q464.217 1326.29 461.688 1328.66 Q459.159 1331.01 455.466 1331.01 Q452.054 1331.01 449.605 1329.16 Q447.157 1327.32 447.157 1324.57 Z" fill="#000000" fill-rule="nonzero" fill-opacity="1" /><path clip-path="url(#clip220)" d="M654.712 1328.64 L654.712 1327.06 Q660.789 1327.06 663.927 1323.82 Q664.791 1323.82 664.94 1324.02 Q665.088 1324.22 665.088 1325.13 L665.088 1353.51 Q665.088 1355.02 665.829 1355.49 Q666.57 1355.96 669.806 1355.96 L671.412 1355.96 L671.412 1357.52 Q669.633 1357.37 663.21 1357.37 Q656.787 1357.37 655.034 1357.52 L655.034 1355.96 L656.639 1355.96 Q659.826 1355.96 660.592 1355.52 Q661.358 1355.05 661.358 1353.51 L661.358 1327.3 Q658.714 1328.64 654.712 1328.64 Z" fill="#000000" fill-rule="nonzero" fill-opacity="1" /><path clip-path="url(#clip220)" d="M677.489 1341.34 Q677.489 1333.9 679.366 1329.85 Q681.985 1323.82 688.161 1323.82 Q689.47 1323.82 690.829 1324.19 Q692.212 1324.54 693.941 1325.9 Q695.695 1327.25 696.757 1329.48 Q698.783 1333.78 698.783 1341.34 Q698.783 1348.72 696.906 1352.75 Q694.164 1358.63 688.111 1358.63 Q685.839 1358.63 683.516 1357.47 Q681.219 1356.31 679.762 1353.51 Q677.489 1349.34 677.489 1341.34 M681.688 1340.72 Q681.688 1348.35 682.232 1351.39 Q682.849 1354.68 684.529 1356.11 Q686.234 1357.52 688.111 1357.52 Q690.137 1357.52 691.817 1356.01 Q693.521 1354.48 694.04 1351.19 Q694.608 1347.96 694.584 1340.72 Q694.584 1333.68 694.09 1330.86 Q693.423 1327.58 691.644 1326.27 Q689.89 1324.93 688.111 1324.93 Q687.444 1324.93 686.728 1325.13 Q686.036 1325.33 685.023 1325.9 Q684.011 1326.46 683.22 1327.87 Q682.454 1329.28 682.084 1331.41 Q681.688 1334.15 681.688 1340.72 Z" fill="#000000" fill-rule="nonzero" fill-opacity="1" /><path clip-path="url(#clip220)" d="M725.92 1319.25 Q726.161 1319.49 726.161 1319.83 Q726.161 1320.17 725.92 1320.41 Q725.679 1320.65 725.338 1320.65 L699.606 1320.65 Q699.265 1320.65 699.024 1320.41 Q698.783 1320.17 698.783 1319.83 Q698.783 1319.49 699.024 1319.25 Q699.265 1319.01 699.606 1319.01 L725.338 1319.01 Q725.679 1319.01 725.92 1319.25 Z" fill="#000000" fill-rule="nonzero" fill-opacity="1" /><path clip-path="url(#clip220)" d="M732.102 1306.64 L732.102 1305.36 Q737.039 1305.36 739.588 1302.73 Q740.291 1302.73 740.411 1302.89 Q740.532 1303.05 740.532 1303.79 L740.532 1326.85 Q740.532 1328.08 741.134 1328.46 Q741.736 1328.84 744.365 1328.84 L745.67 1328.84 L745.67 1330.11 Q744.225 1329.99 739.006 1329.99 Q733.788 1329.99 732.363 1330.11 L732.363 1328.84 L733.667 1328.84 Q736.257 1328.84 736.879 1328.48 Q737.501 1328.1 737.501 1326.85 L737.501 1305.56 Q735.353 1306.64 732.102 1306.64 Z" fill="#000000" fill-rule="nonzero" fill-opacity="1" /><path clip-path="url(#clip220)" d="M751.049 1330.11 Q751.049 1329.36 751.11 1329.14 Q751.19 1328.92 751.511 1328.58 L759.399 1319.79 Q763.714 1314.93 763.714 1310.7 Q763.714 1307.95 762.269 1305.98 Q760.844 1304.01 758.215 1304.01 Q756.408 1304.01 754.883 1305.12 Q753.358 1306.22 752.655 1308.19 Q752.775 1308.15 753.197 1308.15 Q754.221 1308.15 754.783 1308.79 Q755.365 1309.43 755.365 1310.3 Q755.365 1311.4 754.642 1311.94 Q753.94 1312.46 753.237 1312.46 Q752.956 1312.46 752.575 1312.4 Q752.213 1312.34 751.631 1311.78 Q751.049 1311.2 751.049 1310.18 Q751.049 1307.3 753.217 1305.02 Q755.405 1302.73 758.737 1302.73 Q762.51 1302.73 764.979 1304.98 Q767.468 1307.2 767.468 1310.7 Q767.468 1311.92 767.086 1313.05 Q766.725 1314.15 766.223 1315.01 Q765.742 1315.88 764.417 1317.26 Q763.092 1318.65 762.028 1319.63 Q760.965 1320.61 758.576 1322.7 L754.221 1326.93 L761.627 1326.93 Q765.24 1326.93 765.521 1326.61 Q765.922 1326.03 766.424 1322.96 L767.468 1322.96 L766.304 1330.11 L751.049 1330.11 Z" fill="#000000" fill-rule="nonzero" fill-opacity="1" /><path clip-path="url(#clip220)" d="M958.745 1328.64 L958.745 1327.06 Q964.823 1327.06 967.96 1323.82 Q968.824 1323.82 968.973 1324.02 Q969.121 1324.22 969.121 1325.13 L969.121 1353.51 Q969.121 1355.02 969.862 1355.49 Q970.603 1355.96 973.839 1355.96 L975.445 1355.96 L975.445 1357.52 Q973.666 1357.37 967.243 1357.37 Q960.821 1357.37 959.067 1357.52 L959.067 1355.96 L960.672 1355.96 Q963.859 1355.96 964.625 1355.52 Q965.391 1355.05 965.391 1353.51 L965.391 1327.3 Q962.747 1328.64 958.745 1328.64 Z" fill="#000000" fill-rule="nonzero" fill-opacity="1" /><path clip-path="url(#clip220)" d="M981.522 1341.34 Q981.522 1333.9 983.399 1329.85 Q986.018 1323.82 992.194 1323.82 Q993.503 1323.82 994.862 1324.19 Q996.245 1324.54 997.974 1325.9 Q999.728 1327.25 1000.79 1329.48 Q1002.82 1333.78 1002.82 1341.34 Q1002.82 1348.72 1000.94 1352.75 Q998.197 1358.63 992.144 1358.63 Q989.872 1358.63 987.55 1357.47 Q985.252 1356.31 983.795 1353.51 Q981.522 1349.34 981.522 1341.34 M985.722 1340.72 Q985.722 1348.35 986.265 1351.39 Q986.883 1354.68 988.562 1356.11 Q990.267 1357.52 992.144 1357.52 Q994.17 1357.52 995.85 1356.01 Q997.554 1354.48 998.073 1351.19 Q998.641 1347.96 998.617 1340.72 Q998.617 1333.68 998.123 1330.86 Q997.456 1327.58 995.677 1326.27 Q993.923 1324.93 992.144 1324.93 Q991.477 1324.93 990.761 1325.13 Q990.069 1325.33 989.057 1325.9 Q988.044 1326.46 987.253 1327.87 Q986.487 1329.28 986.117 1331.41 Q985.722 1334.15 985.722 1340.72 Z" fill="#000000" fill-rule="nonzero" fill-opacity="1" /><path clip-path="url(#clip220)" d="M1029.95 1319.25 Q1030.19 1319.49 1030.19 1319.83 Q1030.19 1320.17 1029.95 1320.41 Q1029.71 1320.65 1029.37 1320.65 L1003.64 1320.65 Q1003.3 1320.65 1003.06 1320.41 Q1002.82 1320.17 1002.82 1319.83 Q1002.82 1319.49 1003.06 1319.25 Q1003.3 1319.01 1003.64 1319.01 L1029.37 1319.01 Q1029.71 1319.01 1029.95 1319.25 Z" fill="#000000" fill-rule="nonzero" fill-opacity="1" /><path clip-path="url(#clip220)" d="M1036.13 1306.64 L1036.13 1305.36 Q1041.07 1305.36 1043.62 1302.73 Q1044.32 1302.73 1044.44 1302.89 Q1044.56 1303.05 1044.56 1303.79 L1044.56 1326.85 Q1044.56 1328.08 1045.17 1328.46 Q1045.77 1328.84 1048.4 1328.84 L1049.7 1328.84 L1049.7 1330.11 Q1048.26 1329.99 1043.04 1329.99 Q1037.82 1329.99 1036.4 1330.11 L1036.4 1328.84 L1037.7 1328.84 Q1040.29 1328.84 1040.91 1328.48 Q1041.53 1328.1 1041.53 1326.85 L1041.53 1305.56 Q1039.39 1306.64 1036.13 1306.64 Z" fill="#000000" fill-rule="nonzero" fill-opacity="1" /><path clip-path="url(#clip220)" d="M1056.69 1306.64 L1056.69 1305.36 Q1061.63 1305.36 1064.17 1302.73 Q1064.88 1302.73 1065 1302.89 Q1065.12 1303.05 1065.12 1303.79 L1065.12 1326.85 Q1065.12 1328.08 1065.72 1328.46 Q1066.32 1328.84 1068.95 1328.84 L1070.26 1328.84 L1070.26 1330.11 Q1068.81 1329.99 1063.59 1329.99 Q1058.37 1329.99 1056.95 1330.11 L1056.95 1328.84 L1058.25 1328.84 Q1060.84 1328.84 1061.47 1328.48 Q1062.09 1328.1 1062.09 1326.85 L1062.09 1305.56 Q1059.94 1306.64 1056.69 1306.64 Z" fill="#000000" fill-rule="nonzero" fill-opacity="1" /><path clip-path="url(#clip220)" d="M1261.31 1328.64 L1261.31 1327.06 Q1267.39 1327.06 1270.53 1323.82 Q1271.39 1323.82 1271.54 1324.02 Q1271.69 1324.22 1271.69 1325.13 L1271.69 1353.51 Q1271.69 1355.02 1272.43 1355.49 Q1273.17 1355.96 1276.41 1355.96 L1278.01 1355.96 L1278.01 1357.52 Q1276.23 1357.37 1269.81 1357.37 Q1263.39 1357.37 1261.63 1357.52 L1261.63 1355.96 L1263.24 1355.96 Q1266.43 1355.96 1267.19 1355.52 Q1267.96 1355.05 1267.96 1353.51 L1267.96 1327.3 Q1265.32 1328.64 1261.31 1328.64 Z" fill="#000000" fill-rule="nonzero" fill-opacity="1" /><path clip-path="url(#clip220)" d="M1284.09 1341.34 Q1284.09 1333.9 1285.97 1329.85 Q1288.59 1323.82 1294.76 1323.82 Q1296.07 1323.82 1297.43 1324.19 Q1298.81 1324.54 1300.54 1325.9 Q1302.3 1327.25 1303.36 1329.48 Q1305.38 1333.78 1305.38 1341.34 Q1305.38 1348.72 1303.51 1352.75 Q1300.76 1358.63 1294.71 1358.63 Q1292.44 1358.63 1290.12 1357.47 Q1287.82 1356.31 1286.36 1353.51 Q1284.09 1349.34 1284.09 1341.34 M1288.29 1340.72 Q1288.29 1348.35 1288.83 1351.39 Q1289.45 1354.68 1291.13 1356.11 Q1292.83 1357.52 1294.71 1357.52 Q1296.74 1357.52 1298.42 1356.01 Q1300.12 1354.48 1300.64 1351.19 Q1301.21 1347.96 1301.18 1340.72 Q1301.18 1333.68 1300.69 1330.86 Q1300.02 1327.58 1298.24 1326.27 Q1296.49 1324.93 1294.71 1324.93 Q1294.05 1324.93 1293.33 1325.13 Q1292.64 1325.33 1291.62 1325.9 Q1290.61 1326.46 1289.82 1327.87 Q1289.06 1329.28 1288.68 1331.41 Q1288.29 1334.15 1288.29 1340.72 Z" fill="#000000" fill-rule="nonzero" fill-opacity="1" /><path clip-path="url(#clip220)" d="M1332.52 1319.25 Q1332.76 1319.49 1332.76 1319.83 Q1332.76 1320.17 1332.52 1320.41 Q1332.28 1320.65 1331.94 1320.65 L1306.21 1320.65 Q1305.87 1320.65 1305.63 1320.41 Q1305.38 1320.17 1305.38 1319.83 Q1305.38 1319.49 1305.63 1319.25 Q1305.87 1319.01 1306.21 1319.01 L1331.94 1319.01 Q1332.28 1319.01 1332.52 1319.25 Z" fill="#000000" fill-rule="nonzero" fill-opacity="1" /><path clip-path="url(#clip220)" d="M1338.7 1306.64 L1338.7 1305.36 Q1343.64 1305.36 1346.19 1302.73 Q1346.89 1302.73 1347.01 1302.89 Q1347.13 1303.05 1347.13 1303.79 L1347.13 1326.85 Q1347.13 1328.08 1347.73 1328.46 Q1348.34 1328.84 1350.97 1328.84 L1352.27 1328.84 L1352.27 1330.11 Q1350.83 1329.99 1345.61 1329.99 Q1340.39 1329.99 1338.96 1330.11 L1338.96 1328.84 L1340.27 1328.84 Q1342.86 1328.84 1343.48 1328.48 Q1344.1 1328.1 1344.1 1326.85 L1344.1 1305.56 Q1341.95 1306.64 1338.7 1306.64 Z" fill="#000000" fill-rule="nonzero" fill-opacity="1" /><path clip-path="url(#clip220)" d="M1357.21 1316.96 Q1357.21 1310.92 1358.73 1307.63 Q1360.86 1302.73 1365.88 1302.73 Q1366.94 1302.73 1368.05 1303.03 Q1369.17 1303.31 1370.58 1304.41 Q1372 1305.52 1372.86 1307.32 Q1374.51 1310.82 1374.51 1316.96 Q1374.51 1322.96 1372.98 1326.23 Q1370.76 1331.01 1365.84 1331.01 Q1363.99 1331.01 1362.11 1330.07 Q1360.24 1329.12 1359.06 1326.85 Q1357.21 1323.46 1357.21 1316.96 M1360.62 1316.46 Q1360.62 1322.66 1361.06 1325.13 Q1361.56 1327.8 1362.93 1328.96 Q1364.31 1330.11 1365.84 1330.11 Q1367.49 1330.11 1368.85 1328.88 Q1370.24 1327.64 1370.66 1324.97 Q1371.12 1322.34 1371.1 1316.46 Q1371.1 1310.74 1370.7 1308.45 Q1370.15 1305.78 1368.71 1304.72 Q1367.28 1303.63 1365.84 1303.63 Q1365.3 1303.63 1364.72 1303.79 Q1364.15 1303.95 1363.33 1304.41 Q1362.51 1304.88 1361.87 1306.02 Q1361.24 1307.16 1360.94 1308.89 Q1360.62 1311.12 1360.62 1316.46 Z" fill="#000000" fill-rule="nonzero" fill-opacity="1" /><path clip-path="url(#clip220)" d="M1575.06 1328.64 L1575.06 1327.06 Q1581.14 1327.06 1584.28 1323.82 Q1585.14 1323.82 1585.29 1324.02 Q1585.44 1324.22 1585.44 1325.13 L1585.44 1353.51 Q1585.44 1355.02 1586.18 1355.49 Q1586.92 1355.96 1590.15 1355.96 L1591.76 1355.96 L1591.76 1357.52 Q1589.98 1357.37 1583.56 1357.37 Q1577.14 1357.37 1575.38 1357.52 L1575.38 1355.96 L1576.99 1355.96 Q1580.17 1355.96 1580.94 1355.52 Q1581.71 1355.05 1581.71 1353.51 L1581.71 1327.3 Q1579.06 1328.64 1575.06 1328.64 Z" fill="#000000" fill-rule="nonzero" fill-opacity="1" /><path clip-path="url(#clip220)" d="M1597.84 1341.34 Q1597.84 1333.9 1599.72 1329.85 Q1602.33 1323.82 1608.51 1323.82 Q1609.82 1323.82 1611.18 1324.19 Q1612.56 1324.54 1614.29 1325.9 Q1616.04 1327.25 1617.11 1329.48 Q1619.13 1333.78 1619.13 1341.34 Q1619.13 1348.72 1617.25 1352.75 Q1614.51 1358.63 1608.46 1358.63 Q1606.19 1358.63 1603.87 1357.47 Q1601.57 1356.31 1600.11 1353.51 Q1597.84 1349.34 1597.84 1341.34 M1602.04 1340.72 Q1602.04 1348.35 1602.58 1351.39 Q1603.2 1354.68 1604.88 1356.11 Q1606.58 1357.52 1608.46 1357.52 Q1610.49 1357.52 1612.17 1356.01 Q1613.87 1354.48 1614.39 1351.19 Q1614.96 1347.96 1614.93 1340.72 Q1614.93 1333.68 1614.44 1330.86 Q1613.77 1327.58 1611.99 1326.27 Q1610.24 1324.93 1608.46 1324.93 Q1607.79 1324.93 1607.08 1325.13 Q1606.38 1325.33 1605.37 1325.9 Q1604.36 1326.46 1603.57 1327.87 Q1602.8 1329.28 1602.43 1331.41 Q1602.04 1334.15 1602.04 1340.72 Z" fill="#000000" fill-rule="nonzero" fill-opacity="1" /><path clip-path="url(#clip220)" d="M1646.27 1319.25 Q1646.51 1319.49 1646.51 1319.83 Q1646.51 1320.17 1646.27 1320.41 Q1646.03 1320.65 1645.69 1320.65 L1619.95 1320.65 Q1619.61 1320.65 1619.37 1320.41 Q1619.13 1320.17 1619.13 1319.83 Q1619.13 1319.49 1619.37 1319.25 Q1619.61 1319.01 1619.95 1319.01 L1645.69 1319.01 Q1646.03 1319.01 1646.27 1319.25 Z" fill="#000000" fill-rule="nonzero" fill-opacity="1" /><path clip-path="url(#clip220)" d="M1650.52 1311.98 Q1650.52 1309.79 1651.17 1308.31 Q1651.81 1306.8 1653.15 1305.32 Q1655.62 1302.73 1659.19 1302.73 Q1660.72 1302.73 1662.06 1303.37 Q1663.43 1304.01 1664.71 1305.48 Q1666.02 1306.92 1666.8 1309.79 Q1667.58 1312.64 1667.58 1316.58 Q1667.58 1322.94 1664.49 1326.97 Q1661.42 1331.01 1657.27 1331.01 Q1654.64 1331.01 1653.09 1329.83 Q1651.55 1328.62 1651.55 1326.57 Q1651.55 1325.51 1652.15 1325.07 Q1652.75 1324.61 1653.43 1324.61 Q1654.18 1324.61 1654.76 1325.11 Q1655.34 1325.59 1655.34 1326.49 Q1655.34 1327.24 1654.86 1327.82 Q1654.4 1328.38 1653.19 1328.38 Q1654.38 1329.87 1657.23 1329.87 Q1658.25 1329.87 1659.27 1329.4 Q1660.3 1328.92 1661.4 1327.78 Q1662.53 1326.61 1663.21 1324.19 Q1663.89 1321.76 1663.89 1318.34 L1663.89 1317.04 Q1662.25 1321.15 1658.75 1321.15 Q1655.3 1321.15 1652.91 1318.5 Q1650.52 1315.86 1650.52 1311.98 M1654.22 1312.02 Q1654.22 1316.1 1654.96 1317.6 Q1656.22 1320.19 1658.79 1320.19 Q1661.3 1320.19 1662.55 1317.96 Q1663.81 1315.71 1663.81 1312.8 Q1663.81 1308.77 1663.15 1307 Q1661.92 1303.75 1659.19 1303.75 Q1656.48 1303.75 1655.08 1306.34 Q1654.22 1307.87 1654.22 1312.02 Z" fill="#000000" fill-rule="nonzero" fill-opacity="1" /><path clip-path="url(#clip220)" d="M951.856 1447.26 L951.856 1444.92 L953.672 1444.92 Q957.785 1444.92 958.712 1444.26 Q959.675 1443.55 959.675 1441.33 L959.675 1401.57 Q959.675 1399.38 958.712 1398.72 Q957.748 1398.01 953.672 1398.01 L951.856 1398.01 L951.856 1395.64 L994.581 1395.64 L996.693 1412.72 L994.803 1412.72 Q994.284 1408.39 993.58 1405.9 Q992.913 1403.38 991.246 1401.46 Q989.616 1399.53 986.91 1398.79 Q984.243 1398.01 979.907 1398.01 L970.125 1398.01 Q967.531 1398.01 966.975 1398.57 Q966.419 1399.09 966.419 1401.05 L966.419 1419.24 L973.237 1419.24 Q978.462 1419.24 979.944 1417.43 Q981.426 1415.61 981.426 1410.39 L983.353 1410.39 L983.353 1430.47 L981.426 1430.47 Q981.426 1425.32 979.944 1423.47 Q978.462 1421.62 973.237 1421.62 L966.419 1421.62 L966.419 1441.88 Q966.419 1443.85 966.975 1444.4 Q967.568 1444.92 970.125 1444.92 L980.241 1444.92 Q983.501 1444.92 985.873 1444.52 Q988.282 1444.07 989.949 1443.03 Q991.616 1441.96 992.728 1440.74 Q993.877 1439.51 994.655 1437.33 Q995.47 1435.1 995.915 1433.07 Q996.397 1431.03 996.915 1427.69 L998.805 1427.69 L995.618 1447.26 L951.856 1447.26 Z" fill="#000000" fill-rule="nonzero" fill-opacity="1" /><path clip-path="url(#clip220)" d="M1003.03 1447.26 L1003.03 1444.92 Q1007.07 1444.92 1007.99 1444.44 Q1008.96 1443.92 1008.96 1441.48 L1008.96 1421.13 Q1008.96 1418.32 1007.96 1417.61 Q1006.99 1416.91 1003.03 1416.91 L1003.03 1414.54 L1013.59 1413.72 L1013.59 1422.06 Q1014.66 1418.8 1016.93 1416.28 Q1019.22 1413.72 1022.93 1413.72 Q1025.37 1413.72 1026.93 1415.09 Q1028.52 1416.46 1028.52 1418.35 Q1028.52 1420.02 1027.49 1420.87 Q1026.49 1421.69 1025.26 1421.69 Q1023.89 1421.69 1022.93 1420.84 Q1022 1419.95 1022 1418.43 Q1022 1417.5 1022.41 1416.8 Q1022.85 1416.06 1023.19 1415.8 Q1023.52 1415.54 1023.74 1415.46 Q1023.59 1415.39 1022.93 1415.39 Q1018.74 1415.39 1016.33 1419.58 Q1013.96 1423.73 1013.96 1429.66 L1013.96 1441.33 Q1013.96 1443.51 1014.85 1444.22 Q1015.78 1444.92 1019.74 1444.92 L1021.33 1444.92 L1021.33 1447.26 Q1018.3 1447.03 1011.7 1447.03 Q1010.77 1447.03 1009.33 1447.07 Q1007.88 1447.11 1005.99 1447.18 Q1004.1 1447.26 1003.03 1447.26 Z" fill="#000000" fill-rule="nonzero" fill-opacity="1" /><path clip-path="url(#clip220)" d="M1032.67 1447.26 L1032.67 1444.92 Q1036.71 1444.92 1037.64 1444.44 Q1038.6 1443.92 1038.6 1441.48 L1038.6 1421.13 Q1038.6 1418.32 1037.6 1417.61 Q1036.64 1416.91 1032.67 1416.91 L1032.67 1414.54 L1043.23 1413.72 L1043.23 1422.06 Q1044.31 1418.8 1046.57 1416.28 Q1048.87 1413.72 1052.57 1413.72 Q1055.02 1413.72 1056.57 1415.09 Q1058.17 1416.46 1058.17 1418.35 Q1058.17 1420.02 1057.13 1420.87 Q1056.13 1421.69 1054.91 1421.69 Q1053.54 1421.69 1052.57 1420.84 Q1051.65 1419.95 1051.65 1418.43 Q1051.65 1417.5 1052.05 1416.8 Q1052.5 1416.06 1052.83 1415.8 Q1053.16 1415.54 1053.39 1415.46 Q1053.24 1415.39 1052.57 1415.39 Q1048.38 1415.39 1045.98 1419.58 Q1043.6 1423.73 1043.6 1429.66 L1043.6 1441.33 Q1043.6 1443.51 1044.49 1444.22 Q1045.42 1444.92 1049.39 1444.92 L1050.98 1444.92 L1050.98 1447.26 Q1047.94 1447.03 1041.34 1447.03 Q1040.42 1447.03 1038.97 1447.07 Q1037.53 1447.11 1035.64 1447.18 Q1033.75 1447.26 1032.67 1447.26 Z" fill="#000000" fill-rule="nonzero" fill-opacity="1" /><path clip-path="url(#clip220)" d="M1067.32 1443.18 Q1062.32 1438.22 1062.32 1431.03 Q1062.32 1423.8 1067.21 1418.54 Q1072.14 1413.24 1079.18 1413.24 Q1086.07 1413.24 1091 1418.5 Q1095.96 1423.73 1095.96 1431.03 Q1095.96 1438.18 1090.96 1443.14 Q1086 1448.11 1079.1 1448.11 Q1072.36 1448.11 1067.32 1443.18 M1068.62 1430.4 Q1068.62 1437.77 1070.54 1441.11 Q1073.51 1446.18 1079.18 1446.18 Q1081.99 1446.18 1084.33 1444.66 Q1086.7 1443.14 1088 1440.59 Q1089.66 1437.25 1089.66 1430.4 Q1089.66 1423.1 1087.66 1419.87 Q1084.7 1414.95 1079.1 1414.95 Q1076.66 1414.95 1074.25 1416.24 Q1071.88 1417.5 1070.43 1420.02 Q1068.62 1423.36 1068.62 1430.4 Z" fill="#000000" fill-rule="nonzero" fill-opacity="1" /><path clip-path="url(#clip220)" d="M1100.26 1447.26 L1100.26 1444.92 Q1104.3 1444.92 1105.23 1444.44 Q1106.19 1443.92 1106.19 1441.48 L1106.19 1421.13 Q1106.19 1418.32 1105.19 1417.61 Q1104.23 1416.91 1100.26 1416.91 L1100.26 1414.54 L1110.82 1413.72 L1110.82 1422.06 Q1111.9 1418.8 1114.16 1416.28 Q1116.45 1413.72 1120.16 1413.72 Q1122.61 1413.72 1124.16 1415.09 Q1125.76 1416.46 1125.76 1418.35 Q1125.76 1420.02 1124.72 1420.87 Q1123.72 1421.69 1122.49 1421.69 Q1121.12 1421.69 1120.16 1420.84 Q1119.23 1419.95 1119.23 1418.43 Q1119.23 1417.5 1119.64 1416.8 Q1120.09 1416.06 1120.42 1415.8 Q1120.75 1415.54 1120.98 1415.46 Q1120.83 1415.39 1120.16 1415.39 Q1115.97 1415.39 1113.56 1419.58 Q1111.19 1423.73 1111.19 1429.66 L1111.19 1441.33 Q1111.19 1443.51 1112.08 1444.22 Q1113.01 1444.92 1116.97 1444.92 L1118.57 1444.92 L1118.57 1447.26 Q1115.53 1447.03 1108.93 1447.03 Q1108.01 1447.03 1106.56 1447.07 Q1105.12 1447.11 1103.23 1447.18 Q1101.34 1447.26 1100.26 1447.26 Z" fill="#000000" fill-rule="nonzero" fill-opacity="1" /><polyline clip-path="url(#clip222)" style="stroke:#000000; stroke-linecap:round; stroke-linejoin:round; stroke-width:2.8; stroke-opacity:0.4; fill:none" points="245.822,1134.36 1831.79,1134.36 "/>
<polyline clip-path="url(#clip222)" style="stroke:#000000; stroke-linecap:round; stroke-linejoin:round; stroke-width:2.8; stroke-opacity:0.4; fill:none" points="245.822,391.49 1831.79,391.49 "/>
<polyline clip-path="url(#clip222)" style="stroke:#000000; stroke-linecap:round; stroke-linejoin:round; stroke-width:2; stroke-opacity:0.06; fill:none" points="245.822,1278.35 1831.79,1278.35 "/>
<polyline clip-path="url(#clip222)" style="stroke:#000000; stroke-linecap:round; stroke-linejoin:round; stroke-width:2; stroke-opacity:0.06; fill:none" points="245.822,1198.39 1831.79,1198.39 "/>
<polyline clip-path="url(#clip222)" style="stroke:#000000; stroke-linecap:round; stroke-linejoin:round; stroke-width:2; stroke-opacity:0.06; fill:none" points="245.822,802.181 1831.79,802.181 "/>
<polyline clip-path="url(#clip222)" style="stroke:#000000; stroke-linecap:round; stroke-linejoin:round; stroke-width:2; stroke-opacity:0.06; fill:none" points="245.822,642.018 1831.79,642.018 "/>
<polyline clip-path="url(#clip222)" style="stroke:#000000; stroke-linecap:round; stroke-linejoin:round; stroke-width:2; stroke-opacity:0.06; fill:none" points="245.822,535.474 1831.79,535.474 "/>
<polyline clip-path="url(#clip222)" style="stroke:#000000; stroke-linecap:round; stroke-linejoin:round; stroke-width:2; stroke-opacity:0.06; fill:none" points="245.822,455.515 1831.79,455.515 "/>
<polyline clip-path="url(#clip222)" style="stroke:#000000; stroke-linecap:round; stroke-linejoin:round; stroke-width:2; stroke-opacity:0.06; fill:none" points="245.822,59.3086 1831.79,59.3086 "/>
<polyline clip-path="url(#clip220)" style="stroke:#000000; stroke-linecap:round; stroke-linejoin:round; stroke-width:4; stroke-opacity:1; fill:none" points="245.822,1280.22 245.822,47.2441 "/>
<polyline clip-path="url(#clip220)" style="stroke:#000000; stroke-linecap:round; stroke-linejoin:round; stroke-width:4; stroke-opacity:1; fill:none" points="1831.79,1280.22 1831.79,47.2441 "/>
<polyline clip-path="url(#clip220)" style="stroke:#000000; stroke-linecap:round; stroke-linejoin:round; stroke-width:4; stroke-opacity:1; fill:none" points="245.822,1134.36 260.726,1134.36 "/>
<polyline clip-path="url(#clip220)" style="stroke:#000000; stroke-linecap:round; stroke-linejoin:round; stroke-width:4; stroke-opacity:1; fill:none" points="245.822,391.49 260.726,391.49 "/>
<polyline clip-path="url(#clip220)" style="stroke:#000000; stroke-linecap:round; stroke-linejoin:round; stroke-width:4; stroke-opacity:1; fill:none" points="245.822,1278.35 253.274,1278.35 "/>
<polyline clip-path="url(#clip220)" style="stroke:#000000; stroke-linecap:round; stroke-linejoin:round; stroke-width:4; stroke-opacity:1; fill:none" points="245.822,1198.39 253.274,1198.39 "/>
<polyline clip-path="url(#clip220)" style="stroke:#000000; stroke-linecap:round; stroke-linejoin:round; stroke-width:4; stroke-opacity:1; fill:none" points="245.822,802.181 253.274,802.181 "/>
<polyline clip-path="url(#clip220)" style="stroke:#000000; stroke-linecap:round; stroke-linejoin:round; stroke-width:4; stroke-opacity:1; fill:none" points="245.822,642.018 253.274,642.018 "/>
<polyline clip-path="url(#clip220)" style="stroke:#000000; stroke-linecap:round; stroke-linejoin:round; stroke-width:4; stroke-opacity:1; fill:none" points="245.822,535.474 253.274,535.474 "/>
<polyline clip-path="url(#clip220)" style="stroke:#000000; stroke-linecap:round; stroke-linejoin:round; stroke-width:4; stroke-opacity:1; fill:none" points="245.822,455.515 253.274,455.515 "/>
<polyline clip-path="url(#clip220)" style="stroke:#000000; stroke-linecap:round; stroke-linejoin:round; stroke-width:4; stroke-opacity:1; fill:none" points="245.822,59.3086 253.274,59.3086 "/>
<path clip-path="url(#clip220)" d="M119.06 1129.21 L119.06 1127.63 Q125.137 1127.63 128.275 1124.39 Q129.139 1124.39 129.287 1124.59 Q129.436 1124.79 129.436 1125.7 L129.436 1154.09 Q129.436 1155.59 130.177 1156.06 Q130.918 1156.53 134.154 1156.53 L135.76 1156.53 L135.76 1158.09 Q133.981 1157.94 127.558 1157.94 Q121.135 1157.94 119.381 1158.09 L119.381 1156.53 L120.987 1156.53 Q124.174 1156.53 124.94 1156.09 Q125.705 1155.62 125.705 1154.09 L125.705 1127.88 Q123.062 1129.21 119.06 1129.21 Z" fill="#000000" fill-rule="nonzero" fill-opacity="1" /><path clip-path="url(#clip220)" d="M141.837 1141.91 Q141.837 1134.47 143.714 1130.42 Q146.333 1124.39 152.509 1124.39 Q153.818 1124.39 155.176 1124.77 Q156.56 1125.11 158.289 1126.47 Q160.043 1127.83 161.105 1130.05 Q163.131 1134.35 163.131 1141.91 Q163.131 1149.3 161.253 1153.32 Q158.511 1159.2 152.459 1159.2 Q150.186 1159.2 147.864 1158.04 Q145.567 1156.88 144.109 1154.09 Q141.837 1149.91 141.837 1141.91 M146.036 1141.29 Q146.036 1148.93 146.58 1151.96 Q147.197 1155.25 148.877 1156.68 Q150.582 1158.09 152.459 1158.09 Q154.485 1158.09 156.165 1156.58 Q157.869 1155.05 158.388 1151.77 Q158.956 1148.53 158.931 1141.29 Q158.931 1134.25 158.437 1131.44 Q157.77 1128.15 155.992 1126.84 Q154.238 1125.51 152.459 1125.51 Q151.792 1125.51 151.076 1125.7 Q150.384 1125.9 149.371 1126.47 Q148.358 1127.04 147.568 1128.45 Q146.802 1129.85 146.431 1131.98 Q146.036 1134.72 146.036 1141.29 Z" fill="#000000" fill-rule="nonzero" fill-opacity="1" /><path clip-path="url(#clip220)" d="M190.268 1119.82 Q190.508 1120.06 190.508 1120.4 Q190.508 1120.74 190.268 1120.99 Q190.027 1121.23 189.686 1121.23 L163.954 1121.23 Q163.613 1121.23 163.372 1120.99 Q163.131 1120.74 163.131 1120.4 Q163.131 1120.06 163.372 1119.82 Q163.613 1119.58 163.954 1119.58 L189.686 1119.58 Q190.027 1119.58 190.268 1119.82 Z" fill="#000000" fill-rule="nonzero" fill-opacity="1" /><path clip-path="url(#clip220)" d="M194.844 1130.68 Q194.844 1129.94 194.904 1129.72 Q194.984 1129.5 195.306 1129.15 L203.194 1120.36 Q207.509 1115.51 207.509 1111.27 Q207.509 1108.52 206.064 1106.55 Q204.639 1104.59 202.009 1104.59 Q200.203 1104.59 198.678 1105.69 Q197.152 1106.79 196.45 1108.76 Q196.57 1108.72 196.992 1108.72 Q198.015 1108.72 198.577 1109.36 Q199.159 1110.01 199.159 1110.87 Q199.159 1111.97 198.437 1112.51 Q197.734 1113.04 197.032 1113.04 Q196.751 1113.04 196.369 1112.98 Q196.008 1112.92 195.426 1112.35 Q194.844 1111.77 194.844 1110.75 Q194.844 1107.88 197.012 1105.59 Q199.199 1103.3 202.531 1103.3 Q206.305 1103.3 208.773 1105.55 Q211.262 1107.78 211.262 1111.27 Q211.262 1112.49 210.881 1113.62 Q210.52 1114.72 210.018 1115.59 Q209.536 1116.45 208.211 1117.83 Q206.887 1119.22 205.823 1120.2 Q204.759 1121.19 202.371 1123.27 L198.015 1127.51 L205.422 1127.51 Q209.034 1127.51 209.315 1127.19 Q209.717 1126.61 210.219 1123.53 L211.262 1123.53 L210.098 1130.68 L194.844 1130.68 Z" fill="#000000" fill-rule="nonzero" fill-opacity="1" /><path clip-path="url(#clip220)" d="M120.305 386.339 L120.305 384.758 Q126.382 384.758 129.519 381.522 Q130.384 381.522 130.532 381.72 Q130.68 381.917 130.68 382.831 L130.68 411.216 Q130.68 412.723 131.421 413.192 Q132.162 413.661 135.398 413.661 L137.004 413.661 L137.004 415.218 Q135.225 415.069 128.803 415.069 Q122.38 415.069 120.626 415.218 L120.626 413.661 L122.231 413.661 Q125.418 413.661 126.184 413.217 Q126.95 412.747 126.95 411.216 L126.95 385.005 Q124.307 386.339 120.305 386.339 Z" fill="#000000" fill-rule="nonzero" fill-opacity="1" /><path clip-path="url(#clip220)" d="M143.081 399.037 Q143.081 391.601 144.959 387.55 Q147.577 381.522 153.753 381.522 Q155.062 381.522 156.421 381.893 Q157.804 382.239 159.534 383.597 Q161.287 384.956 162.35 387.179 Q164.375 391.478 164.375 399.037 Q164.375 406.423 162.498 410.45 Q159.756 416.329 153.704 416.329 Q151.431 416.329 149.109 415.168 Q146.811 414.007 145.354 411.216 Q143.081 407.041 143.081 399.037 M147.281 398.419 Q147.281 406.053 147.824 409.091 Q148.442 412.377 150.122 413.809 Q151.826 415.218 153.704 415.218 Q155.729 415.218 157.409 413.711 Q159.114 412.179 159.632 408.894 Q160.201 405.657 160.176 398.419 Q160.176 391.379 159.682 388.563 Q159.015 385.277 157.236 383.968 Q155.482 382.634 153.704 382.634 Q153.037 382.634 152.32 382.831 Q151.628 383.029 150.616 383.597 Q149.603 384.165 148.812 385.574 Q148.046 386.982 147.676 389.106 Q147.281 391.848 147.281 398.419 Z" fill="#000000" fill-rule="nonzero" fill-opacity="1" /><path clip-path="url(#clip220)" d="M191.512 376.949 Q191.753 377.189 191.753 377.531 Q191.753 377.872 191.512 378.113 Q191.271 378.354 190.93 378.354 L165.198 378.354 Q164.857 378.354 164.616 378.113 Q164.375 377.872 164.375 377.531 Q164.375 377.189 164.616 376.949 Q164.857 376.708 165.198 376.708 L190.93 376.708 Q191.271 376.708 191.512 376.949 Z" fill="#000000" fill-rule="nonzero" fill-opacity="1" /><path clip-path="url(#clip220)" d="M197.694 364.344 L197.694 363.059 Q202.632 363.059 205.181 360.43 Q205.883 360.43 206.004 360.59 Q206.124 360.751 206.124 361.493 L206.124 384.556 Q206.124 385.78 206.726 386.161 Q207.328 386.543 209.958 386.543 L211.262 386.543 L211.262 387.807 Q209.817 387.687 204.599 387.687 Q199.38 387.687 197.955 387.807 L197.955 386.543 L199.26 386.543 Q201.849 386.543 202.471 386.181 Q203.093 385.8 203.093 384.556 L203.093 363.26 Q200.946 364.344 197.694 364.344 Z" fill="#000000" fill-rule="nonzero" fill-opacity="1" /><path clip-path="url(#clip220)" d="M34.6352 801.913 L17.5899 800.467 L17.5899 754.112 L34.6352 752.666 L34.6352 754.556 Q31.2261 754.853 29.2622 755.149 Q27.2983 755.408 25.4455 756.075 Q23.5557 756.705 22.6664 757.521 Q21.74 758.299 21.036 759.818 Q20.2949 761.337 20.1096 763.301 Q19.9243 765.265 19.9243 768.23 Q19.9243 771.713 20.0726 772.565 Q20.2949 773.491 20.9619 773.714 Q21.5918 773.936 22.9629 773.936 L62.9452 773.936 Q64.4645 773.936 65.0944 773.64 Q65.6873 773.306 66.169 771.564 Q66.6137 769.823 66.6137 765.969 L66.6137 762.931 L68.9482 762.931 Q68.7258 766.043 68.7258 777.345 Q68.7258 788.573 68.9482 791.685 L66.6137 791.685 L66.6137 788.647 Q66.6137 784.793 66.169 783.052 Q65.6873 781.273 65.0944 780.976 Q64.4645 780.68 62.9452 780.68 L22.9629 780.68 Q21.8883 780.68 21.4436 780.754 Q20.9989 780.828 20.6284 781.162 Q20.2208 781.495 20.0726 782.273 Q19.9243 783.014 19.9243 786.349 Q19.9243 789.314 20.1096 791.315 Q20.2949 793.279 21.036 794.798 Q21.74 796.317 22.6664 797.132 Q23.5557 797.911 25.4455 798.578 Q27.2983 799.208 29.2622 799.467 Q31.2261 799.726 34.6352 800.023 L34.6352 801.913 Z" fill="#000000" fill-rule="nonzero" fill-opacity="1" /><path clip-path="url(#clip220)" d="M68.9482 747.368 L66.6137 747.368 Q66.6137 743.329 66.132 742.402 Q65.6132 741.476 63.1676 741.476 L42.7502 741.476 Q39.9341 741.476 39.2671 742.439 Q38.6001 743.366 38.6001 747.071 L36.2286 747.071 L35.4133 736.473 L63.2417 736.473 Q65.502 736.473 66.0579 735.658 Q66.6137 734.843 66.6137 731.137 L68.9482 731.137 Q68.7258 738.882 68.7258 739.03 Q68.7258 740.068 68.9482 747.368 M22.1847 744.181 Q20.6654 744.181 19.4426 743.032 Q18.1828 741.846 18.1828 740.179 Q18.1828 738.511 19.3315 737.326 Q20.4431 736.14 22.2218 736.14 Q23.9633 736.14 25.112 737.326 Q26.2237 738.511 26.2237 740.179 Q26.2237 741.92 25.0009 743.069 Q23.7781 744.181 22.1847 744.181 Z" fill="#000000" fill-rule="nonzero" fill-opacity="1" /><path clip-path="url(#clip220)" d="M68.9482 726.431 L66.6137 726.431 Q66.6137 722.392 66.132 721.466 Q65.6132 720.54 63.1676 720.54 L42.8244 720.54 Q40.0082 720.54 39.3041 721.54 Q38.6001 722.504 38.6001 726.431 L36.2286 726.431 L35.4133 715.76 L43.3802 715.76 Q35.4133 712.202 35.4133 704.532 Q35.4133 695.639 42.8244 694.416 Q39.9341 693.119 37.6737 690.414 Q35.4133 687.672 35.4133 683.411 Q35.4133 677.704 38.2295 675.444 Q40.1193 673.776 42.2315 673.443 Q44.3436 673.109 49.8278 673.109 L64.3163 673.109 Q65.9096 673.035 66.2802 671.812 Q66.6137 670.589 66.6137 667.18 L68.9482 667.18 Q68.7258 674.925 68.7258 675.666 Q68.7258 676.259 68.9482 684.263 L66.6137 684.263 Q66.6137 680.224 66.132 679.297 Q65.6132 678.334 63.1676 678.334 L45.4923 678.334 Q41.6386 678.334 39.3782 679.52 Q37.0808 680.706 37.0808 683.966 Q37.0808 687.894 40.3787 691.044 Q43.6766 694.194 49.2349 694.194 L63.1676 694.194 Q65.6132 694.194 66.132 693.267 Q66.6137 692.304 66.6137 688.265 L68.9482 688.265 Q68.7258 696.009 68.7258 696.787 Q68.7258 697.38 68.9482 705.347 L66.6137 705.347 Q66.6137 701.308 66.132 700.382 Q65.6132 699.418 63.1676 699.418 L45.4923 699.418 Q41.6386 699.418 39.3782 700.604 Q37.0808 701.79 37.0808 705.051 Q37.0808 708.979 40.3787 712.128 Q43.6766 715.278 49.2349 715.278 L63.1676 715.278 Q65.6132 715.278 66.132 714.351 Q66.6137 713.388 66.6137 709.386 L68.9482 709.386 Q68.7258 717.131 68.7258 717.872 Q68.7258 718.465 68.9482 726.431 Z" fill="#000000" fill-rule="nonzero" fill-opacity="1" /><path clip-path="url(#clip220)" d="M52.2363 663.586 Q45.0847 663.586 40.0082 658.991 Q34.9316 654.396 34.9316 647.801 Q34.9316 641.131 39.2671 637.685 Q43.6025 634.201 49.8278 634.201 Q50.9765 634.201 51.1988 634.498 Q51.4211 634.794 51.4211 636.091 L51.4211 657.287 Q59.1656 657.287 62.797 654.989 Q67.8736 651.803 67.8736 646.43 Q67.8736 645.689 67.7253 644.799 Q67.5771 643.91 66.9472 642.094 Q66.2802 640.278 64.5386 638.685 Q62.797 637.092 60.0549 636.165 Q58.9804 635.943 59.0174 635.202 Q59.0174 634.201 59.9067 634.201 Q60.5737 634.201 62.093 634.943 Q63.5752 635.647 65.3538 637.018 Q67.1325 638.389 68.4664 641.057 Q69.8004 643.688 69.8004 646.874 Q69.8004 653.544 64.7609 658.584 Q59.6844 663.586 52.2363 663.586 M49.8278 657.213 L49.8278 639.204 Q48.2344 639.204 46.4557 639.5 Q44.6771 639.76 42.2315 640.575 Q39.7488 641.353 38.1925 643.206 Q36.6362 645.059 36.6362 647.801 Q36.6362 649.023 37.1549 650.357 Q37.6737 651.654 38.9336 653.248 Q40.1934 654.841 43.0467 655.953 Q45.8999 657.064 49.8278 657.213 Z" fill="#000000" fill-rule="nonzero" fill-opacity="1" /><path clip-path="url(#clip220)" d="M49.976 599.259 Q37.1549 599.259 26.8166 594.478 Q22.4811 592.44 18.8497 589.587 Q15.2184 586.734 13.625 584.844 Q12.0316 582.954 12.0316 582.436 Q12.0316 581.694 12.7727 581.657 Q13.1433 581.657 14.0696 582.658 Q26.5201 594.886 49.976 594.849 Q73.5059 594.849 85.4747 582.954 Q86.7716 581.657 87.1792 581.657 Q87.9203 581.657 87.9203 582.436 Q87.9203 582.954 86.4011 584.77 Q84.8818 586.586 81.3987 589.402 Q77.9155 592.218 73.6541 594.256 Q63.3158 599.259 49.976 599.259 Z" fill="#000000" fill-rule="nonzero" fill-opacity="1" /><path clip-path="url(#clip220)" d="M67.9477 574.839 L57.9428 574.839 Q57.0905 574.839 56.7941 574.802 Q56.4977 574.765 56.2753 574.543 Q56.053 574.32 56.053 573.876 Q56.053 573.357 56.2753 573.172 Q56.4977 572.949 57.3499 572.801 Q62.5747 571.653 65.3538 569.207 Q68.0959 566.724 68.0959 562.241 Q68.0959 557.979 66.2061 555.83 Q64.3163 553.681 61.2037 553.681 Q55.6454 553.681 54.2373 561.574 Q53.3109 566.131 52.7181 568.021 Q52.0881 569.911 50.7171 571.578 Q48.0491 574.839 44.2695 574.839 Q40.4899 574.839 37.7108 571.986 Q34.9316 569.096 34.9316 562.722 Q34.9316 558.461 37.0808 555.571 Q36.4138 554.718 35.858 554.274 Q34.9316 553.273 34.9316 552.754 Q34.9316 552.162 35.3392 552.05 Q35.7098 551.939 36.7844 551.939 L44.4177 551.939 Q45.27 551.939 45.5664 551.976 Q45.8629 552.013 46.0852 552.236 Q46.2705 552.458 46.2705 552.94 Q46.2705 553.792 45.5664 553.829 Q36.3768 554.422 36.3768 562.722 Q36.3768 567.206 38.1184 569.207 Q39.8229 571.208 42.1574 571.208 Q43.4543 571.208 44.4548 570.615 Q45.4182 569.985 46.0111 569.207 Q46.5669 568.392 47.1227 566.909 Q47.6415 565.427 47.8268 564.538 Q48.0121 563.612 48.3826 561.87 Q49.5313 555.793 52.014 553.236 Q55.2007 550.049 59.2397 550.049 Q63.7234 550.049 66.7619 553.088 Q69.8004 556.126 69.8004 562.241 Q69.8004 567.169 66.5025 570.615 Q66.9472 571.06 67.3548 571.393 Q67.7253 571.727 67.8736 571.875 Q68.0218 571.986 68.1329 572.023 Q68.2071 572.06 68.2812 572.134 Q69.8004 573.654 69.8004 574.024 Q69.8004 574.617 69.3928 574.728 Q69.0223 574.839 67.9477 574.839 Z" fill="#000000" fill-rule="nonzero" fill-opacity="1" /><path clip-path="url(#clip220)" d="M87.1792 543.157 Q86.8087 543.157 85.8823 542.194 Q73.4318 529.966 49.976 529.966 Q26.446 529.966 14.5514 541.712 Q13.1803 543.157 12.7727 543.157 Q12.0316 543.157 12.0316 542.416 Q12.0316 541.897 13.5509 540.082 Q15.0701 538.229 18.5533 535.45 Q22.0365 532.634 26.2978 530.558 Q36.6362 525.556 49.976 525.556 Q62.797 525.556 73.1354 530.336 Q77.4708 532.374 81.1022 535.227 Q84.7336 538.081 86.327 539.97 Q87.9203 541.86 87.9203 542.416 Q87.9203 543.157 87.1792 543.157 Z" fill="#000000" fill-rule="nonzero" fill-opacity="1" /><polyline clip-path="url(#clip222)" style="stroke:#0000ff; stroke-linecap:round; stroke-linejoin:round; stroke-width:12; stroke-opacity:1; fill:none" points="1786.9,1008.05 1323.59,828.56 858.332,642.813 431.769,456.866 509.594,271.093 512.129,82.1398 "/>
<line clip-path="url(#clip222)" x1="1786.9" y1="1008.05" x2="1786.9" y2="992.046" style="stroke:#0000ff; stroke-width:12; stroke-opacity:1"/>
<line clip-path="url(#clip222)" x1="1786.9" y1="1008.05" x2="1770.9" y2="1008.05" style="stroke:#0000ff; stroke-width:12; stroke-opacity:1"/>
<line clip-path="url(#clip222)" x1="1786.9" y1="1008.05" x2="1786.9" y2="1024.05" style="stroke:#0000ff; stroke-width:12; stroke-opacity:1"/>
<line clip-path="url(#clip222)" x1="1786.9" y1="1008.05" x2="1802.9" y2="1008.05" style="stroke:#0000ff; stroke-width:12; stroke-opacity:1"/>
<line clip-path="url(#clip222)" x1="1323.59" y1="828.56" x2="1323.59" y2="812.56" style="stroke:#0000ff; stroke-width:12; stroke-opacity:1"/>
<line clip-path="url(#clip222)" x1="1323.59" y1="828.56" x2="1307.59" y2="828.56" style="stroke:#0000ff; stroke-width:12; stroke-opacity:1"/>
<line clip-path="url(#clip222)" x1="1323.59" y1="828.56" x2="1323.59" y2="844.56" style="stroke:#0000ff; stroke-width:12; stroke-opacity:1"/>
<line clip-path="url(#clip222)" x1="1323.59" y1="828.56" x2="1339.59" y2="828.56" style="stroke:#0000ff; stroke-width:12; stroke-opacity:1"/>
<line clip-path="url(#clip222)" x1="858.332" y1="642.813" x2="858.332" y2="626.813" style="stroke:#0000ff; stroke-width:12; stroke-opacity:1"/>
<line clip-path="url(#clip222)" x1="858.332" y1="642.813" x2="842.332" y2="642.813" style="stroke:#0000ff; stroke-width:12; stroke-opacity:1"/>
<line clip-path="url(#clip222)" x1="858.332" y1="642.813" x2="858.332" y2="658.813" style="stroke:#0000ff; stroke-width:12; stroke-opacity:1"/>
<line clip-path="url(#clip222)" x1="858.332" y1="642.813" x2="874.332" y2="642.813" style="stroke:#0000ff; stroke-width:12; stroke-opacity:1"/>
<line clip-path="url(#clip222)" x1="431.769" y1="456.866" x2="431.769" y2="440.866" style="stroke:#0000ff; stroke-width:12; stroke-opacity:1"/>
<line clip-path="url(#clip222)" x1="431.769" y1="456.866" x2="415.769" y2="456.866" style="stroke:#0000ff; stroke-width:12; stroke-opacity:1"/>
<line clip-path="url(#clip222)" x1="431.769" y1="456.866" x2="431.769" y2="472.866" style="stroke:#0000ff; stroke-width:12; stroke-opacity:1"/>
<line clip-path="url(#clip222)" x1="431.769" y1="456.866" x2="447.769" y2="456.866" style="stroke:#0000ff; stroke-width:12; stroke-opacity:1"/>
<line clip-path="url(#clip222)" x1="509.594" y1="271.093" x2="509.594" y2="255.093" style="stroke:#0000ff; stroke-width:12; stroke-opacity:1"/>
<line clip-path="url(#clip222)" x1="509.594" y1="271.093" x2="493.594" y2="271.093" style="stroke:#0000ff; stroke-width:12; stroke-opacity:1"/>
<line clip-path="url(#clip222)" x1="509.594" y1="271.093" x2="509.594" y2="287.093" style="stroke:#0000ff; stroke-width:12; stroke-opacity:1"/>
<line clip-path="url(#clip222)" x1="509.594" y1="271.093" x2="525.594" y2="271.093" style="stroke:#0000ff; stroke-width:12; stroke-opacity:1"/>
<line clip-path="url(#clip222)" x1="512.129" y1="82.1398" x2="512.129" y2="66.1398" style="stroke:#0000ff; stroke-width:12; stroke-opacity:1"/>
<line clip-path="url(#clip222)" x1="512.129" y1="82.1398" x2="496.129" y2="82.1398" style="stroke:#0000ff; stroke-width:12; stroke-opacity:1"/>
<line clip-path="url(#clip222)" x1="512.129" y1="82.1398" x2="512.129" y2="98.1398" style="stroke:#0000ff; stroke-width:12; stroke-opacity:1"/>
<line clip-path="url(#clip222)" x1="512.129" y1="82.1398" x2="528.129" y2="82.1398" style="stroke:#0000ff; stroke-width:12; stroke-opacity:1"/>
<polyline clip-path="url(#clip222)" style="stroke:#7f007f; stroke-linecap:round; stroke-linejoin:round; stroke-width:12; stroke-opacity:1; fill:none" points="1528.16,1237.28 1017,1098.8 290.708,968.074 505.799,823.844 509.56,672.449 509.691,523.535 "/>
<circle clip-path="url(#clip222)" cx="1528.16" cy="1237.28" r="14.4" fill="#7f007f" fill-rule="evenodd" fill-opacity="1" stroke="#000000" stroke-opacity="1" stroke-width="1.536"/>
<circle clip-path="url(#clip222)" cx="1017" cy="1098.8" r="14.4" fill="#7f007f" fill-rule="evenodd" fill-opacity="1" stroke="#000000" stroke-opacity="1" stroke-width="1.536"/>
<circle clip-path="url(#clip222)" cx="290.708" cy="968.074" r="14.4" fill="#7f007f" fill-rule="evenodd" fill-opacity="1" stroke="#000000" stroke-opacity="1" stroke-width="1.536"/>
<circle clip-path="url(#clip222)" cx="505.799" cy="823.844" r="14.4" fill="#7f007f" fill-rule="evenodd" fill-opacity="1" stroke="#000000" stroke-opacity="1" stroke-width="1.536"/>
<circle clip-path="url(#clip222)" cx="509.56" cy="672.449" r="14.4" fill="#7f007f" fill-rule="evenodd" fill-opacity="1" stroke="#000000" stroke-opacity="1" stroke-width="1.536"/>
<circle clip-path="url(#clip222)" cx="509.691" cy="523.535" r="14.4" fill="#7f007f" fill-rule="evenodd" fill-opacity="1" stroke="#000000" stroke-opacity="1" stroke-width="1.536"/>
<polyline clip-path="url(#clip222)" style="stroke:#ff0000; stroke-linecap:round; stroke-linejoin:round; stroke-width:12; stroke-opacity:1; fill:none" points="1548.77,1245.33 701.65,1211.2 477.894,1093.53 507.565,978.038 509.381,849.655 509.541,720.828 "/>
<line clip-path="url(#clip222)" x1="1548.77" y1="1245.33" x2="1548.77" y2="1229.33" style="stroke:#ff0000; stroke-width:12; stroke-opacity:1"/>
<line clip-path="url(#clip222)" x1="1548.77" y1="1245.33" x2="1532.77" y2="1245.33" style="stroke:#ff0000; stroke-width:12; stroke-opacity:1"/>
<line clip-path="url(#clip222)" x1="1548.77" y1="1245.33" x2="1548.77" y2="1261.33" style="stroke:#ff0000; stroke-width:12; stroke-opacity:1"/>
<line clip-path="url(#clip222)" x1="1548.77" y1="1245.33" x2="1564.77" y2="1245.33" style="stroke:#ff0000; stroke-width:12; stroke-opacity:1"/>
<line clip-path="url(#clip222)" x1="701.65" y1="1211.2" x2="701.65" y2="1195.2" style="stroke:#ff0000; stroke-width:12; stroke-opacity:1"/>
<line clip-path="url(#clip222)" x1="701.65" y1="1211.2" x2="685.65" y2="1211.2" style="stroke:#ff0000; stroke-width:12; stroke-opacity:1"/>
<line clip-path="url(#clip222)" x1="701.65" y1="1211.2" x2="701.65" y2="1227.2" style="stroke:#ff0000; stroke-width:12; stroke-opacity:1"/>
<line clip-path="url(#clip222)" x1="701.65" y1="1211.2" x2="717.65" y2="1211.2" style="stroke:#ff0000; stroke-width:12; stroke-opacity:1"/>
<line clip-path="url(#clip222)" x1="477.894" y1="1093.53" x2="477.894" y2="1077.53" style="stroke:#ff0000; stroke-width:12; stroke-opacity:1"/>
<line clip-path="url(#clip222)" x1="477.894" y1="1093.53" x2="461.894" y2="1093.53" style="stroke:#ff0000; stroke-width:12; stroke-opacity:1"/>
<line clip-path="url(#clip222)" x1="477.894" y1="1093.53" x2="477.894" y2="1109.53" style="stroke:#ff0000; stroke-width:12; stroke-opacity:1"/>
<line clip-path="url(#clip222)" x1="477.894" y1="1093.53" x2="493.894" y2="1093.53" style="stroke:#ff0000; stroke-width:12; stroke-opacity:1"/>
<line clip-path="url(#clip222)" x1="507.565" y1="978.038" x2="507.565" y2="962.038" style="stroke:#ff0000; stroke-width:12; stroke-opacity:1"/>
<line clip-path="url(#clip222)" x1="507.565" y1="978.038" x2="491.565" y2="978.038" style="stroke:#ff0000; stroke-width:12; stroke-opacity:1"/>
<line clip-path="url(#clip222)" x1="507.565" y1="978.038" x2="507.565" y2="994.038" style="stroke:#ff0000; stroke-width:12; stroke-opacity:1"/>
<line clip-path="url(#clip222)" x1="507.565" y1="978.038" x2="523.565" y2="978.038" style="stroke:#ff0000; stroke-width:12; stroke-opacity:1"/>
<line clip-path="url(#clip222)" x1="509.381" y1="849.655" x2="509.381" y2="833.655" style="stroke:#ff0000; stroke-width:12; stroke-opacity:1"/>
<line clip-path="url(#clip222)" x1="509.381" y1="849.655" x2="493.381" y2="849.655" style="stroke:#ff0000; stroke-width:12; stroke-opacity:1"/>
<line clip-path="url(#clip222)" x1="509.381" y1="849.655" x2="509.381" y2="865.655" style="stroke:#ff0000; stroke-width:12; stroke-opacity:1"/>
<line clip-path="url(#clip222)" x1="509.381" y1="849.655" x2="525.381" y2="849.655" style="stroke:#ff0000; stroke-width:12; stroke-opacity:1"/>
<line clip-path="url(#clip222)" x1="509.541" y1="720.828" x2="509.541" y2="704.828" style="stroke:#ff0000; stroke-width:12; stroke-opacity:1"/>
<line clip-path="url(#clip222)" x1="509.541" y1="720.828" x2="493.541" y2="720.828" style="stroke:#ff0000; stroke-width:12; stroke-opacity:1"/>
<line clip-path="url(#clip222)" x1="509.541" y1="720.828" x2="509.541" y2="736.828" style="stroke:#ff0000; stroke-width:12; stroke-opacity:1"/>
<line clip-path="url(#clip222)" x1="509.541" y1="720.828" x2="525.541" y2="720.828" style="stroke:#ff0000; stroke-width:12; stroke-opacity:1"/>
<path clip-path="url(#clip220)" d="M1898.82 295.703 L2256.76 295.703 L2256.76 88.3434 L1898.82 88.3434  Z" fill="#ffffff" fill-rule="evenodd" fill-opacity="1"/>
<polyline clip-path="url(#clip220)" style="stroke:#000000; stroke-linecap:round; stroke-linejoin:round; stroke-width:4; stroke-opacity:1; fill:none" points="1898.82,295.703 2256.76,295.703 2256.76,88.3434 1898.82,88.3434 1898.82,295.703 "/>
<polyline clip-path="url(#clip220)" style="stroke:#0000ff; stroke-linecap:round; stroke-linejoin:round; stroke-width:12; stroke-opacity:1; fill:none" points="1921.16,140.183 2055.23,140.183 "/>
<line clip-path="url(#clip220)" x1="1988.2" y1="140.183" x2="1988.2" y2="119.495" style="stroke:#0000ff; stroke-width:12; stroke-opacity:1"/>
<line clip-path="url(#clip220)" x1="1988.2" y1="140.183" x2="1967.51" y2="140.183" style="stroke:#0000ff; stroke-width:12; stroke-opacity:1"/>
<line clip-path="url(#clip220)" x1="1988.2" y1="140.183" x2="1988.2" y2="160.872" style="stroke:#0000ff; stroke-width:12; stroke-opacity:1"/>
<line clip-path="url(#clip220)" x1="1988.2" y1="140.183" x2="2008.88" y2="140.183" style="stroke:#0000ff; stroke-width:12; stroke-opacity:1"/>
<path clip-path="url(#clip220)" d="M2077.57 157.463 L2077.57 155.907 L2078.78 155.907 Q2081.52 155.907 2082.14 155.462 Q2082.78 154.993 2082.78 153.511 L2082.78 127.004 Q2082.78 125.547 2082.14 125.102 Q2081.5 124.633 2078.78 124.633 L2077.57 124.633 L2077.57 123.052 L2106.05 123.052 L2107.46 134.44 L2106.2 134.44 Q2105.86 131.55 2105.39 129.894 Q2104.94 128.215 2103.83 126.93 Q2102.74 125.646 2100.94 125.151 Q2099.16 124.633 2096.27 124.633 L2089.75 124.633 Q2088.02 124.633 2087.65 125.003 Q2087.28 125.349 2087.28 126.658 L2087.28 138.788 L2091.82 138.788 Q2095.31 138.788 2096.3 137.577 Q2097.28 136.367 2097.28 132.884 L2098.57 132.884 L2098.57 146.273 L2097.28 146.273 Q2097.28 142.839 2096.3 141.604 Q2095.31 140.369 2091.82 140.369 L2087.28 140.369 L2087.28 153.881 Q2087.28 155.191 2087.65 155.561 Q2088.04 155.907 2089.75 155.907 L2096.49 155.907 Q2098.67 155.907 2100.25 155.635 Q2101.85 155.339 2102.97 154.647 Q2104.08 153.931 2104.82 153.116 Q2105.58 152.3 2106.1 150.843 Q2106.65 149.361 2106.94 148.002 Q2107.26 146.643 2107.61 144.42 L2108.87 144.42 L2106.75 157.463 L2077.57 157.463 Z" fill="#000000" fill-rule="nonzero" fill-opacity="1" /><path clip-path="url(#clip220)" d="M2111.96 157.463 L2111.96 155.907 L2113.17 155.907 Q2115.91 155.907 2116.53 155.462 Q2117.17 154.993 2117.17 153.511 L2117.17 126.856 Q2117.17 125.398 2116.53 124.954 Q2115.89 124.484 2113.17 124.484 L2111.96 124.484 L2111.96 122.903 Q2113.74 123.052 2119.44 123.052 Q2125.1 123.052 2126.88 122.903 L2126.88 124.484 L2125.67 124.484 Q2122.93 124.484 2122.28 124.954 Q2121.67 125.398 2121.67 126.856 L2121.67 142.938 L2137.5 127.819 Q2138.41 127.004 2138.41 126.14 Q2138.41 125.843 2138.27 125.522 Q2138.14 125.176 2137.55 124.83 Q2136.98 124.484 2136.07 124.484 L2136.07 122.903 Q2137.8 123.052 2142.52 123.052 Q2145.5 123.052 2146.81 122.903 L2146.81 124.484 Q2142.61 124.534 2139.63 127.523 L2130.51 136.268 L2142.19 153.461 Q2143.26 155.018 2144.29 155.462 Q2145.33 155.907 2147.51 155.907 L2147.51 157.463 Q2144.32 157.315 2141.7 157.315 Q2136.24 157.315 2134.46 157.463 L2134.46 155.907 Q2137.45 155.907 2137.45 154.376 Q2137.45 153.807 2136.69 152.646 L2127.52 139.109 L2121.67 144.667 L2121.67 153.511 Q2121.67 154.968 2122.28 155.438 Q2122.93 155.907 2125.67 155.907 L2126.88 155.907 L2126.88 157.463 Q2125.1 157.315 2119.39 157.315 Q2113.74 157.315 2111.96 157.463 Z" fill="#000000" fill-rule="nonzero" fill-opacity="1" /><path clip-path="url(#clip220)" d="M2154.08 128.585 L2154.08 127.004 Q2160.15 127.004 2163.29 123.768 Q2164.16 123.768 2164.3 123.966 Q2164.45 124.163 2164.45 125.077 L2164.45 153.461 Q2164.45 154.968 2165.19 155.438 Q2165.93 155.907 2169.17 155.907 L2170.78 155.907 L2170.78 157.463 Q2169 157.315 2162.57 157.315 Q2156.15 157.315 2154.4 157.463 L2154.4 155.907 L2156 155.907 Q2159.19 155.907 2159.96 155.462 Q2160.72 154.993 2160.72 153.461 L2160.72 127.251 Q2158.08 128.585 2154.08 128.585 Z" fill="#000000" fill-rule="nonzero" fill-opacity="1" /><path clip-path="url(#clip220)" d="M2179.89 144.815 Q2179.89 136.268 2183.08 129.376 Q2184.44 126.485 2186.34 124.064 Q2188.24 121.644 2189.5 120.581 Q2190.76 119.519 2191.11 119.519 Q2191.6 119.519 2191.63 120.013 Q2191.63 120.26 2190.96 120.878 Q2182.81 129.178 2182.83 144.815 Q2182.83 160.502 2190.76 168.481 Q2191.63 169.346 2191.63 169.617 Q2191.63 170.112 2191.11 170.112 Q2190.76 170.112 2189.55 169.099 Q2188.34 168.086 2186.46 165.764 Q2184.59 163.442 2183.23 160.601 Q2179.89 153.709 2179.89 144.815 Z" fill="#000000" fill-rule="nonzero" fill-opacity="1" /><path clip-path="url(#clip220)" d="M2197.01 157.463 Q2197.01 156.549 2197.09 156.278 Q2197.18 156.006 2197.58 155.586 L2207.29 144.766 Q2212.6 138.788 2212.6 133.575 Q2212.6 130.191 2210.82 127.77 Q2209.07 125.349 2205.83 125.349 Q2203.61 125.349 2201.73 126.708 Q2199.85 128.066 2198.99 130.487 Q2199.14 130.438 2199.65 130.438 Q2200.91 130.438 2201.61 131.228 Q2202.32 132.019 2202.32 133.081 Q2202.32 134.44 2201.43 135.107 Q2200.57 135.749 2199.7 135.749 Q2199.36 135.749 2198.89 135.675 Q2198.44 135.601 2197.73 134.909 Q2197.01 134.193 2197.01 132.933 Q2197.01 129.4 2199.68 126.584 Q2202.37 123.768 2206.47 123.768 Q2211.12 123.768 2214.16 126.535 Q2217.22 129.277 2217.22 133.575 Q2217.22 135.082 2216.75 136.466 Q2216.3 137.824 2215.69 138.887 Q2215.09 139.949 2213.46 141.653 Q2211.83 143.358 2210.52 144.568 Q2209.21 145.779 2206.28 148.348 L2200.91 153.56 L2210.03 153.56 Q2214.48 153.56 2214.82 153.165 Q2215.32 152.449 2215.93 148.669 L2217.22 148.669 L2215.79 157.463 L2197.01 157.463 Z" fill="#000000" fill-rule="nonzero" fill-opacity="1" /><path clip-path="url(#clip220)" d="M2222.68 169.617 Q2222.68 169.37 2223.32 168.753 Q2231.47 160.453 2231.47 144.815 Q2231.47 129.129 2223.64 121.199 Q2222.68 120.285 2222.68 120.013 Q2222.68 119.519 2223.17 119.519 Q2223.52 119.519 2224.73 120.532 Q2225.96 121.545 2227.82 123.867 Q2229.69 126.189 2231.08 129.03 Q2234.41 135.922 2234.41 144.815 Q2234.41 153.363 2231.23 160.255 Q2229.87 163.145 2227.96 165.566 Q2226.06 167.987 2224.8 169.049 Q2223.54 170.112 2223.17 170.112 Q2222.68 170.112 2222.68 169.617 Z" fill="#000000" fill-rule="nonzero" fill-opacity="1" /><polyline clip-path="url(#clip220)" style="stroke:#7f007f; stroke-linecap:round; stroke-linejoin:round; stroke-width:12; stroke-opacity:1; fill:none" points="1921.16,192.023 2055.23,192.023 "/>
<circle clip-path="url(#clip220)" cx="1988.2" cy="192.023" r="18.6198" fill="#7f007f" fill-rule="evenodd" fill-opacity="1" stroke="#000000" stroke-opacity="1" stroke-width="2.31304"/>
<path clip-path="url(#clip220)" d="M2077.57 209.303 L2077.57 207.747 L2078.78 207.747 Q2081.52 207.747 2082.14 207.302 Q2082.78 206.833 2082.78 205.351 L2082.78 178.844 Q2082.78 177.387 2082.14 176.942 Q2081.5 176.473 2078.78 176.473 L2077.57 176.473 L2077.57 174.892 L2106.05 174.892 L2107.46 186.28 L2106.2 186.28 Q2105.86 183.39 2105.39 181.734 Q2104.94 180.055 2103.83 178.77 Q2102.74 177.486 2100.94 176.991 Q2099.16 176.473 2096.27 176.473 L2089.75 176.473 Q2088.02 176.473 2087.65 176.843 Q2087.28 177.189 2087.28 178.498 L2087.28 190.628 L2091.82 190.628 Q2095.31 190.628 2096.3 189.417 Q2097.28 188.207 2097.28 184.724 L2098.57 184.724 L2098.57 198.113 L2097.28 198.113 Q2097.28 194.679 2096.3 193.444 Q2095.31 192.209 2091.82 192.209 L2087.28 192.209 L2087.28 205.721 Q2087.28 207.031 2087.65 207.401 Q2088.04 207.747 2089.75 207.747 L2096.49 207.747 Q2098.67 207.747 2100.25 207.475 Q2101.85 207.179 2102.97 206.487 Q2104.08 205.771 2104.82 204.956 Q2105.58 204.14 2106.1 202.683 Q2106.65 201.201 2106.94 199.842 Q2107.26 198.483 2107.61 196.26 L2108.87 196.26 L2106.75 209.303 L2077.57 209.303 Z" fill="#000000" fill-rule="nonzero" fill-opacity="1" /><path clip-path="url(#clip220)" d="M2111.96 209.303 L2111.96 207.747 L2113.17 207.747 Q2115.91 207.747 2116.53 207.302 Q2117.17 206.833 2117.17 205.351 L2117.17 178.696 Q2117.17 177.238 2116.53 176.794 Q2115.89 176.324 2113.17 176.324 L2111.96 176.324 L2111.96 174.743 Q2113.74 174.892 2119.44 174.892 Q2125.1 174.892 2126.88 174.743 L2126.88 176.324 L2125.67 176.324 Q2122.93 176.324 2122.28 176.794 Q2121.67 177.238 2121.67 178.696 L2121.67 194.778 L2137.5 179.659 Q2138.41 178.844 2138.41 177.98 Q2138.41 177.683 2138.27 177.362 Q2138.14 177.016 2137.55 176.67 Q2136.98 176.324 2136.07 176.324 L2136.07 174.743 Q2137.8 174.892 2142.52 174.892 Q2145.5 174.892 2146.81 174.743 L2146.81 176.324 Q2142.61 176.374 2139.63 179.363 L2130.51 188.108 L2142.19 205.301 Q2143.26 206.858 2144.29 207.302 Q2145.33 207.747 2147.51 207.747 L2147.51 209.303 Q2144.32 209.155 2141.7 209.155 Q2136.24 209.155 2134.46 209.303 L2134.46 207.747 Q2137.45 207.747 2137.45 206.216 Q2137.45 205.647 2136.69 204.486 L2127.52 190.949 L2121.67 196.507 L2121.67 205.351 Q2121.67 206.808 2122.28 207.278 Q2122.93 207.747 2125.67 207.747 L2126.88 207.747 L2126.88 209.303 Q2125.1 209.155 2119.39 209.155 Q2113.74 209.155 2111.96 209.303 Z" fill="#000000" fill-rule="nonzero" fill-opacity="1" /><path clip-path="url(#clip220)" d="M2154.08 180.425 L2154.08 178.844 Q2160.15 178.844 2163.29 175.608 Q2164.16 175.608 2164.3 175.806 Q2164.45 176.003 2164.45 176.917 L2164.45 205.301 Q2164.45 206.808 2165.19 207.278 Q2165.93 207.747 2169.17 207.747 L2170.78 207.747 L2170.78 209.303 Q2169 209.155 2162.57 209.155 Q2156.15 209.155 2154.4 209.303 L2154.4 207.747 L2156 207.747 Q2159.19 207.747 2159.96 207.302 Q2160.72 206.833 2160.72 205.301 L2160.72 179.091 Q2158.08 180.425 2154.08 180.425 Z" fill="#000000" fill-rule="nonzero" fill-opacity="1" /><path clip-path="url(#clip220)" d="M2179.89 196.655 Q2179.89 188.108 2183.08 181.216 Q2184.44 178.325 2186.34 175.904 Q2188.24 173.484 2189.5 172.421 Q2190.76 171.359 2191.11 171.359 Q2191.6 171.359 2191.63 171.853 Q2191.63 172.1 2190.96 172.718 Q2182.81 181.018 2182.83 196.655 Q2182.83 212.342 2190.76 220.321 Q2191.63 221.186 2191.63 221.457 Q2191.63 221.952 2191.11 221.952 Q2190.76 221.952 2189.55 220.939 Q2188.34 219.926 2186.46 217.604 Q2184.59 215.282 2183.23 212.441 Q2179.89 205.549 2179.89 196.655 Z" fill="#000000" fill-rule="nonzero" fill-opacity="1" /><path clip-path="url(#clip220)" d="M2196.62 202.485 Q2196.62 200.978 2197.48 200.262 Q2198.35 199.546 2199.46 199.546 Q2200.62 199.546 2201.43 200.311 Q2202.27 201.053 2202.27 202.362 Q2202.27 203.77 2201.28 204.56 Q2200.32 205.351 2198.94 205.153 Q2200.15 207.179 2202.37 208.093 Q2204.62 209.007 2206.7 209.007 Q2208.87 209.007 2210.62 207.13 Q2212.4 205.252 2212.4 200.657 Q2212.4 196.754 2210.87 194.506 Q2209.36 192.258 2206.37 192.258 L2204.15 192.258 Q2203.38 192.258 2203.16 192.184 Q2202.94 192.11 2202.94 191.69 Q2202.94 191.196 2203.71 191.097 Q2204.47 191.097 2205.68 190.949 Q2208.62 190.85 2210.18 188.306 Q2211.59 185.934 2211.59 182.55 Q2211.59 179.462 2210.1 178.177 Q2208.65 176.868 2206.74 176.868 Q2204.97 176.868 2203.01 177.609 Q2201.06 178.35 2200 180.005 Q2203.14 180.005 2203.14 182.55 Q2203.14 183.661 2202.42 184.402 Q2201.73 185.119 2200.57 185.119 Q2199.46 185.119 2198.72 184.427 Q2197.97 183.711 2197.97 182.5 Q2197.97 179.61 2200.54 177.609 Q2203.14 175.608 2206.94 175.608 Q2210.7 175.608 2213.46 177.584 Q2216.26 179.561 2216.26 182.599 Q2216.26 185.588 2214.28 188.034 Q2212.3 190.479 2209.17 191.492 Q2213.02 192.258 2215.32 194.877 Q2217.61 197.471 2217.61 200.657 Q2217.61 204.61 2214.5 207.525 Q2211.39 210.415 2206.84 210.415 Q2202.64 210.415 2199.63 208.142 Q2196.62 205.87 2196.62 202.485 Z" fill="#000000" fill-rule="nonzero" fill-opacity="1" /><path clip-path="url(#clip220)" d="M2222.68 221.457 Q2222.68 221.21 2223.32 220.593 Q2231.47 212.293 2231.47 196.655 Q2231.47 180.969 2223.64 173.039 Q2222.68 172.125 2222.68 171.853 Q2222.68 171.359 2223.17 171.359 Q2223.52 171.359 2224.73 172.372 Q2225.96 173.385 2227.82 175.707 Q2229.69 178.029 2231.08 180.87 Q2234.41 187.762 2234.41 196.655 Q2234.41 205.203 2231.23 212.095 Q2229.87 214.985 2227.96 217.406 Q2226.06 219.827 2224.8 220.889 Q2223.54 221.952 2223.17 221.952 Q2222.68 221.952 2222.68 221.457 Z" fill="#000000" fill-rule="nonzero" fill-opacity="1" /><polyline clip-path="url(#clip220)" style="stroke:#ff0000; stroke-linecap:round; stroke-linejoin:round; stroke-width:12; stroke-opacity:1; fill:none" points="1921.16,243.863 2055.23,243.863 "/>
<line clip-path="url(#clip220)" x1="1988.2" y1="243.863" x2="1988.2" y2="223.175" style="stroke:#ff0000; stroke-width:12; stroke-opacity:1"/>
<line clip-path="url(#clip220)" x1="1988.2" y1="243.863" x2="1967.51" y2="243.863" style="stroke:#ff0000; stroke-width:12; stroke-opacity:1"/>
<line clip-path="url(#clip220)" x1="1988.2" y1="243.863" x2="1988.2" y2="264.552" style="stroke:#ff0000; stroke-width:12; stroke-opacity:1"/>
<line clip-path="url(#clip220)" x1="1988.2" y1="243.863" x2="2008.88" y2="243.863" style="stroke:#ff0000; stroke-width:12; stroke-opacity:1"/>
<path clip-path="url(#clip220)" d="M2077.57 261.143 L2077.57 259.587 L2078.78 259.587 Q2081.52 259.587 2082.14 259.142 Q2082.78 258.673 2082.78 257.191 L2082.78 230.684 Q2082.78 229.227 2082.14 228.782 Q2081.5 228.313 2078.78 228.313 L2077.57 228.313 L2077.57 226.732 L2106.05 226.732 L2107.46 238.12 L2106.2 238.12 Q2105.86 235.23 2105.39 233.574 Q2104.94 231.895 2103.83 230.61 Q2102.74 229.326 2100.94 228.831 Q2099.16 228.313 2096.27 228.313 L2089.75 228.313 Q2088.02 228.313 2087.65 228.683 Q2087.28 229.029 2087.28 230.338 L2087.28 242.468 L2091.82 242.468 Q2095.31 242.468 2096.3 241.257 Q2097.28 240.047 2097.28 236.564 L2098.57 236.564 L2098.57 249.953 L2097.28 249.953 Q2097.28 246.519 2096.3 245.284 Q2095.31 244.049 2091.82 244.049 L2087.28 244.049 L2087.28 257.561 Q2087.28 258.871 2087.65 259.241 Q2088.04 259.587 2089.75 259.587 L2096.49 259.587 Q2098.67 259.587 2100.25 259.315 Q2101.85 259.019 2102.97 258.327 Q2104.08 257.611 2104.82 256.796 Q2105.58 255.98 2106.1 254.523 Q2106.65 253.041 2106.94 251.682 Q2107.26 250.323 2107.61 248.1 L2108.87 248.1 L2106.75 261.143 L2077.57 261.143 Z" fill="#000000" fill-rule="nonzero" fill-opacity="1" /><path clip-path="url(#clip220)" d="M2111.96 261.143 L2111.96 259.587 L2113.17 259.587 Q2115.91 259.587 2116.53 259.142 Q2117.17 258.673 2117.17 257.191 L2117.17 230.536 Q2117.17 229.078 2116.53 228.634 Q2115.89 228.164 2113.17 228.164 L2111.96 228.164 L2111.96 226.583 Q2113.74 226.732 2119.44 226.732 Q2125.1 226.732 2126.88 226.583 L2126.88 228.164 L2125.67 228.164 Q2122.93 228.164 2122.28 228.634 Q2121.67 229.078 2121.67 230.536 L2121.67 246.618 L2137.5 231.499 Q2138.41 230.684 2138.41 229.82 Q2138.41 229.523 2138.27 229.202 Q2138.14 228.856 2137.55 228.51 Q2136.98 228.164 2136.07 228.164 L2136.07 226.583 Q2137.8 226.732 2142.52 226.732 Q2145.5 226.732 2146.81 226.583 L2146.81 228.164 Q2142.61 228.214 2139.63 231.203 L2130.51 239.948 L2142.19 257.141 Q2143.26 258.698 2144.29 259.142 Q2145.33 259.587 2147.51 259.587 L2147.51 261.143 Q2144.32 260.995 2141.7 260.995 Q2136.24 260.995 2134.46 261.143 L2134.46 259.587 Q2137.45 259.587 2137.45 258.056 Q2137.45 257.487 2136.69 256.326 L2127.52 242.789 L2121.67 248.347 L2121.67 257.191 Q2121.67 258.648 2122.28 259.118 Q2122.93 259.587 2125.67 259.587 L2126.88 259.587 L2126.88 261.143 Q2125.1 260.995 2119.39 260.995 Q2113.74 260.995 2111.96 261.143 Z" fill="#000000" fill-rule="nonzero" fill-opacity="1" /><path clip-path="url(#clip220)" d="M2154.08 232.265 L2154.08 230.684 Q2160.15 230.684 2163.29 227.448 Q2164.16 227.448 2164.3 227.646 Q2164.45 227.843 2164.45 228.757 L2164.45 257.141 Q2164.45 258.648 2165.19 259.118 Q2165.93 259.587 2169.17 259.587 L2170.78 259.587 L2170.78 261.143 Q2169 260.995 2162.57 260.995 Q2156.15 260.995 2154.4 261.143 L2154.4 259.587 L2156 259.587 Q2159.19 259.587 2159.96 259.142 Q2160.72 258.673 2160.72 257.141 L2160.72 230.931 Q2158.08 232.265 2154.08 232.265 Z" fill="#000000" fill-rule="nonzero" fill-opacity="1" /><path clip-path="url(#clip220)" d="M2179.89 248.495 Q2179.89 239.948 2183.08 233.056 Q2184.44 230.165 2186.34 227.744 Q2188.24 225.324 2189.5 224.261 Q2190.76 223.199 2191.11 223.199 Q2191.6 223.199 2191.63 223.693 Q2191.63 223.94 2190.96 224.558 Q2182.81 232.858 2182.83 248.495 Q2182.83 264.182 2190.76 272.161 Q2191.63 273.026 2191.63 273.297 Q2191.63 273.792 2191.11 273.792 Q2190.76 273.792 2189.55 272.779 Q2188.34 271.766 2186.46 269.444 Q2184.59 267.122 2183.23 264.281 Q2179.89 257.389 2179.89 248.495 Z" fill="#000000" fill-rule="nonzero" fill-opacity="1" /><path clip-path="url(#clip220)" d="M2195.9 252.794 L2195.9 251.237 L2211.44 227.497 Q2211.83 226.88 2212.45 226.905 Q2213.02 226.905 2213.14 227.127 Q2213.27 227.349 2213.27 228.214 L2213.27 251.237 L2218.33 251.237 L2218.33 252.794 L2213.27 252.794 L2213.27 257.191 Q2213.27 258.648 2213.86 259.118 Q2214.48 259.587 2217.1 259.587 L2218.16 259.587 L2218.16 261.143 Q2216.08 260.995 2211.29 260.995 Q2206.52 260.995 2204.45 261.143 L2204.45 259.587 L2205.51 259.587 Q2208.13 259.587 2208.75 259.142 Q2209.36 258.673 2209.36 257.191 L2209.36 252.794 L2195.9 252.794 M2197.33 251.237 L2209.66 251.237 L2209.66 232.364 L2197.33 251.237 Z" fill="#000000" fill-rule="nonzero" fill-opacity="1" /><path clip-path="url(#clip220)" d="M2222.68 273.297 Q2222.68 273.05 2223.32 272.433 Q2231.47 264.133 2231.47 248.495 Q2231.47 232.809 2223.64 224.879 Q2222.68 223.965 2222.68 223.693 Q2222.68 223.199 2223.17 223.199 Q2223.52 223.199 2224.73 224.212 Q2225.96 225.225 2227.82 227.547 Q2229.69 229.869 2231.08 232.71 Q2234.41 239.602 2234.41 248.495 Q2234.41 257.043 2231.23 263.935 Q2229.87 266.825 2227.96 269.246 Q2226.06 271.667 2224.8 272.729 Q2223.54 273.792 2223.17 273.792 Q2222.68 273.792 2222.68 273.297 Z" fill="#000000" fill-rule="nonzero" fill-opacity="1" /></svg>
