<?xml version="1.0" encoding="utf-8"?>
<svg xmlns="http://www.w3.org/2000/svg" xmlns:xlink="http://www.w3.org/1999/xlink" width="576" height="384" viewBox="0 0 2304 1536">
<defs>
  <clipPath id="clip940">
    <rect x="0" y="0" width="2304" height="1536"/>
  </clipPath>
</defs>
<path clip-path="url(#clip940)" d="M0 1536 L2304 1536 L2304 0 L0 0  Z" fill="#ffffff" fill-rule="evenodd" fill-opacity="1"/>
<defs>
  <clipPath id="clip941">
    <rect x="460" y="0" width="1614" height="1536"/>
  </clipPath>
</defs>
<path clip-path="url(#clip940)" d="M298.791 1280.22 L1838.85 1280.22 L1838.85 47.2441 L298.791 47.2441  Z" fill="#ffffff" fill-rule="evenodd" fill-opacity="1"/>
<defs>
  <clipPath id="clip942">
    <rect x="298" y="47" width="1541" height="1234"/>
  </clipPath>
</defs>
<polyline clip-path="url(#clip942)" style="stroke:#000000; stroke-linecap:round; stroke-linejoin:round; stroke-width:2.8; stroke-opacity:0.4; fill:none" points="451.095,1280.22 451.095,47.2441 "/>
<polyline clip-path="url(#clip942)" style="stroke:#000000; stroke-linecap:round; stroke-linejoin:round; stroke-width:2.8; stroke-opacity:0.4; fill:none" points="745.273,1280.22 745.273,47.2441 "/>
<polyline clip-path="url(#clip942)" style="stroke:#000000; stroke-linecap:round; stroke-linejoin:round; stroke-width:2.8; stroke-opacity:0.4; fill:none" points="1039.45,1280.22 1039.45,47.2441 "/>
<polyline clip-path="url(#clip942)" style="stroke:#000000; stroke-linecap:round; stroke-linejoin:round; stroke-width:2.8; stroke-opacity:0.4; fill:none" points="1333.63,1280.22 1333.63,47.2441 "/>
<polyline clip-path="url(#clip942)" style="stroke:#000000; stroke-linecap:round; stroke-linejoin:round; stroke-width:2.8; stroke-opacity:0.4; fill:none" points="1627.81,1280.22 1627.81,47.2441 "/>
<polyline clip-path="url(#clip942)" style="stroke:#000000; stroke-linecap:round; stroke-linejoin:round; stroke-width:2; stroke-opacity:0.06; fill:none" points="351.886,1280.22 351.886,47.2441 "/>
<polyline clip-path="url(#clip942)" style="stroke:#000000; stroke-linecap:round; stroke-linejoin:round; stroke-width:2; stroke-opacity:0.06; fill:none" points="394.077,1280.22 394.077,47.2441 "/>
<polyline clip-path="url(#clip942)" style="stroke:#000000; stroke-linecap:round; stroke-linejoin:round; stroke-width:2; stroke-opacity:0.06; fill:none" points="425.741,1280.22 425.741,47.2441 "/>
<polyline clip-path="url(#clip942)" style="stroke:#000000; stroke-linecap:round; stroke-linejoin:round; stroke-width:2; stroke-opacity:0.06; fill:none" points="582.639,1280.22 582.639,47.2441 "/>
<polyline clip-path="url(#clip942)" style="stroke:#000000; stroke-linecap:round; stroke-linejoin:round; stroke-width:2; stroke-opacity:0.06; fill:none" points="646.064,1280.22 646.064,47.2441 "/>
<polyline clip-path="url(#clip942)" style="stroke:#000000; stroke-linecap:round; stroke-linejoin:round; stroke-width:2; stroke-opacity:0.06; fill:none" points="688.256,1280.22 688.256,47.2441 "/>
<polyline clip-path="url(#clip942)" style="stroke:#000000; stroke-linecap:round; stroke-linejoin:round; stroke-width:2; stroke-opacity:0.06; fill:none" points="719.919,1280.22 719.919,47.2441 "/>
<polyline clip-path="url(#clip942)" style="stroke:#000000; stroke-linecap:round; stroke-linejoin:round; stroke-width:2; stroke-opacity:0.06; fill:none" points="876.817,1280.22 876.817,47.2441 "/>
<polyline clip-path="url(#clip942)" style="stroke:#000000; stroke-linecap:round; stroke-linejoin:round; stroke-width:2; stroke-opacity:0.06; fill:none" points="940.242,1280.22 940.242,47.2441 "/>
<polyline clip-path="url(#clip942)" style="stroke:#000000; stroke-linecap:round; stroke-linejoin:round; stroke-width:2; stroke-opacity:0.06; fill:none" points="982.434,1280.22 982.434,47.2441 "/>
<polyline clip-path="url(#clip942)" style="stroke:#000000; stroke-linecap:round; stroke-linejoin:round; stroke-width:2; stroke-opacity:0.06; fill:none" points="1014.1,1280.22 1014.1,47.2441 "/>
<polyline clip-path="url(#clip942)" style="stroke:#000000; stroke-linecap:round; stroke-linejoin:round; stroke-width:2; stroke-opacity:0.06; fill:none" points="1171,1280.22 1171,47.2441 "/>
<polyline clip-path="url(#clip942)" style="stroke:#000000; stroke-linecap:round; stroke-linejoin:round; stroke-width:2; stroke-opacity:0.06; fill:none" points="1234.42,1280.22 1234.42,47.2441 "/>
<polyline clip-path="url(#clip942)" style="stroke:#000000; stroke-linecap:round; stroke-linejoin:round; stroke-width:2; stroke-opacity:0.06; fill:none" points="1276.61,1280.22 1276.61,47.2441 "/>
<polyline clip-path="url(#clip942)" style="stroke:#000000; stroke-linecap:round; stroke-linejoin:round; stroke-width:2; stroke-opacity:0.06; fill:none" points="1308.28,1280.22 1308.28,47.2441 "/>
<polyline clip-path="url(#clip942)" style="stroke:#000000; stroke-linecap:round; stroke-linejoin:round; stroke-width:2; stroke-opacity:0.06; fill:none" points="1465.17,1280.22 1465.17,47.2441 "/>
<polyline clip-path="url(#clip942)" style="stroke:#000000; stroke-linecap:round; stroke-linejoin:round; stroke-width:2; stroke-opacity:0.06; fill:none" points="1528.6,1280.22 1528.6,47.2441 "/>
<polyline clip-path="url(#clip942)" style="stroke:#000000; stroke-linecap:round; stroke-linejoin:round; stroke-width:2; stroke-opacity:0.06; fill:none" points="1570.79,1280.22 1570.79,47.2441 "/>
<polyline clip-path="url(#clip942)" style="stroke:#000000; stroke-linecap:round; stroke-linejoin:round; stroke-width:2; stroke-opacity:0.06; fill:none" points="1602.45,1280.22 1602.45,47.2441 "/>
<polyline clip-path="url(#clip942)" style="stroke:#000000; stroke-linecap:round; stroke-linejoin:round; stroke-width:2; stroke-opacity:0.06; fill:none" points="1759.35,1280.22 1759.35,47.2441 "/>
<polyline clip-path="url(#clip942)" style="stroke:#000000; stroke-linecap:round; stroke-linejoin:round; stroke-width:2; stroke-opacity:0.06; fill:none" points="1822.78,1280.22 1822.78,47.2441 "/>
<polyline clip-path="url(#clip940)" style="stroke:#000000; stroke-linecap:round; stroke-linejoin:round; stroke-width:4; stroke-opacity:1; fill:none" points="298.791,1280.22 1838.85,1280.22 "/>
<polyline clip-path="url(#clip940)" style="stroke:#000000; stroke-linecap:round; stroke-linejoin:round; stroke-width:4; stroke-opacity:1; fill:none" points="298.791,47.2441 1838.85,47.2441 "/>
<polyline clip-path="url(#clip940)" style="stroke:#000000; stroke-linecap:round; stroke-linejoin:round; stroke-width:4; stroke-opacity:1; fill:none" points="451.095,1280.22 451.095,1261.33 "/>
<polyline clip-path="url(#clip940)" style="stroke:#000000; stroke-linecap:round; stroke-linejoin:round; stroke-width:4; stroke-opacity:1; fill:none" points="745.273,1280.22 745.273,1261.33 "/>
<polyline clip-path="url(#clip940)" style="stroke:#000000; stroke-linecap:round; stroke-linejoin:round; stroke-width:4; stroke-opacity:1; fill:none" points="1039.45,1280.22 1039.45,1261.33 "/>
<polyline clip-path="url(#clip940)" style="stroke:#000000; stroke-linecap:round; stroke-linejoin:round; stroke-width:4; stroke-opacity:1; fill:none" points="1333.63,1280.22 1333.63,1261.33 "/>
<polyline clip-path="url(#clip940)" style="stroke:#000000; stroke-linecap:round; stroke-linejoin:round; stroke-width:4; stroke-opacity:1; fill:none" points="1627.81,1280.22 1627.81,1261.33 "/>
<polyline clip-path="url(#clip940)" style="stroke:#000000; stroke-linecap:round; stroke-linejoin:round; stroke-width:4; stroke-opacity:1; fill:none" points="351.886,1280.22 351.886,1270.78 "/>
<polyline clip-path="url(#clip940)" style="stroke:#000000; stroke-linecap:round; stroke-linejoin:round; stroke-width:4; stroke-opacity:1; fill:none" points="394.077,1280.22 394.077,1270.78 "/>
<polyline clip-path="url(#clip940)" style="stroke:#000000; stroke-linecap:round; stroke-linejoin:round; stroke-width:4; stroke-opacity:1; fill:none" points="425.741,1280.22 425.741,1270.78 "/>
<polyline clip-path="url(#clip940)" style="stroke:#000000; stroke-linecap:round; stroke-linejoin:round; stroke-width:4; stroke-opacity:1; fill:none" points="582.639,1280.22 582.639,1270.78 "/>
<polyline clip-path="url(#clip940)" style="stroke:#000000; stroke-linecap:round; stroke-linejoin:round; stroke-width:4; stroke-opacity:1; fill:none" points="646.064,1280.22 646.064,1270.78 "/>
<polyline clip-path="url(#clip940)" style="stroke:#000000; stroke-linecap:round; stroke-linejoin:round; stroke-width:4; stroke-opacity:1; fill:none" points="688.256,1280.22 688.256,1270.78 "/>
<polyline clip-path="url(#clip940)" style="stroke:#000000; stroke-linecap:round; stroke-linejoin:round; stroke-width:4; stroke-opacity:1; fill:none" points="719.919,1280.22 719.919,1270.78 "/>
<polyline clip-path="url(#clip940)" style="stroke:#000000; stroke-linecap:round; stroke-linejoin:round; stroke-width:4; stroke-opacity:1; fill:none" points="876.817,1280.22 876.817,1270.78 "/>
<polyline clip-path="url(#clip940)" style="stroke:#000000; stroke-linecap:round; stroke-linejoin:round; stroke-width:4; stroke-opacity:1; fill:none" points="940.242,1280.22 940.242,1270.78 "/>
<polyline clip-path="url(#clip940)" style="stroke:#000000; stroke-linecap:round; stroke-linejoin:round; stroke-width:4; stroke-opacity:1; fill:none" points="982.434,1280.22 982.434,1270.78 "/>
<polyline clip-path="url(#clip940)" style="stroke:#000000; stroke-linecap:round; stroke-linejoin:round; stroke-width:4; stroke-opacity:1; fill:none" points="1014.1,1280.22 1014.1,1270.78 "/>
<polyline clip-path="url(#clip940)" style="stroke:#000000; stroke-linecap:round; stroke-linejoin:round; stroke-width:4; stroke-opacity:1; fill:none" points="1171,1280.22 1171,1270.78 "/>
<polyline clip-path="url(#clip940)" style="stroke:#000000; stroke-linecap:round; stroke-linejoin:round; stroke-width:4; stroke-opacity:1; fill:none" points="1234.42,1280.22 1234.42,1270.78 "/>
<polyline clip-path="url(#clip940)" style="stroke:#000000; stroke-linecap:round; stroke-linejoin:round; stroke-width:4; stroke-opacity:1; fill:none" points="1276.61,1280.22 1276.61,1270.78 "/>
<polyline clip-path="url(#clip940)" style="stroke:#000000; stroke-linecap:round; stroke-linejoin:round; stroke-width:4; stroke-opacity:1; fill:none" points="1308.28,1280.22 1308.28,1270.78 "/>
<polyline clip-path="url(#clip940)" style="stroke:#000000; stroke-linecap:round; stroke-linejoin:round; stroke-width:4; stroke-opacity:1; fill:none" points="1465.17,1280.22 1465.17,1270.78 "/>
<polyline clip-path="url(#clip940)" style="stroke:#000000; stroke-linecap:round; stroke-linejoin:round; stroke-width:4; stroke-opacity:1; fill:none" points="1528.6,1280.22 1528.6,1270.78 "/>
<polyline clip-path="url(#clip940)" style="stroke:#000000; stroke-linecap:round; stroke-linejoin:round; stroke-width:4; stroke-opacity:1; fill:none" points="1570.79,1280.22 1570.79,1270.78 "/>
<polyline clip-path="url(#clip940)" style="stroke:#000000; stroke-linecap:round; stroke-linejoin:round; stroke-width:4; stroke-opacity:1; fill:none" points="1602.45,1280.22 1602.45,1270.78 "/>
<polyline clip-path="url(#clip940)" style="stroke:#000000; stroke-linecap:round; stroke-linejoin:round; stroke-width:4; stroke-opacity:1; fill:none" points="1759.35,1280.22 1759.35,1270.78 "/>
<polyline clip-path="url(#clip940)" style="stroke:#000000; stroke-linecap:round; stroke-linejoin:round; stroke-width:4; stroke-opacity:1; fill:none" points="1822.78,1280.22 1822.78,1270.78 "/>
<path clip-path="url(#clip940)" d="M394.557 1328.64 L394.557 1327.06 Q400.634 1327.06 403.771 1323.82 Q404.636 1323.82 404.784 1324.02 Q404.932 1324.22 404.932 1325.13 L404.932 1353.51 Q404.932 1355.02 405.673 1355.49 Q406.414 1355.96 409.651 1355.96 L411.256 1355.96 L411.256 1357.52 Q409.478 1357.37 403.055 1357.37 Q396.632 1357.37 394.878 1357.52 L394.878 1355.96 L396.484 1355.96 Q399.67 1355.96 400.436 1355.52 Q401.202 1355.05 401.202 1353.51 L401.202 1327.3 Q398.559 1328.64 394.557 1328.64 Z" fill="#000000" fill-rule="nonzero" fill-opacity="1" /><path clip-path="url(#clip940)" d="M417.333 1341.34 Q417.333 1333.9 419.211 1329.85 Q421.829 1323.82 428.005 1323.82 Q429.314 1323.82 430.673 1324.19 Q432.056 1324.54 433.786 1325.9 Q435.54 1327.25 436.602 1329.48 Q438.628 1333.78 438.628 1341.34 Q438.628 1348.72 436.75 1352.75 Q434.008 1358.63 427.956 1358.63 Q425.683 1358.63 423.361 1357.47 Q421.063 1356.31 419.606 1353.51 Q417.333 1349.34 417.333 1341.34 M421.533 1340.72 Q421.533 1348.35 422.076 1351.39 Q422.694 1354.68 424.374 1356.11 Q426.078 1357.52 427.956 1357.52 Q429.981 1357.52 431.661 1356.01 Q433.366 1354.48 433.885 1351.19 Q434.453 1347.96 434.428 1340.72 Q434.428 1333.68 433.934 1330.86 Q433.267 1327.58 431.488 1326.27 Q429.734 1324.93 427.956 1324.93 Q427.289 1324.93 426.572 1325.13 Q425.881 1325.33 424.868 1325.9 Q423.855 1326.46 423.064 1327.87 Q422.299 1329.28 421.928 1331.41 Q421.533 1334.15 421.533 1340.72 Z" fill="#000000" fill-rule="nonzero" fill-opacity="1" /><path clip-path="url(#clip940)" d="M465.764 1319.25 Q466.005 1319.49 466.005 1319.83 Q466.005 1320.17 465.764 1320.41 Q465.523 1320.65 465.182 1320.65 L439.451 1320.65 Q439.109 1320.65 438.868 1320.41 Q438.628 1320.17 438.628 1319.83 Q438.628 1319.49 438.868 1319.25 Q439.109 1319.01 439.451 1319.01 L465.182 1319.01 Q465.523 1319.01 465.764 1319.25 Z" fill="#000000" fill-rule="nonzero" fill-opacity="1" /><path clip-path="url(#clip940)" d="M471.946 1306.64 L471.946 1305.36 Q476.884 1305.36 479.433 1302.73 Q480.135 1302.73 480.256 1302.89 Q480.376 1303.05 480.376 1303.79 L480.376 1326.85 Q480.376 1328.08 480.978 1328.46 Q481.581 1328.84 484.21 1328.84 L485.515 1328.84 L485.515 1330.11 Q484.069 1329.99 478.851 1329.99 Q473.632 1329.99 472.207 1330.11 L472.207 1328.84 L473.512 1328.84 Q476.101 1328.84 476.723 1328.48 Q477.345 1328.1 477.345 1326.85 L477.345 1305.56 Q475.198 1306.64 471.946 1306.64 Z" fill="#000000" fill-rule="nonzero" fill-opacity="1" /><path clip-path="url(#clip940)" d="M490.573 1324.57 Q490.573 1323.34 491.275 1322.76 Q491.978 1322.18 492.881 1322.18 Q493.824 1322.18 494.486 1322.8 Q495.169 1323.4 495.169 1324.47 Q495.169 1325.61 494.366 1326.25 Q493.583 1326.89 492.459 1326.73 Q493.443 1328.38 495.249 1329.12 Q497.076 1329.87 498.762 1329.87 Q500.528 1329.87 501.953 1328.34 Q503.398 1326.81 503.398 1323.08 Q503.398 1319.91 502.154 1318.08 Q500.929 1316.26 498.501 1316.26 L496.694 1316.26 Q496.072 1316.26 495.892 1316.2 Q495.711 1316.14 495.711 1315.8 Q495.711 1315.39 496.333 1315.31 Q496.955 1315.31 497.939 1315.19 Q500.327 1315.11 501.592 1313.05 Q502.736 1311.12 502.736 1308.37 Q502.736 1305.86 501.532 1304.82 Q500.347 1303.75 498.802 1303.75 Q497.357 1303.75 495.771 1304.35 Q494.185 1304.96 493.322 1306.3 Q495.871 1306.3 495.871 1308.37 Q495.871 1309.27 495.289 1309.87 Q494.727 1310.46 493.784 1310.46 Q492.881 1310.46 492.279 1309.89 Q491.676 1309.31 491.676 1308.33 Q491.676 1305.98 493.764 1304.35 Q495.871 1302.73 498.962 1302.73 Q502.013 1302.73 504.261 1304.33 Q506.529 1305.94 506.529 1308.41 Q506.529 1310.84 504.924 1312.82 Q503.318 1314.81 500.769 1315.63 Q503.9 1316.26 505.767 1318.38 Q507.633 1320.49 507.633 1323.08 Q507.633 1326.29 505.104 1328.66 Q502.575 1331.01 498.882 1331.01 Q495.47 1331.01 493.021 1329.16 Q490.573 1327.32 490.573 1324.57 Z" fill="#000000" fill-rule="nonzero" fill-opacity="1" /><path clip-path="url(#clip940)" d="M688.896 1328.64 L688.896 1327.06 Q694.973 1327.06 698.11 1323.82 Q698.975 1323.82 699.123 1324.02 Q699.271 1324.22 699.271 1325.13 L699.271 1353.51 Q699.271 1355.02 700.012 1355.49 Q700.753 1355.96 703.989 1355.96 L705.595 1355.96 L705.595 1357.52 Q703.816 1357.37 697.394 1357.37 Q690.971 1357.37 689.217 1357.52 L689.217 1355.96 L690.822 1355.96 Q694.009 1355.96 694.775 1355.52 Q695.541 1355.05 695.541 1353.51 L695.541 1327.3 Q692.898 1328.64 688.896 1328.64 Z" fill="#000000" fill-rule="nonzero" fill-opacity="1" /><path clip-path="url(#clip940)" d="M711.672 1341.34 Q711.672 1333.9 713.55 1329.85 Q716.168 1323.82 722.344 1323.82 Q723.653 1323.82 725.012 1324.19 Q726.395 1324.54 728.125 1325.9 Q729.878 1327.25 730.941 1329.48 Q732.966 1333.78 732.966 1341.34 Q732.966 1348.72 731.089 1352.75 Q728.347 1358.63 722.295 1358.63 Q720.022 1358.63 717.7 1357.47 Q715.402 1356.31 713.945 1353.51 Q711.672 1349.34 711.672 1341.34 M715.872 1340.72 Q715.872 1348.35 716.415 1351.39 Q717.033 1354.68 718.713 1356.11 Q720.417 1357.52 722.295 1357.52 Q724.32 1357.52 726 1356.01 Q727.705 1354.48 728.223 1351.19 Q728.792 1347.96 728.767 1340.72 Q728.767 1333.68 728.273 1330.86 Q727.606 1327.58 725.827 1326.27 Q724.073 1324.93 722.295 1324.93 Q721.628 1324.93 720.911 1325.13 Q720.219 1325.33 719.207 1325.9 Q718.194 1326.46 717.403 1327.87 Q716.637 1329.28 716.267 1331.41 Q715.872 1334.15 715.872 1340.72 Z" fill="#000000" fill-rule="nonzero" fill-opacity="1" /><path clip-path="url(#clip940)" d="M760.103 1319.25 Q760.344 1319.49 760.344 1319.83 Q760.344 1320.17 760.103 1320.41 Q759.862 1320.65 759.521 1320.65 L733.789 1320.65 Q733.448 1320.65 733.207 1320.41 Q732.966 1320.17 732.966 1319.83 Q732.966 1319.49 733.207 1319.25 Q733.448 1319.01 733.789 1319.01 L759.521 1319.01 Q759.862 1319.01 760.103 1319.25 Z" fill="#000000" fill-rule="nonzero" fill-opacity="1" /><path clip-path="url(#clip940)" d="M766.285 1306.64 L766.285 1305.36 Q771.223 1305.36 773.772 1302.73 Q774.474 1302.73 774.595 1302.89 Q774.715 1303.05 774.715 1303.79 L774.715 1326.85 Q774.715 1328.08 775.317 1328.46 Q775.919 1328.84 778.549 1328.84 L779.853 1328.84 L779.853 1330.11 Q778.408 1329.99 773.19 1329.99 Q767.971 1329.99 766.546 1330.11 L766.546 1328.84 L767.851 1328.84 Q770.44 1328.84 771.062 1328.48 Q771.684 1328.1 771.684 1326.85 L771.684 1305.56 Q769.537 1306.64 766.285 1306.64 Z" fill="#000000" fill-rule="nonzero" fill-opacity="1" /><path clip-path="url(#clip940)" d="M785.233 1330.11 Q785.233 1329.36 785.293 1329.14 Q785.373 1328.92 785.694 1328.58 L793.582 1319.79 Q797.898 1314.93 797.898 1310.7 Q797.898 1307.95 796.452 1305.98 Q795.027 1304.01 792.398 1304.01 Q790.592 1304.01 789.066 1305.12 Q787.541 1306.22 786.838 1308.19 Q786.959 1308.15 787.38 1308.15 Q788.404 1308.15 788.966 1308.79 Q789.548 1309.43 789.548 1310.3 Q789.548 1311.4 788.825 1311.94 Q788.123 1312.46 787.42 1312.46 Q787.139 1312.46 786.758 1312.4 Q786.397 1312.34 785.815 1311.78 Q785.233 1311.2 785.233 1310.18 Q785.233 1307.3 787.4 1305.02 Q789.588 1302.73 792.92 1302.73 Q796.693 1302.73 799.162 1304.98 Q801.651 1307.2 801.651 1310.7 Q801.651 1311.92 801.27 1313.05 Q800.908 1314.15 800.407 1315.01 Q799.925 1315.88 798.6 1317.26 Q797.275 1318.65 796.212 1319.63 Q795.148 1320.61 792.759 1322.7 L788.404 1326.93 L795.81 1326.93 Q799.423 1326.93 799.704 1326.61 Q800.105 1326.03 800.607 1322.96 L801.651 1322.96 L800.487 1330.11 L785.233 1330.11 Z" fill="#000000" fill-rule="nonzero" fill-opacity="1" /><path clip-path="url(#clip940)" d="M983.696 1328.64 L983.696 1327.06 Q989.773 1327.06 992.91 1323.82 Q993.775 1323.82 993.923 1324.02 Q994.071 1324.22 994.071 1325.13 L994.071 1353.51 Q994.071 1355.02 994.813 1355.49 Q995.554 1355.96 998.79 1355.96 L1000.4 1355.96 L1000.4 1357.52 Q998.617 1357.37 992.194 1357.37 Q985.771 1357.37 984.017 1357.52 L984.017 1355.96 L985.623 1355.96 Q988.81 1355.96 989.575 1355.52 Q990.341 1355.05 990.341 1353.51 L990.341 1327.3 Q987.698 1328.64 983.696 1328.64 Z" fill="#000000" fill-rule="nonzero" fill-opacity="1" /><path clip-path="url(#clip940)" d="M1006.47 1341.34 Q1006.47 1333.9 1008.35 1329.85 Q1010.97 1323.82 1017.14 1323.82 Q1018.45 1323.82 1019.81 1324.19 Q1021.2 1324.54 1022.92 1325.9 Q1024.68 1327.25 1025.74 1329.48 Q1027.77 1333.78 1027.77 1341.34 Q1027.77 1348.72 1025.89 1352.75 Q1023.15 1358.63 1017.09 1358.63 Q1014.82 1358.63 1012.5 1357.47 Q1010.2 1356.31 1008.75 1353.51 Q1006.47 1349.34 1006.47 1341.34 M1010.67 1340.72 Q1010.67 1348.35 1011.22 1351.39 Q1011.83 1354.68 1013.51 1356.11 Q1015.22 1357.52 1017.09 1357.52 Q1019.12 1357.52 1020.8 1356.01 Q1022.51 1354.48 1023.02 1351.19 Q1023.59 1347.96 1023.57 1340.72 Q1023.57 1333.68 1023.07 1330.86 Q1022.41 1327.58 1020.63 1326.27 Q1018.87 1324.93 1017.09 1324.93 Q1016.43 1324.93 1015.71 1325.13 Q1015.02 1325.33 1014.01 1325.9 Q1012.99 1326.46 1012.2 1327.87 Q1011.44 1329.28 1011.07 1331.41 Q1010.67 1334.15 1010.67 1340.72 Z" fill="#000000" fill-rule="nonzero" fill-opacity="1" /><path clip-path="url(#clip940)" d="M1054.9 1319.25 Q1055.14 1319.49 1055.14 1319.83 Q1055.14 1320.17 1054.9 1320.41 Q1054.66 1320.65 1054.32 1320.65 L1028.59 1320.65 Q1028.25 1320.65 1028.01 1320.41 Q1027.77 1320.17 1027.77 1319.83 Q1027.77 1319.49 1028.01 1319.25 Q1028.25 1319.01 1028.59 1319.01 L1054.32 1319.01 Q1054.66 1319.01 1054.9 1319.25 Z" fill="#000000" fill-rule="nonzero" fill-opacity="1" /><path clip-path="url(#clip940)" d="M1061.09 1306.64 L1061.09 1305.36 Q1066.02 1305.36 1068.57 1302.73 Q1069.27 1302.73 1069.4 1302.89 Q1069.52 1303.05 1069.52 1303.79 L1069.52 1326.85 Q1069.52 1328.08 1070.12 1328.46 Q1070.72 1328.84 1073.35 1328.84 L1074.65 1328.84 L1074.65 1330.11 Q1073.21 1329.99 1067.99 1329.99 Q1062.77 1329.99 1061.35 1330.11 L1061.35 1328.84 L1062.65 1328.84 Q1065.24 1328.84 1065.86 1328.48 Q1066.48 1328.1 1066.48 1326.85 L1066.48 1305.56 Q1064.34 1306.64 1061.09 1306.64 Z" fill="#000000" fill-rule="nonzero" fill-opacity="1" /><path clip-path="url(#clip940)" d="M1081.64 1306.64 L1081.64 1305.36 Q1086.58 1305.36 1089.13 1302.73 Q1089.83 1302.73 1089.95 1302.89 Q1090.07 1303.05 1090.07 1303.79 L1090.07 1326.85 Q1090.07 1328.08 1090.67 1328.46 Q1091.27 1328.84 1093.9 1328.84 L1095.21 1328.84 L1095.21 1330.11 Q1093.76 1329.99 1088.54 1329.99 Q1083.32 1329.99 1081.9 1330.11 L1081.9 1328.84 L1083.2 1328.84 Q1085.79 1328.84 1086.42 1328.48 Q1087.04 1328.1 1087.04 1326.85 L1087.04 1305.56 Q1084.89 1306.64 1081.64 1306.64 Z" fill="#000000" fill-rule="nonzero" fill-opacity="1" /><path clip-path="url(#clip940)" d="M1277.03 1328.64 L1277.03 1327.06 Q1283.11 1327.06 1286.25 1323.82 Q1287.11 1323.82 1287.26 1324.02 Q1287.41 1324.22 1287.41 1325.13 L1287.41 1353.51 Q1287.41 1355.02 1288.15 1355.49 Q1288.89 1355.96 1292.13 1355.96 L1293.73 1355.96 L1293.73 1357.52 Q1291.95 1357.37 1285.53 1357.37 Q1279.11 1357.37 1277.35 1357.52 L1277.35 1355.96 L1278.96 1355.96 Q1282.14 1355.96 1282.91 1355.52 Q1283.68 1355.05 1283.68 1353.51 L1283.68 1327.3 Q1281.03 1328.64 1277.03 1328.64 Z" fill="#000000" fill-rule="nonzero" fill-opacity="1" /><path clip-path="url(#clip940)" d="M1299.81 1341.34 Q1299.81 1333.9 1301.69 1329.85 Q1304.3 1323.82 1310.48 1323.82 Q1311.79 1323.82 1313.15 1324.19 Q1314.53 1324.54 1316.26 1325.9 Q1318.01 1327.25 1319.08 1329.48 Q1321.1 1333.78 1321.1 1341.34 Q1321.1 1348.72 1319.22 1352.75 Q1316.48 1358.63 1310.43 1358.63 Q1308.16 1358.63 1305.84 1357.47 Q1303.54 1356.31 1302.08 1353.51 Q1299.81 1349.34 1299.81 1341.34 M1304.01 1340.72 Q1304.01 1348.35 1304.55 1351.39 Q1305.17 1354.68 1306.85 1356.11 Q1308.55 1357.52 1310.43 1357.52 Q1312.46 1357.52 1314.14 1356.01 Q1315.84 1354.48 1316.36 1351.19 Q1316.93 1347.96 1316.9 1340.72 Q1316.9 1333.68 1316.41 1330.86 Q1315.74 1327.58 1313.96 1326.27 Q1312.21 1324.93 1310.43 1324.93 Q1309.76 1324.93 1309.05 1325.13 Q1308.36 1325.33 1307.34 1325.9 Q1306.33 1326.46 1305.54 1327.87 Q1304.77 1329.28 1304.4 1331.41 Q1304.01 1334.15 1304.01 1340.72 Z" fill="#000000" fill-rule="nonzero" fill-opacity="1" /><path clip-path="url(#clip940)" d="M1348.24 1319.25 Q1348.48 1319.49 1348.48 1319.83 Q1348.48 1320.17 1348.24 1320.41 Q1348 1320.65 1347.66 1320.65 L1321.92 1320.65 Q1321.58 1320.65 1321.34 1320.41 Q1321.1 1320.17 1321.1 1319.83 Q1321.1 1319.49 1321.34 1319.25 Q1321.58 1319.01 1321.92 1319.01 L1347.66 1319.01 Q1348 1319.01 1348.24 1319.25 Z" fill="#000000" fill-rule="nonzero" fill-opacity="1" /><path clip-path="url(#clip940)" d="M1354.42 1306.64 L1354.42 1305.36 Q1359.36 1305.36 1361.91 1302.73 Q1362.61 1302.73 1362.73 1302.89 Q1362.85 1303.05 1362.85 1303.79 L1362.85 1326.85 Q1362.85 1328.08 1363.45 1328.46 Q1364.06 1328.84 1366.68 1328.84 L1367.99 1328.84 L1367.99 1330.11 Q1366.54 1329.99 1361.33 1329.99 Q1356.11 1329.99 1354.68 1330.11 L1354.68 1328.84 L1355.99 1328.84 Q1358.58 1328.84 1359.2 1328.48 Q1359.82 1328.1 1359.82 1326.85 L1359.82 1305.56 Q1357.67 1306.64 1354.42 1306.64 Z" fill="#000000" fill-rule="nonzero" fill-opacity="1" /><path clip-path="url(#clip940)" d="M1372.93 1316.96 Q1372.93 1310.92 1374.45 1307.63 Q1376.58 1302.73 1381.6 1302.73 Q1382.66 1302.73 1383.77 1303.03 Q1384.89 1303.31 1386.29 1304.41 Q1387.72 1305.52 1388.58 1307.32 Q1390.23 1310.82 1390.23 1316.96 Q1390.23 1322.96 1388.7 1326.23 Q1386.47 1331.01 1381.56 1331.01 Q1379.71 1331.01 1377.82 1330.07 Q1375.96 1329.12 1374.77 1326.85 Q1372.93 1323.46 1372.93 1316.96 M1376.34 1316.46 Q1376.34 1322.66 1376.78 1325.13 Q1377.28 1327.8 1378.65 1328.96 Q1380.03 1330.11 1381.56 1330.11 Q1383.2 1330.11 1384.57 1328.88 Q1385.95 1327.64 1386.37 1324.97 Q1386.84 1322.34 1386.82 1316.46 Q1386.82 1310.74 1386.41 1308.45 Q1385.87 1305.78 1384.43 1304.72 Q1383 1303.63 1381.56 1303.63 Q1381.02 1303.63 1380.43 1303.79 Q1379.87 1303.95 1379.05 1304.41 Q1378.23 1304.88 1377.58 1306.02 Q1376.96 1307.16 1376.66 1308.89 Q1376.34 1311.12 1376.34 1316.46 Z" fill="#000000" fill-rule="nonzero" fill-opacity="1" /><path clip-path="url(#clip940)" d="M1581.55 1328.64 L1581.55 1327.06 Q1587.62 1327.06 1590.76 1323.82 Q1591.63 1323.82 1591.77 1324.02 Q1591.92 1324.22 1591.92 1325.13 L1591.92 1353.51 Q1591.92 1355.02 1592.66 1355.49 Q1593.4 1355.96 1596.64 1355.96 L1598.25 1355.96 L1598.25 1357.52 Q1596.47 1357.37 1590.04 1357.37 Q1583.62 1357.37 1581.87 1357.52 L1581.87 1355.96 L1583.47 1355.96 Q1586.66 1355.96 1587.43 1355.52 Q1588.19 1355.05 1588.19 1353.51 L1588.19 1327.3 Q1585.55 1328.64 1581.55 1328.64 Z" fill="#000000" fill-rule="nonzero" fill-opacity="1" /><path clip-path="url(#clip940)" d="M1604.32 1341.34 Q1604.32 1333.9 1606.2 1329.85 Q1608.82 1323.82 1614.99 1323.82 Q1616.3 1323.82 1617.66 1324.19 Q1619.05 1324.54 1620.78 1325.9 Q1622.53 1327.25 1623.59 1329.48 Q1625.62 1333.78 1625.62 1341.34 Q1625.62 1348.72 1623.74 1352.75 Q1621 1358.63 1614.95 1358.63 Q1612.67 1358.63 1610.35 1357.47 Q1608.05 1356.31 1606.6 1353.51 Q1604.32 1349.34 1604.32 1341.34 M1608.52 1340.72 Q1608.52 1348.35 1609.07 1351.39 Q1609.68 1354.68 1611.36 1356.11 Q1613.07 1357.52 1614.95 1357.52 Q1616.97 1357.52 1618.65 1356.01 Q1620.36 1354.48 1620.87 1351.19 Q1621.44 1347.96 1621.42 1340.72 Q1621.42 1333.68 1620.92 1330.86 Q1620.26 1327.58 1618.48 1326.27 Q1616.72 1324.93 1614.95 1324.93 Q1614.28 1324.93 1613.56 1325.13 Q1612.87 1325.33 1611.86 1325.9 Q1610.84 1326.46 1610.05 1327.87 Q1609.29 1329.28 1608.92 1331.41 Q1608.52 1334.15 1608.52 1340.72 Z" fill="#000000" fill-rule="nonzero" fill-opacity="1" /><path clip-path="url(#clip940)" d="M1652.75 1319.25 Q1652.99 1319.49 1652.99 1319.83 Q1652.99 1320.17 1652.75 1320.41 Q1652.51 1320.65 1652.17 1320.65 L1626.44 1320.65 Q1626.1 1320.65 1625.86 1320.41 Q1625.62 1320.17 1625.62 1319.83 Q1625.62 1319.49 1625.86 1319.25 Q1626.1 1319.01 1626.44 1319.01 L1652.17 1319.01 Q1652.51 1319.01 1652.75 1319.25 Z" fill="#000000" fill-rule="nonzero" fill-opacity="1" /><path clip-path="url(#clip940)" d="M1657.01 1311.98 Q1657.01 1309.79 1657.65 1308.31 Q1658.29 1306.8 1659.64 1305.32 Q1662.11 1302.73 1665.68 1302.73 Q1667.21 1302.73 1668.55 1303.37 Q1669.91 1304.01 1671.2 1305.48 Q1672.5 1306.92 1673.29 1309.79 Q1674.07 1312.64 1674.07 1316.58 Q1674.07 1322.94 1670.98 1326.97 Q1667.91 1331.01 1663.75 1331.01 Q1661.12 1331.01 1659.58 1329.83 Q1658.03 1328.62 1658.03 1326.57 Q1658.03 1325.51 1658.63 1325.07 Q1659.24 1324.61 1659.92 1324.61 Q1660.66 1324.61 1661.24 1325.11 Q1661.83 1325.59 1661.83 1326.49 Q1661.83 1327.24 1661.34 1327.82 Q1660.88 1328.38 1659.68 1328.38 Q1660.86 1329.87 1663.71 1329.87 Q1664.74 1329.87 1665.76 1329.4 Q1666.78 1328.92 1667.89 1327.78 Q1669.01 1326.61 1669.69 1324.19 Q1670.38 1321.76 1670.38 1318.34 L1670.38 1317.04 Q1668.73 1321.15 1665.24 1321.15 Q1661.79 1321.15 1659.4 1318.5 Q1657.01 1315.86 1657.01 1311.98 M1660.7 1312.02 Q1660.7 1316.1 1661.44 1317.6 Q1662.71 1320.19 1665.28 1320.19 Q1667.79 1320.19 1669.03 1317.96 Q1670.3 1315.71 1670.3 1312.8 Q1670.3 1308.77 1669.63 1307 Q1668.41 1303.75 1665.68 1303.75 Q1662.97 1303.75 1661.57 1306.34 Q1660.7 1307.87 1660.7 1312.02 Z" fill="#000000" fill-rule="nonzero" fill-opacity="1" /><path clip-path="url(#clip940)" d="M981.872 1447.26 L981.872 1444.92 L983.688 1444.92 Q987.801 1444.92 988.727 1444.26 Q989.691 1443.55 989.691 1441.33 L989.691 1401.57 Q989.691 1399.38 988.727 1398.72 Q987.764 1398.01 983.688 1398.01 L981.872 1398.01 L981.872 1395.64 L1024.6 1395.64 L1026.71 1412.72 L1024.82 1412.72 Q1024.3 1408.39 1023.6 1405.9 Q1022.93 1403.38 1021.26 1401.46 Q1019.63 1399.53 1016.93 1398.79 Q1014.26 1398.01 1009.92 1398.01 L1000.14 1398.01 Q997.546 1398.01 996.99 1398.57 Q996.435 1399.09 996.435 1401.05 L996.435 1419.24 L1003.25 1419.24 Q1008.48 1419.24 1009.96 1417.43 Q1011.44 1415.61 1011.44 1410.39 L1013.37 1410.39 L1013.37 1430.47 L1011.44 1430.47 Q1011.44 1425.32 1009.96 1423.47 Q1008.48 1421.62 1003.25 1421.62 L996.435 1421.62 L996.435 1441.88 Q996.435 1443.85 996.99 1444.4 Q997.583 1444.92 1000.14 1444.92 L1010.26 1444.92 Q1013.52 1444.92 1015.89 1444.52 Q1018.3 1444.07 1019.96 1443.03 Q1021.63 1441.96 1022.74 1440.74 Q1023.89 1439.51 1024.67 1437.33 Q1025.49 1435.1 1025.93 1433.07 Q1026.41 1431.03 1026.93 1427.69 L1028.82 1427.69 L1025.63 1447.26 L981.872 1447.26 Z" fill="#000000" fill-rule="nonzero" fill-opacity="1" /><path clip-path="url(#clip940)" d="M1033.05 1447.26 L1033.05 1444.92 Q1037.08 1444.92 1038.01 1444.44 Q1038.97 1443.92 1038.97 1441.48 L1038.97 1421.13 Q1038.97 1418.32 1037.97 1417.61 Q1037.01 1416.91 1033.05 1416.91 L1033.05 1414.54 L1043.61 1413.72 L1043.61 1422.06 Q1044.68 1418.8 1046.94 1416.28 Q1049.24 1413.72 1052.94 1413.72 Q1055.39 1413.72 1056.95 1415.09 Q1058.54 1416.46 1058.54 1418.35 Q1058.54 1420.02 1057.5 1420.87 Q1056.5 1421.69 1055.28 1421.69 Q1053.91 1421.69 1052.94 1420.84 Q1052.02 1419.95 1052.02 1418.43 Q1052.02 1417.5 1052.42 1416.8 Q1052.87 1416.06 1053.2 1415.8 Q1053.54 1415.54 1053.76 1415.46 Q1053.61 1415.39 1052.94 1415.39 Q1048.76 1415.39 1046.35 1419.58 Q1043.98 1423.73 1043.98 1429.66 L1043.98 1441.33 Q1043.98 1443.51 1044.87 1444.22 Q1045.79 1444.92 1049.76 1444.92 L1051.35 1444.92 L1051.35 1447.26 Q1048.31 1447.03 1041.72 1447.03 Q1040.79 1447.03 1039.34 1447.07 Q1037.9 1447.11 1036.01 1447.18 Q1034.12 1447.26 1033.05 1447.26 Z" fill="#000000" fill-rule="nonzero" fill-opacity="1" /><path clip-path="url(#clip940)" d="M1062.69 1447.26 L1062.69 1444.92 Q1066.73 1444.92 1067.65 1444.44 Q1068.62 1443.92 1068.62 1441.48 L1068.62 1421.13 Q1068.62 1418.32 1067.62 1417.61 Q1066.65 1416.91 1062.69 1416.91 L1062.69 1414.54 L1073.25 1413.72 L1073.25 1422.06 Q1074.32 1418.8 1076.58 1416.28 Q1078.88 1413.72 1082.59 1413.72 Q1085.03 1413.72 1086.59 1415.09 Q1088.18 1416.46 1088.18 1418.35 Q1088.18 1420.02 1087.15 1420.87 Q1086.14 1421.69 1084.92 1421.69 Q1083.55 1421.69 1082.59 1420.84 Q1081.66 1419.95 1081.66 1418.43 Q1081.66 1417.5 1082.07 1416.8 Q1082.51 1416.06 1082.85 1415.8 Q1083.18 1415.54 1083.4 1415.46 Q1083.25 1415.39 1082.59 1415.39 Q1078.4 1415.39 1075.99 1419.58 Q1073.62 1423.73 1073.62 1429.66 L1073.62 1441.33 Q1073.62 1443.51 1074.51 1444.22 Q1075.44 1444.92 1079.4 1444.92 L1080.99 1444.92 L1080.99 1447.26 Q1077.96 1447.03 1071.36 1447.03 Q1070.43 1447.03 1068.99 1447.07 Q1067.54 1447.11 1065.65 1447.18 Q1063.76 1447.26 1062.69 1447.26 Z" fill="#000000" fill-rule="nonzero" fill-opacity="1" /><path clip-path="url(#clip940)" d="M1097.34 1443.18 Q1092.33 1438.22 1092.33 1431.03 Q1092.33 1423.8 1097.22 1418.54 Q1102.15 1413.24 1109.19 1413.24 Q1116.09 1413.24 1121.01 1418.5 Q1125.98 1423.73 1125.98 1431.03 Q1125.98 1438.18 1120.98 1443.14 Q1116.01 1448.11 1109.12 1448.11 Q1102.37 1448.11 1097.34 1443.18 M1098.63 1430.4 Q1098.63 1437.77 1100.56 1441.11 Q1103.52 1446.18 1109.19 1446.18 Q1112.01 1446.18 1114.34 1444.66 Q1116.72 1443.14 1118.01 1440.59 Q1119.68 1437.25 1119.68 1430.4 Q1119.68 1423.1 1117.68 1419.87 Q1114.71 1414.95 1109.12 1414.95 Q1106.67 1414.95 1104.26 1416.24 Q1101.89 1417.5 1100.45 1420.02 Q1098.63 1423.36 1098.63 1430.4 Z" fill="#000000" fill-rule="nonzero" fill-opacity="1" /><path clip-path="url(#clip940)" d="M1130.28 1447.26 L1130.28 1444.92 Q1134.32 1444.92 1135.24 1444.44 Q1136.21 1443.92 1136.21 1441.48 L1136.21 1421.13 Q1136.21 1418.32 1135.21 1417.61 Q1134.24 1416.91 1130.28 1416.91 L1130.28 1414.54 L1140.84 1413.72 L1140.84 1422.06 Q1141.91 1418.8 1144.17 1416.28 Q1146.47 1413.72 1150.18 1413.72 Q1152.62 1413.72 1154.18 1415.09 Q1155.77 1416.46 1155.77 1418.35 Q1155.77 1420.02 1154.73 1420.87 Q1153.73 1421.69 1152.51 1421.69 Q1151.14 1421.69 1150.18 1420.84 Q1149.25 1419.95 1149.25 1418.43 Q1149.25 1417.5 1149.66 1416.8 Q1150.1 1416.06 1150.44 1415.8 Q1150.77 1415.54 1150.99 1415.46 Q1150.84 1415.39 1150.18 1415.39 Q1145.99 1415.39 1143.58 1419.58 Q1141.21 1423.73 1141.21 1429.66 L1141.21 1441.33 Q1141.21 1443.51 1142.1 1444.22 Q1143.02 1444.92 1146.99 1444.92 L1148.58 1444.92 L1148.58 1447.26 Q1145.54 1447.03 1138.95 1447.03 Q1138.02 1447.03 1136.58 1447.07 Q1135.13 1447.11 1133.24 1447.18 Q1131.35 1447.26 1130.28 1447.26 Z" fill="#000000" fill-rule="nonzero" fill-opacity="1" /><polyline clip-path="url(#clip942)" style="stroke:#000000; stroke-linecap:round; stroke-linejoin:round; stroke-width:2.8; stroke-opacity:0.4; fill:none" points="298.791,1092.81 1838.85,1092.81 "/>
<polyline clip-path="url(#clip942)" style="stroke:#000000; stroke-linecap:round; stroke-linejoin:round; stroke-width:2.8; stroke-opacity:0.4; fill:none" points="298.791,881.223 1838.85,881.223 "/>
<polyline clip-path="url(#clip942)" style="stroke:#000000; stroke-linecap:round; stroke-linejoin:round; stroke-width:2.8; stroke-opacity:0.4; fill:none" points="298.791,669.636 1838.85,669.636 "/>
<polyline clip-path="url(#clip942)" style="stroke:#000000; stroke-linecap:round; stroke-linejoin:round; stroke-width:2.8; stroke-opacity:0.4; fill:none" points="298.791,458.049 1838.85,458.049 "/>
<polyline clip-path="url(#clip942)" style="stroke:#000000; stroke-linecap:round; stroke-linejoin:round; stroke-width:2.8; stroke-opacity:0.4; fill:none" points="298.791,246.462 1838.85,246.462 "/>
<polyline clip-path="url(#clip940)" style="stroke:#000000; stroke-linecap:round; stroke-linejoin:round; stroke-width:4; stroke-opacity:1; fill:none" points="298.791,1280.22 298.791,47.2441 "/>
<polyline clip-path="url(#clip940)" style="stroke:#000000; stroke-linecap:round; stroke-linejoin:round; stroke-width:4; stroke-opacity:1; fill:none" points="1838.85,1280.22 1838.85,47.2441 "/>
<polyline clip-path="url(#clip940)" style="stroke:#000000; stroke-linecap:round; stroke-linejoin:round; stroke-width:4; stroke-opacity:1; fill:none" points="298.791,1092.81 313.655,1092.81 "/>
<polyline clip-path="url(#clip940)" style="stroke:#000000; stroke-linecap:round; stroke-linejoin:round; stroke-width:4; stroke-opacity:1; fill:none" points="298.791,881.223 313.655,881.223 "/>
<polyline clip-path="url(#clip940)" style="stroke:#000000; stroke-linecap:round; stroke-linejoin:round; stroke-width:4; stroke-opacity:1; fill:none" points="298.791,669.636 313.655,669.636 "/>
<polyline clip-path="url(#clip940)" style="stroke:#000000; stroke-linecap:round; stroke-linejoin:round; stroke-width:4; stroke-opacity:1; fill:none" points="298.791,458.049 313.655,458.049 "/>
<polyline clip-path="url(#clip940)" style="stroke:#000000; stroke-linecap:round; stroke-linejoin:round; stroke-width:4; stroke-opacity:1; fill:none" points="298.791,246.462 313.655,246.462 "/>
<path clip-path="url(#clip940)" d="M119.06 1087.66 L119.06 1086.08 Q125.137 1086.08 128.275 1082.84 Q129.139 1082.84 129.287 1083.04 Q129.436 1083.24 129.436 1084.15 L129.436 1112.54 Q129.436 1114.04 130.177 1114.51 Q130.918 1114.98 134.154 1114.98 L135.76 1114.98 L135.76 1116.54 Q133.981 1116.39 127.558 1116.39 Q121.135 1116.39 119.381 1116.54 L119.381 1114.98 L120.987 1114.98 Q124.174 1114.98 124.94 1114.54 Q125.705 1114.07 125.705 1112.54 L125.705 1086.32 Q123.062 1087.66 119.06 1087.66 Z" fill="#000000" fill-rule="nonzero" fill-opacity="1" /><path clip-path="url(#clip940)" d="M141.837 1100.36 Q141.837 1092.92 143.714 1088.87 Q146.333 1082.84 152.509 1082.84 Q153.818 1082.84 155.176 1083.21 Q156.56 1083.56 158.289 1084.92 Q160.043 1086.28 161.105 1088.5 Q163.131 1092.8 163.131 1100.36 Q163.131 1107.74 161.253 1111.77 Q158.511 1117.65 152.459 1117.65 Q150.186 1117.65 147.864 1116.49 Q145.567 1115.33 144.109 1112.54 Q141.837 1108.36 141.837 1100.36 M146.036 1099.74 Q146.036 1107.37 146.58 1110.41 Q147.197 1113.7 148.877 1115.13 Q150.582 1116.54 152.459 1116.54 Q154.485 1116.54 156.165 1115.03 Q157.869 1113.5 158.388 1110.21 Q158.956 1106.98 158.931 1099.74 Q158.931 1092.7 158.437 1089.88 Q157.77 1086.6 155.992 1085.29 Q154.238 1083.95 152.459 1083.95 Q151.792 1083.95 151.076 1084.15 Q150.384 1084.35 149.371 1084.92 Q148.358 1085.48 147.568 1086.89 Q146.802 1088.3 146.431 1090.43 Q146.036 1093.17 146.036 1099.74 Z" fill="#000000" fill-rule="nonzero" fill-opacity="1" /><path clip-path="url(#clip940)" d="M190.268 1078.27 Q190.508 1078.51 190.508 1078.85 Q190.508 1079.19 190.268 1079.43 Q190.027 1079.67 189.686 1079.67 L163.954 1079.67 Q163.613 1079.67 163.372 1079.43 Q163.131 1079.19 163.131 1078.85 Q163.131 1078.51 163.372 1078.27 Q163.613 1078.03 163.954 1078.03 L189.686 1078.03 Q190.027 1078.03 190.268 1078.27 Z" fill="#000000" fill-rule="nonzero" fill-opacity="1" /><path clip-path="url(#clip940)" d="M196.45 1065.66 L196.45 1064.38 Q201.387 1064.38 203.936 1061.75 Q204.639 1061.75 204.759 1061.91 Q204.88 1062.07 204.88 1062.81 L204.88 1085.88 Q204.88 1087.1 205.482 1087.48 Q206.084 1087.86 208.713 1087.86 L210.018 1087.86 L210.018 1089.13 Q208.573 1089.01 203.354 1089.01 Q198.136 1089.01 196.711 1089.13 L196.711 1087.86 L198.015 1087.86 Q200.604 1087.86 201.227 1087.5 Q201.849 1087.12 201.849 1085.88 L201.849 1064.58 Q199.701 1065.66 196.45 1065.66 Z" fill="#000000" fill-rule="nonzero" fill-opacity="1" /><path clip-path="url(#clip940)" d="M217.464 1088.46 Q216.842 1087.8 216.842 1086.94 Q216.842 1086.08 217.464 1085.45 Q218.087 1084.81 219.03 1084.81 Q219.933 1084.81 220.535 1085.41 Q221.158 1086 221.158 1086.96 Q221.158 1087.9 220.495 1088.52 Q219.853 1089.13 219.03 1089.13 Q218.087 1089.13 217.464 1088.46 Z" fill="#000000" fill-rule="nonzero" fill-opacity="1" /><path clip-path="url(#clip940)" d="M226.376 1075.98 Q226.376 1069.94 227.902 1066.65 Q230.029 1061.75 235.047 1061.75 Q236.111 1061.75 237.215 1062.05 Q238.339 1062.33 239.744 1063.44 Q241.169 1064.54 242.032 1066.35 Q243.678 1069.84 243.678 1075.98 Q243.678 1081.98 242.152 1085.25 Q239.924 1090.03 235.007 1090.03 Q233.16 1090.03 231.274 1089.09 Q229.407 1088.14 228.223 1085.88 Q226.376 1082.48 226.376 1075.98 M229.788 1075.48 Q229.788 1081.68 230.23 1084.15 Q230.732 1086.82 232.097 1087.98 Q233.481 1089.13 235.007 1089.13 Q236.653 1089.13 238.018 1087.9 Q239.403 1086.66 239.824 1083.99 Q240.286 1081.36 240.266 1075.48 Q240.266 1069.76 239.864 1067.47 Q239.322 1064.8 237.877 1063.74 Q236.452 1062.65 235.007 1062.65 Q234.465 1062.65 233.883 1062.81 Q233.321 1062.97 232.498 1063.44 Q231.675 1063.9 231.033 1065.04 Q230.411 1066.18 230.109 1067.91 Q229.788 1070.14 229.788 1075.48 Z" fill="#000000" fill-rule="nonzero" fill-opacity="1" /><path clip-path="url(#clip940)" d="M246.929 1075.98 Q246.929 1069.94 248.455 1066.65 Q250.582 1061.75 255.6 1061.75 Q256.664 1061.75 257.768 1062.05 Q258.892 1062.33 260.297 1063.44 Q261.722 1064.54 262.585 1066.35 Q264.231 1069.84 264.231 1075.98 Q264.231 1081.98 262.706 1085.25 Q260.478 1090.03 255.56 1090.03 Q253.714 1090.03 251.827 1089.09 Q249.96 1088.14 248.776 1085.88 Q246.929 1082.48 246.929 1075.98 M250.342 1075.48 Q250.342 1081.68 250.783 1084.15 Q251.285 1086.82 252.65 1087.98 Q254.035 1089.13 255.56 1089.13 Q257.206 1089.13 258.571 1087.9 Q259.956 1086.66 260.377 1083.99 Q260.839 1081.36 260.819 1075.48 Q260.819 1069.76 260.417 1067.47 Q259.875 1064.8 258.43 1063.74 Q257.005 1062.65 255.56 1062.65 Q255.018 1062.65 254.436 1062.81 Q253.874 1062.97 253.051 1063.44 Q252.228 1063.9 251.586 1065.04 Q250.964 1066.18 250.663 1067.91 Q250.342 1070.14 250.342 1075.48 Z" fill="#000000" fill-rule="nonzero" fill-opacity="1" /><path clip-path="url(#clip940)" d="M119.502 876.072 L119.502 874.491 Q125.579 874.491 128.716 871.255 Q129.581 871.255 129.729 871.452 Q129.877 871.65 129.877 872.564 L129.877 900.948 Q129.877 902.455 130.618 902.925 Q131.359 903.394 134.595 903.394 L136.201 903.394 L136.201 904.95 Q134.423 904.802 128 904.802 Q121.577 904.802 119.823 904.95 L119.823 903.394 L121.429 903.394 Q124.615 903.394 125.381 902.949 Q126.147 902.48 126.147 900.948 L126.147 874.738 Q123.504 876.072 119.502 876.072 Z" fill="#000000" fill-rule="nonzero" fill-opacity="1" /><path clip-path="url(#clip940)" d="M142.278 888.77 Q142.278 881.334 144.156 877.282 Q146.774 871.255 152.95 871.255 Q154.259 871.255 155.618 871.625 Q157.001 871.971 158.731 873.33 Q160.485 874.689 161.547 876.912 Q163.573 881.21 163.573 888.77 Q163.573 896.156 161.695 900.182 Q158.953 906.062 152.901 906.062 Q150.628 906.062 148.306 904.901 Q146.008 903.74 144.551 900.948 Q142.278 896.773 142.278 888.77 M146.478 888.152 Q146.478 895.785 147.021 898.824 Q147.639 902.109 149.319 903.542 Q151.023 904.95 152.901 904.95 Q154.926 904.95 156.606 903.443 Q158.311 901.912 158.829 898.626 Q159.398 895.39 159.373 888.152 Q159.373 881.111 158.879 878.295 Q158.212 875.01 156.433 873.7 Q154.679 872.366 152.901 872.366 Q152.234 872.366 151.517 872.564 Q150.826 872.762 149.813 873.33 Q148.8 873.898 148.009 875.306 Q147.244 876.714 146.873 878.839 Q146.478 881.581 146.478 888.152 Z" fill="#000000" fill-rule="nonzero" fill-opacity="1" /><path clip-path="url(#clip940)" d="M190.709 866.681 Q190.95 866.922 190.95 867.263 Q190.95 867.604 190.709 867.845 Q190.468 868.086 190.127 868.086 L164.395 868.086 Q164.054 868.086 163.813 867.845 Q163.573 867.604 163.573 867.263 Q163.573 866.922 163.813 866.681 Q164.054 866.44 164.395 866.44 L190.127 866.44 Q190.468 866.44 190.709 866.681 Z" fill="#000000" fill-rule="nonzero" fill-opacity="1" /><path clip-path="url(#clip940)" d="M194.844 864.393 Q194.844 858.351 196.369 855.06 Q198.497 850.162 203.515 850.162 Q204.579 850.162 205.682 850.463 Q206.806 850.744 208.211 851.848 Q209.637 852.952 210.5 854.759 Q212.146 858.251 212.146 864.393 Q212.146 870.394 210.62 873.666 Q208.392 878.443 203.475 878.443 Q201.628 878.443 199.741 877.5 Q197.875 876.556 196.69 874.288 Q194.844 870.896 194.844 864.393 M198.256 863.891 Q198.256 870.093 198.698 872.562 Q199.199 875.232 200.564 876.396 Q201.949 877.54 203.475 877.54 Q205.12 877.54 206.485 876.315 Q207.87 875.071 208.292 872.402 Q208.753 869.772 208.733 863.891 Q208.733 858.171 208.332 855.883 Q207.79 853.213 206.345 852.149 Q204.92 851.066 203.475 851.066 Q202.933 851.066 202.351 851.226 Q201.789 851.387 200.966 851.848 Q200.143 852.31 199.5 853.454 Q198.878 854.598 198.577 856.324 Q198.256 858.552 198.256 863.891 Z" fill="#000000" fill-rule="nonzero" fill-opacity="1" /><path clip-path="url(#clip940)" d="M217.906 876.877 Q217.284 876.215 217.284 875.352 Q217.284 874.489 217.906 873.867 Q218.528 873.224 219.472 873.224 Q220.375 873.224 220.977 873.827 Q221.599 874.409 221.599 875.372 Q221.599 876.315 220.937 876.938 Q220.295 877.54 219.472 877.54 Q218.528 877.54 217.906 876.877 Z" fill="#000000" fill-rule="nonzero" fill-opacity="1" /><path clip-path="url(#clip940)" d="M227.52 858.211 L228.865 849.761 L229.889 849.761 Q230.009 850.263 230.21 850.483 Q230.431 850.704 231.595 850.885 Q232.779 851.066 235.167 851.066 L245.143 851.066 Q245.143 852.009 244.782 852.511 L239.222 860.318 Q237.456 862.787 236.673 867.343 Q236.211 870.394 236.231 874.088 L236.231 876.175 Q236.231 878.443 234.324 878.443 Q232.438 878.443 232.438 876.175 Q232.438 868.327 237.496 860.72 Q238.038 859.937 240.025 857.147 Q242.032 854.357 242.112 854.237 L233.602 854.237 Q229.869 854.237 229.568 854.478 Q229.166 854.839 228.544 858.211 L227.52 858.211 Z" fill="#000000" fill-rule="nonzero" fill-opacity="1" /><path clip-path="url(#clip940)" d="M247.813 870.916 Q247.813 869.692 248.475 869.23 Q249.137 868.749 249.84 868.749 Q250.783 868.749 251.325 869.351 Q251.887 869.933 251.887 870.756 Q251.887 871.579 251.325 872.181 Q250.783 872.763 249.84 872.763 Q249.378 872.763 249.137 872.683 Q249.679 874.569 251.325 875.934 Q252.991 877.299 255.179 877.299 Q257.929 877.299 259.574 874.629 Q260.558 872.903 260.558 868.989 Q260.558 865.537 259.815 863.811 Q258.671 861.182 256.323 861.182 Q252.991 861.182 251.024 864.052 Q250.783 864.413 250.502 864.433 Q250.101 864.433 250 864.212 Q249.92 863.971 249.92 863.349 L249.92 851.186 Q249.92 850.202 250.321 850.202 Q250.482 850.202 250.823 850.323 Q253.412 851.467 256.283 851.487 Q259.233 851.487 261.883 850.283 Q262.083 850.162 262.204 850.162 Q262.605 850.162 262.625 850.624 Q262.625 850.785 262.284 851.266 Q261.963 851.728 261.26 852.35 Q260.558 852.952 259.655 853.534 Q258.751 854.116 257.427 854.518 Q256.122 854.899 254.677 854.899 Q252.951 854.899 251.185 854.357 L251.185 862.366 Q253.312 860.278 256.403 860.278 Q259.695 860.278 261.963 862.928 Q264.231 865.577 264.231 869.27 Q264.231 873.144 261.541 875.794 Q258.872 878.443 255.259 878.443 Q251.967 878.443 249.88 876.095 Q247.813 873.746 247.813 870.916 Z" fill="#000000" fill-rule="nonzero" fill-opacity="1" /><path clip-path="url(#clip940)" d="M119.06 664.485 L119.06 662.904 Q125.137 662.904 128.275 659.668 Q129.139 659.668 129.287 659.866 Q129.436 660.063 129.436 660.977 L129.436 689.361 Q129.436 690.868 130.177 691.338 Q130.918 691.807 134.154 691.807 L135.76 691.807 L135.76 693.363 Q133.981 693.215 127.558 693.215 Q121.135 693.215 119.381 693.363 L119.381 691.807 L120.987 691.807 Q124.174 691.807 124.94 691.362 Q125.705 690.893 125.705 689.361 L125.705 663.151 Q123.062 664.485 119.06 664.485 Z" fill="#000000" fill-rule="nonzero" fill-opacity="1" /><path clip-path="url(#clip940)" d="M141.837 677.183 Q141.837 669.747 143.714 665.696 Q146.333 659.668 152.509 659.668 Q153.818 659.668 155.176 660.039 Q156.56 660.384 158.289 661.743 Q160.043 663.102 161.105 665.325 Q163.131 669.623 163.131 677.183 Q163.131 684.569 161.253 688.596 Q158.511 694.475 152.459 694.475 Q150.186 694.475 147.864 693.314 Q145.567 692.153 144.109 689.361 Q141.837 685.187 141.837 677.183 M146.036 676.565 Q146.036 684.198 146.58 687.237 Q147.197 690.522 148.877 691.955 Q150.582 693.363 152.459 693.363 Q154.485 693.363 156.165 691.856 Q157.869 690.325 158.388 687.039 Q158.956 683.803 158.931 676.565 Q158.931 669.525 158.437 666.708 Q157.77 663.423 155.992 662.114 Q154.238 660.78 152.459 660.78 Q151.792 660.78 151.076 660.977 Q150.384 661.175 149.371 661.743 Q148.358 662.311 147.568 663.719 Q146.802 665.127 146.431 667.252 Q146.036 669.994 146.036 676.565 Z" fill="#000000" fill-rule="nonzero" fill-opacity="1" /><path clip-path="url(#clip940)" d="M190.268 655.094 Q190.508 655.335 190.508 655.676 Q190.508 656.018 190.268 656.258 Q190.027 656.499 189.686 656.499 L163.954 656.499 Q163.613 656.499 163.372 656.258 Q163.131 656.018 163.131 655.676 Q163.131 655.335 163.372 655.094 Q163.613 654.853 163.954 654.853 L189.686 654.853 Q190.027 654.853 190.268 655.094 Z" fill="#000000" fill-rule="nonzero" fill-opacity="1" /><path clip-path="url(#clip940)" d="M194.402 652.806 Q194.402 646.765 195.928 643.473 Q198.055 638.575 203.073 638.575 Q204.137 638.575 205.241 638.877 Q206.365 639.158 207.77 640.261 Q209.195 641.365 210.058 643.172 Q211.704 646.664 211.704 652.806 Q211.704 658.808 210.178 662.079 Q207.951 666.856 203.033 666.856 Q201.186 666.856 199.3 665.913 Q197.433 664.969 196.249 662.701 Q194.402 659.309 194.402 652.806 M197.814 652.304 Q197.814 658.506 198.256 660.975 Q198.758 663.645 200.123 664.809 Q201.508 665.953 203.033 665.953 Q204.679 665.953 206.044 664.729 Q207.429 663.484 207.85 660.815 Q208.312 658.185 208.292 652.304 Q208.292 646.584 207.89 644.296 Q207.348 641.626 205.903 640.563 Q204.478 639.479 203.033 639.479 Q202.491 639.479 201.909 639.639 Q201.347 639.8 200.524 640.261 Q199.701 640.723 199.059 641.867 Q198.437 643.011 198.136 644.737 Q197.814 646.965 197.814 652.304 Z" fill="#000000" fill-rule="nonzero" fill-opacity="1" /><path clip-path="url(#clip940)" d="M217.464 665.291 Q216.842 664.628 216.842 663.765 Q216.842 662.902 217.464 662.28 Q218.087 661.638 219.03 661.638 Q219.933 661.638 220.535 662.24 Q221.158 662.822 221.158 663.785 Q221.158 664.729 220.495 665.351 Q219.853 665.953 219.03 665.953 Q218.087 665.953 217.464 665.291 Z" fill="#000000" fill-rule="nonzero" fill-opacity="1" /><path clip-path="url(#clip940)" d="M226.818 659.329 Q226.818 658.105 227.48 657.643 Q228.142 657.162 228.845 657.162 Q229.788 657.162 230.33 657.764 Q230.892 658.346 230.892 659.169 Q230.892 659.992 230.33 660.594 Q229.788 661.176 228.845 661.176 Q228.383 661.176 228.142 661.096 Q228.684 662.982 230.33 664.347 Q231.996 665.712 234.184 665.712 Q236.934 665.712 238.58 663.043 Q239.563 661.316 239.563 657.403 Q239.563 653.95 238.821 652.224 Q237.676 649.595 235.328 649.595 Q231.996 649.595 230.029 652.465 Q229.788 652.826 229.507 652.846 Q229.106 652.846 229.006 652.626 Q228.925 652.385 228.925 651.762 L228.925 639.599 Q228.925 638.616 229.327 638.616 Q229.487 638.616 229.828 638.736 Q232.418 639.88 235.288 639.9 Q238.238 639.9 240.888 638.696 Q241.089 638.575 241.209 638.575 Q241.61 638.575 241.631 639.037 Q241.631 639.198 241.289 639.679 Q240.968 640.141 240.266 640.763 Q239.563 641.365 238.66 641.947 Q237.757 642.53 236.432 642.931 Q235.127 643.312 233.682 643.312 Q231.956 643.312 230.19 642.77 L230.19 650.779 Q232.317 648.691 235.408 648.691 Q238.7 648.691 240.968 651.341 Q243.236 653.99 243.236 657.684 Q243.236 661.557 240.547 664.207 Q237.877 666.856 234.264 666.856 Q230.973 666.856 228.885 664.508 Q226.818 662.159 226.818 659.329 Z" fill="#000000" fill-rule="nonzero" fill-opacity="1" /><path clip-path="url(#clip940)" d="M246.929 652.806 Q246.929 646.765 248.455 643.473 Q250.582 638.575 255.6 638.575 Q256.664 638.575 257.768 638.877 Q258.892 639.158 260.297 640.261 Q261.722 641.365 262.585 643.172 Q264.231 646.664 264.231 652.806 Q264.231 658.808 262.706 662.079 Q260.478 666.856 255.56 666.856 Q253.714 666.856 251.827 665.913 Q249.96 664.969 248.776 662.701 Q246.929 659.309 246.929 652.806 M250.342 652.304 Q250.342 658.506 250.783 660.975 Q251.285 663.645 252.65 664.809 Q254.035 665.953 255.56 665.953 Q257.206 665.953 258.571 664.729 Q259.956 663.484 260.377 660.815 Q260.839 658.185 260.819 652.304 Q260.819 646.584 260.417 644.296 Q259.875 641.626 258.43 640.563 Q257.005 639.479 255.56 639.479 Q255.018 639.479 254.436 639.639 Q253.874 639.8 253.051 640.261 Q252.228 640.723 251.586 641.867 Q250.964 643.011 250.663 644.737 Q250.342 646.965 250.342 652.304 Z" fill="#000000" fill-rule="nonzero" fill-opacity="1" /><path clip-path="url(#clip940)" d="M119.502 452.898 L119.502 451.317 Q125.579 451.317 128.716 448.081 Q129.581 448.081 129.729 448.279 Q129.877 448.476 129.877 449.39 L129.877 477.775 Q129.877 479.281 130.618 479.751 Q131.359 480.22 134.595 480.22 L136.201 480.22 L136.201 481.777 Q134.423 481.628 128 481.628 Q121.577 481.628 119.823 481.777 L119.823 480.22 L121.429 480.22 Q124.615 480.22 125.381 479.776 Q126.147 479.306 126.147 477.775 L126.147 451.564 Q123.504 452.898 119.502 452.898 Z" fill="#000000" fill-rule="nonzero" fill-opacity="1" /><path clip-path="url(#clip940)" d="M142.278 465.596 Q142.278 458.16 144.156 454.109 Q146.774 448.081 152.95 448.081 Q154.259 448.081 155.618 448.452 Q157.001 448.798 158.731 450.156 Q160.485 451.515 161.547 453.738 Q163.573 458.037 163.573 465.596 Q163.573 472.982 161.695 477.009 Q158.953 482.888 152.901 482.888 Q150.628 482.888 148.306 481.727 Q146.008 480.566 144.551 477.775 Q142.278 473.6 142.278 465.596 M146.478 464.978 Q146.478 472.612 147.021 475.65 Q147.639 478.936 149.319 480.368 Q151.023 481.777 152.901 481.777 Q154.926 481.777 156.606 480.27 Q158.311 478.738 158.829 475.452 Q159.398 472.216 159.373 464.978 Q159.373 457.938 158.879 455.122 Q158.212 451.836 156.433 450.527 Q154.679 449.193 152.901 449.193 Q152.234 449.193 151.517 449.39 Q150.826 449.588 149.813 450.156 Q148.8 450.724 148.009 452.133 Q147.244 453.541 146.873 455.665 Q146.478 458.407 146.478 464.978 Z" fill="#000000" fill-rule="nonzero" fill-opacity="1" /><path clip-path="url(#clip940)" d="M190.709 443.507 Q190.95 443.748 190.95 444.09 Q190.95 444.431 190.709 444.672 Q190.468 444.912 190.127 444.912 L164.395 444.912 Q164.054 444.912 163.813 444.672 Q163.573 444.431 163.573 444.09 Q163.573 443.748 163.813 443.507 Q164.054 443.267 164.395 443.267 L190.127 443.267 Q190.468 443.267 190.709 443.507 Z" fill="#000000" fill-rule="nonzero" fill-opacity="1" /><path clip-path="url(#clip940)" d="M194.844 441.219 Q194.844 435.178 196.369 431.886 Q198.497 426.989 203.515 426.989 Q204.579 426.989 205.682 427.29 Q206.806 427.571 208.211 428.675 Q209.637 429.779 210.5 431.585 Q212.146 435.077 212.146 441.219 Q212.146 447.221 210.62 450.492 Q208.392 455.269 203.475 455.269 Q201.628 455.269 199.741 454.326 Q197.875 453.383 196.69 451.115 Q194.844 447.722 194.844 441.219 M198.256 440.718 Q198.256 446.92 198.698 449.388 Q199.199 452.058 200.564 453.222 Q201.949 454.366 203.475 454.366 Q205.12 454.366 206.485 453.142 Q207.87 451.897 208.292 449.228 Q208.753 446.598 208.733 440.718 Q208.733 434.997 208.332 432.709 Q207.79 430.04 206.345 428.976 Q204.92 427.892 203.475 427.892 Q202.933 427.892 202.351 428.052 Q201.789 428.213 200.966 428.675 Q200.143 429.136 199.5 430.28 Q198.878 431.424 198.577 433.151 Q198.256 435.379 198.256 440.718 Z" fill="#000000" fill-rule="nonzero" fill-opacity="1" /><path clip-path="url(#clip940)" d="M217.906 453.704 Q217.284 453.041 217.284 452.178 Q217.284 451.315 217.906 450.693 Q218.528 450.051 219.472 450.051 Q220.375 450.051 220.977 450.653 Q221.599 451.235 221.599 452.198 Q221.599 453.142 220.937 453.764 Q220.295 454.366 219.472 454.366 Q218.528 454.366 217.906 453.704 Z" fill="#000000" fill-rule="nonzero" fill-opacity="1" /><path clip-path="url(#clip940)" d="M227.259 454.366 Q227.259 453.623 227.32 453.403 Q227.4 453.182 227.721 452.841 L235.609 444.049 Q239.924 439.192 239.924 434.957 Q239.924 432.207 238.479 430.24 Q237.054 428.273 234.425 428.273 Q232.618 428.273 231.093 429.377 Q229.568 430.481 228.865 432.448 Q228.985 432.408 229.407 432.408 Q230.431 432.408 230.993 433.05 Q231.575 433.693 231.575 434.556 Q231.575 435.66 230.852 436.201 Q230.15 436.723 229.447 436.723 Q229.166 436.723 228.785 436.663 Q228.423 436.603 227.841 436.041 Q227.259 435.459 227.259 434.435 Q227.259 431.565 229.427 429.277 Q231.615 426.989 234.947 426.989 Q238.72 426.989 241.189 429.237 Q243.678 431.465 243.678 434.957 Q243.678 436.181 243.296 437.305 Q242.935 438.409 242.433 439.272 Q241.952 440.135 240.627 441.52 Q239.302 442.905 238.238 443.889 Q237.175 444.872 234.786 446.96 L230.431 451.195 L237.837 451.195 Q241.45 451.195 241.731 450.874 Q242.132 450.292 242.634 447.221 L243.678 447.221 L242.514 454.366 L227.259 454.366 Z" fill="#000000" fill-rule="nonzero" fill-opacity="1" /><path clip-path="url(#clip940)" d="M247.813 447.743 Q247.813 446.518 248.475 446.057 Q249.137 445.575 249.84 445.575 Q250.783 445.575 251.325 446.177 Q251.887 446.759 251.887 447.582 Q251.887 448.405 251.325 449.007 Q250.783 449.589 249.84 449.589 Q249.378 449.589 249.137 449.509 Q249.679 451.396 251.325 452.76 Q252.991 454.125 255.179 454.125 Q257.929 454.125 259.574 451.456 Q260.558 449.73 260.558 445.816 Q260.558 442.363 259.815 440.637 Q258.671 438.008 256.323 438.008 Q252.991 438.008 251.024 440.878 Q250.783 441.239 250.502 441.259 Q250.101 441.259 250 441.039 Q249.92 440.798 249.92 440.176 L249.92 428.012 Q249.92 427.029 250.321 427.029 Q250.482 427.029 250.823 427.149 Q253.412 428.293 256.283 428.313 Q259.233 428.313 261.883 427.109 Q262.083 426.989 262.204 426.989 Q262.605 426.989 262.625 427.45 Q262.625 427.611 262.284 428.093 Q261.963 428.554 261.26 429.176 Q260.558 429.779 259.655 430.361 Q258.751 430.943 257.427 431.344 Q256.122 431.726 254.677 431.726 Q252.951 431.726 251.185 431.184 L251.185 439.192 Q253.312 437.105 256.403 437.105 Q259.695 437.105 261.963 439.754 Q264.231 442.404 264.231 446.097 Q264.231 449.97 261.541 452.62 Q258.872 455.269 255.259 455.269 Q251.967 455.269 249.88 452.921 Q247.813 450.573 247.813 447.743 Z" fill="#000000" fill-rule="nonzero" fill-opacity="1" /><path clip-path="url(#clip940)" d="M150.332 241.311 L150.332 239.73 Q156.409 239.73 159.546 236.494 Q160.41 236.494 160.559 236.692 Q160.707 236.89 160.707 237.804 L160.707 266.188 Q160.707 267.695 161.448 268.164 Q162.189 268.633 165.425 268.633 L167.031 268.633 L167.031 270.19 Q165.252 270.041 158.829 270.041 Q152.407 270.041 150.653 270.19 L150.653 268.633 L152.258 268.633 Q155.445 268.633 156.211 268.189 Q156.977 267.719 156.977 266.188 L156.977 239.977 Q154.333 241.311 150.332 241.311 Z" fill="#000000" fill-rule="nonzero" fill-opacity="1" /><path clip-path="url(#clip940)" d="M173.108 254.009 Q173.108 246.573 174.985 242.522 Q177.604 236.494 183.78 236.494 Q185.089 236.494 186.448 236.865 Q187.831 237.211 189.56 238.569 Q191.314 239.928 192.377 242.151 Q194.402 246.45 194.402 254.009 Q194.402 261.395 192.525 265.422 Q189.783 271.301 183.73 271.301 Q181.458 271.301 179.136 270.14 Q176.838 268.979 175.381 266.188 Q173.108 262.013 173.108 254.009 M177.308 253.391 Q177.308 261.025 177.851 264.063 Q178.469 267.349 180.148 268.782 Q181.853 270.19 183.73 270.19 Q185.756 270.19 187.436 268.683 Q189.141 267.151 189.659 263.866 Q190.227 260.629 190.203 253.391 Q190.203 246.351 189.709 243.535 Q189.042 240.249 187.263 238.94 Q185.509 237.606 183.73 237.606 Q183.063 237.606 182.347 237.804 Q181.655 238.001 180.643 238.569 Q179.63 239.138 178.839 240.546 Q178.073 241.954 177.703 244.078 Q177.308 246.82 177.308 253.391 Z" fill="#000000" fill-rule="nonzero" fill-opacity="1" /><path clip-path="url(#clip940)" d="M194.402 229.632 Q194.402 223.591 195.928 220.299 Q198.055 215.402 203.073 215.402 Q204.137 215.402 205.241 215.703 Q206.365 215.984 207.77 217.088 Q209.195 218.192 210.058 219.998 Q211.704 223.491 211.704 229.632 Q211.704 235.634 210.178 238.905 Q207.951 243.683 203.033 243.683 Q201.186 243.683 199.3 242.739 Q197.433 241.796 196.249 239.528 Q194.402 236.136 194.402 229.632 M197.814 229.131 Q197.814 235.333 198.256 237.802 Q198.758 240.471 200.123 241.635 Q201.508 242.779 203.033 242.779 Q204.679 242.779 206.044 241.555 Q207.429 240.311 207.85 237.641 Q208.312 235.012 208.292 229.131 Q208.292 223.41 207.89 221.122 Q207.348 218.453 205.903 217.389 Q204.478 216.305 203.033 216.305 Q202.491 216.305 201.909 216.466 Q201.347 216.626 200.524 217.088 Q199.701 217.549 199.059 218.694 Q198.437 219.838 198.136 221.564 Q197.814 223.792 197.814 229.131 Z" fill="#000000" fill-rule="nonzero" fill-opacity="1" /><path clip-path="url(#clip940)" d="M217.464 242.117 Q216.842 241.455 216.842 240.592 Q216.842 239.728 217.464 239.106 Q218.087 238.464 219.03 238.464 Q219.933 238.464 220.535 239.066 Q221.158 239.648 221.158 240.612 Q221.158 241.555 220.495 242.177 Q219.853 242.779 219.03 242.779 Q218.087 242.779 217.464 242.117 Z" fill="#000000" fill-rule="nonzero" fill-opacity="1" /><path clip-path="url(#clip940)" d="M226.376 229.632 Q226.376 223.591 227.902 220.299 Q230.029 215.402 235.047 215.402 Q236.111 215.402 237.215 215.703 Q238.339 215.984 239.744 217.088 Q241.169 218.192 242.032 219.998 Q243.678 223.491 243.678 229.632 Q243.678 235.634 242.152 238.905 Q239.924 243.683 235.007 243.683 Q233.16 243.683 231.274 242.739 Q229.407 241.796 228.223 239.528 Q226.376 236.136 226.376 229.632 M229.788 229.131 Q229.788 235.333 230.23 237.802 Q230.732 240.471 232.097 241.635 Q233.481 242.779 235.007 242.779 Q236.653 242.779 238.018 241.555 Q239.403 240.311 239.824 237.641 Q240.286 235.012 240.266 229.131 Q240.266 223.41 239.864 221.122 Q239.322 218.453 237.877 217.389 Q236.452 216.305 235.007 216.305 Q234.465 216.305 233.883 216.466 Q233.321 216.626 232.498 217.088 Q231.675 217.549 231.033 218.694 Q230.411 219.838 230.109 221.564 Q229.788 223.792 229.788 229.131 Z" fill="#000000" fill-rule="nonzero" fill-opacity="1" /><path clip-path="url(#clip940)" d="M246.929 229.632 Q246.929 223.591 248.455 220.299 Q250.582 215.402 255.6 215.402 Q256.664 215.402 257.768 215.703 Q258.892 215.984 260.297 217.088 Q261.722 218.192 262.585 219.998 Q264.231 223.491 264.231 229.632 Q264.231 235.634 262.706 238.905 Q260.478 243.683 255.56 243.683 Q253.714 243.683 251.827 242.739 Q249.96 241.796 248.776 239.528 Q246.929 236.136 246.929 229.632 M250.342 229.131 Q250.342 235.333 250.783 237.802 Q251.285 240.471 252.65 241.635 Q254.035 242.779 255.56 242.779 Q257.206 242.779 258.571 241.555 Q259.956 240.311 260.377 237.641 Q260.839 235.012 260.819 229.131 Q260.819 223.41 260.417 221.122 Q259.875 218.453 258.43 217.389 Q257.005 216.305 255.56 216.305 Q255.018 216.305 254.436 216.466 Q253.874 216.626 253.051 217.088 Q252.228 217.549 251.586 218.694 Q250.964 219.838 250.663 221.564 Q250.342 223.792 250.342 229.131 Z" fill="#000000" fill-rule="nonzero" fill-opacity="1" /><path clip-path="url(#clip940)" d="M34.6352 801.913 L17.5899 800.467 L17.5899 754.112 L34.6352 752.666 L34.6352 754.556 Q31.2261 754.853 29.2622 755.149 Q27.2983 755.408 25.4455 756.075 Q23.5557 756.705 22.6664 757.521 Q21.74 758.299 21.036 759.818 Q20.2949 761.337 20.1096 763.301 Q19.9243 765.265 19.9243 768.23 Q19.9243 771.713 20.0726 772.565 Q20.2949 773.491 20.9619 773.714 Q21.5918 773.936 22.9629 773.936 L62.9452 773.936 Q64.4645 773.936 65.0944 773.64 Q65.6873 773.306 66.169 771.564 Q66.6137 769.823 66.6137 765.969 L66.6137 762.931 L68.9482 762.931 Q68.7258 766.043 68.7258 777.345 Q68.7258 788.573 68.9482 791.685 L66.6137 791.685 L66.6137 788.647 Q66.6137 784.793 66.169 783.052 Q65.6873 781.273 65.0944 780.976 Q64.4645 780.68 62.9452 780.68 L22.9629 780.68 Q21.8883 780.68 21.4436 780.754 Q20.9989 780.828 20.6284 781.162 Q20.2208 781.495 20.0726 782.273 Q19.9243 783.014 19.9243 786.349 Q19.9243 789.314 20.1096 791.315 Q20.2949 793.279 21.036 794.798 Q21.74 796.317 22.6664 797.132 Q23.5557 797.911 25.4455 798.578 Q27.2983 799.208 29.2622 799.467 Q31.2261 799.726 34.6352 800.023 L34.6352 801.913 Z" fill="#000000" fill-rule="nonzero" fill-opacity="1" /><path clip-path="url(#clip940)" d="M68.9482 747.368 L66.6137 747.368 Q66.6137 743.329 66.132 742.402 Q65.6132 741.476 63.1676 741.476 L42.7502 741.476 Q39.9341 741.476 39.2671 742.439 Q38.6001 743.366 38.6001 747.071 L36.2286 747.071 L35.4133 736.473 L63.2417 736.473 Q65.502 736.473 66.0579 735.658 Q66.6137 734.843 66.6137 731.137 L68.9482 731.137 Q68.7258 738.882 68.7258 739.03 Q68.7258 740.068 68.9482 747.368 M22.1847 744.181 Q20.6654 744.181 19.4426 743.032 Q18.1828 741.846 18.1828 740.179 Q18.1828 738.511 19.3315 737.326 Q20.4431 736.14 22.2218 736.14 Q23.9633 736.14 25.112 737.326 Q26.2237 738.511 26.2237 740.179 Q26.2237 741.92 25.0009 743.069 Q23.7781 744.181 22.1847 744.181 Z" fill="#000000" fill-rule="nonzero" fill-opacity="1" /><path clip-path="url(#clip940)" d="M68.9482 726.431 L66.6137 726.431 Q66.6137 722.392 66.132 721.466 Q65.6132 720.54 63.1676 720.54 L42.8244 720.54 Q40.0082 720.54 39.3041 721.54 Q38.6001 722.504 38.6001 726.431 L36.2286 726.431 L35.4133 715.76 L43.3802 715.76 Q35.4133 712.202 35.4133 704.532 Q35.4133 695.639 42.8244 694.416 Q39.9341 693.119 37.6737 690.414 Q35.4133 687.672 35.4133 683.411 Q35.4133 677.704 38.2295 675.444 Q40.1193 673.776 42.2315 673.443 Q44.3436 673.109 49.8278 673.109 L64.3163 673.109 Q65.9096 673.035 66.2802 671.812 Q66.6137 670.589 66.6137 667.18 L68.9482 667.18 Q68.7258 674.925 68.7258 675.666 Q68.7258 676.259 68.9482 684.263 L66.6137 684.263 Q66.6137 680.224 66.132 679.297 Q65.6132 678.334 63.1676 678.334 L45.4923 678.334 Q41.6386 678.334 39.3782 679.52 Q37.0808 680.706 37.0808 683.966 Q37.0808 687.894 40.3787 691.044 Q43.6766 694.194 49.2349 694.194 L63.1676 694.194 Q65.6132 694.194 66.132 693.267 Q66.6137 692.304 66.6137 688.265 L68.9482 688.265 Q68.7258 696.009 68.7258 696.787 Q68.7258 697.38 68.9482 705.347 L66.6137 705.347 Q66.6137 701.308 66.132 700.382 Q65.6132 699.418 63.1676 699.418 L45.4923 699.418 Q41.6386 699.418 39.3782 700.604 Q37.0808 701.79 37.0808 705.051 Q37.0808 708.979 40.3787 712.128 Q43.6766 715.278 49.2349 715.278 L63.1676 715.278 Q65.6132 715.278 66.132 714.351 Q66.6137 713.388 66.6137 709.386 L68.9482 709.386 Q68.7258 717.131 68.7258 717.872 Q68.7258 718.465 68.9482 726.431 Z" fill="#000000" fill-rule="nonzero" fill-opacity="1" /><path clip-path="url(#clip940)" d="M52.2363 663.586 Q45.0847 663.586 40.0082 658.991 Q34.9316 654.396 34.9316 647.801 Q34.9316 641.131 39.2671 637.685 Q43.6025 634.201 49.8278 634.201 Q50.9765 634.201 51.1988 634.498 Q51.4211 634.794 51.4211 636.091 L51.4211 657.287 Q59.1656 657.287 62.797 654.989 Q67.8736 651.803 67.8736 646.43 Q67.8736 645.689 67.7253 644.799 Q67.5771 643.91 66.9472 642.094 Q66.2802 640.278 64.5386 638.685 Q62.797 637.092 60.0549 636.165 Q58.9804 635.943 59.0174 635.202 Q59.0174 634.201 59.9067 634.201 Q60.5737 634.201 62.093 634.943 Q63.5752 635.647 65.3538 637.018 Q67.1325 638.389 68.4664 641.057 Q69.8004 643.688 69.8004 646.874 Q69.8004 653.544 64.7609 658.584 Q59.6844 663.586 52.2363 663.586 M49.8278 657.213 L49.8278 639.204 Q48.2344 639.204 46.4557 639.5 Q44.6771 639.76 42.2315 640.575 Q39.7488 641.353 38.1925 643.206 Q36.6362 645.059 36.6362 647.801 Q36.6362 649.023 37.1549 650.357 Q37.6737 651.654 38.9336 653.248 Q40.1934 654.841 43.0467 655.953 Q45.8999 657.064 49.8278 657.213 Z" fill="#000000" fill-rule="nonzero" fill-opacity="1" /><path clip-path="url(#clip940)" d="M49.976 599.259 Q37.1549 599.259 26.8166 594.478 Q22.4811 592.44 18.8497 589.587 Q15.2184 586.734 13.625 584.844 Q12.0316 582.954 12.0316 582.436 Q12.0316 581.694 12.7727 581.657 Q13.1433 581.657 14.0696 582.658 Q26.5201 594.886 49.976 594.849 Q73.5059 594.849 85.4747 582.954 Q86.7716 581.657 87.1792 581.657 Q87.9203 581.657 87.9203 582.436 Q87.9203 582.954 86.4011 584.77 Q84.8818 586.586 81.3987 589.402 Q77.9155 592.218 73.6541 594.256 Q63.3158 599.259 49.976 599.259 Z" fill="#000000" fill-rule="nonzero" fill-opacity="1" /><path clip-path="url(#clip940)" d="M67.9477 574.839 L57.9428 574.839 Q57.0905 574.839 56.7941 574.802 Q56.4977 574.765 56.2753 574.543 Q56.053 574.32 56.053 573.876 Q56.053 573.357 56.2753 573.172 Q56.4977 572.949 57.3499 572.801 Q62.5747 571.653 65.3538 569.207 Q68.0959 566.724 68.0959 562.241 Q68.0959 557.979 66.2061 555.83 Q64.3163 553.681 61.2037 553.681 Q55.6454 553.681 54.2373 561.574 Q53.3109 566.131 52.7181 568.021 Q52.0881 569.911 50.7171 571.578 Q48.0491 574.839 44.2695 574.839 Q40.4899 574.839 37.7108 571.986 Q34.9316 569.096 34.9316 562.722 Q34.9316 558.461 37.0808 555.571 Q36.4138 554.718 35.858 554.274 Q34.9316 553.273 34.9316 552.754 Q34.9316 552.162 35.3392 552.05 Q35.7098 551.939 36.7844 551.939 L44.4177 551.939 Q45.27 551.939 45.5664 551.976 Q45.8629 552.013 46.0852 552.236 Q46.2705 552.458 46.2705 552.94 Q46.2705 553.792 45.5664 553.829 Q36.3768 554.422 36.3768 562.722 Q36.3768 567.206 38.1184 569.207 Q39.8229 571.208 42.1574 571.208 Q43.4543 571.208 44.4548 570.615 Q45.4182 569.985 46.0111 569.207 Q46.5669 568.392 47.1227 566.909 Q47.6415 565.427 47.8268 564.538 Q48.0121 563.612 48.3826 561.87 Q49.5313 555.793 52.014 553.236 Q55.2007 550.049 59.2397 550.049 Q63.7234 550.049 66.7619 553.088 Q69.8004 556.126 69.8004 562.241 Q69.8004 567.169 66.5025 570.615 Q66.9472 571.06 67.3548 571.393 Q67.7253 571.727 67.8736 571.875 Q68.0218 571.986 68.1329 572.023 Q68.2071 572.06 68.2812 572.134 Q69.8004 573.654 69.8004 574.024 Q69.8004 574.617 69.3928 574.728 Q69.0223 574.839 67.9477 574.839 Z" fill="#000000" fill-rule="nonzero" fill-opacity="1" /><path clip-path="url(#clip940)" d="M87.1792 543.157 Q86.8087 543.157 85.8823 542.194 Q73.4318 529.966 49.976 529.966 Q26.446 529.966 14.5514 541.712 Q13.1803 543.157 12.7727 543.157 Q12.0316 543.157 12.0316 542.416 Q12.0316 541.897 13.5509 540.082 Q15.0701 538.229 18.5533 535.45 Q22.0365 532.634 26.2978 530.558 Q36.6362 525.556 49.976 525.556 Q62.797 525.556 73.1354 530.336 Q77.4708 532.374 81.1022 535.227 Q84.7336 538.081 86.327 539.97 Q87.9203 541.86 87.9203 542.416 Q87.9203 543.157 87.1792 543.157 Z" fill="#000000" fill-rule="nonzero" fill-opacity="1" /><polyline clip-path="url(#clip942)" style="stroke:#0000ff; stroke-linecap:round; stroke-linejoin:round; stroke-width:12; stroke-opacity:1; fill:none" points="1795.27,1140.71 1339.05,938.669 888.01,724.263 474.686,508.905 549.99,296.276 552.151,82.1398 "/>
<line clip-path="url(#clip942)" x1="1795.27" y1="1140.71" x2="1795.27" y2="1124.71" style="stroke:#0000ff; stroke-width:12; stroke-opacity:1"/>
<line clip-path="url(#clip942)" x1="1795.27" y1="1140.71" x2="1779.27" y2="1140.71" style="stroke:#0000ff; stroke-width:12; stroke-opacity:1"/>
<line clip-path="url(#clip942)" x1="1795.27" y1="1140.71" x2="1795.27" y2="1156.71" style="stroke:#0000ff; stroke-width:12; stroke-opacity:1"/>
<line clip-path="url(#clip942)" x1="1795.27" y1="1140.71" x2="1811.27" y2="1140.71" style="stroke:#0000ff; stroke-width:12; stroke-opacity:1"/>
<line clip-path="url(#clip942)" x1="1339.05" y1="938.669" x2="1339.05" y2="922.669" style="stroke:#0000ff; stroke-width:12; stroke-opacity:1"/>
<line clip-path="url(#clip942)" x1="1339.05" y1="938.669" x2="1323.05" y2="938.669" style="stroke:#0000ff; stroke-width:12; stroke-opacity:1"/>
<line clip-path="url(#clip942)" x1="1339.05" y1="938.669" x2="1339.05" y2="954.669" style="stroke:#0000ff; stroke-width:12; stroke-opacity:1"/>
<line clip-path="url(#clip942)" x1="1339.05" y1="938.669" x2="1355.05" y2="938.669" style="stroke:#0000ff; stroke-width:12; stroke-opacity:1"/>
<line clip-path="url(#clip942)" x1="888.01" y1="724.263" x2="888.01" y2="708.263" style="stroke:#0000ff; stroke-width:12; stroke-opacity:1"/>
<line clip-path="url(#clip942)" x1="888.01" y1="724.263" x2="872.01" y2="724.263" style="stroke:#0000ff; stroke-width:12; stroke-opacity:1"/>
<line clip-path="url(#clip942)" x1="888.01" y1="724.263" x2="888.01" y2="740.263" style="stroke:#0000ff; stroke-width:12; stroke-opacity:1"/>
<line clip-path="url(#clip942)" x1="888.01" y1="724.263" x2="904.01" y2="724.263" style="stroke:#0000ff; stroke-width:12; stroke-opacity:1"/>
<line clip-path="url(#clip942)" x1="474.686" y1="508.905" x2="474.686" y2="492.905" style="stroke:#0000ff; stroke-width:12; stroke-opacity:1"/>
<line clip-path="url(#clip942)" x1="474.686" y1="508.905" x2="458.686" y2="508.905" style="stroke:#0000ff; stroke-width:12; stroke-opacity:1"/>
<line clip-path="url(#clip942)" x1="474.686" y1="508.905" x2="474.686" y2="524.905" style="stroke:#0000ff; stroke-width:12; stroke-opacity:1"/>
<line clip-path="url(#clip942)" x1="474.686" y1="508.905" x2="490.686" y2="508.905" style="stroke:#0000ff; stroke-width:12; stroke-opacity:1"/>
<line clip-path="url(#clip942)" x1="549.99" y1="296.276" x2="549.99" y2="280.276" style="stroke:#0000ff; stroke-width:12; stroke-opacity:1"/>
<line clip-path="url(#clip942)" x1="549.99" y1="296.276" x2="533.99" y2="296.276" style="stroke:#0000ff; stroke-width:12; stroke-opacity:1"/>
<line clip-path="url(#clip942)" x1="549.99" y1="296.276" x2="549.99" y2="312.276" style="stroke:#0000ff; stroke-width:12; stroke-opacity:1"/>
<line clip-path="url(#clip942)" x1="549.99" y1="296.276" x2="565.99" y2="296.276" style="stroke:#0000ff; stroke-width:12; stroke-opacity:1"/>
<line clip-path="url(#clip942)" x1="552.151" y1="82.1398" x2="552.151" y2="66.1398" style="stroke:#0000ff; stroke-width:12; stroke-opacity:1"/>
<line clip-path="url(#clip942)" x1="552.151" y1="82.1398" x2="536.151" y2="82.1398" style="stroke:#0000ff; stroke-width:12; stroke-opacity:1"/>
<line clip-path="url(#clip942)" x1="552.151" y1="82.1398" x2="552.151" y2="98.1398" style="stroke:#0000ff; stroke-width:12; stroke-opacity:1"/>
<line clip-path="url(#clip942)" x1="552.151" y1="82.1398" x2="568.151" y2="82.1398" style="stroke:#0000ff; stroke-width:12; stroke-opacity:1"/>
<polyline clip-path="url(#clip942)" style="stroke:#7f007f; stroke-linecap:round; stroke-linejoin:round; stroke-width:12; stroke-opacity:1; fill:none" points="1536.45,1176.33 1043.83,1010.28 342.378,873.857 546.278,701.845 549.962,529.453 550.222,355.81 "/>
<circle clip-path="url(#clip942)" cx="1536.45" cy="1176.33" r="14.4" fill="#7f007f" fill-rule="evenodd" fill-opacity="1" stroke="#000000" stroke-opacity="1" stroke-width="1.536"/>
<circle clip-path="url(#clip942)" cx="1043.83" cy="1010.28" r="14.4" fill="#7f007f" fill-rule="evenodd" fill-opacity="1" stroke="#000000" stroke-opacity="1" stroke-width="1.536"/>
<circle clip-path="url(#clip942)" cx="342.378" cy="873.857" r="14.4" fill="#7f007f" fill-rule="evenodd" fill-opacity="1" stroke="#000000" stroke-opacity="1" stroke-width="1.536"/>
<circle clip-path="url(#clip942)" cx="546.278" cy="701.845" r="14.4" fill="#7f007f" fill-rule="evenodd" fill-opacity="1" stroke="#000000" stroke-opacity="1" stroke-width="1.536"/>
<circle clip-path="url(#clip942)" cx="549.962" cy="529.453" r="14.4" fill="#7f007f" fill-rule="evenodd" fill-opacity="1" stroke="#000000" stroke-opacity="1" stroke-width="1.536"/>
<circle clip-path="url(#clip942)" cx="550.222" cy="355.81" r="14.4" fill="#7f007f" fill-rule="evenodd" fill-opacity="1" stroke="#000000" stroke-opacity="1" stroke-width="1.536"/>
<polyline clip-path="url(#clip942)" style="stroke:#ff0000; stroke-linecap:round; stroke-linejoin:round; stroke-width:12; stroke-opacity:1; fill:none" points="1553.37,1245.33 727.245,1219.45 524.289,1068.1 547.895,932.244 549.685,790.035 549.789,633.523 "/>
<line clip-path="url(#clip942)" x1="1553.37" y1="1245.33" x2="1553.37" y2="1229.33" style="stroke:#ff0000; stroke-width:12; stroke-opacity:1"/>
<line clip-path="url(#clip942)" x1="1553.37" y1="1245.33" x2="1537.37" y2="1245.33" style="stroke:#ff0000; stroke-width:12; stroke-opacity:1"/>
<line clip-path="url(#clip942)" x1="1553.37" y1="1245.33" x2="1553.37" y2="1261.33" style="stroke:#ff0000; stroke-width:12; stroke-opacity:1"/>
<line clip-path="url(#clip942)" x1="1553.37" y1="1245.33" x2="1569.37" y2="1245.33" style="stroke:#ff0000; stroke-width:12; stroke-opacity:1"/>
<line clip-path="url(#clip942)" x1="727.245" y1="1219.45" x2="727.245" y2="1203.45" style="stroke:#ff0000; stroke-width:12; stroke-opacity:1"/>
<line clip-path="url(#clip942)" x1="727.245" y1="1219.45" x2="711.245" y2="1219.45" style="stroke:#ff0000; stroke-width:12; stroke-opacity:1"/>
<line clip-path="url(#clip942)" x1="727.245" y1="1219.45" x2="727.245" y2="1235.45" style="stroke:#ff0000; stroke-width:12; stroke-opacity:1"/>
<line clip-path="url(#clip942)" x1="727.245" y1="1219.45" x2="743.245" y2="1219.45" style="stroke:#ff0000; stroke-width:12; stroke-opacity:1"/>
<line clip-path="url(#clip942)" x1="524.289" y1="1068.1" x2="524.289" y2="1052.1" style="stroke:#ff0000; stroke-width:12; stroke-opacity:1"/>
<line clip-path="url(#clip942)" x1="524.289" y1="1068.1" x2="508.289" y2="1068.1" style="stroke:#ff0000; stroke-width:12; stroke-opacity:1"/>
<line clip-path="url(#clip942)" x1="524.289" y1="1068.1" x2="524.289" y2="1084.1" style="stroke:#ff0000; stroke-width:12; stroke-opacity:1"/>
<line clip-path="url(#clip942)" x1="524.289" y1="1068.1" x2="540.289" y2="1068.1" style="stroke:#ff0000; stroke-width:12; stroke-opacity:1"/>
<line clip-path="url(#clip942)" x1="547.895" y1="932.244" x2="547.895" y2="916.244" style="stroke:#ff0000; stroke-width:12; stroke-opacity:1"/>
<line clip-path="url(#clip942)" x1="547.895" y1="932.244" x2="531.895" y2="932.244" style="stroke:#ff0000; stroke-width:12; stroke-opacity:1"/>
<line clip-path="url(#clip942)" x1="547.895" y1="932.244" x2="547.895" y2="948.244" style="stroke:#ff0000; stroke-width:12; stroke-opacity:1"/>
<line clip-path="url(#clip942)" x1="547.895" y1="932.244" x2="563.895" y2="932.244" style="stroke:#ff0000; stroke-width:12; stroke-opacity:1"/>
<line clip-path="url(#clip942)" x1="549.685" y1="790.035" x2="549.685" y2="774.035" style="stroke:#ff0000; stroke-width:12; stroke-opacity:1"/>
<line clip-path="url(#clip942)" x1="549.685" y1="790.035" x2="533.685" y2="790.035" style="stroke:#ff0000; stroke-width:12; stroke-opacity:1"/>
<line clip-path="url(#clip942)" x1="549.685" y1="790.035" x2="549.685" y2="806.035" style="stroke:#ff0000; stroke-width:12; stroke-opacity:1"/>
<line clip-path="url(#clip942)" x1="549.685" y1="790.035" x2="565.685" y2="790.035" style="stroke:#ff0000; stroke-width:12; stroke-opacity:1"/>
<line clip-path="url(#clip942)" x1="549.789" y1="633.523" x2="549.789" y2="617.523" style="stroke:#ff0000; stroke-width:12; stroke-opacity:1"/>
<line clip-path="url(#clip942)" x1="549.789" y1="633.523" x2="533.789" y2="633.523" style="stroke:#ff0000; stroke-width:12; stroke-opacity:1"/>
<line clip-path="url(#clip942)" x1="549.789" y1="633.523" x2="549.789" y2="649.523" style="stroke:#ff0000; stroke-width:12; stroke-opacity:1"/>
<line clip-path="url(#clip942)" x1="549.789" y1="633.523" x2="565.789" y2="633.523" style="stroke:#ff0000; stroke-width:12; stroke-opacity:1"/>
<path clip-path="url(#clip940)" d="M1904.12 295.703 L2256.76 295.703 L2256.76 88.3434 L1904.12 88.3434  Z" fill="#ffffff" fill-rule="evenodd" fill-opacity="1"/>
<polyline clip-path="url(#clip940)" style="stroke:#000000; stroke-linecap:round; stroke-linejoin:round; stroke-width:4; stroke-opacity:1; fill:none" points="1904.12,295.703 2256.76,295.703 2256.76,88.3434 1904.12,88.3434 1904.12,295.703 "/>
<polyline clip-path="url(#clip940)" style="stroke:#0000ff; stroke-linecap:round; stroke-linejoin:round; stroke-width:12; stroke-opacity:1; fill:none" points="1925.87,140.183 2056.4,140.183 "/>
<line clip-path="url(#clip940)" x1="1991.14" y1="140.183" x2="1991.14" y2="120.04" style="stroke:#0000ff; stroke-width:12; stroke-opacity:1"/>
<line clip-path="url(#clip940)" x1="1991.14" y1="140.183" x2="1970.99" y2="140.183" style="stroke:#0000ff; stroke-width:12; stroke-opacity:1"/>
<line clip-path="url(#clip940)" x1="1991.14" y1="140.183" x2="1991.14" y2="160.327" style="stroke:#0000ff; stroke-width:12; stroke-opacity:1"/>
<line clip-path="url(#clip940)" x1="1991.14" y1="140.183" x2="2011.28" y2="140.183" style="stroke:#0000ff; stroke-width:12; stroke-opacity:1"/>
<path clip-path="url(#clip940)" d="M2078.16 157.463 L2078.16 155.907 L2079.37 155.907 Q2082.11 155.907 2082.73 155.462 Q2083.37 154.993 2083.37 153.511 L2083.37 127.004 Q2083.37 125.547 2082.73 125.102 Q2082.09 124.633 2079.37 124.633 L2078.16 124.633 L2078.16 123.052 L2106.64 123.052 L2108.05 134.44 L2106.79 134.44 Q2106.44 131.55 2105.98 129.894 Q2105.53 128.215 2104.42 126.93 Q2103.33 125.646 2101.53 125.151 Q2099.75 124.633 2096.86 124.633 L2090.34 124.633 Q2088.61 124.633 2088.24 125.003 Q2087.87 125.349 2087.87 126.658 L2087.87 138.788 L2092.41 138.788 Q2095.9 138.788 2096.88 137.577 Q2097.87 136.367 2097.87 132.884 L2099.16 132.884 L2099.16 146.273 L2097.87 146.273 Q2097.87 142.839 2096.88 141.604 Q2095.9 140.369 2092.41 140.369 L2087.87 140.369 L2087.87 153.881 Q2087.87 155.191 2088.24 155.561 Q2088.63 155.907 2090.34 155.907 L2097.08 155.907 Q2099.26 155.907 2100.84 155.635 Q2102.44 155.339 2103.55 154.647 Q2104.67 153.931 2105.41 153.116 Q2106.17 152.3 2106.69 150.843 Q2107.23 149.361 2107.53 148.002 Q2107.85 146.643 2108.2 144.42 L2109.46 144.42 L2107.33 157.463 L2078.16 157.463 Z" fill="#000000" fill-rule="nonzero" fill-opacity="1" /><path clip-path="url(#clip940)" d="M2112.55 157.463 L2112.55 155.907 L2113.76 155.907 Q2116.5 155.907 2117.12 155.462 Q2117.76 154.993 2117.76 153.511 L2117.76 126.856 Q2117.76 125.398 2117.12 124.954 Q2116.47 124.484 2113.76 124.484 L2112.55 124.484 L2112.55 122.903 Q2114.32 123.052 2120.03 123.052 Q2125.69 123.052 2127.47 122.903 L2127.47 124.484 L2126.26 124.484 Q2123.51 124.484 2122.87 124.954 Q2122.25 125.398 2122.25 126.856 L2122.25 142.938 L2138.09 127.819 Q2139 127.004 2139 126.14 Q2139 125.843 2138.86 125.522 Q2138.73 125.176 2138.14 124.83 Q2137.57 124.484 2136.66 124.484 L2136.66 122.903 Q2138.39 123.052 2143.1 123.052 Q2146.09 123.052 2147.4 122.903 L2147.4 124.484 Q2143.2 124.534 2140.21 127.523 L2131.1 136.268 L2142.78 153.461 Q2143.85 155.018 2144.88 155.462 Q2145.92 155.907 2148.09 155.907 L2148.09 157.463 Q2144.91 157.315 2142.29 157.315 Q2136.83 157.315 2135.05 157.463 L2135.05 155.907 Q2138.04 155.907 2138.04 154.376 Q2138.04 153.807 2137.27 152.646 L2128.11 139.109 L2122.25 144.667 L2122.25 153.511 Q2122.25 154.968 2122.87 155.438 Q2123.51 155.907 2126.26 155.907 L2127.47 155.907 L2127.47 157.463 Q2125.69 157.315 2119.98 157.315 Q2114.32 157.315 2112.55 157.463 Z" fill="#000000" fill-rule="nonzero" fill-opacity="1" /><path clip-path="url(#clip940)" d="M2154.67 128.585 L2154.67 127.004 Q2160.74 127.004 2163.88 123.768 Q2164.74 123.768 2164.89 123.966 Q2165.04 124.163 2165.04 125.077 L2165.04 153.461 Q2165.04 154.968 2165.78 155.438 Q2166.52 155.907 2169.76 155.907 L2171.36 155.907 L2171.36 157.463 Q2169.59 157.315 2163.16 157.315 Q2156.74 157.315 2154.99 157.463 L2154.99 155.907 L2156.59 155.907 Q2159.78 155.907 2160.54 155.462 Q2161.31 154.993 2161.31 153.461 L2161.31 127.251 Q2158.67 128.585 2154.67 128.585 Z" fill="#000000" fill-rule="nonzero" fill-opacity="1" /><path clip-path="url(#clip940)" d="M2180.48 144.815 Q2180.48 136.268 2183.67 129.376 Q2185.03 126.485 2186.93 124.064 Q2188.83 121.644 2190.09 120.581 Q2191.35 119.519 2191.7 119.519 Q2192.19 119.519 2192.21 120.013 Q2192.21 120.26 2191.55 120.878 Q2183.4 129.178 2183.42 144.815 Q2183.42 160.502 2191.35 168.481 Q2192.21 169.346 2192.21 169.617 Q2192.21 170.112 2191.7 170.112 Q2191.35 170.112 2190.14 169.099 Q2188.93 168.086 2187.05 165.764 Q2185.17 163.442 2183.82 160.601 Q2180.48 153.709 2180.48 144.815 Z" fill="#000000" fill-rule="nonzero" fill-opacity="1" /><path clip-path="url(#clip940)" d="M2197.6 157.463 Q2197.6 156.549 2197.67 156.278 Q2197.77 156.006 2198.17 155.586 L2207.88 144.766 Q2213.19 138.788 2213.19 133.575 Q2213.19 130.191 2211.41 127.77 Q2209.66 125.349 2206.42 125.349 Q2204.2 125.349 2202.32 126.708 Q2200.44 128.066 2199.58 130.487 Q2199.72 130.438 2200.24 130.438 Q2201.5 130.438 2202.19 131.228 Q2202.91 132.019 2202.91 133.081 Q2202.91 134.44 2202.02 135.107 Q2201.16 135.749 2200.29 135.749 Q2199.95 135.749 2199.48 135.675 Q2199.03 135.601 2198.32 134.909 Q2197.6 134.193 2197.6 132.933 Q2197.6 129.4 2200.27 126.584 Q2202.96 123.768 2207.06 123.768 Q2211.71 123.768 2214.74 126.535 Q2217.81 129.277 2217.81 133.575 Q2217.81 135.082 2217.34 136.466 Q2216.89 137.824 2216.28 138.887 Q2215.68 139.949 2214.05 141.653 Q2212.42 143.358 2211.11 144.568 Q2209.8 145.779 2206.86 148.348 L2201.5 153.56 L2210.62 153.56 Q2215.07 153.56 2215.41 153.165 Q2215.91 152.449 2216.52 148.669 L2217.81 148.669 L2216.37 157.463 L2197.6 157.463 Z" fill="#000000" fill-rule="nonzero" fill-opacity="1" /><path clip-path="url(#clip940)" d="M2223.27 169.617 Q2223.27 169.37 2223.91 168.753 Q2232.06 160.453 2232.06 144.815 Q2232.06 129.129 2224.23 121.199 Q2223.27 120.285 2223.27 120.013 Q2223.27 119.519 2223.76 119.519 Q2224.11 119.519 2225.32 120.532 Q2226.55 121.545 2228.4 123.867 Q2230.28 126.189 2231.67 129.03 Q2235 135.922 2235 144.815 Q2235 153.363 2231.81 160.255 Q2230.46 163.145 2228.55 165.566 Q2226.65 167.987 2225.39 169.049 Q2224.13 170.112 2223.76 170.112 Q2223.27 170.112 2223.27 169.617 Z" fill="#000000" fill-rule="nonzero" fill-opacity="1" /><polyline clip-path="url(#clip940)" style="stroke:#7f007f; stroke-linecap:round; stroke-linejoin:round; stroke-width:12; stroke-opacity:1; fill:none" points="1925.87,192.023 2056.4,192.023 "/>
<circle clip-path="url(#clip940)" cx="1991.14" cy="192.023" r="18.1293" fill="#7f007f" fill-rule="evenodd" fill-opacity="1" stroke="#000000" stroke-opacity="1" stroke-width="2.31304"/>
<path clip-path="url(#clip940)" d="M2078.16 209.303 L2078.16 207.747 L2079.37 207.747 Q2082.11 207.747 2082.73 207.302 Q2083.37 206.833 2083.37 205.351 L2083.37 178.844 Q2083.37 177.387 2082.73 176.942 Q2082.09 176.473 2079.37 176.473 L2078.16 176.473 L2078.16 174.892 L2106.64 174.892 L2108.05 186.28 L2106.79 186.28 Q2106.44 183.39 2105.98 181.734 Q2105.53 180.055 2104.42 178.77 Q2103.33 177.486 2101.53 176.991 Q2099.75 176.473 2096.86 176.473 L2090.34 176.473 Q2088.61 176.473 2088.24 176.843 Q2087.87 177.189 2087.87 178.498 L2087.87 190.628 L2092.41 190.628 Q2095.9 190.628 2096.88 189.417 Q2097.87 188.207 2097.87 184.724 L2099.16 184.724 L2099.16 198.113 L2097.87 198.113 Q2097.87 194.679 2096.88 193.444 Q2095.9 192.209 2092.41 192.209 L2087.87 192.209 L2087.87 205.721 Q2087.87 207.031 2088.24 207.401 Q2088.63 207.747 2090.34 207.747 L2097.08 207.747 Q2099.26 207.747 2100.84 207.475 Q2102.44 207.179 2103.55 206.487 Q2104.67 205.771 2105.41 204.956 Q2106.17 204.14 2106.69 202.683 Q2107.23 201.201 2107.53 199.842 Q2107.85 198.483 2108.2 196.26 L2109.46 196.26 L2107.33 209.303 L2078.16 209.303 Z" fill="#000000" fill-rule="nonzero" fill-opacity="1" /><path clip-path="url(#clip940)" d="M2112.55 209.303 L2112.55 207.747 L2113.76 207.747 Q2116.5 207.747 2117.12 207.302 Q2117.76 206.833 2117.76 205.351 L2117.76 178.696 Q2117.76 177.238 2117.12 176.794 Q2116.47 176.324 2113.76 176.324 L2112.55 176.324 L2112.55 174.743 Q2114.32 174.892 2120.03 174.892 Q2125.69 174.892 2127.47 174.743 L2127.47 176.324 L2126.26 176.324 Q2123.51 176.324 2122.87 176.794 Q2122.25 177.238 2122.25 178.696 L2122.25 194.778 L2138.09 179.659 Q2139 178.844 2139 177.98 Q2139 177.683 2138.86 177.362 Q2138.73 177.016 2138.14 176.67 Q2137.57 176.324 2136.66 176.324 L2136.66 174.743 Q2138.39 174.892 2143.1 174.892 Q2146.09 174.892 2147.4 174.743 L2147.4 176.324 Q2143.2 176.374 2140.21 179.363 L2131.1 188.108 L2142.78 205.301 Q2143.85 206.858 2144.88 207.302 Q2145.92 207.747 2148.09 207.747 L2148.09 209.303 Q2144.91 209.155 2142.29 209.155 Q2136.83 209.155 2135.05 209.303 L2135.05 207.747 Q2138.04 207.747 2138.04 206.216 Q2138.04 205.647 2137.27 204.486 L2128.11 190.949 L2122.25 196.507 L2122.25 205.351 Q2122.25 206.808 2122.87 207.278 Q2123.51 207.747 2126.26 207.747 L2127.47 207.747 L2127.47 209.303 Q2125.69 209.155 2119.98 209.155 Q2114.32 209.155 2112.55 209.303 Z" fill="#000000" fill-rule="nonzero" fill-opacity="1" /><path clip-path="url(#clip940)" d="M2154.67 180.425 L2154.67 178.844 Q2160.74 178.844 2163.88 175.608 Q2164.74 175.608 2164.89 175.806 Q2165.04 176.003 2165.04 176.917 L2165.04 205.301 Q2165.04 206.808 2165.78 207.278 Q2166.52 207.747 2169.76 207.747 L2171.36 207.747 L2171.36 209.303 Q2169.59 209.155 2163.16 209.155 Q2156.74 209.155 2154.99 209.303 L2154.99 207.747 L2156.59 207.747 Q2159.78 207.747 2160.54 207.302 Q2161.31 206.833 2161.31 205.301 L2161.31 179.091 Q2158.67 180.425 2154.67 180.425 Z" fill="#000000" fill-rule="nonzero" fill-opacity="1" /><path clip-path="url(#clip940)" d="M2180.48 196.655 Q2180.48 188.108 2183.67 181.216 Q2185.03 178.325 2186.93 175.904 Q2188.83 173.484 2190.09 172.421 Q2191.35 171.359 2191.7 171.359 Q2192.19 171.359 2192.21 171.853 Q2192.21 172.1 2191.55 172.718 Q2183.4 181.018 2183.42 196.655 Q2183.42 212.342 2191.35 220.321 Q2192.21 221.186 2192.21 221.457 Q2192.21 221.952 2191.7 221.952 Q2191.35 221.952 2190.14 220.939 Q2188.93 219.926 2187.05 217.604 Q2185.17 215.282 2183.82 212.441 Q2180.48 205.549 2180.48 196.655 Z" fill="#000000" fill-rule="nonzero" fill-opacity="1" /><path clip-path="url(#clip940)" d="M2197.2 202.485 Q2197.2 200.978 2198.07 200.262 Q2198.93 199.546 2200.05 199.546 Q2201.21 199.546 2202.02 200.311 Q2202.86 201.053 2202.86 202.362 Q2202.86 203.77 2201.87 204.56 Q2200.91 205.351 2199.53 205.153 Q2200.74 207.179 2202.96 208.093 Q2205.21 209.007 2207.28 209.007 Q2209.46 209.007 2211.21 207.13 Q2212.99 205.252 2212.99 200.657 Q2212.99 196.754 2211.46 194.506 Q2209.95 192.258 2206.96 192.258 L2204.74 192.258 Q2203.97 192.258 2203.75 192.184 Q2203.53 192.11 2203.53 191.69 Q2203.53 191.196 2204.29 191.097 Q2205.06 191.097 2206.27 190.949 Q2209.21 190.85 2210.77 188.306 Q2212.17 185.934 2212.17 182.55 Q2212.17 179.462 2210.69 178.177 Q2209.24 176.868 2207.33 176.868 Q2205.55 176.868 2203.6 177.609 Q2201.65 178.35 2200.59 180.005 Q2203.73 180.005 2203.73 182.55 Q2203.73 183.661 2203.01 184.402 Q2202.32 185.119 2201.16 185.119 Q2200.05 185.119 2199.3 184.427 Q2198.56 183.711 2198.56 182.5 Q2198.56 179.61 2201.13 177.609 Q2203.73 175.608 2207.53 175.608 Q2211.29 175.608 2214.05 177.584 Q2216.84 179.561 2216.84 182.599 Q2216.84 185.588 2214.87 188.034 Q2212.89 190.479 2209.75 191.492 Q2213.61 192.258 2215.91 194.877 Q2218.2 197.471 2218.2 200.657 Q2218.2 204.61 2215.09 207.525 Q2211.98 210.415 2207.43 210.415 Q2203.23 210.415 2200.22 208.142 Q2197.2 205.87 2197.2 202.485 Z" fill="#000000" fill-rule="nonzero" fill-opacity="1" /><path clip-path="url(#clip940)" d="M2223.27 221.457 Q2223.27 221.21 2223.91 220.593 Q2232.06 212.293 2232.06 196.655 Q2232.06 180.969 2224.23 173.039 Q2223.27 172.125 2223.27 171.853 Q2223.27 171.359 2223.76 171.359 Q2224.11 171.359 2225.32 172.372 Q2226.55 173.385 2228.4 175.707 Q2230.28 178.029 2231.67 180.87 Q2235 187.762 2235 196.655 Q2235 205.203 2231.81 212.095 Q2230.46 214.985 2228.55 217.406 Q2226.65 219.827 2225.39 220.889 Q2224.13 221.952 2223.76 221.952 Q2223.27 221.952 2223.27 221.457 Z" fill="#000000" fill-rule="nonzero" fill-opacity="1" /><polyline clip-path="url(#clip940)" style="stroke:#ff0000; stroke-linecap:round; stroke-linejoin:round; stroke-width:12; stroke-opacity:1; fill:none" points="1925.87,243.863 2056.4,243.863 "/>
<line clip-path="url(#clip940)" x1="1991.14" y1="243.863" x2="1991.14" y2="223.72" style="stroke:#ff0000; stroke-width:12; stroke-opacity:1"/>
<line clip-path="url(#clip940)" x1="1991.14" y1="243.863" x2="1970.99" y2="243.863" style="stroke:#ff0000; stroke-width:12; stroke-opacity:1"/>
<line clip-path="url(#clip940)" x1="1991.14" y1="243.863" x2="1991.14" y2="264.007" style="stroke:#ff0000; stroke-width:12; stroke-opacity:1"/>
<line clip-path="url(#clip940)" x1="1991.14" y1="243.863" x2="2011.28" y2="243.863" style="stroke:#ff0000; stroke-width:12; stroke-opacity:1"/>
<path clip-path="url(#clip940)" d="M2078.16 261.143 L2078.16 259.587 L2079.37 259.587 Q2082.11 259.587 2082.73 259.142 Q2083.37 258.673 2083.37 257.191 L2083.37 230.684 Q2083.37 229.227 2082.73 228.782 Q2082.09 228.313 2079.37 228.313 L2078.16 228.313 L2078.16 226.732 L2106.64 226.732 L2108.05 238.12 L2106.79 238.12 Q2106.44 235.23 2105.98 233.574 Q2105.53 231.895 2104.42 230.61 Q2103.33 229.326 2101.53 228.831 Q2099.75 228.313 2096.86 228.313 L2090.34 228.313 Q2088.61 228.313 2088.24 228.683 Q2087.87 229.029 2087.87 230.338 L2087.87 242.468 L2092.41 242.468 Q2095.9 242.468 2096.88 241.257 Q2097.87 240.047 2097.87 236.564 L2099.16 236.564 L2099.16 249.953 L2097.87 249.953 Q2097.87 246.519 2096.88 245.284 Q2095.9 244.049 2092.41 244.049 L2087.87 244.049 L2087.87 257.561 Q2087.87 258.871 2088.24 259.241 Q2088.63 259.587 2090.34 259.587 L2097.08 259.587 Q2099.26 259.587 2100.84 259.315 Q2102.44 259.019 2103.55 258.327 Q2104.67 257.611 2105.41 256.796 Q2106.17 255.98 2106.69 254.523 Q2107.23 253.041 2107.53 251.682 Q2107.85 250.323 2108.2 248.1 L2109.46 248.1 L2107.33 261.143 L2078.16 261.143 Z" fill="#000000" fill-rule="nonzero" fill-opacity="1" /><path clip-path="url(#clip940)" d="M2112.55 261.143 L2112.55 259.587 L2113.76 259.587 Q2116.5 259.587 2117.12 259.142 Q2117.76 258.673 2117.76 257.191 L2117.76 230.536 Q2117.76 229.078 2117.12 228.634 Q2116.47 228.164 2113.76 228.164 L2112.55 228.164 L2112.55 226.583 Q2114.32 226.732 2120.03 226.732 Q2125.69 226.732 2127.47 226.583 L2127.47 228.164 L2126.26 228.164 Q2123.51 228.164 2122.87 228.634 Q2122.25 229.078 2122.25 230.536 L2122.25 246.618 L2138.09 231.499 Q2139 230.684 2139 229.82 Q2139 229.523 2138.86 229.202 Q2138.73 228.856 2138.14 228.51 Q2137.57 228.164 2136.66 228.164 L2136.66 226.583 Q2138.39 226.732 2143.1 226.732 Q2146.09 226.732 2147.4 226.583 L2147.4 228.164 Q2143.2 228.214 2140.21 231.203 L2131.1 239.948 L2142.78 257.141 Q2143.85 258.698 2144.88 259.142 Q2145.92 259.587 2148.09 259.587 L2148.09 261.143 Q2144.91 260.995 2142.29 260.995 Q2136.83 260.995 2135.05 261.143 L2135.05 259.587 Q2138.04 259.587 2138.04 258.056 Q2138.04 257.487 2137.27 256.326 L2128.11 242.789 L2122.25 248.347 L2122.25 257.191 Q2122.25 258.648 2122.87 259.118 Q2123.51 259.587 2126.26 259.587 L2127.47 259.587 L2127.47 261.143 Q2125.69 260.995 2119.98 260.995 Q2114.32 260.995 2112.55 261.143 Z" fill="#000000" fill-rule="nonzero" fill-opacity="1" /><path clip-path="url(#clip940)" d="M2154.67 232.265 L2154.67 230.684 Q2160.74 230.684 2163.88 227.448 Q2164.74 227.448 2164.89 227.646 Q2165.04 227.843 2165.04 228.757 L2165.04 257.141 Q2165.04 258.648 2165.78 259.118 Q2166.52 259.587 2169.76 259.587 L2171.36 259.587 L2171.36 261.143 Q2169.59 260.995 2163.16 260.995 Q2156.74 260.995 2154.99 261.143 L2154.99 259.587 L2156.59 259.587 Q2159.78 259.587 2160.54 259.142 Q2161.31 258.673 2161.31 257.141 L2161.31 230.931 Q2158.67 232.265 2154.67 232.265 Z" fill="#000000" fill-rule="nonzero" fill-opacity="1" /><path clip-path="url(#clip940)" d="M2180.48 248.495 Q2180.48 239.948 2183.67 233.056 Q2185.03 230.165 2186.93 227.744 Q2188.83 225.324 2190.09 224.261 Q2191.35 223.199 2191.7 223.199 Q2192.19 223.199 2192.21 223.693 Q2192.21 223.94 2191.55 224.558 Q2183.4 232.858 2183.42 248.495 Q2183.42 264.182 2191.35 272.161 Q2192.21 273.026 2192.21 273.297 Q2192.21 273.792 2191.7 273.792 Q2191.35 273.792 2190.14 272.779 Q2188.93 271.766 2187.05 269.444 Q2185.17 267.122 2183.82 264.281 Q2180.48 257.389 2180.48 248.495 Z" fill="#000000" fill-rule="nonzero" fill-opacity="1" /><path clip-path="url(#clip940)" d="M2196.49 252.794 L2196.49 251.237 L2212.03 227.497 Q2212.42 226.88 2213.04 226.905 Q2213.61 226.905 2213.73 227.127 Q2213.85 227.349 2213.85 228.214 L2213.85 251.237 L2218.92 251.237 L2218.92 252.794 L2213.85 252.794 L2213.85 257.191 Q2213.85 258.648 2214.45 259.118 Q2215.07 259.587 2217.68 259.587 L2218.75 259.587 L2218.75 261.143 Q2216.67 260.995 2211.88 260.995 Q2207.11 260.995 2205.04 261.143 L2205.04 259.587 L2206.1 259.587 Q2208.72 259.587 2209.33 259.142 Q2209.95 258.673 2209.95 257.191 L2209.95 252.794 L2196.49 252.794 M2197.92 251.237 L2210.25 251.237 L2210.25 232.364 L2197.92 251.237 Z" fill="#000000" fill-rule="nonzero" fill-opacity="1" /><path clip-path="url(#clip940)" d="M2223.27 273.297 Q2223.27 273.05 2223.91 272.433 Q2232.06 264.133 2232.06 248.495 Q2232.06 232.809 2224.23 224.879 Q2223.27 223.965 2223.27 223.693 Q2223.27 223.199 2223.76 223.199 Q2224.11 223.199 2225.32 224.212 Q2226.55 225.225 2228.4 227.547 Q2230.28 229.869 2231.67 232.71 Q2235 239.602 2235 248.495 Q2235 257.043 2231.81 263.935 Q2230.46 266.825 2228.55 269.246 Q2226.65 271.667 2225.39 272.729 Q2224.13 273.792 2223.76 273.792 Q2223.27 273.792 2223.27 273.297 Z" fill="#000000" fill-rule="nonzero" fill-opacity="1" /></svg>
