<?xml version="1.0" encoding="utf-8"?>
<svg xmlns="http://www.w3.org/2000/svg" xmlns:xlink="http://www.w3.org/1999/xlink" width="576" height="384" viewBox="0 0 2304 1536">
<defs>
  <clipPath id="clip120">
    <rect x="0" y="0" width="2304" height="1536"/>
  </clipPath>
</defs>
<path clip-path="url(#clip120)" d="M0 1536 L2304 1536 L2304 0 L0 0  Z" fill="#ffffff" fill-rule="evenodd" fill-opacity="1"/>
<defs>
  <clipPath id="clip121">
    <rect x="460" y="0" width="1614" height="1536"/>
  </clipPath>
</defs>
<path clip-path="url(#clip120)" d="M298.791 1280.22 L1838.85 1280.22 L1838.85 47.2441 L298.791 47.2441  Z" fill="#ffffff" fill-rule="evenodd" fill-opacity="1"/>
<defs>
  <clipPath id="clip122">
    <rect x="298" y="47" width="1541" height="1234"/>
  </clipPath>
</defs>
<polyline clip-path="url(#clip122)" style="stroke:#000000; stroke-linecap:round; stroke-linejoin:round; stroke-width:2.8; stroke-opacity:0.4; fill:none" points="449.803,1280.22 449.803,47.2441 "/>
<polyline clip-path="url(#clip122)" style="stroke:#000000; stroke-linecap:round; stroke-linejoin:round; stroke-width:2.8; stroke-opacity:0.4; fill:none" points="744.297,1280.22 744.297,47.2441 "/>
<polyline clip-path="url(#clip122)" style="stroke:#000000; stroke-linecap:round; stroke-linejoin:round; stroke-width:2.8; stroke-opacity:0.4; fill:none" points="1038.79,1280.22 1038.79,47.2441 "/>
<polyline clip-path="url(#clip122)" style="stroke:#000000; stroke-linecap:round; stroke-linejoin:round; stroke-width:2.8; stroke-opacity:0.4; fill:none" points="1333.29,1280.22 1333.29,47.2441 "/>
<polyline clip-path="url(#clip122)" style="stroke:#000000; stroke-linecap:round; stroke-linejoin:round; stroke-width:2.8; stroke-opacity:0.4; fill:none" points="1627.78,1280.22 1627.78,47.2441 "/>
<polyline clip-path="url(#clip122)" style="stroke:#000000; stroke-linecap:round; stroke-linejoin:round; stroke-width:2; stroke-opacity:0.06; fill:none" points="350.487,1280.22 350.487,47.2441 "/>
<polyline clip-path="url(#clip122)" style="stroke:#000000; stroke-linecap:round; stroke-linejoin:round; stroke-width:2; stroke-opacity:0.06; fill:none" points="392.724,1280.22 392.724,47.2441 "/>
<polyline clip-path="url(#clip122)" style="stroke:#000000; stroke-linecap:round; stroke-linejoin:round; stroke-width:2; stroke-opacity:0.06; fill:none" points="424.422,1280.22 424.422,47.2441 "/>
<polyline clip-path="url(#clip122)" style="stroke:#000000; stroke-linecap:round; stroke-linejoin:round; stroke-width:2; stroke-opacity:0.06; fill:none" points="581.488,1280.22 581.488,47.2441 "/>
<polyline clip-path="url(#clip122)" style="stroke:#000000; stroke-linecap:round; stroke-linejoin:round; stroke-width:2; stroke-opacity:0.06; fill:none" points="644.981,1280.22 644.981,47.2441 "/>
<polyline clip-path="url(#clip122)" style="stroke:#000000; stroke-linecap:round; stroke-linejoin:round; stroke-width:2; stroke-opacity:0.06; fill:none" points="687.218,1280.22 687.218,47.2441 "/>
<polyline clip-path="url(#clip122)" style="stroke:#000000; stroke-linecap:round; stroke-linejoin:round; stroke-width:2; stroke-opacity:0.06; fill:none" points="718.916,1280.22 718.916,47.2441 "/>
<polyline clip-path="url(#clip122)" style="stroke:#000000; stroke-linecap:round; stroke-linejoin:round; stroke-width:2; stroke-opacity:0.06; fill:none" points="875.982,1280.22 875.982,47.2441 "/>
<polyline clip-path="url(#clip122)" style="stroke:#000000; stroke-linecap:round; stroke-linejoin:round; stroke-width:2; stroke-opacity:0.06; fill:none" points="939.475,1280.22 939.475,47.2441 "/>
<polyline clip-path="url(#clip122)" style="stroke:#000000; stroke-linecap:round; stroke-linejoin:round; stroke-width:2; stroke-opacity:0.06; fill:none" points="981.712,1280.22 981.712,47.2441 "/>
<polyline clip-path="url(#clip122)" style="stroke:#000000; stroke-linecap:round; stroke-linejoin:round; stroke-width:2; stroke-opacity:0.06; fill:none" points="1013.41,1280.22 1013.41,47.2441 "/>
<polyline clip-path="url(#clip122)" style="stroke:#000000; stroke-linecap:round; stroke-linejoin:round; stroke-width:2; stroke-opacity:0.06; fill:none" points="1170.48,1280.22 1170.48,47.2441 "/>
<polyline clip-path="url(#clip122)" style="stroke:#000000; stroke-linecap:round; stroke-linejoin:round; stroke-width:2; stroke-opacity:0.06; fill:none" points="1233.97,1280.22 1233.97,47.2441 "/>
<polyline clip-path="url(#clip122)" style="stroke:#000000; stroke-linecap:round; stroke-linejoin:round; stroke-width:2; stroke-opacity:0.06; fill:none" points="1276.21,1280.22 1276.21,47.2441 "/>
<polyline clip-path="url(#clip122)" style="stroke:#000000; stroke-linecap:round; stroke-linejoin:round; stroke-width:2; stroke-opacity:0.06; fill:none" points="1307.9,1280.22 1307.9,47.2441 "/>
<polyline clip-path="url(#clip122)" style="stroke:#000000; stroke-linecap:round; stroke-linejoin:round; stroke-width:2; stroke-opacity:0.06; fill:none" points="1464.97,1280.22 1464.97,47.2441 "/>
<polyline clip-path="url(#clip122)" style="stroke:#000000; stroke-linecap:round; stroke-linejoin:round; stroke-width:2; stroke-opacity:0.06; fill:none" points="1528.46,1280.22 1528.46,47.2441 "/>
<polyline clip-path="url(#clip122)" style="stroke:#000000; stroke-linecap:round; stroke-linejoin:round; stroke-width:2; stroke-opacity:0.06; fill:none" points="1570.7,1280.22 1570.7,47.2441 "/>
<polyline clip-path="url(#clip122)" style="stroke:#000000; stroke-linecap:round; stroke-linejoin:round; stroke-width:2; stroke-opacity:0.06; fill:none" points="1602.4,1280.22 1602.4,47.2441 "/>
<polyline clip-path="url(#clip122)" style="stroke:#000000; stroke-linecap:round; stroke-linejoin:round; stroke-width:2; stroke-opacity:0.06; fill:none" points="1759.46,1280.22 1759.46,47.2441 "/>
<polyline clip-path="url(#clip122)" style="stroke:#000000; stroke-linecap:round; stroke-linejoin:round; stroke-width:2; stroke-opacity:0.06; fill:none" points="1822.96,1280.22 1822.96,47.2441 "/>
<polyline clip-path="url(#clip120)" style="stroke:#000000; stroke-linecap:round; stroke-linejoin:round; stroke-width:4; stroke-opacity:1; fill:none" points="298.791,1280.22 1838.85,1280.22 "/>
<polyline clip-path="url(#clip120)" style="stroke:#000000; stroke-linecap:round; stroke-linejoin:round; stroke-width:4; stroke-opacity:1; fill:none" points="298.791,47.2441 1838.85,47.2441 "/>
<polyline clip-path="url(#clip120)" style="stroke:#000000; stroke-linecap:round; stroke-linejoin:round; stroke-width:4; stroke-opacity:1; fill:none" points="449.803,1280.22 449.803,1261.33 "/>
<polyline clip-path="url(#clip120)" style="stroke:#000000; stroke-linecap:round; stroke-linejoin:round; stroke-width:4; stroke-opacity:1; fill:none" points="744.297,1280.22 744.297,1261.33 "/>
<polyline clip-path="url(#clip120)" style="stroke:#000000; stroke-linecap:round; stroke-linejoin:round; stroke-width:4; stroke-opacity:1; fill:none" points="1038.79,1280.22 1038.79,1261.33 "/>
<polyline clip-path="url(#clip120)" style="stroke:#000000; stroke-linecap:round; stroke-linejoin:round; stroke-width:4; stroke-opacity:1; fill:none" points="1333.29,1280.22 1333.29,1261.33 "/>
<polyline clip-path="url(#clip120)" style="stroke:#000000; stroke-linecap:round; stroke-linejoin:round; stroke-width:4; stroke-opacity:1; fill:none" points="1627.78,1280.22 1627.78,1261.33 "/>
<polyline clip-path="url(#clip120)" style="stroke:#000000; stroke-linecap:round; stroke-linejoin:round; stroke-width:4; stroke-opacity:1; fill:none" points="350.487,1280.22 350.487,1270.78 "/>
<polyline clip-path="url(#clip120)" style="stroke:#000000; stroke-linecap:round; stroke-linejoin:round; stroke-width:4; stroke-opacity:1; fill:none" points="392.724,1280.22 392.724,1270.78 "/>
<polyline clip-path="url(#clip120)" style="stroke:#000000; stroke-linecap:round; stroke-linejoin:round; stroke-width:4; stroke-opacity:1; fill:none" points="424.422,1280.22 424.422,1270.78 "/>
<polyline clip-path="url(#clip120)" style="stroke:#000000; stroke-linecap:round; stroke-linejoin:round; stroke-width:4; stroke-opacity:1; fill:none" points="581.488,1280.22 581.488,1270.78 "/>
<polyline clip-path="url(#clip120)" style="stroke:#000000; stroke-linecap:round; stroke-linejoin:round; stroke-width:4; stroke-opacity:1; fill:none" points="644.981,1280.22 644.981,1270.78 "/>
<polyline clip-path="url(#clip120)" style="stroke:#000000; stroke-linecap:round; stroke-linejoin:round; stroke-width:4; stroke-opacity:1; fill:none" points="687.218,1280.22 687.218,1270.78 "/>
<polyline clip-path="url(#clip120)" style="stroke:#000000; stroke-linecap:round; stroke-linejoin:round; stroke-width:4; stroke-opacity:1; fill:none" points="718.916,1280.22 718.916,1270.78 "/>
<polyline clip-path="url(#clip120)" style="stroke:#000000; stroke-linecap:round; stroke-linejoin:round; stroke-width:4; stroke-opacity:1; fill:none" points="875.982,1280.22 875.982,1270.78 "/>
<polyline clip-path="url(#clip120)" style="stroke:#000000; stroke-linecap:round; stroke-linejoin:round; stroke-width:4; stroke-opacity:1; fill:none" points="939.475,1280.22 939.475,1270.78 "/>
<polyline clip-path="url(#clip120)" style="stroke:#000000; stroke-linecap:round; stroke-linejoin:round; stroke-width:4; stroke-opacity:1; fill:none" points="981.712,1280.22 981.712,1270.78 "/>
<polyline clip-path="url(#clip120)" style="stroke:#000000; stroke-linecap:round; stroke-linejoin:round; stroke-width:4; stroke-opacity:1; fill:none" points="1013.41,1280.22 1013.41,1270.78 "/>
<polyline clip-path="url(#clip120)" style="stroke:#000000; stroke-linecap:round; stroke-linejoin:round; stroke-width:4; stroke-opacity:1; fill:none" points="1170.48,1280.22 1170.48,1270.78 "/>
<polyline clip-path="url(#clip120)" style="stroke:#000000; stroke-linecap:round; stroke-linejoin:round; stroke-width:4; stroke-opacity:1; fill:none" points="1233.97,1280.22 1233.97,1270.78 "/>
<polyline clip-path="url(#clip120)" style="stroke:#000000; stroke-linecap:round; stroke-linejoin:round; stroke-width:4; stroke-opacity:1; fill:none" points="1276.21,1280.22 1276.21,1270.78 "/>
<polyline clip-path="url(#clip120)" style="stroke:#000000; stroke-linecap:round; stroke-linejoin:round; stroke-width:4; stroke-opacity:1; fill:none" points="1307.9,1280.22 1307.9,1270.78 "/>
<polyline clip-path="url(#clip120)" style="stroke:#000000; stroke-linecap:round; stroke-linejoin:round; stroke-width:4; stroke-opacity:1; fill:none" points="1464.97,1280.22 1464.97,1270.78 "/>
<polyline clip-path="url(#clip120)" style="stroke:#000000; stroke-linecap:round; stroke-linejoin:round; stroke-width:4; stroke-opacity:1; fill:none" points="1528.46,1280.22 1528.46,1270.78 "/>
<polyline clip-path="url(#clip120)" style="stroke:#000000; stroke-linecap:round; stroke-linejoin:round; stroke-width:4; stroke-opacity:1; fill:none" points="1570.7,1280.22 1570.7,1270.78 "/>
<polyline clip-path="url(#clip120)" style="stroke:#000000; stroke-linecap:round; stroke-linejoin:round; stroke-width:4; stroke-opacity:1; fill:none" points="1602.4,1280.22 1602.4,1270.78 "/>
<polyline clip-path="url(#clip120)" style="stroke:#000000; stroke-linecap:round; stroke-linejoin:round; stroke-width:4; stroke-opacity:1; fill:none" points="1759.46,1280.22 1759.46,1270.78 "/>
<polyline clip-path="url(#clip120)" style="stroke:#000000; stroke-linecap:round; stroke-linejoin:round; stroke-width:4; stroke-opacity:1; fill:none" points="1822.96,1280.22 1822.96,1270.78 "/>
<path clip-path="url(#clip120)" d="M393.265 1328.64 L393.265 1327.06 Q399.342 1327.06 402.479 1323.82 Q403.344 1323.82 403.492 1324.02 Q403.64 1324.22 403.64 1325.13 L403.64 1353.51 Q403.64 1355.02 404.381 1355.49 Q405.122 1355.96 408.358 1355.96 L409.964 1355.96 L409.964 1357.52 Q408.185 1357.37 401.763 1357.37 Q395.34 1357.37 393.586 1357.52 L393.586 1355.96 L395.191 1355.96 Q398.378 1355.96 399.144 1355.52 Q399.91 1355.05 399.91 1353.51 L399.91 1327.3 Q397.267 1328.64 393.265 1328.64 Z" fill="#000000" fill-rule="nonzero" fill-opacity="1" /><path clip-path="url(#clip120)" d="M416.041 1341.34 Q416.041 1333.9 417.919 1329.85 Q420.537 1323.82 426.713 1323.82 Q428.022 1323.82 429.381 1324.19 Q430.764 1324.54 432.493 1325.9 Q434.247 1327.25 435.31 1329.48 Q437.335 1333.78 437.335 1341.34 Q437.335 1348.72 435.458 1352.75 Q432.716 1358.63 426.664 1358.63 Q424.391 1358.63 422.069 1357.47 Q419.771 1356.31 418.314 1353.51 Q416.041 1349.34 416.041 1341.34 M420.241 1340.72 Q420.241 1348.35 420.784 1351.39 Q421.402 1354.68 423.082 1356.11 Q424.786 1357.52 426.664 1357.52 Q428.689 1357.52 430.369 1356.01 Q432.074 1354.48 432.592 1351.19 Q433.16 1347.96 433.136 1340.72 Q433.136 1333.68 432.642 1330.86 Q431.975 1327.58 430.196 1326.27 Q428.442 1324.93 426.664 1324.93 Q425.997 1324.93 425.28 1325.13 Q424.588 1325.33 423.576 1325.9 Q422.563 1326.46 421.772 1327.87 Q421.006 1329.28 420.636 1331.41 Q420.241 1334.15 420.241 1340.72 Z" fill="#000000" fill-rule="nonzero" fill-opacity="1" /><path clip-path="url(#clip120)" d="M464.472 1319.25 Q464.713 1319.49 464.713 1319.83 Q464.713 1320.17 464.472 1320.41 Q464.231 1320.65 463.89 1320.65 L438.158 1320.65 Q437.817 1320.65 437.576 1320.41 Q437.335 1320.17 437.335 1319.83 Q437.335 1319.49 437.576 1319.25 Q437.817 1319.01 438.158 1319.01 L463.89 1319.01 Q464.231 1319.01 464.472 1319.25 Z" fill="#000000" fill-rule="nonzero" fill-opacity="1" /><path clip-path="url(#clip120)" d="M470.654 1306.64 L470.654 1305.36 Q475.592 1305.36 478.141 1302.73 Q478.843 1302.73 478.964 1302.89 Q479.084 1303.05 479.084 1303.79 L479.084 1326.85 Q479.084 1328.08 479.686 1328.46 Q480.288 1328.84 482.918 1328.84 L484.222 1328.84 L484.222 1330.11 Q482.777 1329.99 477.559 1329.99 Q472.34 1329.99 470.915 1330.11 L470.915 1328.84 L472.22 1328.84 Q474.809 1328.84 475.431 1328.48 Q476.053 1328.1 476.053 1326.85 L476.053 1305.56 Q473.906 1306.64 470.654 1306.64 Z" fill="#000000" fill-rule="nonzero" fill-opacity="1" /><path clip-path="url(#clip120)" d="M489.28 1324.57 Q489.28 1323.34 489.983 1322.76 Q490.685 1322.18 491.589 1322.18 Q492.532 1322.18 493.194 1322.8 Q493.877 1323.4 493.877 1324.47 Q493.877 1325.61 493.074 1326.25 Q492.291 1326.89 491.167 1326.73 Q492.151 1328.38 493.957 1329.12 Q495.784 1329.87 497.47 1329.87 Q499.236 1329.87 500.661 1328.34 Q502.106 1326.81 502.106 1323.08 Q502.106 1319.91 500.862 1318.08 Q499.637 1316.26 497.209 1316.26 L495.402 1316.26 Q494.78 1316.26 494.599 1316.2 Q494.419 1316.14 494.419 1315.8 Q494.419 1315.39 495.041 1315.31 Q495.663 1315.31 496.647 1315.19 Q499.035 1315.11 500.3 1313.05 Q501.444 1311.12 501.444 1308.37 Q501.444 1305.86 500.239 1304.82 Q499.055 1303.75 497.51 1303.75 Q496.065 1303.75 494.479 1304.35 Q492.893 1304.96 492.03 1306.3 Q494.579 1306.3 494.579 1308.37 Q494.579 1309.27 493.997 1309.87 Q493.435 1310.46 492.492 1310.46 Q491.589 1310.46 490.986 1309.89 Q490.384 1309.31 490.384 1308.33 Q490.384 1305.98 492.472 1304.35 Q494.579 1302.73 497.67 1302.73 Q500.721 1302.73 502.969 1304.33 Q505.237 1305.94 505.237 1308.41 Q505.237 1310.84 503.631 1312.82 Q502.026 1314.81 499.477 1315.63 Q502.608 1316.26 504.474 1318.38 Q506.341 1320.49 506.341 1323.08 Q506.341 1326.29 503.812 1328.66 Q501.283 1331.01 497.59 1331.01 Q494.178 1331.01 491.729 1329.16 Q489.28 1327.32 489.28 1324.57 Z" fill="#000000" fill-rule="nonzero" fill-opacity="1" /><path clip-path="url(#clip120)" d="M687.919 1328.64 L687.919 1327.06 Q693.996 1327.06 697.134 1323.82 Q697.998 1323.82 698.146 1324.02 Q698.295 1324.22 698.295 1325.13 L698.295 1353.51 Q698.295 1355.02 699.036 1355.49 Q699.777 1355.96 703.013 1355.96 L704.619 1355.96 L704.619 1357.52 Q702.84 1357.37 696.417 1357.37 Q689.994 1357.37 688.24 1357.52 L688.24 1355.96 L689.846 1355.96 Q693.033 1355.96 693.799 1355.52 Q694.564 1355.05 694.564 1353.51 L694.564 1327.3 Q691.921 1328.64 687.919 1328.64 Z" fill="#000000" fill-rule="nonzero" fill-opacity="1" /><path clip-path="url(#clip120)" d="M710.696 1341.34 Q710.696 1333.9 712.573 1329.85 Q715.192 1323.82 721.368 1323.82 Q722.677 1323.82 724.036 1324.19 Q725.419 1324.54 727.148 1325.9 Q728.902 1327.25 729.964 1329.48 Q731.99 1333.78 731.99 1341.34 Q731.99 1348.72 730.113 1352.75 Q727.37 1358.63 721.318 1358.63 Q719.045 1358.63 716.723 1357.47 Q714.426 1356.31 712.968 1353.51 Q710.696 1349.34 710.696 1341.34 M714.895 1340.72 Q714.895 1348.35 715.439 1351.39 Q716.056 1354.68 717.736 1356.11 Q719.441 1357.52 721.318 1357.52 Q723.344 1357.52 725.024 1356.01 Q726.728 1354.48 727.247 1351.19 Q727.815 1347.96 727.79 1340.72 Q727.79 1333.68 727.296 1330.86 Q726.629 1327.58 724.851 1326.27 Q723.097 1324.93 721.318 1324.93 Q720.651 1324.93 719.935 1325.13 Q719.243 1325.33 718.23 1325.9 Q717.217 1326.46 716.427 1327.87 Q715.661 1329.28 715.291 1331.41 Q714.895 1334.15 714.895 1340.72 Z" fill="#000000" fill-rule="nonzero" fill-opacity="1" /><path clip-path="url(#clip120)" d="M759.127 1319.25 Q759.368 1319.49 759.368 1319.83 Q759.368 1320.17 759.127 1320.41 Q758.886 1320.65 758.545 1320.65 L732.813 1320.65 Q732.472 1320.65 732.231 1320.41 Q731.99 1320.17 731.99 1319.83 Q731.99 1319.49 732.231 1319.25 Q732.472 1319.01 732.813 1319.01 L758.545 1319.01 Q758.886 1319.01 759.127 1319.25 Z" fill="#000000" fill-rule="nonzero" fill-opacity="1" /><path clip-path="url(#clip120)" d="M765.309 1306.64 L765.309 1305.36 Q770.246 1305.36 772.795 1302.73 Q773.498 1302.73 773.618 1302.89 Q773.739 1303.05 773.739 1303.79 L773.739 1326.85 Q773.739 1328.08 774.341 1328.46 Q774.943 1328.84 777.572 1328.84 L778.877 1328.84 L778.877 1330.11 Q777.432 1329.99 772.213 1329.99 Q766.995 1329.99 765.57 1330.11 L765.57 1328.84 L766.874 1328.84 Q769.463 1328.84 770.086 1328.48 Q770.708 1328.1 770.708 1326.85 L770.708 1305.56 Q768.56 1306.64 765.309 1306.64 Z" fill="#000000" fill-rule="nonzero" fill-opacity="1" /><path clip-path="url(#clip120)" d="M784.256 1330.11 Q784.256 1329.36 784.316 1329.14 Q784.397 1328.92 784.718 1328.58 L792.606 1319.79 Q796.921 1314.93 796.921 1310.7 Q796.921 1307.95 795.476 1305.98 Q794.051 1304.01 791.422 1304.01 Q789.615 1304.01 788.09 1305.12 Q786.564 1306.22 785.862 1308.19 Q785.982 1308.15 786.404 1308.15 Q787.427 1308.15 787.989 1308.79 Q788.572 1309.43 788.572 1310.3 Q788.572 1311.4 787.849 1311.94 Q787.146 1312.46 786.444 1312.46 Q786.163 1312.46 785.782 1312.4 Q785.42 1312.34 784.838 1311.78 Q784.256 1311.2 784.256 1310.18 Q784.256 1307.3 786.424 1305.02 Q788.612 1302.73 791.944 1302.73 Q795.717 1302.73 798.186 1304.98 Q800.675 1307.2 800.675 1310.7 Q800.675 1311.92 800.293 1313.05 Q799.932 1314.15 799.43 1315.01 Q798.948 1315.88 797.624 1317.26 Q796.299 1318.65 795.235 1319.63 Q794.171 1320.61 791.783 1322.7 L787.427 1326.93 L794.834 1326.93 Q798.447 1326.93 798.728 1326.61 Q799.129 1326.03 799.631 1322.96 L800.675 1322.96 L799.51 1330.11 L784.256 1330.11 Z" fill="#000000" fill-rule="nonzero" fill-opacity="1" /><path clip-path="url(#clip120)" d="M983.036 1328.64 L983.036 1327.06 Q989.113 1327.06 992.25 1323.82 Q993.114 1323.82 993.263 1324.02 Q993.411 1324.22 993.411 1325.13 L993.411 1353.51 Q993.411 1355.02 994.152 1355.49 Q994.893 1355.96 998.129 1355.96 L999.735 1355.96 L999.735 1357.52 Q997.956 1357.37 991.533 1357.37 Q985.111 1357.37 983.357 1357.52 L983.357 1355.96 L984.962 1355.96 Q988.149 1355.96 988.915 1355.52 Q989.681 1355.05 989.681 1353.51 L989.681 1327.3 Q987.037 1328.64 983.036 1328.64 Z" fill="#000000" fill-rule="nonzero" fill-opacity="1" /><path clip-path="url(#clip120)" d="M1005.81 1341.34 Q1005.81 1333.9 1007.69 1329.85 Q1010.31 1323.82 1016.48 1323.82 Q1017.79 1323.82 1019.15 1324.19 Q1020.54 1324.54 1022.26 1325.9 Q1024.02 1327.25 1025.08 1329.48 Q1027.11 1333.78 1027.11 1341.34 Q1027.11 1348.72 1025.23 1352.75 Q1022.49 1358.63 1016.43 1358.63 Q1014.16 1358.63 1011.84 1357.47 Q1009.54 1356.31 1008.08 1353.51 Q1005.81 1349.34 1005.81 1341.34 M1010.01 1340.72 Q1010.01 1348.35 1010.56 1351.39 Q1011.17 1354.68 1012.85 1356.11 Q1014.56 1357.52 1016.43 1357.52 Q1018.46 1357.52 1020.14 1356.01 Q1021.84 1354.48 1022.36 1351.19 Q1022.93 1347.96 1022.91 1340.72 Q1022.91 1333.68 1022.41 1330.86 Q1021.75 1327.58 1019.97 1326.27 Q1018.21 1324.93 1016.43 1324.93 Q1015.77 1324.93 1015.05 1325.13 Q1014.36 1325.33 1013.35 1325.9 Q1012.33 1326.46 1011.54 1327.87 Q1010.78 1329.28 1010.41 1331.41 Q1010.01 1334.15 1010.01 1340.72 Z" fill="#000000" fill-rule="nonzero" fill-opacity="1" /><path clip-path="url(#clip120)" d="M1054.24 1319.25 Q1054.48 1319.49 1054.48 1319.83 Q1054.48 1320.17 1054.24 1320.41 Q1054 1320.65 1053.66 1320.65 L1027.93 1320.65 Q1027.59 1320.65 1027.35 1320.41 Q1027.11 1320.17 1027.11 1319.83 Q1027.11 1319.49 1027.35 1319.25 Q1027.59 1319.01 1027.93 1319.01 L1053.66 1319.01 Q1054 1319.01 1054.24 1319.25 Z" fill="#000000" fill-rule="nonzero" fill-opacity="1" /><path clip-path="url(#clip120)" d="M1060.42 1306.64 L1060.42 1305.36 Q1065.36 1305.36 1067.91 1302.73 Q1068.61 1302.73 1068.73 1302.89 Q1068.85 1303.05 1068.85 1303.79 L1068.85 1326.85 Q1068.85 1328.08 1069.46 1328.46 Q1070.06 1328.84 1072.69 1328.84 L1073.99 1328.84 L1073.99 1330.11 Q1072.55 1329.99 1067.33 1329.99 Q1062.11 1329.99 1060.69 1330.11 L1060.69 1328.84 L1061.99 1328.84 Q1064.58 1328.84 1065.2 1328.48 Q1065.82 1328.1 1065.82 1326.85 L1065.82 1305.56 Q1063.68 1306.64 1060.42 1306.64 Z" fill="#000000" fill-rule="nonzero" fill-opacity="1" /><path clip-path="url(#clip120)" d="M1080.98 1306.64 L1080.98 1305.36 Q1085.92 1305.36 1088.46 1302.73 Q1089.17 1302.73 1089.29 1302.89 Q1089.41 1303.05 1089.41 1303.79 L1089.41 1326.85 Q1089.41 1328.08 1090.01 1328.46 Q1090.61 1328.84 1093.24 1328.84 L1094.55 1328.84 L1094.55 1330.11 Q1093.1 1329.99 1087.88 1329.99 Q1082.66 1329.99 1081.24 1330.11 L1081.24 1328.84 L1082.54 1328.84 Q1085.13 1328.84 1085.76 1328.48 Q1086.38 1328.1 1086.38 1326.85 L1086.38 1305.56 Q1084.23 1306.64 1080.98 1306.64 Z" fill="#000000" fill-rule="nonzero" fill-opacity="1" /><path clip-path="url(#clip120)" d="M1276.69 1328.64 L1276.69 1327.06 Q1282.76 1327.06 1285.9 1323.82 Q1286.77 1323.82 1286.91 1324.02 Q1287.06 1324.22 1287.06 1325.13 L1287.06 1353.51 Q1287.06 1355.02 1287.8 1355.49 Q1288.54 1355.96 1291.78 1355.96 L1293.39 1355.96 L1293.39 1357.52 Q1291.61 1357.37 1285.18 1357.37 Q1278.76 1357.37 1277.01 1357.52 L1277.01 1355.96 L1278.61 1355.96 Q1281.8 1355.96 1282.57 1355.52 Q1283.33 1355.05 1283.33 1353.51 L1283.33 1327.3 Q1280.69 1328.64 1276.69 1328.64 Z" fill="#000000" fill-rule="nonzero" fill-opacity="1" /><path clip-path="url(#clip120)" d="M1299.46 1341.34 Q1299.46 1333.9 1301.34 1329.85 Q1303.96 1323.82 1310.13 1323.82 Q1311.44 1323.82 1312.8 1324.19 Q1314.19 1324.54 1315.92 1325.9 Q1317.67 1327.25 1318.73 1329.48 Q1320.76 1333.78 1320.76 1341.34 Q1320.76 1348.72 1318.88 1352.75 Q1316.14 1358.63 1310.09 1358.63 Q1307.81 1358.63 1305.49 1357.47 Q1303.19 1356.31 1301.74 1353.51 Q1299.46 1349.34 1299.46 1341.34 M1303.66 1340.72 Q1303.66 1348.35 1304.21 1351.39 Q1304.82 1354.68 1306.5 1356.11 Q1308.21 1357.52 1310.09 1357.52 Q1312.11 1357.52 1313.79 1356.01 Q1315.5 1354.48 1316.01 1351.19 Q1316.58 1347.96 1316.56 1340.72 Q1316.56 1333.68 1316.06 1330.86 Q1315.4 1327.58 1313.62 1326.27 Q1311.86 1324.93 1310.09 1324.93 Q1309.42 1324.93 1308.7 1325.13 Q1308.01 1325.33 1307 1325.9 Q1305.98 1326.46 1305.19 1327.87 Q1304.43 1329.28 1304.06 1331.41 Q1303.66 1334.15 1303.66 1340.72 Z" fill="#000000" fill-rule="nonzero" fill-opacity="1" /><path clip-path="url(#clip120)" d="M1347.89 1319.25 Q1348.13 1319.49 1348.13 1319.83 Q1348.13 1320.17 1347.89 1320.41 Q1347.65 1320.65 1347.31 1320.65 L1321.58 1320.65 Q1321.24 1320.65 1321 1320.41 Q1320.76 1320.17 1320.76 1319.83 Q1320.76 1319.49 1321 1319.25 Q1321.24 1319.01 1321.58 1319.01 L1347.31 1319.01 Q1347.65 1319.01 1347.89 1319.25 Z" fill="#000000" fill-rule="nonzero" fill-opacity="1" /><path clip-path="url(#clip120)" d="M1354.08 1306.64 L1354.08 1305.36 Q1359.01 1305.36 1361.56 1302.73 Q1362.27 1302.73 1362.39 1302.89 Q1362.51 1303.05 1362.51 1303.79 L1362.51 1326.85 Q1362.51 1328.08 1363.11 1328.46 Q1363.71 1328.84 1366.34 1328.84 L1367.64 1328.84 L1367.64 1330.11 Q1366.2 1329.99 1360.98 1329.99 Q1355.76 1329.99 1354.34 1330.11 L1354.34 1328.84 L1355.64 1328.84 Q1358.23 1328.84 1358.85 1328.48 Q1359.48 1328.1 1359.48 1326.85 L1359.48 1305.56 Q1357.33 1306.64 1354.08 1306.64 Z" fill="#000000" fill-rule="nonzero" fill-opacity="1" /><path clip-path="url(#clip120)" d="M1372.58 1316.96 Q1372.58 1310.92 1374.11 1307.63 Q1376.23 1302.73 1381.25 1302.73 Q1382.32 1302.73 1383.42 1303.03 Q1384.54 1303.31 1385.95 1304.41 Q1387.37 1305.52 1388.24 1307.32 Q1389.88 1310.82 1389.88 1316.96 Q1389.88 1322.96 1388.36 1326.23 Q1386.13 1331.01 1381.21 1331.01 Q1379.37 1331.01 1377.48 1330.07 Q1375.61 1329.12 1374.43 1326.85 Q1372.58 1323.46 1372.58 1316.96 M1375.99 1316.46 Q1375.99 1322.66 1376.44 1325.13 Q1376.94 1327.8 1378.3 1328.96 Q1379.69 1330.11 1381.21 1330.11 Q1382.86 1330.11 1384.22 1328.88 Q1385.61 1327.64 1386.03 1324.97 Q1386.49 1322.34 1386.47 1316.46 Q1386.47 1310.74 1386.07 1308.45 Q1385.53 1305.78 1384.08 1304.72 Q1382.66 1303.63 1381.21 1303.63 Q1380.67 1303.63 1380.09 1303.79 Q1379.53 1303.95 1378.7 1304.41 Q1377.88 1304.88 1377.24 1306.02 Q1376.62 1307.16 1376.32 1308.89 Q1375.99 1311.12 1375.99 1316.46 Z" fill="#000000" fill-rule="nonzero" fill-opacity="1" /><path clip-path="url(#clip120)" d="M1581.52 1328.64 L1581.52 1327.06 Q1587.59 1327.06 1590.73 1323.82 Q1591.6 1323.82 1591.74 1324.02 Q1591.89 1324.22 1591.89 1325.13 L1591.89 1353.51 Q1591.89 1355.02 1592.63 1355.49 Q1593.38 1355.96 1596.61 1355.96 L1598.22 1355.96 L1598.22 1357.52 Q1596.44 1357.37 1590.02 1357.37 Q1583.59 1357.37 1581.84 1357.52 L1581.84 1355.96 L1583.44 1355.96 Q1586.63 1355.96 1587.4 1355.52 Q1588.16 1355.05 1588.16 1353.51 L1588.16 1327.3 Q1585.52 1328.64 1581.52 1328.64 Z" fill="#000000" fill-rule="nonzero" fill-opacity="1" /><path clip-path="url(#clip120)" d="M1604.29 1341.34 Q1604.29 1333.9 1606.17 1329.85 Q1608.79 1323.82 1614.97 1323.82 Q1616.28 1323.82 1617.63 1324.19 Q1619.02 1324.54 1620.75 1325.9 Q1622.5 1327.25 1623.56 1329.48 Q1625.59 1333.78 1625.59 1341.34 Q1625.59 1348.72 1623.71 1352.75 Q1620.97 1358.63 1614.92 1358.63 Q1612.64 1358.63 1610.32 1357.47 Q1608.02 1356.31 1606.57 1353.51 Q1604.29 1349.34 1604.29 1341.34 M1608.49 1340.72 Q1608.49 1348.35 1609.04 1351.39 Q1609.65 1354.68 1611.33 1356.11 Q1613.04 1357.52 1614.92 1357.52 Q1616.94 1357.52 1618.62 1356.01 Q1620.33 1354.48 1620.85 1351.19 Q1621.41 1347.96 1621.39 1340.72 Q1621.39 1333.68 1620.89 1330.86 Q1620.23 1327.58 1618.45 1326.27 Q1616.7 1324.93 1614.92 1324.93 Q1614.25 1324.93 1613.53 1325.13 Q1612.84 1325.33 1611.83 1325.9 Q1610.82 1326.46 1610.03 1327.87 Q1609.26 1329.28 1608.89 1331.41 Q1608.49 1334.15 1608.49 1340.72 Z" fill="#000000" fill-rule="nonzero" fill-opacity="1" /><path clip-path="url(#clip120)" d="M1652.72 1319.25 Q1652.97 1319.49 1652.97 1319.83 Q1652.97 1320.17 1652.72 1320.41 Q1652.48 1320.65 1652.14 1320.65 L1626.41 1320.65 Q1626.07 1320.65 1625.83 1320.41 Q1625.59 1320.17 1625.59 1319.83 Q1625.59 1319.49 1625.83 1319.25 Q1626.07 1319.01 1626.41 1319.01 L1652.14 1319.01 Q1652.48 1319.01 1652.72 1319.25 Z" fill="#000000" fill-rule="nonzero" fill-opacity="1" /><path clip-path="url(#clip120)" d="M1656.98 1311.98 Q1656.98 1309.79 1657.62 1308.31 Q1658.26 1306.8 1659.61 1305.32 Q1662.08 1302.73 1665.65 1302.73 Q1667.18 1302.73 1668.52 1303.37 Q1669.89 1304.01 1671.17 1305.48 Q1672.48 1306.92 1673.26 1309.79 Q1674.04 1312.64 1674.04 1316.58 Q1674.04 1322.94 1670.95 1326.97 Q1667.88 1331.01 1663.72 1331.01 Q1661.09 1331.01 1659.55 1329.83 Q1658 1328.62 1658 1326.57 Q1658 1325.51 1658.61 1325.07 Q1659.21 1324.61 1659.89 1324.61 Q1660.63 1324.61 1661.22 1325.11 Q1661.8 1325.59 1661.8 1326.49 Q1661.8 1327.24 1661.32 1327.82 Q1660.85 1328.38 1659.65 1328.38 Q1660.83 1329.87 1663.68 1329.87 Q1664.71 1329.87 1665.73 1329.4 Q1666.75 1328.92 1667.86 1327.78 Q1668.98 1326.61 1669.67 1324.19 Q1670.35 1321.76 1670.35 1318.34 L1670.35 1317.04 Q1668.7 1321.15 1665.21 1321.15 Q1661.76 1321.15 1659.37 1318.5 Q1656.98 1315.86 1656.98 1311.98 M1660.67 1312.02 Q1660.67 1316.1 1661.42 1317.6 Q1662.68 1320.19 1665.25 1320.19 Q1667.76 1320.19 1669 1317.96 Q1670.27 1315.71 1670.27 1312.8 Q1670.27 1308.77 1669.61 1307 Q1668.38 1303.75 1665.65 1303.75 Q1662.94 1303.75 1661.54 1306.34 Q1660.67 1307.87 1660.67 1312.02 Z" fill="#000000" fill-rule="nonzero" fill-opacity="1" /><path clip-path="url(#clip120)" d="M981.872 1447.26 L981.872 1444.92 L983.688 1444.92 Q987.801 1444.92 988.727 1444.26 Q989.691 1443.55 989.691 1441.33 L989.691 1401.57 Q989.691 1399.38 988.727 1398.72 Q987.764 1398.01 983.688 1398.01 L981.872 1398.01 L981.872 1395.64 L1024.6 1395.64 L1026.71 1412.72 L1024.82 1412.72 Q1024.3 1408.39 1023.6 1405.9 Q1022.93 1403.38 1021.26 1401.46 Q1019.63 1399.53 1016.93 1398.79 Q1014.26 1398.01 1009.92 1398.01 L1000.14 1398.01 Q997.546 1398.01 996.99 1398.57 Q996.435 1399.09 996.435 1401.05 L996.435 1419.24 L1003.25 1419.24 Q1008.48 1419.24 1009.96 1417.43 Q1011.44 1415.61 1011.44 1410.39 L1013.37 1410.39 L1013.37 1430.47 L1011.44 1430.47 Q1011.44 1425.32 1009.96 1423.47 Q1008.48 1421.62 1003.25 1421.62 L996.435 1421.62 L996.435 1441.88 Q996.435 1443.85 996.99 1444.4 Q997.583 1444.92 1000.14 1444.92 L1010.26 1444.92 Q1013.52 1444.92 1015.89 1444.52 Q1018.3 1444.07 1019.96 1443.03 Q1021.63 1441.96 1022.74 1440.74 Q1023.89 1439.51 1024.67 1437.33 Q1025.49 1435.1 1025.93 1433.07 Q1026.41 1431.03 1026.93 1427.69 L1028.82 1427.69 L1025.63 1447.26 L981.872 1447.26 Z" fill="#000000" fill-rule="nonzero" fill-opacity="1" /><path clip-path="url(#clip120)" d="M1033.05 1447.26 L1033.05 1444.92 Q1037.08 1444.92 1038.01 1444.44 Q1038.97 1443.92 1038.97 1441.48 L1038.97 1421.13 Q1038.97 1418.32 1037.97 1417.61 Q1037.01 1416.91 1033.05 1416.91 L1033.05 1414.54 L1043.61 1413.72 L1043.61 1422.06 Q1044.68 1418.8 1046.94 1416.28 Q1049.24 1413.72 1052.94 1413.72 Q1055.39 1413.72 1056.95 1415.09 Q1058.54 1416.46 1058.54 1418.35 Q1058.54 1420.02 1057.5 1420.87 Q1056.5 1421.69 1055.28 1421.69 Q1053.91 1421.69 1052.94 1420.84 Q1052.02 1419.95 1052.02 1418.43 Q1052.02 1417.5 1052.42 1416.8 Q1052.87 1416.06 1053.2 1415.8 Q1053.54 1415.54 1053.76 1415.46 Q1053.61 1415.39 1052.94 1415.39 Q1048.76 1415.39 1046.35 1419.58 Q1043.98 1423.73 1043.98 1429.66 L1043.98 1441.33 Q1043.98 1443.51 1044.87 1444.22 Q1045.79 1444.92 1049.76 1444.92 L1051.35 1444.92 L1051.35 1447.26 Q1048.31 1447.03 1041.72 1447.03 Q1040.79 1447.03 1039.34 1447.07 Q1037.9 1447.11 1036.01 1447.18 Q1034.12 1447.26 1033.05 1447.26 Z" fill="#000000" fill-rule="nonzero" fill-opacity="1" /><path clip-path="url(#clip120)" d="M1062.69 1447.26 L1062.69 1444.92 Q1066.73 1444.92 1067.65 1444.44 Q1068.62 1443.92 1068.62 1441.48 L1068.62 1421.13 Q1068.62 1418.32 1067.62 1417.61 Q1066.65 1416.91 1062.69 1416.91 L1062.69 1414.54 L1073.25 1413.72 L1073.25 1422.06 Q1074.32 1418.8 1076.58 1416.28 Q1078.88 1413.72 1082.59 1413.72 Q1085.03 1413.72 1086.59 1415.09 Q1088.18 1416.46 1088.18 1418.35 Q1088.18 1420.02 1087.15 1420.87 Q1086.14 1421.69 1084.92 1421.69 Q1083.55 1421.69 1082.59 1420.84 Q1081.66 1419.95 1081.66 1418.43 Q1081.66 1417.5 1082.07 1416.8 Q1082.51 1416.06 1082.85 1415.8 Q1083.18 1415.54 1083.4 1415.46 Q1083.25 1415.39 1082.59 1415.39 Q1078.4 1415.39 1075.99 1419.58 Q1073.62 1423.73 1073.62 1429.66 L1073.62 1441.33 Q1073.62 1443.51 1074.51 1444.22 Q1075.44 1444.92 1079.4 1444.92 L1080.99 1444.92 L1080.99 1447.26 Q1077.96 1447.03 1071.36 1447.03 Q1070.43 1447.03 1068.99 1447.07 Q1067.54 1447.11 1065.65 1447.18 Q1063.76 1447.26 1062.69 1447.26 Z" fill="#000000" fill-rule="nonzero" fill-opacity="1" /><path clip-path="url(#clip120)" d="M1097.34 1443.18 Q1092.33 1438.22 1092.33 1431.03 Q1092.33 1423.8 1097.22 1418.54 Q1102.15 1413.24 1109.19 1413.24 Q1116.09 1413.24 1121.01 1418.5 Q1125.98 1423.73 1125.98 1431.03 Q1125.98 1438.18 1120.98 1443.14 Q1116.01 1448.11 1109.12 1448.11 Q1102.37 1448.11 1097.34 1443.18 M1098.63 1430.4 Q1098.63 1437.77 1100.56 1441.11 Q1103.52 1446.18 1109.19 1446.18 Q1112.01 1446.18 1114.34 1444.66 Q1116.72 1443.14 1118.01 1440.59 Q1119.68 1437.25 1119.68 1430.4 Q1119.68 1423.1 1117.68 1419.87 Q1114.71 1414.95 1109.12 1414.95 Q1106.67 1414.95 1104.26 1416.24 Q1101.89 1417.5 1100.45 1420.02 Q1098.63 1423.36 1098.63 1430.4 Z" fill="#000000" fill-rule="nonzero" fill-opacity="1" /><path clip-path="url(#clip120)" d="M1130.28 1447.26 L1130.28 1444.92 Q1134.32 1444.92 1135.24 1444.44 Q1136.21 1443.92 1136.21 1441.48 L1136.21 1421.13 Q1136.21 1418.32 1135.21 1417.61 Q1134.24 1416.91 1130.28 1416.91 L1130.28 1414.54 L1140.84 1413.72 L1140.84 1422.06 Q1141.91 1418.8 1144.17 1416.28 Q1146.47 1413.72 1150.18 1413.72 Q1152.62 1413.72 1154.18 1415.09 Q1155.77 1416.46 1155.77 1418.35 Q1155.77 1420.02 1154.73 1420.87 Q1153.73 1421.69 1152.51 1421.69 Q1151.14 1421.69 1150.18 1420.84 Q1149.25 1419.95 1149.25 1418.43 Q1149.25 1417.5 1149.66 1416.8 Q1150.1 1416.06 1150.44 1415.8 Q1150.77 1415.54 1150.99 1415.46 Q1150.84 1415.39 1150.18 1415.39 Q1145.99 1415.39 1143.58 1419.58 Q1141.21 1423.73 1141.21 1429.66 L1141.21 1441.33 Q1141.21 1443.51 1142.1 1444.22 Q1143.02 1444.92 1146.99 1444.92 L1148.58 1444.92 L1148.58 1447.26 Q1145.54 1447.03 1138.95 1447.03 Q1138.02 1447.03 1136.58 1447.07 Q1135.13 1447.11 1133.24 1447.18 Q1131.35 1447.26 1130.28 1447.26 Z" fill="#000000" fill-rule="nonzero" fill-opacity="1" /><polyline clip-path="url(#clip122)" style="stroke:#000000; stroke-linecap:round; stroke-linejoin:round; stroke-width:2.8; stroke-opacity:0.4; fill:none" points="298.791,1135.16 1838.85,1135.16 "/>
<polyline clip-path="url(#clip122)" style="stroke:#000000; stroke-linecap:round; stroke-linejoin:round; stroke-width:2.8; stroke-opacity:0.4; fill:none" points="298.791,915.856 1838.85,915.856 "/>
<polyline clip-path="url(#clip122)" style="stroke:#000000; stroke-linecap:round; stroke-linejoin:round; stroke-width:2.8; stroke-opacity:0.4; fill:none" points="298.791,696.549 1838.85,696.549 "/>
<polyline clip-path="url(#clip122)" style="stroke:#000000; stroke-linecap:round; stroke-linejoin:round; stroke-width:2.8; stroke-opacity:0.4; fill:none" points="298.791,477.241 1838.85,477.241 "/>
<polyline clip-path="url(#clip122)" style="stroke:#000000; stroke-linecap:round; stroke-linejoin:round; stroke-width:2.8; stroke-opacity:0.4; fill:none" points="298.791,257.933 1838.85,257.933 "/>
<polyline clip-path="url(#clip120)" style="stroke:#000000; stroke-linecap:round; stroke-linejoin:round; stroke-width:4; stroke-opacity:1; fill:none" points="298.791,1280.22 298.791,47.2441 "/>
<polyline clip-path="url(#clip120)" style="stroke:#000000; stroke-linecap:round; stroke-linejoin:round; stroke-width:4; stroke-opacity:1; fill:none" points="1838.85,1280.22 1838.85,47.2441 "/>
<polyline clip-path="url(#clip120)" style="stroke:#000000; stroke-linecap:round; stroke-linejoin:round; stroke-width:4; stroke-opacity:1; fill:none" points="298.791,1135.16 313.655,1135.16 "/>
<polyline clip-path="url(#clip120)" style="stroke:#000000; stroke-linecap:round; stroke-linejoin:round; stroke-width:4; stroke-opacity:1; fill:none" points="298.791,915.856 313.655,915.856 "/>
<polyline clip-path="url(#clip120)" style="stroke:#000000; stroke-linecap:round; stroke-linejoin:round; stroke-width:4; stroke-opacity:1; fill:none" points="298.791,696.549 313.655,696.549 "/>
<polyline clip-path="url(#clip120)" style="stroke:#000000; stroke-linecap:round; stroke-linejoin:round; stroke-width:4; stroke-opacity:1; fill:none" points="298.791,477.241 313.655,477.241 "/>
<polyline clip-path="url(#clip120)" style="stroke:#000000; stroke-linecap:round; stroke-linejoin:round; stroke-width:4; stroke-opacity:1; fill:none" points="298.791,257.933 313.655,257.933 "/>
<path clip-path="url(#clip120)" d="M119.06 1130.01 L119.06 1128.43 Q125.137 1128.43 128.275 1125.2 Q129.139 1125.2 129.287 1125.39 Q129.436 1125.59 129.436 1126.51 L129.436 1154.89 Q129.436 1156.4 130.177 1156.87 Q130.918 1157.34 134.154 1157.34 L135.76 1157.34 L135.76 1158.89 Q133.981 1158.74 127.558 1158.74 Q121.135 1158.74 119.381 1158.89 L119.381 1157.34 L120.987 1157.34 Q124.174 1157.34 124.94 1156.89 Q125.705 1156.42 125.705 1154.89 L125.705 1128.68 Q123.062 1130.01 119.06 1130.01 Z" fill="#000000" fill-rule="nonzero" fill-opacity="1" /><path clip-path="url(#clip120)" d="M141.837 1142.71 Q141.837 1135.28 143.714 1131.22 Q146.333 1125.2 152.509 1125.2 Q153.818 1125.2 155.176 1125.57 Q156.56 1125.91 158.289 1127.27 Q160.043 1128.63 161.105 1130.85 Q163.131 1135.15 163.131 1142.71 Q163.131 1150.1 161.253 1154.12 Q158.511 1160 152.459 1160 Q150.186 1160 147.864 1158.84 Q145.567 1157.68 144.109 1154.89 Q141.837 1150.71 141.837 1142.71 M146.036 1142.09 Q146.036 1149.73 146.58 1152.77 Q147.197 1156.05 148.877 1157.48 Q150.582 1158.89 152.459 1158.89 Q154.485 1158.89 156.165 1157.38 Q157.869 1155.85 158.388 1152.57 Q158.956 1149.33 158.931 1142.09 Q158.931 1135.05 158.437 1132.24 Q157.77 1128.95 155.992 1127.64 Q154.238 1126.31 152.459 1126.31 Q151.792 1126.31 151.076 1126.51 Q150.384 1126.7 149.371 1127.27 Q148.358 1127.84 147.568 1129.25 Q146.802 1130.66 146.431 1132.78 Q146.036 1135.52 146.036 1142.09 Z" fill="#000000" fill-rule="nonzero" fill-opacity="1" /><path clip-path="url(#clip120)" d="M190.268 1120.62 Q190.508 1120.86 190.508 1121.2 Q190.508 1121.55 190.268 1121.79 Q190.027 1122.03 189.686 1122.03 L163.954 1122.03 Q163.613 1122.03 163.372 1121.79 Q163.131 1121.55 163.131 1121.2 Q163.131 1120.86 163.372 1120.62 Q163.613 1120.38 163.954 1120.38 L189.686 1120.38 Q190.027 1120.38 190.268 1120.62 Z" fill="#000000" fill-rule="nonzero" fill-opacity="1" /><path clip-path="url(#clip120)" d="M194.844 1131.48 Q194.844 1130.74 194.904 1130.52 Q194.984 1130.3 195.306 1129.96 L203.194 1121.16 Q207.509 1116.31 207.509 1112.07 Q207.509 1109.32 206.064 1107.36 Q204.639 1105.39 202.009 1105.39 Q200.203 1105.39 198.678 1106.49 Q197.152 1107.6 196.45 1109.56 Q196.57 1109.52 196.992 1109.52 Q198.015 1109.52 198.577 1110.17 Q199.159 1110.81 199.159 1111.67 Q199.159 1112.77 198.437 1113.32 Q197.734 1113.84 197.032 1113.84 Q196.751 1113.84 196.369 1113.78 Q196.008 1113.72 195.426 1113.16 Q194.844 1112.57 194.844 1111.55 Q194.844 1108.68 197.012 1106.39 Q199.199 1104.1 202.531 1104.1 Q206.305 1104.1 208.773 1106.35 Q211.262 1108.58 211.262 1112.07 Q211.262 1113.3 210.881 1114.42 Q210.52 1115.52 210.018 1116.39 Q209.536 1117.25 208.211 1118.64 Q206.887 1120.02 205.823 1121 Q204.759 1121.99 202.371 1124.07 L198.015 1128.31 L205.422 1128.31 Q209.034 1128.31 209.315 1127.99 Q209.717 1127.41 210.219 1124.34 L211.262 1124.34 L210.098 1131.48 L194.844 1131.48 Z" fill="#000000" fill-rule="nonzero" fill-opacity="1" /><path clip-path="url(#clip120)" d="M217.464 1130.82 Q216.842 1130.16 216.842 1129.29 Q216.842 1128.43 217.464 1127.81 Q218.087 1127.17 219.03 1127.17 Q219.933 1127.17 220.535 1127.77 Q221.158 1128.35 221.158 1129.31 Q221.158 1130.26 220.495 1130.88 Q219.853 1131.48 219.03 1131.48 Q218.087 1131.48 217.464 1130.82 Z" fill="#000000" fill-rule="nonzero" fill-opacity="1" /><path clip-path="url(#clip120)" d="M226.376 1118.33 Q226.376 1112.29 227.902 1109 Q230.029 1104.1 235.047 1104.1 Q236.111 1104.1 237.215 1104.4 Q238.339 1104.69 239.744 1105.79 Q241.169 1106.89 242.032 1108.7 Q243.678 1112.19 243.678 1118.33 Q243.678 1124.34 242.152 1127.61 Q239.924 1132.38 235.007 1132.38 Q233.16 1132.38 231.274 1131.44 Q229.407 1130.5 228.223 1128.23 Q226.376 1124.84 226.376 1118.33 M229.788 1117.83 Q229.788 1124.03 230.23 1126.5 Q230.732 1129.17 232.097 1130.34 Q233.481 1131.48 235.007 1131.48 Q236.653 1131.48 238.018 1130.26 Q239.403 1129.01 239.824 1126.34 Q240.286 1123.71 240.266 1117.83 Q240.266 1112.11 239.864 1109.82 Q239.322 1107.15 237.877 1106.09 Q236.452 1105.01 235.007 1105.01 Q234.465 1105.01 233.883 1105.17 Q233.321 1105.33 232.498 1105.79 Q231.675 1106.25 231.033 1107.4 Q230.411 1108.54 230.109 1110.27 Q229.788 1112.49 229.788 1117.83 Z" fill="#000000" fill-rule="nonzero" fill-opacity="1" /><path clip-path="url(#clip120)" d="M246.929 1118.33 Q246.929 1112.29 248.455 1109 Q250.582 1104.1 255.6 1104.1 Q256.664 1104.1 257.768 1104.4 Q258.892 1104.69 260.297 1105.79 Q261.722 1106.89 262.585 1108.7 Q264.231 1112.19 264.231 1118.33 Q264.231 1124.34 262.706 1127.61 Q260.478 1132.38 255.56 1132.38 Q253.714 1132.38 251.827 1131.44 Q249.96 1130.5 248.776 1128.23 Q246.929 1124.84 246.929 1118.33 M250.342 1117.83 Q250.342 1124.03 250.783 1126.5 Q251.285 1129.17 252.65 1130.34 Q254.035 1131.48 255.56 1131.48 Q257.206 1131.48 258.571 1130.26 Q259.956 1129.01 260.377 1126.34 Q260.839 1123.71 260.819 1117.83 Q260.819 1112.11 260.417 1109.82 Q259.875 1107.15 258.43 1106.09 Q257.005 1105.01 255.56 1105.01 Q255.018 1105.01 254.436 1105.17 Q253.874 1105.33 253.051 1105.79 Q252.228 1106.25 251.586 1107.4 Q250.964 1108.54 250.663 1110.27 Q250.342 1112.49 250.342 1117.83 Z" fill="#000000" fill-rule="nonzero" fill-opacity="1" /><path clip-path="url(#clip120)" d="M119.502 910.706 L119.502 909.125 Q125.579 909.125 128.716 905.889 Q129.581 905.889 129.729 906.086 Q129.877 906.284 129.877 907.198 L129.877 935.582 Q129.877 937.089 130.618 937.558 Q131.359 938.028 134.595 938.028 L136.201 938.028 L136.201 939.584 Q134.423 939.436 128 939.436 Q121.577 939.436 119.823 939.584 L119.823 938.028 L121.429 938.028 Q124.615 938.028 125.381 937.583 Q126.147 937.114 126.147 935.582 L126.147 909.372 Q123.504 910.706 119.502 910.706 Z" fill="#000000" fill-rule="nonzero" fill-opacity="1" /><path clip-path="url(#clip120)" d="M142.278 923.403 Q142.278 915.968 144.156 911.916 Q146.774 905.889 152.95 905.889 Q154.259 905.889 155.618 906.259 Q157.001 906.605 158.731 907.964 Q160.485 909.322 161.547 911.546 Q163.573 915.844 163.573 923.403 Q163.573 930.79 161.695 934.816 Q158.953 940.696 152.901 940.696 Q150.628 940.696 148.306 939.535 Q146.008 938.374 144.551 935.582 Q142.278 931.407 142.278 923.403 M146.478 922.786 Q146.478 930.419 147.021 933.458 Q147.639 936.743 149.319 938.176 Q151.023 939.584 152.901 939.584 Q154.926 939.584 156.606 938.077 Q158.311 936.545 158.829 933.26 Q159.398 930.024 159.373 922.786 Q159.373 915.745 158.879 912.929 Q158.212 909.644 156.433 908.334 Q154.679 907 152.901 907 Q152.234 907 151.517 907.198 Q150.826 907.396 149.813 907.964 Q148.8 908.532 148.009 909.94 Q147.244 911.348 146.873 913.473 Q146.478 916.215 146.478 922.786 Z" fill="#000000" fill-rule="nonzero" fill-opacity="1" /><path clip-path="url(#clip120)" d="M190.709 901.315 Q190.95 901.556 190.95 901.897 Q190.95 902.238 190.709 902.479 Q190.468 902.72 190.127 902.72 L164.395 902.72 Q164.054 902.72 163.813 902.479 Q163.573 902.238 163.573 901.897 Q163.573 901.556 163.813 901.315 Q164.054 901.074 164.395 901.074 L190.127 901.074 Q190.468 901.074 190.709 901.315 Z" fill="#000000" fill-rule="nonzero" fill-opacity="1" /><path clip-path="url(#clip120)" d="M196.891 888.71 L196.891 887.425 Q201.829 887.425 204.378 884.796 Q205.08 884.796 205.201 884.957 Q205.321 885.117 205.321 885.86 L205.321 908.922 Q205.321 910.146 205.923 910.528 Q206.525 910.909 209.155 910.909 L210.459 910.909 L210.459 912.174 Q209.014 912.053 203.796 912.053 Q198.577 912.053 197.152 912.174 L197.152 910.909 L198.457 910.909 Q201.046 910.909 201.668 910.548 Q202.29 910.166 202.29 908.922 L202.29 887.626 Q200.143 888.71 196.891 888.71 Z" fill="#000000" fill-rule="nonzero" fill-opacity="1" /><path clip-path="url(#clip120)" d="M217.906 911.511 Q217.284 910.849 217.284 909.986 Q217.284 909.123 217.906 908.501 Q218.528 907.858 219.472 907.858 Q220.375 907.858 220.977 908.46 Q221.599 909.042 221.599 910.006 Q221.599 910.949 220.937 911.571 Q220.295 912.174 219.472 912.174 Q218.528 912.174 217.906 911.511 Z" fill="#000000" fill-rule="nonzero" fill-opacity="1" /><path clip-path="url(#clip120)" d="M227.52 892.845 L228.865 884.395 L229.889 884.395 Q230.009 884.896 230.21 885.117 Q230.431 885.338 231.595 885.519 Q232.779 885.699 235.167 885.699 L245.143 885.699 Q245.143 886.643 244.782 887.144 L239.222 894.952 Q237.456 897.421 236.673 901.977 Q236.211 905.028 236.231 908.721 L236.231 910.809 Q236.231 913.077 234.324 913.077 Q232.438 913.077 232.438 910.809 Q232.438 902.961 237.496 895.354 Q238.038 894.571 240.025 891.781 Q242.032 888.991 242.112 888.871 L233.602 888.871 Q229.869 888.871 229.568 889.111 Q229.166 889.473 228.544 892.845 L227.52 892.845 Z" fill="#000000" fill-rule="nonzero" fill-opacity="1" /><path clip-path="url(#clip120)" d="M247.813 905.55 Q247.813 904.326 248.475 903.864 Q249.137 903.382 249.84 903.382 Q250.783 903.382 251.325 903.984 Q251.887 904.567 251.887 905.389 Q251.887 906.212 251.325 906.815 Q250.783 907.397 249.84 907.397 Q249.378 907.397 249.137 907.316 Q249.679 909.203 251.325 910.568 Q252.991 911.933 255.179 911.933 Q257.929 911.933 259.574 909.263 Q260.558 907.537 260.558 903.623 Q260.558 900.171 259.815 898.445 Q258.671 895.815 256.323 895.815 Q252.991 895.815 251.024 898.686 Q250.783 899.047 250.502 899.067 Q250.101 899.067 250 898.846 Q249.92 898.605 249.92 897.983 L249.92 885.82 Q249.92 884.836 250.321 884.836 Q250.482 884.836 250.823 884.957 Q253.412 886.101 256.283 886.121 Q259.233 886.121 261.883 884.917 Q262.083 884.796 262.204 884.796 Q262.605 884.796 262.625 885.258 Q262.625 885.418 262.284 885.9 Q261.963 886.362 261.26 886.984 Q260.558 887.586 259.655 888.168 Q258.751 888.75 257.427 889.152 Q256.122 889.533 254.677 889.533 Q252.951 889.533 251.185 888.991 L251.185 897 Q253.312 894.912 256.403 894.912 Q259.695 894.912 261.963 897.562 Q264.231 900.211 264.231 903.904 Q264.231 907.778 261.541 910.427 Q258.872 913.077 255.259 913.077 Q251.967 913.077 249.88 910.728 Q247.813 908.38 247.813 905.55 Z" fill="#000000" fill-rule="nonzero" fill-opacity="1" /><path clip-path="url(#clip120)" d="M119.06 691.398 L119.06 689.817 Q125.137 689.817 128.275 686.581 Q129.139 686.581 129.287 686.779 Q129.436 686.976 129.436 687.89 L129.436 716.274 Q129.436 717.781 130.177 718.251 Q130.918 718.72 134.154 718.72 L135.76 718.72 L135.76 720.276 Q133.981 720.128 127.558 720.128 Q121.135 720.128 119.381 720.276 L119.381 718.72 L120.987 718.72 Q124.174 718.72 124.94 718.275 Q125.705 717.806 125.705 716.274 L125.705 690.064 Q123.062 691.398 119.06 691.398 Z" fill="#000000" fill-rule="nonzero" fill-opacity="1" /><path clip-path="url(#clip120)" d="M141.837 704.096 Q141.837 696.66 143.714 692.609 Q146.333 686.581 152.509 686.581 Q153.818 686.581 155.176 686.952 Q156.56 687.297 158.289 688.656 Q160.043 690.015 161.105 692.238 Q163.131 696.536 163.131 704.096 Q163.131 711.482 161.253 715.509 Q158.511 721.388 152.459 721.388 Q150.186 721.388 147.864 720.227 Q145.567 719.066 144.109 716.274 Q141.837 712.1 141.837 704.096 M146.036 703.478 Q146.036 711.111 146.58 714.15 Q147.197 717.435 148.877 718.868 Q150.582 720.276 152.459 720.276 Q154.485 720.276 156.165 718.769 Q157.869 717.238 158.388 713.952 Q158.956 710.716 158.931 703.478 Q158.931 696.438 158.437 693.621 Q157.77 690.336 155.992 689.027 Q154.238 687.693 152.459 687.693 Q151.792 687.693 151.076 687.89 Q150.384 688.088 149.371 688.656 Q148.358 689.224 147.568 690.632 Q146.802 692.04 146.431 694.165 Q146.036 696.907 146.036 703.478 Z" fill="#000000" fill-rule="nonzero" fill-opacity="1" /><path clip-path="url(#clip120)" d="M190.268 682.007 Q190.508 682.248 190.508 682.589 Q190.508 682.931 190.268 683.171 Q190.027 683.412 189.686 683.412 L163.954 683.412 Q163.613 683.412 163.372 683.171 Q163.131 682.931 163.131 682.589 Q163.131 682.248 163.372 682.007 Q163.613 681.766 163.954 681.766 L189.686 681.766 Q190.027 681.766 190.268 682.007 Z" fill="#000000" fill-rule="nonzero" fill-opacity="1" /><path clip-path="url(#clip120)" d="M196.45 669.402 L196.45 668.118 Q201.387 668.118 203.936 665.488 Q204.639 665.488 204.759 665.649 Q204.88 665.81 204.88 666.552 L204.88 689.614 Q204.88 690.839 205.482 691.22 Q206.084 691.601 208.713 691.601 L210.018 691.601 L210.018 692.866 Q208.573 692.746 203.354 692.746 Q198.136 692.746 196.711 692.866 L196.711 691.601 L198.015 691.601 Q200.604 691.601 201.227 691.24 Q201.849 690.859 201.849 689.614 L201.849 668.319 Q199.701 669.402 196.45 669.402 Z" fill="#000000" fill-rule="nonzero" fill-opacity="1" /><path clip-path="url(#clip120)" d="M217.464 692.204 Q216.842 691.541 216.842 690.678 Q216.842 689.815 217.464 689.193 Q218.087 688.551 219.03 688.551 Q219.933 688.551 220.535 689.153 Q221.158 689.735 221.158 690.698 Q221.158 691.642 220.495 692.264 Q219.853 692.866 219.03 692.866 Q218.087 692.866 217.464 692.204 Z" fill="#000000" fill-rule="nonzero" fill-opacity="1" /><path clip-path="url(#clip120)" d="M226.818 686.242 Q226.818 685.018 227.48 684.556 Q228.142 684.075 228.845 684.075 Q229.788 684.075 230.33 684.677 Q230.892 685.259 230.892 686.082 Q230.892 686.905 230.33 687.507 Q229.788 688.089 228.845 688.089 Q228.383 688.089 228.142 688.009 Q228.684 689.895 230.33 691.26 Q231.996 692.625 234.184 692.625 Q236.934 692.625 238.58 689.956 Q239.563 688.229 239.563 684.316 Q239.563 680.863 238.821 679.137 Q237.676 676.508 235.328 676.508 Q231.996 676.508 230.029 679.378 Q229.788 679.739 229.507 679.759 Q229.106 679.759 229.006 679.539 Q228.925 679.298 228.925 678.675 L228.925 666.512 Q228.925 665.529 229.327 665.529 Q229.487 665.529 229.828 665.649 Q232.418 666.793 235.288 666.813 Q238.238 666.813 240.888 665.609 Q241.089 665.488 241.209 665.488 Q241.61 665.488 241.631 665.95 Q241.631 666.111 241.289 666.592 Q240.968 667.054 240.266 667.676 Q239.563 668.278 238.66 668.86 Q237.757 669.443 236.432 669.844 Q235.127 670.225 233.682 670.225 Q231.956 670.225 230.19 669.683 L230.19 677.692 Q232.317 675.604 235.408 675.604 Q238.7 675.604 240.968 678.254 Q243.236 680.903 243.236 684.597 Q243.236 688.47 240.547 691.12 Q237.877 693.769 234.264 693.769 Q230.973 693.769 228.885 691.421 Q226.818 689.072 226.818 686.242 Z" fill="#000000" fill-rule="nonzero" fill-opacity="1" /><path clip-path="url(#clip120)" d="M246.929 679.719 Q246.929 673.678 248.455 670.386 Q250.582 665.488 255.6 665.488 Q256.664 665.488 257.768 665.79 Q258.892 666.071 260.297 667.174 Q261.722 668.278 262.585 670.085 Q264.231 673.577 264.231 679.719 Q264.231 685.721 262.706 688.992 Q260.478 693.769 255.56 693.769 Q253.714 693.769 251.827 692.826 Q249.96 691.882 248.776 689.614 Q246.929 686.222 246.929 679.719 M250.342 679.217 Q250.342 685.419 250.783 687.888 Q251.285 690.558 252.65 691.722 Q254.035 692.866 255.56 692.866 Q257.206 692.866 258.571 691.642 Q259.956 690.397 260.377 687.728 Q260.839 685.098 260.819 679.217 Q260.819 673.497 260.417 671.209 Q259.875 668.539 258.43 667.476 Q257.005 666.392 255.56 666.392 Q255.018 666.392 254.436 666.552 Q253.874 666.713 253.051 667.174 Q252.228 667.636 251.586 668.78 Q250.964 669.924 250.663 671.65 Q250.342 673.878 250.342 679.217 Z" fill="#000000" fill-rule="nonzero" fill-opacity="1" /><path clip-path="url(#clip120)" d="M119.502 472.09 L119.502 470.509 Q125.579 470.509 128.716 467.273 Q129.581 467.273 129.729 467.471 Q129.877 467.669 129.877 468.583 L129.877 496.967 Q129.877 498.474 130.618 498.943 Q131.359 499.412 134.595 499.412 L136.201 499.412 L136.201 500.969 Q134.423 500.821 128 500.821 Q121.577 500.821 119.823 500.969 L119.823 499.412 L121.429 499.412 Q124.615 499.412 125.381 498.968 Q126.147 498.498 126.147 496.967 L126.147 470.757 Q123.504 472.09 119.502 472.09 Z" fill="#000000" fill-rule="nonzero" fill-opacity="1" /><path clip-path="url(#clip120)" d="M142.278 484.788 Q142.278 477.352 144.156 473.301 Q146.774 467.273 152.95 467.273 Q154.259 467.273 155.618 467.644 Q157.001 467.99 158.731 469.348 Q160.485 470.707 161.547 472.93 Q163.573 477.229 163.573 484.788 Q163.573 492.174 161.695 496.201 Q158.953 502.08 152.901 502.08 Q150.628 502.08 148.306 500.919 Q146.008 499.758 144.551 496.967 Q142.278 492.792 142.278 484.788 M146.478 484.17 Q146.478 491.804 147.021 494.842 Q147.639 498.128 149.319 499.561 Q151.023 500.969 152.901 500.969 Q154.926 500.969 156.606 499.462 Q158.311 497.93 158.829 494.645 Q159.398 491.409 159.373 484.17 Q159.373 477.13 158.879 474.314 Q158.212 471.028 156.433 469.719 Q154.679 468.385 152.901 468.385 Q152.234 468.385 151.517 468.583 Q150.826 468.78 149.813 469.348 Q148.8 469.917 148.009 471.325 Q147.244 472.733 146.873 474.857 Q146.478 477.599 146.478 484.17 Z" fill="#000000" fill-rule="nonzero" fill-opacity="1" /><path clip-path="url(#clip120)" d="M190.709 462.7 Q190.95 462.941 190.95 463.282 Q190.95 463.623 190.709 463.864 Q190.468 464.105 190.127 464.105 L164.395 464.105 Q164.054 464.105 163.813 463.864 Q163.573 463.623 163.573 463.282 Q163.573 462.941 163.813 462.7 Q164.054 462.459 164.395 462.459 L190.127 462.459 Q190.468 462.459 190.709 462.7 Z" fill="#000000" fill-rule="nonzero" fill-opacity="1" /><path clip-path="url(#clip120)" d="M196.891 450.095 L196.891 448.81 Q201.829 448.81 204.378 446.181 Q205.08 446.181 205.201 446.341 Q205.321 446.502 205.321 447.245 L205.321 470.307 Q205.321 471.531 205.923 471.912 Q206.525 472.294 209.155 472.294 L210.459 472.294 L210.459 473.558 Q209.014 473.438 203.796 473.438 Q198.577 473.438 197.152 473.558 L197.152 472.294 L198.457 472.294 Q201.046 472.294 201.668 471.933 Q202.29 471.551 202.29 470.307 L202.29 449.011 Q200.143 450.095 196.891 450.095 Z" fill="#000000" fill-rule="nonzero" fill-opacity="1" /><path clip-path="url(#clip120)" d="M217.906 472.896 Q217.284 472.234 217.284 471.371 Q217.284 470.507 217.906 469.885 Q218.528 469.243 219.472 469.243 Q220.375 469.243 220.977 469.845 Q221.599 470.427 221.599 471.391 Q221.599 472.334 220.937 472.956 Q220.295 473.558 219.472 473.558 Q218.528 473.558 217.906 472.896 Z" fill="#000000" fill-rule="nonzero" fill-opacity="1" /><path clip-path="url(#clip120)" d="M227.259 473.558 Q227.259 472.816 227.32 472.595 Q227.4 472.374 227.721 472.033 L235.609 463.242 Q239.924 458.384 239.924 454.149 Q239.924 451.399 238.479 449.432 Q237.054 447.465 234.425 447.465 Q232.618 447.465 231.093 448.569 Q229.568 449.673 228.865 451.64 Q228.985 451.6 229.407 451.6 Q230.431 451.6 230.993 452.242 Q231.575 452.885 231.575 453.748 Q231.575 454.852 230.852 455.394 Q230.15 455.915 229.447 455.915 Q229.166 455.915 228.785 455.855 Q228.423 455.795 227.841 455.233 Q227.259 454.651 227.259 453.627 Q227.259 450.757 229.427 448.469 Q231.615 446.181 234.947 446.181 Q238.72 446.181 241.189 448.429 Q243.678 450.657 243.678 454.149 Q243.678 455.374 243.296 456.498 Q242.935 457.602 242.433 458.465 Q241.952 459.328 240.627 460.713 Q239.302 462.098 238.238 463.081 Q237.175 464.065 234.786 466.152 L230.431 470.387 L237.837 470.387 Q241.45 470.387 241.731 470.066 Q242.132 469.484 242.634 466.413 L243.678 466.413 L242.514 473.558 L227.259 473.558 Z" fill="#000000" fill-rule="nonzero" fill-opacity="1" /><path clip-path="url(#clip120)" d="M247.813 466.935 Q247.813 465.71 248.475 465.249 Q249.137 464.767 249.84 464.767 Q250.783 464.767 251.325 465.369 Q251.887 465.951 251.887 466.774 Q251.887 467.597 251.325 468.199 Q250.783 468.781 249.84 468.781 Q249.378 468.781 249.137 468.701 Q249.679 470.588 251.325 471.953 Q252.991 473.317 255.179 473.317 Q257.929 473.317 259.574 470.648 Q260.558 468.922 260.558 465.008 Q260.558 461.556 259.815 459.829 Q258.671 457.2 256.323 457.2 Q252.991 457.2 251.024 460.07 Q250.783 460.432 250.502 460.452 Q250.101 460.452 250 460.231 Q249.92 459.99 249.92 459.368 L249.92 447.204 Q249.92 446.221 250.321 446.221 Q250.482 446.221 250.823 446.341 Q253.412 447.485 256.283 447.506 Q259.233 447.506 261.883 446.301 Q262.083 446.181 262.204 446.181 Q262.605 446.181 262.625 446.642 Q262.625 446.803 262.284 447.285 Q261.963 447.746 261.26 448.369 Q260.558 448.971 259.655 449.553 Q258.751 450.135 257.427 450.536 Q256.122 450.918 254.677 450.918 Q252.951 450.918 251.185 450.376 L251.185 458.384 Q253.312 456.297 256.403 456.297 Q259.695 456.297 261.963 458.946 Q264.231 461.596 264.231 465.289 Q264.231 469.163 261.541 471.812 Q258.872 474.462 255.259 474.462 Q251.967 474.462 249.88 472.113 Q247.813 469.765 247.813 466.935 Z" fill="#000000" fill-rule="nonzero" fill-opacity="1" /><path clip-path="url(#clip120)" d="M119.06 252.783 L119.06 251.202 Q125.137 251.202 128.275 247.966 Q129.139 247.966 129.287 248.163 Q129.436 248.361 129.436 249.275 L129.436 277.659 Q129.436 279.166 130.177 279.635 Q130.918 280.105 134.154 280.105 L135.76 280.105 L135.76 281.661 Q133.981 281.513 127.558 281.513 Q121.135 281.513 119.381 281.661 L119.381 280.105 L120.987 280.105 Q124.174 280.105 124.94 279.66 Q125.705 279.191 125.705 277.659 L125.705 251.449 Q123.062 252.783 119.06 252.783 Z" fill="#000000" fill-rule="nonzero" fill-opacity="1" /><path clip-path="url(#clip120)" d="M141.837 265.48 Q141.837 258.045 143.714 253.993 Q146.333 247.966 152.509 247.966 Q153.818 247.966 155.176 248.336 Q156.56 248.682 158.289 250.041 Q160.043 251.399 161.105 253.623 Q163.131 257.921 163.131 265.48 Q163.131 272.867 161.253 276.893 Q158.511 282.773 152.459 282.773 Q150.186 282.773 147.864 281.612 Q145.567 280.451 144.109 277.659 Q141.837 273.484 141.837 265.48 M146.036 264.863 Q146.036 272.496 146.58 275.535 Q147.197 278.82 148.877 280.253 Q150.582 281.661 152.459 281.661 Q154.485 281.661 156.165 280.154 Q157.869 278.623 158.388 275.337 Q158.956 272.101 158.931 264.863 Q158.931 257.822 158.437 255.006 Q157.77 251.721 155.992 250.411 Q154.238 249.077 152.459 249.077 Q151.792 249.077 151.076 249.275 Q150.384 249.473 149.371 250.041 Q148.358 250.609 147.568 252.017 Q146.802 253.425 146.431 255.55 Q146.036 258.292 146.036 264.863 Z" fill="#000000" fill-rule="nonzero" fill-opacity="1" /><path clip-path="url(#clip120)" d="M190.268 243.392 Q190.508 243.633 190.508 243.974 Q190.508 244.315 190.268 244.556 Q190.027 244.797 189.686 244.797 L163.954 244.797 Q163.613 244.797 163.372 244.556 Q163.131 244.315 163.131 243.974 Q163.131 243.633 163.372 243.392 Q163.613 243.151 163.954 243.151 L189.686 243.151 Q190.027 243.151 190.268 243.392 Z" fill="#000000" fill-rule="nonzero" fill-opacity="1" /><path clip-path="url(#clip120)" d="M196.45 230.787 L196.45 229.503 Q201.387 229.503 203.936 226.873 Q204.639 226.873 204.759 227.034 Q204.88 227.194 204.88 227.937 L204.88 250.999 Q204.88 252.223 205.482 252.605 Q206.084 252.986 208.713 252.986 L210.018 252.986 L210.018 254.251 Q208.573 254.13 203.354 254.13 Q198.136 254.13 196.711 254.251 L196.711 252.986 L198.015 252.986 Q200.604 252.986 201.227 252.625 Q201.849 252.244 201.849 250.999 L201.849 229.703 Q199.701 230.787 196.45 230.787 Z" fill="#000000" fill-rule="nonzero" fill-opacity="1" /><path clip-path="url(#clip120)" d="M217.464 253.588 Q216.842 252.926 216.842 252.063 Q216.842 251.2 217.464 250.578 Q218.087 249.935 219.03 249.935 Q219.933 249.935 220.535 250.537 Q221.158 251.12 221.158 252.083 Q221.158 253.026 220.495 253.649 Q219.853 254.251 219.03 254.251 Q218.087 254.251 217.464 253.588 Z" fill="#000000" fill-rule="nonzero" fill-opacity="1" /><path clip-path="url(#clip120)" d="M226.376 241.104 Q226.376 235.062 227.902 231.771 Q230.029 226.873 235.047 226.873 Q236.111 226.873 237.215 227.174 Q238.339 227.455 239.744 228.559 Q241.169 229.663 242.032 231.47 Q243.678 234.962 243.678 241.104 Q243.678 247.105 242.152 250.377 Q239.924 255.154 235.007 255.154 Q233.16 255.154 231.274 254.211 Q229.407 253.267 228.223 250.999 Q226.376 247.607 226.376 241.104 M229.788 240.602 Q229.788 246.804 230.23 249.273 Q230.732 251.942 232.097 253.107 Q233.481 254.251 235.007 254.251 Q236.653 254.251 238.018 253.026 Q239.403 251.782 239.824 249.112 Q240.286 246.483 240.266 240.602 Q240.266 234.882 239.864 232.594 Q239.322 229.924 237.877 228.86 Q236.452 227.776 235.007 227.776 Q234.465 227.776 233.883 227.937 Q233.321 228.098 232.498 228.559 Q231.675 229.021 231.033 230.165 Q230.411 231.309 230.109 233.035 Q229.788 235.263 229.788 240.602 Z" fill="#000000" fill-rule="nonzero" fill-opacity="1" /><path clip-path="url(#clip120)" d="M246.929 241.104 Q246.929 235.062 248.455 231.771 Q250.582 226.873 255.6 226.873 Q256.664 226.873 257.768 227.174 Q258.892 227.455 260.297 228.559 Q261.722 229.663 262.585 231.47 Q264.231 234.962 264.231 241.104 Q264.231 247.105 262.706 250.377 Q260.478 255.154 255.56 255.154 Q253.714 255.154 251.827 254.211 Q249.96 253.267 248.776 250.999 Q246.929 247.607 246.929 241.104 M250.342 240.602 Q250.342 246.804 250.783 249.273 Q251.285 251.942 252.65 253.107 Q254.035 254.251 255.56 254.251 Q257.206 254.251 258.571 253.026 Q259.956 251.782 260.377 249.112 Q260.839 246.483 260.819 240.602 Q260.819 234.882 260.417 232.594 Q259.875 229.924 258.43 228.86 Q257.005 227.776 255.56 227.776 Q255.018 227.776 254.436 227.937 Q253.874 228.098 253.051 228.559 Q252.228 229.021 251.586 230.165 Q250.964 231.309 250.663 233.035 Q250.342 235.263 250.342 240.602 Z" fill="#000000" fill-rule="nonzero" fill-opacity="1" /><path clip-path="url(#clip120)" d="M34.6352 801.913 L17.5899 800.467 L17.5899 754.112 L34.6352 752.666 L34.6352 754.556 Q31.2261 754.853 29.2622 755.149 Q27.2983 755.408 25.4455 756.075 Q23.5557 756.705 22.6664 757.521 Q21.74 758.299 21.036 759.818 Q20.2949 761.337 20.1096 763.301 Q19.9243 765.265 19.9243 768.23 Q19.9243 771.713 20.0726 772.565 Q20.2949 773.491 20.9619 773.714 Q21.5918 773.936 22.9629 773.936 L62.9452 773.936 Q64.4645 773.936 65.0944 773.64 Q65.6873 773.306 66.169 771.564 Q66.6137 769.823 66.6137 765.969 L66.6137 762.931 L68.9482 762.931 Q68.7258 766.043 68.7258 777.345 Q68.7258 788.573 68.9482 791.685 L66.6137 791.685 L66.6137 788.647 Q66.6137 784.793 66.169 783.052 Q65.6873 781.273 65.0944 780.976 Q64.4645 780.68 62.9452 780.68 L22.9629 780.68 Q21.8883 780.68 21.4436 780.754 Q20.9989 780.828 20.6284 781.162 Q20.2208 781.495 20.0726 782.273 Q19.9243 783.014 19.9243 786.349 Q19.9243 789.314 20.1096 791.315 Q20.2949 793.279 21.036 794.798 Q21.74 796.317 22.6664 797.132 Q23.5557 797.911 25.4455 798.578 Q27.2983 799.208 29.2622 799.467 Q31.2261 799.726 34.6352 800.023 L34.6352 801.913 Z" fill="#000000" fill-rule="nonzero" fill-opacity="1" /><path clip-path="url(#clip120)" d="M68.9482 747.368 L66.6137 747.368 Q66.6137 743.329 66.132 742.402 Q65.6132 741.476 63.1676 741.476 L42.7502 741.476 Q39.9341 741.476 39.2671 742.439 Q38.6001 743.366 38.6001 747.071 L36.2286 747.071 L35.4133 736.473 L63.2417 736.473 Q65.502 736.473 66.0579 735.658 Q66.6137 734.843 66.6137 731.137 L68.9482 731.137 Q68.7258 738.882 68.7258 739.03 Q68.7258 740.068 68.9482 747.368 M22.1847 744.181 Q20.6654 744.181 19.4426 743.032 Q18.1828 741.846 18.1828 740.179 Q18.1828 738.511 19.3315 737.326 Q20.4431 736.14 22.2218 736.14 Q23.9633 736.14 25.112 737.326 Q26.2237 738.511 26.2237 740.179 Q26.2237 741.92 25.0009 743.069 Q23.7781 744.181 22.1847 744.181 Z" fill="#000000" fill-rule="nonzero" fill-opacity="1" /><path clip-path="url(#clip120)" d="M68.9482 726.431 L66.6137 726.431 Q66.6137 722.392 66.132 721.466 Q65.6132 720.54 63.1676 720.54 L42.8244 720.54 Q40.0082 720.54 39.3041 721.54 Q38.6001 722.504 38.6001 726.431 L36.2286 726.431 L35.4133 715.76 L43.3802 715.76 Q35.4133 712.202 35.4133 704.532 Q35.4133 695.639 42.8244 694.416 Q39.9341 693.119 37.6737 690.414 Q35.4133 687.672 35.4133 683.411 Q35.4133 677.704 38.2295 675.444 Q40.1193 673.776 42.2315 673.443 Q44.3436 673.109 49.8278 673.109 L64.3163 673.109 Q65.9096 673.035 66.2802 671.812 Q66.6137 670.589 66.6137 667.18 L68.9482 667.18 Q68.7258 674.925 68.7258 675.666 Q68.7258 676.259 68.9482 684.263 L66.6137 684.263 Q66.6137 680.224 66.132 679.297 Q65.6132 678.334 63.1676 678.334 L45.4923 678.334 Q41.6386 678.334 39.3782 679.52 Q37.0808 680.706 37.0808 683.966 Q37.0808 687.894 40.3787 691.044 Q43.6766 694.194 49.2349 694.194 L63.1676 694.194 Q65.6132 694.194 66.132 693.267 Q66.6137 692.304 66.6137 688.265 L68.9482 688.265 Q68.7258 696.009 68.7258 696.787 Q68.7258 697.38 68.9482 705.347 L66.6137 705.347 Q66.6137 701.308 66.132 700.382 Q65.6132 699.418 63.1676 699.418 L45.4923 699.418 Q41.6386 699.418 39.3782 700.604 Q37.0808 701.79 37.0808 705.051 Q37.0808 708.979 40.3787 712.128 Q43.6766 715.278 49.2349 715.278 L63.1676 715.278 Q65.6132 715.278 66.132 714.351 Q66.6137 713.388 66.6137 709.386 L68.9482 709.386 Q68.7258 717.131 68.7258 717.872 Q68.7258 718.465 68.9482 726.431 Z" fill="#000000" fill-rule="nonzero" fill-opacity="1" /><path clip-path="url(#clip120)" d="M52.2363 663.586 Q45.0847 663.586 40.0082 658.991 Q34.9316 654.396 34.9316 647.801 Q34.9316 641.131 39.2671 637.685 Q43.6025 634.201 49.8278 634.201 Q50.9765 634.201 51.1988 634.498 Q51.4211 634.794 51.4211 636.091 L51.4211 657.287 Q59.1656 657.287 62.797 654.989 Q67.8736 651.803 67.8736 646.43 Q67.8736 645.689 67.7253 644.799 Q67.5771 643.91 66.9472 642.094 Q66.2802 640.278 64.5386 638.685 Q62.797 637.092 60.0549 636.165 Q58.9804 635.943 59.0174 635.202 Q59.0174 634.201 59.9067 634.201 Q60.5737 634.201 62.093 634.943 Q63.5752 635.647 65.3538 637.018 Q67.1325 638.389 68.4664 641.057 Q69.8004 643.688 69.8004 646.874 Q69.8004 653.544 64.7609 658.584 Q59.6844 663.586 52.2363 663.586 M49.8278 657.213 L49.8278 639.204 Q48.2344 639.204 46.4557 639.5 Q44.6771 639.76 42.2315 640.575 Q39.7488 641.353 38.1925 643.206 Q36.6362 645.059 36.6362 647.801 Q36.6362 649.023 37.1549 650.357 Q37.6737 651.654 38.9336 653.248 Q40.1934 654.841 43.0467 655.953 Q45.8999 657.064 49.8278 657.213 Z" fill="#000000" fill-rule="nonzero" fill-opacity="1" /><path clip-path="url(#clip120)" d="M49.976 599.259 Q37.1549 599.259 26.8166 594.478 Q22.4811 592.44 18.8497 589.587 Q15.2184 586.734 13.625 584.844 Q12.0316 582.954 12.0316 582.436 Q12.0316 581.694 12.7727 581.657 Q13.1433 581.657 14.0696 582.658 Q26.5201 594.886 49.976 594.849 Q73.5059 594.849 85.4747 582.954 Q86.7716 581.657 87.1792 581.657 Q87.9203 581.657 87.9203 582.436 Q87.9203 582.954 86.4011 584.77 Q84.8818 586.586 81.3987 589.402 Q77.9155 592.218 73.6541 594.256 Q63.3158 599.259 49.976 599.259 Z" fill="#000000" fill-rule="nonzero" fill-opacity="1" /><path clip-path="url(#clip120)" d="M67.9477 574.839 L57.9428 574.839 Q57.0905 574.839 56.7941 574.802 Q56.4977 574.765 56.2753 574.543 Q56.053 574.32 56.053 573.876 Q56.053 573.357 56.2753 573.172 Q56.4977 572.949 57.3499 572.801 Q62.5747 571.653 65.3538 569.207 Q68.0959 566.724 68.0959 562.241 Q68.0959 557.979 66.2061 555.83 Q64.3163 553.681 61.2037 553.681 Q55.6454 553.681 54.2373 561.574 Q53.3109 566.131 52.7181 568.021 Q52.0881 569.911 50.7171 571.578 Q48.0491 574.839 44.2695 574.839 Q40.4899 574.839 37.7108 571.986 Q34.9316 569.096 34.9316 562.722 Q34.9316 558.461 37.0808 555.571 Q36.4138 554.718 35.858 554.274 Q34.9316 553.273 34.9316 552.754 Q34.9316 552.162 35.3392 552.05 Q35.7098 551.939 36.7844 551.939 L44.4177 551.939 Q45.27 551.939 45.5664 551.976 Q45.8629 552.013 46.0852 552.236 Q46.2705 552.458 46.2705 552.94 Q46.2705 553.792 45.5664 553.829 Q36.3768 554.422 36.3768 562.722 Q36.3768 567.206 38.1184 569.207 Q39.8229 571.208 42.1574 571.208 Q43.4543 571.208 44.4548 570.615 Q45.4182 569.985 46.0111 569.207 Q46.5669 568.392 47.1227 566.909 Q47.6415 565.427 47.8268 564.538 Q48.0121 563.612 48.3826 561.87 Q49.5313 555.793 52.014 553.236 Q55.2007 550.049 59.2397 550.049 Q63.7234 550.049 66.7619 553.088 Q69.8004 556.126 69.8004 562.241 Q69.8004 567.169 66.5025 570.615 Q66.9472 571.06 67.3548 571.393 Q67.7253 571.727 67.8736 571.875 Q68.0218 571.986 68.1329 572.023 Q68.2071 572.06 68.2812 572.134 Q69.8004 573.654 69.8004 574.024 Q69.8004 574.617 69.3928 574.728 Q69.0223 574.839 67.9477 574.839 Z" fill="#000000" fill-rule="nonzero" fill-opacity="1" /><path clip-path="url(#clip120)" d="M87.1792 543.157 Q86.8087 543.157 85.8823 542.194 Q73.4318 529.966 49.976 529.966 Q26.446 529.966 14.5514 541.712 Q13.1803 543.157 12.7727 543.157 Q12.0316 543.157 12.0316 542.416 Q12.0316 541.897 13.5509 540.082 Q15.0701 538.229 18.5533 535.45 Q22.0365 532.634 26.2978 530.558 Q36.6362 525.556 49.976 525.556 Q62.797 525.556 73.1354 530.336 Q77.4708 532.374 81.1022 535.227 Q84.7336 538.081 86.327 539.97 Q87.9203 541.86 87.9203 542.416 Q87.9203 543.157 87.1792 543.157 Z" fill="#000000" fill-rule="nonzero" fill-opacity="1" /><polyline clip-path="url(#clip122)" style="stroke:#0000ff; stroke-linecap:round; stroke-linejoin:round; stroke-width:12; stroke-opacity:1; fill:none" points="1795.27,952.601 1338.75,742.166 887.186,524.117 473.327,304.201 548.682,82.1398 "/>
<line clip-path="url(#clip122)" x1="1795.27" y1="952.601" x2="1795.27" y2="936.601" style="stroke:#0000ff; stroke-width:12; stroke-opacity:1"/>
<line clip-path="url(#clip122)" x1="1795.27" y1="952.601" x2="1779.27" y2="952.601" style="stroke:#0000ff; stroke-width:12; stroke-opacity:1"/>
<line clip-path="url(#clip122)" x1="1795.27" y1="952.601" x2="1795.27" y2="968.601" style="stroke:#0000ff; stroke-width:12; stroke-opacity:1"/>
<line clip-path="url(#clip122)" x1="1795.27" y1="952.601" x2="1811.27" y2="952.601" style="stroke:#0000ff; stroke-width:12; stroke-opacity:1"/>
<line clip-path="url(#clip122)" x1="1338.75" y1="742.166" x2="1338.75" y2="726.166" style="stroke:#0000ff; stroke-width:12; stroke-opacity:1"/>
<line clip-path="url(#clip122)" x1="1338.75" y1="742.166" x2="1322.75" y2="742.166" style="stroke:#0000ff; stroke-width:12; stroke-opacity:1"/>
<line clip-path="url(#clip122)" x1="1338.75" y1="742.166" x2="1338.75" y2="758.166" style="stroke:#0000ff; stroke-width:12; stroke-opacity:1"/>
<line clip-path="url(#clip122)" x1="1338.75" y1="742.166" x2="1354.75" y2="742.166" style="stroke:#0000ff; stroke-width:12; stroke-opacity:1"/>
<line clip-path="url(#clip122)" x1="887.186" y1="524.117" x2="887.186" y2="508.117" style="stroke:#0000ff; stroke-width:12; stroke-opacity:1"/>
<line clip-path="url(#clip122)" x1="887.186" y1="524.117" x2="871.186" y2="524.117" style="stroke:#0000ff; stroke-width:12; stroke-opacity:1"/>
<line clip-path="url(#clip122)" x1="887.186" y1="524.117" x2="887.186" y2="540.117" style="stroke:#0000ff; stroke-width:12; stroke-opacity:1"/>
<line clip-path="url(#clip122)" x1="887.186" y1="524.117" x2="903.186" y2="524.117" style="stroke:#0000ff; stroke-width:12; stroke-opacity:1"/>
<line clip-path="url(#clip122)" x1="473.327" y1="304.201" x2="473.327" y2="288.201" style="stroke:#0000ff; stroke-width:12; stroke-opacity:1"/>
<line clip-path="url(#clip122)" x1="473.327" y1="304.201" x2="457.327" y2="304.201" style="stroke:#0000ff; stroke-width:12; stroke-opacity:1"/>
<line clip-path="url(#clip122)" x1="473.327" y1="304.201" x2="473.327" y2="320.201" style="stroke:#0000ff; stroke-width:12; stroke-opacity:1"/>
<line clip-path="url(#clip122)" x1="473.327" y1="304.201" x2="489.327" y2="304.201" style="stroke:#0000ff; stroke-width:12; stroke-opacity:1"/>
<line clip-path="url(#clip122)" x1="548.682" y1="82.1398" x2="548.682" y2="66.1398" style="stroke:#0000ff; stroke-width:12; stroke-opacity:1"/>
<line clip-path="url(#clip122)" x1="548.682" y1="82.1398" x2="532.682" y2="82.1398" style="stroke:#0000ff; stroke-width:12; stroke-opacity:1"/>
<line clip-path="url(#clip122)" x1="548.682" y1="82.1398" x2="548.682" y2="98.1398" style="stroke:#0000ff; stroke-width:12; stroke-opacity:1"/>
<line clip-path="url(#clip122)" x1="548.682" y1="82.1398" x2="564.682" y2="82.1398" style="stroke:#0000ff; stroke-width:12; stroke-opacity:1"/>
<polyline clip-path="url(#clip122)" style="stroke:#7f007f; stroke-linecap:round; stroke-linejoin:round; stroke-width:12; stroke-opacity:1; fill:none" points="1535.77,1236.44 1047.2,1071.76 342.378,919.111 545.144,746.196 548.72,567.686 "/>
<circle clip-path="url(#clip122)" cx="1535.77" cy="1236.44" r="14.4" fill="#7f007f" fill-rule="evenodd" fill-opacity="1" stroke="#000000" stroke-opacity="1" stroke-width="1.536"/>
<circle clip-path="url(#clip122)" cx="1047.2" cy="1071.76" r="14.4" fill="#7f007f" fill-rule="evenodd" fill-opacity="1" stroke="#000000" stroke-opacity="1" stroke-width="1.536"/>
<circle clip-path="url(#clip122)" cx="342.378" cy="919.111" r="14.4" fill="#7f007f" fill-rule="evenodd" fill-opacity="1" stroke="#000000" stroke-opacity="1" stroke-width="1.536"/>
<circle clip-path="url(#clip122)" cx="545.144" cy="746.196" r="14.4" fill="#7f007f" fill-rule="evenodd" fill-opacity="1" stroke="#000000" stroke-opacity="1" stroke-width="1.536"/>
<circle clip-path="url(#clip122)" cx="548.72" cy="567.686" r="14.4" fill="#7f007f" fill-rule="evenodd" fill-opacity="1" stroke="#000000" stroke-opacity="1" stroke-width="1.536"/>
<polyline clip-path="url(#clip122)" style="stroke:#ff0000; stroke-linecap:round; stroke-linejoin:round; stroke-width:12; stroke-opacity:1; fill:none" points="1569.72,1245.33 738.347,1210.06 523.18,1070.97 546.647,927.382 548.595,785.816 "/>
<line clip-path="url(#clip122)" x1="1569.72" y1="1245.33" x2="1569.72" y2="1229.33" style="stroke:#ff0000; stroke-width:12; stroke-opacity:1"/>
<line clip-path="url(#clip122)" x1="1569.72" y1="1245.33" x2="1553.72" y2="1245.33" style="stroke:#ff0000; stroke-width:12; stroke-opacity:1"/>
<line clip-path="url(#clip122)" x1="1569.72" y1="1245.33" x2="1569.72" y2="1261.33" style="stroke:#ff0000; stroke-width:12; stroke-opacity:1"/>
<line clip-path="url(#clip122)" x1="1569.72" y1="1245.33" x2="1585.72" y2="1245.33" style="stroke:#ff0000; stroke-width:12; stroke-opacity:1"/>
<line clip-path="url(#clip122)" x1="738.347" y1="1210.06" x2="738.347" y2="1194.06" style="stroke:#ff0000; stroke-width:12; stroke-opacity:1"/>
<line clip-path="url(#clip122)" x1="738.347" y1="1210.06" x2="722.347" y2="1210.06" style="stroke:#ff0000; stroke-width:12; stroke-opacity:1"/>
<line clip-path="url(#clip122)" x1="738.347" y1="1210.06" x2="738.347" y2="1226.06" style="stroke:#ff0000; stroke-width:12; stroke-opacity:1"/>
<line clip-path="url(#clip122)" x1="738.347" y1="1210.06" x2="754.347" y2="1210.06" style="stroke:#ff0000; stroke-width:12; stroke-opacity:1"/>
<line clip-path="url(#clip122)" x1="523.18" y1="1070.97" x2="523.18" y2="1054.97" style="stroke:#ff0000; stroke-width:12; stroke-opacity:1"/>
<line clip-path="url(#clip122)" x1="523.18" y1="1070.97" x2="507.18" y2="1070.97" style="stroke:#ff0000; stroke-width:12; stroke-opacity:1"/>
<line clip-path="url(#clip122)" x1="523.18" y1="1070.97" x2="523.18" y2="1086.97" style="stroke:#ff0000; stroke-width:12; stroke-opacity:1"/>
<line clip-path="url(#clip122)" x1="523.18" y1="1070.97" x2="539.18" y2="1070.97" style="stroke:#ff0000; stroke-width:12; stroke-opacity:1"/>
<line clip-path="url(#clip122)" x1="546.647" y1="927.382" x2="546.647" y2="911.382" style="stroke:#ff0000; stroke-width:12; stroke-opacity:1"/>
<line clip-path="url(#clip122)" x1="546.647" y1="927.382" x2="530.647" y2="927.382" style="stroke:#ff0000; stroke-width:12; stroke-opacity:1"/>
<line clip-path="url(#clip122)" x1="546.647" y1="927.382" x2="546.647" y2="943.382" style="stroke:#ff0000; stroke-width:12; stroke-opacity:1"/>
<line clip-path="url(#clip122)" x1="546.647" y1="927.382" x2="562.647" y2="927.382" style="stroke:#ff0000; stroke-width:12; stroke-opacity:1"/>
<line clip-path="url(#clip122)" x1="548.595" y1="785.816" x2="548.595" y2="769.816" style="stroke:#ff0000; stroke-width:12; stroke-opacity:1"/>
<line clip-path="url(#clip122)" x1="548.595" y1="785.816" x2="532.595" y2="785.816" style="stroke:#ff0000; stroke-width:12; stroke-opacity:1"/>
<line clip-path="url(#clip122)" x1="548.595" y1="785.816" x2="548.595" y2="801.816" style="stroke:#ff0000; stroke-width:12; stroke-opacity:1"/>
<line clip-path="url(#clip122)" x1="548.595" y1="785.816" x2="564.595" y2="785.816" style="stroke:#ff0000; stroke-width:12; stroke-opacity:1"/>
<path clip-path="url(#clip120)" d="M1904.12 295.703 L2256.76 295.703 L2256.76 88.3434 L1904.12 88.3434  Z" fill="#ffffff" fill-rule="evenodd" fill-opacity="1"/>
<polyline clip-path="url(#clip120)" style="stroke:#000000; stroke-linecap:round; stroke-linejoin:round; stroke-width:4; stroke-opacity:1; fill:none" points="1904.12,295.703 2256.76,295.703 2256.76,88.3434 1904.12,88.3434 1904.12,295.703 "/>
<polyline clip-path="url(#clip120)" style="stroke:#0000ff; stroke-linecap:round; stroke-linejoin:round; stroke-width:12; stroke-opacity:1; fill:none" points="1925.87,140.183 2056.4,140.183 "/>
<line clip-path="url(#clip120)" x1="1991.14" y1="140.183" x2="1991.14" y2="120.04" style="stroke:#0000ff; stroke-width:12; stroke-opacity:1"/>
<line clip-path="url(#clip120)" x1="1991.14" y1="140.183" x2="1970.99" y2="140.183" style="stroke:#0000ff; stroke-width:12; stroke-opacity:1"/>
<line clip-path="url(#clip120)" x1="1991.14" y1="140.183" x2="1991.14" y2="160.327" style="stroke:#0000ff; stroke-width:12; stroke-opacity:1"/>
<line clip-path="url(#clip120)" x1="1991.14" y1="140.183" x2="2011.28" y2="140.183" style="stroke:#0000ff; stroke-width:12; stroke-opacity:1"/>
<path clip-path="url(#clip120)" d="M2078.16 157.463 L2078.16 155.907 L2079.37 155.907 Q2082.11 155.907 2082.73 155.462 Q2083.37 154.993 2083.37 153.511 L2083.37 127.004 Q2083.37 125.547 2082.73 125.102 Q2082.09 124.633 2079.37 124.633 L2078.16 124.633 L2078.16 123.052 L2106.64 123.052 L2108.05 134.44 L2106.79 134.44 Q2106.44 131.55 2105.98 129.894 Q2105.53 128.215 2104.42 126.93 Q2103.33 125.646 2101.53 125.151 Q2099.75 124.633 2096.86 124.633 L2090.34 124.633 Q2088.61 124.633 2088.24 125.003 Q2087.87 125.349 2087.87 126.658 L2087.87 138.788 L2092.41 138.788 Q2095.9 138.788 2096.88 137.577 Q2097.87 136.367 2097.87 132.884 L2099.16 132.884 L2099.16 146.273 L2097.87 146.273 Q2097.87 142.839 2096.88 141.604 Q2095.9 140.369 2092.41 140.369 L2087.87 140.369 L2087.87 153.881 Q2087.87 155.191 2088.24 155.561 Q2088.63 155.907 2090.34 155.907 L2097.08 155.907 Q2099.26 155.907 2100.84 155.635 Q2102.44 155.339 2103.55 154.647 Q2104.67 153.931 2105.41 153.116 Q2106.17 152.3 2106.69 150.843 Q2107.23 149.361 2107.53 148.002 Q2107.85 146.643 2108.2 144.42 L2109.46 144.42 L2107.33 157.463 L2078.16 157.463 Z" fill="#000000" fill-rule="nonzero" fill-opacity="1" /><path clip-path="url(#clip120)" d="M2112.55 157.463 L2112.55 155.907 L2113.76 155.907 Q2116.5 155.907 2117.12 155.462 Q2117.76 154.993 2117.76 153.511 L2117.76 126.856 Q2117.76 125.398 2117.12 124.954 Q2116.47 124.484 2113.76 124.484 L2112.55 124.484 L2112.55 122.903 Q2114.32 123.052 2120.03 123.052 Q2125.69 123.052 2127.47 122.903 L2127.47 124.484 L2126.26 124.484 Q2123.51 124.484 2122.87 124.954 Q2122.25 125.398 2122.25 126.856 L2122.25 142.938 L2138.09 127.819 Q2139 127.004 2139 126.14 Q2139 125.843 2138.86 125.522 Q2138.73 125.176 2138.14 124.83 Q2137.57 124.484 2136.66 124.484 L2136.66 122.903 Q2138.39 123.052 2143.1 123.052 Q2146.09 123.052 2147.4 122.903 L2147.4 124.484 Q2143.2 124.534 2140.21 127.523 L2131.1 136.268 L2142.78 153.461 Q2143.85 155.018 2144.88 155.462 Q2145.92 155.907 2148.09 155.907 L2148.09 157.463 Q2144.91 157.315 2142.29 157.315 Q2136.83 157.315 2135.05 157.463 L2135.05 155.907 Q2138.04 155.907 2138.04 154.376 Q2138.04 153.807 2137.27 152.646 L2128.11 139.109 L2122.25 144.667 L2122.25 153.511 Q2122.25 154.968 2122.87 155.438 Q2123.51 155.907 2126.26 155.907 L2127.47 155.907 L2127.47 157.463 Q2125.69 157.315 2119.98 157.315 Q2114.32 157.315 2112.55 157.463 Z" fill="#000000" fill-rule="nonzero" fill-opacity="1" /><path clip-path="url(#clip120)" d="M2154.67 128.585 L2154.67 127.004 Q2160.74 127.004 2163.88 123.768 Q2164.74 123.768 2164.89 123.966 Q2165.04 124.163 2165.04 125.077 L2165.04 153.461 Q2165.04 154.968 2165.78 155.438 Q2166.52 155.907 2169.76 155.907 L2171.36 155.907 L2171.36 157.463 Q2169.59 157.315 2163.16 157.315 Q2156.74 157.315 2154.99 157.463 L2154.99 155.907 L2156.59 155.907 Q2159.78 155.907 2160.54 155.462 Q2161.31 154.993 2161.31 153.461 L2161.31 127.251 Q2158.67 128.585 2154.67 128.585 Z" fill="#000000" fill-rule="nonzero" fill-opacity="1" /><path clip-path="url(#clip120)" d="M2180.48 144.815 Q2180.48 136.268 2183.67 129.376 Q2185.03 126.485 2186.93 124.064 Q2188.83 121.644 2190.09 120.581 Q2191.35 119.519 2191.7 119.519 Q2192.19 119.519 2192.21 120.013 Q2192.21 120.26 2191.55 120.878 Q2183.4 129.178 2183.42 144.815 Q2183.42 160.502 2191.35 168.481 Q2192.21 169.346 2192.21 169.617 Q2192.21 170.112 2191.7 170.112 Q2191.35 170.112 2190.14 169.099 Q2188.93 168.086 2187.05 165.764 Q2185.17 163.442 2183.82 160.601 Q2180.48 153.709 2180.48 144.815 Z" fill="#000000" fill-rule="nonzero" fill-opacity="1" /><path clip-path="url(#clip120)" d="M2197.6 157.463 Q2197.6 156.549 2197.67 156.278 Q2197.77 156.006 2198.17 155.586 L2207.88 144.766 Q2213.19 138.788 2213.19 133.575 Q2213.19 130.191 2211.41 127.77 Q2209.66 125.349 2206.42 125.349 Q2204.2 125.349 2202.32 126.708 Q2200.44 128.066 2199.58 130.487 Q2199.72 130.438 2200.24 130.438 Q2201.5 130.438 2202.19 131.228 Q2202.91 132.019 2202.91 133.081 Q2202.91 134.44 2202.02 135.107 Q2201.16 135.749 2200.29 135.749 Q2199.95 135.749 2199.48 135.675 Q2199.03 135.601 2198.32 134.909 Q2197.6 134.193 2197.6 132.933 Q2197.6 129.4 2200.27 126.584 Q2202.96 123.768 2207.06 123.768 Q2211.71 123.768 2214.74 126.535 Q2217.81 129.277 2217.81 133.575 Q2217.81 135.082 2217.34 136.466 Q2216.89 137.824 2216.28 138.887 Q2215.68 139.949 2214.05 141.653 Q2212.42 143.358 2211.11 144.568 Q2209.8 145.779 2206.86 148.348 L2201.5 153.56 L2210.62 153.56 Q2215.07 153.56 2215.41 153.165 Q2215.91 152.449 2216.52 148.669 L2217.81 148.669 L2216.37 157.463 L2197.6 157.463 Z" fill="#000000" fill-rule="nonzero" fill-opacity="1" /><path clip-path="url(#clip120)" d="M2223.27 169.617 Q2223.27 169.37 2223.91 168.753 Q2232.06 160.453 2232.06 144.815 Q2232.06 129.129 2224.23 121.199 Q2223.27 120.285 2223.27 120.013 Q2223.27 119.519 2223.76 119.519 Q2224.11 119.519 2225.32 120.532 Q2226.55 121.545 2228.4 123.867 Q2230.28 126.189 2231.67 129.03 Q2235 135.922 2235 144.815 Q2235 153.363 2231.81 160.255 Q2230.46 163.145 2228.55 165.566 Q2226.65 167.987 2225.39 169.049 Q2224.13 170.112 2223.76 170.112 Q2223.27 170.112 2223.27 169.617 Z" fill="#000000" fill-rule="nonzero" fill-opacity="1" /><polyline clip-path="url(#clip120)" style="stroke:#7f007f; stroke-linecap:round; stroke-linejoin:round; stroke-width:12; stroke-opacity:1; fill:none" points="1925.87,192.023 2056.4,192.023 "/>
<circle clip-path="url(#clip120)" cx="1991.14" cy="192.023" r="18.1293" fill="#7f007f" fill-rule="evenodd" fill-opacity="1" stroke="#000000" stroke-opacity="1" stroke-width="2.31304"/>
<path clip-path="url(#clip120)" d="M2078.16 209.303 L2078.16 207.747 L2079.37 207.747 Q2082.11 207.747 2082.73 207.302 Q2083.37 206.833 2083.37 205.351 L2083.37 178.844 Q2083.37 177.387 2082.73 176.942 Q2082.09 176.473 2079.37 176.473 L2078.16 176.473 L2078.16 174.892 L2106.64 174.892 L2108.05 186.28 L2106.79 186.28 Q2106.44 183.39 2105.98 181.734 Q2105.53 180.055 2104.42 178.77 Q2103.33 177.486 2101.53 176.991 Q2099.75 176.473 2096.86 176.473 L2090.34 176.473 Q2088.61 176.473 2088.24 176.843 Q2087.87 177.189 2087.87 178.498 L2087.87 190.628 L2092.41 190.628 Q2095.9 190.628 2096.88 189.417 Q2097.87 188.207 2097.87 184.724 L2099.16 184.724 L2099.16 198.113 L2097.87 198.113 Q2097.87 194.679 2096.88 193.444 Q2095.9 192.209 2092.41 192.209 L2087.87 192.209 L2087.87 205.721 Q2087.87 207.031 2088.24 207.401 Q2088.63 207.747 2090.34 207.747 L2097.08 207.747 Q2099.26 207.747 2100.84 207.475 Q2102.44 207.179 2103.55 206.487 Q2104.67 205.771 2105.41 204.956 Q2106.17 204.14 2106.69 202.683 Q2107.23 201.201 2107.53 199.842 Q2107.85 198.483 2108.2 196.26 L2109.46 196.26 L2107.33 209.303 L2078.16 209.303 Z" fill="#000000" fill-rule="nonzero" fill-opacity="1" /><path clip-path="url(#clip120)" d="M2112.55 209.303 L2112.55 207.747 L2113.76 207.747 Q2116.5 207.747 2117.12 207.302 Q2117.76 206.833 2117.76 205.351 L2117.76 178.696 Q2117.76 177.238 2117.12 176.794 Q2116.47 176.324 2113.76 176.324 L2112.55 176.324 L2112.55 174.743 Q2114.32 174.892 2120.03 174.892 Q2125.69 174.892 2127.47 174.743 L2127.47 176.324 L2126.26 176.324 Q2123.51 176.324 2122.87 176.794 Q2122.25 177.238 2122.25 178.696 L2122.25 194.778 L2138.09 179.659 Q2139 178.844 2139 177.98 Q2139 177.683 2138.86 177.362 Q2138.73 177.016 2138.14 176.67 Q2137.57 176.324 2136.66 176.324 L2136.66 174.743 Q2138.39 174.892 2143.1 174.892 Q2146.09 174.892 2147.4 174.743 L2147.4 176.324 Q2143.2 176.374 2140.21 179.363 L2131.1 188.108 L2142.78 205.301 Q2143.85 206.858 2144.88 207.302 Q2145.92 207.747 2148.09 207.747 L2148.09 209.303 Q2144.91 209.155 2142.29 209.155 Q2136.83 209.155 2135.05 209.303 L2135.05 207.747 Q2138.04 207.747 2138.04 206.216 Q2138.04 205.647 2137.27 204.486 L2128.11 190.949 L2122.25 196.507 L2122.25 205.351 Q2122.25 206.808 2122.87 207.278 Q2123.51 207.747 2126.26 207.747 L2127.47 207.747 L2127.47 209.303 Q2125.69 209.155 2119.98 209.155 Q2114.32 209.155 2112.55 209.303 Z" fill="#000000" fill-rule="nonzero" fill-opacity="1" /><path clip-path="url(#clip120)" d="M2154.67 180.425 L2154.67 178.844 Q2160.74 178.844 2163.88 175.608 Q2164.74 175.608 2164.89 175.806 Q2165.04 176.003 2165.04 176.917 L2165.04 205.301 Q2165.04 206.808 2165.78 207.278 Q2166.52 207.747 2169.76 207.747 L2171.36 207.747 L2171.36 209.303 Q2169.59 209.155 2163.16 209.155 Q2156.74 209.155 2154.99 209.303 L2154.99 207.747 L2156.59 207.747 Q2159.78 207.747 2160.54 207.302 Q2161.31 206.833 2161.31 205.301 L2161.31 179.091 Q2158.67 180.425 2154.67 180.425 Z" fill="#000000" fill-rule="nonzero" fill-opacity="1" /><path clip-path="url(#clip120)" d="M2180.48 196.655 Q2180.48 188.108 2183.67 181.216 Q2185.03 178.325 2186.93 175.904 Q2188.83 173.484 2190.09 172.421 Q2191.35 171.359 2191.7 171.359 Q2192.19 171.359 2192.21 171.853 Q2192.21 172.1 2191.55 172.718 Q2183.4 181.018 2183.42 196.655 Q2183.42 212.342 2191.35 220.321 Q2192.21 221.186 2192.21 221.457 Q2192.21 221.952 2191.7 221.952 Q2191.35 221.952 2190.14 220.939 Q2188.93 219.926 2187.05 217.604 Q2185.17 215.282 2183.82 212.441 Q2180.48 205.549 2180.48 196.655 Z" fill="#000000" fill-rule="nonzero" fill-opacity="1" /><path clip-path="url(#clip120)" d="M2197.2 202.485 Q2197.2 200.978 2198.07 200.262 Q2198.93 199.546 2200.05 199.546 Q2201.21 199.546 2202.02 200.311 Q2202.86 201.053 2202.86 202.362 Q2202.86 203.77 2201.87 204.56 Q2200.91 205.351 2199.53 205.153 Q2200.74 207.179 2202.96 208.093 Q2205.21 209.007 2207.28 209.007 Q2209.46 209.007 2211.21 207.13 Q2212.99 205.252 2212.99 200.657 Q2212.99 196.754 2211.46 194.506 Q2209.95 192.258 2206.96 192.258 L2204.74 192.258 Q2203.97 192.258 2203.75 192.184 Q2203.53 192.11 2203.53 191.69 Q2203.53 191.196 2204.29 191.097 Q2205.06 191.097 2206.27 190.949 Q2209.21 190.85 2210.77 188.306 Q2212.17 185.934 2212.17 182.55 Q2212.17 179.462 2210.69 178.177 Q2209.24 176.868 2207.33 176.868 Q2205.55 176.868 2203.6 177.609 Q2201.65 178.35 2200.59 180.005 Q2203.73 180.005 2203.73 182.55 Q2203.73 183.661 2203.01 184.402 Q2202.32 185.119 2201.16 185.119 Q2200.05 185.119 2199.3 184.427 Q2198.56 183.711 2198.56 182.5 Q2198.56 179.61 2201.13 177.609 Q2203.73 175.608 2207.53 175.608 Q2211.29 175.608 2214.05 177.584 Q2216.84 179.561 2216.84 182.599 Q2216.84 185.588 2214.87 188.034 Q2212.89 190.479 2209.75 191.492 Q2213.61 192.258 2215.91 194.877 Q2218.2 197.471 2218.2 200.657 Q2218.2 204.61 2215.09 207.525 Q2211.98 210.415 2207.43 210.415 Q2203.23 210.415 2200.22 208.142 Q2197.2 205.87 2197.2 202.485 Z" fill="#000000" fill-rule="nonzero" fill-opacity="1" /><path clip-path="url(#clip120)" d="M2223.27 221.457 Q2223.27 221.21 2223.91 220.593 Q2232.06 212.293 2232.06 196.655 Q2232.06 180.969 2224.23 173.039 Q2223.27 172.125 2223.27 171.853 Q2223.27 171.359 2223.76 171.359 Q2224.11 171.359 2225.32 172.372 Q2226.55 173.385 2228.4 175.707 Q2230.28 178.029 2231.67 180.87 Q2235 187.762 2235 196.655 Q2235 205.203 2231.81 212.095 Q2230.46 214.985 2228.55 217.406 Q2226.65 219.827 2225.39 220.889 Q2224.13 221.952 2223.76 221.952 Q2223.27 221.952 2223.27 221.457 Z" fill="#000000" fill-rule="nonzero" fill-opacity="1" /><polyline clip-path="url(#clip120)" style="stroke:#ff0000; stroke-linecap:round; stroke-linejoin:round; stroke-width:12; stroke-opacity:1; fill:none" points="1925.87,243.863 2056.4,243.863 "/>
<line clip-path="url(#clip120)" x1="1991.14" y1="243.863" x2="1991.14" y2="223.72" style="stroke:#ff0000; stroke-width:12; stroke-opacity:1"/>
<line clip-path="url(#clip120)" x1="1991.14" y1="243.863" x2="1970.99" y2="243.863" style="stroke:#ff0000; stroke-width:12; stroke-opacity:1"/>
<line clip-path="url(#clip120)" x1="1991.14" y1="243.863" x2="1991.14" y2="264.007" style="stroke:#ff0000; stroke-width:12; stroke-opacity:1"/>
<line clip-path="url(#clip120)" x1="1991.14" y1="243.863" x2="2011.28" y2="243.863" style="stroke:#ff0000; stroke-width:12; stroke-opacity:1"/>
<path clip-path="url(#clip120)" d="M2078.16 261.143 L2078.16 259.587 L2079.37 259.587 Q2082.11 259.587 2082.73 259.142 Q2083.37 258.673 2083.37 257.191 L2083.37 230.684 Q2083.37 229.227 2082.73 228.782 Q2082.09 228.313 2079.37 228.313 L2078.16 228.313 L2078.16 226.732 L2106.64 226.732 L2108.05 238.12 L2106.79 238.12 Q2106.44 235.23 2105.98 233.574 Q2105.53 231.895 2104.42 230.61 Q2103.33 229.326 2101.53 228.831 Q2099.75 228.313 2096.86 228.313 L2090.34 228.313 Q2088.61 228.313 2088.24 228.683 Q2087.87 229.029 2087.87 230.338 L2087.87 242.468 L2092.41 242.468 Q2095.9 242.468 2096.88 241.257 Q2097.87 240.047 2097.87 236.564 L2099.16 236.564 L2099.16 249.953 L2097.87 249.953 Q2097.87 246.519 2096.88 245.284 Q2095.9 244.049 2092.41 244.049 L2087.87 244.049 L2087.87 257.561 Q2087.87 258.871 2088.24 259.241 Q2088.63 259.587 2090.34 259.587 L2097.08 259.587 Q2099.26 259.587 2100.84 259.315 Q2102.44 259.019 2103.55 258.327 Q2104.67 257.611 2105.41 256.796 Q2106.17 255.98 2106.69 254.523 Q2107.23 253.041 2107.53 251.682 Q2107.85 250.323 2108.2 248.1 L2109.46 248.1 L2107.33 261.143 L2078.16 261.143 Z" fill="#000000" fill-rule="nonzero" fill-opacity="1" /><path clip-path="url(#clip120)" d="M2112.55 261.143 L2112.55 259.587 L2113.76 259.587 Q2116.5 259.587 2117.12 259.142 Q2117.76 258.673 2117.76 257.191 L2117.76 230.536 Q2117.76 229.078 2117.12 228.634 Q2116.47 228.164 2113.76 228.164 L2112.55 228.164 L2112.55 226.583 Q2114.32 226.732 2120.03 226.732 Q2125.69 226.732 2127.47 226.583 L2127.47 228.164 L2126.26 228.164 Q2123.51 228.164 2122.87 228.634 Q2122.25 229.078 2122.25 230.536 L2122.25 246.618 L2138.09 231.499 Q2139 230.684 2139 229.82 Q2139 229.523 2138.86 229.202 Q2138.73 228.856 2138.14 228.51 Q2137.57 228.164 2136.66 228.164 L2136.66 226.583 Q2138.39 226.732 2143.1 226.732 Q2146.09 226.732 2147.4 226.583 L2147.4 228.164 Q2143.2 228.214 2140.21 231.203 L2131.1 239.948 L2142.78 257.141 Q2143.85 258.698 2144.88 259.142 Q2145.92 259.587 2148.09 259.587 L2148.09 261.143 Q2144.91 260.995 2142.29 260.995 Q2136.83 260.995 2135.05 261.143 L2135.05 259.587 Q2138.04 259.587 2138.04 258.056 Q2138.04 257.487 2137.27 256.326 L2128.11 242.789 L2122.25 248.347 L2122.25 257.191 Q2122.25 258.648 2122.87 259.118 Q2123.51 259.587 2126.26 259.587 L2127.47 259.587 L2127.47 261.143 Q2125.69 260.995 2119.98 260.995 Q2114.32 260.995 2112.55 261.143 Z" fill="#000000" fill-rule="nonzero" fill-opacity="1" /><path clip-path="url(#clip120)" d="M2154.67 232.265 L2154.67 230.684 Q2160.74 230.684 2163.88 227.448 Q2164.74 227.448 2164.89 227.646 Q2165.04 227.843 2165.04 228.757 L2165.04 257.141 Q2165.04 258.648 2165.78 259.118 Q2166.52 259.587 2169.76 259.587 L2171.36 259.587 L2171.36 261.143 Q2169.59 260.995 2163.16 260.995 Q2156.74 260.995 2154.99 261.143 L2154.99 259.587 L2156.59 259.587 Q2159.78 259.587 2160.54 259.142 Q2161.31 258.673 2161.31 257.141 L2161.31 230.931 Q2158.67 232.265 2154.67 232.265 Z" fill="#000000" fill-rule="nonzero" fill-opacity="1" /><path clip-path="url(#clip120)" d="M2180.48 248.495 Q2180.48 239.948 2183.67 233.056 Q2185.03 230.165 2186.93 227.744 Q2188.83 225.324 2190.09 224.261 Q2191.35 223.199 2191.7 223.199 Q2192.19 223.199 2192.21 223.693 Q2192.21 223.94 2191.55 224.558 Q2183.4 232.858 2183.42 248.495 Q2183.42 264.182 2191.35 272.161 Q2192.21 273.026 2192.21 273.297 Q2192.21 273.792 2191.7 273.792 Q2191.35 273.792 2190.14 272.779 Q2188.93 271.766 2187.05 269.444 Q2185.17 267.122 2183.82 264.281 Q2180.48 257.389 2180.48 248.495 Z" fill="#000000" fill-rule="nonzero" fill-opacity="1" /><path clip-path="url(#clip120)" d="M2196.49 252.794 L2196.49 251.237 L2212.03 227.497 Q2212.42 226.88 2213.04 226.905 Q2213.61 226.905 2213.73 227.127 Q2213.85 227.349 2213.85 228.214 L2213.85 251.237 L2218.92 251.237 L2218.92 252.794 L2213.85 252.794 L2213.85 257.191 Q2213.85 258.648 2214.45 259.118 Q2215.07 259.587 2217.68 259.587 L2218.75 259.587 L2218.75 261.143 Q2216.67 260.995 2211.88 260.995 Q2207.11 260.995 2205.04 261.143 L2205.04 259.587 L2206.1 259.587 Q2208.72 259.587 2209.33 259.142 Q2209.95 258.673 2209.95 257.191 L2209.95 252.794 L2196.49 252.794 M2197.92 251.237 L2210.25 251.237 L2210.25 232.364 L2197.92 251.237 Z" fill="#000000" fill-rule="nonzero" fill-opacity="1" /><path clip-path="url(#clip120)" d="M2223.27 273.297 Q2223.27 273.05 2223.91 272.433 Q2232.06 264.133 2232.06 248.495 Q2232.06 232.809 2224.23 224.879 Q2223.27 223.965 2223.27 223.693 Q2223.27 223.199 2223.76 223.199 Q2224.11 223.199 2225.32 224.212 Q2226.55 225.225 2228.4 227.547 Q2230.28 229.869 2231.67 232.71 Q2235 239.602 2235 248.495 Q2235 257.043 2231.81 263.935 Q2230.46 266.825 2228.55 269.246 Q2226.65 271.667 2225.39 272.729 Q2224.13 273.792 2223.76 273.792 Q2223.27 273.792 2223.27 273.297 Z" fill="#000000" fill-rule="nonzero" fill-opacity="1" /></svg>
