<?xml version="1.0" encoding="utf-8"?>
<svg xmlns="http://www.w3.org/2000/svg" xmlns:xlink="http://www.w3.org/1999/xlink" width="576" height="384" viewBox="0 0 2304 1536">
<defs>
  <clipPath id="clip850">
    <rect x="0" y="0" width="2304" height="1536"/>
  </clipPath>
</defs>
<path clip-path="url(#clip850)" d="M0 1536 L2304 1536 L2304 0 L0 0  Z" fill="#ffffff" fill-rule="evenodd" fill-opacity="1"/>
<defs>
  <clipPath id="clip851">
    <rect x="460" y="0" width="1614" height="1536"/>
  </clipPath>
</defs>
<path clip-path="url(#clip850)" d="M298.791 1280.22 L1838.85 1280.22 L1838.85 47.2441 L298.791 47.2441  Z" fill="#ffffff" fill-rule="evenodd" fill-opacity="1"/>
<defs>
  <clipPath id="clip852">
    <rect x="298" y="47" width="1541" height="1234"/>
  </clipPath>
</defs>
<polyline clip-path="url(#clip852)" style="stroke:#000000; stroke-linecap:round; stroke-linejoin:round; stroke-width:2.8; stroke-opacity:0.4; fill:none" points="455.963,1280.22 455.963,47.2441 "/>
<polyline clip-path="url(#clip852)" style="stroke:#000000; stroke-linecap:round; stroke-linejoin:round; stroke-width:2.8; stroke-opacity:0.4; fill:none" points="750.591,1280.22 750.591,47.2441 "/>
<polyline clip-path="url(#clip852)" style="stroke:#000000; stroke-linecap:round; stroke-linejoin:round; stroke-width:2.8; stroke-opacity:0.4; fill:none" points="1045.22,1280.22 1045.22,47.2441 "/>
<polyline clip-path="url(#clip852)" style="stroke:#000000; stroke-linecap:round; stroke-linejoin:round; stroke-width:2.8; stroke-opacity:0.4; fill:none" points="1339.85,1280.22 1339.85,47.2441 "/>
<polyline clip-path="url(#clip852)" style="stroke:#000000; stroke-linecap:round; stroke-linejoin:round; stroke-width:2.8; stroke-opacity:0.4; fill:none" points="1634.48,1280.22 1634.48,47.2441 "/>
<polyline clip-path="url(#clip852)" style="stroke:#000000; stroke-linecap:round; stroke-linejoin:round; stroke-width:2; stroke-opacity:0.06; fill:none" points="356.602,1280.22 356.602,47.2441 "/>
<polyline clip-path="url(#clip852)" style="stroke:#000000; stroke-linecap:round; stroke-linejoin:round; stroke-width:2; stroke-opacity:0.06; fill:none" points="398.858,1280.22 398.858,47.2441 "/>
<polyline clip-path="url(#clip852)" style="stroke:#000000; stroke-linecap:round; stroke-linejoin:round; stroke-width:2; stroke-opacity:0.06; fill:none" points="430.57,1280.22 430.57,47.2441 "/>
<polyline clip-path="url(#clip852)" style="stroke:#000000; stroke-linecap:round; stroke-linejoin:round; stroke-width:2; stroke-opacity:0.06; fill:none" points="587.708,1280.22 587.708,47.2441 "/>
<polyline clip-path="url(#clip852)" style="stroke:#000000; stroke-linecap:round; stroke-linejoin:round; stroke-width:2; stroke-opacity:0.06; fill:none" points="651.23,1280.22 651.23,47.2441 "/>
<polyline clip-path="url(#clip852)" style="stroke:#000000; stroke-linecap:round; stroke-linejoin:round; stroke-width:2; stroke-opacity:0.06; fill:none" points="693.487,1280.22 693.487,47.2441 "/>
<polyline clip-path="url(#clip852)" style="stroke:#000000; stroke-linecap:round; stroke-linejoin:round; stroke-width:2; stroke-opacity:0.06; fill:none" points="725.199,1280.22 725.199,47.2441 "/>
<polyline clip-path="url(#clip852)" style="stroke:#000000; stroke-linecap:round; stroke-linejoin:round; stroke-width:2; stroke-opacity:0.06; fill:none" points="882.337,1280.22 882.337,47.2441 "/>
<polyline clip-path="url(#clip852)" style="stroke:#000000; stroke-linecap:round; stroke-linejoin:round; stroke-width:2; stroke-opacity:0.06; fill:none" points="945.859,1280.22 945.859,47.2441 "/>
<polyline clip-path="url(#clip852)" style="stroke:#000000; stroke-linecap:round; stroke-linejoin:round; stroke-width:2; stroke-opacity:0.06; fill:none" points="988.115,1280.22 988.115,47.2441 "/>
<polyline clip-path="url(#clip852)" style="stroke:#000000; stroke-linecap:round; stroke-linejoin:round; stroke-width:2; stroke-opacity:0.06; fill:none" points="1019.83,1280.22 1019.83,47.2441 "/>
<polyline clip-path="url(#clip852)" style="stroke:#000000; stroke-linecap:round; stroke-linejoin:round; stroke-width:2; stroke-opacity:0.06; fill:none" points="1176.97,1280.22 1176.97,47.2441 "/>
<polyline clip-path="url(#clip852)" style="stroke:#000000; stroke-linecap:round; stroke-linejoin:round; stroke-width:2; stroke-opacity:0.06; fill:none" points="1240.49,1280.22 1240.49,47.2441 "/>
<polyline clip-path="url(#clip852)" style="stroke:#000000; stroke-linecap:round; stroke-linejoin:round; stroke-width:2; stroke-opacity:0.06; fill:none" points="1282.74,1280.22 1282.74,47.2441 "/>
<polyline clip-path="url(#clip852)" style="stroke:#000000; stroke-linecap:round; stroke-linejoin:round; stroke-width:2; stroke-opacity:0.06; fill:none" points="1314.46,1280.22 1314.46,47.2441 "/>
<polyline clip-path="url(#clip852)" style="stroke:#000000; stroke-linecap:round; stroke-linejoin:round; stroke-width:2; stroke-opacity:0.06; fill:none" points="1471.59,1280.22 1471.59,47.2441 "/>
<polyline clip-path="url(#clip852)" style="stroke:#000000; stroke-linecap:round; stroke-linejoin:round; stroke-width:2; stroke-opacity:0.06; fill:none" points="1535.12,1280.22 1535.12,47.2441 "/>
<polyline clip-path="url(#clip852)" style="stroke:#000000; stroke-linecap:round; stroke-linejoin:round; stroke-width:2; stroke-opacity:0.06; fill:none" points="1577.37,1280.22 1577.37,47.2441 "/>
<polyline clip-path="url(#clip852)" style="stroke:#000000; stroke-linecap:round; stroke-linejoin:round; stroke-width:2; stroke-opacity:0.06; fill:none" points="1609.08,1280.22 1609.08,47.2441 "/>
<polyline clip-path="url(#clip852)" style="stroke:#000000; stroke-linecap:round; stroke-linejoin:round; stroke-width:2; stroke-opacity:0.06; fill:none" points="1766.22,1280.22 1766.22,47.2441 "/>
<polyline clip-path="url(#clip852)" style="stroke:#000000; stroke-linecap:round; stroke-linejoin:round; stroke-width:2; stroke-opacity:0.06; fill:none" points="1829.74,1280.22 1829.74,47.2441 "/>
<polyline clip-path="url(#clip850)" style="stroke:#000000; stroke-linecap:round; stroke-linejoin:round; stroke-width:4; stroke-opacity:1; fill:none" points="298.791,1280.22 1838.85,1280.22 "/>
<polyline clip-path="url(#clip850)" style="stroke:#000000; stroke-linecap:round; stroke-linejoin:round; stroke-width:4; stroke-opacity:1; fill:none" points="298.791,47.2441 1838.85,47.2441 "/>
<polyline clip-path="url(#clip850)" style="stroke:#000000; stroke-linecap:round; stroke-linejoin:round; stroke-width:4; stroke-opacity:1; fill:none" points="455.963,1280.22 455.963,1261.33 "/>
<polyline clip-path="url(#clip850)" style="stroke:#000000; stroke-linecap:round; stroke-linejoin:round; stroke-width:4; stroke-opacity:1; fill:none" points="750.591,1280.22 750.591,1261.33 "/>
<polyline clip-path="url(#clip850)" style="stroke:#000000; stroke-linecap:round; stroke-linejoin:round; stroke-width:4; stroke-opacity:1; fill:none" points="1045.22,1280.22 1045.22,1261.33 "/>
<polyline clip-path="url(#clip850)" style="stroke:#000000; stroke-linecap:round; stroke-linejoin:round; stroke-width:4; stroke-opacity:1; fill:none" points="1339.85,1280.22 1339.85,1261.33 "/>
<polyline clip-path="url(#clip850)" style="stroke:#000000; stroke-linecap:round; stroke-linejoin:round; stroke-width:4; stroke-opacity:1; fill:none" points="1634.48,1280.22 1634.48,1261.33 "/>
<polyline clip-path="url(#clip850)" style="stroke:#000000; stroke-linecap:round; stroke-linejoin:round; stroke-width:4; stroke-opacity:1; fill:none" points="356.602,1280.22 356.602,1270.78 "/>
<polyline clip-path="url(#clip850)" style="stroke:#000000; stroke-linecap:round; stroke-linejoin:round; stroke-width:4; stroke-opacity:1; fill:none" points="398.858,1280.22 398.858,1270.78 "/>
<polyline clip-path="url(#clip850)" style="stroke:#000000; stroke-linecap:round; stroke-linejoin:round; stroke-width:4; stroke-opacity:1; fill:none" points="430.57,1280.22 430.57,1270.78 "/>
<polyline clip-path="url(#clip850)" style="stroke:#000000; stroke-linecap:round; stroke-linejoin:round; stroke-width:4; stroke-opacity:1; fill:none" points="587.708,1280.22 587.708,1270.78 "/>
<polyline clip-path="url(#clip850)" style="stroke:#000000; stroke-linecap:round; stroke-linejoin:round; stroke-width:4; stroke-opacity:1; fill:none" points="651.23,1280.22 651.23,1270.78 "/>
<polyline clip-path="url(#clip850)" style="stroke:#000000; stroke-linecap:round; stroke-linejoin:round; stroke-width:4; stroke-opacity:1; fill:none" points="693.487,1280.22 693.487,1270.78 "/>
<polyline clip-path="url(#clip850)" style="stroke:#000000; stroke-linecap:round; stroke-linejoin:round; stroke-width:4; stroke-opacity:1; fill:none" points="725.199,1280.22 725.199,1270.78 "/>
<polyline clip-path="url(#clip850)" style="stroke:#000000; stroke-linecap:round; stroke-linejoin:round; stroke-width:4; stroke-opacity:1; fill:none" points="882.337,1280.22 882.337,1270.78 "/>
<polyline clip-path="url(#clip850)" style="stroke:#000000; stroke-linecap:round; stroke-linejoin:round; stroke-width:4; stroke-opacity:1; fill:none" points="945.859,1280.22 945.859,1270.78 "/>
<polyline clip-path="url(#clip850)" style="stroke:#000000; stroke-linecap:round; stroke-linejoin:round; stroke-width:4; stroke-opacity:1; fill:none" points="988.115,1280.22 988.115,1270.78 "/>
<polyline clip-path="url(#clip850)" style="stroke:#000000; stroke-linecap:round; stroke-linejoin:round; stroke-width:4; stroke-opacity:1; fill:none" points="1019.83,1280.22 1019.83,1270.78 "/>
<polyline clip-path="url(#clip850)" style="stroke:#000000; stroke-linecap:round; stroke-linejoin:round; stroke-width:4; stroke-opacity:1; fill:none" points="1176.97,1280.22 1176.97,1270.78 "/>
<polyline clip-path="url(#clip850)" style="stroke:#000000; stroke-linecap:round; stroke-linejoin:round; stroke-width:4; stroke-opacity:1; fill:none" points="1240.49,1280.22 1240.49,1270.78 "/>
<polyline clip-path="url(#clip850)" style="stroke:#000000; stroke-linecap:round; stroke-linejoin:round; stroke-width:4; stroke-opacity:1; fill:none" points="1282.74,1280.22 1282.74,1270.78 "/>
<polyline clip-path="url(#clip850)" style="stroke:#000000; stroke-linecap:round; stroke-linejoin:round; stroke-width:4; stroke-opacity:1; fill:none" points="1314.46,1280.22 1314.46,1270.78 "/>
<polyline clip-path="url(#clip850)" style="stroke:#000000; stroke-linecap:round; stroke-linejoin:round; stroke-width:4; stroke-opacity:1; fill:none" points="1471.59,1280.22 1471.59,1270.78 "/>
<polyline clip-path="url(#clip850)" style="stroke:#000000; stroke-linecap:round; stroke-linejoin:round; stroke-width:4; stroke-opacity:1; fill:none" points="1535.12,1280.22 1535.12,1270.78 "/>
<polyline clip-path="url(#clip850)" style="stroke:#000000; stroke-linecap:round; stroke-linejoin:round; stroke-width:4; stroke-opacity:1; fill:none" points="1577.37,1280.22 1577.37,1270.78 "/>
<polyline clip-path="url(#clip850)" style="stroke:#000000; stroke-linecap:round; stroke-linejoin:round; stroke-width:4; stroke-opacity:1; fill:none" points="1609.08,1280.22 1609.08,1270.78 "/>
<polyline clip-path="url(#clip850)" style="stroke:#000000; stroke-linecap:round; stroke-linejoin:round; stroke-width:4; stroke-opacity:1; fill:none" points="1766.22,1280.22 1766.22,1270.78 "/>
<polyline clip-path="url(#clip850)" style="stroke:#000000; stroke-linecap:round; stroke-linejoin:round; stroke-width:4; stroke-opacity:1; fill:none" points="1829.74,1280.22 1829.74,1270.78 "/>
<path clip-path="url(#clip850)" d="M399.425 1328.64 L399.425 1327.06 Q405.502 1327.06 408.639 1323.82 Q409.504 1323.82 409.652 1324.02 Q409.8 1324.22 409.8 1325.13 L409.8 1353.51 Q409.8 1355.02 410.541 1355.49 Q411.282 1355.96 414.518 1355.96 L416.124 1355.96 L416.124 1357.52 Q414.345 1357.37 407.923 1357.37 Q401.5 1357.37 399.746 1357.52 L399.746 1355.96 L401.351 1355.96 Q404.538 1355.96 405.304 1355.52 Q406.07 1355.05 406.07 1353.51 L406.07 1327.3 Q403.426 1328.64 399.425 1328.64 Z" fill="#000000" fill-rule="nonzero" fill-opacity="1" /><path clip-path="url(#clip850)" d="M422.201 1341.34 Q422.201 1333.9 424.079 1329.85 Q426.697 1323.82 432.873 1323.82 Q434.182 1323.82 435.541 1324.19 Q436.924 1324.54 438.653 1325.9 Q440.407 1327.25 441.47 1329.48 Q443.495 1333.78 443.495 1341.34 Q443.495 1348.72 441.618 1352.75 Q438.876 1358.63 432.823 1358.63 Q430.551 1358.63 428.229 1357.47 Q425.931 1356.31 424.474 1353.51 Q422.201 1349.34 422.201 1341.34 M426.401 1340.72 Q426.401 1348.35 426.944 1351.39 Q427.562 1354.68 429.242 1356.11 Q430.946 1357.52 432.823 1357.52 Q434.849 1357.52 436.529 1356.01 Q438.234 1354.48 438.752 1351.19 Q439.32 1347.96 439.296 1340.72 Q439.296 1333.68 438.802 1330.86 Q438.135 1327.58 436.356 1326.27 Q434.602 1324.93 432.823 1324.93 Q432.157 1324.93 431.44 1325.13 Q430.748 1325.33 429.736 1325.9 Q428.723 1326.46 427.932 1327.87 Q427.166 1329.28 426.796 1331.41 Q426.401 1334.15 426.401 1340.72 Z" fill="#000000" fill-rule="nonzero" fill-opacity="1" /><path clip-path="url(#clip850)" d="M470.632 1319.25 Q470.873 1319.49 470.873 1319.83 Q470.873 1320.17 470.632 1320.41 Q470.391 1320.65 470.05 1320.65 L444.318 1320.65 Q443.977 1320.65 443.736 1320.41 Q443.495 1320.17 443.495 1319.83 Q443.495 1319.49 443.736 1319.25 Q443.977 1319.01 444.318 1319.01 L470.05 1319.01 Q470.391 1319.01 470.632 1319.25 Z" fill="#000000" fill-rule="nonzero" fill-opacity="1" /><path clip-path="url(#clip850)" d="M476.814 1306.64 L476.814 1305.36 Q481.752 1305.36 484.301 1302.73 Q485.003 1302.73 485.124 1302.89 Q485.244 1303.05 485.244 1303.79 L485.244 1326.85 Q485.244 1328.08 485.846 1328.46 Q486.448 1328.84 489.078 1328.84 L490.382 1328.84 L490.382 1330.11 Q488.937 1329.99 483.719 1329.99 Q478.5 1329.99 477.075 1330.11 L477.075 1328.84 L478.38 1328.84 Q480.969 1328.84 481.591 1328.48 Q482.213 1328.1 482.213 1326.85 L482.213 1305.56 Q480.066 1306.64 476.814 1306.64 Z" fill="#000000" fill-rule="nonzero" fill-opacity="1" /><path clip-path="url(#clip850)" d="M495.44 1324.57 Q495.44 1323.34 496.143 1322.76 Q496.845 1322.18 497.749 1322.18 Q498.692 1322.18 499.354 1322.8 Q500.037 1323.4 500.037 1324.47 Q500.037 1325.61 499.234 1326.25 Q498.451 1326.89 497.327 1326.73 Q498.311 1328.38 500.117 1329.12 Q501.943 1329.87 503.629 1329.87 Q505.396 1329.87 506.821 1328.34 Q508.266 1326.81 508.266 1323.08 Q508.266 1319.91 507.022 1318.08 Q505.797 1316.26 503.369 1316.26 L501.562 1316.26 Q500.94 1316.26 500.759 1316.2 Q500.579 1316.14 500.579 1315.8 Q500.579 1315.39 501.201 1315.31 Q501.823 1315.31 502.807 1315.19 Q505.195 1315.11 506.46 1313.05 Q507.604 1311.12 507.604 1308.37 Q507.604 1305.86 506.399 1304.82 Q505.215 1303.75 503.67 1303.75 Q502.224 1303.75 500.639 1304.35 Q499.053 1304.96 498.19 1306.3 Q500.739 1306.3 500.739 1308.37 Q500.739 1309.27 500.157 1309.87 Q499.595 1310.46 498.652 1310.46 Q497.749 1310.46 497.146 1309.89 Q496.544 1309.31 496.544 1308.33 Q496.544 1305.98 498.632 1304.35 Q500.739 1302.73 503.83 1302.73 Q506.881 1302.73 509.129 1304.33 Q511.397 1305.94 511.397 1308.41 Q511.397 1310.84 509.791 1312.82 Q508.186 1314.81 505.637 1315.63 Q508.768 1316.26 510.634 1318.38 Q512.501 1320.49 512.501 1323.08 Q512.501 1326.29 509.972 1328.66 Q507.443 1331.01 503.75 1331.01 Q500.338 1331.01 497.889 1329.16 Q495.44 1327.32 495.44 1324.57 Z" fill="#000000" fill-rule="nonzero" fill-opacity="1" /><path clip-path="url(#clip850)" d="M694.214 1328.64 L694.214 1327.06 Q700.291 1327.06 703.428 1323.82 Q704.293 1323.82 704.441 1324.02 Q704.589 1324.22 704.589 1325.13 L704.589 1353.51 Q704.589 1355.02 705.33 1355.49 Q706.071 1355.96 709.307 1355.96 L710.913 1355.96 L710.913 1357.52 Q709.135 1357.37 702.712 1357.37 Q696.289 1357.37 694.535 1357.52 L694.535 1355.96 L696.141 1355.96 Q699.327 1355.96 700.093 1355.52 Q700.859 1355.05 700.859 1353.51 L700.859 1327.3 Q698.216 1328.64 694.214 1328.64 Z" fill="#000000" fill-rule="nonzero" fill-opacity="1" /><path clip-path="url(#clip850)" d="M716.99 1341.34 Q716.99 1333.9 718.868 1329.85 Q721.486 1323.82 727.662 1323.82 Q728.971 1323.82 730.33 1324.19 Q731.713 1324.54 733.443 1325.9 Q735.197 1327.25 736.259 1329.48 Q738.285 1333.78 738.285 1341.34 Q738.285 1348.72 736.407 1352.75 Q733.665 1358.63 727.613 1358.63 Q725.34 1358.63 723.018 1357.47 Q720.72 1356.31 719.263 1353.51 Q716.99 1349.34 716.99 1341.34 M721.19 1340.72 Q721.19 1348.35 721.733 1351.39 Q722.351 1354.68 724.031 1356.11 Q725.735 1357.52 727.613 1357.52 Q729.638 1357.52 731.318 1356.01 Q733.023 1354.48 733.541 1351.19 Q734.11 1347.96 734.085 1340.72 Q734.085 1333.68 733.591 1330.86 Q732.924 1327.58 731.145 1326.27 Q729.391 1324.93 727.613 1324.93 Q726.946 1324.93 726.229 1325.13 Q725.538 1325.33 724.525 1325.9 Q723.512 1326.46 722.721 1327.87 Q721.956 1329.28 721.585 1331.41 Q721.19 1334.15 721.19 1340.72 Z" fill="#000000" fill-rule="nonzero" fill-opacity="1" /><path clip-path="url(#clip850)" d="M765.421 1319.25 Q765.662 1319.49 765.662 1319.83 Q765.662 1320.17 765.421 1320.41 Q765.18 1320.65 764.839 1320.65 L739.107 1320.65 Q738.766 1320.65 738.525 1320.41 Q738.285 1320.17 738.285 1319.83 Q738.285 1319.49 738.525 1319.25 Q738.766 1319.01 739.107 1319.01 L764.839 1319.01 Q765.18 1319.01 765.421 1319.25 Z" fill="#000000" fill-rule="nonzero" fill-opacity="1" /><path clip-path="url(#clip850)" d="M771.603 1306.64 L771.603 1305.36 Q776.541 1305.36 779.09 1302.73 Q779.792 1302.73 779.913 1302.89 Q780.033 1303.05 780.033 1303.79 L780.033 1326.85 Q780.033 1328.08 780.635 1328.46 Q781.237 1328.84 783.867 1328.84 L785.172 1328.84 L785.172 1330.11 Q783.726 1329.99 778.508 1329.99 Q773.289 1329.99 771.864 1330.11 L771.864 1328.84 L773.169 1328.84 Q775.758 1328.84 776.38 1328.48 Q777.002 1328.1 777.002 1326.85 L777.002 1305.56 Q774.855 1306.64 771.603 1306.64 Z" fill="#000000" fill-rule="nonzero" fill-opacity="1" /><path clip-path="url(#clip850)" d="M790.551 1330.11 Q790.551 1329.36 790.611 1329.14 Q790.691 1328.92 791.012 1328.58 L798.9 1319.79 Q803.216 1314.93 803.216 1310.7 Q803.216 1307.95 801.771 1305.98 Q800.346 1304.01 797.716 1304.01 Q795.91 1304.01 794.384 1305.12 Q792.859 1306.22 792.156 1308.19 Q792.277 1308.15 792.698 1308.15 Q793.722 1308.15 794.284 1308.79 Q794.866 1309.43 794.866 1310.3 Q794.866 1311.4 794.143 1311.94 Q793.441 1312.46 792.738 1312.46 Q792.457 1312.46 792.076 1312.4 Q791.715 1312.34 791.133 1311.78 Q790.551 1311.2 790.551 1310.18 Q790.551 1307.3 792.718 1305.02 Q794.906 1302.73 798.238 1302.73 Q802.011 1302.73 804.48 1304.98 Q806.969 1307.2 806.969 1310.7 Q806.969 1311.92 806.588 1313.05 Q806.226 1314.15 805.725 1315.01 Q805.243 1315.88 803.918 1317.26 Q802.594 1318.65 801.53 1319.63 Q800.466 1320.61 798.077 1322.7 L793.722 1326.93 L801.128 1326.93 Q804.741 1326.93 805.022 1326.61 Q805.424 1326.03 805.925 1322.96 L806.969 1322.96 L805.805 1330.11 L790.551 1330.11 Z" fill="#000000" fill-rule="nonzero" fill-opacity="1" /><path clip-path="url(#clip850)" d="M989.465 1328.64 L989.465 1327.06 Q995.542 1327.06 998.679 1323.82 Q999.544 1323.82 999.692 1324.02 Q999.84 1324.22 999.84 1325.13 L999.84 1353.51 Q999.84 1355.02 1000.58 1355.49 Q1001.32 1355.96 1004.56 1355.96 L1006.16 1355.96 L1006.16 1357.52 Q1004.39 1357.37 997.963 1357.37 Q991.54 1357.37 989.786 1357.52 L989.786 1355.96 L991.391 1355.96 Q994.578 1355.96 995.344 1355.52 Q996.11 1355.05 996.11 1353.51 L996.11 1327.3 Q993.467 1328.64 989.465 1328.64 Z" fill="#000000" fill-rule="nonzero" fill-opacity="1" /><path clip-path="url(#clip850)" d="M1012.24 1341.34 Q1012.24 1333.9 1014.12 1329.85 Q1016.74 1323.82 1022.91 1323.82 Q1024.22 1323.82 1025.58 1324.19 Q1026.96 1324.54 1028.69 1325.9 Q1030.45 1327.25 1031.51 1329.48 Q1033.54 1333.78 1033.54 1341.34 Q1033.54 1348.72 1031.66 1352.75 Q1028.92 1358.63 1022.86 1358.63 Q1020.59 1358.63 1018.27 1357.47 Q1015.97 1356.31 1014.51 1353.51 Q1012.24 1349.34 1012.24 1341.34 M1016.44 1340.72 Q1016.44 1348.35 1016.98 1351.39 Q1017.6 1354.68 1019.28 1356.11 Q1020.99 1357.52 1022.86 1357.52 Q1024.89 1357.52 1026.57 1356.01 Q1028.27 1354.48 1028.79 1351.19 Q1029.36 1347.96 1029.34 1340.72 Q1029.34 1333.68 1028.84 1330.86 Q1028.17 1327.58 1026.4 1326.27 Q1024.64 1324.93 1022.86 1324.93 Q1022.2 1324.93 1021.48 1325.13 Q1020.79 1325.33 1019.78 1325.9 Q1018.76 1326.46 1017.97 1327.87 Q1017.21 1329.28 1016.84 1331.41 Q1016.44 1334.15 1016.44 1340.72 Z" fill="#000000" fill-rule="nonzero" fill-opacity="1" /><path clip-path="url(#clip850)" d="M1060.67 1319.25 Q1060.91 1319.49 1060.91 1319.83 Q1060.91 1320.17 1060.67 1320.41 Q1060.43 1320.65 1060.09 1320.65 L1034.36 1320.65 Q1034.02 1320.65 1033.78 1320.41 Q1033.54 1320.17 1033.54 1319.83 Q1033.54 1319.49 1033.78 1319.25 Q1034.02 1319.01 1034.36 1319.01 L1060.09 1319.01 Q1060.43 1319.01 1060.67 1319.25 Z" fill="#000000" fill-rule="nonzero" fill-opacity="1" /><path clip-path="url(#clip850)" d="M1066.85 1306.64 L1066.85 1305.36 Q1071.79 1305.36 1074.34 1302.73 Q1075.04 1302.73 1075.16 1302.89 Q1075.28 1303.05 1075.28 1303.79 L1075.28 1326.85 Q1075.28 1328.08 1075.89 1328.46 Q1076.49 1328.84 1079.12 1328.84 L1080.42 1328.84 L1080.42 1330.11 Q1078.98 1329.99 1073.76 1329.99 Q1068.54 1329.99 1067.11 1330.11 L1067.11 1328.84 L1068.42 1328.84 Q1071.01 1328.84 1071.63 1328.48 Q1072.25 1328.1 1072.25 1326.85 L1072.25 1305.56 Q1070.11 1306.64 1066.85 1306.64 Z" fill="#000000" fill-rule="nonzero" fill-opacity="1" /><path clip-path="url(#clip850)" d="M1087.41 1306.64 L1087.41 1305.36 Q1092.34 1305.36 1094.89 1302.73 Q1095.6 1302.73 1095.72 1302.89 Q1095.84 1303.05 1095.84 1303.79 L1095.84 1326.85 Q1095.84 1328.08 1096.44 1328.46 Q1097.04 1328.84 1099.67 1328.84 L1100.98 1328.84 L1100.98 1330.11 Q1099.53 1329.99 1094.31 1329.99 Q1089.09 1329.99 1087.67 1330.11 L1087.67 1328.84 L1088.97 1328.84 Q1091.56 1328.84 1092.18 1328.48 Q1092.81 1328.1 1092.81 1326.85 L1092.81 1305.56 Q1090.66 1306.64 1087.41 1306.64 Z" fill="#000000" fill-rule="nonzero" fill-opacity="1" /><path clip-path="url(#clip850)" d="M1283.25 1328.64 L1283.25 1327.06 Q1289.33 1327.06 1292.46 1323.82 Q1293.33 1323.82 1293.48 1324.02 Q1293.63 1324.22 1293.63 1325.13 L1293.63 1353.51 Q1293.63 1355.02 1294.37 1355.49 Q1295.11 1355.96 1298.34 1355.96 L1299.95 1355.96 L1299.95 1357.52 Q1298.17 1357.37 1291.75 1357.37 Q1285.33 1357.37 1283.57 1357.52 L1283.57 1355.96 L1285.18 1355.96 Q1288.36 1355.96 1289.13 1355.52 Q1289.9 1355.05 1289.9 1353.51 L1289.9 1327.3 Q1287.25 1328.64 1283.25 1328.64 Z" fill="#000000" fill-rule="nonzero" fill-opacity="1" /><path clip-path="url(#clip850)" d="M1306.03 1341.34 Q1306.03 1333.9 1307.9 1329.85 Q1310.52 1323.82 1316.7 1323.82 Q1318.01 1323.82 1319.37 1324.19 Q1320.75 1324.54 1322.48 1325.9 Q1324.23 1327.25 1325.3 1329.48 Q1327.32 1333.78 1327.32 1341.34 Q1327.32 1348.72 1325.44 1352.75 Q1322.7 1358.63 1316.65 1358.63 Q1314.38 1358.63 1312.05 1357.47 Q1309.76 1356.31 1308.3 1353.51 Q1306.03 1349.34 1306.03 1341.34 M1310.23 1340.72 Q1310.23 1348.35 1310.77 1351.39 Q1311.39 1354.68 1313.07 1356.11 Q1314.77 1357.52 1316.65 1357.52 Q1318.67 1357.52 1320.35 1356.01 Q1322.06 1354.48 1322.58 1351.19 Q1323.15 1347.96 1323.12 1340.72 Q1323.12 1333.68 1322.63 1330.86 Q1321.96 1327.58 1320.18 1326.27 Q1318.43 1324.93 1316.65 1324.93 Q1315.98 1324.93 1315.27 1325.13 Q1314.57 1325.33 1313.56 1325.9 Q1312.55 1326.46 1311.76 1327.87 Q1310.99 1329.28 1310.62 1331.41 Q1310.23 1334.15 1310.23 1340.72 Z" fill="#000000" fill-rule="nonzero" fill-opacity="1" /><path clip-path="url(#clip850)" d="M1354.46 1319.25 Q1354.7 1319.49 1354.7 1319.83 Q1354.7 1320.17 1354.46 1320.41 Q1354.22 1320.65 1353.88 1320.65 L1328.14 1320.65 Q1327.8 1320.65 1327.56 1320.41 Q1327.32 1320.17 1327.32 1319.83 Q1327.32 1319.49 1327.56 1319.25 Q1327.8 1319.01 1328.14 1319.01 L1353.88 1319.01 Q1354.22 1319.01 1354.46 1319.25 Z" fill="#000000" fill-rule="nonzero" fill-opacity="1" /><path clip-path="url(#clip850)" d="M1360.64 1306.64 L1360.64 1305.36 Q1365.58 1305.36 1368.13 1302.73 Q1368.83 1302.73 1368.95 1302.89 Q1369.07 1303.05 1369.07 1303.79 L1369.07 1326.85 Q1369.07 1328.08 1369.67 1328.46 Q1370.27 1328.84 1372.9 1328.84 L1374.21 1328.84 L1374.21 1330.11 Q1372.76 1329.99 1367.54 1329.99 Q1362.33 1329.99 1360.9 1330.11 L1360.9 1328.84 L1362.21 1328.84 Q1364.79 1328.84 1365.42 1328.48 Q1366.04 1328.1 1366.04 1326.85 L1366.04 1305.56 Q1363.89 1306.64 1360.64 1306.64 Z" fill="#000000" fill-rule="nonzero" fill-opacity="1" /><path clip-path="url(#clip850)" d="M1379.15 1316.96 Q1379.15 1310.92 1380.67 1307.63 Q1382.8 1302.73 1387.82 1302.73 Q1388.88 1302.73 1389.98 1303.03 Q1391.11 1303.31 1392.51 1304.41 Q1393.94 1305.52 1394.8 1307.32 Q1396.45 1310.82 1396.45 1316.96 Q1396.45 1322.96 1394.92 1326.23 Q1392.69 1331.01 1387.78 1331.01 Q1385.93 1331.01 1384.04 1330.07 Q1382.18 1329.12 1380.99 1326.85 Q1379.15 1323.46 1379.15 1316.96 M1382.56 1316.46 Q1382.56 1322.66 1383 1325.13 Q1383.5 1327.8 1384.87 1328.96 Q1386.25 1330.11 1387.78 1330.11 Q1389.42 1330.11 1390.79 1328.88 Q1392.17 1327.64 1392.59 1324.97 Q1393.06 1322.34 1393.03 1316.46 Q1393.03 1310.74 1392.63 1308.45 Q1392.09 1305.78 1390.65 1304.72 Q1389.22 1303.63 1387.78 1303.63 Q1387.23 1303.63 1386.65 1303.79 Q1386.09 1303.95 1385.27 1304.41 Q1384.44 1304.88 1383.8 1306.02 Q1383.18 1307.16 1382.88 1308.89 Q1382.56 1311.12 1382.56 1316.46 Z" fill="#000000" fill-rule="nonzero" fill-opacity="1" /><path clip-path="url(#clip850)" d="M1588.22 1328.64 L1588.22 1327.06 Q1594.29 1327.06 1597.43 1323.82 Q1598.29 1323.82 1598.44 1324.02 Q1598.59 1324.22 1598.59 1325.13 L1598.59 1353.51 Q1598.59 1355.02 1599.33 1355.49 Q1600.07 1355.96 1603.31 1355.96 L1604.92 1355.96 L1604.92 1357.52 Q1603.14 1357.37 1596.71 1357.37 Q1590.29 1357.37 1588.54 1357.52 L1588.54 1355.96 L1590.14 1355.96 Q1593.33 1355.96 1594.09 1355.52 Q1594.86 1355.05 1594.86 1353.51 L1594.86 1327.3 Q1592.22 1328.64 1588.22 1328.64 Z" fill="#000000" fill-rule="nonzero" fill-opacity="1" /><path clip-path="url(#clip850)" d="M1610.99 1341.34 Q1610.99 1333.9 1612.87 1329.85 Q1615.49 1323.82 1621.66 1323.82 Q1622.97 1323.82 1624.33 1324.19 Q1625.72 1324.54 1627.44 1325.9 Q1629.2 1327.25 1630.26 1329.48 Q1632.29 1333.78 1632.29 1341.34 Q1632.29 1348.72 1630.41 1352.75 Q1627.67 1358.63 1621.61 1358.63 Q1619.34 1358.63 1617.02 1357.47 Q1614.72 1356.31 1613.26 1353.51 Q1610.99 1349.34 1610.99 1341.34 M1615.19 1340.72 Q1615.19 1348.35 1615.74 1351.39 Q1616.35 1354.68 1618.03 1356.11 Q1619.74 1357.52 1621.61 1357.52 Q1623.64 1357.52 1625.32 1356.01 Q1627.02 1354.48 1627.54 1351.19 Q1628.11 1347.96 1628.09 1340.72 Q1628.09 1333.68 1627.59 1330.86 Q1626.93 1327.58 1625.15 1326.27 Q1623.39 1324.93 1621.61 1324.93 Q1620.95 1324.93 1620.23 1325.13 Q1619.54 1325.33 1618.53 1325.9 Q1617.51 1326.46 1616.72 1327.87 Q1615.96 1329.28 1615.59 1331.41 Q1615.19 1334.15 1615.19 1340.72 Z" fill="#000000" fill-rule="nonzero" fill-opacity="1" /><path clip-path="url(#clip850)" d="M1659.42 1319.25 Q1659.66 1319.49 1659.66 1319.83 Q1659.66 1320.17 1659.42 1320.41 Q1659.18 1320.65 1658.84 1320.65 L1633.11 1320.65 Q1632.77 1320.65 1632.53 1320.41 Q1632.29 1320.17 1632.29 1319.83 Q1632.29 1319.49 1632.53 1319.25 Q1632.77 1319.01 1633.11 1319.01 L1658.84 1319.01 Q1659.18 1319.01 1659.42 1319.25 Z" fill="#000000" fill-rule="nonzero" fill-opacity="1" /><path clip-path="url(#clip850)" d="M1663.68 1311.98 Q1663.68 1309.79 1664.32 1308.31 Q1664.96 1306.8 1666.31 1305.32 Q1668.78 1302.73 1672.35 1302.73 Q1673.87 1302.73 1675.22 1303.37 Q1676.58 1304.01 1677.87 1305.48 Q1679.17 1306.92 1679.96 1309.79 Q1680.74 1312.64 1680.74 1316.58 Q1680.74 1322.94 1677.65 1326.97 Q1674.58 1331.01 1670.42 1331.01 Q1667.79 1331.01 1666.25 1329.83 Q1664.7 1328.62 1664.7 1326.57 Q1664.7 1325.51 1665.3 1325.07 Q1665.91 1324.61 1666.59 1324.61 Q1667.33 1324.61 1667.91 1325.11 Q1668.5 1325.59 1668.5 1326.49 Q1668.5 1327.24 1668.01 1327.82 Q1667.55 1328.38 1666.35 1328.38 Q1667.53 1329.87 1670.38 1329.87 Q1671.41 1329.87 1672.43 1329.4 Q1673.45 1328.92 1674.56 1327.78 Q1675.68 1326.61 1676.36 1324.19 Q1677.05 1321.76 1677.05 1318.34 L1677.05 1317.04 Q1675.4 1321.15 1671.91 1321.15 Q1668.46 1321.15 1666.07 1318.5 Q1663.68 1315.86 1663.68 1311.98 M1667.37 1312.02 Q1667.37 1316.1 1668.11 1317.6 Q1669.38 1320.19 1671.95 1320.19 Q1674.46 1320.19 1675.7 1317.96 Q1676.97 1315.71 1676.97 1312.8 Q1676.97 1308.77 1676.3 1307 Q1675.08 1303.75 1672.35 1303.75 Q1669.64 1303.75 1668.23 1306.34 Q1667.37 1307.87 1667.37 1312.02 Z" fill="#000000" fill-rule="nonzero" fill-opacity="1" /><path clip-path="url(#clip850)" d="M981.872 1447.26 L981.872 1444.92 L983.688 1444.92 Q987.801 1444.92 988.727 1444.26 Q989.691 1443.55 989.691 1441.33 L989.691 1401.57 Q989.691 1399.38 988.727 1398.72 Q987.764 1398.01 983.688 1398.01 L981.872 1398.01 L981.872 1395.64 L1024.6 1395.64 L1026.71 1412.72 L1024.82 1412.72 Q1024.3 1408.39 1023.6 1405.9 Q1022.93 1403.38 1021.26 1401.46 Q1019.63 1399.53 1016.93 1398.79 Q1014.26 1398.01 1009.92 1398.01 L1000.14 1398.01 Q997.546 1398.01 996.99 1398.57 Q996.435 1399.09 996.435 1401.05 L996.435 1419.24 L1003.25 1419.24 Q1008.48 1419.24 1009.96 1417.43 Q1011.44 1415.61 1011.44 1410.39 L1013.37 1410.39 L1013.37 1430.47 L1011.44 1430.47 Q1011.44 1425.32 1009.96 1423.47 Q1008.48 1421.62 1003.25 1421.62 L996.435 1421.62 L996.435 1441.88 Q996.435 1443.85 996.99 1444.4 Q997.583 1444.92 1000.14 1444.92 L1010.26 1444.92 Q1013.52 1444.92 1015.89 1444.52 Q1018.3 1444.07 1019.96 1443.03 Q1021.63 1441.96 1022.74 1440.74 Q1023.89 1439.51 1024.67 1437.33 Q1025.49 1435.1 1025.93 1433.07 Q1026.41 1431.03 1026.93 1427.69 L1028.82 1427.69 L1025.63 1447.26 L981.872 1447.26 Z" fill="#000000" fill-rule="nonzero" fill-opacity="1" /><path clip-path="url(#clip850)" d="M1033.05 1447.26 L1033.05 1444.92 Q1037.08 1444.92 1038.01 1444.44 Q1038.97 1443.92 1038.97 1441.48 L1038.97 1421.13 Q1038.97 1418.32 1037.97 1417.61 Q1037.01 1416.91 1033.05 1416.91 L1033.05 1414.54 L1043.61 1413.72 L1043.61 1422.06 Q1044.68 1418.8 1046.94 1416.28 Q1049.24 1413.72 1052.94 1413.72 Q1055.39 1413.72 1056.95 1415.09 Q1058.54 1416.46 1058.54 1418.35 Q1058.54 1420.02 1057.5 1420.87 Q1056.5 1421.69 1055.28 1421.69 Q1053.91 1421.69 1052.94 1420.84 Q1052.02 1419.95 1052.02 1418.43 Q1052.02 1417.5 1052.42 1416.8 Q1052.87 1416.06 1053.2 1415.8 Q1053.54 1415.54 1053.76 1415.46 Q1053.61 1415.39 1052.94 1415.39 Q1048.76 1415.39 1046.35 1419.58 Q1043.98 1423.73 1043.98 1429.66 L1043.98 1441.33 Q1043.98 1443.51 1044.87 1444.22 Q1045.79 1444.92 1049.76 1444.92 L1051.35 1444.92 L1051.35 1447.26 Q1048.31 1447.03 1041.72 1447.03 Q1040.79 1447.03 1039.34 1447.07 Q1037.9 1447.11 1036.01 1447.18 Q1034.12 1447.26 1033.05 1447.26 Z" fill="#000000" fill-rule="nonzero" fill-opacity="1" /><path clip-path="url(#clip850)" d="M1062.69 1447.26 L1062.69 1444.92 Q1066.73 1444.92 1067.65 1444.44 Q1068.62 1443.92 1068.62 1441.48 L1068.62 1421.13 Q1068.62 1418.32 1067.62 1417.61 Q1066.65 1416.91 1062.69 1416.91 L1062.69 1414.54 L1073.25 1413.72 L1073.25 1422.06 Q1074.32 1418.8 1076.58 1416.28 Q1078.88 1413.72 1082.59 1413.72 Q1085.03 1413.72 1086.59 1415.09 Q1088.18 1416.46 1088.18 1418.35 Q1088.18 1420.02 1087.15 1420.87 Q1086.14 1421.69 1084.92 1421.69 Q1083.55 1421.69 1082.59 1420.84 Q1081.66 1419.95 1081.66 1418.43 Q1081.66 1417.5 1082.07 1416.8 Q1082.51 1416.06 1082.85 1415.8 Q1083.18 1415.54 1083.4 1415.46 Q1083.25 1415.39 1082.59 1415.39 Q1078.4 1415.39 1075.99 1419.58 Q1073.62 1423.73 1073.62 1429.66 L1073.62 1441.33 Q1073.62 1443.51 1074.51 1444.22 Q1075.44 1444.92 1079.4 1444.92 L1080.99 1444.92 L1080.99 1447.26 Q1077.96 1447.03 1071.36 1447.03 Q1070.43 1447.03 1068.99 1447.07 Q1067.54 1447.11 1065.65 1447.18 Q1063.76 1447.26 1062.69 1447.26 Z" fill="#000000" fill-rule="nonzero" fill-opacity="1" /><path clip-path="url(#clip850)" d="M1097.34 1443.18 Q1092.33 1438.22 1092.33 1431.03 Q1092.33 1423.8 1097.22 1418.54 Q1102.15 1413.24 1109.19 1413.24 Q1116.09 1413.24 1121.01 1418.5 Q1125.98 1423.73 1125.98 1431.03 Q1125.98 1438.18 1120.98 1443.14 Q1116.01 1448.11 1109.12 1448.11 Q1102.37 1448.11 1097.34 1443.18 M1098.63 1430.4 Q1098.63 1437.77 1100.56 1441.11 Q1103.52 1446.18 1109.19 1446.18 Q1112.01 1446.18 1114.34 1444.66 Q1116.72 1443.14 1118.01 1440.59 Q1119.68 1437.25 1119.68 1430.4 Q1119.68 1423.1 1117.68 1419.87 Q1114.71 1414.95 1109.12 1414.95 Q1106.67 1414.95 1104.26 1416.24 Q1101.89 1417.5 1100.45 1420.02 Q1098.63 1423.36 1098.63 1430.4 Z" fill="#000000" fill-rule="nonzero" fill-opacity="1" /><path clip-path="url(#clip850)" d="M1130.28 1447.26 L1130.28 1444.92 Q1134.32 1444.92 1135.24 1444.44 Q1136.21 1443.92 1136.21 1441.48 L1136.21 1421.13 Q1136.21 1418.32 1135.21 1417.61 Q1134.24 1416.91 1130.28 1416.91 L1130.28 1414.54 L1140.84 1413.72 L1140.84 1422.06 Q1141.91 1418.8 1144.17 1416.28 Q1146.47 1413.72 1150.18 1413.72 Q1152.62 1413.72 1154.18 1415.09 Q1155.77 1416.46 1155.77 1418.35 Q1155.77 1420.02 1154.73 1420.87 Q1153.73 1421.69 1152.51 1421.69 Q1151.14 1421.69 1150.18 1420.84 Q1149.25 1419.95 1149.25 1418.43 Q1149.25 1417.5 1149.66 1416.8 Q1150.1 1416.06 1150.44 1415.8 Q1150.77 1415.54 1150.99 1415.46 Q1150.84 1415.39 1150.18 1415.39 Q1145.99 1415.39 1143.58 1419.58 Q1141.21 1423.73 1141.21 1429.66 L1141.21 1441.33 Q1141.21 1443.51 1142.1 1444.22 Q1143.02 1444.92 1146.99 1444.92 L1148.58 1444.92 L1148.58 1447.26 Q1145.54 1447.03 1138.95 1447.03 Q1138.02 1447.03 1136.58 1447.07 Q1135.13 1447.11 1133.24 1447.18 Q1131.35 1447.26 1130.28 1447.26 Z" fill="#000000" fill-rule="nonzero" fill-opacity="1" /><polyline clip-path="url(#clip852)" style="stroke:#000000; stroke-linecap:round; stroke-linejoin:round; stroke-width:2.8; stroke-opacity:0.4; fill:none" points="298.791,1111.4 1838.85,1111.4 "/>
<polyline clip-path="url(#clip852)" style="stroke:#000000; stroke-linecap:round; stroke-linejoin:round; stroke-width:2.8; stroke-opacity:0.4; fill:none" points="298.791,889.458 1838.85,889.458 "/>
<polyline clip-path="url(#clip852)" style="stroke:#000000; stroke-linecap:round; stroke-linejoin:round; stroke-width:2.8; stroke-opacity:0.4; fill:none" points="298.791,667.52 1838.85,667.52 "/>
<polyline clip-path="url(#clip852)" style="stroke:#000000; stroke-linecap:round; stroke-linejoin:round; stroke-width:2.8; stroke-opacity:0.4; fill:none" points="298.791,445.582 1838.85,445.582 "/>
<polyline clip-path="url(#clip852)" style="stroke:#000000; stroke-linecap:round; stroke-linejoin:round; stroke-width:2.8; stroke-opacity:0.4; fill:none" points="298.791,223.644 1838.85,223.644 "/>
<polyline clip-path="url(#clip850)" style="stroke:#000000; stroke-linecap:round; stroke-linejoin:round; stroke-width:4; stroke-opacity:1; fill:none" points="298.791,1280.22 298.791,47.2441 "/>
<polyline clip-path="url(#clip850)" style="stroke:#000000; stroke-linecap:round; stroke-linejoin:round; stroke-width:4; stroke-opacity:1; fill:none" points="1838.85,1280.22 1838.85,47.2441 "/>
<polyline clip-path="url(#clip850)" style="stroke:#000000; stroke-linecap:round; stroke-linejoin:round; stroke-width:4; stroke-opacity:1; fill:none" points="298.791,1111.4 313.655,1111.4 "/>
<polyline clip-path="url(#clip850)" style="stroke:#000000; stroke-linecap:round; stroke-linejoin:round; stroke-width:4; stroke-opacity:1; fill:none" points="298.791,889.458 313.655,889.458 "/>
<polyline clip-path="url(#clip850)" style="stroke:#000000; stroke-linecap:round; stroke-linejoin:round; stroke-width:4; stroke-opacity:1; fill:none" points="298.791,667.52 313.655,667.52 "/>
<polyline clip-path="url(#clip850)" style="stroke:#000000; stroke-linecap:round; stroke-linejoin:round; stroke-width:4; stroke-opacity:1; fill:none" points="298.791,445.582 313.655,445.582 "/>
<polyline clip-path="url(#clip850)" style="stroke:#000000; stroke-linecap:round; stroke-linejoin:round; stroke-width:4; stroke-opacity:1; fill:none" points="298.791,223.644 313.655,223.644 "/>
<path clip-path="url(#clip850)" d="M119.06 1106.25 L119.06 1104.66 Q125.137 1104.66 128.275 1101.43 Q129.139 1101.43 129.287 1101.63 Q129.436 1101.82 129.436 1102.74 L129.436 1131.12 Q129.436 1132.63 130.177 1133.1 Q130.918 1133.57 134.154 1133.57 L135.76 1133.57 L135.76 1135.12 Q133.981 1134.98 127.558 1134.98 Q121.135 1134.98 119.381 1135.12 L119.381 1133.57 L120.987 1133.57 Q124.174 1133.57 124.94 1133.12 Q125.705 1132.65 125.705 1131.12 L125.705 1104.91 Q123.062 1106.25 119.06 1106.25 Z" fill="#000000" fill-rule="nonzero" fill-opacity="1" /><path clip-path="url(#clip850)" d="M141.837 1118.94 Q141.837 1111.51 143.714 1107.46 Q146.333 1101.43 152.509 1101.43 Q153.818 1101.43 155.176 1101.8 Q156.56 1102.14 158.289 1103.5 Q160.043 1104.86 161.105 1107.09 Q163.131 1111.38 163.131 1118.94 Q163.131 1126.33 161.253 1130.36 Q158.511 1136.24 152.459 1136.24 Q150.186 1136.24 147.864 1135.07 Q145.567 1133.91 144.109 1131.12 Q141.837 1126.95 141.837 1118.94 M146.036 1118.33 Q146.036 1125.96 146.58 1129 Q147.197 1132.28 148.877 1133.72 Q150.582 1135.12 152.459 1135.12 Q154.485 1135.12 156.165 1133.62 Q157.869 1132.09 158.388 1128.8 Q158.956 1125.56 158.931 1118.33 Q158.931 1111.28 158.437 1108.47 Q157.77 1105.18 155.992 1103.87 Q154.238 1102.54 152.459 1102.54 Q151.792 1102.54 151.076 1102.74 Q150.384 1102.94 149.371 1103.5 Q148.358 1104.07 147.568 1105.48 Q146.802 1106.89 146.431 1109.01 Q146.036 1111.75 146.036 1118.33 Z" fill="#000000" fill-rule="nonzero" fill-opacity="1" /><path clip-path="url(#clip850)" d="M190.268 1096.85 Q190.508 1097.1 190.508 1097.44 Q190.508 1097.78 190.268 1098.02 Q190.027 1098.26 189.686 1098.26 L163.954 1098.26 Q163.613 1098.26 163.372 1098.02 Q163.131 1097.78 163.131 1097.44 Q163.131 1097.1 163.372 1096.85 Q163.613 1096.61 163.954 1096.61 L189.686 1096.61 Q190.027 1096.61 190.268 1096.85 Z" fill="#000000" fill-rule="nonzero" fill-opacity="1" /><path clip-path="url(#clip850)" d="M194.844 1107.71 Q194.844 1106.97 194.904 1106.75 Q194.984 1106.53 195.306 1106.19 L203.194 1097.4 Q207.509 1092.54 207.509 1088.3 Q207.509 1085.55 206.064 1083.59 Q204.639 1081.62 202.009 1081.62 Q200.203 1081.62 198.678 1082.72 Q197.152 1083.83 196.45 1085.8 Q196.57 1085.76 196.992 1085.76 Q198.015 1085.76 198.577 1086.4 Q199.159 1087.04 199.159 1087.9 Q199.159 1089.01 198.437 1089.55 Q197.734 1090.07 197.032 1090.07 Q196.751 1090.07 196.369 1090.01 Q196.008 1089.95 195.426 1089.39 Q194.844 1088.81 194.844 1087.78 Q194.844 1084.91 197.012 1082.62 Q199.199 1080.34 202.531 1080.34 Q206.305 1080.34 208.773 1082.58 Q211.262 1084.81 211.262 1088.3 Q211.262 1089.53 210.881 1090.65 Q210.52 1091.76 210.018 1092.62 Q209.536 1093.48 208.211 1094.87 Q206.887 1096.25 205.823 1097.24 Q204.759 1098.22 202.371 1100.31 L198.015 1104.54 L205.422 1104.54 Q209.034 1104.54 209.315 1104.22 Q209.717 1103.64 210.219 1100.57 L211.262 1100.57 L210.098 1107.71 L194.844 1107.71 Z" fill="#000000" fill-rule="nonzero" fill-opacity="1" /><path clip-path="url(#clip850)" d="M217.464 1107.05 Q216.842 1106.39 216.842 1105.53 Q216.842 1104.66 217.464 1104.04 Q218.087 1103.4 219.03 1103.4 Q219.933 1103.4 220.535 1104 Q221.158 1104.58 221.158 1105.55 Q221.158 1106.49 220.495 1107.11 Q219.853 1107.71 219.03 1107.71 Q218.087 1107.71 217.464 1107.05 Z" fill="#000000" fill-rule="nonzero" fill-opacity="1" /><path clip-path="url(#clip850)" d="M226.376 1094.57 Q226.376 1088.52 227.902 1085.23 Q230.029 1080.34 235.047 1080.34 Q236.111 1080.34 237.215 1080.64 Q238.339 1080.92 239.744 1082.02 Q241.169 1083.13 242.032 1084.93 Q243.678 1088.42 243.678 1094.57 Q243.678 1100.57 242.152 1103.84 Q239.924 1108.62 235.007 1108.62 Q233.16 1108.62 231.274 1107.67 Q229.407 1106.73 228.223 1104.46 Q226.376 1101.07 226.376 1094.57 M229.788 1094.06 Q229.788 1100.27 230.23 1102.74 Q230.732 1105.4 232.097 1106.57 Q233.481 1107.71 235.007 1107.71 Q236.653 1107.71 238.018 1106.49 Q239.403 1105.24 239.824 1102.57 Q240.286 1099.95 240.266 1094.06 Q240.266 1088.34 239.864 1086.06 Q239.322 1083.39 237.877 1082.32 Q236.452 1081.24 235.007 1081.24 Q234.465 1081.24 233.883 1081.4 Q233.321 1081.56 232.498 1082.02 Q231.675 1082.48 231.033 1083.63 Q230.411 1084.77 230.109 1086.5 Q229.788 1088.73 229.788 1094.06 Z" fill="#000000" fill-rule="nonzero" fill-opacity="1" /><path clip-path="url(#clip850)" d="M246.929 1094.57 Q246.929 1088.52 248.455 1085.23 Q250.582 1080.34 255.6 1080.34 Q256.664 1080.34 257.768 1080.64 Q258.892 1080.92 260.297 1082.02 Q261.722 1083.13 262.585 1084.93 Q264.231 1088.42 264.231 1094.57 Q264.231 1100.57 262.706 1103.84 Q260.478 1108.62 255.56 1108.62 Q253.714 1108.62 251.827 1107.67 Q249.96 1106.73 248.776 1104.46 Q246.929 1101.07 246.929 1094.57 M250.342 1094.06 Q250.342 1100.27 250.783 1102.74 Q251.285 1105.4 252.65 1106.57 Q254.035 1107.71 255.56 1107.71 Q257.206 1107.71 258.571 1106.49 Q259.956 1105.24 260.377 1102.57 Q260.839 1099.95 260.819 1094.06 Q260.819 1088.34 260.417 1086.06 Q259.875 1083.39 258.43 1082.32 Q257.005 1081.24 255.56 1081.24 Q255.018 1081.24 254.436 1081.4 Q253.874 1081.56 253.051 1082.02 Q252.228 1082.48 251.586 1083.63 Q250.964 1084.77 250.663 1086.5 Q250.342 1088.73 250.342 1094.06 Z" fill="#000000" fill-rule="nonzero" fill-opacity="1" /><path clip-path="url(#clip850)" d="M119.502 884.307 L119.502 882.726 Q125.579 882.726 128.716 879.49 Q129.581 879.49 129.729 879.688 Q129.877 879.885 129.877 880.799 L129.877 909.184 Q129.877 910.69 130.618 911.16 Q131.359 911.629 134.595 911.629 L136.201 911.629 L136.201 913.185 Q134.423 913.037 128 913.037 Q121.577 913.037 119.823 913.185 L119.823 911.629 L121.429 911.629 Q124.615 911.629 125.381 911.185 Q126.147 910.715 126.147 909.184 L126.147 882.973 Q123.504 884.307 119.502 884.307 Z" fill="#000000" fill-rule="nonzero" fill-opacity="1" /><path clip-path="url(#clip850)" d="M142.278 897.005 Q142.278 889.569 144.156 885.518 Q146.774 879.49 152.95 879.49 Q154.259 879.49 155.618 879.861 Q157.001 880.207 158.731 881.565 Q160.485 882.924 161.547 885.147 Q163.573 889.446 163.573 897.005 Q163.573 904.391 161.695 908.418 Q158.953 914.297 152.901 914.297 Q150.628 914.297 148.306 913.136 Q146.008 911.975 144.551 909.184 Q142.278 905.009 142.278 897.005 M146.478 896.387 Q146.478 904.021 147.021 907.059 Q147.639 910.345 149.319 911.777 Q151.023 913.185 152.901 913.185 Q154.926 913.185 156.606 911.679 Q158.311 910.147 158.829 906.861 Q159.398 903.625 159.373 896.387 Q159.373 889.347 158.879 886.531 Q158.212 883.245 156.433 881.936 Q154.679 880.602 152.901 880.602 Q152.234 880.602 151.517 880.799 Q150.826 880.997 149.813 881.565 Q148.8 882.133 148.009 883.541 Q147.244 884.95 146.873 887.074 Q146.478 889.816 146.478 896.387 Z" fill="#000000" fill-rule="nonzero" fill-opacity="1" /><path clip-path="url(#clip850)" d="M190.709 874.916 Q190.95 875.157 190.95 875.498 Q190.95 875.84 190.709 876.081 Q190.468 876.321 190.127 876.321 L164.395 876.321 Q164.054 876.321 163.813 876.081 Q163.573 875.84 163.573 875.498 Q163.573 875.157 163.813 874.916 Q164.054 874.676 164.395 874.676 L190.127 874.676 Q190.468 874.676 190.709 874.916 Z" fill="#000000" fill-rule="nonzero" fill-opacity="1" /><path clip-path="url(#clip850)" d="M196.891 862.312 L196.891 861.027 Q201.829 861.027 204.378 858.398 Q205.08 858.398 205.201 858.558 Q205.321 858.719 205.321 859.461 L205.321 882.524 Q205.321 883.748 205.923 884.129 Q206.525 884.511 209.155 884.511 L210.459 884.511 L210.459 885.775 Q209.014 885.655 203.796 885.655 Q198.577 885.655 197.152 885.775 L197.152 884.511 L198.457 884.511 Q201.046 884.511 201.668 884.149 Q202.29 883.768 202.29 882.524 L202.29 861.228 Q200.143 862.312 196.891 862.312 Z" fill="#000000" fill-rule="nonzero" fill-opacity="1" /><path clip-path="url(#clip850)" d="M217.906 885.113 Q217.284 884.45 217.284 883.587 Q217.284 882.724 217.906 882.102 Q218.528 881.46 219.472 881.46 Q220.375 881.46 220.977 882.062 Q221.599 882.644 221.599 883.607 Q221.599 884.551 220.937 885.173 Q220.295 885.775 219.472 885.775 Q218.528 885.775 217.906 885.113 Z" fill="#000000" fill-rule="nonzero" fill-opacity="1" /><path clip-path="url(#clip850)" d="M227.52 866.446 L228.865 857.996 L229.889 857.996 Q230.009 858.498 230.21 858.719 Q230.431 858.94 231.595 859.12 Q232.779 859.301 235.167 859.301 L245.143 859.301 Q245.143 860.244 244.782 860.746 L239.222 868.554 Q237.456 871.023 236.673 875.579 Q236.211 878.63 236.231 882.323 L236.231 884.41 Q236.231 886.678 234.324 886.678 Q232.438 886.678 232.438 884.41 Q232.438 876.562 237.496 868.955 Q238.038 868.172 240.025 865.382 Q242.032 862.593 242.112 862.472 L233.602 862.472 Q229.869 862.472 229.568 862.713 Q229.166 863.074 228.544 866.446 L227.52 866.446 Z" fill="#000000" fill-rule="nonzero" fill-opacity="1" /><path clip-path="url(#clip850)" d="M247.813 879.152 Q247.813 877.927 248.475 877.465 Q249.137 876.984 249.84 876.984 Q250.783 876.984 251.325 877.586 Q251.887 878.168 251.887 878.991 Q251.887 879.814 251.325 880.416 Q250.783 880.998 249.84 880.998 Q249.378 880.998 249.137 880.918 Q249.679 882.805 251.325 884.169 Q252.991 885.534 255.179 885.534 Q257.929 885.534 259.574 882.865 Q260.558 881.139 260.558 877.225 Q260.558 873.772 259.815 872.046 Q258.671 869.417 256.323 869.417 Q252.991 869.417 251.024 872.287 Q250.783 872.648 250.502 872.668 Q250.101 872.668 250 872.448 Q249.92 872.207 249.92 871.585 L249.92 859.421 Q249.92 858.438 250.321 858.438 Q250.482 858.438 250.823 858.558 Q253.412 859.702 256.283 859.722 Q259.233 859.722 261.883 858.518 Q262.083 858.398 262.204 858.398 Q262.605 858.398 262.625 858.859 Q262.625 859.02 262.284 859.502 Q261.963 859.963 261.26 860.585 Q260.558 861.188 259.655 861.77 Q258.751 862.352 257.427 862.753 Q256.122 863.134 254.677 863.134 Q252.951 863.134 251.185 862.593 L251.185 870.601 Q253.312 868.514 256.403 868.514 Q259.695 868.514 261.963 871.163 Q264.231 873.812 264.231 877.506 Q264.231 881.379 261.541 884.029 Q258.872 886.678 255.259 886.678 Q251.967 886.678 249.88 884.33 Q247.813 881.982 247.813 879.152 Z" fill="#000000" fill-rule="nonzero" fill-opacity="1" /><path clip-path="url(#clip850)" d="M119.06 662.369 L119.06 660.788 Q125.137 660.788 128.275 657.552 Q129.139 657.552 129.287 657.75 Q129.436 657.947 129.436 658.861 L129.436 687.245 Q129.436 688.752 130.177 689.222 Q130.918 689.691 134.154 689.691 L135.76 689.691 L135.76 691.247 Q133.981 691.099 127.558 691.099 Q121.135 691.099 119.381 691.247 L119.381 689.691 L120.987 689.691 Q124.174 689.691 124.94 689.246 Q125.705 688.777 125.705 687.245 L125.705 661.035 Q123.062 662.369 119.06 662.369 Z" fill="#000000" fill-rule="nonzero" fill-opacity="1" /><path clip-path="url(#clip850)" d="M141.837 675.067 Q141.837 667.631 143.714 663.58 Q146.333 657.552 152.509 657.552 Q153.818 657.552 155.176 657.923 Q156.56 658.268 158.289 659.627 Q160.043 660.986 161.105 663.209 Q163.131 667.507 163.131 675.067 Q163.131 682.453 161.253 686.48 Q158.511 692.359 152.459 692.359 Q150.186 692.359 147.864 691.198 Q145.567 690.037 144.109 687.245 Q141.837 683.071 141.837 675.067 M146.036 674.449 Q146.036 682.082 146.58 685.121 Q147.197 688.406 148.877 689.839 Q150.582 691.247 152.459 691.247 Q154.485 691.247 156.165 689.74 Q157.869 688.209 158.388 684.923 Q158.956 681.687 158.931 674.449 Q158.931 667.409 158.437 664.592 Q157.77 661.307 155.992 659.998 Q154.238 658.664 152.459 658.664 Q151.792 658.664 151.076 658.861 Q150.384 659.059 149.371 659.627 Q148.358 660.195 147.568 661.603 Q146.802 663.011 146.431 665.136 Q146.036 667.878 146.036 674.449 Z" fill="#000000" fill-rule="nonzero" fill-opacity="1" /><path clip-path="url(#clip850)" d="M190.268 652.978 Q190.508 653.219 190.508 653.56 Q190.508 653.902 190.268 654.142 Q190.027 654.383 189.686 654.383 L163.954 654.383 Q163.613 654.383 163.372 654.142 Q163.131 653.902 163.131 653.56 Q163.131 653.219 163.372 652.978 Q163.613 652.737 163.954 652.737 L189.686 652.737 Q190.027 652.737 190.268 652.978 Z" fill="#000000" fill-rule="nonzero" fill-opacity="1" /><path clip-path="url(#clip850)" d="M196.45 640.373 L196.45 639.089 Q201.387 639.089 203.936 636.459 Q204.639 636.459 204.759 636.62 Q204.88 636.781 204.88 637.523 L204.88 660.585 Q204.88 661.81 205.482 662.191 Q206.084 662.572 208.713 662.572 L210.018 662.572 L210.018 663.837 Q208.573 663.717 203.354 663.717 Q198.136 663.717 196.711 663.837 L196.711 662.572 L198.015 662.572 Q200.604 662.572 201.227 662.211 Q201.849 661.83 201.849 660.585 L201.849 639.29 Q199.701 640.373 196.45 640.373 Z" fill="#000000" fill-rule="nonzero" fill-opacity="1" /><path clip-path="url(#clip850)" d="M217.464 663.175 Q216.842 662.512 216.842 661.649 Q216.842 660.786 217.464 660.164 Q218.087 659.522 219.03 659.522 Q219.933 659.522 220.535 660.124 Q221.158 660.706 221.158 661.669 Q221.158 662.613 220.495 663.235 Q219.853 663.837 219.03 663.837 Q218.087 663.837 217.464 663.175 Z" fill="#000000" fill-rule="nonzero" fill-opacity="1" /><path clip-path="url(#clip850)" d="M226.818 657.213 Q226.818 655.989 227.48 655.527 Q228.142 655.046 228.845 655.046 Q229.788 655.046 230.33 655.648 Q230.892 656.23 230.892 657.053 Q230.892 657.876 230.33 658.478 Q229.788 659.06 228.845 659.06 Q228.383 659.06 228.142 658.98 Q228.684 660.866 230.33 662.231 Q231.996 663.596 234.184 663.596 Q236.934 663.596 238.58 660.927 Q239.563 659.2 239.563 655.287 Q239.563 651.834 238.821 650.108 Q237.676 647.479 235.328 647.479 Q231.996 647.479 230.029 650.349 Q229.788 650.71 229.507 650.73 Q229.106 650.73 229.006 650.509 Q228.925 650.269 228.925 649.646 L228.925 637.483 Q228.925 636.5 229.327 636.5 Q229.487 636.5 229.828 636.62 Q232.418 637.764 235.288 637.784 Q238.238 637.784 240.888 636.58 Q241.089 636.459 241.209 636.459 Q241.61 636.459 241.631 636.921 Q241.631 637.082 241.289 637.563 Q240.968 638.025 240.266 638.647 Q239.563 639.249 238.66 639.831 Q237.757 640.414 236.432 640.815 Q235.127 641.196 233.682 641.196 Q231.956 641.196 230.19 640.654 L230.19 648.663 Q232.317 646.575 235.408 646.575 Q238.7 646.575 240.968 649.225 Q243.236 651.874 243.236 655.568 Q243.236 659.441 240.547 662.091 Q237.877 664.74 234.264 664.74 Q230.973 664.74 228.885 662.392 Q226.818 660.043 226.818 657.213 Z" fill="#000000" fill-rule="nonzero" fill-opacity="1" /><path clip-path="url(#clip850)" d="M246.929 650.69 Q246.929 644.649 248.455 641.357 Q250.582 636.459 255.6 636.459 Q256.664 636.459 257.768 636.761 Q258.892 637.042 260.297 638.145 Q261.722 639.249 262.585 641.056 Q264.231 644.548 264.231 650.69 Q264.231 656.692 262.706 659.963 Q260.478 664.74 255.56 664.74 Q253.714 664.74 251.827 663.797 Q249.96 662.853 248.776 660.585 Q246.929 657.193 246.929 650.69 M250.342 650.188 Q250.342 656.39 250.783 658.859 Q251.285 661.529 252.65 662.693 Q254.035 663.837 255.56 663.837 Q257.206 663.837 258.571 662.613 Q259.956 661.368 260.377 658.699 Q260.839 656.069 260.819 650.188 Q260.819 644.468 260.417 642.18 Q259.875 639.51 258.43 638.447 Q257.005 637.363 255.56 637.363 Q255.018 637.363 254.436 637.523 Q253.874 637.684 253.051 638.145 Q252.228 638.607 251.586 639.751 Q250.964 640.895 250.663 642.621 Q250.342 644.849 250.342 650.188 Z" fill="#000000" fill-rule="nonzero" fill-opacity="1" /><path clip-path="url(#clip850)" d="M119.502 440.431 L119.502 438.85 Q125.579 438.85 128.716 435.614 Q129.581 435.614 129.729 435.811 Q129.877 436.009 129.877 436.923 L129.877 465.307 Q129.877 466.814 130.618 467.284 Q131.359 467.753 134.595 467.753 L136.201 467.753 L136.201 469.309 Q134.423 469.161 128 469.161 Q121.577 469.161 119.823 469.309 L119.823 467.753 L121.429 467.753 Q124.615 467.753 125.381 467.308 Q126.147 466.839 126.147 465.307 L126.147 439.097 Q123.504 440.431 119.502 440.431 Z" fill="#000000" fill-rule="nonzero" fill-opacity="1" /><path clip-path="url(#clip850)" d="M142.278 453.129 Q142.278 445.693 144.156 441.641 Q146.774 435.614 152.95 435.614 Q154.259 435.614 155.618 435.984 Q157.001 436.33 158.731 437.689 Q160.485 439.048 161.547 441.271 Q163.573 445.569 163.573 453.129 Q163.573 460.515 161.695 464.541 Q158.953 470.421 152.901 470.421 Q150.628 470.421 148.306 469.26 Q146.008 468.099 144.551 465.307 Q142.278 461.132 142.278 453.129 M146.478 452.511 Q146.478 460.144 147.021 463.183 Q147.639 466.468 149.319 467.901 Q151.023 469.309 152.901 469.309 Q154.926 469.309 156.606 467.802 Q158.311 466.271 158.829 462.985 Q159.398 459.749 159.373 452.511 Q159.373 445.47 158.879 442.654 Q158.212 439.369 156.433 438.059 Q154.679 436.726 152.901 436.726 Q152.234 436.726 151.517 436.923 Q150.826 437.121 149.813 437.689 Q148.8 438.257 148.009 439.665 Q147.244 441.073 146.873 443.198 Q146.478 445.94 146.478 452.511 Z" fill="#000000" fill-rule="nonzero" fill-opacity="1" /><path clip-path="url(#clip850)" d="M190.709 431.04 Q190.95 431.281 190.95 431.622 Q190.95 431.963 190.709 432.204 Q190.468 432.445 190.127 432.445 L164.395 432.445 Q164.054 432.445 163.813 432.204 Q163.573 431.963 163.573 431.622 Q163.573 431.281 163.813 431.04 Q164.054 430.799 164.395 430.799 L190.127 430.799 Q190.468 430.799 190.709 431.04 Z" fill="#000000" fill-rule="nonzero" fill-opacity="1" /><path clip-path="url(#clip850)" d="M196.891 418.435 L196.891 417.151 Q201.829 417.151 204.378 414.521 Q205.08 414.521 205.201 414.682 Q205.321 414.842 205.321 415.585 L205.321 438.647 Q205.321 439.872 205.923 440.253 Q206.525 440.634 209.155 440.634 L210.459 440.634 L210.459 441.899 Q209.014 441.778 203.796 441.778 Q198.577 441.778 197.152 441.899 L197.152 440.634 L198.457 440.634 Q201.046 440.634 201.668 440.273 Q202.29 439.892 202.29 438.647 L202.29 417.351 Q200.143 418.435 196.891 418.435 Z" fill="#000000" fill-rule="nonzero" fill-opacity="1" /><path clip-path="url(#clip850)" d="M217.906 441.236 Q217.284 440.574 217.284 439.711 Q217.284 438.848 217.906 438.226 Q218.528 437.583 219.472 437.583 Q220.375 437.583 220.977 438.186 Q221.599 438.768 221.599 439.731 Q221.599 440.674 220.937 441.297 Q220.295 441.899 219.472 441.899 Q218.528 441.899 217.906 441.236 Z" fill="#000000" fill-rule="nonzero" fill-opacity="1" /><path clip-path="url(#clip850)" d="M227.259 441.899 Q227.259 441.156 227.32 440.935 Q227.4 440.715 227.721 440.373 L235.609 431.582 Q239.924 426.725 239.924 422.49 Q239.924 419.74 238.479 417.773 Q237.054 415.806 234.425 415.806 Q232.618 415.806 231.093 416.91 Q229.568 418.014 228.865 419.981 Q228.985 419.941 229.407 419.941 Q230.431 419.941 230.993 420.583 Q231.575 421.225 231.575 422.088 Q231.575 423.192 230.852 423.734 Q230.15 424.256 229.447 424.256 Q229.166 424.256 228.785 424.196 Q228.423 424.136 227.841 423.574 Q227.259 422.991 227.259 421.968 Q227.259 419.098 229.427 416.809 Q231.615 414.521 234.947 414.521 Q238.72 414.521 241.189 416.769 Q243.678 418.997 243.678 422.49 Q243.678 423.714 243.296 424.838 Q242.935 425.942 242.433 426.805 Q241.952 427.668 240.627 429.053 Q239.302 430.438 238.238 431.422 Q237.175 432.405 234.786 434.492 L230.431 438.728 L237.837 438.728 Q241.45 438.728 241.731 438.406 Q242.132 437.824 242.634 434.753 L243.678 434.753 L242.514 441.899 L227.259 441.899 Z" fill="#000000" fill-rule="nonzero" fill-opacity="1" /><path clip-path="url(#clip850)" d="M247.813 435.275 Q247.813 434.051 248.475 433.589 Q249.137 433.108 249.84 433.108 Q250.783 433.108 251.325 433.71 Q251.887 434.292 251.887 435.115 Q251.887 435.938 251.325 436.54 Q250.783 437.122 249.84 437.122 Q249.378 437.122 249.137 437.042 Q249.679 438.928 251.325 440.293 Q252.991 441.658 255.179 441.658 Q257.929 441.658 259.574 438.988 Q260.558 437.262 260.558 433.348 Q260.558 429.896 259.815 428.17 Q258.671 425.541 256.323 425.541 Q252.991 425.541 251.024 428.411 Q250.783 428.772 250.502 428.792 Q250.101 428.792 250 428.571 Q249.92 428.331 249.92 427.708 L249.92 415.545 Q249.92 414.561 250.321 414.561 Q250.482 414.561 250.823 414.682 Q253.412 415.826 256.283 415.846 Q259.233 415.846 261.883 414.642 Q262.083 414.521 262.204 414.521 Q262.605 414.521 262.625 414.983 Q262.625 415.144 262.284 415.625 Q261.963 416.087 261.26 416.709 Q260.558 417.311 259.655 417.893 Q258.751 418.475 257.427 418.877 Q256.122 419.258 254.677 419.258 Q252.951 419.258 251.185 418.716 L251.185 426.725 Q253.312 424.637 256.403 424.637 Q259.695 424.637 261.963 427.287 Q264.231 429.936 264.231 433.629 Q264.231 437.503 261.541 440.153 Q258.872 442.802 255.259 442.802 Q251.967 442.802 249.88 440.454 Q247.813 438.105 247.813 435.275 Z" fill="#000000" fill-rule="nonzero" fill-opacity="1" /><path clip-path="url(#clip850)" d="M119.06 218.493 L119.06 216.912 Q125.137 216.912 128.275 213.676 Q129.139 213.676 129.287 213.873 Q129.436 214.071 129.436 214.985 L129.436 243.369 Q129.436 244.876 130.177 245.345 Q130.918 245.815 134.154 245.815 L135.76 245.815 L135.76 247.371 Q133.981 247.223 127.558 247.223 Q121.135 247.223 119.381 247.371 L119.381 245.815 L120.987 245.815 Q124.174 245.815 124.94 245.37 Q125.705 244.901 125.705 243.369 L125.705 217.159 Q123.062 218.493 119.06 218.493 Z" fill="#000000" fill-rule="nonzero" fill-opacity="1" /><path clip-path="url(#clip850)" d="M141.837 231.19 Q141.837 223.755 143.714 219.703 Q146.333 213.676 152.509 213.676 Q153.818 213.676 155.176 214.046 Q156.56 214.392 158.289 215.751 Q160.043 217.109 161.105 219.333 Q163.131 223.631 163.131 231.19 Q163.131 238.577 161.253 242.603 Q158.511 248.483 152.459 248.483 Q150.186 248.483 147.864 247.322 Q145.567 246.161 144.109 243.369 Q141.837 239.194 141.837 231.19 M146.036 230.573 Q146.036 238.206 146.58 241.245 Q147.197 244.53 148.877 245.963 Q150.582 247.371 152.459 247.371 Q154.485 247.371 156.165 245.864 Q157.869 244.333 158.388 241.047 Q158.956 237.811 158.931 230.573 Q158.931 223.532 158.437 220.716 Q157.77 217.431 155.992 216.121 Q154.238 214.787 152.459 214.787 Q151.792 214.787 151.076 214.985 Q150.384 215.183 149.371 215.751 Q148.358 216.319 147.568 217.727 Q146.802 219.135 146.431 221.26 Q146.036 224.002 146.036 230.573 Z" fill="#000000" fill-rule="nonzero" fill-opacity="1" /><path clip-path="url(#clip850)" d="M190.268 209.102 Q190.508 209.343 190.508 209.684 Q190.508 210.025 190.268 210.266 Q190.027 210.507 189.686 210.507 L163.954 210.507 Q163.613 210.507 163.372 210.266 Q163.131 210.025 163.131 209.684 Q163.131 209.343 163.372 209.102 Q163.613 208.861 163.954 208.861 L189.686 208.861 Q190.027 208.861 190.268 209.102 Z" fill="#000000" fill-rule="nonzero" fill-opacity="1" /><path clip-path="url(#clip850)" d="M196.45 196.497 L196.45 195.213 Q201.387 195.213 203.936 192.583 Q204.639 192.583 204.759 192.744 Q204.88 192.904 204.88 193.647 L204.88 216.709 Q204.88 217.933 205.482 218.315 Q206.084 218.696 208.713 218.696 L210.018 218.696 L210.018 219.961 Q208.573 219.84 203.354 219.84 Q198.136 219.84 196.711 219.961 L196.711 218.696 L198.015 218.696 Q200.604 218.696 201.227 218.335 Q201.849 217.954 201.849 216.709 L201.849 195.413 Q199.701 196.497 196.45 196.497 Z" fill="#000000" fill-rule="nonzero" fill-opacity="1" /><path clip-path="url(#clip850)" d="M217.464 219.298 Q216.842 218.636 216.842 217.773 Q216.842 216.91 217.464 216.288 Q218.087 215.645 219.03 215.645 Q219.933 215.645 220.535 216.247 Q221.158 216.83 221.158 217.793 Q221.158 218.736 220.495 219.359 Q219.853 219.961 219.03 219.961 Q218.087 219.961 217.464 219.298 Z" fill="#000000" fill-rule="nonzero" fill-opacity="1" /><path clip-path="url(#clip850)" d="M226.376 206.814 Q226.376 200.772 227.902 197.481 Q230.029 192.583 235.047 192.583 Q236.111 192.583 237.215 192.884 Q238.339 193.165 239.744 194.269 Q241.169 195.373 242.032 197.18 Q243.678 200.672 243.678 206.814 Q243.678 212.815 242.152 216.087 Q239.924 220.864 235.007 220.864 Q233.16 220.864 231.274 219.921 Q229.407 218.977 228.223 216.709 Q226.376 213.317 226.376 206.814 M229.788 206.312 Q229.788 212.514 230.23 214.983 Q230.732 217.652 232.097 218.817 Q233.481 219.961 235.007 219.961 Q236.653 219.961 238.018 218.736 Q239.403 217.492 239.824 214.822 Q240.286 212.193 240.266 206.312 Q240.266 200.592 239.864 198.304 Q239.322 195.634 237.877 194.57 Q236.452 193.486 235.007 193.486 Q234.465 193.486 233.883 193.647 Q233.321 193.808 232.498 194.269 Q231.675 194.731 231.033 195.875 Q230.411 197.019 230.109 198.745 Q229.788 200.973 229.788 206.312 Z" fill="#000000" fill-rule="nonzero" fill-opacity="1" /><path clip-path="url(#clip850)" d="M246.929 206.814 Q246.929 200.772 248.455 197.481 Q250.582 192.583 255.6 192.583 Q256.664 192.583 257.768 192.884 Q258.892 193.165 260.297 194.269 Q261.722 195.373 262.585 197.18 Q264.231 200.672 264.231 206.814 Q264.231 212.815 262.706 216.087 Q260.478 220.864 255.56 220.864 Q253.714 220.864 251.827 219.921 Q249.96 218.977 248.776 216.709 Q246.929 213.317 246.929 206.814 M250.342 206.312 Q250.342 212.514 250.783 214.983 Q251.285 217.652 252.65 218.817 Q254.035 219.961 255.56 219.961 Q257.206 219.961 258.571 218.736 Q259.956 217.492 260.377 214.822 Q260.839 212.193 260.819 206.312 Q260.819 200.592 260.417 198.304 Q259.875 195.634 258.43 194.57 Q257.005 193.486 255.56 193.486 Q255.018 193.486 254.436 193.647 Q253.874 193.808 253.051 194.269 Q252.228 194.731 251.586 195.875 Q250.964 197.019 250.663 198.745 Q250.342 200.973 250.342 206.312 Z" fill="#000000" fill-rule="nonzero" fill-opacity="1" /><path clip-path="url(#clip850)" d="M34.6352 801.913 L17.5899 800.467 L17.5899 754.112 L34.6352 752.666 L34.6352 754.556 Q31.2261 754.853 29.2622 755.149 Q27.2983 755.408 25.4455 756.075 Q23.5557 756.705 22.6664 757.521 Q21.74 758.299 21.036 759.818 Q20.2949 761.337 20.1096 763.301 Q19.9243 765.265 19.9243 768.23 Q19.9243 771.713 20.0726 772.565 Q20.2949 773.491 20.9619 773.714 Q21.5918 773.936 22.9629 773.936 L62.9452 773.936 Q64.4645 773.936 65.0944 773.64 Q65.6873 773.306 66.169 771.564 Q66.6137 769.823 66.6137 765.969 L66.6137 762.931 L68.9482 762.931 Q68.7258 766.043 68.7258 777.345 Q68.7258 788.573 68.9482 791.685 L66.6137 791.685 L66.6137 788.647 Q66.6137 784.793 66.169 783.052 Q65.6873 781.273 65.0944 780.976 Q64.4645 780.68 62.9452 780.68 L22.9629 780.68 Q21.8883 780.68 21.4436 780.754 Q20.9989 780.828 20.6284 781.162 Q20.2208 781.495 20.0726 782.273 Q19.9243 783.014 19.9243 786.349 Q19.9243 789.314 20.1096 791.315 Q20.2949 793.279 21.036 794.798 Q21.74 796.317 22.6664 797.132 Q23.5557 797.911 25.4455 798.578 Q27.2983 799.208 29.2622 799.467 Q31.2261 799.726 34.6352 800.023 L34.6352 801.913 Z" fill="#000000" fill-rule="nonzero" fill-opacity="1" /><path clip-path="url(#clip850)" d="M68.9482 747.368 L66.6137 747.368 Q66.6137 743.329 66.132 742.402 Q65.6132 741.476 63.1676 741.476 L42.7502 741.476 Q39.9341 741.476 39.2671 742.439 Q38.6001 743.366 38.6001 747.071 L36.2286 747.071 L35.4133 736.473 L63.2417 736.473 Q65.502 736.473 66.0579 735.658 Q66.6137 734.843 66.6137 731.137 L68.9482 731.137 Q68.7258 738.882 68.7258 739.03 Q68.7258 740.068 68.9482 747.368 M22.1847 744.181 Q20.6654 744.181 19.4426 743.032 Q18.1828 741.846 18.1828 740.179 Q18.1828 738.511 19.3315 737.326 Q20.4431 736.14 22.2218 736.14 Q23.9633 736.14 25.112 737.326 Q26.2237 738.511 26.2237 740.179 Q26.2237 741.92 25.0009 743.069 Q23.7781 744.181 22.1847 744.181 Z" fill="#000000" fill-rule="nonzero" fill-opacity="1" /><path clip-path="url(#clip850)" d="M68.9482 726.431 L66.6137 726.431 Q66.6137 722.392 66.132 721.466 Q65.6132 720.54 63.1676 720.54 L42.8244 720.54 Q40.0082 720.54 39.3041 721.54 Q38.6001 722.504 38.6001 726.431 L36.2286 726.431 L35.4133 715.76 L43.3802 715.76 Q35.4133 712.202 35.4133 704.532 Q35.4133 695.639 42.8244 694.416 Q39.9341 693.119 37.6737 690.414 Q35.4133 687.672 35.4133 683.411 Q35.4133 677.704 38.2295 675.444 Q40.1193 673.776 42.2315 673.443 Q44.3436 673.109 49.8278 673.109 L64.3163 673.109 Q65.9096 673.035 66.2802 671.812 Q66.6137 670.589 66.6137 667.18 L68.9482 667.18 Q68.7258 674.925 68.7258 675.666 Q68.7258 676.259 68.9482 684.263 L66.6137 684.263 Q66.6137 680.224 66.132 679.297 Q65.6132 678.334 63.1676 678.334 L45.4923 678.334 Q41.6386 678.334 39.3782 679.52 Q37.0808 680.706 37.0808 683.966 Q37.0808 687.894 40.3787 691.044 Q43.6766 694.194 49.2349 694.194 L63.1676 694.194 Q65.6132 694.194 66.132 693.267 Q66.6137 692.304 66.6137 688.265 L68.9482 688.265 Q68.7258 696.009 68.7258 696.787 Q68.7258 697.38 68.9482 705.347 L66.6137 705.347 Q66.6137 701.308 66.132 700.382 Q65.6132 699.418 63.1676 699.418 L45.4923 699.418 Q41.6386 699.418 39.3782 700.604 Q37.0808 701.79 37.0808 705.051 Q37.0808 708.979 40.3787 712.128 Q43.6766 715.278 49.2349 715.278 L63.1676 715.278 Q65.6132 715.278 66.132 714.351 Q66.6137 713.388 66.6137 709.386 L68.9482 709.386 Q68.7258 717.131 68.7258 717.872 Q68.7258 718.465 68.9482 726.431 Z" fill="#000000" fill-rule="nonzero" fill-opacity="1" /><path clip-path="url(#clip850)" d="M52.2363 663.586 Q45.0847 663.586 40.0082 658.991 Q34.9316 654.396 34.9316 647.801 Q34.9316 641.131 39.2671 637.685 Q43.6025 634.201 49.8278 634.201 Q50.9765 634.201 51.1988 634.498 Q51.4211 634.794 51.4211 636.091 L51.4211 657.287 Q59.1656 657.287 62.797 654.989 Q67.8736 651.803 67.8736 646.43 Q67.8736 645.689 67.7253 644.799 Q67.5771 643.91 66.9472 642.094 Q66.2802 640.278 64.5386 638.685 Q62.797 637.092 60.0549 636.165 Q58.9804 635.943 59.0174 635.202 Q59.0174 634.201 59.9067 634.201 Q60.5737 634.201 62.093 634.943 Q63.5752 635.647 65.3538 637.018 Q67.1325 638.389 68.4664 641.057 Q69.8004 643.688 69.8004 646.874 Q69.8004 653.544 64.7609 658.584 Q59.6844 663.586 52.2363 663.586 M49.8278 657.213 L49.8278 639.204 Q48.2344 639.204 46.4557 639.5 Q44.6771 639.76 42.2315 640.575 Q39.7488 641.353 38.1925 643.206 Q36.6362 645.059 36.6362 647.801 Q36.6362 649.023 37.1549 650.357 Q37.6737 651.654 38.9336 653.248 Q40.1934 654.841 43.0467 655.953 Q45.8999 657.064 49.8278 657.213 Z" fill="#000000" fill-rule="nonzero" fill-opacity="1" /><path clip-path="url(#clip850)" d="M49.976 599.259 Q37.1549 599.259 26.8166 594.478 Q22.4811 592.44 18.8497 589.587 Q15.2184 586.734 13.625 584.844 Q12.0316 582.954 12.0316 582.436 Q12.0316 581.694 12.7727 581.657 Q13.1433 581.657 14.0696 582.658 Q26.5201 594.886 49.976 594.849 Q73.5059 594.849 85.4747 582.954 Q86.7716 581.657 87.1792 581.657 Q87.9203 581.657 87.9203 582.436 Q87.9203 582.954 86.4011 584.77 Q84.8818 586.586 81.3987 589.402 Q77.9155 592.218 73.6541 594.256 Q63.3158 599.259 49.976 599.259 Z" fill="#000000" fill-rule="nonzero" fill-opacity="1" /><path clip-path="url(#clip850)" d="M67.9477 574.839 L57.9428 574.839 Q57.0905 574.839 56.7941 574.802 Q56.4977 574.765 56.2753 574.543 Q56.053 574.32 56.053 573.876 Q56.053 573.357 56.2753 573.172 Q56.4977 572.949 57.3499 572.801 Q62.5747 571.653 65.3538 569.207 Q68.0959 566.724 68.0959 562.241 Q68.0959 557.979 66.2061 555.83 Q64.3163 553.681 61.2037 553.681 Q55.6454 553.681 54.2373 561.574 Q53.3109 566.131 52.7181 568.021 Q52.0881 569.911 50.7171 571.578 Q48.0491 574.839 44.2695 574.839 Q40.4899 574.839 37.7108 571.986 Q34.9316 569.096 34.9316 562.722 Q34.9316 558.461 37.0808 555.571 Q36.4138 554.718 35.858 554.274 Q34.9316 553.273 34.9316 552.754 Q34.9316 552.162 35.3392 552.05 Q35.7098 551.939 36.7844 551.939 L44.4177 551.939 Q45.27 551.939 45.5664 551.976 Q45.8629 552.013 46.0852 552.236 Q46.2705 552.458 46.2705 552.94 Q46.2705 553.792 45.5664 553.829 Q36.3768 554.422 36.3768 562.722 Q36.3768 567.206 38.1184 569.207 Q39.8229 571.208 42.1574 571.208 Q43.4543 571.208 44.4548 570.615 Q45.4182 569.985 46.0111 569.207 Q46.5669 568.392 47.1227 566.909 Q47.6415 565.427 47.8268 564.538 Q48.0121 563.612 48.3826 561.87 Q49.5313 555.793 52.014 553.236 Q55.2007 550.049 59.2397 550.049 Q63.7234 550.049 66.7619 553.088 Q69.8004 556.126 69.8004 562.241 Q69.8004 567.169 66.5025 570.615 Q66.9472 571.06 67.3548 571.393 Q67.7253 571.727 67.8736 571.875 Q68.0218 571.986 68.1329 572.023 Q68.2071 572.06 68.2812 572.134 Q69.8004 573.654 69.8004 574.024 Q69.8004 574.617 69.3928 574.728 Q69.0223 574.839 67.9477 574.839 Z" fill="#000000" fill-rule="nonzero" fill-opacity="1" /><path clip-path="url(#clip850)" d="M87.1792 543.157 Q86.8087 543.157 85.8823 542.194 Q73.4318 529.966 49.976 529.966 Q26.446 529.966 14.5514 541.712 Q13.1803 543.157 12.7727 543.157 Q12.0316 543.157 12.0316 542.416 Q12.0316 541.897 13.5509 540.082 Q15.0701 538.229 18.5533 535.45 Q22.0365 532.634 26.2978 530.558 Q36.6362 525.556 49.976 525.556 Q62.797 525.556 73.1354 530.336 Q77.4708 532.374 81.1022 535.227 Q84.7336 538.081 86.327 539.97 Q87.9203 541.86 87.9203 542.416 Q87.9203 543.157 87.1792 543.157 Z" fill="#000000" fill-rule="nonzero" fill-opacity="1" /><polyline clip-path="url(#clip852)" style="stroke:#0000ff; stroke-linecap:round; stroke-linejoin:round; stroke-width:12; stroke-opacity:1; fill:none" points="1795.27,959.29 1345.36,741.184 893.572,526.897 479.355,303.182 554.927,82.1398 "/>
<line clip-path="url(#clip852)" x1="1795.27" y1="959.29" x2="1795.27" y2="943.29" style="stroke:#0000ff; stroke-width:12; stroke-opacity:1"/>
<line clip-path="url(#clip852)" x1="1795.27" y1="959.29" x2="1779.27" y2="959.29" style="stroke:#0000ff; stroke-width:12; stroke-opacity:1"/>
<line clip-path="url(#clip852)" x1="1795.27" y1="959.29" x2="1795.27" y2="975.29" style="stroke:#0000ff; stroke-width:12; stroke-opacity:1"/>
<line clip-path="url(#clip852)" x1="1795.27" y1="959.29" x2="1811.27" y2="959.29" style="stroke:#0000ff; stroke-width:12; stroke-opacity:1"/>
<line clip-path="url(#clip852)" x1="1345.36" y1="741.184" x2="1345.36" y2="725.184" style="stroke:#0000ff; stroke-width:12; stroke-opacity:1"/>
<line clip-path="url(#clip852)" x1="1345.36" y1="741.184" x2="1329.36" y2="741.184" style="stroke:#0000ff; stroke-width:12; stroke-opacity:1"/>
<line clip-path="url(#clip852)" x1="1345.36" y1="741.184" x2="1345.36" y2="757.184" style="stroke:#0000ff; stroke-width:12; stroke-opacity:1"/>
<line clip-path="url(#clip852)" x1="1345.36" y1="741.184" x2="1361.36" y2="741.184" style="stroke:#0000ff; stroke-width:12; stroke-opacity:1"/>
<line clip-path="url(#clip852)" x1="893.572" y1="526.897" x2="893.572" y2="510.897" style="stroke:#0000ff; stroke-width:12; stroke-opacity:1"/>
<line clip-path="url(#clip852)" x1="893.572" y1="526.897" x2="877.572" y2="526.897" style="stroke:#0000ff; stroke-width:12; stroke-opacity:1"/>
<line clip-path="url(#clip852)" x1="893.572" y1="526.897" x2="893.572" y2="542.897" style="stroke:#0000ff; stroke-width:12; stroke-opacity:1"/>
<line clip-path="url(#clip852)" x1="893.572" y1="526.897" x2="909.572" y2="526.897" style="stroke:#0000ff; stroke-width:12; stroke-opacity:1"/>
<line clip-path="url(#clip852)" x1="479.355" y1="303.182" x2="479.355" y2="287.182" style="stroke:#0000ff; stroke-width:12; stroke-opacity:1"/>
<line clip-path="url(#clip852)" x1="479.355" y1="303.182" x2="463.355" y2="303.182" style="stroke:#0000ff; stroke-width:12; stroke-opacity:1"/>
<line clip-path="url(#clip852)" x1="479.355" y1="303.182" x2="479.355" y2="319.182" style="stroke:#0000ff; stroke-width:12; stroke-opacity:1"/>
<line clip-path="url(#clip852)" x1="479.355" y1="303.182" x2="495.355" y2="303.182" style="stroke:#0000ff; stroke-width:12; stroke-opacity:1"/>
<line clip-path="url(#clip852)" x1="554.927" y1="82.1398" x2="554.927" y2="66.1398" style="stroke:#0000ff; stroke-width:12; stroke-opacity:1"/>
<line clip-path="url(#clip852)" x1="554.927" y1="82.1398" x2="538.927" y2="82.1398" style="stroke:#0000ff; stroke-width:12; stroke-opacity:1"/>
<line clip-path="url(#clip852)" x1="554.927" y1="82.1398" x2="554.927" y2="98.1398" style="stroke:#0000ff; stroke-width:12; stroke-opacity:1"/>
<line clip-path="url(#clip852)" x1="554.927" y1="82.1398" x2="570.927" y2="82.1398" style="stroke:#0000ff; stroke-width:12; stroke-opacity:1"/>
<polyline clip-path="url(#clip852)" style="stroke:#7f007f; stroke-linecap:round; stroke-linejoin:round; stroke-width:12; stroke-opacity:1; fill:none" points="1544.01,1235.76 1047.65,1063.76 342.378,911.774 551.242,731.679 554.895,562.617 "/>
<circle clip-path="url(#clip852)" cx="1544.01" cy="1235.76" r="14.4" fill="#7f007f" fill-rule="evenodd" fill-opacity="1" stroke="#000000" stroke-opacity="1" stroke-width="1.536"/>
<circle clip-path="url(#clip852)" cx="1047.65" cy="1063.76" r="14.4" fill="#7f007f" fill-rule="evenodd" fill-opacity="1" stroke="#000000" stroke-opacity="1" stroke-width="1.536"/>
<circle clip-path="url(#clip852)" cx="342.378" cy="911.774" r="14.4" fill="#7f007f" fill-rule="evenodd" fill-opacity="1" stroke="#000000" stroke-opacity="1" stroke-width="1.536"/>
<circle clip-path="url(#clip852)" cx="551.242" cy="731.679" r="14.4" fill="#7f007f" fill-rule="evenodd" fill-opacity="1" stroke="#000000" stroke-opacity="1" stroke-width="1.536"/>
<circle clip-path="url(#clip852)" cx="554.895" cy="562.617" r="14.4" fill="#7f007f" fill-rule="evenodd" fill-opacity="1" stroke="#000000" stroke-opacity="1" stroke-width="1.536"/>
<polyline clip-path="url(#clip852)" style="stroke:#ff0000; stroke-linecap:round; stroke-linejoin:round; stroke-width:12; stroke-opacity:1; fill:none" points="1564.03,1245.33 741.425,1202.41 524.146,1064.3 552.957,919.329 554.721,774.53 "/>
<line clip-path="url(#clip852)" x1="1564.03" y1="1245.33" x2="1564.03" y2="1229.33" style="stroke:#ff0000; stroke-width:12; stroke-opacity:1"/>
<line clip-path="url(#clip852)" x1="1564.03" y1="1245.33" x2="1548.03" y2="1245.33" style="stroke:#ff0000; stroke-width:12; stroke-opacity:1"/>
<line clip-path="url(#clip852)" x1="1564.03" y1="1245.33" x2="1564.03" y2="1261.33" style="stroke:#ff0000; stroke-width:12; stroke-opacity:1"/>
<line clip-path="url(#clip852)" x1="1564.03" y1="1245.33" x2="1580.03" y2="1245.33" style="stroke:#ff0000; stroke-width:12; stroke-opacity:1"/>
<line clip-path="url(#clip852)" x1="741.425" y1="1202.41" x2="741.425" y2="1186.41" style="stroke:#ff0000; stroke-width:12; stroke-opacity:1"/>
<line clip-path="url(#clip852)" x1="741.425" y1="1202.41" x2="725.425" y2="1202.41" style="stroke:#ff0000; stroke-width:12; stroke-opacity:1"/>
<line clip-path="url(#clip852)" x1="741.425" y1="1202.41" x2="741.425" y2="1218.41" style="stroke:#ff0000; stroke-width:12; stroke-opacity:1"/>
<line clip-path="url(#clip852)" x1="741.425" y1="1202.41" x2="757.425" y2="1202.41" style="stroke:#ff0000; stroke-width:12; stroke-opacity:1"/>
<line clip-path="url(#clip852)" x1="524.146" y1="1064.3" x2="524.146" y2="1048.3" style="stroke:#ff0000; stroke-width:12; stroke-opacity:1"/>
<line clip-path="url(#clip852)" x1="524.146" y1="1064.3" x2="508.146" y2="1064.3" style="stroke:#ff0000; stroke-width:12; stroke-opacity:1"/>
<line clip-path="url(#clip852)" x1="524.146" y1="1064.3" x2="524.146" y2="1080.3" style="stroke:#ff0000; stroke-width:12; stroke-opacity:1"/>
<line clip-path="url(#clip852)" x1="524.146" y1="1064.3" x2="540.146" y2="1064.3" style="stroke:#ff0000; stroke-width:12; stroke-opacity:1"/>
<line clip-path="url(#clip852)" x1="552.957" y1="919.329" x2="552.957" y2="903.329" style="stroke:#ff0000; stroke-width:12; stroke-opacity:1"/>
<line clip-path="url(#clip852)" x1="552.957" y1="919.329" x2="536.957" y2="919.329" style="stroke:#ff0000; stroke-width:12; stroke-opacity:1"/>
<line clip-path="url(#clip852)" x1="552.957" y1="919.329" x2="552.957" y2="935.329" style="stroke:#ff0000; stroke-width:12; stroke-opacity:1"/>
<line clip-path="url(#clip852)" x1="552.957" y1="919.329" x2="568.957" y2="919.329" style="stroke:#ff0000; stroke-width:12; stroke-opacity:1"/>
<line clip-path="url(#clip852)" x1="554.721" y1="774.53" x2="554.721" y2="758.53" style="stroke:#ff0000; stroke-width:12; stroke-opacity:1"/>
<line clip-path="url(#clip852)" x1="554.721" y1="774.53" x2="538.721" y2="774.53" style="stroke:#ff0000; stroke-width:12; stroke-opacity:1"/>
<line clip-path="url(#clip852)" x1="554.721" y1="774.53" x2="554.721" y2="790.53" style="stroke:#ff0000; stroke-width:12; stroke-opacity:1"/>
<line clip-path="url(#clip852)" x1="554.721" y1="774.53" x2="570.721" y2="774.53" style="stroke:#ff0000; stroke-width:12; stroke-opacity:1"/>
<path clip-path="url(#clip850)" d="M1904.12 295.703 L2256.76 295.703 L2256.76 88.3434 L1904.12 88.3434  Z" fill="#ffffff" fill-rule="evenodd" fill-opacity="1"/>
<polyline clip-path="url(#clip850)" style="stroke:#000000; stroke-linecap:round; stroke-linejoin:round; stroke-width:4; stroke-opacity:1; fill:none" points="1904.12,295.703 2256.76,295.703 2256.76,88.3434 1904.12,88.3434 1904.12,295.703 "/>
<polyline clip-path="url(#clip850)" style="stroke:#0000ff; stroke-linecap:round; stroke-linejoin:round; stroke-width:12; stroke-opacity:1; fill:none" points="1925.87,140.183 2056.4,140.183 "/>
<line clip-path="url(#clip850)" x1="1991.14" y1="140.183" x2="1991.14" y2="120.04" style="stroke:#0000ff; stroke-width:12; stroke-opacity:1"/>
<line clip-path="url(#clip850)" x1="1991.14" y1="140.183" x2="1970.99" y2="140.183" style="stroke:#0000ff; stroke-width:12; stroke-opacity:1"/>
<line clip-path="url(#clip850)" x1="1991.14" y1="140.183" x2="1991.14" y2="160.327" style="stroke:#0000ff; stroke-width:12; stroke-opacity:1"/>
<line clip-path="url(#clip850)" x1="1991.14" y1="140.183" x2="2011.28" y2="140.183" style="stroke:#0000ff; stroke-width:12; stroke-opacity:1"/>
<path clip-path="url(#clip850)" d="M2078.16 157.463 L2078.16 155.907 L2079.37 155.907 Q2082.11 155.907 2082.73 155.462 Q2083.37 154.993 2083.37 153.511 L2083.37 127.004 Q2083.37 125.547 2082.73 125.102 Q2082.09 124.633 2079.37 124.633 L2078.16 124.633 L2078.16 123.052 L2106.64 123.052 L2108.05 134.44 L2106.79 134.44 Q2106.44 131.55 2105.98 129.894 Q2105.53 128.215 2104.42 126.93 Q2103.33 125.646 2101.53 125.151 Q2099.75 124.633 2096.86 124.633 L2090.34 124.633 Q2088.61 124.633 2088.24 125.003 Q2087.87 125.349 2087.87 126.658 L2087.87 138.788 L2092.41 138.788 Q2095.9 138.788 2096.88 137.577 Q2097.87 136.367 2097.87 132.884 L2099.16 132.884 L2099.16 146.273 L2097.87 146.273 Q2097.87 142.839 2096.88 141.604 Q2095.9 140.369 2092.41 140.369 L2087.87 140.369 L2087.87 153.881 Q2087.87 155.191 2088.24 155.561 Q2088.63 155.907 2090.34 155.907 L2097.08 155.907 Q2099.26 155.907 2100.84 155.635 Q2102.44 155.339 2103.55 154.647 Q2104.67 153.931 2105.41 153.116 Q2106.17 152.3 2106.69 150.843 Q2107.23 149.361 2107.53 148.002 Q2107.85 146.643 2108.2 144.42 L2109.46 144.42 L2107.33 157.463 L2078.16 157.463 Z" fill="#000000" fill-rule="nonzero" fill-opacity="1" /><path clip-path="url(#clip850)" d="M2112.55 157.463 L2112.55 155.907 L2113.76 155.907 Q2116.5 155.907 2117.12 155.462 Q2117.76 154.993 2117.76 153.511 L2117.76 126.856 Q2117.76 125.398 2117.12 124.954 Q2116.47 124.484 2113.76 124.484 L2112.55 124.484 L2112.55 122.903 Q2114.32 123.052 2120.03 123.052 Q2125.69 123.052 2127.47 122.903 L2127.47 124.484 L2126.26 124.484 Q2123.51 124.484 2122.87 124.954 Q2122.25 125.398 2122.25 126.856 L2122.25 142.938 L2138.09 127.819 Q2139 127.004 2139 126.14 Q2139 125.843 2138.86 125.522 Q2138.73 125.176 2138.14 124.83 Q2137.57 124.484 2136.66 124.484 L2136.66 122.903 Q2138.39 123.052 2143.1 123.052 Q2146.09 123.052 2147.4 122.903 L2147.4 124.484 Q2143.2 124.534 2140.21 127.523 L2131.1 136.268 L2142.78 153.461 Q2143.85 155.018 2144.88 155.462 Q2145.92 155.907 2148.09 155.907 L2148.09 157.463 Q2144.91 157.315 2142.29 157.315 Q2136.83 157.315 2135.05 157.463 L2135.05 155.907 Q2138.04 155.907 2138.04 154.376 Q2138.04 153.807 2137.27 152.646 L2128.11 139.109 L2122.25 144.667 L2122.25 153.511 Q2122.25 154.968 2122.87 155.438 Q2123.51 155.907 2126.26 155.907 L2127.47 155.907 L2127.47 157.463 Q2125.69 157.315 2119.98 157.315 Q2114.32 157.315 2112.55 157.463 Z" fill="#000000" fill-rule="nonzero" fill-opacity="1" /><path clip-path="url(#clip850)" d="M2154.67 128.585 L2154.67 127.004 Q2160.74 127.004 2163.88 123.768 Q2164.74 123.768 2164.89 123.966 Q2165.04 124.163 2165.04 125.077 L2165.04 153.461 Q2165.04 154.968 2165.78 155.438 Q2166.52 155.907 2169.76 155.907 L2171.36 155.907 L2171.36 157.463 Q2169.59 157.315 2163.16 157.315 Q2156.74 157.315 2154.99 157.463 L2154.99 155.907 L2156.59 155.907 Q2159.78 155.907 2160.54 155.462 Q2161.31 154.993 2161.31 153.461 L2161.31 127.251 Q2158.67 128.585 2154.67 128.585 Z" fill="#000000" fill-rule="nonzero" fill-opacity="1" /><path clip-path="url(#clip850)" d="M2180.48 144.815 Q2180.48 136.268 2183.67 129.376 Q2185.03 126.485 2186.93 124.064 Q2188.83 121.644 2190.09 120.581 Q2191.35 119.519 2191.7 119.519 Q2192.19 119.519 2192.21 120.013 Q2192.21 120.26 2191.55 120.878 Q2183.4 129.178 2183.42 144.815 Q2183.42 160.502 2191.35 168.481 Q2192.21 169.346 2192.21 169.617 Q2192.21 170.112 2191.7 170.112 Q2191.35 170.112 2190.14 169.099 Q2188.93 168.086 2187.05 165.764 Q2185.17 163.442 2183.82 160.601 Q2180.48 153.709 2180.48 144.815 Z" fill="#000000" fill-rule="nonzero" fill-opacity="1" /><path clip-path="url(#clip850)" d="M2197.6 157.463 Q2197.6 156.549 2197.67 156.278 Q2197.77 156.006 2198.17 155.586 L2207.88 144.766 Q2213.19 138.788 2213.19 133.575 Q2213.19 130.191 2211.41 127.77 Q2209.66 125.349 2206.42 125.349 Q2204.2 125.349 2202.32 126.708 Q2200.44 128.066 2199.58 130.487 Q2199.72 130.438 2200.24 130.438 Q2201.5 130.438 2202.19 131.228 Q2202.91 132.019 2202.91 133.081 Q2202.91 134.44 2202.02 135.107 Q2201.16 135.749 2200.29 135.749 Q2199.95 135.749 2199.48 135.675 Q2199.03 135.601 2198.32 134.909 Q2197.6 134.193 2197.6 132.933 Q2197.6 129.4 2200.27 126.584 Q2202.96 123.768 2207.06 123.768 Q2211.71 123.768 2214.74 126.535 Q2217.81 129.277 2217.81 133.575 Q2217.81 135.082 2217.34 136.466 Q2216.89 137.824 2216.28 138.887 Q2215.68 139.949 2214.05 141.653 Q2212.42 143.358 2211.11 144.568 Q2209.8 145.779 2206.86 148.348 L2201.5 153.56 L2210.62 153.56 Q2215.07 153.56 2215.41 153.165 Q2215.91 152.449 2216.52 148.669 L2217.81 148.669 L2216.37 157.463 L2197.6 157.463 Z" fill="#000000" fill-rule="nonzero" fill-opacity="1" /><path clip-path="url(#clip850)" d="M2223.27 169.617 Q2223.27 169.37 2223.91 168.753 Q2232.06 160.453 2232.06 144.815 Q2232.06 129.129 2224.23 121.199 Q2223.27 120.285 2223.27 120.013 Q2223.27 119.519 2223.76 119.519 Q2224.11 119.519 2225.32 120.532 Q2226.55 121.545 2228.4 123.867 Q2230.28 126.189 2231.67 129.03 Q2235 135.922 2235 144.815 Q2235 153.363 2231.81 160.255 Q2230.46 163.145 2228.55 165.566 Q2226.65 167.987 2225.39 169.049 Q2224.13 170.112 2223.76 170.112 Q2223.27 170.112 2223.27 169.617 Z" fill="#000000" fill-rule="nonzero" fill-opacity="1" /><polyline clip-path="url(#clip850)" style="stroke:#7f007f; stroke-linecap:round; stroke-linejoin:round; stroke-width:12; stroke-opacity:1; fill:none" points="1925.87,192.023 2056.4,192.023 "/>
<circle clip-path="url(#clip850)" cx="1991.14" cy="192.023" r="18.1293" fill="#7f007f" fill-rule="evenodd" fill-opacity="1" stroke="#000000" stroke-opacity="1" stroke-width="2.31304"/>
<path clip-path="url(#clip850)" d="M2078.16 209.303 L2078.16 207.747 L2079.37 207.747 Q2082.11 207.747 2082.73 207.302 Q2083.37 206.833 2083.37 205.351 L2083.37 178.844 Q2083.37 177.387 2082.73 176.942 Q2082.09 176.473 2079.37 176.473 L2078.16 176.473 L2078.16 174.892 L2106.64 174.892 L2108.05 186.28 L2106.79 186.28 Q2106.44 183.39 2105.98 181.734 Q2105.53 180.055 2104.42 178.77 Q2103.33 177.486 2101.53 176.991 Q2099.75 176.473 2096.86 176.473 L2090.34 176.473 Q2088.61 176.473 2088.24 176.843 Q2087.87 177.189 2087.87 178.498 L2087.87 190.628 L2092.41 190.628 Q2095.9 190.628 2096.88 189.417 Q2097.87 188.207 2097.87 184.724 L2099.16 184.724 L2099.16 198.113 L2097.87 198.113 Q2097.87 194.679 2096.88 193.444 Q2095.9 192.209 2092.41 192.209 L2087.87 192.209 L2087.87 205.721 Q2087.87 207.031 2088.24 207.401 Q2088.63 207.747 2090.34 207.747 L2097.08 207.747 Q2099.26 207.747 2100.84 207.475 Q2102.44 207.179 2103.55 206.487 Q2104.67 205.771 2105.41 204.956 Q2106.17 204.14 2106.69 202.683 Q2107.23 201.201 2107.53 199.842 Q2107.85 198.483 2108.2 196.26 L2109.46 196.26 L2107.33 209.303 L2078.16 209.303 Z" fill="#000000" fill-rule="nonzero" fill-opacity="1" /><path clip-path="url(#clip850)" d="M2112.55 209.303 L2112.55 207.747 L2113.76 207.747 Q2116.5 207.747 2117.12 207.302 Q2117.76 206.833 2117.76 205.351 L2117.76 178.696 Q2117.76 177.238 2117.12 176.794 Q2116.47 176.324 2113.76 176.324 L2112.55 176.324 L2112.55 174.743 Q2114.32 174.892 2120.03 174.892 Q2125.69 174.892 2127.47 174.743 L2127.47 176.324 L2126.26 176.324 Q2123.51 176.324 2122.87 176.794 Q2122.25 177.238 2122.25 178.696 L2122.25 194.778 L2138.09 179.659 Q2139 178.844 2139 177.98 Q2139 177.683 2138.86 177.362 Q2138.73 177.016 2138.14 176.67 Q2137.57 176.324 2136.66 176.324 L2136.66 174.743 Q2138.39 174.892 2143.1 174.892 Q2146.09 174.892 2147.4 174.743 L2147.4 176.324 Q2143.2 176.374 2140.21 179.363 L2131.1 188.108 L2142.78 205.301 Q2143.85 206.858 2144.88 207.302 Q2145.92 207.747 2148.09 207.747 L2148.09 209.303 Q2144.91 209.155 2142.29 209.155 Q2136.83 209.155 2135.05 209.303 L2135.05 207.747 Q2138.04 207.747 2138.04 206.216 Q2138.04 205.647 2137.27 204.486 L2128.11 190.949 L2122.25 196.507 L2122.25 205.351 Q2122.25 206.808 2122.87 207.278 Q2123.51 207.747 2126.26 207.747 L2127.47 207.747 L2127.47 209.303 Q2125.69 209.155 2119.98 209.155 Q2114.32 209.155 2112.55 209.303 Z" fill="#000000" fill-rule="nonzero" fill-opacity="1" /><path clip-path="url(#clip850)" d="M2154.67 180.425 L2154.67 178.844 Q2160.74 178.844 2163.88 175.608 Q2164.74 175.608 2164.89 175.806 Q2165.04 176.003 2165.04 176.917 L2165.04 205.301 Q2165.04 206.808 2165.78 207.278 Q2166.52 207.747 2169.76 207.747 L2171.36 207.747 L2171.36 209.303 Q2169.59 209.155 2163.16 209.155 Q2156.74 209.155 2154.99 209.303 L2154.99 207.747 L2156.59 207.747 Q2159.78 207.747 2160.54 207.302 Q2161.31 206.833 2161.31 205.301 L2161.31 179.091 Q2158.67 180.425 2154.67 180.425 Z" fill="#000000" fill-rule="nonzero" fill-opacity="1" /><path clip-path="url(#clip850)" d="M2180.48 196.655 Q2180.48 188.108 2183.67 181.216 Q2185.03 178.325 2186.93 175.904 Q2188.83 173.484 2190.09 172.421 Q2191.35 171.359 2191.7 171.359 Q2192.19 171.359 2192.21 171.853 Q2192.21 172.1 2191.55 172.718 Q2183.4 181.018 2183.42 196.655 Q2183.42 212.342 2191.35 220.321 Q2192.21 221.186 2192.21 221.457 Q2192.21 221.952 2191.7 221.952 Q2191.35 221.952 2190.14 220.939 Q2188.93 219.926 2187.05 217.604 Q2185.17 215.282 2183.82 212.441 Q2180.48 205.549 2180.48 196.655 Z" fill="#000000" fill-rule="nonzero" fill-opacity="1" /><path clip-path="url(#clip850)" d="M2197.2 202.485 Q2197.2 200.978 2198.07 200.262 Q2198.93 199.546 2200.05 199.546 Q2201.21 199.546 2202.02 200.311 Q2202.86 201.053 2202.86 202.362 Q2202.86 203.77 2201.87 204.56 Q2200.91 205.351 2199.53 205.153 Q2200.74 207.179 2202.96 208.093 Q2205.21 209.007 2207.28 209.007 Q2209.46 209.007 2211.21 207.13 Q2212.99 205.252 2212.99 200.657 Q2212.99 196.754 2211.46 194.506 Q2209.95 192.258 2206.96 192.258 L2204.74 192.258 Q2203.97 192.258 2203.75 192.184 Q2203.53 192.11 2203.53 191.69 Q2203.53 191.196 2204.29 191.097 Q2205.06 191.097 2206.27 190.949 Q2209.21 190.85 2210.77 188.306 Q2212.17 185.934 2212.17 182.55 Q2212.17 179.462 2210.69 178.177 Q2209.24 176.868 2207.33 176.868 Q2205.55 176.868 2203.6 177.609 Q2201.65 178.35 2200.59 180.005 Q2203.73 180.005 2203.73 182.55 Q2203.73 183.661 2203.01 184.402 Q2202.32 185.119 2201.16 185.119 Q2200.05 185.119 2199.3 184.427 Q2198.56 183.711 2198.56 182.5 Q2198.56 179.61 2201.13 177.609 Q2203.73 175.608 2207.53 175.608 Q2211.29 175.608 2214.05 177.584 Q2216.84 179.561 2216.84 182.599 Q2216.84 185.588 2214.87 188.034 Q2212.89 190.479 2209.75 191.492 Q2213.61 192.258 2215.91 194.877 Q2218.2 197.471 2218.2 200.657 Q2218.2 204.61 2215.09 207.525 Q2211.98 210.415 2207.43 210.415 Q2203.23 210.415 2200.22 208.142 Q2197.2 205.87 2197.2 202.485 Z" fill="#000000" fill-rule="nonzero" fill-opacity="1" /><path clip-path="url(#clip850)" d="M2223.27 221.457 Q2223.27 221.21 2223.91 220.593 Q2232.06 212.293 2232.06 196.655 Q2232.06 180.969 2224.23 173.039 Q2223.27 172.125 2223.27 171.853 Q2223.27 171.359 2223.76 171.359 Q2224.11 171.359 2225.32 172.372 Q2226.55 173.385 2228.4 175.707 Q2230.28 178.029 2231.67 180.87 Q2235 187.762 2235 196.655 Q2235 205.203 2231.81 212.095 Q2230.46 214.985 2228.55 217.406 Q2226.65 219.827 2225.39 220.889 Q2224.13 221.952 2223.76 221.952 Q2223.27 221.952 2223.27 221.457 Z" fill="#000000" fill-rule="nonzero" fill-opacity="1" /><polyline clip-path="url(#clip850)" style="stroke:#ff0000; stroke-linecap:round; stroke-linejoin:round; stroke-width:12; stroke-opacity:1; fill:none" points="1925.87,243.863 2056.4,243.863 "/>
<line clip-path="url(#clip850)" x1="1991.14" y1="243.863" x2="1991.14" y2="223.72" style="stroke:#ff0000; stroke-width:12; stroke-opacity:1"/>
<line clip-path="url(#clip850)" x1="1991.14" y1="243.863" x2="1970.99" y2="243.863" style="stroke:#ff0000; stroke-width:12; stroke-opacity:1"/>
<line clip-path="url(#clip850)" x1="1991.14" y1="243.863" x2="1991.14" y2="264.007" style="stroke:#ff0000; stroke-width:12; stroke-opacity:1"/>
<line clip-path="url(#clip850)" x1="1991.14" y1="243.863" x2="2011.28" y2="243.863" style="stroke:#ff0000; stroke-width:12; stroke-opacity:1"/>
<path clip-path="url(#clip850)" d="M2078.16 261.143 L2078.16 259.587 L2079.37 259.587 Q2082.11 259.587 2082.73 259.142 Q2083.37 258.673 2083.37 257.191 L2083.37 230.684 Q2083.37 229.227 2082.73 228.782 Q2082.09 228.313 2079.37 228.313 L2078.16 228.313 L2078.16 226.732 L2106.64 226.732 L2108.05 238.12 L2106.79 238.12 Q2106.44 235.23 2105.98 233.574 Q2105.53 231.895 2104.42 230.61 Q2103.33 229.326 2101.53 228.831 Q2099.75 228.313 2096.86 228.313 L2090.34 228.313 Q2088.61 228.313 2088.24 228.683 Q2087.87 229.029 2087.87 230.338 L2087.87 242.468 L2092.41 242.468 Q2095.9 242.468 2096.88 241.257 Q2097.87 240.047 2097.87 236.564 L2099.16 236.564 L2099.16 249.953 L2097.87 249.953 Q2097.87 246.519 2096.88 245.284 Q2095.9 244.049 2092.41 244.049 L2087.87 244.049 L2087.87 257.561 Q2087.87 258.871 2088.24 259.241 Q2088.63 259.587 2090.34 259.587 L2097.08 259.587 Q2099.26 259.587 2100.84 259.315 Q2102.44 259.019 2103.55 258.327 Q2104.67 257.611 2105.41 256.796 Q2106.17 255.98 2106.69 254.523 Q2107.23 253.041 2107.53 251.682 Q2107.85 250.323 2108.2 248.1 L2109.46 248.1 L2107.33 261.143 L2078.16 261.143 Z" fill="#000000" fill-rule="nonzero" fill-opacity="1" /><path clip-path="url(#clip850)" d="M2112.55 261.143 L2112.55 259.587 L2113.76 259.587 Q2116.5 259.587 2117.12 259.142 Q2117.76 258.673 2117.76 257.191 L2117.76 230.536 Q2117.76 229.078 2117.12 228.634 Q2116.47 228.164 2113.76 228.164 L2112.55 228.164 L2112.55 226.583 Q2114.32 226.732 2120.03 226.732 Q2125.69 226.732 2127.47 226.583 L2127.47 228.164 L2126.26 228.164 Q2123.51 228.164 2122.87 228.634 Q2122.25 229.078 2122.25 230.536 L2122.25 246.618 L2138.09 231.499 Q2139 230.684 2139 229.82 Q2139 229.523 2138.86 229.202 Q2138.73 228.856 2138.14 228.51 Q2137.57 228.164 2136.66 228.164 L2136.66 226.583 Q2138.39 226.732 2143.1 226.732 Q2146.09 226.732 2147.4 226.583 L2147.4 228.164 Q2143.2 228.214 2140.21 231.203 L2131.1 239.948 L2142.78 257.141 Q2143.85 258.698 2144.88 259.142 Q2145.92 259.587 2148.09 259.587 L2148.09 261.143 Q2144.91 260.995 2142.29 260.995 Q2136.83 260.995 2135.05 261.143 L2135.05 259.587 Q2138.04 259.587 2138.04 258.056 Q2138.04 257.487 2137.27 256.326 L2128.11 242.789 L2122.25 248.347 L2122.25 257.191 Q2122.25 258.648 2122.87 259.118 Q2123.51 259.587 2126.26 259.587 L2127.47 259.587 L2127.47 261.143 Q2125.69 260.995 2119.98 260.995 Q2114.32 260.995 2112.55 261.143 Z" fill="#000000" fill-rule="nonzero" fill-opacity="1" /><path clip-path="url(#clip850)" d="M2154.67 232.265 L2154.67 230.684 Q2160.74 230.684 2163.88 227.448 Q2164.74 227.448 2164.89 227.646 Q2165.04 227.843 2165.04 228.757 L2165.04 257.141 Q2165.04 258.648 2165.78 259.118 Q2166.52 259.587 2169.76 259.587 L2171.36 259.587 L2171.36 261.143 Q2169.59 260.995 2163.16 260.995 Q2156.74 260.995 2154.99 261.143 L2154.99 259.587 L2156.59 259.587 Q2159.78 259.587 2160.54 259.142 Q2161.31 258.673 2161.31 257.141 L2161.31 230.931 Q2158.67 232.265 2154.67 232.265 Z" fill="#000000" fill-rule="nonzero" fill-opacity="1" /><path clip-path="url(#clip850)" d="M2180.48 248.495 Q2180.48 239.948 2183.67 233.056 Q2185.03 230.165 2186.93 227.744 Q2188.83 225.324 2190.09 224.261 Q2191.35 223.199 2191.7 223.199 Q2192.19 223.199 2192.21 223.693 Q2192.21 223.94 2191.55 224.558 Q2183.4 232.858 2183.42 248.495 Q2183.42 264.182 2191.35 272.161 Q2192.21 273.026 2192.21 273.297 Q2192.21 273.792 2191.7 273.792 Q2191.35 273.792 2190.14 272.779 Q2188.93 271.766 2187.05 269.444 Q2185.17 267.122 2183.82 264.281 Q2180.48 257.389 2180.48 248.495 Z" fill="#000000" fill-rule="nonzero" fill-opacity="1" /><path clip-path="url(#clip850)" d="M2196.49 252.794 L2196.49 251.237 L2212.03 227.497 Q2212.42 226.88 2213.04 226.905 Q2213.61 226.905 2213.73 227.127 Q2213.85 227.349 2213.85 228.214 L2213.85 251.237 L2218.92 251.237 L2218.92 252.794 L2213.85 252.794 L2213.85 257.191 Q2213.85 258.648 2214.45 259.118 Q2215.07 259.587 2217.68 259.587 L2218.75 259.587 L2218.75 261.143 Q2216.67 260.995 2211.88 260.995 Q2207.11 260.995 2205.04 261.143 L2205.04 259.587 L2206.1 259.587 Q2208.72 259.587 2209.33 259.142 Q2209.95 258.673 2209.95 257.191 L2209.95 252.794 L2196.49 252.794 M2197.92 251.237 L2210.25 251.237 L2210.25 232.364 L2197.92 251.237 Z" fill="#000000" fill-rule="nonzero" fill-opacity="1" /><path clip-path="url(#clip850)" d="M2223.27 273.297 Q2223.27 273.05 2223.91 272.433 Q2232.06 264.133 2232.06 248.495 Q2232.06 232.809 2224.23 224.879 Q2223.27 223.965 2223.27 223.693 Q2223.27 223.199 2223.76 223.199 Q2224.11 223.199 2225.32 224.212 Q2226.55 225.225 2228.4 227.547 Q2230.28 229.869 2231.67 232.71 Q2235 239.602 2235 248.495 Q2235 257.043 2231.81 263.935 Q2230.46 266.825 2228.55 269.246 Q2226.65 271.667 2225.39 272.729 Q2224.13 273.792 2223.76 273.792 Q2223.27 273.792 2223.27 273.297 Z" fill="#000000" fill-rule="nonzero" fill-opacity="1" /></svg>
