<?xml version="1.0" encoding="utf-8"?>
<svg xmlns="http://www.w3.org/2000/svg" xmlns:xlink="http://www.w3.org/1999/xlink" width="864" height="480" viewBox="0 0 3456 1920">
<defs>
  <clipPath id="clip700">
    <rect x="0" y="0" width="3456" height="1920"/>
  </clipPath>
</defs>
<path clip-path="url(#clip700)" d="M0 1920 L3456 1920 L3456 0 L0 0  Z" fill="#ffffff" fill-rule="evenodd" fill-opacity="1"/>
<defs>
  <clipPath id="clip701">
    <rect x="691" y="0" width="2420" height="1920"/>
  </clipPath>
</defs>
<path clip-path="url(#clip700)" d="M364.663 1676.83 L2791.44 1676.83 L2791.44 110.236 L364.663 110.236  Z" fill="#ffffff" fill-rule="evenodd" fill-opacity="1"/>
<defs>
  <clipPath id="clip702">
    <rect x="364" y="110" width="2428" height="1568"/>
  </clipPath>
</defs>
<polyline clip-path="url(#clip702)" style="stroke:#000000; stroke-linecap:round; stroke-linejoin:round; stroke-width:2.8; stroke-opacity:0.4; fill:none" points="603.066,1676.83 603.066,110.236 "/>
<polyline clip-path="url(#clip702)" style="stroke:#000000; stroke-linecap:round; stroke-linejoin:round; stroke-width:2.8; stroke-opacity:0.4; fill:none" points="1071.88,1676.83 1071.88,110.236 "/>
<polyline clip-path="url(#clip702)" style="stroke:#000000; stroke-linecap:round; stroke-linejoin:round; stroke-width:2.8; stroke-opacity:0.4; fill:none" points="1540.7,1676.83 1540.7,110.236 "/>
<polyline clip-path="url(#clip702)" style="stroke:#000000; stroke-linecap:round; stroke-linejoin:round; stroke-width:2.8; stroke-opacity:0.4; fill:none" points="2009.52,1676.83 2009.52,110.236 "/>
<polyline clip-path="url(#clip702)" style="stroke:#000000; stroke-linecap:round; stroke-linejoin:round; stroke-width:2.8; stroke-opacity:0.4; fill:none" points="2478.33,1676.83 2478.33,110.236 "/>
<polyline clip-path="url(#clip702)" style="stroke:#000000; stroke-linecap:round; stroke-linejoin:round; stroke-width:2; stroke-opacity:0.06; fill:none" points="444.961,1676.83 444.961,110.236 "/>
<polyline clip-path="url(#clip702)" style="stroke:#000000; stroke-linecap:round; stroke-linejoin:round; stroke-width:2; stroke-opacity:0.06; fill:none" points="512.2,1676.83 512.2,110.236 "/>
<polyline clip-path="url(#clip702)" style="stroke:#000000; stroke-linecap:round; stroke-linejoin:round; stroke-width:2; stroke-opacity:0.06; fill:none" points="562.661,1676.83 562.661,110.236 "/>
<polyline clip-path="url(#clip702)" style="stroke:#000000; stroke-linecap:round; stroke-linejoin:round; stroke-width:2; stroke-opacity:0.06; fill:none" points="812.701,1676.83 812.701,110.236 "/>
<polyline clip-path="url(#clip702)" style="stroke:#000000; stroke-linecap:round; stroke-linejoin:round; stroke-width:2; stroke-opacity:0.06; fill:none" points="913.778,1676.83 913.778,110.236 "/>
<polyline clip-path="url(#clip702)" style="stroke:#000000; stroke-linecap:round; stroke-linejoin:round; stroke-width:2; stroke-opacity:0.06; fill:none" points="981.017,1676.83 981.017,110.236 "/>
<polyline clip-path="url(#clip702)" style="stroke:#000000; stroke-linecap:round; stroke-linejoin:round; stroke-width:2; stroke-opacity:0.06; fill:none" points="1031.48,1676.83 1031.48,110.236 "/>
<polyline clip-path="url(#clip702)" style="stroke:#000000; stroke-linecap:round; stroke-linejoin:round; stroke-width:2; stroke-opacity:0.06; fill:none" points="1281.52,1676.83 1281.52,110.236 "/>
<polyline clip-path="url(#clip702)" style="stroke:#000000; stroke-linecap:round; stroke-linejoin:round; stroke-width:2; stroke-opacity:0.06; fill:none" points="1382.6,1676.83 1382.6,110.236 "/>
<polyline clip-path="url(#clip702)" style="stroke:#000000; stroke-linecap:round; stroke-linejoin:round; stroke-width:2; stroke-opacity:0.06; fill:none" points="1449.83,1676.83 1449.83,110.236 "/>
<polyline clip-path="url(#clip702)" style="stroke:#000000; stroke-linecap:round; stroke-linejoin:round; stroke-width:2; stroke-opacity:0.06; fill:none" points="1500.29,1676.83 1500.29,110.236 "/>
<polyline clip-path="url(#clip702)" style="stroke:#000000; stroke-linecap:round; stroke-linejoin:round; stroke-width:2; stroke-opacity:0.06; fill:none" points="1750.34,1676.83 1750.34,110.236 "/>
<polyline clip-path="url(#clip702)" style="stroke:#000000; stroke-linecap:round; stroke-linejoin:round; stroke-width:2; stroke-opacity:0.06; fill:none" points="1851.41,1676.83 1851.41,110.236 "/>
<polyline clip-path="url(#clip702)" style="stroke:#000000; stroke-linecap:round; stroke-linejoin:round; stroke-width:2; stroke-opacity:0.06; fill:none" points="1918.65,1676.83 1918.65,110.236 "/>
<polyline clip-path="url(#clip702)" style="stroke:#000000; stroke-linecap:round; stroke-linejoin:round; stroke-width:2; stroke-opacity:0.06; fill:none" points="1969.11,1676.83 1969.11,110.236 "/>
<polyline clip-path="url(#clip702)" style="stroke:#000000; stroke-linecap:round; stroke-linejoin:round; stroke-width:2; stroke-opacity:0.06; fill:none" points="2219.15,1676.83 2219.15,110.236 "/>
<polyline clip-path="url(#clip702)" style="stroke:#000000; stroke-linecap:round; stroke-linejoin:round; stroke-width:2; stroke-opacity:0.06; fill:none" points="2320.23,1676.83 2320.23,110.236 "/>
<polyline clip-path="url(#clip702)" style="stroke:#000000; stroke-linecap:round; stroke-linejoin:round; stroke-width:2; stroke-opacity:0.06; fill:none" points="2387.47,1676.83 2387.47,110.236 "/>
<polyline clip-path="url(#clip702)" style="stroke:#000000; stroke-linecap:round; stroke-linejoin:round; stroke-width:2; stroke-opacity:0.06; fill:none" points="2437.93,1676.83 2437.93,110.236 "/>
<polyline clip-path="url(#clip702)" style="stroke:#000000; stroke-linecap:round; stroke-linejoin:round; stroke-width:2; stroke-opacity:0.06; fill:none" points="2687.97,1676.83 2687.97,110.236 "/>
<polyline clip-path="url(#clip702)" style="stroke:#000000; stroke-linecap:round; stroke-linejoin:round; stroke-width:2; stroke-opacity:0.06; fill:none" points="2789.05,1676.83 2789.05,110.236 "/>
<polyline clip-path="url(#clip700)" style="stroke:#000000; stroke-linecap:round; stroke-linejoin:round; stroke-width:4; stroke-opacity:1; fill:none" points="364.663,1676.83 2791.44,1676.83 "/>
<polyline clip-path="url(#clip700)" style="stroke:#000000; stroke-linecap:round; stroke-linejoin:round; stroke-width:4; stroke-opacity:1; fill:none" points="364.663,110.236 2791.44,110.236 "/>
<polyline clip-path="url(#clip700)" style="stroke:#000000; stroke-linecap:round; stroke-linejoin:round; stroke-width:4; stroke-opacity:1; fill:none" points="603.066,1676.83 603.066,1657.93 "/>
<polyline clip-path="url(#clip700)" style="stroke:#000000; stroke-linecap:round; stroke-linejoin:round; stroke-width:4; stroke-opacity:1; fill:none" points="1071.88,1676.83 1071.88,1657.93 "/>
<polyline clip-path="url(#clip700)" style="stroke:#000000; stroke-linecap:round; stroke-linejoin:round; stroke-width:4; stroke-opacity:1; fill:none" points="1540.7,1676.83 1540.7,1657.93 "/>
<polyline clip-path="url(#clip700)" style="stroke:#000000; stroke-linecap:round; stroke-linejoin:round; stroke-width:4; stroke-opacity:1; fill:none" points="2009.52,1676.83 2009.52,1657.93 "/>
<polyline clip-path="url(#clip700)" style="stroke:#000000; stroke-linecap:round; stroke-linejoin:round; stroke-width:4; stroke-opacity:1; fill:none" points="2478.33,1676.83 2478.33,1657.93 "/>
<polyline clip-path="url(#clip700)" style="stroke:#000000; stroke-linecap:round; stroke-linejoin:round; stroke-width:4; stroke-opacity:1; fill:none" points="444.961,1676.83 444.961,1667.38 "/>
<polyline clip-path="url(#clip700)" style="stroke:#000000; stroke-linecap:round; stroke-linejoin:round; stroke-width:4; stroke-opacity:1; fill:none" points="512.2,1676.83 512.2,1667.38 "/>
<polyline clip-path="url(#clip700)" style="stroke:#000000; stroke-linecap:round; stroke-linejoin:round; stroke-width:4; stroke-opacity:1; fill:none" points="562.661,1676.83 562.661,1667.38 "/>
<polyline clip-path="url(#clip700)" style="stroke:#000000; stroke-linecap:round; stroke-linejoin:round; stroke-width:4; stroke-opacity:1; fill:none" points="812.701,1676.83 812.701,1667.38 "/>
<polyline clip-path="url(#clip700)" style="stroke:#000000; stroke-linecap:round; stroke-linejoin:round; stroke-width:4; stroke-opacity:1; fill:none" points="913.778,1676.83 913.778,1667.38 "/>
<polyline clip-path="url(#clip700)" style="stroke:#000000; stroke-linecap:round; stroke-linejoin:round; stroke-width:4; stroke-opacity:1; fill:none" points="981.017,1676.83 981.017,1667.38 "/>
<polyline clip-path="url(#clip700)" style="stroke:#000000; stroke-linecap:round; stroke-linejoin:round; stroke-width:4; stroke-opacity:1; fill:none" points="1031.48,1676.83 1031.48,1667.38 "/>
<polyline clip-path="url(#clip700)" style="stroke:#000000; stroke-linecap:round; stroke-linejoin:round; stroke-width:4; stroke-opacity:1; fill:none" points="1281.52,1676.83 1281.52,1667.38 "/>
<polyline clip-path="url(#clip700)" style="stroke:#000000; stroke-linecap:round; stroke-linejoin:round; stroke-width:4; stroke-opacity:1; fill:none" points="1382.6,1676.83 1382.6,1667.38 "/>
<polyline clip-path="url(#clip700)" style="stroke:#000000; stroke-linecap:round; stroke-linejoin:round; stroke-width:4; stroke-opacity:1; fill:none" points="1449.83,1676.83 1449.83,1667.38 "/>
<polyline clip-path="url(#clip700)" style="stroke:#000000; stroke-linecap:round; stroke-linejoin:round; stroke-width:4; stroke-opacity:1; fill:none" points="1500.29,1676.83 1500.29,1667.38 "/>
<polyline clip-path="url(#clip700)" style="stroke:#000000; stroke-linecap:round; stroke-linejoin:round; stroke-width:4; stroke-opacity:1; fill:none" points="1750.34,1676.83 1750.34,1667.38 "/>
<polyline clip-path="url(#clip700)" style="stroke:#000000; stroke-linecap:round; stroke-linejoin:round; stroke-width:4; stroke-opacity:1; fill:none" points="1851.41,1676.83 1851.41,1667.38 "/>
<polyline clip-path="url(#clip700)" style="stroke:#000000; stroke-linecap:round; stroke-linejoin:round; stroke-width:4; stroke-opacity:1; fill:none" points="1918.65,1676.83 1918.65,1667.38 "/>
<polyline clip-path="url(#clip700)" style="stroke:#000000; stroke-linecap:round; stroke-linejoin:round; stroke-width:4; stroke-opacity:1; fill:none" points="1969.11,1676.83 1969.11,1667.38 "/>
<polyline clip-path="url(#clip700)" style="stroke:#000000; stroke-linecap:round; stroke-linejoin:round; stroke-width:4; stroke-opacity:1; fill:none" points="2219.15,1676.83 2219.15,1667.38 "/>
<polyline clip-path="url(#clip700)" style="stroke:#000000; stroke-linecap:round; stroke-linejoin:round; stroke-width:4; stroke-opacity:1; fill:none" points="2320.23,1676.83 2320.23,1667.38 "/>
<polyline clip-path="url(#clip700)" style="stroke:#000000; stroke-linecap:round; stroke-linejoin:round; stroke-width:4; stroke-opacity:1; fill:none" points="2387.47,1676.83 2387.47,1667.38 "/>
<polyline clip-path="url(#clip700)" style="stroke:#000000; stroke-linecap:round; stroke-linejoin:round; stroke-width:4; stroke-opacity:1; fill:none" points="2437.93,1676.83 2437.93,1667.38 "/>
<polyline clip-path="url(#clip700)" style="stroke:#000000; stroke-linecap:round; stroke-linejoin:round; stroke-width:4; stroke-opacity:1; fill:none" points="2687.97,1676.83 2687.97,1667.38 "/>
<polyline clip-path="url(#clip700)" style="stroke:#000000; stroke-linecap:round; stroke-linejoin:round; stroke-width:4; stroke-opacity:1; fill:none" points="2789.05,1676.83 2789.05,1667.38 "/>
<path clip-path="url(#clip700)" d="M546.528 1734.46 L546.528 1732.88 Q552.605 1732.88 555.742 1729.64 Q556.607 1729.64 556.755 1729.84 Q556.903 1730.04 556.903 1730.95 L556.903 1759.34 Q556.903 1760.84 557.644 1761.31 Q558.385 1761.78 561.622 1761.78 L563.227 1761.78 L563.227 1763.34 Q561.449 1763.19 555.026 1763.19 Q548.603 1763.19 546.849 1763.34 L546.849 1761.78 L548.455 1761.78 Q551.641 1761.78 552.407 1761.34 Q553.173 1760.87 553.173 1759.34 L553.173 1733.13 Q550.53 1734.46 546.528 1734.46 Z" fill="#000000" fill-rule="nonzero" fill-opacity="1" /><path clip-path="url(#clip700)" d="M569.304 1747.16 Q569.304 1739.72 571.182 1735.67 Q573.8 1729.64 579.976 1729.64 Q581.285 1729.64 582.644 1730.01 Q584.028 1730.36 585.757 1731.72 Q587.511 1733.08 588.573 1735.3 Q590.599 1739.6 590.599 1747.16 Q590.599 1754.55 588.721 1758.57 Q585.979 1764.45 579.927 1764.45 Q577.654 1764.45 575.332 1763.29 Q573.035 1762.13 571.577 1759.34 Q569.304 1755.16 569.304 1747.16 M573.504 1746.54 Q573.504 1754.17 574.047 1757.21 Q574.665 1760.5 576.345 1761.93 Q578.049 1763.34 579.927 1763.34 Q581.952 1763.34 583.632 1761.83 Q585.337 1760.3 585.856 1757.02 Q586.424 1753.78 586.399 1746.54 Q586.399 1739.5 585.905 1736.68 Q585.238 1733.4 583.459 1732.09 Q581.705 1730.76 579.927 1730.76 Q579.26 1730.76 578.543 1730.95 Q577.852 1731.15 576.839 1731.72 Q575.826 1732.29 575.036 1733.7 Q574.27 1735.1 573.899 1737.23 Q573.504 1739.97 573.504 1746.54 Z" fill="#000000" fill-rule="nonzero" fill-opacity="1" /><path clip-path="url(#clip700)" d="M617.735 1725.07 Q617.976 1725.31 617.976 1725.65 Q617.976 1725.99 617.735 1726.23 Q617.494 1726.48 617.153 1726.48 L591.422 1726.48 Q591.08 1726.48 590.839 1726.23 Q590.599 1725.99 590.599 1725.65 Q590.599 1725.31 590.839 1725.07 Q591.08 1724.83 591.422 1724.83 L617.153 1724.83 Q617.494 1724.83 617.735 1725.07 Z" fill="#000000" fill-rule="nonzero" fill-opacity="1" /><path clip-path="url(#clip700)" d="M623.917 1712.47 L623.917 1711.18 Q628.855 1711.18 631.404 1708.55 Q632.106 1708.55 632.227 1708.71 Q632.347 1708.87 632.347 1709.62 L632.347 1732.68 Q632.347 1733.9 632.949 1734.28 Q633.552 1734.66 636.181 1734.66 L637.486 1734.66 L637.486 1735.93 Q636.04 1735.81 630.822 1735.81 Q625.603 1735.81 624.178 1735.93 L624.178 1734.66 L625.483 1734.66 Q628.072 1734.66 628.694 1734.3 Q629.317 1733.92 629.317 1732.68 L629.317 1711.38 Q627.169 1712.47 623.917 1712.47 Z" fill="#000000" fill-rule="nonzero" fill-opacity="1" /><path clip-path="url(#clip700)" d="M642.544 1730.39 Q642.544 1729.17 643.246 1728.58 Q643.949 1728 644.852 1728 Q645.795 1728 646.458 1728.62 Q647.14 1729.23 647.14 1730.29 Q647.14 1731.43 646.337 1732.08 Q645.554 1732.72 644.43 1732.56 Q645.414 1734.2 647.22 1734.95 Q649.047 1735.69 650.733 1735.69 Q652.499 1735.69 653.924 1734.16 Q655.369 1732.64 655.369 1728.9 Q655.369 1725.73 654.125 1723.91 Q652.901 1722.08 650.472 1722.08 L648.665 1722.08 Q648.043 1722.08 647.863 1722.02 Q647.682 1721.96 647.682 1721.62 Q647.682 1721.22 648.304 1721.14 Q648.926 1721.14 649.91 1721.02 Q652.298 1720.94 653.563 1718.87 Q654.707 1716.94 654.707 1714.19 Q654.707 1711.68 653.503 1710.64 Q652.318 1709.58 650.773 1709.58 Q649.328 1709.58 647.742 1710.18 Q646.156 1710.78 645.293 1712.12 Q647.842 1712.12 647.842 1714.19 Q647.842 1715.1 647.26 1715.7 Q646.698 1716.28 645.755 1716.28 Q644.852 1716.28 644.25 1715.72 Q643.648 1715.14 643.648 1714.15 Q643.648 1711.8 645.735 1710.18 Q647.842 1708.55 650.934 1708.55 Q653.984 1708.55 656.232 1710.16 Q658.5 1711.76 658.5 1714.23 Q658.5 1716.66 656.895 1718.65 Q655.289 1720.63 652.74 1721.46 Q655.871 1722.08 657.738 1724.21 Q659.604 1726.32 659.604 1728.9 Q659.604 1732.12 657.075 1734.48 Q654.546 1736.83 650.853 1736.83 Q647.441 1736.83 644.992 1734.99 Q642.544 1733.14 642.544 1730.39 Z" fill="#000000" fill-rule="nonzero" fill-opacity="1" /><path clip-path="url(#clip700)" d="M1015.51 1734.46 L1015.51 1732.88 Q1021.58 1732.88 1024.72 1729.64 Q1025.58 1729.64 1025.73 1729.84 Q1025.88 1730.04 1025.88 1730.95 L1025.88 1759.34 Q1025.88 1760.84 1026.62 1761.31 Q1027.36 1761.78 1030.6 1761.78 L1032.2 1761.78 L1032.2 1763.34 Q1030.43 1763.19 1024 1763.19 Q1017.58 1763.19 1015.83 1763.34 L1015.83 1761.78 L1017.43 1761.78 Q1020.62 1761.78 1021.38 1761.34 Q1022.15 1760.87 1022.15 1759.34 L1022.15 1733.13 Q1019.51 1734.46 1015.51 1734.46 Z" fill="#000000" fill-rule="nonzero" fill-opacity="1" /><path clip-path="url(#clip700)" d="M1038.28 1747.16 Q1038.28 1739.72 1040.16 1735.67 Q1042.78 1729.64 1048.95 1729.64 Q1050.26 1729.64 1051.62 1730.01 Q1053.01 1730.36 1054.73 1731.72 Q1056.49 1733.08 1057.55 1735.3 Q1059.58 1739.6 1059.58 1747.16 Q1059.58 1754.55 1057.7 1758.57 Q1054.96 1764.45 1048.9 1764.45 Q1046.63 1764.45 1044.31 1763.29 Q1042.01 1762.13 1040.55 1759.34 Q1038.28 1755.16 1038.28 1747.16 M1042.48 1746.54 Q1042.48 1754.17 1043.02 1757.21 Q1043.64 1760.5 1045.32 1761.93 Q1047.03 1763.34 1048.9 1763.34 Q1050.93 1763.34 1052.61 1761.83 Q1054.31 1760.3 1054.83 1757.02 Q1055.4 1753.78 1055.38 1746.54 Q1055.38 1739.5 1054.88 1736.68 Q1054.22 1733.4 1052.44 1732.09 Q1050.68 1730.76 1048.9 1730.76 Q1048.24 1730.76 1047.52 1730.95 Q1046.83 1731.15 1045.82 1731.72 Q1044.8 1732.29 1044.01 1733.7 Q1043.25 1735.1 1042.88 1737.23 Q1042.48 1739.97 1042.48 1746.54 Z" fill="#000000" fill-rule="nonzero" fill-opacity="1" /><path clip-path="url(#clip700)" d="M1086.71 1725.07 Q1086.95 1725.31 1086.95 1725.65 Q1086.95 1725.99 1086.71 1726.23 Q1086.47 1726.48 1086.13 1726.48 L1060.4 1726.48 Q1060.06 1726.48 1059.82 1726.23 Q1059.58 1725.99 1059.58 1725.65 Q1059.58 1725.31 1059.82 1725.07 Q1060.06 1724.83 1060.4 1724.83 L1086.13 1724.83 Q1086.47 1724.83 1086.71 1725.07 Z" fill="#000000" fill-rule="nonzero" fill-opacity="1" /><path clip-path="url(#clip700)" d="M1092.89 1712.47 L1092.89 1711.18 Q1097.83 1711.18 1100.38 1708.55 Q1101.08 1708.55 1101.2 1708.71 Q1101.32 1708.87 1101.32 1709.62 L1101.32 1732.68 Q1101.32 1733.9 1101.93 1734.28 Q1102.53 1734.66 1105.16 1734.66 L1106.46 1734.66 L1106.46 1735.93 Q1105.02 1735.81 1099.8 1735.81 Q1094.58 1735.81 1093.16 1735.93 L1093.16 1734.66 L1094.46 1734.66 Q1097.05 1734.66 1097.67 1734.3 Q1098.29 1733.92 1098.29 1732.68 L1098.29 1711.38 Q1096.15 1712.47 1092.89 1712.47 Z" fill="#000000" fill-rule="nonzero" fill-opacity="1" /><path clip-path="url(#clip700)" d="M1111.84 1735.93 Q1111.84 1735.19 1111.9 1734.97 Q1111.98 1734.75 1112.3 1734.4 L1120.19 1725.61 Q1124.51 1720.76 1124.51 1716.52 Q1124.51 1713.77 1123.06 1711.8 Q1121.64 1709.84 1119.01 1709.84 Q1117.2 1709.84 1115.68 1710.94 Q1114.15 1712.04 1113.45 1714.01 Q1113.57 1713.97 1113.99 1713.97 Q1115.01 1713.97 1115.58 1714.61 Q1116.16 1715.26 1116.16 1716.12 Q1116.16 1717.22 1115.44 1717.76 Q1114.73 1718.29 1114.03 1718.29 Q1113.75 1718.29 1113.37 1718.23 Q1113.01 1718.17 1112.42 1717.6 Q1111.84 1717.02 1111.84 1716 Q1111.84 1713.13 1114.01 1710.84 Q1116.2 1708.55 1119.53 1708.55 Q1123.3 1708.55 1125.77 1710.8 Q1128.26 1713.03 1128.26 1716.52 Q1128.26 1717.74 1127.88 1718.87 Q1127.52 1719.97 1127.02 1720.84 Q1126.53 1721.7 1125.21 1723.08 Q1123.89 1724.47 1122.82 1725.45 Q1121.76 1726.44 1119.37 1728.52 L1115.01 1732.76 L1122.42 1732.76 Q1126.03 1732.76 1126.31 1732.44 Q1126.72 1731.85 1127.22 1728.78 L1128.26 1728.78 L1127.1 1735.93 L1111.84 1735.93 Z" fill="#000000" fill-rule="nonzero" fill-opacity="1" /><path clip-path="url(#clip700)" d="M1484.94 1734.46 L1484.94 1732.88 Q1491.02 1732.88 1494.16 1729.64 Q1495.02 1729.64 1495.17 1729.84 Q1495.32 1730.04 1495.32 1730.95 L1495.32 1759.34 Q1495.32 1760.84 1496.06 1761.31 Q1496.8 1761.78 1500.04 1761.78 L1501.64 1761.78 L1501.64 1763.34 Q1499.87 1763.19 1493.44 1763.19 Q1487.02 1763.19 1485.27 1763.34 L1485.27 1761.78 L1486.87 1761.78 Q1490.06 1761.78 1490.82 1761.34 Q1491.59 1760.87 1491.59 1759.34 L1491.59 1733.13 Q1488.95 1734.46 1484.94 1734.46 Z" fill="#000000" fill-rule="nonzero" fill-opacity="1" /><path clip-path="url(#clip700)" d="M1507.72 1747.16 Q1507.72 1739.72 1509.6 1735.67 Q1512.22 1729.64 1518.39 1729.64 Q1519.7 1729.64 1521.06 1730.01 Q1522.44 1730.36 1524.17 1731.72 Q1525.93 1733.08 1526.99 1735.3 Q1529.02 1739.6 1529.02 1747.16 Q1529.02 1754.55 1527.14 1758.57 Q1524.4 1764.45 1518.34 1764.45 Q1516.07 1764.45 1513.75 1763.29 Q1511.45 1762.13 1509.99 1759.34 Q1507.72 1755.16 1507.72 1747.16 M1511.92 1746.54 Q1511.92 1754.17 1512.46 1757.21 Q1513.08 1760.5 1514.76 1761.93 Q1516.47 1763.34 1518.34 1763.34 Q1520.37 1763.34 1522.05 1761.83 Q1523.75 1760.3 1524.27 1757.02 Q1524.84 1753.78 1524.82 1746.54 Q1524.82 1739.5 1524.32 1736.68 Q1523.65 1733.4 1521.88 1732.09 Q1520.12 1730.76 1518.34 1730.76 Q1517.68 1730.76 1516.96 1730.95 Q1516.27 1731.15 1515.26 1731.72 Q1514.24 1732.29 1513.45 1733.7 Q1512.69 1735.1 1512.32 1737.23 Q1511.92 1739.97 1511.92 1746.54 Z" fill="#000000" fill-rule="nonzero" fill-opacity="1" /><path clip-path="url(#clip700)" d="M1556.15 1725.07 Q1556.39 1725.31 1556.39 1725.65 Q1556.39 1725.99 1556.15 1726.23 Q1555.91 1726.48 1555.57 1726.48 L1529.84 1726.48 Q1529.5 1726.48 1529.26 1726.23 Q1529.02 1725.99 1529.02 1725.65 Q1529.02 1725.31 1529.26 1725.07 Q1529.5 1724.83 1529.84 1724.83 L1555.57 1724.83 Q1555.91 1724.83 1556.15 1725.07 Z" fill="#000000" fill-rule="nonzero" fill-opacity="1" /><path clip-path="url(#clip700)" d="M1562.33 1712.47 L1562.33 1711.18 Q1567.27 1711.18 1569.82 1708.55 Q1570.52 1708.55 1570.64 1708.71 Q1570.76 1708.87 1570.76 1709.62 L1570.76 1732.68 Q1570.76 1733.9 1571.37 1734.28 Q1571.97 1734.66 1574.6 1734.66 L1575.9 1734.66 L1575.9 1735.93 Q1574.46 1735.81 1569.24 1735.81 Q1564.02 1735.81 1562.59 1735.93 L1562.59 1734.66 L1563.9 1734.66 Q1566.49 1734.66 1567.11 1734.3 Q1567.73 1733.92 1567.73 1732.68 L1567.73 1711.38 Q1565.59 1712.47 1562.33 1712.47 Z" fill="#000000" fill-rule="nonzero" fill-opacity="1" /><path clip-path="url(#clip700)" d="M1582.89 1712.47 L1582.89 1711.18 Q1587.82 1711.18 1590.37 1708.55 Q1591.08 1708.55 1591.2 1708.71 Q1591.32 1708.87 1591.32 1709.62 L1591.32 1732.68 Q1591.32 1733.9 1591.92 1734.28 Q1592.52 1734.66 1595.15 1734.66 L1596.46 1734.66 L1596.46 1735.93 Q1595.01 1735.81 1589.79 1735.81 Q1584.57 1735.81 1583.15 1735.93 L1583.15 1734.66 L1584.45 1734.66 Q1587.04 1734.66 1587.66 1734.3 Q1588.29 1733.92 1588.29 1732.68 L1588.29 1711.38 Q1586.14 1712.47 1582.89 1712.47 Z" fill="#000000" fill-rule="nonzero" fill-opacity="1" /><path clip-path="url(#clip700)" d="M1952.92 1734.46 L1952.92 1732.88 Q1959 1732.88 1962.13 1729.64 Q1963 1729.64 1963.15 1729.84 Q1963.29 1730.04 1963.29 1730.95 L1963.29 1759.34 Q1963.29 1760.84 1964.03 1761.31 Q1964.78 1761.78 1968.01 1761.78 L1969.62 1761.78 L1969.62 1763.34 Q1967.84 1763.19 1961.42 1763.19 Q1954.99 1763.19 1953.24 1763.34 L1953.24 1761.78 L1954.85 1761.78 Q1958.03 1761.78 1958.8 1761.34 Q1959.56 1760.87 1959.56 1759.34 L1959.56 1733.13 Q1956.92 1734.46 1952.92 1734.46 Z" fill="#000000" fill-rule="nonzero" fill-opacity="1" /><path clip-path="url(#clip700)" d="M1975.69 1747.16 Q1975.69 1739.72 1977.57 1735.67 Q1980.19 1729.64 1986.37 1729.64 Q1987.68 1729.64 1989.03 1730.01 Q1990.42 1730.36 1992.15 1731.72 Q1993.9 1733.08 1994.96 1735.3 Q1996.99 1739.6 1996.99 1747.16 Q1996.99 1754.55 1995.11 1758.57 Q1992.37 1764.45 1986.32 1764.45 Q1984.04 1764.45 1981.72 1763.29 Q1979.43 1762.13 1977.97 1759.34 Q1975.69 1755.16 1975.69 1747.16 M1979.89 1746.54 Q1979.89 1754.17 1980.44 1757.21 Q1981.06 1760.5 1982.74 1761.93 Q1984.44 1763.34 1986.32 1763.34 Q1988.34 1763.34 1990.02 1761.83 Q1991.73 1760.3 1992.25 1757.02 Q1992.81 1753.78 1992.79 1746.54 Q1992.79 1739.5 1992.3 1736.68 Q1991.63 1733.4 1989.85 1732.09 Q1988.1 1730.76 1986.32 1730.76 Q1985.65 1730.76 1984.93 1730.95 Q1984.24 1731.15 1983.23 1731.72 Q1982.22 1732.29 1981.43 1733.7 Q1980.66 1735.1 1980.29 1737.23 Q1979.89 1739.97 1979.89 1746.54 Z" fill="#000000" fill-rule="nonzero" fill-opacity="1" /><path clip-path="url(#clip700)" d="M2024.13 1725.07 Q2024.37 1725.31 2024.37 1725.65 Q2024.37 1725.99 2024.13 1726.23 Q2023.88 1726.48 2023.54 1726.48 L1997.81 1726.48 Q1997.47 1726.48 1997.23 1726.23 Q1996.99 1725.99 1996.99 1725.65 Q1996.99 1725.31 1997.23 1725.07 Q1997.47 1724.83 1997.81 1724.83 L2023.54 1724.83 Q2023.88 1724.83 2024.13 1725.07 Z" fill="#000000" fill-rule="nonzero" fill-opacity="1" /><path clip-path="url(#clip700)" d="M2030.31 1712.47 L2030.31 1711.18 Q2035.25 1711.18 2037.79 1708.55 Q2038.5 1708.55 2038.62 1708.71 Q2038.74 1708.87 2038.74 1709.62 L2038.74 1732.68 Q2038.74 1733.9 2039.34 1734.28 Q2039.94 1734.66 2042.57 1734.66 L2043.88 1734.66 L2043.88 1735.93 Q2042.43 1735.81 2037.21 1735.81 Q2031.99 1735.81 2030.57 1735.93 L2030.57 1734.66 L2031.87 1734.66 Q2034.46 1734.66 2035.08 1734.3 Q2035.71 1733.92 2035.71 1732.68 L2035.71 1711.38 Q2033.56 1712.47 2030.31 1712.47 Z" fill="#000000" fill-rule="nonzero" fill-opacity="1" /><path clip-path="url(#clip700)" d="M2048.81 1722.78 Q2048.81 1716.74 2050.34 1713.45 Q2052.47 1708.55 2057.48 1708.55 Q2058.55 1708.55 2059.65 1708.85 Q2060.78 1709.13 2062.18 1710.24 Q2063.61 1711.34 2064.47 1713.15 Q2066.12 1716.64 2066.12 1722.78 Q2066.12 1728.78 2064.59 1732.06 Q2062.36 1736.83 2057.44 1736.83 Q2055.6 1736.83 2053.71 1735.89 Q2051.84 1734.95 2050.66 1732.68 Q2048.81 1729.29 2048.81 1722.78 M2052.23 1722.28 Q2052.23 1728.48 2052.67 1730.95 Q2053.17 1733.62 2054.53 1734.79 Q2055.92 1735.93 2057.44 1735.93 Q2059.09 1735.93 2060.46 1734.7 Q2061.84 1733.46 2062.26 1730.79 Q2062.72 1728.16 2062.7 1722.28 Q2062.7 1716.56 2062.3 1714.27 Q2061.76 1711.6 2060.31 1710.54 Q2058.89 1709.46 2057.44 1709.46 Q2056.9 1709.46 2056.32 1709.62 Q2055.76 1709.78 2054.94 1710.24 Q2054.11 1710.7 2053.47 1711.84 Q2052.85 1712.99 2052.55 1714.71 Q2052.23 1716.94 2052.23 1722.28 Z" fill="#000000" fill-rule="nonzero" fill-opacity="1" /><path clip-path="url(#clip700)" d="M2432.07 1734.46 L2432.07 1732.88 Q2438.15 1732.88 2441.29 1729.64 Q2442.15 1729.64 2442.3 1729.84 Q2442.45 1730.04 2442.45 1730.95 L2442.45 1759.34 Q2442.45 1760.84 2443.19 1761.31 Q2443.93 1761.78 2447.17 1761.78 L2448.77 1761.78 L2448.77 1763.34 Q2446.99 1763.19 2440.57 1763.19 Q2434.15 1763.19 2432.39 1763.34 L2432.39 1761.78 L2434 1761.78 Q2437.19 1761.78 2437.95 1761.34 Q2438.72 1760.87 2438.72 1759.34 L2438.72 1733.13 Q2436.07 1734.46 2432.07 1734.46 Z" fill="#000000" fill-rule="nonzero" fill-opacity="1" /><path clip-path="url(#clip700)" d="M2454.85 1747.16 Q2454.85 1739.72 2456.73 1735.67 Q2459.34 1729.64 2465.52 1729.64 Q2466.83 1729.64 2468.19 1730.01 Q2469.57 1730.36 2471.3 1731.72 Q2473.05 1733.08 2474.12 1735.3 Q2476.14 1739.6 2476.14 1747.16 Q2476.14 1754.55 2474.27 1758.57 Q2471.52 1764.45 2465.47 1764.45 Q2463.2 1764.45 2460.88 1763.29 Q2458.58 1762.13 2457.12 1759.34 Q2454.85 1755.16 2454.85 1747.16 M2459.05 1746.54 Q2459.05 1754.17 2459.59 1757.21 Q2460.21 1760.5 2461.89 1761.93 Q2463.59 1763.34 2465.47 1763.34 Q2467.5 1763.34 2469.18 1761.83 Q2470.88 1760.3 2471.4 1757.02 Q2471.97 1753.78 2471.94 1746.54 Q2471.94 1739.5 2471.45 1736.68 Q2470.78 1733.4 2469 1732.09 Q2467.25 1730.76 2465.47 1730.76 Q2464.8 1730.76 2464.09 1730.95 Q2463.4 1731.15 2462.38 1731.72 Q2461.37 1732.29 2460.58 1733.7 Q2459.81 1735.1 2459.44 1737.23 Q2459.05 1739.97 2459.05 1746.54 Z" fill="#000000" fill-rule="nonzero" fill-opacity="1" /><path clip-path="url(#clip700)" d="M2503.28 1725.07 Q2503.52 1725.31 2503.52 1725.65 Q2503.52 1725.99 2503.28 1726.23 Q2503.04 1726.48 2502.7 1726.48 L2476.97 1726.48 Q2476.62 1726.48 2476.38 1726.23 Q2476.14 1725.99 2476.14 1725.65 Q2476.14 1725.31 2476.38 1725.07 Q2476.62 1724.83 2476.97 1724.83 L2502.7 1724.83 Q2503.04 1724.83 2503.28 1725.07 Z" fill="#000000" fill-rule="nonzero" fill-opacity="1" /><path clip-path="url(#clip700)" d="M2507.53 1717.8 Q2507.53 1715.62 2508.18 1714.13 Q2508.82 1712.63 2510.16 1711.14 Q2512.63 1708.55 2516.21 1708.55 Q2517.73 1708.55 2519.08 1709.19 Q2520.44 1709.84 2521.73 1711.3 Q2523.03 1712.75 2523.81 1715.62 Q2524.6 1718.47 2524.6 1722.4 Q2524.6 1728.76 2521.5 1732.8 Q2518.43 1736.83 2514.28 1736.83 Q2511.65 1736.83 2510.1 1735.65 Q2508.56 1734.44 2508.56 1732.4 Q2508.56 1731.33 2509.16 1730.89 Q2509.76 1730.43 2510.44 1730.43 Q2511.19 1730.43 2511.77 1730.93 Q2512.35 1731.41 2512.35 1732.32 Q2512.35 1733.06 2511.87 1733.64 Q2511.41 1734.2 2510.2 1734.2 Q2511.39 1735.69 2514.24 1735.69 Q2515.26 1735.69 2516.29 1735.23 Q2517.31 1734.75 2518.41 1733.6 Q2519.54 1732.44 2520.22 1730.01 Q2520.9 1727.58 2520.9 1724.17 L2520.9 1722.86 Q2519.26 1726.98 2515.76 1726.98 Q2512.31 1726.98 2509.92 1724.33 Q2507.53 1721.68 2507.53 1717.8 M2511.23 1717.84 Q2511.23 1721.92 2511.97 1723.42 Q2513.23 1726.01 2515.8 1726.01 Q2518.31 1726.01 2519.56 1723.79 Q2520.82 1721.54 2520.82 1718.63 Q2520.82 1714.59 2520.16 1712.83 Q2518.94 1709.58 2516.21 1709.58 Q2513.5 1709.58 2512.09 1712.16 Q2511.23 1713.69 2511.23 1717.84 Z" fill="#000000" fill-rule="nonzero" fill-opacity="1" /><path clip-path="url(#clip700)" d="M1379.2 1861.14 L1379.2 1858.81 L1381.01 1858.81 Q1385.13 1858.81 1386.05 1858.14 Q1387.02 1857.44 1387.02 1855.22 L1387.02 1815.46 Q1387.02 1813.27 1386.05 1812.6 Q1385.09 1811.9 1381.01 1811.9 L1379.2 1811.9 L1379.2 1809.53 L1421.92 1809.53 L1424.03 1826.61 L1422.14 1826.61 Q1421.62 1822.27 1420.92 1819.79 Q1420.25 1817.27 1418.59 1815.34 Q1416.96 1813.42 1414.25 1812.68 Q1411.58 1811.9 1407.25 1811.9 L1397.46 1811.9 Q1394.87 1811.9 1394.32 1812.45 Q1393.76 1812.97 1393.76 1814.94 L1393.76 1833.13 L1400.58 1833.13 Q1405.8 1833.13 1407.28 1831.32 Q1408.77 1829.5 1408.77 1824.27 L1410.69 1824.27 L1410.69 1844.36 L1408.77 1844.36 Q1408.77 1839.21 1407.28 1837.36 Q1405.8 1835.5 1400.58 1835.5 L1393.76 1835.5 L1393.76 1855.77 Q1393.76 1857.74 1394.32 1858.29 Q1394.91 1858.81 1397.46 1858.81 L1407.58 1858.81 Q1410.84 1858.81 1413.21 1858.4 Q1415.62 1857.96 1417.29 1856.92 Q1418.96 1855.85 1420.07 1854.62 Q1421.22 1853.4 1422 1851.21 Q1422.81 1848.99 1423.26 1846.95 Q1423.74 1844.91 1424.26 1841.58 L1426.15 1841.58 L1422.96 1861.14 L1379.2 1861.14 Z" fill="#000000" fill-rule="nonzero" fill-opacity="1" /><path clip-path="url(#clip700)" d="M1430.37 1861.14 L1430.37 1858.81 Q1434.41 1858.81 1435.34 1858.33 Q1436.3 1857.81 1436.3 1855.36 L1436.3 1835.02 Q1436.3 1832.2 1435.3 1831.5 Q1434.33 1830.8 1430.37 1830.8 L1430.37 1828.42 L1440.93 1827.61 L1440.93 1835.95 Q1442.01 1832.69 1444.27 1830.17 Q1446.56 1827.61 1450.27 1827.61 Q1452.71 1827.61 1454.27 1828.98 Q1455.86 1830.35 1455.86 1832.24 Q1455.86 1833.91 1454.83 1834.76 Q1453.83 1835.58 1452.6 1835.58 Q1451.23 1835.58 1450.27 1834.72 Q1449.34 1833.83 1449.34 1832.32 Q1449.34 1831.39 1449.75 1830.69 Q1450.19 1829.94 1450.53 1829.68 Q1450.86 1829.43 1451.08 1829.35 Q1450.94 1829.28 1450.27 1829.28 Q1446.08 1829.28 1443.67 1833.46 Q1441.3 1837.61 1441.3 1843.54 L1441.3 1855.22 Q1441.3 1857.4 1442.19 1858.11 Q1443.12 1858.81 1447.08 1858.81 L1448.67 1858.81 L1448.67 1861.14 Q1445.64 1860.92 1439.04 1860.92 Q1438.11 1860.92 1436.67 1860.96 Q1435.22 1861 1433.33 1861.07 Q1431.44 1861.14 1430.37 1861.14 Z" fill="#000000" fill-rule="nonzero" fill-opacity="1" /><path clip-path="url(#clip700)" d="M1460.01 1861.14 L1460.01 1858.81 Q1464.05 1858.81 1464.98 1858.33 Q1465.94 1857.81 1465.94 1855.36 L1465.94 1835.02 Q1465.94 1832.2 1464.94 1831.5 Q1463.98 1830.8 1460.01 1830.8 L1460.01 1828.42 L1470.57 1827.61 L1470.57 1835.95 Q1471.65 1832.69 1473.91 1830.17 Q1476.21 1827.61 1479.91 1827.61 Q1482.36 1827.61 1483.91 1828.98 Q1485.51 1830.35 1485.51 1832.24 Q1485.51 1833.91 1484.47 1834.76 Q1483.47 1835.58 1482.25 1835.58 Q1480.88 1835.58 1479.91 1834.72 Q1478.99 1833.83 1478.99 1832.32 Q1478.99 1831.39 1479.39 1830.69 Q1479.84 1829.94 1480.17 1829.68 Q1480.51 1829.43 1480.73 1829.35 Q1480.58 1829.28 1479.91 1829.28 Q1475.73 1829.28 1473.32 1833.46 Q1470.94 1837.61 1470.94 1843.54 L1470.94 1855.22 Q1470.94 1857.4 1471.83 1858.11 Q1472.76 1858.81 1476.73 1858.81 L1478.32 1858.81 L1478.32 1861.14 Q1475.28 1860.92 1468.68 1860.92 Q1467.76 1860.92 1466.31 1860.96 Q1464.87 1861 1462.98 1861.07 Q1461.09 1861.14 1460.01 1861.14 Z" fill="#000000" fill-rule="nonzero" fill-opacity="1" /><path clip-path="url(#clip700)" d="M1494.66 1857.07 Q1489.66 1852.1 1489.66 1844.91 Q1489.66 1837.69 1494.55 1832.43 Q1499.48 1827.13 1506.52 1827.13 Q1513.41 1827.13 1518.34 1832.39 Q1523.3 1837.61 1523.3 1844.91 Q1523.3 1852.07 1518.3 1857.03 Q1513.34 1862 1506.44 1862 Q1499.7 1862 1494.66 1857.07 M1495.96 1844.28 Q1495.96 1851.66 1497.88 1854.99 Q1500.85 1860.07 1506.52 1860.07 Q1509.33 1860.07 1511.67 1858.55 Q1514.04 1857.03 1515.34 1854.47 Q1517 1851.14 1517 1844.28 Q1517 1836.98 1515 1833.76 Q1512.04 1828.83 1506.44 1828.83 Q1504 1828.83 1501.59 1830.13 Q1499.22 1831.39 1497.77 1833.91 Q1495.96 1837.24 1495.96 1844.28 Z" fill="#000000" fill-rule="nonzero" fill-opacity="1" /><path clip-path="url(#clip700)" d="M1527.6 1861.14 L1527.6 1858.81 Q1531.64 1858.81 1532.57 1858.33 Q1533.53 1857.81 1533.53 1855.36 L1533.53 1835.02 Q1533.53 1832.2 1532.53 1831.5 Q1531.57 1830.8 1527.6 1830.8 L1527.6 1828.42 L1538.16 1827.61 L1538.16 1835.95 Q1539.24 1832.69 1541.5 1830.17 Q1543.8 1827.61 1547.5 1827.61 Q1549.95 1827.61 1551.5 1828.98 Q1553.1 1830.35 1553.1 1832.24 Q1553.1 1833.91 1552.06 1834.76 Q1551.06 1835.58 1549.84 1835.58 Q1548.46 1835.58 1547.5 1834.72 Q1546.57 1833.83 1546.57 1832.32 Q1546.57 1831.39 1546.98 1830.69 Q1547.43 1829.94 1547.76 1829.68 Q1548.09 1829.43 1548.32 1829.35 Q1548.17 1829.28 1547.5 1829.28 Q1543.31 1829.28 1540.9 1833.46 Q1538.53 1837.61 1538.53 1843.54 L1538.53 1855.22 Q1538.53 1857.4 1539.42 1858.11 Q1540.35 1858.81 1544.31 1858.81 L1545.91 1858.81 L1545.91 1861.14 Q1542.87 1860.92 1536.27 1860.92 Q1535.35 1860.92 1533.9 1860.96 Q1532.46 1861 1530.57 1861.07 Q1528.68 1861.14 1527.6 1861.14 Z" fill="#000000" fill-rule="nonzero" fill-opacity="1" /><path clip-path="url(#clip700)" d="M1587.89 1842.17 Q1587.89 1829.35 1592.67 1819.01 Q1594.71 1814.68 1597.56 1811.05 Q1600.42 1807.41 1602.31 1805.82 Q1604.19 1804.23 1604.71 1804.23 Q1605.45 1804.23 1605.49 1804.97 Q1605.49 1805.34 1604.49 1806.27 Q1592.26 1818.72 1592.3 1842.17 Q1592.3 1865.7 1604.19 1877.67 Q1605.49 1878.97 1605.49 1879.38 Q1605.49 1880.12 1604.71 1880.12 Q1604.19 1880.12 1602.38 1878.6 Q1600.56 1877.08 1597.75 1873.6 Q1594.93 1870.11 1592.89 1865.85 Q1587.89 1855.51 1587.89 1842.17 Z" fill="#000000" fill-rule="nonzero" fill-opacity="1" /><path clip-path="url(#clip700)" d="M1612.31 1830.8 L1612.31 1828.42 L1618.28 1828.42 L1618.28 1819.72 Q1618.28 1814.08 1621.91 1810.86 Q1625.58 1807.64 1630.06 1807.64 Q1633.02 1807.64 1634.95 1809.23 Q1636.88 1810.82 1636.88 1812.97 Q1636.88 1814.42 1635.99 1815.38 Q1635.14 1816.31 1633.54 1816.31 Q1632.02 1816.31 1631.13 1815.34 Q1630.28 1814.38 1630.28 1813.05 Q1630.28 1810.6 1632.54 1809.86 Q1631.39 1809.34 1630.06 1809.3 Q1627.32 1809.3 1625.17 1812.12 Q1623.06 1814.94 1623.06 1819.64 L1623.06 1828.42 L1631.95 1828.42 L1631.95 1830.8 L1623.32 1830.8 L1623.32 1855.22 Q1623.32 1857.4 1624.2 1858.11 Q1625.13 1858.81 1629.06 1858.81 L1630.65 1858.81 L1630.65 1861.14 Q1627.61 1860.92 1621.02 1860.92 Q1620.09 1860.92 1618.65 1860.96 Q1617.24 1861 1615.31 1861.07 Q1613.42 1861.14 1612.38 1861.14 L1612.38 1858.81 Q1616.42 1858.81 1617.35 1858.33 Q1618.28 1857.81 1618.28 1855.36 L1618.28 1830.8 L1612.31 1830.8 Z" fill="#000000" fill-rule="nonzero" fill-opacity="1" /><path clip-path="url(#clip700)" d="M1635.43 1861.14 L1635.43 1858.81 Q1639.47 1858.81 1640.4 1858.33 Q1641.32 1857.81 1641.32 1855.36 L1641.32 1834.95 Q1641.32 1832.13 1640.36 1831.46 Q1639.43 1830.8 1635.73 1830.8 L1635.73 1828.42 L1646.33 1827.61 L1646.33 1855.44 Q1646.33 1857.7 1647.14 1858.25 Q1647.96 1858.81 1651.66 1858.81 L1651.66 1861.14 Q1643.92 1860.92 1643.77 1860.92 Q1642.73 1860.92 1635.43 1861.14 M1638.62 1814.38 Q1638.62 1812.86 1639.77 1811.64 Q1640.95 1810.38 1642.62 1810.38 Q1644.29 1810.38 1645.47 1811.53 Q1646.66 1812.64 1646.66 1814.42 Q1646.66 1816.16 1645.47 1817.31 Q1644.29 1818.42 1642.62 1818.42 Q1640.88 1818.42 1639.73 1817.2 Q1638.62 1815.97 1638.62 1814.38 Z" fill="#000000" fill-rule="nonzero" fill-opacity="1" /><path clip-path="url(#clip700)" d="M1656.37 1861.14 L1656.37 1858.81 Q1660.41 1858.81 1661.33 1858.33 Q1662.26 1857.81 1662.26 1855.36 L1662.26 1835.02 Q1662.26 1832.2 1661.26 1831.5 Q1660.3 1830.8 1656.37 1830.8 L1656.37 1828.42 L1667.04 1827.61 L1667.04 1835.58 Q1670.6 1827.61 1678.27 1827.61 Q1683.97 1827.61 1686.23 1830.43 Q1687.9 1832.32 1688.24 1834.43 Q1688.61 1836.54 1688.61 1842.02 L1688.61 1856.51 Q1688.68 1858.11 1689.9 1858.48 Q1691.13 1858.81 1694.54 1858.81 L1694.54 1861.14 Q1686.79 1860.92 1686.01 1860.92 Q1685.42 1860.92 1677.45 1861.14 L1677.45 1858.81 Q1681.49 1858.81 1682.42 1858.33 Q1683.38 1857.81 1683.38 1855.36 L1683.38 1837.69 Q1683.38 1833.83 1682.2 1831.57 Q1681.01 1829.28 1677.75 1829.28 Q1673.82 1829.28 1670.67 1832.58 Q1667.52 1835.87 1667.52 1841.43 L1667.52 1855.36 Q1667.52 1857.81 1668.45 1858.33 Q1669.41 1858.81 1673.41 1858.81 L1673.41 1861.14 Q1665.67 1860.92 1664.93 1860.92 Q1664.34 1860.92 1656.37 1861.14 Z" fill="#000000" fill-rule="nonzero" fill-opacity="1" /><path clip-path="url(#clip700)" d="M1699.2 1853.92 Q1699.2 1847.47 1706.8 1844.06 Q1711.36 1841.88 1720.77 1841.32 L1720.77 1838.54 Q1720.77 1833.83 1718.29 1831.35 Q1715.84 1828.83 1712.73 1828.83 Q1707.17 1828.83 1704.5 1832.32 Q1706.76 1832.39 1707.58 1833.54 Q1708.39 1834.65 1708.39 1835.8 Q1708.39 1837.32 1707.43 1838.32 Q1706.5 1839.28 1704.91 1839.28 Q1703.39 1839.28 1702.39 1838.36 Q1701.39 1837.39 1701.39 1835.72 Q1701.39 1832.02 1704.73 1829.57 Q1708.1 1827.13 1712.88 1827.13 Q1719.1 1827.13 1723.25 1831.32 Q1724.55 1832.61 1725.18 1834.28 Q1725.85 1835.95 1725.92 1837.06 Q1725.99 1838.13 1725.99 1840.28 L1725.99 1855.44 Q1725.99 1855.88 1726.14 1856.62 Q1726.29 1857.36 1726.96 1858.33 Q1727.66 1859.25 1728.81 1859.25 Q1731.55 1859.25 1731.52 1854.4 L1731.52 1850.14 L1733.44 1850.14 L1733.44 1854.4 Q1733.44 1858.44 1731.29 1860.03 Q1729.18 1861.59 1727.22 1861.59 Q1724.7 1861.59 1723.1 1859.74 Q1721.51 1857.88 1721.29 1855.36 Q1720.14 1858.25 1717.51 1860.14 Q1714.92 1862 1711.36 1862 Q1708.62 1862 1706.02 1861.29 Q1703.47 1860.63 1701.32 1858.74 Q1699.2 1856.81 1699.2 1853.92 M1705.06 1853.84 Q1705.06 1856.66 1707.06 1858.48 Q1709.06 1860.29 1711.88 1860.29 Q1715.06 1860.29 1717.92 1857.85 Q1720.77 1855.36 1720.77 1850.51 L1720.77 1842.91 Q1712.36 1843.21 1708.69 1846.58 Q1705.06 1849.92 1705.06 1853.84 Z" fill="#000000" fill-rule="nonzero" fill-opacity="1" /><path clip-path="url(#clip700)" d="M1736.48 1861.14 L1736.48 1858.81 Q1740.52 1858.81 1741.45 1858.33 Q1742.37 1857.81 1742.37 1855.36 L1742.37 1815.9 Q1742.37 1813.08 1741.37 1812.38 Q1740.41 1811.68 1736.48 1811.68 L1736.48 1809.3 L1747.38 1808.49 L1747.38 1855.36 Q1747.38 1857.81 1748.34 1858.33 Q1749.3 1858.81 1753.3 1858.81 L1753.3 1861.14 Q1752.38 1861.14 1750.45 1861.07 Q1748.52 1861 1747.12 1860.96 Q1745.71 1860.92 1744.89 1860.92 Q1744 1860.92 1736.48 1861.14 Z" fill="#000000" fill-rule="nonzero" fill-opacity="1" /><path clip-path="url(#clip700)" d="M1759.31 1879.38 Q1759.31 1879.01 1760.27 1878.08 Q1772.5 1865.63 1772.5 1842.17 Q1772.5 1818.64 1760.75 1806.75 Q1759.31 1805.38 1759.31 1804.97 Q1759.31 1804.23 1760.05 1804.23 Q1760.57 1804.23 1762.38 1805.75 Q1764.24 1807.27 1767.01 1810.75 Q1769.83 1814.23 1771.91 1818.49 Q1776.91 1828.83 1776.91 1842.17 Q1776.91 1854.99 1772.13 1865.33 Q1770.09 1869.67 1767.24 1873.3 Q1764.38 1876.93 1762.49 1878.52 Q1760.6 1880.12 1760.05 1880.12 Q1759.31 1880.12 1759.31 1879.38 Z" fill="#000000" fill-rule="nonzero" fill-opacity="1" /><polyline clip-path="url(#clip702)" style="stroke:#000000; stroke-linecap:round; stroke-linejoin:round; stroke-width:2.8; stroke-opacity:0.4; fill:none" points="364.663,1453.88 2791.44,1453.88 "/>
<polyline clip-path="url(#clip702)" style="stroke:#000000; stroke-linecap:round; stroke-linejoin:round; stroke-width:2.8; stroke-opacity:0.4; fill:none" points="364.663,1175.76 2791.44,1175.76 "/>
<polyline clip-path="url(#clip702)" style="stroke:#000000; stroke-linecap:round; stroke-linejoin:round; stroke-width:2.8; stroke-opacity:0.4; fill:none" points="364.663,897.634 2791.44,897.634 "/>
<polyline clip-path="url(#clip702)" style="stroke:#000000; stroke-linecap:round; stroke-linejoin:round; stroke-width:2.8; stroke-opacity:0.4; fill:none" points="364.663,619.513 2791.44,619.513 "/>
<polyline clip-path="url(#clip702)" style="stroke:#000000; stroke-linecap:round; stroke-linejoin:round; stroke-width:2.8; stroke-opacity:0.4; fill:none" points="364.663,341.392 2791.44,341.392 "/>
<polyline clip-path="url(#clip700)" style="stroke:#000000; stroke-linecap:round; stroke-linejoin:round; stroke-width:4; stroke-opacity:1; fill:none" points="364.663,1676.83 364.663,110.236 "/>
<polyline clip-path="url(#clip700)" style="stroke:#000000; stroke-linecap:round; stroke-linejoin:round; stroke-width:4; stroke-opacity:1; fill:none" points="2791.44,1676.83 2791.44,110.236 "/>
<polyline clip-path="url(#clip700)" style="stroke:#000000; stroke-linecap:round; stroke-linejoin:round; stroke-width:4; stroke-opacity:1; fill:none" points="364.663,1453.88 380.047,1453.88 "/>
<polyline clip-path="url(#clip700)" style="stroke:#000000; stroke-linecap:round; stroke-linejoin:round; stroke-width:4; stroke-opacity:1; fill:none" points="364.663,1175.76 380.047,1175.76 "/>
<polyline clip-path="url(#clip700)" style="stroke:#000000; stroke-linecap:round; stroke-linejoin:round; stroke-width:4; stroke-opacity:1; fill:none" points="364.663,897.634 380.047,897.634 "/>
<polyline clip-path="url(#clip700)" style="stroke:#000000; stroke-linecap:round; stroke-linejoin:round; stroke-width:4; stroke-opacity:1; fill:none" points="364.663,619.513 380.047,619.513 "/>
<polyline clip-path="url(#clip700)" style="stroke:#000000; stroke-linecap:round; stroke-linejoin:round; stroke-width:4; stroke-opacity:1; fill:none" points="364.663,341.392 380.047,341.392 "/>
<path clip-path="url(#clip700)" d="M167.652 1448.73 L167.652 1447.14 Q173.729 1447.14 176.867 1443.91 Q177.731 1443.91 177.879 1444.11 Q178.028 1444.3 178.028 1445.22 L178.028 1473.6 Q178.028 1475.11 178.769 1475.58 Q179.51 1476.05 182.746 1476.05 L184.352 1476.05 L184.352 1477.6 Q182.573 1477.46 176.15 1477.46 Q169.727 1477.46 167.973 1477.6 L167.973 1476.05 L169.579 1476.05 Q172.766 1476.05 173.532 1475.6 Q174.297 1475.13 174.297 1473.6 L174.297 1447.39 Q171.654 1448.73 167.652 1448.73 Z" fill="#000000" fill-rule="nonzero" fill-opacity="1" /><path clip-path="url(#clip700)" d="M190.429 1461.42 Q190.429 1453.99 192.306 1449.94 Q194.925 1443.91 201.101 1443.91 Q202.41 1443.91 203.769 1444.28 Q205.152 1444.62 206.881 1445.98 Q208.635 1447.34 209.697 1449.57 Q211.723 1453.86 211.723 1461.42 Q211.723 1468.81 209.846 1472.84 Q207.104 1478.72 201.051 1478.72 Q198.779 1478.72 196.456 1477.55 Q194.159 1476.39 192.701 1473.6 Q190.429 1469.43 190.429 1461.42 M194.628 1460.81 Q194.628 1468.44 195.172 1471.48 Q195.789 1474.76 197.469 1476.2 Q199.174 1477.6 201.051 1477.6 Q203.077 1477.6 204.757 1476.1 Q206.461 1474.57 206.98 1471.28 Q207.548 1468.04 207.524 1460.81 Q207.524 1453.76 207.029 1450.95 Q206.362 1447.66 204.584 1446.35 Q202.83 1445.02 201.051 1445.02 Q200.384 1445.02 199.668 1445.22 Q198.976 1445.42 197.963 1445.98 Q196.95 1446.55 196.16 1447.96 Q195.394 1449.37 195.024 1451.49 Q194.628 1454.23 194.628 1460.81 Z" fill="#000000" fill-rule="nonzero" fill-opacity="1" /><path clip-path="url(#clip700)" d="M238.86 1439.33 Q239.101 1439.58 239.101 1439.92 Q239.101 1440.26 238.86 1440.5 Q238.619 1440.74 238.278 1440.74 L212.546 1440.74 Q212.205 1440.74 211.964 1440.5 Q211.723 1440.26 211.723 1439.92 Q211.723 1439.58 211.964 1439.33 Q212.205 1439.09 212.546 1439.09 L238.278 1439.09 Q238.619 1439.09 238.86 1439.33 Z" fill="#000000" fill-rule="nonzero" fill-opacity="1" /><path clip-path="url(#clip700)" d="M243.436 1450.19 Q243.436 1449.45 243.496 1449.23 Q243.577 1449.01 243.898 1448.67 L251.786 1439.88 Q256.101 1435.02 256.101 1430.78 Q256.101 1428.03 254.656 1426.07 Q253.231 1424.1 250.602 1424.1 Q248.795 1424.1 247.27 1425.2 Q245.744 1426.31 245.042 1428.28 Q245.162 1428.24 245.584 1428.24 Q246.607 1428.24 247.169 1428.88 Q247.751 1429.52 247.751 1430.38 Q247.751 1431.49 247.029 1432.03 Q246.326 1432.55 245.624 1432.55 Q245.343 1432.55 244.961 1432.49 Q244.6 1432.43 244.018 1431.87 Q243.436 1431.29 243.436 1430.26 Q243.436 1427.39 245.604 1425.1 Q247.792 1422.82 251.123 1422.82 Q254.897 1422.82 257.366 1425.06 Q259.854 1427.29 259.854 1430.78 Q259.854 1432.01 259.473 1433.13 Q259.112 1434.24 258.61 1435.1 Q258.128 1435.96 256.804 1437.35 Q255.479 1438.73 254.415 1439.72 Q253.351 1440.7 250.963 1442.79 L246.607 1447.02 L254.014 1447.02 Q257.627 1447.02 257.908 1446.7 Q258.309 1446.12 258.811 1443.05 L259.854 1443.05 L258.69 1450.19 L243.436 1450.19 Z" fill="#000000" fill-rule="nonzero" fill-opacity="1" /><path clip-path="url(#clip700)" d="M266.057 1449.53 Q265.434 1448.87 265.434 1448.01 Q265.434 1447.14 266.057 1446.52 Q266.679 1445.88 267.622 1445.88 Q268.525 1445.88 269.128 1446.48 Q269.75 1447.06 269.75 1448.03 Q269.75 1448.97 269.087 1449.59 Q268.445 1450.19 267.622 1450.19 Q266.679 1450.19 266.057 1449.53 Z" fill="#000000" fill-rule="nonzero" fill-opacity="1" /><path clip-path="url(#clip700)" d="M274.968 1437.05 Q274.968 1431 276.494 1427.71 Q278.621 1422.82 283.639 1422.82 Q284.703 1422.82 285.807 1423.12 Q286.931 1423.4 288.336 1424.5 Q289.761 1425.61 290.624 1427.41 Q292.27 1430.9 292.27 1437.05 Q292.27 1443.05 290.744 1446.32 Q288.517 1451.1 283.599 1451.1 Q281.752 1451.1 279.866 1450.15 Q277.999 1449.21 276.815 1446.94 Q274.968 1443.55 274.968 1437.05 M278.38 1436.54 Q278.38 1442.75 278.822 1445.22 Q279.324 1447.89 280.689 1449.05 Q282.074 1450.19 283.599 1450.19 Q285.245 1450.19 286.61 1448.97 Q287.995 1447.72 288.416 1445.06 Q288.878 1442.43 288.858 1436.54 Q288.858 1430.82 288.456 1428.54 Q287.914 1425.87 286.469 1424.8 Q285.044 1423.72 283.599 1423.72 Q283.057 1423.72 282.475 1423.88 Q281.913 1424.04 281.09 1424.5 Q280.267 1424.96 279.625 1426.11 Q279.003 1427.25 278.702 1428.98 Q278.38 1431.21 278.38 1436.54 Z" fill="#000000" fill-rule="nonzero" fill-opacity="1" /><path clip-path="url(#clip700)" d="M295.522 1437.05 Q295.522 1431 297.047 1427.71 Q299.175 1422.82 304.192 1422.82 Q305.256 1422.82 306.36 1423.12 Q307.484 1423.4 308.889 1424.5 Q310.314 1425.61 311.177 1427.41 Q312.823 1430.9 312.823 1437.05 Q312.823 1443.05 311.298 1446.32 Q309.07 1451.1 304.152 1451.1 Q302.306 1451.1 300.419 1450.15 Q298.552 1449.21 297.368 1446.94 Q295.522 1443.55 295.522 1437.05 M298.934 1436.54 Q298.934 1442.75 299.375 1445.22 Q299.877 1447.89 301.242 1449.05 Q302.627 1450.19 304.152 1450.19 Q305.798 1450.19 307.163 1448.97 Q308.548 1447.72 308.969 1445.06 Q309.431 1442.43 309.411 1436.54 Q309.411 1430.82 309.01 1428.54 Q308.468 1425.87 307.022 1424.8 Q305.597 1423.72 304.152 1423.72 Q303.61 1423.72 303.028 1423.88 Q302.466 1424.04 301.643 1424.5 Q300.82 1424.96 300.178 1426.11 Q299.556 1427.25 299.255 1428.98 Q298.934 1431.21 298.934 1436.54 Z" fill="#000000" fill-rule="nonzero" fill-opacity="1" /><path clip-path="url(#clip700)" d="M168.094 1170.6 L168.094 1169.02 Q174.171 1169.02 177.308 1165.79 Q178.173 1165.79 178.321 1165.98 Q178.469 1166.18 178.469 1167.1 L178.469 1195.48 Q178.469 1196.99 179.21 1197.46 Q179.951 1197.93 183.188 1197.93 L184.793 1197.93 L184.793 1199.48 Q183.015 1199.33 176.592 1199.33 Q170.169 1199.33 168.415 1199.48 L168.415 1197.93 L170.021 1197.93 Q173.207 1197.93 173.973 1197.48 Q174.739 1197.01 174.739 1195.48 L174.739 1169.27 Q172.096 1170.6 168.094 1170.6 Z" fill="#000000" fill-rule="nonzero" fill-opacity="1" /><path clip-path="url(#clip700)" d="M190.87 1183.3 Q190.87 1175.87 192.748 1171.81 Q195.366 1165.79 201.542 1165.79 Q202.851 1165.79 204.21 1166.16 Q205.594 1166.5 207.323 1167.86 Q209.077 1169.22 210.139 1171.44 Q212.165 1175.74 212.165 1183.3 Q212.165 1190.69 210.287 1194.71 Q207.545 1200.59 201.493 1200.59 Q199.22 1200.59 196.898 1199.43 Q194.601 1198.27 193.143 1195.48 Q190.87 1191.31 190.87 1183.3 M195.07 1182.68 Q195.07 1190.32 195.613 1193.36 Q196.231 1196.64 197.911 1198.07 Q199.615 1199.48 201.493 1199.48 Q203.518 1199.48 205.198 1197.98 Q206.903 1196.44 207.422 1193.16 Q207.99 1189.92 207.965 1182.68 Q207.965 1175.64 207.471 1172.83 Q206.804 1169.54 205.025 1168.23 Q203.271 1166.9 201.493 1166.9 Q200.826 1166.9 200.109 1167.1 Q199.418 1167.29 198.405 1167.86 Q197.392 1168.43 196.602 1169.84 Q195.836 1171.25 195.465 1173.37 Q195.07 1176.11 195.07 1182.68 Z" fill="#000000" fill-rule="nonzero" fill-opacity="1" /><path clip-path="url(#clip700)" d="M239.301 1161.21 Q239.542 1161.45 239.542 1161.8 Q239.542 1162.14 239.301 1162.38 Q239.06 1162.62 238.719 1162.62 L212.988 1162.62 Q212.646 1162.62 212.406 1162.38 Q212.165 1162.14 212.165 1161.8 Q212.165 1161.45 212.406 1161.21 Q212.646 1160.97 212.988 1160.97 L238.719 1160.97 Q239.06 1160.97 239.301 1161.21 Z" fill="#000000" fill-rule="nonzero" fill-opacity="1" /><path clip-path="url(#clip700)" d="M245.483 1148.61 L245.483 1147.32 Q250.421 1147.32 252.97 1144.69 Q253.672 1144.69 253.793 1144.86 Q253.913 1145.02 253.913 1145.76 L253.913 1168.82 Q253.913 1170.05 254.515 1170.43 Q255.118 1170.81 257.747 1170.81 L259.052 1170.81 L259.052 1172.07 Q257.606 1171.95 252.388 1171.95 Q247.169 1171.95 245.744 1172.07 L245.744 1170.81 L247.049 1170.81 Q249.638 1170.81 250.26 1170.45 Q250.883 1170.07 250.883 1168.82 L250.883 1147.52 Q248.735 1148.61 245.483 1148.61 Z" fill="#000000" fill-rule="nonzero" fill-opacity="1" /><path clip-path="url(#clip700)" d="M266.498 1171.41 Q265.876 1170.75 265.876 1169.88 Q265.876 1169.02 266.498 1168.4 Q267.12 1167.76 268.064 1167.76 Q268.967 1167.76 269.569 1168.36 Q270.191 1168.94 270.191 1169.9 Q270.191 1170.85 269.529 1171.47 Q268.887 1172.07 268.064 1172.07 Q267.12 1172.07 266.498 1171.41 Z" fill="#000000" fill-rule="nonzero" fill-opacity="1" /><path clip-path="url(#clip700)" d="M276.112 1152.74 L277.457 1144.29 L278.481 1144.29 Q278.601 1144.8 278.802 1145.02 Q279.023 1145.24 280.187 1145.42 Q281.371 1145.6 283.76 1145.6 L293.735 1145.6 Q293.735 1146.54 293.374 1147.04 L287.814 1154.85 Q286.048 1157.32 285.265 1161.88 Q284.803 1164.93 284.823 1168.62 L284.823 1170.71 Q284.823 1172.98 282.917 1172.98 Q281.03 1172.98 281.03 1170.71 Q281.03 1162.86 286.088 1155.25 Q286.63 1154.47 288.617 1151.68 Q290.624 1148.89 290.704 1148.77 L282.194 1148.77 Q278.461 1148.77 278.16 1149.01 Q277.758 1149.37 277.136 1152.74 L276.112 1152.74 Z" fill="#000000" fill-rule="nonzero" fill-opacity="1" /><path clip-path="url(#clip700)" d="M296.405 1165.45 Q296.405 1164.22 297.067 1163.76 Q297.729 1163.28 298.432 1163.28 Q299.375 1163.28 299.917 1163.88 Q300.479 1164.47 300.479 1165.29 Q300.479 1166.11 299.917 1166.71 Q299.375 1167.3 298.432 1167.3 Q297.97 1167.3 297.729 1167.21 Q298.271 1169.1 299.917 1170.47 Q301.583 1171.83 303.771 1171.83 Q306.521 1171.83 308.167 1169.16 Q309.15 1167.44 309.15 1163.52 Q309.15 1160.07 308.407 1158.34 Q307.263 1155.71 304.915 1155.71 Q301.583 1155.71 299.616 1158.58 Q299.375 1158.95 299.094 1158.97 Q298.693 1158.97 298.592 1158.74 Q298.512 1158.5 298.512 1157.88 L298.512 1145.72 Q298.512 1144.73 298.914 1144.73 Q299.074 1144.73 299.415 1144.86 Q302.005 1146 304.875 1146.02 Q307.825 1146.02 310.475 1144.82 Q310.675 1144.69 310.796 1144.69 Q311.197 1144.69 311.217 1145.16 Q311.217 1145.32 310.876 1145.8 Q310.555 1146.26 309.853 1146.88 Q309.15 1147.48 308.247 1148.07 Q307.344 1148.65 306.019 1149.05 Q304.714 1149.43 303.269 1149.43 Q301.543 1149.43 299.777 1148.89 L299.777 1156.9 Q301.904 1154.81 304.995 1154.81 Q308.287 1154.81 310.555 1157.46 Q312.823 1160.11 312.823 1163.8 Q312.823 1167.68 310.134 1170.33 Q307.464 1172.98 303.851 1172.98 Q300.559 1172.98 298.472 1170.63 Q296.405 1168.28 296.405 1165.45 Z" fill="#000000" fill-rule="nonzero" fill-opacity="1" /><path clip-path="url(#clip700)" d="M167.652 892.483 L167.652 890.902 Q173.729 890.902 176.867 887.666 Q177.731 887.666 177.879 887.864 Q178.028 888.061 178.028 888.975 L178.028 917.36 Q178.028 918.867 178.769 919.336 Q179.51 919.805 182.746 919.805 L184.352 919.805 L184.352 921.362 Q182.573 921.213 176.15 921.213 Q169.727 921.213 167.973 921.362 L167.973 919.805 L169.579 919.805 Q172.766 919.805 173.532 919.361 Q174.297 918.891 174.297 917.36 L174.297 891.149 Q171.654 892.483 167.652 892.483 Z" fill="#000000" fill-rule="nonzero" fill-opacity="1" /><path clip-path="url(#clip700)" d="M190.429 905.181 Q190.429 897.745 192.306 893.694 Q194.925 887.666 201.101 887.666 Q202.41 887.666 203.769 888.037 Q205.152 888.383 206.881 889.741 Q208.635 891.1 209.697 893.323 Q211.723 897.622 211.723 905.181 Q211.723 912.567 209.846 916.594 Q207.104 922.473 201.051 922.473 Q198.779 922.473 196.456 921.312 Q194.159 920.151 192.701 917.36 Q190.429 913.185 190.429 905.181 M194.628 904.563 Q194.628 912.197 195.172 915.235 Q195.789 918.521 197.469 919.954 Q199.174 921.362 201.051 921.362 Q203.077 921.362 204.757 919.855 Q206.461 918.323 206.98 915.038 Q207.548 911.801 207.524 904.563 Q207.524 897.523 207.029 894.707 Q206.362 891.421 204.584 890.112 Q202.83 888.778 201.051 888.778 Q200.384 888.778 199.668 888.975 Q198.976 889.173 197.963 889.741 Q196.95 890.309 196.16 891.718 Q195.394 893.126 195.024 895.25 Q194.628 897.992 194.628 904.563 Z" fill="#000000" fill-rule="nonzero" fill-opacity="1" /><path clip-path="url(#clip700)" d="M238.86 883.093 Q239.101 883.333 239.101 883.675 Q239.101 884.016 238.86 884.257 Q238.619 884.498 238.278 884.498 L212.546 884.498 Q212.205 884.498 211.964 884.257 Q211.723 884.016 211.723 883.675 Q211.723 883.333 211.964 883.093 Q212.205 882.852 212.546 882.852 L238.278 882.852 Q238.619 882.852 238.86 883.093 Z" fill="#000000" fill-rule="nonzero" fill-opacity="1" /><path clip-path="url(#clip700)" d="M245.042 870.488 L245.042 869.203 Q249.979 869.203 252.528 866.574 Q253.231 866.574 253.351 866.734 Q253.472 866.895 253.472 867.637 L253.472 890.7 Q253.472 891.924 254.074 892.305 Q254.676 892.687 257.305 892.687 L258.61 892.687 L258.61 893.951 Q257.165 893.831 251.946 893.831 Q246.728 893.831 245.303 893.951 L245.303 892.687 L246.607 892.687 Q249.197 892.687 249.819 892.325 Q250.441 891.944 250.441 890.7 L250.441 869.404 Q248.293 870.488 245.042 870.488 Z" fill="#000000" fill-rule="nonzero" fill-opacity="1" /><path clip-path="url(#clip700)" d="M266.057 893.289 Q265.434 892.626 265.434 891.763 Q265.434 890.9 266.057 890.278 Q266.679 889.636 267.622 889.636 Q268.525 889.636 269.128 890.238 Q269.75 890.82 269.75 891.783 Q269.75 892.727 269.087 893.349 Q268.445 893.951 267.622 893.951 Q266.679 893.951 266.057 893.289 Z" fill="#000000" fill-rule="nonzero" fill-opacity="1" /><path clip-path="url(#clip700)" d="M275.41 887.328 Q275.41 886.103 276.072 885.642 Q276.735 885.16 277.437 885.16 Q278.38 885.16 278.922 885.762 Q279.484 886.344 279.484 887.167 Q279.484 887.99 278.922 888.592 Q278.38 889.174 277.437 889.174 Q276.975 889.174 276.735 889.094 Q277.277 890.981 278.922 892.345 Q280.588 893.71 282.776 893.71 Q285.526 893.71 287.172 891.041 Q288.155 889.315 288.155 885.401 Q288.155 881.948 287.413 880.222 Q286.269 877.593 283.92 877.593 Q280.588 877.593 278.621 880.463 Q278.38 880.824 278.099 880.845 Q277.698 880.845 277.598 880.624 Q277.517 880.383 277.517 879.761 L277.517 867.597 Q277.517 866.614 277.919 866.614 Q278.079 866.614 278.421 866.734 Q281.01 867.878 283.88 867.898 Q286.831 867.898 289.48 866.694 Q289.681 866.574 289.801 866.574 Q290.203 866.574 290.223 867.035 Q290.223 867.196 289.881 867.678 Q289.56 868.139 288.858 868.761 Q288.155 869.364 287.252 869.946 Q286.349 870.528 285.024 870.929 Q283.719 871.311 282.274 871.311 Q280.548 871.311 278.782 870.769 L278.782 878.777 Q280.909 876.69 284 876.69 Q287.292 876.69 289.56 879.339 Q291.828 881.989 291.828 885.682 Q291.828 889.556 289.139 892.205 Q286.469 894.854 282.856 894.854 Q279.565 894.854 277.477 892.506 Q275.41 890.158 275.41 887.328 Z" fill="#000000" fill-rule="nonzero" fill-opacity="1" /><path clip-path="url(#clip700)" d="M295.522 880.804 Q295.522 874.763 297.047 871.471 Q299.175 866.574 304.192 866.574 Q305.256 866.574 306.36 866.875 Q307.484 867.156 308.889 868.26 Q310.314 869.364 311.177 871.17 Q312.823 874.663 312.823 880.804 Q312.823 886.806 311.298 890.077 Q309.07 894.854 304.152 894.854 Q302.306 894.854 300.419 893.911 Q298.552 892.968 297.368 890.7 Q295.522 887.308 295.522 880.804 M298.934 880.303 Q298.934 886.505 299.375 888.973 Q299.877 891.643 301.242 892.807 Q302.627 893.951 304.152 893.951 Q305.798 893.951 307.163 892.727 Q308.548 891.482 308.969 888.813 Q309.431 886.184 309.411 880.303 Q309.411 874.582 309.01 872.294 Q308.468 869.625 307.022 868.561 Q305.597 867.477 304.152 867.477 Q303.61 867.477 303.028 867.637 Q302.466 867.798 301.643 868.26 Q300.82 868.721 300.178 869.865 Q299.556 871.009 299.255 872.736 Q298.934 874.964 298.934 880.303 Z" fill="#000000" fill-rule="nonzero" fill-opacity="1" /><path clip-path="url(#clip700)" d="M168.094 614.362 L168.094 612.781 Q174.171 612.781 177.308 609.545 Q178.173 609.545 178.321 609.743 Q178.469 609.94 178.469 610.854 L178.469 639.239 Q178.469 640.745 179.21 641.215 Q179.951 641.684 183.188 641.684 L184.793 641.684 L184.793 643.241 Q183.015 643.092 176.592 643.092 Q170.169 643.092 168.415 643.241 L168.415 641.684 L170.021 641.684 Q173.207 641.684 173.973 641.24 Q174.739 640.77 174.739 639.239 L174.739 613.028 Q172.096 614.362 168.094 614.362 Z" fill="#000000" fill-rule="nonzero" fill-opacity="1" /><path clip-path="url(#clip700)" d="M190.87 627.06 Q190.87 619.624 192.748 615.573 Q195.366 609.545 201.542 609.545 Q202.851 609.545 204.21 609.916 Q205.594 610.262 207.323 611.62 Q209.077 612.979 210.139 615.202 Q212.165 619.501 212.165 627.06 Q212.165 634.446 210.287 638.473 Q207.545 644.352 201.493 644.352 Q199.22 644.352 196.898 643.191 Q194.601 642.03 193.143 639.239 Q190.87 635.064 190.87 627.06 M195.07 626.442 Q195.07 634.076 195.613 637.114 Q196.231 640.4 197.911 641.832 Q199.615 643.241 201.493 643.241 Q203.518 643.241 205.198 641.734 Q206.903 640.202 207.422 636.916 Q207.99 633.68 207.965 626.442 Q207.965 619.402 207.471 616.586 Q206.804 613.3 205.025 611.991 Q203.271 610.657 201.493 610.657 Q200.826 610.657 200.109 610.854 Q199.418 611.052 198.405 611.62 Q197.392 612.188 196.602 613.597 Q195.836 615.005 195.465 617.129 Q195.07 619.871 195.07 626.442 Z" fill="#000000" fill-rule="nonzero" fill-opacity="1" /><path clip-path="url(#clip700)" d="M239.301 604.971 Q239.542 605.212 239.542 605.554 Q239.542 605.895 239.301 606.136 Q239.06 606.376 238.719 606.376 L212.988 606.376 Q212.646 606.376 212.406 606.136 Q212.165 605.895 212.165 605.554 Q212.165 605.212 212.406 604.971 Q212.646 604.731 212.988 604.731 L238.719 604.731 Q239.06 604.731 239.301 604.971 Z" fill="#000000" fill-rule="nonzero" fill-opacity="1" /><path clip-path="url(#clip700)" d="M245.483 592.367 L245.483 591.082 Q250.421 591.082 252.97 588.453 Q253.672 588.453 253.793 588.613 Q253.913 588.774 253.913 589.516 L253.913 612.579 Q253.913 613.803 254.515 614.184 Q255.118 614.566 257.747 614.566 L259.052 614.566 L259.052 615.83 Q257.606 615.71 252.388 615.71 Q247.169 615.71 245.744 615.83 L245.744 614.566 L247.049 614.566 Q249.638 614.566 250.26 614.204 Q250.883 613.823 250.883 612.579 L250.883 591.283 Q248.735 592.367 245.483 592.367 Z" fill="#000000" fill-rule="nonzero" fill-opacity="1" /><path clip-path="url(#clip700)" d="M266.498 615.168 Q265.876 614.505 265.876 613.642 Q265.876 612.779 266.498 612.157 Q267.12 611.515 268.064 611.515 Q268.967 611.515 269.569 612.117 Q270.191 612.699 270.191 613.662 Q270.191 614.606 269.529 615.228 Q268.887 615.83 268.064 615.83 Q267.12 615.83 266.498 615.168 Z" fill="#000000" fill-rule="nonzero" fill-opacity="1" /><path clip-path="url(#clip700)" d="M275.851 615.83 Q275.851 615.087 275.912 614.867 Q275.992 614.646 276.313 614.305 L284.201 605.513 Q288.517 600.656 288.517 596.421 Q288.517 593.671 287.071 591.704 Q285.646 589.737 283.017 589.737 Q281.211 589.737 279.685 590.841 Q278.16 591.945 277.457 593.912 Q277.578 593.872 277.999 593.872 Q279.023 593.872 279.585 594.514 Q280.167 595.157 280.167 596.02 Q280.167 597.124 279.444 597.665 Q278.742 598.187 278.039 598.187 Q277.758 598.187 277.377 598.127 Q277.016 598.067 276.434 597.505 Q275.851 596.923 275.851 595.899 Q275.851 593.029 278.019 590.741 Q280.207 588.453 283.539 588.453 Q287.312 588.453 289.781 590.701 Q292.27 592.929 292.27 596.421 Q292.27 597.645 291.889 598.769 Q291.527 599.873 291.025 600.736 Q290.544 601.599 289.219 602.984 Q287.894 604.369 286.831 605.353 Q285.767 606.336 283.378 608.424 L279.023 612.659 L286.429 612.659 Q290.042 612.659 290.323 612.338 Q290.724 611.756 291.226 608.685 L292.27 608.685 L291.106 615.83 L275.851 615.83 Z" fill="#000000" fill-rule="nonzero" fill-opacity="1" /><path clip-path="url(#clip700)" d="M296.405 609.207 Q296.405 607.982 297.067 607.521 Q297.729 607.039 298.432 607.039 Q299.375 607.039 299.917 607.641 Q300.479 608.223 300.479 609.046 Q300.479 609.869 299.917 610.471 Q299.375 611.053 298.432 611.053 Q297.97 611.053 297.729 610.973 Q298.271 612.86 299.917 614.224 Q301.583 615.589 303.771 615.589 Q306.521 615.589 308.167 612.92 Q309.15 611.194 309.15 607.28 Q309.15 603.827 308.407 602.101 Q307.263 599.472 304.915 599.472 Q301.583 599.472 299.616 602.342 Q299.375 602.703 299.094 602.723 Q298.693 602.723 298.592 602.503 Q298.512 602.262 298.512 601.64 L298.512 589.476 Q298.512 588.493 298.914 588.493 Q299.074 588.493 299.415 588.613 Q302.005 589.757 304.875 589.777 Q307.825 589.777 310.475 588.573 Q310.675 588.453 310.796 588.453 Q311.197 588.453 311.217 588.914 Q311.217 589.075 310.876 589.557 Q310.555 590.018 309.853 590.64 Q309.15 591.243 308.247 591.825 Q307.344 592.407 306.019 592.808 Q304.714 593.19 303.269 593.19 Q301.543 593.19 299.777 592.648 L299.777 600.656 Q301.904 598.569 304.995 598.569 Q308.287 598.569 310.555 601.218 Q312.823 603.868 312.823 607.561 Q312.823 611.434 310.134 614.084 Q307.464 616.733 303.851 616.733 Q300.559 616.733 298.472 614.385 Q296.405 612.037 296.405 609.207 Z" fill="#000000" fill-rule="nonzero" fill-opacity="1" /><path clip-path="url(#clip700)" d="M167.652 336.241 L167.652 334.66 Q173.729 334.66 176.867 331.424 Q177.731 331.424 177.879 331.622 Q178.028 331.819 178.028 332.733 L178.028 361.118 Q178.028 362.624 178.769 363.094 Q179.51 363.563 182.746 363.563 L184.352 363.563 L184.352 365.119 Q182.573 364.971 176.15 364.971 Q169.727 364.971 167.973 365.119 L167.973 363.563 L169.579 363.563 Q172.766 363.563 173.532 363.119 Q174.297 362.649 174.297 361.118 L174.297 334.907 Q171.654 336.241 167.652 336.241 Z" fill="#000000" fill-rule="nonzero" fill-opacity="1" /><path clip-path="url(#clip700)" d="M190.429 348.939 Q190.429 341.503 192.306 337.452 Q194.925 331.424 201.101 331.424 Q202.41 331.424 203.769 331.795 Q205.152 332.14 206.881 333.499 Q208.635 334.858 209.697 337.081 Q211.723 341.38 211.723 348.939 Q211.723 356.325 209.846 360.352 Q207.104 366.231 201.051 366.231 Q198.779 366.231 196.456 365.07 Q194.159 363.909 192.701 361.118 Q190.429 356.943 190.429 348.939 M194.628 348.321 Q194.628 355.955 195.172 358.993 Q195.789 362.279 197.469 363.711 Q199.174 365.119 201.051 365.119 Q203.077 365.119 204.757 363.613 Q206.461 362.081 206.98 358.795 Q207.548 355.559 207.524 348.321 Q207.524 341.281 207.029 338.465 Q206.362 335.179 204.584 333.87 Q202.83 332.536 201.051 332.536 Q200.384 332.536 199.668 332.733 Q198.976 332.931 197.963 333.499 Q196.95 334.067 196.16 335.475 Q195.394 336.884 195.024 339.008 Q194.628 341.75 194.628 348.321 Z" fill="#000000" fill-rule="nonzero" fill-opacity="1" /><path clip-path="url(#clip700)" d="M238.86 326.85 Q239.101 327.091 239.101 327.432 Q239.101 327.774 238.86 328.015 Q238.619 328.255 238.278 328.255 L212.546 328.255 Q212.205 328.255 211.964 328.015 Q211.723 327.774 211.723 327.432 Q211.723 327.091 211.964 326.85 Q212.205 326.61 212.546 326.61 L238.278 326.61 Q238.619 326.61 238.86 326.85 Z" fill="#000000" fill-rule="nonzero" fill-opacity="1" /><path clip-path="url(#clip700)" d="M245.042 314.246 L245.042 312.961 Q249.979 312.961 252.528 310.332 Q253.231 310.332 253.351 310.492 Q253.472 310.653 253.472 311.395 L253.472 334.458 Q253.472 335.682 254.074 336.063 Q254.676 336.445 257.305 336.445 L258.61 336.445 L258.61 337.709 Q257.165 337.589 251.946 337.589 Q246.728 337.589 245.303 337.709 L245.303 336.445 L246.607 336.445 Q249.197 336.445 249.819 336.083 Q250.441 335.702 250.441 334.458 L250.441 313.162 Q248.293 314.246 245.042 314.246 Z" fill="#000000" fill-rule="nonzero" fill-opacity="1" /><path clip-path="url(#clip700)" d="M266.057 337.047 Q265.434 336.384 265.434 335.521 Q265.434 334.658 266.057 334.036 Q266.679 333.394 267.622 333.394 Q268.525 333.394 269.128 333.996 Q269.75 334.578 269.75 335.541 Q269.75 336.485 269.087 337.107 Q268.445 337.709 267.622 337.709 Q266.679 337.709 266.057 337.047 Z" fill="#000000" fill-rule="nonzero" fill-opacity="1" /><path clip-path="url(#clip700)" d="M274.968 324.562 Q274.968 318.521 276.494 315.229 Q278.621 310.332 283.639 310.332 Q284.703 310.332 285.807 310.633 Q286.931 310.914 288.336 312.018 Q289.761 313.122 290.624 314.928 Q292.27 318.42 292.27 324.562 Q292.27 330.564 290.744 333.835 Q288.517 338.612 283.599 338.612 Q281.752 338.612 279.866 337.669 Q277.999 336.726 276.815 334.458 Q274.968 331.065 274.968 324.562 M278.38 324.06 Q278.38 330.263 278.822 332.731 Q279.324 335.401 280.689 336.565 Q282.074 337.709 283.599 337.709 Q285.245 337.709 286.61 336.485 Q287.995 335.24 288.416 332.571 Q288.878 329.941 288.858 324.06 Q288.858 318.34 288.456 316.052 Q287.914 313.382 286.469 312.319 Q285.044 311.235 283.599 311.235 Q283.057 311.235 282.475 311.395 Q281.913 311.556 281.09 312.018 Q280.267 312.479 279.625 313.623 Q279.003 314.767 278.702 316.494 Q278.38 318.721 278.38 324.06 Z" fill="#000000" fill-rule="nonzero" fill-opacity="1" /><path clip-path="url(#clip700)" d="M295.522 324.562 Q295.522 318.521 297.047 315.229 Q299.175 310.332 304.192 310.332 Q305.256 310.332 306.36 310.633 Q307.484 310.914 308.889 312.018 Q310.314 313.122 311.177 314.928 Q312.823 318.42 312.823 324.562 Q312.823 330.564 311.298 333.835 Q309.07 338.612 304.152 338.612 Q302.306 338.612 300.419 337.669 Q298.552 336.726 297.368 334.458 Q295.522 331.065 295.522 324.562 M298.934 324.06 Q298.934 330.263 299.375 332.731 Q299.877 335.401 301.242 336.565 Q302.627 337.709 304.152 337.709 Q305.798 337.709 307.163 336.485 Q308.548 335.24 308.969 332.571 Q309.431 329.941 309.411 324.06 Q309.411 318.34 309.01 316.052 Q308.468 313.382 307.022 312.319 Q305.597 311.235 304.152 311.235 Q303.61 311.235 303.028 311.395 Q302.466 311.556 301.643 312.018 Q300.82 312.479 300.178 313.623 Q299.556 314.767 299.255 316.494 Q298.934 318.721 298.934 324.06 Z" fill="#000000" fill-rule="nonzero" fill-opacity="1" /><path clip-path="url(#clip700)" d="M65.9473 1031.71 L48.902 1030.27 L48.902 983.911 L65.9473 982.466 L65.9473 984.356 Q62.5383 984.652 60.5743 984.949 Q58.6104 985.208 56.7577 985.875 Q54.8679 986.505 53.9785 987.32 Q53.0522 988.098 52.3481 989.618 Q51.607 991.137 51.4217 993.101 Q51.2365 995.065 51.2365 998.029 Q51.2365 1001.51 51.3847 1002.36 Q51.607 1003.29 52.274 1003.51 Q52.9039 1003.74 54.275 1003.74 L94.2574 1003.74 Q95.7766 1003.74 96.4066 1003.44 Q96.9994 1003.11 97.4812 1001.36 Q97.9258 999.623 97.9258 995.769 L97.9258 992.73 L100.26 992.73 Q100.038 995.843 100.038 1007.14 Q100.038 1018.37 100.26 1021.49 L97.9258 1021.49 L97.9258 1018.45 Q97.9258 1014.59 97.4812 1012.85 Q96.9994 1011.07 96.4066 1010.78 Q95.7766 1010.48 94.2574 1010.48 L54.275 1010.48 Q53.2004 1010.48 52.7557 1010.55 Q52.3111 1010.63 51.9405 1010.96 Q51.5329 1011.29 51.3847 1012.07 Q51.2365 1012.81 51.2365 1016.15 Q51.2365 1019.11 51.4217 1021.11 Q51.607 1023.08 52.3481 1024.6 Q53.0522 1026.12 53.9785 1026.93 Q54.8679 1027.71 56.7577 1028.38 Q58.6104 1029.01 60.5743 1029.27 Q62.5383 1029.53 65.9473 1029.82 L65.9473 1031.71 Z" fill="#000000" fill-rule="nonzero" fill-opacity="1" /><path clip-path="url(#clip700)" d="M100.26 977.167 L97.9258 977.167 Q97.9258 973.128 97.4441 972.202 Q96.9253 971.275 94.4797 971.275 L74.0624 971.275 Q71.2462 971.275 70.5792 972.239 Q69.9122 973.165 69.9122 976.871 L67.5407 976.871 L66.7255 966.273 L94.5538 966.273 Q96.8142 966.273 97.37 965.458 Q97.9258 964.643 97.9258 960.937 L100.26 960.937 Q100.038 968.682 100.038 968.83 Q100.038 969.867 100.26 977.167 M53.4968 973.98 Q51.9776 973.98 50.7548 972.832 Q49.4949 971.646 49.4949 969.979 Q49.4949 968.311 50.6436 967.125 Q51.7552 965.94 53.5339 965.94 Q55.2755 965.94 56.4242 967.125 Q57.5358 968.311 57.5358 969.979 Q57.5358 971.72 56.313 972.869 Q55.0902 973.98 53.4968 973.98 Z" fill="#000000" fill-rule="nonzero" fill-opacity="1" /><path clip-path="url(#clip700)" d="M100.26 956.231 L97.9258 956.231 Q97.9258 952.192 97.4441 951.266 Q96.9253 950.339 94.4797 950.339 L74.1365 950.339 Q71.3203 950.339 70.6163 951.34 Q69.9122 952.303 69.9122 956.231 L67.5407 956.231 L66.7255 945.559 L74.6923 945.559 Q66.7255 942.002 66.7255 934.332 Q66.7255 925.438 74.1365 924.216 Q71.2462 922.919 68.9858 920.214 Q66.7255 917.472 66.7255 913.21 Q66.7255 907.504 69.5417 905.243 Q71.4315 903.576 73.5436 903.242 Q75.6557 902.909 81.1399 902.909 L95.6284 902.909 Q97.2218 902.835 97.5923 901.612 Q97.9258 900.389 97.9258 896.98 L100.26 896.98 Q100.038 904.725 100.038 905.466 Q100.038 906.059 100.26 914.062 L97.9258 914.062 Q97.9258 910.023 97.4441 909.097 Q96.9253 908.134 94.4797 908.134 L76.8044 908.134 Q72.9507 908.134 70.6904 909.319 Q68.3929 910.505 68.3929 913.766 Q68.3929 917.694 71.6908 920.844 Q74.9887 923.993 80.547 923.993 L94.4797 923.993 Q96.9253 923.993 97.4441 923.067 Q97.9258 922.103 97.9258 918.064 L100.26 918.064 Q100.038 925.809 100.038 926.587 Q100.038 927.18 100.26 935.147 L97.9258 935.147 Q97.9258 931.108 97.4441 930.181 Q96.9253 929.218 94.4797 929.218 L76.8044 929.218 Q72.9507 929.218 70.6904 930.404 Q68.3929 931.589 68.3929 934.85 Q68.3929 938.778 71.6908 941.928 Q74.9887 945.078 80.547 945.078 L94.4797 945.078 Q96.9253 945.078 97.4441 944.151 Q97.9258 943.188 97.9258 939.186 L100.26 939.186 Q100.038 946.93 100.038 947.671 Q100.038 948.264 100.26 956.231 Z" fill="#000000" fill-rule="nonzero" fill-opacity="1" /><path clip-path="url(#clip700)" d="M83.5485 893.386 Q76.3968 893.386 71.3203 888.791 Q66.2438 884.196 66.2438 877.6 Q66.2438 870.93 70.5792 867.484 Q74.9146 864.001 81.1399 864.001 Q82.2886 864.001 82.5109 864.298 Q82.7332 864.594 82.7332 865.891 L82.7332 887.086 Q90.4778 887.086 94.1091 884.789 Q99.1857 881.602 99.1857 876.229 Q99.1857 875.488 99.0375 874.599 Q98.8892 873.71 98.2593 871.894 Q97.5923 870.078 95.8507 868.485 Q94.1091 866.891 91.3671 865.965 Q90.2925 865.743 90.3295 865.002 Q90.3295 864.001 91.2189 864.001 Q91.8858 864.001 93.4051 864.742 Q94.8873 865.446 96.6659 866.817 Q98.4446 868.188 99.7786 870.856 Q101.113 873.487 101.113 876.674 Q101.113 883.344 96.0731 888.383 Q90.9965 893.386 83.5485 893.386 M81.1399 887.012 L81.1399 869.004 Q79.5465 869.004 77.7679 869.3 Q75.9892 869.559 73.5436 870.375 Q71.0609 871.153 69.5046 873.005 Q67.9483 874.858 67.9483 877.6 Q67.9483 878.823 68.4671 880.157 Q68.9858 881.454 70.2457 883.047 Q71.5056 884.641 74.3588 885.752 Q77.212 886.864 81.1399 887.012 Z" fill="#000000" fill-rule="nonzero" fill-opacity="1" /><path clip-path="url(#clip700)" d="M81.2881 829.058 Q68.4671 829.058 58.1287 824.278 Q53.7933 822.24 50.1619 819.387 Q46.5305 816.534 44.9371 814.644 Q43.3437 812.754 43.3437 812.235 Q43.3437 811.494 44.0848 811.457 Q44.4554 811.457 45.3818 812.458 Q57.8323 824.686 81.2881 824.649 Q104.818 824.649 116.787 812.754 Q118.084 811.457 118.491 811.457 Q119.232 811.457 119.232 812.235 Q119.232 812.754 117.713 814.57 Q116.194 816.385 112.711 819.202 Q109.228 822.018 104.966 824.056 Q94.6279 829.058 81.2881 829.058 Z" fill="#000000" fill-rule="nonzero" fill-opacity="1" /><path clip-path="url(#clip700)" d="M99.2598 804.639 L89.2549 804.639 Q88.4027 804.639 88.1062 804.602 Q87.8098 804.565 87.5875 804.342 Q87.3651 804.12 87.3651 803.675 Q87.3651 803.157 87.5875 802.971 Q87.8098 802.749 88.6621 802.601 Q93.8868 801.452 96.6659 799.007 Q99.408 796.524 99.408 792.04 Q99.408 787.779 97.5182 785.63 Q95.6284 783.481 92.5158 783.481 Q86.9575 783.481 85.5494 791.373 Q84.6231 795.931 84.0302 797.821 Q83.4002 799.711 82.0292 801.378 Q79.3612 804.639 75.5816 804.639 Q71.802 804.639 69.0229 801.786 Q66.2438 798.895 66.2438 792.522 Q66.2438 788.261 68.3929 785.37 Q67.726 784.518 67.1701 784.073 Q66.2438 783.073 66.2438 782.554 Q66.2438 781.961 66.6514 781.85 Q67.0219 781.739 68.0965 781.739 L75.7298 781.739 Q76.5821 781.739 76.8786 781.776 Q77.175 781.813 77.3973 782.035 Q77.5826 782.258 77.5826 782.739 Q77.5826 783.592 76.8786 783.629 Q67.6889 784.222 67.6889 792.522 Q67.6889 797.006 69.4305 799.007 Q71.135 801.008 73.4695 801.008 Q74.7664 801.008 75.7669 800.415 Q76.7303 799.785 77.3232 799.007 Q77.879 798.191 78.4349 796.709 Q78.9536 795.227 79.1389 794.338 Q79.3242 793.411 79.6947 791.67 Q80.8434 785.593 83.3261 783.036 Q86.5129 779.849 90.5519 779.849 Q95.0355 779.849 98.074 782.888 Q101.113 785.926 101.113 792.04 Q101.113 796.969 97.8147 800.415 Q98.2593 800.859 98.6669 801.193 Q99.0375 801.526 99.1857 801.675 Q99.3339 801.786 99.4451 801.823 Q99.5192 801.86 99.5933 801.934 Q101.113 803.453 101.113 803.824 Q101.113 804.417 100.705 804.528 Q100.334 804.639 99.2598 804.639 Z" fill="#000000" fill-rule="nonzero" fill-opacity="1" /><path clip-path="url(#clip700)" d="M118.491 772.957 Q118.121 772.957 117.194 771.993 Q104.744 759.765 81.2881 759.765 Q57.7582 759.765 45.8635 771.512 Q44.4924 772.957 44.0848 772.957 Q43.3437 772.957 43.3437 772.216 Q43.3437 771.697 44.863 769.881 Q46.3823 768.029 49.8654 765.249 Q53.3486 762.433 57.6099 760.358 Q67.9483 755.356 81.2881 755.356 Q94.1091 755.356 104.448 760.136 Q108.783 762.174 112.414 765.027 Q116.046 767.88 117.639 769.77 Q119.232 771.66 119.232 772.216 Q119.232 772.957 118.491 772.957 Z" fill="#000000" fill-rule="nonzero" fill-opacity="1" /><polyline clip-path="url(#clip702)" style="stroke:#0000ff; stroke-linecap:round; stroke-linejoin:round; stroke-width:12; stroke-opacity:1; fill:none" points="2722.76,1262.4 2018.27,988.298 1299.41,708.846 640.28,435.645 760.533,154.574 "/>
<line clip-path="url(#clip702)" x1="2722.76" y1="1262.4" x2="2722.76" y2="1246.4" style="stroke:#0000ff; stroke-width:12; stroke-opacity:1"/>
<line clip-path="url(#clip702)" x1="2722.76" y1="1262.4" x2="2706.76" y2="1262.4" style="stroke:#0000ff; stroke-width:12; stroke-opacity:1"/>
<line clip-path="url(#clip702)" x1="2722.76" y1="1262.4" x2="2722.76" y2="1278.4" style="stroke:#0000ff; stroke-width:12; stroke-opacity:1"/>
<line clip-path="url(#clip702)" x1="2722.76" y1="1262.4" x2="2738.76" y2="1262.4" style="stroke:#0000ff; stroke-width:12; stroke-opacity:1"/>
<line clip-path="url(#clip702)" x1="2018.27" y1="988.298" x2="2018.27" y2="972.298" style="stroke:#0000ff; stroke-width:12; stroke-opacity:1"/>
<line clip-path="url(#clip702)" x1="2018.27" y1="988.298" x2="2002.27" y2="988.298" style="stroke:#0000ff; stroke-width:12; stroke-opacity:1"/>
<line clip-path="url(#clip702)" x1="2018.27" y1="988.298" x2="2018.27" y2="1004.3" style="stroke:#0000ff; stroke-width:12; stroke-opacity:1"/>
<line clip-path="url(#clip702)" x1="2018.27" y1="988.298" x2="2034.27" y2="988.298" style="stroke:#0000ff; stroke-width:12; stroke-opacity:1"/>
<line clip-path="url(#clip702)" x1="1299.41" y1="708.846" x2="1299.41" y2="692.846" style="stroke:#0000ff; stroke-width:12; stroke-opacity:1"/>
<line clip-path="url(#clip702)" x1="1299.41" y1="708.846" x2="1283.41" y2="708.846" style="stroke:#0000ff; stroke-width:12; stroke-opacity:1"/>
<line clip-path="url(#clip702)" x1="1299.41" y1="708.846" x2="1299.41" y2="724.846" style="stroke:#0000ff; stroke-width:12; stroke-opacity:1"/>
<line clip-path="url(#clip702)" x1="1299.41" y1="708.846" x2="1315.41" y2="708.846" style="stroke:#0000ff; stroke-width:12; stroke-opacity:1"/>
<line clip-path="url(#clip702)" x1="640.28" y1="435.645" x2="640.28" y2="419.645" style="stroke:#0000ff; stroke-width:12; stroke-opacity:1"/>
<line clip-path="url(#clip702)" x1="640.28" y1="435.645" x2="624.28" y2="435.645" style="stroke:#0000ff; stroke-width:12; stroke-opacity:1"/>
<line clip-path="url(#clip702)" x1="640.28" y1="435.645" x2="640.28" y2="451.645" style="stroke:#0000ff; stroke-width:12; stroke-opacity:1"/>
<line clip-path="url(#clip702)" x1="640.28" y1="435.645" x2="656.28" y2="435.645" style="stroke:#0000ff; stroke-width:12; stroke-opacity:1"/>
<line clip-path="url(#clip702)" x1="760.533" y1="154.574" x2="760.533" y2="138.574" style="stroke:#0000ff; stroke-width:12; stroke-opacity:1"/>
<line clip-path="url(#clip702)" x1="760.533" y1="154.574" x2="744.533" y2="154.574" style="stroke:#0000ff; stroke-width:12; stroke-opacity:1"/>
<line clip-path="url(#clip702)" x1="760.533" y1="154.574" x2="760.533" y2="170.574" style="stroke:#0000ff; stroke-width:12; stroke-opacity:1"/>
<line clip-path="url(#clip702)" x1="760.533" y1="154.574" x2="776.533" y2="154.574" style="stroke:#0000ff; stroke-width:12; stroke-opacity:1"/>
<polyline clip-path="url(#clip702)" style="stroke:#7f007f; stroke-linecap:round; stroke-linejoin:round; stroke-width:12; stroke-opacity:1; fill:none" points="2333.09,1607.68 1549.8,1394.33 433.346,1202.51 754.671,983.332 760.615,763.024 "/>
<circle clip-path="url(#clip702)" cx="2333.09" cy="1607.68" r="14.4" fill="#7f007f" fill-rule="evenodd" fill-opacity="1" stroke="#000000" stroke-opacity="1" stroke-width="1.92"/>
<circle clip-path="url(#clip702)" cx="1549.8" cy="1394.33" r="14.4" fill="#7f007f" fill-rule="evenodd" fill-opacity="1" stroke="#000000" stroke-opacity="1" stroke-width="1.92"/>
<circle clip-path="url(#clip702)" cx="433.346" cy="1202.51" r="14.4" fill="#7f007f" fill-rule="evenodd" fill-opacity="1" stroke="#000000" stroke-opacity="1" stroke-width="1.92"/>
<circle clip-path="url(#clip702)" cx="754.671" cy="983.332" r="14.4" fill="#7f007f" fill-rule="evenodd" fill-opacity="1" stroke="#000000" stroke-opacity="1" stroke-width="1.92"/>
<circle clip-path="url(#clip702)" cx="760.615" cy="763.024" r="14.4" fill="#7f007f" fill-rule="evenodd" fill-opacity="1" stroke="#000000" stroke-opacity="1" stroke-width="1.92"/>
<polyline clip-path="url(#clip702)" style="stroke:#ff0000; stroke-linecap:round; stroke-linejoin:round; stroke-width:12; stroke-opacity:1; fill:none" points="2352.13,1632.49 1053.81,1566.53 718.024,1395.03 757.194,1215.41 760.179,1035.38 "/>
<line clip-path="url(#clip702)" x1="2352.13" y1="1632.49" x2="2352.13" y2="1616.49" style="stroke:#ff0000; stroke-width:12; stroke-opacity:1"/>
<line clip-path="url(#clip702)" x1="2352.13" y1="1632.49" x2="2336.13" y2="1632.49" style="stroke:#ff0000; stroke-width:12; stroke-opacity:1"/>
<line clip-path="url(#clip702)" x1="2352.13" y1="1632.49" x2="2352.13" y2="1648.49" style="stroke:#ff0000; stroke-width:12; stroke-opacity:1"/>
<line clip-path="url(#clip702)" x1="2352.13" y1="1632.49" x2="2368.13" y2="1632.49" style="stroke:#ff0000; stroke-width:12; stroke-opacity:1"/>
<line clip-path="url(#clip702)" x1="1053.81" y1="1566.53" x2="1053.81" y2="1550.53" style="stroke:#ff0000; stroke-width:12; stroke-opacity:1"/>
<line clip-path="url(#clip702)" x1="1053.81" y1="1566.53" x2="1037.81" y2="1566.53" style="stroke:#ff0000; stroke-width:12; stroke-opacity:1"/>
<line clip-path="url(#clip702)" x1="1053.81" y1="1566.53" x2="1053.81" y2="1582.53" style="stroke:#ff0000; stroke-width:12; stroke-opacity:1"/>
<line clip-path="url(#clip702)" x1="1053.81" y1="1566.53" x2="1069.81" y2="1566.53" style="stroke:#ff0000; stroke-width:12; stroke-opacity:1"/>
<line clip-path="url(#clip702)" x1="718.024" y1="1395.03" x2="718.024" y2="1379.03" style="stroke:#ff0000; stroke-width:12; stroke-opacity:1"/>
<line clip-path="url(#clip702)" x1="718.024" y1="1395.03" x2="702.024" y2="1395.03" style="stroke:#ff0000; stroke-width:12; stroke-opacity:1"/>
<line clip-path="url(#clip702)" x1="718.024" y1="1395.03" x2="718.024" y2="1411.03" style="stroke:#ff0000; stroke-width:12; stroke-opacity:1"/>
<line clip-path="url(#clip702)" x1="718.024" y1="1395.03" x2="734.024" y2="1395.03" style="stroke:#ff0000; stroke-width:12; stroke-opacity:1"/>
<line clip-path="url(#clip702)" x1="757.194" y1="1215.41" x2="757.194" y2="1199.41" style="stroke:#ff0000; stroke-width:12; stroke-opacity:1"/>
<line clip-path="url(#clip702)" x1="757.194" y1="1215.41" x2="741.194" y2="1215.41" style="stroke:#ff0000; stroke-width:12; stroke-opacity:1"/>
<line clip-path="url(#clip702)" x1="757.194" y1="1215.41" x2="757.194" y2="1231.41" style="stroke:#ff0000; stroke-width:12; stroke-opacity:1"/>
<line clip-path="url(#clip702)" x1="757.194" y1="1215.41" x2="773.194" y2="1215.41" style="stroke:#ff0000; stroke-width:12; stroke-opacity:1"/>
<line clip-path="url(#clip702)" x1="760.179" y1="1035.38" x2="760.179" y2="1019.38" style="stroke:#ff0000; stroke-width:12; stroke-opacity:1"/>
<line clip-path="url(#clip702)" x1="760.179" y1="1035.38" x2="744.179" y2="1035.38" style="stroke:#ff0000; stroke-width:12; stroke-opacity:1"/>
<line clip-path="url(#clip702)" x1="760.179" y1="1035.38" x2="760.179" y2="1051.38" style="stroke:#ff0000; stroke-width:12; stroke-opacity:1"/>
<line clip-path="url(#clip702)" x1="760.179" y1="1035.38" x2="776.179" y2="1035.38" style="stroke:#ff0000; stroke-width:12; stroke-opacity:1"/>
<path clip-path="url(#clip700)" d="M2890.81 369.816 L3345.76 369.816 L3345.76 162.456 L2890.81 162.456  Z" fill="#ffffff" fill-rule="evenodd" fill-opacity="1"/>
<polyline clip-path="url(#clip700)" style="stroke:#000000; stroke-linecap:round; stroke-linejoin:round; stroke-width:4; stroke-opacity:1; fill:none" points="2890.81,369.816 3345.76,369.816 3345.76,162.456 2890.81,162.456 2890.81,369.816 "/>
<polyline clip-path="url(#clip700)" style="stroke:#0000ff; stroke-linecap:round; stroke-linejoin:round; stroke-width:12; stroke-opacity:1; fill:none" points="2923.94,214.296 3122.68,214.296 "/>
<line clip-path="url(#clip700)" x1="3023.31" y1="214.296" x2="3023.31" y2="190.202" style="stroke:#0000ff; stroke-width:12; stroke-opacity:1"/>
<line clip-path="url(#clip700)" x1="3023.31" y1="214.296" x2="2999.21" y2="214.296" style="stroke:#0000ff; stroke-width:12; stroke-opacity:1"/>
<line clip-path="url(#clip700)" x1="3023.31" y1="214.296" x2="3023.31" y2="238.39" style="stroke:#0000ff; stroke-width:12; stroke-opacity:1"/>
<line clip-path="url(#clip700)" x1="3023.31" y1="214.296" x2="3047.4" y2="214.296" style="stroke:#0000ff; stroke-width:12; stroke-opacity:1"/>
<path clip-path="url(#clip700)" d="M3155.8 231.576 L3155.8 230.02 L3157.01 230.02 Q3159.75 230.02 3160.37 229.575 Q3161.01 229.106 3161.01 227.624 L3161.01 201.117 Q3161.01 199.659 3160.37 199.215 Q3159.73 198.745 3157.01 198.745 L3155.8 198.745 L3155.8 197.164 L3184.28 197.164 L3185.69 208.553 L3184.43 208.553 Q3184.08 205.662 3183.61 204.007 Q3183.17 202.327 3182.06 201.043 Q3180.97 199.758 3179.17 199.264 Q3177.39 198.745 3174.5 198.745 L3167.98 198.745 Q3166.25 198.745 3165.88 199.116 Q3165.51 199.462 3165.51 200.771 L3165.51 212.9 L3170.05 212.9 Q3173.54 212.9 3174.52 211.69 Q3175.51 210.479 3175.51 206.996 L3176.8 206.996 L3176.8 220.385 L3175.51 220.385 Q3175.51 216.952 3174.52 215.717 Q3173.54 214.481 3170.05 214.481 L3165.51 214.481 L3165.51 227.994 Q3165.51 229.303 3165.88 229.674 Q3166.27 230.02 3167.98 230.02 L3174.72 230.02 Q3176.9 230.02 3178.48 229.748 Q3180.08 229.452 3181.19 228.76 Q3182.31 228.043 3183.05 227.228 Q3183.81 226.413 3184.33 224.956 Q3184.87 223.473 3185.17 222.115 Q3185.49 220.756 3185.84 218.533 L3187.1 218.533 L3184.97 231.576 L3155.8 231.576 Z" fill="#000000" fill-rule="nonzero" fill-opacity="1" /><path clip-path="url(#clip700)" d="M3190.19 231.576 L3190.19 230.02 L3191.4 230.02 Q3194.14 230.02 3194.76 229.575 Q3195.4 229.106 3195.4 227.624 L3195.4 200.969 Q3195.4 199.511 3194.76 199.066 Q3194.11 198.597 3191.4 198.597 L3190.19 198.597 L3190.19 197.016 Q3191.96 197.164 3197.67 197.164 Q3203.33 197.164 3205.11 197.016 L3205.11 198.597 L3203.9 198.597 Q3201.15 198.597 3200.51 199.066 Q3199.89 199.511 3199.89 200.969 L3199.89 217.05 L3215.73 201.932 Q3216.64 201.117 3216.64 200.252 Q3216.64 199.956 3216.49 199.635 Q3216.37 199.289 3215.78 198.943 Q3215.21 198.597 3214.3 198.597 L3214.3 197.016 Q3216.03 197.164 3220.74 197.164 Q3223.73 197.164 3225.04 197.016 L3225.04 198.597 Q3220.84 198.646 3217.85 201.636 L3208.74 210.381 L3220.42 227.574 Q3221.49 229.13 3222.52 229.575 Q3223.56 230.02 3225.73 230.02 L3225.73 231.576 Q3222.55 231.428 3219.93 231.428 Q3214.47 231.428 3212.69 231.576 L3212.69 230.02 Q3215.68 230.02 3215.68 228.488 Q3215.68 227.92 3214.91 226.759 L3205.75 213.221 L3199.89 218.78 L3199.89 227.624 Q3199.89 229.081 3200.51 229.55 Q3201.15 230.02 3203.9 230.02 L3205.11 230.02 L3205.11 231.576 Q3203.33 231.428 3197.62 231.428 Q3191.96 231.428 3190.19 231.576 Z" fill="#000000" fill-rule="nonzero" fill-opacity="1" /><path clip-path="url(#clip700)" d="M3232.31 202.698 L3232.31 201.117 Q3238.38 201.117 3241.52 197.881 Q3242.38 197.881 3242.53 198.078 Q3242.68 198.276 3242.68 199.19 L3242.68 227.574 Q3242.68 229.081 3243.42 229.55 Q3244.16 230.02 3247.4 230.02 L3249 230.02 L3249 231.576 Q3247.23 231.428 3240.8 231.428 Q3234.38 231.428 3232.63 231.576 L3232.63 230.02 L3234.23 230.02 Q3237.42 230.02 3238.18 229.575 Q3238.95 229.106 3238.95 227.574 L3238.95 201.364 Q3236.31 202.698 3232.31 202.698 Z" fill="#000000" fill-rule="nonzero" fill-opacity="1" /><path clip-path="url(#clip700)" d="M3258.12 218.928 Q3258.12 210.381 3261.31 203.488 Q3262.67 200.598 3264.57 198.177 Q3266.47 195.756 3267.73 194.694 Q3268.99 193.632 3269.34 193.632 Q3269.83 193.632 3269.85 194.126 Q3269.85 194.373 3269.19 194.99 Q3261.04 203.291 3261.06 218.928 Q3261.06 234.615 3268.99 242.594 Q3269.85 243.458 3269.85 243.73 Q3269.85 244.224 3269.34 244.224 Q3268.99 244.224 3267.78 243.211 Q3266.57 242.199 3264.69 239.876 Q3262.81 237.554 3261.46 234.713 Q3258.12 227.821 3258.12 218.928 Z" fill="#000000" fill-rule="nonzero" fill-opacity="1" /><path clip-path="url(#clip700)" d="M3275.24 231.576 Q3275.24 230.662 3275.31 230.39 Q3275.41 230.119 3275.81 229.699 L3285.52 218.879 Q3290.83 212.9 3290.83 207.688 Q3290.83 204.304 3289.05 201.883 Q3287.29 199.462 3284.06 199.462 Q3281.84 199.462 3279.96 200.82 Q3278.08 202.179 3277.22 204.6 Q3277.36 204.551 3277.88 204.551 Q3279.14 204.551 3279.83 205.341 Q3280.55 206.132 3280.55 207.194 Q3280.55 208.553 3279.66 209.22 Q3278.8 209.862 3277.93 209.862 Q3277.59 209.862 3277.12 209.788 Q3276.67 209.714 3275.96 209.022 Q3275.24 208.306 3275.24 207.046 Q3275.24 203.513 3277.91 200.697 Q3280.6 197.881 3284.7 197.881 Q3289.35 197.881 3292.38 200.647 Q3295.45 203.39 3295.45 207.688 Q3295.45 209.195 3294.98 210.578 Q3294.53 211.937 3293.92 212.999 Q3293.32 214.061 3291.69 215.766 Q3290.06 217.47 3288.75 218.681 Q3287.44 219.891 3284.5 222.461 L3279.14 227.673 L3288.26 227.673 Q3292.7 227.673 3293.05 227.278 Q3293.54 226.561 3294.16 222.782 L3295.45 222.782 L3294.01 231.576 L3275.24 231.576 Z" fill="#000000" fill-rule="nonzero" fill-opacity="1" /><path clip-path="url(#clip700)" d="M3300.91 243.73 Q3300.91 243.483 3301.55 242.866 Q3309.7 234.565 3309.7 218.928 Q3309.7 203.241 3301.87 195.312 Q3300.91 194.398 3300.91 194.126 Q3300.91 193.632 3301.4 193.632 Q3301.75 193.632 3302.96 194.645 Q3304.19 195.657 3306.04 197.98 Q3307.92 200.302 3309.31 203.143 Q3312.64 210.035 3312.64 218.928 Q3312.64 227.475 3309.45 234.368 Q3308.1 237.258 3306.19 239.679 Q3304.29 242.1 3303.03 243.162 Q3301.77 244.224 3301.4 244.224 Q3300.91 244.224 3300.91 243.73 Z" fill="#000000" fill-rule="nonzero" fill-opacity="1" /><polyline clip-path="url(#clip700)" style="stroke:#7f007f; stroke-linecap:round; stroke-linejoin:round; stroke-width:12; stroke-opacity:1; fill:none" points="2923.94,266.136 3122.68,266.136 "/>
<circle clip-path="url(#clip700)" cx="3023.31" cy="266.136" r="21.6847" fill="#7f007f" fill-rule="evenodd" fill-opacity="1" stroke="#000000" stroke-opacity="1" stroke-width="2.89129"/>
<path clip-path="url(#clip700)" d="M3155.8 283.416 L3155.8 281.86 L3157.01 281.86 Q3159.75 281.86 3160.37 281.415 Q3161.01 280.946 3161.01 279.464 L3161.01 252.957 Q3161.01 251.499 3160.37 251.055 Q3159.73 250.585 3157.01 250.585 L3155.8 250.585 L3155.8 249.004 L3184.28 249.004 L3185.69 260.393 L3184.43 260.393 Q3184.08 257.502 3183.61 255.847 Q3183.17 254.167 3182.06 252.883 Q3180.97 251.598 3179.17 251.104 Q3177.39 250.585 3174.5 250.585 L3167.98 250.585 Q3166.25 250.585 3165.88 250.956 Q3165.51 251.302 3165.51 252.611 L3165.51 264.74 L3170.05 264.74 Q3173.54 264.74 3174.52 263.53 Q3175.51 262.319 3175.51 258.836 L3176.8 258.836 L3176.8 272.225 L3175.51 272.225 Q3175.51 268.792 3174.52 267.557 Q3173.54 266.321 3170.05 266.321 L3165.51 266.321 L3165.51 279.834 Q3165.51 281.143 3165.88 281.514 Q3166.27 281.86 3167.98 281.86 L3174.72 281.86 Q3176.9 281.86 3178.48 281.588 Q3180.08 281.292 3181.19 280.6 Q3182.31 279.883 3183.05 279.068 Q3183.81 278.253 3184.33 276.796 Q3184.87 275.313 3185.17 273.955 Q3185.49 272.596 3185.84 270.373 L3187.1 270.373 L3184.97 283.416 L3155.8 283.416 Z" fill="#000000" fill-rule="nonzero" fill-opacity="1" /><path clip-path="url(#clip700)" d="M3190.19 283.416 L3190.19 281.86 L3191.4 281.86 Q3194.14 281.86 3194.76 281.415 Q3195.4 280.946 3195.4 279.464 L3195.4 252.809 Q3195.4 251.351 3194.76 250.906 Q3194.11 250.437 3191.4 250.437 L3190.19 250.437 L3190.19 248.856 Q3191.96 249.004 3197.67 249.004 Q3203.33 249.004 3205.11 248.856 L3205.11 250.437 L3203.9 250.437 Q3201.15 250.437 3200.51 250.906 Q3199.89 251.351 3199.89 252.809 L3199.89 268.89 L3215.73 253.772 Q3216.64 252.957 3216.64 252.092 Q3216.64 251.796 3216.49 251.475 Q3216.37 251.129 3215.78 250.783 Q3215.21 250.437 3214.3 250.437 L3214.3 248.856 Q3216.03 249.004 3220.74 249.004 Q3223.73 249.004 3225.04 248.856 L3225.04 250.437 Q3220.84 250.486 3217.85 253.476 L3208.74 262.221 L3220.42 279.414 Q3221.49 280.97 3222.52 281.415 Q3223.56 281.86 3225.73 281.86 L3225.73 283.416 Q3222.55 283.268 3219.93 283.268 Q3214.47 283.268 3212.69 283.416 L3212.69 281.86 Q3215.68 281.86 3215.68 280.328 Q3215.68 279.76 3214.91 278.599 L3205.75 265.061 L3199.89 270.62 L3199.89 279.464 Q3199.89 280.921 3200.51 281.39 Q3201.15 281.86 3203.9 281.86 L3205.11 281.86 L3205.11 283.416 Q3203.33 283.268 3197.62 283.268 Q3191.96 283.268 3190.19 283.416 Z" fill="#000000" fill-rule="nonzero" fill-opacity="1" /><path clip-path="url(#clip700)" d="M3232.31 254.538 L3232.31 252.957 Q3238.38 252.957 3241.52 249.721 Q3242.38 249.721 3242.53 249.918 Q3242.68 250.116 3242.68 251.03 L3242.68 279.414 Q3242.68 280.921 3243.42 281.39 Q3244.16 281.86 3247.4 281.86 L3249 281.86 L3249 283.416 Q3247.23 283.268 3240.8 283.268 Q3234.38 283.268 3232.63 283.416 L3232.63 281.86 L3234.23 281.86 Q3237.42 281.86 3238.18 281.415 Q3238.95 280.946 3238.95 279.414 L3238.95 253.204 Q3236.31 254.538 3232.31 254.538 Z" fill="#000000" fill-rule="nonzero" fill-opacity="1" /><path clip-path="url(#clip700)" d="M3258.12 270.768 Q3258.12 262.221 3261.31 255.328 Q3262.67 252.438 3264.57 250.017 Q3266.47 247.596 3267.73 246.534 Q3268.99 245.472 3269.34 245.472 Q3269.83 245.472 3269.85 245.966 Q3269.85 246.213 3269.19 246.83 Q3261.04 255.131 3261.06 270.768 Q3261.06 286.455 3268.99 294.434 Q3269.85 295.298 3269.85 295.57 Q3269.85 296.064 3269.34 296.064 Q3268.99 296.064 3267.78 295.051 Q3266.57 294.039 3264.69 291.716 Q3262.81 289.394 3261.46 286.553 Q3258.12 279.661 3258.12 270.768 Z" fill="#000000" fill-rule="nonzero" fill-opacity="1" /><path clip-path="url(#clip700)" d="M3274.84 276.598 Q3274.84 275.091 3275.71 274.375 Q3276.57 273.658 3277.69 273.658 Q3278.85 273.658 3279.66 274.424 Q3280.5 275.165 3280.5 276.474 Q3280.5 277.883 3279.51 278.673 Q3278.55 279.464 3277.17 279.266 Q3278.38 281.292 3280.6 282.206 Q3282.85 283.12 3284.92 283.12 Q3287.1 283.12 3288.85 281.242 Q3290.63 279.365 3290.63 274.77 Q3290.63 270.867 3289.1 268.619 Q3287.59 266.371 3284.6 266.371 L3282.38 266.371 Q3281.61 266.371 3281.39 266.297 Q3281.17 266.223 3281.17 265.803 Q3281.17 265.309 3281.93 265.21 Q3282.7 265.21 3283.91 265.061 Q3286.85 264.963 3288.41 262.418 Q3289.81 260.047 3289.81 256.662 Q3289.81 253.574 3288.33 252.29 Q3286.87 250.981 3284.97 250.981 Q3283.19 250.981 3281.24 251.722 Q3279.29 252.463 3278.23 254.118 Q3281.37 254.118 3281.37 256.662 Q3281.37 257.774 3280.65 258.515 Q3279.96 259.231 3278.8 259.231 Q3277.69 259.231 3276.94 258.54 Q3276.2 257.823 3276.2 256.613 Q3276.2 253.723 3278.77 251.722 Q3281.37 249.721 3285.17 249.721 Q3288.93 249.721 3291.69 251.697 Q3294.48 253.673 3294.48 256.712 Q3294.48 259.701 3292.51 262.146 Q3290.53 264.592 3287.39 265.605 Q3291.25 266.371 3293.54 268.989 Q3295.84 271.583 3295.84 274.77 Q3295.84 278.722 3292.73 281.637 Q3289.62 284.528 3285.07 284.528 Q3280.87 284.528 3277.86 282.255 Q3274.84 279.982 3274.84 276.598 Z" fill="#000000" fill-rule="nonzero" fill-opacity="1" /><path clip-path="url(#clip700)" d="M3300.91 295.57 Q3300.91 295.323 3301.55 294.706 Q3309.7 286.405 3309.7 270.768 Q3309.7 255.081 3301.87 247.152 Q3300.91 246.238 3300.91 245.966 Q3300.91 245.472 3301.4 245.472 Q3301.75 245.472 3302.96 246.485 Q3304.19 247.497 3306.04 249.82 Q3307.92 252.142 3309.31 254.983 Q3312.64 261.875 3312.64 270.768 Q3312.64 279.315 3309.45 286.208 Q3308.1 289.098 3306.19 291.519 Q3304.29 293.94 3303.03 295.002 Q3301.77 296.064 3301.4 296.064 Q3300.91 296.064 3300.91 295.57 Z" fill="#000000" fill-rule="nonzero" fill-opacity="1" /><polyline clip-path="url(#clip700)" style="stroke:#ff0000; stroke-linecap:round; stroke-linejoin:round; stroke-width:12; stroke-opacity:1; fill:none" points="2923.94,317.976 3122.68,317.976 "/>
<line clip-path="url(#clip700)" x1="3023.31" y1="317.976" x2="3023.31" y2="293.882" style="stroke:#ff0000; stroke-width:12; stroke-opacity:1"/>
<line clip-path="url(#clip700)" x1="3023.31" y1="317.976" x2="2999.21" y2="317.976" style="stroke:#ff0000; stroke-width:12; stroke-opacity:1"/>
<line clip-path="url(#clip700)" x1="3023.31" y1="317.976" x2="3023.31" y2="342.07" style="stroke:#ff0000; stroke-width:12; stroke-opacity:1"/>
<line clip-path="url(#clip700)" x1="3023.31" y1="317.976" x2="3047.4" y2="317.976" style="stroke:#ff0000; stroke-width:12; stroke-opacity:1"/>
<path clip-path="url(#clip700)" d="M3155.8 335.256 L3155.8 333.7 L3157.01 333.7 Q3159.75 333.7 3160.37 333.255 Q3161.01 332.786 3161.01 331.304 L3161.01 304.797 Q3161.01 303.339 3160.37 302.895 Q3159.73 302.425 3157.01 302.425 L3155.8 302.425 L3155.8 300.844 L3184.28 300.844 L3185.69 312.233 L3184.43 312.233 Q3184.08 309.342 3183.61 307.687 Q3183.17 306.007 3182.06 304.723 Q3180.97 303.438 3179.17 302.944 Q3177.39 302.425 3174.5 302.425 L3167.98 302.425 Q3166.25 302.425 3165.88 302.796 Q3165.51 303.142 3165.51 304.451 L3165.51 316.58 L3170.05 316.58 Q3173.54 316.58 3174.52 315.37 Q3175.51 314.159 3175.51 310.676 L3176.8 310.676 L3176.8 324.065 L3175.51 324.065 Q3175.51 320.632 3174.52 319.397 Q3173.54 318.161 3170.05 318.161 L3165.51 318.161 L3165.51 331.674 Q3165.51 332.983 3165.88 333.354 Q3166.27 333.7 3167.98 333.7 L3174.72 333.7 Q3176.9 333.7 3178.48 333.428 Q3180.08 333.132 3181.19 332.44 Q3182.31 331.723 3183.05 330.908 Q3183.81 330.093 3184.33 328.636 Q3184.87 327.153 3185.17 325.795 Q3185.49 324.436 3185.84 322.213 L3187.1 322.213 L3184.97 335.256 L3155.8 335.256 Z" fill="#000000" fill-rule="nonzero" fill-opacity="1" /><path clip-path="url(#clip700)" d="M3190.19 335.256 L3190.19 333.7 L3191.4 333.7 Q3194.14 333.7 3194.76 333.255 Q3195.4 332.786 3195.4 331.304 L3195.4 304.649 Q3195.4 303.191 3194.76 302.746 Q3194.11 302.277 3191.4 302.277 L3190.19 302.277 L3190.19 300.696 Q3191.96 300.844 3197.67 300.844 Q3203.33 300.844 3205.11 300.696 L3205.11 302.277 L3203.9 302.277 Q3201.15 302.277 3200.51 302.746 Q3199.89 303.191 3199.89 304.649 L3199.89 320.73 L3215.73 305.612 Q3216.64 304.797 3216.64 303.932 Q3216.64 303.636 3216.49 303.315 Q3216.37 302.969 3215.78 302.623 Q3215.21 302.277 3214.3 302.277 L3214.3 300.696 Q3216.03 300.844 3220.74 300.844 Q3223.73 300.844 3225.04 300.696 L3225.04 302.277 Q3220.84 302.326 3217.85 305.316 L3208.74 314.061 L3220.42 331.254 Q3221.49 332.81 3222.52 333.255 Q3223.56 333.7 3225.73 333.7 L3225.73 335.256 Q3222.55 335.108 3219.93 335.108 Q3214.47 335.108 3212.69 335.256 L3212.69 333.7 Q3215.68 333.7 3215.68 332.168 Q3215.68 331.6 3214.91 330.439 L3205.75 316.901 L3199.89 322.46 L3199.89 331.304 Q3199.89 332.761 3200.51 333.23 Q3201.15 333.7 3203.9 333.7 L3205.11 333.7 L3205.11 335.256 Q3203.33 335.108 3197.62 335.108 Q3191.96 335.108 3190.19 335.256 Z" fill="#000000" fill-rule="nonzero" fill-opacity="1" /><path clip-path="url(#clip700)" d="M3232.31 306.378 L3232.31 304.797 Q3238.38 304.797 3241.52 301.561 Q3242.38 301.561 3242.53 301.758 Q3242.68 301.956 3242.68 302.87 L3242.68 331.254 Q3242.68 332.761 3243.42 333.23 Q3244.16 333.7 3247.4 333.7 L3249 333.7 L3249 335.256 Q3247.23 335.108 3240.8 335.108 Q3234.38 335.108 3232.63 335.256 L3232.63 333.7 L3234.23 333.7 Q3237.42 333.7 3238.18 333.255 Q3238.95 332.786 3238.95 331.254 L3238.95 305.044 Q3236.31 306.378 3232.31 306.378 Z" fill="#000000" fill-rule="nonzero" fill-opacity="1" /><path clip-path="url(#clip700)" d="M3258.12 322.608 Q3258.12 314.061 3261.31 307.168 Q3262.67 304.278 3264.57 301.857 Q3266.47 299.436 3267.73 298.374 Q3268.99 297.312 3269.34 297.312 Q3269.83 297.312 3269.85 297.806 Q3269.85 298.053 3269.19 298.67 Q3261.04 306.971 3261.06 322.608 Q3261.06 338.295 3268.99 346.274 Q3269.85 347.138 3269.85 347.41 Q3269.85 347.904 3269.34 347.904 Q3268.99 347.904 3267.78 346.891 Q3266.57 345.879 3264.69 343.556 Q3262.81 341.234 3261.46 338.393 Q3258.12 331.501 3258.12 322.608 Z" fill="#000000" fill-rule="nonzero" fill-opacity="1" /><path clip-path="url(#clip700)" d="M3274.13 326.906 L3274.13 325.35 L3289.67 301.61 Q3290.06 300.993 3290.68 301.017 Q3291.25 301.017 3291.37 301.24 Q3291.49 301.462 3291.49 302.326 L3291.49 325.35 L3296.56 325.35 L3296.56 326.906 L3291.49 326.906 L3291.49 331.304 Q3291.49 332.761 3292.09 333.23 Q3292.7 333.7 3295.32 333.7 L3296.39 333.7 L3296.39 335.256 Q3294.31 335.108 3289.52 335.108 Q3284.75 335.108 3282.68 335.256 L3282.68 333.7 L3283.74 333.7 Q3286.36 333.7 3286.97 333.255 Q3287.59 332.786 3287.59 331.304 L3287.59 326.906 L3274.13 326.906 M3275.56 325.35 L3287.89 325.35 L3287.89 306.477 L3275.56 325.35 Z" fill="#000000" fill-rule="nonzero" fill-opacity="1" /><path clip-path="url(#clip700)" d="M3300.91 347.41 Q3300.91 347.163 3301.55 346.546 Q3309.7 338.245 3309.7 322.608 Q3309.7 306.921 3301.87 298.992 Q3300.91 298.078 3300.91 297.806 Q3300.91 297.312 3301.4 297.312 Q3301.75 297.312 3302.96 298.325 Q3304.19 299.337 3306.04 301.66 Q3307.92 303.982 3309.31 306.823 Q3312.64 313.715 3312.64 322.608 Q3312.64 331.155 3309.45 338.048 Q3308.1 340.938 3306.19 343.359 Q3304.29 345.78 3303.03 346.842 Q3301.77 347.904 3301.4 347.904 Q3300.91 347.904 3300.91 347.41 Z" fill="#000000" fill-rule="nonzero" fill-opacity="1" /></svg>
