<?xml version="1.0" encoding="utf-8"?>
<svg xmlns="http://www.w3.org/2000/svg" xmlns:xlink="http://www.w3.org/1999/xlink" width="576" height="384" viewBox="0 0 2304 1536">
<defs>
  <clipPath id="clip170">
    <rect x="0" y="0" width="2304" height="1536"/>
  </clipPath>
</defs>
<path clip-path="url(#clip170)" d="M0 1536 L2304 1536 L2304 0 L0 0  Z" fill="#ffffff" fill-rule="evenodd" fill-opacity="1"/>
<defs>
  <clipPath id="clip171">
    <rect x="460" y="0" width="1614" height="1536"/>
  </clipPath>
</defs>
<path clip-path="url(#clip170)" d="M278.238 1280.22 L1836.11 1280.22 L1836.11 47.2441 L278.238 47.2441  Z" fill="#ffffff" fill-rule="evenodd" fill-opacity="1"/>
<defs>
  <clipPath id="clip172">
    <rect x="278" y="47" width="1559" height="1234"/>
  </clipPath>
</defs>
<polyline clip-path="url(#clip172)" style="stroke:#000000; stroke-linecap:round; stroke-linejoin:round; stroke-width:2.8; stroke-opacity:0.4; fill:none" points="430.996,1280.22 430.996,47.2441 "/>
<polyline clip-path="url(#clip172)" style="stroke:#000000; stroke-linecap:round; stroke-linejoin:round; stroke-width:2.8; stroke-opacity:0.4; fill:none" points="728.897,1280.22 728.897,47.2441 "/>
<polyline clip-path="url(#clip172)" style="stroke:#000000; stroke-linecap:round; stroke-linejoin:round; stroke-width:2.8; stroke-opacity:0.4; fill:none" points="1026.8,1280.22 1026.8,47.2441 "/>
<polyline clip-path="url(#clip172)" style="stroke:#000000; stroke-linecap:round; stroke-linejoin:round; stroke-width:2.8; stroke-opacity:0.4; fill:none" points="1324.7,1280.22 1324.7,47.2441 "/>
<polyline clip-path="url(#clip172)" style="stroke:#000000; stroke-linecap:round; stroke-linejoin:round; stroke-width:2.8; stroke-opacity:0.4; fill:none" points="1622.6,1280.22 1622.6,47.2441 "/>
<polyline clip-path="url(#clip172)" style="stroke:#000000; stroke-linecap:round; stroke-linejoin:round; stroke-width:2; stroke-opacity:0.06; fill:none" points="330.532,1280.22 330.532,47.2441 "/>
<polyline clip-path="url(#clip172)" style="stroke:#000000; stroke-linecap:round; stroke-linejoin:round; stroke-width:2; stroke-opacity:0.06; fill:none" points="373.257,1280.22 373.257,47.2441 "/>
<polyline clip-path="url(#clip172)" style="stroke:#000000; stroke-linecap:round; stroke-linejoin:round; stroke-width:2; stroke-opacity:0.06; fill:none" points="405.321,1280.22 405.321,47.2441 "/>
<polyline clip-path="url(#clip172)" style="stroke:#000000; stroke-linecap:round; stroke-linejoin:round; stroke-width:2; stroke-opacity:0.06; fill:none" points="564.205,1280.22 564.205,47.2441 "/>
<polyline clip-path="url(#clip172)" style="stroke:#000000; stroke-linecap:round; stroke-linejoin:round; stroke-width:2; stroke-opacity:0.06; fill:none" points="628.432,1280.22 628.432,47.2441 "/>
<polyline clip-path="url(#clip172)" style="stroke:#000000; stroke-linecap:round; stroke-linejoin:round; stroke-width:2; stroke-opacity:0.06; fill:none" points="671.158,1280.22 671.158,47.2441 "/>
<polyline clip-path="url(#clip172)" style="stroke:#000000; stroke-linecap:round; stroke-linejoin:round; stroke-width:2; stroke-opacity:0.06; fill:none" points="703.222,1280.22 703.222,47.2441 "/>
<polyline clip-path="url(#clip172)" style="stroke:#000000; stroke-linecap:round; stroke-linejoin:round; stroke-width:2; stroke-opacity:0.06; fill:none" points="862.105,1280.22 862.105,47.2441 "/>
<polyline clip-path="url(#clip172)" style="stroke:#000000; stroke-linecap:round; stroke-linejoin:round; stroke-width:2; stroke-opacity:0.06; fill:none" points="926.332,1280.22 926.332,47.2441 "/>
<polyline clip-path="url(#clip172)" style="stroke:#000000; stroke-linecap:round; stroke-linejoin:round; stroke-width:2; stroke-opacity:0.06; fill:none" points="969.058,1280.22 969.058,47.2441 "/>
<polyline clip-path="url(#clip172)" style="stroke:#000000; stroke-linecap:round; stroke-linejoin:round; stroke-width:2; stroke-opacity:0.06; fill:none" points="1001.12,1280.22 1001.12,47.2441 "/>
<polyline clip-path="url(#clip172)" style="stroke:#000000; stroke-linecap:round; stroke-linejoin:round; stroke-width:2; stroke-opacity:0.06; fill:none" points="1160.01,1280.22 1160.01,47.2441 "/>
<polyline clip-path="url(#clip172)" style="stroke:#000000; stroke-linecap:round; stroke-linejoin:round; stroke-width:2; stroke-opacity:0.06; fill:none" points="1224.23,1280.22 1224.23,47.2441 "/>
<polyline clip-path="url(#clip172)" style="stroke:#000000; stroke-linecap:round; stroke-linejoin:round; stroke-width:2; stroke-opacity:0.06; fill:none" points="1266.96,1280.22 1266.96,47.2441 "/>
<polyline clip-path="url(#clip172)" style="stroke:#000000; stroke-linecap:round; stroke-linejoin:round; stroke-width:2; stroke-opacity:0.06; fill:none" points="1299.02,1280.22 1299.02,47.2441 "/>
<polyline clip-path="url(#clip172)" style="stroke:#000000; stroke-linecap:round; stroke-linejoin:round; stroke-width:2; stroke-opacity:0.06; fill:none" points="1457.91,1280.22 1457.91,47.2441 "/>
<polyline clip-path="url(#clip172)" style="stroke:#000000; stroke-linecap:round; stroke-linejoin:round; stroke-width:2; stroke-opacity:0.06; fill:none" points="1522.13,1280.22 1522.13,47.2441 "/>
<polyline clip-path="url(#clip172)" style="stroke:#000000; stroke-linecap:round; stroke-linejoin:round; stroke-width:2; stroke-opacity:0.06; fill:none" points="1564.86,1280.22 1564.86,47.2441 "/>
<polyline clip-path="url(#clip172)" style="stroke:#000000; stroke-linecap:round; stroke-linejoin:round; stroke-width:2; stroke-opacity:0.06; fill:none" points="1596.92,1280.22 1596.92,47.2441 "/>
<polyline clip-path="url(#clip172)" style="stroke:#000000; stroke-linecap:round; stroke-linejoin:round; stroke-width:2; stroke-opacity:0.06; fill:none" points="1755.81,1280.22 1755.81,47.2441 "/>
<polyline clip-path="url(#clip172)" style="stroke:#000000; stroke-linecap:round; stroke-linejoin:round; stroke-width:2; stroke-opacity:0.06; fill:none" points="1820.03,1280.22 1820.03,47.2441 "/>
<polyline clip-path="url(#clip170)" style="stroke:#000000; stroke-linecap:round; stroke-linejoin:round; stroke-width:4; stroke-opacity:1; fill:none" points="278.238,1280.22 1836.11,1280.22 "/>
<polyline clip-path="url(#clip170)" style="stroke:#000000; stroke-linecap:round; stroke-linejoin:round; stroke-width:4; stroke-opacity:1; fill:none" points="278.238,47.2441 1836.11,47.2441 "/>
<polyline clip-path="url(#clip170)" style="stroke:#000000; stroke-linecap:round; stroke-linejoin:round; stroke-width:4; stroke-opacity:1; fill:none" points="430.996,1280.22 430.996,1261.33 "/>
<polyline clip-path="url(#clip170)" style="stroke:#000000; stroke-linecap:round; stroke-linejoin:round; stroke-width:4; stroke-opacity:1; fill:none" points="728.897,1280.22 728.897,1261.33 "/>
<polyline clip-path="url(#clip170)" style="stroke:#000000; stroke-linecap:round; stroke-linejoin:round; stroke-width:4; stroke-opacity:1; fill:none" points="1026.8,1280.22 1026.8,1261.33 "/>
<polyline clip-path="url(#clip170)" style="stroke:#000000; stroke-linecap:round; stroke-linejoin:round; stroke-width:4; stroke-opacity:1; fill:none" points="1324.7,1280.22 1324.7,1261.33 "/>
<polyline clip-path="url(#clip170)" style="stroke:#000000; stroke-linecap:round; stroke-linejoin:round; stroke-width:4; stroke-opacity:1; fill:none" points="1622.6,1280.22 1622.6,1261.33 "/>
<polyline clip-path="url(#clip170)" style="stroke:#000000; stroke-linecap:round; stroke-linejoin:round; stroke-width:4; stroke-opacity:1; fill:none" points="330.532,1280.22 330.532,1270.78 "/>
<polyline clip-path="url(#clip170)" style="stroke:#000000; stroke-linecap:round; stroke-linejoin:round; stroke-width:4; stroke-opacity:1; fill:none" points="373.257,1280.22 373.257,1270.78 "/>
<polyline clip-path="url(#clip170)" style="stroke:#000000; stroke-linecap:round; stroke-linejoin:round; stroke-width:4; stroke-opacity:1; fill:none" points="405.321,1280.22 405.321,1270.78 "/>
<polyline clip-path="url(#clip170)" style="stroke:#000000; stroke-linecap:round; stroke-linejoin:round; stroke-width:4; stroke-opacity:1; fill:none" points="564.205,1280.22 564.205,1270.78 "/>
<polyline clip-path="url(#clip170)" style="stroke:#000000; stroke-linecap:round; stroke-linejoin:round; stroke-width:4; stroke-opacity:1; fill:none" points="628.432,1280.22 628.432,1270.78 "/>
<polyline clip-path="url(#clip170)" style="stroke:#000000; stroke-linecap:round; stroke-linejoin:round; stroke-width:4; stroke-opacity:1; fill:none" points="671.158,1280.22 671.158,1270.78 "/>
<polyline clip-path="url(#clip170)" style="stroke:#000000; stroke-linecap:round; stroke-linejoin:round; stroke-width:4; stroke-opacity:1; fill:none" points="703.222,1280.22 703.222,1270.78 "/>
<polyline clip-path="url(#clip170)" style="stroke:#000000; stroke-linecap:round; stroke-linejoin:round; stroke-width:4; stroke-opacity:1; fill:none" points="862.105,1280.22 862.105,1270.78 "/>
<polyline clip-path="url(#clip170)" style="stroke:#000000; stroke-linecap:round; stroke-linejoin:round; stroke-width:4; stroke-opacity:1; fill:none" points="926.332,1280.22 926.332,1270.78 "/>
<polyline clip-path="url(#clip170)" style="stroke:#000000; stroke-linecap:round; stroke-linejoin:round; stroke-width:4; stroke-opacity:1; fill:none" points="969.058,1280.22 969.058,1270.78 "/>
<polyline clip-path="url(#clip170)" style="stroke:#000000; stroke-linecap:round; stroke-linejoin:round; stroke-width:4; stroke-opacity:1; fill:none" points="1001.12,1280.22 1001.12,1270.78 "/>
<polyline clip-path="url(#clip170)" style="stroke:#000000; stroke-linecap:round; stroke-linejoin:round; stroke-width:4; stroke-opacity:1; fill:none" points="1160.01,1280.22 1160.01,1270.78 "/>
<polyline clip-path="url(#clip170)" style="stroke:#000000; stroke-linecap:round; stroke-linejoin:round; stroke-width:4; stroke-opacity:1; fill:none" points="1224.23,1280.22 1224.23,1270.78 "/>
<polyline clip-path="url(#clip170)" style="stroke:#000000; stroke-linecap:round; stroke-linejoin:round; stroke-width:4; stroke-opacity:1; fill:none" points="1266.96,1280.22 1266.96,1270.78 "/>
<polyline clip-path="url(#clip170)" style="stroke:#000000; stroke-linecap:round; stroke-linejoin:round; stroke-width:4; stroke-opacity:1; fill:none" points="1299.02,1280.22 1299.02,1270.78 "/>
<polyline clip-path="url(#clip170)" style="stroke:#000000; stroke-linecap:round; stroke-linejoin:round; stroke-width:4; stroke-opacity:1; fill:none" points="1457.91,1280.22 1457.91,1270.78 "/>
<polyline clip-path="url(#clip170)" style="stroke:#000000; stroke-linecap:round; stroke-linejoin:round; stroke-width:4; stroke-opacity:1; fill:none" points="1522.13,1280.22 1522.13,1270.78 "/>
<polyline clip-path="url(#clip170)" style="stroke:#000000; stroke-linecap:round; stroke-linejoin:round; stroke-width:4; stroke-opacity:1; fill:none" points="1564.86,1280.22 1564.86,1270.78 "/>
<polyline clip-path="url(#clip170)" style="stroke:#000000; stroke-linecap:round; stroke-linejoin:round; stroke-width:4; stroke-opacity:1; fill:none" points="1596.92,1280.22 1596.92,1270.78 "/>
<polyline clip-path="url(#clip170)" style="stroke:#000000; stroke-linecap:round; stroke-linejoin:round; stroke-width:4; stroke-opacity:1; fill:none" points="1755.81,1280.22 1755.81,1270.78 "/>
<polyline clip-path="url(#clip170)" style="stroke:#000000; stroke-linecap:round; stroke-linejoin:round; stroke-width:4; stroke-opacity:1; fill:none" points="1820.03,1280.22 1820.03,1270.78 "/>
<path clip-path="url(#clip170)" d="M374.458 1328.64 L374.458 1327.06 Q380.535 1327.06 383.672 1323.82 Q384.537 1323.82 384.685 1324.02 Q384.833 1324.22 384.833 1325.13 L384.833 1353.51 Q384.833 1355.02 385.575 1355.49 Q386.316 1355.96 389.552 1355.96 L391.157 1355.96 L391.157 1357.52 Q389.379 1357.37 382.956 1357.37 Q376.533 1357.37 374.779 1357.52 L374.779 1355.96 L376.385 1355.96 Q379.572 1355.96 380.337 1355.52 Q381.103 1355.05 381.103 1353.51 L381.103 1327.3 Q378.46 1328.64 374.458 1328.64 Z" fill="#000000" fill-rule="nonzero" fill-opacity="1" /><path clip-path="url(#clip170)" d="M397.235 1341.34 Q397.235 1333.9 399.112 1329.85 Q401.731 1323.82 407.906 1323.82 Q409.216 1323.82 410.574 1324.19 Q411.958 1324.54 413.687 1325.9 Q415.441 1327.25 416.503 1329.48 Q418.529 1333.78 418.529 1341.34 Q418.529 1348.72 416.651 1352.75 Q413.909 1358.63 407.857 1358.63 Q405.584 1358.63 403.262 1357.47 Q400.965 1356.31 399.507 1353.51 Q397.235 1349.34 397.235 1341.34 M401.434 1340.72 Q401.434 1348.35 401.978 1351.39 Q402.595 1354.68 404.275 1356.11 Q405.98 1357.52 407.857 1357.52 Q409.883 1357.52 411.562 1356.01 Q413.267 1354.48 413.786 1351.19 Q414.354 1347.96 414.329 1340.72 Q414.329 1333.68 413.835 1330.86 Q413.168 1327.58 411.39 1326.27 Q409.636 1324.93 407.857 1324.93 Q407.19 1324.93 406.474 1325.13 Q405.782 1325.33 404.769 1325.9 Q403.756 1326.46 402.966 1327.87 Q402.2 1329.28 401.829 1331.41 Q401.434 1334.15 401.434 1340.72 Z" fill="#000000" fill-rule="nonzero" fill-opacity="1" /><path clip-path="url(#clip170)" d="M445.665 1319.25 Q445.906 1319.49 445.906 1319.83 Q445.906 1320.17 445.665 1320.41 Q445.425 1320.65 445.083 1320.65 L419.352 1320.65 Q419.011 1320.65 418.77 1320.41 Q418.529 1320.17 418.529 1319.83 Q418.529 1319.49 418.77 1319.25 Q419.011 1319.01 419.352 1319.01 L445.083 1319.01 Q445.425 1319.01 445.665 1319.25 Z" fill="#000000" fill-rule="nonzero" fill-opacity="1" /><path clip-path="url(#clip170)" d="M451.847 1306.64 L451.847 1305.36 Q456.785 1305.36 459.334 1302.73 Q460.037 1302.73 460.157 1302.89 Q460.277 1303.05 460.277 1303.79 L460.277 1326.85 Q460.277 1328.08 460.88 1328.46 Q461.482 1328.84 464.111 1328.84 L465.416 1328.84 L465.416 1330.11 Q463.971 1329.99 458.752 1329.99 Q453.533 1329.99 452.108 1330.11 L452.108 1328.84 L453.413 1328.84 Q456.002 1328.84 456.624 1328.48 Q457.247 1328.1 457.247 1326.85 L457.247 1305.56 Q455.099 1306.64 451.847 1306.64 Z" fill="#000000" fill-rule="nonzero" fill-opacity="1" /><path clip-path="url(#clip170)" d="M470.474 1324.57 Q470.474 1323.34 471.176 1322.76 Q471.879 1322.18 472.782 1322.18 Q473.725 1322.18 474.388 1322.8 Q475.07 1323.4 475.07 1324.47 Q475.07 1325.61 474.267 1326.25 Q473.485 1326.89 472.361 1326.73 Q473.344 1328.38 475.15 1329.12 Q476.977 1329.87 478.663 1329.87 Q480.429 1329.87 481.854 1328.34 Q483.299 1326.81 483.299 1323.08 Q483.299 1319.91 482.055 1318.08 Q480.831 1316.26 478.402 1316.26 L476.596 1316.26 Q475.973 1316.26 475.793 1316.2 Q475.612 1316.14 475.612 1315.8 Q475.612 1315.39 476.234 1315.31 Q476.857 1315.31 477.84 1315.19 Q480.229 1315.11 481.493 1313.05 Q482.637 1311.12 482.637 1308.37 Q482.637 1305.86 481.433 1304.82 Q480.249 1303.75 478.703 1303.75 Q477.258 1303.75 475.672 1304.35 Q474.087 1304.96 473.224 1306.3 Q475.773 1306.3 475.773 1308.37 Q475.773 1309.27 475.191 1309.87 Q474.629 1310.46 473.685 1310.46 Q472.782 1310.46 472.18 1309.89 Q471.578 1309.31 471.578 1308.33 Q471.578 1305.98 473.665 1304.35 Q475.773 1302.73 478.864 1302.73 Q481.915 1302.73 484.163 1304.33 Q486.431 1305.94 486.431 1308.41 Q486.431 1310.84 484.825 1312.82 Q483.219 1314.81 480.67 1315.63 Q483.801 1316.26 485.668 1318.38 Q487.535 1320.49 487.535 1323.08 Q487.535 1326.29 485.006 1328.66 Q482.477 1331.01 478.783 1331.01 Q475.371 1331.01 472.923 1329.16 Q470.474 1327.32 470.474 1324.57 Z" fill="#000000" fill-rule="nonzero" fill-opacity="1" /><path clip-path="url(#clip170)" d="M672.519 1328.64 L672.519 1327.06 Q678.596 1327.06 681.733 1323.82 Q682.598 1323.82 682.746 1324.02 Q682.894 1324.22 682.894 1325.13 L682.894 1353.51 Q682.894 1355.02 683.635 1355.49 Q684.376 1355.96 687.613 1355.96 L689.218 1355.96 L689.218 1357.52 Q687.44 1357.37 681.017 1357.37 Q674.594 1357.37 672.84 1357.52 L672.84 1355.96 L674.446 1355.96 Q677.632 1355.96 678.398 1355.52 Q679.164 1355.05 679.164 1353.51 L679.164 1327.3 Q676.521 1328.64 672.519 1328.64 Z" fill="#000000" fill-rule="nonzero" fill-opacity="1" /><path clip-path="url(#clip170)" d="M695.295 1341.34 Q695.295 1333.9 697.173 1329.85 Q699.791 1323.82 705.967 1323.82 Q707.276 1323.82 708.635 1324.19 Q710.019 1324.54 711.748 1325.9 Q713.502 1327.25 714.564 1329.48 Q716.59 1333.78 716.59 1341.34 Q716.59 1348.72 714.712 1352.75 Q711.97 1358.63 705.918 1358.63 Q703.645 1358.63 701.323 1357.47 Q699.026 1356.31 697.568 1353.51 Q695.295 1349.34 695.295 1341.34 M699.495 1340.72 Q699.495 1348.35 700.038 1351.39 Q700.656 1354.68 702.336 1356.11 Q704.04 1357.52 705.918 1357.52 Q707.943 1357.52 709.623 1356.01 Q711.328 1354.48 711.847 1351.19 Q712.415 1347.96 712.39 1340.72 Q712.39 1333.68 711.896 1330.86 Q711.229 1327.58 709.45 1326.27 Q707.696 1324.93 705.918 1324.93 Q705.251 1324.93 704.534 1325.13 Q703.843 1325.33 702.83 1325.9 Q701.817 1326.46 701.027 1327.87 Q700.261 1329.28 699.89 1331.41 Q699.495 1334.15 699.495 1340.72 Z" fill="#000000" fill-rule="nonzero" fill-opacity="1" /><path clip-path="url(#clip170)" d="M743.726 1319.25 Q743.967 1319.49 743.967 1319.83 Q743.967 1320.17 743.726 1320.41 Q743.485 1320.65 743.144 1320.65 L717.413 1320.65 Q717.071 1320.65 716.831 1320.41 Q716.59 1320.17 716.59 1319.83 Q716.59 1319.49 716.831 1319.25 Q717.071 1319.01 717.413 1319.01 L743.144 1319.01 Q743.485 1319.01 743.726 1319.25 Z" fill="#000000" fill-rule="nonzero" fill-opacity="1" /><path clip-path="url(#clip170)" d="M749.908 1306.64 L749.908 1305.36 Q754.846 1305.36 757.395 1302.73 Q758.097 1302.73 758.218 1302.89 Q758.338 1303.05 758.338 1303.79 L758.338 1326.85 Q758.338 1328.08 758.94 1328.46 Q759.543 1328.84 762.172 1328.84 L763.477 1328.84 L763.477 1330.11 Q762.031 1329.99 756.813 1329.99 Q751.594 1329.99 750.169 1330.11 L750.169 1328.84 L751.474 1328.84 Q754.063 1328.84 754.685 1328.48 Q755.308 1328.1 755.308 1326.85 L755.308 1305.56 Q753.16 1306.64 749.908 1306.64 Z" fill="#000000" fill-rule="nonzero" fill-opacity="1" /><path clip-path="url(#clip170)" d="M768.856 1330.11 Q768.856 1329.36 768.916 1329.14 Q768.996 1328.92 769.317 1328.58 L777.206 1319.79 Q781.521 1314.93 781.521 1310.7 Q781.521 1307.95 780.076 1305.98 Q778.651 1304.01 776.021 1304.01 Q774.215 1304.01 772.689 1305.12 Q771.164 1306.22 770.462 1308.19 Q770.582 1308.15 771.003 1308.15 Q772.027 1308.15 772.589 1308.79 Q773.171 1309.43 773.171 1310.3 Q773.171 1311.4 772.449 1311.94 Q771.746 1312.46 771.044 1312.46 Q770.763 1312.46 770.381 1312.4 Q770.02 1312.34 769.438 1311.78 Q768.856 1311.2 768.856 1310.18 Q768.856 1307.3 771.024 1305.02 Q773.211 1302.73 776.543 1302.73 Q780.317 1302.73 782.785 1304.98 Q785.274 1307.2 785.274 1310.7 Q785.274 1311.92 784.893 1313.05 Q784.532 1314.15 784.03 1315.01 Q783.548 1315.88 782.223 1317.26 Q780.899 1318.65 779.835 1319.63 Q778.771 1320.61 776.383 1322.7 L772.027 1326.93 L779.433 1326.93 Q783.046 1326.93 783.327 1326.61 Q783.729 1326.03 784.231 1322.96 L785.274 1322.96 L784.11 1330.11 L768.856 1330.11 Z" fill="#000000" fill-rule="nonzero" fill-opacity="1" /><path clip-path="url(#clip170)" d="M971.041 1328.64 L971.041 1327.06 Q977.118 1327.06 980.256 1323.82 Q981.12 1323.82 981.269 1324.02 Q981.417 1324.22 981.417 1325.13 L981.417 1353.51 Q981.417 1355.02 982.158 1355.49 Q982.899 1355.96 986.135 1355.96 L987.741 1355.96 L987.741 1357.52 Q985.962 1357.37 979.539 1357.37 Q973.116 1357.37 971.363 1357.52 L971.363 1355.96 L972.968 1355.96 Q976.155 1355.96 976.921 1355.52 Q977.687 1355.05 977.687 1353.51 L977.687 1327.3 Q975.043 1328.64 971.041 1328.64 Z" fill="#000000" fill-rule="nonzero" fill-opacity="1" /><path clip-path="url(#clip170)" d="M993.818 1341.34 Q993.818 1333.9 995.695 1329.85 Q998.314 1323.82 1004.49 1323.82 Q1005.8 1323.82 1007.16 1324.19 Q1008.54 1324.54 1010.27 1325.9 Q1012.02 1327.25 1013.09 1329.48 Q1015.11 1333.78 1015.11 1341.34 Q1015.11 1348.72 1013.23 1352.75 Q1010.49 1358.63 1004.44 1358.63 Q1002.17 1358.63 999.845 1357.47 Q997.548 1356.31 996.091 1353.51 Q993.818 1349.34 993.818 1341.34 M998.017 1340.72 Q998.017 1348.35 998.561 1351.39 Q999.178 1354.68 1000.86 1356.11 Q1002.56 1357.52 1004.44 1357.52 Q1006.47 1357.52 1008.15 1356.01 Q1009.85 1354.48 1010.37 1351.19 Q1010.94 1347.96 1010.91 1340.72 Q1010.91 1333.68 1010.42 1330.86 Q1009.75 1327.58 1007.97 1326.27 Q1006.22 1324.93 1004.44 1324.93 Q1003.77 1324.93 1003.06 1325.13 Q1002.37 1325.33 1001.35 1325.9 Q1000.34 1326.46 999.549 1327.87 Q998.783 1329.28 998.413 1331.41 Q998.017 1334.15 998.017 1340.72 Z" fill="#000000" fill-rule="nonzero" fill-opacity="1" /><path clip-path="url(#clip170)" d="M1042.25 1319.25 Q1042.49 1319.49 1042.49 1319.83 Q1042.49 1320.17 1042.25 1320.41 Q1042.01 1320.65 1041.67 1320.65 L1015.94 1320.65 Q1015.59 1320.65 1015.35 1320.41 Q1015.11 1320.17 1015.11 1319.83 Q1015.11 1319.49 1015.35 1319.25 Q1015.59 1319.01 1015.94 1319.01 L1041.67 1319.01 Q1042.01 1319.01 1042.25 1319.25 Z" fill="#000000" fill-rule="nonzero" fill-opacity="1" /><path clip-path="url(#clip170)" d="M1048.43 1306.64 L1048.43 1305.36 Q1053.37 1305.36 1055.92 1302.73 Q1056.62 1302.73 1056.74 1302.89 Q1056.86 1303.05 1056.86 1303.79 L1056.86 1326.85 Q1056.86 1328.08 1057.46 1328.46 Q1058.07 1328.84 1060.69 1328.84 L1062 1328.84 L1062 1330.11 Q1060.55 1329.99 1055.34 1329.99 Q1050.12 1329.99 1048.69 1330.11 L1048.69 1328.84 L1050 1328.84 Q1052.59 1328.84 1053.21 1328.48 Q1053.83 1328.1 1053.83 1326.85 L1053.83 1305.56 Q1051.68 1306.64 1048.43 1306.64 Z" fill="#000000" fill-rule="nonzero" fill-opacity="1" /><path clip-path="url(#clip170)" d="M1068.98 1306.64 L1068.98 1305.36 Q1073.92 1305.36 1076.47 1302.73 Q1077.17 1302.73 1077.29 1302.89 Q1077.41 1303.05 1077.41 1303.79 L1077.41 1326.85 Q1077.41 1328.08 1078.02 1328.46 Q1078.62 1328.84 1081.25 1328.84 L1082.55 1328.84 L1082.55 1330.11 Q1081.11 1329.99 1075.89 1329.99 Q1070.67 1329.99 1069.24 1330.11 L1069.24 1328.84 L1070.55 1328.84 Q1073.14 1328.84 1073.76 1328.48 Q1074.38 1328.1 1074.38 1326.85 L1074.38 1305.56 Q1072.24 1306.64 1068.98 1306.64 Z" fill="#000000" fill-rule="nonzero" fill-opacity="1" /><path clip-path="url(#clip170)" d="M1268.1 1328.64 L1268.1 1327.06 Q1274.18 1327.06 1277.31 1323.82 Q1278.18 1323.82 1278.33 1324.02 Q1278.47 1324.22 1278.47 1325.13 L1278.47 1353.51 Q1278.47 1355.02 1279.22 1355.49 Q1279.96 1355.96 1283.19 1355.96 L1284.8 1355.96 L1284.8 1357.52 Q1283.02 1357.37 1276.6 1357.37 Q1270.17 1357.37 1268.42 1357.52 L1268.42 1355.96 L1270.03 1355.96 Q1273.21 1355.96 1273.98 1355.52 Q1274.74 1355.05 1274.74 1353.51 L1274.74 1327.3 Q1272.1 1328.64 1268.1 1328.64 Z" fill="#000000" fill-rule="nonzero" fill-opacity="1" /><path clip-path="url(#clip170)" d="M1290.88 1341.34 Q1290.88 1333.9 1292.75 1329.85 Q1295.37 1323.82 1301.55 1323.82 Q1302.86 1323.82 1304.21 1324.19 Q1305.6 1324.54 1307.33 1325.9 Q1309.08 1327.25 1310.14 1329.48 Q1312.17 1333.78 1312.17 1341.34 Q1312.17 1348.72 1310.29 1352.75 Q1307.55 1358.63 1301.5 1358.63 Q1299.22 1358.63 1296.9 1357.47 Q1294.61 1356.31 1293.15 1353.51 Q1290.88 1349.34 1290.88 1341.34 M1295.07 1340.72 Q1295.07 1348.35 1295.62 1351.39 Q1296.24 1354.68 1297.92 1356.11 Q1299.62 1357.52 1301.5 1357.52 Q1303.52 1357.52 1305.2 1356.01 Q1306.91 1354.48 1307.43 1351.19 Q1307.99 1347.96 1307.97 1340.72 Q1307.97 1333.68 1307.48 1330.86 Q1306.81 1327.58 1305.03 1326.27 Q1303.28 1324.93 1301.5 1324.93 Q1300.83 1324.93 1300.11 1325.13 Q1299.42 1325.33 1298.41 1325.9 Q1297.4 1326.46 1296.61 1327.87 Q1295.84 1329.28 1295.47 1331.41 Q1295.07 1334.15 1295.07 1340.72 Z" fill="#000000" fill-rule="nonzero" fill-opacity="1" /><path clip-path="url(#clip170)" d="M1339.31 1319.25 Q1339.55 1319.49 1339.55 1319.83 Q1339.55 1320.17 1339.31 1320.41 Q1339.07 1320.65 1338.72 1320.65 L1312.99 1320.65 Q1312.65 1320.65 1312.41 1320.41 Q1312.17 1320.17 1312.17 1319.83 Q1312.17 1319.49 1312.41 1319.25 Q1312.65 1319.01 1312.99 1319.01 L1338.72 1319.01 Q1339.07 1319.01 1339.31 1319.25 Z" fill="#000000" fill-rule="nonzero" fill-opacity="1" /><path clip-path="url(#clip170)" d="M1345.49 1306.64 L1345.49 1305.36 Q1350.43 1305.36 1352.97 1302.73 Q1353.68 1302.73 1353.8 1302.89 Q1353.92 1303.05 1353.92 1303.79 L1353.92 1326.85 Q1353.92 1328.08 1354.52 1328.46 Q1355.12 1328.84 1357.75 1328.84 L1359.06 1328.84 L1359.06 1330.11 Q1357.61 1329.99 1352.39 1329.99 Q1347.17 1329.99 1345.75 1330.11 L1345.75 1328.84 L1347.05 1328.84 Q1349.64 1328.84 1350.27 1328.48 Q1350.89 1328.1 1350.89 1326.85 L1350.89 1305.56 Q1348.74 1306.64 1345.49 1306.64 Z" fill="#000000" fill-rule="nonzero" fill-opacity="1" /><path clip-path="url(#clip170)" d="M1363.99 1316.96 Q1363.99 1310.92 1365.52 1307.63 Q1367.65 1302.73 1372.66 1302.73 Q1373.73 1302.73 1374.83 1303.03 Q1375.96 1303.31 1377.36 1304.41 Q1378.79 1305.52 1379.65 1307.32 Q1381.3 1310.82 1381.3 1316.96 Q1381.3 1322.96 1379.77 1326.23 Q1377.54 1331.01 1372.62 1331.01 Q1370.78 1331.01 1368.89 1330.07 Q1367.02 1329.12 1365.84 1326.85 Q1363.99 1323.46 1363.99 1316.96 M1367.41 1316.46 Q1367.41 1322.66 1367.85 1325.13 Q1368.35 1327.8 1369.71 1328.96 Q1371.1 1330.11 1372.62 1330.11 Q1374.27 1330.11 1375.64 1328.88 Q1377.02 1327.64 1377.44 1324.97 Q1377.9 1322.34 1377.88 1316.46 Q1377.88 1310.74 1377.48 1308.45 Q1376.94 1305.78 1375.49 1304.72 Q1374.07 1303.63 1372.62 1303.63 Q1372.08 1303.63 1371.5 1303.79 Q1370.94 1303.95 1370.12 1304.41 Q1369.29 1304.88 1368.65 1306.02 Q1368.03 1307.16 1367.73 1308.89 Q1367.41 1311.12 1367.41 1316.46 Z" fill="#000000" fill-rule="nonzero" fill-opacity="1" /><path clip-path="url(#clip170)" d="M1576.34 1328.64 L1576.34 1327.06 Q1582.41 1327.06 1585.55 1323.82 Q1586.41 1323.82 1586.56 1324.02 Q1586.71 1324.22 1586.71 1325.13 L1586.71 1353.51 Q1586.71 1355.02 1587.45 1355.49 Q1588.19 1355.96 1591.43 1355.96 L1593.04 1355.96 L1593.04 1357.52 Q1591.26 1357.37 1584.83 1357.37 Q1578.41 1357.37 1576.66 1357.52 L1576.66 1355.96 L1578.26 1355.96 Q1581.45 1355.96 1582.22 1355.52 Q1582.98 1355.05 1582.98 1353.51 L1582.98 1327.3 Q1580.34 1328.64 1576.34 1328.64 Z" fill="#000000" fill-rule="nonzero" fill-opacity="1" /><path clip-path="url(#clip170)" d="M1599.11 1341.34 Q1599.11 1333.9 1600.99 1329.85 Q1603.61 1323.82 1609.78 1323.82 Q1611.09 1323.82 1612.45 1324.19 Q1613.84 1324.54 1615.56 1325.9 Q1617.32 1327.25 1618.38 1329.48 Q1620.41 1333.78 1620.41 1341.34 Q1620.41 1348.72 1618.53 1352.75 Q1615.79 1358.63 1609.73 1358.63 Q1607.46 1358.63 1605.14 1357.47 Q1602.84 1356.31 1601.38 1353.51 Q1599.11 1349.34 1599.11 1341.34 M1603.31 1340.72 Q1603.31 1348.35 1603.86 1351.39 Q1604.47 1354.68 1606.15 1356.11 Q1607.86 1357.52 1609.73 1357.52 Q1611.76 1357.52 1613.44 1356.01 Q1615.14 1354.48 1615.66 1351.19 Q1616.23 1347.96 1616.21 1340.72 Q1616.21 1333.68 1615.71 1330.86 Q1615.05 1327.58 1613.27 1326.27 Q1611.51 1324.93 1609.73 1324.93 Q1609.07 1324.93 1608.35 1325.13 Q1607.66 1325.33 1606.65 1325.9 Q1605.63 1326.46 1604.84 1327.87 Q1604.08 1329.28 1603.71 1331.41 Q1603.31 1334.15 1603.31 1340.72 Z" fill="#000000" fill-rule="nonzero" fill-opacity="1" /><path clip-path="url(#clip170)" d="M1647.54 1319.25 Q1647.78 1319.49 1647.78 1319.83 Q1647.78 1320.17 1647.54 1320.41 Q1647.3 1320.65 1646.96 1320.65 L1621.23 1320.65 Q1620.89 1320.65 1620.65 1320.41 Q1620.41 1320.17 1620.41 1319.83 Q1620.41 1319.49 1620.65 1319.25 Q1620.89 1319.01 1621.23 1319.01 L1646.96 1319.01 Q1647.3 1319.01 1647.54 1319.25 Z" fill="#000000" fill-rule="nonzero" fill-opacity="1" /><path clip-path="url(#clip170)" d="M1651.8 1311.98 Q1651.8 1309.79 1652.44 1308.31 Q1653.08 1306.8 1654.43 1305.32 Q1656.9 1302.73 1660.47 1302.73 Q1661.99 1302.73 1663.34 1303.37 Q1664.7 1304.01 1665.99 1305.48 Q1667.29 1306.92 1668.08 1309.79 Q1668.86 1312.64 1668.86 1316.58 Q1668.86 1322.94 1665.77 1326.97 Q1662.7 1331.01 1658.54 1331.01 Q1655.91 1331.01 1654.37 1329.83 Q1652.82 1328.62 1652.82 1326.57 Q1652.82 1325.51 1653.42 1325.07 Q1654.03 1324.61 1654.71 1324.61 Q1655.45 1324.61 1656.03 1325.11 Q1656.62 1325.59 1656.62 1326.49 Q1656.62 1327.24 1656.13 1327.82 Q1655.67 1328.38 1654.47 1328.38 Q1655.65 1329.87 1658.5 1329.87 Q1659.53 1329.87 1660.55 1329.4 Q1661.57 1328.92 1662.68 1327.78 Q1663.8 1326.61 1664.48 1324.19 Q1665.17 1321.76 1665.17 1318.34 L1665.17 1317.04 Q1663.52 1321.15 1660.03 1321.15 Q1656.58 1321.15 1654.19 1318.5 Q1651.8 1315.86 1651.8 1311.98 M1655.49 1312.02 Q1655.49 1316.1 1656.23 1317.6 Q1657.5 1320.19 1660.07 1320.19 Q1662.58 1320.19 1663.82 1317.96 Q1665.09 1315.71 1665.09 1312.8 Q1665.09 1308.77 1664.42 1307 Q1663.2 1303.75 1660.47 1303.75 Q1657.76 1303.75 1656.35 1306.34 Q1655.49 1307.87 1655.49 1312.02 Z" fill="#000000" fill-rule="nonzero" fill-opacity="1" /><path clip-path="url(#clip170)" d="M858.319 1447.26 L858.319 1444.92 L860.135 1444.92 Q864.248 1444.92 865.174 1444.26 Q866.138 1443.55 866.138 1441.33 L866.138 1401.57 Q866.138 1399.38 865.174 1398.72 Q864.211 1398.01 860.135 1398.01 L858.319 1398.01 L858.319 1395.64 L901.043 1395.64 L903.156 1412.72 L901.266 1412.72 Q900.747 1408.39 900.043 1405.9 Q899.376 1403.38 897.708 1401.46 Q896.078 1399.53 893.373 1398.79 Q890.705 1398.01 886.37 1398.01 L876.587 1398.01 Q873.993 1398.01 873.437 1398.57 Q872.882 1399.09 872.882 1401.05 L872.882 1419.24 L879.7 1419.24 Q884.924 1419.24 886.407 1417.43 Q887.889 1415.61 887.889 1410.39 L889.816 1410.39 L889.816 1430.47 L887.889 1430.47 Q887.889 1425.32 886.407 1423.47 Q884.924 1421.62 879.7 1421.62 L872.882 1421.62 L872.882 1441.88 Q872.882 1443.85 873.437 1444.4 Q874.03 1444.92 876.587 1444.92 L886.703 1444.92 Q889.964 1444.92 892.335 1444.52 Q894.744 1444.07 896.412 1443.03 Q898.079 1441.96 899.191 1440.74 Q900.339 1439.51 901.118 1437.33 Q901.933 1435.1 902.377 1433.07 Q902.859 1431.03 903.378 1427.69 L905.268 1427.69 L902.081 1447.26 L858.319 1447.26 Z" fill="#000000" fill-rule="nonzero" fill-opacity="1" /><path clip-path="url(#clip170)" d="M909.492 1447.26 L909.492 1444.92 Q913.531 1444.92 914.457 1444.44 Q915.421 1443.92 915.421 1441.48 L915.421 1421.13 Q915.421 1418.32 914.42 1417.61 Q913.457 1416.91 909.492 1416.91 L909.492 1414.54 L920.053 1413.72 L920.053 1422.06 Q921.127 1418.8 923.388 1416.28 Q925.685 1413.72 929.391 1413.72 Q931.836 1413.72 933.392 1415.09 Q934.986 1416.46 934.986 1418.35 Q934.986 1420.02 933.948 1420.87 Q932.948 1421.69 931.725 1421.69 Q930.354 1421.69 929.391 1420.84 Q928.464 1419.95 928.464 1418.43 Q928.464 1417.5 928.872 1416.8 Q929.316 1416.06 929.65 1415.8 Q929.983 1415.54 930.206 1415.46 Q930.058 1415.39 929.391 1415.39 Q925.203 1415.39 922.795 1419.58 Q920.423 1423.73 920.423 1429.66 L920.423 1441.33 Q920.423 1443.51 921.313 1444.22 Q922.239 1444.92 926.204 1444.92 L927.797 1444.92 L927.797 1447.26 Q924.759 1447.03 918.163 1447.03 Q917.236 1447.03 915.791 1447.07 Q914.346 1447.11 912.456 1447.18 Q910.567 1447.26 909.492 1447.26 Z" fill="#000000" fill-rule="nonzero" fill-opacity="1" /><path clip-path="url(#clip170)" d="M939.136 1447.26 L939.136 1444.92 Q943.175 1444.92 944.101 1444.44 Q945.065 1443.92 945.065 1441.48 L945.065 1421.13 Q945.065 1418.32 944.064 1417.61 Q943.101 1416.91 939.136 1416.91 L939.136 1414.54 L949.697 1413.72 L949.697 1422.06 Q950.771 1418.8 953.032 1416.28 Q955.329 1413.72 959.035 1413.72 Q961.48 1413.72 963.037 1415.09 Q964.63 1416.46 964.63 1418.35 Q964.63 1420.02 963.592 1420.87 Q962.592 1421.69 961.369 1421.69 Q959.998 1421.69 959.035 1420.84 Q958.108 1419.95 958.108 1418.43 Q958.108 1417.5 958.516 1416.8 Q958.96 1416.06 959.294 1415.8 Q959.627 1415.54 959.85 1415.46 Q959.702 1415.39 959.035 1415.39 Q954.847 1415.39 952.439 1419.58 Q950.067 1423.73 950.067 1429.66 L950.067 1441.33 Q950.067 1443.51 950.957 1444.22 Q951.883 1444.92 955.848 1444.92 L957.441 1444.92 L957.441 1447.26 Q954.403 1447.03 947.807 1447.03 Q946.881 1447.03 945.435 1447.07 Q943.99 1447.11 942.1 1447.18 Q940.211 1447.26 939.136 1447.26 Z" fill="#000000" fill-rule="nonzero" fill-opacity="1" /><path clip-path="url(#clip170)" d="M973.782 1443.18 Q968.78 1438.22 968.78 1431.03 Q968.78 1423.8 973.671 1418.54 Q978.6 1413.24 985.64 1413.24 Q992.532 1413.24 997.461 1418.5 Q1002.43 1423.73 1002.43 1431.03 Q1002.43 1438.18 997.424 1443.14 Q992.458 1448.11 985.566 1448.11 Q978.822 1448.11 973.782 1443.18 M975.079 1430.4 Q975.079 1437.77 977.006 1441.11 Q979.971 1446.18 985.64 1446.18 Q988.456 1446.18 990.791 1444.66 Q993.162 1443.14 994.459 1440.59 Q996.127 1437.25 996.127 1430.4 Q996.127 1423.1 994.126 1419.87 Q991.161 1414.95 985.566 1414.95 Q983.12 1414.95 980.712 1416.24 Q978.34 1417.5 976.895 1420.02 Q975.079 1423.36 975.079 1430.4 Z" fill="#000000" fill-rule="nonzero" fill-opacity="1" /><path clip-path="url(#clip170)" d="M1006.72 1447.26 L1006.72 1444.92 Q1010.76 1444.92 1011.69 1444.44 Q1012.65 1443.92 1012.65 1441.48 L1012.65 1421.13 Q1012.65 1418.32 1011.65 1417.61 Q1010.69 1416.91 1006.72 1416.91 L1006.72 1414.54 L1017.29 1413.72 L1017.29 1422.06 Q1018.36 1418.8 1020.62 1416.28 Q1022.92 1413.72 1026.62 1413.72 Q1029.07 1413.72 1030.62 1415.09 Q1032.22 1416.46 1032.22 1418.35 Q1032.22 1420.02 1031.18 1420.87 Q1030.18 1421.69 1028.96 1421.69 Q1027.59 1421.69 1026.62 1420.84 Q1025.7 1419.95 1025.7 1418.43 Q1025.7 1417.5 1026.1 1416.8 Q1026.55 1416.06 1026.88 1415.8 Q1027.22 1415.54 1027.44 1415.46 Q1027.29 1415.39 1026.62 1415.39 Q1022.44 1415.39 1020.03 1419.58 Q1017.66 1423.73 1017.66 1429.66 L1017.66 1441.33 Q1017.66 1443.51 1018.54 1444.22 Q1019.47 1444.92 1023.44 1444.92 L1025.03 1444.92 L1025.03 1447.26 Q1021.99 1447.03 1015.4 1447.03 Q1014.47 1447.03 1013.02 1447.07 Q1011.58 1447.11 1009.69 1447.18 Q1007.8 1447.26 1006.72 1447.26 Z" fill="#000000" fill-rule="nonzero" fill-opacity="1" /><path clip-path="url(#clip170)" d="M1067.01 1428.29 Q1067.01 1415.46 1071.79 1405.13 Q1073.83 1400.79 1076.68 1397.16 Q1079.54 1393.53 1081.43 1391.93 Q1083.32 1390.34 1083.84 1390.34 Q1084.58 1390.34 1084.61 1391.08 Q1084.61 1391.45 1083.61 1392.38 Q1071.39 1404.83 1071.42 1428.29 Q1071.42 1451.82 1083.32 1463.78 Q1084.61 1465.08 1084.61 1465.49 Q1084.61 1466.23 1083.84 1466.23 Q1083.32 1466.23 1081.5 1464.71 Q1079.69 1463.19 1076.87 1459.71 Q1074.05 1456.22 1072.02 1451.96 Q1067.01 1441.62 1067.01 1428.29 Z" fill="#000000" fill-rule="nonzero" fill-opacity="1" /><path clip-path="url(#clip170)" d="M1091.43 1416.91 L1091.43 1414.54 L1097.4 1414.54 L1097.4 1405.83 Q1097.4 1400.2 1101.03 1396.97 Q1104.7 1393.75 1109.18 1393.75 Q1112.15 1393.75 1114.07 1395.34 Q1116 1396.94 1116 1399.09 Q1116 1400.53 1115.11 1401.49 Q1114.26 1402.42 1112.66 1402.42 Q1111.15 1402.42 1110.26 1401.46 Q1109.4 1400.49 1109.4 1399.16 Q1109.4 1396.71 1111.66 1395.97 Q1110.52 1395.45 1109.18 1395.42 Q1106.44 1395.42 1104.29 1398.23 Q1102.18 1401.05 1102.18 1405.76 L1102.18 1414.54 L1111.07 1414.54 L1111.07 1416.91 L1102.44 1416.91 L1102.44 1441.33 Q1102.44 1443.51 1103.33 1444.22 Q1104.25 1444.92 1108.18 1444.92 L1109.77 1444.92 L1109.77 1447.26 Q1106.74 1447.03 1100.14 1447.03 Q1099.21 1447.03 1097.77 1447.07 Q1096.36 1447.11 1094.43 1447.18 Q1092.54 1447.26 1091.51 1447.26 L1091.51 1444.92 Q1095.55 1444.92 1096.47 1444.44 Q1097.4 1443.92 1097.4 1441.48 L1097.4 1416.91 L1091.43 1416.91 Z" fill="#000000" fill-rule="nonzero" fill-opacity="1" /><path clip-path="url(#clip170)" d="M1114.55 1447.26 L1114.55 1444.92 Q1118.59 1444.92 1119.52 1444.44 Q1120.45 1443.92 1120.45 1441.48 L1120.45 1421.06 Q1120.45 1418.24 1119.48 1417.58 Q1118.56 1416.91 1114.85 1416.91 L1114.85 1414.54 L1125.45 1413.72 L1125.45 1441.55 Q1125.45 1443.81 1126.26 1444.37 Q1127.08 1444.92 1130.78 1444.92 L1130.78 1447.26 Q1123.04 1447.03 1122.89 1447.03 Q1121.85 1447.03 1114.55 1447.26 M1117.74 1400.49 Q1117.74 1398.97 1118.89 1397.75 Q1120.08 1396.49 1121.74 1396.49 Q1123.41 1396.49 1124.6 1397.64 Q1125.78 1398.75 1125.78 1400.53 Q1125.78 1402.27 1124.6 1403.42 Q1123.41 1404.53 1121.74 1404.53 Q1120 1404.53 1118.85 1403.31 Q1117.74 1402.09 1117.74 1400.49 Z" fill="#000000" fill-rule="nonzero" fill-opacity="1" /><path clip-path="url(#clip170)" d="M1135.49 1447.26 L1135.49 1444.92 Q1139.53 1444.92 1140.46 1444.44 Q1141.38 1443.92 1141.38 1441.48 L1141.38 1421.13 Q1141.38 1418.32 1140.38 1417.61 Q1139.42 1416.91 1135.49 1416.91 L1135.49 1414.54 L1146.16 1413.72 L1146.16 1421.69 Q1149.72 1413.72 1157.39 1413.72 Q1163.1 1413.72 1165.36 1416.54 Q1167.02 1418.43 1167.36 1420.54 Q1167.73 1422.65 1167.73 1428.14 L1167.73 1442.63 Q1167.8 1444.22 1169.03 1444.59 Q1170.25 1444.92 1173.66 1444.92 L1173.66 1447.26 Q1165.91 1447.03 1165.13 1447.03 Q1164.54 1447.03 1156.57 1447.26 L1156.57 1444.92 Q1160.61 1444.92 1161.54 1444.44 Q1162.5 1443.92 1162.5 1441.48 L1162.5 1423.8 Q1162.5 1419.95 1161.32 1417.69 Q1160.13 1415.39 1156.87 1415.39 Q1152.94 1415.39 1149.79 1418.69 Q1146.64 1421.99 1146.64 1427.54 L1146.64 1441.48 Q1146.64 1443.92 1147.57 1444.44 Q1148.53 1444.92 1152.54 1444.92 L1152.54 1447.26 Q1144.79 1447.03 1144.05 1447.03 Q1143.46 1447.03 1135.49 1447.26 Z" fill="#000000" fill-rule="nonzero" fill-opacity="1" /><path clip-path="url(#clip170)" d="M1178.33 1440.03 Q1178.33 1433.58 1185.92 1430.17 Q1190.48 1427.99 1199.89 1427.43 L1199.89 1424.65 Q1199.89 1419.95 1197.41 1417.47 Q1194.96 1414.95 1191.85 1414.95 Q1186.29 1414.95 1183.63 1418.43 Q1185.89 1418.5 1186.7 1419.65 Q1187.52 1420.76 1187.52 1421.91 Q1187.52 1423.43 1186.55 1424.43 Q1185.63 1425.39 1184.03 1425.39 Q1182.51 1425.39 1181.51 1424.47 Q1180.51 1423.51 1180.51 1421.84 Q1180.51 1418.13 1183.85 1415.69 Q1187.22 1413.24 1192 1413.24 Q1198.22 1413.24 1202.38 1417.43 Q1203.67 1418.72 1204.3 1420.39 Q1204.97 1422.06 1205.04 1423.17 Q1205.12 1424.25 1205.12 1426.4 L1205.12 1441.55 Q1205.12 1442 1205.27 1442.74 Q1205.41 1443.48 1206.08 1444.44 Q1206.78 1445.37 1207.93 1445.37 Q1210.68 1445.37 1210.64 1440.51 L1210.64 1436.25 L1212.57 1436.25 L1212.57 1440.51 Q1212.57 1444.55 1210.42 1446.15 Q1208.3 1447.7 1206.34 1447.7 Q1203.82 1447.7 1202.23 1445.85 Q1200.63 1444 1200.41 1441.48 Q1199.26 1444.37 1196.63 1446.26 Q1194.04 1448.11 1190.48 1448.11 Q1187.74 1448.11 1185.14 1447.41 Q1182.59 1446.74 1180.44 1444.85 Q1178.33 1442.92 1178.33 1440.03 M1184.18 1439.96 Q1184.18 1442.77 1186.18 1444.59 Q1188.18 1446.41 1191 1446.41 Q1194.19 1446.41 1197.04 1443.96 Q1199.89 1441.48 1199.89 1436.62 L1199.89 1429.03 Q1191.48 1429.32 1187.81 1432.69 Q1184.18 1436.03 1184.18 1439.96 Z" fill="#000000" fill-rule="nonzero" fill-opacity="1" /><path clip-path="url(#clip170)" d="M1215.6 1447.26 L1215.6 1444.92 Q1219.64 1444.92 1220.57 1444.44 Q1221.5 1443.92 1221.5 1441.48 L1221.5 1402.01 Q1221.5 1399.2 1220.49 1398.49 Q1219.53 1397.79 1215.6 1397.79 L1215.6 1395.42 L1226.5 1394.6 L1226.5 1441.48 Q1226.5 1443.92 1227.46 1444.44 Q1228.42 1444.92 1232.43 1444.92 L1232.43 1447.26 Q1231.5 1447.26 1229.57 1447.18 Q1227.65 1447.11 1226.24 1447.07 Q1224.83 1447.03 1224.02 1447.03 Q1223.13 1447.03 1215.6 1447.26 Z" fill="#000000" fill-rule="nonzero" fill-opacity="1" /><path clip-path="url(#clip170)" d="M1238.43 1465.49 Q1238.43 1465.12 1239.39 1464.19 Q1251.62 1451.74 1251.62 1428.29 Q1251.62 1404.76 1239.87 1392.86 Q1238.43 1391.49 1238.43 1391.08 Q1238.43 1390.34 1239.17 1390.34 Q1239.69 1390.34 1241.51 1391.86 Q1243.36 1393.38 1246.14 1396.86 Q1248.95 1400.35 1251.03 1404.61 Q1256.03 1414.95 1256.03 1428.29 Q1256.03 1441.11 1251.25 1451.44 Q1249.21 1455.78 1246.36 1459.41 Q1243.51 1463.04 1241.62 1464.64 Q1239.73 1466.23 1239.17 1466.23 Q1238.43 1466.23 1238.43 1465.49 Z" fill="#000000" fill-rule="nonzero" fill-opacity="1" /><polyline clip-path="url(#clip172)" style="stroke:#000000; stroke-linecap:round; stroke-linejoin:round; stroke-width:2.8; stroke-opacity:0.4; fill:none" points="278.238,1163.18 1836.11,1163.18 "/>
<polyline clip-path="url(#clip172)" style="stroke:#000000; stroke-linecap:round; stroke-linejoin:round; stroke-width:2.8; stroke-opacity:0.4; fill:none" points="278.238,727.447 1836.11,727.447 "/>
<polyline clip-path="url(#clip172)" style="stroke:#000000; stroke-linecap:round; stroke-linejoin:round; stroke-width:2.8; stroke-opacity:0.4; fill:none" points="278.238,291.712 1836.11,291.712 "/>
<polyline clip-path="url(#clip170)" style="stroke:#000000; stroke-linecap:round; stroke-linejoin:round; stroke-width:4; stroke-opacity:1; fill:none" points="278.238,1280.22 278.238,47.2441 "/>
<polyline clip-path="url(#clip170)" style="stroke:#000000; stroke-linecap:round; stroke-linejoin:round; stroke-width:4; stroke-opacity:1; fill:none" points="1836.11,1280.22 1836.11,47.2441 "/>
<polyline clip-path="url(#clip170)" style="stroke:#000000; stroke-linecap:round; stroke-linejoin:round; stroke-width:4; stroke-opacity:1; fill:none" points="278.238,1163.18 293.118,1163.18 "/>
<polyline clip-path="url(#clip170)" style="stroke:#000000; stroke-linecap:round; stroke-linejoin:round; stroke-width:4; stroke-opacity:1; fill:none" points="278.238,727.447 293.118,727.447 "/>
<polyline clip-path="url(#clip170)" style="stroke:#000000; stroke-linecap:round; stroke-linejoin:round; stroke-width:4; stroke-opacity:1; fill:none" points="278.238,291.712 293.118,291.712 "/>
<path clip-path="url(#clip170)" d="M119.06 1158.03 L119.06 1156.45 Q125.137 1156.45 128.275 1153.21 Q129.139 1153.21 129.287 1153.41 Q129.436 1153.61 129.436 1154.52 L129.436 1182.91 Q129.436 1184.41 130.177 1184.88 Q130.918 1185.35 134.154 1185.35 L135.76 1185.35 L135.76 1186.91 Q133.981 1186.76 127.558 1186.76 Q121.135 1186.76 119.381 1186.91 L119.381 1185.35 L120.987 1185.35 Q124.174 1185.35 124.94 1184.91 Q125.705 1184.44 125.705 1182.91 L125.705 1156.7 Q123.062 1158.03 119.06 1158.03 Z" fill="#000000" fill-rule="nonzero" fill-opacity="1" /><path clip-path="url(#clip170)" d="M141.837 1170.73 Q141.837 1163.29 143.714 1159.24 Q146.333 1153.21 152.509 1153.21 Q153.818 1153.21 155.176 1153.58 Q156.56 1153.93 158.289 1155.29 Q160.043 1156.65 161.105 1158.87 Q163.131 1163.17 163.131 1170.73 Q163.131 1178.11 161.253 1182.14 Q158.511 1188.02 152.459 1188.02 Q150.186 1188.02 147.864 1186.86 Q145.567 1185.7 144.109 1182.91 Q141.837 1178.73 141.837 1170.73 M146.036 1170.11 Q146.036 1177.74 146.58 1180.78 Q147.197 1184.07 148.877 1185.5 Q150.582 1186.91 152.459 1186.91 Q154.485 1186.91 156.165 1185.4 Q157.869 1183.87 158.388 1180.58 Q158.956 1177.35 158.931 1170.11 Q158.931 1163.07 158.437 1160.25 Q157.77 1156.97 155.992 1155.66 Q154.238 1154.33 152.459 1154.33 Q151.792 1154.33 151.076 1154.52 Q150.384 1154.72 149.371 1155.29 Q148.358 1155.86 147.568 1157.26 Q146.802 1158.67 146.431 1160.8 Q146.036 1163.54 146.036 1170.11 Z" fill="#000000" fill-rule="nonzero" fill-opacity="1" /><path clip-path="url(#clip170)" d="M190.268 1148.64 Q190.508 1148.88 190.508 1149.22 Q190.508 1149.56 190.268 1149.8 Q190.027 1150.04 189.686 1150.04 L163.954 1150.04 Q163.613 1150.04 163.372 1149.8 Q163.131 1149.56 163.131 1149.22 Q163.131 1148.88 163.372 1148.64 Q163.613 1148.4 163.954 1148.4 L189.686 1148.4 Q190.027 1148.4 190.268 1148.64 Z" fill="#000000" fill-rule="nonzero" fill-opacity="1" /><path clip-path="url(#clip170)" d="M194.844 1159.5 Q194.844 1158.76 194.904 1158.54 Q194.984 1158.31 195.306 1157.97 L203.194 1149.18 Q207.509 1144.32 207.509 1140.09 Q207.509 1137.34 206.064 1135.37 Q204.639 1133.41 202.009 1133.41 Q200.203 1133.41 198.678 1134.51 Q197.152 1135.61 196.45 1137.58 Q196.57 1137.54 196.992 1137.54 Q198.015 1137.54 198.577 1138.18 Q199.159 1138.82 199.159 1139.69 Q199.159 1140.79 198.437 1141.33 Q197.734 1141.86 197.032 1141.86 Q196.751 1141.86 196.369 1141.8 Q196.008 1141.74 195.426 1141.17 Q194.844 1140.59 194.844 1139.57 Q194.844 1136.7 197.012 1134.41 Q199.199 1132.12 202.531 1132.12 Q206.305 1132.12 208.773 1134.37 Q211.262 1136.6 211.262 1140.09 Q211.262 1141.31 210.881 1142.44 Q210.52 1143.54 210.018 1144.4 Q209.536 1145.27 208.211 1146.65 Q206.887 1148.04 205.823 1149.02 Q204.759 1150 202.371 1152.09 L198.015 1156.33 L205.422 1156.33 Q209.034 1156.33 209.315 1156.01 Q209.717 1155.42 210.219 1152.35 L211.262 1152.35 L210.098 1159.5 L194.844 1159.5 Z" fill="#000000" fill-rule="nonzero" fill-opacity="1" /><path clip-path="url(#clip170)" d="M217.464 1158.84 Q216.842 1158.17 216.842 1157.31 Q216.842 1156.45 217.464 1155.83 Q218.087 1155.18 219.03 1155.18 Q219.933 1155.18 220.535 1155.79 Q221.158 1156.37 221.158 1157.33 Q221.158 1158.27 220.495 1158.9 Q219.853 1159.5 219.03 1159.5 Q218.087 1159.5 217.464 1158.84 Z" fill="#000000" fill-rule="nonzero" fill-opacity="1" /><path clip-path="url(#clip170)" d="M226.376 1146.35 Q226.376 1140.31 227.902 1137.02 Q230.029 1132.12 235.047 1132.12 Q236.111 1132.12 237.215 1132.42 Q238.339 1132.7 239.744 1133.81 Q241.169 1134.91 242.032 1136.72 Q243.678 1140.21 243.678 1146.35 Q243.678 1152.35 242.152 1155.62 Q239.924 1160.4 235.007 1160.4 Q233.16 1160.4 231.274 1159.46 Q229.407 1158.51 228.223 1156.25 Q226.376 1152.85 226.376 1146.35 M229.788 1145.85 Q229.788 1152.05 230.23 1154.52 Q230.732 1157.19 232.097 1158.35 Q233.481 1159.5 235.007 1159.5 Q236.653 1159.5 238.018 1158.27 Q239.403 1157.03 239.824 1154.36 Q240.286 1151.73 240.266 1145.85 Q240.266 1140.13 239.864 1137.84 Q239.322 1135.17 237.877 1134.11 Q236.452 1133.02 235.007 1133.02 Q234.465 1133.02 233.883 1133.18 Q233.321 1133.35 232.498 1133.81 Q231.675 1134.27 231.033 1135.41 Q230.411 1136.56 230.109 1138.28 Q229.788 1140.51 229.788 1145.85 Z" fill="#000000" fill-rule="nonzero" fill-opacity="1" /><path clip-path="url(#clip170)" d="M119.502 722.296 L119.502 720.715 Q125.579 720.715 128.716 717.479 Q129.581 717.479 129.729 717.676 Q129.877 717.874 129.877 718.788 L129.877 747.172 Q129.877 748.679 130.618 749.148 Q131.359 749.618 134.595 749.618 L136.201 749.618 L136.201 751.174 Q134.423 751.026 128 751.026 Q121.577 751.026 119.823 751.174 L119.823 749.618 L121.429 749.618 Q124.615 749.618 125.381 749.173 Q126.147 748.704 126.147 747.172 L126.147 720.962 Q123.504 722.296 119.502 722.296 Z" fill="#000000" fill-rule="nonzero" fill-opacity="1" /><path clip-path="url(#clip170)" d="M142.278 734.993 Q142.278 727.558 144.156 723.506 Q146.774 717.479 152.95 717.479 Q154.259 717.479 155.618 717.849 Q157.001 718.195 158.731 719.554 Q160.485 720.912 161.547 723.136 Q163.573 727.434 163.573 734.993 Q163.573 742.38 161.695 746.406 Q158.953 752.286 152.901 752.286 Q150.628 752.286 148.306 751.125 Q146.008 749.964 144.551 747.172 Q142.278 742.997 142.278 734.993 M146.478 734.376 Q146.478 742.009 147.021 745.048 Q147.639 748.333 149.319 749.766 Q151.023 751.174 152.901 751.174 Q154.926 751.174 156.606 749.667 Q158.311 748.136 158.829 744.85 Q159.398 741.614 159.373 734.376 Q159.373 727.335 158.879 724.519 Q158.212 721.234 156.433 719.924 Q154.679 718.59 152.901 718.59 Q152.234 718.59 151.517 718.788 Q150.826 718.986 149.813 719.554 Q148.8 720.122 148.009 721.53 Q147.244 722.938 146.873 725.063 Q146.478 727.805 146.478 734.376 Z" fill="#000000" fill-rule="nonzero" fill-opacity="1" /><path clip-path="url(#clip170)" d="M190.709 712.905 Q190.95 713.146 190.95 713.487 Q190.95 713.828 190.709 714.069 Q190.468 714.31 190.127 714.31 L164.395 714.31 Q164.054 714.31 163.813 714.069 Q163.573 713.828 163.573 713.487 Q163.573 713.146 163.813 712.905 Q164.054 712.664 164.395 712.664 L190.127 712.664 Q190.468 712.664 190.709 712.905 Z" fill="#000000" fill-rule="nonzero" fill-opacity="1" /><path clip-path="url(#clip170)" d="M196.891 700.3 L196.891 699.016 Q201.829 699.016 204.378 696.386 Q205.08 696.386 205.201 696.547 Q205.321 696.707 205.321 697.45 L205.321 720.512 Q205.321 721.736 205.923 722.118 Q206.525 722.499 209.155 722.499 L210.459 722.499 L210.459 723.764 Q209.014 723.643 203.796 723.643 Q198.577 723.643 197.152 723.764 L197.152 722.499 L198.457 722.499 Q201.046 722.499 201.668 722.138 Q202.29 721.757 202.29 720.512 L202.29 699.216 Q200.143 700.3 196.891 700.3 Z" fill="#000000" fill-rule="nonzero" fill-opacity="1" /><path clip-path="url(#clip170)" d="M217.906 723.101 Q217.284 722.439 217.284 721.576 Q217.284 720.713 217.906 720.091 Q218.528 719.448 219.472 719.448 Q220.375 719.448 220.977 720.05 Q221.599 720.633 221.599 721.596 Q221.599 722.539 220.937 723.162 Q220.295 723.764 219.472 723.764 Q218.528 723.764 217.906 723.101 Z" fill="#000000" fill-rule="nonzero" fill-opacity="1" /><path clip-path="url(#clip170)" d="M227.259 717.14 Q227.259 715.916 227.922 715.454 Q228.584 714.972 229.287 714.972 Q230.23 714.972 230.772 715.575 Q231.334 716.157 231.334 716.98 Q231.334 717.802 230.772 718.405 Q230.23 718.987 229.287 718.987 Q228.825 718.987 228.584 718.906 Q229.126 720.793 230.772 722.158 Q232.438 723.523 234.626 723.523 Q237.375 723.523 239.021 720.853 Q240.005 719.127 240.005 715.213 Q240.005 711.761 239.262 710.035 Q238.118 707.405 235.77 707.405 Q232.438 707.405 230.471 710.276 Q230.23 710.637 229.949 710.657 Q229.547 710.657 229.447 710.436 Q229.367 710.195 229.367 709.573 L229.367 697.41 Q229.367 696.426 229.768 696.426 Q229.929 696.426 230.27 696.547 Q232.859 697.691 235.729 697.711 Q238.68 697.711 241.329 696.507 Q241.53 696.386 241.651 696.386 Q242.052 696.386 242.072 696.848 Q242.072 697.008 241.731 697.49 Q241.41 697.952 240.707 698.574 Q240.005 699.176 239.102 699.758 Q238.198 700.34 236.874 700.742 Q235.569 701.123 234.124 701.123 Q232.398 701.123 230.631 700.581 L230.631 708.59 Q232.759 706.502 235.85 706.502 Q239.142 706.502 241.41 709.152 Q243.678 711.801 243.678 715.494 Q243.678 719.368 240.988 722.017 Q238.319 724.667 234.706 724.667 Q231.414 724.667 229.327 722.319 Q227.259 719.97 227.259 717.14 Z" fill="#000000" fill-rule="nonzero" fill-opacity="1" /><path clip-path="url(#clip170)" d="M119.06 286.561 L119.06 284.98 Q125.137 284.98 128.275 281.744 Q129.139 281.744 129.287 281.942 Q129.436 282.139 129.436 283.053 L129.436 311.437 Q129.436 312.944 130.177 313.414 Q130.918 313.883 134.154 313.883 L135.76 313.883 L135.76 315.439 Q133.981 315.291 127.558 315.291 Q121.135 315.291 119.381 315.439 L119.381 313.883 L120.987 313.883 Q124.174 313.883 124.94 313.438 Q125.705 312.969 125.705 311.437 L125.705 285.227 Q123.062 286.561 119.06 286.561 Z" fill="#000000" fill-rule="nonzero" fill-opacity="1" /><path clip-path="url(#clip170)" d="M141.837 299.259 Q141.837 291.823 143.714 287.772 Q146.333 281.744 152.509 281.744 Q153.818 281.744 155.176 282.114 Q156.56 282.46 158.289 283.819 Q160.043 285.178 161.105 287.401 Q163.131 291.699 163.131 299.259 Q163.131 306.645 161.253 310.672 Q158.511 316.551 152.459 316.551 Q150.186 316.551 147.864 315.39 Q145.567 314.229 144.109 311.437 Q141.837 307.263 141.837 299.259 M146.036 298.641 Q146.036 306.274 146.58 309.313 Q147.197 312.598 148.877 314.031 Q150.582 315.439 152.459 315.439 Q154.485 315.439 156.165 313.932 Q157.869 312.401 158.388 309.115 Q158.956 305.879 158.931 298.641 Q158.931 291.601 158.437 288.784 Q157.77 285.499 155.992 284.19 Q154.238 282.856 152.459 282.856 Q151.792 282.856 151.076 283.053 Q150.384 283.251 149.371 283.819 Q148.358 284.387 147.568 285.795 Q146.802 287.203 146.431 289.328 Q146.036 292.07 146.036 298.641 Z" fill="#000000" fill-rule="nonzero" fill-opacity="1" /><path clip-path="url(#clip170)" d="M190.268 277.17 Q190.508 277.411 190.508 277.752 Q190.508 278.094 190.268 278.334 Q190.027 278.575 189.686 278.575 L163.954 278.575 Q163.613 278.575 163.372 278.334 Q163.131 278.094 163.131 277.752 Q163.131 277.411 163.372 277.17 Q163.613 276.929 163.954 276.929 L189.686 276.929 Q190.027 276.929 190.268 277.17 Z" fill="#000000" fill-rule="nonzero" fill-opacity="1" /><path clip-path="url(#clip170)" d="M196.45 264.565 L196.45 263.281 Q201.387 263.281 203.936 260.651 Q204.639 260.651 204.759 260.812 Q204.88 260.973 204.88 261.715 L204.88 284.777 Q204.88 286.002 205.482 286.383 Q206.084 286.764 208.713 286.764 L210.018 286.764 L210.018 288.029 Q208.573 287.909 203.354 287.909 Q198.136 287.909 196.711 288.029 L196.711 286.764 L198.015 286.764 Q200.604 286.764 201.227 286.403 Q201.849 286.022 201.849 284.777 L201.849 263.482 Q199.701 264.565 196.45 264.565 Z" fill="#000000" fill-rule="nonzero" fill-opacity="1" /><path clip-path="url(#clip170)" d="M217.464 287.367 Q216.842 286.704 216.842 285.841 Q216.842 284.978 217.464 284.356 Q218.087 283.714 219.03 283.714 Q219.933 283.714 220.535 284.316 Q221.158 284.898 221.158 285.861 Q221.158 286.805 220.495 287.427 Q219.853 288.029 219.03 288.029 Q218.087 288.029 217.464 287.367 Z" fill="#000000" fill-rule="nonzero" fill-opacity="1" /><path clip-path="url(#clip170)" d="M226.376 274.882 Q226.376 268.841 227.902 265.549 Q230.029 260.651 235.047 260.651 Q236.111 260.651 237.215 260.953 Q238.339 261.234 239.744 262.337 Q241.169 263.441 242.032 265.248 Q243.678 268.74 243.678 274.882 Q243.678 280.883 242.152 284.155 Q239.924 288.932 235.007 288.932 Q233.16 288.932 231.274 287.989 Q229.407 287.045 228.223 284.777 Q226.376 281.385 226.376 274.882 M229.788 274.38 Q229.788 280.582 230.23 283.051 Q230.732 285.721 232.097 286.885 Q233.481 288.029 235.007 288.029 Q236.653 288.029 238.018 286.805 Q239.403 285.56 239.824 282.891 Q240.286 280.261 240.266 274.38 Q240.266 268.66 239.864 266.372 Q239.322 263.702 237.877 262.639 Q236.452 261.555 235.007 261.555 Q234.465 261.555 233.883 261.715 Q233.321 261.876 232.498 262.337 Q231.675 262.799 231.033 263.943 Q230.411 265.087 230.109 266.813 Q229.788 269.041 229.788 274.38 Z" fill="#000000" fill-rule="nonzero" fill-opacity="1" /><path clip-path="url(#clip170)" d="M34.6352 801.913 L17.5899 800.467 L17.5899 754.112 L34.6352 752.666 L34.6352 754.556 Q31.2261 754.853 29.2622 755.149 Q27.2983 755.408 25.4455 756.075 Q23.5557 756.705 22.6664 757.521 Q21.74 758.299 21.036 759.818 Q20.2949 761.337 20.1096 763.301 Q19.9243 765.265 19.9243 768.23 Q19.9243 771.713 20.0726 772.565 Q20.2949 773.491 20.9619 773.714 Q21.5918 773.936 22.9629 773.936 L62.9452 773.936 Q64.4645 773.936 65.0944 773.64 Q65.6873 773.306 66.169 771.564 Q66.6137 769.823 66.6137 765.969 L66.6137 762.931 L68.9482 762.931 Q68.7258 766.043 68.7258 777.345 Q68.7258 788.573 68.9482 791.685 L66.6137 791.685 L66.6137 788.647 Q66.6137 784.793 66.169 783.052 Q65.6873 781.273 65.0944 780.976 Q64.4645 780.68 62.9452 780.68 L22.9629 780.68 Q21.8883 780.68 21.4436 780.754 Q20.9989 780.828 20.6284 781.162 Q20.2208 781.495 20.0726 782.273 Q19.9243 783.014 19.9243 786.349 Q19.9243 789.314 20.1096 791.315 Q20.2949 793.279 21.036 794.798 Q21.74 796.317 22.6664 797.132 Q23.5557 797.911 25.4455 798.578 Q27.2983 799.208 29.2622 799.467 Q31.2261 799.726 34.6352 800.023 L34.6352 801.913 Z" fill="#000000" fill-rule="nonzero" fill-opacity="1" /><path clip-path="url(#clip170)" d="M68.9482 747.368 L66.6137 747.368 Q66.6137 743.329 66.132 742.402 Q65.6132 741.476 63.1676 741.476 L42.7502 741.476 Q39.9341 741.476 39.2671 742.439 Q38.6001 743.366 38.6001 747.071 L36.2286 747.071 L35.4133 736.473 L63.2417 736.473 Q65.502 736.473 66.0579 735.658 Q66.6137 734.843 66.6137 731.137 L68.9482 731.137 Q68.7258 738.882 68.7258 739.03 Q68.7258 740.068 68.9482 747.368 M22.1847 744.181 Q20.6654 744.181 19.4426 743.032 Q18.1828 741.846 18.1828 740.179 Q18.1828 738.511 19.3315 737.326 Q20.4431 736.14 22.2218 736.14 Q23.9633 736.14 25.112 737.326 Q26.2237 738.511 26.2237 740.179 Q26.2237 741.92 25.0009 743.069 Q23.7781 744.181 22.1847 744.181 Z" fill="#000000" fill-rule="nonzero" fill-opacity="1" /><path clip-path="url(#clip170)" d="M68.9482 726.431 L66.6137 726.431 Q66.6137 722.392 66.132 721.466 Q65.6132 720.54 63.1676 720.54 L42.8244 720.54 Q40.0082 720.54 39.3041 721.54 Q38.6001 722.504 38.6001 726.431 L36.2286 726.431 L35.4133 715.76 L43.3802 715.76 Q35.4133 712.202 35.4133 704.532 Q35.4133 695.639 42.8244 694.416 Q39.9341 693.119 37.6737 690.414 Q35.4133 687.672 35.4133 683.411 Q35.4133 677.704 38.2295 675.444 Q40.1193 673.776 42.2315 673.443 Q44.3436 673.109 49.8278 673.109 L64.3163 673.109 Q65.9096 673.035 66.2802 671.812 Q66.6137 670.589 66.6137 667.18 L68.9482 667.18 Q68.7258 674.925 68.7258 675.666 Q68.7258 676.259 68.9482 684.263 L66.6137 684.263 Q66.6137 680.224 66.132 679.297 Q65.6132 678.334 63.1676 678.334 L45.4923 678.334 Q41.6386 678.334 39.3782 679.52 Q37.0808 680.706 37.0808 683.966 Q37.0808 687.894 40.3787 691.044 Q43.6766 694.194 49.2349 694.194 L63.1676 694.194 Q65.6132 694.194 66.132 693.267 Q66.6137 692.304 66.6137 688.265 L68.9482 688.265 Q68.7258 696.009 68.7258 696.787 Q68.7258 697.38 68.9482 705.347 L66.6137 705.347 Q66.6137 701.308 66.132 700.382 Q65.6132 699.418 63.1676 699.418 L45.4923 699.418 Q41.6386 699.418 39.3782 700.604 Q37.0808 701.79 37.0808 705.051 Q37.0808 708.979 40.3787 712.128 Q43.6766 715.278 49.2349 715.278 L63.1676 715.278 Q65.6132 715.278 66.132 714.351 Q66.6137 713.388 66.6137 709.386 L68.9482 709.386 Q68.7258 717.131 68.7258 717.872 Q68.7258 718.465 68.9482 726.431 Z" fill="#000000" fill-rule="nonzero" fill-opacity="1" /><path clip-path="url(#clip170)" d="M52.2363 663.586 Q45.0847 663.586 40.0082 658.991 Q34.9316 654.396 34.9316 647.801 Q34.9316 641.131 39.2671 637.685 Q43.6025 634.201 49.8278 634.201 Q50.9765 634.201 51.1988 634.498 Q51.4211 634.794 51.4211 636.091 L51.4211 657.287 Q59.1656 657.287 62.797 654.989 Q67.8736 651.803 67.8736 646.43 Q67.8736 645.689 67.7253 644.799 Q67.5771 643.91 66.9472 642.094 Q66.2802 640.278 64.5386 638.685 Q62.797 637.092 60.0549 636.165 Q58.9804 635.943 59.0174 635.202 Q59.0174 634.201 59.9067 634.201 Q60.5737 634.201 62.093 634.943 Q63.5752 635.647 65.3538 637.018 Q67.1325 638.389 68.4664 641.057 Q69.8004 643.688 69.8004 646.874 Q69.8004 653.544 64.7609 658.584 Q59.6844 663.586 52.2363 663.586 M49.8278 657.213 L49.8278 639.204 Q48.2344 639.204 46.4557 639.5 Q44.6771 639.76 42.2315 640.575 Q39.7488 641.353 38.1925 643.206 Q36.6362 645.059 36.6362 647.801 Q36.6362 649.023 37.1549 650.357 Q37.6737 651.654 38.9336 653.248 Q40.1934 654.841 43.0467 655.953 Q45.8999 657.064 49.8278 657.213 Z" fill="#000000" fill-rule="nonzero" fill-opacity="1" /><path clip-path="url(#clip170)" d="M49.976 599.259 Q37.1549 599.259 26.8166 594.478 Q22.4811 592.44 18.8497 589.587 Q15.2184 586.734 13.625 584.844 Q12.0316 582.954 12.0316 582.436 Q12.0316 581.694 12.7727 581.657 Q13.1433 581.657 14.0696 582.658 Q26.5201 594.886 49.976 594.849 Q73.5059 594.849 85.4747 582.954 Q86.7716 581.657 87.1792 581.657 Q87.9203 581.657 87.9203 582.436 Q87.9203 582.954 86.4011 584.77 Q84.8818 586.586 81.3987 589.402 Q77.9155 592.218 73.6541 594.256 Q63.3158 599.259 49.976 599.259 Z" fill="#000000" fill-rule="nonzero" fill-opacity="1" /><path clip-path="url(#clip170)" d="M67.9477 574.839 L57.9428 574.839 Q57.0905 574.839 56.7941 574.802 Q56.4977 574.765 56.2753 574.543 Q56.053 574.32 56.053 573.876 Q56.053 573.357 56.2753 573.172 Q56.4977 572.949 57.3499 572.801 Q62.5747 571.653 65.3538 569.207 Q68.0959 566.724 68.0959 562.241 Q68.0959 557.979 66.2061 555.83 Q64.3163 553.681 61.2037 553.681 Q55.6454 553.681 54.2373 561.574 Q53.3109 566.131 52.7181 568.021 Q52.0881 569.911 50.7171 571.578 Q48.0491 574.839 44.2695 574.839 Q40.4899 574.839 37.7108 571.986 Q34.9316 569.096 34.9316 562.722 Q34.9316 558.461 37.0808 555.571 Q36.4138 554.718 35.858 554.274 Q34.9316 553.273 34.9316 552.754 Q34.9316 552.162 35.3392 552.05 Q35.7098 551.939 36.7844 551.939 L44.4177 551.939 Q45.27 551.939 45.5664 551.976 Q45.8629 552.013 46.0852 552.236 Q46.2705 552.458 46.2705 552.94 Q46.2705 553.792 45.5664 553.829 Q36.3768 554.422 36.3768 562.722 Q36.3768 567.206 38.1184 569.207 Q39.8229 571.208 42.1574 571.208 Q43.4543 571.208 44.4548 570.615 Q45.4182 569.985 46.0111 569.207 Q46.5669 568.392 47.1227 566.909 Q47.6415 565.427 47.8268 564.538 Q48.0121 563.612 48.3826 561.87 Q49.5313 555.793 52.014 553.236 Q55.2007 550.049 59.2397 550.049 Q63.7234 550.049 66.7619 553.088 Q69.8004 556.126 69.8004 562.241 Q69.8004 567.169 66.5025 570.615 Q66.9472 571.06 67.3548 571.393 Q67.7253 571.727 67.8736 571.875 Q68.0218 571.986 68.1329 572.023 Q68.2071 572.06 68.2812 572.134 Q69.8004 573.654 69.8004 574.024 Q69.8004 574.617 69.3928 574.728 Q69.0223 574.839 67.9477 574.839 Z" fill="#000000" fill-rule="nonzero" fill-opacity="1" /><path clip-path="url(#clip170)" d="M87.1792 543.157 Q86.8087 543.157 85.8823 542.194 Q73.4318 529.966 49.976 529.966 Q26.446 529.966 14.5514 541.712 Q13.1803 543.157 12.7727 543.157 Q12.0316 543.157 12.0316 542.416 Q12.0316 541.897 13.5509 540.082 Q15.0701 538.229 18.5533 535.45 Q22.0365 532.634 26.2978 530.558 Q36.6362 525.556 49.976 525.556 Q62.797 525.556 73.1354 530.336 Q77.4708 532.374 81.1022 535.227 Q84.7336 538.081 86.327 539.97 Q87.9203 541.86 87.9203 542.416 Q87.9203 543.157 87.1792 543.157 Z" fill="#000000" fill-rule="nonzero" fill-opacity="1" /><polyline clip-path="url(#clip172)" style="stroke:#0000ff; stroke-linecap:round; stroke-linejoin:round; stroke-width:12; stroke-opacity:1; fill:none" points="1792.02,947.846 1330.22,729.861 873.439,519.75 454.793,300.722 531.019,82.1398 "/>
<line clip-path="url(#clip172)" x1="1792.02" y1="947.846" x2="1792.02" y2="931.846" style="stroke:#0000ff; stroke-width:12; stroke-opacity:1"/>
<line clip-path="url(#clip172)" x1="1792.02" y1="947.846" x2="1776.02" y2="947.846" style="stroke:#0000ff; stroke-width:12; stroke-opacity:1"/>
<line clip-path="url(#clip172)" x1="1792.02" y1="947.846" x2="1792.02" y2="963.846" style="stroke:#0000ff; stroke-width:12; stroke-opacity:1"/>
<line clip-path="url(#clip172)" x1="1792.02" y1="947.846" x2="1808.02" y2="947.846" style="stroke:#0000ff; stroke-width:12; stroke-opacity:1"/>
<line clip-path="url(#clip172)" x1="1330.22" y1="729.861" x2="1330.22" y2="713.861" style="stroke:#0000ff; stroke-width:12; stroke-opacity:1"/>
<line clip-path="url(#clip172)" x1="1330.22" y1="729.861" x2="1314.22" y2="729.861" style="stroke:#0000ff; stroke-width:12; stroke-opacity:1"/>
<line clip-path="url(#clip172)" x1="1330.22" y1="729.861" x2="1330.22" y2="745.861" style="stroke:#0000ff; stroke-width:12; stroke-opacity:1"/>
<line clip-path="url(#clip172)" x1="1330.22" y1="729.861" x2="1346.22" y2="729.861" style="stroke:#0000ff; stroke-width:12; stroke-opacity:1"/>
<line clip-path="url(#clip172)" x1="873.439" y1="519.75" x2="873.439" y2="503.75" style="stroke:#0000ff; stroke-width:12; stroke-opacity:1"/>
<line clip-path="url(#clip172)" x1="873.439" y1="519.75" x2="857.439" y2="519.75" style="stroke:#0000ff; stroke-width:12; stroke-opacity:1"/>
<line clip-path="url(#clip172)" x1="873.439" y1="519.75" x2="873.439" y2="535.75" style="stroke:#0000ff; stroke-width:12; stroke-opacity:1"/>
<line clip-path="url(#clip172)" x1="873.439" y1="519.75" x2="889.439" y2="519.75" style="stroke:#0000ff; stroke-width:12; stroke-opacity:1"/>
<line clip-path="url(#clip172)" x1="454.793" y1="300.722" x2="454.793" y2="284.722" style="stroke:#0000ff; stroke-width:12; stroke-opacity:1"/>
<line clip-path="url(#clip172)" x1="454.793" y1="300.722" x2="438.793" y2="300.722" style="stroke:#0000ff; stroke-width:12; stroke-opacity:1"/>
<line clip-path="url(#clip172)" x1="454.793" y1="300.722" x2="454.793" y2="316.722" style="stroke:#0000ff; stroke-width:12; stroke-opacity:1"/>
<line clip-path="url(#clip172)" x1="454.793" y1="300.722" x2="470.793" y2="300.722" style="stroke:#0000ff; stroke-width:12; stroke-opacity:1"/>
<line clip-path="url(#clip172)" x1="531.019" y1="82.1398" x2="531.019" y2="66.1398" style="stroke:#0000ff; stroke-width:12; stroke-opacity:1"/>
<line clip-path="url(#clip172)" x1="531.019" y1="82.1398" x2="515.019" y2="82.1398" style="stroke:#0000ff; stroke-width:12; stroke-opacity:1"/>
<line clip-path="url(#clip172)" x1="531.019" y1="82.1398" x2="531.019" y2="98.1398" style="stroke:#0000ff; stroke-width:12; stroke-opacity:1"/>
<line clip-path="url(#clip172)" x1="531.019" y1="82.1398" x2="547.019" y2="82.1398" style="stroke:#0000ff; stroke-width:12; stroke-opacity:1"/>
<polyline clip-path="url(#clip172)" style="stroke:#7f007f; stroke-linecap:round; stroke-linejoin:round; stroke-width:12; stroke-opacity:1; fill:none" points="1529.53,1231.95 1035.3,1068.63 322.329,920.002 527.44,743.93 531.058,573.059 "/>
<circle clip-path="url(#clip172)" cx="1529.53" cy="1231.95" r="14.4" fill="#7f007f" fill-rule="evenodd" fill-opacity="1" stroke="#000000" stroke-opacity="1" stroke-width="1.536"/>
<circle clip-path="url(#clip172)" cx="1035.3" cy="1068.63" r="14.4" fill="#7f007f" fill-rule="evenodd" fill-opacity="1" stroke="#000000" stroke-opacity="1" stroke-width="1.536"/>
<circle clip-path="url(#clip172)" cx="322.329" cy="920.002" r="14.4" fill="#7f007f" fill-rule="evenodd" fill-opacity="1" stroke="#000000" stroke-opacity="1" stroke-width="1.536"/>
<circle clip-path="url(#clip172)" cx="527.44" cy="743.93" r="14.4" fill="#7f007f" fill-rule="evenodd" fill-opacity="1" stroke="#000000" stroke-opacity="1" stroke-width="1.536"/>
<circle clip-path="url(#clip172)" cx="531.058" cy="573.059" r="14.4" fill="#7f007f" fill-rule="evenodd" fill-opacity="1" stroke="#000000" stroke-opacity="1" stroke-width="1.536"/>
<polyline clip-path="url(#clip172)" style="stroke:#ff0000; stroke-linecap:round; stroke-linejoin:round; stroke-width:12; stroke-opacity:1; fill:none" points="1563.87,1245.33 722.878,1198.6 505.222,1064.31 528.96,927.42 530.931,786.011 "/>
<line clip-path="url(#clip172)" x1="1563.87" y1="1245.33" x2="1563.87" y2="1229.33" style="stroke:#ff0000; stroke-width:12; stroke-opacity:1"/>
<line clip-path="url(#clip172)" x1="1563.87" y1="1245.33" x2="1547.87" y2="1245.33" style="stroke:#ff0000; stroke-width:12; stroke-opacity:1"/>
<line clip-path="url(#clip172)" x1="1563.87" y1="1245.33" x2="1563.87" y2="1261.33" style="stroke:#ff0000; stroke-width:12; stroke-opacity:1"/>
<line clip-path="url(#clip172)" x1="1563.87" y1="1245.33" x2="1579.87" y2="1245.33" style="stroke:#ff0000; stroke-width:12; stroke-opacity:1"/>
<line clip-path="url(#clip172)" x1="722.878" y1="1198.6" x2="722.878" y2="1182.6" style="stroke:#ff0000; stroke-width:12; stroke-opacity:1"/>
<line clip-path="url(#clip172)" x1="722.878" y1="1198.6" x2="706.878" y2="1198.6" style="stroke:#ff0000; stroke-width:12; stroke-opacity:1"/>
<line clip-path="url(#clip172)" x1="722.878" y1="1198.6" x2="722.878" y2="1214.6" style="stroke:#ff0000; stroke-width:12; stroke-opacity:1"/>
<line clip-path="url(#clip172)" x1="722.878" y1="1198.6" x2="738.878" y2="1198.6" style="stroke:#ff0000; stroke-width:12; stroke-opacity:1"/>
<line clip-path="url(#clip172)" x1="505.222" y1="1064.31" x2="505.222" y2="1048.31" style="stroke:#ff0000; stroke-width:12; stroke-opacity:1"/>
<line clip-path="url(#clip172)" x1="505.222" y1="1064.31" x2="489.222" y2="1064.31" style="stroke:#ff0000; stroke-width:12; stroke-opacity:1"/>
<line clip-path="url(#clip172)" x1="505.222" y1="1064.31" x2="505.222" y2="1080.31" style="stroke:#ff0000; stroke-width:12; stroke-opacity:1"/>
<line clip-path="url(#clip172)" x1="505.222" y1="1064.31" x2="521.222" y2="1064.31" style="stroke:#ff0000; stroke-width:12; stroke-opacity:1"/>
<line clip-path="url(#clip172)" x1="528.96" y1="927.42" x2="528.96" y2="911.42" style="stroke:#ff0000; stroke-width:12; stroke-opacity:1"/>
<line clip-path="url(#clip172)" x1="528.96" y1="927.42" x2="512.96" y2="927.42" style="stroke:#ff0000; stroke-width:12; stroke-opacity:1"/>
<line clip-path="url(#clip172)" x1="528.96" y1="927.42" x2="528.96" y2="943.42" style="stroke:#ff0000; stroke-width:12; stroke-opacity:1"/>
<line clip-path="url(#clip172)" x1="528.96" y1="927.42" x2="544.96" y2="927.42" style="stroke:#ff0000; stroke-width:12; stroke-opacity:1"/>
<line clip-path="url(#clip172)" x1="530.931" y1="786.011" x2="530.931" y2="770.011" style="stroke:#ff0000; stroke-width:12; stroke-opacity:1"/>
<line clip-path="url(#clip172)" x1="530.931" y1="786.011" x2="514.931" y2="786.011" style="stroke:#ff0000; stroke-width:12; stroke-opacity:1"/>
<line clip-path="url(#clip172)" x1="530.931" y1="786.011" x2="530.931" y2="802.011" style="stroke:#ff0000; stroke-width:12; stroke-opacity:1"/>
<line clip-path="url(#clip172)" x1="530.931" y1="786.011" x2="546.931" y2="786.011" style="stroke:#ff0000; stroke-width:12; stroke-opacity:1"/>
<path clip-path="url(#clip170)" d="M1902.06 295.703 L2256.76 295.703 L2256.76 88.3434 L1902.06 88.3434  Z" fill="#ffffff" fill-rule="evenodd" fill-opacity="1"/>
<polyline clip-path="url(#clip170)" style="stroke:#000000; stroke-linecap:round; stroke-linejoin:round; stroke-width:4; stroke-opacity:1; fill:none" points="1902.06,295.703 2256.76,295.703 2256.76,88.3434 1902.06,88.3434 1902.06,295.703 "/>
<polyline clip-path="url(#clip170)" style="stroke:#0000ff; stroke-linecap:round; stroke-linejoin:round; stroke-width:12; stroke-opacity:1; fill:none" points="1924.05,140.183 2055.95,140.183 "/>
<line clip-path="url(#clip170)" x1="1990" y1="140.183" x2="1990" y2="119.828" style="stroke:#0000ff; stroke-width:12; stroke-opacity:1"/>
<line clip-path="url(#clip170)" x1="1990" y1="140.183" x2="1969.64" y2="140.183" style="stroke:#0000ff; stroke-width:12; stroke-opacity:1"/>
<line clip-path="url(#clip170)" x1="1990" y1="140.183" x2="1990" y2="160.539" style="stroke:#0000ff; stroke-width:12; stroke-opacity:1"/>
<line clip-path="url(#clip170)" x1="1990" y1="140.183" x2="2010.35" y2="140.183" style="stroke:#0000ff; stroke-width:12; stroke-opacity:1"/>
<path clip-path="url(#clip170)" d="M2077.93 157.463 L2077.93 155.907 L2079.14 155.907 Q2081.88 155.907 2082.5 155.462 Q2083.14 154.993 2083.14 153.511 L2083.14 127.004 Q2083.14 125.547 2082.5 125.102 Q2081.86 124.633 2079.14 124.633 L2077.93 124.633 L2077.93 123.052 L2106.41 123.052 L2107.82 134.44 L2106.56 134.44 Q2106.22 131.55 2105.75 129.894 Q2105.3 128.215 2104.19 126.93 Q2103.1 125.646 2101.3 125.151 Q2099.52 124.633 2096.63 124.633 L2090.11 124.633 Q2088.38 124.633 2088.01 125.003 Q2087.64 125.349 2087.64 126.658 L2087.64 138.788 L2092.18 138.788 Q2095.67 138.788 2096.66 137.577 Q2097.64 136.367 2097.64 132.884 L2098.93 132.884 L2098.93 146.273 L2097.64 146.273 Q2097.64 142.839 2096.66 141.604 Q2095.67 140.369 2092.18 140.369 L2087.64 140.369 L2087.64 153.881 Q2087.64 155.191 2088.01 155.561 Q2088.4 155.907 2090.11 155.907 L2096.85 155.907 Q2099.03 155.907 2100.61 155.635 Q2102.21 155.339 2103.33 154.647 Q2104.44 153.931 2105.18 153.116 Q2105.94 152.3 2106.46 150.843 Q2107.01 149.361 2107.3 148.002 Q2107.62 146.643 2107.97 144.42 L2109.23 144.42 L2107.11 157.463 L2077.93 157.463 Z" fill="#000000" fill-rule="nonzero" fill-opacity="1" /><path clip-path="url(#clip170)" d="M2112.32 157.463 L2112.32 155.907 L2113.53 155.907 Q2116.27 155.907 2116.89 155.462 Q2117.53 154.993 2117.53 153.511 L2117.53 126.856 Q2117.53 125.398 2116.89 124.954 Q2116.25 124.484 2113.53 124.484 L2112.32 124.484 L2112.32 122.903 Q2114.1 123.052 2119.8 123.052 Q2125.46 123.052 2127.24 122.903 L2127.24 124.484 L2126.03 124.484 Q2123.29 124.484 2122.64 124.954 Q2122.03 125.398 2122.03 126.856 L2122.03 142.938 L2137.86 127.819 Q2138.78 127.004 2138.78 126.14 Q2138.78 125.843 2138.63 125.522 Q2138.5 125.176 2137.91 124.83 Q2137.34 124.484 2136.43 124.484 L2136.43 122.903 Q2138.16 123.052 2142.88 123.052 Q2145.86 123.052 2147.17 122.903 L2147.17 124.484 Q2142.97 124.534 2139.99 127.523 L2130.87 136.268 L2142.55 153.461 Q2143.62 155.018 2144.65 155.462 Q2145.69 155.907 2147.87 155.907 L2147.87 157.463 Q2144.68 157.315 2142.06 157.315 Q2136.6 157.315 2134.82 157.463 L2134.82 155.907 Q2137.81 155.907 2137.81 154.376 Q2137.81 153.807 2137.05 152.646 L2127.88 139.109 L2122.03 144.667 L2122.03 153.511 Q2122.03 154.968 2122.64 155.438 Q2123.29 155.907 2126.03 155.907 L2127.24 155.907 L2127.24 157.463 Q2125.46 157.315 2119.75 157.315 Q2114.1 157.315 2112.32 157.463 Z" fill="#000000" fill-rule="nonzero" fill-opacity="1" /><path clip-path="url(#clip170)" d="M2154.44 128.585 L2154.44 127.004 Q2160.51 127.004 2163.65 123.768 Q2164.52 123.768 2164.66 123.966 Q2164.81 124.163 2164.81 125.077 L2164.81 153.461 Q2164.81 154.968 2165.55 155.438 Q2166.29 155.907 2169.53 155.907 L2171.14 155.907 L2171.14 157.463 Q2169.36 157.315 2162.94 157.315 Q2156.51 157.315 2154.76 157.463 L2154.76 155.907 L2156.36 155.907 Q2159.55 155.907 2160.32 155.462 Q2161.08 154.993 2161.08 153.461 L2161.08 127.251 Q2158.44 128.585 2154.44 128.585 Z" fill="#000000" fill-rule="nonzero" fill-opacity="1" /><path clip-path="url(#clip170)" d="M2180.25 144.815 Q2180.25 136.268 2183.44 129.376 Q2184.8 126.485 2186.7 124.064 Q2188.6 121.644 2189.86 120.581 Q2191.12 119.519 2191.47 119.519 Q2191.96 119.519 2191.99 120.013 Q2191.99 120.26 2191.32 120.878 Q2183.17 129.178 2183.19 144.815 Q2183.19 160.502 2191.12 168.481 Q2191.99 169.346 2191.99 169.617 Q2191.99 170.112 2191.47 170.112 Q2191.12 170.112 2189.91 169.099 Q2188.7 168.086 2186.82 165.764 Q2184.95 163.442 2183.59 160.601 Q2180.25 153.709 2180.25 144.815 Z" fill="#000000" fill-rule="nonzero" fill-opacity="1" /><path clip-path="url(#clip170)" d="M2197.37 157.463 Q2197.37 156.549 2197.45 156.278 Q2197.54 156.006 2197.94 155.586 L2207.65 144.766 Q2212.96 138.788 2212.96 133.575 Q2212.96 130.191 2211.18 127.77 Q2209.43 125.349 2206.19 125.349 Q2203.97 125.349 2202.09 126.708 Q2200.21 128.066 2199.35 130.487 Q2199.5 130.438 2200.01 130.438 Q2201.27 130.438 2201.97 131.228 Q2202.68 132.019 2202.68 133.081 Q2202.68 134.44 2201.79 135.107 Q2200.93 135.749 2200.06 135.749 Q2199.72 135.749 2199.25 135.675 Q2198.8 135.601 2198.09 134.909 Q2197.37 134.193 2197.37 132.933 Q2197.37 129.4 2200.04 126.584 Q2202.73 123.768 2206.83 123.768 Q2211.48 123.768 2214.52 126.535 Q2217.58 129.277 2217.58 133.575 Q2217.58 135.082 2217.11 136.466 Q2216.66 137.824 2216.05 138.887 Q2215.45 139.949 2213.82 141.653 Q2212.19 143.358 2210.88 144.568 Q2209.57 145.779 2206.64 148.348 L2201.27 153.56 L2210.39 153.56 Q2214.84 153.56 2215.18 153.165 Q2215.68 152.449 2216.29 148.669 L2217.58 148.669 L2216.15 157.463 L2197.37 157.463 Z" fill="#000000" fill-rule="nonzero" fill-opacity="1" /><path clip-path="url(#clip170)" d="M2223.04 169.617 Q2223.04 169.37 2223.68 168.753 Q2231.83 160.453 2231.83 144.815 Q2231.83 129.129 2224 121.199 Q2223.04 120.285 2223.04 120.013 Q2223.04 119.519 2223.53 119.519 Q2223.88 119.519 2225.09 120.532 Q2226.32 121.545 2228.18 123.867 Q2230.05 126.189 2231.44 129.03 Q2234.77 135.922 2234.77 144.815 Q2234.77 153.363 2231.59 160.255 Q2230.23 163.145 2228.32 165.566 Q2226.42 167.987 2225.16 169.049 Q2223.9 170.112 2223.53 170.112 Q2223.04 170.112 2223.04 169.617 Z" fill="#000000" fill-rule="nonzero" fill-opacity="1" /><polyline clip-path="url(#clip170)" style="stroke:#7f007f; stroke-linecap:round; stroke-linejoin:round; stroke-width:12; stroke-opacity:1; fill:none" points="1924.05,192.023 2055.95,192.023 "/>
<circle clip-path="url(#clip170)" cx="1990" cy="192.023" r="18.3196" fill="#7f007f" fill-rule="evenodd" fill-opacity="1" stroke="#000000" stroke-opacity="1" stroke-width="2.31304"/>
<path clip-path="url(#clip170)" d="M2077.93 209.303 L2077.93 207.747 L2079.14 207.747 Q2081.88 207.747 2082.5 207.302 Q2083.14 206.833 2083.14 205.351 L2083.14 178.844 Q2083.14 177.387 2082.5 176.942 Q2081.86 176.473 2079.14 176.473 L2077.93 176.473 L2077.93 174.892 L2106.41 174.892 L2107.82 186.28 L2106.56 186.28 Q2106.22 183.39 2105.75 181.734 Q2105.3 180.055 2104.19 178.77 Q2103.1 177.486 2101.3 176.991 Q2099.52 176.473 2096.63 176.473 L2090.11 176.473 Q2088.38 176.473 2088.01 176.843 Q2087.64 177.189 2087.64 178.498 L2087.64 190.628 L2092.18 190.628 Q2095.67 190.628 2096.66 189.417 Q2097.64 188.207 2097.64 184.724 L2098.93 184.724 L2098.93 198.113 L2097.64 198.113 Q2097.64 194.679 2096.66 193.444 Q2095.67 192.209 2092.18 192.209 L2087.64 192.209 L2087.64 205.721 Q2087.64 207.031 2088.01 207.401 Q2088.4 207.747 2090.11 207.747 L2096.85 207.747 Q2099.03 207.747 2100.61 207.475 Q2102.21 207.179 2103.33 206.487 Q2104.44 205.771 2105.18 204.956 Q2105.94 204.14 2106.46 202.683 Q2107.01 201.201 2107.3 199.842 Q2107.62 198.483 2107.97 196.26 L2109.23 196.26 L2107.11 209.303 L2077.93 209.303 Z" fill="#000000" fill-rule="nonzero" fill-opacity="1" /><path clip-path="url(#clip170)" d="M2112.32 209.303 L2112.32 207.747 L2113.53 207.747 Q2116.27 207.747 2116.89 207.302 Q2117.53 206.833 2117.53 205.351 L2117.53 178.696 Q2117.53 177.238 2116.89 176.794 Q2116.25 176.324 2113.53 176.324 L2112.32 176.324 L2112.32 174.743 Q2114.1 174.892 2119.8 174.892 Q2125.46 174.892 2127.24 174.743 L2127.24 176.324 L2126.03 176.324 Q2123.29 176.324 2122.64 176.794 Q2122.03 177.238 2122.03 178.696 L2122.03 194.778 L2137.86 179.659 Q2138.78 178.844 2138.78 177.98 Q2138.78 177.683 2138.63 177.362 Q2138.5 177.016 2137.91 176.67 Q2137.34 176.324 2136.43 176.324 L2136.43 174.743 Q2138.16 174.892 2142.88 174.892 Q2145.86 174.892 2147.17 174.743 L2147.17 176.324 Q2142.97 176.374 2139.99 179.363 L2130.87 188.108 L2142.55 205.301 Q2143.62 206.858 2144.65 207.302 Q2145.69 207.747 2147.87 207.747 L2147.87 209.303 Q2144.68 209.155 2142.06 209.155 Q2136.6 209.155 2134.82 209.303 L2134.82 207.747 Q2137.81 207.747 2137.81 206.216 Q2137.81 205.647 2137.05 204.486 L2127.88 190.949 L2122.03 196.507 L2122.03 205.351 Q2122.03 206.808 2122.64 207.278 Q2123.29 207.747 2126.03 207.747 L2127.24 207.747 L2127.24 209.303 Q2125.46 209.155 2119.75 209.155 Q2114.1 209.155 2112.32 209.303 Z" fill="#000000" fill-rule="nonzero" fill-opacity="1" /><path clip-path="url(#clip170)" d="M2154.44 180.425 L2154.44 178.844 Q2160.51 178.844 2163.65 175.608 Q2164.52 175.608 2164.66 175.806 Q2164.81 176.003 2164.81 176.917 L2164.81 205.301 Q2164.81 206.808 2165.55 207.278 Q2166.29 207.747 2169.53 207.747 L2171.14 207.747 L2171.14 209.303 Q2169.36 209.155 2162.94 209.155 Q2156.51 209.155 2154.76 209.303 L2154.76 207.747 L2156.36 207.747 Q2159.55 207.747 2160.32 207.302 Q2161.08 206.833 2161.08 205.301 L2161.08 179.091 Q2158.44 180.425 2154.44 180.425 Z" fill="#000000" fill-rule="nonzero" fill-opacity="1" /><path clip-path="url(#clip170)" d="M2180.25 196.655 Q2180.25 188.108 2183.44 181.216 Q2184.8 178.325 2186.7 175.904 Q2188.6 173.484 2189.86 172.421 Q2191.12 171.359 2191.47 171.359 Q2191.96 171.359 2191.99 171.853 Q2191.99 172.1 2191.32 172.718 Q2183.17 181.018 2183.19 196.655 Q2183.19 212.342 2191.12 220.321 Q2191.99 221.186 2191.99 221.457 Q2191.99 221.952 2191.47 221.952 Q2191.12 221.952 2189.91 220.939 Q2188.7 219.926 2186.82 217.604 Q2184.95 215.282 2183.59 212.441 Q2180.25 205.549 2180.25 196.655 Z" fill="#000000" fill-rule="nonzero" fill-opacity="1" /><path clip-path="url(#clip170)" d="M2196.98 202.485 Q2196.98 200.978 2197.84 200.262 Q2198.71 199.546 2199.82 199.546 Q2200.98 199.546 2201.79 200.311 Q2202.63 201.053 2202.63 202.362 Q2202.63 203.77 2201.65 204.56 Q2200.68 205.351 2199.3 205.153 Q2200.51 207.179 2202.73 208.093 Q2204.98 209.007 2207.06 209.007 Q2209.23 209.007 2210.98 207.13 Q2212.76 205.252 2212.76 200.657 Q2212.76 196.754 2211.23 194.506 Q2209.72 192.258 2206.73 192.258 L2204.51 192.258 Q2203.74 192.258 2203.52 192.184 Q2203.3 192.11 2203.3 191.69 Q2203.3 191.196 2204.07 191.097 Q2204.83 191.097 2206.04 190.949 Q2208.98 190.85 2210.54 188.306 Q2211.95 185.934 2211.95 182.55 Q2211.95 179.462 2210.46 178.177 Q2209.01 176.868 2207.1 176.868 Q2205.33 176.868 2203.37 177.609 Q2201.42 178.35 2200.36 180.005 Q2203.5 180.005 2203.5 182.55 Q2203.5 183.661 2202.78 184.402 Q2202.09 185.119 2200.93 185.119 Q2199.82 185.119 2199.08 184.427 Q2198.33 183.711 2198.33 182.5 Q2198.33 179.61 2200.9 177.609 Q2203.5 175.608 2207.3 175.608 Q2211.06 175.608 2213.82 177.584 Q2216.62 179.561 2216.62 182.599 Q2216.62 185.588 2214.64 188.034 Q2212.66 190.479 2209.53 191.492 Q2213.38 192.258 2215.68 194.877 Q2217.97 197.471 2217.97 200.657 Q2217.97 204.61 2214.86 207.525 Q2211.75 210.415 2207.2 210.415 Q2203 210.415 2199.99 208.142 Q2196.98 205.87 2196.98 202.485 Z" fill="#000000" fill-rule="nonzero" fill-opacity="1" /><path clip-path="url(#clip170)" d="M2223.04 221.457 Q2223.04 221.21 2223.68 220.593 Q2231.83 212.293 2231.83 196.655 Q2231.83 180.969 2224 173.039 Q2223.04 172.125 2223.04 171.853 Q2223.04 171.359 2223.53 171.359 Q2223.88 171.359 2225.09 172.372 Q2226.32 173.385 2228.18 175.707 Q2230.05 178.029 2231.44 180.87 Q2234.77 187.762 2234.77 196.655 Q2234.77 205.203 2231.59 212.095 Q2230.23 214.985 2228.32 217.406 Q2226.42 219.827 2225.16 220.889 Q2223.9 221.952 2223.53 221.952 Q2223.04 221.952 2223.04 221.457 Z" fill="#000000" fill-rule="nonzero" fill-opacity="1" /><polyline clip-path="url(#clip170)" style="stroke:#ff0000; stroke-linecap:round; stroke-linejoin:round; stroke-width:12; stroke-opacity:1; fill:none" points="1924.05,243.863 2055.95,243.863 "/>
<line clip-path="url(#clip170)" x1="1990" y1="243.863" x2="1990" y2="223.508" style="stroke:#ff0000; stroke-width:12; stroke-opacity:1"/>
<line clip-path="url(#clip170)" x1="1990" y1="243.863" x2="1969.64" y2="243.863" style="stroke:#ff0000; stroke-width:12; stroke-opacity:1"/>
<line clip-path="url(#clip170)" x1="1990" y1="243.863" x2="1990" y2="264.219" style="stroke:#ff0000; stroke-width:12; stroke-opacity:1"/>
<line clip-path="url(#clip170)" x1="1990" y1="243.863" x2="2010.35" y2="243.863" style="stroke:#ff0000; stroke-width:12; stroke-opacity:1"/>
<path clip-path="url(#clip170)" d="M2077.93 261.143 L2077.93 259.587 L2079.14 259.587 Q2081.88 259.587 2082.5 259.142 Q2083.14 258.673 2083.14 257.191 L2083.14 230.684 Q2083.14 229.227 2082.5 228.782 Q2081.86 228.313 2079.14 228.313 L2077.93 228.313 L2077.93 226.732 L2106.41 226.732 L2107.82 238.12 L2106.56 238.12 Q2106.22 235.23 2105.75 233.574 Q2105.3 231.895 2104.19 230.61 Q2103.1 229.326 2101.3 228.831 Q2099.52 228.313 2096.63 228.313 L2090.11 228.313 Q2088.38 228.313 2088.01 228.683 Q2087.64 229.029 2087.64 230.338 L2087.64 242.468 L2092.18 242.468 Q2095.67 242.468 2096.66 241.257 Q2097.64 240.047 2097.64 236.564 L2098.93 236.564 L2098.93 249.953 L2097.64 249.953 Q2097.64 246.519 2096.66 245.284 Q2095.67 244.049 2092.18 244.049 L2087.64 244.049 L2087.64 257.561 Q2087.64 258.871 2088.01 259.241 Q2088.4 259.587 2090.11 259.587 L2096.85 259.587 Q2099.03 259.587 2100.61 259.315 Q2102.21 259.019 2103.33 258.327 Q2104.44 257.611 2105.18 256.796 Q2105.94 255.98 2106.46 254.523 Q2107.01 253.041 2107.3 251.682 Q2107.62 250.323 2107.97 248.1 L2109.23 248.1 L2107.11 261.143 L2077.93 261.143 Z" fill="#000000" fill-rule="nonzero" fill-opacity="1" /><path clip-path="url(#clip170)" d="M2112.32 261.143 L2112.32 259.587 L2113.53 259.587 Q2116.27 259.587 2116.89 259.142 Q2117.53 258.673 2117.53 257.191 L2117.53 230.536 Q2117.53 229.078 2116.89 228.634 Q2116.25 228.164 2113.53 228.164 L2112.32 228.164 L2112.32 226.583 Q2114.1 226.732 2119.8 226.732 Q2125.46 226.732 2127.24 226.583 L2127.24 228.164 L2126.03 228.164 Q2123.29 228.164 2122.64 228.634 Q2122.03 229.078 2122.03 230.536 L2122.03 246.618 L2137.86 231.499 Q2138.78 230.684 2138.78 229.82 Q2138.78 229.523 2138.63 229.202 Q2138.5 228.856 2137.91 228.51 Q2137.34 228.164 2136.43 228.164 L2136.43 226.583 Q2138.16 226.732 2142.88 226.732 Q2145.86 226.732 2147.17 226.583 L2147.17 228.164 Q2142.97 228.214 2139.99 231.203 L2130.87 239.948 L2142.55 257.141 Q2143.62 258.698 2144.65 259.142 Q2145.69 259.587 2147.87 259.587 L2147.87 261.143 Q2144.68 260.995 2142.06 260.995 Q2136.6 260.995 2134.82 261.143 L2134.82 259.587 Q2137.81 259.587 2137.81 258.056 Q2137.81 257.487 2137.05 256.326 L2127.88 242.789 L2122.03 248.347 L2122.03 257.191 Q2122.03 258.648 2122.64 259.118 Q2123.29 259.587 2126.03 259.587 L2127.24 259.587 L2127.24 261.143 Q2125.46 260.995 2119.75 260.995 Q2114.1 260.995 2112.32 261.143 Z" fill="#000000" fill-rule="nonzero" fill-opacity="1" /><path clip-path="url(#clip170)" d="M2154.44 232.265 L2154.44 230.684 Q2160.51 230.684 2163.65 227.448 Q2164.52 227.448 2164.66 227.646 Q2164.81 227.843 2164.81 228.757 L2164.81 257.141 Q2164.81 258.648 2165.55 259.118 Q2166.29 259.587 2169.53 259.587 L2171.14 259.587 L2171.14 261.143 Q2169.36 260.995 2162.94 260.995 Q2156.51 260.995 2154.76 261.143 L2154.76 259.587 L2156.36 259.587 Q2159.55 259.587 2160.32 259.142 Q2161.08 258.673 2161.08 257.141 L2161.08 230.931 Q2158.44 232.265 2154.44 232.265 Z" fill="#000000" fill-rule="nonzero" fill-opacity="1" /><path clip-path="url(#clip170)" d="M2180.25 248.495 Q2180.25 239.948 2183.44 233.056 Q2184.8 230.165 2186.7 227.744 Q2188.6 225.324 2189.86 224.261 Q2191.12 223.199 2191.47 223.199 Q2191.96 223.199 2191.99 223.693 Q2191.99 223.94 2191.32 224.558 Q2183.17 232.858 2183.19 248.495 Q2183.19 264.182 2191.12 272.161 Q2191.99 273.026 2191.99 273.297 Q2191.99 273.792 2191.47 273.792 Q2191.12 273.792 2189.91 272.779 Q2188.7 271.766 2186.82 269.444 Q2184.95 267.122 2183.59 264.281 Q2180.25 257.389 2180.25 248.495 Z" fill="#000000" fill-rule="nonzero" fill-opacity="1" /><path clip-path="url(#clip170)" d="M2196.26 252.794 L2196.26 251.237 L2211.8 227.497 Q2212.19 226.88 2212.81 226.905 Q2213.38 226.905 2213.5 227.127 Q2213.63 227.349 2213.63 228.214 L2213.63 251.237 L2218.69 251.237 L2218.69 252.794 L2213.63 252.794 L2213.63 257.191 Q2213.63 258.648 2214.22 259.118 Q2214.84 259.587 2217.46 259.587 L2218.52 259.587 L2218.52 261.143 Q2216.44 260.995 2211.65 260.995 Q2206.88 260.995 2204.81 261.143 L2204.81 259.587 L2205.87 259.587 Q2208.49 259.587 2209.11 259.142 Q2209.72 258.673 2209.72 257.191 L2209.72 252.794 L2196.26 252.794 M2197.69 251.237 L2210.02 251.237 L2210.02 232.364 L2197.69 251.237 Z" fill="#000000" fill-rule="nonzero" fill-opacity="1" /><path clip-path="url(#clip170)" d="M2223.04 273.297 Q2223.04 273.05 2223.68 272.433 Q2231.83 264.133 2231.83 248.495 Q2231.83 232.809 2224 224.879 Q2223.04 223.965 2223.04 223.693 Q2223.04 223.199 2223.53 223.199 Q2223.88 223.199 2225.09 224.212 Q2226.32 225.225 2228.18 227.547 Q2230.05 229.869 2231.44 232.71 Q2234.77 239.602 2234.77 248.495 Q2234.77 257.043 2231.59 263.935 Q2230.23 266.825 2228.32 269.246 Q2226.42 271.667 2225.16 272.729 Q2223.9 273.792 2223.53 273.792 Q2223.04 273.792 2223.04 273.297 Z" fill="#000000" fill-rule="nonzero" fill-opacity="1" /></svg>
