<?xml version="1.0" encoding="utf-8"?>
<svg xmlns="http://www.w3.org/2000/svg" xmlns:xlink="http://www.w3.org/1999/xlink" width="864" height="480" viewBox="0 0 3456 1920">
<defs>
  <clipPath id="clip800">
    <rect x="0" y="0" width="3456" height="1920"/>
  </clipPath>
</defs>
<path clip-path="url(#clip800)" d="M0 1920 L3456 1920 L3456 0 L0 0  Z" fill="#ffffff" fill-rule="evenodd" fill-opacity="1"/>
<defs>
  <clipPath id="clip801">
    <rect x="691" y="0" width="2420" height="1920"/>
  </clipPath>
</defs>
<path clip-path="url(#clip800)" d="M364.663 1676.83 L2791.44 1676.83 L2791.44 110.236 L364.663 110.236  Z" fill="#ffffff" fill-rule="evenodd" fill-opacity="1"/>
<defs>
  <clipPath id="clip802">
    <rect x="364" y="110" width="2428" height="1568"/>
  </clipPath>
</defs>
<polyline clip-path="url(#clip802)" style="stroke:#000000; stroke-linecap:round; stroke-linejoin:round; stroke-width:2.8; stroke-opacity:0.4; fill:none" points="603.066,1676.83 603.066,110.236 "/>
<polyline clip-path="url(#clip802)" style="stroke:#000000; stroke-linecap:round; stroke-linejoin:round; stroke-width:2.8; stroke-opacity:0.4; fill:none" points="1071.88,1676.83 1071.88,110.236 "/>
<polyline clip-path="url(#clip802)" style="stroke:#000000; stroke-linecap:round; stroke-linejoin:round; stroke-width:2.8; stroke-opacity:0.4; fill:none" points="1540.7,1676.83 1540.7,110.236 "/>
<polyline clip-path="url(#clip802)" style="stroke:#000000; stroke-linecap:round; stroke-linejoin:round; stroke-width:2.8; stroke-opacity:0.4; fill:none" points="2009.52,1676.83 2009.52,110.236 "/>
<polyline clip-path="url(#clip802)" style="stroke:#000000; stroke-linecap:round; stroke-linejoin:round; stroke-width:2.8; stroke-opacity:0.4; fill:none" points="2478.33,1676.83 2478.33,110.236 "/>
<polyline clip-path="url(#clip802)" style="stroke:#000000; stroke-linecap:round; stroke-linejoin:round; stroke-width:2; stroke-opacity:0.06; fill:none" points="444.961,1676.83 444.961,110.236 "/>
<polyline clip-path="url(#clip802)" style="stroke:#000000; stroke-linecap:round; stroke-linejoin:round; stroke-width:2; stroke-opacity:0.06; fill:none" points="512.2,1676.83 512.2,110.236 "/>
<polyline clip-path="url(#clip802)" style="stroke:#000000; stroke-linecap:round; stroke-linejoin:round; stroke-width:2; stroke-opacity:0.06; fill:none" points="562.661,1676.83 562.661,110.236 "/>
<polyline clip-path="url(#clip802)" style="stroke:#000000; stroke-linecap:round; stroke-linejoin:round; stroke-width:2; stroke-opacity:0.06; fill:none" points="812.701,1676.83 812.701,110.236 "/>
<polyline clip-path="url(#clip802)" style="stroke:#000000; stroke-linecap:round; stroke-linejoin:round; stroke-width:2; stroke-opacity:0.06; fill:none" points="913.778,1676.83 913.778,110.236 "/>
<polyline clip-path="url(#clip802)" style="stroke:#000000; stroke-linecap:round; stroke-linejoin:round; stroke-width:2; stroke-opacity:0.06; fill:none" points="981.017,1676.83 981.017,110.236 "/>
<polyline clip-path="url(#clip802)" style="stroke:#000000; stroke-linecap:round; stroke-linejoin:round; stroke-width:2; stroke-opacity:0.06; fill:none" points="1031.48,1676.83 1031.48,110.236 "/>
<polyline clip-path="url(#clip802)" style="stroke:#000000; stroke-linecap:round; stroke-linejoin:round; stroke-width:2; stroke-opacity:0.06; fill:none" points="1281.52,1676.83 1281.52,110.236 "/>
<polyline clip-path="url(#clip802)" style="stroke:#000000; stroke-linecap:round; stroke-linejoin:round; stroke-width:2; stroke-opacity:0.06; fill:none" points="1382.6,1676.83 1382.6,110.236 "/>
<polyline clip-path="url(#clip802)" style="stroke:#000000; stroke-linecap:round; stroke-linejoin:round; stroke-width:2; stroke-opacity:0.06; fill:none" points="1449.83,1676.83 1449.83,110.236 "/>
<polyline clip-path="url(#clip802)" style="stroke:#000000; stroke-linecap:round; stroke-linejoin:round; stroke-width:2; stroke-opacity:0.06; fill:none" points="1500.29,1676.83 1500.29,110.236 "/>
<polyline clip-path="url(#clip802)" style="stroke:#000000; stroke-linecap:round; stroke-linejoin:round; stroke-width:2; stroke-opacity:0.06; fill:none" points="1750.34,1676.83 1750.34,110.236 "/>
<polyline clip-path="url(#clip802)" style="stroke:#000000; stroke-linecap:round; stroke-linejoin:round; stroke-width:2; stroke-opacity:0.06; fill:none" points="1851.41,1676.83 1851.41,110.236 "/>
<polyline clip-path="url(#clip802)" style="stroke:#000000; stroke-linecap:round; stroke-linejoin:round; stroke-width:2; stroke-opacity:0.06; fill:none" points="1918.65,1676.83 1918.65,110.236 "/>
<polyline clip-path="url(#clip802)" style="stroke:#000000; stroke-linecap:round; stroke-linejoin:round; stroke-width:2; stroke-opacity:0.06; fill:none" points="1969.11,1676.83 1969.11,110.236 "/>
<polyline clip-path="url(#clip802)" style="stroke:#000000; stroke-linecap:round; stroke-linejoin:round; stroke-width:2; stroke-opacity:0.06; fill:none" points="2219.15,1676.83 2219.15,110.236 "/>
<polyline clip-path="url(#clip802)" style="stroke:#000000; stroke-linecap:round; stroke-linejoin:round; stroke-width:2; stroke-opacity:0.06; fill:none" points="2320.23,1676.83 2320.23,110.236 "/>
<polyline clip-path="url(#clip802)" style="stroke:#000000; stroke-linecap:round; stroke-linejoin:round; stroke-width:2; stroke-opacity:0.06; fill:none" points="2387.47,1676.83 2387.47,110.236 "/>
<polyline clip-path="url(#clip802)" style="stroke:#000000; stroke-linecap:round; stroke-linejoin:round; stroke-width:2; stroke-opacity:0.06; fill:none" points="2437.93,1676.83 2437.93,110.236 "/>
<polyline clip-path="url(#clip802)" style="stroke:#000000; stroke-linecap:round; stroke-linejoin:round; stroke-width:2; stroke-opacity:0.06; fill:none" points="2687.97,1676.83 2687.97,110.236 "/>
<polyline clip-path="url(#clip802)" style="stroke:#000000; stroke-linecap:round; stroke-linejoin:round; stroke-width:2; stroke-opacity:0.06; fill:none" points="2789.05,1676.83 2789.05,110.236 "/>
<polyline clip-path="url(#clip800)" style="stroke:#000000; stroke-linecap:round; stroke-linejoin:round; stroke-width:4; stroke-opacity:1; fill:none" points="364.663,1676.83 2791.44,1676.83 "/>
<polyline clip-path="url(#clip800)" style="stroke:#000000; stroke-linecap:round; stroke-linejoin:round; stroke-width:4; stroke-opacity:1; fill:none" points="364.663,110.236 2791.44,110.236 "/>
<polyline clip-path="url(#clip800)" style="stroke:#000000; stroke-linecap:round; stroke-linejoin:round; stroke-width:4; stroke-opacity:1; fill:none" points="603.066,1676.83 603.066,1657.93 "/>
<polyline clip-path="url(#clip800)" style="stroke:#000000; stroke-linecap:round; stroke-linejoin:round; stroke-width:4; stroke-opacity:1; fill:none" points="1071.88,1676.83 1071.88,1657.93 "/>
<polyline clip-path="url(#clip800)" style="stroke:#000000; stroke-linecap:round; stroke-linejoin:round; stroke-width:4; stroke-opacity:1; fill:none" points="1540.7,1676.83 1540.7,1657.93 "/>
<polyline clip-path="url(#clip800)" style="stroke:#000000; stroke-linecap:round; stroke-linejoin:round; stroke-width:4; stroke-opacity:1; fill:none" points="2009.52,1676.83 2009.52,1657.93 "/>
<polyline clip-path="url(#clip800)" style="stroke:#000000; stroke-linecap:round; stroke-linejoin:round; stroke-width:4; stroke-opacity:1; fill:none" points="2478.33,1676.83 2478.33,1657.93 "/>
<polyline clip-path="url(#clip800)" style="stroke:#000000; stroke-linecap:round; stroke-linejoin:round; stroke-width:4; stroke-opacity:1; fill:none" points="444.961,1676.83 444.961,1667.38 "/>
<polyline clip-path="url(#clip800)" style="stroke:#000000; stroke-linecap:round; stroke-linejoin:round; stroke-width:4; stroke-opacity:1; fill:none" points="512.2,1676.83 512.2,1667.38 "/>
<polyline clip-path="url(#clip800)" style="stroke:#000000; stroke-linecap:round; stroke-linejoin:round; stroke-width:4; stroke-opacity:1; fill:none" points="562.661,1676.83 562.661,1667.38 "/>
<polyline clip-path="url(#clip800)" style="stroke:#000000; stroke-linecap:round; stroke-linejoin:round; stroke-width:4; stroke-opacity:1; fill:none" points="812.701,1676.83 812.701,1667.38 "/>
<polyline clip-path="url(#clip800)" style="stroke:#000000; stroke-linecap:round; stroke-linejoin:round; stroke-width:4; stroke-opacity:1; fill:none" points="913.778,1676.83 913.778,1667.38 "/>
<polyline clip-path="url(#clip800)" style="stroke:#000000; stroke-linecap:round; stroke-linejoin:round; stroke-width:4; stroke-opacity:1; fill:none" points="981.017,1676.83 981.017,1667.38 "/>
<polyline clip-path="url(#clip800)" style="stroke:#000000; stroke-linecap:round; stroke-linejoin:round; stroke-width:4; stroke-opacity:1; fill:none" points="1031.48,1676.83 1031.48,1667.38 "/>
<polyline clip-path="url(#clip800)" style="stroke:#000000; stroke-linecap:round; stroke-linejoin:round; stroke-width:4; stroke-opacity:1; fill:none" points="1281.52,1676.83 1281.52,1667.38 "/>
<polyline clip-path="url(#clip800)" style="stroke:#000000; stroke-linecap:round; stroke-linejoin:round; stroke-width:4; stroke-opacity:1; fill:none" points="1382.6,1676.83 1382.6,1667.38 "/>
<polyline clip-path="url(#clip800)" style="stroke:#000000; stroke-linecap:round; stroke-linejoin:round; stroke-width:4; stroke-opacity:1; fill:none" points="1449.83,1676.83 1449.83,1667.38 "/>
<polyline clip-path="url(#clip800)" style="stroke:#000000; stroke-linecap:round; stroke-linejoin:round; stroke-width:4; stroke-opacity:1; fill:none" points="1500.29,1676.83 1500.29,1667.38 "/>
<polyline clip-path="url(#clip800)" style="stroke:#000000; stroke-linecap:round; stroke-linejoin:round; stroke-width:4; stroke-opacity:1; fill:none" points="1750.34,1676.83 1750.34,1667.38 "/>
<polyline clip-path="url(#clip800)" style="stroke:#000000; stroke-linecap:round; stroke-linejoin:round; stroke-width:4; stroke-opacity:1; fill:none" points="1851.41,1676.83 1851.41,1667.38 "/>
<polyline clip-path="url(#clip800)" style="stroke:#000000; stroke-linecap:round; stroke-linejoin:round; stroke-width:4; stroke-opacity:1; fill:none" points="1918.65,1676.83 1918.65,1667.38 "/>
<polyline clip-path="url(#clip800)" style="stroke:#000000; stroke-linecap:round; stroke-linejoin:round; stroke-width:4; stroke-opacity:1; fill:none" points="1969.11,1676.83 1969.11,1667.38 "/>
<polyline clip-path="url(#clip800)" style="stroke:#000000; stroke-linecap:round; stroke-linejoin:round; stroke-width:4; stroke-opacity:1; fill:none" points="2219.15,1676.83 2219.15,1667.38 "/>
<polyline clip-path="url(#clip800)" style="stroke:#000000; stroke-linecap:round; stroke-linejoin:round; stroke-width:4; stroke-opacity:1; fill:none" points="2320.23,1676.83 2320.23,1667.38 "/>
<polyline clip-path="url(#clip800)" style="stroke:#000000; stroke-linecap:round; stroke-linejoin:round; stroke-width:4; stroke-opacity:1; fill:none" points="2387.47,1676.83 2387.47,1667.38 "/>
<polyline clip-path="url(#clip800)" style="stroke:#000000; stroke-linecap:round; stroke-linejoin:round; stroke-width:4; stroke-opacity:1; fill:none" points="2437.93,1676.83 2437.93,1667.38 "/>
<polyline clip-path="url(#clip800)" style="stroke:#000000; stroke-linecap:round; stroke-linejoin:round; stroke-width:4; stroke-opacity:1; fill:none" points="2687.97,1676.83 2687.97,1667.38 "/>
<polyline clip-path="url(#clip800)" style="stroke:#000000; stroke-linecap:round; stroke-linejoin:round; stroke-width:4; stroke-opacity:1; fill:none" points="2789.05,1676.83 2789.05,1667.38 "/>
<path clip-path="url(#clip800)" d="M546.528 1734.46 L546.528 1732.88 Q552.605 1732.88 555.742 1729.64 Q556.607 1729.64 556.755 1729.84 Q556.903 1730.04 556.903 1730.95 L556.903 1759.34 Q556.903 1760.84 557.644 1761.31 Q558.385 1761.78 561.622 1761.78 L563.227 1761.78 L563.227 1763.34 Q561.449 1763.19 555.026 1763.19 Q548.603 1763.19 546.849 1763.34 L546.849 1761.78 L548.455 1761.78 Q551.641 1761.78 552.407 1761.34 Q553.173 1760.87 553.173 1759.34 L553.173 1733.13 Q550.53 1734.46 546.528 1734.46 Z" fill="#000000" fill-rule="nonzero" fill-opacity="1" /><path clip-path="url(#clip800)" d="M569.304 1747.16 Q569.304 1739.72 571.182 1735.67 Q573.8 1729.64 579.976 1729.64 Q581.285 1729.64 582.644 1730.01 Q584.028 1730.36 585.757 1731.72 Q587.511 1733.08 588.573 1735.3 Q590.599 1739.6 590.599 1747.16 Q590.599 1754.55 588.721 1758.57 Q585.979 1764.45 579.927 1764.45 Q577.654 1764.45 575.332 1763.29 Q573.035 1762.13 571.577 1759.34 Q569.304 1755.16 569.304 1747.16 M573.504 1746.54 Q573.504 1754.17 574.047 1757.21 Q574.665 1760.5 576.345 1761.93 Q578.049 1763.34 579.927 1763.34 Q581.952 1763.34 583.632 1761.83 Q585.337 1760.3 585.856 1757.02 Q586.424 1753.78 586.399 1746.54 Q586.399 1739.5 585.905 1736.68 Q585.238 1733.4 583.459 1732.09 Q581.705 1730.76 579.927 1730.76 Q579.26 1730.76 578.543 1730.95 Q577.852 1731.15 576.839 1731.72 Q575.826 1732.29 575.036 1733.7 Q574.27 1735.1 573.899 1737.23 Q573.504 1739.97 573.504 1746.54 Z" fill="#000000" fill-rule="nonzero" fill-opacity="1" /><path clip-path="url(#clip800)" d="M617.735 1725.07 Q617.976 1725.31 617.976 1725.65 Q617.976 1725.99 617.735 1726.23 Q617.494 1726.48 617.153 1726.48 L591.422 1726.48 Q591.08 1726.48 590.839 1726.23 Q590.599 1725.99 590.599 1725.65 Q590.599 1725.31 590.839 1725.07 Q591.08 1724.83 591.422 1724.83 L617.153 1724.83 Q617.494 1724.83 617.735 1725.07 Z" fill="#000000" fill-rule="nonzero" fill-opacity="1" /><path clip-path="url(#clip800)" d="M623.917 1712.47 L623.917 1711.18 Q628.855 1711.18 631.404 1708.55 Q632.106 1708.55 632.227 1708.71 Q632.347 1708.87 632.347 1709.62 L632.347 1732.68 Q632.347 1733.9 632.949 1734.28 Q633.552 1734.66 636.181 1734.66 L637.486 1734.66 L637.486 1735.93 Q636.04 1735.81 630.822 1735.81 Q625.603 1735.81 624.178 1735.93 L624.178 1734.66 L625.483 1734.66 Q628.072 1734.66 628.694 1734.3 Q629.317 1733.92 629.317 1732.68 L629.317 1711.38 Q627.169 1712.47 623.917 1712.47 Z" fill="#000000" fill-rule="nonzero" fill-opacity="1" /><path clip-path="url(#clip800)" d="M642.544 1730.39 Q642.544 1729.17 643.246 1728.58 Q643.949 1728 644.852 1728 Q645.795 1728 646.458 1728.62 Q647.14 1729.23 647.14 1730.29 Q647.14 1731.43 646.337 1732.08 Q645.554 1732.72 644.43 1732.56 Q645.414 1734.2 647.22 1734.95 Q649.047 1735.69 650.733 1735.69 Q652.499 1735.69 653.924 1734.16 Q655.369 1732.64 655.369 1728.9 Q655.369 1725.73 654.125 1723.91 Q652.901 1722.08 650.472 1722.08 L648.665 1722.08 Q648.043 1722.08 647.863 1722.02 Q647.682 1721.96 647.682 1721.62 Q647.682 1721.22 648.304 1721.14 Q648.926 1721.14 649.91 1721.02 Q652.298 1720.94 653.563 1718.87 Q654.707 1716.94 654.707 1714.19 Q654.707 1711.68 653.503 1710.64 Q652.318 1709.58 650.773 1709.58 Q649.328 1709.58 647.742 1710.18 Q646.156 1710.78 645.293 1712.12 Q647.842 1712.12 647.842 1714.19 Q647.842 1715.1 647.26 1715.7 Q646.698 1716.28 645.755 1716.28 Q644.852 1716.28 644.25 1715.72 Q643.648 1715.14 643.648 1714.15 Q643.648 1711.8 645.735 1710.18 Q647.842 1708.55 650.934 1708.55 Q653.984 1708.55 656.232 1710.16 Q658.5 1711.76 658.5 1714.23 Q658.5 1716.66 656.895 1718.65 Q655.289 1720.63 652.74 1721.46 Q655.871 1722.08 657.738 1724.21 Q659.604 1726.32 659.604 1728.9 Q659.604 1732.12 657.075 1734.48 Q654.546 1736.83 650.853 1736.83 Q647.441 1736.83 644.992 1734.99 Q642.544 1733.14 642.544 1730.39 Z" fill="#000000" fill-rule="nonzero" fill-opacity="1" /><path clip-path="url(#clip800)" d="M1015.51 1734.46 L1015.51 1732.88 Q1021.58 1732.88 1024.72 1729.64 Q1025.58 1729.64 1025.73 1729.84 Q1025.88 1730.04 1025.88 1730.95 L1025.88 1759.34 Q1025.88 1760.84 1026.62 1761.31 Q1027.36 1761.78 1030.6 1761.78 L1032.2 1761.78 L1032.2 1763.34 Q1030.43 1763.19 1024 1763.19 Q1017.58 1763.19 1015.83 1763.34 L1015.83 1761.78 L1017.43 1761.78 Q1020.62 1761.78 1021.38 1761.34 Q1022.15 1760.87 1022.15 1759.34 L1022.15 1733.13 Q1019.51 1734.46 1015.51 1734.46 Z" fill="#000000" fill-rule="nonzero" fill-opacity="1" /><path clip-path="url(#clip800)" d="M1038.28 1747.16 Q1038.28 1739.72 1040.16 1735.67 Q1042.78 1729.64 1048.95 1729.64 Q1050.26 1729.64 1051.62 1730.01 Q1053.01 1730.36 1054.73 1731.72 Q1056.49 1733.08 1057.55 1735.3 Q1059.58 1739.6 1059.58 1747.16 Q1059.58 1754.55 1057.7 1758.57 Q1054.96 1764.45 1048.9 1764.45 Q1046.63 1764.45 1044.31 1763.29 Q1042.01 1762.13 1040.55 1759.34 Q1038.28 1755.16 1038.28 1747.16 M1042.48 1746.54 Q1042.48 1754.17 1043.02 1757.21 Q1043.64 1760.5 1045.32 1761.93 Q1047.03 1763.34 1048.9 1763.34 Q1050.93 1763.34 1052.61 1761.83 Q1054.31 1760.3 1054.83 1757.02 Q1055.4 1753.78 1055.38 1746.54 Q1055.38 1739.5 1054.88 1736.68 Q1054.22 1733.4 1052.44 1732.09 Q1050.68 1730.76 1048.9 1730.76 Q1048.24 1730.76 1047.52 1730.95 Q1046.83 1731.15 1045.82 1731.72 Q1044.8 1732.29 1044.01 1733.7 Q1043.25 1735.1 1042.88 1737.23 Q1042.48 1739.97 1042.48 1746.54 Z" fill="#000000" fill-rule="nonzero" fill-opacity="1" /><path clip-path="url(#clip800)" d="M1086.71 1725.07 Q1086.95 1725.31 1086.95 1725.65 Q1086.95 1725.99 1086.71 1726.23 Q1086.47 1726.48 1086.13 1726.48 L1060.4 1726.48 Q1060.06 1726.48 1059.82 1726.23 Q1059.58 1725.99 1059.58 1725.65 Q1059.58 1725.31 1059.82 1725.07 Q1060.06 1724.83 1060.4 1724.83 L1086.13 1724.83 Q1086.47 1724.83 1086.71 1725.07 Z" fill="#000000" fill-rule="nonzero" fill-opacity="1" /><path clip-path="url(#clip800)" d="M1092.89 1712.47 L1092.89 1711.18 Q1097.83 1711.18 1100.38 1708.55 Q1101.08 1708.55 1101.2 1708.71 Q1101.32 1708.87 1101.32 1709.62 L1101.32 1732.68 Q1101.32 1733.9 1101.93 1734.28 Q1102.53 1734.66 1105.16 1734.66 L1106.46 1734.66 L1106.46 1735.93 Q1105.02 1735.81 1099.8 1735.81 Q1094.58 1735.81 1093.16 1735.93 L1093.16 1734.66 L1094.46 1734.66 Q1097.05 1734.66 1097.67 1734.3 Q1098.29 1733.92 1098.29 1732.68 L1098.29 1711.38 Q1096.15 1712.47 1092.89 1712.47 Z" fill="#000000" fill-rule="nonzero" fill-opacity="1" /><path clip-path="url(#clip800)" d="M1111.84 1735.93 Q1111.84 1735.19 1111.9 1734.97 Q1111.98 1734.75 1112.3 1734.4 L1120.19 1725.61 Q1124.51 1720.76 1124.51 1716.52 Q1124.51 1713.77 1123.06 1711.8 Q1121.64 1709.84 1119.01 1709.84 Q1117.2 1709.84 1115.68 1710.94 Q1114.15 1712.04 1113.45 1714.01 Q1113.57 1713.97 1113.99 1713.97 Q1115.01 1713.97 1115.58 1714.61 Q1116.16 1715.26 1116.16 1716.12 Q1116.16 1717.22 1115.44 1717.76 Q1114.73 1718.29 1114.03 1718.29 Q1113.75 1718.29 1113.37 1718.23 Q1113.01 1718.17 1112.42 1717.6 Q1111.84 1717.02 1111.84 1716 Q1111.84 1713.13 1114.01 1710.84 Q1116.2 1708.55 1119.53 1708.55 Q1123.3 1708.55 1125.77 1710.8 Q1128.26 1713.03 1128.26 1716.52 Q1128.26 1717.74 1127.88 1718.87 Q1127.52 1719.97 1127.02 1720.84 Q1126.53 1721.7 1125.21 1723.08 Q1123.89 1724.47 1122.82 1725.45 Q1121.76 1726.44 1119.37 1728.52 L1115.01 1732.76 L1122.42 1732.76 Q1126.03 1732.76 1126.31 1732.44 Q1126.72 1731.85 1127.22 1728.78 L1128.26 1728.78 L1127.1 1735.93 L1111.84 1735.93 Z" fill="#000000" fill-rule="nonzero" fill-opacity="1" /><path clip-path="url(#clip800)" d="M1484.94 1734.46 L1484.94 1732.88 Q1491.02 1732.88 1494.16 1729.64 Q1495.02 1729.64 1495.17 1729.84 Q1495.32 1730.04 1495.32 1730.95 L1495.32 1759.34 Q1495.32 1760.84 1496.06 1761.31 Q1496.8 1761.78 1500.04 1761.78 L1501.64 1761.78 L1501.64 1763.34 Q1499.87 1763.19 1493.44 1763.19 Q1487.02 1763.19 1485.27 1763.34 L1485.27 1761.78 L1486.87 1761.78 Q1490.06 1761.78 1490.82 1761.34 Q1491.59 1760.87 1491.59 1759.34 L1491.59 1733.13 Q1488.95 1734.46 1484.94 1734.46 Z" fill="#000000" fill-rule="nonzero" fill-opacity="1" /><path clip-path="url(#clip800)" d="M1507.72 1747.16 Q1507.72 1739.72 1509.6 1735.67 Q1512.22 1729.64 1518.39 1729.64 Q1519.7 1729.64 1521.06 1730.01 Q1522.44 1730.36 1524.17 1731.72 Q1525.93 1733.08 1526.99 1735.3 Q1529.02 1739.6 1529.02 1747.16 Q1529.02 1754.55 1527.14 1758.57 Q1524.4 1764.45 1518.34 1764.45 Q1516.07 1764.45 1513.75 1763.29 Q1511.45 1762.13 1509.99 1759.34 Q1507.72 1755.16 1507.72 1747.16 M1511.92 1746.54 Q1511.92 1754.17 1512.46 1757.21 Q1513.08 1760.5 1514.76 1761.93 Q1516.47 1763.34 1518.34 1763.34 Q1520.37 1763.34 1522.05 1761.83 Q1523.75 1760.3 1524.27 1757.02 Q1524.84 1753.78 1524.82 1746.54 Q1524.82 1739.5 1524.32 1736.68 Q1523.65 1733.4 1521.88 1732.09 Q1520.12 1730.76 1518.34 1730.76 Q1517.68 1730.76 1516.96 1730.95 Q1516.27 1731.15 1515.26 1731.72 Q1514.24 1732.29 1513.45 1733.7 Q1512.69 1735.1 1512.32 1737.23 Q1511.92 1739.97 1511.92 1746.54 Z" fill="#000000" fill-rule="nonzero" fill-opacity="1" /><path clip-path="url(#clip800)" d="M1556.15 1725.07 Q1556.39 1725.31 1556.39 1725.65 Q1556.39 1725.99 1556.15 1726.23 Q1555.91 1726.48 1555.57 1726.48 L1529.84 1726.48 Q1529.5 1726.48 1529.26 1726.23 Q1529.02 1725.99 1529.02 1725.65 Q1529.02 1725.31 1529.26 1725.07 Q1529.5 1724.83 1529.84 1724.83 L1555.57 1724.83 Q1555.91 1724.83 1556.15 1725.07 Z" fill="#000000" fill-rule="nonzero" fill-opacity="1" /><path clip-path="url(#clip800)" d="M1562.33 1712.47 L1562.33 1711.18 Q1567.27 1711.18 1569.82 1708.55 Q1570.52 1708.55 1570.64 1708.71 Q1570.76 1708.87 1570.76 1709.62 L1570.76 1732.68 Q1570.76 1733.9 1571.37 1734.28 Q1571.97 1734.66 1574.6 1734.66 L1575.9 1734.66 L1575.9 1735.93 Q1574.46 1735.81 1569.24 1735.81 Q1564.02 1735.81 1562.59 1735.93 L1562.59 1734.66 L1563.9 1734.66 Q1566.49 1734.66 1567.11 1734.3 Q1567.73 1733.92 1567.73 1732.68 L1567.73 1711.38 Q1565.59 1712.47 1562.33 1712.47 Z" fill="#000000" fill-rule="nonzero" fill-opacity="1" /><path clip-path="url(#clip800)" d="M1582.89 1712.47 L1582.89 1711.18 Q1587.82 1711.18 1590.37 1708.55 Q1591.08 1708.55 1591.2 1708.71 Q1591.32 1708.87 1591.32 1709.62 L1591.32 1732.68 Q1591.32 1733.9 1591.92 1734.28 Q1592.52 1734.66 1595.15 1734.66 L1596.46 1734.66 L1596.46 1735.93 Q1595.01 1735.81 1589.79 1735.81 Q1584.57 1735.81 1583.15 1735.93 L1583.15 1734.66 L1584.45 1734.66 Q1587.04 1734.66 1587.66 1734.3 Q1588.29 1733.92 1588.29 1732.68 L1588.29 1711.38 Q1586.14 1712.47 1582.89 1712.47 Z" fill="#000000" fill-rule="nonzero" fill-opacity="1" /><path clip-path="url(#clip800)" d="M1952.92 1734.46 L1952.92 1732.88 Q1959 1732.88 1962.13 1729.64 Q1963 1729.64 1963.15 1729.84 Q1963.29 1730.04 1963.29 1730.95 L1963.29 1759.34 Q1963.29 1760.84 1964.03 1761.31 Q1964.78 1761.78 1968.01 1761.78 L1969.62 1761.78 L1969.62 1763.34 Q1967.84 1763.19 1961.42 1763.19 Q1954.99 1763.19 1953.24 1763.34 L1953.24 1761.78 L1954.85 1761.78 Q1958.03 1761.78 1958.8 1761.34 Q1959.56 1760.87 1959.56 1759.34 L1959.56 1733.13 Q1956.92 1734.46 1952.92 1734.46 Z" fill="#000000" fill-rule="nonzero" fill-opacity="1" /><path clip-path="url(#clip800)" d="M1975.69 1747.16 Q1975.69 1739.72 1977.57 1735.67 Q1980.19 1729.64 1986.37 1729.64 Q1987.68 1729.64 1989.03 1730.01 Q1990.42 1730.36 1992.15 1731.72 Q1993.9 1733.08 1994.96 1735.3 Q1996.99 1739.6 1996.99 1747.16 Q1996.99 1754.55 1995.11 1758.57 Q1992.37 1764.45 1986.32 1764.45 Q1984.04 1764.45 1981.72 1763.29 Q1979.43 1762.13 1977.97 1759.34 Q1975.69 1755.16 1975.69 1747.16 M1979.89 1746.54 Q1979.89 1754.17 1980.44 1757.21 Q1981.06 1760.5 1982.74 1761.93 Q1984.44 1763.34 1986.32 1763.34 Q1988.34 1763.34 1990.02 1761.83 Q1991.73 1760.3 1992.25 1757.02 Q1992.81 1753.78 1992.79 1746.54 Q1992.79 1739.5 1992.3 1736.68 Q1991.63 1733.4 1989.85 1732.09 Q1988.1 1730.76 1986.32 1730.76 Q1985.65 1730.76 1984.93 1730.95 Q1984.24 1731.15 1983.23 1731.72 Q1982.22 1732.29 1981.43 1733.7 Q1980.66 1735.1 1980.29 1737.23 Q1979.89 1739.97 1979.89 1746.54 Z" fill="#000000" fill-rule="nonzero" fill-opacity="1" /><path clip-path="url(#clip800)" d="M2024.13 1725.07 Q2024.37 1725.31 2024.37 1725.65 Q2024.37 1725.99 2024.13 1726.23 Q2023.88 1726.48 2023.54 1726.48 L1997.81 1726.48 Q1997.47 1726.48 1997.23 1726.23 Q1996.99 1725.99 1996.99 1725.65 Q1996.99 1725.31 1997.23 1725.07 Q1997.47 1724.83 1997.81 1724.83 L2023.54 1724.83 Q2023.88 1724.83 2024.13 1725.07 Z" fill="#000000" fill-rule="nonzero" fill-opacity="1" /><path clip-path="url(#clip800)" d="M2030.31 1712.47 L2030.31 1711.18 Q2035.25 1711.18 2037.79 1708.55 Q2038.5 1708.55 2038.62 1708.71 Q2038.74 1708.87 2038.74 1709.62 L2038.74 1732.68 Q2038.74 1733.9 2039.34 1734.28 Q2039.94 1734.66 2042.57 1734.66 L2043.88 1734.66 L2043.88 1735.93 Q2042.43 1735.81 2037.21 1735.81 Q2031.99 1735.81 2030.57 1735.93 L2030.57 1734.66 L2031.87 1734.66 Q2034.46 1734.66 2035.08 1734.3 Q2035.71 1733.92 2035.71 1732.68 L2035.71 1711.38 Q2033.56 1712.47 2030.31 1712.47 Z" fill="#000000" fill-rule="nonzero" fill-opacity="1" /><path clip-path="url(#clip800)" d="M2048.81 1722.78 Q2048.81 1716.74 2050.34 1713.45 Q2052.47 1708.55 2057.48 1708.55 Q2058.55 1708.55 2059.65 1708.85 Q2060.78 1709.13 2062.18 1710.24 Q2063.61 1711.34 2064.47 1713.15 Q2066.12 1716.64 2066.12 1722.78 Q2066.12 1728.78 2064.59 1732.06 Q2062.36 1736.83 2057.44 1736.83 Q2055.6 1736.83 2053.71 1735.89 Q2051.84 1734.95 2050.66 1732.68 Q2048.81 1729.29 2048.81 1722.78 M2052.23 1722.28 Q2052.23 1728.48 2052.67 1730.95 Q2053.17 1733.62 2054.53 1734.79 Q2055.92 1735.93 2057.44 1735.93 Q2059.09 1735.93 2060.46 1734.7 Q2061.84 1733.46 2062.26 1730.79 Q2062.72 1728.16 2062.7 1722.28 Q2062.7 1716.56 2062.3 1714.27 Q2061.76 1711.6 2060.31 1710.54 Q2058.89 1709.46 2057.44 1709.46 Q2056.9 1709.46 2056.32 1709.62 Q2055.76 1709.78 2054.94 1710.24 Q2054.11 1710.7 2053.47 1711.84 Q2052.85 1712.99 2052.55 1714.71 Q2052.23 1716.94 2052.23 1722.28 Z" fill="#000000" fill-rule="nonzero" fill-opacity="1" /><path clip-path="url(#clip800)" d="M2432.07 1734.46 L2432.07 1732.88 Q2438.15 1732.88 2441.29 1729.64 Q2442.15 1729.64 2442.3 1729.84 Q2442.45 1730.04 2442.45 1730.95 L2442.45 1759.34 Q2442.45 1760.84 2443.19 1761.31 Q2443.93 1761.78 2447.17 1761.78 L2448.77 1761.78 L2448.77 1763.34 Q2446.99 1763.19 2440.57 1763.19 Q2434.15 1763.19 2432.39 1763.34 L2432.39 1761.78 L2434 1761.78 Q2437.19 1761.78 2437.95 1761.34 Q2438.72 1760.87 2438.72 1759.34 L2438.72 1733.13 Q2436.07 1734.46 2432.07 1734.46 Z" fill="#000000" fill-rule="nonzero" fill-opacity="1" /><path clip-path="url(#clip800)" d="M2454.85 1747.16 Q2454.85 1739.72 2456.73 1735.67 Q2459.34 1729.64 2465.52 1729.64 Q2466.83 1729.64 2468.19 1730.01 Q2469.57 1730.36 2471.3 1731.72 Q2473.05 1733.08 2474.12 1735.3 Q2476.14 1739.6 2476.14 1747.16 Q2476.14 1754.55 2474.27 1758.57 Q2471.52 1764.45 2465.47 1764.45 Q2463.2 1764.45 2460.88 1763.29 Q2458.58 1762.13 2457.12 1759.34 Q2454.85 1755.16 2454.85 1747.16 M2459.05 1746.54 Q2459.05 1754.17 2459.59 1757.21 Q2460.21 1760.5 2461.89 1761.93 Q2463.59 1763.34 2465.47 1763.34 Q2467.5 1763.34 2469.18 1761.83 Q2470.88 1760.3 2471.4 1757.02 Q2471.97 1753.78 2471.94 1746.54 Q2471.94 1739.5 2471.45 1736.68 Q2470.78 1733.4 2469 1732.09 Q2467.25 1730.76 2465.47 1730.76 Q2464.8 1730.76 2464.09 1730.95 Q2463.4 1731.15 2462.38 1731.72 Q2461.37 1732.29 2460.58 1733.7 Q2459.81 1735.1 2459.44 1737.23 Q2459.05 1739.97 2459.05 1746.54 Z" fill="#000000" fill-rule="nonzero" fill-opacity="1" /><path clip-path="url(#clip800)" d="M2503.28 1725.07 Q2503.52 1725.31 2503.52 1725.65 Q2503.52 1725.99 2503.28 1726.23 Q2503.04 1726.48 2502.7 1726.48 L2476.97 1726.48 Q2476.62 1726.48 2476.38 1726.23 Q2476.14 1725.99 2476.14 1725.65 Q2476.14 1725.31 2476.38 1725.07 Q2476.62 1724.83 2476.97 1724.83 L2502.7 1724.83 Q2503.04 1724.83 2503.28 1725.07 Z" fill="#000000" fill-rule="nonzero" fill-opacity="1" /><path clip-path="url(#clip800)" d="M2507.53 1717.8 Q2507.53 1715.62 2508.18 1714.13 Q2508.82 1712.63 2510.16 1711.14 Q2512.63 1708.55 2516.21 1708.55 Q2517.73 1708.55 2519.08 1709.19 Q2520.44 1709.84 2521.73 1711.3 Q2523.03 1712.75 2523.81 1715.62 Q2524.6 1718.47 2524.6 1722.4 Q2524.6 1728.76 2521.5 1732.8 Q2518.43 1736.83 2514.28 1736.83 Q2511.65 1736.83 2510.1 1735.65 Q2508.56 1734.44 2508.56 1732.4 Q2508.56 1731.33 2509.16 1730.89 Q2509.76 1730.43 2510.44 1730.43 Q2511.19 1730.43 2511.77 1730.93 Q2512.35 1731.41 2512.35 1732.32 Q2512.35 1733.06 2511.87 1733.64 Q2511.41 1734.2 2510.2 1734.2 Q2511.39 1735.69 2514.24 1735.69 Q2515.26 1735.69 2516.29 1735.23 Q2517.31 1734.75 2518.41 1733.6 Q2519.54 1732.44 2520.22 1730.01 Q2520.9 1727.58 2520.9 1724.17 L2520.9 1722.86 Q2519.26 1726.98 2515.76 1726.98 Q2512.31 1726.98 2509.92 1724.33 Q2507.53 1721.68 2507.53 1717.8 M2511.23 1717.84 Q2511.23 1721.92 2511.97 1723.42 Q2513.23 1726.01 2515.8 1726.01 Q2518.31 1726.01 2519.56 1723.79 Q2520.82 1721.54 2520.82 1718.63 Q2520.82 1714.59 2520.16 1712.83 Q2518.94 1709.58 2516.21 1709.58 Q2513.5 1709.58 2512.09 1712.16 Q2511.23 1713.69 2511.23 1717.84 Z" fill="#000000" fill-rule="nonzero" fill-opacity="1" /><path clip-path="url(#clip800)" d="M1379.2 1861.14 L1379.2 1858.81 L1381.01 1858.81 Q1385.13 1858.81 1386.05 1858.14 Q1387.02 1857.44 1387.02 1855.22 L1387.02 1815.46 Q1387.02 1813.27 1386.05 1812.6 Q1385.09 1811.9 1381.01 1811.9 L1379.2 1811.9 L1379.2 1809.53 L1421.92 1809.53 L1424.03 1826.61 L1422.14 1826.61 Q1421.62 1822.27 1420.92 1819.79 Q1420.25 1817.27 1418.59 1815.34 Q1416.96 1813.42 1414.25 1812.68 Q1411.58 1811.9 1407.25 1811.9 L1397.46 1811.9 Q1394.87 1811.9 1394.32 1812.45 Q1393.76 1812.97 1393.76 1814.94 L1393.76 1833.13 L1400.58 1833.13 Q1405.8 1833.13 1407.28 1831.32 Q1408.77 1829.5 1408.77 1824.27 L1410.69 1824.27 L1410.69 1844.36 L1408.77 1844.36 Q1408.77 1839.21 1407.28 1837.36 Q1405.8 1835.5 1400.58 1835.5 L1393.76 1835.5 L1393.76 1855.77 Q1393.76 1857.74 1394.32 1858.29 Q1394.91 1858.81 1397.46 1858.81 L1407.58 1858.81 Q1410.84 1858.81 1413.21 1858.4 Q1415.62 1857.96 1417.29 1856.92 Q1418.96 1855.85 1420.07 1854.62 Q1421.22 1853.4 1422 1851.21 Q1422.81 1848.99 1423.26 1846.95 Q1423.74 1844.91 1424.26 1841.58 L1426.15 1841.58 L1422.96 1861.14 L1379.2 1861.14 Z" fill="#000000" fill-rule="nonzero" fill-opacity="1" /><path clip-path="url(#clip800)" d="M1430.37 1861.14 L1430.37 1858.81 Q1434.41 1858.81 1435.34 1858.33 Q1436.3 1857.81 1436.3 1855.36 L1436.3 1835.02 Q1436.3 1832.2 1435.3 1831.5 Q1434.33 1830.8 1430.37 1830.8 L1430.37 1828.42 L1440.93 1827.61 L1440.93 1835.95 Q1442.01 1832.69 1444.27 1830.17 Q1446.56 1827.61 1450.27 1827.61 Q1452.71 1827.61 1454.27 1828.98 Q1455.86 1830.35 1455.86 1832.24 Q1455.86 1833.91 1454.83 1834.76 Q1453.83 1835.58 1452.6 1835.58 Q1451.23 1835.58 1450.27 1834.72 Q1449.34 1833.83 1449.34 1832.32 Q1449.34 1831.39 1449.75 1830.69 Q1450.19 1829.94 1450.53 1829.68 Q1450.86 1829.43 1451.08 1829.35 Q1450.94 1829.28 1450.27 1829.28 Q1446.08 1829.28 1443.67 1833.46 Q1441.3 1837.61 1441.3 1843.54 L1441.3 1855.22 Q1441.3 1857.4 1442.19 1858.11 Q1443.12 1858.81 1447.08 1858.81 L1448.67 1858.81 L1448.67 1861.14 Q1445.64 1860.92 1439.04 1860.92 Q1438.11 1860.92 1436.67 1860.96 Q1435.22 1861 1433.33 1861.07 Q1431.44 1861.14 1430.37 1861.14 Z" fill="#000000" fill-rule="nonzero" fill-opacity="1" /><path clip-path="url(#clip800)" d="M1460.01 1861.14 L1460.01 1858.81 Q1464.05 1858.81 1464.98 1858.33 Q1465.94 1857.81 1465.94 1855.36 L1465.94 1835.02 Q1465.94 1832.2 1464.94 1831.5 Q1463.98 1830.8 1460.01 1830.8 L1460.01 1828.42 L1470.57 1827.61 L1470.57 1835.95 Q1471.65 1832.69 1473.91 1830.17 Q1476.21 1827.61 1479.91 1827.61 Q1482.36 1827.61 1483.91 1828.98 Q1485.51 1830.35 1485.51 1832.24 Q1485.51 1833.91 1484.47 1834.76 Q1483.47 1835.58 1482.25 1835.58 Q1480.88 1835.58 1479.91 1834.72 Q1478.99 1833.83 1478.99 1832.32 Q1478.99 1831.39 1479.39 1830.69 Q1479.84 1829.94 1480.17 1829.68 Q1480.51 1829.43 1480.73 1829.35 Q1480.58 1829.28 1479.91 1829.28 Q1475.73 1829.28 1473.32 1833.46 Q1470.94 1837.61 1470.94 1843.54 L1470.94 1855.22 Q1470.94 1857.4 1471.83 1858.11 Q1472.76 1858.81 1476.73 1858.81 L1478.32 1858.81 L1478.32 1861.14 Q1475.28 1860.92 1468.68 1860.92 Q1467.76 1860.92 1466.31 1860.96 Q1464.87 1861 1462.98 1861.07 Q1461.09 1861.14 1460.01 1861.14 Z" fill="#000000" fill-rule="nonzero" fill-opacity="1" /><path clip-path="url(#clip800)" d="M1494.66 1857.07 Q1489.66 1852.1 1489.66 1844.91 Q1489.66 1837.69 1494.55 1832.43 Q1499.48 1827.13 1506.52 1827.13 Q1513.41 1827.13 1518.34 1832.39 Q1523.3 1837.61 1523.3 1844.91 Q1523.3 1852.07 1518.3 1857.03 Q1513.34 1862 1506.44 1862 Q1499.7 1862 1494.66 1857.07 M1495.96 1844.28 Q1495.96 1851.66 1497.88 1854.99 Q1500.85 1860.07 1506.52 1860.07 Q1509.33 1860.07 1511.67 1858.55 Q1514.04 1857.03 1515.34 1854.47 Q1517 1851.14 1517 1844.28 Q1517 1836.98 1515 1833.76 Q1512.04 1828.83 1506.44 1828.83 Q1504 1828.83 1501.59 1830.13 Q1499.22 1831.39 1497.77 1833.91 Q1495.96 1837.24 1495.96 1844.28 Z" fill="#000000" fill-rule="nonzero" fill-opacity="1" /><path clip-path="url(#clip800)" d="M1527.6 1861.14 L1527.6 1858.81 Q1531.64 1858.81 1532.57 1858.33 Q1533.53 1857.81 1533.53 1855.36 L1533.53 1835.02 Q1533.53 1832.2 1532.53 1831.5 Q1531.57 1830.8 1527.6 1830.8 L1527.6 1828.42 L1538.16 1827.61 L1538.16 1835.95 Q1539.24 1832.69 1541.5 1830.17 Q1543.8 1827.61 1547.5 1827.61 Q1549.95 1827.61 1551.5 1828.98 Q1553.1 1830.35 1553.1 1832.24 Q1553.1 1833.91 1552.06 1834.76 Q1551.06 1835.58 1549.84 1835.58 Q1548.46 1835.58 1547.5 1834.72 Q1546.57 1833.83 1546.57 1832.32 Q1546.57 1831.39 1546.98 1830.69 Q1547.43 1829.94 1547.76 1829.68 Q1548.09 1829.43 1548.32 1829.35 Q1548.17 1829.28 1547.5 1829.28 Q1543.31 1829.28 1540.9 1833.46 Q1538.53 1837.61 1538.53 1843.54 L1538.53 1855.22 Q1538.53 1857.4 1539.42 1858.11 Q1540.35 1858.81 1544.31 1858.81 L1545.91 1858.81 L1545.91 1861.14 Q1542.87 1860.92 1536.27 1860.92 Q1535.35 1860.92 1533.9 1860.96 Q1532.46 1861 1530.57 1861.07 Q1528.68 1861.14 1527.6 1861.14 Z" fill="#000000" fill-rule="nonzero" fill-opacity="1" /><path clip-path="url(#clip800)" d="M1587.89 1842.17 Q1587.89 1829.35 1592.67 1819.01 Q1594.71 1814.68 1597.56 1811.05 Q1600.42 1807.41 1602.31 1805.82 Q1604.19 1804.23 1604.71 1804.23 Q1605.45 1804.23 1605.49 1804.97 Q1605.49 1805.34 1604.49 1806.27 Q1592.26 1818.72 1592.3 1842.17 Q1592.3 1865.7 1604.19 1877.67 Q1605.49 1878.97 1605.49 1879.38 Q1605.49 1880.12 1604.71 1880.12 Q1604.19 1880.12 1602.38 1878.6 Q1600.56 1877.08 1597.75 1873.6 Q1594.93 1870.11 1592.89 1865.85 Q1587.89 1855.51 1587.89 1842.17 Z" fill="#000000" fill-rule="nonzero" fill-opacity="1" /><path clip-path="url(#clip800)" d="M1612.31 1830.8 L1612.31 1828.42 L1618.28 1828.42 L1618.28 1819.72 Q1618.28 1814.08 1621.91 1810.86 Q1625.58 1807.64 1630.06 1807.64 Q1633.02 1807.64 1634.95 1809.23 Q1636.88 1810.82 1636.88 1812.97 Q1636.88 1814.42 1635.99 1815.38 Q1635.14 1816.31 1633.54 1816.31 Q1632.02 1816.31 1631.13 1815.34 Q1630.28 1814.38 1630.28 1813.05 Q1630.28 1810.6 1632.54 1809.86 Q1631.39 1809.34 1630.06 1809.3 Q1627.32 1809.3 1625.17 1812.12 Q1623.06 1814.94 1623.06 1819.64 L1623.06 1828.42 L1631.95 1828.42 L1631.95 1830.8 L1623.32 1830.8 L1623.32 1855.22 Q1623.32 1857.4 1624.2 1858.11 Q1625.13 1858.81 1629.06 1858.81 L1630.65 1858.81 L1630.65 1861.14 Q1627.61 1860.92 1621.02 1860.92 Q1620.09 1860.92 1618.65 1860.96 Q1617.24 1861 1615.31 1861.07 Q1613.42 1861.14 1612.38 1861.14 L1612.38 1858.81 Q1616.42 1858.81 1617.35 1858.33 Q1618.28 1857.81 1618.28 1855.36 L1618.28 1830.8 L1612.31 1830.8 Z" fill="#000000" fill-rule="nonzero" fill-opacity="1" /><path clip-path="url(#clip800)" d="M1635.43 1861.14 L1635.43 1858.81 Q1639.47 1858.81 1640.4 1858.33 Q1641.32 1857.81 1641.32 1855.36 L1641.32 1834.95 Q1641.32 1832.13 1640.36 1831.46 Q1639.43 1830.8 1635.73 1830.8 L1635.73 1828.42 L1646.33 1827.61 L1646.33 1855.44 Q1646.33 1857.7 1647.14 1858.25 Q1647.96 1858.81 1651.66 1858.81 L1651.66 1861.14 Q1643.92 1860.92 1643.77 1860.92 Q1642.73 1860.92 1635.43 1861.14 M1638.62 1814.38 Q1638.62 1812.86 1639.77 1811.64 Q1640.95 1810.38 1642.62 1810.38 Q1644.29 1810.38 1645.47 1811.53 Q1646.66 1812.64 1646.66 1814.42 Q1646.66 1816.16 1645.47 1817.31 Q1644.29 1818.42 1642.62 1818.42 Q1640.88 1818.42 1639.73 1817.2 Q1638.62 1815.97 1638.62 1814.38 Z" fill="#000000" fill-rule="nonzero" fill-opacity="1" /><path clip-path="url(#clip800)" d="M1656.37 1861.14 L1656.37 1858.81 Q1660.41 1858.81 1661.33 1858.33 Q1662.26 1857.81 1662.26 1855.36 L1662.26 1835.02 Q1662.26 1832.2 1661.26 1831.5 Q1660.3 1830.8 1656.37 1830.8 L1656.37 1828.42 L1667.04 1827.61 L1667.04 1835.58 Q1670.6 1827.61 1678.27 1827.61 Q1683.97 1827.61 1686.23 1830.43 Q1687.9 1832.32 1688.24 1834.43 Q1688.61 1836.54 1688.61 1842.02 L1688.61 1856.51 Q1688.68 1858.11 1689.9 1858.48 Q1691.13 1858.81 1694.54 1858.81 L1694.54 1861.14 Q1686.79 1860.92 1686.01 1860.92 Q1685.42 1860.92 1677.45 1861.14 L1677.45 1858.81 Q1681.49 1858.81 1682.42 1858.33 Q1683.38 1857.81 1683.38 1855.36 L1683.38 1837.69 Q1683.38 1833.83 1682.2 1831.57 Q1681.01 1829.28 1677.75 1829.28 Q1673.82 1829.28 1670.67 1832.58 Q1667.52 1835.87 1667.52 1841.43 L1667.52 1855.36 Q1667.52 1857.81 1668.45 1858.33 Q1669.41 1858.81 1673.41 1858.81 L1673.41 1861.14 Q1665.67 1860.92 1664.93 1860.92 Q1664.34 1860.92 1656.37 1861.14 Z" fill="#000000" fill-rule="nonzero" fill-opacity="1" /><path clip-path="url(#clip800)" d="M1699.2 1853.92 Q1699.2 1847.47 1706.8 1844.06 Q1711.36 1841.88 1720.77 1841.32 L1720.77 1838.54 Q1720.77 1833.83 1718.29 1831.35 Q1715.84 1828.83 1712.73 1828.83 Q1707.17 1828.83 1704.5 1832.32 Q1706.76 1832.39 1707.58 1833.54 Q1708.39 1834.65 1708.39 1835.8 Q1708.39 1837.32 1707.43 1838.32 Q1706.5 1839.28 1704.91 1839.28 Q1703.39 1839.28 1702.39 1838.36 Q1701.39 1837.39 1701.39 1835.72 Q1701.39 1832.02 1704.73 1829.57 Q1708.1 1827.13 1712.88 1827.13 Q1719.1 1827.13 1723.25 1831.32 Q1724.55 1832.61 1725.18 1834.28 Q1725.85 1835.95 1725.92 1837.06 Q1725.99 1838.13 1725.99 1840.28 L1725.99 1855.44 Q1725.99 1855.88 1726.14 1856.62 Q1726.29 1857.36 1726.96 1858.33 Q1727.66 1859.25 1728.81 1859.25 Q1731.55 1859.25 1731.52 1854.4 L1731.52 1850.14 L1733.44 1850.14 L1733.44 1854.4 Q1733.44 1858.44 1731.29 1860.03 Q1729.18 1861.59 1727.22 1861.59 Q1724.7 1861.59 1723.1 1859.74 Q1721.51 1857.88 1721.29 1855.36 Q1720.14 1858.25 1717.51 1860.14 Q1714.92 1862 1711.36 1862 Q1708.62 1862 1706.02 1861.29 Q1703.47 1860.63 1701.32 1858.74 Q1699.2 1856.81 1699.2 1853.92 M1705.06 1853.84 Q1705.06 1856.66 1707.06 1858.48 Q1709.06 1860.29 1711.88 1860.29 Q1715.06 1860.29 1717.92 1857.85 Q1720.77 1855.36 1720.77 1850.51 L1720.77 1842.91 Q1712.36 1843.21 1708.69 1846.58 Q1705.06 1849.92 1705.06 1853.84 Z" fill="#000000" fill-rule="nonzero" fill-opacity="1" /><path clip-path="url(#clip800)" d="M1736.48 1861.14 L1736.48 1858.81 Q1740.52 1858.81 1741.45 1858.33 Q1742.37 1857.81 1742.37 1855.36 L1742.37 1815.9 Q1742.37 1813.08 1741.37 1812.38 Q1740.41 1811.68 1736.48 1811.68 L1736.48 1809.3 L1747.38 1808.49 L1747.38 1855.36 Q1747.38 1857.81 1748.34 1858.33 Q1749.3 1858.81 1753.3 1858.81 L1753.3 1861.14 Q1752.38 1861.14 1750.45 1861.07 Q1748.52 1861 1747.12 1860.96 Q1745.71 1860.92 1744.89 1860.92 Q1744 1860.92 1736.48 1861.14 Z" fill="#000000" fill-rule="nonzero" fill-opacity="1" /><path clip-path="url(#clip800)" d="M1759.31 1879.38 Q1759.31 1879.01 1760.27 1878.08 Q1772.5 1865.63 1772.5 1842.17 Q1772.5 1818.64 1760.75 1806.75 Q1759.31 1805.38 1759.31 1804.97 Q1759.31 1804.23 1760.05 1804.23 Q1760.57 1804.23 1762.38 1805.75 Q1764.24 1807.27 1767.01 1810.75 Q1769.83 1814.23 1771.91 1818.49 Q1776.91 1828.83 1776.91 1842.17 Q1776.91 1854.99 1772.13 1865.33 Q1770.09 1869.67 1767.24 1873.3 Q1764.38 1876.93 1762.49 1878.52 Q1760.6 1880.12 1760.05 1880.12 Q1759.31 1880.12 1759.31 1879.38 Z" fill="#000000" fill-rule="nonzero" fill-opacity="1" /><polyline clip-path="url(#clip802)" style="stroke:#000000; stroke-linecap:round; stroke-linejoin:round; stroke-width:2.8; stroke-opacity:0.4; fill:none" points="364.663,1470.71 2791.44,1470.71 "/>
<polyline clip-path="url(#clip802)" style="stroke:#000000; stroke-linecap:round; stroke-linejoin:round; stroke-width:2.8; stroke-opacity:0.4; fill:none" points="364.663,1190.59 2791.44,1190.59 "/>
<polyline clip-path="url(#clip802)" style="stroke:#000000; stroke-linecap:round; stroke-linejoin:round; stroke-width:2.8; stroke-opacity:0.4; fill:none" points="364.663,910.47 2791.44,910.47 "/>
<polyline clip-path="url(#clip802)" style="stroke:#000000; stroke-linecap:round; stroke-linejoin:round; stroke-width:2.8; stroke-opacity:0.4; fill:none" points="364.663,630.353 2791.44,630.353 "/>
<polyline clip-path="url(#clip802)" style="stroke:#000000; stroke-linecap:round; stroke-linejoin:round; stroke-width:2.8; stroke-opacity:0.4; fill:none" points="364.663,350.235 2791.44,350.235 "/>
<polyline clip-path="url(#clip800)" style="stroke:#000000; stroke-linecap:round; stroke-linejoin:round; stroke-width:4; stroke-opacity:1; fill:none" points="364.663,1676.83 364.663,110.236 "/>
<polyline clip-path="url(#clip800)" style="stroke:#000000; stroke-linecap:round; stroke-linejoin:round; stroke-width:4; stroke-opacity:1; fill:none" points="2791.44,1676.83 2791.44,110.236 "/>
<polyline clip-path="url(#clip800)" style="stroke:#000000; stroke-linecap:round; stroke-linejoin:round; stroke-width:4; stroke-opacity:1; fill:none" points="364.663,1470.71 380.047,1470.71 "/>
<polyline clip-path="url(#clip800)" style="stroke:#000000; stroke-linecap:round; stroke-linejoin:round; stroke-width:4; stroke-opacity:1; fill:none" points="364.663,1190.59 380.047,1190.59 "/>
<polyline clip-path="url(#clip800)" style="stroke:#000000; stroke-linecap:round; stroke-linejoin:round; stroke-width:4; stroke-opacity:1; fill:none" points="364.663,910.47 380.047,910.47 "/>
<polyline clip-path="url(#clip800)" style="stroke:#000000; stroke-linecap:round; stroke-linejoin:round; stroke-width:4; stroke-opacity:1; fill:none" points="364.663,630.353 380.047,630.353 "/>
<polyline clip-path="url(#clip800)" style="stroke:#000000; stroke-linecap:round; stroke-linejoin:round; stroke-width:4; stroke-opacity:1; fill:none" points="364.663,350.235 380.047,350.235 "/>
<path clip-path="url(#clip800)" d="M167.652 1465.56 L167.652 1463.97 Q173.729 1463.97 176.867 1460.74 Q177.731 1460.74 177.879 1460.94 Q178.028 1461.13 178.028 1462.05 L178.028 1490.43 Q178.028 1491.94 178.769 1492.41 Q179.51 1492.88 182.746 1492.88 L184.352 1492.88 L184.352 1494.43 Q182.573 1494.29 176.15 1494.29 Q169.727 1494.29 167.973 1494.43 L167.973 1492.88 L169.579 1492.88 Q172.766 1492.88 173.532 1492.43 Q174.297 1491.96 174.297 1490.43 L174.297 1464.22 Q171.654 1465.56 167.652 1465.56 Z" fill="#000000" fill-rule="nonzero" fill-opacity="1" /><path clip-path="url(#clip800)" d="M190.429 1478.25 Q190.429 1470.82 192.306 1466.77 Q194.925 1460.74 201.101 1460.74 Q202.41 1460.74 203.769 1461.11 Q205.152 1461.45 206.881 1462.81 Q208.635 1464.17 209.697 1466.4 Q211.723 1470.69 211.723 1478.25 Q211.723 1485.64 209.846 1489.67 Q207.104 1495.55 201.051 1495.55 Q198.779 1495.55 196.456 1494.38 Q194.159 1493.22 192.701 1490.43 Q190.429 1486.26 190.429 1478.25 M194.628 1477.64 Q194.628 1485.27 195.172 1488.31 Q195.789 1491.59 197.469 1493.03 Q199.174 1494.43 201.051 1494.43 Q203.077 1494.43 204.757 1492.93 Q206.461 1491.4 206.98 1488.11 Q207.548 1484.87 207.524 1477.64 Q207.524 1470.59 207.029 1467.78 Q206.362 1464.49 204.584 1463.18 Q202.83 1461.85 201.051 1461.85 Q200.384 1461.85 199.668 1462.05 Q198.976 1462.25 197.963 1462.81 Q196.95 1463.38 196.16 1464.79 Q195.394 1466.2 195.024 1468.32 Q194.628 1471.06 194.628 1477.64 Z" fill="#000000" fill-rule="nonzero" fill-opacity="1" /><path clip-path="url(#clip800)" d="M238.86 1456.16 Q239.101 1456.41 239.101 1456.75 Q239.101 1457.09 238.86 1457.33 Q238.619 1457.57 238.278 1457.57 L212.546 1457.57 Q212.205 1457.57 211.964 1457.33 Q211.723 1457.09 211.723 1456.75 Q211.723 1456.41 211.964 1456.16 Q212.205 1455.92 212.546 1455.92 L238.278 1455.92 Q238.619 1455.92 238.86 1456.16 Z" fill="#000000" fill-rule="nonzero" fill-opacity="1" /><path clip-path="url(#clip800)" d="M243.436 1467.02 Q243.436 1466.28 243.496 1466.06 Q243.577 1465.84 243.898 1465.5 L251.786 1456.71 Q256.101 1451.85 256.101 1447.61 Q256.101 1444.86 254.656 1442.9 Q253.231 1440.93 250.602 1440.93 Q248.795 1440.93 247.27 1442.03 Q245.744 1443.14 245.042 1445.11 Q245.162 1445.07 245.584 1445.07 Q246.607 1445.07 247.169 1445.71 Q247.751 1446.35 247.751 1447.21 Q247.751 1448.32 247.029 1448.86 Q246.326 1449.38 245.624 1449.38 Q245.343 1449.38 244.961 1449.32 Q244.6 1449.26 244.018 1448.7 Q243.436 1448.12 243.436 1447.09 Q243.436 1444.22 245.604 1441.93 Q247.792 1439.65 251.123 1439.65 Q254.897 1439.65 257.366 1441.89 Q259.854 1444.12 259.854 1447.61 Q259.854 1448.84 259.473 1449.96 Q259.112 1451.07 258.61 1451.93 Q258.128 1452.79 256.804 1454.18 Q255.479 1455.56 254.415 1456.55 Q253.351 1457.53 250.963 1459.62 L246.607 1463.85 L254.014 1463.85 Q257.627 1463.85 257.908 1463.53 Q258.309 1462.95 258.811 1459.88 L259.854 1459.88 L258.69 1467.02 L243.436 1467.02 Z" fill="#000000" fill-rule="nonzero" fill-opacity="1" /><path clip-path="url(#clip800)" d="M266.057 1466.36 Q265.434 1465.7 265.434 1464.84 Q265.434 1463.97 266.057 1463.35 Q266.679 1462.71 267.622 1462.71 Q268.525 1462.71 269.128 1463.31 Q269.75 1463.89 269.75 1464.86 Q269.75 1465.8 269.087 1466.42 Q268.445 1467.02 267.622 1467.02 Q266.679 1467.02 266.057 1466.36 Z" fill="#000000" fill-rule="nonzero" fill-opacity="1" /><path clip-path="url(#clip800)" d="M274.968 1453.88 Q274.968 1447.83 276.494 1444.54 Q278.621 1439.65 283.639 1439.65 Q284.703 1439.65 285.807 1439.95 Q286.931 1440.23 288.336 1441.33 Q289.761 1442.44 290.624 1444.24 Q292.27 1447.73 292.27 1453.88 Q292.27 1459.88 290.744 1463.15 Q288.517 1467.93 283.599 1467.93 Q281.752 1467.93 279.866 1466.98 Q277.999 1466.04 276.815 1463.77 Q274.968 1460.38 274.968 1453.88 M278.38 1453.37 Q278.38 1459.58 278.822 1462.05 Q279.324 1464.72 280.689 1465.88 Q282.074 1467.02 283.599 1467.02 Q285.245 1467.02 286.61 1465.8 Q287.995 1464.55 288.416 1461.88 Q288.878 1459.26 288.858 1453.37 Q288.858 1447.65 288.456 1445.37 Q287.914 1442.7 286.469 1441.63 Q285.044 1440.55 283.599 1440.55 Q283.057 1440.55 282.475 1440.71 Q281.913 1440.87 281.09 1441.33 Q280.267 1441.79 279.625 1442.94 Q279.003 1444.08 278.702 1445.81 Q278.38 1448.04 278.38 1453.37 Z" fill="#000000" fill-rule="nonzero" fill-opacity="1" /><path clip-path="url(#clip800)" d="M295.522 1453.88 Q295.522 1447.83 297.047 1444.54 Q299.175 1439.65 304.192 1439.65 Q305.256 1439.65 306.36 1439.95 Q307.484 1440.23 308.889 1441.33 Q310.314 1442.44 311.177 1444.24 Q312.823 1447.73 312.823 1453.88 Q312.823 1459.88 311.298 1463.15 Q309.07 1467.93 304.152 1467.93 Q302.306 1467.93 300.419 1466.98 Q298.552 1466.04 297.368 1463.77 Q295.522 1460.38 295.522 1453.88 M298.934 1453.37 Q298.934 1459.58 299.375 1462.05 Q299.877 1464.72 301.242 1465.88 Q302.627 1467.02 304.152 1467.02 Q305.798 1467.02 307.163 1465.8 Q308.548 1464.55 308.969 1461.88 Q309.431 1459.26 309.411 1453.37 Q309.411 1447.65 309.01 1445.37 Q308.468 1442.7 307.022 1441.63 Q305.597 1440.55 304.152 1440.55 Q303.61 1440.55 303.028 1440.71 Q302.466 1440.87 301.643 1441.33 Q300.82 1441.79 300.178 1442.94 Q299.556 1444.08 299.255 1445.81 Q298.934 1448.04 298.934 1453.37 Z" fill="#000000" fill-rule="nonzero" fill-opacity="1" /><path clip-path="url(#clip800)" d="M168.094 1185.44 L168.094 1183.86 Q174.171 1183.86 177.308 1180.62 Q178.173 1180.62 178.321 1180.82 Q178.469 1181.02 178.469 1181.93 L178.469 1210.31 Q178.469 1211.82 179.21 1212.29 Q179.951 1212.76 183.188 1212.76 L184.793 1212.76 L184.793 1214.32 Q183.015 1214.17 176.592 1214.17 Q170.169 1214.17 168.415 1214.32 L168.415 1212.76 L170.021 1212.76 Q173.207 1212.76 173.973 1212.31 Q174.739 1211.85 174.739 1210.31 L174.739 1184.1 Q172.096 1185.44 168.094 1185.44 Z" fill="#000000" fill-rule="nonzero" fill-opacity="1" /><path clip-path="url(#clip800)" d="M190.87 1198.14 Q190.87 1190.7 192.748 1186.65 Q195.366 1180.62 201.542 1180.62 Q202.851 1180.62 204.21 1180.99 Q205.594 1181.34 207.323 1182.7 Q209.077 1184.05 210.139 1186.28 Q212.165 1190.58 212.165 1198.14 Q212.165 1205.52 210.287 1209.55 Q207.545 1215.43 201.493 1215.43 Q199.22 1215.43 196.898 1214.27 Q194.601 1213.11 193.143 1210.31 Q190.87 1206.14 190.87 1198.14 M195.07 1197.52 Q195.07 1205.15 195.613 1208.19 Q196.231 1211.47 197.911 1212.91 Q199.615 1214.32 201.493 1214.32 Q203.518 1214.32 205.198 1212.81 Q206.903 1211.28 207.422 1207.99 Q207.99 1204.76 207.965 1197.52 Q207.965 1190.48 207.471 1187.66 Q206.804 1184.38 205.025 1183.07 Q203.271 1181.73 201.493 1181.73 Q200.826 1181.73 200.109 1181.93 Q199.418 1182.13 198.405 1182.7 Q197.392 1183.26 196.602 1184.67 Q195.836 1186.08 195.465 1188.2 Q195.07 1190.95 195.07 1197.52 Z" fill="#000000" fill-rule="nonzero" fill-opacity="1" /><path clip-path="url(#clip800)" d="M239.301 1176.05 Q239.542 1176.29 239.542 1176.63 Q239.542 1176.97 239.301 1177.21 Q239.06 1177.45 238.719 1177.45 L212.988 1177.45 Q212.646 1177.45 212.406 1177.21 Q212.165 1176.97 212.165 1176.63 Q212.165 1176.29 212.406 1176.05 Q212.646 1175.81 212.988 1175.81 L238.719 1175.81 Q239.06 1175.81 239.301 1176.05 Z" fill="#000000" fill-rule="nonzero" fill-opacity="1" /><path clip-path="url(#clip800)" d="M245.483 1163.44 L245.483 1162.16 Q250.421 1162.16 252.97 1159.53 Q253.672 1159.53 253.793 1159.69 Q253.913 1159.85 253.913 1160.59 L253.913 1183.65 Q253.913 1184.88 254.515 1185.26 Q255.118 1185.64 257.747 1185.64 L259.052 1185.64 L259.052 1186.91 Q257.606 1186.79 252.388 1186.79 Q247.169 1186.79 245.744 1186.91 L245.744 1185.64 L247.049 1185.64 Q249.638 1185.64 250.26 1185.28 Q250.883 1184.9 250.883 1183.65 L250.883 1162.36 Q248.735 1163.44 245.483 1163.44 Z" fill="#000000" fill-rule="nonzero" fill-opacity="1" /><path clip-path="url(#clip800)" d="M266.498 1186.24 Q265.876 1185.58 265.876 1184.72 Q265.876 1183.85 266.498 1183.23 Q267.12 1182.59 268.064 1182.59 Q268.967 1182.59 269.569 1183.19 Q270.191 1183.77 270.191 1184.74 Q270.191 1185.68 269.529 1186.3 Q268.887 1186.91 268.064 1186.91 Q267.12 1186.91 266.498 1186.24 Z" fill="#000000" fill-rule="nonzero" fill-opacity="1" /><path clip-path="url(#clip800)" d="M276.112 1167.58 L277.457 1159.13 L278.481 1159.13 Q278.601 1159.63 278.802 1159.85 Q279.023 1160.07 280.187 1160.25 Q281.371 1160.43 283.76 1160.43 L293.735 1160.43 Q293.735 1161.37 293.374 1161.88 L287.814 1169.68 Q286.048 1172.15 285.265 1176.71 Q284.803 1179.76 284.823 1183.45 L284.823 1185.54 Q284.823 1187.81 282.917 1187.81 Q281.03 1187.81 281.03 1185.54 Q281.03 1177.69 286.088 1170.09 Q286.63 1169.3 288.617 1166.51 Q290.624 1163.72 290.704 1163.6 L282.194 1163.6 Q278.461 1163.6 278.16 1163.84 Q277.758 1164.2 277.136 1167.58 L276.112 1167.58 Z" fill="#000000" fill-rule="nonzero" fill-opacity="1" /><path clip-path="url(#clip800)" d="M296.405 1180.28 Q296.405 1179.06 297.067 1178.6 Q297.729 1178.11 298.432 1178.11 Q299.375 1178.11 299.917 1178.72 Q300.479 1179.3 300.479 1180.12 Q300.479 1180.94 299.917 1181.55 Q299.375 1182.13 298.432 1182.13 Q297.97 1182.13 297.729 1182.05 Q298.271 1183.93 299.917 1185.3 Q301.583 1186.66 303.771 1186.66 Q306.521 1186.66 308.167 1184 Q309.15 1182.27 309.15 1178.36 Q309.15 1174.9 308.407 1173.18 Q307.263 1170.55 304.915 1170.55 Q301.583 1170.55 299.616 1173.42 Q299.375 1173.78 299.094 1173.8 Q298.693 1173.8 298.592 1173.58 Q298.512 1173.34 298.512 1172.71 L298.512 1160.55 Q298.512 1159.57 298.914 1159.57 Q299.074 1159.57 299.415 1159.69 Q302.005 1160.83 304.875 1160.85 Q307.825 1160.85 310.475 1159.65 Q310.675 1159.53 310.796 1159.53 Q311.197 1159.53 311.217 1159.99 Q311.217 1160.15 310.876 1160.63 Q310.555 1161.09 309.853 1161.72 Q309.15 1162.32 308.247 1162.9 Q307.344 1163.48 306.019 1163.88 Q304.714 1164.26 303.269 1164.26 Q301.543 1164.26 299.777 1163.72 L299.777 1171.73 Q301.904 1169.64 304.995 1169.64 Q308.287 1169.64 310.555 1172.29 Q312.823 1174.94 312.823 1178.64 Q312.823 1182.51 310.134 1185.16 Q307.464 1187.81 303.851 1187.81 Q300.559 1187.81 298.472 1185.46 Q296.405 1183.11 296.405 1180.28 Z" fill="#000000" fill-rule="nonzero" fill-opacity="1" /><path clip-path="url(#clip800)" d="M167.652 905.32 L167.652 903.739 Q173.729 903.739 176.867 900.503 Q177.731 900.503 177.879 900.7 Q178.028 900.898 178.028 901.812 L178.028 930.196 Q178.028 931.703 178.769 932.172 Q179.51 932.642 182.746 932.642 L184.352 932.642 L184.352 934.198 Q182.573 934.05 176.15 934.05 Q169.727 934.05 167.973 934.198 L167.973 932.642 L169.579 932.642 Q172.766 932.642 173.532 932.197 Q174.297 931.728 174.297 930.196 L174.297 903.986 Q171.654 905.32 167.652 905.32 Z" fill="#000000" fill-rule="nonzero" fill-opacity="1" /><path clip-path="url(#clip800)" d="M190.429 918.017 Q190.429 910.582 192.306 906.53 Q194.925 900.503 201.101 900.503 Q202.41 900.503 203.769 900.873 Q205.152 901.219 206.881 902.578 Q208.635 903.936 209.697 906.16 Q211.723 910.458 211.723 918.017 Q211.723 925.404 209.846 929.43 Q207.104 935.31 201.051 935.31 Q198.779 935.31 196.456 934.149 Q194.159 932.988 192.701 930.196 Q190.429 926.021 190.429 918.017 M194.628 917.4 Q194.628 925.033 195.172 928.072 Q195.789 931.357 197.469 932.79 Q199.174 934.198 201.051 934.198 Q203.077 934.198 204.757 932.691 Q206.461 931.16 206.98 927.874 Q207.548 924.638 207.524 917.4 Q207.524 910.359 207.029 907.543 Q206.362 904.258 204.584 902.948 Q202.83 901.614 201.051 901.614 Q200.384 901.614 199.668 901.812 Q198.976 902.01 197.963 902.578 Q196.95 903.146 196.16 904.554 Q195.394 905.962 195.024 908.087 Q194.628 910.829 194.628 917.4 Z" fill="#000000" fill-rule="nonzero" fill-opacity="1" /><path clip-path="url(#clip800)" d="M238.86 895.929 Q239.101 896.17 239.101 896.511 Q239.101 896.852 238.86 897.093 Q238.619 897.334 238.278 897.334 L212.546 897.334 Q212.205 897.334 211.964 897.093 Q211.723 896.852 211.723 896.511 Q211.723 896.17 211.964 895.929 Q212.205 895.688 212.546 895.688 L238.278 895.688 Q238.619 895.688 238.86 895.929 Z" fill="#000000" fill-rule="nonzero" fill-opacity="1" /><path clip-path="url(#clip800)" d="M245.042 883.324 L245.042 882.04 Q249.979 882.04 252.528 879.41 Q253.231 879.41 253.351 879.571 Q253.472 879.731 253.472 880.474 L253.472 903.536 Q253.472 904.76 254.074 905.142 Q254.676 905.523 257.305 905.523 L258.61 905.523 L258.61 906.788 Q257.165 906.667 251.946 906.667 Q246.728 906.667 245.303 906.788 L245.303 905.523 L246.607 905.523 Q249.197 905.523 249.819 905.162 Q250.441 904.781 250.441 903.536 L250.441 882.24 Q248.293 883.324 245.042 883.324 Z" fill="#000000" fill-rule="nonzero" fill-opacity="1" /><path clip-path="url(#clip800)" d="M266.057 906.125 Q265.434 905.463 265.434 904.6 Q265.434 903.737 266.057 903.115 Q266.679 902.472 267.622 902.472 Q268.525 902.472 269.128 903.074 Q269.75 903.657 269.75 904.62 Q269.75 905.563 269.087 906.186 Q268.445 906.788 267.622 906.788 Q266.679 906.788 266.057 906.125 Z" fill="#000000" fill-rule="nonzero" fill-opacity="1" /><path clip-path="url(#clip800)" d="M275.41 900.164 Q275.41 898.94 276.072 898.478 Q276.735 897.996 277.437 897.996 Q278.38 897.996 278.922 898.599 Q279.484 899.181 279.484 900.004 Q279.484 900.826 278.922 901.429 Q278.38 902.011 277.437 902.011 Q276.975 902.011 276.735 901.93 Q277.277 903.817 278.922 905.182 Q280.588 906.547 282.776 906.547 Q285.526 906.547 287.172 903.877 Q288.155 902.151 288.155 898.237 Q288.155 894.785 287.413 893.059 Q286.269 890.429 283.92 890.429 Q280.588 890.429 278.621 893.3 Q278.38 893.661 278.099 893.681 Q277.698 893.681 277.598 893.46 Q277.517 893.219 277.517 892.597 L277.517 880.434 Q277.517 879.45 277.919 879.45 Q278.079 879.45 278.421 879.571 Q281.01 880.715 283.88 880.735 Q286.831 880.735 289.48 879.531 Q289.681 879.41 289.801 879.41 Q290.203 879.41 290.223 879.872 Q290.223 880.032 289.881 880.514 Q289.56 880.976 288.858 881.598 Q288.155 882.2 287.252 882.782 Q286.349 883.364 285.024 883.766 Q283.719 884.147 282.274 884.147 Q280.548 884.147 278.782 883.605 L278.782 891.614 Q280.909 889.526 284 889.526 Q287.292 889.526 289.56 892.176 Q291.828 894.825 291.828 898.518 Q291.828 902.392 289.139 905.041 Q286.469 907.691 282.856 907.691 Q279.565 907.691 277.477 905.343 Q275.41 902.994 275.41 900.164 Z" fill="#000000" fill-rule="nonzero" fill-opacity="1" /><path clip-path="url(#clip800)" d="M295.522 893.641 Q295.522 887.599 297.047 884.308 Q299.175 879.41 304.192 879.41 Q305.256 879.41 306.36 879.711 Q307.484 879.992 308.889 881.096 Q310.314 882.2 311.177 884.007 Q312.823 887.499 312.823 893.641 Q312.823 899.642 311.298 902.914 Q309.07 907.691 304.152 907.691 Q302.306 907.691 300.419 906.748 Q298.552 905.804 297.368 903.536 Q295.522 900.144 295.522 893.641 M298.934 893.139 Q298.934 899.341 299.375 901.81 Q299.877 904.479 301.242 905.644 Q302.627 906.788 304.152 906.788 Q305.798 906.788 307.163 905.563 Q308.548 904.319 308.969 901.649 Q309.431 899.02 309.411 893.139 Q309.411 887.419 309.01 885.131 Q308.468 882.461 307.022 881.397 Q305.597 880.313 304.152 880.313 Q303.61 880.313 303.028 880.474 Q302.466 880.635 301.643 881.096 Q300.82 881.558 300.178 882.702 Q299.556 883.846 299.255 885.572 Q298.934 887.8 298.934 893.139 Z" fill="#000000" fill-rule="nonzero" fill-opacity="1" /><path clip-path="url(#clip800)" d="M168.094 625.202 L168.094 623.621 Q174.171 623.621 177.308 620.385 Q178.173 620.385 178.321 620.583 Q178.469 620.78 178.469 621.694 L178.469 650.078 Q178.469 651.585 179.21 652.055 Q179.951 652.524 183.188 652.524 L184.793 652.524 L184.793 654.08 Q183.015 653.932 176.592 653.932 Q170.169 653.932 168.415 654.08 L168.415 652.524 L170.021 652.524 Q173.207 652.524 173.973 652.079 Q174.739 651.61 174.739 650.078 L174.739 623.868 Q172.096 625.202 168.094 625.202 Z" fill="#000000" fill-rule="nonzero" fill-opacity="1" /><path clip-path="url(#clip800)" d="M190.87 637.9 Q190.87 630.464 192.748 626.412 Q195.366 620.385 201.542 620.385 Q202.851 620.385 204.21 620.755 Q205.594 621.101 207.323 622.46 Q209.077 623.819 210.139 626.042 Q212.165 630.34 212.165 637.9 Q212.165 645.286 210.287 649.313 Q207.545 655.192 201.493 655.192 Q199.22 655.192 196.898 654.031 Q194.601 652.87 193.143 650.078 Q190.87 645.903 190.87 637.9 M195.07 637.282 Q195.07 644.915 195.613 647.954 Q196.231 651.239 197.911 652.672 Q199.615 654.08 201.493 654.08 Q203.518 654.08 205.198 652.573 Q206.903 651.042 207.422 647.756 Q207.99 644.52 207.965 637.282 Q207.965 630.242 207.471 627.425 Q206.804 624.14 205.025 622.831 Q203.271 621.497 201.493 621.497 Q200.826 621.497 200.109 621.694 Q199.418 621.892 198.405 622.46 Q197.392 623.028 196.602 624.436 Q195.836 625.844 195.465 627.969 Q195.07 630.711 195.07 637.282 Z" fill="#000000" fill-rule="nonzero" fill-opacity="1" /><path clip-path="url(#clip800)" d="M239.301 615.811 Q239.542 616.052 239.542 616.393 Q239.542 616.734 239.301 616.975 Q239.06 617.216 238.719 617.216 L212.988 617.216 Q212.646 617.216 212.406 616.975 Q212.165 616.734 212.165 616.393 Q212.165 616.052 212.406 615.811 Q212.646 615.57 212.988 615.57 L238.719 615.57 Q239.06 615.57 239.301 615.811 Z" fill="#000000" fill-rule="nonzero" fill-opacity="1" /><path clip-path="url(#clip800)" d="M245.483 603.206 L245.483 601.922 Q250.421 601.922 252.97 599.292 Q253.672 599.292 253.793 599.453 Q253.913 599.614 253.913 600.356 L253.913 623.418 Q253.913 624.643 254.515 625.024 Q255.118 625.405 257.747 625.405 L259.052 625.405 L259.052 626.67 Q257.606 626.549 252.388 626.549 Q247.169 626.549 245.744 626.67 L245.744 625.405 L247.049 625.405 Q249.638 625.405 250.26 625.044 Q250.883 624.663 250.883 623.418 L250.883 602.122 Q248.735 603.206 245.483 603.206 Z" fill="#000000" fill-rule="nonzero" fill-opacity="1" /><path clip-path="url(#clip800)" d="M266.498 626.007 Q265.876 625.345 265.876 624.482 Q265.876 623.619 266.498 622.997 Q267.12 622.354 268.064 622.354 Q268.967 622.354 269.569 622.957 Q270.191 623.539 270.191 624.502 Q270.191 625.445 269.529 626.068 Q268.887 626.67 268.064 626.67 Q267.12 626.67 266.498 626.007 Z" fill="#000000" fill-rule="nonzero" fill-opacity="1" /><path clip-path="url(#clip800)" d="M275.851 626.67 Q275.851 625.927 275.912 625.706 Q275.992 625.486 276.313 625.144 L284.201 616.353 Q288.517 611.496 288.517 607.261 Q288.517 604.511 287.071 602.544 Q285.646 600.577 283.017 600.577 Q281.211 600.577 279.685 601.681 Q278.16 602.785 277.457 604.752 Q277.578 604.712 277.999 604.712 Q279.023 604.712 279.585 605.354 Q280.167 605.996 280.167 606.859 Q280.167 607.963 279.444 608.505 Q278.742 609.027 278.039 609.027 Q277.758 609.027 277.377 608.967 Q277.016 608.907 276.434 608.345 Q275.851 607.763 275.851 606.739 Q275.851 603.869 278.019 601.581 Q280.207 599.292 283.539 599.292 Q287.312 599.292 289.781 601.54 Q292.27 603.768 292.27 607.261 Q292.27 608.485 291.889 609.609 Q291.527 610.713 291.025 611.576 Q290.544 612.439 289.219 613.824 Q287.894 615.209 286.831 616.193 Q285.767 617.176 283.378 619.263 L279.023 623.499 L286.429 623.499 Q290.042 623.499 290.323 623.177 Q290.724 622.595 291.226 619.524 L292.27 619.524 L291.106 626.67 L275.851 626.67 Z" fill="#000000" fill-rule="nonzero" fill-opacity="1" /><path clip-path="url(#clip800)" d="M296.405 620.046 Q296.405 618.822 297.067 618.36 Q297.729 617.879 298.432 617.879 Q299.375 617.879 299.917 618.481 Q300.479 619.063 300.479 619.886 Q300.479 620.709 299.917 621.311 Q299.375 621.893 298.432 621.893 Q297.97 621.893 297.729 621.813 Q298.271 623.699 299.917 625.064 Q301.583 626.429 303.771 626.429 Q306.521 626.429 308.167 623.759 Q309.15 622.033 309.15 618.119 Q309.15 614.667 308.407 612.941 Q307.263 610.312 304.915 610.312 Q301.583 610.312 299.616 613.182 Q299.375 613.543 299.094 613.563 Q298.693 613.563 298.592 613.342 Q298.512 613.102 298.512 612.479 L298.512 600.316 Q298.512 599.333 298.914 599.333 Q299.074 599.333 299.415 599.453 Q302.005 600.597 304.875 600.617 Q307.825 600.617 310.475 599.413 Q310.675 599.292 310.796 599.292 Q311.197 599.292 311.217 599.754 Q311.217 599.915 310.876 600.396 Q310.555 600.858 309.853 601.48 Q309.15 602.082 308.247 602.664 Q307.344 603.246 306.019 603.648 Q304.714 604.029 303.269 604.029 Q301.543 604.029 299.777 603.487 L299.777 611.496 Q301.904 609.408 304.995 609.408 Q308.287 609.408 310.555 612.058 Q312.823 614.707 312.823 618.4 Q312.823 622.274 310.134 624.924 Q307.464 627.573 303.851 627.573 Q300.559 627.573 298.472 625.225 Q296.405 622.876 296.405 620.046 Z" fill="#000000" fill-rule="nonzero" fill-opacity="1" /><path clip-path="url(#clip800)" d="M167.652 345.084 L167.652 343.503 Q173.729 343.503 176.867 340.267 Q177.731 340.267 177.879 340.465 Q178.028 340.662 178.028 341.576 L178.028 369.961 Q178.028 371.467 178.769 371.937 Q179.51 372.406 182.746 372.406 L184.352 372.406 L184.352 373.962 Q182.573 373.814 176.15 373.814 Q169.727 373.814 167.973 373.962 L167.973 372.406 L169.579 372.406 Q172.766 372.406 173.532 371.961 Q174.297 371.492 174.297 369.961 L174.297 343.75 Q171.654 345.084 167.652 345.084 Z" fill="#000000" fill-rule="nonzero" fill-opacity="1" /><path clip-path="url(#clip800)" d="M190.429 357.782 Q190.429 350.346 192.306 346.295 Q194.925 340.267 201.101 340.267 Q202.41 340.267 203.769 340.638 Q205.152 340.983 206.881 342.342 Q208.635 343.701 209.697 345.924 Q211.723 350.223 211.723 357.782 Q211.723 365.168 209.846 369.195 Q207.104 375.074 201.051 375.074 Q198.779 375.074 196.456 373.913 Q194.159 372.752 192.701 369.961 Q190.429 365.786 190.429 357.782 M194.628 357.164 Q194.628 364.798 195.172 367.836 Q195.789 371.122 197.469 372.554 Q199.174 373.962 201.051 373.962 Q203.077 373.962 204.757 372.456 Q206.461 370.924 206.98 367.638 Q207.548 364.402 207.524 357.164 Q207.524 350.124 207.029 347.308 Q206.362 344.022 204.584 342.713 Q202.83 341.379 201.051 341.379 Q200.384 341.379 199.668 341.576 Q198.976 341.774 197.963 342.342 Q196.95 342.91 196.16 344.318 Q195.394 345.727 195.024 347.851 Q194.628 350.593 194.628 357.164 Z" fill="#000000" fill-rule="nonzero" fill-opacity="1" /><path clip-path="url(#clip800)" d="M238.86 335.693 Q239.101 335.934 239.101 336.275 Q239.101 336.617 238.86 336.858 Q238.619 337.098 238.278 337.098 L212.546 337.098 Q212.205 337.098 211.964 336.858 Q211.723 336.617 211.723 336.275 Q211.723 335.934 211.964 335.693 Q212.205 335.453 212.546 335.453 L238.278 335.453 Q238.619 335.453 238.86 335.693 Z" fill="#000000" fill-rule="nonzero" fill-opacity="1" /><path clip-path="url(#clip800)" d="M245.042 323.088 L245.042 321.804 Q249.979 321.804 252.528 319.175 Q253.231 319.175 253.351 319.335 Q253.472 319.496 253.472 320.238 L253.472 343.3 Q253.472 344.525 254.074 344.906 Q254.676 345.288 257.305 345.288 L258.61 345.288 L258.61 346.552 Q257.165 346.432 251.946 346.432 Q246.728 346.432 245.303 346.552 L245.303 345.288 L246.607 345.288 Q249.197 345.288 249.819 344.926 Q250.441 344.545 250.441 343.3 L250.441 322.005 Q248.293 323.088 245.042 323.088 Z" fill="#000000" fill-rule="nonzero" fill-opacity="1" /><path clip-path="url(#clip800)" d="M266.057 345.89 Q265.434 345.227 265.434 344.364 Q265.434 343.501 266.057 342.879 Q266.679 342.237 267.622 342.237 Q268.525 342.237 269.128 342.839 Q269.75 343.421 269.75 344.384 Q269.75 345.328 269.087 345.95 Q268.445 346.552 267.622 346.552 Q266.679 346.552 266.057 345.89 Z" fill="#000000" fill-rule="nonzero" fill-opacity="1" /><path clip-path="url(#clip800)" d="M274.968 333.405 Q274.968 327.364 276.494 324.072 Q278.621 319.175 283.639 319.175 Q284.703 319.175 285.807 319.476 Q286.931 319.757 288.336 320.861 Q289.761 321.964 290.624 323.771 Q292.27 327.263 292.27 333.405 Q292.27 339.407 290.744 342.678 Q288.517 347.455 283.599 347.455 Q281.752 347.455 279.866 346.512 Q277.999 345.569 276.815 343.3 Q274.968 339.908 274.968 333.405 M278.38 332.903 Q278.38 339.106 278.822 341.574 Q279.324 344.244 280.689 345.408 Q282.074 346.552 283.599 346.552 Q285.245 346.552 286.61 345.328 Q287.995 344.083 288.416 341.414 Q288.878 338.784 288.858 332.903 Q288.858 327.183 288.456 324.895 Q287.914 322.225 286.469 321.162 Q285.044 320.078 283.599 320.078 Q283.057 320.078 282.475 320.238 Q281.913 320.399 281.09 320.861 Q280.267 321.322 279.625 322.466 Q279.003 323.61 278.702 325.336 Q278.38 327.564 278.38 332.903 Z" fill="#000000" fill-rule="nonzero" fill-opacity="1" /><path clip-path="url(#clip800)" d="M295.522 333.405 Q295.522 327.364 297.047 324.072 Q299.175 319.175 304.192 319.175 Q305.256 319.175 306.36 319.476 Q307.484 319.757 308.889 320.861 Q310.314 321.964 311.177 323.771 Q312.823 327.263 312.823 333.405 Q312.823 339.407 311.298 342.678 Q309.07 347.455 304.152 347.455 Q302.306 347.455 300.419 346.512 Q298.552 345.569 297.368 343.3 Q295.522 339.908 295.522 333.405 M298.934 332.903 Q298.934 339.106 299.375 341.574 Q299.877 344.244 301.242 345.408 Q302.627 346.552 304.152 346.552 Q305.798 346.552 307.163 345.328 Q308.548 344.083 308.969 341.414 Q309.431 338.784 309.411 332.903 Q309.411 327.183 309.01 324.895 Q308.468 322.225 307.022 321.162 Q305.597 320.078 304.152 320.078 Q303.61 320.078 303.028 320.238 Q302.466 320.399 301.643 320.861 Q300.82 321.322 300.178 322.466 Q299.556 323.61 299.255 325.336 Q298.934 327.564 298.934 332.903 Z" fill="#000000" fill-rule="nonzero" fill-opacity="1" /><path clip-path="url(#clip800)" d="M65.9473 1031.71 L48.902 1030.27 L48.902 983.911 L65.9473 982.466 L65.9473 984.356 Q62.5383 984.652 60.5743 984.949 Q58.6104 985.208 56.7577 985.875 Q54.8679 986.505 53.9785 987.32 Q53.0522 988.098 52.3481 989.618 Q51.607 991.137 51.4217 993.101 Q51.2365 995.065 51.2365 998.029 Q51.2365 1001.51 51.3847 1002.36 Q51.607 1003.29 52.274 1003.51 Q52.9039 1003.74 54.275 1003.74 L94.2574 1003.74 Q95.7766 1003.74 96.4066 1003.44 Q96.9994 1003.11 97.4812 1001.36 Q97.9258 999.623 97.9258 995.769 L97.9258 992.73 L100.26 992.73 Q100.038 995.843 100.038 1007.14 Q100.038 1018.37 100.26 1021.49 L97.9258 1021.49 L97.9258 1018.45 Q97.9258 1014.59 97.4812 1012.85 Q96.9994 1011.07 96.4066 1010.78 Q95.7766 1010.48 94.2574 1010.48 L54.275 1010.48 Q53.2004 1010.48 52.7557 1010.55 Q52.3111 1010.63 51.9405 1010.96 Q51.5329 1011.29 51.3847 1012.07 Q51.2365 1012.81 51.2365 1016.15 Q51.2365 1019.11 51.4217 1021.11 Q51.607 1023.08 52.3481 1024.6 Q53.0522 1026.12 53.9785 1026.93 Q54.8679 1027.71 56.7577 1028.38 Q58.6104 1029.01 60.5743 1029.27 Q62.5383 1029.53 65.9473 1029.82 L65.9473 1031.71 Z" fill="#000000" fill-rule="nonzero" fill-opacity="1" /><path clip-path="url(#clip800)" d="M100.26 977.167 L97.9258 977.167 Q97.9258 973.128 97.4441 972.202 Q96.9253 971.275 94.4797 971.275 L74.0624 971.275 Q71.2462 971.275 70.5792 972.239 Q69.9122 973.165 69.9122 976.871 L67.5407 976.871 L66.7255 966.273 L94.5538 966.273 Q96.8142 966.273 97.37 965.458 Q97.9258 964.643 97.9258 960.937 L100.26 960.937 Q100.038 968.682 100.038 968.83 Q100.038 969.867 100.26 977.167 M53.4968 973.98 Q51.9776 973.98 50.7548 972.832 Q49.4949 971.646 49.4949 969.979 Q49.4949 968.311 50.6436 967.125 Q51.7552 965.94 53.5339 965.94 Q55.2755 965.94 56.4242 967.125 Q57.5358 968.311 57.5358 969.979 Q57.5358 971.72 56.313 972.869 Q55.0902 973.98 53.4968 973.98 Z" fill="#000000" fill-rule="nonzero" fill-opacity="1" /><path clip-path="url(#clip800)" d="M100.26 956.231 L97.9258 956.231 Q97.9258 952.192 97.4441 951.266 Q96.9253 950.339 94.4797 950.339 L74.1365 950.339 Q71.3203 950.339 70.6163 951.34 Q69.9122 952.303 69.9122 956.231 L67.5407 956.231 L66.7255 945.559 L74.6923 945.559 Q66.7255 942.002 66.7255 934.332 Q66.7255 925.438 74.1365 924.216 Q71.2462 922.919 68.9858 920.214 Q66.7255 917.472 66.7255 913.21 Q66.7255 907.504 69.5417 905.243 Q71.4315 903.576 73.5436 903.242 Q75.6557 902.909 81.1399 902.909 L95.6284 902.909 Q97.2218 902.835 97.5923 901.612 Q97.9258 900.389 97.9258 896.98 L100.26 896.98 Q100.038 904.725 100.038 905.466 Q100.038 906.059 100.26 914.062 L97.9258 914.062 Q97.9258 910.023 97.4441 909.097 Q96.9253 908.134 94.4797 908.134 L76.8044 908.134 Q72.9507 908.134 70.6904 909.319 Q68.3929 910.505 68.3929 913.766 Q68.3929 917.694 71.6908 920.844 Q74.9887 923.993 80.547 923.993 L94.4797 923.993 Q96.9253 923.993 97.4441 923.067 Q97.9258 922.103 97.9258 918.064 L100.26 918.064 Q100.038 925.809 100.038 926.587 Q100.038 927.18 100.26 935.147 L97.9258 935.147 Q97.9258 931.108 97.4441 930.181 Q96.9253 929.218 94.4797 929.218 L76.8044 929.218 Q72.9507 929.218 70.6904 930.404 Q68.3929 931.589 68.3929 934.85 Q68.3929 938.778 71.6908 941.928 Q74.9887 945.078 80.547 945.078 L94.4797 945.078 Q96.9253 945.078 97.4441 944.151 Q97.9258 943.188 97.9258 939.186 L100.26 939.186 Q100.038 946.93 100.038 947.671 Q100.038 948.264 100.26 956.231 Z" fill="#000000" fill-rule="nonzero" fill-opacity="1" /><path clip-path="url(#clip800)" d="M83.5485 893.386 Q76.3968 893.386 71.3203 888.791 Q66.2438 884.196 66.2438 877.6 Q66.2438 870.93 70.5792 867.484 Q74.9146 864.001 81.1399 864.001 Q82.2886 864.001 82.5109 864.298 Q82.7332 864.594 82.7332 865.891 L82.7332 887.086 Q90.4778 887.086 94.1091 884.789 Q99.1857 881.602 99.1857 876.229 Q99.1857 875.488 99.0375 874.599 Q98.8892 873.71 98.2593 871.894 Q97.5923 870.078 95.8507 868.485 Q94.1091 866.891 91.3671 865.965 Q90.2925 865.743 90.3295 865.002 Q90.3295 864.001 91.2189 864.001 Q91.8858 864.001 93.4051 864.742 Q94.8873 865.446 96.6659 866.817 Q98.4446 868.188 99.7786 870.856 Q101.113 873.487 101.113 876.674 Q101.113 883.344 96.0731 888.383 Q90.9965 893.386 83.5485 893.386 M81.1399 887.012 L81.1399 869.004 Q79.5465 869.004 77.7679 869.3 Q75.9892 869.559 73.5436 870.375 Q71.0609 871.153 69.5046 873.005 Q67.9483 874.858 67.9483 877.6 Q67.9483 878.823 68.4671 880.157 Q68.9858 881.454 70.2457 883.047 Q71.5056 884.641 74.3588 885.752 Q77.212 886.864 81.1399 887.012 Z" fill="#000000" fill-rule="nonzero" fill-opacity="1" /><path clip-path="url(#clip800)" d="M81.2881 829.058 Q68.4671 829.058 58.1287 824.278 Q53.7933 822.24 50.1619 819.387 Q46.5305 816.534 44.9371 814.644 Q43.3437 812.754 43.3437 812.235 Q43.3437 811.494 44.0848 811.457 Q44.4554 811.457 45.3818 812.458 Q57.8323 824.686 81.2881 824.649 Q104.818 824.649 116.787 812.754 Q118.084 811.457 118.491 811.457 Q119.232 811.457 119.232 812.235 Q119.232 812.754 117.713 814.57 Q116.194 816.385 112.711 819.202 Q109.228 822.018 104.966 824.056 Q94.6279 829.058 81.2881 829.058 Z" fill="#000000" fill-rule="nonzero" fill-opacity="1" /><path clip-path="url(#clip800)" d="M99.2598 804.639 L89.2549 804.639 Q88.4027 804.639 88.1062 804.602 Q87.8098 804.565 87.5875 804.342 Q87.3651 804.12 87.3651 803.675 Q87.3651 803.157 87.5875 802.971 Q87.8098 802.749 88.6621 802.601 Q93.8868 801.452 96.6659 799.007 Q99.408 796.524 99.408 792.04 Q99.408 787.779 97.5182 785.63 Q95.6284 783.481 92.5158 783.481 Q86.9575 783.481 85.5494 791.373 Q84.6231 795.931 84.0302 797.821 Q83.4002 799.711 82.0292 801.378 Q79.3612 804.639 75.5816 804.639 Q71.802 804.639 69.0229 801.786 Q66.2438 798.895 66.2438 792.522 Q66.2438 788.261 68.3929 785.37 Q67.726 784.518 67.1701 784.073 Q66.2438 783.073 66.2438 782.554 Q66.2438 781.961 66.6514 781.85 Q67.0219 781.739 68.0965 781.739 L75.7298 781.739 Q76.5821 781.739 76.8786 781.776 Q77.175 781.813 77.3973 782.035 Q77.5826 782.258 77.5826 782.739 Q77.5826 783.592 76.8786 783.629 Q67.6889 784.222 67.6889 792.522 Q67.6889 797.006 69.4305 799.007 Q71.135 801.008 73.4695 801.008 Q74.7664 801.008 75.7669 800.415 Q76.7303 799.785 77.3232 799.007 Q77.879 798.191 78.4349 796.709 Q78.9536 795.227 79.1389 794.338 Q79.3242 793.411 79.6947 791.67 Q80.8434 785.593 83.3261 783.036 Q86.5129 779.849 90.5519 779.849 Q95.0355 779.849 98.074 782.888 Q101.113 785.926 101.113 792.04 Q101.113 796.969 97.8147 800.415 Q98.2593 800.859 98.6669 801.193 Q99.0375 801.526 99.1857 801.675 Q99.3339 801.786 99.4451 801.823 Q99.5192 801.86 99.5933 801.934 Q101.113 803.453 101.113 803.824 Q101.113 804.417 100.705 804.528 Q100.334 804.639 99.2598 804.639 Z" fill="#000000" fill-rule="nonzero" fill-opacity="1" /><path clip-path="url(#clip800)" d="M118.491 772.957 Q118.121 772.957 117.194 771.993 Q104.744 759.765 81.2881 759.765 Q57.7582 759.765 45.8635 771.512 Q44.4924 772.957 44.0848 772.957 Q43.3437 772.957 43.3437 772.216 Q43.3437 771.697 44.863 769.881 Q46.3823 768.029 49.8654 765.249 Q53.3486 762.433 57.6099 760.358 Q67.9483 755.356 81.2881 755.356 Q94.1091 755.356 104.448 760.136 Q108.783 762.174 112.414 765.027 Q116.046 767.88 117.639 769.77 Q119.232 771.66 119.232 772.216 Q119.232 772.957 118.491 772.957 Z" fill="#000000" fill-rule="nonzero" fill-opacity="1" /><polyline clip-path="url(#clip802)" style="stroke:#0000ff; stroke-linecap:round; stroke-linejoin:round; stroke-width:12; stroke-opacity:1; fill:none" points="2722.76,1267.74 2018.27,992.945 1299.41,717.47 640.28,433.094 760.533,154.574 "/>
<line clip-path="url(#clip802)" x1="2722.76" y1="1267.74" x2="2722.76" y2="1251.74" style="stroke:#0000ff; stroke-width:12; stroke-opacity:1"/>
<line clip-path="url(#clip802)" x1="2722.76" y1="1267.74" x2="2706.76" y2="1267.74" style="stroke:#0000ff; stroke-width:12; stroke-opacity:1"/>
<line clip-path="url(#clip802)" x1="2722.76" y1="1267.74" x2="2722.76" y2="1283.74" style="stroke:#0000ff; stroke-width:12; stroke-opacity:1"/>
<line clip-path="url(#clip802)" x1="2722.76" y1="1267.74" x2="2738.76" y2="1267.74" style="stroke:#0000ff; stroke-width:12; stroke-opacity:1"/>
<line clip-path="url(#clip802)" x1="2018.27" y1="992.945" x2="2018.27" y2="976.945" style="stroke:#0000ff; stroke-width:12; stroke-opacity:1"/>
<line clip-path="url(#clip802)" x1="2018.27" y1="992.945" x2="2002.27" y2="992.945" style="stroke:#0000ff; stroke-width:12; stroke-opacity:1"/>
<line clip-path="url(#clip802)" x1="2018.27" y1="992.945" x2="2018.27" y2="1008.94" style="stroke:#0000ff; stroke-width:12; stroke-opacity:1"/>
<line clip-path="url(#clip802)" x1="2018.27" y1="992.945" x2="2034.27" y2="992.945" style="stroke:#0000ff; stroke-width:12; stroke-opacity:1"/>
<line clip-path="url(#clip802)" x1="1299.41" y1="717.47" x2="1299.41" y2="701.47" style="stroke:#0000ff; stroke-width:12; stroke-opacity:1"/>
<line clip-path="url(#clip802)" x1="1299.41" y1="717.47" x2="1283.41" y2="717.47" style="stroke:#0000ff; stroke-width:12; stroke-opacity:1"/>
<line clip-path="url(#clip802)" x1="1299.41" y1="717.47" x2="1299.41" y2="733.47" style="stroke:#0000ff; stroke-width:12; stroke-opacity:1"/>
<line clip-path="url(#clip802)" x1="1299.41" y1="717.47" x2="1315.41" y2="717.47" style="stroke:#0000ff; stroke-width:12; stroke-opacity:1"/>
<line clip-path="url(#clip802)" x1="640.28" y1="433.094" x2="640.28" y2="417.094" style="stroke:#0000ff; stroke-width:12; stroke-opacity:1"/>
<line clip-path="url(#clip802)" x1="640.28" y1="433.094" x2="624.28" y2="433.094" style="stroke:#0000ff; stroke-width:12; stroke-opacity:1"/>
<line clip-path="url(#clip802)" x1="640.28" y1="433.094" x2="640.28" y2="449.094" style="stroke:#0000ff; stroke-width:12; stroke-opacity:1"/>
<line clip-path="url(#clip802)" x1="640.28" y1="433.094" x2="656.28" y2="433.094" style="stroke:#0000ff; stroke-width:12; stroke-opacity:1"/>
<line clip-path="url(#clip802)" x1="760.533" y1="154.574" x2="760.533" y2="138.574" style="stroke:#0000ff; stroke-width:12; stroke-opacity:1"/>
<line clip-path="url(#clip802)" x1="760.533" y1="154.574" x2="744.533" y2="154.574" style="stroke:#0000ff; stroke-width:12; stroke-opacity:1"/>
<line clip-path="url(#clip802)" x1="760.533" y1="154.574" x2="760.533" y2="170.574" style="stroke:#0000ff; stroke-width:12; stroke-opacity:1"/>
<line clip-path="url(#clip802)" x1="760.533" y1="154.574" x2="776.533" y2="154.574" style="stroke:#0000ff; stroke-width:12; stroke-opacity:1"/>
<polyline clip-path="url(#clip802)" style="stroke:#7f007f; stroke-linecap:round; stroke-linejoin:round; stroke-width:12; stroke-opacity:1; fill:none" points="2333.09,1608.98 1549.8,1391.11 433.346,1193.57 754.671,979.79 760.615,753.908 "/>
<circle clip-path="url(#clip802)" cx="2333.09" cy="1608.98" r="14.4" fill="#7f007f" fill-rule="evenodd" fill-opacity="1" stroke="#000000" stroke-opacity="1" stroke-width="1.92"/>
<circle clip-path="url(#clip802)" cx="1549.8" cy="1391.11" r="14.4" fill="#7f007f" fill-rule="evenodd" fill-opacity="1" stroke="#000000" stroke-opacity="1" stroke-width="1.92"/>
<circle clip-path="url(#clip802)" cx="433.346" cy="1193.57" r="14.4" fill="#7f007f" fill-rule="evenodd" fill-opacity="1" stroke="#000000" stroke-opacity="1" stroke-width="1.92"/>
<circle clip-path="url(#clip802)" cx="754.671" cy="979.79" r="14.4" fill="#7f007f" fill-rule="evenodd" fill-opacity="1" stroke="#000000" stroke-opacity="1" stroke-width="1.92"/>
<circle clip-path="url(#clip802)" cx="760.615" cy="753.908" r="14.4" fill="#7f007f" fill-rule="evenodd" fill-opacity="1" stroke="#000000" stroke-opacity="1" stroke-width="1.92"/>
<polyline clip-path="url(#clip802)" style="stroke:#ff0000; stroke-linecap:round; stroke-linejoin:round; stroke-width:12; stroke-opacity:1; fill:none" points="2352.13,1632.49 1053.81,1566.66 718.024,1394.57 757.194,1212.83 760.179,1033.48 "/>
<line clip-path="url(#clip802)" x1="2352.13" y1="1632.49" x2="2352.13" y2="1616.49" style="stroke:#ff0000; stroke-width:12; stroke-opacity:1"/>
<line clip-path="url(#clip802)" x1="2352.13" y1="1632.49" x2="2336.13" y2="1632.49" style="stroke:#ff0000; stroke-width:12; stroke-opacity:1"/>
<line clip-path="url(#clip802)" x1="2352.13" y1="1632.49" x2="2352.13" y2="1648.49" style="stroke:#ff0000; stroke-width:12; stroke-opacity:1"/>
<line clip-path="url(#clip802)" x1="2352.13" y1="1632.49" x2="2368.13" y2="1632.49" style="stroke:#ff0000; stroke-width:12; stroke-opacity:1"/>
<line clip-path="url(#clip802)" x1="1053.81" y1="1566.66" x2="1053.81" y2="1550.66" style="stroke:#ff0000; stroke-width:12; stroke-opacity:1"/>
<line clip-path="url(#clip802)" x1="1053.81" y1="1566.66" x2="1037.81" y2="1566.66" style="stroke:#ff0000; stroke-width:12; stroke-opacity:1"/>
<line clip-path="url(#clip802)" x1="1053.81" y1="1566.66" x2="1053.81" y2="1582.66" style="stroke:#ff0000; stroke-width:12; stroke-opacity:1"/>
<line clip-path="url(#clip802)" x1="1053.81" y1="1566.66" x2="1069.81" y2="1566.66" style="stroke:#ff0000; stroke-width:12; stroke-opacity:1"/>
<line clip-path="url(#clip802)" x1="718.024" y1="1394.57" x2="718.024" y2="1378.57" style="stroke:#ff0000; stroke-width:12; stroke-opacity:1"/>
<line clip-path="url(#clip802)" x1="718.024" y1="1394.57" x2="702.024" y2="1394.57" style="stroke:#ff0000; stroke-width:12; stroke-opacity:1"/>
<line clip-path="url(#clip802)" x1="718.024" y1="1394.57" x2="718.024" y2="1410.57" style="stroke:#ff0000; stroke-width:12; stroke-opacity:1"/>
<line clip-path="url(#clip802)" x1="718.024" y1="1394.57" x2="734.024" y2="1394.57" style="stroke:#ff0000; stroke-width:12; stroke-opacity:1"/>
<line clip-path="url(#clip802)" x1="757.194" y1="1212.83" x2="757.194" y2="1196.83" style="stroke:#ff0000; stroke-width:12; stroke-opacity:1"/>
<line clip-path="url(#clip802)" x1="757.194" y1="1212.83" x2="741.194" y2="1212.83" style="stroke:#ff0000; stroke-width:12; stroke-opacity:1"/>
<line clip-path="url(#clip802)" x1="757.194" y1="1212.83" x2="757.194" y2="1228.83" style="stroke:#ff0000; stroke-width:12; stroke-opacity:1"/>
<line clip-path="url(#clip802)" x1="757.194" y1="1212.83" x2="773.194" y2="1212.83" style="stroke:#ff0000; stroke-width:12; stroke-opacity:1"/>
<line clip-path="url(#clip802)" x1="760.179" y1="1033.48" x2="760.179" y2="1017.48" style="stroke:#ff0000; stroke-width:12; stroke-opacity:1"/>
<line clip-path="url(#clip802)" x1="760.179" y1="1033.48" x2="744.179" y2="1033.48" style="stroke:#ff0000; stroke-width:12; stroke-opacity:1"/>
<line clip-path="url(#clip802)" x1="760.179" y1="1033.48" x2="760.179" y2="1049.48" style="stroke:#ff0000; stroke-width:12; stroke-opacity:1"/>
<line clip-path="url(#clip802)" x1="760.179" y1="1033.48" x2="776.179" y2="1033.48" style="stroke:#ff0000; stroke-width:12; stroke-opacity:1"/>
<path clip-path="url(#clip800)" d="M2890.81 369.816 L3345.76 369.816 L3345.76 162.456 L2890.81 162.456  Z" fill="#ffffff" fill-rule="evenodd" fill-opacity="1"/>
<polyline clip-path="url(#clip800)" style="stroke:#000000; stroke-linecap:round; stroke-linejoin:round; stroke-width:4; stroke-opacity:1; fill:none" points="2890.81,369.816 3345.76,369.816 3345.76,162.456 2890.81,162.456 2890.81,369.816 "/>
<polyline clip-path="url(#clip800)" style="stroke:#0000ff; stroke-linecap:round; stroke-linejoin:round; stroke-width:12; stroke-opacity:1; fill:none" points="2923.94,214.296 3122.68,214.296 "/>
<line clip-path="url(#clip800)" x1="3023.31" y1="214.296" x2="3023.31" y2="190.202" style="stroke:#0000ff; stroke-width:12; stroke-opacity:1"/>
<line clip-path="url(#clip800)" x1="3023.31" y1="214.296" x2="2999.21" y2="214.296" style="stroke:#0000ff; stroke-width:12; stroke-opacity:1"/>
<line clip-path="url(#clip800)" x1="3023.31" y1="214.296" x2="3023.31" y2="238.39" style="stroke:#0000ff; stroke-width:12; stroke-opacity:1"/>
<line clip-path="url(#clip800)" x1="3023.31" y1="214.296" x2="3047.4" y2="214.296" style="stroke:#0000ff; stroke-width:12; stroke-opacity:1"/>
<path clip-path="url(#clip800)" d="M3155.8 231.576 L3155.8 230.02 L3157.01 230.02 Q3159.75 230.02 3160.37 229.575 Q3161.01 229.106 3161.01 227.624 L3161.01 201.117 Q3161.01 199.659 3160.37 199.215 Q3159.73 198.745 3157.01 198.745 L3155.8 198.745 L3155.8 197.164 L3184.28 197.164 L3185.69 208.553 L3184.43 208.553 Q3184.08 205.662 3183.61 204.007 Q3183.17 202.327 3182.06 201.043 Q3180.97 199.758 3179.17 199.264 Q3177.39 198.745 3174.5 198.745 L3167.98 198.745 Q3166.25 198.745 3165.88 199.116 Q3165.51 199.462 3165.51 200.771 L3165.51 212.9 L3170.05 212.9 Q3173.54 212.9 3174.52 211.69 Q3175.51 210.479 3175.51 206.996 L3176.8 206.996 L3176.8 220.385 L3175.51 220.385 Q3175.51 216.952 3174.52 215.717 Q3173.54 214.481 3170.05 214.481 L3165.51 214.481 L3165.51 227.994 Q3165.51 229.303 3165.88 229.674 Q3166.27 230.02 3167.98 230.02 L3174.72 230.02 Q3176.9 230.02 3178.48 229.748 Q3180.08 229.452 3181.19 228.76 Q3182.31 228.043 3183.05 227.228 Q3183.81 226.413 3184.33 224.956 Q3184.87 223.473 3185.17 222.115 Q3185.49 220.756 3185.84 218.533 L3187.1 218.533 L3184.97 231.576 L3155.8 231.576 Z" fill="#000000" fill-rule="nonzero" fill-opacity="1" /><path clip-path="url(#clip800)" d="M3190.19 231.576 L3190.19 230.02 L3191.4 230.02 Q3194.14 230.02 3194.76 229.575 Q3195.4 229.106 3195.4 227.624 L3195.4 200.969 Q3195.4 199.511 3194.76 199.066 Q3194.11 198.597 3191.4 198.597 L3190.19 198.597 L3190.19 197.016 Q3191.96 197.164 3197.67 197.164 Q3203.33 197.164 3205.11 197.016 L3205.11 198.597 L3203.9 198.597 Q3201.15 198.597 3200.51 199.066 Q3199.89 199.511 3199.89 200.969 L3199.89 217.05 L3215.73 201.932 Q3216.64 201.117 3216.64 200.252 Q3216.64 199.956 3216.49 199.635 Q3216.37 199.289 3215.78 198.943 Q3215.21 198.597 3214.3 198.597 L3214.3 197.016 Q3216.03 197.164 3220.74 197.164 Q3223.73 197.164 3225.04 197.016 L3225.04 198.597 Q3220.84 198.646 3217.85 201.636 L3208.74 210.381 L3220.42 227.574 Q3221.49 229.13 3222.52 229.575 Q3223.56 230.02 3225.73 230.02 L3225.73 231.576 Q3222.55 231.428 3219.93 231.428 Q3214.47 231.428 3212.69 231.576 L3212.69 230.02 Q3215.68 230.02 3215.68 228.488 Q3215.68 227.92 3214.91 226.759 L3205.75 213.221 L3199.89 218.78 L3199.89 227.624 Q3199.89 229.081 3200.51 229.55 Q3201.15 230.02 3203.9 230.02 L3205.11 230.02 L3205.11 231.576 Q3203.33 231.428 3197.62 231.428 Q3191.96 231.428 3190.19 231.576 Z" fill="#000000" fill-rule="nonzero" fill-opacity="1" /><path clip-path="url(#clip800)" d="M3232.31 202.698 L3232.31 201.117 Q3238.38 201.117 3241.52 197.881 Q3242.38 197.881 3242.53 198.078 Q3242.68 198.276 3242.68 199.19 L3242.68 227.574 Q3242.68 229.081 3243.42 229.55 Q3244.16 230.02 3247.4 230.02 L3249 230.02 L3249 231.576 Q3247.23 231.428 3240.8 231.428 Q3234.38 231.428 3232.63 231.576 L3232.63 230.02 L3234.23 230.02 Q3237.42 230.02 3238.18 229.575 Q3238.95 229.106 3238.95 227.574 L3238.95 201.364 Q3236.31 202.698 3232.31 202.698 Z" fill="#000000" fill-rule="nonzero" fill-opacity="1" /><path clip-path="url(#clip800)" d="M3258.12 218.928 Q3258.12 210.381 3261.31 203.488 Q3262.67 200.598 3264.57 198.177 Q3266.47 195.756 3267.73 194.694 Q3268.99 193.632 3269.34 193.632 Q3269.83 193.632 3269.85 194.126 Q3269.85 194.373 3269.19 194.99 Q3261.04 203.291 3261.06 218.928 Q3261.06 234.615 3268.99 242.594 Q3269.85 243.458 3269.85 243.73 Q3269.85 244.224 3269.34 244.224 Q3268.99 244.224 3267.78 243.211 Q3266.57 242.199 3264.69 239.876 Q3262.81 237.554 3261.46 234.713 Q3258.12 227.821 3258.12 218.928 Z" fill="#000000" fill-rule="nonzero" fill-opacity="1" /><path clip-path="url(#clip800)" d="M3275.24 231.576 Q3275.24 230.662 3275.31 230.39 Q3275.41 230.119 3275.81 229.699 L3285.52 218.879 Q3290.83 212.9 3290.83 207.688 Q3290.83 204.304 3289.05 201.883 Q3287.29 199.462 3284.06 199.462 Q3281.84 199.462 3279.96 200.82 Q3278.08 202.179 3277.22 204.6 Q3277.36 204.551 3277.88 204.551 Q3279.14 204.551 3279.83 205.341 Q3280.55 206.132 3280.55 207.194 Q3280.55 208.553 3279.66 209.22 Q3278.8 209.862 3277.93 209.862 Q3277.59 209.862 3277.12 209.788 Q3276.67 209.714 3275.96 209.022 Q3275.24 208.306 3275.24 207.046 Q3275.24 203.513 3277.91 200.697 Q3280.6 197.881 3284.7 197.881 Q3289.35 197.881 3292.38 200.647 Q3295.45 203.39 3295.45 207.688 Q3295.45 209.195 3294.98 210.578 Q3294.53 211.937 3293.92 212.999 Q3293.32 214.061 3291.69 215.766 Q3290.06 217.47 3288.75 218.681 Q3287.44 219.891 3284.5 222.461 L3279.14 227.673 L3288.26 227.673 Q3292.7 227.673 3293.05 227.278 Q3293.54 226.561 3294.16 222.782 L3295.45 222.782 L3294.01 231.576 L3275.24 231.576 Z" fill="#000000" fill-rule="nonzero" fill-opacity="1" /><path clip-path="url(#clip800)" d="M3300.91 243.73 Q3300.91 243.483 3301.55 242.866 Q3309.7 234.565 3309.7 218.928 Q3309.7 203.241 3301.87 195.312 Q3300.91 194.398 3300.91 194.126 Q3300.91 193.632 3301.4 193.632 Q3301.75 193.632 3302.96 194.645 Q3304.19 195.657 3306.04 197.98 Q3307.92 200.302 3309.31 203.143 Q3312.64 210.035 3312.64 218.928 Q3312.64 227.475 3309.45 234.368 Q3308.1 237.258 3306.19 239.679 Q3304.29 242.1 3303.03 243.162 Q3301.77 244.224 3301.4 244.224 Q3300.91 244.224 3300.91 243.73 Z" fill="#000000" fill-rule="nonzero" fill-opacity="1" /><polyline clip-path="url(#clip800)" style="stroke:#7f007f; stroke-linecap:round; stroke-linejoin:round; stroke-width:12; stroke-opacity:1; fill:none" points="2923.94,266.136 3122.68,266.136 "/>
<circle clip-path="url(#clip800)" cx="3023.31" cy="266.136" r="21.6847" fill="#7f007f" fill-rule="evenodd" fill-opacity="1" stroke="#000000" stroke-opacity="1" stroke-width="2.89129"/>
<path clip-path="url(#clip800)" d="M3155.8 283.416 L3155.8 281.86 L3157.01 281.86 Q3159.75 281.86 3160.37 281.415 Q3161.01 280.946 3161.01 279.464 L3161.01 252.957 Q3161.01 251.499 3160.37 251.055 Q3159.73 250.585 3157.01 250.585 L3155.8 250.585 L3155.8 249.004 L3184.28 249.004 L3185.69 260.393 L3184.43 260.393 Q3184.08 257.502 3183.61 255.847 Q3183.17 254.167 3182.06 252.883 Q3180.97 251.598 3179.17 251.104 Q3177.39 250.585 3174.5 250.585 L3167.98 250.585 Q3166.25 250.585 3165.88 250.956 Q3165.51 251.302 3165.51 252.611 L3165.51 264.74 L3170.05 264.74 Q3173.54 264.74 3174.52 263.53 Q3175.51 262.319 3175.51 258.836 L3176.8 258.836 L3176.8 272.225 L3175.51 272.225 Q3175.51 268.792 3174.52 267.557 Q3173.54 266.321 3170.05 266.321 L3165.51 266.321 L3165.51 279.834 Q3165.51 281.143 3165.88 281.514 Q3166.27 281.86 3167.98 281.86 L3174.72 281.86 Q3176.9 281.86 3178.48 281.588 Q3180.08 281.292 3181.19 280.6 Q3182.31 279.883 3183.05 279.068 Q3183.81 278.253 3184.33 276.796 Q3184.87 275.313 3185.17 273.955 Q3185.49 272.596 3185.84 270.373 L3187.1 270.373 L3184.97 283.416 L3155.8 283.416 Z" fill="#000000" fill-rule="nonzero" fill-opacity="1" /><path clip-path="url(#clip800)" d="M3190.19 283.416 L3190.19 281.86 L3191.4 281.86 Q3194.14 281.86 3194.76 281.415 Q3195.4 280.946 3195.4 279.464 L3195.4 252.809 Q3195.4 251.351 3194.76 250.906 Q3194.11 250.437 3191.4 250.437 L3190.19 250.437 L3190.19 248.856 Q3191.96 249.004 3197.67 249.004 Q3203.33 249.004 3205.11 248.856 L3205.11 250.437 L3203.9 250.437 Q3201.15 250.437 3200.51 250.906 Q3199.89 251.351 3199.89 252.809 L3199.89 268.89 L3215.73 253.772 Q3216.64 252.957 3216.64 252.092 Q3216.64 251.796 3216.49 251.475 Q3216.37 251.129 3215.78 250.783 Q3215.21 250.437 3214.3 250.437 L3214.3 248.856 Q3216.03 249.004 3220.74 249.004 Q3223.73 249.004 3225.04 248.856 L3225.04 250.437 Q3220.84 250.486 3217.85 253.476 L3208.74 262.221 L3220.42 279.414 Q3221.49 280.97 3222.52 281.415 Q3223.56 281.86 3225.73 281.86 L3225.73 283.416 Q3222.55 283.268 3219.93 283.268 Q3214.47 283.268 3212.69 283.416 L3212.69 281.86 Q3215.68 281.86 3215.68 280.328 Q3215.68 279.76 3214.91 278.599 L3205.75 265.061 L3199.89 270.62 L3199.89 279.464 Q3199.89 280.921 3200.51 281.39 Q3201.15 281.86 3203.9 281.86 L3205.11 281.86 L3205.11 283.416 Q3203.33 283.268 3197.62 283.268 Q3191.96 283.268 3190.19 283.416 Z" fill="#000000" fill-rule="nonzero" fill-opacity="1" /><path clip-path="url(#clip800)" d="M3232.31 254.538 L3232.31 252.957 Q3238.38 252.957 3241.52 249.721 Q3242.38 249.721 3242.53 249.918 Q3242.68 250.116 3242.68 251.03 L3242.68 279.414 Q3242.68 280.921 3243.42 281.39 Q3244.16 281.86 3247.4 281.86 L3249 281.86 L3249 283.416 Q3247.23 283.268 3240.8 283.268 Q3234.38 283.268 3232.63 283.416 L3232.63 281.86 L3234.23 281.86 Q3237.42 281.86 3238.18 281.415 Q3238.95 280.946 3238.95 279.414 L3238.95 253.204 Q3236.31 254.538 3232.31 254.538 Z" fill="#000000" fill-rule="nonzero" fill-opacity="1" /><path clip-path="url(#clip800)" d="M3258.12 270.768 Q3258.12 262.221 3261.31 255.328 Q3262.67 252.438 3264.57 250.017 Q3266.47 247.596 3267.73 246.534 Q3268.99 245.472 3269.34 245.472 Q3269.83 245.472 3269.85 245.966 Q3269.85 246.213 3269.19 246.83 Q3261.04 255.131 3261.06 270.768 Q3261.06 286.455 3268.99 294.434 Q3269.85 295.298 3269.85 295.57 Q3269.85 296.064 3269.34 296.064 Q3268.99 296.064 3267.78 295.051 Q3266.57 294.039 3264.69 291.716 Q3262.81 289.394 3261.46 286.553 Q3258.12 279.661 3258.12 270.768 Z" fill="#000000" fill-rule="nonzero" fill-opacity="1" /><path clip-path="url(#clip800)" d="M3274.84 276.598 Q3274.84 275.091 3275.71 274.375 Q3276.57 273.658 3277.69 273.658 Q3278.85 273.658 3279.66 274.424 Q3280.5 275.165 3280.5 276.474 Q3280.5 277.883 3279.51 278.673 Q3278.55 279.464 3277.17 279.266 Q3278.38 281.292 3280.6 282.206 Q3282.85 283.12 3284.92 283.12 Q3287.1 283.12 3288.85 281.242 Q3290.63 279.365 3290.63 274.77 Q3290.63 270.867 3289.1 268.619 Q3287.59 266.371 3284.6 266.371 L3282.38 266.371 Q3281.61 266.371 3281.39 266.297 Q3281.17 266.223 3281.17 265.803 Q3281.17 265.309 3281.93 265.21 Q3282.7 265.21 3283.91 265.061 Q3286.85 264.963 3288.41 262.418 Q3289.81 260.047 3289.81 256.662 Q3289.81 253.574 3288.33 252.29 Q3286.87 250.981 3284.97 250.981 Q3283.19 250.981 3281.24 251.722 Q3279.29 252.463 3278.23 254.118 Q3281.37 254.118 3281.37 256.662 Q3281.37 257.774 3280.65 258.515 Q3279.96 259.231 3278.8 259.231 Q3277.69 259.231 3276.94 258.54 Q3276.2 257.823 3276.2 256.613 Q3276.2 253.723 3278.77 251.722 Q3281.37 249.721 3285.17 249.721 Q3288.93 249.721 3291.69 251.697 Q3294.48 253.673 3294.48 256.712 Q3294.48 259.701 3292.51 262.146 Q3290.53 264.592 3287.39 265.605 Q3291.25 266.371 3293.54 268.989 Q3295.84 271.583 3295.84 274.77 Q3295.84 278.722 3292.73 281.637 Q3289.62 284.528 3285.07 284.528 Q3280.87 284.528 3277.86 282.255 Q3274.84 279.982 3274.84 276.598 Z" fill="#000000" fill-rule="nonzero" fill-opacity="1" /><path clip-path="url(#clip800)" d="M3300.91 295.57 Q3300.91 295.323 3301.55 294.706 Q3309.7 286.405 3309.7 270.768 Q3309.7 255.081 3301.87 247.152 Q3300.91 246.238 3300.91 245.966 Q3300.91 245.472 3301.4 245.472 Q3301.75 245.472 3302.96 246.485 Q3304.19 247.497 3306.04 249.82 Q3307.92 252.142 3309.31 254.983 Q3312.64 261.875 3312.64 270.768 Q3312.64 279.315 3309.45 286.208 Q3308.1 289.098 3306.19 291.519 Q3304.29 293.94 3303.03 295.002 Q3301.77 296.064 3301.4 296.064 Q3300.91 296.064 3300.91 295.57 Z" fill="#000000" fill-rule="nonzero" fill-opacity="1" /><polyline clip-path="url(#clip800)" style="stroke:#ff0000; stroke-linecap:round; stroke-linejoin:round; stroke-width:12; stroke-opacity:1; fill:none" points="2923.94,317.976 3122.68,317.976 "/>
<line clip-path="url(#clip800)" x1="3023.31" y1="317.976" x2="3023.31" y2="293.882" style="stroke:#ff0000; stroke-width:12; stroke-opacity:1"/>
<line clip-path="url(#clip800)" x1="3023.31" y1="317.976" x2="2999.21" y2="317.976" style="stroke:#ff0000; stroke-width:12; stroke-opacity:1"/>
<line clip-path="url(#clip800)" x1="3023.31" y1="317.976" x2="3023.31" y2="342.07" style="stroke:#ff0000; stroke-width:12; stroke-opacity:1"/>
<line clip-path="url(#clip800)" x1="3023.31" y1="317.976" x2="3047.4" y2="317.976" style="stroke:#ff0000; stroke-width:12; stroke-opacity:1"/>
<path clip-path="url(#clip800)" d="M3155.8 335.256 L3155.8 333.7 L3157.01 333.7 Q3159.75 333.7 3160.37 333.255 Q3161.01 332.786 3161.01 331.304 L3161.01 304.797 Q3161.01 303.339 3160.37 302.895 Q3159.73 302.425 3157.01 302.425 L3155.8 302.425 L3155.8 300.844 L3184.28 300.844 L3185.69 312.233 L3184.43 312.233 Q3184.08 309.342 3183.61 307.687 Q3183.17 306.007 3182.06 304.723 Q3180.97 303.438 3179.17 302.944 Q3177.39 302.425 3174.5 302.425 L3167.98 302.425 Q3166.25 302.425 3165.88 302.796 Q3165.51 303.142 3165.51 304.451 L3165.51 316.58 L3170.05 316.58 Q3173.54 316.58 3174.52 315.37 Q3175.51 314.159 3175.51 310.676 L3176.8 310.676 L3176.8 324.065 L3175.51 324.065 Q3175.51 320.632 3174.52 319.397 Q3173.54 318.161 3170.05 318.161 L3165.51 318.161 L3165.51 331.674 Q3165.51 332.983 3165.88 333.354 Q3166.27 333.7 3167.98 333.7 L3174.72 333.7 Q3176.9 333.7 3178.48 333.428 Q3180.08 333.132 3181.19 332.44 Q3182.31 331.723 3183.05 330.908 Q3183.81 330.093 3184.33 328.636 Q3184.87 327.153 3185.17 325.795 Q3185.49 324.436 3185.84 322.213 L3187.1 322.213 L3184.97 335.256 L3155.8 335.256 Z" fill="#000000" fill-rule="nonzero" fill-opacity="1" /><path clip-path="url(#clip800)" d="M3190.19 335.256 L3190.19 333.7 L3191.4 333.7 Q3194.14 333.7 3194.76 333.255 Q3195.4 332.786 3195.4 331.304 L3195.4 304.649 Q3195.4 303.191 3194.76 302.746 Q3194.11 302.277 3191.4 302.277 L3190.19 302.277 L3190.19 300.696 Q3191.96 300.844 3197.67 300.844 Q3203.33 300.844 3205.11 300.696 L3205.11 302.277 L3203.9 302.277 Q3201.15 302.277 3200.51 302.746 Q3199.89 303.191 3199.89 304.649 L3199.89 320.73 L3215.73 305.612 Q3216.64 304.797 3216.64 303.932 Q3216.64 303.636 3216.49 303.315 Q3216.37 302.969 3215.78 302.623 Q3215.21 302.277 3214.3 302.277 L3214.3 300.696 Q3216.03 300.844 3220.74 300.844 Q3223.73 300.844 3225.04 300.696 L3225.04 302.277 Q3220.84 302.326 3217.85 305.316 L3208.74 314.061 L3220.42 331.254 Q3221.49 332.81 3222.52 333.255 Q3223.56 333.7 3225.73 333.7 L3225.73 335.256 Q3222.55 335.108 3219.93 335.108 Q3214.47 335.108 3212.69 335.256 L3212.69 333.7 Q3215.68 333.7 3215.68 332.168 Q3215.68 331.6 3214.91 330.439 L3205.75 316.901 L3199.89 322.46 L3199.89 331.304 Q3199.89 332.761 3200.51 333.23 Q3201.15 333.7 3203.9 333.7 L3205.11 333.7 L3205.11 335.256 Q3203.33 335.108 3197.62 335.108 Q3191.96 335.108 3190.19 335.256 Z" fill="#000000" fill-rule="nonzero" fill-opacity="1" /><path clip-path="url(#clip800)" d="M3232.31 306.378 L3232.31 304.797 Q3238.38 304.797 3241.52 301.561 Q3242.38 301.561 3242.53 301.758 Q3242.68 301.956 3242.68 302.87 L3242.68 331.254 Q3242.68 332.761 3243.42 333.23 Q3244.16 333.7 3247.4 333.7 L3249 333.7 L3249 335.256 Q3247.23 335.108 3240.8 335.108 Q3234.38 335.108 3232.63 335.256 L3232.63 333.7 L3234.23 333.7 Q3237.42 333.7 3238.18 333.255 Q3238.95 332.786 3238.95 331.254 L3238.95 305.044 Q3236.31 306.378 3232.31 306.378 Z" fill="#000000" fill-rule="nonzero" fill-opacity="1" /><path clip-path="url(#clip800)" d="M3258.12 322.608 Q3258.12 314.061 3261.31 307.168 Q3262.67 304.278 3264.57 301.857 Q3266.47 299.436 3267.73 298.374 Q3268.99 297.312 3269.34 297.312 Q3269.83 297.312 3269.85 297.806 Q3269.85 298.053 3269.19 298.67 Q3261.04 306.971 3261.06 322.608 Q3261.06 338.295 3268.99 346.274 Q3269.85 347.138 3269.85 347.41 Q3269.85 347.904 3269.34 347.904 Q3268.99 347.904 3267.78 346.891 Q3266.57 345.879 3264.69 343.556 Q3262.81 341.234 3261.46 338.393 Q3258.12 331.501 3258.12 322.608 Z" fill="#000000" fill-rule="nonzero" fill-opacity="1" /><path clip-path="url(#clip800)" d="M3274.13 326.906 L3274.13 325.35 L3289.67 301.61 Q3290.06 300.993 3290.68 301.017 Q3291.25 301.017 3291.37 301.24 Q3291.49 301.462 3291.49 302.326 L3291.49 325.35 L3296.56 325.35 L3296.56 326.906 L3291.49 326.906 L3291.49 331.304 Q3291.49 332.761 3292.09 333.23 Q3292.7 333.7 3295.32 333.7 L3296.39 333.7 L3296.39 335.256 Q3294.31 335.108 3289.52 335.108 Q3284.75 335.108 3282.68 335.256 L3282.68 333.7 L3283.74 333.7 Q3286.36 333.7 3286.97 333.255 Q3287.59 332.786 3287.59 331.304 L3287.59 326.906 L3274.13 326.906 M3275.56 325.35 L3287.89 325.35 L3287.89 306.477 L3275.56 325.35 Z" fill="#000000" fill-rule="nonzero" fill-opacity="1" /><path clip-path="url(#clip800)" d="M3300.91 347.41 Q3300.91 347.163 3301.55 346.546 Q3309.7 338.245 3309.7 322.608 Q3309.7 306.921 3301.87 298.992 Q3300.91 298.078 3300.91 297.806 Q3300.91 297.312 3301.4 297.312 Q3301.75 297.312 3302.96 298.325 Q3304.19 299.337 3306.04 301.66 Q3307.92 303.982 3309.31 306.823 Q3312.64 313.715 3312.64 322.608 Q3312.64 331.155 3309.45 338.048 Q3308.1 340.938 3306.19 343.359 Q3304.29 345.78 3303.03 346.842 Q3301.77 347.904 3301.4 347.904 Q3300.91 347.904 3300.91 347.41 Z" fill="#000000" fill-rule="nonzero" fill-opacity="1" /></svg>
