<?xml version="1.0" encoding="utf-8"?>
<svg xmlns="http://www.w3.org/2000/svg" xmlns:xlink="http://www.w3.org/1999/xlink" width="576" height="384" viewBox="0 0 2304 1536">
<defs>
  <clipPath id="clip090">
    <rect x="0" y="0" width="2304" height="1536"/>
  </clipPath>
</defs>
<path clip-path="url(#clip090)" d="M0 1536 L2304 1536 L2304 0 L0 0  Z" fill="#ffffff" fill-rule="evenodd" fill-opacity="1"/>
<defs>
  <clipPath id="clip091">
    <rect x="460" y="0" width="1614" height="1536"/>
  </clipPath>
</defs>
<path clip-path="url(#clip090)" d="M245.822 1280.22 L1831.79 1280.22 L1831.79 47.2441 L245.822 47.2441  Z" fill="#ffffff" fill-rule="evenodd" fill-opacity="1"/>
<defs>
  <clipPath id="clip092">
    <rect x="245" y="47" width="1587" height="1234"/>
  </clipPath>
</defs>
<polyline clip-path="url(#clip092)" style="stroke:#000000; stroke-linecap:round; stroke-linejoin:round; stroke-width:2.8; stroke-opacity:0.4; fill:none" points="380.016,1280.22 380.016,47.2441 "/>
<polyline clip-path="url(#clip092)" style="stroke:#000000; stroke-linecap:round; stroke-linejoin:round; stroke-width:2.8; stroke-opacity:0.4; fill:none" points="605.68,1280.22 605.68,47.2441 "/>
<polyline clip-path="url(#clip092)" style="stroke:#000000; stroke-linecap:round; stroke-linejoin:round; stroke-width:2.8; stroke-opacity:0.4; fill:none" points="831.345,1280.22 831.345,47.2441 "/>
<polyline clip-path="url(#clip092)" style="stroke:#000000; stroke-linecap:round; stroke-linejoin:round; stroke-width:2.8; stroke-opacity:0.4; fill:none" points="1057.01,1280.22 1057.01,47.2441 "/>
<polyline clip-path="url(#clip092)" style="stroke:#000000; stroke-linecap:round; stroke-linejoin:round; stroke-width:2.8; stroke-opacity:0.4; fill:none" points="1282.67,1280.22 1282.67,47.2441 "/>
<polyline clip-path="url(#clip092)" style="stroke:#000000; stroke-linecap:round; stroke-linejoin:round; stroke-width:2.8; stroke-opacity:0.4; fill:none" points="1508.34,1280.22 1508.34,47.2441 "/>
<polyline clip-path="url(#clip092)" style="stroke:#000000; stroke-linecap:round; stroke-linejoin:round; stroke-width:2.8; stroke-opacity:0.4; fill:none" points="1734,1280.22 1734,47.2441 "/>
<polyline clip-path="url(#clip092)" style="stroke:#000000; stroke-linecap:round; stroke-linejoin:round; stroke-width:2; stroke-opacity:0.06; fill:none" points="255.259,1280.22 255.259,47.2441 "/>
<polyline clip-path="url(#clip092)" style="stroke:#000000; stroke-linecap:round; stroke-linejoin:round; stroke-width:2; stroke-opacity:0.06; fill:none" points="303.913,1280.22 303.913,47.2441 "/>
<polyline clip-path="url(#clip092)" style="stroke:#000000; stroke-linecap:round; stroke-linejoin:round; stroke-width:2; stroke-opacity:0.06; fill:none" points="336.278,1280.22 336.278,47.2441 "/>
<polyline clip-path="url(#clip092)" style="stroke:#000000; stroke-linecap:round; stroke-linejoin:round; stroke-width:2; stroke-opacity:0.06; fill:none" points="360.567,1280.22 360.567,47.2441 "/>
<polyline clip-path="url(#clip092)" style="stroke:#000000; stroke-linecap:round; stroke-linejoin:round; stroke-width:2; stroke-opacity:0.06; fill:none" points="480.924,1280.22 480.924,47.2441 "/>
<polyline clip-path="url(#clip092)" style="stroke:#000000; stroke-linecap:round; stroke-linejoin:round; stroke-width:2; stroke-opacity:0.06; fill:none" points="529.577,1280.22 529.577,47.2441 "/>
<polyline clip-path="url(#clip092)" style="stroke:#000000; stroke-linecap:round; stroke-linejoin:round; stroke-width:2; stroke-opacity:0.06; fill:none" points="561.942,1280.22 561.942,47.2441 "/>
<polyline clip-path="url(#clip092)" style="stroke:#000000; stroke-linecap:round; stroke-linejoin:round; stroke-width:2; stroke-opacity:0.06; fill:none" points="586.231,1280.22 586.231,47.2441 "/>
<polyline clip-path="url(#clip092)" style="stroke:#000000; stroke-linecap:round; stroke-linejoin:round; stroke-width:2; stroke-opacity:0.06; fill:none" points="706.588,1280.22 706.588,47.2441 "/>
<polyline clip-path="url(#clip092)" style="stroke:#000000; stroke-linecap:round; stroke-linejoin:round; stroke-width:2; stroke-opacity:0.06; fill:none" points="755.241,1280.22 755.241,47.2441 "/>
<polyline clip-path="url(#clip092)" style="stroke:#000000; stroke-linecap:round; stroke-linejoin:round; stroke-width:2; stroke-opacity:0.06; fill:none" points="787.606,1280.22 787.606,47.2441 "/>
<polyline clip-path="url(#clip092)" style="stroke:#000000; stroke-linecap:round; stroke-linejoin:round; stroke-width:2; stroke-opacity:0.06; fill:none" points="811.895,1280.22 811.895,47.2441 "/>
<polyline clip-path="url(#clip092)" style="stroke:#000000; stroke-linecap:round; stroke-linejoin:round; stroke-width:2; stroke-opacity:0.06; fill:none" points="932.252,1280.22 932.252,47.2441 "/>
<polyline clip-path="url(#clip092)" style="stroke:#000000; stroke-linecap:round; stroke-linejoin:round; stroke-width:2; stroke-opacity:0.06; fill:none" points="980.905,1280.22 980.905,47.2441 "/>
<polyline clip-path="url(#clip092)" style="stroke:#000000; stroke-linecap:round; stroke-linejoin:round; stroke-width:2; stroke-opacity:0.06; fill:none" points="1013.27,1280.22 1013.27,47.2441 "/>
<polyline clip-path="url(#clip092)" style="stroke:#000000; stroke-linecap:round; stroke-linejoin:round; stroke-width:2; stroke-opacity:0.06; fill:none" points="1037.56,1280.22 1037.56,47.2441 "/>
<polyline clip-path="url(#clip092)" style="stroke:#000000; stroke-linecap:round; stroke-linejoin:round; stroke-width:2; stroke-opacity:0.06; fill:none" points="1157.92,1280.22 1157.92,47.2441 "/>
<polyline clip-path="url(#clip092)" style="stroke:#000000; stroke-linecap:round; stroke-linejoin:round; stroke-width:2; stroke-opacity:0.06; fill:none" points="1206.57,1280.22 1206.57,47.2441 "/>
<polyline clip-path="url(#clip092)" style="stroke:#000000; stroke-linecap:round; stroke-linejoin:round; stroke-width:2; stroke-opacity:0.06; fill:none" points="1238.93,1280.22 1238.93,47.2441 "/>
<polyline clip-path="url(#clip092)" style="stroke:#000000; stroke-linecap:round; stroke-linejoin:round; stroke-width:2; stroke-opacity:0.06; fill:none" points="1263.22,1280.22 1263.22,47.2441 "/>
<polyline clip-path="url(#clip092)" style="stroke:#000000; stroke-linecap:round; stroke-linejoin:round; stroke-width:2; stroke-opacity:0.06; fill:none" points="1383.58,1280.22 1383.58,47.2441 "/>
<polyline clip-path="url(#clip092)" style="stroke:#000000; stroke-linecap:round; stroke-linejoin:round; stroke-width:2; stroke-opacity:0.06; fill:none" points="1432.23,1280.22 1432.23,47.2441 "/>
<polyline clip-path="url(#clip092)" style="stroke:#000000; stroke-linecap:round; stroke-linejoin:round; stroke-width:2; stroke-opacity:0.06; fill:none" points="1464.6,1280.22 1464.6,47.2441 "/>
<polyline clip-path="url(#clip092)" style="stroke:#000000; stroke-linecap:round; stroke-linejoin:round; stroke-width:2; stroke-opacity:0.06; fill:none" points="1488.89,1280.22 1488.89,47.2441 "/>
<polyline clip-path="url(#clip092)" style="stroke:#000000; stroke-linecap:round; stroke-linejoin:round; stroke-width:2; stroke-opacity:0.06; fill:none" points="1609.24,1280.22 1609.24,47.2441 "/>
<polyline clip-path="url(#clip092)" style="stroke:#000000; stroke-linecap:round; stroke-linejoin:round; stroke-width:2; stroke-opacity:0.06; fill:none" points="1657.9,1280.22 1657.9,47.2441 "/>
<polyline clip-path="url(#clip092)" style="stroke:#000000; stroke-linecap:round; stroke-linejoin:round; stroke-width:2; stroke-opacity:0.06; fill:none" points="1690.26,1280.22 1690.26,47.2441 "/>
<polyline clip-path="url(#clip092)" style="stroke:#000000; stroke-linecap:round; stroke-linejoin:round; stroke-width:2; stroke-opacity:0.06; fill:none" points="1714.55,1280.22 1714.55,47.2441 "/>
<polyline clip-path="url(#clip090)" style="stroke:#000000; stroke-linecap:round; stroke-linejoin:round; stroke-width:4; stroke-opacity:1; fill:none" points="245.822,1280.22 1831.79,1280.22 "/>
<polyline clip-path="url(#clip090)" style="stroke:#000000; stroke-linecap:round; stroke-linejoin:round; stroke-width:4; stroke-opacity:1; fill:none" points="245.822,47.2441 1831.79,47.2441 "/>
<polyline clip-path="url(#clip090)" style="stroke:#000000; stroke-linecap:round; stroke-linejoin:round; stroke-width:4; stroke-opacity:1; fill:none" points="380.016,1280.22 380.016,1261.33 "/>
<polyline clip-path="url(#clip090)" style="stroke:#000000; stroke-linecap:round; stroke-linejoin:round; stroke-width:4; stroke-opacity:1; fill:none" points="605.68,1280.22 605.68,1261.33 "/>
<polyline clip-path="url(#clip090)" style="stroke:#000000; stroke-linecap:round; stroke-linejoin:round; stroke-width:4; stroke-opacity:1; fill:none" points="831.345,1280.22 831.345,1261.33 "/>
<polyline clip-path="url(#clip090)" style="stroke:#000000; stroke-linecap:round; stroke-linejoin:round; stroke-width:4; stroke-opacity:1; fill:none" points="1057.01,1280.22 1057.01,1261.33 "/>
<polyline clip-path="url(#clip090)" style="stroke:#000000; stroke-linecap:round; stroke-linejoin:round; stroke-width:4; stroke-opacity:1; fill:none" points="1282.67,1280.22 1282.67,1261.33 "/>
<polyline clip-path="url(#clip090)" style="stroke:#000000; stroke-linecap:round; stroke-linejoin:round; stroke-width:4; stroke-opacity:1; fill:none" points="1508.34,1280.22 1508.34,1261.33 "/>
<polyline clip-path="url(#clip090)" style="stroke:#000000; stroke-linecap:round; stroke-linejoin:round; stroke-width:4; stroke-opacity:1; fill:none" points="1734,1280.22 1734,1261.33 "/>
<polyline clip-path="url(#clip090)" style="stroke:#000000; stroke-linecap:round; stroke-linejoin:round; stroke-width:4; stroke-opacity:1; fill:none" points="255.259,1280.22 255.259,1270.78 "/>
<polyline clip-path="url(#clip090)" style="stroke:#000000; stroke-linecap:round; stroke-linejoin:round; stroke-width:4; stroke-opacity:1; fill:none" points="303.913,1280.22 303.913,1270.78 "/>
<polyline clip-path="url(#clip090)" style="stroke:#000000; stroke-linecap:round; stroke-linejoin:round; stroke-width:4; stroke-opacity:1; fill:none" points="336.278,1280.22 336.278,1270.78 "/>
<polyline clip-path="url(#clip090)" style="stroke:#000000; stroke-linecap:round; stroke-linejoin:round; stroke-width:4; stroke-opacity:1; fill:none" points="360.567,1280.22 360.567,1270.78 "/>
<polyline clip-path="url(#clip090)" style="stroke:#000000; stroke-linecap:round; stroke-linejoin:round; stroke-width:4; stroke-opacity:1; fill:none" points="480.924,1280.22 480.924,1270.78 "/>
<polyline clip-path="url(#clip090)" style="stroke:#000000; stroke-linecap:round; stroke-linejoin:round; stroke-width:4; stroke-opacity:1; fill:none" points="529.577,1280.22 529.577,1270.78 "/>
<polyline clip-path="url(#clip090)" style="stroke:#000000; stroke-linecap:round; stroke-linejoin:round; stroke-width:4; stroke-opacity:1; fill:none" points="561.942,1280.22 561.942,1270.78 "/>
<polyline clip-path="url(#clip090)" style="stroke:#000000; stroke-linecap:round; stroke-linejoin:round; stroke-width:4; stroke-opacity:1; fill:none" points="586.231,1280.22 586.231,1270.78 "/>
<polyline clip-path="url(#clip090)" style="stroke:#000000; stroke-linecap:round; stroke-linejoin:round; stroke-width:4; stroke-opacity:1; fill:none" points="706.588,1280.22 706.588,1270.78 "/>
<polyline clip-path="url(#clip090)" style="stroke:#000000; stroke-linecap:round; stroke-linejoin:round; stroke-width:4; stroke-opacity:1; fill:none" points="755.241,1280.22 755.241,1270.78 "/>
<polyline clip-path="url(#clip090)" style="stroke:#000000; stroke-linecap:round; stroke-linejoin:round; stroke-width:4; stroke-opacity:1; fill:none" points="787.606,1280.22 787.606,1270.78 "/>
<polyline clip-path="url(#clip090)" style="stroke:#000000; stroke-linecap:round; stroke-linejoin:round; stroke-width:4; stroke-opacity:1; fill:none" points="811.895,1280.22 811.895,1270.78 "/>
<polyline clip-path="url(#clip090)" style="stroke:#000000; stroke-linecap:round; stroke-linejoin:round; stroke-width:4; stroke-opacity:1; fill:none" points="932.252,1280.22 932.252,1270.78 "/>
<polyline clip-path="url(#clip090)" style="stroke:#000000; stroke-linecap:round; stroke-linejoin:round; stroke-width:4; stroke-opacity:1; fill:none" points="980.905,1280.22 980.905,1270.78 "/>
<polyline clip-path="url(#clip090)" style="stroke:#000000; stroke-linecap:round; stroke-linejoin:round; stroke-width:4; stroke-opacity:1; fill:none" points="1013.27,1280.22 1013.27,1270.78 "/>
<polyline clip-path="url(#clip090)" style="stroke:#000000; stroke-linecap:round; stroke-linejoin:round; stroke-width:4; stroke-opacity:1; fill:none" points="1037.56,1280.22 1037.56,1270.78 "/>
<polyline clip-path="url(#clip090)" style="stroke:#000000; stroke-linecap:round; stroke-linejoin:round; stroke-width:4; stroke-opacity:1; fill:none" points="1157.92,1280.22 1157.92,1270.78 "/>
<polyline clip-path="url(#clip090)" style="stroke:#000000; stroke-linecap:round; stroke-linejoin:round; stroke-width:4; stroke-opacity:1; fill:none" points="1206.57,1280.22 1206.57,1270.78 "/>
<polyline clip-path="url(#clip090)" style="stroke:#000000; stroke-linecap:round; stroke-linejoin:round; stroke-width:4; stroke-opacity:1; fill:none" points="1238.93,1280.22 1238.93,1270.78 "/>
<polyline clip-path="url(#clip090)" style="stroke:#000000; stroke-linecap:round; stroke-linejoin:round; stroke-width:4; stroke-opacity:1; fill:none" points="1263.22,1280.22 1263.22,1270.78 "/>
<polyline clip-path="url(#clip090)" style="stroke:#000000; stroke-linecap:round; stroke-linejoin:round; stroke-width:4; stroke-opacity:1; fill:none" points="1383.58,1280.22 1383.58,1270.78 "/>
<polyline clip-path="url(#clip090)" style="stroke:#000000; stroke-linecap:round; stroke-linejoin:round; stroke-width:4; stroke-opacity:1; fill:none" points="1432.23,1280.22 1432.23,1270.78 "/>
<polyline clip-path="url(#clip090)" style="stroke:#000000; stroke-linecap:round; stroke-linejoin:round; stroke-width:4; stroke-opacity:1; fill:none" points="1464.6,1280.22 1464.6,1270.78 "/>
<polyline clip-path="url(#clip090)" style="stroke:#000000; stroke-linecap:round; stroke-linejoin:round; stroke-width:4; stroke-opacity:1; fill:none" points="1488.89,1280.22 1488.89,1270.78 "/>
<polyline clip-path="url(#clip090)" style="stroke:#000000; stroke-linecap:round; stroke-linejoin:round; stroke-width:4; stroke-opacity:1; fill:none" points="1609.24,1280.22 1609.24,1270.78 "/>
<polyline clip-path="url(#clip090)" style="stroke:#000000; stroke-linecap:round; stroke-linejoin:round; stroke-width:4; stroke-opacity:1; fill:none" points="1657.9,1280.22 1657.9,1270.78 "/>
<polyline clip-path="url(#clip090)" style="stroke:#000000; stroke-linecap:round; stroke-linejoin:round; stroke-width:4; stroke-opacity:1; fill:none" points="1690.26,1280.22 1690.26,1270.78 "/>
<polyline clip-path="url(#clip090)" style="stroke:#000000; stroke-linecap:round; stroke-linejoin:round; stroke-width:4; stroke-opacity:1; fill:none" points="1714.55,1280.22 1714.55,1270.78 "/>
<path clip-path="url(#clip090)" d="M323.478 1328.64 L323.478 1327.06 Q329.555 1327.06 332.692 1323.82 Q333.557 1323.82 333.705 1324.02 Q333.853 1324.22 333.853 1325.13 L333.853 1353.51 Q333.853 1355.02 334.594 1355.49 Q335.335 1355.96 338.572 1355.96 L340.177 1355.96 L340.177 1357.52 Q338.399 1357.37 331.976 1357.37 Q325.553 1357.37 323.799 1357.52 L323.799 1355.96 L325.405 1355.96 Q328.591 1355.96 329.357 1355.52 Q330.123 1355.05 330.123 1353.51 L330.123 1327.3 Q327.48 1328.64 323.478 1328.64 Z" fill="#000000" fill-rule="nonzero" fill-opacity="1" /><path clip-path="url(#clip090)" d="M346.254 1341.34 Q346.254 1333.9 348.132 1329.85 Q350.75 1323.82 356.926 1323.82 Q358.235 1323.82 359.594 1324.19 Q360.977 1324.54 362.707 1325.9 Q364.461 1327.25 365.523 1329.48 Q367.549 1333.78 367.549 1341.34 Q367.549 1348.72 365.671 1352.75 Q362.929 1358.63 356.877 1358.63 Q354.604 1358.63 352.282 1357.47 Q349.984 1356.31 348.527 1353.51 Q346.254 1349.34 346.254 1341.34 M350.454 1340.72 Q350.454 1348.35 350.997 1351.39 Q351.615 1354.68 353.295 1356.11 Q354.999 1357.52 356.877 1357.52 Q358.902 1357.52 360.582 1356.01 Q362.287 1354.48 362.806 1351.19 Q363.374 1347.96 363.349 1340.72 Q363.349 1333.68 362.855 1330.86 Q362.188 1327.58 360.409 1326.27 Q358.655 1324.93 356.877 1324.93 Q356.21 1324.93 355.493 1325.13 Q354.802 1325.33 353.789 1325.9 Q352.776 1326.46 351.985 1327.87 Q351.22 1329.28 350.849 1331.41 Q350.454 1334.15 350.454 1340.72 Z" fill="#000000" fill-rule="nonzero" fill-opacity="1" /><path clip-path="url(#clip090)" d="M394.685 1319.25 Q394.926 1319.49 394.926 1319.83 Q394.926 1320.17 394.685 1320.41 Q394.444 1320.65 394.103 1320.65 L368.371 1320.65 Q368.03 1320.65 367.789 1320.41 Q367.549 1320.17 367.549 1319.83 Q367.549 1319.49 367.789 1319.25 Q368.03 1319.01 368.371 1319.01 L394.103 1319.01 Q394.444 1319.01 394.685 1319.25 Z" fill="#000000" fill-rule="nonzero" fill-opacity="1" /><path clip-path="url(#clip090)" d="M400.867 1306.64 L400.867 1305.36 Q405.805 1305.36 408.354 1302.73 Q409.056 1302.73 409.177 1302.89 Q409.297 1303.05 409.297 1303.79 L409.297 1326.85 Q409.297 1328.08 409.899 1328.46 Q410.502 1328.84 413.131 1328.84 L414.436 1328.84 L414.436 1330.11 Q412.99 1329.99 407.772 1329.99 Q402.553 1329.99 401.128 1330.11 L401.128 1328.84 L402.433 1328.84 Q405.022 1328.84 405.644 1328.48 Q406.266 1328.1 406.266 1326.85 L406.266 1305.56 Q404.119 1306.64 400.867 1306.64 Z" fill="#000000" fill-rule="nonzero" fill-opacity="1" /><path clip-path="url(#clip090)" d="M419.494 1324.57 Q419.494 1323.34 420.196 1322.76 Q420.899 1322.18 421.802 1322.18 Q422.745 1322.18 423.407 1322.8 Q424.09 1323.4 424.09 1324.47 Q424.09 1325.61 423.287 1326.25 Q422.504 1326.89 421.38 1326.73 Q422.364 1328.38 424.17 1329.12 Q425.997 1329.87 427.683 1329.87 Q429.449 1329.87 430.874 1328.34 Q432.319 1326.81 432.319 1323.08 Q432.319 1319.91 431.075 1318.08 Q429.85 1316.26 427.422 1316.26 L425.615 1316.26 Q424.993 1316.26 424.813 1316.2 Q424.632 1316.14 424.632 1315.8 Q424.632 1315.39 425.254 1315.31 Q425.876 1315.31 426.86 1315.19 Q429.248 1315.11 430.513 1313.05 Q431.657 1311.12 431.657 1308.37 Q431.657 1305.86 430.453 1304.82 Q429.268 1303.75 427.723 1303.75 Q426.278 1303.75 424.692 1304.35 Q423.106 1304.96 422.243 1306.3 Q424.792 1306.3 424.792 1308.37 Q424.792 1309.27 424.21 1309.87 Q423.648 1310.46 422.705 1310.46 Q421.802 1310.46 421.2 1309.89 Q420.597 1309.31 420.597 1308.33 Q420.597 1305.98 422.685 1304.35 Q424.792 1302.73 427.883 1302.73 Q430.934 1302.73 433.182 1304.33 Q435.45 1305.94 435.45 1308.41 Q435.45 1310.84 433.845 1312.82 Q432.239 1314.81 429.69 1315.63 Q432.821 1316.26 434.688 1318.38 Q436.554 1320.49 436.554 1323.08 Q436.554 1326.29 434.025 1328.66 Q431.496 1331.01 427.803 1331.01 Q424.391 1331.01 421.942 1329.16 Q419.494 1327.32 419.494 1324.57 Z" fill="#000000" fill-rule="nonzero" fill-opacity="1" /><path clip-path="url(#clip090)" d="M549.303 1328.64 L549.303 1327.06 Q555.38 1327.06 558.517 1323.82 Q559.382 1323.82 559.53 1324.02 Q559.678 1324.22 559.678 1325.13 L559.678 1353.51 Q559.678 1355.02 560.419 1355.49 Q561.16 1355.96 564.396 1355.96 L566.002 1355.96 L566.002 1357.52 Q564.223 1357.37 557.801 1357.37 Q551.378 1357.37 549.624 1357.52 L549.624 1355.96 L551.229 1355.96 Q554.416 1355.96 555.182 1355.52 Q555.948 1355.05 555.948 1353.51 L555.948 1327.3 Q553.305 1328.64 549.303 1328.64 Z" fill="#000000" fill-rule="nonzero" fill-opacity="1" /><path clip-path="url(#clip090)" d="M572.079 1341.34 Q572.079 1333.9 573.957 1329.85 Q576.575 1323.82 582.751 1323.82 Q584.06 1323.82 585.419 1324.19 Q586.802 1324.54 588.532 1325.9 Q590.285 1327.25 591.348 1329.48 Q593.373 1333.78 593.373 1341.34 Q593.373 1348.72 591.496 1352.75 Q588.754 1358.63 582.702 1358.63 Q580.429 1358.63 578.107 1357.47 Q575.809 1356.31 574.352 1353.51 Q572.079 1349.34 572.079 1341.34 M576.279 1340.72 Q576.279 1348.35 576.822 1351.39 Q577.44 1354.68 579.12 1356.11 Q580.824 1357.52 582.702 1357.52 Q584.727 1357.52 586.407 1356.01 Q588.112 1354.48 588.63 1351.19 Q589.199 1347.96 589.174 1340.72 Q589.174 1333.68 588.68 1330.86 Q588.013 1327.58 586.234 1326.27 Q584.48 1324.93 582.702 1324.93 Q582.035 1324.93 581.318 1325.13 Q580.626 1325.33 579.614 1325.9 Q578.601 1326.46 577.81 1327.87 Q577.044 1329.28 576.674 1331.41 Q576.279 1334.15 576.279 1340.72 Z" fill="#000000" fill-rule="nonzero" fill-opacity="1" /><path clip-path="url(#clip090)" d="M620.51 1319.25 Q620.751 1319.49 620.751 1319.83 Q620.751 1320.17 620.51 1320.41 Q620.269 1320.65 619.928 1320.65 L594.196 1320.65 Q593.855 1320.65 593.614 1320.41 Q593.373 1320.17 593.373 1319.83 Q593.373 1319.49 593.614 1319.25 Q593.855 1319.01 594.196 1319.01 L619.928 1319.01 Q620.269 1319.01 620.51 1319.25 Z" fill="#000000" fill-rule="nonzero" fill-opacity="1" /><path clip-path="url(#clip090)" d="M626.692 1306.64 L626.692 1305.36 Q631.63 1305.36 634.179 1302.73 Q634.881 1302.73 635.002 1302.89 Q635.122 1303.05 635.122 1303.79 L635.122 1326.85 Q635.122 1328.08 635.724 1328.46 Q636.326 1328.84 638.956 1328.84 L640.26 1328.84 L640.26 1330.11 Q638.815 1329.99 633.597 1329.99 Q628.378 1329.99 626.953 1330.11 L626.953 1328.84 L628.258 1328.84 Q630.847 1328.84 631.469 1328.48 Q632.091 1328.1 632.091 1326.85 L632.091 1305.56 Q629.944 1306.64 626.692 1306.64 Z" fill="#000000" fill-rule="nonzero" fill-opacity="1" /><path clip-path="url(#clip090)" d="M645.64 1330.11 Q645.64 1329.36 645.7 1329.14 Q645.78 1328.92 646.101 1328.58 L653.989 1319.79 Q658.305 1314.93 658.305 1310.7 Q658.305 1307.95 656.859 1305.98 Q655.434 1304.01 652.805 1304.01 Q650.999 1304.01 649.473 1305.12 Q647.948 1306.22 647.245 1308.19 Q647.366 1308.15 647.787 1308.15 Q648.811 1308.15 649.373 1308.79 Q649.955 1309.43 649.955 1310.3 Q649.955 1311.4 649.232 1311.94 Q648.53 1312.46 647.827 1312.46 Q647.546 1312.46 647.165 1312.4 Q646.804 1312.34 646.222 1311.78 Q645.64 1311.2 645.64 1310.18 Q645.64 1307.3 647.807 1305.02 Q649.995 1302.73 653.327 1302.73 Q657.1 1302.73 659.569 1304.98 Q662.058 1307.2 662.058 1310.7 Q662.058 1311.92 661.677 1313.05 Q661.315 1314.15 660.814 1315.01 Q660.332 1315.88 659.007 1317.26 Q657.682 1318.65 656.619 1319.63 Q655.555 1320.61 653.166 1322.7 L648.811 1326.93 L656.217 1326.93 Q659.83 1326.93 660.111 1326.61 Q660.512 1326.03 661.014 1322.96 L662.058 1322.96 L660.894 1330.11 L645.64 1330.11 Z" fill="#000000" fill-rule="nonzero" fill-opacity="1" /><path clip-path="url(#clip090)" d="M775.589 1328.64 L775.589 1327.06 Q781.666 1327.06 784.803 1323.82 Q785.668 1323.82 785.816 1324.02 Q785.964 1324.22 785.964 1325.13 L785.964 1353.51 Q785.964 1355.02 786.706 1355.49 Q787.447 1355.96 790.683 1355.96 L792.288 1355.96 L792.288 1357.52 Q790.51 1357.37 784.087 1357.37 Q777.664 1357.37 775.91 1357.52 L775.91 1355.96 L777.516 1355.96 Q780.703 1355.96 781.468 1355.52 Q782.234 1355.05 782.234 1353.51 L782.234 1327.3 Q779.591 1328.64 775.589 1328.64 Z" fill="#000000" fill-rule="nonzero" fill-opacity="1" /><path clip-path="url(#clip090)" d="M798.366 1341.34 Q798.366 1333.9 800.243 1329.85 Q802.862 1323.82 809.037 1323.82 Q810.347 1323.82 811.705 1324.19 Q813.089 1324.54 814.818 1325.9 Q816.572 1327.25 817.634 1329.48 Q819.66 1333.78 819.66 1341.34 Q819.66 1348.72 817.782 1352.75 Q815.04 1358.63 808.988 1358.63 Q806.715 1358.63 804.393 1357.47 Q802.096 1356.31 800.638 1353.51 Q798.366 1349.34 798.366 1341.34 M802.565 1340.72 Q802.565 1348.35 803.109 1351.39 Q803.726 1354.68 805.406 1356.11 Q807.111 1357.52 808.988 1357.52 Q811.014 1357.52 812.693 1356.01 Q814.398 1354.48 814.917 1351.19 Q815.485 1347.96 815.46 1340.72 Q815.46 1333.68 814.966 1330.86 Q814.299 1327.58 812.521 1326.27 Q810.767 1324.93 808.988 1324.93 Q808.321 1324.93 807.605 1325.13 Q806.913 1325.33 805.9 1325.9 Q804.887 1326.46 804.097 1327.87 Q803.331 1329.28 802.96 1331.41 Q802.565 1334.15 802.565 1340.72 Z" fill="#000000" fill-rule="nonzero" fill-opacity="1" /><path clip-path="url(#clip090)" d="M846.796 1319.25 Q847.037 1319.49 847.037 1319.83 Q847.037 1320.17 846.796 1320.41 Q846.556 1320.65 846.214 1320.65 L820.483 1320.65 Q820.142 1320.65 819.901 1320.41 Q819.66 1320.17 819.66 1319.83 Q819.66 1319.49 819.901 1319.25 Q820.142 1319.01 820.483 1319.01 L846.214 1319.01 Q846.556 1319.01 846.796 1319.25 Z" fill="#000000" fill-rule="nonzero" fill-opacity="1" /><path clip-path="url(#clip090)" d="M852.978 1306.64 L852.978 1305.36 Q857.916 1305.36 860.465 1302.73 Q861.168 1302.73 861.288 1302.89 Q861.408 1303.05 861.408 1303.79 L861.408 1326.85 Q861.408 1328.08 862.011 1328.46 Q862.613 1328.84 865.242 1328.84 L866.547 1328.84 L866.547 1330.11 Q865.102 1329.99 859.883 1329.99 Q854.664 1329.99 853.239 1330.11 L853.239 1328.84 L854.544 1328.84 Q857.133 1328.84 857.755 1328.48 Q858.378 1328.1 858.378 1326.85 L858.378 1305.56 Q856.23 1306.64 852.978 1306.64 Z" fill="#000000" fill-rule="nonzero" fill-opacity="1" /><path clip-path="url(#clip090)" d="M873.532 1306.64 L873.532 1305.36 Q878.469 1305.36 881.018 1302.73 Q881.721 1302.73 881.841 1302.89 Q881.962 1303.05 881.962 1303.79 L881.962 1326.85 Q881.962 1328.08 882.564 1328.46 Q883.166 1328.84 885.795 1328.84 L887.1 1328.84 L887.1 1330.11 Q885.655 1329.99 880.436 1329.99 Q875.218 1329.99 873.793 1330.11 L873.793 1328.84 L875.097 1328.84 Q877.686 1328.84 878.309 1328.48 Q878.931 1328.1 878.931 1326.85 L878.931 1305.56 Q876.783 1306.64 873.532 1306.64 Z" fill="#000000" fill-rule="nonzero" fill-opacity="1" /><path clip-path="url(#clip090)" d="M1000.41 1328.64 L1000.41 1327.06 Q1006.49 1327.06 1009.62 1323.82 Q1010.49 1323.82 1010.64 1324.02 Q1010.79 1324.22 1010.79 1325.13 L1010.79 1353.51 Q1010.79 1355.02 1011.53 1355.49 Q1012.27 1355.96 1015.5 1355.96 L1017.11 1355.96 L1017.11 1357.52 Q1015.33 1357.37 1008.91 1357.37 Q1002.49 1357.37 1000.73 1357.52 L1000.73 1355.96 L1002.34 1355.96 Q1005.52 1355.96 1006.29 1355.52 Q1007.06 1355.05 1007.06 1353.51 L1007.06 1327.3 Q1004.41 1328.64 1000.41 1328.64 Z" fill="#000000" fill-rule="nonzero" fill-opacity="1" /><path clip-path="url(#clip090)" d="M1023.19 1341.34 Q1023.19 1333.9 1025.06 1329.85 Q1027.68 1323.82 1033.86 1323.82 Q1035.17 1323.82 1036.53 1324.19 Q1037.91 1324.54 1039.64 1325.9 Q1041.39 1327.25 1042.46 1329.48 Q1044.48 1333.78 1044.48 1341.34 Q1044.48 1348.72 1042.6 1352.75 Q1039.86 1358.63 1033.81 1358.63 Q1031.54 1358.63 1029.21 1357.47 Q1026.92 1356.31 1025.46 1353.51 Q1023.19 1349.34 1023.19 1341.34 M1027.39 1340.72 Q1027.39 1348.35 1027.93 1351.39 Q1028.55 1354.68 1030.23 1356.11 Q1031.93 1357.52 1033.81 1357.52 Q1035.83 1357.52 1037.51 1356.01 Q1039.22 1354.48 1039.74 1351.19 Q1040.31 1347.96 1040.28 1340.72 Q1040.28 1333.68 1039.79 1330.86 Q1039.12 1327.58 1037.34 1326.27 Q1035.59 1324.93 1033.81 1324.93 Q1033.14 1324.93 1032.43 1325.13 Q1031.73 1325.33 1030.72 1325.9 Q1029.71 1326.46 1028.92 1327.87 Q1028.15 1329.28 1027.78 1331.41 Q1027.39 1334.15 1027.39 1340.72 Z" fill="#000000" fill-rule="nonzero" fill-opacity="1" /><path clip-path="url(#clip090)" d="M1071.62 1319.25 Q1071.86 1319.49 1071.86 1319.83 Q1071.86 1320.17 1071.62 1320.41 Q1071.38 1320.65 1071.04 1320.65 L1045.3 1320.65 Q1044.96 1320.65 1044.72 1320.41 Q1044.48 1320.17 1044.48 1319.83 Q1044.48 1319.49 1044.72 1319.25 Q1044.96 1319.01 1045.3 1319.01 L1071.04 1319.01 Q1071.38 1319.01 1071.62 1319.25 Z" fill="#000000" fill-rule="nonzero" fill-opacity="1" /><path clip-path="url(#clip090)" d="M1077.8 1306.64 L1077.8 1305.36 Q1082.74 1305.36 1085.29 1302.73 Q1085.99 1302.73 1086.11 1302.89 Q1086.23 1303.05 1086.23 1303.79 L1086.23 1326.85 Q1086.23 1328.08 1086.83 1328.46 Q1087.43 1328.84 1090.06 1328.84 L1091.37 1328.84 L1091.37 1330.11 Q1089.92 1329.99 1084.7 1329.99 Q1079.49 1329.99 1078.06 1330.11 L1078.06 1328.84 L1079.37 1328.84 Q1081.95 1328.84 1082.58 1328.48 Q1083.2 1328.1 1083.2 1326.85 L1083.2 1305.56 Q1081.05 1306.64 1077.8 1306.64 Z" fill="#000000" fill-rule="nonzero" fill-opacity="1" /><path clip-path="url(#clip090)" d="M1096.31 1316.96 Q1096.31 1310.92 1097.83 1307.63 Q1099.96 1302.73 1104.98 1302.73 Q1106.04 1302.73 1107.14 1303.03 Q1108.27 1303.31 1109.67 1304.41 Q1111.1 1305.52 1111.96 1307.32 Q1113.61 1310.82 1113.61 1316.96 Q1113.61 1322.96 1112.08 1326.23 Q1109.85 1331.01 1104.94 1331.01 Q1103.09 1331.01 1101.2 1330.07 Q1099.34 1329.12 1098.15 1326.85 Q1096.31 1323.46 1096.31 1316.96 M1099.72 1316.46 Q1099.72 1322.66 1100.16 1325.13 Q1100.66 1327.8 1102.03 1328.96 Q1103.41 1330.11 1104.94 1330.11 Q1106.58 1330.11 1107.95 1328.88 Q1109.33 1327.64 1109.75 1324.97 Q1110.22 1322.34 1110.2 1316.46 Q1110.2 1310.74 1109.79 1308.45 Q1109.25 1305.78 1107.81 1304.72 Q1106.38 1303.63 1104.94 1303.63 Q1104.39 1303.63 1103.81 1303.79 Q1103.25 1303.95 1102.43 1304.41 Q1101.6 1304.88 1100.96 1306.02 Q1100.34 1307.16 1100.04 1308.89 Q1099.72 1311.12 1099.72 1316.46 Z" fill="#000000" fill-rule="nonzero" fill-opacity="1" /><path clip-path="url(#clip090)" d="M1236.41 1328.64 L1236.41 1327.06 Q1242.49 1327.06 1245.63 1323.82 Q1246.49 1323.82 1246.64 1324.02 Q1246.79 1324.22 1246.79 1325.13 L1246.79 1353.51 Q1246.79 1355.02 1247.53 1355.49 Q1248.27 1355.96 1251.51 1355.96 L1253.11 1355.96 L1253.11 1357.52 Q1251.33 1357.37 1244.91 1357.37 Q1238.49 1357.37 1236.73 1357.52 L1236.73 1355.96 L1238.34 1355.96 Q1241.52 1355.96 1242.29 1355.52 Q1243.06 1355.05 1243.06 1353.51 L1243.06 1327.3 Q1240.41 1328.64 1236.41 1328.64 Z" fill="#000000" fill-rule="nonzero" fill-opacity="1" /><path clip-path="url(#clip090)" d="M1259.19 1341.34 Q1259.19 1333.9 1261.07 1329.85 Q1263.68 1323.82 1269.86 1323.82 Q1271.17 1323.82 1272.53 1324.19 Q1273.91 1324.54 1275.64 1325.9 Q1277.39 1327.25 1278.46 1329.48 Q1280.48 1333.78 1280.48 1341.34 Q1280.48 1348.72 1278.6 1352.75 Q1275.86 1358.63 1269.81 1358.63 Q1267.54 1358.63 1265.22 1357.47 Q1262.92 1356.31 1261.46 1353.51 Q1259.19 1349.34 1259.19 1341.34 M1263.39 1340.72 Q1263.39 1348.35 1263.93 1351.39 Q1264.55 1354.68 1266.23 1356.11 Q1267.93 1357.52 1269.81 1357.52 Q1271.84 1357.52 1273.52 1356.01 Q1275.22 1354.48 1275.74 1351.19 Q1276.31 1347.96 1276.28 1340.72 Q1276.28 1333.68 1275.79 1330.86 Q1275.12 1327.58 1273.34 1326.27 Q1271.59 1324.93 1269.81 1324.93 Q1269.14 1324.93 1268.43 1325.13 Q1267.74 1325.33 1266.72 1325.9 Q1265.71 1326.46 1264.92 1327.87 Q1264.15 1329.28 1263.78 1331.41 Q1263.39 1334.15 1263.39 1340.72 Z" fill="#000000" fill-rule="nonzero" fill-opacity="1" /><path clip-path="url(#clip090)" d="M1307.62 1319.25 Q1307.86 1319.49 1307.86 1319.83 Q1307.86 1320.17 1307.62 1320.41 Q1307.38 1320.65 1307.04 1320.65 L1281.31 1320.65 Q1280.96 1320.65 1280.72 1320.41 Q1280.48 1320.17 1280.48 1319.83 Q1280.48 1319.49 1280.72 1319.25 Q1280.96 1319.01 1281.31 1319.01 L1307.04 1319.01 Q1307.38 1319.01 1307.62 1319.25 Z" fill="#000000" fill-rule="nonzero" fill-opacity="1" /><path clip-path="url(#clip090)" d="M1311.87 1311.98 Q1311.87 1309.79 1312.52 1308.31 Q1313.16 1306.8 1314.5 1305.32 Q1316.97 1302.73 1320.54 1302.73 Q1322.07 1302.73 1323.41 1303.37 Q1324.78 1304.01 1326.06 1305.48 Q1327.37 1306.92 1328.15 1309.79 Q1328.93 1312.64 1328.93 1316.58 Q1328.93 1322.94 1325.84 1326.97 Q1322.77 1331.01 1318.62 1331.01 Q1315.99 1331.01 1314.44 1329.83 Q1312.9 1328.62 1312.9 1326.57 Q1312.9 1325.51 1313.5 1325.07 Q1314.1 1324.61 1314.78 1324.61 Q1315.53 1324.61 1316.11 1325.11 Q1316.69 1325.59 1316.69 1326.49 Q1316.69 1327.24 1316.21 1327.82 Q1315.75 1328.38 1314.54 1328.38 Q1315.73 1329.87 1318.58 1329.87 Q1319.6 1329.87 1320.63 1329.4 Q1321.65 1328.92 1322.75 1327.78 Q1323.88 1326.61 1324.56 1324.19 Q1325.24 1321.76 1325.24 1318.34 L1325.24 1317.04 Q1323.6 1321.15 1320.1 1321.15 Q1316.65 1321.15 1314.26 1318.5 Q1311.87 1315.86 1311.87 1311.98 M1315.57 1312.02 Q1315.57 1316.1 1316.31 1317.6 Q1317.57 1320.19 1320.14 1320.19 Q1322.65 1320.19 1323.9 1317.96 Q1325.16 1315.71 1325.16 1312.8 Q1325.16 1308.77 1324.5 1307 Q1323.27 1303.75 1320.54 1303.75 Q1317.84 1303.75 1316.43 1306.34 Q1315.57 1307.87 1315.57 1312.02 Z" fill="#000000" fill-rule="nonzero" fill-opacity="1" /><path clip-path="url(#clip090)" d="M1462.08 1328.64 L1462.08 1327.06 Q1468.15 1327.06 1471.29 1323.82 Q1472.15 1323.82 1472.3 1324.02 Q1472.45 1324.22 1472.45 1325.13 L1472.45 1353.51 Q1472.45 1355.02 1473.19 1355.49 Q1473.93 1355.96 1477.17 1355.96 L1478.77 1355.96 L1478.77 1357.52 Q1477 1357.37 1470.57 1357.37 Q1464.15 1357.37 1462.4 1357.52 L1462.4 1355.96 L1464 1355.96 Q1467.19 1355.96 1467.95 1355.52 Q1468.72 1355.05 1468.72 1353.51 L1468.72 1327.3 Q1466.08 1328.64 1462.08 1328.64 Z" fill="#000000" fill-rule="nonzero" fill-opacity="1" /><path clip-path="url(#clip090)" d="M1484.85 1341.34 Q1484.85 1333.9 1486.73 1329.85 Q1489.35 1323.82 1495.52 1323.82 Q1496.83 1323.82 1498.19 1324.19 Q1499.58 1324.54 1501.3 1325.9 Q1503.06 1327.25 1504.12 1329.48 Q1506.15 1333.78 1506.15 1341.34 Q1506.15 1348.72 1504.27 1352.75 Q1501.53 1358.63 1495.47 1358.63 Q1493.2 1358.63 1490.88 1357.47 Q1488.58 1356.31 1487.12 1353.51 Q1484.85 1349.34 1484.85 1341.34 M1489.05 1340.72 Q1489.05 1348.35 1489.6 1351.39 Q1490.21 1354.68 1491.89 1356.11 Q1493.6 1357.52 1495.47 1357.52 Q1497.5 1357.52 1499.18 1356.01 Q1500.88 1354.48 1501.4 1351.19 Q1501.97 1347.96 1501.95 1340.72 Q1501.95 1333.68 1501.45 1330.86 Q1500.79 1327.58 1499.01 1326.27 Q1497.25 1324.93 1495.47 1324.93 Q1494.81 1324.93 1494.09 1325.13 Q1493.4 1325.33 1492.39 1325.9 Q1491.37 1326.46 1490.58 1327.87 Q1489.82 1329.28 1489.45 1331.41 Q1489.05 1334.15 1489.05 1340.72 Z" fill="#000000" fill-rule="nonzero" fill-opacity="1" /><path clip-path="url(#clip090)" d="M1533.28 1319.25 Q1533.52 1319.49 1533.52 1319.83 Q1533.52 1320.17 1533.28 1320.41 Q1533.04 1320.65 1532.7 1320.65 L1506.97 1320.65 Q1506.63 1320.65 1506.39 1320.41 Q1506.15 1320.17 1506.15 1319.83 Q1506.15 1319.49 1506.39 1319.25 Q1506.63 1319.01 1506.97 1319.01 L1532.7 1319.01 Q1533.04 1319.01 1533.28 1319.25 Z" fill="#000000" fill-rule="nonzero" fill-opacity="1" /><path clip-path="url(#clip090)" d="M1537.54 1323.9 Q1537.54 1319.31 1543.46 1316.34 Q1540.91 1314.61 1540.45 1314.11 Q1538.64 1312.1 1538.64 1309.59 Q1538.64 1306.72 1540.81 1304.74 Q1543 1302.73 1546.09 1302.73 Q1549.04 1302.73 1551.27 1304.43 Q1553.49 1306.14 1553.49 1308.85 Q1553.49 1312.66 1548.52 1315.23 Q1551.81 1317.28 1552.59 1318.14 Q1554.6 1320.37 1554.6 1323.2 Q1554.6 1326.49 1552.07 1328.76 Q1549.54 1331.01 1546.05 1331.01 Q1542.64 1331.01 1540.09 1329.02 Q1537.54 1327.04 1537.54 1323.9 M1539.59 1323.9 Q1539.59 1326.45 1541.49 1328.16 Q1543.42 1329.87 1546.09 1329.87 Q1548.68 1329.87 1550.6 1328.38 Q1552.55 1326.89 1552.55 1324.69 Q1552.55 1323.82 1552.25 1323.08 Q1551.97 1322.34 1551.39 1321.76 Q1550.83 1321.15 1550.46 1320.89 Q1550.12 1320.61 1549.46 1320.15 L1544.4 1316.96 Q1539.59 1319.63 1539.59 1323.9 M1540.45 1307.99 Q1540.45 1309.95 1542.52 1311.32 L1547.61 1314.61 Q1551.69 1312.22 1551.69 1308.85 Q1551.69 1306.66 1550.02 1305.22 Q1548.36 1303.75 1546.05 1303.75 Q1543.78 1303.75 1542.11 1304.96 Q1540.45 1306.14 1540.45 1307.99 Z" fill="#000000" fill-rule="nonzero" fill-opacity="1" /><path clip-path="url(#clip090)" d="M1687.17 1328.64 L1687.17 1327.06 Q1693.24 1327.06 1696.38 1323.82 Q1697.25 1323.82 1697.39 1324.02 Q1697.54 1324.22 1697.54 1325.13 L1697.54 1353.51 Q1697.54 1355.02 1698.28 1355.49 Q1699.03 1355.96 1702.26 1355.96 L1703.87 1355.96 L1703.87 1357.52 Q1702.09 1357.37 1695.67 1357.37 Q1689.24 1357.37 1687.49 1357.52 L1687.49 1355.96 L1689.09 1355.96 Q1692.28 1355.96 1693.05 1355.52 Q1693.81 1355.05 1693.81 1353.51 L1693.81 1327.3 Q1691.17 1328.64 1687.17 1328.64 Z" fill="#000000" fill-rule="nonzero" fill-opacity="1" /><path clip-path="url(#clip090)" d="M1709.94 1341.34 Q1709.94 1333.9 1711.82 1329.85 Q1714.44 1323.82 1720.62 1323.82 Q1721.93 1323.82 1723.28 1324.19 Q1724.67 1324.54 1726.4 1325.9 Q1728.15 1327.25 1729.21 1329.48 Q1731.24 1333.78 1731.24 1341.34 Q1731.24 1348.72 1729.36 1352.75 Q1726.62 1358.63 1720.57 1358.63 Q1718.29 1358.63 1715.97 1357.47 Q1713.67 1356.31 1712.22 1353.51 Q1709.94 1349.34 1709.94 1341.34 M1714.14 1340.72 Q1714.14 1348.35 1714.69 1351.39 Q1715.3 1354.68 1716.98 1356.11 Q1718.69 1357.52 1720.57 1357.52 Q1722.59 1357.52 1724.27 1356.01 Q1725.98 1354.48 1726.5 1351.19 Q1727.06 1347.96 1727.04 1340.72 Q1727.04 1333.68 1726.54 1330.86 Q1725.88 1327.58 1724.1 1326.27 Q1722.35 1324.93 1720.57 1324.93 Q1719.9 1324.93 1719.18 1325.13 Q1718.49 1325.33 1717.48 1325.9 Q1716.47 1326.46 1715.68 1327.87 Q1714.91 1329.28 1714.54 1331.41 Q1714.14 1334.15 1714.14 1340.72 Z" fill="#000000" fill-rule="nonzero" fill-opacity="1" /><path clip-path="url(#clip090)" d="M1758.38 1319.25 Q1758.62 1319.49 1758.62 1319.83 Q1758.62 1320.17 1758.38 1320.41 Q1758.13 1320.65 1757.79 1320.65 L1732.06 1320.65 Q1731.72 1320.65 1731.48 1320.41 Q1731.24 1320.17 1731.24 1319.83 Q1731.24 1319.49 1731.48 1319.25 Q1731.72 1319.01 1732.06 1319.01 L1757.79 1319.01 Q1758.13 1319.01 1758.38 1319.25 Z" fill="#000000" fill-rule="nonzero" fill-opacity="1" /><path clip-path="url(#clip090)" d="M1763.21 1310.78 L1764.56 1302.33 L1765.58 1302.33 Q1765.7 1302.83 1765.9 1303.05 Q1766.12 1303.27 1767.29 1303.45 Q1768.47 1303.63 1770.86 1303.63 L1780.84 1303.63 Q1780.84 1304.58 1780.47 1305.08 L1774.91 1312.88 Q1773.15 1315.35 1772.36 1319.91 Q1771.9 1322.96 1771.92 1326.65 L1771.92 1328.74 Q1771.92 1331.01 1770.02 1331.01 Q1768.13 1331.01 1768.13 1328.74 Q1768.13 1320.89 1773.19 1313.29 Q1773.73 1312.5 1775.72 1309.71 Q1777.72 1306.92 1777.8 1306.8 L1769.29 1306.8 Q1765.56 1306.8 1765.26 1307.04 Q1764.86 1307.41 1764.24 1310.78 L1763.21 1310.78 Z" fill="#000000" fill-rule="nonzero" fill-opacity="1" /><path clip-path="url(#clip090)" d="M951.856 1447.26 L951.856 1444.92 L953.672 1444.92 Q957.785 1444.92 958.712 1444.26 Q959.675 1443.55 959.675 1441.33 L959.675 1401.57 Q959.675 1399.38 958.712 1398.72 Q957.748 1398.01 953.672 1398.01 L951.856 1398.01 L951.856 1395.64 L994.581 1395.64 L996.693 1412.72 L994.803 1412.72 Q994.284 1408.39 993.58 1405.9 Q992.913 1403.38 991.246 1401.46 Q989.616 1399.53 986.91 1398.79 Q984.243 1398.01 979.907 1398.01 L970.125 1398.01 Q967.531 1398.01 966.975 1398.57 Q966.419 1399.09 966.419 1401.05 L966.419 1419.24 L973.237 1419.24 Q978.462 1419.24 979.944 1417.43 Q981.426 1415.61 981.426 1410.39 L983.353 1410.39 L983.353 1430.47 L981.426 1430.47 Q981.426 1425.32 979.944 1423.47 Q978.462 1421.62 973.237 1421.62 L966.419 1421.62 L966.419 1441.88 Q966.419 1443.85 966.975 1444.4 Q967.568 1444.92 970.125 1444.92 L980.241 1444.92 Q983.501 1444.92 985.873 1444.52 Q988.282 1444.07 989.949 1443.03 Q991.616 1441.96 992.728 1440.74 Q993.877 1439.51 994.655 1437.33 Q995.47 1435.1 995.915 1433.07 Q996.397 1431.03 996.915 1427.69 L998.805 1427.69 L995.618 1447.26 L951.856 1447.26 Z" fill="#000000" fill-rule="nonzero" fill-opacity="1" /><path clip-path="url(#clip090)" d="M1003.03 1447.26 L1003.03 1444.92 Q1007.07 1444.92 1007.99 1444.44 Q1008.96 1443.92 1008.96 1441.48 L1008.96 1421.13 Q1008.96 1418.32 1007.96 1417.61 Q1006.99 1416.91 1003.03 1416.91 L1003.03 1414.54 L1013.59 1413.72 L1013.59 1422.06 Q1014.66 1418.8 1016.93 1416.28 Q1019.22 1413.72 1022.93 1413.72 Q1025.37 1413.72 1026.93 1415.09 Q1028.52 1416.46 1028.52 1418.35 Q1028.52 1420.02 1027.49 1420.87 Q1026.49 1421.69 1025.26 1421.69 Q1023.89 1421.69 1022.93 1420.84 Q1022 1419.95 1022 1418.43 Q1022 1417.5 1022.41 1416.8 Q1022.85 1416.06 1023.19 1415.8 Q1023.52 1415.54 1023.74 1415.46 Q1023.59 1415.39 1022.93 1415.39 Q1018.74 1415.39 1016.33 1419.58 Q1013.96 1423.73 1013.96 1429.66 L1013.96 1441.33 Q1013.96 1443.51 1014.85 1444.22 Q1015.78 1444.92 1019.74 1444.92 L1021.33 1444.92 L1021.33 1447.26 Q1018.3 1447.03 1011.7 1447.03 Q1010.77 1447.03 1009.33 1447.07 Q1007.88 1447.11 1005.99 1447.18 Q1004.1 1447.26 1003.03 1447.26 Z" fill="#000000" fill-rule="nonzero" fill-opacity="1" /><path clip-path="url(#clip090)" d="M1032.67 1447.26 L1032.67 1444.92 Q1036.71 1444.92 1037.64 1444.44 Q1038.6 1443.92 1038.6 1441.48 L1038.6 1421.13 Q1038.6 1418.32 1037.6 1417.61 Q1036.64 1416.91 1032.67 1416.91 L1032.67 1414.54 L1043.23 1413.72 L1043.23 1422.06 Q1044.31 1418.8 1046.57 1416.28 Q1048.87 1413.72 1052.57 1413.72 Q1055.02 1413.72 1056.57 1415.09 Q1058.17 1416.46 1058.17 1418.35 Q1058.17 1420.02 1057.13 1420.87 Q1056.13 1421.69 1054.91 1421.69 Q1053.54 1421.69 1052.57 1420.84 Q1051.65 1419.95 1051.65 1418.43 Q1051.65 1417.5 1052.05 1416.8 Q1052.5 1416.06 1052.83 1415.8 Q1053.16 1415.54 1053.39 1415.46 Q1053.24 1415.39 1052.57 1415.39 Q1048.38 1415.39 1045.98 1419.58 Q1043.6 1423.73 1043.6 1429.66 L1043.6 1441.33 Q1043.6 1443.51 1044.49 1444.22 Q1045.42 1444.92 1049.39 1444.92 L1050.98 1444.92 L1050.98 1447.26 Q1047.94 1447.03 1041.34 1447.03 Q1040.42 1447.03 1038.97 1447.07 Q1037.53 1447.11 1035.64 1447.18 Q1033.75 1447.26 1032.67 1447.26 Z" fill="#000000" fill-rule="nonzero" fill-opacity="1" /><path clip-path="url(#clip090)" d="M1067.32 1443.18 Q1062.32 1438.22 1062.32 1431.03 Q1062.32 1423.8 1067.21 1418.54 Q1072.14 1413.24 1079.18 1413.24 Q1086.07 1413.24 1091 1418.5 Q1095.96 1423.73 1095.96 1431.03 Q1095.96 1438.18 1090.96 1443.14 Q1086 1448.11 1079.1 1448.11 Q1072.36 1448.11 1067.32 1443.18 M1068.62 1430.4 Q1068.62 1437.77 1070.54 1441.11 Q1073.51 1446.18 1079.18 1446.18 Q1081.99 1446.18 1084.33 1444.66 Q1086.7 1443.14 1088 1440.59 Q1089.66 1437.25 1089.66 1430.4 Q1089.66 1423.1 1087.66 1419.87 Q1084.7 1414.95 1079.1 1414.95 Q1076.66 1414.95 1074.25 1416.24 Q1071.88 1417.5 1070.43 1420.02 Q1068.62 1423.36 1068.62 1430.4 Z" fill="#000000" fill-rule="nonzero" fill-opacity="1" /><path clip-path="url(#clip090)" d="M1100.26 1447.26 L1100.26 1444.92 Q1104.3 1444.92 1105.23 1444.44 Q1106.19 1443.92 1106.19 1441.48 L1106.19 1421.13 Q1106.19 1418.32 1105.19 1417.61 Q1104.23 1416.91 1100.26 1416.91 L1100.26 1414.54 L1110.82 1413.72 L1110.82 1422.06 Q1111.9 1418.8 1114.16 1416.28 Q1116.45 1413.72 1120.16 1413.72 Q1122.61 1413.72 1124.16 1415.09 Q1125.76 1416.46 1125.76 1418.35 Q1125.76 1420.02 1124.72 1420.87 Q1123.72 1421.69 1122.49 1421.69 Q1121.12 1421.69 1120.16 1420.84 Q1119.23 1419.95 1119.23 1418.43 Q1119.23 1417.5 1119.64 1416.8 Q1120.09 1416.06 1120.42 1415.8 Q1120.75 1415.54 1120.98 1415.46 Q1120.83 1415.39 1120.16 1415.39 Q1115.97 1415.39 1113.56 1419.58 Q1111.19 1423.73 1111.19 1429.66 L1111.19 1441.33 Q1111.19 1443.51 1112.08 1444.22 Q1113.01 1444.92 1116.97 1444.92 L1118.57 1444.92 L1118.57 1447.26 Q1115.53 1447.03 1108.93 1447.03 Q1108.01 1447.03 1106.56 1447.07 Q1105.12 1447.11 1103.23 1447.18 Q1101.34 1447.26 1100.26 1447.26 Z" fill="#000000" fill-rule="nonzero" fill-opacity="1" /><polyline clip-path="url(#clip092)" style="stroke:#000000; stroke-linecap:round; stroke-linejoin:round; stroke-width:2.8; stroke-opacity:0.4; fill:none" points="245.822,1216.95 1831.79,1216.95 "/>
<polyline clip-path="url(#clip092)" style="stroke:#000000; stroke-linecap:round; stroke-linejoin:round; stroke-width:2.8; stroke-opacity:0.4; fill:none" points="245.822,790.023 1831.79,790.023 "/>
<polyline clip-path="url(#clip092)" style="stroke:#000000; stroke-linecap:round; stroke-linejoin:round; stroke-width:2.8; stroke-opacity:0.4; fill:none" points="245.822,363.094 1831.79,363.094 "/>
<polyline clip-path="url(#clip092)" style="stroke:#000000; stroke-linecap:round; stroke-linejoin:round; stroke-width:2; stroke-opacity:0.06; fill:none" points="245.822,1253.75 1831.79,1253.75 "/>
<polyline clip-path="url(#clip092)" style="stroke:#000000; stroke-linecap:round; stroke-linejoin:round; stroke-width:2; stroke-opacity:0.06; fill:none" points="245.822,1026.05 1831.79,1026.05 "/>
<polyline clip-path="url(#clip092)" style="stroke:#000000; stroke-linecap:round; stroke-linejoin:round; stroke-width:2; stroke-opacity:0.06; fill:none" points="245.822,934.001 1831.79,934.001 "/>
<polyline clip-path="url(#clip092)" style="stroke:#000000; stroke-linecap:round; stroke-linejoin:round; stroke-width:2; stroke-opacity:0.06; fill:none" points="245.822,872.77 1831.79,872.77 "/>
<polyline clip-path="url(#clip092)" style="stroke:#000000; stroke-linecap:round; stroke-linejoin:round; stroke-width:2; stroke-opacity:0.06; fill:none" points="245.822,826.818 1831.79,826.818 "/>
<polyline clip-path="url(#clip092)" style="stroke:#000000; stroke-linecap:round; stroke-linejoin:round; stroke-width:2; stroke-opacity:0.06; fill:none" points="245.822,599.118 1831.79,599.118 "/>
<polyline clip-path="url(#clip092)" style="stroke:#000000; stroke-linecap:round; stroke-linejoin:round; stroke-width:2; stroke-opacity:0.06; fill:none" points="245.822,507.072 1831.79,507.072 "/>
<polyline clip-path="url(#clip092)" style="stroke:#000000; stroke-linecap:round; stroke-linejoin:round; stroke-width:2; stroke-opacity:0.06; fill:none" points="245.822,445.841 1831.79,445.841 "/>
<polyline clip-path="url(#clip092)" style="stroke:#000000; stroke-linecap:round; stroke-linejoin:round; stroke-width:2; stroke-opacity:0.06; fill:none" points="245.822,399.889 1831.79,399.889 "/>
<polyline clip-path="url(#clip092)" style="stroke:#000000; stroke-linecap:round; stroke-linejoin:round; stroke-width:2; stroke-opacity:0.06; fill:none" points="245.822,172.189 1831.79,172.189 "/>
<polyline clip-path="url(#clip092)" style="stroke:#000000; stroke-linecap:round; stroke-linejoin:round; stroke-width:2; stroke-opacity:0.06; fill:none" points="245.822,80.1435 1831.79,80.1435 "/>
<polyline clip-path="url(#clip090)" style="stroke:#000000; stroke-linecap:round; stroke-linejoin:round; stroke-width:4; stroke-opacity:1; fill:none" points="245.822,1280.22 245.822,47.2441 "/>
<polyline clip-path="url(#clip090)" style="stroke:#000000; stroke-linecap:round; stroke-linejoin:round; stroke-width:4; stroke-opacity:1; fill:none" points="1831.79,1280.22 1831.79,47.2441 "/>
<polyline clip-path="url(#clip090)" style="stroke:#000000; stroke-linecap:round; stroke-linejoin:round; stroke-width:4; stroke-opacity:1; fill:none" points="245.822,1216.95 260.726,1216.95 "/>
<polyline clip-path="url(#clip090)" style="stroke:#000000; stroke-linecap:round; stroke-linejoin:round; stroke-width:4; stroke-opacity:1; fill:none" points="245.822,790.023 260.726,790.023 "/>
<polyline clip-path="url(#clip090)" style="stroke:#000000; stroke-linecap:round; stroke-linejoin:round; stroke-width:4; stroke-opacity:1; fill:none" points="245.822,363.094 260.726,363.094 "/>
<polyline clip-path="url(#clip090)" style="stroke:#000000; stroke-linecap:round; stroke-linejoin:round; stroke-width:4; stroke-opacity:1; fill:none" points="245.822,1253.75 253.274,1253.75 "/>
<polyline clip-path="url(#clip090)" style="stroke:#000000; stroke-linecap:round; stroke-linejoin:round; stroke-width:4; stroke-opacity:1; fill:none" points="245.822,1026.05 253.274,1026.05 "/>
<polyline clip-path="url(#clip090)" style="stroke:#000000; stroke-linecap:round; stroke-linejoin:round; stroke-width:4; stroke-opacity:1; fill:none" points="245.822,934.001 253.274,934.001 "/>
<polyline clip-path="url(#clip090)" style="stroke:#000000; stroke-linecap:round; stroke-linejoin:round; stroke-width:4; stroke-opacity:1; fill:none" points="245.822,872.77 253.274,872.77 "/>
<polyline clip-path="url(#clip090)" style="stroke:#000000; stroke-linecap:round; stroke-linejoin:round; stroke-width:4; stroke-opacity:1; fill:none" points="245.822,826.818 253.274,826.818 "/>
<polyline clip-path="url(#clip090)" style="stroke:#000000; stroke-linecap:round; stroke-linejoin:round; stroke-width:4; stroke-opacity:1; fill:none" points="245.822,599.118 253.274,599.118 "/>
<polyline clip-path="url(#clip090)" style="stroke:#000000; stroke-linecap:round; stroke-linejoin:round; stroke-width:4; stroke-opacity:1; fill:none" points="245.822,507.072 253.274,507.072 "/>
<polyline clip-path="url(#clip090)" style="stroke:#000000; stroke-linecap:round; stroke-linejoin:round; stroke-width:4; stroke-opacity:1; fill:none" points="245.822,445.841 253.274,445.841 "/>
<polyline clip-path="url(#clip090)" style="stroke:#000000; stroke-linecap:round; stroke-linejoin:round; stroke-width:4; stroke-opacity:1; fill:none" points="245.822,399.889 253.274,399.889 "/>
<polyline clip-path="url(#clip090)" style="stroke:#000000; stroke-linecap:round; stroke-linejoin:round; stroke-width:4; stroke-opacity:1; fill:none" points="245.822,172.189 253.274,172.189 "/>
<polyline clip-path="url(#clip090)" style="stroke:#000000; stroke-linecap:round; stroke-linejoin:round; stroke-width:4; stroke-opacity:1; fill:none" points="245.822,80.1435 253.274,80.1435 "/>
<path clip-path="url(#clip090)" d="M119.06 1211.8 L119.06 1210.22 Q125.137 1210.22 128.275 1206.98 Q129.139 1206.98 129.287 1207.18 Q129.436 1207.38 129.436 1208.29 L129.436 1236.68 Q129.436 1238.18 130.177 1238.65 Q130.918 1239.12 134.154 1239.12 L135.76 1239.12 L135.76 1240.68 Q133.981 1240.53 127.558 1240.53 Q121.135 1240.53 119.381 1240.68 L119.381 1239.12 L120.987 1239.12 Q124.174 1239.12 124.94 1238.68 Q125.705 1238.21 125.705 1236.68 L125.705 1210.47 Q123.062 1211.8 119.06 1211.8 Z" fill="#000000" fill-rule="nonzero" fill-opacity="1" /><path clip-path="url(#clip090)" d="M141.837 1224.5 Q141.837 1217.06 143.714 1213.01 Q146.333 1206.98 152.509 1206.98 Q153.818 1206.98 155.176 1207.35 Q156.56 1207.7 158.289 1209.06 Q160.043 1210.42 161.105 1212.64 Q163.131 1216.94 163.131 1224.5 Q163.131 1231.89 161.253 1235.91 Q158.511 1241.79 152.459 1241.79 Q150.186 1241.79 147.864 1240.63 Q145.567 1239.47 144.109 1236.68 Q141.837 1232.5 141.837 1224.5 M146.036 1223.88 Q146.036 1231.51 146.58 1234.55 Q147.197 1237.84 148.877 1239.27 Q150.582 1240.68 152.459 1240.68 Q154.485 1240.68 156.165 1239.17 Q157.869 1237.64 158.388 1234.36 Q158.956 1231.12 158.931 1223.88 Q158.931 1216.84 158.437 1214.02 Q157.77 1210.74 155.992 1209.43 Q154.238 1208.1 152.459 1208.1 Q151.792 1208.1 151.076 1208.29 Q150.384 1208.49 149.371 1209.06 Q148.358 1209.63 147.568 1211.04 Q146.802 1212.44 146.431 1214.57 Q146.036 1217.31 146.036 1223.88 Z" fill="#000000" fill-rule="nonzero" fill-opacity="1" /><path clip-path="url(#clip090)" d="M190.268 1202.41 Q190.508 1202.65 190.508 1202.99 Q190.508 1203.33 190.268 1203.57 Q190.027 1203.82 189.686 1203.82 L163.954 1203.82 Q163.613 1203.82 163.372 1203.57 Q163.131 1203.33 163.131 1202.99 Q163.131 1202.65 163.372 1202.41 Q163.613 1202.17 163.954 1202.17 L189.686 1202.17 Q190.027 1202.17 190.268 1202.41 Z" fill="#000000" fill-rule="nonzero" fill-opacity="1" /><path clip-path="url(#clip090)" d="M194.844 1213.27 Q194.844 1212.53 194.904 1212.31 Q194.984 1212.08 195.306 1211.74 L203.194 1202.95 Q207.509 1198.1 207.509 1193.86 Q207.509 1191.11 206.064 1189.14 Q204.639 1187.18 202.009 1187.18 Q200.203 1187.18 198.678 1188.28 Q197.152 1189.38 196.45 1191.35 Q196.57 1191.31 196.992 1191.31 Q198.015 1191.31 198.577 1191.95 Q199.159 1192.6 199.159 1193.46 Q199.159 1194.56 198.437 1195.1 Q197.734 1195.63 197.032 1195.63 Q196.751 1195.63 196.369 1195.57 Q196.008 1195.51 195.426 1194.94 Q194.844 1194.36 194.844 1193.34 Q194.844 1190.47 197.012 1188.18 Q199.199 1185.89 202.531 1185.89 Q206.305 1185.89 208.773 1188.14 Q211.262 1190.37 211.262 1193.86 Q211.262 1195.08 210.881 1196.21 Q210.52 1197.31 210.018 1198.18 Q209.536 1199.04 208.211 1200.42 Q206.887 1201.81 205.823 1202.79 Q204.759 1203.78 202.371 1205.86 L198.015 1210.1 L205.422 1210.1 Q209.034 1210.1 209.315 1209.78 Q209.717 1209.19 210.219 1206.12 L211.262 1206.12 L210.098 1213.27 L194.844 1213.27 Z" fill="#000000" fill-rule="nonzero" fill-opacity="1" /><path clip-path="url(#clip090)" d="M120.305 784.872 L120.305 783.291 Q126.382 783.291 129.519 780.055 Q130.384 780.055 130.532 780.253 Q130.68 780.45 130.68 781.364 L130.68 809.749 Q130.68 811.255 131.421 811.725 Q132.162 812.194 135.398 812.194 L137.004 812.194 L137.004 813.751 Q135.225 813.602 128.803 813.602 Q122.38 813.602 120.626 813.751 L120.626 812.194 L122.231 812.194 Q125.418 812.194 126.184 811.75 Q126.95 811.28 126.95 809.749 L126.95 783.538 Q124.307 784.872 120.305 784.872 Z" fill="#000000" fill-rule="nonzero" fill-opacity="1" /><path clip-path="url(#clip090)" d="M143.081 797.57 Q143.081 790.134 144.959 786.083 Q147.577 780.055 153.753 780.055 Q155.062 780.055 156.421 780.426 Q157.804 780.772 159.534 782.13 Q161.287 783.489 162.35 785.712 Q164.375 790.011 164.375 797.57 Q164.375 804.956 162.498 808.983 Q159.756 814.862 153.704 814.862 Q151.431 814.862 149.109 813.701 Q146.811 812.54 145.354 809.749 Q143.081 805.574 143.081 797.57 M147.281 796.952 Q147.281 804.586 147.824 807.624 Q148.442 810.91 150.122 812.342 Q151.826 813.751 153.704 813.751 Q155.729 813.751 157.409 812.244 Q159.114 810.712 159.632 807.426 Q160.201 804.19 160.176 796.952 Q160.176 789.912 159.682 787.096 Q159.015 783.81 157.236 782.501 Q155.482 781.167 153.704 781.167 Q153.037 781.167 152.32 781.364 Q151.628 781.562 150.616 782.13 Q149.603 782.698 148.812 784.107 Q148.046 785.515 147.676 787.639 Q147.281 790.381 147.281 796.952 Z" fill="#000000" fill-rule="nonzero" fill-opacity="1" /><path clip-path="url(#clip090)" d="M191.512 775.481 Q191.753 775.722 191.753 776.064 Q191.753 776.405 191.512 776.646 Q191.271 776.886 190.93 776.886 L165.198 776.886 Q164.857 776.886 164.616 776.646 Q164.375 776.405 164.375 776.064 Q164.375 775.722 164.616 775.481 Q164.857 775.241 165.198 775.241 L190.93 775.241 Q191.271 775.241 191.512 775.481 Z" fill="#000000" fill-rule="nonzero" fill-opacity="1" /><path clip-path="url(#clip090)" d="M197.694 762.877 L197.694 761.592 Q202.632 761.592 205.181 758.963 Q205.883 758.963 206.004 759.123 Q206.124 759.284 206.124 760.026 L206.124 783.089 Q206.124 784.313 206.726 784.694 Q207.328 785.076 209.958 785.076 L211.262 785.076 L211.262 786.34 Q209.817 786.22 204.599 786.22 Q199.38 786.22 197.955 786.34 L197.955 785.076 L199.26 785.076 Q201.849 785.076 202.471 784.714 Q203.093 784.333 203.093 783.089 L203.093 761.793 Q200.946 762.877 197.694 762.877 Z" fill="#000000" fill-rule="nonzero" fill-opacity="1" /><path clip-path="url(#clip090)" d="M149.89 357.943 L149.89 356.362 Q155.967 356.362 159.104 353.126 Q159.969 353.126 160.117 353.324 Q160.265 353.521 160.265 354.435 L160.265 382.82 Q160.265 384.327 161.006 384.796 Q161.748 385.265 164.984 385.265 L166.589 385.265 L166.589 386.822 Q164.811 386.673 158.388 386.673 Q151.965 386.673 150.211 386.822 L150.211 385.265 L151.817 385.265 Q155.004 385.265 155.769 384.821 Q156.535 384.351 156.535 382.82 L156.535 356.609 Q153.892 357.943 149.89 357.943 Z" fill="#000000" fill-rule="nonzero" fill-opacity="1" /><path clip-path="url(#clip090)" d="M172.666 370.641 Q172.666 363.205 174.544 359.154 Q177.162 353.126 183.338 353.126 Q184.648 353.126 186.006 353.497 Q187.39 353.843 189.119 355.201 Q190.873 356.56 191.935 358.783 Q193.961 363.082 193.961 370.641 Q193.961 378.027 192.083 382.054 Q189.341 387.933 183.289 387.933 Q181.016 387.933 178.694 386.772 Q176.397 385.611 174.939 382.82 Q172.666 378.645 172.666 370.641 M176.866 370.023 Q176.866 377.657 177.409 380.695 Q178.027 383.981 179.707 385.413 Q181.411 386.822 183.289 386.822 Q185.315 386.822 186.994 385.315 Q188.699 383.783 189.218 380.498 Q189.786 377.261 189.761 370.023 Q189.761 362.983 189.267 360.167 Q188.6 356.881 186.821 355.572 Q185.068 354.238 183.289 354.238 Q182.622 354.238 181.906 354.435 Q181.214 354.633 180.201 355.201 Q179.188 355.769 178.398 357.178 Q177.632 358.586 177.261 360.71 Q176.866 363.452 176.866 370.023 Z" fill="#000000" fill-rule="nonzero" fill-opacity="1" /><path clip-path="url(#clip090)" d="M193.961 346.264 Q193.961 340.223 195.486 336.931 Q197.614 332.034 202.632 332.034 Q203.695 332.034 204.799 332.335 Q205.923 332.616 207.328 333.72 Q208.753 334.824 209.616 336.63 Q211.262 340.122 211.262 346.264 Q211.262 352.266 209.737 355.537 Q207.509 360.314 202.591 360.314 Q200.745 360.314 198.858 359.371 Q196.992 358.428 195.807 356.16 Q193.961 352.768 193.961 346.264 M197.373 345.763 Q197.373 351.965 197.814 354.433 Q198.316 357.103 199.681 358.267 Q201.066 359.411 202.591 359.411 Q204.237 359.411 205.602 358.187 Q206.987 356.942 207.409 354.273 Q207.87 351.644 207.85 345.763 Q207.85 340.042 207.449 337.754 Q206.907 335.085 205.462 334.021 Q204.037 332.937 202.591 332.937 Q202.05 332.937 201.467 333.097 Q200.905 333.258 200.083 333.72 Q199.26 334.181 198.617 335.325 Q197.995 336.469 197.694 338.196 Q197.373 340.424 197.373 345.763 Z" fill="#000000" fill-rule="nonzero" fill-opacity="1" /><path clip-path="url(#clip090)" d="M34.6352 801.913 L17.5899 800.467 L17.5899 754.112 L34.6352 752.666 L34.6352 754.556 Q31.2261 754.853 29.2622 755.149 Q27.2983 755.408 25.4455 756.075 Q23.5557 756.705 22.6664 757.521 Q21.74 758.299 21.036 759.818 Q20.2949 761.337 20.1096 763.301 Q19.9243 765.265 19.9243 768.23 Q19.9243 771.713 20.0726 772.565 Q20.2949 773.491 20.9619 773.714 Q21.5918 773.936 22.9629 773.936 L62.9452 773.936 Q64.4645 773.936 65.0944 773.64 Q65.6873 773.306 66.169 771.564 Q66.6137 769.823 66.6137 765.969 L66.6137 762.931 L68.9482 762.931 Q68.7258 766.043 68.7258 777.345 Q68.7258 788.573 68.9482 791.685 L66.6137 791.685 L66.6137 788.647 Q66.6137 784.793 66.169 783.052 Q65.6873 781.273 65.0944 780.976 Q64.4645 780.68 62.9452 780.68 L22.9629 780.68 Q21.8883 780.68 21.4436 780.754 Q20.9989 780.828 20.6284 781.162 Q20.2208 781.495 20.0726 782.273 Q19.9243 783.014 19.9243 786.349 Q19.9243 789.314 20.1096 791.315 Q20.2949 793.279 21.036 794.798 Q21.74 796.317 22.6664 797.132 Q23.5557 797.911 25.4455 798.578 Q27.2983 799.208 29.2622 799.467 Q31.2261 799.726 34.6352 800.023 L34.6352 801.913 Z" fill="#000000" fill-rule="nonzero" fill-opacity="1" /><path clip-path="url(#clip090)" d="M68.9482 747.368 L66.6137 747.368 Q66.6137 743.329 66.132 742.402 Q65.6132 741.476 63.1676 741.476 L42.7502 741.476 Q39.9341 741.476 39.2671 742.439 Q38.6001 743.366 38.6001 747.071 L36.2286 747.071 L35.4133 736.473 L63.2417 736.473 Q65.502 736.473 66.0579 735.658 Q66.6137 734.843 66.6137 731.137 L68.9482 731.137 Q68.7258 738.882 68.7258 739.03 Q68.7258 740.068 68.9482 747.368 M22.1847 744.181 Q20.6654 744.181 19.4426 743.032 Q18.1828 741.846 18.1828 740.179 Q18.1828 738.511 19.3315 737.326 Q20.4431 736.14 22.2218 736.14 Q23.9633 736.14 25.112 737.326 Q26.2237 738.511 26.2237 740.179 Q26.2237 741.92 25.0009 743.069 Q23.7781 744.181 22.1847 744.181 Z" fill="#000000" fill-rule="nonzero" fill-opacity="1" /><path clip-path="url(#clip090)" d="M68.9482 726.431 L66.6137 726.431 Q66.6137 722.392 66.132 721.466 Q65.6132 720.54 63.1676 720.54 L42.8244 720.54 Q40.0082 720.54 39.3041 721.54 Q38.6001 722.504 38.6001 726.431 L36.2286 726.431 L35.4133 715.76 L43.3802 715.76 Q35.4133 712.202 35.4133 704.532 Q35.4133 695.639 42.8244 694.416 Q39.9341 693.119 37.6737 690.414 Q35.4133 687.672 35.4133 683.411 Q35.4133 677.704 38.2295 675.444 Q40.1193 673.776 42.2315 673.443 Q44.3436 673.109 49.8278 673.109 L64.3163 673.109 Q65.9096 673.035 66.2802 671.812 Q66.6137 670.589 66.6137 667.18 L68.9482 667.18 Q68.7258 674.925 68.7258 675.666 Q68.7258 676.259 68.9482 684.263 L66.6137 684.263 Q66.6137 680.224 66.132 679.297 Q65.6132 678.334 63.1676 678.334 L45.4923 678.334 Q41.6386 678.334 39.3782 679.52 Q37.0808 680.706 37.0808 683.966 Q37.0808 687.894 40.3787 691.044 Q43.6766 694.194 49.2349 694.194 L63.1676 694.194 Q65.6132 694.194 66.132 693.267 Q66.6137 692.304 66.6137 688.265 L68.9482 688.265 Q68.7258 696.009 68.7258 696.787 Q68.7258 697.38 68.9482 705.347 L66.6137 705.347 Q66.6137 701.308 66.132 700.382 Q65.6132 699.418 63.1676 699.418 L45.4923 699.418 Q41.6386 699.418 39.3782 700.604 Q37.0808 701.79 37.0808 705.051 Q37.0808 708.979 40.3787 712.128 Q43.6766 715.278 49.2349 715.278 L63.1676 715.278 Q65.6132 715.278 66.132 714.351 Q66.6137 713.388 66.6137 709.386 L68.9482 709.386 Q68.7258 717.131 68.7258 717.872 Q68.7258 718.465 68.9482 726.431 Z" fill="#000000" fill-rule="nonzero" fill-opacity="1" /><path clip-path="url(#clip090)" d="M52.2363 663.586 Q45.0847 663.586 40.0082 658.991 Q34.9316 654.396 34.9316 647.801 Q34.9316 641.131 39.2671 637.685 Q43.6025 634.201 49.8278 634.201 Q50.9765 634.201 51.1988 634.498 Q51.4211 634.794 51.4211 636.091 L51.4211 657.287 Q59.1656 657.287 62.797 654.989 Q67.8736 651.803 67.8736 646.43 Q67.8736 645.689 67.7253 644.799 Q67.5771 643.91 66.9472 642.094 Q66.2802 640.278 64.5386 638.685 Q62.797 637.092 60.0549 636.165 Q58.9804 635.943 59.0174 635.202 Q59.0174 634.201 59.9067 634.201 Q60.5737 634.201 62.093 634.943 Q63.5752 635.647 65.3538 637.018 Q67.1325 638.389 68.4664 641.057 Q69.8004 643.688 69.8004 646.874 Q69.8004 653.544 64.7609 658.584 Q59.6844 663.586 52.2363 663.586 M49.8278 657.213 L49.8278 639.204 Q48.2344 639.204 46.4557 639.5 Q44.6771 639.76 42.2315 640.575 Q39.7488 641.353 38.1925 643.206 Q36.6362 645.059 36.6362 647.801 Q36.6362 649.023 37.1549 650.357 Q37.6737 651.654 38.9336 653.248 Q40.1934 654.841 43.0467 655.953 Q45.8999 657.064 49.8278 657.213 Z" fill="#000000" fill-rule="nonzero" fill-opacity="1" /><path clip-path="url(#clip090)" d="M49.976 599.259 Q37.1549 599.259 26.8166 594.478 Q22.4811 592.44 18.8497 589.587 Q15.2184 586.734 13.625 584.844 Q12.0316 582.954 12.0316 582.436 Q12.0316 581.694 12.7727 581.657 Q13.1433 581.657 14.0696 582.658 Q26.5201 594.886 49.976 594.849 Q73.5059 594.849 85.4747 582.954 Q86.7716 581.657 87.1792 581.657 Q87.9203 581.657 87.9203 582.436 Q87.9203 582.954 86.4011 584.77 Q84.8818 586.586 81.3987 589.402 Q77.9155 592.218 73.6541 594.256 Q63.3158 599.259 49.976 599.259 Z" fill="#000000" fill-rule="nonzero" fill-opacity="1" /><path clip-path="url(#clip090)" d="M67.9477 574.839 L57.9428 574.839 Q57.0905 574.839 56.7941 574.802 Q56.4977 574.765 56.2753 574.543 Q56.053 574.32 56.053 573.876 Q56.053 573.357 56.2753 573.172 Q56.4977 572.949 57.3499 572.801 Q62.5747 571.653 65.3538 569.207 Q68.0959 566.724 68.0959 562.241 Q68.0959 557.979 66.2061 555.83 Q64.3163 553.681 61.2037 553.681 Q55.6454 553.681 54.2373 561.574 Q53.3109 566.131 52.7181 568.021 Q52.0881 569.911 50.7171 571.578 Q48.0491 574.839 44.2695 574.839 Q40.4899 574.839 37.7108 571.986 Q34.9316 569.096 34.9316 562.722 Q34.9316 558.461 37.0808 555.571 Q36.4138 554.718 35.858 554.274 Q34.9316 553.273 34.9316 552.754 Q34.9316 552.162 35.3392 552.05 Q35.7098 551.939 36.7844 551.939 L44.4177 551.939 Q45.27 551.939 45.5664 551.976 Q45.8629 552.013 46.0852 552.236 Q46.2705 552.458 46.2705 552.94 Q46.2705 553.792 45.5664 553.829 Q36.3768 554.422 36.3768 562.722 Q36.3768 567.206 38.1184 569.207 Q39.8229 571.208 42.1574 571.208 Q43.4543 571.208 44.4548 570.615 Q45.4182 569.985 46.0111 569.207 Q46.5669 568.392 47.1227 566.909 Q47.6415 565.427 47.8268 564.538 Q48.0121 563.612 48.3826 561.87 Q49.5313 555.793 52.014 553.236 Q55.2007 550.049 59.2397 550.049 Q63.7234 550.049 66.7619 553.088 Q69.8004 556.126 69.8004 562.241 Q69.8004 567.169 66.5025 570.615 Q66.9472 571.06 67.3548 571.393 Q67.7253 571.727 67.8736 571.875 Q68.0218 571.986 68.1329 572.023 Q68.2071 572.06 68.2812 572.134 Q69.8004 573.654 69.8004 574.024 Q69.8004 574.617 69.3928 574.728 Q69.0223 574.839 67.9477 574.839 Z" fill="#000000" fill-rule="nonzero" fill-opacity="1" /><path clip-path="url(#clip090)" d="M87.1792 543.157 Q86.8087 543.157 85.8823 542.194 Q73.4318 529.966 49.976 529.966 Q26.446 529.966 14.5514 541.712 Q13.1803 543.157 12.7727 543.157 Q12.0316 543.157 12.0316 542.416 Q12.0316 541.897 13.5509 540.082 Q15.0701 538.229 18.5533 535.45 Q22.0365 532.634 26.2978 530.558 Q36.6362 525.556 49.976 525.556 Q62.797 525.556 73.1354 530.336 Q77.4708 532.374 81.1022 535.227 Q84.7336 538.081 86.327 539.97 Q87.9203 541.86 87.9203 542.416 Q87.9203 543.157 87.1792 543.157 Z" fill="#000000" fill-rule="nonzero" fill-opacity="1" /><polyline clip-path="url(#clip092)" style="stroke:#0000ff; stroke-linecap:round; stroke-linejoin:round; stroke-width:12; stroke-opacity:1; fill:none" points="1786.9,799.057 1476.63,654.94 883.759,512.043 1093.98,366.574 1027.79,223.611 954.456,82.1398 "/>
<line clip-path="url(#clip092)" x1="1786.9" y1="799.057" x2="1786.9" y2="783.057" style="stroke:#0000ff; stroke-width:12; stroke-opacity:1"/>
<line clip-path="url(#clip092)" x1="1786.9" y1="799.057" x2="1770.9" y2="799.057" style="stroke:#0000ff; stroke-width:12; stroke-opacity:1"/>
<line clip-path="url(#clip092)" x1="1786.9" y1="799.057" x2="1786.9" y2="815.057" style="stroke:#0000ff; stroke-width:12; stroke-opacity:1"/>
<line clip-path="url(#clip092)" x1="1786.9" y1="799.057" x2="1802.9" y2="799.057" style="stroke:#0000ff; stroke-width:12; stroke-opacity:1"/>
<line clip-path="url(#clip092)" x1="1476.63" y1="654.94" x2="1476.63" y2="638.94" style="stroke:#0000ff; stroke-width:12; stroke-opacity:1"/>
<line clip-path="url(#clip092)" x1="1476.63" y1="654.94" x2="1460.63" y2="654.94" style="stroke:#0000ff; stroke-width:12; stroke-opacity:1"/>
<line clip-path="url(#clip092)" x1="1476.63" y1="654.94" x2="1476.63" y2="670.94" style="stroke:#0000ff; stroke-width:12; stroke-opacity:1"/>
<line clip-path="url(#clip092)" x1="1476.63" y1="654.94" x2="1492.63" y2="654.94" style="stroke:#0000ff; stroke-width:12; stroke-opacity:1"/>
<line clip-path="url(#clip092)" x1="883.759" y1="512.043" x2="883.759" y2="496.043" style="stroke:#0000ff; stroke-width:12; stroke-opacity:1"/>
<line clip-path="url(#clip092)" x1="883.759" y1="512.043" x2="867.759" y2="512.043" style="stroke:#0000ff; stroke-width:12; stroke-opacity:1"/>
<line clip-path="url(#clip092)" x1="883.759" y1="512.043" x2="883.759" y2="528.043" style="stroke:#0000ff; stroke-width:12; stroke-opacity:1"/>
<line clip-path="url(#clip092)" x1="883.759" y1="512.043" x2="899.759" y2="512.043" style="stroke:#0000ff; stroke-width:12; stroke-opacity:1"/>
<line clip-path="url(#clip092)" x1="1093.98" y1="366.574" x2="1093.98" y2="350.574" style="stroke:#0000ff; stroke-width:12; stroke-opacity:1"/>
<line clip-path="url(#clip092)" x1="1093.98" y1="366.574" x2="1077.98" y2="366.574" style="stroke:#0000ff; stroke-width:12; stroke-opacity:1"/>
<line clip-path="url(#clip092)" x1="1093.98" y1="366.574" x2="1093.98" y2="382.574" style="stroke:#0000ff; stroke-width:12; stroke-opacity:1"/>
<line clip-path="url(#clip092)" x1="1093.98" y1="366.574" x2="1109.98" y2="366.574" style="stroke:#0000ff; stroke-width:12; stroke-opacity:1"/>
<line clip-path="url(#clip092)" x1="1027.79" y1="223.611" x2="1027.79" y2="207.611" style="stroke:#0000ff; stroke-width:12; stroke-opacity:1"/>
<line clip-path="url(#clip092)" x1="1027.79" y1="223.611" x2="1011.79" y2="223.611" style="stroke:#0000ff; stroke-width:12; stroke-opacity:1"/>
<line clip-path="url(#clip092)" x1="1027.79" y1="223.611" x2="1027.79" y2="239.611" style="stroke:#0000ff; stroke-width:12; stroke-opacity:1"/>
<line clip-path="url(#clip092)" x1="1027.79" y1="223.611" x2="1043.79" y2="223.611" style="stroke:#0000ff; stroke-width:12; stroke-opacity:1"/>
<line clip-path="url(#clip092)" x1="954.456" y1="82.1398" x2="954.456" y2="66.1398" style="stroke:#0000ff; stroke-width:12; stroke-opacity:1"/>
<line clip-path="url(#clip092)" x1="954.456" y1="82.1398" x2="938.456" y2="82.1398" style="stroke:#0000ff; stroke-width:12; stroke-opacity:1"/>
<line clip-path="url(#clip092)" x1="954.456" y1="82.1398" x2="954.456" y2="98.1398" style="stroke:#0000ff; stroke-width:12; stroke-opacity:1"/>
<line clip-path="url(#clip092)" x1="954.456" y1="82.1398" x2="970.456" y2="82.1398" style="stroke:#0000ff; stroke-width:12; stroke-opacity:1"/>
<polyline clip-path="url(#clip092)" style="stroke:#5400aa; stroke-linecap:round; stroke-linejoin:round; stroke-width:12; stroke-opacity:1; fill:none" points="1411.31,1102.26 1061.2,1000.69 715.238,894.288 397.985,784.346 455.782,679.675 457.709,572.51 "/>
<circle clip-path="url(#clip092)" cx="1411.31" cy="1102.26" r="14.4" fill="#5400aa" fill-rule="evenodd" fill-opacity="1" stroke="#000000" stroke-opacity="1" stroke-width="1.536"/>
<circle clip-path="url(#clip092)" cx="1061.2" cy="1000.69" r="14.4" fill="#5400aa" fill-rule="evenodd" fill-opacity="1" stroke="#000000" stroke-opacity="1" stroke-width="1.536"/>
<circle clip-path="url(#clip092)" cx="715.238" cy="894.288" r="14.4" fill="#5400aa" fill-rule="evenodd" fill-opacity="1" stroke="#000000" stroke-opacity="1" stroke-width="1.536"/>
<circle clip-path="url(#clip092)" cx="397.985" cy="784.346" r="14.4" fill="#5400aa" fill-rule="evenodd" fill-opacity="1" stroke="#000000" stroke-opacity="1" stroke-width="1.536"/>
<circle clip-path="url(#clip092)" cx="455.782" cy="679.675" r="14.4" fill="#5400aa" fill-rule="evenodd" fill-opacity="1" stroke="#000000" stroke-opacity="1" stroke-width="1.536"/>
<circle clip-path="url(#clip092)" cx="457.709" cy="572.51" r="14.4" fill="#5400aa" fill-rule="evenodd" fill-opacity="1" stroke="#000000" stroke-opacity="1" stroke-width="1.536"/>
<polyline clip-path="url(#clip092)" style="stroke:#a90055; stroke-linecap:round; stroke-linejoin:round; stroke-width:12; stroke-opacity:1; fill:none" points="1215.14,1234.94 834.56,1155.82 290.708,1080.87 452.904,996.71 455.648,911.571 456.057,825.002 "/>
<line clip-path="url(#clip092)" x1="1215.14" y1="1234.94" x2="1215.14" y2="1218.94" style="stroke:#a90055; stroke-width:12; stroke-opacity:1"/>
<line clip-path="url(#clip092)" x1="1215.14" y1="1234.94" x2="1199.14" y2="1234.94" style="stroke:#a90055; stroke-width:12; stroke-opacity:1"/>
<line clip-path="url(#clip092)" x1="1215.14" y1="1234.94" x2="1215.14" y2="1250.94" style="stroke:#a90055; stroke-width:12; stroke-opacity:1"/>
<line clip-path="url(#clip092)" x1="1215.14" y1="1234.94" x2="1231.14" y2="1234.94" style="stroke:#a90055; stroke-width:12; stroke-opacity:1"/>
<line clip-path="url(#clip092)" x1="834.56" y1="1155.82" x2="834.56" y2="1139.82" style="stroke:#a90055; stroke-width:12; stroke-opacity:1"/>
<line clip-path="url(#clip092)" x1="834.56" y1="1155.82" x2="818.56" y2="1155.82" style="stroke:#a90055; stroke-width:12; stroke-opacity:1"/>
<line clip-path="url(#clip092)" x1="834.56" y1="1155.82" x2="834.56" y2="1171.82" style="stroke:#a90055; stroke-width:12; stroke-opacity:1"/>
<line clip-path="url(#clip092)" x1="834.56" y1="1155.82" x2="850.56" y2="1155.82" style="stroke:#a90055; stroke-width:12; stroke-opacity:1"/>
<line clip-path="url(#clip092)" x1="290.708" y1="1080.87" x2="290.708" y2="1064.87" style="stroke:#a90055; stroke-width:12; stroke-opacity:1"/>
<line clip-path="url(#clip092)" x1="290.708" y1="1080.87" x2="274.708" y2="1080.87" style="stroke:#a90055; stroke-width:12; stroke-opacity:1"/>
<line clip-path="url(#clip092)" x1="290.708" y1="1080.87" x2="290.708" y2="1096.87" style="stroke:#a90055; stroke-width:12; stroke-opacity:1"/>
<line clip-path="url(#clip092)" x1="290.708" y1="1080.87" x2="306.708" y2="1080.87" style="stroke:#a90055; stroke-width:12; stroke-opacity:1"/>
<line clip-path="url(#clip092)" x1="452.904" y1="996.71" x2="452.904" y2="980.71" style="stroke:#a90055; stroke-width:12; stroke-opacity:1"/>
<line clip-path="url(#clip092)" x1="452.904" y1="996.71" x2="436.904" y2="996.71" style="stroke:#a90055; stroke-width:12; stroke-opacity:1"/>
<line clip-path="url(#clip092)" x1="452.904" y1="996.71" x2="452.904" y2="1012.71" style="stroke:#a90055; stroke-width:12; stroke-opacity:1"/>
<line clip-path="url(#clip092)" x1="452.904" y1="996.71" x2="468.904" y2="996.71" style="stroke:#a90055; stroke-width:12; stroke-opacity:1"/>
<line clip-path="url(#clip092)" x1="455.648" y1="911.571" x2="455.648" y2="895.571" style="stroke:#a90055; stroke-width:12; stroke-opacity:1"/>
<line clip-path="url(#clip092)" x1="455.648" y1="911.571" x2="439.648" y2="911.571" style="stroke:#a90055; stroke-width:12; stroke-opacity:1"/>
<line clip-path="url(#clip092)" x1="455.648" y1="911.571" x2="455.648" y2="927.571" style="stroke:#a90055; stroke-width:12; stroke-opacity:1"/>
<line clip-path="url(#clip092)" x1="455.648" y1="911.571" x2="471.648" y2="911.571" style="stroke:#a90055; stroke-width:12; stroke-opacity:1"/>
<line clip-path="url(#clip092)" x1="456.057" y1="825.002" x2="456.057" y2="809.002" style="stroke:#a90055; stroke-width:12; stroke-opacity:1"/>
<line clip-path="url(#clip092)" x1="456.057" y1="825.002" x2="440.057" y2="825.002" style="stroke:#a90055; stroke-width:12; stroke-opacity:1"/>
<line clip-path="url(#clip092)" x1="456.057" y1="825.002" x2="456.057" y2="841.002" style="stroke:#a90055; stroke-width:12; stroke-opacity:1"/>
<line clip-path="url(#clip092)" x1="456.057" y1="825.002" x2="472.057" y2="825.002" style="stroke:#a90055; stroke-width:12; stroke-opacity:1"/>
<polyline clip-path="url(#clip092)" style="stroke:#ff0000; stroke-linecap:round; stroke-linejoin:round; stroke-width:12; stroke-opacity:1; fill:none" points="1221.74,1245.33 596.127,1221.01 436.742,1153.97 454.374,1085.6 455.648,1020.16 455.819,943.769 "/>
<path clip-path="url(#clip092)" d="M1221.74 1229.33 L1205.74 1245.33 L1221.74 1261.33 L1237.74 1245.33 L1221.74 1229.33 Z" fill="#ff0000" fill-rule="evenodd" fill-opacity="1" stroke="#000000" stroke-opacity="1" stroke-width="1.536"/>
<path clip-path="url(#clip092)" d="M596.127 1205.01 L580.127 1221.01 L596.127 1237.01 L612.127 1221.01 L596.127 1205.01 Z" fill="#ff0000" fill-rule="evenodd" fill-opacity="1" stroke="#000000" stroke-opacity="1" stroke-width="1.536"/>
<path clip-path="url(#clip092)" d="M436.742 1137.97 L420.742 1153.97 L436.742 1169.97 L452.742 1153.97 L436.742 1137.97 Z" fill="#ff0000" fill-rule="evenodd" fill-opacity="1" stroke="#000000" stroke-opacity="1" stroke-width="1.536"/>
<path clip-path="url(#clip092)" d="M454.374 1069.6 L438.374 1085.6 L454.374 1101.6 L470.374 1085.6 L454.374 1069.6 Z" fill="#ff0000" fill-rule="evenodd" fill-opacity="1" stroke="#000000" stroke-opacity="1" stroke-width="1.536"/>
<path clip-path="url(#clip092)" d="M455.648 1004.16 L439.648 1020.16 L455.648 1036.16 L471.648 1020.16 L455.648 1004.16 Z" fill="#ff0000" fill-rule="evenodd" fill-opacity="1" stroke="#000000" stroke-opacity="1" stroke-width="1.536"/>
<path clip-path="url(#clip092)" d="M455.819 927.769 L439.819 943.769 L455.819 959.769 L471.819 943.769 L455.819 927.769 Z" fill="#ff0000" fill-rule="evenodd" fill-opacity="1" stroke="#000000" stroke-opacity="1" stroke-width="1.536"/>
<path clip-path="url(#clip090)" d="M1898.82 347.543 L2256.76 347.543 L2256.76 88.3434 L1898.82 88.3434  Z" fill="#ffffff" fill-rule="evenodd" fill-opacity="1"/>
<polyline clip-path="url(#clip090)" style="stroke:#000000; stroke-linecap:round; stroke-linejoin:round; stroke-width:4; stroke-opacity:1; fill:none" points="1898.82,347.543 2256.76,347.543 2256.76,88.3434 1898.82,88.3434 1898.82,347.543 "/>
<polyline clip-path="url(#clip090)" style="stroke:#0000ff; stroke-linecap:round; stroke-linejoin:round; stroke-width:12; stroke-opacity:1; fill:none" points="1921.16,140.183 2055.23,140.183 "/>
<line clip-path="url(#clip090)" x1="1988.2" y1="140.183" x2="1988.2" y2="119.495" style="stroke:#0000ff; stroke-width:12; stroke-opacity:1"/>
<line clip-path="url(#clip090)" x1="1988.2" y1="140.183" x2="1967.51" y2="140.183" style="stroke:#0000ff; stroke-width:12; stroke-opacity:1"/>
<line clip-path="url(#clip090)" x1="1988.2" y1="140.183" x2="1988.2" y2="160.872" style="stroke:#0000ff; stroke-width:12; stroke-opacity:1"/>
<line clip-path="url(#clip090)" x1="1988.2" y1="140.183" x2="2008.88" y2="140.183" style="stroke:#0000ff; stroke-width:12; stroke-opacity:1"/>
<path clip-path="url(#clip090)" d="M2077.57 157.463 L2077.57 155.907 L2078.78 155.907 Q2081.52 155.907 2082.14 155.462 Q2082.78 154.993 2082.78 153.511 L2082.78 127.004 Q2082.78 125.547 2082.14 125.102 Q2081.5 124.633 2078.78 124.633 L2077.57 124.633 L2077.57 123.052 L2106.05 123.052 L2107.46 134.44 L2106.2 134.44 Q2105.86 131.55 2105.39 129.894 Q2104.94 128.215 2103.83 126.93 Q2102.74 125.646 2100.94 125.151 Q2099.16 124.633 2096.27 124.633 L2089.75 124.633 Q2088.02 124.633 2087.65 125.003 Q2087.28 125.349 2087.28 126.658 L2087.28 138.788 L2091.82 138.788 Q2095.31 138.788 2096.3 137.577 Q2097.28 136.367 2097.28 132.884 L2098.57 132.884 L2098.57 146.273 L2097.28 146.273 Q2097.28 142.839 2096.3 141.604 Q2095.31 140.369 2091.82 140.369 L2087.28 140.369 L2087.28 153.881 Q2087.28 155.191 2087.65 155.561 Q2088.04 155.907 2089.75 155.907 L2096.49 155.907 Q2098.67 155.907 2100.25 155.635 Q2101.85 155.339 2102.97 154.647 Q2104.08 153.931 2104.82 153.116 Q2105.58 152.3 2106.1 150.843 Q2106.65 149.361 2106.94 148.002 Q2107.26 146.643 2107.61 144.42 L2108.87 144.42 L2106.75 157.463 L2077.57 157.463 Z" fill="#000000" fill-rule="nonzero" fill-opacity="1" /><path clip-path="url(#clip090)" d="M2111.96 157.463 L2111.96 155.907 L2113.17 155.907 Q2115.91 155.907 2116.53 155.462 Q2117.17 154.993 2117.17 153.511 L2117.17 126.856 Q2117.17 125.398 2116.53 124.954 Q2115.89 124.484 2113.17 124.484 L2111.96 124.484 L2111.96 122.903 Q2113.74 123.052 2119.44 123.052 Q2125.1 123.052 2126.88 122.903 L2126.88 124.484 L2125.67 124.484 Q2122.93 124.484 2122.28 124.954 Q2121.67 125.398 2121.67 126.856 L2121.67 142.938 L2137.5 127.819 Q2138.41 127.004 2138.41 126.14 Q2138.41 125.843 2138.27 125.522 Q2138.14 125.176 2137.55 124.83 Q2136.98 124.484 2136.07 124.484 L2136.07 122.903 Q2137.8 123.052 2142.52 123.052 Q2145.5 123.052 2146.81 122.903 L2146.81 124.484 Q2142.61 124.534 2139.63 127.523 L2130.51 136.268 L2142.19 153.461 Q2143.26 155.018 2144.29 155.462 Q2145.33 155.907 2147.51 155.907 L2147.51 157.463 Q2144.32 157.315 2141.7 157.315 Q2136.24 157.315 2134.46 157.463 L2134.46 155.907 Q2137.45 155.907 2137.45 154.376 Q2137.45 153.807 2136.69 152.646 L2127.52 139.109 L2121.67 144.667 L2121.67 153.511 Q2121.67 154.968 2122.28 155.438 Q2122.93 155.907 2125.67 155.907 L2126.88 155.907 L2126.88 157.463 Q2125.1 157.315 2119.39 157.315 Q2113.74 157.315 2111.96 157.463 Z" fill="#000000" fill-rule="nonzero" fill-opacity="1" /><path clip-path="url(#clip090)" d="M2154.08 128.585 L2154.08 127.004 Q2160.15 127.004 2163.29 123.768 Q2164.16 123.768 2164.3 123.966 Q2164.45 124.163 2164.45 125.077 L2164.45 153.461 Q2164.45 154.968 2165.19 155.438 Q2165.93 155.907 2169.17 155.907 L2170.78 155.907 L2170.78 157.463 Q2169 157.315 2162.57 157.315 Q2156.15 157.315 2154.4 157.463 L2154.4 155.907 L2156 155.907 Q2159.19 155.907 2159.96 155.462 Q2160.72 154.993 2160.72 153.461 L2160.72 127.251 Q2158.08 128.585 2154.08 128.585 Z" fill="#000000" fill-rule="nonzero" fill-opacity="1" /><path clip-path="url(#clip090)" d="M2179.89 144.815 Q2179.89 136.268 2183.08 129.376 Q2184.44 126.485 2186.34 124.064 Q2188.24 121.644 2189.5 120.581 Q2190.76 119.519 2191.11 119.519 Q2191.6 119.519 2191.63 120.013 Q2191.63 120.26 2190.96 120.878 Q2182.81 129.178 2182.83 144.815 Q2182.83 160.502 2190.76 168.481 Q2191.63 169.346 2191.63 169.617 Q2191.63 170.112 2191.11 170.112 Q2190.76 170.112 2189.55 169.099 Q2188.34 168.086 2186.46 165.764 Q2184.59 163.442 2183.23 160.601 Q2179.89 153.709 2179.89 144.815 Z" fill="#000000" fill-rule="nonzero" fill-opacity="1" /><path clip-path="url(#clip090)" d="M2198.99 128.585 L2198.99 127.004 Q2205.06 127.004 2208.2 123.768 Q2209.07 123.768 2209.21 123.966 Q2209.36 124.163 2209.36 125.077 L2209.36 153.461 Q2209.36 154.968 2210.1 155.438 Q2210.85 155.907 2214.08 155.907 L2215.69 155.907 L2215.69 157.463 Q2213.91 157.315 2207.49 157.315 Q2201.06 157.315 2199.31 157.463 L2199.31 155.907 L2200.91 155.907 Q2204.1 155.907 2204.87 155.462 Q2205.63 154.993 2205.63 153.461 L2205.63 127.251 Q2202.99 128.585 2198.99 128.585 Z" fill="#000000" fill-rule="nonzero" fill-opacity="1" /><path clip-path="url(#clip090)" d="M2222.68 169.617 Q2222.68 169.37 2223.32 168.753 Q2231.47 160.453 2231.47 144.815 Q2231.47 129.129 2223.64 121.199 Q2222.68 120.285 2222.68 120.013 Q2222.68 119.519 2223.17 119.519 Q2223.52 119.519 2224.73 120.532 Q2225.96 121.545 2227.82 123.867 Q2229.69 126.189 2231.08 129.03 Q2234.41 135.922 2234.41 144.815 Q2234.41 153.363 2231.23 160.255 Q2229.87 163.145 2227.96 165.566 Q2226.06 167.987 2224.8 169.049 Q2223.54 170.112 2223.17 170.112 Q2222.68 170.112 2222.68 169.617 Z" fill="#000000" fill-rule="nonzero" fill-opacity="1" /><polyline clip-path="url(#clip090)" style="stroke:#5400aa; stroke-linecap:round; stroke-linejoin:round; stroke-width:12; stroke-opacity:1; fill:none" points="1921.16,192.023 2055.23,192.023 "/>
<circle clip-path="url(#clip090)" cx="1988.2" cy="192.023" r="18.6198" fill="#5400aa" fill-rule="evenodd" fill-opacity="1" stroke="#000000" stroke-opacity="1" stroke-width="2.31304"/>
<path clip-path="url(#clip090)" d="M2077.57 209.303 L2077.57 207.747 L2078.78 207.747 Q2081.52 207.747 2082.14 207.302 Q2082.78 206.833 2082.78 205.351 L2082.78 178.844 Q2082.78 177.387 2082.14 176.942 Q2081.5 176.473 2078.78 176.473 L2077.57 176.473 L2077.57 174.892 L2106.05 174.892 L2107.46 186.28 L2106.2 186.28 Q2105.86 183.39 2105.39 181.734 Q2104.94 180.055 2103.83 178.77 Q2102.74 177.486 2100.94 176.991 Q2099.16 176.473 2096.27 176.473 L2089.75 176.473 Q2088.02 176.473 2087.65 176.843 Q2087.28 177.189 2087.28 178.498 L2087.28 190.628 L2091.82 190.628 Q2095.31 190.628 2096.3 189.417 Q2097.28 188.207 2097.28 184.724 L2098.57 184.724 L2098.57 198.113 L2097.28 198.113 Q2097.28 194.679 2096.3 193.444 Q2095.31 192.209 2091.82 192.209 L2087.28 192.209 L2087.28 205.721 Q2087.28 207.031 2087.65 207.401 Q2088.04 207.747 2089.75 207.747 L2096.49 207.747 Q2098.67 207.747 2100.25 207.475 Q2101.85 207.179 2102.97 206.487 Q2104.08 205.771 2104.82 204.956 Q2105.58 204.14 2106.1 202.683 Q2106.65 201.201 2106.94 199.842 Q2107.26 198.483 2107.61 196.26 L2108.87 196.26 L2106.75 209.303 L2077.57 209.303 Z" fill="#000000" fill-rule="nonzero" fill-opacity="1" /><path clip-path="url(#clip090)" d="M2111.96 209.303 L2111.96 207.747 L2113.17 207.747 Q2115.91 207.747 2116.53 207.302 Q2117.17 206.833 2117.17 205.351 L2117.17 178.696 Q2117.17 177.238 2116.53 176.794 Q2115.89 176.324 2113.17 176.324 L2111.96 176.324 L2111.96 174.743 Q2113.74 174.892 2119.44 174.892 Q2125.1 174.892 2126.88 174.743 L2126.88 176.324 L2125.67 176.324 Q2122.93 176.324 2122.28 176.794 Q2121.67 177.238 2121.67 178.696 L2121.67 194.778 L2137.5 179.659 Q2138.41 178.844 2138.41 177.98 Q2138.41 177.683 2138.27 177.362 Q2138.14 177.016 2137.55 176.67 Q2136.98 176.324 2136.07 176.324 L2136.07 174.743 Q2137.8 174.892 2142.52 174.892 Q2145.5 174.892 2146.81 174.743 L2146.81 176.324 Q2142.61 176.374 2139.63 179.363 L2130.51 188.108 L2142.19 205.301 Q2143.26 206.858 2144.29 207.302 Q2145.33 207.747 2147.51 207.747 L2147.51 209.303 Q2144.32 209.155 2141.7 209.155 Q2136.24 209.155 2134.46 209.303 L2134.46 207.747 Q2137.45 207.747 2137.45 206.216 Q2137.45 205.647 2136.69 204.486 L2127.52 190.949 L2121.67 196.507 L2121.67 205.351 Q2121.67 206.808 2122.28 207.278 Q2122.93 207.747 2125.67 207.747 L2126.88 207.747 L2126.88 209.303 Q2125.1 209.155 2119.39 209.155 Q2113.74 209.155 2111.96 209.303 Z" fill="#000000" fill-rule="nonzero" fill-opacity="1" /><path clip-path="url(#clip090)" d="M2154.08 180.425 L2154.08 178.844 Q2160.15 178.844 2163.29 175.608 Q2164.16 175.608 2164.3 175.806 Q2164.45 176.003 2164.45 176.917 L2164.45 205.301 Q2164.45 206.808 2165.19 207.278 Q2165.93 207.747 2169.17 207.747 L2170.78 207.747 L2170.78 209.303 Q2169 209.155 2162.57 209.155 Q2156.15 209.155 2154.4 209.303 L2154.4 207.747 L2156 207.747 Q2159.19 207.747 2159.96 207.302 Q2160.72 206.833 2160.72 205.301 L2160.72 179.091 Q2158.08 180.425 2154.08 180.425 Z" fill="#000000" fill-rule="nonzero" fill-opacity="1" /><path clip-path="url(#clip090)" d="M2179.89 196.655 Q2179.89 188.108 2183.08 181.216 Q2184.44 178.325 2186.34 175.904 Q2188.24 173.484 2189.5 172.421 Q2190.76 171.359 2191.11 171.359 Q2191.6 171.359 2191.63 171.853 Q2191.63 172.1 2190.96 172.718 Q2182.81 181.018 2182.83 196.655 Q2182.83 212.342 2190.76 220.321 Q2191.63 221.186 2191.63 221.457 Q2191.63 221.952 2191.11 221.952 Q2190.76 221.952 2189.55 220.939 Q2188.34 219.926 2186.46 217.604 Q2184.59 215.282 2183.23 212.441 Q2179.89 205.549 2179.89 196.655 Z" fill="#000000" fill-rule="nonzero" fill-opacity="1" /><path clip-path="url(#clip090)" d="M2197.01 209.303 Q2197.01 208.389 2197.09 208.118 Q2197.18 207.846 2197.58 207.426 L2207.29 196.606 Q2212.6 190.628 2212.6 185.415 Q2212.6 182.031 2210.82 179.61 Q2209.07 177.189 2205.83 177.189 Q2203.61 177.189 2201.73 178.548 Q2199.85 179.906 2198.99 182.327 Q2199.14 182.278 2199.65 182.278 Q2200.91 182.278 2201.61 183.068 Q2202.32 183.859 2202.32 184.921 Q2202.32 186.28 2201.43 186.947 Q2200.57 187.589 2199.7 187.589 Q2199.36 187.589 2198.89 187.515 Q2198.44 187.441 2197.73 186.749 Q2197.01 186.033 2197.01 184.773 Q2197.01 181.24 2199.68 178.424 Q2202.37 175.608 2206.47 175.608 Q2211.12 175.608 2214.16 178.375 Q2217.22 181.117 2217.22 185.415 Q2217.22 186.922 2216.75 188.306 Q2216.3 189.664 2215.69 190.727 Q2215.09 191.789 2213.46 193.493 Q2211.83 195.198 2210.52 196.408 Q2209.21 197.619 2206.28 200.188 L2200.91 205.4 L2210.03 205.4 Q2214.48 205.4 2214.82 205.005 Q2215.32 204.289 2215.93 200.509 L2217.22 200.509 L2215.79 209.303 L2197.01 209.303 Z" fill="#000000" fill-rule="nonzero" fill-opacity="1" /><path clip-path="url(#clip090)" d="M2222.68 221.457 Q2222.68 221.21 2223.32 220.593 Q2231.47 212.293 2231.47 196.655 Q2231.47 180.969 2223.64 173.039 Q2222.68 172.125 2222.68 171.853 Q2222.68 171.359 2223.17 171.359 Q2223.52 171.359 2224.73 172.372 Q2225.96 173.385 2227.82 175.707 Q2229.69 178.029 2231.08 180.87 Q2234.41 187.762 2234.41 196.655 Q2234.41 205.203 2231.23 212.095 Q2229.87 214.985 2227.96 217.406 Q2226.06 219.827 2224.8 220.889 Q2223.54 221.952 2223.17 221.952 Q2222.68 221.952 2222.68 221.457 Z" fill="#000000" fill-rule="nonzero" fill-opacity="1" /><polyline clip-path="url(#clip090)" style="stroke:#a90055; stroke-linecap:round; stroke-linejoin:round; stroke-width:12; stroke-opacity:1; fill:none" points="1921.16,243.863 2055.23,243.863 "/>
<line clip-path="url(#clip090)" x1="1988.2" y1="243.863" x2="1988.2" y2="223.175" style="stroke:#a90055; stroke-width:12; stroke-opacity:1"/>
<line clip-path="url(#clip090)" x1="1988.2" y1="243.863" x2="1967.51" y2="243.863" style="stroke:#a90055; stroke-width:12; stroke-opacity:1"/>
<line clip-path="url(#clip090)" x1="1988.2" y1="243.863" x2="1988.2" y2="264.552" style="stroke:#a90055; stroke-width:12; stroke-opacity:1"/>
<line clip-path="url(#clip090)" x1="1988.2" y1="243.863" x2="2008.88" y2="243.863" style="stroke:#a90055; stroke-width:12; stroke-opacity:1"/>
<path clip-path="url(#clip090)" d="M2077.57 261.143 L2077.57 259.587 L2078.78 259.587 Q2081.52 259.587 2082.14 259.142 Q2082.78 258.673 2082.78 257.191 L2082.78 230.684 Q2082.78 229.227 2082.14 228.782 Q2081.5 228.313 2078.78 228.313 L2077.57 228.313 L2077.57 226.732 L2106.05 226.732 L2107.46 238.12 L2106.2 238.12 Q2105.86 235.23 2105.39 233.574 Q2104.94 231.895 2103.83 230.61 Q2102.74 229.326 2100.94 228.831 Q2099.16 228.313 2096.27 228.313 L2089.75 228.313 Q2088.02 228.313 2087.65 228.683 Q2087.28 229.029 2087.28 230.338 L2087.28 242.468 L2091.82 242.468 Q2095.31 242.468 2096.3 241.257 Q2097.28 240.047 2097.28 236.564 L2098.57 236.564 L2098.57 249.953 L2097.28 249.953 Q2097.28 246.519 2096.3 245.284 Q2095.31 244.049 2091.82 244.049 L2087.28 244.049 L2087.28 257.561 Q2087.28 258.871 2087.65 259.241 Q2088.04 259.587 2089.75 259.587 L2096.49 259.587 Q2098.67 259.587 2100.25 259.315 Q2101.85 259.019 2102.97 258.327 Q2104.08 257.611 2104.82 256.796 Q2105.58 255.98 2106.1 254.523 Q2106.65 253.041 2106.94 251.682 Q2107.26 250.323 2107.61 248.1 L2108.87 248.1 L2106.75 261.143 L2077.57 261.143 Z" fill="#000000" fill-rule="nonzero" fill-opacity="1" /><path clip-path="url(#clip090)" d="M2111.96 261.143 L2111.96 259.587 L2113.17 259.587 Q2115.91 259.587 2116.53 259.142 Q2117.17 258.673 2117.17 257.191 L2117.17 230.536 Q2117.17 229.078 2116.53 228.634 Q2115.89 228.164 2113.17 228.164 L2111.96 228.164 L2111.96 226.583 Q2113.74 226.732 2119.44 226.732 Q2125.1 226.732 2126.88 226.583 L2126.88 228.164 L2125.67 228.164 Q2122.93 228.164 2122.28 228.634 Q2121.67 229.078 2121.67 230.536 L2121.67 246.618 L2137.5 231.499 Q2138.41 230.684 2138.41 229.82 Q2138.41 229.523 2138.27 229.202 Q2138.14 228.856 2137.55 228.51 Q2136.98 228.164 2136.07 228.164 L2136.07 226.583 Q2137.8 226.732 2142.52 226.732 Q2145.5 226.732 2146.81 226.583 L2146.81 228.164 Q2142.61 228.214 2139.63 231.203 L2130.51 239.948 L2142.19 257.141 Q2143.26 258.698 2144.29 259.142 Q2145.33 259.587 2147.51 259.587 L2147.51 261.143 Q2144.32 260.995 2141.7 260.995 Q2136.24 260.995 2134.46 261.143 L2134.46 259.587 Q2137.45 259.587 2137.45 258.056 Q2137.45 257.487 2136.69 256.326 L2127.52 242.789 L2121.67 248.347 L2121.67 257.191 Q2121.67 258.648 2122.28 259.118 Q2122.93 259.587 2125.67 259.587 L2126.88 259.587 L2126.88 261.143 Q2125.1 260.995 2119.39 260.995 Q2113.74 260.995 2111.96 261.143 Z" fill="#000000" fill-rule="nonzero" fill-opacity="1" /><path clip-path="url(#clip090)" d="M2154.08 232.265 L2154.08 230.684 Q2160.15 230.684 2163.29 227.448 Q2164.16 227.448 2164.3 227.646 Q2164.45 227.843 2164.45 228.757 L2164.45 257.141 Q2164.45 258.648 2165.19 259.118 Q2165.93 259.587 2169.17 259.587 L2170.78 259.587 L2170.78 261.143 Q2169 260.995 2162.57 260.995 Q2156.15 260.995 2154.4 261.143 L2154.4 259.587 L2156 259.587 Q2159.19 259.587 2159.96 259.142 Q2160.72 258.673 2160.72 257.141 L2160.72 230.931 Q2158.08 232.265 2154.08 232.265 Z" fill="#000000" fill-rule="nonzero" fill-opacity="1" /><path clip-path="url(#clip090)" d="M2179.89 248.495 Q2179.89 239.948 2183.08 233.056 Q2184.44 230.165 2186.34 227.744 Q2188.24 225.324 2189.5 224.261 Q2190.76 223.199 2191.11 223.199 Q2191.6 223.199 2191.63 223.693 Q2191.63 223.94 2190.96 224.558 Q2182.81 232.858 2182.83 248.495 Q2182.83 264.182 2190.76 272.161 Q2191.63 273.026 2191.63 273.297 Q2191.63 273.792 2191.11 273.792 Q2190.76 273.792 2189.55 272.779 Q2188.34 271.766 2186.46 269.444 Q2184.59 267.122 2183.23 264.281 Q2179.89 257.389 2179.89 248.495 Z" fill="#000000" fill-rule="nonzero" fill-opacity="1" /><path clip-path="url(#clip090)" d="M2196.62 254.325 Q2196.62 252.818 2197.48 252.102 Q2198.35 251.386 2199.46 251.386 Q2200.62 251.386 2201.43 252.151 Q2202.27 252.893 2202.27 254.202 Q2202.27 255.61 2201.28 256.4 Q2200.32 257.191 2198.94 256.993 Q2200.15 259.019 2202.37 259.933 Q2204.62 260.847 2206.7 260.847 Q2208.87 260.847 2210.62 258.97 Q2212.4 257.092 2212.4 252.497 Q2212.4 248.594 2210.87 246.346 Q2209.36 244.098 2206.37 244.098 L2204.15 244.098 Q2203.38 244.098 2203.16 244.024 Q2202.94 243.95 2202.94 243.53 Q2202.94 243.036 2203.71 242.937 Q2204.47 242.937 2205.68 242.789 Q2208.62 242.69 2210.18 240.146 Q2211.59 237.774 2211.59 234.39 Q2211.59 231.302 2210.1 230.017 Q2208.65 228.708 2206.74 228.708 Q2204.97 228.708 2203.01 229.449 Q2201.06 230.19 2200 231.845 Q2203.14 231.845 2203.14 234.39 Q2203.14 235.501 2202.42 236.242 Q2201.73 236.959 2200.57 236.959 Q2199.46 236.959 2198.72 236.267 Q2197.97 235.551 2197.97 234.34 Q2197.97 231.45 2200.54 229.449 Q2203.14 227.448 2206.94 227.448 Q2210.7 227.448 2213.46 229.424 Q2216.26 231.401 2216.26 234.439 Q2216.26 237.428 2214.28 239.874 Q2212.3 242.319 2209.17 243.332 Q2213.02 244.098 2215.32 246.717 Q2217.61 249.311 2217.61 252.497 Q2217.61 256.45 2214.5 259.365 Q2211.39 262.255 2206.84 262.255 Q2202.64 262.255 2199.63 259.982 Q2196.62 257.71 2196.62 254.325 Z" fill="#000000" fill-rule="nonzero" fill-opacity="1" /><path clip-path="url(#clip090)" d="M2222.68 273.297 Q2222.68 273.05 2223.32 272.433 Q2231.47 264.133 2231.47 248.495 Q2231.47 232.809 2223.64 224.879 Q2222.68 223.965 2222.68 223.693 Q2222.68 223.199 2223.17 223.199 Q2223.52 223.199 2224.73 224.212 Q2225.96 225.225 2227.82 227.547 Q2229.69 229.869 2231.08 232.71 Q2234.41 239.602 2234.41 248.495 Q2234.41 257.043 2231.23 263.935 Q2229.87 266.825 2227.96 269.246 Q2226.06 271.667 2224.8 272.729 Q2223.54 273.792 2223.17 273.792 Q2222.68 273.792 2222.68 273.297 Z" fill="#000000" fill-rule="nonzero" fill-opacity="1" /><polyline clip-path="url(#clip090)" style="stroke:#ff0000; stroke-linecap:round; stroke-linejoin:round; stroke-width:12; stroke-opacity:1; fill:none" points="1921.16,295.703 2055.23,295.703 "/>
<path clip-path="url(#clip090)" d="M1988.2 275.015 L1967.51 295.703 L1988.2 316.392 L2008.88 295.703 L1988.2 275.015 Z" fill="#ff0000" fill-rule="evenodd" fill-opacity="1" stroke="#000000" stroke-opacity="1" stroke-width="2.31304"/>
<path clip-path="url(#clip090)" d="M2077.57 312.983 L2077.57 311.427 L2078.78 311.427 Q2081.52 311.427 2082.14 310.982 Q2082.78 310.513 2082.78 309.031 L2082.78 282.524 Q2082.78 281.067 2082.14 280.622 Q2081.5 280.153 2078.78 280.153 L2077.57 280.153 L2077.57 278.572 L2106.05 278.572 L2107.46 289.96 L2106.2 289.96 Q2105.86 287.07 2105.39 285.414 Q2104.94 283.735 2103.83 282.45 Q2102.74 281.166 2100.94 280.671 Q2099.16 280.153 2096.27 280.153 L2089.75 280.153 Q2088.02 280.153 2087.65 280.523 Q2087.28 280.869 2087.28 282.178 L2087.28 294.308 L2091.82 294.308 Q2095.31 294.308 2096.3 293.097 Q2097.28 291.887 2097.28 288.404 L2098.57 288.404 L2098.57 301.793 L2097.28 301.793 Q2097.28 298.359 2096.3 297.124 Q2095.31 295.889 2091.82 295.889 L2087.28 295.889 L2087.28 309.401 Q2087.28 310.711 2087.65 311.081 Q2088.04 311.427 2089.75 311.427 L2096.49 311.427 Q2098.67 311.427 2100.25 311.155 Q2101.85 310.859 2102.97 310.167 Q2104.08 309.451 2104.82 308.636 Q2105.58 307.82 2106.1 306.363 Q2106.65 304.881 2106.94 303.522 Q2107.26 302.163 2107.61 299.94 L2108.87 299.94 L2106.75 312.983 L2077.57 312.983 Z" fill="#000000" fill-rule="nonzero" fill-opacity="1" /><path clip-path="url(#clip090)" d="M2111.96 312.983 L2111.96 311.427 L2113.17 311.427 Q2115.91 311.427 2116.53 310.982 Q2117.17 310.513 2117.17 309.031 L2117.17 282.376 Q2117.17 280.918 2116.53 280.474 Q2115.89 280.004 2113.17 280.004 L2111.96 280.004 L2111.96 278.423 Q2113.74 278.572 2119.44 278.572 Q2125.1 278.572 2126.88 278.423 L2126.88 280.004 L2125.67 280.004 Q2122.93 280.004 2122.28 280.474 Q2121.67 280.918 2121.67 282.376 L2121.67 298.458 L2137.5 283.339 Q2138.41 282.524 2138.41 281.66 Q2138.41 281.363 2138.27 281.042 Q2138.14 280.696 2137.55 280.35 Q2136.98 280.004 2136.07 280.004 L2136.07 278.423 Q2137.8 278.572 2142.52 278.572 Q2145.5 278.572 2146.81 278.423 L2146.81 280.004 Q2142.61 280.054 2139.63 283.043 L2130.51 291.788 L2142.19 308.981 Q2143.26 310.538 2144.29 310.982 Q2145.33 311.427 2147.51 311.427 L2147.51 312.983 Q2144.32 312.835 2141.7 312.835 Q2136.24 312.835 2134.46 312.983 L2134.46 311.427 Q2137.45 311.427 2137.45 309.896 Q2137.45 309.327 2136.69 308.166 L2127.52 294.629 L2121.67 300.187 L2121.67 309.031 Q2121.67 310.488 2122.28 310.958 Q2122.93 311.427 2125.67 311.427 L2126.88 311.427 L2126.88 312.983 Q2125.1 312.835 2119.39 312.835 Q2113.74 312.835 2111.96 312.983 Z" fill="#000000" fill-rule="nonzero" fill-opacity="1" /><path clip-path="url(#clip090)" d="M2154.08 284.105 L2154.08 282.524 Q2160.15 282.524 2163.29 279.288 Q2164.16 279.288 2164.3 279.486 Q2164.45 279.683 2164.45 280.597 L2164.45 308.981 Q2164.45 310.488 2165.19 310.958 Q2165.93 311.427 2169.17 311.427 L2170.78 311.427 L2170.78 312.983 Q2169 312.835 2162.57 312.835 Q2156.15 312.835 2154.4 312.983 L2154.4 311.427 L2156 311.427 Q2159.19 311.427 2159.96 310.982 Q2160.72 310.513 2160.72 308.981 L2160.72 282.771 Q2158.08 284.105 2154.08 284.105 Z" fill="#000000" fill-rule="nonzero" fill-opacity="1" /><path clip-path="url(#clip090)" d="M2179.89 300.335 Q2179.89 291.788 2183.08 284.896 Q2184.44 282.005 2186.34 279.584 Q2188.24 277.164 2189.5 276.101 Q2190.76 275.039 2191.11 275.039 Q2191.6 275.039 2191.63 275.533 Q2191.63 275.78 2190.96 276.398 Q2182.81 284.698 2182.83 300.335 Q2182.83 316.022 2190.76 324.001 Q2191.63 324.866 2191.63 325.137 Q2191.63 325.632 2191.11 325.632 Q2190.76 325.632 2189.55 324.619 Q2188.34 323.606 2186.46 321.284 Q2184.59 318.962 2183.23 316.121 Q2179.89 309.229 2179.89 300.335 Z" fill="#000000" fill-rule="nonzero" fill-opacity="1" /><path clip-path="url(#clip090)" d="M2195.9 304.634 L2195.9 303.077 L2211.44 279.337 Q2211.83 278.72 2212.45 278.745 Q2213.02 278.745 2213.14 278.967 Q2213.27 279.189 2213.27 280.054 L2213.27 303.077 L2218.33 303.077 L2218.33 304.634 L2213.27 304.634 L2213.27 309.031 Q2213.27 310.488 2213.86 310.958 Q2214.48 311.427 2217.1 311.427 L2218.16 311.427 L2218.16 312.983 Q2216.08 312.835 2211.29 312.835 Q2206.52 312.835 2204.45 312.983 L2204.45 311.427 L2205.51 311.427 Q2208.13 311.427 2208.75 310.982 Q2209.36 310.513 2209.36 309.031 L2209.36 304.634 L2195.9 304.634 M2197.33 303.077 L2209.66 303.077 L2209.66 284.204 L2197.33 303.077 Z" fill="#000000" fill-rule="nonzero" fill-opacity="1" /><path clip-path="url(#clip090)" d="M2222.68 325.137 Q2222.68 324.89 2223.32 324.273 Q2231.47 315.973 2231.47 300.335 Q2231.47 284.649 2223.64 276.719 Q2222.68 275.805 2222.68 275.533 Q2222.68 275.039 2223.17 275.039 Q2223.52 275.039 2224.73 276.052 Q2225.96 277.065 2227.82 279.387 Q2229.69 281.709 2231.08 284.55 Q2234.41 291.442 2234.41 300.335 Q2234.41 308.883 2231.23 315.775 Q2229.87 318.665 2227.96 321.086 Q2226.06 323.507 2224.8 324.569 Q2223.54 325.632 2223.17 325.632 Q2222.68 325.632 2222.68 325.137 Z" fill="#000000" fill-rule="nonzero" fill-opacity="1" /></svg>
