<?xml version="1.0" encoding="utf-8"?>
<svg xmlns="http://www.w3.org/2000/svg" xmlns:xlink="http://www.w3.org/1999/xlink" width="576" height="384" viewBox="0 0 2304 1536">
<defs>
  <clipPath id="clip330">
    <rect x="0" y="0" width="2304" height="1536"/>
  </clipPath>
</defs>
<path clip-path="url(#clip330)" d="M0 1536 L2304 1536 L2304 0 L0 0  Z" fill="#ffffff" fill-rule="evenodd" fill-opacity="1"/>
<defs>
  <clipPath id="clip331">
    <rect x="460" y="0" width="1614" height="1536"/>
  </clipPath>
</defs>
<path clip-path="url(#clip330)" d="M278.238 1280.22 L1836.11 1280.22 L1836.11 47.2441 L278.238 47.2441  Z" fill="#ffffff" fill-rule="evenodd" fill-opacity="1"/>
<defs>
  <clipPath id="clip332">
    <rect x="278" y="47" width="1559" height="1234"/>
  </clipPath>
</defs>
<polyline clip-path="url(#clip332)" style="stroke:#000000; stroke-linecap:round; stroke-linejoin:round; stroke-width:2.8; stroke-opacity:0.4; fill:none" points="293.49,1280.22 293.49,47.2441 "/>
<polyline clip-path="url(#clip332)" style="stroke:#000000; stroke-linecap:round; stroke-linejoin:round; stroke-width:2.8; stroke-opacity:0.4; fill:none" points="560.411,1280.22 560.411,47.2441 "/>
<polyline clip-path="url(#clip332)" style="stroke:#000000; stroke-linecap:round; stroke-linejoin:round; stroke-width:2.8; stroke-opacity:0.4; fill:none" points="827.331,1280.22 827.331,47.2441 "/>
<polyline clip-path="url(#clip332)" style="stroke:#000000; stroke-linecap:round; stroke-linejoin:round; stroke-width:2.8; stroke-opacity:0.4; fill:none" points="1094.25,1280.22 1094.25,47.2441 "/>
<polyline clip-path="url(#clip332)" style="stroke:#000000; stroke-linecap:round; stroke-linejoin:round; stroke-width:2.8; stroke-opacity:0.4; fill:none" points="1361.17,1280.22 1361.17,47.2441 "/>
<polyline clip-path="url(#clip332)" style="stroke:#000000; stroke-linecap:round; stroke-linejoin:round; stroke-width:2.8; stroke-opacity:0.4; fill:none" points="1628.09,1280.22 1628.09,47.2441 "/>
<polyline clip-path="url(#clip332)" style="stroke:#000000; stroke-linecap:round; stroke-linejoin:round; stroke-width:2; stroke-opacity:0.06; fill:none" points="412.846,1280.22 412.846,47.2441 "/>
<polyline clip-path="url(#clip332)" style="stroke:#000000; stroke-linecap:round; stroke-linejoin:round; stroke-width:2; stroke-opacity:0.06; fill:none" points="470.394,1280.22 470.394,47.2441 "/>
<polyline clip-path="url(#clip332)" style="stroke:#000000; stroke-linecap:round; stroke-linejoin:round; stroke-width:2; stroke-opacity:0.06; fill:none" points="508.676,1280.22 508.676,47.2441 "/>
<polyline clip-path="url(#clip332)" style="stroke:#000000; stroke-linecap:round; stroke-linejoin:round; stroke-width:2; stroke-opacity:0.06; fill:none" points="537.406,1280.22 537.406,47.2441 "/>
<polyline clip-path="url(#clip332)" style="stroke:#000000; stroke-linecap:round; stroke-linejoin:round; stroke-width:2; stroke-opacity:0.06; fill:none" points="679.767,1280.22 679.767,47.2441 "/>
<polyline clip-path="url(#clip332)" style="stroke:#000000; stroke-linecap:round; stroke-linejoin:round; stroke-width:2; stroke-opacity:0.06; fill:none" points="737.315,1280.22 737.315,47.2441 "/>
<polyline clip-path="url(#clip332)" style="stroke:#000000; stroke-linecap:round; stroke-linejoin:round; stroke-width:2; stroke-opacity:0.06; fill:none" points="775.597,1280.22 775.597,47.2441 "/>
<polyline clip-path="url(#clip332)" style="stroke:#000000; stroke-linecap:round; stroke-linejoin:round; stroke-width:2; stroke-opacity:0.06; fill:none" points="804.327,1280.22 804.327,47.2441 "/>
<polyline clip-path="url(#clip332)" style="stroke:#000000; stroke-linecap:round; stroke-linejoin:round; stroke-width:2; stroke-opacity:0.06; fill:none" points="946.687,1280.22 946.687,47.2441 "/>
<polyline clip-path="url(#clip332)" style="stroke:#000000; stroke-linecap:round; stroke-linejoin:round; stroke-width:2; stroke-opacity:0.06; fill:none" points="1004.24,1280.22 1004.24,47.2441 "/>
<polyline clip-path="url(#clip332)" style="stroke:#000000; stroke-linecap:round; stroke-linejoin:round; stroke-width:2; stroke-opacity:0.06; fill:none" points="1042.52,1280.22 1042.52,47.2441 "/>
<polyline clip-path="url(#clip332)" style="stroke:#000000; stroke-linecap:round; stroke-linejoin:round; stroke-width:2; stroke-opacity:0.06; fill:none" points="1071.25,1280.22 1071.25,47.2441 "/>
<polyline clip-path="url(#clip332)" style="stroke:#000000; stroke-linecap:round; stroke-linejoin:round; stroke-width:2; stroke-opacity:0.06; fill:none" points="1213.61,1280.22 1213.61,47.2441 "/>
<polyline clip-path="url(#clip332)" style="stroke:#000000; stroke-linecap:round; stroke-linejoin:round; stroke-width:2; stroke-opacity:0.06; fill:none" points="1271.16,1280.22 1271.16,47.2441 "/>
<polyline clip-path="url(#clip332)" style="stroke:#000000; stroke-linecap:round; stroke-linejoin:round; stroke-width:2; stroke-opacity:0.06; fill:none" points="1309.44,1280.22 1309.44,47.2441 "/>
<polyline clip-path="url(#clip332)" style="stroke:#000000; stroke-linecap:round; stroke-linejoin:round; stroke-width:2; stroke-opacity:0.06; fill:none" points="1338.17,1280.22 1338.17,47.2441 "/>
<polyline clip-path="url(#clip332)" style="stroke:#000000; stroke-linecap:round; stroke-linejoin:round; stroke-width:2; stroke-opacity:0.06; fill:none" points="1480.53,1280.22 1480.53,47.2441 "/>
<polyline clip-path="url(#clip332)" style="stroke:#000000; stroke-linecap:round; stroke-linejoin:round; stroke-width:2; stroke-opacity:0.06; fill:none" points="1538.08,1280.22 1538.08,47.2441 "/>
<polyline clip-path="url(#clip332)" style="stroke:#000000; stroke-linecap:round; stroke-linejoin:round; stroke-width:2; stroke-opacity:0.06; fill:none" points="1576.36,1280.22 1576.36,47.2441 "/>
<polyline clip-path="url(#clip332)" style="stroke:#000000; stroke-linecap:round; stroke-linejoin:round; stroke-width:2; stroke-opacity:0.06; fill:none" points="1605.09,1280.22 1605.09,47.2441 "/>
<polyline clip-path="url(#clip332)" style="stroke:#000000; stroke-linecap:round; stroke-linejoin:round; stroke-width:2; stroke-opacity:0.06; fill:none" points="1747.45,1280.22 1747.45,47.2441 "/>
<polyline clip-path="url(#clip332)" style="stroke:#000000; stroke-linecap:round; stroke-linejoin:round; stroke-width:2; stroke-opacity:0.06; fill:none" points="1805,1280.22 1805,47.2441 "/>
<polyline clip-path="url(#clip330)" style="stroke:#000000; stroke-linecap:round; stroke-linejoin:round; stroke-width:4; stroke-opacity:1; fill:none" points="278.238,1280.22 1836.11,1280.22 "/>
<polyline clip-path="url(#clip330)" style="stroke:#000000; stroke-linecap:round; stroke-linejoin:round; stroke-width:4; stroke-opacity:1; fill:none" points="278.238,47.2441 1836.11,47.2441 "/>
<polyline clip-path="url(#clip330)" style="stroke:#000000; stroke-linecap:round; stroke-linejoin:round; stroke-width:4; stroke-opacity:1; fill:none" points="293.49,1280.22 293.49,1261.33 "/>
<polyline clip-path="url(#clip330)" style="stroke:#000000; stroke-linecap:round; stroke-linejoin:round; stroke-width:4; stroke-opacity:1; fill:none" points="560.411,1280.22 560.411,1261.33 "/>
<polyline clip-path="url(#clip330)" style="stroke:#000000; stroke-linecap:round; stroke-linejoin:round; stroke-width:4; stroke-opacity:1; fill:none" points="827.331,1280.22 827.331,1261.33 "/>
<polyline clip-path="url(#clip330)" style="stroke:#000000; stroke-linecap:round; stroke-linejoin:round; stroke-width:4; stroke-opacity:1; fill:none" points="1094.25,1280.22 1094.25,1261.33 "/>
<polyline clip-path="url(#clip330)" style="stroke:#000000; stroke-linecap:round; stroke-linejoin:round; stroke-width:4; stroke-opacity:1; fill:none" points="1361.17,1280.22 1361.17,1261.33 "/>
<polyline clip-path="url(#clip330)" style="stroke:#000000; stroke-linecap:round; stroke-linejoin:round; stroke-width:4; stroke-opacity:1; fill:none" points="1628.09,1280.22 1628.09,1261.33 "/>
<polyline clip-path="url(#clip330)" style="stroke:#000000; stroke-linecap:round; stroke-linejoin:round; stroke-width:4; stroke-opacity:1; fill:none" points="412.846,1280.22 412.846,1270.78 "/>
<polyline clip-path="url(#clip330)" style="stroke:#000000; stroke-linecap:round; stroke-linejoin:round; stroke-width:4; stroke-opacity:1; fill:none" points="470.394,1280.22 470.394,1270.78 "/>
<polyline clip-path="url(#clip330)" style="stroke:#000000; stroke-linecap:round; stroke-linejoin:round; stroke-width:4; stroke-opacity:1; fill:none" points="508.676,1280.22 508.676,1270.78 "/>
<polyline clip-path="url(#clip330)" style="stroke:#000000; stroke-linecap:round; stroke-linejoin:round; stroke-width:4; stroke-opacity:1; fill:none" points="537.406,1280.22 537.406,1270.78 "/>
<polyline clip-path="url(#clip330)" style="stroke:#000000; stroke-linecap:round; stroke-linejoin:round; stroke-width:4; stroke-opacity:1; fill:none" points="679.767,1280.22 679.767,1270.78 "/>
<polyline clip-path="url(#clip330)" style="stroke:#000000; stroke-linecap:round; stroke-linejoin:round; stroke-width:4; stroke-opacity:1; fill:none" points="737.315,1280.22 737.315,1270.78 "/>
<polyline clip-path="url(#clip330)" style="stroke:#000000; stroke-linecap:round; stroke-linejoin:round; stroke-width:4; stroke-opacity:1; fill:none" points="775.597,1280.22 775.597,1270.78 "/>
<polyline clip-path="url(#clip330)" style="stroke:#000000; stroke-linecap:round; stroke-linejoin:round; stroke-width:4; stroke-opacity:1; fill:none" points="804.327,1280.22 804.327,1270.78 "/>
<polyline clip-path="url(#clip330)" style="stroke:#000000; stroke-linecap:round; stroke-linejoin:round; stroke-width:4; stroke-opacity:1; fill:none" points="946.687,1280.22 946.687,1270.78 "/>
<polyline clip-path="url(#clip330)" style="stroke:#000000; stroke-linecap:round; stroke-linejoin:round; stroke-width:4; stroke-opacity:1; fill:none" points="1004.24,1280.22 1004.24,1270.78 "/>
<polyline clip-path="url(#clip330)" style="stroke:#000000; stroke-linecap:round; stroke-linejoin:round; stroke-width:4; stroke-opacity:1; fill:none" points="1042.52,1280.22 1042.52,1270.78 "/>
<polyline clip-path="url(#clip330)" style="stroke:#000000; stroke-linecap:round; stroke-linejoin:round; stroke-width:4; stroke-opacity:1; fill:none" points="1071.25,1280.22 1071.25,1270.78 "/>
<polyline clip-path="url(#clip330)" style="stroke:#000000; stroke-linecap:round; stroke-linejoin:round; stroke-width:4; stroke-opacity:1; fill:none" points="1213.61,1280.22 1213.61,1270.78 "/>
<polyline clip-path="url(#clip330)" style="stroke:#000000; stroke-linecap:round; stroke-linejoin:round; stroke-width:4; stroke-opacity:1; fill:none" points="1271.16,1280.22 1271.16,1270.78 "/>
<polyline clip-path="url(#clip330)" style="stroke:#000000; stroke-linecap:round; stroke-linejoin:round; stroke-width:4; stroke-opacity:1; fill:none" points="1309.44,1280.22 1309.44,1270.78 "/>
<polyline clip-path="url(#clip330)" style="stroke:#000000; stroke-linecap:round; stroke-linejoin:round; stroke-width:4; stroke-opacity:1; fill:none" points="1338.17,1280.22 1338.17,1270.78 "/>
<polyline clip-path="url(#clip330)" style="stroke:#000000; stroke-linecap:round; stroke-linejoin:round; stroke-width:4; stroke-opacity:1; fill:none" points="1480.53,1280.22 1480.53,1270.78 "/>
<polyline clip-path="url(#clip330)" style="stroke:#000000; stroke-linecap:round; stroke-linejoin:round; stroke-width:4; stroke-opacity:1; fill:none" points="1538.08,1280.22 1538.08,1270.78 "/>
<polyline clip-path="url(#clip330)" style="stroke:#000000; stroke-linecap:round; stroke-linejoin:round; stroke-width:4; stroke-opacity:1; fill:none" points="1576.36,1280.22 1576.36,1270.78 "/>
<polyline clip-path="url(#clip330)" style="stroke:#000000; stroke-linecap:round; stroke-linejoin:round; stroke-width:4; stroke-opacity:1; fill:none" points="1605.09,1280.22 1605.09,1270.78 "/>
<polyline clip-path="url(#clip330)" style="stroke:#000000; stroke-linecap:round; stroke-linejoin:round; stroke-width:4; stroke-opacity:1; fill:none" points="1747.45,1280.22 1747.45,1270.78 "/>
<polyline clip-path="url(#clip330)" style="stroke:#000000; stroke-linecap:round; stroke-linejoin:round; stroke-width:4; stroke-opacity:1; fill:none" points="1805,1280.22 1805,1270.78 "/>
<path clip-path="url(#clip330)" d="M248.011 1328.64 L248.011 1327.06 Q254.089 1327.06 257.226 1323.82 Q258.09 1323.82 258.239 1324.02 Q258.387 1324.22 258.387 1325.13 L258.387 1353.51 Q258.387 1355.02 259.128 1355.49 Q259.869 1355.96 263.105 1355.96 L264.711 1355.96 L264.711 1357.52 Q262.932 1357.37 256.509 1357.37 Q250.087 1357.37 248.333 1357.52 L248.333 1355.96 L249.938 1355.96 Q253.125 1355.96 253.891 1355.52 Q254.657 1355.05 254.657 1353.51 L254.657 1327.3 Q252.013 1328.64 248.011 1328.64 Z" fill="#000000" fill-rule="nonzero" fill-opacity="1" /><path clip-path="url(#clip330)" d="M270.788 1341.34 Q270.788 1333.9 272.665 1329.85 Q275.284 1323.82 281.46 1323.82 Q282.769 1323.82 284.128 1324.19 Q285.511 1324.54 287.24 1325.9 Q288.994 1327.25 290.057 1329.48 Q292.082 1333.78 292.082 1341.34 Q292.082 1348.72 290.205 1352.75 Q287.463 1358.63 281.41 1358.63 Q279.138 1358.63 276.816 1357.47 Q274.518 1356.31 273.061 1353.51 Q270.788 1349.34 270.788 1341.34 M274.988 1340.72 Q274.988 1348.35 275.531 1351.39 Q276.149 1354.68 277.828 1356.11 Q279.533 1357.52 281.41 1357.52 Q283.436 1357.52 285.116 1356.01 Q286.82 1354.48 287.339 1351.19 Q287.907 1347.96 287.883 1340.72 Q287.883 1333.68 287.389 1330.86 Q286.722 1327.58 284.943 1326.27 Q283.189 1324.93 281.41 1324.93 Q280.743 1324.93 280.027 1325.13 Q279.335 1325.33 278.323 1325.9 Q277.31 1326.46 276.519 1327.87 Q275.753 1329.28 275.383 1331.41 Q274.988 1334.15 274.988 1340.72 Z" fill="#000000" fill-rule="nonzero" fill-opacity="1" /><path clip-path="url(#clip330)" d="M319.219 1319.25 Q319.46 1319.49 319.46 1319.83 Q319.46 1320.17 319.219 1320.41 Q318.978 1320.65 318.637 1320.65 L292.905 1320.65 Q292.564 1320.65 292.323 1320.41 Q292.082 1320.17 292.082 1319.83 Q292.082 1319.49 292.323 1319.25 Q292.564 1319.01 292.905 1319.01 L318.637 1319.01 Q318.978 1319.01 319.219 1319.25 Z" fill="#000000" fill-rule="nonzero" fill-opacity="1" /><path clip-path="url(#clip330)" d="M325.401 1306.64 L325.401 1305.36 Q330.339 1305.36 332.888 1302.73 Q333.59 1302.73 333.711 1302.89 Q333.831 1303.05 333.831 1303.79 L333.831 1326.85 Q333.831 1328.08 334.433 1328.46 Q335.035 1328.84 337.665 1328.84 L338.969 1328.84 L338.969 1330.11 Q337.524 1329.99 332.306 1329.99 Q327.087 1329.99 325.662 1330.11 L325.662 1328.84 L326.967 1328.84 Q329.556 1328.84 330.178 1328.48 Q330.8 1328.1 330.8 1326.85 L330.8 1305.56 Q328.653 1306.64 325.401 1306.64 Z" fill="#000000" fill-rule="nonzero" fill-opacity="1" /><path clip-path="url(#clip330)" d="M529.725 1328.64 L529.725 1327.06 Q535.802 1327.06 538.939 1323.82 Q539.804 1323.82 539.952 1324.02 Q540.1 1324.22 540.1 1325.13 L540.1 1353.51 Q540.1 1355.02 540.841 1355.49 Q541.582 1355.96 544.818 1355.96 L546.424 1355.96 L546.424 1357.52 Q544.646 1357.37 538.223 1357.37 Q531.8 1357.37 530.046 1357.52 L530.046 1355.96 L531.652 1355.96 Q534.838 1355.96 535.604 1355.52 Q536.37 1355.05 536.37 1353.51 L536.37 1327.3 Q533.727 1328.64 529.725 1328.64 Z" fill="#000000" fill-rule="nonzero" fill-opacity="1" /><path clip-path="url(#clip330)" d="M552.501 1341.34 Q552.501 1333.9 554.379 1329.85 Q556.997 1323.82 563.173 1323.82 Q564.482 1323.82 565.841 1324.19 Q567.224 1324.54 568.954 1325.9 Q570.708 1327.25 571.77 1329.48 Q573.795 1333.78 573.795 1341.34 Q573.795 1348.72 571.918 1352.75 Q569.176 1358.63 563.124 1358.63 Q560.851 1358.63 558.529 1357.47 Q556.231 1356.31 554.774 1353.51 Q552.501 1349.34 552.501 1341.34 M556.701 1340.72 Q556.701 1348.35 557.244 1351.39 Q557.862 1354.68 559.542 1356.11 Q561.246 1357.52 563.124 1357.52 Q565.149 1357.52 566.829 1356.01 Q568.534 1354.48 569.052 1351.19 Q569.621 1347.96 569.596 1340.72 Q569.596 1333.68 569.102 1330.86 Q568.435 1327.58 566.656 1326.27 Q564.902 1324.93 563.124 1324.93 Q562.457 1324.93 561.74 1325.13 Q561.049 1325.33 560.036 1325.9 Q559.023 1326.46 558.232 1327.87 Q557.467 1329.28 557.096 1331.41 Q556.701 1334.15 556.701 1340.72 Z" fill="#000000" fill-rule="nonzero" fill-opacity="1" /><path clip-path="url(#clip330)" d="M573.795 1316.96 Q573.795 1310.92 575.321 1307.63 Q577.448 1302.73 582.466 1302.73 Q583.53 1302.73 584.634 1303.03 Q585.758 1303.31 587.163 1304.41 Q588.588 1305.52 589.451 1307.32 Q591.097 1310.82 591.097 1316.96 Q591.097 1322.96 589.572 1326.23 Q587.344 1331.01 582.426 1331.01 Q580.58 1331.01 578.693 1330.07 Q576.826 1329.12 575.642 1326.85 Q573.795 1323.46 573.795 1316.96 M577.208 1316.46 Q577.208 1322.66 577.649 1325.13 Q578.151 1327.8 579.516 1328.96 Q580.901 1330.11 582.426 1330.11 Q584.072 1330.11 585.437 1328.88 Q586.822 1327.64 587.243 1324.97 Q587.705 1322.34 587.685 1316.46 Q587.685 1310.74 587.284 1308.45 Q586.742 1305.78 585.296 1304.72 Q583.871 1303.63 582.426 1303.63 Q581.884 1303.63 581.302 1303.79 Q580.74 1303.95 579.917 1304.41 Q579.094 1304.88 578.452 1306.02 Q577.83 1307.16 577.529 1308.89 Q577.208 1311.12 577.208 1316.46 Z" fill="#000000" fill-rule="nonzero" fill-opacity="1" /><path clip-path="url(#clip330)" d="M798.512 1328.64 L798.512 1327.06 Q804.589 1327.06 807.726 1323.82 Q808.591 1323.82 808.739 1324.02 Q808.887 1324.22 808.887 1325.13 L808.887 1353.51 Q808.887 1355.02 809.628 1355.49 Q810.369 1355.96 813.606 1355.96 L815.211 1355.96 L815.211 1357.52 Q813.433 1357.37 807.01 1357.37 Q800.587 1357.37 798.833 1357.52 L798.833 1355.96 L800.439 1355.96 Q803.625 1355.96 804.391 1355.52 Q805.157 1355.05 805.157 1353.51 L805.157 1327.3 Q802.514 1328.64 798.512 1328.64 Z" fill="#000000" fill-rule="nonzero" fill-opacity="1" /><path clip-path="url(#clip330)" d="M821.288 1341.34 Q821.288 1333.9 823.166 1329.85 Q825.784 1323.82 831.96 1323.82 Q833.269 1323.82 834.628 1324.19 Q836.012 1324.54 837.741 1325.9 Q839.495 1327.25 840.557 1329.48 Q842.583 1333.78 842.583 1341.34 Q842.583 1348.72 840.705 1352.75 Q837.963 1358.63 831.911 1358.63 Q829.638 1358.63 827.316 1357.47 Q825.019 1356.31 823.561 1353.51 Q821.288 1349.34 821.288 1341.34 M825.488 1340.72 Q825.488 1348.35 826.031 1351.39 Q826.649 1354.68 828.329 1356.11 Q830.033 1357.52 831.911 1357.52 Q833.936 1357.52 835.616 1356.01 Q837.321 1354.48 837.84 1351.19 Q838.408 1347.96 838.383 1340.72 Q838.383 1333.68 837.889 1330.86 Q837.222 1327.58 835.443 1326.27 Q833.689 1324.93 831.911 1324.93 Q831.244 1324.93 830.527 1325.13 Q829.836 1325.33 828.823 1325.9 Q827.81 1326.46 827.02 1327.87 Q826.254 1329.28 825.883 1331.41 Q825.488 1334.15 825.488 1340.72 Z" fill="#000000" fill-rule="nonzero" fill-opacity="1" /><path clip-path="url(#clip330)" d="M842.583 1306.64 L842.583 1305.36 Q847.52 1305.36 850.069 1302.73 Q850.772 1302.73 850.892 1302.89 Q851.013 1303.05 851.013 1303.79 L851.013 1326.85 Q851.013 1328.08 851.615 1328.46 Q852.217 1328.84 854.846 1328.84 L856.151 1328.84 L856.151 1330.11 Q854.706 1329.99 849.487 1329.99 Q844.269 1329.99 842.844 1330.11 L842.844 1328.84 L844.148 1328.84 Q846.737 1328.84 847.36 1328.48 Q847.982 1328.1 847.982 1326.85 L847.982 1305.56 Q845.834 1306.64 842.583 1306.64 Z" fill="#000000" fill-rule="nonzero" fill-opacity="1" /><path clip-path="url(#clip330)" d="M1064.01 1328.64 L1064.01 1327.06 Q1070.08 1327.06 1073.22 1323.82 Q1074.09 1323.82 1074.23 1324.02 Q1074.38 1324.22 1074.38 1325.13 L1074.38 1353.51 Q1074.38 1355.02 1075.12 1355.49 Q1075.86 1355.96 1079.1 1355.96 L1080.71 1355.96 L1080.71 1357.52 Q1078.93 1357.37 1072.51 1357.37 Q1066.08 1357.37 1064.33 1357.52 L1064.33 1355.96 L1065.93 1355.96 Q1069.12 1355.96 1069.89 1355.52 Q1070.65 1355.05 1070.65 1353.51 L1070.65 1327.3 Q1068.01 1328.64 1064.01 1328.64 Z" fill="#000000" fill-rule="nonzero" fill-opacity="1" /><path clip-path="url(#clip330)" d="M1086.78 1341.34 Q1086.78 1333.9 1088.66 1329.85 Q1091.28 1323.82 1097.46 1323.82 Q1098.76 1323.82 1100.12 1324.19 Q1101.51 1324.54 1103.24 1325.9 Q1104.99 1327.25 1106.05 1329.48 Q1108.08 1333.78 1108.08 1341.34 Q1108.08 1348.72 1106.2 1352.75 Q1103.46 1358.63 1097.41 1358.63 Q1095.13 1358.63 1092.81 1357.47 Q1090.51 1356.31 1089.06 1353.51 Q1086.78 1349.34 1086.78 1341.34 M1090.98 1340.72 Q1090.98 1348.35 1091.53 1351.39 Q1092.14 1354.68 1093.82 1356.11 Q1095.53 1357.52 1097.41 1357.52 Q1099.43 1357.52 1101.11 1356.01 Q1102.82 1354.48 1103.34 1351.19 Q1103.9 1347.96 1103.88 1340.72 Q1103.88 1333.68 1103.38 1330.86 Q1102.72 1327.58 1100.94 1326.27 Q1099.18 1324.93 1097.41 1324.93 Q1096.74 1324.93 1096.02 1325.13 Q1095.33 1325.33 1094.32 1325.9 Q1093.31 1326.46 1092.51 1327.87 Q1091.75 1329.28 1091.38 1331.41 Q1090.98 1334.15 1090.98 1340.72 Z" fill="#000000" fill-rule="nonzero" fill-opacity="1" /><path clip-path="url(#clip330)" d="M1108.08 1330.11 Q1108.08 1329.36 1108.14 1329.14 Q1108.22 1328.92 1108.54 1328.58 L1116.43 1319.79 Q1120.74 1314.93 1120.74 1310.7 Q1120.74 1307.95 1119.3 1305.98 Q1117.87 1304.01 1115.24 1304.01 Q1113.44 1304.01 1111.91 1305.12 Q1110.39 1306.22 1109.68 1308.19 Q1109.8 1308.15 1110.23 1308.15 Q1111.25 1308.15 1111.81 1308.79 Q1112.39 1309.43 1112.39 1310.3 Q1112.39 1311.4 1111.67 1311.94 Q1110.97 1312.46 1110.27 1312.46 Q1109.98 1312.46 1109.6 1312.4 Q1109.24 1312.34 1108.66 1311.78 Q1108.08 1311.2 1108.08 1310.18 Q1108.08 1307.3 1110.25 1305.02 Q1112.43 1302.73 1115.77 1302.73 Q1119.54 1302.73 1122.01 1304.98 Q1124.5 1307.2 1124.5 1310.7 Q1124.5 1311.92 1124.12 1313.05 Q1123.75 1314.15 1123.25 1315.01 Q1122.77 1315.88 1121.45 1317.26 Q1120.12 1318.65 1119.06 1319.63 Q1117.99 1320.61 1115.6 1322.7 L1111.25 1326.93 L1118.66 1326.93 Q1122.27 1326.93 1122.55 1326.61 Q1122.95 1326.03 1123.45 1322.96 L1124.5 1322.96 L1123.33 1330.11 L1108.08 1330.11 Z" fill="#000000" fill-rule="nonzero" fill-opacity="1" /><path clip-path="url(#clip330)" d="M1330.61 1328.64 L1330.61 1327.06 Q1336.68 1327.06 1339.82 1323.82 Q1340.69 1323.82 1340.83 1324.02 Q1340.98 1324.22 1340.98 1325.13 L1340.98 1353.51 Q1340.98 1355.02 1341.72 1355.49 Q1342.46 1355.96 1345.7 1355.96 L1347.31 1355.96 L1347.31 1357.52 Q1345.53 1357.37 1339.1 1357.37 Q1332.68 1357.37 1330.93 1357.52 L1330.93 1355.96 L1332.53 1355.96 Q1335.72 1355.96 1336.49 1355.52 Q1337.25 1355.05 1337.25 1353.51 L1337.25 1327.3 Q1334.61 1328.64 1330.61 1328.64 Z" fill="#000000" fill-rule="nonzero" fill-opacity="1" /><path clip-path="url(#clip330)" d="M1353.38 1341.34 Q1353.38 1333.9 1355.26 1329.85 Q1357.88 1323.82 1364.06 1323.82 Q1365.36 1323.82 1366.72 1324.19 Q1368.11 1324.54 1369.84 1325.9 Q1371.59 1327.25 1372.65 1329.48 Q1374.68 1333.78 1374.68 1341.34 Q1374.68 1348.72 1372.8 1352.75 Q1370.06 1358.63 1364.01 1358.63 Q1361.73 1358.63 1359.41 1357.47 Q1357.11 1356.31 1355.66 1353.51 Q1353.38 1349.34 1353.38 1341.34 M1357.58 1340.72 Q1357.58 1348.35 1358.13 1351.39 Q1358.74 1354.68 1360.42 1356.11 Q1362.13 1357.52 1364.01 1357.52 Q1366.03 1357.52 1367.71 1356.01 Q1369.42 1354.48 1369.93 1351.19 Q1370.5 1347.96 1370.48 1340.72 Q1370.48 1333.68 1369.98 1330.86 Q1369.32 1327.58 1367.54 1326.27 Q1365.78 1324.93 1364.01 1324.93 Q1363.34 1324.93 1362.62 1325.13 Q1361.93 1325.33 1360.92 1325.9 Q1359.9 1326.46 1359.11 1327.87 Q1358.35 1329.28 1357.98 1331.41 Q1357.58 1334.15 1357.58 1340.72 Z" fill="#000000" fill-rule="nonzero" fill-opacity="1" /><path clip-path="url(#clip330)" d="M1374.68 1324.57 Q1374.68 1323.34 1375.38 1322.76 Q1376.08 1322.18 1376.99 1322.18 Q1377.93 1322.18 1378.59 1322.8 Q1379.27 1323.4 1379.27 1324.47 Q1379.27 1325.61 1378.47 1326.25 Q1377.69 1326.89 1376.56 1326.73 Q1377.55 1328.38 1379.35 1329.12 Q1381.18 1329.87 1382.87 1329.87 Q1384.63 1329.87 1386.06 1328.34 Q1387.5 1326.81 1387.5 1323.08 Q1387.5 1319.91 1386.26 1318.08 Q1385.03 1316.26 1382.61 1316.26 L1380.8 1316.26 Q1380.18 1316.26 1380 1316.2 Q1379.82 1316.14 1379.82 1315.8 Q1379.82 1315.39 1380.44 1315.31 Q1381.06 1315.31 1382.04 1315.19 Q1384.43 1315.11 1385.7 1313.05 Q1386.84 1311.12 1386.84 1308.37 Q1386.84 1305.86 1385.64 1304.82 Q1384.45 1303.75 1382.91 1303.75 Q1381.46 1303.75 1379.88 1304.35 Q1378.29 1304.96 1377.43 1306.3 Q1379.98 1306.3 1379.98 1308.37 Q1379.98 1309.27 1379.39 1309.87 Q1378.83 1310.46 1377.89 1310.46 Q1376.99 1310.46 1376.38 1309.89 Q1375.78 1309.31 1375.78 1308.33 Q1375.78 1305.98 1377.87 1304.35 Q1379.98 1302.73 1383.07 1302.73 Q1386.12 1302.73 1388.37 1304.33 Q1390.63 1305.94 1390.63 1308.41 Q1390.63 1310.84 1389.03 1312.82 Q1387.42 1314.81 1384.87 1315.63 Q1388 1316.26 1389.87 1318.38 Q1391.74 1320.49 1391.74 1323.08 Q1391.74 1326.29 1389.21 1328.66 Q1386.68 1331.01 1382.99 1331.01 Q1379.57 1331.01 1377.13 1329.16 Q1374.68 1327.32 1374.68 1324.57 Z" fill="#000000" fill-rule="nonzero" fill-opacity="1" /><path clip-path="url(#clip330)" d="M1596.95 1328.64 L1596.95 1327.06 Q1603.02 1327.06 1606.16 1323.82 Q1607.02 1323.82 1607.17 1324.02 Q1607.32 1324.22 1607.32 1325.13 L1607.32 1353.51 Q1607.32 1355.02 1608.06 1355.49 Q1608.8 1355.96 1612.04 1355.96 L1613.64 1355.96 L1613.64 1357.52 Q1611.87 1357.37 1605.44 1357.37 Q1599.02 1357.37 1597.27 1357.52 L1597.27 1355.96 L1598.87 1355.96 Q1602.06 1355.96 1602.82 1355.52 Q1603.59 1355.05 1603.59 1353.51 L1603.59 1327.3 Q1600.95 1328.64 1596.95 1328.64 Z" fill="#000000" fill-rule="nonzero" fill-opacity="1" /><path clip-path="url(#clip330)" d="M1619.72 1341.34 Q1619.72 1333.9 1621.6 1329.85 Q1624.22 1323.82 1630.39 1323.82 Q1631.7 1323.82 1633.06 1324.19 Q1634.44 1324.54 1636.17 1325.9 Q1637.93 1327.25 1638.99 1329.48 Q1641.02 1333.78 1641.02 1341.34 Q1641.02 1348.72 1639.14 1352.75 Q1636.4 1358.63 1630.34 1358.63 Q1628.07 1358.63 1625.75 1357.47 Q1623.45 1356.31 1621.99 1353.51 Q1619.72 1349.34 1619.72 1341.34 M1623.92 1340.72 Q1623.92 1348.35 1624.46 1351.39 Q1625.08 1354.68 1626.76 1356.11 Q1628.47 1357.52 1630.34 1357.52 Q1632.37 1357.52 1634.05 1356.01 Q1635.75 1354.48 1636.27 1351.19 Q1636.84 1347.96 1636.82 1340.72 Q1636.82 1333.68 1636.32 1330.86 Q1635.66 1327.58 1633.88 1326.27 Q1632.12 1324.93 1630.34 1324.93 Q1629.68 1324.93 1628.96 1325.13 Q1628.27 1325.33 1627.26 1325.9 Q1626.24 1326.46 1625.45 1327.87 Q1624.69 1329.28 1624.32 1331.41 Q1623.92 1334.15 1623.92 1340.72 Z" fill="#000000" fill-rule="nonzero" fill-opacity="1" /><path clip-path="url(#clip330)" d="M1641.02 1323.32 L1641.02 1322.06 L1653.64 1302.77 Q1653.96 1302.27 1654.46 1302.29 Q1654.93 1302.29 1655.03 1302.47 Q1655.13 1302.65 1655.13 1303.35 L1655.13 1322.06 L1659.24 1322.06 L1659.24 1323.32 L1655.13 1323.32 L1655.13 1326.89 Q1655.13 1328.08 1655.61 1328.46 Q1656.11 1328.84 1658.24 1328.84 L1659.1 1328.84 L1659.1 1330.11 Q1657.41 1329.99 1653.52 1329.99 Q1649.65 1329.99 1647.96 1330.11 L1647.96 1328.84 L1648.82 1328.84 Q1650.95 1328.84 1651.45 1328.48 Q1651.95 1328.1 1651.95 1326.89 L1651.95 1323.32 L1641.02 1323.32 M1642.18 1322.06 L1652.2 1322.06 L1652.2 1306.72 L1642.18 1322.06 Z" fill="#000000" fill-rule="nonzero" fill-opacity="1" /><path clip-path="url(#clip330)" d="M901.432 1447.26 L901.432 1444.92 L903.248 1444.92 Q907.361 1444.92 908.288 1444.26 Q909.251 1443.55 909.251 1441.33 L909.251 1401.57 Q909.251 1399.38 908.288 1398.72 Q907.324 1398.01 903.248 1398.01 L901.432 1398.01 L901.432 1395.64 L944.157 1395.64 L946.269 1412.72 L944.379 1412.72 Q943.861 1408.39 943.156 1405.9 Q942.489 1403.38 940.822 1401.46 Q939.192 1399.53 936.487 1398.79 Q933.819 1398.01 929.483 1398.01 L919.701 1398.01 Q917.107 1398.01 916.551 1398.57 Q915.995 1399.09 915.995 1401.05 L915.995 1419.24 L922.813 1419.24 Q928.038 1419.24 929.52 1417.43 Q931.002 1415.61 931.002 1410.39 L932.929 1410.39 L932.929 1430.47 L931.002 1430.47 Q931.002 1425.32 929.52 1423.47 Q928.038 1421.62 922.813 1421.62 L915.995 1421.62 L915.995 1441.88 Q915.995 1443.85 916.551 1444.4 Q917.144 1444.92 919.701 1444.92 L929.817 1444.92 Q933.078 1444.92 935.449 1444.52 Q937.858 1444.07 939.525 1443.03 Q941.193 1441.96 942.304 1440.74 Q943.453 1439.51 944.231 1437.33 Q945.046 1435.1 945.491 1433.07 Q945.973 1431.03 946.491 1427.69 L948.381 1427.69 L945.195 1447.26 L901.432 1447.26 Z" fill="#000000" fill-rule="nonzero" fill-opacity="1" /><path clip-path="url(#clip330)" d="M952.606 1447.26 L952.606 1444.92 Q956.645 1444.92 957.571 1444.44 Q958.534 1443.92 958.534 1441.48 L958.534 1421.13 Q958.534 1418.32 957.534 1417.61 Q956.57 1416.91 952.606 1416.91 L952.606 1414.54 L963.166 1413.72 L963.166 1422.06 Q964.241 1418.8 966.501 1416.28 Q968.799 1413.72 972.504 1413.72 Q974.95 1413.72 976.506 1415.09 Q978.099 1416.46 978.099 1418.35 Q978.099 1420.02 977.062 1420.87 Q976.061 1421.69 974.839 1421.69 Q973.467 1421.69 972.504 1420.84 Q971.578 1419.95 971.578 1418.43 Q971.578 1417.5 971.985 1416.8 Q972.43 1416.06 972.763 1415.8 Q973.097 1415.54 973.319 1415.46 Q973.171 1415.39 972.504 1415.39 Q968.317 1415.39 965.908 1419.58 Q963.537 1423.73 963.537 1429.66 L963.537 1441.33 Q963.537 1443.51 964.426 1444.22 Q965.352 1444.92 969.317 1444.92 L970.911 1444.92 L970.911 1447.26 Q967.872 1447.03 961.276 1447.03 Q960.35 1447.03 958.905 1447.07 Q957.46 1447.11 955.57 1447.18 Q953.68 1447.26 952.606 1447.26 Z" fill="#000000" fill-rule="nonzero" fill-opacity="1" /><path clip-path="url(#clip330)" d="M982.25 1447.26 L982.25 1444.92 Q986.289 1444.92 987.215 1444.44 Q988.178 1443.92 988.178 1441.48 L988.178 1421.13 Q988.178 1418.32 987.178 1417.61 Q986.214 1416.91 982.25 1416.91 L982.25 1414.54 L992.81 1413.72 L992.81 1422.06 Q993.885 1418.8 996.145 1416.28 Q998.443 1413.72 1002.15 1413.72 Q1004.59 1413.72 1006.15 1415.09 Q1007.74 1416.46 1007.74 1418.35 Q1007.74 1420.02 1006.71 1420.87 Q1005.71 1421.69 1004.48 1421.69 Q1003.11 1421.69 1002.15 1420.84 Q1001.22 1419.95 1001.22 1418.43 Q1001.22 1417.5 1001.63 1416.8 Q1002.07 1416.06 1002.41 1415.8 Q1002.74 1415.54 1002.96 1415.46 Q1002.82 1415.39 1002.15 1415.39 Q997.961 1415.39 995.552 1419.58 Q993.181 1423.73 993.181 1429.66 L993.181 1441.33 Q993.181 1443.51 994.07 1444.22 Q994.996 1444.92 998.961 1444.92 L1000.55 1444.92 L1000.55 1447.26 Q997.516 1447.03 990.92 1447.03 Q989.994 1447.03 988.549 1447.07 Q987.104 1447.11 985.214 1447.18 Q983.324 1447.26 982.25 1447.26 Z" fill="#000000" fill-rule="nonzero" fill-opacity="1" /><path clip-path="url(#clip330)" d="M1016.9 1443.18 Q1011.89 1438.22 1011.89 1431.03 Q1011.89 1423.8 1016.78 1418.54 Q1021.71 1413.24 1028.75 1413.24 Q1035.65 1413.24 1040.57 1418.5 Q1045.54 1423.73 1045.54 1431.03 Q1045.54 1438.18 1040.54 1443.14 Q1035.57 1448.11 1028.68 1448.11 Q1021.94 1448.11 1016.9 1443.18 M1018.19 1430.4 Q1018.19 1437.77 1020.12 1441.11 Q1023.08 1446.18 1028.75 1446.18 Q1031.57 1446.18 1033.9 1444.66 Q1036.28 1443.14 1037.57 1440.59 Q1039.24 1437.25 1039.24 1430.4 Q1039.24 1423.1 1037.24 1419.87 Q1034.27 1414.95 1028.68 1414.95 Q1026.23 1414.95 1023.83 1416.24 Q1021.45 1417.5 1020.01 1420.02 Q1018.19 1423.36 1018.19 1430.4 Z" fill="#000000" fill-rule="nonzero" fill-opacity="1" /><path clip-path="url(#clip330)" d="M1049.84 1447.26 L1049.84 1444.92 Q1053.88 1444.92 1054.8 1444.44 Q1055.77 1443.92 1055.77 1441.48 L1055.77 1421.13 Q1055.77 1418.32 1054.77 1417.61 Q1053.8 1416.91 1049.84 1416.91 L1049.84 1414.54 L1060.4 1413.72 L1060.4 1422.06 Q1061.47 1418.8 1063.73 1416.28 Q1066.03 1413.72 1069.74 1413.72 Q1072.18 1413.72 1073.74 1415.09 Q1075.33 1416.46 1075.33 1418.35 Q1075.33 1420.02 1074.29 1420.87 Q1073.29 1421.69 1072.07 1421.69 Q1070.7 1421.69 1069.74 1420.84 Q1068.81 1419.95 1068.81 1418.43 Q1068.81 1417.5 1069.22 1416.8 Q1069.66 1416.06 1070 1415.8 Q1070.33 1415.54 1070.55 1415.46 Q1070.4 1415.39 1069.74 1415.39 Q1065.55 1415.39 1063.14 1419.58 Q1060.77 1423.73 1060.77 1429.66 L1060.77 1441.33 Q1060.77 1443.51 1061.66 1444.22 Q1062.58 1444.92 1066.55 1444.92 L1068.14 1444.92 L1068.14 1447.26 Q1065.1 1447.03 1058.51 1447.03 Q1057.58 1447.03 1056.14 1447.07 Q1054.69 1447.11 1052.8 1447.18 Q1050.91 1447.26 1049.84 1447.26 Z" fill="#000000" fill-rule="nonzero" fill-opacity="1" /><path clip-path="url(#clip330)" d="M1110.13 1428.29 Q1110.13 1415.46 1114.91 1405.13 Q1116.94 1400.79 1119.8 1397.16 Q1122.65 1393.53 1124.54 1391.93 Q1126.43 1390.34 1126.95 1390.34 Q1127.69 1390.34 1127.73 1391.08 Q1127.73 1391.45 1126.73 1392.38 Q1114.5 1404.83 1114.54 1428.29 Q1114.54 1451.82 1126.43 1463.78 Q1127.73 1465.08 1127.73 1465.49 Q1127.73 1466.23 1126.95 1466.23 Q1126.43 1466.23 1124.62 1464.71 Q1122.8 1463.19 1119.98 1459.71 Q1117.17 1456.22 1115.13 1451.96 Q1110.13 1441.62 1110.13 1428.29 Z" fill="#000000" fill-rule="nonzero" fill-opacity="1" /><path clip-path="url(#clip330)" d="M1134.55 1447.26 L1134.55 1444.92 Q1138.58 1444.92 1139.51 1444.44 Q1140.44 1443.92 1140.44 1441.48 L1140.44 1402.01 Q1140.44 1399.2 1139.44 1398.49 Q1138.47 1397.79 1134.55 1397.79 L1134.55 1395.42 L1145.44 1394.6 L1145.44 1441.48 Q1145.44 1443.92 1146.4 1444.44 Q1147.37 1444.92 1151.37 1444.92 L1151.37 1447.26 Q1150.44 1447.26 1148.52 1447.18 Q1146.59 1447.11 1145.18 1447.07 Q1143.77 1447.03 1142.96 1447.03 Q1142.07 1447.03 1134.55 1447.26 Z" fill="#000000" fill-rule="nonzero" fill-opacity="1" /><path clip-path="url(#clip330)" d="M1156.82 1447.26 Q1156.82 1445.89 1156.93 1445.48 Q1157.08 1445.07 1157.67 1444.44 L1172.23 1428.21 Q1180.2 1419.24 1180.2 1411.43 Q1180.2 1406.35 1177.53 1402.72 Q1174.9 1399.09 1170.04 1399.09 Q1166.71 1399.09 1163.89 1401.12 Q1161.08 1403.16 1159.78 1406.79 Q1160 1406.72 1160.78 1406.72 Q1162.67 1406.72 1163.71 1407.9 Q1164.78 1409.09 1164.78 1410.68 Q1164.78 1412.72 1163.45 1413.72 Q1162.15 1414.69 1160.85 1414.69 Q1160.34 1414.69 1159.63 1414.57 Q1158.97 1414.46 1157.89 1413.43 Q1156.82 1412.35 1156.82 1410.46 Q1156.82 1405.16 1160.82 1400.94 Q1164.86 1396.71 1171.01 1396.71 Q1177.97 1396.71 1182.53 1400.86 Q1187.13 1404.98 1187.13 1411.43 Q1187.13 1413.69 1186.42 1415.76 Q1185.76 1417.8 1184.83 1419.39 Q1183.94 1420.99 1181.49 1423.54 Q1179.05 1426.1 1177.08 1427.91 Q1175.12 1429.73 1170.71 1433.58 L1162.67 1441.4 L1176.34 1441.4 Q1183.01 1441.4 1183.53 1440.81 Q1184.27 1439.74 1185.2 1434.07 L1187.13 1434.07 L1184.98 1447.26 L1156.82 1447.26 Z" fill="#000000" fill-rule="nonzero" fill-opacity="1" /><path clip-path="url(#clip330)" d="M1195.32 1465.49 Q1195.32 1465.12 1196.28 1464.19 Q1208.51 1451.74 1208.51 1428.29 Q1208.51 1404.76 1196.76 1392.86 Q1195.32 1391.49 1195.32 1391.08 Q1195.32 1390.34 1196.06 1390.34 Q1196.58 1390.34 1198.39 1391.86 Q1200.24 1393.38 1203.02 1396.86 Q1205.84 1400.35 1207.91 1404.61 Q1212.92 1414.95 1212.92 1428.29 Q1212.92 1441.11 1208.14 1451.44 Q1206.1 1455.78 1203.25 1459.41 Q1200.39 1463.04 1198.5 1464.64 Q1196.61 1466.23 1196.06 1466.23 Q1195.32 1466.23 1195.32 1465.49 Z" fill="#000000" fill-rule="nonzero" fill-opacity="1" /><polyline clip-path="url(#clip332)" style="stroke:#000000; stroke-linecap:round; stroke-linejoin:round; stroke-width:2.8; stroke-opacity:0.4; fill:none" points="278.238,981.16 1836.11,981.16 "/>
<polyline clip-path="url(#clip332)" style="stroke:#000000; stroke-linecap:round; stroke-linejoin:round; stroke-width:2.8; stroke-opacity:0.4; fill:none" points="278.238,529.362 1836.11,529.362 "/>
<polyline clip-path="url(#clip332)" style="stroke:#000000; stroke-linecap:round; stroke-linejoin:round; stroke-width:2.8; stroke-opacity:0.4; fill:none" points="278.238,77.5643 1836.11,77.5643 "/>
<polyline clip-path="url(#clip330)" style="stroke:#000000; stroke-linecap:round; stroke-linejoin:round; stroke-width:4; stroke-opacity:1; fill:none" points="278.238,1280.22 278.238,47.2441 "/>
<polyline clip-path="url(#clip330)" style="stroke:#000000; stroke-linecap:round; stroke-linejoin:round; stroke-width:4; stroke-opacity:1; fill:none" points="1836.11,1280.22 1836.11,47.2441 "/>
<polyline clip-path="url(#clip330)" style="stroke:#000000; stroke-linecap:round; stroke-linejoin:round; stroke-width:4; stroke-opacity:1; fill:none" points="278.238,981.16 293.118,981.16 "/>
<polyline clip-path="url(#clip330)" style="stroke:#000000; stroke-linecap:round; stroke-linejoin:round; stroke-width:4; stroke-opacity:1; fill:none" points="278.238,529.362 293.118,529.362 "/>
<polyline clip-path="url(#clip330)" style="stroke:#000000; stroke-linecap:round; stroke-linejoin:round; stroke-width:4; stroke-opacity:1; fill:none" points="278.238,77.5643 293.118,77.5643 "/>
<path clip-path="url(#clip330)" d="M119.06 976.01 L119.06 974.429 Q125.137 974.429 128.275 971.193 Q129.139 971.193 129.287 971.39 Q129.436 971.588 129.436 972.502 L129.436 1000.89 Q129.436 1002.39 130.177 1002.86 Q130.918 1003.33 134.154 1003.33 L135.76 1003.33 L135.76 1004.89 Q133.981 1004.74 127.558 1004.74 Q121.135 1004.74 119.381 1004.89 L119.381 1003.33 L120.987 1003.33 Q124.174 1003.33 124.94 1002.89 Q125.705 1002.42 125.705 1000.89 L125.705 974.676 Q123.062 976.01 119.06 976.01 Z" fill="#000000" fill-rule="nonzero" fill-opacity="1" /><path clip-path="url(#clip330)" d="M141.837 988.707 Q141.837 981.272 143.714 977.22 Q146.333 971.193 152.509 971.193 Q153.818 971.193 155.176 971.563 Q156.56 971.909 158.289 973.268 Q160.043 974.626 161.105 976.85 Q163.131 981.148 163.131 988.707 Q163.131 996.094 161.253 1000.12 Q158.511 1006 152.459 1006 Q150.186 1006 147.864 1004.84 Q145.567 1003.68 144.109 1000.89 Q141.837 996.711 141.837 988.707 M146.036 988.09 Q146.036 995.723 146.58 998.762 Q147.197 1002.05 148.877 1003.48 Q150.582 1004.89 152.459 1004.89 Q154.485 1004.89 156.165 1003.38 Q157.869 1001.85 158.388 998.564 Q158.956 995.328 158.931 988.09 Q158.931 981.049 158.437 978.233 Q157.77 974.948 155.992 973.638 Q154.238 972.304 152.459 972.304 Q151.792 972.304 151.076 972.502 Q150.384 972.7 149.371 973.268 Q148.358 973.836 147.568 975.244 Q146.802 976.652 146.431 978.777 Q146.036 981.519 146.036 988.09 Z" fill="#000000" fill-rule="nonzero" fill-opacity="1" /><path clip-path="url(#clip330)" d="M190.268 966.619 Q190.508 966.86 190.508 967.201 Q190.508 967.542 190.268 967.783 Q190.027 968.024 189.686 968.024 L163.954 968.024 Q163.613 968.024 163.372 967.783 Q163.131 967.542 163.131 967.201 Q163.131 966.86 163.372 966.619 Q163.613 966.378 163.954 966.378 L189.686 966.378 Q190.027 966.378 190.268 966.619 Z" fill="#000000" fill-rule="nonzero" fill-opacity="1" /><path clip-path="url(#clip330)" d="M196.45 954.014 L196.45 952.73 Q201.387 952.73 203.936 950.1 Q204.639 950.1 204.759 950.261 Q204.88 950.421 204.88 951.164 L204.88 974.226 Q204.88 975.45 205.482 975.832 Q206.084 976.213 208.713 976.213 L210.018 976.213 L210.018 977.478 Q208.573 977.357 203.354 977.357 Q198.136 977.357 196.711 977.478 L196.711 976.213 L198.015 976.213 Q200.604 976.213 201.227 975.852 Q201.849 975.471 201.849 974.226 L201.849 952.93 Q199.701 954.014 196.45 954.014 Z" fill="#000000" fill-rule="nonzero" fill-opacity="1" /><path clip-path="url(#clip330)" d="M217.464 976.815 Q216.842 976.153 216.842 975.29 Q216.842 974.427 217.464 973.805 Q218.087 973.162 219.03 973.162 Q219.933 973.162 220.535 973.764 Q221.158 974.347 221.158 975.31 Q221.158 976.253 220.495 976.876 Q219.853 977.478 219.03 977.478 Q218.087 977.478 217.464 976.815 Z" fill="#000000" fill-rule="nonzero" fill-opacity="1" /><path clip-path="url(#clip330)" d="M226.376 964.331 Q226.376 958.289 227.902 954.998 Q230.029 950.1 235.047 950.1 Q236.111 950.1 237.215 950.401 Q238.339 950.682 239.744 951.786 Q241.169 952.89 242.032 954.697 Q243.678 958.189 243.678 964.331 Q243.678 970.332 242.152 973.604 Q239.924 978.381 235.007 978.381 Q233.16 978.381 231.274 977.438 Q229.407 976.494 228.223 974.226 Q226.376 970.834 226.376 964.331 M229.788 963.829 Q229.788 970.031 230.23 972.5 Q230.732 975.169 232.097 976.334 Q233.481 977.478 235.007 977.478 Q236.653 977.478 238.018 976.253 Q239.403 975.009 239.824 972.339 Q240.286 969.71 240.266 963.829 Q240.266 958.109 239.864 955.821 Q239.322 953.151 237.877 952.087 Q236.452 951.003 235.007 951.003 Q234.465 951.003 233.883 951.164 Q233.321 951.325 232.498 951.786 Q231.675 952.248 231.033 953.392 Q230.411 954.536 230.109 956.262 Q229.788 958.49 229.788 963.829 Z" fill="#000000" fill-rule="nonzero" fill-opacity="1" /><path clip-path="url(#clip330)" d="M119.502 524.212 L119.502 522.631 Q125.579 522.631 128.716 519.395 Q129.581 519.395 129.729 519.592 Q129.877 519.79 129.877 520.704 L129.877 549.088 Q129.877 550.595 130.618 551.064 Q131.359 551.534 134.595 551.534 L136.201 551.534 L136.201 553.09 Q134.423 552.942 128 552.942 Q121.577 552.942 119.823 553.09 L119.823 551.534 L121.429 551.534 Q124.615 551.534 125.381 551.089 Q126.147 550.62 126.147 549.088 L126.147 522.878 Q123.504 524.212 119.502 524.212 Z" fill="#000000" fill-rule="nonzero" fill-opacity="1" /><path clip-path="url(#clip330)" d="M142.278 536.909 Q142.278 529.474 144.156 525.422 Q146.774 519.395 152.95 519.395 Q154.259 519.395 155.618 519.765 Q157.001 520.111 158.731 521.47 Q160.485 522.828 161.547 525.052 Q163.573 529.35 163.573 536.909 Q163.573 544.296 161.695 548.322 Q158.953 554.202 152.901 554.202 Q150.628 554.202 148.306 553.041 Q146.008 551.88 144.551 549.088 Q142.278 544.913 142.278 536.909 M146.478 536.292 Q146.478 543.925 147.021 546.964 Q147.639 550.249 149.319 551.682 Q151.023 553.09 152.901 553.09 Q154.926 553.09 156.606 551.583 Q158.311 550.051 158.829 546.766 Q159.398 543.53 159.373 536.292 Q159.373 529.251 158.879 526.435 Q158.212 523.15 156.433 521.84 Q154.679 520.506 152.901 520.506 Q152.234 520.506 151.517 520.704 Q150.826 520.902 149.813 521.47 Q148.8 522.038 148.009 523.446 Q147.244 524.854 146.873 526.979 Q146.478 529.721 146.478 536.292 Z" fill="#000000" fill-rule="nonzero" fill-opacity="1" /><path clip-path="url(#clip330)" d="M190.709 514.821 Q190.95 515.062 190.95 515.403 Q190.95 515.744 190.709 515.985 Q190.468 516.226 190.127 516.226 L164.395 516.226 Q164.054 516.226 163.813 515.985 Q163.573 515.744 163.573 515.403 Q163.573 515.062 163.813 514.821 Q164.054 514.58 164.395 514.58 L190.127 514.58 Q190.468 514.58 190.709 514.821 Z" fill="#000000" fill-rule="nonzero" fill-opacity="1" /><path clip-path="url(#clip330)" d="M194.844 512.533 Q194.844 506.491 196.369 503.2 Q198.497 498.302 203.515 498.302 Q204.579 498.302 205.682 498.603 Q206.806 498.884 208.211 499.988 Q209.637 501.092 210.5 502.898 Q212.146 506.391 212.146 512.533 Q212.146 518.534 210.62 521.806 Q208.392 526.583 203.475 526.583 Q201.628 526.583 199.741 525.639 Q197.875 524.696 196.69 522.428 Q194.844 519.036 194.844 512.533 M198.256 512.031 Q198.256 518.233 198.698 520.702 Q199.199 523.371 200.564 524.536 Q201.949 525.68 203.475 525.68 Q205.12 525.68 206.485 524.455 Q207.87 523.211 208.292 520.541 Q208.753 517.912 208.733 512.031 Q208.733 506.311 208.332 504.022 Q207.79 501.353 206.345 500.289 Q204.92 499.205 203.475 499.205 Q202.933 499.205 202.351 499.366 Q201.789 499.526 200.966 499.988 Q200.143 500.45 199.5 501.594 Q198.878 502.738 198.577 504.464 Q198.256 506.692 198.256 512.031 Z" fill="#000000" fill-rule="nonzero" fill-opacity="1" /><path clip-path="url(#clip330)" d="M217.906 525.017 Q217.284 524.355 217.284 523.492 Q217.284 522.629 217.906 522.007 Q218.528 521.364 219.472 521.364 Q220.375 521.364 220.977 521.966 Q221.599 522.548 221.599 523.512 Q221.599 524.455 220.937 525.077 Q220.295 525.68 219.472 525.68 Q218.528 525.68 217.906 525.017 Z" fill="#000000" fill-rule="nonzero" fill-opacity="1" /><path clip-path="url(#clip330)" d="M227.259 519.056 Q227.259 517.832 227.922 517.37 Q228.584 516.888 229.287 516.888 Q230.23 516.888 230.772 517.49 Q231.334 518.073 231.334 518.895 Q231.334 519.718 230.772 520.321 Q230.23 520.903 229.287 520.903 Q228.825 520.903 228.584 520.822 Q229.126 522.709 230.772 524.074 Q232.438 525.439 234.626 525.439 Q237.375 525.439 239.021 522.769 Q240.005 521.043 240.005 517.129 Q240.005 513.677 239.262 511.951 Q238.118 509.321 235.77 509.321 Q232.438 509.321 230.471 512.192 Q230.23 512.553 229.949 512.573 Q229.547 512.573 229.447 512.352 Q229.367 512.111 229.367 511.489 L229.367 499.326 Q229.367 498.342 229.768 498.342 Q229.929 498.342 230.27 498.463 Q232.859 499.607 235.729 499.627 Q238.68 499.627 241.329 498.423 Q241.53 498.302 241.651 498.302 Q242.052 498.302 242.072 498.764 Q242.072 498.924 241.731 499.406 Q241.41 499.868 240.707 500.49 Q240.005 501.092 239.102 501.674 Q238.198 502.256 236.874 502.658 Q235.569 503.039 234.124 503.039 Q232.398 503.039 230.631 502.497 L230.631 510.506 Q232.759 508.418 235.85 508.418 Q239.142 508.418 241.41 511.068 Q243.678 513.717 243.678 517.41 Q243.678 521.284 240.988 523.933 Q238.319 526.583 234.706 526.583 Q231.414 526.583 229.327 524.234 Q227.259 521.886 227.259 519.056 Z" fill="#000000" fill-rule="nonzero" fill-opacity="1" /><path clip-path="url(#clip330)" d="M150.332 72.4137 L150.332 70.8327 Q156.409 70.8327 159.546 67.5966 Q160.41 67.5966 160.559 67.7942 Q160.707 67.9918 160.707 68.9058 L160.707 97.29 Q160.707 98.7969 161.448 99.2663 Q162.189 99.7356 165.425 99.7356 L167.031 99.7356 L167.031 101.292 Q165.252 101.144 158.829 101.144 Q152.407 101.144 150.653 101.292 L150.653 99.7356 L152.258 99.7356 Q155.445 99.7356 156.211 99.291 Q156.977 98.8216 156.977 97.29 L156.977 71.0797 Q154.333 72.4137 150.332 72.4137 Z" fill="#000000" fill-rule="nonzero" fill-opacity="1" /><path clip-path="url(#clip330)" d="M173.108 85.1112 Q173.108 77.6755 174.985 73.6242 Q177.604 67.5966 183.78 67.5966 Q185.089 67.5966 186.448 67.9671 Q187.831 68.313 189.56 69.6716 Q191.314 71.0303 192.377 73.2536 Q194.402 77.552 194.402 85.1112 Q194.402 92.4975 192.525 96.5242 Q189.783 102.404 183.73 102.404 Q181.458 102.404 179.136 101.243 Q176.838 100.081 175.381 97.29 Q173.108 93.1151 173.108 85.1112 M177.308 84.4937 Q177.308 92.127 177.851 95.1655 Q178.469 98.451 180.148 99.8838 Q181.853 101.292 183.73 101.292 Q185.756 101.292 187.436 99.785 Q189.141 98.2534 189.659 94.9679 Q190.227 91.7317 190.203 84.4937 Q190.203 77.4532 189.709 74.637 Q189.042 71.3515 187.263 70.0422 Q185.509 68.7082 183.73 68.7082 Q183.063 68.7082 182.347 68.9058 Q181.655 69.1035 180.643 69.6716 Q179.63 70.2398 178.839 71.6479 Q178.073 73.056 177.703 75.1805 Q177.308 77.9226 177.308 84.4937 Z" fill="#000000" fill-rule="nonzero" fill-opacity="1" /><path clip-path="url(#clip330)" d="M194.402 60.7347 Q194.402 54.6932 195.928 51.4015 Q198.055 46.504 203.073 46.504 Q204.137 46.504 205.241 46.8051 Q206.365 47.0861 207.77 48.19 Q209.195 49.294 210.058 51.1004 Q211.704 54.5928 211.704 60.7347 Q211.704 66.7361 210.178 70.0077 Q207.951 74.7848 203.033 74.7848 Q201.186 74.7848 199.3 73.8414 Q197.433 72.898 196.249 70.63 Q194.402 67.2379 194.402 60.7347 M197.814 60.2329 Q197.814 66.435 198.256 68.9038 Q198.758 71.5733 200.123 72.7375 Q201.508 73.8815 203.033 73.8815 Q204.679 73.8815 206.044 72.6572 Q207.429 71.4127 207.85 68.7432 Q208.312 66.1139 208.292 60.2329 Q208.292 54.5126 207.89 52.2244 Q207.348 49.5549 205.903 48.4911 Q204.478 47.4073 203.033 47.4073 Q202.491 47.4073 201.909 47.5678 Q201.347 47.7284 200.524 48.19 Q199.701 48.6517 199.059 49.7958 Q198.437 50.9398 198.136 52.666 Q197.814 54.8939 197.814 60.2329 Z" fill="#000000" fill-rule="nonzero" fill-opacity="1" /><path clip-path="url(#clip330)" d="M217.464 73.2192 Q216.842 72.5568 216.842 71.6937 Q216.842 70.8307 217.464 70.2085 Q218.087 69.5662 219.03 69.5662 Q219.933 69.5662 220.535 70.1683 Q221.158 70.7504 221.158 71.7138 Q221.158 72.6572 220.495 73.2794 Q219.853 73.8815 219.03 73.8815 Q218.087 73.8815 217.464 73.2192 Z" fill="#000000" fill-rule="nonzero" fill-opacity="1" /><path clip-path="url(#clip330)" d="M226.376 60.7347 Q226.376 54.6932 227.902 51.4015 Q230.029 46.504 235.047 46.504 Q236.111 46.504 237.215 46.8051 Q238.339 47.0861 239.744 48.19 Q241.169 49.294 242.032 51.1004 Q243.678 54.5928 243.678 60.7347 Q243.678 66.7361 242.152 70.0077 Q239.924 74.7848 235.007 74.7848 Q233.16 74.7848 231.274 73.8414 Q229.407 72.898 228.223 70.63 Q226.376 67.2379 226.376 60.7347 M229.788 60.2329 Q229.788 66.435 230.23 68.9038 Q230.732 71.5733 232.097 72.7375 Q233.481 73.8815 235.007 73.8815 Q236.653 73.8815 238.018 72.6572 Q239.403 71.4127 239.824 68.7432 Q240.286 66.1139 240.266 60.2329 Q240.266 54.5126 239.864 52.2244 Q239.322 49.5549 237.877 48.4911 Q236.452 47.4073 235.007 47.4073 Q234.465 47.4073 233.883 47.5678 Q233.321 47.7284 232.498 48.19 Q231.675 48.6517 231.033 49.7958 Q230.411 50.9398 230.109 52.666 Q229.788 54.8939 229.788 60.2329 Z" fill="#000000" fill-rule="nonzero" fill-opacity="1" /><path clip-path="url(#clip330)" d="M34.6352 801.913 L17.5899 800.467 L17.5899 754.112 L34.6352 752.666 L34.6352 754.556 Q31.2261 754.853 29.2622 755.149 Q27.2983 755.408 25.4455 756.075 Q23.5557 756.705 22.6664 757.521 Q21.74 758.299 21.036 759.818 Q20.2949 761.337 20.1096 763.301 Q19.9243 765.265 19.9243 768.23 Q19.9243 771.713 20.0726 772.565 Q20.2949 773.491 20.9619 773.714 Q21.5918 773.936 22.9629 773.936 L62.9452 773.936 Q64.4645 773.936 65.0944 773.64 Q65.6873 773.306 66.169 771.564 Q66.6137 769.823 66.6137 765.969 L66.6137 762.931 L68.9482 762.931 Q68.7258 766.043 68.7258 777.345 Q68.7258 788.573 68.9482 791.685 L66.6137 791.685 L66.6137 788.647 Q66.6137 784.793 66.169 783.052 Q65.6873 781.273 65.0944 780.976 Q64.4645 780.68 62.9452 780.68 L22.9629 780.68 Q21.8883 780.68 21.4436 780.754 Q20.9989 780.828 20.6284 781.162 Q20.2208 781.495 20.0726 782.273 Q19.9243 783.014 19.9243 786.349 Q19.9243 789.314 20.1096 791.315 Q20.2949 793.279 21.036 794.798 Q21.74 796.317 22.6664 797.132 Q23.5557 797.911 25.4455 798.578 Q27.2983 799.208 29.2622 799.467 Q31.2261 799.726 34.6352 800.023 L34.6352 801.913 Z" fill="#000000" fill-rule="nonzero" fill-opacity="1" /><path clip-path="url(#clip330)" d="M68.9482 747.368 L66.6137 747.368 Q66.6137 743.329 66.132 742.402 Q65.6132 741.476 63.1676 741.476 L42.7502 741.476 Q39.9341 741.476 39.2671 742.439 Q38.6001 743.366 38.6001 747.071 L36.2286 747.071 L35.4133 736.473 L63.2417 736.473 Q65.502 736.473 66.0579 735.658 Q66.6137 734.843 66.6137 731.137 L68.9482 731.137 Q68.7258 738.882 68.7258 739.03 Q68.7258 740.068 68.9482 747.368 M22.1847 744.181 Q20.6654 744.181 19.4426 743.032 Q18.1828 741.846 18.1828 740.179 Q18.1828 738.511 19.3315 737.326 Q20.4431 736.14 22.2218 736.14 Q23.9633 736.14 25.112 737.326 Q26.2237 738.511 26.2237 740.179 Q26.2237 741.92 25.0009 743.069 Q23.7781 744.181 22.1847 744.181 Z" fill="#000000" fill-rule="nonzero" fill-opacity="1" /><path clip-path="url(#clip330)" d="M68.9482 726.431 L66.6137 726.431 Q66.6137 722.392 66.132 721.466 Q65.6132 720.54 63.1676 720.54 L42.8244 720.54 Q40.0082 720.54 39.3041 721.54 Q38.6001 722.504 38.6001 726.431 L36.2286 726.431 L35.4133 715.76 L43.3802 715.76 Q35.4133 712.202 35.4133 704.532 Q35.4133 695.639 42.8244 694.416 Q39.9341 693.119 37.6737 690.414 Q35.4133 687.672 35.4133 683.411 Q35.4133 677.704 38.2295 675.444 Q40.1193 673.776 42.2315 673.443 Q44.3436 673.109 49.8278 673.109 L64.3163 673.109 Q65.9096 673.035 66.2802 671.812 Q66.6137 670.589 66.6137 667.18 L68.9482 667.18 Q68.7258 674.925 68.7258 675.666 Q68.7258 676.259 68.9482 684.263 L66.6137 684.263 Q66.6137 680.224 66.132 679.297 Q65.6132 678.334 63.1676 678.334 L45.4923 678.334 Q41.6386 678.334 39.3782 679.52 Q37.0808 680.706 37.0808 683.966 Q37.0808 687.894 40.3787 691.044 Q43.6766 694.194 49.2349 694.194 L63.1676 694.194 Q65.6132 694.194 66.132 693.267 Q66.6137 692.304 66.6137 688.265 L68.9482 688.265 Q68.7258 696.009 68.7258 696.787 Q68.7258 697.38 68.9482 705.347 L66.6137 705.347 Q66.6137 701.308 66.132 700.382 Q65.6132 699.418 63.1676 699.418 L45.4923 699.418 Q41.6386 699.418 39.3782 700.604 Q37.0808 701.79 37.0808 705.051 Q37.0808 708.979 40.3787 712.128 Q43.6766 715.278 49.2349 715.278 L63.1676 715.278 Q65.6132 715.278 66.132 714.351 Q66.6137 713.388 66.6137 709.386 L68.9482 709.386 Q68.7258 717.131 68.7258 717.872 Q68.7258 718.465 68.9482 726.431 Z" fill="#000000" fill-rule="nonzero" fill-opacity="1" /><path clip-path="url(#clip330)" d="M52.2363 663.586 Q45.0847 663.586 40.0082 658.991 Q34.9316 654.396 34.9316 647.801 Q34.9316 641.131 39.2671 637.685 Q43.6025 634.201 49.8278 634.201 Q50.9765 634.201 51.1988 634.498 Q51.4211 634.794 51.4211 636.091 L51.4211 657.287 Q59.1656 657.287 62.797 654.989 Q67.8736 651.803 67.8736 646.43 Q67.8736 645.689 67.7253 644.799 Q67.5771 643.91 66.9472 642.094 Q66.2802 640.278 64.5386 638.685 Q62.797 637.092 60.0549 636.165 Q58.9804 635.943 59.0174 635.202 Q59.0174 634.201 59.9067 634.201 Q60.5737 634.201 62.093 634.943 Q63.5752 635.647 65.3538 637.018 Q67.1325 638.389 68.4664 641.057 Q69.8004 643.688 69.8004 646.874 Q69.8004 653.544 64.7609 658.584 Q59.6844 663.586 52.2363 663.586 M49.8278 657.213 L49.8278 639.204 Q48.2344 639.204 46.4557 639.5 Q44.6771 639.76 42.2315 640.575 Q39.7488 641.353 38.1925 643.206 Q36.6362 645.059 36.6362 647.801 Q36.6362 649.023 37.1549 650.357 Q37.6737 651.654 38.9336 653.248 Q40.1934 654.841 43.0467 655.953 Q45.8999 657.064 49.8278 657.213 Z" fill="#000000" fill-rule="nonzero" fill-opacity="1" /><path clip-path="url(#clip330)" d="M49.976 599.259 Q37.1549 599.259 26.8166 594.478 Q22.4811 592.44 18.8497 589.587 Q15.2184 586.734 13.625 584.844 Q12.0316 582.954 12.0316 582.436 Q12.0316 581.694 12.7727 581.657 Q13.1433 581.657 14.0696 582.658 Q26.5201 594.886 49.976 594.849 Q73.5059 594.849 85.4747 582.954 Q86.7716 581.657 87.1792 581.657 Q87.9203 581.657 87.9203 582.436 Q87.9203 582.954 86.4011 584.77 Q84.8818 586.586 81.3987 589.402 Q77.9155 592.218 73.6541 594.256 Q63.3158 599.259 49.976 599.259 Z" fill="#000000" fill-rule="nonzero" fill-opacity="1" /><path clip-path="url(#clip330)" d="M67.9477 574.839 L57.9428 574.839 Q57.0905 574.839 56.7941 574.802 Q56.4977 574.765 56.2753 574.543 Q56.053 574.32 56.053 573.876 Q56.053 573.357 56.2753 573.172 Q56.4977 572.949 57.3499 572.801 Q62.5747 571.653 65.3538 569.207 Q68.0959 566.724 68.0959 562.241 Q68.0959 557.979 66.2061 555.83 Q64.3163 553.681 61.2037 553.681 Q55.6454 553.681 54.2373 561.574 Q53.3109 566.131 52.7181 568.021 Q52.0881 569.911 50.7171 571.578 Q48.0491 574.839 44.2695 574.839 Q40.4899 574.839 37.7108 571.986 Q34.9316 569.096 34.9316 562.722 Q34.9316 558.461 37.0808 555.571 Q36.4138 554.718 35.858 554.274 Q34.9316 553.273 34.9316 552.754 Q34.9316 552.162 35.3392 552.05 Q35.7098 551.939 36.7844 551.939 L44.4177 551.939 Q45.27 551.939 45.5664 551.976 Q45.8629 552.013 46.0852 552.236 Q46.2705 552.458 46.2705 552.94 Q46.2705 553.792 45.5664 553.829 Q36.3768 554.422 36.3768 562.722 Q36.3768 567.206 38.1184 569.207 Q39.8229 571.208 42.1574 571.208 Q43.4543 571.208 44.4548 570.615 Q45.4182 569.985 46.0111 569.207 Q46.5669 568.392 47.1227 566.909 Q47.6415 565.427 47.8268 564.538 Q48.0121 563.612 48.3826 561.87 Q49.5313 555.793 52.014 553.236 Q55.2007 550.049 59.2397 550.049 Q63.7234 550.049 66.7619 553.088 Q69.8004 556.126 69.8004 562.241 Q69.8004 567.169 66.5025 570.615 Q66.9472 571.06 67.3548 571.393 Q67.7253 571.727 67.8736 571.875 Q68.0218 571.986 68.1329 572.023 Q68.2071 572.06 68.2812 572.134 Q69.8004 573.654 69.8004 574.024 Q69.8004 574.617 69.3928 574.728 Q69.0223 574.839 67.9477 574.839 Z" fill="#000000" fill-rule="nonzero" fill-opacity="1" /><path clip-path="url(#clip330)" d="M87.1792 543.157 Q86.8087 543.157 85.8823 542.194 Q73.4318 529.966 49.976 529.966 Q26.446 529.966 14.5514 541.712 Q13.1803 543.157 12.7727 543.157 Q12.0316 543.157 12.0316 542.416 Q12.0316 541.897 13.5509 540.082 Q15.0701 538.229 18.5533 535.45 Q22.0365 532.634 26.2978 530.558 Q36.6362 525.556 49.976 525.556 Q62.797 525.556 73.1354 530.336 Q77.4708 532.374 81.1022 535.227 Q84.7336 538.081 86.327 539.97 Q87.9203 541.86 87.9203 542.416 Q87.9203 543.157 87.1792 543.157 Z" fill="#000000" fill-rule="nonzero" fill-opacity="1" /><polyline clip-path="url(#clip332)" style="stroke:#0000ff; stroke-linecap:round; stroke-linejoin:round; stroke-width:12; stroke-opacity:1; fill:none" points="1792.02,1186.01 1701.59,970.062 1657.93,743.245 1500.22,522.069 1336.45,301.895 1099.42,82.1398 "/>
<line clip-path="url(#clip332)" x1="1792.02" y1="1186.01" x2="1792.02" y2="1170.01" style="stroke:#0000ff; stroke-width:12; stroke-opacity:1"/>
<line clip-path="url(#clip332)" x1="1792.02" y1="1186.01" x2="1776.02" y2="1186.01" style="stroke:#0000ff; stroke-width:12; stroke-opacity:1"/>
<line clip-path="url(#clip332)" x1="1792.02" y1="1186.01" x2="1792.02" y2="1202.01" style="stroke:#0000ff; stroke-width:12; stroke-opacity:1"/>
<line clip-path="url(#clip332)" x1="1792.02" y1="1186.01" x2="1808.02" y2="1186.01" style="stroke:#0000ff; stroke-width:12; stroke-opacity:1"/>
<line clip-path="url(#clip332)" x1="1701.59" y1="970.062" x2="1701.59" y2="954.062" style="stroke:#0000ff; stroke-width:12; stroke-opacity:1"/>
<line clip-path="url(#clip332)" x1="1701.59" y1="970.062" x2="1685.59" y2="970.062" style="stroke:#0000ff; stroke-width:12; stroke-opacity:1"/>
<line clip-path="url(#clip332)" x1="1701.59" y1="970.062" x2="1701.59" y2="986.062" style="stroke:#0000ff; stroke-width:12; stroke-opacity:1"/>
<line clip-path="url(#clip332)" x1="1701.59" y1="970.062" x2="1717.59" y2="970.062" style="stroke:#0000ff; stroke-width:12; stroke-opacity:1"/>
<line clip-path="url(#clip332)" x1="1657.93" y1="743.245" x2="1657.93" y2="727.245" style="stroke:#0000ff; stroke-width:12; stroke-opacity:1"/>
<line clip-path="url(#clip332)" x1="1657.93" y1="743.245" x2="1641.93" y2="743.245" style="stroke:#0000ff; stroke-width:12; stroke-opacity:1"/>
<line clip-path="url(#clip332)" x1="1657.93" y1="743.245" x2="1657.93" y2="759.245" style="stroke:#0000ff; stroke-width:12; stroke-opacity:1"/>
<line clip-path="url(#clip332)" x1="1657.93" y1="743.245" x2="1673.93" y2="743.245" style="stroke:#0000ff; stroke-width:12; stroke-opacity:1"/>
<line clip-path="url(#clip332)" x1="1500.22" y1="522.069" x2="1500.22" y2="506.069" style="stroke:#0000ff; stroke-width:12; stroke-opacity:1"/>
<line clip-path="url(#clip332)" x1="1500.22" y1="522.069" x2="1484.22" y2="522.069" style="stroke:#0000ff; stroke-width:12; stroke-opacity:1"/>
<line clip-path="url(#clip332)" x1="1500.22" y1="522.069" x2="1500.22" y2="538.069" style="stroke:#0000ff; stroke-width:12; stroke-opacity:1"/>
<line clip-path="url(#clip332)" x1="1500.22" y1="522.069" x2="1516.22" y2="522.069" style="stroke:#0000ff; stroke-width:12; stroke-opacity:1"/>
<line clip-path="url(#clip332)" x1="1336.45" y1="301.895" x2="1336.45" y2="285.895" style="stroke:#0000ff; stroke-width:12; stroke-opacity:1"/>
<line clip-path="url(#clip332)" x1="1336.45" y1="301.895" x2="1320.45" y2="301.895" style="stroke:#0000ff; stroke-width:12; stroke-opacity:1"/>
<line clip-path="url(#clip332)" x1="1336.45" y1="301.895" x2="1336.45" y2="317.895" style="stroke:#0000ff; stroke-width:12; stroke-opacity:1"/>
<line clip-path="url(#clip332)" x1="1336.45" y1="301.895" x2="1352.45" y2="301.895" style="stroke:#0000ff; stroke-width:12; stroke-opacity:1"/>
<line clip-path="url(#clip332)" x1="1099.42" y1="82.1398" x2="1099.42" y2="66.1398" style="stroke:#0000ff; stroke-width:12; stroke-opacity:1"/>
<line clip-path="url(#clip332)" x1="1099.42" y1="82.1398" x2="1083.42" y2="82.1398" style="stroke:#0000ff; stroke-width:12; stroke-opacity:1"/>
<line clip-path="url(#clip332)" x1="1099.42" y1="82.1398" x2="1099.42" y2="98.1398" style="stroke:#0000ff; stroke-width:12; stroke-opacity:1"/>
<line clip-path="url(#clip332)" x1="1099.42" y1="82.1398" x2="1115.42" y2="82.1398" style="stroke:#0000ff; stroke-width:12; stroke-opacity:1"/>
<polyline clip-path="url(#clip332)" style="stroke:#5400aa; stroke-linecap:round; stroke-linejoin:round; stroke-width:12; stroke-opacity:1; fill:none" points="1745.88,1226.16 1663,1053.92 1240.98,892.429 832.225,721.169 576.935,549.159 547.001,376.824 "/>
<circle clip-path="url(#clip332)" cx="1745.88" cy="1226.16" r="14.4" fill="#5400aa" fill-rule="evenodd" fill-opacity="1" stroke="#000000" stroke-opacity="1" stroke-width="1.536"/>
<circle clip-path="url(#clip332)" cx="1663" cy="1053.92" r="14.4" fill="#5400aa" fill-rule="evenodd" fill-opacity="1" stroke="#000000" stroke-opacity="1" stroke-width="1.536"/>
<circle clip-path="url(#clip332)" cx="1240.98" cy="892.429" r="14.4" fill="#5400aa" fill-rule="evenodd" fill-opacity="1" stroke="#000000" stroke-opacity="1" stroke-width="1.536"/>
<circle clip-path="url(#clip332)" cx="832.225" cy="721.169" r="14.4" fill="#5400aa" fill-rule="evenodd" fill-opacity="1" stroke="#000000" stroke-opacity="1" stroke-width="1.536"/>
<circle clip-path="url(#clip332)" cx="576.935" cy="549.159" r="14.4" fill="#5400aa" fill-rule="evenodd" fill-opacity="1" stroke="#000000" stroke-opacity="1" stroke-width="1.536"/>
<circle clip-path="url(#clip332)" cx="547.001" cy="376.824" r="14.4" fill="#5400aa" fill-rule="evenodd" fill-opacity="1" stroke="#000000" stroke-opacity="1" stroke-width="1.536"/>
<polyline clip-path="url(#clip332)" style="stroke:#a90055; stroke-linecap:round; stroke-linejoin:round; stroke-width:12; stroke-opacity:1; fill:none" points="1731.23,1245.33 1425.96,1098.57 919.179,966.662 957.663,843.756 328.784,706.557 322.329,567.93 "/>
<line clip-path="url(#clip332)" x1="1731.23" y1="1245.33" x2="1731.23" y2="1229.33" style="stroke:#a90055; stroke-width:12; stroke-opacity:1"/>
<line clip-path="url(#clip332)" x1="1731.23" y1="1245.33" x2="1715.23" y2="1245.33" style="stroke:#a90055; stroke-width:12; stroke-opacity:1"/>
<line clip-path="url(#clip332)" x1="1731.23" y1="1245.33" x2="1731.23" y2="1261.33" style="stroke:#a90055; stroke-width:12; stroke-opacity:1"/>
<line clip-path="url(#clip332)" x1="1731.23" y1="1245.33" x2="1747.23" y2="1245.33" style="stroke:#a90055; stroke-width:12; stroke-opacity:1"/>
<line clip-path="url(#clip332)" x1="1425.96" y1="1098.57" x2="1425.96" y2="1082.57" style="stroke:#a90055; stroke-width:12; stroke-opacity:1"/>
<line clip-path="url(#clip332)" x1="1425.96" y1="1098.57" x2="1409.96" y2="1098.57" style="stroke:#a90055; stroke-width:12; stroke-opacity:1"/>
<line clip-path="url(#clip332)" x1="1425.96" y1="1098.57" x2="1425.96" y2="1114.57" style="stroke:#a90055; stroke-width:12; stroke-opacity:1"/>
<line clip-path="url(#clip332)" x1="1425.96" y1="1098.57" x2="1441.96" y2="1098.57" style="stroke:#a90055; stroke-width:12; stroke-opacity:1"/>
<line clip-path="url(#clip332)" x1="919.179" y1="966.662" x2="919.179" y2="950.662" style="stroke:#a90055; stroke-width:12; stroke-opacity:1"/>
<line clip-path="url(#clip332)" x1="919.179" y1="966.662" x2="903.179" y2="966.662" style="stroke:#a90055; stroke-width:12; stroke-opacity:1"/>
<line clip-path="url(#clip332)" x1="919.179" y1="966.662" x2="919.179" y2="982.662" style="stroke:#a90055; stroke-width:12; stroke-opacity:1"/>
<line clip-path="url(#clip332)" x1="919.179" y1="966.662" x2="935.179" y2="966.662" style="stroke:#a90055; stroke-width:12; stroke-opacity:1"/>
<line clip-path="url(#clip332)" x1="957.663" y1="843.756" x2="957.663" y2="827.756" style="stroke:#a90055; stroke-width:12; stroke-opacity:1"/>
<line clip-path="url(#clip332)" x1="957.663" y1="843.756" x2="941.663" y2="843.756" style="stroke:#a90055; stroke-width:12; stroke-opacity:1"/>
<line clip-path="url(#clip332)" x1="957.663" y1="843.756" x2="957.663" y2="859.756" style="stroke:#a90055; stroke-width:12; stroke-opacity:1"/>
<line clip-path="url(#clip332)" x1="957.663" y1="843.756" x2="973.663" y2="843.756" style="stroke:#a90055; stroke-width:12; stroke-opacity:1"/>
<line clip-path="url(#clip332)" x1="328.784" y1="706.557" x2="328.784" y2="690.557" style="stroke:#a90055; stroke-width:12; stroke-opacity:1"/>
<line clip-path="url(#clip332)" x1="328.784" y1="706.557" x2="312.784" y2="706.557" style="stroke:#a90055; stroke-width:12; stroke-opacity:1"/>
<line clip-path="url(#clip332)" x1="328.784" y1="706.557" x2="328.784" y2="722.557" style="stroke:#a90055; stroke-width:12; stroke-opacity:1"/>
<line clip-path="url(#clip332)" x1="328.784" y1="706.557" x2="344.784" y2="706.557" style="stroke:#a90055; stroke-width:12; stroke-opacity:1"/>
<line clip-path="url(#clip332)" x1="322.329" y1="567.93" x2="322.329" y2="551.93" style="stroke:#a90055; stroke-width:12; stroke-opacity:1"/>
<line clip-path="url(#clip332)" x1="322.329" y1="567.93" x2="306.329" y2="567.93" style="stroke:#a90055; stroke-width:12; stroke-opacity:1"/>
<line clip-path="url(#clip332)" x1="322.329" y1="567.93" x2="322.329" y2="583.93" style="stroke:#a90055; stroke-width:12; stroke-opacity:1"/>
<line clip-path="url(#clip332)" x1="322.329" y1="567.93" x2="338.329" y2="567.93" style="stroke:#a90055; stroke-width:12; stroke-opacity:1"/>
<path clip-path="url(#clip332)" d="M1091.42 960.764 L1075.42 976.764 L1091.42 992.764 L1107.42 976.764 L1091.42 960.764 Z" fill="#ff0000" fill-rule="evenodd" fill-opacity="1" stroke="#000000" stroke-opacity="1" stroke-width="1.536"/>
<path clip-path="url(#clip330)" d="M1902.06 347.543 L2256.76 347.543 L2256.76 88.3434 L1902.06 88.3434  Z" fill="#ffffff" fill-rule="evenodd" fill-opacity="1"/>
<polyline clip-path="url(#clip330)" style="stroke:#000000; stroke-linecap:round; stroke-linejoin:round; stroke-width:4; stroke-opacity:1; fill:none" points="1902.06,347.543 2256.76,347.543 2256.76,88.3434 1902.06,88.3434 1902.06,347.543 "/>
<polyline clip-path="url(#clip330)" style="stroke:#0000ff; stroke-linecap:round; stroke-linejoin:round; stroke-width:12; stroke-opacity:1; fill:none" points="1924.05,140.183 2055.95,140.183 "/>
<line clip-path="url(#clip330)" x1="1990" y1="140.183" x2="1990" y2="119.828" style="stroke:#0000ff; stroke-width:12; stroke-opacity:1"/>
<line clip-path="url(#clip330)" x1="1990" y1="140.183" x2="1969.64" y2="140.183" style="stroke:#0000ff; stroke-width:12; stroke-opacity:1"/>
<line clip-path="url(#clip330)" x1="1990" y1="140.183" x2="1990" y2="160.539" style="stroke:#0000ff; stroke-width:12; stroke-opacity:1"/>
<line clip-path="url(#clip330)" x1="1990" y1="140.183" x2="2010.35" y2="140.183" style="stroke:#0000ff; stroke-width:12; stroke-opacity:1"/>
<path clip-path="url(#clip330)" d="M2077.93 157.463 L2077.93 155.907 L2079.14 155.907 Q2081.88 155.907 2082.5 155.462 Q2083.14 154.993 2083.14 153.511 L2083.14 127.004 Q2083.14 125.547 2082.5 125.102 Q2081.86 124.633 2079.14 124.633 L2077.93 124.633 L2077.93 123.052 L2106.41 123.052 L2107.82 134.44 L2106.56 134.44 Q2106.22 131.55 2105.75 129.894 Q2105.3 128.215 2104.19 126.93 Q2103.1 125.646 2101.3 125.151 Q2099.52 124.633 2096.63 124.633 L2090.11 124.633 Q2088.38 124.633 2088.01 125.003 Q2087.64 125.349 2087.64 126.658 L2087.64 138.788 L2092.18 138.788 Q2095.67 138.788 2096.66 137.577 Q2097.64 136.367 2097.64 132.884 L2098.93 132.884 L2098.93 146.273 L2097.64 146.273 Q2097.64 142.839 2096.66 141.604 Q2095.67 140.369 2092.18 140.369 L2087.64 140.369 L2087.64 153.881 Q2087.64 155.191 2088.01 155.561 Q2088.4 155.907 2090.11 155.907 L2096.85 155.907 Q2099.03 155.907 2100.61 155.635 Q2102.21 155.339 2103.33 154.647 Q2104.44 153.931 2105.18 153.116 Q2105.94 152.3 2106.46 150.843 Q2107.01 149.361 2107.3 148.002 Q2107.62 146.643 2107.97 144.42 L2109.23 144.42 L2107.11 157.463 L2077.93 157.463 Z" fill="#000000" fill-rule="nonzero" fill-opacity="1" /><path clip-path="url(#clip330)" d="M2112.32 157.463 L2112.32 155.907 L2113.53 155.907 Q2116.27 155.907 2116.89 155.462 Q2117.53 154.993 2117.53 153.511 L2117.53 126.856 Q2117.53 125.398 2116.89 124.954 Q2116.25 124.484 2113.53 124.484 L2112.32 124.484 L2112.32 122.903 Q2114.1 123.052 2119.8 123.052 Q2125.46 123.052 2127.24 122.903 L2127.24 124.484 L2126.03 124.484 Q2123.29 124.484 2122.64 124.954 Q2122.03 125.398 2122.03 126.856 L2122.03 142.938 L2137.86 127.819 Q2138.78 127.004 2138.78 126.14 Q2138.78 125.843 2138.63 125.522 Q2138.5 125.176 2137.91 124.83 Q2137.34 124.484 2136.43 124.484 L2136.43 122.903 Q2138.16 123.052 2142.88 123.052 Q2145.86 123.052 2147.17 122.903 L2147.17 124.484 Q2142.97 124.534 2139.99 127.523 L2130.87 136.268 L2142.55 153.461 Q2143.62 155.018 2144.65 155.462 Q2145.69 155.907 2147.87 155.907 L2147.87 157.463 Q2144.68 157.315 2142.06 157.315 Q2136.6 157.315 2134.82 157.463 L2134.82 155.907 Q2137.81 155.907 2137.81 154.376 Q2137.81 153.807 2137.05 152.646 L2127.88 139.109 L2122.03 144.667 L2122.03 153.511 Q2122.03 154.968 2122.64 155.438 Q2123.29 155.907 2126.03 155.907 L2127.24 155.907 L2127.24 157.463 Q2125.46 157.315 2119.75 157.315 Q2114.1 157.315 2112.32 157.463 Z" fill="#000000" fill-rule="nonzero" fill-opacity="1" /><path clip-path="url(#clip330)" d="M2154.44 128.585 L2154.44 127.004 Q2160.51 127.004 2163.65 123.768 Q2164.52 123.768 2164.66 123.966 Q2164.81 124.163 2164.81 125.077 L2164.81 153.461 Q2164.81 154.968 2165.55 155.438 Q2166.29 155.907 2169.53 155.907 L2171.14 155.907 L2171.14 157.463 Q2169.36 157.315 2162.94 157.315 Q2156.51 157.315 2154.76 157.463 L2154.76 155.907 L2156.36 155.907 Q2159.55 155.907 2160.32 155.462 Q2161.08 154.993 2161.08 153.461 L2161.08 127.251 Q2158.44 128.585 2154.44 128.585 Z" fill="#000000" fill-rule="nonzero" fill-opacity="1" /><path clip-path="url(#clip330)" d="M2180.25 144.815 Q2180.25 136.268 2183.44 129.376 Q2184.8 126.485 2186.7 124.064 Q2188.6 121.644 2189.86 120.581 Q2191.12 119.519 2191.47 119.519 Q2191.96 119.519 2191.99 120.013 Q2191.99 120.26 2191.32 120.878 Q2183.17 129.178 2183.19 144.815 Q2183.19 160.502 2191.12 168.481 Q2191.99 169.346 2191.99 169.617 Q2191.99 170.112 2191.47 170.112 Q2191.12 170.112 2189.91 169.099 Q2188.7 168.086 2186.82 165.764 Q2184.95 163.442 2183.59 160.601 Q2180.25 153.709 2180.25 144.815 Z" fill="#000000" fill-rule="nonzero" fill-opacity="1" /><path clip-path="url(#clip330)" d="M2196.98 150.645 Q2196.98 149.138 2197.84 148.422 Q2198.71 147.706 2199.82 147.706 Q2200.98 147.706 2201.79 148.471 Q2202.63 149.213 2202.63 150.522 Q2202.63 151.93 2201.65 152.72 Q2200.68 153.511 2199.3 153.313 Q2200.51 155.339 2202.73 156.253 Q2204.98 157.167 2207.06 157.167 Q2209.23 157.167 2210.98 155.29 Q2212.76 153.412 2212.76 148.817 Q2212.76 144.914 2211.23 142.666 Q2209.72 140.418 2206.73 140.418 L2204.51 140.418 Q2203.74 140.418 2203.52 140.344 Q2203.3 140.27 2203.3 139.85 Q2203.3 139.356 2204.07 139.257 Q2204.83 139.257 2206.04 139.109 Q2208.98 139.01 2210.54 136.466 Q2211.95 134.094 2211.95 130.71 Q2211.95 127.622 2210.46 126.337 Q2209.01 125.028 2207.1 125.028 Q2205.33 125.028 2203.37 125.769 Q2201.42 126.51 2200.36 128.165 Q2203.5 128.165 2203.5 130.71 Q2203.5 131.821 2202.78 132.562 Q2202.09 133.279 2200.93 133.279 Q2199.82 133.279 2199.08 132.587 Q2198.33 131.871 2198.33 130.66 Q2198.33 127.77 2200.9 125.769 Q2203.5 123.768 2207.3 123.768 Q2211.06 123.768 2213.82 125.744 Q2216.62 127.721 2216.62 130.759 Q2216.62 133.748 2214.64 136.194 Q2212.66 138.639 2209.53 139.652 Q2213.38 140.418 2215.68 143.037 Q2217.97 145.631 2217.97 148.817 Q2217.97 152.77 2214.86 155.685 Q2211.75 158.575 2207.2 158.575 Q2203 158.575 2199.99 156.302 Q2196.98 154.03 2196.98 150.645 Z" fill="#000000" fill-rule="nonzero" fill-opacity="1" /><path clip-path="url(#clip330)" d="M2223.04 169.617 Q2223.04 169.37 2223.68 168.753 Q2231.83 160.453 2231.83 144.815 Q2231.83 129.129 2224 121.199 Q2223.04 120.285 2223.04 120.013 Q2223.04 119.519 2223.53 119.519 Q2223.88 119.519 2225.09 120.532 Q2226.32 121.545 2228.18 123.867 Q2230.05 126.189 2231.44 129.03 Q2234.77 135.922 2234.77 144.815 Q2234.77 153.363 2231.59 160.255 Q2230.23 163.145 2228.32 165.566 Q2226.42 167.987 2225.16 169.049 Q2223.9 170.112 2223.53 170.112 Q2223.04 170.112 2223.04 169.617 Z" fill="#000000" fill-rule="nonzero" fill-opacity="1" /><polyline clip-path="url(#clip330)" style="stroke:#5400aa; stroke-linecap:round; stroke-linejoin:round; stroke-width:12; stroke-opacity:1; fill:none" points="1924.05,192.023 2055.95,192.023 "/>
<circle clip-path="url(#clip330)" cx="1990" cy="192.023" r="18.3196" fill="#5400aa" fill-rule="evenodd" fill-opacity="1" stroke="#000000" stroke-opacity="1" stroke-width="2.31304"/>
<path clip-path="url(#clip330)" d="M2077.93 209.303 L2077.93 207.747 L2079.14 207.747 Q2081.88 207.747 2082.5 207.302 Q2083.14 206.833 2083.14 205.351 L2083.14 178.844 Q2083.14 177.387 2082.5 176.942 Q2081.86 176.473 2079.14 176.473 L2077.93 176.473 L2077.93 174.892 L2106.41 174.892 L2107.82 186.28 L2106.56 186.28 Q2106.22 183.39 2105.75 181.734 Q2105.3 180.055 2104.19 178.77 Q2103.1 177.486 2101.3 176.991 Q2099.52 176.473 2096.63 176.473 L2090.11 176.473 Q2088.38 176.473 2088.01 176.843 Q2087.64 177.189 2087.64 178.498 L2087.64 190.628 L2092.18 190.628 Q2095.67 190.628 2096.66 189.417 Q2097.64 188.207 2097.64 184.724 L2098.93 184.724 L2098.93 198.113 L2097.64 198.113 Q2097.64 194.679 2096.66 193.444 Q2095.67 192.209 2092.18 192.209 L2087.64 192.209 L2087.64 205.721 Q2087.64 207.031 2088.01 207.401 Q2088.4 207.747 2090.11 207.747 L2096.85 207.747 Q2099.03 207.747 2100.61 207.475 Q2102.21 207.179 2103.33 206.487 Q2104.44 205.771 2105.18 204.956 Q2105.94 204.14 2106.46 202.683 Q2107.01 201.201 2107.3 199.842 Q2107.62 198.483 2107.97 196.26 L2109.23 196.26 L2107.11 209.303 L2077.93 209.303 Z" fill="#000000" fill-rule="nonzero" fill-opacity="1" /><path clip-path="url(#clip330)" d="M2112.32 209.303 L2112.32 207.747 L2113.53 207.747 Q2116.27 207.747 2116.89 207.302 Q2117.53 206.833 2117.53 205.351 L2117.53 178.696 Q2117.53 177.238 2116.89 176.794 Q2116.25 176.324 2113.53 176.324 L2112.32 176.324 L2112.32 174.743 Q2114.1 174.892 2119.8 174.892 Q2125.46 174.892 2127.24 174.743 L2127.24 176.324 L2126.03 176.324 Q2123.29 176.324 2122.64 176.794 Q2122.03 177.238 2122.03 178.696 L2122.03 194.778 L2137.86 179.659 Q2138.78 178.844 2138.78 177.98 Q2138.78 177.683 2138.63 177.362 Q2138.5 177.016 2137.91 176.67 Q2137.34 176.324 2136.43 176.324 L2136.43 174.743 Q2138.16 174.892 2142.88 174.892 Q2145.86 174.892 2147.17 174.743 L2147.17 176.324 Q2142.97 176.374 2139.99 179.363 L2130.87 188.108 L2142.55 205.301 Q2143.62 206.858 2144.65 207.302 Q2145.69 207.747 2147.87 207.747 L2147.87 209.303 Q2144.68 209.155 2142.06 209.155 Q2136.6 209.155 2134.82 209.303 L2134.82 207.747 Q2137.81 207.747 2137.81 206.216 Q2137.81 205.647 2137.05 204.486 L2127.88 190.949 L2122.03 196.507 L2122.03 205.351 Q2122.03 206.808 2122.64 207.278 Q2123.29 207.747 2126.03 207.747 L2127.24 207.747 L2127.24 209.303 Q2125.46 209.155 2119.75 209.155 Q2114.1 209.155 2112.32 209.303 Z" fill="#000000" fill-rule="nonzero" fill-opacity="1" /><path clip-path="url(#clip330)" d="M2154.44 180.425 L2154.44 178.844 Q2160.51 178.844 2163.65 175.608 Q2164.52 175.608 2164.66 175.806 Q2164.81 176.003 2164.81 176.917 L2164.81 205.301 Q2164.81 206.808 2165.55 207.278 Q2166.29 207.747 2169.53 207.747 L2171.14 207.747 L2171.14 209.303 Q2169.36 209.155 2162.94 209.155 Q2156.51 209.155 2154.76 209.303 L2154.76 207.747 L2156.36 207.747 Q2159.55 207.747 2160.32 207.302 Q2161.08 206.833 2161.08 205.301 L2161.08 179.091 Q2158.44 180.425 2154.44 180.425 Z" fill="#000000" fill-rule="nonzero" fill-opacity="1" /><path clip-path="url(#clip330)" d="M2180.25 196.655 Q2180.25 188.108 2183.44 181.216 Q2184.8 178.325 2186.7 175.904 Q2188.6 173.484 2189.86 172.421 Q2191.12 171.359 2191.47 171.359 Q2191.96 171.359 2191.99 171.853 Q2191.99 172.1 2191.32 172.718 Q2183.17 181.018 2183.19 196.655 Q2183.19 212.342 2191.12 220.321 Q2191.99 221.186 2191.99 221.457 Q2191.99 221.952 2191.47 221.952 Q2191.12 221.952 2189.91 220.939 Q2188.7 219.926 2186.82 217.604 Q2184.95 215.282 2183.59 212.441 Q2180.25 205.549 2180.25 196.655 Z" fill="#000000" fill-rule="nonzero" fill-opacity="1" /><path clip-path="url(#clip330)" d="M2196.26 200.954 L2196.26 199.397 L2211.8 175.657 Q2212.19 175.04 2212.81 175.065 Q2213.38 175.065 2213.5 175.287 Q2213.63 175.509 2213.63 176.374 L2213.63 199.397 L2218.69 199.397 L2218.69 200.954 L2213.63 200.954 L2213.63 205.351 Q2213.63 206.808 2214.22 207.278 Q2214.84 207.747 2217.46 207.747 L2218.52 207.747 L2218.52 209.303 Q2216.44 209.155 2211.65 209.155 Q2206.88 209.155 2204.81 209.303 L2204.81 207.747 L2205.87 207.747 Q2208.49 207.747 2209.11 207.302 Q2209.72 206.833 2209.72 205.351 L2209.72 200.954 L2196.26 200.954 M2197.69 199.397 L2210.02 199.397 L2210.02 180.524 L2197.69 199.397 Z" fill="#000000" fill-rule="nonzero" fill-opacity="1" /><path clip-path="url(#clip330)" d="M2223.04 221.457 Q2223.04 221.21 2223.68 220.593 Q2231.83 212.293 2231.83 196.655 Q2231.83 180.969 2224 173.039 Q2223.04 172.125 2223.04 171.853 Q2223.04 171.359 2223.53 171.359 Q2223.88 171.359 2225.09 172.372 Q2226.32 173.385 2228.18 175.707 Q2230.05 178.029 2231.44 180.87 Q2234.77 187.762 2234.77 196.655 Q2234.77 205.203 2231.59 212.095 Q2230.23 214.985 2228.32 217.406 Q2226.42 219.827 2225.16 220.889 Q2223.9 221.952 2223.53 221.952 Q2223.04 221.952 2223.04 221.457 Z" fill="#000000" fill-rule="nonzero" fill-opacity="1" /><polyline clip-path="url(#clip330)" style="stroke:#a90055; stroke-linecap:round; stroke-linejoin:round; stroke-width:12; stroke-opacity:1; fill:none" points="1924.05,243.863 2055.95,243.863 "/>
<line clip-path="url(#clip330)" x1="1990" y1="243.863" x2="1990" y2="223.508" style="stroke:#a90055; stroke-width:12; stroke-opacity:1"/>
<line clip-path="url(#clip330)" x1="1990" y1="243.863" x2="1969.64" y2="243.863" style="stroke:#a90055; stroke-width:12; stroke-opacity:1"/>
<line clip-path="url(#clip330)" x1="1990" y1="243.863" x2="1990" y2="264.219" style="stroke:#a90055; stroke-width:12; stroke-opacity:1"/>
<line clip-path="url(#clip330)" x1="1990" y1="243.863" x2="2010.35" y2="243.863" style="stroke:#a90055; stroke-width:12; stroke-opacity:1"/>
<path clip-path="url(#clip330)" d="M2077.93 261.143 L2077.93 259.587 L2079.14 259.587 Q2081.88 259.587 2082.5 259.142 Q2083.14 258.673 2083.14 257.191 L2083.14 230.684 Q2083.14 229.227 2082.5 228.782 Q2081.86 228.313 2079.14 228.313 L2077.93 228.313 L2077.93 226.732 L2106.41 226.732 L2107.82 238.12 L2106.56 238.12 Q2106.22 235.23 2105.75 233.574 Q2105.3 231.895 2104.19 230.61 Q2103.1 229.326 2101.3 228.831 Q2099.52 228.313 2096.63 228.313 L2090.11 228.313 Q2088.38 228.313 2088.01 228.683 Q2087.64 229.029 2087.64 230.338 L2087.64 242.468 L2092.18 242.468 Q2095.67 242.468 2096.66 241.257 Q2097.64 240.047 2097.64 236.564 L2098.93 236.564 L2098.93 249.953 L2097.64 249.953 Q2097.64 246.519 2096.66 245.284 Q2095.67 244.049 2092.18 244.049 L2087.64 244.049 L2087.64 257.561 Q2087.64 258.871 2088.01 259.241 Q2088.4 259.587 2090.11 259.587 L2096.85 259.587 Q2099.03 259.587 2100.61 259.315 Q2102.21 259.019 2103.33 258.327 Q2104.44 257.611 2105.18 256.796 Q2105.94 255.98 2106.46 254.523 Q2107.01 253.041 2107.3 251.682 Q2107.62 250.323 2107.97 248.1 L2109.23 248.1 L2107.11 261.143 L2077.93 261.143 Z" fill="#000000" fill-rule="nonzero" fill-opacity="1" /><path clip-path="url(#clip330)" d="M2112.32 261.143 L2112.32 259.587 L2113.53 259.587 Q2116.27 259.587 2116.89 259.142 Q2117.53 258.673 2117.53 257.191 L2117.53 230.536 Q2117.53 229.078 2116.89 228.634 Q2116.25 228.164 2113.53 228.164 L2112.32 228.164 L2112.32 226.583 Q2114.1 226.732 2119.8 226.732 Q2125.46 226.732 2127.24 226.583 L2127.24 228.164 L2126.03 228.164 Q2123.29 228.164 2122.64 228.634 Q2122.03 229.078 2122.03 230.536 L2122.03 246.618 L2137.86 231.499 Q2138.78 230.684 2138.78 229.82 Q2138.78 229.523 2138.63 229.202 Q2138.5 228.856 2137.91 228.51 Q2137.34 228.164 2136.43 228.164 L2136.43 226.583 Q2138.16 226.732 2142.88 226.732 Q2145.86 226.732 2147.17 226.583 L2147.17 228.164 Q2142.97 228.214 2139.99 231.203 L2130.87 239.948 L2142.55 257.141 Q2143.62 258.698 2144.65 259.142 Q2145.69 259.587 2147.87 259.587 L2147.87 261.143 Q2144.68 260.995 2142.06 260.995 Q2136.6 260.995 2134.82 261.143 L2134.82 259.587 Q2137.81 259.587 2137.81 258.056 Q2137.81 257.487 2137.05 256.326 L2127.88 242.789 L2122.03 248.347 L2122.03 257.191 Q2122.03 258.648 2122.64 259.118 Q2123.29 259.587 2126.03 259.587 L2127.24 259.587 L2127.24 261.143 Q2125.46 260.995 2119.75 260.995 Q2114.1 260.995 2112.32 261.143 Z" fill="#000000" fill-rule="nonzero" fill-opacity="1" /><path clip-path="url(#clip330)" d="M2154.44 232.265 L2154.44 230.684 Q2160.51 230.684 2163.65 227.448 Q2164.52 227.448 2164.66 227.646 Q2164.81 227.843 2164.81 228.757 L2164.81 257.141 Q2164.81 258.648 2165.55 259.118 Q2166.29 259.587 2169.53 259.587 L2171.14 259.587 L2171.14 261.143 Q2169.36 260.995 2162.94 260.995 Q2156.51 260.995 2154.76 261.143 L2154.76 259.587 L2156.36 259.587 Q2159.55 259.587 2160.32 259.142 Q2161.08 258.673 2161.08 257.141 L2161.08 230.931 Q2158.44 232.265 2154.44 232.265 Z" fill="#000000" fill-rule="nonzero" fill-opacity="1" /><path clip-path="url(#clip330)" d="M2180.25 248.495 Q2180.25 239.948 2183.44 233.056 Q2184.8 230.165 2186.7 227.744 Q2188.6 225.324 2189.86 224.261 Q2191.12 223.199 2191.47 223.199 Q2191.96 223.199 2191.99 223.693 Q2191.99 223.94 2191.32 224.558 Q2183.17 232.858 2183.19 248.495 Q2183.19 264.182 2191.12 272.161 Q2191.99 273.026 2191.99 273.297 Q2191.99 273.792 2191.47 273.792 Q2191.12 273.792 2189.91 272.779 Q2188.7 271.766 2186.82 269.444 Q2184.95 267.122 2183.59 264.281 Q2180.25 257.389 2180.25 248.495 Z" fill="#000000" fill-rule="nonzero" fill-opacity="1" /><path clip-path="url(#clip330)" d="M2197.37 252.991 Q2197.37 251.484 2198.19 250.916 Q2199 250.323 2199.87 250.323 Q2201.03 250.323 2201.69 251.064 Q2202.39 251.781 2202.39 252.794 Q2202.39 253.807 2201.69 254.548 Q2201.03 255.264 2199.87 255.264 Q2199.3 255.264 2199 255.165 Q2199.67 257.487 2201.69 259.167 Q2203.74 260.847 2206.44 260.847 Q2209.82 260.847 2211.85 257.561 Q2213.06 255.437 2213.06 250.62 Q2213.06 246.371 2212.14 244.246 Q2210.74 241.01 2207.85 241.01 Q2203.74 241.01 2201.32 244.543 Q2201.03 244.987 2200.68 245.012 Q2200.19 245.012 2200.06 244.74 Q2199.97 244.444 2199.97 243.678 L2199.97 228.708 Q2199.97 227.497 2200.46 227.497 Q2200.66 227.497 2201.08 227.646 Q2204.26 229.054 2207.8 229.078 Q2211.43 229.078 2214.69 227.596 Q2214.94 227.448 2215.08 227.448 Q2215.58 227.448 2215.6 228.016 Q2215.6 228.214 2215.18 228.807 Q2214.79 229.375 2213.92 230.141 Q2213.06 230.882 2211.95 231.598 Q2210.83 232.315 2209.2 232.809 Q2207.6 233.278 2205.82 233.278 Q2203.7 233.278 2201.52 232.611 L2201.52 242.468 Q2204.14 239.899 2207.94 239.899 Q2212 239.899 2214.79 243.159 Q2217.58 246.42 2217.58 250.966 Q2217.58 255.733 2214.27 258.994 Q2210.98 262.255 2206.54 262.255 Q2202.49 262.255 2199.92 259.365 Q2197.37 256.475 2197.37 252.991 Z" fill="#000000" fill-rule="nonzero" fill-opacity="1" /><path clip-path="url(#clip330)" d="M2223.04 273.297 Q2223.04 273.05 2223.68 272.433 Q2231.83 264.133 2231.83 248.495 Q2231.83 232.809 2224 224.879 Q2223.04 223.965 2223.04 223.693 Q2223.04 223.199 2223.53 223.199 Q2223.88 223.199 2225.09 224.212 Q2226.32 225.225 2228.18 227.547 Q2230.05 229.869 2231.44 232.71 Q2234.77 239.602 2234.77 248.495 Q2234.77 257.043 2231.59 263.935 Q2230.23 266.825 2228.32 269.246 Q2226.42 271.667 2225.16 272.729 Q2223.9 273.792 2223.53 273.792 Q2223.04 273.792 2223.04 273.297 Z" fill="#000000" fill-rule="nonzero" fill-opacity="1" /><polyline clip-path="url(#clip330)" style="stroke:#ff0000; stroke-linecap:round; stroke-linejoin:round; stroke-width:12; stroke-opacity:1; fill:none" points="1924.05,295.703 2055.95,295.703 "/>
<path clip-path="url(#clip330)" d="M1990 275.348 L1969.64 295.703 L1990 316.059 L2010.35 295.703 L1990 275.348 Z" fill="#ff0000" fill-rule="evenodd" fill-opacity="1" stroke="#000000" stroke-opacity="1" stroke-width="2.31304"/>
<path clip-path="url(#clip330)" d="M2077.93 312.983 L2077.93 311.427 L2079.14 311.427 Q2081.88 311.427 2082.5 310.982 Q2083.14 310.513 2083.14 309.031 L2083.14 282.524 Q2083.14 281.067 2082.5 280.622 Q2081.86 280.153 2079.14 280.153 L2077.93 280.153 L2077.93 278.572 L2106.41 278.572 L2107.82 289.96 L2106.56 289.96 Q2106.22 287.07 2105.75 285.414 Q2105.3 283.735 2104.19 282.45 Q2103.1 281.166 2101.3 280.671 Q2099.52 280.153 2096.63 280.153 L2090.11 280.153 Q2088.38 280.153 2088.01 280.523 Q2087.64 280.869 2087.64 282.178 L2087.64 294.308 L2092.18 294.308 Q2095.67 294.308 2096.66 293.097 Q2097.64 291.887 2097.64 288.404 L2098.93 288.404 L2098.93 301.793 L2097.64 301.793 Q2097.64 298.359 2096.66 297.124 Q2095.67 295.889 2092.18 295.889 L2087.64 295.889 L2087.64 309.401 Q2087.64 310.711 2088.01 311.081 Q2088.4 311.427 2090.11 311.427 L2096.85 311.427 Q2099.03 311.427 2100.61 311.155 Q2102.21 310.859 2103.33 310.167 Q2104.44 309.451 2105.18 308.636 Q2105.94 307.82 2106.46 306.363 Q2107.01 304.881 2107.3 303.522 Q2107.62 302.163 2107.97 299.94 L2109.23 299.94 L2107.11 312.983 L2077.93 312.983 Z" fill="#000000" fill-rule="nonzero" fill-opacity="1" /><path clip-path="url(#clip330)" d="M2112.32 312.983 L2112.32 311.427 L2113.53 311.427 Q2116.27 311.427 2116.89 310.982 Q2117.53 310.513 2117.53 309.031 L2117.53 282.376 Q2117.53 280.918 2116.89 280.474 Q2116.25 280.004 2113.53 280.004 L2112.32 280.004 L2112.32 278.423 Q2114.1 278.572 2119.8 278.572 Q2125.46 278.572 2127.24 278.423 L2127.24 280.004 L2126.03 280.004 Q2123.29 280.004 2122.64 280.474 Q2122.03 280.918 2122.03 282.376 L2122.03 298.458 L2137.86 283.339 Q2138.78 282.524 2138.78 281.66 Q2138.78 281.363 2138.63 281.042 Q2138.5 280.696 2137.91 280.35 Q2137.34 280.004 2136.43 280.004 L2136.43 278.423 Q2138.16 278.572 2142.88 278.572 Q2145.86 278.572 2147.17 278.423 L2147.17 280.004 Q2142.97 280.054 2139.99 283.043 L2130.87 291.788 L2142.55 308.981 Q2143.62 310.538 2144.65 310.982 Q2145.69 311.427 2147.87 311.427 L2147.87 312.983 Q2144.68 312.835 2142.06 312.835 Q2136.6 312.835 2134.82 312.983 L2134.82 311.427 Q2137.81 311.427 2137.81 309.896 Q2137.81 309.327 2137.05 308.166 L2127.88 294.629 L2122.03 300.187 L2122.03 309.031 Q2122.03 310.488 2122.64 310.958 Q2123.29 311.427 2126.03 311.427 L2127.24 311.427 L2127.24 312.983 Q2125.46 312.835 2119.75 312.835 Q2114.1 312.835 2112.32 312.983 Z" fill="#000000" fill-rule="nonzero" fill-opacity="1" /><path clip-path="url(#clip330)" d="M2154.44 284.105 L2154.44 282.524 Q2160.51 282.524 2163.65 279.288 Q2164.52 279.288 2164.66 279.486 Q2164.81 279.683 2164.81 280.597 L2164.81 308.981 Q2164.81 310.488 2165.55 310.958 Q2166.29 311.427 2169.53 311.427 L2171.14 311.427 L2171.14 312.983 Q2169.36 312.835 2162.94 312.835 Q2156.51 312.835 2154.76 312.983 L2154.76 311.427 L2156.36 311.427 Q2159.55 311.427 2160.32 310.982 Q2161.08 310.513 2161.08 308.981 L2161.08 282.771 Q2158.44 284.105 2154.44 284.105 Z" fill="#000000" fill-rule="nonzero" fill-opacity="1" /><path clip-path="url(#clip330)" d="M2180.25 300.335 Q2180.25 291.788 2183.44 284.896 Q2184.8 282.005 2186.7 279.584 Q2188.6 277.164 2189.86 276.101 Q2191.12 275.039 2191.47 275.039 Q2191.96 275.039 2191.99 275.533 Q2191.99 275.78 2191.32 276.398 Q2183.17 284.698 2183.19 300.335 Q2183.19 316.022 2191.12 324.001 Q2191.99 324.866 2191.99 325.137 Q2191.99 325.632 2191.47 325.632 Q2191.12 325.632 2189.91 324.619 Q2188.7 323.606 2186.82 321.284 Q2184.95 318.962 2183.59 316.121 Q2180.25 309.229 2180.25 300.335 Z" fill="#000000" fill-rule="nonzero" fill-opacity="1" /><path clip-path="url(#clip330)" d="M2196.98 297 Q2196.98 289.046 2201.03 284.179 Q2205.08 279.288 2210.29 279.288 Q2213.33 279.288 2215.01 280.844 Q2216.71 282.376 2216.71 284.748 Q2216.71 286.057 2215.95 286.625 Q2215.18 287.193 2214.39 287.193 Q2213.48 287.193 2212.76 286.576 Q2212.05 285.958 2212.05 284.846 Q2212.05 282.574 2214.84 282.574 Q2213.53 280.548 2210.39 280.548 Q2209.43 280.548 2208.44 280.844 Q2207.45 281.116 2206.17 282.055 Q2204.88 282.994 2203.89 284.476 Q2202.91 285.958 2202.21 288.749 Q2201.52 291.541 2201.52 295.172 L2201.52 296.383 Q2203.6 291.368 2207.85 291.393 Q2212.09 291.393 2215.03 294.629 Q2217.97 297.865 2217.97 302.657 Q2217.97 307.573 2214.91 310.834 Q2211.85 314.095 2207.55 314.095 Q2205.62 314.095 2203.87 313.28 Q2202.14 312.489 2200.51 310.661 Q2198.9 308.833 2197.94 305.325 Q2196.98 301.818 2196.98 297 M2201.62 301.546 Q2201.62 306.511 2202.53 308.883 Q2202.68 309.278 2203 309.821 Q2203.35 310.365 2203.92 311.081 Q2204.51 311.773 2205.47 312.242 Q2206.44 312.687 2207.55 312.687 Q2210.93 312.687 2212.56 309.401 Q2213.43 307.573 2213.43 302.608 Q2213.43 297.544 2212.51 295.691 Q2210.96 292.554 2207.8 292.554 Q2205.67 292.554 2204.19 294.011 Q2202.73 295.469 2202.16 297.42 Q2201.62 299.372 2201.62 301.546 Z" fill="#000000" fill-rule="nonzero" fill-opacity="1" /><path clip-path="url(#clip330)" d="M2223.04 325.137 Q2223.04 324.89 2223.68 324.273 Q2231.83 315.973 2231.83 300.335 Q2231.83 284.649 2224 276.719 Q2223.04 275.805 2223.04 275.533 Q2223.04 275.039 2223.53 275.039 Q2223.88 275.039 2225.09 276.052 Q2226.32 277.065 2228.18 279.387 Q2230.05 281.709 2231.44 284.55 Q2234.77 291.442 2234.77 300.335 Q2234.77 308.883 2231.59 315.775 Q2230.23 318.665 2228.32 321.086 Q2226.42 323.507 2225.16 324.569 Q2223.9 325.632 2223.53 325.632 Q2223.04 325.632 2223.04 325.137 Z" fill="#000000" fill-rule="nonzero" fill-opacity="1" /></svg>
