<?xml version="1.0" encoding="utf-8"?>
<svg xmlns="http://www.w3.org/2000/svg" xmlns:xlink="http://www.w3.org/1999/xlink" width="576" height="384" viewBox="0 0 2304 1536">
<defs>
  <clipPath id="clip820">
    <rect x="0" y="0" width="2304" height="1536"/>
  </clipPath>
</defs>
<path clip-path="url(#clip820)" d="M0 1536 L2304 1536 L2304 0 L0 0  Z" fill="#ffffff" fill-rule="evenodd" fill-opacity="1"/>
<defs>
  <clipPath id="clip821">
    <rect x="460" y="0" width="1614" height="1536"/>
  </clipPath>
</defs>
<path clip-path="url(#clip820)" d="M214.993 1280.22 L1827.68 1280.22 L1827.68 47.2441 L214.993 47.2441  Z" fill="#ffffff" fill-rule="evenodd" fill-opacity="1"/>
<defs>
  <clipPath id="clip822">
    <rect x="214" y="47" width="1614" height="1234"/>
  </clipPath>
</defs>
<polyline clip-path="url(#clip822)" style="stroke:#000000; stroke-linecap:round; stroke-linejoin:round; stroke-width:2.8; stroke-opacity:0.4; fill:none" points="324.577,1280.22 324.577,47.2441 "/>
<polyline clip-path="url(#clip822)" style="stroke:#000000; stroke-linecap:round; stroke-linejoin:round; stroke-width:2.8; stroke-opacity:0.4; fill:none" points="547.487,1280.22 547.487,47.2441 "/>
<polyline clip-path="url(#clip822)" style="stroke:#000000; stroke-linecap:round; stroke-linejoin:round; stroke-width:2.8; stroke-opacity:0.4; fill:none" points="770.398,1280.22 770.398,47.2441 "/>
<polyline clip-path="url(#clip822)" style="stroke:#000000; stroke-linecap:round; stroke-linejoin:round; stroke-width:2.8; stroke-opacity:0.4; fill:none" points="993.308,1280.22 993.308,47.2441 "/>
<polyline clip-path="url(#clip822)" style="stroke:#000000; stroke-linecap:round; stroke-linejoin:round; stroke-width:2.8; stroke-opacity:0.4; fill:none" points="1216.22,1280.22 1216.22,47.2441 "/>
<polyline clip-path="url(#clip822)" style="stroke:#000000; stroke-linecap:round; stroke-linejoin:round; stroke-width:2.8; stroke-opacity:0.4; fill:none" points="1439.13,1280.22 1439.13,47.2441 "/>
<polyline clip-path="url(#clip822)" style="stroke:#000000; stroke-linecap:round; stroke-linejoin:round; stroke-width:2.8; stroke-opacity:0.4; fill:none" points="1662.04,1280.22 1662.04,47.2441 "/>
<polyline clip-path="url(#clip822)" style="stroke:#000000; stroke-linecap:round; stroke-linejoin:round; stroke-width:2; stroke-opacity:0.06; fill:none" points="249.402,1280.22 249.402,47.2441 "/>
<polyline clip-path="url(#clip822)" style="stroke:#000000; stroke-linecap:round; stroke-linejoin:round; stroke-width:2; stroke-opacity:0.06; fill:none" points="281.372,1280.22 281.372,47.2441 "/>
<polyline clip-path="url(#clip822)" style="stroke:#000000; stroke-linecap:round; stroke-linejoin:round; stroke-width:2; stroke-opacity:0.06; fill:none" points="305.365,1280.22 305.365,47.2441 "/>
<polyline clip-path="url(#clip822)" style="stroke:#000000; stroke-linecap:round; stroke-linejoin:round; stroke-width:2; stroke-opacity:0.06; fill:none" points="424.253,1280.22 424.253,47.2441 "/>
<polyline clip-path="url(#clip822)" style="stroke:#000000; stroke-linecap:round; stroke-linejoin:round; stroke-width:2; stroke-opacity:0.06; fill:none" points="472.313,1280.22 472.313,47.2441 "/>
<polyline clip-path="url(#clip822)" style="stroke:#000000; stroke-linecap:round; stroke-linejoin:round; stroke-width:2; stroke-opacity:0.06; fill:none" points="504.283,1280.22 504.283,47.2441 "/>
<polyline clip-path="url(#clip822)" style="stroke:#000000; stroke-linecap:round; stroke-linejoin:round; stroke-width:2; stroke-opacity:0.06; fill:none" points="528.276,1280.22 528.276,47.2441 "/>
<polyline clip-path="url(#clip822)" style="stroke:#000000; stroke-linecap:round; stroke-linejoin:round; stroke-width:2; stroke-opacity:0.06; fill:none" points="647.164,1280.22 647.164,47.2441 "/>
<polyline clip-path="url(#clip822)" style="stroke:#000000; stroke-linecap:round; stroke-linejoin:round; stroke-width:2; stroke-opacity:0.06; fill:none" points="695.223,1280.22 695.223,47.2441 "/>
<polyline clip-path="url(#clip822)" style="stroke:#000000; stroke-linecap:round; stroke-linejoin:round; stroke-width:2; stroke-opacity:0.06; fill:none" points="727.193,1280.22 727.193,47.2441 "/>
<polyline clip-path="url(#clip822)" style="stroke:#000000; stroke-linecap:round; stroke-linejoin:round; stroke-width:2; stroke-opacity:0.06; fill:none" points="751.186,1280.22 751.186,47.2441 "/>
<polyline clip-path="url(#clip822)" style="stroke:#000000; stroke-linecap:round; stroke-linejoin:round; stroke-width:2; stroke-opacity:0.06; fill:none" points="870.074,1280.22 870.074,47.2441 "/>
<polyline clip-path="url(#clip822)" style="stroke:#000000; stroke-linecap:round; stroke-linejoin:round; stroke-width:2; stroke-opacity:0.06; fill:none" points="918.134,1280.22 918.134,47.2441 "/>
<polyline clip-path="url(#clip822)" style="stroke:#000000; stroke-linecap:round; stroke-linejoin:round; stroke-width:2; stroke-opacity:0.06; fill:none" points="950.104,1280.22 950.104,47.2441 "/>
<polyline clip-path="url(#clip822)" style="stroke:#000000; stroke-linecap:round; stroke-linejoin:round; stroke-width:2; stroke-opacity:0.06; fill:none" points="974.097,1280.22 974.097,47.2441 "/>
<polyline clip-path="url(#clip822)" style="stroke:#000000; stroke-linecap:round; stroke-linejoin:round; stroke-width:2; stroke-opacity:0.06; fill:none" points="1092.98,1280.22 1092.98,47.2441 "/>
<polyline clip-path="url(#clip822)" style="stroke:#000000; stroke-linecap:round; stroke-linejoin:round; stroke-width:2; stroke-opacity:0.06; fill:none" points="1141.04,1280.22 1141.04,47.2441 "/>
<polyline clip-path="url(#clip822)" style="stroke:#000000; stroke-linecap:round; stroke-linejoin:round; stroke-width:2; stroke-opacity:0.06; fill:none" points="1173.01,1280.22 1173.01,47.2441 "/>
<polyline clip-path="url(#clip822)" style="stroke:#000000; stroke-linecap:round; stroke-linejoin:round; stroke-width:2; stroke-opacity:0.06; fill:none" points="1197.01,1280.22 1197.01,47.2441 "/>
<polyline clip-path="url(#clip822)" style="stroke:#000000; stroke-linecap:round; stroke-linejoin:round; stroke-width:2; stroke-opacity:0.06; fill:none" points="1315.9,1280.22 1315.9,47.2441 "/>
<polyline clip-path="url(#clip822)" style="stroke:#000000; stroke-linecap:round; stroke-linejoin:round; stroke-width:2; stroke-opacity:0.06; fill:none" points="1363.95,1280.22 1363.95,47.2441 "/>
<polyline clip-path="url(#clip822)" style="stroke:#000000; stroke-linecap:round; stroke-linejoin:round; stroke-width:2; stroke-opacity:0.06; fill:none" points="1395.92,1280.22 1395.92,47.2441 "/>
<polyline clip-path="url(#clip822)" style="stroke:#000000; stroke-linecap:round; stroke-linejoin:round; stroke-width:2; stroke-opacity:0.06; fill:none" points="1419.92,1280.22 1419.92,47.2441 "/>
<polyline clip-path="url(#clip822)" style="stroke:#000000; stroke-linecap:round; stroke-linejoin:round; stroke-width:2; stroke-opacity:0.06; fill:none" points="1538.81,1280.22 1538.81,47.2441 "/>
<polyline clip-path="url(#clip822)" style="stroke:#000000; stroke-linecap:round; stroke-linejoin:round; stroke-width:2; stroke-opacity:0.06; fill:none" points="1586.87,1280.22 1586.87,47.2441 "/>
<polyline clip-path="url(#clip822)" style="stroke:#000000; stroke-linecap:round; stroke-linejoin:round; stroke-width:2; stroke-opacity:0.06; fill:none" points="1618.84,1280.22 1618.84,47.2441 "/>
<polyline clip-path="url(#clip822)" style="stroke:#000000; stroke-linecap:round; stroke-linejoin:round; stroke-width:2; stroke-opacity:0.06; fill:none" points="1642.83,1280.22 1642.83,47.2441 "/>
<polyline clip-path="url(#clip822)" style="stroke:#000000; stroke-linecap:round; stroke-linejoin:round; stroke-width:2; stroke-opacity:0.06; fill:none" points="1761.72,1280.22 1761.72,47.2441 "/>
<polyline clip-path="url(#clip822)" style="stroke:#000000; stroke-linecap:round; stroke-linejoin:round; stroke-width:2; stroke-opacity:0.06; fill:none" points="1809.78,1280.22 1809.78,47.2441 "/>
<polyline clip-path="url(#clip820)" style="stroke:#000000; stroke-linecap:round; stroke-linejoin:round; stroke-width:4; stroke-opacity:1; fill:none" points="214.993,1280.22 1827.68,1280.22 "/>
<polyline clip-path="url(#clip820)" style="stroke:#000000; stroke-linecap:round; stroke-linejoin:round; stroke-width:4; stroke-opacity:1; fill:none" points="214.993,47.2441 1827.68,47.2441 "/>
<polyline clip-path="url(#clip820)" style="stroke:#000000; stroke-linecap:round; stroke-linejoin:round; stroke-width:4; stroke-opacity:1; fill:none" points="324.577,1280.22 324.577,1261.33 "/>
<polyline clip-path="url(#clip820)" style="stroke:#000000; stroke-linecap:round; stroke-linejoin:round; stroke-width:4; stroke-opacity:1; fill:none" points="547.487,1280.22 547.487,1261.33 "/>
<polyline clip-path="url(#clip820)" style="stroke:#000000; stroke-linecap:round; stroke-linejoin:round; stroke-width:4; stroke-opacity:1; fill:none" points="770.398,1280.22 770.398,1261.33 "/>
<polyline clip-path="url(#clip820)" style="stroke:#000000; stroke-linecap:round; stroke-linejoin:round; stroke-width:4; stroke-opacity:1; fill:none" points="993.308,1280.22 993.308,1261.33 "/>
<polyline clip-path="url(#clip820)" style="stroke:#000000; stroke-linecap:round; stroke-linejoin:round; stroke-width:4; stroke-opacity:1; fill:none" points="1216.22,1280.22 1216.22,1261.33 "/>
<polyline clip-path="url(#clip820)" style="stroke:#000000; stroke-linecap:round; stroke-linejoin:round; stroke-width:4; stroke-opacity:1; fill:none" points="1439.13,1280.22 1439.13,1261.33 "/>
<polyline clip-path="url(#clip820)" style="stroke:#000000; stroke-linecap:round; stroke-linejoin:round; stroke-width:4; stroke-opacity:1; fill:none" points="1662.04,1280.22 1662.04,1261.33 "/>
<polyline clip-path="url(#clip820)" style="stroke:#000000; stroke-linecap:round; stroke-linejoin:round; stroke-width:4; stroke-opacity:1; fill:none" points="249.402,1280.22 249.402,1270.78 "/>
<polyline clip-path="url(#clip820)" style="stroke:#000000; stroke-linecap:round; stroke-linejoin:round; stroke-width:4; stroke-opacity:1; fill:none" points="281.372,1280.22 281.372,1270.78 "/>
<polyline clip-path="url(#clip820)" style="stroke:#000000; stroke-linecap:round; stroke-linejoin:round; stroke-width:4; stroke-opacity:1; fill:none" points="305.365,1280.22 305.365,1270.78 "/>
<polyline clip-path="url(#clip820)" style="stroke:#000000; stroke-linecap:round; stroke-linejoin:round; stroke-width:4; stroke-opacity:1; fill:none" points="424.253,1280.22 424.253,1270.78 "/>
<polyline clip-path="url(#clip820)" style="stroke:#000000; stroke-linecap:round; stroke-linejoin:round; stroke-width:4; stroke-opacity:1; fill:none" points="472.313,1280.22 472.313,1270.78 "/>
<polyline clip-path="url(#clip820)" style="stroke:#000000; stroke-linecap:round; stroke-linejoin:round; stroke-width:4; stroke-opacity:1; fill:none" points="504.283,1280.22 504.283,1270.78 "/>
<polyline clip-path="url(#clip820)" style="stroke:#000000; stroke-linecap:round; stroke-linejoin:round; stroke-width:4; stroke-opacity:1; fill:none" points="528.276,1280.22 528.276,1270.78 "/>
<polyline clip-path="url(#clip820)" style="stroke:#000000; stroke-linecap:round; stroke-linejoin:round; stroke-width:4; stroke-opacity:1; fill:none" points="647.164,1280.22 647.164,1270.78 "/>
<polyline clip-path="url(#clip820)" style="stroke:#000000; stroke-linecap:round; stroke-linejoin:round; stroke-width:4; stroke-opacity:1; fill:none" points="695.223,1280.22 695.223,1270.78 "/>
<polyline clip-path="url(#clip820)" style="stroke:#000000; stroke-linecap:round; stroke-linejoin:round; stroke-width:4; stroke-opacity:1; fill:none" points="727.193,1280.22 727.193,1270.78 "/>
<polyline clip-path="url(#clip820)" style="stroke:#000000; stroke-linecap:round; stroke-linejoin:round; stroke-width:4; stroke-opacity:1; fill:none" points="751.186,1280.22 751.186,1270.78 "/>
<polyline clip-path="url(#clip820)" style="stroke:#000000; stroke-linecap:round; stroke-linejoin:round; stroke-width:4; stroke-opacity:1; fill:none" points="870.074,1280.22 870.074,1270.78 "/>
<polyline clip-path="url(#clip820)" style="stroke:#000000; stroke-linecap:round; stroke-linejoin:round; stroke-width:4; stroke-opacity:1; fill:none" points="918.134,1280.22 918.134,1270.78 "/>
<polyline clip-path="url(#clip820)" style="stroke:#000000; stroke-linecap:round; stroke-linejoin:round; stroke-width:4; stroke-opacity:1; fill:none" points="950.104,1280.22 950.104,1270.78 "/>
<polyline clip-path="url(#clip820)" style="stroke:#000000; stroke-linecap:round; stroke-linejoin:round; stroke-width:4; stroke-opacity:1; fill:none" points="974.097,1280.22 974.097,1270.78 "/>
<polyline clip-path="url(#clip820)" style="stroke:#000000; stroke-linecap:round; stroke-linejoin:round; stroke-width:4; stroke-opacity:1; fill:none" points="1092.98,1280.22 1092.98,1270.78 "/>
<polyline clip-path="url(#clip820)" style="stroke:#000000; stroke-linecap:round; stroke-linejoin:round; stroke-width:4; stroke-opacity:1; fill:none" points="1141.04,1280.22 1141.04,1270.78 "/>
<polyline clip-path="url(#clip820)" style="stroke:#000000; stroke-linecap:round; stroke-linejoin:round; stroke-width:4; stroke-opacity:1; fill:none" points="1173.01,1280.22 1173.01,1270.78 "/>
<polyline clip-path="url(#clip820)" style="stroke:#000000; stroke-linecap:round; stroke-linejoin:round; stroke-width:4; stroke-opacity:1; fill:none" points="1197.01,1280.22 1197.01,1270.78 "/>
<polyline clip-path="url(#clip820)" style="stroke:#000000; stroke-linecap:round; stroke-linejoin:round; stroke-width:4; stroke-opacity:1; fill:none" points="1315.9,1280.22 1315.9,1270.78 "/>
<polyline clip-path="url(#clip820)" style="stroke:#000000; stroke-linecap:round; stroke-linejoin:round; stroke-width:4; stroke-opacity:1; fill:none" points="1363.95,1280.22 1363.95,1270.78 "/>
<polyline clip-path="url(#clip820)" style="stroke:#000000; stroke-linecap:round; stroke-linejoin:round; stroke-width:4; stroke-opacity:1; fill:none" points="1395.92,1280.22 1395.92,1270.78 "/>
<polyline clip-path="url(#clip820)" style="stroke:#000000; stroke-linecap:round; stroke-linejoin:round; stroke-width:4; stroke-opacity:1; fill:none" points="1419.92,1280.22 1419.92,1270.78 "/>
<polyline clip-path="url(#clip820)" style="stroke:#000000; stroke-linecap:round; stroke-linejoin:round; stroke-width:4; stroke-opacity:1; fill:none" points="1538.81,1280.22 1538.81,1270.78 "/>
<polyline clip-path="url(#clip820)" style="stroke:#000000; stroke-linecap:round; stroke-linejoin:round; stroke-width:4; stroke-opacity:1; fill:none" points="1586.87,1280.22 1586.87,1270.78 "/>
<polyline clip-path="url(#clip820)" style="stroke:#000000; stroke-linecap:round; stroke-linejoin:round; stroke-width:4; stroke-opacity:1; fill:none" points="1618.84,1280.22 1618.84,1270.78 "/>
<polyline clip-path="url(#clip820)" style="stroke:#000000; stroke-linecap:round; stroke-linejoin:round; stroke-width:4; stroke-opacity:1; fill:none" points="1642.83,1280.22 1642.83,1270.78 "/>
<polyline clip-path="url(#clip820)" style="stroke:#000000; stroke-linecap:round; stroke-linejoin:round; stroke-width:4; stroke-opacity:1; fill:none" points="1761.72,1280.22 1761.72,1270.78 "/>
<polyline clip-path="url(#clip820)" style="stroke:#000000; stroke-linecap:round; stroke-linejoin:round; stroke-width:4; stroke-opacity:1; fill:none" points="1809.78,1280.22 1809.78,1270.78 "/>
<path clip-path="url(#clip820)" d="M278.315 1328.64 L278.315 1327.06 Q284.392 1327.06 287.53 1323.82 Q288.394 1323.82 288.542 1324.02 Q288.691 1324.22 288.691 1325.13 L288.691 1353.51 Q288.691 1355.02 289.432 1355.49 Q290.173 1355.96 293.409 1355.96 L295.015 1355.96 L295.015 1357.52 Q293.236 1357.37 286.813 1357.37 Q280.39 1357.37 278.636 1357.52 L278.636 1355.96 L280.242 1355.96 Q283.429 1355.96 284.195 1355.52 Q284.96 1355.05 284.96 1353.51 L284.96 1327.3 Q282.317 1328.64 278.315 1328.64 Z" fill="#000000" fill-rule="nonzero" fill-opacity="1" /><path clip-path="url(#clip820)" d="M301.092 1341.34 Q301.092 1333.9 302.969 1329.85 Q305.588 1323.82 311.764 1323.82 Q313.073 1323.82 314.432 1324.19 Q315.815 1324.54 317.544 1325.9 Q319.298 1327.25 320.36 1329.48 Q322.386 1333.78 322.386 1341.34 Q322.386 1348.72 320.509 1352.75 Q317.766 1358.63 311.714 1358.63 Q309.441 1358.63 307.119 1357.47 Q304.822 1356.31 303.364 1353.51 Q301.092 1349.34 301.092 1341.34 M305.291 1340.72 Q305.291 1348.35 305.835 1351.39 Q306.452 1354.68 308.132 1356.11 Q309.837 1357.52 311.714 1357.52 Q313.74 1357.52 315.42 1356.01 Q317.124 1354.48 317.643 1351.19 Q318.211 1347.96 318.186 1340.72 Q318.186 1333.68 317.692 1330.86 Q317.025 1327.58 315.247 1326.27 Q313.493 1324.93 311.714 1324.93 Q311.047 1324.93 310.331 1325.13 Q309.639 1325.33 308.626 1325.9 Q307.613 1326.46 306.823 1327.87 Q306.057 1329.28 305.687 1331.41 Q305.291 1334.15 305.291 1340.72 Z" fill="#000000" fill-rule="nonzero" fill-opacity="1" /><path clip-path="url(#clip820)" d="M349.523 1319.25 Q349.764 1319.49 349.764 1319.83 Q349.764 1320.17 349.523 1320.41 Q349.282 1320.65 348.941 1320.65 L323.209 1320.65 Q322.868 1320.65 322.627 1320.41 Q322.386 1320.17 322.386 1319.83 Q322.386 1319.49 322.627 1319.25 Q322.868 1319.01 323.209 1319.01 L348.941 1319.01 Q349.282 1319.01 349.523 1319.25 Z" fill="#000000" fill-rule="nonzero" fill-opacity="1" /><path clip-path="url(#clip820)" d="M353.778 1311.98 Q353.778 1309.79 354.42 1308.31 Q355.062 1306.8 356.407 1305.32 Q358.876 1302.73 362.449 1302.73 Q363.974 1302.73 365.319 1303.37 Q366.684 1304.01 367.968 1305.48 Q369.273 1306.92 370.056 1309.79 Q370.839 1312.64 370.839 1316.58 Q370.839 1322.94 367.748 1326.97 Q364.677 1331.01 360.522 1331.01 Q357.892 1331.01 356.347 1329.83 Q354.801 1328.62 354.801 1326.57 Q354.801 1325.51 355.404 1325.07 Q356.006 1324.61 356.688 1324.61 Q357.431 1324.61 358.013 1325.11 Q358.595 1325.59 358.595 1326.49 Q358.595 1327.24 358.113 1327.82 Q357.652 1328.38 356.447 1328.38 Q357.632 1329.87 360.482 1329.87 Q361.505 1329.87 362.529 1329.4 Q363.553 1328.92 364.657 1327.78 Q365.781 1326.61 366.463 1324.19 Q367.145 1321.76 367.145 1318.34 L367.145 1317.04 Q365.5 1321.15 362.007 1321.15 Q358.555 1321.15 356.166 1318.5 Q353.778 1315.86 353.778 1311.98 M357.471 1312.02 Q357.471 1316.1 358.214 1317.6 Q359.478 1320.19 362.047 1320.19 Q364.556 1320.19 365.801 1317.96 Q367.065 1315.71 367.065 1312.8 Q367.065 1308.77 366.403 1307 Q365.178 1303.75 362.449 1303.75 Q359.739 1303.75 358.334 1306.34 Q357.471 1307.87 357.471 1312.02 Z" fill="#000000" fill-rule="nonzero" fill-opacity="1" /><path clip-path="url(#clip820)" d="M501.226 1328.64 L501.226 1327.06 Q507.303 1327.06 510.44 1323.82 Q511.305 1323.82 511.453 1324.02 Q511.601 1324.22 511.601 1325.13 L511.601 1353.51 Q511.601 1355.02 512.342 1355.49 Q513.083 1355.96 516.319 1355.96 L517.925 1355.96 L517.925 1357.52 Q516.147 1357.37 509.724 1357.37 Q503.301 1357.37 501.547 1357.52 L501.547 1355.96 L503.153 1355.96 Q506.339 1355.96 507.105 1355.52 Q507.871 1355.05 507.871 1353.51 L507.871 1327.3 Q505.228 1328.64 501.226 1328.64 Z" fill="#000000" fill-rule="nonzero" fill-opacity="1" /><path clip-path="url(#clip820)" d="M524.002 1341.34 Q524.002 1333.9 525.88 1329.85 Q528.498 1323.82 534.674 1323.82 Q535.983 1323.82 537.342 1324.19 Q538.725 1324.54 540.455 1325.9 Q542.209 1327.25 543.271 1329.48 Q545.297 1333.78 545.297 1341.34 Q545.297 1348.72 543.419 1352.75 Q540.677 1358.63 534.625 1358.63 Q532.352 1358.63 530.03 1357.47 Q527.732 1356.31 526.275 1353.51 Q524.002 1349.34 524.002 1341.34 M528.202 1340.72 Q528.202 1348.35 528.745 1351.39 Q529.363 1354.68 531.043 1356.11 Q532.747 1357.52 534.625 1357.52 Q536.65 1357.52 538.33 1356.01 Q540.035 1354.48 540.553 1351.19 Q541.122 1347.96 541.097 1340.72 Q541.097 1333.68 540.603 1330.86 Q539.936 1327.58 538.157 1326.27 Q536.403 1324.93 534.625 1324.93 Q533.958 1324.93 533.241 1325.13 Q532.55 1325.33 531.537 1325.9 Q530.524 1326.46 529.733 1327.87 Q528.968 1329.28 528.597 1331.41 Q528.202 1334.15 528.202 1340.72 Z" fill="#000000" fill-rule="nonzero" fill-opacity="1" /><path clip-path="url(#clip820)" d="M572.433 1319.25 Q572.674 1319.49 572.674 1319.83 Q572.674 1320.17 572.433 1320.41 Q572.192 1320.65 571.851 1320.65 L546.119 1320.65 Q545.778 1320.65 545.537 1320.41 Q545.297 1320.17 545.297 1319.83 Q545.297 1319.49 545.537 1319.25 Q545.778 1319.01 546.119 1319.01 L571.851 1319.01 Q572.192 1319.01 572.433 1319.25 Z" fill="#000000" fill-rule="nonzero" fill-opacity="1" /><path clip-path="url(#clip820)" d="M576.688 1323.9 Q576.688 1319.31 582.609 1316.34 Q580.06 1314.61 579.599 1314.11 Q577.792 1312.1 577.792 1309.59 Q577.792 1306.72 579.96 1304.74 Q582.148 1302.73 585.239 1302.73 Q588.189 1302.73 590.417 1304.43 Q592.645 1306.14 592.645 1308.85 Q592.645 1312.66 587.667 1315.23 Q590.959 1317.28 591.742 1318.14 Q593.749 1320.37 593.749 1323.2 Q593.749 1326.49 591.22 1328.76 Q588.691 1331.01 585.199 1331.01 Q581.786 1331.01 579.237 1329.02 Q576.688 1327.04 576.688 1323.9 M578.736 1323.9 Q578.736 1326.45 580.642 1328.16 Q582.569 1329.87 585.239 1329.87 Q587.828 1329.87 589.755 1328.38 Q591.702 1326.89 591.702 1324.69 Q591.702 1323.82 591.401 1323.08 Q591.12 1322.34 590.538 1321.76 Q589.976 1321.15 589.614 1320.89 Q589.273 1320.61 588.611 1320.15 L583.553 1316.96 Q578.736 1319.63 578.736 1323.9 M579.599 1307.99 Q579.599 1309.95 581.666 1311.32 L586.764 1314.61 Q590.839 1312.22 590.839 1308.85 Q590.839 1306.66 589.173 1305.22 Q587.507 1303.75 585.199 1303.75 Q582.931 1303.75 581.265 1304.96 Q579.599 1306.14 579.599 1307.99 Z" fill="#000000" fill-rule="nonzero" fill-opacity="1" /><path clip-path="url(#clip820)" d="M723.564 1328.64 L723.564 1327.06 Q729.641 1327.06 732.779 1323.82 Q733.643 1323.82 733.791 1324.02 Q733.94 1324.22 733.94 1325.13 L733.94 1353.51 Q733.94 1355.02 734.681 1355.49 Q735.422 1355.96 738.658 1355.96 L740.264 1355.96 L740.264 1357.52 Q738.485 1357.37 732.062 1357.37 Q725.639 1357.37 723.885 1357.52 L723.885 1355.96 L725.491 1355.96 Q728.678 1355.96 729.444 1355.52 Q730.209 1355.05 730.209 1353.51 L730.209 1327.3 Q727.566 1328.64 723.564 1328.64 Z" fill="#000000" fill-rule="nonzero" fill-opacity="1" /><path clip-path="url(#clip820)" d="M746.341 1341.34 Q746.341 1333.9 748.218 1329.85 Q750.837 1323.82 757.013 1323.82 Q758.322 1323.82 759.681 1324.19 Q761.064 1324.54 762.793 1325.9 Q764.547 1327.25 765.609 1329.48 Q767.635 1333.78 767.635 1341.34 Q767.635 1348.72 765.758 1352.75 Q763.015 1358.63 756.963 1358.63 Q754.69 1358.63 752.368 1357.47 Q750.071 1356.31 748.613 1353.51 Q746.341 1349.34 746.341 1341.34 M750.54 1340.72 Q750.54 1348.35 751.084 1351.39 Q751.701 1354.68 753.381 1356.11 Q755.086 1357.52 756.963 1357.52 Q758.989 1357.52 760.669 1356.01 Q762.373 1354.48 762.892 1351.19 Q763.46 1347.96 763.435 1340.72 Q763.435 1333.68 762.941 1330.86 Q762.274 1327.58 760.496 1326.27 Q758.742 1324.93 756.963 1324.93 Q756.296 1324.93 755.58 1325.13 Q754.888 1325.33 753.875 1325.9 Q752.862 1326.46 752.072 1327.87 Q751.306 1329.28 750.936 1331.41 Q750.54 1334.15 750.54 1340.72 Z" fill="#000000" fill-rule="nonzero" fill-opacity="1" /><path clip-path="url(#clip820)" d="M794.772 1319.25 Q795.013 1319.49 795.013 1319.83 Q795.013 1320.17 794.772 1320.41 Q794.531 1320.65 794.19 1320.65 L768.458 1320.65 Q768.117 1320.65 767.876 1320.41 Q767.635 1320.17 767.635 1319.83 Q767.635 1319.49 767.876 1319.25 Q768.117 1319.01 768.458 1319.01 L794.19 1319.01 Q794.531 1319.01 794.772 1319.25 Z" fill="#000000" fill-rule="nonzero" fill-opacity="1" /><path clip-path="url(#clip820)" d="M799.609 1310.78 L800.954 1302.33 L801.977 1302.33 Q802.098 1302.83 802.298 1303.05 Q802.519 1303.27 803.683 1303.45 Q804.868 1303.63 807.256 1303.63 L817.232 1303.63 Q817.232 1304.58 816.87 1305.08 L811.311 1312.88 Q809.544 1315.35 808.761 1319.91 Q808.3 1322.96 808.32 1326.65 L808.32 1328.74 Q808.32 1331.01 806.413 1331.01 Q804.526 1331.01 804.526 1328.74 Q804.526 1320.89 809.584 1313.29 Q810.126 1312.5 812.113 1309.71 Q814.121 1306.92 814.201 1306.8 L805.691 1306.8 Q801.957 1306.8 801.656 1307.04 Q801.255 1307.41 800.633 1310.78 L799.609 1310.78 Z" fill="#000000" fill-rule="nonzero" fill-opacity="1" /><path clip-path="url(#clip820)" d="M947.047 1328.64 L947.047 1327.06 Q953.124 1327.06 956.261 1323.82 Q957.126 1323.82 957.274 1324.02 Q957.422 1324.22 957.422 1325.13 L957.422 1353.51 Q957.422 1355.02 958.163 1355.49 Q958.904 1355.96 962.141 1355.96 L963.746 1355.96 L963.746 1357.52 Q961.968 1357.37 955.545 1357.37 Q949.122 1357.37 947.368 1357.52 L947.368 1355.96 L948.974 1355.96 Q952.16 1355.96 952.926 1355.52 Q953.692 1355.05 953.692 1353.51 L953.692 1327.3 Q951.049 1328.64 947.047 1328.64 Z" fill="#000000" fill-rule="nonzero" fill-opacity="1" /><path clip-path="url(#clip820)" d="M969.823 1341.34 Q969.823 1333.9 971.701 1329.85 Q974.319 1323.82 980.495 1323.82 Q981.804 1323.82 983.163 1324.19 Q984.546 1324.54 986.276 1325.9 Q988.03 1327.25 989.092 1329.48 Q991.118 1333.78 991.118 1341.34 Q991.118 1348.72 989.24 1352.75 Q986.498 1358.63 980.446 1358.63 Q978.173 1358.63 975.851 1357.47 Q973.553 1356.31 972.096 1353.51 Q969.823 1349.34 969.823 1341.34 M974.023 1340.72 Q974.023 1348.35 974.566 1351.39 Q975.184 1354.68 976.864 1356.11 Q978.568 1357.52 980.446 1357.52 Q982.471 1357.52 984.151 1356.01 Q985.856 1354.48 986.375 1351.19 Q986.943 1347.96 986.918 1340.72 Q986.918 1333.68 986.424 1330.86 Q985.757 1327.58 983.978 1326.27 Q982.224 1324.93 980.446 1324.93 Q979.779 1324.93 979.062 1325.13 Q978.371 1325.33 977.358 1325.9 Q976.345 1326.46 975.554 1327.87 Q974.789 1329.28 974.418 1331.41 Q974.023 1334.15 974.023 1340.72 Z" fill="#000000" fill-rule="nonzero" fill-opacity="1" /><path clip-path="url(#clip820)" d="M1018.25 1319.25 Q1018.5 1319.49 1018.5 1319.83 Q1018.5 1320.17 1018.25 1320.41 Q1018.01 1320.65 1017.67 1320.65 L991.94 1320.65 Q991.599 1320.65 991.358 1320.41 Q991.118 1320.17 991.118 1319.83 Q991.118 1319.49 991.358 1319.25 Q991.599 1319.01 991.94 1319.01 L1017.67 1319.01 Q1018.01 1319.01 1018.25 1319.25 Z" fill="#000000" fill-rule="nonzero" fill-opacity="1" /><path clip-path="url(#clip820)" d="M1022.51 1317.12 Q1022.51 1310.66 1025.8 1306.7 Q1029.09 1302.73 1033.33 1302.73 Q1035.8 1302.73 1037.16 1303.99 Q1038.55 1305.24 1038.55 1307.16 Q1038.55 1308.23 1037.92 1308.69 Q1037.3 1309.15 1036.66 1309.15 Q1035.92 1309.15 1035.34 1308.65 Q1034.75 1308.15 1034.75 1307.24 Q1034.75 1305.4 1037.02 1305.4 Q1035.96 1303.75 1033.41 1303.75 Q1032.63 1303.75 1031.82 1303.99 Q1031.02 1304.21 1029.98 1304.98 Q1028.93 1305.74 1028.13 1306.94 Q1027.33 1308.15 1026.76 1310.42 Q1026.2 1312.68 1026.2 1315.63 L1026.2 1316.62 Q1027.89 1312.54 1031.34 1312.56 Q1034.79 1312.56 1037.18 1315.19 Q1039.57 1317.82 1039.57 1321.72 Q1039.57 1325.71 1037.08 1328.36 Q1034.59 1331.01 1031.1 1331.01 Q1029.53 1331.01 1028.11 1330.35 Q1026.7 1329.7 1025.38 1328.22 Q1024.07 1326.73 1023.29 1323.88 Q1022.51 1321.03 1022.51 1317.12 M1026.28 1320.81 Q1026.28 1324.85 1027.03 1326.77 Q1027.15 1327.1 1027.41 1327.54 Q1027.69 1327.98 1028.15 1328.56 Q1028.63 1329.12 1029.41 1329.5 Q1030.2 1329.87 1031.1 1329.87 Q1033.85 1329.87 1035.17 1327.2 Q1035.88 1325.71 1035.88 1321.68 Q1035.88 1317.56 1035.13 1316.06 Q1033.87 1313.51 1031.3 1313.51 Q1029.57 1313.51 1028.37 1314.69 Q1027.19 1315.88 1026.72 1317.46 Q1026.28 1319.05 1026.28 1320.81 Z" fill="#000000" fill-rule="nonzero" fill-opacity="1" /><path clip-path="url(#clip820)" d="M1170.12 1328.64 L1170.12 1327.06 Q1176.19 1327.06 1179.33 1323.82 Q1180.2 1323.82 1180.35 1324.02 Q1180.49 1324.22 1180.49 1325.13 L1180.49 1353.51 Q1180.49 1355.02 1181.23 1355.49 Q1181.98 1355.96 1185.21 1355.96 L1186.82 1355.96 L1186.82 1357.52 Q1185.04 1357.37 1178.62 1357.37 Q1172.19 1357.37 1170.44 1357.52 L1170.44 1355.96 L1172.04 1355.96 Q1175.23 1355.96 1176 1355.52 Q1176.76 1355.05 1176.76 1353.51 L1176.76 1327.3 Q1174.12 1328.64 1170.12 1328.64 Z" fill="#000000" fill-rule="nonzero" fill-opacity="1" /><path clip-path="url(#clip820)" d="M1192.89 1341.34 Q1192.89 1333.9 1194.77 1329.85 Q1197.39 1323.82 1203.57 1323.82 Q1204.88 1323.82 1206.23 1324.19 Q1207.62 1324.54 1209.35 1325.9 Q1211.1 1327.25 1212.16 1329.48 Q1214.19 1333.78 1214.19 1341.34 Q1214.19 1348.72 1212.31 1352.75 Q1209.57 1358.63 1203.52 1358.63 Q1201.24 1358.63 1198.92 1357.47 Q1196.62 1356.31 1195.17 1353.51 Q1192.89 1349.34 1192.89 1341.34 M1197.09 1340.72 Q1197.09 1348.35 1197.64 1351.39 Q1198.25 1354.68 1199.93 1356.11 Q1201.64 1357.52 1203.52 1357.52 Q1205.54 1357.52 1207.22 1356.01 Q1208.93 1354.48 1209.45 1351.19 Q1210.01 1347.96 1209.99 1340.72 Q1209.99 1333.68 1209.49 1330.86 Q1208.83 1327.58 1207.05 1326.27 Q1205.3 1324.93 1203.52 1324.93 Q1202.85 1324.93 1202.13 1325.13 Q1201.44 1325.33 1200.43 1325.9 Q1199.42 1326.46 1198.63 1327.87 Q1197.86 1329.28 1197.49 1331.41 Q1197.09 1334.15 1197.09 1340.72 Z" fill="#000000" fill-rule="nonzero" fill-opacity="1" /><path clip-path="url(#clip820)" d="M1241.33 1319.25 Q1241.57 1319.49 1241.57 1319.83 Q1241.57 1320.17 1241.33 1320.41 Q1241.08 1320.65 1240.74 1320.65 L1215.01 1320.65 Q1214.67 1320.65 1214.43 1320.41 Q1214.19 1320.17 1214.19 1319.83 Q1214.19 1319.49 1214.43 1319.25 Q1214.67 1319.01 1215.01 1319.01 L1240.74 1319.01 Q1241.08 1319.01 1241.33 1319.25 Z" fill="#000000" fill-rule="nonzero" fill-opacity="1" /><path clip-path="url(#clip820)" d="M1245.9 1323.48 Q1245.9 1322.26 1246.56 1321.8 Q1247.23 1321.31 1247.93 1321.31 Q1248.87 1321.31 1249.41 1321.92 Q1249.98 1322.5 1249.98 1323.32 Q1249.98 1324.14 1249.41 1324.75 Q1248.87 1325.33 1247.93 1325.33 Q1247.47 1325.33 1247.23 1325.25 Q1247.77 1327.14 1249.41 1328.5 Q1251.08 1329.87 1253.27 1329.87 Q1256.02 1329.87 1257.66 1327.2 Q1258.65 1325.47 1258.65 1321.56 Q1258.65 1318.1 1257.9 1316.38 Q1256.76 1313.75 1254.41 1313.75 Q1251.08 1313.75 1249.11 1316.62 Q1248.87 1316.98 1248.59 1317 Q1248.19 1317 1248.09 1316.78 Q1248.01 1316.54 1248.01 1315.92 L1248.01 1303.75 Q1248.01 1302.77 1248.41 1302.77 Q1248.57 1302.77 1248.91 1302.89 Q1251.5 1304.03 1254.37 1304.05 Q1257.32 1304.05 1259.97 1302.85 Q1260.17 1302.73 1260.29 1302.73 Q1260.69 1302.73 1260.71 1303.19 Q1260.71 1303.35 1260.37 1303.83 Q1260.05 1304.29 1259.35 1304.92 Q1258.65 1305.52 1257.74 1306.1 Q1256.84 1306.68 1255.52 1307.08 Q1254.21 1307.47 1252.77 1307.47 Q1251.04 1307.47 1249.27 1306.92 L1249.27 1314.93 Q1251.4 1312.84 1254.49 1312.84 Q1257.78 1312.84 1260.05 1315.49 Q1262.32 1318.14 1262.32 1321.84 Q1262.32 1325.71 1259.63 1328.36 Q1256.96 1331.01 1253.35 1331.01 Q1250.06 1331.01 1247.97 1328.66 Q1245.9 1326.31 1245.9 1323.48 Z" fill="#000000" fill-rule="nonzero" fill-opacity="1" /><path clip-path="url(#clip820)" d="M1392.58 1328.64 L1392.58 1327.06 Q1398.65 1327.06 1401.79 1323.82 Q1402.66 1323.82 1402.8 1324.02 Q1402.95 1324.22 1402.95 1325.13 L1402.95 1353.51 Q1402.95 1355.02 1403.69 1355.49 Q1404.43 1355.96 1407.67 1355.96 L1409.28 1355.96 L1409.28 1357.52 Q1407.5 1357.37 1401.07 1357.37 Q1394.65 1357.37 1392.9 1357.52 L1392.9 1355.96 L1394.5 1355.96 Q1397.69 1355.96 1398.46 1355.52 Q1399.22 1355.05 1399.22 1353.51 L1399.22 1327.3 Q1396.58 1328.64 1392.58 1328.64 Z" fill="#000000" fill-rule="nonzero" fill-opacity="1" /><path clip-path="url(#clip820)" d="M1415.35 1341.34 Q1415.35 1333.9 1417.23 1329.85 Q1419.85 1323.82 1426.03 1323.82 Q1427.33 1323.82 1428.69 1324.19 Q1430.08 1324.54 1431.81 1325.9 Q1433.56 1327.25 1434.62 1329.48 Q1436.65 1333.78 1436.65 1341.34 Q1436.65 1348.72 1434.77 1352.75 Q1432.03 1358.63 1425.98 1358.63 Q1423.7 1358.63 1421.38 1357.47 Q1419.08 1356.31 1417.63 1353.51 Q1415.35 1349.34 1415.35 1341.34 M1419.55 1340.72 Q1419.55 1348.35 1420.1 1351.39 Q1420.71 1354.68 1422.39 1356.11 Q1424.1 1357.52 1425.98 1357.52 Q1428 1357.52 1429.68 1356.01 Q1431.39 1354.48 1431.9 1351.19 Q1432.47 1347.96 1432.45 1340.72 Q1432.45 1333.68 1431.95 1330.86 Q1431.29 1327.58 1429.51 1326.27 Q1427.75 1324.93 1425.98 1324.93 Q1425.31 1324.93 1424.59 1325.13 Q1423.9 1325.33 1422.89 1325.9 Q1421.87 1326.46 1421.08 1327.87 Q1420.32 1329.28 1419.95 1331.41 Q1419.55 1334.15 1419.55 1340.72 Z" fill="#000000" fill-rule="nonzero" fill-opacity="1" /><path clip-path="url(#clip820)" d="M1463.78 1319.25 Q1464.03 1319.49 1464.03 1319.83 Q1464.03 1320.17 1463.78 1320.41 Q1463.54 1320.65 1463.2 1320.65 L1437.47 1320.65 Q1437.13 1320.65 1436.89 1320.41 Q1436.65 1320.17 1436.65 1319.83 Q1436.65 1319.49 1436.89 1319.25 Q1437.13 1319.01 1437.47 1319.01 L1463.2 1319.01 Q1463.54 1319.01 1463.78 1319.25 Z" fill="#000000" fill-rule="nonzero" fill-opacity="1" /><path clip-path="url(#clip820)" d="M1467.46 1323.32 L1467.46 1322.06 L1480.08 1302.77 Q1480.4 1302.27 1480.91 1302.29 Q1481.37 1302.29 1481.47 1302.47 Q1481.57 1302.65 1481.57 1303.35 L1481.57 1322.06 L1485.68 1322.06 L1485.68 1323.32 L1481.57 1323.32 L1481.57 1326.89 Q1481.57 1328.08 1482.05 1328.46 Q1482.55 1328.84 1484.68 1328.84 L1485.54 1328.84 L1485.54 1330.11 Q1483.86 1329.99 1479.96 1329.99 Q1476.09 1329.99 1474.4 1330.11 L1474.4 1328.84 L1475.27 1328.84 Q1477.39 1328.84 1477.89 1328.48 Q1478.4 1328.1 1478.4 1326.89 L1478.4 1323.32 L1467.46 1323.32 M1468.62 1322.06 L1478.64 1322.06 L1478.64 1306.72 L1468.62 1322.06 Z" fill="#000000" fill-rule="nonzero" fill-opacity="1" /><path clip-path="url(#clip820)" d="M1615.78 1328.64 L1615.78 1327.06 Q1621.86 1327.06 1624.99 1323.82 Q1625.86 1323.82 1626.01 1324.02 Q1626.15 1324.22 1626.15 1325.13 L1626.15 1353.51 Q1626.15 1355.02 1626.89 1355.49 Q1627.64 1355.96 1630.87 1355.96 L1632.48 1355.96 L1632.48 1357.52 Q1630.7 1357.37 1624.28 1357.37 Q1617.85 1357.37 1616.1 1357.52 L1616.1 1355.96 L1617.71 1355.96 Q1620.89 1355.96 1621.66 1355.52 Q1622.42 1355.05 1622.42 1353.51 L1622.42 1327.3 Q1619.78 1328.64 1615.78 1328.64 Z" fill="#000000" fill-rule="nonzero" fill-opacity="1" /><path clip-path="url(#clip820)" d="M1638.55 1341.34 Q1638.55 1333.9 1640.43 1329.85 Q1643.05 1323.82 1649.23 1323.82 Q1650.54 1323.82 1651.89 1324.19 Q1653.28 1324.54 1655.01 1325.9 Q1656.76 1327.25 1657.82 1329.48 Q1659.85 1333.78 1659.85 1341.34 Q1659.85 1348.72 1657.97 1352.75 Q1655.23 1358.63 1649.18 1358.63 Q1646.9 1358.63 1644.58 1357.47 Q1642.29 1356.31 1640.83 1353.51 Q1638.55 1349.34 1638.55 1341.34 M1642.75 1340.72 Q1642.75 1348.35 1643.3 1351.39 Q1643.92 1354.68 1645.6 1356.11 Q1647.3 1357.52 1649.18 1357.52 Q1651.2 1357.52 1652.88 1356.01 Q1654.59 1354.48 1655.11 1351.19 Q1655.67 1347.96 1655.65 1340.72 Q1655.65 1333.68 1655.16 1330.86 Q1654.49 1327.58 1652.71 1326.27 Q1650.96 1324.93 1649.18 1324.93 Q1648.51 1324.93 1647.79 1325.13 Q1647.1 1325.33 1646.09 1325.9 Q1645.08 1326.46 1644.29 1327.87 Q1643.52 1329.28 1643.15 1331.41 Q1642.75 1334.15 1642.75 1340.72 Z" fill="#000000" fill-rule="nonzero" fill-opacity="1" /><path clip-path="url(#clip820)" d="M1686.99 1319.25 Q1687.23 1319.49 1687.23 1319.83 Q1687.23 1320.17 1686.99 1320.41 Q1686.74 1320.65 1686.4 1320.65 L1660.67 1320.65 Q1660.33 1320.65 1660.09 1320.41 Q1659.85 1320.17 1659.85 1319.83 Q1659.85 1319.49 1660.09 1319.25 Q1660.33 1319.01 1660.67 1319.01 L1686.4 1319.01 Q1686.74 1319.01 1686.99 1319.25 Z" fill="#000000" fill-rule="nonzero" fill-opacity="1" /><path clip-path="url(#clip820)" d="M1691.24 1324.57 Q1691.24 1323.34 1691.94 1322.76 Q1692.65 1322.18 1693.55 1322.18 Q1694.49 1322.18 1695.15 1322.8 Q1695.84 1323.4 1695.84 1324.47 Q1695.84 1325.61 1695.03 1326.25 Q1694.25 1326.89 1693.13 1326.73 Q1694.11 1328.38 1695.92 1329.12 Q1697.74 1329.87 1699.43 1329.87 Q1701.2 1329.87 1702.62 1328.34 Q1704.07 1326.81 1704.07 1323.08 Q1704.07 1319.91 1702.82 1318.08 Q1701.6 1316.26 1699.17 1316.26 L1697.36 1316.26 Q1696.74 1316.26 1696.56 1316.2 Q1696.38 1316.14 1696.38 1315.8 Q1696.38 1315.39 1697 1315.31 Q1697.62 1315.31 1698.61 1315.19 Q1701 1315.11 1702.26 1313.05 Q1703.4 1311.12 1703.4 1308.37 Q1703.4 1305.86 1702.2 1304.82 Q1701.02 1303.75 1699.47 1303.75 Q1698.03 1303.75 1696.44 1304.35 Q1694.85 1304.96 1693.99 1306.3 Q1696.54 1306.3 1696.54 1308.37 Q1696.54 1309.27 1695.96 1309.87 Q1695.4 1310.46 1694.45 1310.46 Q1693.55 1310.46 1692.95 1309.89 Q1692.34 1309.31 1692.34 1308.33 Q1692.34 1305.98 1694.43 1304.35 Q1696.54 1302.73 1699.63 1302.73 Q1702.68 1302.73 1704.93 1304.33 Q1707.2 1305.94 1707.2 1308.41 Q1707.2 1310.84 1705.59 1312.82 Q1703.99 1314.81 1701.44 1315.63 Q1704.57 1316.26 1706.43 1318.38 Q1708.3 1320.49 1708.3 1323.08 Q1708.3 1326.29 1705.77 1328.66 Q1703.24 1331.01 1699.55 1331.01 Q1696.14 1331.01 1693.69 1329.16 Q1691.24 1327.32 1691.24 1324.57 Z" fill="#000000" fill-rule="nonzero" fill-opacity="1" /><path clip-path="url(#clip820)" d="M934.386 1447.26 L934.386 1444.92 L936.202 1444.92 Q940.315 1444.92 941.241 1444.26 Q942.205 1443.55 942.205 1441.33 L942.205 1401.57 Q942.205 1399.38 941.241 1398.72 Q940.278 1398.01 936.202 1398.01 L934.386 1398.01 L934.386 1395.64 L977.111 1395.64 L979.223 1412.72 L977.333 1412.72 Q976.814 1408.39 976.11 1405.9 Q975.443 1403.38 973.776 1401.46 Q972.145 1399.53 969.44 1398.79 Q966.772 1398.01 962.437 1398.01 L952.654 1398.01 Q950.06 1398.01 949.505 1398.57 Q948.949 1399.09 948.949 1401.05 L948.949 1419.24 L955.767 1419.24 Q960.992 1419.24 962.474 1417.43 Q963.956 1415.61 963.956 1410.39 L965.883 1410.39 L965.883 1430.47 L963.956 1430.47 Q963.956 1425.32 962.474 1423.47 Q960.992 1421.62 955.767 1421.62 L948.949 1421.62 L948.949 1441.88 Q948.949 1443.85 949.505 1444.4 Q950.098 1444.92 952.654 1444.92 L962.77 1444.92 Q966.031 1444.92 968.403 1444.52 Q970.811 1444.07 972.479 1443.03 Q974.146 1441.96 975.258 1440.74 Q976.407 1439.51 977.185 1437.33 Q978 1435.1 978.445 1433.07 Q978.926 1431.03 979.445 1427.69 L981.335 1427.69 L978.148 1447.26 L934.386 1447.26 Z" fill="#000000" fill-rule="nonzero" fill-opacity="1" /><path clip-path="url(#clip820)" d="M985.559 1447.26 L985.559 1444.92 Q989.598 1444.92 990.525 1444.44 Q991.488 1443.92 991.488 1441.48 L991.488 1421.13 Q991.488 1418.32 990.488 1417.61 Q989.524 1416.91 985.559 1416.91 L985.559 1414.54 L996.12 1413.72 L996.12 1422.06 Q997.195 1418.8 999.455 1416.28 Q1001.75 1413.72 1005.46 1413.72 Q1007.9 1413.72 1009.46 1415.09 Q1011.05 1416.46 1011.05 1418.35 Q1011.05 1420.02 1010.02 1420.87 Q1009.02 1421.69 1007.79 1421.69 Q1006.42 1421.69 1005.46 1420.84 Q1004.53 1419.95 1004.53 1418.43 Q1004.53 1417.5 1004.94 1416.8 Q1005.38 1416.06 1005.72 1415.8 Q1006.05 1415.54 1006.27 1415.46 Q1006.12 1415.39 1005.46 1415.39 Q1001.27 1415.39 998.862 1419.58 Q996.49 1423.73 996.49 1429.66 L996.49 1441.33 Q996.49 1443.51 997.38 1444.22 Q998.306 1444.92 1002.27 1444.92 L1003.86 1444.92 L1003.86 1447.26 Q1000.83 1447.03 994.23 1447.03 Q993.304 1447.03 991.859 1447.07 Q990.413 1447.11 988.524 1447.18 Q986.634 1447.26 985.559 1447.26 Z" fill="#000000" fill-rule="nonzero" fill-opacity="1" /><path clip-path="url(#clip820)" d="M1015.2 1447.26 L1015.2 1444.92 Q1019.24 1444.92 1020.17 1444.44 Q1021.13 1443.92 1021.13 1441.48 L1021.13 1421.13 Q1021.13 1418.32 1020.13 1417.61 Q1019.17 1416.91 1015.2 1416.91 L1015.2 1414.54 L1025.76 1413.72 L1025.76 1422.06 Q1026.84 1418.8 1029.1 1416.28 Q1031.4 1413.72 1035.1 1413.72 Q1037.55 1413.72 1039.1 1415.09 Q1040.7 1416.46 1040.7 1418.35 Q1040.7 1420.02 1039.66 1420.87 Q1038.66 1421.69 1037.44 1421.69 Q1036.07 1421.69 1035.1 1420.84 Q1034.18 1419.95 1034.18 1418.43 Q1034.18 1417.5 1034.58 1416.8 Q1035.03 1416.06 1035.36 1415.8 Q1035.69 1415.54 1035.92 1415.46 Q1035.77 1415.39 1035.1 1415.39 Q1030.91 1415.39 1028.51 1419.58 Q1026.13 1423.73 1026.13 1429.66 L1026.13 1441.33 Q1026.13 1443.51 1027.02 1444.22 Q1027.95 1444.92 1031.92 1444.92 L1033.51 1444.92 L1033.51 1447.26 Q1030.47 1447.03 1023.87 1447.03 Q1022.95 1447.03 1021.5 1447.07 Q1020.06 1447.11 1018.17 1447.18 Q1016.28 1447.26 1015.2 1447.26 Z" fill="#000000" fill-rule="nonzero" fill-opacity="1" /><path clip-path="url(#clip820)" d="M1049.85 1443.18 Q1044.85 1438.22 1044.85 1431.03 Q1044.85 1423.8 1049.74 1418.54 Q1054.67 1413.24 1061.71 1413.24 Q1068.6 1413.24 1073.53 1418.5 Q1078.49 1423.73 1078.49 1431.03 Q1078.49 1438.18 1073.49 1443.14 Q1068.53 1448.11 1061.63 1448.11 Q1054.89 1448.11 1049.85 1443.18 M1051.15 1430.4 Q1051.15 1437.77 1053.07 1441.11 Q1056.04 1446.18 1061.71 1446.18 Q1064.52 1446.18 1066.86 1444.66 Q1069.23 1443.14 1070.53 1440.59 Q1072.19 1437.25 1072.19 1430.4 Q1072.19 1423.1 1070.19 1419.87 Q1067.23 1414.95 1061.63 1414.95 Q1059.19 1414.95 1056.78 1416.24 Q1054.41 1417.5 1052.96 1420.02 Q1051.15 1423.36 1051.15 1430.4 Z" fill="#000000" fill-rule="nonzero" fill-opacity="1" /><path clip-path="url(#clip820)" d="M1082.79 1447.26 L1082.79 1444.92 Q1086.83 1444.92 1087.76 1444.44 Q1088.72 1443.92 1088.72 1441.48 L1088.72 1421.13 Q1088.72 1418.32 1087.72 1417.61 Q1086.76 1416.91 1082.79 1416.91 L1082.79 1414.54 L1093.35 1413.72 L1093.35 1422.06 Q1094.43 1418.8 1096.69 1416.28 Q1098.98 1413.72 1102.69 1413.72 Q1105.14 1413.72 1106.69 1415.09 Q1108.29 1416.46 1108.29 1418.35 Q1108.29 1420.02 1107.25 1420.87 Q1106.25 1421.69 1105.02 1421.69 Q1103.65 1421.69 1102.69 1420.84 Q1101.76 1419.95 1101.76 1418.43 Q1101.76 1417.5 1102.17 1416.8 Q1102.62 1416.06 1102.95 1415.8 Q1103.28 1415.54 1103.51 1415.46 Q1103.36 1415.39 1102.69 1415.39 Q1098.5 1415.39 1096.09 1419.58 Q1093.72 1423.73 1093.72 1429.66 L1093.72 1441.33 Q1093.72 1443.51 1094.61 1444.22 Q1095.54 1444.92 1099.5 1444.92 L1101.1 1444.92 L1101.1 1447.26 Q1098.06 1447.03 1091.46 1447.03 Q1090.54 1447.03 1089.09 1447.07 Q1087.65 1447.11 1085.76 1447.18 Q1083.87 1447.26 1082.79 1447.26 Z" fill="#000000" fill-rule="nonzero" fill-opacity="1" /><polyline clip-path="url(#clip822)" style="stroke:#000000; stroke-linecap:round; stroke-linejoin:round; stroke-width:2.8; stroke-opacity:0.4; fill:none" points="214.993,840.131 1827.68,840.131 "/>
<polyline clip-path="url(#clip822)" style="stroke:#000000; stroke-linecap:round; stroke-linejoin:round; stroke-width:2.8; stroke-opacity:0.4; fill:none" points="214.993,253.697 1827.68,253.697 "/>
<polyline clip-path="url(#clip822)" style="stroke:#000000; stroke-linecap:round; stroke-linejoin:round; stroke-width:2; stroke-opacity:0.06; fill:none" points="214.993,1164.34 1827.68,1164.34 "/>
<polyline clip-path="url(#clip822)" style="stroke:#000000; stroke-linecap:round; stroke-linejoin:round; stroke-width:2; stroke-opacity:0.06; fill:none" points="214.993,1037.9 1827.68,1037.9 "/>
<polyline clip-path="url(#clip822)" style="stroke:#000000; stroke-linecap:round; stroke-linejoin:round; stroke-width:2; stroke-opacity:0.06; fill:none" points="214.993,953.794 1827.68,953.794 "/>
<polyline clip-path="url(#clip822)" style="stroke:#000000; stroke-linecap:round; stroke-linejoin:round; stroke-width:2; stroke-opacity:0.06; fill:none" points="214.993,890.673 1827.68,890.673 "/>
<polyline clip-path="url(#clip822)" style="stroke:#000000; stroke-linecap:round; stroke-linejoin:round; stroke-width:2; stroke-opacity:0.06; fill:none" points="214.993,577.902 1827.68,577.902 "/>
<polyline clip-path="url(#clip822)" style="stroke:#000000; stroke-linecap:round; stroke-linejoin:round; stroke-width:2; stroke-opacity:0.06; fill:none" points="214.993,451.467 1827.68,451.467 "/>
<polyline clip-path="url(#clip822)" style="stroke:#000000; stroke-linecap:round; stroke-linejoin:round; stroke-width:2; stroke-opacity:0.06; fill:none" points="214.993,367.359 1827.68,367.359 "/>
<polyline clip-path="url(#clip822)" style="stroke:#000000; stroke-linecap:round; stroke-linejoin:round; stroke-width:2; stroke-opacity:0.06; fill:none" points="214.993,304.239 1827.68,304.239 "/>
<polyline clip-path="url(#clip820)" style="stroke:#000000; stroke-linecap:round; stroke-linejoin:round; stroke-width:4; stroke-opacity:1; fill:none" points="214.993,1280.22 214.993,47.2441 "/>
<polyline clip-path="url(#clip820)" style="stroke:#000000; stroke-linecap:round; stroke-linejoin:round; stroke-width:4; stroke-opacity:1; fill:none" points="1827.68,1280.22 1827.68,47.2441 "/>
<polyline clip-path="url(#clip820)" style="stroke:#000000; stroke-linecap:round; stroke-linejoin:round; stroke-width:4; stroke-opacity:1; fill:none" points="214.993,840.131 229.919,840.131 "/>
<polyline clip-path="url(#clip820)" style="stroke:#000000; stroke-linecap:round; stroke-linejoin:round; stroke-width:4; stroke-opacity:1; fill:none" points="214.993,253.697 229.919,253.697 "/>
<polyline clip-path="url(#clip820)" style="stroke:#000000; stroke-linecap:round; stroke-linejoin:round; stroke-width:4; stroke-opacity:1; fill:none" points="214.993,1164.34 222.456,1164.34 "/>
<polyline clip-path="url(#clip820)" style="stroke:#000000; stroke-linecap:round; stroke-linejoin:round; stroke-width:4; stroke-opacity:1; fill:none" points="214.993,1037.9 222.456,1037.9 "/>
<polyline clip-path="url(#clip820)" style="stroke:#000000; stroke-linecap:round; stroke-linejoin:round; stroke-width:4; stroke-opacity:1; fill:none" points="214.993,953.794 222.456,953.794 "/>
<polyline clip-path="url(#clip820)" style="stroke:#000000; stroke-linecap:round; stroke-linejoin:round; stroke-width:4; stroke-opacity:1; fill:none" points="214.993,890.673 222.456,890.673 "/>
<polyline clip-path="url(#clip820)" style="stroke:#000000; stroke-linecap:round; stroke-linejoin:round; stroke-width:4; stroke-opacity:1; fill:none" points="214.993,577.902 222.456,577.902 "/>
<polyline clip-path="url(#clip820)" style="stroke:#000000; stroke-linecap:round; stroke-linejoin:round; stroke-width:4; stroke-opacity:1; fill:none" points="214.993,451.467 222.456,451.467 "/>
<polyline clip-path="url(#clip820)" style="stroke:#000000; stroke-linecap:round; stroke-linejoin:round; stroke-width:4; stroke-opacity:1; fill:none" points="214.993,367.359 222.456,367.359 "/>
<polyline clip-path="url(#clip820)" style="stroke:#000000; stroke-linecap:round; stroke-linejoin:round; stroke-width:4; stroke-opacity:1; fill:none" points="214.993,304.239 222.456,304.239 "/>
<path clip-path="url(#clip820)" d="M119.06 834.98 L119.06 833.399 Q125.137 833.399 128.275 830.163 Q129.139 830.163 129.287 830.361 Q129.436 830.558 129.436 831.472 L129.436 859.857 Q129.436 861.364 130.177 861.833 Q130.918 862.302 134.154 862.302 L135.76 862.302 L135.76 863.859 Q133.981 863.71 127.558 863.71 Q121.135 863.71 119.381 863.859 L119.381 862.302 L120.987 862.302 Q124.174 862.302 124.94 861.858 Q125.705 861.388 125.705 859.857 L125.705 833.646 Q123.062 834.98 119.06 834.98 Z" fill="#000000" fill-rule="nonzero" fill-opacity="1" /><path clip-path="url(#clip820)" d="M141.837 847.678 Q141.837 840.242 143.714 836.191 Q146.333 830.163 152.509 830.163 Q153.818 830.163 155.176 830.534 Q156.56 830.88 158.289 832.238 Q160.043 833.597 161.105 835.82 Q163.131 840.119 163.131 847.678 Q163.131 855.064 161.253 859.091 Q158.511 864.97 152.459 864.97 Q150.186 864.97 147.864 863.809 Q145.567 862.648 144.109 859.857 Q141.837 855.682 141.837 847.678 M146.036 847.06 Q146.036 854.694 146.58 857.732 Q147.197 861.018 148.877 862.45 Q150.582 863.859 152.459 863.859 Q154.485 863.859 156.165 862.352 Q157.869 860.82 158.388 857.535 Q158.956 854.298 158.931 847.06 Q158.931 840.02 158.437 837.204 Q157.77 833.918 155.992 832.609 Q154.238 831.275 152.459 831.275 Q151.792 831.275 151.076 831.472 Q150.384 831.67 149.371 832.238 Q148.358 832.806 147.568 834.215 Q146.802 835.623 146.431 837.747 Q146.036 840.489 146.036 847.06 Z" fill="#000000" fill-rule="nonzero" fill-opacity="1" /><path clip-path="url(#clip820)" d="M163.131 823.301 Q163.131 817.26 164.656 813.968 Q166.784 809.071 171.802 809.071 Q172.866 809.071 173.97 809.372 Q175.094 809.653 176.499 810.757 Q177.924 811.861 178.787 813.667 Q180.433 817.159 180.433 823.301 Q180.433 829.303 178.907 832.574 Q176.679 837.351 171.762 837.351 Q169.915 837.351 168.028 836.408 Q166.162 835.465 164.978 833.197 Q163.131 829.805 163.131 823.301 M166.543 822.8 Q166.543 829.002 166.985 831.47 Q167.486 834.14 168.851 835.304 Q170.236 836.448 171.762 836.448 Q173.408 836.448 174.772 835.224 Q176.157 833.979 176.579 831.31 Q177.04 828.681 177.02 822.8 Q177.02 817.079 176.619 814.791 Q176.077 812.122 174.632 811.058 Q173.207 809.974 171.762 809.974 Q171.22 809.974 170.638 810.134 Q170.076 810.295 169.253 810.757 Q168.43 811.218 167.788 812.362 Q167.165 813.506 166.864 815.233 Q166.543 817.461 166.543 822.8 Z" fill="#000000" fill-rule="nonzero" fill-opacity="1" /><path clip-path="url(#clip820)" d="M122.793 248.546 L122.793 246.965 Q128.87 246.965 132.008 243.729 Q132.872 243.729 133.021 243.927 Q133.169 244.124 133.169 245.038 L133.169 273.422 Q133.169 274.929 133.91 275.399 Q134.651 275.868 137.887 275.868 L139.493 275.868 L139.493 277.424 Q137.714 277.276 131.291 277.276 Q124.869 277.276 123.115 277.424 L123.115 275.868 L124.72 275.868 Q127.907 275.868 128.673 275.423 Q129.439 274.954 129.439 273.422 L129.439 247.212 Q126.795 248.546 122.793 248.546 Z" fill="#000000" fill-rule="nonzero" fill-opacity="1" /><path clip-path="url(#clip820)" d="M145.57 261.244 Q145.57 253.808 147.447 249.757 Q150.066 243.729 156.242 243.729 Q157.551 243.729 158.91 244.099 Q160.293 244.445 162.022 245.804 Q163.776 247.163 164.839 249.386 Q166.864 253.684 166.864 261.244 Q166.864 268.63 164.987 272.657 Q162.245 278.536 156.192 278.536 Q153.92 278.536 151.598 277.375 Q149.3 276.214 147.843 273.422 Q145.57 269.248 145.57 261.244 M149.77 260.626 Q149.77 268.259 150.313 271.298 Q150.931 274.583 152.61 276.016 Q154.315 277.424 156.192 277.424 Q158.218 277.424 159.898 275.917 Q161.602 274.386 162.121 271.1 Q162.689 267.864 162.665 260.626 Q162.665 253.586 162.171 250.769 Q161.504 247.484 159.725 246.175 Q157.971 244.841 156.192 244.841 Q155.525 244.841 154.809 245.038 Q154.117 245.236 153.104 245.804 Q152.092 246.372 151.301 247.78 Q150.535 249.188 150.165 251.313 Q149.77 254.055 149.77 260.626 Z" fill="#000000" fill-rule="nonzero" fill-opacity="1" /><path clip-path="url(#clip820)" d="M166.864 226.55 L166.864 225.266 Q171.802 225.266 174.351 222.636 Q175.053 222.636 175.174 222.797 Q175.294 222.958 175.294 223.7 L175.294 246.762 Q175.294 247.987 175.896 248.368 Q176.499 248.749 179.128 248.749 L180.433 248.749 L180.433 250.014 Q178.987 249.893 173.769 249.893 Q168.55 249.893 167.125 250.014 L167.125 248.749 L168.43 248.749 Q171.019 248.749 171.641 248.388 Q172.263 248.007 172.263 246.762 L172.263 225.467 Q170.116 226.55 166.864 226.55 Z" fill="#000000" fill-rule="nonzero" fill-opacity="1" /><path clip-path="url(#clip820)" d="M34.6352 801.913 L17.5899 800.467 L17.5899 754.112 L34.6352 752.666 L34.6352 754.556 Q31.2261 754.853 29.2622 755.149 Q27.2983 755.408 25.4455 756.075 Q23.5557 756.705 22.6664 757.521 Q21.74 758.299 21.036 759.818 Q20.2949 761.337 20.1096 763.301 Q19.9243 765.265 19.9243 768.23 Q19.9243 771.713 20.0726 772.565 Q20.2949 773.491 20.9619 773.714 Q21.5918 773.936 22.9629 773.936 L62.9452 773.936 Q64.4645 773.936 65.0944 773.64 Q65.6873 773.306 66.169 771.564 Q66.6137 769.823 66.6137 765.969 L66.6137 762.931 L68.9482 762.931 Q68.7258 766.043 68.7258 777.345 Q68.7258 788.573 68.9482 791.685 L66.6137 791.685 L66.6137 788.647 Q66.6137 784.793 66.169 783.052 Q65.6873 781.273 65.0944 780.976 Q64.4645 780.68 62.9452 780.68 L22.9629 780.68 Q21.8883 780.68 21.4436 780.754 Q20.9989 780.828 20.6284 781.162 Q20.2208 781.495 20.0726 782.273 Q19.9243 783.014 19.9243 786.349 Q19.9243 789.314 20.1096 791.315 Q20.2949 793.279 21.036 794.798 Q21.74 796.317 22.6664 797.132 Q23.5557 797.911 25.4455 798.578 Q27.2983 799.208 29.2622 799.467 Q31.2261 799.726 34.6352 800.023 L34.6352 801.913 Z" fill="#000000" fill-rule="nonzero" fill-opacity="1" /><path clip-path="url(#clip820)" d="M68.9482 747.368 L66.6137 747.368 Q66.6137 743.329 66.132 742.402 Q65.6132 741.476 63.1676 741.476 L42.7502 741.476 Q39.9341 741.476 39.2671 742.439 Q38.6001 743.366 38.6001 747.071 L36.2286 747.071 L35.4133 736.473 L63.2417 736.473 Q65.502 736.473 66.0579 735.658 Q66.6137 734.843 66.6137 731.137 L68.9482 731.137 Q68.7258 738.882 68.7258 739.03 Q68.7258 740.068 68.9482 747.368 M22.1847 744.181 Q20.6654 744.181 19.4426 743.032 Q18.1828 741.846 18.1828 740.179 Q18.1828 738.511 19.3315 737.326 Q20.4431 736.14 22.2218 736.14 Q23.9633 736.14 25.112 737.326 Q26.2237 738.511 26.2237 740.179 Q26.2237 741.92 25.0009 743.069 Q23.7781 744.181 22.1847 744.181 Z" fill="#000000" fill-rule="nonzero" fill-opacity="1" /><path clip-path="url(#clip820)" d="M68.9482 726.431 L66.6137 726.431 Q66.6137 722.392 66.132 721.466 Q65.6132 720.54 63.1676 720.54 L42.8244 720.54 Q40.0082 720.54 39.3041 721.54 Q38.6001 722.504 38.6001 726.431 L36.2286 726.431 L35.4133 715.76 L43.3802 715.76 Q35.4133 712.202 35.4133 704.532 Q35.4133 695.639 42.8244 694.416 Q39.9341 693.119 37.6737 690.414 Q35.4133 687.672 35.4133 683.411 Q35.4133 677.704 38.2295 675.444 Q40.1193 673.776 42.2315 673.443 Q44.3436 673.109 49.8278 673.109 L64.3163 673.109 Q65.9096 673.035 66.2802 671.812 Q66.6137 670.589 66.6137 667.18 L68.9482 667.18 Q68.7258 674.925 68.7258 675.666 Q68.7258 676.259 68.9482 684.263 L66.6137 684.263 Q66.6137 680.224 66.132 679.297 Q65.6132 678.334 63.1676 678.334 L45.4923 678.334 Q41.6386 678.334 39.3782 679.52 Q37.0808 680.706 37.0808 683.966 Q37.0808 687.894 40.3787 691.044 Q43.6766 694.194 49.2349 694.194 L63.1676 694.194 Q65.6132 694.194 66.132 693.267 Q66.6137 692.304 66.6137 688.265 L68.9482 688.265 Q68.7258 696.009 68.7258 696.787 Q68.7258 697.38 68.9482 705.347 L66.6137 705.347 Q66.6137 701.308 66.132 700.382 Q65.6132 699.418 63.1676 699.418 L45.4923 699.418 Q41.6386 699.418 39.3782 700.604 Q37.0808 701.79 37.0808 705.051 Q37.0808 708.979 40.3787 712.128 Q43.6766 715.278 49.2349 715.278 L63.1676 715.278 Q65.6132 715.278 66.132 714.351 Q66.6137 713.388 66.6137 709.386 L68.9482 709.386 Q68.7258 717.131 68.7258 717.872 Q68.7258 718.465 68.9482 726.431 Z" fill="#000000" fill-rule="nonzero" fill-opacity="1" /><path clip-path="url(#clip820)" d="M52.2363 663.586 Q45.0847 663.586 40.0082 658.991 Q34.9316 654.396 34.9316 647.801 Q34.9316 641.131 39.2671 637.685 Q43.6025 634.201 49.8278 634.201 Q50.9765 634.201 51.1988 634.498 Q51.4211 634.794 51.4211 636.091 L51.4211 657.287 Q59.1656 657.287 62.797 654.989 Q67.8736 651.803 67.8736 646.43 Q67.8736 645.689 67.7253 644.799 Q67.5771 643.91 66.9472 642.094 Q66.2802 640.278 64.5386 638.685 Q62.797 637.092 60.0549 636.165 Q58.9804 635.943 59.0174 635.202 Q59.0174 634.201 59.9067 634.201 Q60.5737 634.201 62.093 634.943 Q63.5752 635.647 65.3538 637.018 Q67.1325 638.389 68.4664 641.057 Q69.8004 643.688 69.8004 646.874 Q69.8004 653.544 64.7609 658.584 Q59.6844 663.586 52.2363 663.586 M49.8278 657.213 L49.8278 639.204 Q48.2344 639.204 46.4557 639.5 Q44.6771 639.76 42.2315 640.575 Q39.7488 641.353 38.1925 643.206 Q36.6362 645.059 36.6362 647.801 Q36.6362 649.023 37.1549 650.357 Q37.6737 651.654 38.9336 653.248 Q40.1934 654.841 43.0467 655.953 Q45.8999 657.064 49.8278 657.213 Z" fill="#000000" fill-rule="nonzero" fill-opacity="1" /><path clip-path="url(#clip820)" d="M49.976 599.259 Q37.1549 599.259 26.8166 594.478 Q22.4811 592.44 18.8497 589.587 Q15.2184 586.734 13.625 584.844 Q12.0316 582.954 12.0316 582.436 Q12.0316 581.694 12.7727 581.657 Q13.1433 581.657 14.0696 582.658 Q26.5201 594.886 49.976 594.849 Q73.5059 594.849 85.4747 582.954 Q86.7716 581.657 87.1792 581.657 Q87.9203 581.657 87.9203 582.436 Q87.9203 582.954 86.4011 584.77 Q84.8818 586.586 81.3987 589.402 Q77.9155 592.218 73.6541 594.256 Q63.3158 599.259 49.976 599.259 Z" fill="#000000" fill-rule="nonzero" fill-opacity="1" /><path clip-path="url(#clip820)" d="M67.9477 574.839 L57.9428 574.839 Q57.0905 574.839 56.7941 574.802 Q56.4977 574.765 56.2753 574.543 Q56.053 574.32 56.053 573.876 Q56.053 573.357 56.2753 573.172 Q56.4977 572.949 57.3499 572.801 Q62.5747 571.653 65.3538 569.207 Q68.0959 566.724 68.0959 562.241 Q68.0959 557.979 66.2061 555.83 Q64.3163 553.681 61.2037 553.681 Q55.6454 553.681 54.2373 561.574 Q53.3109 566.131 52.7181 568.021 Q52.0881 569.911 50.7171 571.578 Q48.0491 574.839 44.2695 574.839 Q40.4899 574.839 37.7108 571.986 Q34.9316 569.096 34.9316 562.722 Q34.9316 558.461 37.0808 555.571 Q36.4138 554.718 35.858 554.274 Q34.9316 553.273 34.9316 552.754 Q34.9316 552.162 35.3392 552.05 Q35.7098 551.939 36.7844 551.939 L44.4177 551.939 Q45.27 551.939 45.5664 551.976 Q45.8629 552.013 46.0852 552.236 Q46.2705 552.458 46.2705 552.94 Q46.2705 553.792 45.5664 553.829 Q36.3768 554.422 36.3768 562.722 Q36.3768 567.206 38.1184 569.207 Q39.8229 571.208 42.1574 571.208 Q43.4543 571.208 44.4548 570.615 Q45.4182 569.985 46.0111 569.207 Q46.5669 568.392 47.1227 566.909 Q47.6415 565.427 47.8268 564.538 Q48.0121 563.612 48.3826 561.87 Q49.5313 555.793 52.014 553.236 Q55.2007 550.049 59.2397 550.049 Q63.7234 550.049 66.7619 553.088 Q69.8004 556.126 69.8004 562.241 Q69.8004 567.169 66.5025 570.615 Q66.9472 571.06 67.3548 571.393 Q67.7253 571.727 67.8736 571.875 Q68.0218 571.986 68.1329 572.023 Q68.2071 572.06 68.2812 572.134 Q69.8004 573.654 69.8004 574.024 Q69.8004 574.617 69.3928 574.728 Q69.0223 574.839 67.9477 574.839 Z" fill="#000000" fill-rule="nonzero" fill-opacity="1" /><path clip-path="url(#clip820)" d="M87.1792 543.157 Q86.8087 543.157 85.8823 542.194 Q73.4318 529.966 49.976 529.966 Q26.446 529.966 14.5514 541.712 Q13.1803 543.157 12.7727 543.157 Q12.0316 543.157 12.0316 542.416 Q12.0316 541.897 13.5509 540.082 Q15.0701 538.229 18.5533 535.45 Q22.0365 532.634 26.2978 530.558 Q36.6362 525.556 49.976 525.556 Q62.797 525.556 73.1354 530.336 Q77.4708 532.374 81.1022 535.227 Q84.7336 538.081 86.327 539.97 Q87.9203 541.86 87.9203 542.416 Q87.9203 543.157 87.1792 543.157 Z" fill="#000000" fill-rule="nonzero" fill-opacity="1" /><polyline clip-path="url(#clip822)" style="stroke:#0000ff; stroke-linecap:round; stroke-linejoin:round; stroke-width:12; stroke-opacity:1; fill:none" points="1782.04,1057.48 1487.03,919.485 1468.24,780.841 1298.81,638.561 1159.23,496.407 965.425,358.713 742.319,222.339 392.301,82.1398 "/>
<line clip-path="url(#clip822)" x1="1782.04" y1="1057.48" x2="1782.04" y2="1041.48" style="stroke:#0000ff; stroke-width:12; stroke-opacity:1"/>
<line clip-path="url(#clip822)" x1="1782.04" y1="1057.48" x2="1766.04" y2="1057.48" style="stroke:#0000ff; stroke-width:12; stroke-opacity:1"/>
<line clip-path="url(#clip822)" x1="1782.04" y1="1057.48" x2="1782.04" y2="1073.48" style="stroke:#0000ff; stroke-width:12; stroke-opacity:1"/>
<line clip-path="url(#clip822)" x1="1782.04" y1="1057.48" x2="1798.04" y2="1057.48" style="stroke:#0000ff; stroke-width:12; stroke-opacity:1"/>
<line clip-path="url(#clip822)" x1="1487.03" y1="919.485" x2="1487.03" y2="903.485" style="stroke:#0000ff; stroke-width:12; stroke-opacity:1"/>
<line clip-path="url(#clip822)" x1="1487.03" y1="919.485" x2="1471.03" y2="919.485" style="stroke:#0000ff; stroke-width:12; stroke-opacity:1"/>
<line clip-path="url(#clip822)" x1="1487.03" y1="919.485" x2="1487.03" y2="935.485" style="stroke:#0000ff; stroke-width:12; stroke-opacity:1"/>
<line clip-path="url(#clip822)" x1="1487.03" y1="919.485" x2="1503.03" y2="919.485" style="stroke:#0000ff; stroke-width:12; stroke-opacity:1"/>
<line clip-path="url(#clip822)" x1="1468.24" y1="780.841" x2="1468.24" y2="764.841" style="stroke:#0000ff; stroke-width:12; stroke-opacity:1"/>
<line clip-path="url(#clip822)" x1="1468.24" y1="780.841" x2="1452.24" y2="780.841" style="stroke:#0000ff; stroke-width:12; stroke-opacity:1"/>
<line clip-path="url(#clip822)" x1="1468.24" y1="780.841" x2="1468.24" y2="796.841" style="stroke:#0000ff; stroke-width:12; stroke-opacity:1"/>
<line clip-path="url(#clip822)" x1="1468.24" y1="780.841" x2="1484.24" y2="780.841" style="stroke:#0000ff; stroke-width:12; stroke-opacity:1"/>
<line clip-path="url(#clip822)" x1="1298.81" y1="638.561" x2="1298.81" y2="622.561" style="stroke:#0000ff; stroke-width:12; stroke-opacity:1"/>
<line clip-path="url(#clip822)" x1="1298.81" y1="638.561" x2="1282.81" y2="638.561" style="stroke:#0000ff; stroke-width:12; stroke-opacity:1"/>
<line clip-path="url(#clip822)" x1="1298.81" y1="638.561" x2="1298.81" y2="654.561" style="stroke:#0000ff; stroke-width:12; stroke-opacity:1"/>
<line clip-path="url(#clip822)" x1="1298.81" y1="638.561" x2="1314.81" y2="638.561" style="stroke:#0000ff; stroke-width:12; stroke-opacity:1"/>
<line clip-path="url(#clip822)" x1="1159.23" y1="496.407" x2="1159.23" y2="480.407" style="stroke:#0000ff; stroke-width:12; stroke-opacity:1"/>
<line clip-path="url(#clip822)" x1="1159.23" y1="496.407" x2="1143.23" y2="496.407" style="stroke:#0000ff; stroke-width:12; stroke-opacity:1"/>
<line clip-path="url(#clip822)" x1="1159.23" y1="496.407" x2="1159.23" y2="512.407" style="stroke:#0000ff; stroke-width:12; stroke-opacity:1"/>
<line clip-path="url(#clip822)" x1="1159.23" y1="496.407" x2="1175.23" y2="496.407" style="stroke:#0000ff; stroke-width:12; stroke-opacity:1"/>
<line clip-path="url(#clip822)" x1="965.425" y1="358.713" x2="965.425" y2="342.713" style="stroke:#0000ff; stroke-width:12; stroke-opacity:1"/>
<line clip-path="url(#clip822)" x1="965.425" y1="358.713" x2="949.425" y2="358.713" style="stroke:#0000ff; stroke-width:12; stroke-opacity:1"/>
<line clip-path="url(#clip822)" x1="965.425" y1="358.713" x2="965.425" y2="374.713" style="stroke:#0000ff; stroke-width:12; stroke-opacity:1"/>
<line clip-path="url(#clip822)" x1="965.425" y1="358.713" x2="981.425" y2="358.713" style="stroke:#0000ff; stroke-width:12; stroke-opacity:1"/>
<line clip-path="url(#clip822)" x1="742.319" y1="222.339" x2="742.319" y2="206.339" style="stroke:#0000ff; stroke-width:12; stroke-opacity:1"/>
<line clip-path="url(#clip822)" x1="742.319" y1="222.339" x2="726.319" y2="222.339" style="stroke:#0000ff; stroke-width:12; stroke-opacity:1"/>
<line clip-path="url(#clip822)" x1="742.319" y1="222.339" x2="742.319" y2="238.339" style="stroke:#0000ff; stroke-width:12; stroke-opacity:1"/>
<line clip-path="url(#clip822)" x1="742.319" y1="222.339" x2="758.319" y2="222.339" style="stroke:#0000ff; stroke-width:12; stroke-opacity:1"/>
<line clip-path="url(#clip822)" x1="392.301" y1="82.1398" x2="392.301" y2="66.1398" style="stroke:#0000ff; stroke-width:12; stroke-opacity:1"/>
<line clip-path="url(#clip822)" x1="392.301" y1="82.1398" x2="376.301" y2="82.1398" style="stroke:#0000ff; stroke-width:12; stroke-opacity:1"/>
<line clip-path="url(#clip822)" x1="392.301" y1="82.1398" x2="392.301" y2="98.1398" style="stroke:#0000ff; stroke-width:12; stroke-opacity:1"/>
<line clip-path="url(#clip822)" x1="392.301" y1="82.1398" x2="408.301" y2="82.1398" style="stroke:#0000ff; stroke-width:12; stroke-opacity:1"/>
<polyline clip-path="url(#clip822)" style="stroke:#5400aa; stroke-linecap:round; stroke-linejoin:round; stroke-width:12; stroke-opacity:1; fill:none" points="1678.11,1147.24 1430,1041.83 1108.46,933.326 905.752,825.521 661.354,717.18 486.602,604.351 341.724,494.107 273.134,378.611 "/>
<circle clip-path="url(#clip822)" cx="1678.11" cy="1147.24" r="14.4" fill="#5400aa" fill-rule="evenodd" fill-opacity="1" stroke="#000000" stroke-opacity="1" stroke-width="1.536"/>
<circle clip-path="url(#clip822)" cx="1430" cy="1041.83" r="14.4" fill="#5400aa" fill-rule="evenodd" fill-opacity="1" stroke="#000000" stroke-opacity="1" stroke-width="1.536"/>
<circle clip-path="url(#clip822)" cx="1108.46" cy="933.326" r="14.4" fill="#5400aa" fill-rule="evenodd" fill-opacity="1" stroke="#000000" stroke-opacity="1" stroke-width="1.536"/>
<circle clip-path="url(#clip822)" cx="905.752" cy="825.521" r="14.4" fill="#5400aa" fill-rule="evenodd" fill-opacity="1" stroke="#000000" stroke-opacity="1" stroke-width="1.536"/>
<circle clip-path="url(#clip822)" cx="661.354" cy="717.18" r="14.4" fill="#5400aa" fill-rule="evenodd" fill-opacity="1" stroke="#000000" stroke-opacity="1" stroke-width="1.536"/>
<circle clip-path="url(#clip822)" cx="486.602" cy="604.351" r="14.4" fill="#5400aa" fill-rule="evenodd" fill-opacity="1" stroke="#000000" stroke-opacity="1" stroke-width="1.536"/>
<circle clip-path="url(#clip822)" cx="341.724" cy="494.107" r="14.4" fill="#5400aa" fill-rule="evenodd" fill-opacity="1" stroke="#000000" stroke-opacity="1" stroke-width="1.536"/>
<circle clip-path="url(#clip822)" cx="273.134" cy="378.611" r="14.4" fill="#5400aa" fill-rule="evenodd" fill-opacity="1" stroke="#000000" stroke-opacity="1" stroke-width="1.536"/>
<polyline clip-path="url(#clip822)" style="stroke:#a90055; stroke-linecap:round; stroke-linejoin:round; stroke-width:12; stroke-opacity:1; fill:none" points="1528.38,1196.84 1274.46,1088.64 896.566,1009.81 719.093,932.112 409.314,846.754 260.635,755.749 265.09,664.78 272.225,567.319 "/>
<line clip-path="url(#clip822)" x1="1528.38" y1="1196.84" x2="1528.38" y2="1180.84" style="stroke:#a90055; stroke-width:12; stroke-opacity:1"/>
<line clip-path="url(#clip822)" x1="1528.38" y1="1196.84" x2="1512.38" y2="1196.84" style="stroke:#a90055; stroke-width:12; stroke-opacity:1"/>
<line clip-path="url(#clip822)" x1="1528.38" y1="1196.84" x2="1528.38" y2="1212.84" style="stroke:#a90055; stroke-width:12; stroke-opacity:1"/>
<line clip-path="url(#clip822)" x1="1528.38" y1="1196.84" x2="1544.38" y2="1196.84" style="stroke:#a90055; stroke-width:12; stroke-opacity:1"/>
<line clip-path="url(#clip822)" x1="1274.46" y1="1088.64" x2="1274.46" y2="1072.64" style="stroke:#a90055; stroke-width:12; stroke-opacity:1"/>
<line clip-path="url(#clip822)" x1="1274.46" y1="1088.64" x2="1258.46" y2="1088.64" style="stroke:#a90055; stroke-width:12; stroke-opacity:1"/>
<line clip-path="url(#clip822)" x1="1274.46" y1="1088.64" x2="1274.46" y2="1104.64" style="stroke:#a90055; stroke-width:12; stroke-opacity:1"/>
<line clip-path="url(#clip822)" x1="1274.46" y1="1088.64" x2="1290.46" y2="1088.64" style="stroke:#a90055; stroke-width:12; stroke-opacity:1"/>
<line clip-path="url(#clip822)" x1="896.566" y1="1009.81" x2="896.566" y2="993.81" style="stroke:#a90055; stroke-width:12; stroke-opacity:1"/>
<line clip-path="url(#clip822)" x1="896.566" y1="1009.81" x2="880.566" y2="1009.81" style="stroke:#a90055; stroke-width:12; stroke-opacity:1"/>
<line clip-path="url(#clip822)" x1="896.566" y1="1009.81" x2="896.566" y2="1025.81" style="stroke:#a90055; stroke-width:12; stroke-opacity:1"/>
<line clip-path="url(#clip822)" x1="896.566" y1="1009.81" x2="912.566" y2="1009.81" style="stroke:#a90055; stroke-width:12; stroke-opacity:1"/>
<line clip-path="url(#clip822)" x1="719.093" y1="932.112" x2="719.093" y2="916.112" style="stroke:#a90055; stroke-width:12; stroke-opacity:1"/>
<line clip-path="url(#clip822)" x1="719.093" y1="932.112" x2="703.093" y2="932.112" style="stroke:#a90055; stroke-width:12; stroke-opacity:1"/>
<line clip-path="url(#clip822)" x1="719.093" y1="932.112" x2="719.093" y2="948.112" style="stroke:#a90055; stroke-width:12; stroke-opacity:1"/>
<line clip-path="url(#clip822)" x1="719.093" y1="932.112" x2="735.093" y2="932.112" style="stroke:#a90055; stroke-width:12; stroke-opacity:1"/>
<line clip-path="url(#clip822)" x1="409.314" y1="846.754" x2="409.314" y2="830.754" style="stroke:#a90055; stroke-width:12; stroke-opacity:1"/>
<line clip-path="url(#clip822)" x1="409.314" y1="846.754" x2="393.314" y2="846.754" style="stroke:#a90055; stroke-width:12; stroke-opacity:1"/>
<line clip-path="url(#clip822)" x1="409.314" y1="846.754" x2="409.314" y2="862.754" style="stroke:#a90055; stroke-width:12; stroke-opacity:1"/>
<line clip-path="url(#clip822)" x1="409.314" y1="846.754" x2="425.314" y2="846.754" style="stroke:#a90055; stroke-width:12; stroke-opacity:1"/>
<line clip-path="url(#clip822)" x1="260.635" y1="755.749" x2="260.635" y2="739.749" style="stroke:#a90055; stroke-width:12; stroke-opacity:1"/>
<line clip-path="url(#clip822)" x1="260.635" y1="755.749" x2="244.635" y2="755.749" style="stroke:#a90055; stroke-width:12; stroke-opacity:1"/>
<line clip-path="url(#clip822)" x1="260.635" y1="755.749" x2="260.635" y2="771.749" style="stroke:#a90055; stroke-width:12; stroke-opacity:1"/>
<line clip-path="url(#clip822)" x1="260.635" y1="755.749" x2="276.635" y2="755.749" style="stroke:#a90055; stroke-width:12; stroke-opacity:1"/>
<line clip-path="url(#clip822)" x1="265.09" y1="664.78" x2="265.09" y2="648.78" style="stroke:#a90055; stroke-width:12; stroke-opacity:1"/>
<line clip-path="url(#clip822)" x1="265.09" y1="664.78" x2="249.09" y2="664.78" style="stroke:#a90055; stroke-width:12; stroke-opacity:1"/>
<line clip-path="url(#clip822)" x1="265.09" y1="664.78" x2="265.09" y2="680.78" style="stroke:#a90055; stroke-width:12; stroke-opacity:1"/>
<line clip-path="url(#clip822)" x1="265.09" y1="664.78" x2="281.09" y2="664.78" style="stroke:#a90055; stroke-width:12; stroke-opacity:1"/>
<line clip-path="url(#clip822)" x1="272.225" y1="567.319" x2="272.225" y2="551.319" style="stroke:#a90055; stroke-width:12; stroke-opacity:1"/>
<line clip-path="url(#clip822)" x1="272.225" y1="567.319" x2="256.225" y2="567.319" style="stroke:#a90055; stroke-width:12; stroke-opacity:1"/>
<line clip-path="url(#clip822)" x1="272.225" y1="567.319" x2="272.225" y2="583.319" style="stroke:#a90055; stroke-width:12; stroke-opacity:1"/>
<line clip-path="url(#clip822)" x1="272.225" y1="567.319" x2="288.225" y2="567.319" style="stroke:#a90055; stroke-width:12; stroke-opacity:1"/>
<polyline clip-path="url(#clip822)" style="stroke:#ff0000; stroke-linecap:round; stroke-linejoin:round; stroke-width:12; stroke-opacity:1; fill:none" points="1302.55,1245.33 1101.63,1157.19 743.724,1096 492.531,1007.94 297.153,1012.85 271.868,939.222 273.155,858.194 272.944,764.63 "/>
<path clip-path="url(#clip822)" d="M1302.55 1229.33 L1286.55 1245.33 L1302.55 1261.33 L1318.55 1245.33 L1302.55 1229.33 Z" fill="#ff0000" fill-rule="evenodd" fill-opacity="1" stroke="#000000" stroke-opacity="1" stroke-width="1.536"/>
<path clip-path="url(#clip822)" d="M1101.63 1141.19 L1085.63 1157.19 L1101.63 1173.19 L1117.63 1157.19 L1101.63 1141.19 Z" fill="#ff0000" fill-rule="evenodd" fill-opacity="1" stroke="#000000" stroke-opacity="1" stroke-width="1.536"/>
<path clip-path="url(#clip822)" d="M743.724 1080 L727.724 1096 L743.724 1112 L759.724 1096 L743.724 1080 Z" fill="#ff0000" fill-rule="evenodd" fill-opacity="1" stroke="#000000" stroke-opacity="1" stroke-width="1.536"/>
<path clip-path="url(#clip822)" d="M492.531 991.943 L476.531 1007.94 L492.531 1023.94 L508.531 1007.94 L492.531 991.943 Z" fill="#ff0000" fill-rule="evenodd" fill-opacity="1" stroke="#000000" stroke-opacity="1" stroke-width="1.536"/>
<path clip-path="url(#clip822)" d="M297.153 996.853 L281.153 1012.85 L297.153 1028.85 L313.153 1012.85 L297.153 996.853 Z" fill="#ff0000" fill-rule="evenodd" fill-opacity="1" stroke="#000000" stroke-opacity="1" stroke-width="1.536"/>
<path clip-path="url(#clip822)" d="M271.868 923.222 L255.868 939.222 L271.868 955.222 L287.868 939.222 L271.868 923.222 Z" fill="#ff0000" fill-rule="evenodd" fill-opacity="1" stroke="#000000" stroke-opacity="1" stroke-width="1.536"/>
<path clip-path="url(#clip822)" d="M273.155 842.194 L257.155 858.194 L273.155 874.194 L289.155 858.194 L273.155 842.194 Z" fill="#ff0000" fill-rule="evenodd" fill-opacity="1" stroke="#000000" stroke-opacity="1" stroke-width="1.536"/>
<path clip-path="url(#clip822)" d="M272.944 748.63 L256.944 764.63 L272.944 780.63 L288.944 764.63 L272.944 748.63 Z" fill="#ff0000" fill-rule="evenodd" fill-opacity="1" stroke="#000000" stroke-opacity="1" stroke-width="1.536"/>
<path clip-path="url(#clip820)" d="M1895.74 347.543 L2256.76 347.543 L2256.76 88.3434 L1895.74 88.3434  Z" fill="#ffffff" fill-rule="evenodd" fill-opacity="1"/>
<polyline clip-path="url(#clip820)" style="stroke:#000000; stroke-linecap:round; stroke-linejoin:round; stroke-width:4; stroke-opacity:1; fill:none" points="1895.74,347.543 2256.76,347.543 2256.76,88.3434 1895.74,88.3434 1895.74,347.543 "/>
<polyline clip-path="url(#clip820)" style="stroke:#0000ff; stroke-linecap:round; stroke-linejoin:round; stroke-width:12; stroke-opacity:1; fill:none" points="1918.42,140.183 2054.54,140.183 "/>
<line clip-path="url(#clip820)" x1="1986.48" y1="140.183" x2="1986.48" y2="119.178" style="stroke:#0000ff; stroke-width:12; stroke-opacity:1"/>
<line clip-path="url(#clip820)" x1="1986.48" y1="140.183" x2="1965.48" y2="140.183" style="stroke:#0000ff; stroke-width:12; stroke-opacity:1"/>
<line clip-path="url(#clip820)" x1="1986.48" y1="140.183" x2="1986.48" y2="161.189" style="stroke:#0000ff; stroke-width:12; stroke-opacity:1"/>
<line clip-path="url(#clip820)" x1="1986.48" y1="140.183" x2="2007.49" y2="140.183" style="stroke:#0000ff; stroke-width:12; stroke-opacity:1"/>
<path clip-path="url(#clip820)" d="M2077.23 157.463 L2077.23 155.907 L2078.44 155.907 Q2081.18 155.907 2081.8 155.462 Q2082.44 154.993 2082.44 153.511 L2082.44 127.004 Q2082.44 125.547 2081.8 125.102 Q2081.16 124.633 2078.44 124.633 L2077.23 124.633 L2077.23 123.052 L2105.71 123.052 L2107.12 134.44 L2105.86 134.44 Q2105.51 131.55 2105.04 129.894 Q2104.6 128.215 2103.49 126.93 Q2102.4 125.646 2100.6 125.151 Q2098.82 124.633 2095.93 124.633 L2089.41 124.633 Q2087.68 124.633 2087.31 125.003 Q2086.94 125.349 2086.94 126.658 L2086.94 138.788 L2091.48 138.788 Q2094.97 138.788 2095.95 137.577 Q2096.94 136.367 2096.94 132.884 L2098.23 132.884 L2098.23 146.273 L2096.94 146.273 Q2096.94 142.839 2095.95 141.604 Q2094.97 140.369 2091.48 140.369 L2086.94 140.369 L2086.94 153.881 Q2086.94 155.191 2087.31 155.561 Q2087.7 155.907 2089.41 155.907 L2096.15 155.907 Q2098.32 155.907 2099.91 155.635 Q2101.51 155.339 2102.62 154.647 Q2103.73 153.931 2104.48 153.116 Q2105.24 152.3 2105.76 150.843 Q2106.3 149.361 2106.6 148.002 Q2106.92 146.643 2107.27 144.42 L2108.53 144.42 L2106.4 157.463 L2077.23 157.463 Z" fill="#000000" fill-rule="nonzero" fill-opacity="1" /><path clip-path="url(#clip820)" d="M2111.62 157.463 L2111.62 155.907 L2112.83 155.907 Q2115.57 155.907 2116.19 155.462 Q2116.83 154.993 2116.83 153.511 L2116.83 126.856 Q2116.83 125.398 2116.19 124.954 Q2115.54 124.484 2112.83 124.484 L2111.62 124.484 L2111.62 122.903 Q2113.39 123.052 2119.1 123.052 Q2124.76 123.052 2126.54 122.903 L2126.54 124.484 L2125.33 124.484 Q2122.58 124.484 2121.94 124.954 Q2121.32 125.398 2121.32 126.856 L2121.32 142.938 L2137.16 127.819 Q2138.07 127.004 2138.07 126.14 Q2138.07 125.843 2137.92 125.522 Q2137.8 125.176 2137.21 124.83 Q2136.64 124.484 2135.73 124.484 L2135.73 122.903 Q2137.45 123.052 2142.17 123.052 Q2145.16 123.052 2146.47 122.903 L2146.47 124.484 Q2142.27 124.534 2139.28 127.523 L2130.17 136.268 L2141.85 153.461 Q2142.91 155.018 2143.95 155.462 Q2144.99 155.907 2147.16 155.907 L2147.16 157.463 Q2143.98 157.315 2141.36 157.315 Q2135.9 157.315 2134.12 157.463 L2134.12 155.907 Q2137.11 155.907 2137.11 154.376 Q2137.11 153.807 2136.34 152.646 L2127.18 139.109 L2121.32 144.667 L2121.32 153.511 Q2121.32 154.968 2121.94 155.438 Q2122.58 155.907 2125.33 155.907 L2126.54 155.907 L2126.54 157.463 Q2124.76 157.315 2119.05 157.315 Q2113.39 157.315 2111.62 157.463 Z" fill="#000000" fill-rule="nonzero" fill-opacity="1" /><path clip-path="url(#clip820)" d="M2153.73 128.585 L2153.73 127.004 Q2159.81 127.004 2162.95 123.768 Q2163.81 123.768 2163.96 123.966 Q2164.11 124.163 2164.11 125.077 L2164.11 153.461 Q2164.11 154.968 2164.85 155.438 Q2165.59 155.907 2168.83 155.907 L2170.43 155.907 L2170.43 157.463 Q2168.66 157.315 2162.23 157.315 Q2155.81 157.315 2154.06 157.463 L2154.06 155.907 L2155.66 155.907 Q2158.85 155.907 2159.61 155.462 Q2160.38 154.993 2160.38 153.461 L2160.38 127.251 Q2157.74 128.585 2153.73 128.585 Z" fill="#000000" fill-rule="nonzero" fill-opacity="1" /><path clip-path="url(#clip820)" d="M2179.55 144.815 Q2179.55 136.268 2182.74 129.376 Q2184.09 126.485 2186 124.064 Q2187.9 121.644 2189.16 120.581 Q2190.42 119.519 2190.76 119.519 Q2191.26 119.519 2191.28 120.013 Q2191.28 120.26 2190.62 120.878 Q2182.46 129.178 2182.49 144.815 Q2182.49 160.502 2190.42 168.481 Q2191.28 169.346 2191.28 169.617 Q2191.28 170.112 2190.76 170.112 Q2190.42 170.112 2189.21 169.099 Q2188 168.086 2186.12 165.764 Q2184.24 163.442 2182.88 160.601 Q2179.55 153.709 2179.55 144.815 Z" fill="#000000" fill-rule="nonzero" fill-opacity="1" /><path clip-path="url(#clip820)" d="M2196.27 150.645 Q2196.27 149.138 2197.14 148.422 Q2198 147.706 2199.11 147.706 Q2200.28 147.706 2201.09 148.471 Q2201.93 149.213 2201.93 150.522 Q2201.93 151.93 2200.94 152.72 Q2199.98 153.511 2198.6 153.313 Q2199.81 155.339 2202.03 156.253 Q2204.28 157.167 2206.35 157.167 Q2208.53 157.167 2210.28 155.29 Q2212.06 153.412 2212.06 148.817 Q2212.06 144.914 2210.53 142.666 Q2209.02 140.418 2206.03 140.418 L2203.81 140.418 Q2203.04 140.418 2202.82 140.344 Q2202.6 140.27 2202.6 139.85 Q2202.6 139.356 2203.36 139.257 Q2204.13 139.257 2205.34 139.109 Q2208.28 139.01 2209.84 136.466 Q2211.24 134.094 2211.24 130.71 Q2211.24 127.622 2209.76 126.337 Q2208.3 125.028 2206.4 125.028 Q2204.62 125.028 2202.67 125.769 Q2200.72 126.51 2199.66 128.165 Q2202.8 128.165 2202.8 130.71 Q2202.8 131.821 2202.08 132.562 Q2201.39 133.279 2200.23 133.279 Q2199.11 133.279 2198.37 132.587 Q2197.63 131.871 2197.63 130.66 Q2197.63 127.77 2200.2 125.769 Q2202.8 123.768 2206.6 123.768 Q2210.35 123.768 2213.12 125.744 Q2215.91 127.721 2215.91 130.759 Q2215.91 133.748 2213.94 136.194 Q2211.96 138.639 2208.82 139.652 Q2212.68 140.418 2214.97 143.037 Q2217.27 145.631 2217.27 148.817 Q2217.27 152.77 2214.16 155.685 Q2211.05 158.575 2206.5 158.575 Q2202.3 158.575 2199.29 156.302 Q2196.27 154.03 2196.27 150.645 Z" fill="#000000" fill-rule="nonzero" fill-opacity="1" /><path clip-path="url(#clip820)" d="M2222.34 169.617 Q2222.34 169.37 2222.98 168.753 Q2231.13 160.453 2231.13 144.815 Q2231.13 129.129 2223.3 121.199 Q2222.34 120.285 2222.34 120.013 Q2222.34 119.519 2222.83 119.519 Q2223.18 119.519 2224.39 120.532 Q2225.62 121.545 2227.47 123.867 Q2229.35 126.189 2230.73 129.03 Q2234.07 135.922 2234.07 144.815 Q2234.07 153.363 2230.88 160.255 Q2229.52 163.145 2227.62 165.566 Q2225.72 167.987 2224.46 169.049 Q2223.2 170.112 2222.83 170.112 Q2222.34 170.112 2222.34 169.617 Z" fill="#000000" fill-rule="nonzero" fill-opacity="1" /><polyline clip-path="url(#clip820)" style="stroke:#5400aa; stroke-linecap:round; stroke-linejoin:round; stroke-width:12; stroke-opacity:1; fill:none" points="1918.42,192.023 2054.54,192.023 "/>
<circle clip-path="url(#clip820)" cx="1986.48" cy="192.023" r="18.9052" fill="#5400aa" fill-rule="evenodd" fill-opacity="1" stroke="#000000" stroke-opacity="1" stroke-width="2.31304"/>
<path clip-path="url(#clip820)" d="M2077.23 209.303 L2077.23 207.747 L2078.44 207.747 Q2081.18 207.747 2081.8 207.302 Q2082.44 206.833 2082.44 205.351 L2082.44 178.844 Q2082.44 177.387 2081.8 176.942 Q2081.16 176.473 2078.44 176.473 L2077.23 176.473 L2077.23 174.892 L2105.71 174.892 L2107.12 186.28 L2105.86 186.28 Q2105.51 183.39 2105.04 181.734 Q2104.6 180.055 2103.49 178.77 Q2102.4 177.486 2100.6 176.991 Q2098.82 176.473 2095.93 176.473 L2089.41 176.473 Q2087.68 176.473 2087.31 176.843 Q2086.94 177.189 2086.94 178.498 L2086.94 190.628 L2091.48 190.628 Q2094.97 190.628 2095.95 189.417 Q2096.94 188.207 2096.94 184.724 L2098.23 184.724 L2098.23 198.113 L2096.94 198.113 Q2096.94 194.679 2095.95 193.444 Q2094.97 192.209 2091.48 192.209 L2086.94 192.209 L2086.94 205.721 Q2086.94 207.031 2087.31 207.401 Q2087.7 207.747 2089.41 207.747 L2096.15 207.747 Q2098.32 207.747 2099.91 207.475 Q2101.51 207.179 2102.62 206.487 Q2103.73 205.771 2104.48 204.956 Q2105.24 204.14 2105.76 202.683 Q2106.3 201.201 2106.6 199.842 Q2106.92 198.483 2107.27 196.26 L2108.53 196.26 L2106.4 209.303 L2077.23 209.303 Z" fill="#000000" fill-rule="nonzero" fill-opacity="1" /><path clip-path="url(#clip820)" d="M2111.62 209.303 L2111.62 207.747 L2112.83 207.747 Q2115.57 207.747 2116.19 207.302 Q2116.83 206.833 2116.83 205.351 L2116.83 178.696 Q2116.83 177.238 2116.19 176.794 Q2115.54 176.324 2112.83 176.324 L2111.62 176.324 L2111.62 174.743 Q2113.39 174.892 2119.1 174.892 Q2124.76 174.892 2126.54 174.743 L2126.54 176.324 L2125.33 176.324 Q2122.58 176.324 2121.94 176.794 Q2121.32 177.238 2121.32 178.696 L2121.32 194.778 L2137.16 179.659 Q2138.07 178.844 2138.07 177.98 Q2138.07 177.683 2137.92 177.362 Q2137.8 177.016 2137.21 176.67 Q2136.64 176.324 2135.73 176.324 L2135.73 174.743 Q2137.45 174.892 2142.17 174.892 Q2145.16 174.892 2146.47 174.743 L2146.47 176.324 Q2142.27 176.374 2139.28 179.363 L2130.17 188.108 L2141.85 205.301 Q2142.91 206.858 2143.95 207.302 Q2144.99 207.747 2147.16 207.747 L2147.16 209.303 Q2143.98 209.155 2141.36 209.155 Q2135.9 209.155 2134.12 209.303 L2134.12 207.747 Q2137.11 207.747 2137.11 206.216 Q2137.11 205.647 2136.34 204.486 L2127.18 190.949 L2121.32 196.507 L2121.32 205.351 Q2121.32 206.808 2121.94 207.278 Q2122.58 207.747 2125.33 207.747 L2126.54 207.747 L2126.54 209.303 Q2124.76 209.155 2119.05 209.155 Q2113.39 209.155 2111.62 209.303 Z" fill="#000000" fill-rule="nonzero" fill-opacity="1" /><path clip-path="url(#clip820)" d="M2153.73 180.425 L2153.73 178.844 Q2159.81 178.844 2162.95 175.608 Q2163.81 175.608 2163.96 175.806 Q2164.11 176.003 2164.11 176.917 L2164.11 205.301 Q2164.11 206.808 2164.85 207.278 Q2165.59 207.747 2168.83 207.747 L2170.43 207.747 L2170.43 209.303 Q2168.66 209.155 2162.23 209.155 Q2155.81 209.155 2154.06 209.303 L2154.06 207.747 L2155.66 207.747 Q2158.85 207.747 2159.61 207.302 Q2160.38 206.833 2160.38 205.301 L2160.38 179.091 Q2157.74 180.425 2153.73 180.425 Z" fill="#000000" fill-rule="nonzero" fill-opacity="1" /><path clip-path="url(#clip820)" d="M2179.55 196.655 Q2179.55 188.108 2182.74 181.216 Q2184.09 178.325 2186 175.904 Q2187.9 173.484 2189.16 172.421 Q2190.42 171.359 2190.76 171.359 Q2191.26 171.359 2191.28 171.853 Q2191.28 172.1 2190.62 172.718 Q2182.46 181.018 2182.49 196.655 Q2182.49 212.342 2190.42 220.321 Q2191.28 221.186 2191.28 221.457 Q2191.28 221.952 2190.76 221.952 Q2190.42 221.952 2189.21 220.939 Q2188 219.926 2186.12 217.604 Q2184.24 215.282 2182.88 212.441 Q2179.55 205.549 2179.55 196.655 Z" fill="#000000" fill-rule="nonzero" fill-opacity="1" /><path clip-path="url(#clip820)" d="M2195.56 200.954 L2195.56 199.397 L2211.1 175.657 Q2211.49 175.04 2212.11 175.065 Q2212.68 175.065 2212.8 175.287 Q2212.92 175.509 2212.92 176.374 L2212.92 199.397 L2217.99 199.397 L2217.99 200.954 L2212.92 200.954 L2212.92 205.351 Q2212.92 206.808 2213.52 207.278 Q2214.13 207.747 2216.75 207.747 L2217.81 207.747 L2217.81 209.303 Q2215.74 209.155 2210.95 209.155 Q2206.18 209.155 2204.1 209.303 L2204.1 207.747 L2205.17 207.747 Q2207.79 207.747 2208.4 207.302 Q2209.02 206.833 2209.02 205.351 L2209.02 200.954 L2195.56 200.954 M2196.99 199.397 L2209.32 199.397 L2209.32 180.524 L2196.99 199.397 Z" fill="#000000" fill-rule="nonzero" fill-opacity="1" /><path clip-path="url(#clip820)" d="M2222.34 221.457 Q2222.34 221.21 2222.98 220.593 Q2231.13 212.293 2231.13 196.655 Q2231.13 180.969 2223.3 173.039 Q2222.34 172.125 2222.34 171.853 Q2222.34 171.359 2222.83 171.359 Q2223.18 171.359 2224.39 172.372 Q2225.62 173.385 2227.47 175.707 Q2229.35 178.029 2230.73 180.87 Q2234.07 187.762 2234.07 196.655 Q2234.07 205.203 2230.88 212.095 Q2229.52 214.985 2227.62 217.406 Q2225.72 219.827 2224.46 220.889 Q2223.2 221.952 2222.83 221.952 Q2222.34 221.952 2222.34 221.457 Z" fill="#000000" fill-rule="nonzero" fill-opacity="1" /><polyline clip-path="url(#clip820)" style="stroke:#a90055; stroke-linecap:round; stroke-linejoin:round; stroke-width:12; stroke-opacity:1; fill:none" points="1918.42,243.863 2054.54,243.863 "/>
<line clip-path="url(#clip820)" x1="1986.48" y1="243.863" x2="1986.48" y2="222.858" style="stroke:#a90055; stroke-width:12; stroke-opacity:1"/>
<line clip-path="url(#clip820)" x1="1986.48" y1="243.863" x2="1965.48" y2="243.863" style="stroke:#a90055; stroke-width:12; stroke-opacity:1"/>
<line clip-path="url(#clip820)" x1="1986.48" y1="243.863" x2="1986.48" y2="264.869" style="stroke:#a90055; stroke-width:12; stroke-opacity:1"/>
<line clip-path="url(#clip820)" x1="1986.48" y1="243.863" x2="2007.49" y2="243.863" style="stroke:#a90055; stroke-width:12; stroke-opacity:1"/>
<path clip-path="url(#clip820)" d="M2077.23 261.143 L2077.23 259.587 L2078.44 259.587 Q2081.18 259.587 2081.8 259.142 Q2082.44 258.673 2082.44 257.191 L2082.44 230.684 Q2082.44 229.227 2081.8 228.782 Q2081.16 228.313 2078.44 228.313 L2077.23 228.313 L2077.23 226.732 L2105.71 226.732 L2107.12 238.12 L2105.86 238.12 Q2105.51 235.23 2105.04 233.574 Q2104.6 231.895 2103.49 230.61 Q2102.4 229.326 2100.6 228.831 Q2098.82 228.313 2095.93 228.313 L2089.41 228.313 Q2087.68 228.313 2087.31 228.683 Q2086.94 229.029 2086.94 230.338 L2086.94 242.468 L2091.48 242.468 Q2094.97 242.468 2095.95 241.257 Q2096.94 240.047 2096.94 236.564 L2098.23 236.564 L2098.23 249.953 L2096.94 249.953 Q2096.94 246.519 2095.95 245.284 Q2094.97 244.049 2091.48 244.049 L2086.94 244.049 L2086.94 257.561 Q2086.94 258.871 2087.31 259.241 Q2087.7 259.587 2089.41 259.587 L2096.15 259.587 Q2098.32 259.587 2099.91 259.315 Q2101.51 259.019 2102.62 258.327 Q2103.73 257.611 2104.48 256.796 Q2105.24 255.98 2105.76 254.523 Q2106.3 253.041 2106.6 251.682 Q2106.92 250.323 2107.27 248.1 L2108.53 248.1 L2106.4 261.143 L2077.23 261.143 Z" fill="#000000" fill-rule="nonzero" fill-opacity="1" /><path clip-path="url(#clip820)" d="M2111.62 261.143 L2111.62 259.587 L2112.83 259.587 Q2115.57 259.587 2116.19 259.142 Q2116.83 258.673 2116.83 257.191 L2116.83 230.536 Q2116.83 229.078 2116.19 228.634 Q2115.54 228.164 2112.83 228.164 L2111.62 228.164 L2111.62 226.583 Q2113.39 226.732 2119.1 226.732 Q2124.76 226.732 2126.54 226.583 L2126.54 228.164 L2125.33 228.164 Q2122.58 228.164 2121.94 228.634 Q2121.32 229.078 2121.32 230.536 L2121.32 246.618 L2137.16 231.499 Q2138.07 230.684 2138.07 229.82 Q2138.07 229.523 2137.92 229.202 Q2137.8 228.856 2137.21 228.51 Q2136.64 228.164 2135.73 228.164 L2135.73 226.583 Q2137.45 226.732 2142.17 226.732 Q2145.16 226.732 2146.47 226.583 L2146.47 228.164 Q2142.27 228.214 2139.28 231.203 L2130.17 239.948 L2141.85 257.141 Q2142.91 258.698 2143.95 259.142 Q2144.99 259.587 2147.16 259.587 L2147.16 261.143 Q2143.98 260.995 2141.36 260.995 Q2135.9 260.995 2134.12 261.143 L2134.12 259.587 Q2137.11 259.587 2137.11 258.056 Q2137.11 257.487 2136.34 256.326 L2127.18 242.789 L2121.32 248.347 L2121.32 257.191 Q2121.32 258.648 2121.94 259.118 Q2122.58 259.587 2125.33 259.587 L2126.54 259.587 L2126.54 261.143 Q2124.76 260.995 2119.05 260.995 Q2113.39 260.995 2111.62 261.143 Z" fill="#000000" fill-rule="nonzero" fill-opacity="1" /><path clip-path="url(#clip820)" d="M2153.73 232.265 L2153.73 230.684 Q2159.81 230.684 2162.95 227.448 Q2163.81 227.448 2163.96 227.646 Q2164.11 227.843 2164.11 228.757 L2164.11 257.141 Q2164.11 258.648 2164.85 259.118 Q2165.59 259.587 2168.83 259.587 L2170.43 259.587 L2170.43 261.143 Q2168.66 260.995 2162.23 260.995 Q2155.81 260.995 2154.06 261.143 L2154.06 259.587 L2155.66 259.587 Q2158.85 259.587 2159.61 259.142 Q2160.38 258.673 2160.38 257.141 L2160.38 230.931 Q2157.74 232.265 2153.73 232.265 Z" fill="#000000" fill-rule="nonzero" fill-opacity="1" /><path clip-path="url(#clip820)" d="M2179.55 248.495 Q2179.55 239.948 2182.74 233.056 Q2184.09 230.165 2186 227.744 Q2187.9 225.324 2189.16 224.261 Q2190.42 223.199 2190.76 223.199 Q2191.26 223.199 2191.28 223.693 Q2191.28 223.94 2190.62 224.558 Q2182.46 232.858 2182.49 248.495 Q2182.49 264.182 2190.42 272.161 Q2191.28 273.026 2191.28 273.297 Q2191.28 273.792 2190.76 273.792 Q2190.42 273.792 2189.21 272.779 Q2188 271.766 2186.12 269.444 Q2184.24 267.122 2182.88 264.281 Q2179.55 257.389 2179.55 248.495 Z" fill="#000000" fill-rule="nonzero" fill-opacity="1" /><path clip-path="url(#clip820)" d="M2196.67 252.991 Q2196.67 251.484 2197.48 250.916 Q2198.3 250.323 2199.16 250.323 Q2200.32 250.323 2200.99 251.064 Q2201.68 251.781 2201.68 252.794 Q2201.68 253.807 2200.99 254.548 Q2200.32 255.264 2199.16 255.264 Q2198.6 255.264 2198.3 255.165 Q2198.97 257.487 2200.99 259.167 Q2203.04 260.847 2205.73 260.847 Q2209.12 260.847 2211.14 257.561 Q2212.36 255.437 2212.36 250.62 Q2212.36 246.371 2211.44 244.246 Q2210.03 241.01 2207.14 241.01 Q2203.04 241.01 2200.62 244.543 Q2200.32 244.987 2199.98 245.012 Q2199.48 245.012 2199.36 244.74 Q2199.26 244.444 2199.26 243.678 L2199.26 228.708 Q2199.26 227.497 2199.76 227.497 Q2199.95 227.497 2200.37 227.646 Q2203.56 229.054 2207.09 229.078 Q2210.72 229.078 2213.99 227.596 Q2214.23 227.448 2214.38 227.448 Q2214.88 227.448 2214.9 228.016 Q2214.9 228.214 2214.48 228.807 Q2214.08 229.375 2213.22 230.141 Q2212.36 230.882 2211.24 231.598 Q2210.13 232.315 2208.5 232.809 Q2206.9 233.278 2205.12 233.278 Q2202.99 233.278 2200.82 232.611 L2200.82 242.468 Q2203.44 239.899 2207.24 239.899 Q2211.29 239.899 2214.08 243.159 Q2216.88 246.42 2216.88 250.966 Q2216.88 255.733 2213.57 258.994 Q2210.28 262.255 2205.83 262.255 Q2201.78 262.255 2199.21 259.365 Q2196.67 256.475 2196.67 252.991 Z" fill="#000000" fill-rule="nonzero" fill-opacity="1" /><path clip-path="url(#clip820)" d="M2222.34 273.297 Q2222.34 273.05 2222.98 272.433 Q2231.13 264.133 2231.13 248.495 Q2231.13 232.809 2223.3 224.879 Q2222.34 223.965 2222.34 223.693 Q2222.34 223.199 2222.83 223.199 Q2223.18 223.199 2224.39 224.212 Q2225.62 225.225 2227.47 227.547 Q2229.35 229.869 2230.73 232.71 Q2234.07 239.602 2234.07 248.495 Q2234.07 257.043 2230.88 263.935 Q2229.52 266.825 2227.62 269.246 Q2225.72 271.667 2224.46 272.729 Q2223.2 273.792 2222.83 273.792 Q2222.34 273.792 2222.34 273.297 Z" fill="#000000" fill-rule="nonzero" fill-opacity="1" /><polyline clip-path="url(#clip820)" style="stroke:#ff0000; stroke-linecap:round; stroke-linejoin:round; stroke-width:12; stroke-opacity:1; fill:none" points="1918.42,295.703 2054.54,295.703 "/>
<path clip-path="url(#clip820)" d="M1986.48 274.698 L1965.48 295.703 L1986.48 316.709 L2007.49 295.703 L1986.48 274.698 Z" fill="#ff0000" fill-rule="evenodd" fill-opacity="1" stroke="#000000" stroke-opacity="1" stroke-width="2.31304"/>
<path clip-path="url(#clip820)" d="M2077.23 312.983 L2077.23 311.427 L2078.44 311.427 Q2081.18 311.427 2081.8 310.982 Q2082.44 310.513 2082.44 309.031 L2082.44 282.524 Q2082.44 281.067 2081.8 280.622 Q2081.16 280.153 2078.44 280.153 L2077.23 280.153 L2077.23 278.572 L2105.71 278.572 L2107.12 289.96 L2105.86 289.96 Q2105.51 287.07 2105.04 285.414 Q2104.6 283.735 2103.49 282.45 Q2102.4 281.166 2100.6 280.671 Q2098.82 280.153 2095.93 280.153 L2089.41 280.153 Q2087.68 280.153 2087.31 280.523 Q2086.94 280.869 2086.94 282.178 L2086.94 294.308 L2091.48 294.308 Q2094.97 294.308 2095.95 293.097 Q2096.94 291.887 2096.94 288.404 L2098.23 288.404 L2098.23 301.793 L2096.94 301.793 Q2096.94 298.359 2095.95 297.124 Q2094.97 295.889 2091.48 295.889 L2086.94 295.889 L2086.94 309.401 Q2086.94 310.711 2087.31 311.081 Q2087.7 311.427 2089.41 311.427 L2096.15 311.427 Q2098.32 311.427 2099.91 311.155 Q2101.51 310.859 2102.62 310.167 Q2103.73 309.451 2104.48 308.636 Q2105.24 307.82 2105.76 306.363 Q2106.3 304.881 2106.6 303.522 Q2106.92 302.163 2107.27 299.94 L2108.53 299.94 L2106.4 312.983 L2077.23 312.983 Z" fill="#000000" fill-rule="nonzero" fill-opacity="1" /><path clip-path="url(#clip820)" d="M2111.62 312.983 L2111.62 311.427 L2112.83 311.427 Q2115.57 311.427 2116.19 310.982 Q2116.83 310.513 2116.83 309.031 L2116.83 282.376 Q2116.83 280.918 2116.19 280.474 Q2115.54 280.004 2112.83 280.004 L2111.62 280.004 L2111.62 278.423 Q2113.39 278.572 2119.1 278.572 Q2124.76 278.572 2126.54 278.423 L2126.54 280.004 L2125.33 280.004 Q2122.58 280.004 2121.94 280.474 Q2121.32 280.918 2121.32 282.376 L2121.32 298.458 L2137.16 283.339 Q2138.07 282.524 2138.07 281.66 Q2138.07 281.363 2137.92 281.042 Q2137.8 280.696 2137.21 280.35 Q2136.64 280.004 2135.73 280.004 L2135.73 278.423 Q2137.45 278.572 2142.17 278.572 Q2145.16 278.572 2146.47 278.423 L2146.47 280.004 Q2142.27 280.054 2139.28 283.043 L2130.17 291.788 L2141.85 308.981 Q2142.91 310.538 2143.95 310.982 Q2144.99 311.427 2147.16 311.427 L2147.16 312.983 Q2143.98 312.835 2141.36 312.835 Q2135.9 312.835 2134.12 312.983 L2134.12 311.427 Q2137.11 311.427 2137.11 309.896 Q2137.11 309.327 2136.34 308.166 L2127.18 294.629 L2121.32 300.187 L2121.32 309.031 Q2121.32 310.488 2121.94 310.958 Q2122.58 311.427 2125.33 311.427 L2126.54 311.427 L2126.54 312.983 Q2124.76 312.835 2119.05 312.835 Q2113.39 312.835 2111.62 312.983 Z" fill="#000000" fill-rule="nonzero" fill-opacity="1" /><path clip-path="url(#clip820)" d="M2153.73 284.105 L2153.73 282.524 Q2159.81 282.524 2162.95 279.288 Q2163.81 279.288 2163.96 279.486 Q2164.11 279.683 2164.11 280.597 L2164.11 308.981 Q2164.11 310.488 2164.85 310.958 Q2165.59 311.427 2168.83 311.427 L2170.43 311.427 L2170.43 312.983 Q2168.66 312.835 2162.23 312.835 Q2155.81 312.835 2154.06 312.983 L2154.06 311.427 L2155.66 311.427 Q2158.85 311.427 2159.61 310.982 Q2160.38 310.513 2160.38 308.981 L2160.38 282.771 Q2157.74 284.105 2153.73 284.105 Z" fill="#000000" fill-rule="nonzero" fill-opacity="1" /><path clip-path="url(#clip820)" d="M2179.55 300.335 Q2179.55 291.788 2182.74 284.896 Q2184.09 282.005 2186 279.584 Q2187.9 277.164 2189.16 276.101 Q2190.42 275.039 2190.76 275.039 Q2191.26 275.039 2191.28 275.533 Q2191.28 275.78 2190.62 276.398 Q2182.46 284.698 2182.49 300.335 Q2182.49 316.022 2190.42 324.001 Q2191.28 324.866 2191.28 325.137 Q2191.28 325.632 2190.76 325.632 Q2190.42 325.632 2189.21 324.619 Q2188 323.606 2186.12 321.284 Q2184.24 318.962 2182.88 316.121 Q2179.55 309.229 2179.55 300.335 Z" fill="#000000" fill-rule="nonzero" fill-opacity="1" /><path clip-path="url(#clip820)" d="M2196.27 297 Q2196.27 289.046 2200.32 284.179 Q2204.38 279.288 2209.59 279.288 Q2212.63 279.288 2214.31 280.844 Q2216.01 282.376 2216.01 284.748 Q2216.01 286.057 2215.25 286.625 Q2214.48 287.193 2213.69 287.193 Q2212.78 287.193 2212.06 286.576 Q2211.34 285.958 2211.34 284.846 Q2211.34 282.574 2214.13 282.574 Q2212.82 280.548 2209.69 280.548 Q2208.72 280.548 2207.74 280.844 Q2206.75 281.116 2205.46 282.055 Q2204.18 282.994 2203.19 284.476 Q2202.2 285.958 2201.51 288.749 Q2200.82 291.541 2200.82 295.172 L2200.82 296.383 Q2202.89 291.368 2207.14 291.393 Q2211.39 291.393 2214.33 294.629 Q2217.27 297.865 2217.27 302.657 Q2217.27 307.573 2214.21 310.834 Q2211.14 314.095 2206.85 314.095 Q2204.92 314.095 2203.17 313.28 Q2201.44 312.489 2199.81 310.661 Q2198.2 308.833 2197.24 305.325 Q2196.27 301.818 2196.27 297 M2200.92 301.546 Q2200.92 306.511 2201.83 308.883 Q2201.98 309.278 2202.3 309.821 Q2202.65 310.365 2203.22 311.081 Q2203.81 311.773 2204.77 312.242 Q2205.73 312.687 2206.85 312.687 Q2210.23 312.687 2211.86 309.401 Q2212.73 307.573 2212.73 302.608 Q2212.73 297.544 2211.81 295.691 Q2210.26 292.554 2207.09 292.554 Q2204.97 292.554 2203.49 294.011 Q2202.03 295.469 2201.46 297.42 Q2200.92 299.372 2200.92 301.546 Z" fill="#000000" fill-rule="nonzero" fill-opacity="1" /><path clip-path="url(#clip820)" d="M2222.34 325.137 Q2222.34 324.89 2222.98 324.273 Q2231.13 315.973 2231.13 300.335 Q2231.13 284.649 2223.3 276.719 Q2222.34 275.805 2222.34 275.533 Q2222.34 275.039 2222.83 275.039 Q2223.18 275.039 2224.39 276.052 Q2225.62 277.065 2227.47 279.387 Q2229.35 281.709 2230.73 284.55 Q2234.07 291.442 2234.07 300.335 Q2234.07 308.883 2230.88 315.775 Q2229.52 318.665 2227.62 321.086 Q2225.72 323.507 2224.46 324.569 Q2223.2 325.632 2222.83 325.632 Q2222.34 325.632 2222.34 325.137 Z" fill="#000000" fill-rule="nonzero" fill-opacity="1" /></svg>
