<?xml version="1.0" encoding="utf-8"?>
<svg xmlns="http://www.w3.org/2000/svg" xmlns:xlink="http://www.w3.org/1999/xlink" width="864" height="480" viewBox="0 0 3456 1920">
<defs>
  <clipPath id="clip450">
    <rect x="0" y="0" width="3456" height="1920"/>
  </clipPath>
</defs>
<path clip-path="url(#clip450)" d="M0 1920 L3456 1920 L3456 0 L0 0  Z" fill="#ffffff" fill-rule="evenodd" fill-opacity="1"/>
<defs>
  <clipPath id="clip451">
    <rect x="691" y="0" width="2420" height="1920"/>
  </clipPath>
</defs>
<path clip-path="url(#clip450)" d="M344.11 1676.83 L2788.7 1676.83 L2788.7 110.236 L344.11 110.236  Z" fill="#ffffff" fill-rule="evenodd" fill-opacity="1"/>
<defs>
  <clipPath id="clip452">
    <rect x="344" y="110" width="2446" height="1568"/>
  </clipPath>
</defs>
<polyline clip-path="url(#clip452)" style="stroke:#000000; stroke-linecap:round; stroke-linejoin:round; stroke-width:2.8; stroke-opacity:0.4; fill:none" points="368.044,1676.83 368.044,110.236 "/>
<polyline clip-path="url(#clip452)" style="stroke:#000000; stroke-linecap:round; stroke-linejoin:round; stroke-width:2.8; stroke-opacity:0.4; fill:none" points="786.892,1676.83 786.892,110.236 "/>
<polyline clip-path="url(#clip452)" style="stroke:#000000; stroke-linecap:round; stroke-linejoin:round; stroke-width:2.8; stroke-opacity:0.4; fill:none" points="1205.74,1676.83 1205.74,110.236 "/>
<polyline clip-path="url(#clip452)" style="stroke:#000000; stroke-linecap:round; stroke-linejoin:round; stroke-width:2.8; stroke-opacity:0.4; fill:none" points="1624.59,1676.83 1624.59,110.236 "/>
<polyline clip-path="url(#clip452)" style="stroke:#000000; stroke-linecap:round; stroke-linejoin:round; stroke-width:2.8; stroke-opacity:0.4; fill:none" points="2043.43,1676.83 2043.43,110.236 "/>
<polyline clip-path="url(#clip452)" style="stroke:#000000; stroke-linecap:round; stroke-linejoin:round; stroke-width:2.8; stroke-opacity:0.4; fill:none" points="2462.28,1676.83 2462.28,110.236 "/>
<polyline clip-path="url(#clip452)" style="stroke:#000000; stroke-linecap:round; stroke-linejoin:round; stroke-width:2; stroke-opacity:0.06; fill:none" points="555.335,1676.83 555.335,110.236 "/>
<polyline clip-path="url(#clip452)" style="stroke:#000000; stroke-linecap:round; stroke-linejoin:round; stroke-width:2; stroke-opacity:0.06; fill:none" points="645.638,1676.83 645.638,110.236 "/>
<polyline clip-path="url(#clip452)" style="stroke:#000000; stroke-linecap:round; stroke-linejoin:round; stroke-width:2; stroke-opacity:0.06; fill:none" points="705.711,1676.83 705.711,110.236 "/>
<polyline clip-path="url(#clip452)" style="stroke:#000000; stroke-linecap:round; stroke-linejoin:round; stroke-width:2; stroke-opacity:0.06; fill:none" points="750.793,1676.83 750.793,110.236 "/>
<polyline clip-path="url(#clip452)" style="stroke:#000000; stroke-linecap:round; stroke-linejoin:round; stroke-width:2; stroke-opacity:0.06; fill:none" points="974.183,1676.83 974.183,110.236 "/>
<polyline clip-path="url(#clip452)" style="stroke:#000000; stroke-linecap:round; stroke-linejoin:round; stroke-width:2; stroke-opacity:0.06; fill:none" points="1064.49,1676.83 1064.49,110.236 "/>
<polyline clip-path="url(#clip452)" style="stroke:#000000; stroke-linecap:round; stroke-linejoin:round; stroke-width:2; stroke-opacity:0.06; fill:none" points="1124.56,1676.83 1124.56,110.236 "/>
<polyline clip-path="url(#clip452)" style="stroke:#000000; stroke-linecap:round; stroke-linejoin:round; stroke-width:2; stroke-opacity:0.06; fill:none" points="1169.64,1676.83 1169.64,110.236 "/>
<polyline clip-path="url(#clip452)" style="stroke:#000000; stroke-linecap:round; stroke-linejoin:round; stroke-width:2; stroke-opacity:0.06; fill:none" points="1393.03,1676.83 1393.03,110.236 "/>
<polyline clip-path="url(#clip452)" style="stroke:#000000; stroke-linecap:round; stroke-linejoin:round; stroke-width:2; stroke-opacity:0.06; fill:none" points="1483.33,1676.83 1483.33,110.236 "/>
<polyline clip-path="url(#clip452)" style="stroke:#000000; stroke-linecap:round; stroke-linejoin:round; stroke-width:2; stroke-opacity:0.06; fill:none" points="1543.41,1676.83 1543.41,110.236 "/>
<polyline clip-path="url(#clip452)" style="stroke:#000000; stroke-linecap:round; stroke-linejoin:round; stroke-width:2; stroke-opacity:0.06; fill:none" points="1588.49,1676.83 1588.49,110.236 "/>
<polyline clip-path="url(#clip452)" style="stroke:#000000; stroke-linecap:round; stroke-linejoin:round; stroke-width:2; stroke-opacity:0.06; fill:none" points="1811.88,1676.83 1811.88,110.236 "/>
<polyline clip-path="url(#clip452)" style="stroke:#000000; stroke-linecap:round; stroke-linejoin:round; stroke-width:2; stroke-opacity:0.06; fill:none" points="1902.18,1676.83 1902.18,110.236 "/>
<polyline clip-path="url(#clip452)" style="stroke:#000000; stroke-linecap:round; stroke-linejoin:round; stroke-width:2; stroke-opacity:0.06; fill:none" points="1962.25,1676.83 1962.25,110.236 "/>
<polyline clip-path="url(#clip452)" style="stroke:#000000; stroke-linecap:round; stroke-linejoin:round; stroke-width:2; stroke-opacity:0.06; fill:none" points="2007.34,1676.83 2007.34,110.236 "/>
<polyline clip-path="url(#clip452)" style="stroke:#000000; stroke-linecap:round; stroke-linejoin:round; stroke-width:2; stroke-opacity:0.06; fill:none" points="2230.73,1676.83 2230.73,110.236 "/>
<polyline clip-path="url(#clip452)" style="stroke:#000000; stroke-linecap:round; stroke-linejoin:round; stroke-width:2; stroke-opacity:0.06; fill:none" points="2321.03,1676.83 2321.03,110.236 "/>
<polyline clip-path="url(#clip452)" style="stroke:#000000; stroke-linecap:round; stroke-linejoin:round; stroke-width:2; stroke-opacity:0.06; fill:none" points="2381.1,1676.83 2381.1,110.236 "/>
<polyline clip-path="url(#clip452)" style="stroke:#000000; stroke-linecap:round; stroke-linejoin:round; stroke-width:2; stroke-opacity:0.06; fill:none" points="2426.18,1676.83 2426.18,110.236 "/>
<polyline clip-path="url(#clip452)" style="stroke:#000000; stroke-linecap:round; stroke-linejoin:round; stroke-width:2; stroke-opacity:0.06; fill:none" points="2649.57,1676.83 2649.57,110.236 "/>
<polyline clip-path="url(#clip452)" style="stroke:#000000; stroke-linecap:round; stroke-linejoin:round; stroke-width:2; stroke-opacity:0.06; fill:none" points="2739.88,1676.83 2739.88,110.236 "/>
<polyline clip-path="url(#clip450)" style="stroke:#000000; stroke-linecap:round; stroke-linejoin:round; stroke-width:4; stroke-opacity:1; fill:none" points="344.11,1676.83 2788.7,1676.83 "/>
<polyline clip-path="url(#clip450)" style="stroke:#000000; stroke-linecap:round; stroke-linejoin:round; stroke-width:4; stroke-opacity:1; fill:none" points="344.11,110.236 2788.7,110.236 "/>
<polyline clip-path="url(#clip450)" style="stroke:#000000; stroke-linecap:round; stroke-linejoin:round; stroke-width:4; stroke-opacity:1; fill:none" points="368.044,1676.83 368.044,1657.93 "/>
<polyline clip-path="url(#clip450)" style="stroke:#000000; stroke-linecap:round; stroke-linejoin:round; stroke-width:4; stroke-opacity:1; fill:none" points="786.892,1676.83 786.892,1657.93 "/>
<polyline clip-path="url(#clip450)" style="stroke:#000000; stroke-linecap:round; stroke-linejoin:round; stroke-width:4; stroke-opacity:1; fill:none" points="1205.74,1676.83 1205.74,1657.93 "/>
<polyline clip-path="url(#clip450)" style="stroke:#000000; stroke-linecap:round; stroke-linejoin:round; stroke-width:4; stroke-opacity:1; fill:none" points="1624.59,1676.83 1624.59,1657.93 "/>
<polyline clip-path="url(#clip450)" style="stroke:#000000; stroke-linecap:round; stroke-linejoin:round; stroke-width:4; stroke-opacity:1; fill:none" points="2043.43,1676.83 2043.43,1657.93 "/>
<polyline clip-path="url(#clip450)" style="stroke:#000000; stroke-linecap:round; stroke-linejoin:round; stroke-width:4; stroke-opacity:1; fill:none" points="2462.28,1676.83 2462.28,1657.93 "/>
<polyline clip-path="url(#clip450)" style="stroke:#000000; stroke-linecap:round; stroke-linejoin:round; stroke-width:4; stroke-opacity:1; fill:none" points="555.335,1676.83 555.335,1667.38 "/>
<polyline clip-path="url(#clip450)" style="stroke:#000000; stroke-linecap:round; stroke-linejoin:round; stroke-width:4; stroke-opacity:1; fill:none" points="645.638,1676.83 645.638,1667.38 "/>
<polyline clip-path="url(#clip450)" style="stroke:#000000; stroke-linecap:round; stroke-linejoin:round; stroke-width:4; stroke-opacity:1; fill:none" points="705.711,1676.83 705.711,1667.38 "/>
<polyline clip-path="url(#clip450)" style="stroke:#000000; stroke-linecap:round; stroke-linejoin:round; stroke-width:4; stroke-opacity:1; fill:none" points="750.793,1676.83 750.793,1667.38 "/>
<polyline clip-path="url(#clip450)" style="stroke:#000000; stroke-linecap:round; stroke-linejoin:round; stroke-width:4; stroke-opacity:1; fill:none" points="974.183,1676.83 974.183,1667.38 "/>
<polyline clip-path="url(#clip450)" style="stroke:#000000; stroke-linecap:round; stroke-linejoin:round; stroke-width:4; stroke-opacity:1; fill:none" points="1064.49,1676.83 1064.49,1667.38 "/>
<polyline clip-path="url(#clip450)" style="stroke:#000000; stroke-linecap:round; stroke-linejoin:round; stroke-width:4; stroke-opacity:1; fill:none" points="1124.56,1676.83 1124.56,1667.38 "/>
<polyline clip-path="url(#clip450)" style="stroke:#000000; stroke-linecap:round; stroke-linejoin:round; stroke-width:4; stroke-opacity:1; fill:none" points="1169.64,1676.83 1169.64,1667.38 "/>
<polyline clip-path="url(#clip450)" style="stroke:#000000; stroke-linecap:round; stroke-linejoin:round; stroke-width:4; stroke-opacity:1; fill:none" points="1393.03,1676.83 1393.03,1667.38 "/>
<polyline clip-path="url(#clip450)" style="stroke:#000000; stroke-linecap:round; stroke-linejoin:round; stroke-width:4; stroke-opacity:1; fill:none" points="1483.33,1676.83 1483.33,1667.38 "/>
<polyline clip-path="url(#clip450)" style="stroke:#000000; stroke-linecap:round; stroke-linejoin:round; stroke-width:4; stroke-opacity:1; fill:none" points="1543.41,1676.83 1543.41,1667.38 "/>
<polyline clip-path="url(#clip450)" style="stroke:#000000; stroke-linecap:round; stroke-linejoin:round; stroke-width:4; stroke-opacity:1; fill:none" points="1588.49,1676.83 1588.49,1667.38 "/>
<polyline clip-path="url(#clip450)" style="stroke:#000000; stroke-linecap:round; stroke-linejoin:round; stroke-width:4; stroke-opacity:1; fill:none" points="1811.88,1676.83 1811.88,1667.38 "/>
<polyline clip-path="url(#clip450)" style="stroke:#000000; stroke-linecap:round; stroke-linejoin:round; stroke-width:4; stroke-opacity:1; fill:none" points="1902.18,1676.83 1902.18,1667.38 "/>
<polyline clip-path="url(#clip450)" style="stroke:#000000; stroke-linecap:round; stroke-linejoin:round; stroke-width:4; stroke-opacity:1; fill:none" points="1962.25,1676.83 1962.25,1667.38 "/>
<polyline clip-path="url(#clip450)" style="stroke:#000000; stroke-linecap:round; stroke-linejoin:round; stroke-width:4; stroke-opacity:1; fill:none" points="2007.34,1676.83 2007.34,1667.38 "/>
<polyline clip-path="url(#clip450)" style="stroke:#000000; stroke-linecap:round; stroke-linejoin:round; stroke-width:4; stroke-opacity:1; fill:none" points="2230.73,1676.83 2230.73,1667.38 "/>
<polyline clip-path="url(#clip450)" style="stroke:#000000; stroke-linecap:round; stroke-linejoin:round; stroke-width:4; stroke-opacity:1; fill:none" points="2321.03,1676.83 2321.03,1667.38 "/>
<polyline clip-path="url(#clip450)" style="stroke:#000000; stroke-linecap:round; stroke-linejoin:round; stroke-width:4; stroke-opacity:1; fill:none" points="2381.1,1676.83 2381.1,1667.38 "/>
<polyline clip-path="url(#clip450)" style="stroke:#000000; stroke-linecap:round; stroke-linejoin:round; stroke-width:4; stroke-opacity:1; fill:none" points="2426.18,1676.83 2426.18,1667.38 "/>
<polyline clip-path="url(#clip450)" style="stroke:#000000; stroke-linecap:round; stroke-linejoin:round; stroke-width:4; stroke-opacity:1; fill:none" points="2649.57,1676.83 2649.57,1667.38 "/>
<polyline clip-path="url(#clip450)" style="stroke:#000000; stroke-linecap:round; stroke-linejoin:round; stroke-width:4; stroke-opacity:1; fill:none" points="2739.88,1676.83 2739.88,1667.38 "/>
<path clip-path="url(#clip450)" d="M322.565 1734.46 L322.565 1732.88 Q328.642 1732.88 331.779 1729.64 Q332.644 1729.64 332.792 1729.84 Q332.941 1730.04 332.941 1730.95 L332.941 1759.34 Q332.941 1760.84 333.682 1761.31 Q334.423 1761.78 337.659 1761.78 L339.265 1761.78 L339.265 1763.34 Q337.486 1763.19 331.063 1763.19 Q324.64 1763.19 322.886 1763.34 L322.886 1761.78 L324.492 1761.78 Q327.679 1761.78 328.445 1761.34 Q329.21 1760.87 329.21 1759.34 L329.21 1733.13 Q326.567 1734.46 322.565 1734.46 Z" fill="#000000" fill-rule="nonzero" fill-opacity="1" /><path clip-path="url(#clip450)" d="M345.342 1747.16 Q345.342 1739.72 347.219 1735.67 Q349.838 1729.64 356.013 1729.64 Q357.323 1729.64 358.681 1730.01 Q360.065 1730.36 361.794 1731.72 Q363.548 1733.08 364.61 1735.3 Q366.636 1739.6 366.636 1747.16 Q366.636 1754.55 364.758 1758.57 Q362.016 1764.45 355.964 1764.45 Q353.691 1764.45 351.369 1763.29 Q349.072 1762.13 347.614 1759.34 Q345.342 1755.16 345.342 1747.16 M349.541 1746.54 Q349.541 1754.17 350.085 1757.21 Q350.702 1760.5 352.382 1761.93 Q354.087 1763.34 355.964 1763.34 Q357.99 1763.34 359.67 1761.83 Q361.374 1760.3 361.893 1757.02 Q362.461 1753.78 362.436 1746.54 Q362.436 1739.5 361.942 1736.68 Q361.275 1733.4 359.497 1732.09 Q357.743 1730.76 355.964 1730.76 Q355.297 1730.76 354.581 1730.95 Q353.889 1731.15 352.876 1731.72 Q351.863 1732.29 351.073 1733.7 Q350.307 1735.1 349.936 1737.23 Q349.541 1739.97 349.541 1746.54 Z" fill="#000000" fill-rule="nonzero" fill-opacity="1" /><path clip-path="url(#clip450)" d="M393.773 1725.07 Q394.013 1725.31 394.013 1725.65 Q394.013 1725.99 393.773 1726.23 Q393.532 1726.48 393.19 1726.48 L367.459 1726.48 Q367.118 1726.48 366.877 1726.23 Q366.636 1725.99 366.636 1725.65 Q366.636 1725.31 366.877 1725.07 Q367.118 1724.83 367.459 1724.83 L393.19 1724.83 Q393.532 1724.83 393.773 1725.07 Z" fill="#000000" fill-rule="nonzero" fill-opacity="1" /><path clip-path="url(#clip450)" d="M399.955 1712.47 L399.955 1711.18 Q404.892 1711.18 407.441 1708.55 Q408.144 1708.55 408.264 1708.71 Q408.385 1708.87 408.385 1709.62 L408.385 1732.68 Q408.385 1733.9 408.987 1734.28 Q409.589 1734.66 412.218 1734.66 L413.523 1734.66 L413.523 1735.93 Q412.078 1735.81 406.859 1735.81 Q401.641 1735.81 400.216 1735.93 L400.216 1734.66 L401.52 1734.66 Q404.109 1734.66 404.732 1734.3 Q405.354 1733.92 405.354 1732.68 L405.354 1711.38 Q403.206 1712.47 399.955 1712.47 Z" fill="#000000" fill-rule="nonzero" fill-opacity="1" /><path clip-path="url(#clip450)" d="M756.205 1734.46 L756.205 1732.88 Q762.282 1732.88 765.42 1729.64 Q766.284 1729.64 766.433 1729.84 Q766.581 1730.04 766.581 1730.95 L766.581 1759.34 Q766.581 1760.84 767.322 1761.31 Q768.063 1761.78 771.299 1761.78 L772.905 1761.78 L772.905 1763.34 Q771.126 1763.19 764.703 1763.19 Q758.28 1763.19 756.526 1763.34 L756.526 1761.78 L758.132 1761.78 Q761.319 1761.78 762.085 1761.34 Q762.851 1760.87 762.851 1759.34 L762.851 1733.13 Q760.207 1734.46 756.205 1734.46 Z" fill="#000000" fill-rule="nonzero" fill-opacity="1" /><path clip-path="url(#clip450)" d="M778.982 1747.16 Q778.982 1739.72 780.859 1735.67 Q783.478 1729.64 789.654 1729.64 Q790.963 1729.64 792.322 1730.01 Q793.705 1730.36 795.434 1731.72 Q797.188 1733.08 798.25 1735.3 Q800.276 1739.6 800.276 1747.16 Q800.276 1754.55 798.399 1758.57 Q795.657 1764.45 789.604 1764.45 Q787.332 1764.45 785.009 1763.29 Q782.712 1762.13 781.255 1759.34 Q778.982 1755.16 778.982 1747.16 M783.181 1746.54 Q783.181 1754.17 783.725 1757.21 Q784.342 1760.5 786.022 1761.93 Q787.727 1763.34 789.604 1763.34 Q791.63 1763.34 793.31 1761.83 Q795.014 1760.3 795.533 1757.02 Q796.101 1753.78 796.077 1746.54 Q796.077 1739.5 795.582 1736.68 Q794.916 1733.4 793.137 1732.09 Q791.383 1730.76 789.604 1730.76 Q788.937 1730.76 788.221 1730.95 Q787.529 1731.15 786.516 1731.72 Q785.504 1732.29 784.713 1733.7 Q783.947 1735.1 783.577 1737.23 Q783.181 1739.97 783.181 1746.54 Z" fill="#000000" fill-rule="nonzero" fill-opacity="1" /><path clip-path="url(#clip450)" d="M800.276 1722.78 Q800.276 1716.74 801.802 1713.45 Q803.929 1708.55 808.947 1708.55 Q810.011 1708.55 811.115 1708.85 Q812.239 1709.13 813.644 1710.24 Q815.069 1711.34 815.932 1713.15 Q817.578 1716.64 817.578 1722.78 Q817.578 1728.78 816.052 1732.06 Q813.824 1736.83 808.907 1736.83 Q807.06 1736.83 805.174 1735.89 Q803.307 1734.95 802.123 1732.68 Q800.276 1729.29 800.276 1722.78 M803.688 1722.28 Q803.688 1728.48 804.13 1730.95 Q804.632 1733.62 805.997 1734.79 Q807.381 1735.93 808.907 1735.93 Q810.553 1735.93 811.918 1734.7 Q813.303 1733.46 813.724 1730.79 Q814.186 1728.16 814.166 1722.28 Q814.166 1716.56 813.764 1714.27 Q813.222 1711.6 811.777 1710.54 Q810.352 1709.46 808.907 1709.46 Q808.365 1709.46 807.783 1709.62 Q807.221 1709.78 806.398 1710.24 Q805.575 1710.7 804.933 1711.84 Q804.311 1712.99 804.009 1714.71 Q803.688 1716.94 803.688 1722.28 Z" fill="#000000" fill-rule="nonzero" fill-opacity="1" /><path clip-path="url(#clip450)" d="M1176.92 1734.46 L1176.92 1732.88 Q1183 1732.88 1186.13 1729.64 Q1187 1729.64 1187.15 1729.84 Q1187.29 1730.04 1187.29 1730.95 L1187.29 1759.34 Q1187.29 1760.84 1188.04 1761.31 Q1188.78 1761.78 1192.01 1761.78 L1193.62 1761.78 L1193.62 1763.34 Q1191.84 1763.19 1185.42 1763.19 Q1178.99 1763.19 1177.24 1763.34 L1177.24 1761.78 L1178.85 1761.78 Q1182.03 1761.78 1182.8 1761.34 Q1183.56 1760.87 1183.56 1759.34 L1183.56 1733.13 Q1180.92 1734.46 1176.92 1734.46 Z" fill="#000000" fill-rule="nonzero" fill-opacity="1" /><path clip-path="url(#clip450)" d="M1199.7 1747.16 Q1199.7 1739.72 1201.57 1735.67 Q1204.19 1729.64 1210.37 1729.64 Q1211.68 1729.64 1213.04 1730.01 Q1214.42 1730.36 1216.15 1731.72 Q1217.9 1733.08 1218.96 1735.3 Q1220.99 1739.6 1220.99 1747.16 Q1220.99 1754.55 1219.11 1758.57 Q1216.37 1764.45 1210.32 1764.45 Q1208.05 1764.45 1205.72 1763.29 Q1203.43 1762.13 1201.97 1759.34 Q1199.7 1755.16 1199.7 1747.16 M1203.9 1746.54 Q1203.9 1754.17 1204.44 1757.21 Q1205.06 1760.5 1206.74 1761.93 Q1208.44 1763.34 1210.32 1763.34 Q1212.34 1763.34 1214.02 1761.83 Q1215.73 1760.3 1216.25 1757.02 Q1216.82 1753.78 1216.79 1746.54 Q1216.79 1739.5 1216.3 1736.68 Q1215.63 1733.4 1213.85 1732.09 Q1212.1 1730.76 1210.32 1730.76 Q1209.65 1730.76 1208.94 1730.95 Q1208.24 1731.15 1207.23 1731.72 Q1206.22 1732.29 1205.43 1733.7 Q1204.66 1735.1 1204.29 1737.23 Q1203.9 1739.97 1203.9 1746.54 Z" fill="#000000" fill-rule="nonzero" fill-opacity="1" /><path clip-path="url(#clip450)" d="M1220.99 1712.47 L1220.99 1711.18 Q1225.93 1711.18 1228.48 1708.55 Q1229.18 1708.55 1229.3 1708.71 Q1229.42 1708.87 1229.42 1709.62 L1229.42 1732.68 Q1229.42 1733.9 1230.02 1734.28 Q1230.62 1734.66 1233.25 1734.66 L1234.56 1734.66 L1234.56 1735.93 Q1233.11 1735.81 1227.89 1735.81 Q1222.68 1735.81 1221.25 1735.93 L1221.25 1734.66 L1222.56 1734.66 Q1225.15 1734.66 1225.77 1734.3 Q1226.39 1733.92 1226.39 1732.68 L1226.39 1711.38 Q1224.24 1712.47 1220.99 1712.47 Z" fill="#000000" fill-rule="nonzero" fill-opacity="1" /><path clip-path="url(#clip450)" d="M1594.34 1734.46 L1594.34 1732.88 Q1600.42 1732.88 1603.56 1729.64 Q1604.42 1729.64 1604.57 1729.84 Q1604.72 1730.04 1604.72 1730.95 L1604.72 1759.34 Q1604.72 1760.84 1605.46 1761.31 Q1606.2 1761.78 1609.44 1761.78 L1611.04 1761.78 L1611.04 1763.34 Q1609.26 1763.19 1602.84 1763.19 Q1596.42 1763.19 1594.66 1763.34 L1594.66 1761.78 L1596.27 1761.78 Q1599.46 1761.78 1600.22 1761.34 Q1600.99 1760.87 1600.99 1759.34 L1600.99 1733.13 Q1598.34 1734.46 1594.34 1734.46 Z" fill="#000000" fill-rule="nonzero" fill-opacity="1" /><path clip-path="url(#clip450)" d="M1617.12 1747.16 Q1617.12 1739.72 1619 1735.67 Q1621.61 1729.64 1627.79 1729.64 Q1629.1 1729.64 1630.46 1730.01 Q1631.84 1730.36 1633.57 1731.72 Q1635.32 1733.08 1636.39 1735.3 Q1638.41 1739.6 1638.41 1747.16 Q1638.41 1754.55 1636.54 1758.57 Q1633.79 1764.45 1627.74 1764.45 Q1625.47 1764.45 1623.15 1763.29 Q1620.85 1762.13 1619.39 1759.34 Q1617.12 1755.16 1617.12 1747.16 M1621.32 1746.54 Q1621.32 1754.17 1621.86 1757.21 Q1622.48 1760.5 1624.16 1761.93 Q1625.86 1763.34 1627.74 1763.34 Q1629.77 1763.34 1631.45 1761.83 Q1633.15 1760.3 1633.67 1757.02 Q1634.24 1753.78 1634.21 1746.54 Q1634.21 1739.5 1633.72 1736.68 Q1633.05 1733.4 1631.27 1732.09 Q1629.52 1730.76 1627.74 1730.76 Q1627.07 1730.76 1626.36 1730.95 Q1625.67 1731.15 1624.65 1731.72 Q1623.64 1732.29 1622.85 1733.7 Q1622.08 1735.1 1621.71 1737.23 Q1621.32 1739.97 1621.32 1746.54 Z" fill="#000000" fill-rule="nonzero" fill-opacity="1" /><path clip-path="url(#clip450)" d="M1638.41 1735.93 Q1638.41 1735.19 1638.47 1734.97 Q1638.55 1734.75 1638.87 1734.4 L1646.76 1725.61 Q1651.08 1720.76 1651.08 1716.52 Q1651.08 1713.77 1649.63 1711.8 Q1648.21 1709.84 1645.58 1709.84 Q1643.77 1709.84 1642.25 1710.94 Q1640.72 1712.04 1640.02 1714.01 Q1640.14 1713.97 1640.56 1713.97 Q1641.58 1713.97 1642.15 1714.61 Q1642.73 1715.26 1642.73 1716.12 Q1642.73 1717.22 1642.01 1717.76 Q1641.3 1718.29 1640.6 1718.29 Q1640.32 1718.29 1639.94 1718.23 Q1639.58 1718.17 1638.99 1717.6 Q1638.41 1717.02 1638.41 1716 Q1638.41 1713.13 1640.58 1710.84 Q1642.77 1708.55 1646.1 1708.55 Q1649.87 1708.55 1652.34 1710.8 Q1654.83 1713.03 1654.83 1716.52 Q1654.83 1717.74 1654.45 1718.87 Q1654.09 1719.97 1653.59 1720.84 Q1653.11 1721.7 1651.78 1723.08 Q1650.46 1724.47 1649.39 1725.45 Q1648.33 1726.44 1645.94 1728.52 L1641.58 1732.76 L1648.99 1732.76 Q1652.6 1732.76 1652.88 1732.44 Q1653.29 1731.85 1653.79 1728.78 L1654.83 1728.78 L1653.67 1735.93 L1638.41 1735.93 Z" fill="#000000" fill-rule="nonzero" fill-opacity="1" /><path clip-path="url(#clip450)" d="M2012.87 1734.46 L2012.87 1732.88 Q2018.95 1732.88 2022.08 1729.64 Q2022.95 1729.64 2023.1 1729.84 Q2023.24 1730.04 2023.24 1730.95 L2023.24 1759.34 Q2023.24 1760.84 2023.98 1761.31 Q2024.73 1761.78 2027.96 1761.78 L2029.57 1761.78 L2029.57 1763.34 Q2027.79 1763.19 2021.37 1763.19 Q2014.94 1763.19 2013.19 1763.34 L2013.19 1761.78 L2014.8 1761.78 Q2017.98 1761.78 2018.75 1761.34 Q2019.51 1760.87 2019.51 1759.34 L2019.51 1733.13 Q2016.87 1734.46 2012.87 1734.46 Z" fill="#000000" fill-rule="nonzero" fill-opacity="1" /><path clip-path="url(#clip450)" d="M2035.64 1747.16 Q2035.64 1739.72 2037.52 1735.67 Q2040.14 1729.64 2046.32 1729.64 Q2047.63 1729.64 2048.98 1730.01 Q2050.37 1730.36 2052.1 1731.72 Q2053.85 1733.08 2054.91 1735.3 Q2056.94 1739.6 2056.94 1747.16 Q2056.94 1754.55 2055.06 1758.57 Q2052.32 1764.45 2046.27 1764.45 Q2043.99 1764.45 2041.67 1763.29 Q2039.38 1762.13 2037.92 1759.34 Q2035.64 1755.16 2035.64 1747.16 M2039.84 1746.54 Q2039.84 1754.17 2040.39 1757.21 Q2041.01 1760.5 2042.69 1761.93 Q2044.39 1763.34 2046.27 1763.34 Q2048.29 1763.34 2049.97 1761.83 Q2051.68 1760.3 2052.2 1757.02 Q2052.76 1753.78 2052.74 1746.54 Q2052.74 1739.5 2052.25 1736.68 Q2051.58 1733.4 2049.8 1732.09 Q2048.05 1730.76 2046.27 1730.76 Q2045.6 1730.76 2044.88 1730.95 Q2044.19 1731.15 2043.18 1731.72 Q2042.17 1732.29 2041.38 1733.7 Q2040.61 1735.1 2040.24 1737.23 Q2039.84 1739.97 2039.84 1746.54 Z" fill="#000000" fill-rule="nonzero" fill-opacity="1" /><path clip-path="url(#clip450)" d="M2056.94 1730.39 Q2056.94 1729.17 2057.64 1728.58 Q2058.34 1728 2059.25 1728 Q2060.19 1728 2060.85 1728.62 Q2061.54 1729.23 2061.54 1730.29 Q2061.54 1731.43 2060.73 1732.08 Q2059.95 1732.72 2058.83 1732.56 Q2059.81 1734.2 2061.62 1734.95 Q2063.44 1735.69 2065.13 1735.69 Q2066.89 1735.69 2068.32 1734.16 Q2069.76 1732.64 2069.76 1728.9 Q2069.76 1725.73 2068.52 1723.91 Q2067.3 1722.08 2064.87 1722.08 L2063.06 1722.08 Q2062.44 1722.08 2062.26 1722.02 Q2062.08 1721.96 2062.08 1721.62 Q2062.08 1721.22 2062.7 1721.14 Q2063.32 1721.14 2064.31 1721.02 Q2066.69 1720.94 2067.96 1718.87 Q2069.1 1716.94 2069.1 1714.19 Q2069.1 1711.68 2067.9 1710.64 Q2066.71 1709.58 2065.17 1709.58 Q2063.72 1709.58 2062.14 1710.18 Q2060.55 1710.78 2059.69 1712.12 Q2062.24 1712.12 2062.24 1714.19 Q2062.24 1715.1 2061.66 1715.7 Q2061.09 1716.28 2060.15 1716.28 Q2059.25 1716.28 2058.65 1715.72 Q2058.04 1715.14 2058.04 1714.15 Q2058.04 1711.8 2060.13 1710.18 Q2062.24 1708.55 2065.33 1708.55 Q2068.38 1708.55 2070.63 1710.16 Q2072.9 1711.76 2072.9 1714.23 Q2072.9 1716.66 2071.29 1718.65 Q2069.68 1720.63 2067.14 1721.46 Q2070.27 1722.08 2072.13 1724.21 Q2074 1726.32 2074 1728.9 Q2074 1732.12 2071.47 1734.48 Q2068.94 1736.83 2065.25 1736.83 Q2061.84 1736.83 2059.39 1734.99 Q2056.94 1733.14 2056.94 1730.39 Z" fill="#000000" fill-rule="nonzero" fill-opacity="1" /><path clip-path="url(#clip450)" d="M2431.13 1734.46 L2431.13 1732.88 Q2437.21 1732.88 2440.35 1729.64 Q2441.21 1729.64 2441.36 1729.84 Q2441.51 1730.04 2441.51 1730.95 L2441.51 1759.34 Q2441.51 1760.84 2442.25 1761.31 Q2442.99 1761.78 2446.23 1761.78 L2447.83 1761.78 L2447.83 1763.34 Q2446.05 1763.19 2439.63 1763.19 Q2433.21 1763.19 2431.45 1763.34 L2431.45 1761.78 L2433.06 1761.78 Q2436.25 1761.78 2437.01 1761.34 Q2437.78 1760.87 2437.78 1759.34 L2437.78 1733.13 Q2435.14 1734.46 2431.13 1734.46 Z" fill="#000000" fill-rule="nonzero" fill-opacity="1" /><path clip-path="url(#clip450)" d="M2453.91 1747.16 Q2453.91 1739.72 2455.79 1735.67 Q2458.41 1729.64 2464.58 1729.64 Q2465.89 1729.64 2467.25 1730.01 Q2468.63 1730.36 2470.36 1731.72 Q2472.12 1733.08 2473.18 1735.3 Q2475.2 1739.6 2475.2 1747.16 Q2475.2 1754.55 2473.33 1758.57 Q2470.59 1764.45 2464.53 1764.45 Q2462.26 1764.45 2459.94 1763.29 Q2457.64 1762.13 2456.18 1759.34 Q2453.91 1755.16 2453.91 1747.16 M2458.11 1746.54 Q2458.11 1754.17 2458.65 1757.21 Q2459.27 1760.5 2460.95 1761.93 Q2462.66 1763.34 2464.53 1763.34 Q2466.56 1763.34 2468.24 1761.83 Q2469.94 1760.3 2470.46 1757.02 Q2471.03 1753.78 2471.01 1746.54 Q2471.01 1739.5 2470.51 1736.68 Q2469.84 1733.4 2468.07 1732.09 Q2466.31 1730.76 2464.53 1730.76 Q2463.87 1730.76 2463.15 1730.95 Q2462.46 1731.15 2461.44 1731.72 Q2460.43 1732.29 2459.64 1733.7 Q2458.88 1735.1 2458.51 1737.23 Q2458.11 1739.97 2458.11 1746.54 Z" fill="#000000" fill-rule="nonzero" fill-opacity="1" /><path clip-path="url(#clip450)" d="M2475.2 1729.15 L2475.2 1727.88 L2487.83 1708.59 Q2488.15 1708.09 2488.65 1708.11 Q2489.11 1708.11 2489.21 1708.29 Q2489.31 1708.47 2489.31 1709.17 L2489.31 1727.88 L2493.43 1727.88 L2493.43 1729.15 L2489.31 1729.15 L2489.31 1732.72 Q2489.31 1733.9 2489.8 1734.28 Q2490.3 1734.66 2492.43 1734.66 L2493.29 1734.66 L2493.29 1735.93 Q2491.6 1735.81 2487.71 1735.81 Q2483.84 1735.81 2482.15 1735.93 L2482.15 1734.66 L2483.01 1734.66 Q2485.14 1734.66 2485.64 1734.3 Q2486.14 1733.92 2486.14 1732.72 L2486.14 1729.15 L2475.2 1729.15 M2476.37 1727.88 L2486.38 1727.88 L2486.38 1712.55 L2476.37 1727.88 Z" fill="#000000" fill-rule="nonzero" fill-opacity="1" /><path clip-path="url(#clip450)" d="M1410.66 1861.14 L1410.66 1858.81 L1412.48 1858.81 Q1416.59 1858.81 1417.52 1858.14 Q1418.48 1857.44 1418.48 1855.22 L1418.48 1815.46 Q1418.48 1813.27 1417.52 1812.6 Q1416.56 1811.9 1412.48 1811.9 L1410.66 1811.9 L1410.66 1809.53 L1453.39 1809.53 L1455.5 1826.61 L1453.61 1826.61 Q1453.09 1822.27 1452.39 1819.79 Q1451.72 1817.27 1450.05 1815.34 Q1448.42 1813.42 1445.72 1812.68 Q1443.05 1811.9 1438.71 1811.9 L1428.93 1811.9 Q1426.34 1811.9 1425.78 1812.45 Q1425.23 1812.97 1425.23 1814.94 L1425.23 1833.13 L1432.04 1833.13 Q1437.27 1833.13 1438.75 1831.32 Q1440.23 1829.5 1440.23 1824.27 L1442.16 1824.27 L1442.16 1844.36 L1440.23 1844.36 Q1440.23 1839.21 1438.75 1837.36 Q1437.27 1835.5 1432.04 1835.5 L1425.23 1835.5 L1425.23 1855.77 Q1425.23 1857.74 1425.78 1858.29 Q1426.37 1858.81 1428.93 1858.81 L1439.05 1858.81 Q1442.31 1858.81 1444.68 1858.4 Q1447.09 1857.96 1448.76 1856.92 Q1450.42 1855.85 1451.54 1854.62 Q1452.68 1853.4 1453.46 1851.21 Q1454.28 1848.99 1454.72 1846.95 Q1455.2 1844.91 1455.72 1841.58 L1457.61 1841.58 L1454.43 1861.14 L1410.66 1861.14 Z" fill="#000000" fill-rule="nonzero" fill-opacity="1" /><path clip-path="url(#clip450)" d="M1461.84 1861.14 L1461.84 1858.81 Q1465.88 1858.81 1466.8 1858.33 Q1467.77 1857.81 1467.77 1855.36 L1467.77 1835.02 Q1467.77 1832.2 1466.76 1831.5 Q1465.8 1830.8 1461.84 1830.8 L1461.84 1828.42 L1472.4 1827.61 L1472.4 1835.95 Q1473.47 1832.69 1475.73 1830.17 Q1478.03 1827.61 1481.74 1827.61 Q1484.18 1827.61 1485.74 1828.98 Q1487.33 1830.35 1487.33 1832.24 Q1487.33 1833.91 1486.29 1834.76 Q1485.29 1835.58 1484.07 1835.58 Q1482.7 1835.58 1481.74 1834.72 Q1480.81 1833.83 1480.81 1832.32 Q1480.81 1831.39 1481.22 1830.69 Q1481.66 1829.94 1481.99 1829.68 Q1482.33 1829.43 1482.55 1829.35 Q1482.4 1829.28 1481.74 1829.28 Q1477.55 1829.28 1475.14 1833.46 Q1472.77 1837.61 1472.77 1843.54 L1472.77 1855.22 Q1472.77 1857.4 1473.66 1858.11 Q1474.58 1858.81 1478.55 1858.81 L1480.14 1858.81 L1480.14 1861.14 Q1477.1 1860.92 1470.51 1860.92 Q1469.58 1860.92 1468.14 1860.96 Q1466.69 1861 1464.8 1861.07 Q1462.91 1861.14 1461.84 1861.14 Z" fill="#000000" fill-rule="nonzero" fill-opacity="1" /><path clip-path="url(#clip450)" d="M1491.48 1861.14 L1491.48 1858.81 Q1495.52 1858.81 1496.45 1858.33 Q1497.41 1857.81 1497.41 1855.36 L1497.41 1835.02 Q1497.41 1832.2 1496.41 1831.5 Q1495.45 1830.8 1491.48 1830.8 L1491.48 1828.42 L1502.04 1827.61 L1502.04 1835.95 Q1503.12 1832.69 1505.38 1830.17 Q1507.67 1827.61 1511.38 1827.61 Q1513.82 1827.61 1515.38 1828.98 Q1516.97 1830.35 1516.97 1832.24 Q1516.97 1833.91 1515.94 1834.76 Q1514.94 1835.58 1513.71 1835.58 Q1512.34 1835.58 1511.38 1834.72 Q1510.45 1833.83 1510.45 1832.32 Q1510.45 1831.39 1510.86 1830.69 Q1511.3 1829.94 1511.64 1829.68 Q1511.97 1829.43 1512.19 1829.35 Q1512.05 1829.28 1511.38 1829.28 Q1507.19 1829.28 1504.78 1833.46 Q1502.41 1837.61 1502.41 1843.54 L1502.41 1855.22 Q1502.41 1857.4 1503.3 1858.11 Q1504.23 1858.81 1508.19 1858.81 L1509.79 1858.81 L1509.79 1861.14 Q1506.75 1860.92 1500.15 1860.92 Q1499.22 1860.92 1497.78 1860.96 Q1496.33 1861 1494.44 1861.07 Q1492.56 1861.14 1491.48 1861.14 Z" fill="#000000" fill-rule="nonzero" fill-opacity="1" /><path clip-path="url(#clip450)" d="M1526.13 1857.07 Q1521.12 1852.1 1521.12 1844.91 Q1521.12 1837.69 1526.02 1832.43 Q1530.94 1827.13 1537.98 1827.13 Q1544.88 1827.13 1549.81 1832.39 Q1554.77 1837.61 1554.77 1844.91 Q1554.77 1852.07 1549.77 1857.03 Q1544.8 1862 1537.91 1862 Q1531.17 1862 1526.13 1857.07 M1527.42 1844.28 Q1527.42 1851.66 1529.35 1854.99 Q1532.32 1860.07 1537.98 1860.07 Q1540.8 1860.07 1543.14 1858.55 Q1545.51 1857.03 1546.8 1854.47 Q1548.47 1851.14 1548.47 1844.28 Q1548.47 1836.98 1546.47 1833.76 Q1543.51 1828.83 1537.91 1828.83 Q1535.46 1828.83 1533.06 1830.13 Q1530.68 1831.39 1529.24 1833.91 Q1527.42 1837.24 1527.42 1844.28 Z" fill="#000000" fill-rule="nonzero" fill-opacity="1" /><path clip-path="url(#clip450)" d="M1559.07 1861.14 L1559.07 1858.81 Q1563.11 1858.81 1564.03 1858.33 Q1565 1857.81 1565 1855.36 L1565 1835.02 Q1565 1832.2 1564 1831.5 Q1563.03 1830.8 1559.07 1830.8 L1559.07 1828.42 L1569.63 1827.61 L1569.63 1835.95 Q1570.7 1832.69 1572.96 1830.17 Q1575.26 1827.61 1578.97 1827.61 Q1581.41 1827.61 1582.97 1828.98 Q1584.56 1830.35 1584.56 1832.24 Q1584.56 1833.91 1583.53 1834.76 Q1582.52 1835.58 1581.3 1835.58 Q1579.93 1835.58 1578.97 1834.72 Q1578.04 1833.83 1578.04 1832.32 Q1578.04 1831.39 1578.45 1830.69 Q1578.89 1829.94 1579.23 1829.68 Q1579.56 1829.43 1579.78 1829.35 Q1579.63 1829.28 1578.97 1829.28 Q1574.78 1829.28 1572.37 1833.46 Q1570 1837.61 1570 1843.54 L1570 1855.22 Q1570 1857.4 1570.89 1858.11 Q1571.82 1858.81 1575.78 1858.81 L1577.37 1858.81 L1577.37 1861.14 Q1574.34 1860.92 1567.74 1860.92 Q1566.81 1860.92 1565.37 1860.96 Q1563.92 1861 1562.03 1861.07 Q1560.14 1861.14 1559.07 1861.14 Z" fill="#000000" fill-rule="nonzero" fill-opacity="1" /><path clip-path="url(#clip450)" d="M1619.36 1842.17 Q1619.36 1829.35 1624.14 1819.01 Q1626.18 1814.68 1629.03 1811.05 Q1631.88 1807.41 1633.77 1805.82 Q1635.66 1804.23 1636.18 1804.23 Q1636.92 1804.23 1636.96 1804.97 Q1636.96 1805.34 1635.96 1806.27 Q1623.73 1818.72 1623.77 1842.17 Q1623.77 1865.7 1635.66 1877.67 Q1636.96 1878.97 1636.96 1879.38 Q1636.96 1880.12 1636.18 1880.12 Q1635.66 1880.12 1633.85 1878.6 Q1632.03 1877.08 1629.21 1873.6 Q1626.4 1870.11 1624.36 1865.85 Q1619.36 1855.51 1619.36 1842.17 Z" fill="#000000" fill-rule="nonzero" fill-opacity="1" /><path clip-path="url(#clip450)" d="M1643.78 1861.14 L1643.78 1858.81 Q1647.82 1858.81 1648.74 1858.33 Q1649.67 1857.81 1649.67 1855.36 L1649.67 1815.9 Q1649.67 1813.08 1648.67 1812.38 Q1647.7 1811.68 1643.78 1811.68 L1643.78 1809.3 L1654.67 1808.49 L1654.67 1855.36 Q1654.67 1857.81 1655.63 1858.33 Q1656.6 1858.81 1660.6 1858.81 L1660.6 1861.14 Q1659.67 1861.14 1657.75 1861.07 Q1655.82 1861 1654.41 1860.96 Q1653 1860.92 1652.19 1860.92 Q1651.3 1860.92 1643.78 1861.14 Z" fill="#000000" fill-rule="nonzero" fill-opacity="1" /><path clip-path="url(#clip450)" d="M1666.05 1861.14 Q1666.05 1859.77 1666.16 1859.37 Q1666.31 1858.96 1666.9 1858.33 L1681.46 1842.1 Q1689.43 1833.13 1689.43 1825.31 Q1689.43 1820.24 1686.76 1816.6 Q1684.13 1812.97 1679.28 1812.97 Q1675.94 1812.97 1673.12 1815.01 Q1670.31 1817.05 1669.01 1820.68 Q1669.23 1820.61 1670.01 1820.61 Q1671.9 1820.61 1672.94 1821.79 Q1674.01 1822.98 1674.01 1824.57 Q1674.01 1826.61 1672.68 1827.61 Q1671.38 1828.57 1670.09 1828.57 Q1669.57 1828.57 1668.86 1828.46 Q1668.2 1828.35 1667.12 1827.31 Q1666.05 1826.24 1666.05 1824.35 Q1666.05 1819.05 1670.05 1814.83 Q1674.09 1810.6 1680.24 1810.6 Q1687.21 1810.6 1691.76 1814.75 Q1696.36 1818.86 1696.36 1825.31 Q1696.36 1827.57 1695.65 1829.65 Q1694.99 1831.69 1694.06 1833.28 Q1693.17 1834.87 1690.73 1837.43 Q1688.28 1839.99 1686.32 1841.8 Q1684.35 1843.62 1679.94 1847.47 L1671.9 1855.29 L1685.57 1855.29 Q1692.24 1855.29 1692.76 1854.7 Q1693.5 1853.62 1694.43 1847.95 L1696.36 1847.95 L1694.21 1861.14 L1666.05 1861.14 Z" fill="#000000" fill-rule="nonzero" fill-opacity="1" /><path clip-path="url(#clip450)" d="M1704.55 1879.38 Q1704.55 1879.01 1705.51 1878.08 Q1717.74 1865.63 1717.74 1842.17 Q1717.74 1818.64 1705.99 1806.75 Q1704.55 1805.38 1704.55 1804.97 Q1704.55 1804.23 1705.29 1804.23 Q1705.81 1804.23 1707.62 1805.75 Q1709.48 1807.27 1712.25 1810.75 Q1715.07 1814.23 1717.15 1818.49 Q1722.15 1828.83 1722.15 1842.17 Q1722.15 1854.99 1717.37 1865.33 Q1715.33 1869.67 1712.48 1873.3 Q1709.62 1876.93 1707.73 1878.52 Q1705.84 1880.12 1705.29 1880.12 Q1704.55 1880.12 1704.55 1879.38 Z" fill="#000000" fill-rule="nonzero" fill-opacity="1" /><polyline clip-path="url(#clip452)" style="stroke:#000000; stroke-linecap:round; stroke-linejoin:round; stroke-width:2.8; stroke-opacity:0.4; fill:none" points="344.11,1287.76 2788.7,1287.76 "/>
<polyline clip-path="url(#clip452)" style="stroke:#000000; stroke-linecap:round; stroke-linejoin:round; stroke-width:2.8; stroke-opacity:0.4; fill:none" points="344.11,716.257 2788.7,716.257 "/>
<polyline clip-path="url(#clip452)" style="stroke:#000000; stroke-linecap:round; stroke-linejoin:round; stroke-width:2.8; stroke-opacity:0.4; fill:none" points="344.11,144.754 2788.7,144.754 "/>
<polyline clip-path="url(#clip450)" style="stroke:#000000; stroke-linecap:round; stroke-linejoin:round; stroke-width:4; stroke-opacity:1; fill:none" points="344.11,1676.83 344.11,110.236 "/>
<polyline clip-path="url(#clip450)" style="stroke:#000000; stroke-linecap:round; stroke-linejoin:round; stroke-width:4; stroke-opacity:1; fill:none" points="2788.7,1676.83 2788.7,110.236 "/>
<polyline clip-path="url(#clip450)" style="stroke:#000000; stroke-linecap:round; stroke-linejoin:round; stroke-width:4; stroke-opacity:1; fill:none" points="344.11,1287.76 359.5,1287.76 "/>
<polyline clip-path="url(#clip450)" style="stroke:#000000; stroke-linecap:round; stroke-linejoin:round; stroke-width:4; stroke-opacity:1; fill:none" points="344.11,716.257 359.5,716.257 "/>
<polyline clip-path="url(#clip450)" style="stroke:#000000; stroke-linecap:round; stroke-linejoin:round; stroke-width:4; stroke-opacity:1; fill:none" points="344.11,144.754 359.5,144.754 "/>
<path clip-path="url(#clip450)" d="M167.652 1282.61 L167.652 1281.03 Q173.729 1281.03 176.867 1277.79 Q177.731 1277.79 177.879 1277.99 Q178.028 1278.19 178.028 1279.1 L178.028 1307.49 Q178.028 1308.99 178.769 1309.46 Q179.51 1309.93 182.746 1309.93 L184.352 1309.93 L184.352 1311.49 Q182.573 1311.34 176.15 1311.34 Q169.727 1311.34 167.973 1311.49 L167.973 1309.93 L169.579 1309.93 Q172.766 1309.93 173.532 1309.49 Q174.297 1309.02 174.297 1307.49 L174.297 1281.28 Q171.654 1282.61 167.652 1282.61 Z" fill="#000000" fill-rule="nonzero" fill-opacity="1" /><path clip-path="url(#clip450)" d="M190.429 1295.31 Q190.429 1287.87 192.306 1283.82 Q194.925 1277.79 201.101 1277.79 Q202.41 1277.79 203.769 1278.16 Q205.152 1278.51 206.881 1279.87 Q208.635 1281.23 209.697 1283.45 Q211.723 1287.75 211.723 1295.31 Q211.723 1302.69 209.846 1306.72 Q207.104 1312.6 201.051 1312.6 Q198.779 1312.6 196.456 1311.44 Q194.159 1310.28 192.701 1307.49 Q190.429 1303.31 190.429 1295.31 M194.628 1294.69 Q194.628 1302.32 195.172 1305.36 Q195.789 1308.65 197.469 1310.08 Q199.174 1311.49 201.051 1311.49 Q203.077 1311.49 204.757 1309.98 Q206.461 1308.45 206.98 1305.16 Q207.548 1301.93 207.524 1294.69 Q207.524 1287.65 207.029 1284.83 Q206.362 1281.55 204.584 1280.24 Q202.83 1278.9 201.051 1278.9 Q200.384 1278.9 199.668 1279.1 Q198.976 1279.3 197.963 1279.87 Q196.95 1280.44 196.16 1281.84 Q195.394 1283.25 195.024 1285.38 Q194.628 1288.12 194.628 1294.69 Z" fill="#000000" fill-rule="nonzero" fill-opacity="1" /><path clip-path="url(#clip450)" d="M238.86 1273.22 Q239.101 1273.46 239.101 1273.8 Q239.101 1274.14 238.86 1274.38 Q238.619 1274.62 238.278 1274.62 L212.546 1274.62 Q212.205 1274.62 211.964 1274.38 Q211.723 1274.14 211.723 1273.8 Q211.723 1273.46 211.964 1273.22 Q212.205 1272.98 212.546 1272.98 L238.278 1272.98 Q238.619 1272.98 238.86 1273.22 Z" fill="#000000" fill-rule="nonzero" fill-opacity="1" /><path clip-path="url(#clip450)" d="M245.042 1260.61 L245.042 1259.33 Q249.979 1259.33 252.528 1256.7 Q253.231 1256.7 253.351 1256.86 Q253.472 1257.02 253.472 1257.76 L253.472 1280.83 Q253.472 1282.05 254.074 1282.43 Q254.676 1282.81 257.305 1282.81 L258.61 1282.81 L258.61 1284.08 Q257.165 1283.96 251.946 1283.96 Q246.728 1283.96 245.303 1284.08 L245.303 1282.81 L246.607 1282.81 Q249.197 1282.81 249.819 1282.45 Q250.441 1282.07 250.441 1280.83 L250.441 1259.53 Q248.293 1260.61 245.042 1260.61 Z" fill="#000000" fill-rule="nonzero" fill-opacity="1" /><path clip-path="url(#clip450)" d="M266.057 1283.42 Q265.434 1282.75 265.434 1281.89 Q265.434 1281.03 266.057 1280.41 Q266.679 1279.76 267.622 1279.76 Q268.525 1279.76 269.128 1280.36 Q269.75 1280.95 269.75 1281.91 Q269.75 1282.85 269.087 1283.48 Q268.445 1284.08 267.622 1284.08 Q266.679 1284.08 266.057 1283.42 Z" fill="#000000" fill-rule="nonzero" fill-opacity="1" /><path clip-path="url(#clip450)" d="M274.968 1270.93 Q274.968 1264.89 276.494 1261.6 Q278.621 1256.7 283.639 1256.7 Q284.703 1256.7 285.807 1257 Q286.931 1257.28 288.336 1258.39 Q289.761 1259.49 290.624 1261.3 Q292.27 1264.79 292.27 1270.93 Q292.27 1276.93 290.744 1280.2 Q288.517 1284.98 283.599 1284.98 Q281.752 1284.98 279.866 1284.04 Q277.999 1283.09 276.815 1280.83 Q274.968 1277.43 274.968 1270.93 M278.38 1270.43 Q278.38 1276.63 278.822 1279.1 Q279.324 1281.77 280.689 1282.93 Q282.074 1284.08 283.599 1284.08 Q285.245 1284.08 286.61 1282.85 Q287.995 1281.61 288.416 1278.94 Q288.878 1276.31 288.858 1270.43 Q288.858 1264.71 288.456 1262.42 Q287.914 1259.75 286.469 1258.69 Q285.044 1257.6 283.599 1257.6 Q283.057 1257.6 282.475 1257.76 Q281.913 1257.93 281.09 1258.39 Q280.267 1258.85 279.625 1259.99 Q279.003 1261.14 278.702 1262.86 Q278.38 1265.09 278.38 1270.43 Z" fill="#000000" fill-rule="nonzero" fill-opacity="1" /><path clip-path="url(#clip450)" d="M168.094 711.107 L168.094 709.526 Q174.171 709.526 177.308 706.29 Q178.173 706.29 178.321 706.487 Q178.469 706.685 178.469 707.599 L178.469 735.983 Q178.469 737.49 179.21 737.959 Q179.951 738.429 183.188 738.429 L184.793 738.429 L184.793 739.985 Q183.015 739.837 176.592 739.837 Q170.169 739.837 168.415 739.985 L168.415 738.429 L170.021 738.429 Q173.207 738.429 173.973 737.984 Q174.739 737.515 174.739 735.983 L174.739 709.773 Q172.096 711.107 168.094 711.107 Z" fill="#000000" fill-rule="nonzero" fill-opacity="1" /><path clip-path="url(#clip450)" d="M190.87 723.804 Q190.87 716.369 192.748 712.317 Q195.366 706.29 201.542 706.29 Q202.851 706.29 204.21 706.66 Q205.594 707.006 207.323 708.365 Q209.077 709.723 210.139 711.947 Q212.165 716.245 212.165 723.804 Q212.165 731.191 210.287 735.217 Q207.545 741.097 201.493 741.097 Q199.22 741.097 196.898 739.936 Q194.601 738.775 193.143 735.983 Q190.87 731.808 190.87 723.804 M195.07 723.187 Q195.07 730.82 195.613 733.859 Q196.231 737.144 197.911 738.577 Q199.615 739.985 201.493 739.985 Q203.518 739.985 205.198 738.478 Q206.903 736.946 207.422 733.661 Q207.99 730.425 207.965 723.187 Q207.965 716.146 207.471 713.33 Q206.804 710.045 205.025 708.735 Q203.271 707.401 201.493 707.401 Q200.826 707.401 200.109 707.599 Q199.418 707.797 198.405 708.365 Q197.392 708.933 196.602 710.341 Q195.836 711.749 195.465 713.874 Q195.07 716.616 195.07 723.187 Z" fill="#000000" fill-rule="nonzero" fill-opacity="1" /><path clip-path="url(#clip450)" d="M239.301 701.716 Q239.542 701.957 239.542 702.298 Q239.542 702.639 239.301 702.88 Q239.06 703.121 238.719 703.121 L212.988 703.121 Q212.646 703.121 212.406 702.88 Q212.165 702.639 212.165 702.298 Q212.165 701.957 212.406 701.716 Q212.646 701.475 212.988 701.475 L238.719 701.475 Q239.06 701.475 239.301 701.716 Z" fill="#000000" fill-rule="nonzero" fill-opacity="1" /><path clip-path="url(#clip450)" d="M243.436 699.428 Q243.436 693.386 244.961 690.095 Q247.089 685.197 252.107 685.197 Q253.171 685.197 254.275 685.498 Q255.399 685.779 256.804 686.883 Q258.229 687.987 259.092 689.793 Q260.738 693.286 260.738 699.428 Q260.738 705.429 259.212 708.701 Q256.984 713.478 252.067 713.478 Q250.22 713.478 248.333 712.534 Q246.467 711.591 245.283 709.323 Q243.436 705.931 243.436 699.428 M246.848 698.926 Q246.848 705.128 247.29 707.597 Q247.792 710.266 249.156 711.431 Q250.541 712.575 252.067 712.575 Q253.713 712.575 255.077 711.35 Q256.462 710.106 256.884 707.436 Q257.346 704.807 257.325 698.926 Q257.325 693.206 256.924 690.917 Q256.382 688.248 254.937 687.184 Q253.512 686.1 252.067 686.1 Q251.525 686.1 250.943 686.261 Q250.381 686.421 249.558 686.883 Q248.735 687.345 248.093 688.489 Q247.47 689.633 247.169 691.359 Q246.848 693.587 246.848 698.926 Z" fill="#000000" fill-rule="nonzero" fill-opacity="1" /><path clip-path="url(#clip450)" d="M266.498 711.912 Q265.876 711.25 265.876 710.387 Q265.876 709.524 266.498 708.902 Q267.12 708.259 268.064 708.259 Q268.967 708.259 269.569 708.861 Q270.191 709.443 270.191 710.407 Q270.191 711.35 269.529 711.972 Q268.887 712.575 268.064 712.575 Q267.12 712.575 266.498 711.912 Z" fill="#000000" fill-rule="nonzero" fill-opacity="1" /><path clip-path="url(#clip450)" d="M275.851 705.951 Q275.851 704.727 276.514 704.265 Q277.176 703.783 277.879 703.783 Q278.822 703.783 279.364 704.385 Q279.926 704.968 279.926 705.79 Q279.926 706.613 279.364 707.216 Q278.822 707.798 277.879 707.798 Q277.417 707.798 277.176 707.717 Q277.718 709.604 279.364 710.969 Q281.03 712.334 283.218 712.334 Q285.967 712.334 287.613 709.664 Q288.597 707.938 288.597 704.024 Q288.597 700.572 287.854 698.846 Q286.71 696.216 284.362 696.216 Q281.03 696.216 279.063 699.087 Q278.822 699.448 278.541 699.468 Q278.14 699.468 278.039 699.247 Q277.959 699.006 277.959 698.384 L277.959 686.221 Q277.959 685.237 278.36 685.237 Q278.521 685.237 278.862 685.358 Q281.451 686.502 284.322 686.522 Q287.272 686.522 289.922 685.318 Q290.122 685.197 290.243 685.197 Q290.644 685.197 290.664 685.659 Q290.664 685.819 290.323 686.301 Q290.002 686.763 289.299 687.385 Q288.597 687.987 287.694 688.569 Q286.79 689.151 285.466 689.553 Q284.161 689.934 282.716 689.934 Q280.99 689.934 279.223 689.392 L279.223 697.401 Q281.351 695.313 284.442 695.313 Q287.734 695.313 290.002 697.963 Q292.27 700.612 292.27 704.305 Q292.27 708.179 289.58 710.828 Q286.911 713.478 283.298 713.478 Q280.006 713.478 277.919 711.129 Q275.851 708.781 275.851 705.951 Z" fill="#000000" fill-rule="nonzero" fill-opacity="1" /><path clip-path="url(#clip450)" d="M198.924 139.603 L198.924 138.022 Q205.001 138.022 208.138 134.786 Q209.003 134.786 209.151 134.984 Q209.299 135.181 209.299 136.095 L209.299 164.479 Q209.299 165.986 210.04 166.456 Q210.781 166.925 214.017 166.925 L215.623 166.925 L215.623 168.481 Q213.844 168.333 207.422 168.333 Q200.999 168.333 199.245 168.481 L199.245 166.925 L200.851 166.925 Q204.037 166.925 204.803 166.48 Q205.569 166.011 205.569 164.479 L205.569 138.269 Q202.926 139.603 198.924 139.603 Z" fill="#000000" fill-rule="nonzero" fill-opacity="1" /><path clip-path="url(#clip450)" d="M221.7 152.301 Q221.7 144.865 223.578 140.814 Q226.196 134.786 232.372 134.786 Q233.681 134.786 235.04 135.157 Q236.423 135.502 238.153 136.861 Q239.907 138.22 240.969 140.443 Q242.994 144.741 242.994 152.301 Q242.994 159.687 241.117 163.714 Q238.375 169.593 232.323 169.593 Q230.05 169.593 227.728 168.432 Q225.43 167.271 223.973 164.479 Q221.7 160.305 221.7 152.301 M225.9 151.683 Q225.9 159.316 226.443 162.355 Q227.061 165.641 228.741 167.073 Q230.445 168.481 232.323 168.481 Q234.348 168.481 236.028 166.975 Q237.733 165.443 238.251 162.157 Q238.82 158.921 238.795 151.683 Q238.795 144.643 238.301 141.826 Q237.634 138.541 235.855 137.232 Q234.101 135.898 232.323 135.898 Q231.656 135.898 230.939 136.095 Q230.248 136.293 229.235 136.861 Q228.222 137.429 227.431 138.837 Q226.666 140.245 226.295 142.37 Q225.9 145.112 225.9 151.683 Z" fill="#000000" fill-rule="nonzero" fill-opacity="1" /><path clip-path="url(#clip450)" d="M242.994 127.924 Q242.994 121.883 244.52 118.591 Q246.647 113.694 251.665 113.694 Q252.729 113.694 253.833 113.995 Q254.957 114.276 256.362 115.38 Q257.787 116.483 258.65 118.29 Q260.296 121.782 260.296 127.924 Q260.296 133.926 258.771 137.197 Q256.543 141.974 251.625 141.974 Q249.779 141.974 247.892 141.031 Q246.025 140.088 244.841 137.819 Q242.994 134.427 242.994 127.924 M246.407 127.422 Q246.407 133.624 246.848 136.093 Q247.35 138.763 248.715 139.927 Q250.1 141.071 251.625 141.071 Q253.271 141.071 254.636 139.847 Q256.021 138.602 256.442 135.933 Q256.904 133.303 256.884 127.422 Q256.884 121.702 256.482 119.414 Q255.941 116.744 254.495 115.681 Q253.07 114.597 251.625 114.597 Q251.083 114.597 250.501 114.757 Q249.939 114.918 249.116 115.38 Q248.293 115.841 247.651 116.985 Q247.029 118.129 246.728 119.855 Q246.407 122.083 246.407 127.422 Z" fill="#000000" fill-rule="nonzero" fill-opacity="1" /><path clip-path="url(#clip450)" d="M266.057 140.409 Q265.434 139.746 265.434 138.883 Q265.434 138.02 266.057 137.398 Q266.679 136.756 267.622 136.756 Q268.525 136.756 269.128 137.358 Q269.75 137.94 269.75 138.903 Q269.75 139.847 269.087 140.469 Q268.445 141.071 267.622 141.071 Q266.679 141.071 266.057 140.409 Z" fill="#000000" fill-rule="nonzero" fill-opacity="1" /><path clip-path="url(#clip450)" d="M274.968 127.924 Q274.968 121.883 276.494 118.591 Q278.621 113.694 283.639 113.694 Q284.703 113.694 285.807 113.995 Q286.931 114.276 288.336 115.38 Q289.761 116.483 290.624 118.29 Q292.27 121.782 292.27 127.924 Q292.27 133.926 290.744 137.197 Q288.517 141.974 283.599 141.974 Q281.752 141.974 279.866 141.031 Q277.999 140.088 276.815 137.819 Q274.968 134.427 274.968 127.924 M278.38 127.422 Q278.38 133.624 278.822 136.093 Q279.324 138.763 280.689 139.927 Q282.074 141.071 283.599 141.071 Q285.245 141.071 286.61 139.847 Q287.995 138.602 288.416 135.933 Q288.878 133.303 288.858 127.422 Q288.858 121.702 288.456 119.414 Q287.914 116.744 286.469 115.681 Q285.044 114.597 283.599 114.597 Q283.057 114.597 282.475 114.757 Q281.913 114.918 281.09 115.38 Q280.267 115.841 279.625 116.985 Q279.003 118.129 278.702 119.855 Q278.38 122.083 278.38 127.422 Z" fill="#000000" fill-rule="nonzero" fill-opacity="1" /><path clip-path="url(#clip450)" d="M65.9473 1031.71 L48.902 1030.27 L48.902 983.911 L65.9473 982.466 L65.9473 984.356 Q62.5383 984.652 60.5743 984.949 Q58.6104 985.208 56.7577 985.875 Q54.8679 986.505 53.9785 987.32 Q53.0522 988.098 52.3481 989.618 Q51.607 991.137 51.4217 993.101 Q51.2365 995.065 51.2365 998.029 Q51.2365 1001.51 51.3847 1002.36 Q51.607 1003.29 52.274 1003.51 Q52.9039 1003.74 54.275 1003.74 L94.2574 1003.74 Q95.7766 1003.74 96.4066 1003.44 Q96.9994 1003.11 97.4812 1001.36 Q97.9258 999.623 97.9258 995.769 L97.9258 992.73 L100.26 992.73 Q100.038 995.843 100.038 1007.14 Q100.038 1018.37 100.26 1021.49 L97.9258 1021.49 L97.9258 1018.45 Q97.9258 1014.59 97.4812 1012.85 Q96.9994 1011.07 96.4066 1010.78 Q95.7766 1010.48 94.2574 1010.48 L54.275 1010.48 Q53.2004 1010.48 52.7557 1010.55 Q52.3111 1010.63 51.9405 1010.96 Q51.5329 1011.29 51.3847 1012.07 Q51.2365 1012.81 51.2365 1016.15 Q51.2365 1019.11 51.4217 1021.11 Q51.607 1023.08 52.3481 1024.6 Q53.0522 1026.12 53.9785 1026.93 Q54.8679 1027.71 56.7577 1028.38 Q58.6104 1029.01 60.5743 1029.27 Q62.5383 1029.53 65.9473 1029.82 L65.9473 1031.71 Z" fill="#000000" fill-rule="nonzero" fill-opacity="1" /><path clip-path="url(#clip450)" d="M100.26 977.167 L97.9258 977.167 Q97.9258 973.128 97.4441 972.202 Q96.9253 971.275 94.4797 971.275 L74.0624 971.275 Q71.2462 971.275 70.5792 972.239 Q69.9122 973.165 69.9122 976.871 L67.5407 976.871 L66.7255 966.273 L94.5538 966.273 Q96.8142 966.273 97.37 965.458 Q97.9258 964.643 97.9258 960.937 L100.26 960.937 Q100.038 968.682 100.038 968.83 Q100.038 969.867 100.26 977.167 M53.4968 973.98 Q51.9776 973.98 50.7548 972.832 Q49.4949 971.646 49.4949 969.979 Q49.4949 968.311 50.6436 967.125 Q51.7552 965.94 53.5339 965.94 Q55.2755 965.94 56.4242 967.125 Q57.5358 968.311 57.5358 969.979 Q57.5358 971.72 56.313 972.869 Q55.0902 973.98 53.4968 973.98 Z" fill="#000000" fill-rule="nonzero" fill-opacity="1" /><path clip-path="url(#clip450)" d="M100.26 956.231 L97.9258 956.231 Q97.9258 952.192 97.4441 951.266 Q96.9253 950.339 94.4797 950.339 L74.1365 950.339 Q71.3203 950.339 70.6163 951.34 Q69.9122 952.303 69.9122 956.231 L67.5407 956.231 L66.7255 945.559 L74.6923 945.559 Q66.7255 942.002 66.7255 934.332 Q66.7255 925.438 74.1365 924.216 Q71.2462 922.919 68.9858 920.214 Q66.7255 917.472 66.7255 913.21 Q66.7255 907.504 69.5417 905.243 Q71.4315 903.576 73.5436 903.242 Q75.6557 902.909 81.1399 902.909 L95.6284 902.909 Q97.2218 902.835 97.5923 901.612 Q97.9258 900.389 97.9258 896.98 L100.26 896.98 Q100.038 904.725 100.038 905.466 Q100.038 906.059 100.26 914.062 L97.9258 914.062 Q97.9258 910.023 97.4441 909.097 Q96.9253 908.134 94.4797 908.134 L76.8044 908.134 Q72.9507 908.134 70.6904 909.319 Q68.3929 910.505 68.3929 913.766 Q68.3929 917.694 71.6908 920.844 Q74.9887 923.993 80.547 923.993 L94.4797 923.993 Q96.9253 923.993 97.4441 923.067 Q97.9258 922.103 97.9258 918.064 L100.26 918.064 Q100.038 925.809 100.038 926.587 Q100.038 927.18 100.26 935.147 L97.9258 935.147 Q97.9258 931.108 97.4441 930.181 Q96.9253 929.218 94.4797 929.218 L76.8044 929.218 Q72.9507 929.218 70.6904 930.404 Q68.3929 931.589 68.3929 934.85 Q68.3929 938.778 71.6908 941.928 Q74.9887 945.078 80.547 945.078 L94.4797 945.078 Q96.9253 945.078 97.4441 944.151 Q97.9258 943.188 97.9258 939.186 L100.26 939.186 Q100.038 946.93 100.038 947.671 Q100.038 948.264 100.26 956.231 Z" fill="#000000" fill-rule="nonzero" fill-opacity="1" /><path clip-path="url(#clip450)" d="M83.5485 893.386 Q76.3968 893.386 71.3203 888.791 Q66.2438 884.196 66.2438 877.6 Q66.2438 870.93 70.5792 867.484 Q74.9146 864.001 81.1399 864.001 Q82.2886 864.001 82.5109 864.298 Q82.7332 864.594 82.7332 865.891 L82.7332 887.086 Q90.4778 887.086 94.1091 884.789 Q99.1857 881.602 99.1857 876.229 Q99.1857 875.488 99.0375 874.599 Q98.8892 873.71 98.2593 871.894 Q97.5923 870.078 95.8507 868.485 Q94.1091 866.891 91.3671 865.965 Q90.2925 865.743 90.3295 865.002 Q90.3295 864.001 91.2189 864.001 Q91.8858 864.001 93.4051 864.742 Q94.8873 865.446 96.6659 866.817 Q98.4446 868.188 99.7786 870.856 Q101.113 873.487 101.113 876.674 Q101.113 883.344 96.0731 888.383 Q90.9965 893.386 83.5485 893.386 M81.1399 887.012 L81.1399 869.004 Q79.5465 869.004 77.7679 869.3 Q75.9892 869.559 73.5436 870.375 Q71.0609 871.153 69.5046 873.005 Q67.9483 874.858 67.9483 877.6 Q67.9483 878.823 68.4671 880.157 Q68.9858 881.454 70.2457 883.047 Q71.5056 884.641 74.3588 885.752 Q77.212 886.864 81.1399 887.012 Z" fill="#000000" fill-rule="nonzero" fill-opacity="1" /><path clip-path="url(#clip450)" d="M81.2881 829.058 Q68.4671 829.058 58.1287 824.278 Q53.7933 822.24 50.1619 819.387 Q46.5305 816.534 44.9371 814.644 Q43.3437 812.754 43.3437 812.235 Q43.3437 811.494 44.0848 811.457 Q44.4554 811.457 45.3818 812.458 Q57.8323 824.686 81.2881 824.649 Q104.818 824.649 116.787 812.754 Q118.084 811.457 118.491 811.457 Q119.232 811.457 119.232 812.235 Q119.232 812.754 117.713 814.57 Q116.194 816.385 112.711 819.202 Q109.228 822.018 104.966 824.056 Q94.6279 829.058 81.2881 829.058 Z" fill="#000000" fill-rule="nonzero" fill-opacity="1" /><path clip-path="url(#clip450)" d="M99.2598 804.639 L89.2549 804.639 Q88.4027 804.639 88.1062 804.602 Q87.8098 804.565 87.5875 804.342 Q87.3651 804.12 87.3651 803.675 Q87.3651 803.157 87.5875 802.971 Q87.8098 802.749 88.6621 802.601 Q93.8868 801.452 96.6659 799.007 Q99.408 796.524 99.408 792.04 Q99.408 787.779 97.5182 785.63 Q95.6284 783.481 92.5158 783.481 Q86.9575 783.481 85.5494 791.373 Q84.6231 795.931 84.0302 797.821 Q83.4002 799.711 82.0292 801.378 Q79.3612 804.639 75.5816 804.639 Q71.802 804.639 69.0229 801.786 Q66.2438 798.895 66.2438 792.522 Q66.2438 788.261 68.3929 785.37 Q67.726 784.518 67.1701 784.073 Q66.2438 783.073 66.2438 782.554 Q66.2438 781.961 66.6514 781.85 Q67.0219 781.739 68.0965 781.739 L75.7298 781.739 Q76.5821 781.739 76.8786 781.776 Q77.175 781.813 77.3973 782.035 Q77.5826 782.258 77.5826 782.739 Q77.5826 783.592 76.8786 783.629 Q67.6889 784.222 67.6889 792.522 Q67.6889 797.006 69.4305 799.007 Q71.135 801.008 73.4695 801.008 Q74.7664 801.008 75.7669 800.415 Q76.7303 799.785 77.3232 799.007 Q77.879 798.191 78.4349 796.709 Q78.9536 795.227 79.1389 794.338 Q79.3242 793.411 79.6947 791.67 Q80.8434 785.593 83.3261 783.036 Q86.5129 779.849 90.5519 779.849 Q95.0355 779.849 98.074 782.888 Q101.113 785.926 101.113 792.04 Q101.113 796.969 97.8147 800.415 Q98.2593 800.859 98.6669 801.193 Q99.0375 801.526 99.1857 801.675 Q99.3339 801.786 99.4451 801.823 Q99.5192 801.86 99.5933 801.934 Q101.113 803.453 101.113 803.824 Q101.113 804.417 100.705 804.528 Q100.334 804.639 99.2598 804.639 Z" fill="#000000" fill-rule="nonzero" fill-opacity="1" /><path clip-path="url(#clip450)" d="M118.491 772.957 Q118.121 772.957 117.194 771.993 Q104.744 759.765 81.2881 759.765 Q57.7582 759.765 45.8635 771.512 Q44.4924 772.957 44.0848 772.957 Q43.3437 772.957 43.3437 772.216 Q43.3437 771.697 44.863 769.881 Q46.3823 768.029 49.8654 765.249 Q53.3486 762.433 57.6099 760.358 Q67.9483 755.356 81.2881 755.356 Q94.1091 755.356 104.448 760.136 Q108.783 762.174 112.414 765.027 Q116.046 767.88 117.639 769.77 Q119.232 771.66 119.232 772.216 Q119.232 772.957 118.491 772.957 Z" fill="#000000" fill-rule="nonzero" fill-opacity="1" /><polyline clip-path="url(#clip452)" style="stroke:#0000ff; stroke-linecap:round; stroke-linejoin:round; stroke-width:12; stroke-opacity:1; fill:none" points="2719.52,1541.07 2577.62,1263.55 2509.1,1023.11 2261.63,719.356 2004.64,428.691 1632.69,154.574 "/>
<line clip-path="url(#clip452)" x1="2719.52" y1="1541.07" x2="2719.52" y2="1525.07" style="stroke:#0000ff; stroke-width:12; stroke-opacity:1"/>
<line clip-path="url(#clip452)" x1="2719.52" y1="1541.07" x2="2703.52" y2="1541.07" style="stroke:#0000ff; stroke-width:12; stroke-opacity:1"/>
<line clip-path="url(#clip452)" x1="2719.52" y1="1541.07" x2="2719.52" y2="1557.07" style="stroke:#0000ff; stroke-width:12; stroke-opacity:1"/>
<line clip-path="url(#clip452)" x1="2719.52" y1="1541.07" x2="2735.52" y2="1541.07" style="stroke:#0000ff; stroke-width:12; stroke-opacity:1"/>
<line clip-path="url(#clip452)" x1="2577.62" y1="1263.55" x2="2577.62" y2="1247.55" style="stroke:#0000ff; stroke-width:12; stroke-opacity:1"/>
<line clip-path="url(#clip452)" x1="2577.62" y1="1263.55" x2="2561.62" y2="1263.55" style="stroke:#0000ff; stroke-width:12; stroke-opacity:1"/>
<line clip-path="url(#clip452)" x1="2577.62" y1="1263.55" x2="2577.62" y2="1279.55" style="stroke:#0000ff; stroke-width:12; stroke-opacity:1"/>
<line clip-path="url(#clip452)" x1="2577.62" y1="1263.55" x2="2593.62" y2="1263.55" style="stroke:#0000ff; stroke-width:12; stroke-opacity:1"/>
<line clip-path="url(#clip452)" x1="2509.1" y1="1023.11" x2="2509.1" y2="1007.11" style="stroke:#0000ff; stroke-width:12; stroke-opacity:1"/>
<line clip-path="url(#clip452)" x1="2509.1" y1="1023.11" x2="2493.1" y2="1023.11" style="stroke:#0000ff; stroke-width:12; stroke-opacity:1"/>
<line clip-path="url(#clip452)" x1="2509.1" y1="1023.11" x2="2509.1" y2="1039.11" style="stroke:#0000ff; stroke-width:12; stroke-opacity:1"/>
<line clip-path="url(#clip452)" x1="2509.1" y1="1023.11" x2="2525.1" y2="1023.11" style="stroke:#0000ff; stroke-width:12; stroke-opacity:1"/>
<line clip-path="url(#clip452)" x1="2261.63" y1="719.356" x2="2261.63" y2="703.356" style="stroke:#0000ff; stroke-width:12; stroke-opacity:1"/>
<line clip-path="url(#clip452)" x1="2261.63" y1="719.356" x2="2245.63" y2="719.356" style="stroke:#0000ff; stroke-width:12; stroke-opacity:1"/>
<line clip-path="url(#clip452)" x1="2261.63" y1="719.356" x2="2261.63" y2="735.356" style="stroke:#0000ff; stroke-width:12; stroke-opacity:1"/>
<line clip-path="url(#clip452)" x1="2261.63" y1="719.356" x2="2277.63" y2="719.356" style="stroke:#0000ff; stroke-width:12; stroke-opacity:1"/>
<line clip-path="url(#clip452)" x1="2004.64" y1="428.691" x2="2004.64" y2="412.691" style="stroke:#0000ff; stroke-width:12; stroke-opacity:1"/>
<line clip-path="url(#clip452)" x1="2004.64" y1="428.691" x2="1988.64" y2="428.691" style="stroke:#0000ff; stroke-width:12; stroke-opacity:1"/>
<line clip-path="url(#clip452)" x1="2004.64" y1="428.691" x2="2004.64" y2="444.691" style="stroke:#0000ff; stroke-width:12; stroke-opacity:1"/>
<line clip-path="url(#clip452)" x1="2004.64" y1="428.691" x2="2020.64" y2="428.691" style="stroke:#0000ff; stroke-width:12; stroke-opacity:1"/>
<line clip-path="url(#clip452)" x1="1632.69" y1="154.574" x2="1632.69" y2="138.574" style="stroke:#0000ff; stroke-width:12; stroke-opacity:1"/>
<line clip-path="url(#clip452)" x1="1632.69" y1="154.574" x2="1616.69" y2="154.574" style="stroke:#0000ff; stroke-width:12; stroke-opacity:1"/>
<line clip-path="url(#clip452)" x1="1632.69" y1="154.574" x2="1632.69" y2="170.574" style="stroke:#0000ff; stroke-width:12; stroke-opacity:1"/>
<line clip-path="url(#clip452)" x1="1632.69" y1="154.574" x2="1648.69" y2="154.574" style="stroke:#0000ff; stroke-width:12; stroke-opacity:1"/>
<polyline clip-path="url(#clip452)" style="stroke:#5400aa; stroke-linecap:round; stroke-linejoin:round; stroke-width:12; stroke-opacity:1; fill:none" points="2647.11,1605.44 2517.06,1383.96 1854.83,1183.28 1213.42,967.967 812.821,754.175 765.849,533.047 "/>
<circle clip-path="url(#clip452)" cx="2647.11" cy="1605.44" r="14.4" fill="#5400aa" fill-rule="evenodd" fill-opacity="1" stroke="#000000" stroke-opacity="1" stroke-width="1.92"/>
<circle clip-path="url(#clip452)" cx="2517.06" cy="1383.96" r="14.4" fill="#5400aa" fill-rule="evenodd" fill-opacity="1" stroke="#000000" stroke-opacity="1" stroke-width="1.92"/>
<circle clip-path="url(#clip452)" cx="1854.83" cy="1183.28" r="14.4" fill="#5400aa" fill-rule="evenodd" fill-opacity="1" stroke="#000000" stroke-opacity="1" stroke-width="1.92"/>
<circle clip-path="url(#clip452)" cx="1213.42" cy="967.967" r="14.4" fill="#5400aa" fill-rule="evenodd" fill-opacity="1" stroke="#000000" stroke-opacity="1" stroke-width="1.92"/>
<circle clip-path="url(#clip452)" cx="812.821" cy="754.175" r="14.4" fill="#5400aa" fill-rule="evenodd" fill-opacity="1" stroke="#000000" stroke-opacity="1" stroke-width="1.92"/>
<circle clip-path="url(#clip452)" cx="765.849" cy="533.047" r="14.4" fill="#5400aa" fill-rule="evenodd" fill-opacity="1" stroke="#000000" stroke-opacity="1" stroke-width="1.92"/>
<polyline clip-path="url(#clip452)" style="stroke:#a90055; stroke-linecap:round; stroke-linejoin:round; stroke-width:12; stroke-opacity:1; fill:none" points="2624.13,1632.49 2145.1,1431.72 1349.86,1276.46 1410.25,1112.24 423.426,948.077 413.296,770.924 "/>
<line clip-path="url(#clip452)" x1="2624.13" y1="1632.49" x2="2624.13" y2="1616.49" style="stroke:#a90055; stroke-width:12; stroke-opacity:1"/>
<line clip-path="url(#clip452)" x1="2624.13" y1="1632.49" x2="2608.13" y2="1632.49" style="stroke:#a90055; stroke-width:12; stroke-opacity:1"/>
<line clip-path="url(#clip452)" x1="2624.13" y1="1632.49" x2="2624.13" y2="1648.49" style="stroke:#a90055; stroke-width:12; stroke-opacity:1"/>
<line clip-path="url(#clip452)" x1="2624.13" y1="1632.49" x2="2640.13" y2="1632.49" style="stroke:#a90055; stroke-width:12; stroke-opacity:1"/>
<line clip-path="url(#clip452)" x1="2145.1" y1="1431.72" x2="2145.1" y2="1415.72" style="stroke:#a90055; stroke-width:12; stroke-opacity:1"/>
<line clip-path="url(#clip452)" x1="2145.1" y1="1431.72" x2="2129.1" y2="1431.72" style="stroke:#a90055; stroke-width:12; stroke-opacity:1"/>
<line clip-path="url(#clip452)" x1="2145.1" y1="1431.72" x2="2145.1" y2="1447.72" style="stroke:#a90055; stroke-width:12; stroke-opacity:1"/>
<line clip-path="url(#clip452)" x1="2145.1" y1="1431.72" x2="2161.1" y2="1431.72" style="stroke:#a90055; stroke-width:12; stroke-opacity:1"/>
<line clip-path="url(#clip452)" x1="1349.86" y1="1276.46" x2="1349.86" y2="1260.46" style="stroke:#a90055; stroke-width:12; stroke-opacity:1"/>
<line clip-path="url(#clip452)" x1="1349.86" y1="1276.46" x2="1333.86" y2="1276.46" style="stroke:#a90055; stroke-width:12; stroke-opacity:1"/>
<line clip-path="url(#clip452)" x1="1349.86" y1="1276.46" x2="1349.86" y2="1292.46" style="stroke:#a90055; stroke-width:12; stroke-opacity:1"/>
<line clip-path="url(#clip452)" x1="1349.86" y1="1276.46" x2="1365.86" y2="1276.46" style="stroke:#a90055; stroke-width:12; stroke-opacity:1"/>
<line clip-path="url(#clip452)" x1="1410.25" y1="1112.24" x2="1410.25" y2="1096.24" style="stroke:#a90055; stroke-width:12; stroke-opacity:1"/>
<line clip-path="url(#clip452)" x1="1410.25" y1="1112.24" x2="1394.25" y2="1112.24" style="stroke:#a90055; stroke-width:12; stroke-opacity:1"/>
<line clip-path="url(#clip452)" x1="1410.25" y1="1112.24" x2="1410.25" y2="1128.24" style="stroke:#a90055; stroke-width:12; stroke-opacity:1"/>
<line clip-path="url(#clip452)" x1="1410.25" y1="1112.24" x2="1426.25" y2="1112.24" style="stroke:#a90055; stroke-width:12; stroke-opacity:1"/>
<line clip-path="url(#clip452)" x1="423.426" y1="948.077" x2="423.426" y2="932.077" style="stroke:#a90055; stroke-width:12; stroke-opacity:1"/>
<line clip-path="url(#clip452)" x1="423.426" y1="948.077" x2="407.426" y2="948.077" style="stroke:#a90055; stroke-width:12; stroke-opacity:1"/>
<line clip-path="url(#clip452)" x1="423.426" y1="948.077" x2="423.426" y2="964.077" style="stroke:#a90055; stroke-width:12; stroke-opacity:1"/>
<line clip-path="url(#clip452)" x1="423.426" y1="948.077" x2="439.426" y2="948.077" style="stroke:#a90055; stroke-width:12; stroke-opacity:1"/>
<line clip-path="url(#clip452)" x1="413.296" y1="770.924" x2="413.296" y2="754.924" style="stroke:#a90055; stroke-width:12; stroke-opacity:1"/>
<line clip-path="url(#clip452)" x1="413.296" y1="770.924" x2="397.296" y2="770.924" style="stroke:#a90055; stroke-width:12; stroke-opacity:1"/>
<line clip-path="url(#clip452)" x1="413.296" y1="770.924" x2="413.296" y2="786.924" style="stroke:#a90055; stroke-width:12; stroke-opacity:1"/>
<line clip-path="url(#clip452)" x1="413.296" y1="770.924" x2="429.296" y2="770.924" style="stroke:#a90055; stroke-width:12; stroke-opacity:1"/>
<path clip-path="url(#clip452)" d="M1620.14 1277.2 L1604.14 1293.2 L1620.14 1309.2 L1636.14 1293.2 L1620.14 1277.2 Z" fill="#ff0000" fill-rule="evenodd" fill-opacity="1" stroke="#000000" stroke-opacity="1" stroke-width="1.92"/>
<path clip-path="url(#clip450)" d="M2888.76 421.656 L3345.76 421.656 L3345.76 162.456 L2888.76 162.456  Z" fill="#ffffff" fill-rule="evenodd" fill-opacity="1"/>
<polyline clip-path="url(#clip450)" style="stroke:#000000; stroke-linecap:round; stroke-linejoin:round; stroke-width:4; stroke-opacity:1; fill:none" points="2888.76,421.656 3345.76,421.656 3345.76,162.456 2888.76,162.456 2888.76,421.656 "/>
<polyline clip-path="url(#clip450)" style="stroke:#0000ff; stroke-linecap:round; stroke-linejoin:round; stroke-width:12; stroke-opacity:1; fill:none" points="2922.11,214.296 3122.22,214.296 "/>
<line clip-path="url(#clip450)" x1="3022.16" y1="214.296" x2="3022.16" y2="190.202" style="stroke:#0000ff; stroke-width:12; stroke-opacity:1"/>
<line clip-path="url(#clip450)" x1="3022.16" y1="214.296" x2="2998.07" y2="214.296" style="stroke:#0000ff; stroke-width:12; stroke-opacity:1"/>
<line clip-path="url(#clip450)" x1="3022.16" y1="214.296" x2="3022.16" y2="238.39" style="stroke:#0000ff; stroke-width:12; stroke-opacity:1"/>
<line clip-path="url(#clip450)" x1="3022.16" y1="214.296" x2="3046.26" y2="214.296" style="stroke:#0000ff; stroke-width:12; stroke-opacity:1"/>
<path clip-path="url(#clip450)" d="M3155.57 231.576 L3155.57 230.02 L3156.78 230.02 Q3159.52 230.02 3160.14 229.575 Q3160.78 229.106 3160.78 227.624 L3160.78 201.117 Q3160.78 199.659 3160.14 199.215 Q3159.5 198.745 3156.78 198.745 L3155.57 198.745 L3155.57 197.164 L3184.05 197.164 L3185.46 208.553 L3184.2 208.553 Q3183.86 205.662 3183.39 204.007 Q3182.94 202.327 3181.83 201.043 Q3180.74 199.758 3178.94 199.264 Q3177.16 198.745 3174.27 198.745 L3167.75 198.745 Q3166.02 198.745 3165.65 199.116 Q3165.28 199.462 3165.28 200.771 L3165.28 212.9 L3169.82 212.9 Q3173.31 212.9 3174.3 211.69 Q3175.28 210.479 3175.28 206.996 L3176.57 206.996 L3176.57 220.385 L3175.28 220.385 Q3175.28 216.952 3174.3 215.717 Q3173.31 214.481 3169.82 214.481 L3165.28 214.481 L3165.28 227.994 Q3165.28 229.303 3165.65 229.674 Q3166.04 230.02 3167.75 230.02 L3174.49 230.02 Q3176.67 230.02 3178.25 229.748 Q3179.85 229.452 3180.97 228.76 Q3182.08 228.043 3182.82 227.228 Q3183.58 226.413 3184.1 224.956 Q3184.65 223.473 3184.94 222.115 Q3185.26 220.756 3185.61 218.533 L3186.87 218.533 L3184.75 231.576 L3155.57 231.576 Z" fill="#000000" fill-rule="nonzero" fill-opacity="1" /><path clip-path="url(#clip450)" d="M3189.96 231.576 L3189.96 230.02 L3191.17 230.02 Q3193.91 230.02 3194.53 229.575 Q3195.17 229.106 3195.17 227.624 L3195.17 200.969 Q3195.17 199.511 3194.53 199.066 Q3193.89 198.597 3191.17 198.597 L3189.96 198.597 L3189.96 197.016 Q3191.74 197.164 3197.44 197.164 Q3203.1 197.164 3204.88 197.016 L3204.88 198.597 L3203.67 198.597 Q3200.93 198.597 3200.28 199.066 Q3199.67 199.511 3199.67 200.969 L3199.67 217.05 L3215.5 201.932 Q3216.41 201.117 3216.41 200.252 Q3216.41 199.956 3216.27 199.635 Q3216.14 199.289 3215.55 198.943 Q3214.98 198.597 3214.07 198.597 L3214.07 197.016 Q3215.8 197.164 3220.52 197.164 Q3223.5 197.164 3224.81 197.016 L3224.81 198.597 Q3220.61 198.646 3217.63 201.636 L3208.51 210.381 L3220.19 227.574 Q3221.26 229.13 3222.29 229.575 Q3223.33 230.02 3225.51 230.02 L3225.51 231.576 Q3222.32 231.428 3219.7 231.428 Q3214.24 231.428 3212.46 231.576 L3212.46 230.02 Q3215.45 230.02 3215.45 228.488 Q3215.45 227.92 3214.69 226.759 L3205.52 213.221 L3199.67 218.78 L3199.67 227.624 Q3199.67 229.081 3200.28 229.55 Q3200.93 230.02 3203.67 230.02 L3204.88 230.02 L3204.88 231.576 Q3203.1 231.428 3197.39 231.428 Q3191.74 231.428 3189.96 231.576 Z" fill="#000000" fill-rule="nonzero" fill-opacity="1" /><path clip-path="url(#clip450)" d="M3232.08 202.698 L3232.08 201.117 Q3238.15 201.117 3241.29 197.881 Q3242.16 197.881 3242.3 198.078 Q3242.45 198.276 3242.45 199.19 L3242.45 227.574 Q3242.45 229.081 3243.19 229.55 Q3243.93 230.02 3247.17 230.02 L3248.78 230.02 L3248.78 231.576 Q3247 231.428 3240.57 231.428 Q3234.15 231.428 3232.4 231.576 L3232.4 230.02 L3234 230.02 Q3237.19 230.02 3237.96 229.575 Q3238.72 229.106 3238.72 227.574 L3238.72 201.364 Q3236.08 202.698 3232.08 202.698 Z" fill="#000000" fill-rule="nonzero" fill-opacity="1" /><path clip-path="url(#clip450)" d="M3257.89 218.928 Q3257.89 210.381 3261.08 203.488 Q3262.44 200.598 3264.34 198.177 Q3266.24 195.756 3267.5 194.694 Q3268.76 193.632 3269.11 193.632 Q3269.6 193.632 3269.63 194.126 Q3269.63 194.373 3268.96 194.99 Q3260.81 203.291 3260.83 218.928 Q3260.83 234.615 3268.76 242.594 Q3269.63 243.458 3269.63 243.73 Q3269.63 244.224 3269.11 244.224 Q3268.76 244.224 3267.55 243.211 Q3266.34 242.199 3264.46 239.876 Q3262.59 237.554 3261.23 234.713 Q3257.89 227.821 3257.89 218.928 Z" fill="#000000" fill-rule="nonzero" fill-opacity="1" /><path clip-path="url(#clip450)" d="M3274.62 224.758 Q3274.62 223.251 3275.48 222.535 Q3276.35 221.818 3277.46 221.818 Q3278.62 221.818 3279.43 222.584 Q3280.27 223.325 3280.27 224.634 Q3280.27 226.043 3279.28 226.833 Q3278.32 227.624 3276.94 227.426 Q3278.15 229.452 3280.37 230.366 Q3282.62 231.28 3284.69 231.28 Q3286.87 231.28 3288.62 229.402 Q3290.4 227.525 3290.4 222.93 Q3290.4 219.027 3288.87 216.779 Q3287.36 214.531 3284.37 214.531 L3282.15 214.531 Q3281.38 214.531 3281.16 214.457 Q3280.94 214.383 3280.94 213.963 Q3280.94 213.469 3281.71 213.37 Q3282.47 213.37 3283.68 213.221 Q3286.62 213.123 3288.18 210.578 Q3289.59 208.207 3289.59 204.822 Q3289.59 201.734 3288.1 200.45 Q3286.65 199.141 3284.74 199.141 Q3282.97 199.141 3281.01 199.882 Q3279.06 200.623 3278 202.278 Q3281.14 202.278 3281.14 204.822 Q3281.14 205.934 3280.42 206.675 Q3279.73 207.391 3278.57 207.391 Q3277.46 207.391 3276.72 206.7 Q3275.97 205.983 3275.97 204.773 Q3275.97 201.883 3278.54 199.882 Q3281.14 197.881 3284.94 197.881 Q3288.7 197.881 3291.46 199.857 Q3294.26 201.833 3294.26 204.872 Q3294.26 207.861 3292.28 210.306 Q3290.3 212.752 3287.17 213.765 Q3291.02 214.531 3293.32 217.149 Q3295.61 219.743 3295.61 222.93 Q3295.61 226.882 3292.5 229.797 Q3289.39 232.688 3284.84 232.688 Q3280.64 232.688 3277.63 230.415 Q3274.62 228.142 3274.62 224.758 Z" fill="#000000" fill-rule="nonzero" fill-opacity="1" /><path clip-path="url(#clip450)" d="M3300.68 243.73 Q3300.68 243.483 3301.32 242.866 Q3309.47 234.565 3309.47 218.928 Q3309.47 203.241 3301.64 195.312 Q3300.68 194.398 3300.68 194.126 Q3300.68 193.632 3301.17 193.632 Q3301.52 193.632 3302.73 194.645 Q3303.96 195.657 3305.82 197.98 Q3307.69 200.302 3309.08 203.143 Q3312.41 210.035 3312.41 218.928 Q3312.41 227.475 3309.23 234.368 Q3307.87 237.258 3305.96 239.679 Q3304.06 242.1 3302.8 243.162 Q3301.54 244.224 3301.17 244.224 Q3300.68 244.224 3300.68 243.73 Z" fill="#000000" fill-rule="nonzero" fill-opacity="1" /><polyline clip-path="url(#clip450)" style="stroke:#5400aa; stroke-linecap:round; stroke-linejoin:round; stroke-width:12; stroke-opacity:1; fill:none" points="2922.11,266.136 3122.22,266.136 "/>
<circle clip-path="url(#clip450)" cx="3022.16" cy="266.136" r="21.6847" fill="#5400aa" fill-rule="evenodd" fill-opacity="1" stroke="#000000" stroke-opacity="1" stroke-width="2.89129"/>
<path clip-path="url(#clip450)" d="M3155.57 283.416 L3155.57 281.86 L3156.78 281.86 Q3159.52 281.86 3160.14 281.415 Q3160.78 280.946 3160.78 279.464 L3160.78 252.957 Q3160.78 251.499 3160.14 251.055 Q3159.5 250.585 3156.78 250.585 L3155.57 250.585 L3155.57 249.004 L3184.05 249.004 L3185.46 260.393 L3184.2 260.393 Q3183.86 257.502 3183.39 255.847 Q3182.94 254.167 3181.83 252.883 Q3180.74 251.598 3178.94 251.104 Q3177.16 250.585 3174.27 250.585 L3167.75 250.585 Q3166.02 250.585 3165.65 250.956 Q3165.28 251.302 3165.28 252.611 L3165.28 264.74 L3169.82 264.74 Q3173.31 264.74 3174.3 263.53 Q3175.28 262.319 3175.28 258.836 L3176.57 258.836 L3176.57 272.225 L3175.28 272.225 Q3175.28 268.792 3174.3 267.557 Q3173.31 266.321 3169.82 266.321 L3165.28 266.321 L3165.28 279.834 Q3165.28 281.143 3165.65 281.514 Q3166.04 281.86 3167.75 281.86 L3174.49 281.86 Q3176.67 281.86 3178.25 281.588 Q3179.85 281.292 3180.97 280.6 Q3182.08 279.883 3182.82 279.068 Q3183.58 278.253 3184.1 276.796 Q3184.65 275.313 3184.94 273.955 Q3185.26 272.596 3185.61 270.373 L3186.87 270.373 L3184.75 283.416 L3155.57 283.416 Z" fill="#000000" fill-rule="nonzero" fill-opacity="1" /><path clip-path="url(#clip450)" d="M3189.96 283.416 L3189.96 281.86 L3191.17 281.86 Q3193.91 281.86 3194.53 281.415 Q3195.17 280.946 3195.17 279.464 L3195.17 252.809 Q3195.17 251.351 3194.53 250.906 Q3193.89 250.437 3191.17 250.437 L3189.96 250.437 L3189.96 248.856 Q3191.74 249.004 3197.44 249.004 Q3203.1 249.004 3204.88 248.856 L3204.88 250.437 L3203.67 250.437 Q3200.93 250.437 3200.28 250.906 Q3199.67 251.351 3199.67 252.809 L3199.67 268.89 L3215.5 253.772 Q3216.41 252.957 3216.41 252.092 Q3216.41 251.796 3216.27 251.475 Q3216.14 251.129 3215.55 250.783 Q3214.98 250.437 3214.07 250.437 L3214.07 248.856 Q3215.8 249.004 3220.52 249.004 Q3223.5 249.004 3224.81 248.856 L3224.81 250.437 Q3220.61 250.486 3217.63 253.476 L3208.51 262.221 L3220.19 279.414 Q3221.26 280.97 3222.29 281.415 Q3223.33 281.86 3225.51 281.86 L3225.51 283.416 Q3222.32 283.268 3219.7 283.268 Q3214.24 283.268 3212.46 283.416 L3212.46 281.86 Q3215.45 281.86 3215.45 280.328 Q3215.45 279.76 3214.69 278.599 L3205.52 265.061 L3199.67 270.62 L3199.67 279.464 Q3199.67 280.921 3200.28 281.39 Q3200.93 281.86 3203.67 281.86 L3204.88 281.86 L3204.88 283.416 Q3203.1 283.268 3197.39 283.268 Q3191.74 283.268 3189.96 283.416 Z" fill="#000000" fill-rule="nonzero" fill-opacity="1" /><path clip-path="url(#clip450)" d="M3232.08 254.538 L3232.08 252.957 Q3238.15 252.957 3241.29 249.721 Q3242.16 249.721 3242.3 249.918 Q3242.45 250.116 3242.45 251.03 L3242.45 279.414 Q3242.45 280.921 3243.19 281.39 Q3243.93 281.86 3247.17 281.86 L3248.78 281.86 L3248.78 283.416 Q3247 283.268 3240.57 283.268 Q3234.15 283.268 3232.4 283.416 L3232.4 281.86 L3234 281.86 Q3237.19 281.86 3237.96 281.415 Q3238.72 280.946 3238.72 279.414 L3238.72 253.204 Q3236.08 254.538 3232.08 254.538 Z" fill="#000000" fill-rule="nonzero" fill-opacity="1" /><path clip-path="url(#clip450)" d="M3257.89 270.768 Q3257.89 262.221 3261.08 255.328 Q3262.44 252.438 3264.34 250.017 Q3266.24 247.596 3267.5 246.534 Q3268.76 245.472 3269.11 245.472 Q3269.6 245.472 3269.63 245.966 Q3269.63 246.213 3268.96 246.83 Q3260.81 255.131 3260.83 270.768 Q3260.83 286.455 3268.76 294.434 Q3269.63 295.298 3269.63 295.57 Q3269.63 296.064 3269.11 296.064 Q3268.76 296.064 3267.55 295.051 Q3266.34 294.039 3264.46 291.716 Q3262.59 289.394 3261.23 286.553 Q3257.89 279.661 3257.89 270.768 Z" fill="#000000" fill-rule="nonzero" fill-opacity="1" /><path clip-path="url(#clip450)" d="M3273.9 275.066 L3273.9 273.51 L3289.44 249.77 Q3289.83 249.153 3290.45 249.177 Q3291.02 249.177 3291.14 249.4 Q3291.27 249.622 3291.27 250.486 L3291.27 273.51 L3296.33 273.51 L3296.33 275.066 L3291.27 275.066 L3291.27 279.464 Q3291.27 280.921 3291.86 281.39 Q3292.48 281.86 3295.1 281.86 L3296.16 281.86 L3296.16 283.416 Q3294.08 283.268 3289.29 283.268 Q3284.52 283.268 3282.45 283.416 L3282.45 281.86 L3283.51 281.86 Q3286.13 281.86 3286.75 281.415 Q3287.36 280.946 3287.36 279.464 L3287.36 275.066 L3273.9 275.066 M3275.33 273.51 L3287.66 273.51 L3287.66 254.637 L3275.33 273.51 Z" fill="#000000" fill-rule="nonzero" fill-opacity="1" /><path clip-path="url(#clip450)" d="M3300.68 295.57 Q3300.68 295.323 3301.32 294.706 Q3309.47 286.405 3309.47 270.768 Q3309.47 255.081 3301.64 247.152 Q3300.68 246.238 3300.68 245.966 Q3300.68 245.472 3301.17 245.472 Q3301.52 245.472 3302.73 246.485 Q3303.96 247.497 3305.82 249.82 Q3307.69 252.142 3309.08 254.983 Q3312.41 261.875 3312.41 270.768 Q3312.41 279.315 3309.23 286.208 Q3307.87 289.098 3305.96 291.519 Q3304.06 293.94 3302.8 295.002 Q3301.54 296.064 3301.17 296.064 Q3300.68 296.064 3300.68 295.57 Z" fill="#000000" fill-rule="nonzero" fill-opacity="1" /><polyline clip-path="url(#clip450)" style="stroke:#a90055; stroke-linecap:round; stroke-linejoin:round; stroke-width:12; stroke-opacity:1; fill:none" points="2922.11,317.976 3122.22,317.976 "/>
<line clip-path="url(#clip450)" x1="3022.16" y1="317.976" x2="3022.16" y2="293.882" style="stroke:#a90055; stroke-width:12; stroke-opacity:1"/>
<line clip-path="url(#clip450)" x1="3022.16" y1="317.976" x2="2998.07" y2="317.976" style="stroke:#a90055; stroke-width:12; stroke-opacity:1"/>
<line clip-path="url(#clip450)" x1="3022.16" y1="317.976" x2="3022.16" y2="342.07" style="stroke:#a90055; stroke-width:12; stroke-opacity:1"/>
<line clip-path="url(#clip450)" x1="3022.16" y1="317.976" x2="3046.26" y2="317.976" style="stroke:#a90055; stroke-width:12; stroke-opacity:1"/>
<path clip-path="url(#clip450)" d="M3155.57 335.256 L3155.57 333.7 L3156.78 333.7 Q3159.52 333.7 3160.14 333.255 Q3160.78 332.786 3160.78 331.304 L3160.78 304.797 Q3160.78 303.339 3160.14 302.895 Q3159.5 302.425 3156.78 302.425 L3155.57 302.425 L3155.57 300.844 L3184.05 300.844 L3185.46 312.233 L3184.2 312.233 Q3183.86 309.342 3183.39 307.687 Q3182.94 306.007 3181.83 304.723 Q3180.74 303.438 3178.94 302.944 Q3177.16 302.425 3174.27 302.425 L3167.75 302.425 Q3166.02 302.425 3165.65 302.796 Q3165.28 303.142 3165.28 304.451 L3165.28 316.58 L3169.82 316.58 Q3173.31 316.58 3174.3 315.37 Q3175.28 314.159 3175.28 310.676 L3176.57 310.676 L3176.57 324.065 L3175.28 324.065 Q3175.28 320.632 3174.3 319.397 Q3173.31 318.161 3169.82 318.161 L3165.28 318.161 L3165.28 331.674 Q3165.28 332.983 3165.65 333.354 Q3166.04 333.7 3167.75 333.7 L3174.49 333.7 Q3176.67 333.7 3178.25 333.428 Q3179.85 333.132 3180.97 332.44 Q3182.08 331.723 3182.82 330.908 Q3183.58 330.093 3184.1 328.636 Q3184.65 327.153 3184.94 325.795 Q3185.26 324.436 3185.61 322.213 L3186.87 322.213 L3184.75 335.256 L3155.57 335.256 Z" fill="#000000" fill-rule="nonzero" fill-opacity="1" /><path clip-path="url(#clip450)" d="M3189.96 335.256 L3189.96 333.7 L3191.17 333.7 Q3193.91 333.7 3194.53 333.255 Q3195.17 332.786 3195.17 331.304 L3195.17 304.649 Q3195.17 303.191 3194.53 302.746 Q3193.89 302.277 3191.17 302.277 L3189.96 302.277 L3189.96 300.696 Q3191.74 300.844 3197.44 300.844 Q3203.1 300.844 3204.88 300.696 L3204.88 302.277 L3203.67 302.277 Q3200.93 302.277 3200.28 302.746 Q3199.67 303.191 3199.67 304.649 L3199.67 320.73 L3215.5 305.612 Q3216.41 304.797 3216.41 303.932 Q3216.41 303.636 3216.27 303.315 Q3216.14 302.969 3215.55 302.623 Q3214.98 302.277 3214.07 302.277 L3214.07 300.696 Q3215.8 300.844 3220.52 300.844 Q3223.5 300.844 3224.81 300.696 L3224.81 302.277 Q3220.61 302.326 3217.63 305.316 L3208.51 314.061 L3220.19 331.254 Q3221.26 332.81 3222.29 333.255 Q3223.33 333.7 3225.51 333.7 L3225.51 335.256 Q3222.32 335.108 3219.7 335.108 Q3214.24 335.108 3212.46 335.256 L3212.46 333.7 Q3215.45 333.7 3215.45 332.168 Q3215.45 331.6 3214.69 330.439 L3205.52 316.901 L3199.67 322.46 L3199.67 331.304 Q3199.67 332.761 3200.28 333.23 Q3200.93 333.7 3203.67 333.7 L3204.88 333.7 L3204.88 335.256 Q3203.1 335.108 3197.39 335.108 Q3191.74 335.108 3189.96 335.256 Z" fill="#000000" fill-rule="nonzero" fill-opacity="1" /><path clip-path="url(#clip450)" d="M3232.08 306.378 L3232.08 304.797 Q3238.15 304.797 3241.29 301.561 Q3242.16 301.561 3242.3 301.758 Q3242.45 301.956 3242.45 302.87 L3242.45 331.254 Q3242.45 332.761 3243.19 333.23 Q3243.93 333.7 3247.17 333.7 L3248.78 333.7 L3248.78 335.256 Q3247 335.108 3240.57 335.108 Q3234.15 335.108 3232.4 335.256 L3232.4 333.7 L3234 333.7 Q3237.19 333.7 3237.96 333.255 Q3238.72 332.786 3238.72 331.254 L3238.72 305.044 Q3236.08 306.378 3232.08 306.378 Z" fill="#000000" fill-rule="nonzero" fill-opacity="1" /><path clip-path="url(#clip450)" d="M3257.89 322.608 Q3257.89 314.061 3261.08 307.168 Q3262.44 304.278 3264.34 301.857 Q3266.24 299.436 3267.5 298.374 Q3268.76 297.312 3269.11 297.312 Q3269.6 297.312 3269.63 297.806 Q3269.63 298.053 3268.96 298.67 Q3260.81 306.971 3260.83 322.608 Q3260.83 338.295 3268.76 346.274 Q3269.63 347.138 3269.63 347.41 Q3269.63 347.904 3269.11 347.904 Q3268.76 347.904 3267.55 346.891 Q3266.34 345.879 3264.46 343.556 Q3262.59 341.234 3261.23 338.393 Q3257.89 331.501 3257.89 322.608 Z" fill="#000000" fill-rule="nonzero" fill-opacity="1" /><path clip-path="url(#clip450)" d="M3275.01 327.104 Q3275.01 325.597 3275.83 325.029 Q3276.64 324.436 3277.51 324.436 Q3278.67 324.436 3279.33 325.177 Q3280.03 325.893 3280.03 326.906 Q3280.03 327.919 3279.33 328.66 Q3278.67 329.377 3277.51 329.377 Q3276.94 329.377 3276.64 329.278 Q3277.31 331.6 3279.33 333.28 Q3281.38 334.96 3284.08 334.96 Q3287.46 334.96 3289.49 331.674 Q3290.7 329.55 3290.7 324.732 Q3290.7 320.483 3289.78 318.359 Q3288.38 315.123 3285.49 315.123 Q3281.38 315.123 3278.96 318.655 Q3278.67 319.1 3278.32 319.125 Q3277.83 319.125 3277.7 318.853 Q3277.61 318.557 3277.61 317.791 L3277.61 302.821 Q3277.61 301.61 3278.1 301.61 Q3278.3 301.61 3278.72 301.758 Q3281.9 303.166 3285.44 303.191 Q3289.07 303.191 3292.33 301.709 Q3292.58 301.561 3292.72 301.561 Q3293.22 301.561 3293.24 302.129 Q3293.24 302.326 3292.82 302.919 Q3292.43 303.488 3291.56 304.253 Q3290.7 304.994 3289.59 305.711 Q3288.47 306.427 3286.84 306.921 Q3285.24 307.391 3283.46 307.391 Q3281.34 307.391 3279.16 306.724 L3279.16 316.58 Q3281.78 314.011 3285.58 314.011 Q3289.64 314.011 3292.43 317.272 Q3295.22 320.533 3295.22 325.078 Q3295.22 329.846 3291.91 333.107 Q3288.62 336.368 3284.18 336.368 Q3280.12 336.368 3277.56 333.477 Q3275.01 330.587 3275.01 327.104 Z" fill="#000000" fill-rule="nonzero" fill-opacity="1" /><path clip-path="url(#clip450)" d="M3300.68 347.41 Q3300.68 347.163 3301.32 346.546 Q3309.47 338.245 3309.47 322.608 Q3309.47 306.921 3301.64 298.992 Q3300.68 298.078 3300.68 297.806 Q3300.68 297.312 3301.17 297.312 Q3301.52 297.312 3302.73 298.325 Q3303.96 299.337 3305.82 301.66 Q3307.69 303.982 3309.08 306.823 Q3312.41 313.715 3312.41 322.608 Q3312.41 331.155 3309.23 338.048 Q3307.87 340.938 3305.96 343.359 Q3304.06 345.78 3302.8 346.842 Q3301.54 347.904 3301.17 347.904 Q3300.68 347.904 3300.68 347.41 Z" fill="#000000" fill-rule="nonzero" fill-opacity="1" /><polyline clip-path="url(#clip450)" style="stroke:#ff0000; stroke-linecap:round; stroke-linejoin:round; stroke-width:12; stroke-opacity:1; fill:none" points="2922.11,369.816 3122.22,369.816 "/>
<path clip-path="url(#clip450)" d="M3022.16 345.722 L2998.07 369.816 L3022.16 393.91 L3046.26 369.816 L3022.16 345.722 Z" fill="#ff0000" fill-rule="evenodd" fill-opacity="1" stroke="#000000" stroke-opacity="1" stroke-width="2.89129"/>
<path clip-path="url(#clip450)" d="M3155.57 387.096 L3155.57 385.54 L3156.78 385.54 Q3159.52 385.54 3160.14 385.095 Q3160.78 384.626 3160.78 383.144 L3160.78 356.637 Q3160.78 355.179 3160.14 354.735 Q3159.5 354.265 3156.78 354.265 L3155.57 354.265 L3155.57 352.684 L3184.05 352.684 L3185.46 364.073 L3184.2 364.073 Q3183.86 361.182 3183.39 359.527 Q3182.94 357.847 3181.83 356.563 Q3180.74 355.278 3178.94 354.784 Q3177.16 354.265 3174.27 354.265 L3167.75 354.265 Q3166.02 354.265 3165.65 354.636 Q3165.28 354.982 3165.28 356.291 L3165.28 368.42 L3169.82 368.42 Q3173.31 368.42 3174.3 367.21 Q3175.28 365.999 3175.28 362.516 L3176.57 362.516 L3176.57 375.905 L3175.28 375.905 Q3175.28 372.472 3174.3 371.237 Q3173.31 370.001 3169.82 370.001 L3165.28 370.001 L3165.28 383.514 Q3165.28 384.823 3165.65 385.194 Q3166.04 385.54 3167.75 385.54 L3174.49 385.54 Q3176.67 385.54 3178.25 385.268 Q3179.85 384.972 3180.97 384.28 Q3182.08 383.563 3182.82 382.748 Q3183.58 381.933 3184.1 380.476 Q3184.65 378.993 3184.94 377.635 Q3185.26 376.276 3185.61 374.053 L3186.87 374.053 L3184.75 387.096 L3155.57 387.096 Z" fill="#000000" fill-rule="nonzero" fill-opacity="1" /><path clip-path="url(#clip450)" d="M3189.96 387.096 L3189.96 385.54 L3191.17 385.54 Q3193.91 385.54 3194.53 385.095 Q3195.17 384.626 3195.17 383.144 L3195.17 356.489 Q3195.17 355.031 3194.53 354.586 Q3193.89 354.117 3191.17 354.117 L3189.96 354.117 L3189.96 352.536 Q3191.74 352.684 3197.44 352.684 Q3203.1 352.684 3204.88 352.536 L3204.88 354.117 L3203.67 354.117 Q3200.93 354.117 3200.28 354.586 Q3199.67 355.031 3199.67 356.489 L3199.67 372.57 L3215.5 357.452 Q3216.41 356.637 3216.41 355.772 Q3216.41 355.476 3216.27 355.155 Q3216.14 354.809 3215.55 354.463 Q3214.98 354.117 3214.07 354.117 L3214.07 352.536 Q3215.8 352.684 3220.52 352.684 Q3223.5 352.684 3224.81 352.536 L3224.81 354.117 Q3220.61 354.166 3217.63 357.156 L3208.51 365.901 L3220.19 383.094 Q3221.26 384.65 3222.29 385.095 Q3223.33 385.54 3225.51 385.54 L3225.51 387.096 Q3222.32 386.948 3219.7 386.948 Q3214.24 386.948 3212.46 387.096 L3212.46 385.54 Q3215.45 385.54 3215.45 384.008 Q3215.45 383.44 3214.69 382.279 L3205.52 368.741 L3199.67 374.3 L3199.67 383.144 Q3199.67 384.601 3200.28 385.07 Q3200.93 385.54 3203.67 385.54 L3204.88 385.54 L3204.88 387.096 Q3203.1 386.948 3197.39 386.948 Q3191.74 386.948 3189.96 387.096 Z" fill="#000000" fill-rule="nonzero" fill-opacity="1" /><path clip-path="url(#clip450)" d="M3232.08 358.218 L3232.08 356.637 Q3238.15 356.637 3241.29 353.401 Q3242.16 353.401 3242.3 353.598 Q3242.45 353.796 3242.45 354.71 L3242.45 383.094 Q3242.45 384.601 3243.19 385.07 Q3243.93 385.54 3247.17 385.54 L3248.78 385.54 L3248.78 387.096 Q3247 386.948 3240.57 386.948 Q3234.15 386.948 3232.4 387.096 L3232.4 385.54 L3234 385.54 Q3237.19 385.54 3237.96 385.095 Q3238.72 384.626 3238.72 383.094 L3238.72 356.884 Q3236.08 358.218 3232.08 358.218 Z" fill="#000000" fill-rule="nonzero" fill-opacity="1" /><path clip-path="url(#clip450)" d="M3257.89 374.448 Q3257.89 365.901 3261.08 359.008 Q3262.44 356.118 3264.34 353.697 Q3266.24 351.276 3267.5 350.214 Q3268.76 349.152 3269.11 349.152 Q3269.6 349.152 3269.63 349.646 Q3269.63 349.893 3268.96 350.51 Q3260.81 358.811 3260.83 374.448 Q3260.83 390.135 3268.76 398.114 Q3269.63 398.978 3269.63 399.25 Q3269.63 399.744 3269.11 399.744 Q3268.76 399.744 3267.55 398.731 Q3266.34 397.719 3264.46 395.396 Q3262.59 393.074 3261.23 390.233 Q3257.89 383.341 3257.89 374.448 Z" fill="#000000" fill-rule="nonzero" fill-opacity="1" /><path clip-path="url(#clip450)" d="M3274.62 371.113 Q3274.62 363.159 3278.67 358.292 Q3282.72 353.401 3287.93 353.401 Q3290.97 353.401 3292.65 354.957 Q3294.35 356.489 3294.35 358.86 Q3294.35 360.169 3293.59 360.738 Q3292.82 361.306 3292.03 361.306 Q3291.12 361.306 3290.4 360.688 Q3289.68 360.071 3289.68 358.959 Q3289.68 356.686 3292.48 356.686 Q3291.17 354.661 3288.03 354.661 Q3287.07 354.661 3286.08 354.957 Q3285.09 355.229 3283.81 356.167 Q3282.52 357.106 3281.53 358.588 Q3280.54 360.071 3279.85 362.862 Q3279.16 365.654 3279.16 369.285 L3279.16 370.495 Q3281.24 365.481 3285.49 365.505 Q3289.73 365.505 3292.67 368.741 Q3295.61 371.978 3295.61 376.77 Q3295.61 381.686 3292.55 384.947 Q3289.49 388.208 3285.19 388.208 Q3283.26 388.208 3281.51 387.393 Q3279.78 386.602 3278.15 384.774 Q3276.54 382.946 3275.58 379.438 Q3274.62 375.93 3274.62 371.113 M3279.26 375.658 Q3279.26 380.624 3280.17 382.995 Q3280.32 383.391 3280.64 383.934 Q3280.99 384.478 3281.56 385.194 Q3282.15 385.886 3283.11 386.355 Q3284.08 386.8 3285.19 386.8 Q3288.57 386.8 3290.2 383.514 Q3291.07 381.686 3291.07 376.721 Q3291.07 371.656 3290.15 369.804 Q3288.6 366.666 3285.44 366.666 Q3283.31 366.666 3281.83 368.124 Q3280.37 369.581 3279.8 371.533 Q3279.26 373.485 3279.26 375.658 Z" fill="#000000" fill-rule="nonzero" fill-opacity="1" /><path clip-path="url(#clip450)" d="M3300.68 399.25 Q3300.68 399.003 3301.32 398.386 Q3309.47 390.085 3309.47 374.448 Q3309.47 358.761 3301.64 350.832 Q3300.68 349.918 3300.68 349.646 Q3300.68 349.152 3301.17 349.152 Q3301.52 349.152 3302.73 350.165 Q3303.96 351.177 3305.82 353.5 Q3307.69 355.822 3309.08 358.663 Q3312.41 365.555 3312.41 374.448 Q3312.41 382.995 3309.23 389.888 Q3307.87 392.778 3305.96 395.199 Q3304.06 397.62 3302.8 398.682 Q3301.54 399.744 3301.17 399.744 Q3300.68 399.744 3300.68 399.25 Z" fill="#000000" fill-rule="nonzero" fill-opacity="1" /></svg>
