<?xml version="1.0" encoding="utf-8"?>
<svg xmlns="http://www.w3.org/2000/svg" xmlns:xlink="http://www.w3.org/1999/xlink" width="576" height="384" viewBox="0 0 2304 1536">
<defs>
  <clipPath id="clip360">
    <rect x="0" y="0" width="2304" height="1536"/>
  </clipPath>
</defs>
<path clip-path="url(#clip360)" d="M0 1536 L2304 1536 L2304 0 L0 0  Z" fill="#ffffff" fill-rule="evenodd" fill-opacity="1"/>
<defs>
  <clipPath id="clip361">
    <rect x="460" y="0" width="1614" height="1536"/>
  </clipPath>
</defs>
<path clip-path="url(#clip360)" d="M278.238 1280.22 L1836.11 1280.22 L1836.11 47.2441 L278.238 47.2441  Z" fill="#ffffff" fill-rule="evenodd" fill-opacity="1"/>
<defs>
  <clipPath id="clip362">
    <rect x="278" y="47" width="1559" height="1234"/>
  </clipPath>
</defs>
<polyline clip-path="url(#clip362)" style="stroke:#000000; stroke-linecap:round; stroke-linejoin:round; stroke-width:2.8; stroke-opacity:0.4; fill:none" points="360.466,1280.22 360.466,47.2441 "/>
<polyline clip-path="url(#clip362)" style="stroke:#000000; stroke-linecap:round; stroke-linejoin:round; stroke-width:2.8; stroke-opacity:0.4; fill:none" points="594.531,1280.22 594.531,47.2441 "/>
<polyline clip-path="url(#clip362)" style="stroke:#000000; stroke-linecap:round; stroke-linejoin:round; stroke-width:2.8; stroke-opacity:0.4; fill:none" points="828.597,1280.22 828.597,47.2441 "/>
<polyline clip-path="url(#clip362)" style="stroke:#000000; stroke-linecap:round; stroke-linejoin:round; stroke-width:2.8; stroke-opacity:0.4; fill:none" points="1062.66,1280.22 1062.66,47.2441 "/>
<polyline clip-path="url(#clip362)" style="stroke:#000000; stroke-linecap:round; stroke-linejoin:round; stroke-width:2.8; stroke-opacity:0.4; fill:none" points="1296.73,1280.22 1296.73,47.2441 "/>
<polyline clip-path="url(#clip362)" style="stroke:#000000; stroke-linecap:round; stroke-linejoin:round; stroke-width:2.8; stroke-opacity:0.4; fill:none" points="1530.79,1280.22 1530.79,47.2441 "/>
<polyline clip-path="url(#clip362)" style="stroke:#000000; stroke-linecap:round; stroke-linejoin:round; stroke-width:2.8; stroke-opacity:0.4; fill:none" points="1764.86,1280.22 1764.86,47.2441 "/>
<polyline clip-path="url(#clip362)" style="stroke:#000000; stroke-linecap:round; stroke-linejoin:round; stroke-width:2; stroke-opacity:0.06; fill:none" points="281.529,1280.22 281.529,47.2441 "/>
<polyline clip-path="url(#clip362)" style="stroke:#000000; stroke-linecap:round; stroke-linejoin:round; stroke-width:2; stroke-opacity:0.06; fill:none" points="315.099,1280.22 315.099,47.2441 "/>
<polyline clip-path="url(#clip362)" style="stroke:#000000; stroke-linecap:round; stroke-linejoin:round; stroke-width:2; stroke-opacity:0.06; fill:none" points="340.292,1280.22 340.292,47.2441 "/>
<polyline clip-path="url(#clip362)" style="stroke:#000000; stroke-linecap:round; stroke-linejoin:round; stroke-width:2; stroke-opacity:0.06; fill:none" points="465.13,1280.22 465.13,47.2441 "/>
<polyline clip-path="url(#clip362)" style="stroke:#000000; stroke-linecap:round; stroke-linejoin:round; stroke-width:2; stroke-opacity:0.06; fill:none" points="515.594,1280.22 515.594,47.2441 "/>
<polyline clip-path="url(#clip362)" style="stroke:#000000; stroke-linecap:round; stroke-linejoin:round; stroke-width:2; stroke-opacity:0.06; fill:none" points="549.165,1280.22 549.165,47.2441 "/>
<polyline clip-path="url(#clip362)" style="stroke:#000000; stroke-linecap:round; stroke-linejoin:round; stroke-width:2; stroke-opacity:0.06; fill:none" points="574.358,1280.22 574.358,47.2441 "/>
<polyline clip-path="url(#clip362)" style="stroke:#000000; stroke-linecap:round; stroke-linejoin:round; stroke-width:2; stroke-opacity:0.06; fill:none" points="699.196,1280.22 699.196,47.2441 "/>
<polyline clip-path="url(#clip362)" style="stroke:#000000; stroke-linecap:round; stroke-linejoin:round; stroke-width:2; stroke-opacity:0.06; fill:none" points="749.66,1280.22 749.66,47.2441 "/>
<polyline clip-path="url(#clip362)" style="stroke:#000000; stroke-linecap:round; stroke-linejoin:round; stroke-width:2; stroke-opacity:0.06; fill:none" points="783.23,1280.22 783.23,47.2441 "/>
<polyline clip-path="url(#clip362)" style="stroke:#000000; stroke-linecap:round; stroke-linejoin:round; stroke-width:2; stroke-opacity:0.06; fill:none" points="808.424,1280.22 808.424,47.2441 "/>
<polyline clip-path="url(#clip362)" style="stroke:#000000; stroke-linecap:round; stroke-linejoin:round; stroke-width:2; stroke-opacity:0.06; fill:none" points="933.262,1280.22 933.262,47.2441 "/>
<polyline clip-path="url(#clip362)" style="stroke:#000000; stroke-linecap:round; stroke-linejoin:round; stroke-width:2; stroke-opacity:0.06; fill:none" points="983.726,1280.22 983.726,47.2441 "/>
<polyline clip-path="url(#clip362)" style="stroke:#000000; stroke-linecap:round; stroke-linejoin:round; stroke-width:2; stroke-opacity:0.06; fill:none" points="1017.3,1280.22 1017.3,47.2441 "/>
<polyline clip-path="url(#clip362)" style="stroke:#000000; stroke-linecap:round; stroke-linejoin:round; stroke-width:2; stroke-opacity:0.06; fill:none" points="1042.49,1280.22 1042.49,47.2441 "/>
<polyline clip-path="url(#clip362)" style="stroke:#000000; stroke-linecap:round; stroke-linejoin:round; stroke-width:2; stroke-opacity:0.06; fill:none" points="1167.33,1280.22 1167.33,47.2441 "/>
<polyline clip-path="url(#clip362)" style="stroke:#000000; stroke-linecap:round; stroke-linejoin:round; stroke-width:2; stroke-opacity:0.06; fill:none" points="1217.79,1280.22 1217.79,47.2441 "/>
<polyline clip-path="url(#clip362)" style="stroke:#000000; stroke-linecap:round; stroke-linejoin:round; stroke-width:2; stroke-opacity:0.06; fill:none" points="1251.36,1280.22 1251.36,47.2441 "/>
<polyline clip-path="url(#clip362)" style="stroke:#000000; stroke-linecap:round; stroke-linejoin:round; stroke-width:2; stroke-opacity:0.06; fill:none" points="1276.56,1280.22 1276.56,47.2441 "/>
<polyline clip-path="url(#clip362)" style="stroke:#000000; stroke-linecap:round; stroke-linejoin:round; stroke-width:2; stroke-opacity:0.06; fill:none" points="1401.39,1280.22 1401.39,47.2441 "/>
<polyline clip-path="url(#clip362)" style="stroke:#000000; stroke-linecap:round; stroke-linejoin:round; stroke-width:2; stroke-opacity:0.06; fill:none" points="1451.86,1280.22 1451.86,47.2441 "/>
<polyline clip-path="url(#clip362)" style="stroke:#000000; stroke-linecap:round; stroke-linejoin:round; stroke-width:2; stroke-opacity:0.06; fill:none" points="1485.43,1280.22 1485.43,47.2441 "/>
<polyline clip-path="url(#clip362)" style="stroke:#000000; stroke-linecap:round; stroke-linejoin:round; stroke-width:2; stroke-opacity:0.06; fill:none" points="1510.62,1280.22 1510.62,47.2441 "/>
<polyline clip-path="url(#clip362)" style="stroke:#000000; stroke-linecap:round; stroke-linejoin:round; stroke-width:2; stroke-opacity:0.06; fill:none" points="1635.46,1280.22 1635.46,47.2441 "/>
<polyline clip-path="url(#clip362)" style="stroke:#000000; stroke-linecap:round; stroke-linejoin:round; stroke-width:2; stroke-opacity:0.06; fill:none" points="1685.92,1280.22 1685.92,47.2441 "/>
<polyline clip-path="url(#clip362)" style="stroke:#000000; stroke-linecap:round; stroke-linejoin:round; stroke-width:2; stroke-opacity:0.06; fill:none" points="1719.49,1280.22 1719.49,47.2441 "/>
<polyline clip-path="url(#clip362)" style="stroke:#000000; stroke-linecap:round; stroke-linejoin:round; stroke-width:2; stroke-opacity:0.06; fill:none" points="1744.69,1280.22 1744.69,47.2441 "/>
<polyline clip-path="url(#clip360)" style="stroke:#000000; stroke-linecap:round; stroke-linejoin:round; stroke-width:4; stroke-opacity:1; fill:none" points="278.238,1280.22 1836.11,1280.22 "/>
<polyline clip-path="url(#clip360)" style="stroke:#000000; stroke-linecap:round; stroke-linejoin:round; stroke-width:4; stroke-opacity:1; fill:none" points="278.238,47.2441 1836.11,47.2441 "/>
<polyline clip-path="url(#clip360)" style="stroke:#000000; stroke-linecap:round; stroke-linejoin:round; stroke-width:4; stroke-opacity:1; fill:none" points="360.466,1280.22 360.466,1261.33 "/>
<polyline clip-path="url(#clip360)" style="stroke:#000000; stroke-linecap:round; stroke-linejoin:round; stroke-width:4; stroke-opacity:1; fill:none" points="594.531,1280.22 594.531,1261.33 "/>
<polyline clip-path="url(#clip360)" style="stroke:#000000; stroke-linecap:round; stroke-linejoin:round; stroke-width:4; stroke-opacity:1; fill:none" points="828.597,1280.22 828.597,1261.33 "/>
<polyline clip-path="url(#clip360)" style="stroke:#000000; stroke-linecap:round; stroke-linejoin:round; stroke-width:4; stroke-opacity:1; fill:none" points="1062.66,1280.22 1062.66,1261.33 "/>
<polyline clip-path="url(#clip360)" style="stroke:#000000; stroke-linecap:round; stroke-linejoin:round; stroke-width:4; stroke-opacity:1; fill:none" points="1296.73,1280.22 1296.73,1261.33 "/>
<polyline clip-path="url(#clip360)" style="stroke:#000000; stroke-linecap:round; stroke-linejoin:round; stroke-width:4; stroke-opacity:1; fill:none" points="1530.79,1280.22 1530.79,1261.33 "/>
<polyline clip-path="url(#clip360)" style="stroke:#000000; stroke-linecap:round; stroke-linejoin:round; stroke-width:4; stroke-opacity:1; fill:none" points="1764.86,1280.22 1764.86,1261.33 "/>
<polyline clip-path="url(#clip360)" style="stroke:#000000; stroke-linecap:round; stroke-linejoin:round; stroke-width:4; stroke-opacity:1; fill:none" points="281.529,1280.22 281.529,1270.78 "/>
<polyline clip-path="url(#clip360)" style="stroke:#000000; stroke-linecap:round; stroke-linejoin:round; stroke-width:4; stroke-opacity:1; fill:none" points="315.099,1280.22 315.099,1270.78 "/>
<polyline clip-path="url(#clip360)" style="stroke:#000000; stroke-linecap:round; stroke-linejoin:round; stroke-width:4; stroke-opacity:1; fill:none" points="340.292,1280.22 340.292,1270.78 "/>
<polyline clip-path="url(#clip360)" style="stroke:#000000; stroke-linecap:round; stroke-linejoin:round; stroke-width:4; stroke-opacity:1; fill:none" points="465.13,1280.22 465.13,1270.78 "/>
<polyline clip-path="url(#clip360)" style="stroke:#000000; stroke-linecap:round; stroke-linejoin:round; stroke-width:4; stroke-opacity:1; fill:none" points="515.594,1280.22 515.594,1270.78 "/>
<polyline clip-path="url(#clip360)" style="stroke:#000000; stroke-linecap:round; stroke-linejoin:round; stroke-width:4; stroke-opacity:1; fill:none" points="549.165,1280.22 549.165,1270.78 "/>
<polyline clip-path="url(#clip360)" style="stroke:#000000; stroke-linecap:round; stroke-linejoin:round; stroke-width:4; stroke-opacity:1; fill:none" points="574.358,1280.22 574.358,1270.78 "/>
<polyline clip-path="url(#clip360)" style="stroke:#000000; stroke-linecap:round; stroke-linejoin:round; stroke-width:4; stroke-opacity:1; fill:none" points="699.196,1280.22 699.196,1270.78 "/>
<polyline clip-path="url(#clip360)" style="stroke:#000000; stroke-linecap:round; stroke-linejoin:round; stroke-width:4; stroke-opacity:1; fill:none" points="749.66,1280.22 749.66,1270.78 "/>
<polyline clip-path="url(#clip360)" style="stroke:#000000; stroke-linecap:round; stroke-linejoin:round; stroke-width:4; stroke-opacity:1; fill:none" points="783.23,1280.22 783.23,1270.78 "/>
<polyline clip-path="url(#clip360)" style="stroke:#000000; stroke-linecap:round; stroke-linejoin:round; stroke-width:4; stroke-opacity:1; fill:none" points="808.424,1280.22 808.424,1270.78 "/>
<polyline clip-path="url(#clip360)" style="stroke:#000000; stroke-linecap:round; stroke-linejoin:round; stroke-width:4; stroke-opacity:1; fill:none" points="933.262,1280.22 933.262,1270.78 "/>
<polyline clip-path="url(#clip360)" style="stroke:#000000; stroke-linecap:round; stroke-linejoin:round; stroke-width:4; stroke-opacity:1; fill:none" points="983.726,1280.22 983.726,1270.78 "/>
<polyline clip-path="url(#clip360)" style="stroke:#000000; stroke-linecap:round; stroke-linejoin:round; stroke-width:4; stroke-opacity:1; fill:none" points="1017.3,1280.22 1017.3,1270.78 "/>
<polyline clip-path="url(#clip360)" style="stroke:#000000; stroke-linecap:round; stroke-linejoin:round; stroke-width:4; stroke-opacity:1; fill:none" points="1042.49,1280.22 1042.49,1270.78 "/>
<polyline clip-path="url(#clip360)" style="stroke:#000000; stroke-linecap:round; stroke-linejoin:round; stroke-width:4; stroke-opacity:1; fill:none" points="1167.33,1280.22 1167.33,1270.78 "/>
<polyline clip-path="url(#clip360)" style="stroke:#000000; stroke-linecap:round; stroke-linejoin:round; stroke-width:4; stroke-opacity:1; fill:none" points="1217.79,1280.22 1217.79,1270.78 "/>
<polyline clip-path="url(#clip360)" style="stroke:#000000; stroke-linecap:round; stroke-linejoin:round; stroke-width:4; stroke-opacity:1; fill:none" points="1251.36,1280.22 1251.36,1270.78 "/>
<polyline clip-path="url(#clip360)" style="stroke:#000000; stroke-linecap:round; stroke-linejoin:round; stroke-width:4; stroke-opacity:1; fill:none" points="1276.56,1280.22 1276.56,1270.78 "/>
<polyline clip-path="url(#clip360)" style="stroke:#000000; stroke-linecap:round; stroke-linejoin:round; stroke-width:4; stroke-opacity:1; fill:none" points="1401.39,1280.22 1401.39,1270.78 "/>
<polyline clip-path="url(#clip360)" style="stroke:#000000; stroke-linecap:round; stroke-linejoin:round; stroke-width:4; stroke-opacity:1; fill:none" points="1451.86,1280.22 1451.86,1270.78 "/>
<polyline clip-path="url(#clip360)" style="stroke:#000000; stroke-linecap:round; stroke-linejoin:round; stroke-width:4; stroke-opacity:1; fill:none" points="1485.43,1280.22 1485.43,1270.78 "/>
<polyline clip-path="url(#clip360)" style="stroke:#000000; stroke-linecap:round; stroke-linejoin:round; stroke-width:4; stroke-opacity:1; fill:none" points="1510.62,1280.22 1510.62,1270.78 "/>
<polyline clip-path="url(#clip360)" style="stroke:#000000; stroke-linecap:round; stroke-linejoin:round; stroke-width:4; stroke-opacity:1; fill:none" points="1635.46,1280.22 1635.46,1270.78 "/>
<polyline clip-path="url(#clip360)" style="stroke:#000000; stroke-linecap:round; stroke-linejoin:round; stroke-width:4; stroke-opacity:1; fill:none" points="1685.92,1280.22 1685.92,1270.78 "/>
<polyline clip-path="url(#clip360)" style="stroke:#000000; stroke-linecap:round; stroke-linejoin:round; stroke-width:4; stroke-opacity:1; fill:none" points="1719.49,1280.22 1719.49,1270.78 "/>
<polyline clip-path="url(#clip360)" style="stroke:#000000; stroke-linecap:round; stroke-linejoin:round; stroke-width:4; stroke-opacity:1; fill:none" points="1744.69,1280.22 1744.69,1270.78 "/>
<path clip-path="url(#clip360)" d="M314.364 1328.64 L314.364 1327.06 Q320.441 1327.06 323.579 1323.82 Q324.443 1323.82 324.592 1324.02 Q324.74 1324.22 324.74 1325.13 L324.74 1353.51 Q324.74 1355.02 325.481 1355.49 Q326.222 1355.96 329.458 1355.96 L331.064 1355.96 L331.064 1357.52 Q329.285 1357.37 322.862 1357.37 Q316.44 1357.37 314.686 1357.52 L314.686 1355.96 L316.291 1355.96 Q319.478 1355.96 320.244 1355.52 Q321.01 1355.05 321.01 1353.51 L321.01 1327.3 Q318.366 1328.64 314.364 1328.64 Z" fill="#000000" fill-rule="nonzero" fill-opacity="1" /><path clip-path="url(#clip360)" d="M337.141 1341.34 Q337.141 1333.9 339.018 1329.85 Q341.637 1323.82 347.813 1323.82 Q349.122 1323.82 350.481 1324.19 Q351.864 1324.54 353.593 1325.9 Q355.347 1327.25 356.41 1329.48 Q358.435 1333.78 358.435 1341.34 Q358.435 1348.72 356.558 1352.75 Q353.816 1358.63 347.763 1358.63 Q345.491 1358.63 343.169 1357.47 Q340.871 1356.31 339.414 1353.51 Q337.141 1349.34 337.141 1341.34 M341.341 1340.72 Q341.341 1348.35 341.884 1351.39 Q342.502 1354.68 344.181 1356.11 Q345.886 1357.52 347.763 1357.52 Q349.789 1357.52 351.469 1356.01 Q353.173 1354.48 353.692 1351.19 Q354.26 1347.96 354.236 1340.72 Q354.236 1333.68 353.742 1330.86 Q353.075 1327.58 351.296 1326.27 Q349.542 1324.93 347.763 1324.93 Q347.096 1324.93 346.38 1325.13 Q345.688 1325.33 344.675 1325.9 Q343.663 1326.46 342.872 1327.87 Q342.106 1329.28 341.736 1331.41 Q341.341 1334.15 341.341 1340.72 Z" fill="#000000" fill-rule="nonzero" fill-opacity="1" /><path clip-path="url(#clip360)" d="M385.572 1319.25 Q385.813 1319.49 385.813 1319.83 Q385.813 1320.17 385.572 1320.41 Q385.331 1320.65 384.99 1320.65 L359.258 1320.65 Q358.917 1320.65 358.676 1320.41 Q358.435 1320.17 358.435 1319.83 Q358.435 1319.49 358.676 1319.25 Q358.917 1319.01 359.258 1319.01 L384.99 1319.01 Q385.331 1319.01 385.572 1319.25 Z" fill="#000000" fill-rule="nonzero" fill-opacity="1" /><path clip-path="url(#clip360)" d="M390.148 1323.48 Q390.148 1322.26 390.811 1321.8 Q391.473 1321.31 392.175 1321.31 Q393.119 1321.31 393.661 1321.92 Q394.223 1322.5 394.223 1323.32 Q394.223 1324.14 393.661 1324.75 Q393.119 1325.33 392.175 1325.33 Q391.714 1325.33 391.473 1325.25 Q392.015 1327.14 393.661 1328.5 Q395.327 1329.87 397.514 1329.87 Q400.264 1329.87 401.91 1327.2 Q402.894 1325.47 402.894 1321.56 Q402.894 1318.1 402.151 1316.38 Q401.007 1313.75 398.658 1313.75 Q395.327 1313.75 393.36 1316.62 Q393.119 1316.98 392.838 1317 Q392.436 1317 392.336 1316.78 Q392.256 1316.54 392.256 1315.92 L392.256 1303.75 Q392.256 1302.77 392.657 1302.77 Q392.818 1302.77 393.159 1302.89 Q395.748 1304.03 398.618 1304.05 Q401.569 1304.05 404.218 1302.85 Q404.419 1302.73 404.539 1302.73 Q404.941 1302.73 404.961 1303.19 Q404.961 1303.35 404.62 1303.83 Q404.299 1304.29 403.596 1304.92 Q402.894 1305.52 401.99 1306.1 Q401.087 1306.68 399.762 1307.08 Q398.458 1307.47 397.013 1307.47 Q395.286 1307.47 393.52 1306.92 L393.52 1314.93 Q395.648 1312.84 398.739 1312.84 Q402.03 1312.84 404.299 1315.49 Q406.567 1318.14 406.567 1321.84 Q406.567 1325.71 403.877 1328.36 Q401.208 1331.01 397.595 1331.01 Q394.303 1331.01 392.216 1328.66 Q390.148 1326.31 390.148 1323.48 Z" fill="#000000" fill-rule="nonzero" fill-opacity="1" /><path clip-path="url(#clip360)" d="M547.979 1328.64 L547.979 1327.06 Q554.056 1327.06 557.193 1323.82 Q558.058 1323.82 558.206 1324.02 Q558.354 1324.22 558.354 1325.13 L558.354 1353.51 Q558.354 1355.02 559.095 1355.49 Q559.836 1355.96 563.072 1355.96 L564.678 1355.96 L564.678 1357.52 Q562.899 1357.37 556.477 1357.37 Q550.054 1357.37 548.3 1357.52 L548.3 1355.96 L549.905 1355.96 Q553.092 1355.96 553.858 1355.52 Q554.624 1355.05 554.624 1353.51 L554.624 1327.3 Q551.981 1328.64 547.979 1328.64 Z" fill="#000000" fill-rule="nonzero" fill-opacity="1" /><path clip-path="url(#clip360)" d="M570.755 1341.34 Q570.755 1333.9 572.633 1329.85 Q575.251 1323.82 581.427 1323.82 Q582.736 1323.82 584.095 1324.19 Q585.478 1324.54 587.208 1325.9 Q588.961 1327.25 590.024 1329.48 Q592.049 1333.78 592.049 1341.34 Q592.049 1348.72 590.172 1352.75 Q587.43 1358.63 581.378 1358.63 Q579.105 1358.63 576.783 1357.47 Q574.485 1356.31 573.028 1353.51 Q570.755 1349.34 570.755 1341.34 M574.955 1340.72 Q574.955 1348.35 575.498 1351.39 Q576.116 1354.68 577.796 1356.11 Q579.5 1357.52 581.378 1357.52 Q583.403 1357.52 585.083 1356.01 Q586.788 1354.48 587.306 1351.19 Q587.875 1347.96 587.85 1340.72 Q587.85 1333.68 587.356 1330.86 Q586.689 1327.58 584.91 1326.27 Q583.156 1324.93 581.378 1324.93 Q580.711 1324.93 579.994 1325.13 Q579.302 1325.33 578.29 1325.9 Q577.277 1326.46 576.486 1327.87 Q575.72 1329.28 575.35 1331.41 Q574.955 1334.15 574.955 1340.72 Z" fill="#000000" fill-rule="nonzero" fill-opacity="1" /><path clip-path="url(#clip360)" d="M619.186 1319.25 Q619.427 1319.49 619.427 1319.83 Q619.427 1320.17 619.186 1320.41 Q618.945 1320.65 618.604 1320.65 L592.872 1320.65 Q592.531 1320.65 592.29 1320.41 Q592.049 1320.17 592.049 1319.83 Q592.049 1319.49 592.29 1319.25 Q592.531 1319.01 592.872 1319.01 L618.604 1319.01 Q618.945 1319.01 619.186 1319.25 Z" fill="#000000" fill-rule="nonzero" fill-opacity="1" /><path clip-path="url(#clip360)" d="M622.859 1323.32 L622.859 1322.06 L635.484 1302.77 Q635.805 1302.27 636.307 1302.29 Q636.769 1302.29 636.869 1302.47 Q636.969 1302.65 636.969 1303.35 L636.969 1322.06 L641.084 1322.06 L641.084 1323.32 L636.969 1323.32 L636.969 1326.89 Q636.969 1328.08 637.451 1328.46 Q637.953 1328.84 640.08 1328.84 L640.944 1328.84 L640.944 1330.11 Q639.258 1329.99 635.364 1329.99 Q631.49 1329.99 629.804 1330.11 L629.804 1328.84 L630.667 1328.84 Q632.795 1328.84 633.296 1328.48 Q633.798 1328.1 633.798 1326.89 L633.798 1323.32 L622.859 1323.32 M624.023 1322.06 L634.039 1322.06 L634.039 1306.72 L624.023 1322.06 Z" fill="#000000" fill-rule="nonzero" fill-opacity="1" /><path clip-path="url(#clip360)" d="M782.335 1328.64 L782.335 1327.06 Q788.412 1327.06 791.55 1323.82 Q792.414 1323.82 792.563 1324.02 Q792.711 1324.22 792.711 1325.13 L792.711 1353.51 Q792.711 1355.02 793.452 1355.49 Q794.193 1355.96 797.429 1355.96 L799.035 1355.96 L799.035 1357.52 Q797.256 1357.37 790.833 1357.37 Q784.411 1357.37 782.657 1357.52 L782.657 1355.96 L784.262 1355.96 Q787.449 1355.96 788.215 1355.52 Q788.981 1355.05 788.981 1353.51 L788.981 1327.3 Q786.337 1328.64 782.335 1328.64 Z" fill="#000000" fill-rule="nonzero" fill-opacity="1" /><path clip-path="url(#clip360)" d="M805.112 1341.34 Q805.112 1333.9 806.989 1329.85 Q809.608 1323.82 815.784 1323.82 Q817.093 1323.82 818.452 1324.19 Q819.835 1324.54 821.564 1325.9 Q823.318 1327.25 824.381 1329.48 Q826.406 1333.78 826.406 1341.34 Q826.406 1348.72 824.529 1352.75 Q821.787 1358.63 815.734 1358.63 Q813.462 1358.63 811.14 1357.47 Q808.842 1356.31 807.385 1353.51 Q805.112 1349.34 805.112 1341.34 M809.312 1340.72 Q809.312 1348.35 809.855 1351.39 Q810.473 1354.68 812.152 1356.11 Q813.857 1357.52 815.734 1357.52 Q817.76 1357.52 819.44 1356.01 Q821.144 1354.48 821.663 1351.19 Q822.231 1347.96 822.207 1340.72 Q822.207 1333.68 821.713 1330.86 Q821.046 1327.58 819.267 1326.27 Q817.513 1324.93 815.734 1324.93 Q815.067 1324.93 814.351 1325.13 Q813.659 1325.33 812.646 1325.9 Q811.634 1326.46 810.843 1327.87 Q810.077 1329.28 809.707 1331.41 Q809.312 1334.15 809.312 1340.72 Z" fill="#000000" fill-rule="nonzero" fill-opacity="1" /><path clip-path="url(#clip360)" d="M853.543 1319.25 Q853.784 1319.49 853.784 1319.83 Q853.784 1320.17 853.543 1320.41 Q853.302 1320.65 852.961 1320.65 L827.229 1320.65 Q826.888 1320.65 826.647 1320.41 Q826.406 1320.17 826.406 1319.83 Q826.406 1319.49 826.647 1319.25 Q826.888 1319.01 827.229 1319.01 L852.961 1319.01 Q853.302 1319.01 853.543 1319.25 Z" fill="#000000" fill-rule="nonzero" fill-opacity="1" /><path clip-path="url(#clip360)" d="M857.798 1324.57 Q857.798 1323.34 858.501 1322.76 Q859.203 1322.18 860.106 1322.18 Q861.05 1322.18 861.712 1322.8 Q862.394 1323.4 862.394 1324.47 Q862.394 1325.61 861.592 1326.25 Q860.809 1326.89 859.685 1326.73 Q860.668 1328.38 862.475 1329.12 Q864.301 1329.87 865.987 1329.87 Q867.753 1329.87 869.179 1328.34 Q870.624 1326.81 870.624 1323.08 Q870.624 1319.91 869.379 1318.08 Q868.155 1316.26 865.726 1316.26 L863.92 1316.26 Q863.298 1316.26 863.117 1316.2 Q862.936 1316.14 862.936 1315.8 Q862.936 1315.39 863.559 1315.31 Q864.181 1315.31 865.164 1315.19 Q867.553 1315.11 868.817 1313.05 Q869.961 1311.12 869.961 1308.37 Q869.961 1305.86 868.757 1304.82 Q867.573 1303.75 866.027 1303.75 Q864.582 1303.75 862.997 1304.35 Q861.411 1304.96 860.548 1306.3 Q863.097 1306.3 863.097 1308.37 Q863.097 1309.27 862.515 1309.87 Q861.953 1310.46 861.009 1310.46 Q860.106 1310.46 859.504 1309.89 Q858.902 1309.31 858.902 1308.33 Q858.902 1305.98 860.989 1304.35 Q863.097 1302.73 866.188 1302.73 Q869.239 1302.73 871.487 1304.33 Q873.755 1305.94 873.755 1308.41 Q873.755 1310.84 872.149 1312.82 Q870.543 1314.81 867.994 1315.63 Q871.126 1316.26 872.992 1318.38 Q874.859 1320.49 874.859 1323.08 Q874.859 1326.29 872.33 1328.66 Q869.801 1331.01 866.108 1331.01 Q862.695 1331.01 860.247 1329.16 Q857.798 1327.32 857.798 1324.57 Z" fill="#000000" fill-rule="nonzero" fill-opacity="1" /><path clip-path="url(#clip360)" d="M1016.56 1328.64 L1016.56 1327.06 Q1022.64 1327.06 1025.78 1323.82 Q1026.64 1323.82 1026.79 1324.02 Q1026.94 1324.22 1026.94 1325.13 L1026.94 1353.51 Q1026.94 1355.02 1027.68 1355.49 Q1028.42 1355.96 1031.66 1355.96 L1033.26 1355.96 L1033.26 1357.52 Q1031.48 1357.37 1025.06 1357.37 Q1018.64 1357.37 1016.88 1357.52 L1016.88 1355.96 L1018.49 1355.96 Q1021.68 1355.96 1022.44 1355.52 Q1023.21 1355.05 1023.21 1353.51 L1023.21 1327.3 Q1020.56 1328.64 1016.56 1328.64 Z" fill="#000000" fill-rule="nonzero" fill-opacity="1" /><path clip-path="url(#clip360)" d="M1039.34 1341.34 Q1039.34 1333.9 1041.22 1329.85 Q1043.83 1323.82 1050.01 1323.82 Q1051.32 1323.82 1052.68 1324.19 Q1054.06 1324.54 1055.79 1325.9 Q1057.54 1327.25 1058.61 1329.48 Q1060.63 1333.78 1060.63 1341.34 Q1060.63 1348.72 1058.76 1352.75 Q1056.01 1358.63 1049.96 1358.63 Q1047.69 1358.63 1045.37 1357.47 Q1043.07 1356.31 1041.61 1353.51 Q1039.34 1349.34 1039.34 1341.34 M1043.54 1340.72 Q1043.54 1348.35 1044.08 1351.39 Q1044.7 1354.68 1046.38 1356.11 Q1048.08 1357.52 1049.96 1357.52 Q1051.99 1357.52 1053.67 1356.01 Q1055.37 1354.48 1055.89 1351.19 Q1056.46 1347.96 1056.43 1340.72 Q1056.43 1333.68 1055.94 1330.86 Q1055.27 1327.58 1053.49 1326.27 Q1051.74 1324.93 1049.96 1324.93 Q1049.29 1324.93 1048.58 1325.13 Q1047.89 1325.33 1046.87 1325.9 Q1045.86 1326.46 1045.07 1327.87 Q1044.3 1329.28 1043.93 1331.41 Q1043.54 1334.15 1043.54 1340.72 Z" fill="#000000" fill-rule="nonzero" fill-opacity="1" /><path clip-path="url(#clip360)" d="M1087.77 1319.25 Q1088.01 1319.49 1088.01 1319.83 Q1088.01 1320.17 1087.77 1320.41 Q1087.53 1320.65 1087.19 1320.65 L1061.46 1320.65 Q1061.11 1320.65 1060.87 1320.41 Q1060.63 1320.17 1060.63 1319.83 Q1060.63 1319.49 1060.87 1319.25 Q1061.11 1319.01 1061.46 1319.01 L1087.19 1319.01 Q1087.53 1319.01 1087.77 1319.25 Z" fill="#000000" fill-rule="nonzero" fill-opacity="1" /><path clip-path="url(#clip360)" d="M1092.35 1330.11 Q1092.35 1329.36 1092.41 1329.14 Q1092.49 1328.92 1092.81 1328.58 L1100.7 1319.79 Q1105.01 1314.93 1105.01 1310.7 Q1105.01 1307.95 1103.57 1305.98 Q1102.14 1304.01 1099.51 1304.01 Q1097.7 1304.01 1096.18 1305.12 Q1094.65 1306.22 1093.95 1308.19 Q1094.07 1308.15 1094.49 1308.15 Q1095.52 1308.15 1096.08 1308.79 Q1096.66 1309.43 1096.66 1310.3 Q1096.66 1311.4 1095.94 1311.94 Q1095.24 1312.46 1094.53 1312.46 Q1094.25 1312.46 1093.87 1312.4 Q1093.51 1312.34 1092.93 1311.78 Q1092.35 1311.2 1092.35 1310.18 Q1092.35 1307.3 1094.51 1305.02 Q1096.7 1302.73 1100.03 1302.73 Q1103.81 1302.73 1106.28 1304.98 Q1108.76 1307.2 1108.76 1310.7 Q1108.76 1311.92 1108.38 1313.05 Q1108.02 1314.15 1107.52 1315.01 Q1107.04 1315.88 1105.71 1317.26 Q1104.39 1318.65 1103.32 1319.63 Q1102.26 1320.61 1099.87 1322.7 L1095.52 1326.93 L1102.92 1326.93 Q1106.54 1326.93 1106.82 1326.61 Q1107.22 1326.03 1107.72 1322.96 L1108.76 1322.96 L1107.6 1330.11 L1092.35 1330.11 Z" fill="#000000" fill-rule="nonzero" fill-opacity="1" /><path clip-path="url(#clip360)" d="M1251.25 1328.64 L1251.25 1327.06 Q1257.33 1327.06 1260.46 1323.82 Q1261.33 1323.82 1261.48 1324.02 Q1261.63 1324.22 1261.63 1325.13 L1261.63 1353.51 Q1261.63 1355.02 1262.37 1355.49 Q1263.11 1355.96 1266.34 1355.96 L1267.95 1355.96 L1267.95 1357.52 Q1266.17 1357.37 1259.75 1357.37 Q1253.32 1357.37 1251.57 1357.52 L1251.57 1355.96 L1253.18 1355.96 Q1256.36 1355.96 1257.13 1355.52 Q1257.9 1355.05 1257.9 1353.51 L1257.9 1327.3 Q1255.25 1328.64 1251.25 1328.64 Z" fill="#000000" fill-rule="nonzero" fill-opacity="1" /><path clip-path="url(#clip360)" d="M1274.03 1341.34 Q1274.03 1333.9 1275.9 1329.85 Q1278.52 1323.82 1284.7 1323.82 Q1286.01 1323.82 1287.37 1324.19 Q1288.75 1324.54 1290.48 1325.9 Q1292.23 1327.25 1293.29 1329.48 Q1295.32 1333.78 1295.32 1341.34 Q1295.32 1348.72 1293.44 1352.75 Q1290.7 1358.63 1284.65 1358.63 Q1282.38 1358.63 1280.05 1357.47 Q1277.76 1356.31 1276.3 1353.51 Q1274.03 1349.34 1274.03 1341.34 M1278.23 1340.72 Q1278.23 1348.35 1278.77 1351.39 Q1279.39 1354.68 1281.07 1356.11 Q1282.77 1357.52 1284.65 1357.52 Q1286.67 1357.52 1288.35 1356.01 Q1290.06 1354.48 1290.58 1351.19 Q1291.15 1347.96 1291.12 1340.72 Q1291.12 1333.68 1290.63 1330.86 Q1289.96 1327.58 1288.18 1326.27 Q1286.43 1324.93 1284.65 1324.93 Q1283.98 1324.93 1283.27 1325.13 Q1282.57 1325.33 1281.56 1325.9 Q1280.55 1326.46 1279.76 1327.87 Q1278.99 1329.28 1278.62 1331.41 Q1278.23 1334.15 1278.23 1340.72 Z" fill="#000000" fill-rule="nonzero" fill-opacity="1" /><path clip-path="url(#clip360)" d="M1322.46 1319.25 Q1322.7 1319.49 1322.7 1319.83 Q1322.7 1320.17 1322.46 1320.41 Q1322.22 1320.65 1321.88 1320.65 L1296.14 1320.65 Q1295.8 1320.65 1295.56 1320.41 Q1295.32 1320.17 1295.32 1319.83 Q1295.32 1319.49 1295.56 1319.25 Q1295.8 1319.01 1296.14 1319.01 L1321.88 1319.01 Q1322.22 1319.01 1322.46 1319.25 Z" fill="#000000" fill-rule="nonzero" fill-opacity="1" /><path clip-path="url(#clip360)" d="M1328.64 1306.64 L1328.64 1305.36 Q1333.58 1305.36 1336.13 1302.73 Q1336.83 1302.73 1336.95 1302.89 Q1337.07 1303.05 1337.07 1303.79 L1337.07 1326.85 Q1337.07 1328.08 1337.67 1328.46 Q1338.27 1328.84 1340.9 1328.84 L1342.21 1328.84 L1342.21 1330.11 Q1340.76 1329.99 1335.54 1329.99 Q1330.33 1329.99 1328.9 1330.11 L1328.9 1328.84 L1330.2 1328.84 Q1332.79 1328.84 1333.42 1328.48 Q1334.04 1328.1 1334.04 1326.85 L1334.04 1305.56 Q1331.89 1306.64 1328.64 1306.64 Z" fill="#000000" fill-rule="nonzero" fill-opacity="1" /><path clip-path="url(#clip360)" d="M1500.11 1328.64 L1500.11 1327.06 Q1506.19 1327.06 1509.32 1323.82 Q1510.19 1323.82 1510.34 1324.02 Q1510.48 1324.22 1510.48 1325.13 L1510.48 1353.51 Q1510.48 1355.02 1511.22 1355.49 Q1511.97 1355.96 1515.2 1355.96 L1516.81 1355.96 L1516.81 1357.52 Q1515.03 1357.37 1508.61 1357.37 Q1502.18 1357.37 1500.43 1357.52 L1500.43 1355.96 L1502.04 1355.96 Q1505.22 1355.96 1505.99 1355.52 Q1506.75 1355.05 1506.75 1353.51 L1506.75 1327.3 Q1504.11 1328.64 1500.11 1328.64 Z" fill="#000000" fill-rule="nonzero" fill-opacity="1" /><path clip-path="url(#clip360)" d="M1522.88 1341.34 Q1522.88 1333.9 1524.76 1329.85 Q1527.38 1323.82 1533.56 1323.82 Q1534.87 1323.82 1536.22 1324.19 Q1537.61 1324.54 1539.34 1325.9 Q1541.09 1327.25 1542.15 1329.48 Q1544.18 1333.78 1544.18 1341.34 Q1544.18 1348.72 1542.3 1352.75 Q1539.56 1358.63 1533.51 1358.63 Q1531.23 1358.63 1528.91 1357.47 Q1526.62 1356.31 1525.16 1353.51 Q1522.88 1349.34 1522.88 1341.34 M1527.08 1340.72 Q1527.08 1348.35 1527.63 1351.39 Q1528.25 1354.68 1529.93 1356.11 Q1531.63 1357.52 1533.51 1357.52 Q1535.53 1357.52 1537.21 1356.01 Q1538.92 1354.48 1539.44 1351.19 Q1540 1347.96 1539.98 1340.72 Q1539.98 1333.68 1539.49 1330.86 Q1538.82 1327.58 1537.04 1326.27 Q1535.29 1324.93 1533.51 1324.93 Q1532.84 1324.93 1532.12 1325.13 Q1531.43 1325.33 1530.42 1325.9 Q1529.41 1326.46 1528.62 1327.87 Q1527.85 1329.28 1527.48 1331.41 Q1527.08 1334.15 1527.08 1340.72 Z" fill="#000000" fill-rule="nonzero" fill-opacity="1" /><path clip-path="url(#clip360)" d="M1544.18 1316.96 Q1544.18 1310.92 1545.7 1307.63 Q1547.83 1302.73 1552.85 1302.73 Q1553.91 1302.73 1555.02 1303.03 Q1556.14 1303.31 1557.55 1304.41 Q1558.97 1305.52 1559.83 1307.32 Q1561.48 1310.82 1561.48 1316.96 Q1561.48 1322.96 1559.96 1326.23 Q1557.73 1331.01 1552.81 1331.01 Q1550.96 1331.01 1549.08 1330.07 Q1547.21 1329.12 1546.03 1326.85 Q1544.18 1323.46 1544.18 1316.96 M1547.59 1316.46 Q1547.59 1322.66 1548.03 1325.13 Q1548.53 1327.8 1549.9 1328.96 Q1551.28 1330.11 1552.81 1330.11 Q1554.46 1330.11 1555.82 1328.88 Q1557.21 1327.64 1557.63 1324.97 Q1558.09 1322.34 1558.07 1316.46 Q1558.07 1310.74 1557.67 1308.45 Q1557.13 1305.78 1555.68 1304.72 Q1554.25 1303.63 1552.81 1303.63 Q1552.27 1303.63 1551.69 1303.79 Q1551.12 1303.95 1550.3 1304.41 Q1549.48 1304.88 1548.84 1306.02 Q1548.21 1307.16 1547.91 1308.89 Q1547.59 1311.12 1547.59 1316.46 Z" fill="#000000" fill-rule="nonzero" fill-opacity="1" /><path clip-path="url(#clip360)" d="M1736.04 1328.64 L1736.04 1327.06 Q1742.12 1327.06 1745.26 1323.82 Q1746.12 1323.82 1746.27 1324.02 Q1746.42 1324.22 1746.42 1325.13 L1746.42 1353.51 Q1746.42 1355.02 1747.16 1355.49 Q1747.9 1355.96 1751.13 1355.96 L1752.74 1355.96 L1752.74 1357.52 Q1750.96 1357.37 1744.54 1357.37 Q1738.12 1357.37 1736.36 1357.52 L1736.36 1355.96 L1737.97 1355.96 Q1741.15 1355.96 1741.92 1355.52 Q1742.69 1355.05 1742.69 1353.51 L1742.69 1327.3 Q1740.04 1328.64 1736.04 1328.64 Z" fill="#000000" fill-rule="nonzero" fill-opacity="1" /><path clip-path="url(#clip360)" d="M1758.82 1341.34 Q1758.82 1333.9 1760.69 1329.85 Q1763.31 1323.82 1769.49 1323.82 Q1770.8 1323.82 1772.16 1324.19 Q1773.54 1324.54 1775.27 1325.9 Q1777.02 1327.25 1778.09 1329.48 Q1780.11 1333.78 1780.11 1341.34 Q1780.11 1348.72 1778.23 1352.75 Q1775.49 1358.63 1769.44 1358.63 Q1767.17 1358.63 1764.84 1357.47 Q1762.55 1356.31 1761.09 1353.51 Q1758.82 1349.34 1758.82 1341.34 M1763.02 1340.72 Q1763.02 1348.35 1763.56 1351.39 Q1764.18 1354.68 1765.86 1356.11 Q1767.56 1357.52 1769.44 1357.52 Q1771.47 1357.52 1773.15 1356.01 Q1774.85 1354.48 1775.37 1351.19 Q1775.94 1347.96 1775.91 1340.72 Q1775.91 1333.68 1775.42 1330.86 Q1774.75 1327.58 1772.97 1326.27 Q1771.22 1324.93 1769.44 1324.93 Q1768.77 1324.93 1768.06 1325.13 Q1767.36 1325.33 1766.35 1325.9 Q1765.34 1326.46 1764.55 1327.87 Q1763.78 1329.28 1763.41 1331.41 Q1763.02 1334.15 1763.02 1340.72 Z" fill="#000000" fill-rule="nonzero" fill-opacity="1" /><path clip-path="url(#clip360)" d="M1780.11 1306.64 L1780.11 1305.36 Q1785.05 1305.36 1787.6 1302.73 Q1788.3 1302.73 1788.42 1302.89 Q1788.54 1303.05 1788.54 1303.79 L1788.54 1326.85 Q1788.54 1328.08 1789.14 1328.46 Q1789.75 1328.84 1792.38 1328.84 L1793.68 1328.84 L1793.68 1330.11 Q1792.23 1329.99 1787.02 1329.99 Q1781.8 1329.99 1780.37 1330.11 L1780.37 1328.84 L1781.68 1328.84 Q1784.27 1328.84 1784.89 1328.48 Q1785.51 1328.1 1785.51 1326.85 L1785.51 1305.56 Q1783.36 1306.64 1780.11 1306.64 Z" fill="#000000" fill-rule="nonzero" fill-opacity="1" /><path clip-path="url(#clip360)" d="M888.222 1447.26 L888.222 1444.92 L890.038 1444.92 Q894.151 1444.92 895.078 1444.26 Q896.041 1443.55 896.041 1441.33 L896.041 1401.57 Q896.041 1399.38 895.078 1398.72 Q894.114 1398.01 890.038 1398.01 L888.222 1398.01 L888.222 1395.64 L930.947 1395.64 L933.059 1412.72 L931.169 1412.72 Q930.65 1408.39 929.946 1405.9 Q929.279 1403.38 927.612 1401.46 Q925.981 1399.53 923.276 1398.79 Q920.608 1398.01 916.273 1398.01 L906.491 1398.01 Q903.897 1398.01 903.341 1398.57 Q902.785 1399.09 902.785 1401.05 L902.785 1419.24 L909.603 1419.24 Q914.828 1419.24 916.31 1417.43 Q917.792 1415.61 917.792 1410.39 L919.719 1410.39 L919.719 1430.47 L917.792 1430.47 Q917.792 1425.32 916.31 1423.47 Q914.828 1421.62 909.603 1421.62 L902.785 1421.62 L902.785 1441.88 Q902.785 1443.85 903.341 1444.4 Q903.934 1444.92 906.491 1444.92 L916.607 1444.92 Q919.867 1444.92 922.239 1444.52 Q924.647 1444.07 926.315 1443.03 Q927.982 1441.96 929.094 1440.74 Q930.243 1439.51 931.021 1437.33 Q931.836 1435.1 932.281 1433.07 Q932.763 1431.03 933.281 1427.69 L935.171 1427.69 L931.984 1447.26 L888.222 1447.26 Z" fill="#000000" fill-rule="nonzero" fill-opacity="1" /><path clip-path="url(#clip360)" d="M939.395 1447.26 L939.395 1444.92 Q943.434 1444.92 944.361 1444.44 Q945.324 1443.92 945.324 1441.48 L945.324 1421.13 Q945.324 1418.32 944.324 1417.61 Q943.36 1416.91 939.395 1416.91 L939.395 1414.54 L949.956 1413.72 L949.956 1422.06 Q951.031 1418.8 953.291 1416.28 Q955.588 1413.72 959.294 1413.72 Q961.74 1413.72 963.296 1415.09 Q964.889 1416.46 964.889 1418.35 Q964.889 1420.02 963.852 1420.87 Q962.851 1421.69 961.628 1421.69 Q960.257 1421.69 959.294 1420.84 Q958.368 1419.95 958.368 1418.43 Q958.368 1417.5 958.775 1416.8 Q959.22 1416.06 959.553 1415.8 Q959.887 1415.54 960.109 1415.46 Q959.961 1415.39 959.294 1415.39 Q955.107 1415.39 952.698 1419.58 Q950.327 1423.73 950.327 1429.66 L950.327 1441.33 Q950.327 1443.51 951.216 1444.22 Q952.142 1444.92 956.107 1444.92 L957.701 1444.92 L957.701 1447.26 Q954.662 1447.03 948.066 1447.03 Q947.14 1447.03 945.695 1447.07 Q944.25 1447.11 942.36 1447.18 Q940.47 1447.26 939.395 1447.26 Z" fill="#000000" fill-rule="nonzero" fill-opacity="1" /><path clip-path="url(#clip360)" d="M969.039 1447.26 L969.039 1444.92 Q973.078 1444.92 974.005 1444.44 Q974.968 1443.92 974.968 1441.48 L974.968 1421.13 Q974.968 1418.32 973.968 1417.61 Q973.004 1416.91 969.039 1416.91 L969.039 1414.54 L979.6 1413.72 L979.6 1422.06 Q980.675 1418.8 982.935 1416.28 Q985.232 1413.72 988.938 1413.72 Q991.384 1413.72 992.94 1415.09 Q994.533 1416.46 994.533 1418.35 Q994.533 1420.02 993.496 1420.87 Q992.495 1421.69 991.272 1421.69 Q989.901 1421.69 988.938 1420.84 Q988.012 1419.95 988.012 1418.43 Q988.012 1417.5 988.419 1416.8 Q988.864 1416.06 989.197 1415.8 Q989.531 1415.54 989.753 1415.46 Q989.605 1415.39 988.938 1415.39 Q984.751 1415.39 982.342 1419.58 Q979.971 1423.73 979.971 1429.66 L979.971 1441.33 Q979.971 1443.51 980.86 1444.22 Q981.786 1444.92 985.751 1444.92 L987.345 1444.92 L987.345 1447.26 Q984.306 1447.03 977.71 1447.03 Q976.784 1447.03 975.339 1447.07 Q973.894 1447.11 972.004 1447.18 Q970.114 1447.26 969.039 1447.26 Z" fill="#000000" fill-rule="nonzero" fill-opacity="1" /><path clip-path="url(#clip360)" d="M1003.69 1443.18 Q998.683 1438.22 998.683 1431.03 Q998.683 1423.8 1003.57 1418.54 Q1008.5 1413.24 1015.54 1413.24 Q1022.44 1413.24 1027.36 1418.5 Q1032.33 1423.73 1032.33 1431.03 Q1032.33 1438.18 1027.33 1443.14 Q1022.36 1448.11 1015.47 1448.11 Q1008.73 1448.11 1003.69 1443.18 M1004.98 1430.4 Q1004.98 1437.77 1006.91 1441.11 Q1009.87 1446.18 1015.54 1446.18 Q1018.36 1446.18 1020.69 1444.66 Q1023.07 1443.14 1024.36 1440.59 Q1026.03 1437.25 1026.03 1430.4 Q1026.03 1423.1 1024.03 1419.87 Q1021.06 1414.95 1015.47 1414.95 Q1013.02 1414.95 1010.62 1416.24 Q1008.24 1417.5 1006.8 1420.02 Q1004.98 1423.36 1004.98 1430.4 Z" fill="#000000" fill-rule="nonzero" fill-opacity="1" /><path clip-path="url(#clip360)" d="M1036.63 1447.26 L1036.63 1444.92 Q1040.67 1444.92 1041.59 1444.44 Q1042.56 1443.92 1042.56 1441.48 L1042.56 1421.13 Q1042.56 1418.32 1041.56 1417.61 Q1040.59 1416.91 1036.63 1416.91 L1036.63 1414.54 L1047.19 1413.72 L1047.19 1422.06 Q1048.26 1418.8 1050.52 1416.28 Q1052.82 1413.72 1056.53 1413.72 Q1058.97 1413.72 1060.53 1415.09 Q1062.12 1416.46 1062.12 1418.35 Q1062.12 1420.02 1061.08 1420.87 Q1060.08 1421.69 1058.86 1421.69 Q1057.49 1421.69 1056.53 1420.84 Q1055.6 1419.95 1055.6 1418.43 Q1055.6 1417.5 1056.01 1416.8 Q1056.45 1416.06 1056.79 1415.8 Q1057.12 1415.54 1057.34 1415.46 Q1057.19 1415.39 1056.53 1415.39 Q1052.34 1415.39 1049.93 1419.58 Q1047.56 1423.73 1047.56 1429.66 L1047.56 1441.33 Q1047.56 1443.51 1048.45 1444.22 Q1049.37 1444.92 1053.34 1444.92 L1054.93 1444.92 L1054.93 1447.26 Q1051.89 1447.03 1045.3 1447.03 Q1044.37 1447.03 1042.93 1447.07 Q1041.48 1447.11 1039.59 1447.18 Q1037.7 1447.26 1036.63 1447.26 Z" fill="#000000" fill-rule="nonzero" fill-opacity="1" /><path clip-path="url(#clip360)" d="M1096.92 1428.29 Q1096.92 1415.46 1101.7 1405.13 Q1103.73 1400.79 1106.59 1397.16 Q1109.44 1393.53 1111.33 1391.93 Q1113.22 1390.34 1113.74 1390.34 Q1114.48 1390.34 1114.52 1391.08 Q1114.52 1391.45 1113.52 1392.38 Q1101.29 1404.83 1101.33 1428.29 Q1101.33 1451.82 1113.22 1463.78 Q1114.52 1465.08 1114.52 1465.49 Q1114.52 1466.23 1113.74 1466.23 Q1113.22 1466.23 1111.4 1464.71 Q1109.59 1463.19 1106.77 1459.71 Q1103.96 1456.22 1101.92 1451.96 Q1096.92 1441.62 1096.92 1428.29 Z" fill="#000000" fill-rule="nonzero" fill-opacity="1" /><path clip-path="url(#clip360)" d="M1121.34 1447.26 L1121.34 1444.92 L1123.15 1444.92 Q1127.26 1444.92 1128.19 1444.26 Q1129.15 1443.55 1129.15 1441.33 L1129.15 1401.35 Q1129.15 1399.16 1128.19 1398.49 Q1127.23 1397.79 1123.15 1397.79 L1121.34 1397.79 L1121.34 1395.42 Q1124 1395.64 1132.86 1395.64 Q1142.86 1395.64 1145.61 1395.42 L1145.61 1397.79 L1143.09 1397.79 Q1139.6 1397.79 1138.01 1398.23 Q1136.42 1398.68 1136.16 1399.31 Q1135.9 1399.9 1135.9 1401.42 L1135.9 1441.88 Q1135.9 1443.85 1136.45 1444.4 Q1137.05 1444.92 1139.6 1444.92 L1145.83 1444.92 Q1149.68 1444.92 1152.46 1443.77 Q1155.24 1442.63 1156.72 1441.18 Q1158.21 1439.74 1159.17 1437.03 Q1160.17 1434.29 1160.47 1432.55 Q1160.8 1430.8 1161.1 1427.69 L1162.99 1427.69 L1160.87 1447.26 L1121.34 1447.26 Z" fill="#000000" fill-rule="nonzero" fill-opacity="1" /><path clip-path="url(#clip360)" d="M1170.03 1447.26 Q1170.03 1445.89 1170.14 1445.48 Q1170.29 1445.07 1170.88 1444.44 L1185.44 1428.21 Q1193.41 1419.24 1193.41 1411.43 Q1193.41 1406.35 1190.74 1402.72 Q1188.11 1399.09 1183.25 1399.09 Q1179.92 1399.09 1177.1 1401.12 Q1174.29 1403.16 1172.99 1406.79 Q1173.21 1406.72 1173.99 1406.72 Q1175.88 1406.72 1176.92 1407.9 Q1177.99 1409.09 1177.99 1410.68 Q1177.99 1412.72 1176.66 1413.72 Q1175.36 1414.69 1174.06 1414.69 Q1173.55 1414.69 1172.84 1414.57 Q1172.18 1414.46 1171.1 1413.43 Q1170.03 1412.35 1170.03 1410.46 Q1170.03 1405.16 1174.03 1400.94 Q1178.07 1396.71 1184.22 1396.71 Q1191.18 1396.71 1195.74 1400.86 Q1200.34 1404.98 1200.34 1411.43 Q1200.34 1413.69 1199.63 1415.76 Q1198.97 1417.8 1198.04 1419.39 Q1197.15 1420.99 1194.7 1423.54 Q1192.26 1426.1 1190.3 1427.91 Q1188.33 1429.73 1183.92 1433.58 L1175.88 1441.4 L1189.55 1441.4 Q1196.22 1441.4 1196.74 1440.81 Q1197.48 1439.74 1198.41 1434.07 L1200.34 1434.07 L1198.19 1447.26 L1170.03 1447.26 Z" fill="#000000" fill-rule="nonzero" fill-opacity="1" /><path clip-path="url(#clip360)" d="M1208.53 1465.49 Q1208.53 1465.12 1209.49 1464.19 Q1221.72 1451.74 1221.72 1428.29 Q1221.72 1404.76 1209.97 1392.86 Q1208.53 1391.49 1208.53 1391.08 Q1208.53 1390.34 1209.27 1390.34 Q1209.79 1390.34 1211.6 1391.86 Q1213.45 1393.38 1216.23 1396.86 Q1219.05 1400.35 1221.12 1404.61 Q1226.13 1414.95 1226.13 1428.29 Q1226.13 1441.11 1221.35 1451.44 Q1219.31 1455.78 1216.46 1459.41 Q1213.6 1463.04 1211.71 1464.64 Q1209.82 1466.23 1209.27 1466.23 Q1208.53 1466.23 1208.53 1465.49 Z" fill="#000000" fill-rule="nonzero" fill-opacity="1" /><polyline clip-path="url(#clip362)" style="stroke:#000000; stroke-linecap:round; stroke-linejoin:round; stroke-width:2.8; stroke-opacity:0.4; fill:none" points="278.238,981.16 1836.11,981.16 "/>
<polyline clip-path="url(#clip362)" style="stroke:#000000; stroke-linecap:round; stroke-linejoin:round; stroke-width:2.8; stroke-opacity:0.4; fill:none" points="278.238,529.362 1836.11,529.362 "/>
<polyline clip-path="url(#clip362)" style="stroke:#000000; stroke-linecap:round; stroke-linejoin:round; stroke-width:2.8; stroke-opacity:0.4; fill:none" points="278.238,77.5643 1836.11,77.5643 "/>
<polyline clip-path="url(#clip360)" style="stroke:#000000; stroke-linecap:round; stroke-linejoin:round; stroke-width:4; stroke-opacity:1; fill:none" points="278.238,1280.22 278.238,47.2441 "/>
<polyline clip-path="url(#clip360)" style="stroke:#000000; stroke-linecap:round; stroke-linejoin:round; stroke-width:4; stroke-opacity:1; fill:none" points="1836.11,1280.22 1836.11,47.2441 "/>
<polyline clip-path="url(#clip360)" style="stroke:#000000; stroke-linecap:round; stroke-linejoin:round; stroke-width:4; stroke-opacity:1; fill:none" points="278.238,981.16 293.118,981.16 "/>
<polyline clip-path="url(#clip360)" style="stroke:#000000; stroke-linecap:round; stroke-linejoin:round; stroke-width:4; stroke-opacity:1; fill:none" points="278.238,529.362 293.118,529.362 "/>
<polyline clip-path="url(#clip360)" style="stroke:#000000; stroke-linecap:round; stroke-linejoin:round; stroke-width:4; stroke-opacity:1; fill:none" points="278.238,77.5643 293.118,77.5643 "/>
<path clip-path="url(#clip360)" d="M119.06 976.01 L119.06 974.429 Q125.137 974.429 128.275 971.193 Q129.139 971.193 129.287 971.39 Q129.436 971.588 129.436 972.502 L129.436 1000.89 Q129.436 1002.39 130.177 1002.86 Q130.918 1003.33 134.154 1003.33 L135.76 1003.33 L135.76 1004.89 Q133.981 1004.74 127.558 1004.74 Q121.135 1004.74 119.381 1004.89 L119.381 1003.33 L120.987 1003.33 Q124.174 1003.33 124.94 1002.89 Q125.705 1002.42 125.705 1000.89 L125.705 974.676 Q123.062 976.01 119.06 976.01 Z" fill="#000000" fill-rule="nonzero" fill-opacity="1" /><path clip-path="url(#clip360)" d="M141.837 988.707 Q141.837 981.272 143.714 977.22 Q146.333 971.193 152.509 971.193 Q153.818 971.193 155.176 971.563 Q156.56 971.909 158.289 973.268 Q160.043 974.626 161.105 976.85 Q163.131 981.148 163.131 988.707 Q163.131 996.094 161.253 1000.12 Q158.511 1006 152.459 1006 Q150.186 1006 147.864 1004.84 Q145.567 1003.68 144.109 1000.89 Q141.837 996.711 141.837 988.707 M146.036 988.09 Q146.036 995.723 146.58 998.762 Q147.197 1002.05 148.877 1003.48 Q150.582 1004.89 152.459 1004.89 Q154.485 1004.89 156.165 1003.38 Q157.869 1001.85 158.388 998.564 Q158.956 995.328 158.931 988.09 Q158.931 981.049 158.437 978.233 Q157.77 974.948 155.992 973.638 Q154.238 972.304 152.459 972.304 Q151.792 972.304 151.076 972.502 Q150.384 972.7 149.371 973.268 Q148.358 973.836 147.568 975.244 Q146.802 976.652 146.431 978.777 Q146.036 981.519 146.036 988.09 Z" fill="#000000" fill-rule="nonzero" fill-opacity="1" /><path clip-path="url(#clip360)" d="M190.268 966.619 Q190.508 966.86 190.508 967.201 Q190.508 967.542 190.268 967.783 Q190.027 968.024 189.686 968.024 L163.954 968.024 Q163.613 968.024 163.372 967.783 Q163.131 967.542 163.131 967.201 Q163.131 966.86 163.372 966.619 Q163.613 966.378 163.954 966.378 L189.686 966.378 Q190.027 966.378 190.268 966.619 Z" fill="#000000" fill-rule="nonzero" fill-opacity="1" /><path clip-path="url(#clip360)" d="M196.45 954.014 L196.45 952.73 Q201.387 952.73 203.936 950.1 Q204.639 950.1 204.759 950.261 Q204.88 950.421 204.88 951.164 L204.88 974.226 Q204.88 975.45 205.482 975.832 Q206.084 976.213 208.713 976.213 L210.018 976.213 L210.018 977.478 Q208.573 977.357 203.354 977.357 Q198.136 977.357 196.711 977.478 L196.711 976.213 L198.015 976.213 Q200.604 976.213 201.227 975.852 Q201.849 975.471 201.849 974.226 L201.849 952.93 Q199.701 954.014 196.45 954.014 Z" fill="#000000" fill-rule="nonzero" fill-opacity="1" /><path clip-path="url(#clip360)" d="M217.464 976.815 Q216.842 976.153 216.842 975.29 Q216.842 974.427 217.464 973.805 Q218.087 973.162 219.03 973.162 Q219.933 973.162 220.535 973.764 Q221.158 974.347 221.158 975.31 Q221.158 976.253 220.495 976.876 Q219.853 977.478 219.03 977.478 Q218.087 977.478 217.464 976.815 Z" fill="#000000" fill-rule="nonzero" fill-opacity="1" /><path clip-path="url(#clip360)" d="M226.376 964.331 Q226.376 958.289 227.902 954.998 Q230.029 950.1 235.047 950.1 Q236.111 950.1 237.215 950.401 Q238.339 950.682 239.744 951.786 Q241.169 952.89 242.032 954.697 Q243.678 958.189 243.678 964.331 Q243.678 970.332 242.152 973.604 Q239.924 978.381 235.007 978.381 Q233.16 978.381 231.274 977.438 Q229.407 976.494 228.223 974.226 Q226.376 970.834 226.376 964.331 M229.788 963.829 Q229.788 970.031 230.23 972.5 Q230.732 975.169 232.097 976.334 Q233.481 977.478 235.007 977.478 Q236.653 977.478 238.018 976.253 Q239.403 975.009 239.824 972.339 Q240.286 969.71 240.266 963.829 Q240.266 958.109 239.864 955.821 Q239.322 953.151 237.877 952.087 Q236.452 951.003 235.007 951.003 Q234.465 951.003 233.883 951.164 Q233.321 951.325 232.498 951.786 Q231.675 952.248 231.033 953.392 Q230.411 954.536 230.109 956.262 Q229.788 958.49 229.788 963.829 Z" fill="#000000" fill-rule="nonzero" fill-opacity="1" /><path clip-path="url(#clip360)" d="M119.502 524.212 L119.502 522.631 Q125.579 522.631 128.716 519.395 Q129.581 519.395 129.729 519.592 Q129.877 519.79 129.877 520.704 L129.877 549.088 Q129.877 550.595 130.618 551.064 Q131.359 551.534 134.595 551.534 L136.201 551.534 L136.201 553.09 Q134.423 552.942 128 552.942 Q121.577 552.942 119.823 553.09 L119.823 551.534 L121.429 551.534 Q124.615 551.534 125.381 551.089 Q126.147 550.62 126.147 549.088 L126.147 522.878 Q123.504 524.212 119.502 524.212 Z" fill="#000000" fill-rule="nonzero" fill-opacity="1" /><path clip-path="url(#clip360)" d="M142.278 536.909 Q142.278 529.474 144.156 525.422 Q146.774 519.395 152.95 519.395 Q154.259 519.395 155.618 519.765 Q157.001 520.111 158.731 521.47 Q160.485 522.828 161.547 525.052 Q163.573 529.35 163.573 536.909 Q163.573 544.296 161.695 548.322 Q158.953 554.202 152.901 554.202 Q150.628 554.202 148.306 553.041 Q146.008 551.88 144.551 549.088 Q142.278 544.913 142.278 536.909 M146.478 536.292 Q146.478 543.925 147.021 546.964 Q147.639 550.249 149.319 551.682 Q151.023 553.09 152.901 553.09 Q154.926 553.09 156.606 551.583 Q158.311 550.051 158.829 546.766 Q159.398 543.53 159.373 536.292 Q159.373 529.251 158.879 526.435 Q158.212 523.15 156.433 521.84 Q154.679 520.506 152.901 520.506 Q152.234 520.506 151.517 520.704 Q150.826 520.902 149.813 521.47 Q148.8 522.038 148.009 523.446 Q147.244 524.854 146.873 526.979 Q146.478 529.721 146.478 536.292 Z" fill="#000000" fill-rule="nonzero" fill-opacity="1" /><path clip-path="url(#clip360)" d="M190.709 514.821 Q190.95 515.062 190.95 515.403 Q190.95 515.744 190.709 515.985 Q190.468 516.226 190.127 516.226 L164.395 516.226 Q164.054 516.226 163.813 515.985 Q163.573 515.744 163.573 515.403 Q163.573 515.062 163.813 514.821 Q164.054 514.58 164.395 514.58 L190.127 514.58 Q190.468 514.58 190.709 514.821 Z" fill="#000000" fill-rule="nonzero" fill-opacity="1" /><path clip-path="url(#clip360)" d="M194.844 512.533 Q194.844 506.491 196.369 503.2 Q198.497 498.302 203.515 498.302 Q204.579 498.302 205.682 498.603 Q206.806 498.884 208.211 499.988 Q209.637 501.092 210.5 502.898 Q212.146 506.391 212.146 512.533 Q212.146 518.534 210.62 521.806 Q208.392 526.583 203.475 526.583 Q201.628 526.583 199.741 525.639 Q197.875 524.696 196.69 522.428 Q194.844 519.036 194.844 512.533 M198.256 512.031 Q198.256 518.233 198.698 520.702 Q199.199 523.371 200.564 524.536 Q201.949 525.68 203.475 525.68 Q205.12 525.68 206.485 524.455 Q207.87 523.211 208.292 520.541 Q208.753 517.912 208.733 512.031 Q208.733 506.311 208.332 504.022 Q207.79 501.353 206.345 500.289 Q204.92 499.205 203.475 499.205 Q202.933 499.205 202.351 499.366 Q201.789 499.526 200.966 499.988 Q200.143 500.45 199.5 501.594 Q198.878 502.738 198.577 504.464 Q198.256 506.692 198.256 512.031 Z" fill="#000000" fill-rule="nonzero" fill-opacity="1" /><path clip-path="url(#clip360)" d="M217.906 525.017 Q217.284 524.355 217.284 523.492 Q217.284 522.629 217.906 522.007 Q218.528 521.364 219.472 521.364 Q220.375 521.364 220.977 521.966 Q221.599 522.548 221.599 523.512 Q221.599 524.455 220.937 525.077 Q220.295 525.68 219.472 525.68 Q218.528 525.68 217.906 525.017 Z" fill="#000000" fill-rule="nonzero" fill-opacity="1" /><path clip-path="url(#clip360)" d="M227.259 519.056 Q227.259 517.832 227.922 517.37 Q228.584 516.888 229.287 516.888 Q230.23 516.888 230.772 517.49 Q231.334 518.073 231.334 518.895 Q231.334 519.718 230.772 520.321 Q230.23 520.903 229.287 520.903 Q228.825 520.903 228.584 520.822 Q229.126 522.709 230.772 524.074 Q232.438 525.439 234.626 525.439 Q237.375 525.439 239.021 522.769 Q240.005 521.043 240.005 517.129 Q240.005 513.677 239.262 511.951 Q238.118 509.321 235.77 509.321 Q232.438 509.321 230.471 512.192 Q230.23 512.553 229.949 512.573 Q229.547 512.573 229.447 512.352 Q229.367 512.111 229.367 511.489 L229.367 499.326 Q229.367 498.342 229.768 498.342 Q229.929 498.342 230.27 498.463 Q232.859 499.607 235.729 499.627 Q238.68 499.627 241.329 498.423 Q241.53 498.302 241.651 498.302 Q242.052 498.302 242.072 498.764 Q242.072 498.924 241.731 499.406 Q241.41 499.868 240.707 500.49 Q240.005 501.092 239.102 501.674 Q238.198 502.256 236.874 502.658 Q235.569 503.039 234.124 503.039 Q232.398 503.039 230.631 502.497 L230.631 510.506 Q232.759 508.418 235.85 508.418 Q239.142 508.418 241.41 511.068 Q243.678 513.717 243.678 517.41 Q243.678 521.284 240.988 523.933 Q238.319 526.583 234.706 526.583 Q231.414 526.583 229.327 524.234 Q227.259 521.886 227.259 519.056 Z" fill="#000000" fill-rule="nonzero" fill-opacity="1" /><path clip-path="url(#clip360)" d="M150.332 72.4137 L150.332 70.8327 Q156.409 70.8327 159.546 67.5966 Q160.41 67.5966 160.559 67.7942 Q160.707 67.9918 160.707 68.9058 L160.707 97.29 Q160.707 98.7969 161.448 99.2663 Q162.189 99.7356 165.425 99.7356 L167.031 99.7356 L167.031 101.292 Q165.252 101.144 158.829 101.144 Q152.407 101.144 150.653 101.292 L150.653 99.7356 L152.258 99.7356 Q155.445 99.7356 156.211 99.291 Q156.977 98.8216 156.977 97.29 L156.977 71.0797 Q154.333 72.4137 150.332 72.4137 Z" fill="#000000" fill-rule="nonzero" fill-opacity="1" /><path clip-path="url(#clip360)" d="M173.108 85.1112 Q173.108 77.6755 174.985 73.6242 Q177.604 67.5966 183.78 67.5966 Q185.089 67.5966 186.448 67.9671 Q187.831 68.313 189.56 69.6716 Q191.314 71.0303 192.377 73.2536 Q194.402 77.552 194.402 85.1112 Q194.402 92.4975 192.525 96.5242 Q189.783 102.404 183.73 102.404 Q181.458 102.404 179.136 101.243 Q176.838 100.081 175.381 97.29 Q173.108 93.1151 173.108 85.1112 M177.308 84.4937 Q177.308 92.127 177.851 95.1655 Q178.469 98.451 180.148 99.8838 Q181.853 101.292 183.73 101.292 Q185.756 101.292 187.436 99.785 Q189.141 98.2534 189.659 94.9679 Q190.227 91.7317 190.203 84.4937 Q190.203 77.4532 189.709 74.637 Q189.042 71.3515 187.263 70.0422 Q185.509 68.7082 183.73 68.7082 Q183.063 68.7082 182.347 68.9058 Q181.655 69.1035 180.643 69.6716 Q179.63 70.2398 178.839 71.6479 Q178.073 73.056 177.703 75.1805 Q177.308 77.9226 177.308 84.4937 Z" fill="#000000" fill-rule="nonzero" fill-opacity="1" /><path clip-path="url(#clip360)" d="M194.402 60.7347 Q194.402 54.6932 195.928 51.4015 Q198.055 46.504 203.073 46.504 Q204.137 46.504 205.241 46.8051 Q206.365 47.0861 207.77 48.19 Q209.195 49.294 210.058 51.1004 Q211.704 54.5928 211.704 60.7347 Q211.704 66.7361 210.178 70.0077 Q207.951 74.7848 203.033 74.7848 Q201.186 74.7848 199.3 73.8414 Q197.433 72.898 196.249 70.63 Q194.402 67.2379 194.402 60.7347 M197.814 60.2329 Q197.814 66.435 198.256 68.9038 Q198.758 71.5733 200.123 72.7375 Q201.508 73.8815 203.033 73.8815 Q204.679 73.8815 206.044 72.6572 Q207.429 71.4127 207.85 68.7432 Q208.312 66.1139 208.292 60.2329 Q208.292 54.5126 207.89 52.2244 Q207.348 49.5549 205.903 48.4911 Q204.478 47.4073 203.033 47.4073 Q202.491 47.4073 201.909 47.5678 Q201.347 47.7284 200.524 48.19 Q199.701 48.6517 199.059 49.7958 Q198.437 50.9398 198.136 52.666 Q197.814 54.8939 197.814 60.2329 Z" fill="#000000" fill-rule="nonzero" fill-opacity="1" /><path clip-path="url(#clip360)" d="M217.464 73.2192 Q216.842 72.5568 216.842 71.6937 Q216.842 70.8307 217.464 70.2085 Q218.087 69.5662 219.03 69.5662 Q219.933 69.5662 220.535 70.1683 Q221.158 70.7504 221.158 71.7138 Q221.158 72.6572 220.495 73.2794 Q219.853 73.8815 219.03 73.8815 Q218.087 73.8815 217.464 73.2192 Z" fill="#000000" fill-rule="nonzero" fill-opacity="1" /><path clip-path="url(#clip360)" d="M226.376 60.7347 Q226.376 54.6932 227.902 51.4015 Q230.029 46.504 235.047 46.504 Q236.111 46.504 237.215 46.8051 Q238.339 47.0861 239.744 48.19 Q241.169 49.294 242.032 51.1004 Q243.678 54.5928 243.678 60.7347 Q243.678 66.7361 242.152 70.0077 Q239.924 74.7848 235.007 74.7848 Q233.16 74.7848 231.274 73.8414 Q229.407 72.898 228.223 70.63 Q226.376 67.2379 226.376 60.7347 M229.788 60.2329 Q229.788 66.435 230.23 68.9038 Q230.732 71.5733 232.097 72.7375 Q233.481 73.8815 235.007 73.8815 Q236.653 73.8815 238.018 72.6572 Q239.403 71.4127 239.824 68.7432 Q240.286 66.1139 240.266 60.2329 Q240.266 54.5126 239.864 52.2244 Q239.322 49.5549 237.877 48.4911 Q236.452 47.4073 235.007 47.4073 Q234.465 47.4073 233.883 47.5678 Q233.321 47.7284 232.498 48.19 Q231.675 48.6517 231.033 49.7958 Q230.411 50.9398 230.109 52.666 Q229.788 54.8939 229.788 60.2329 Z" fill="#000000" fill-rule="nonzero" fill-opacity="1" /><path clip-path="url(#clip360)" d="M34.6352 801.913 L17.5899 800.467 L17.5899 754.112 L34.6352 752.666 L34.6352 754.556 Q31.2261 754.853 29.2622 755.149 Q27.2983 755.408 25.4455 756.075 Q23.5557 756.705 22.6664 757.521 Q21.74 758.299 21.036 759.818 Q20.2949 761.337 20.1096 763.301 Q19.9243 765.265 19.9243 768.23 Q19.9243 771.713 20.0726 772.565 Q20.2949 773.491 20.9619 773.714 Q21.5918 773.936 22.9629 773.936 L62.9452 773.936 Q64.4645 773.936 65.0944 773.64 Q65.6873 773.306 66.169 771.564 Q66.6137 769.823 66.6137 765.969 L66.6137 762.931 L68.9482 762.931 Q68.7258 766.043 68.7258 777.345 Q68.7258 788.573 68.9482 791.685 L66.6137 791.685 L66.6137 788.647 Q66.6137 784.793 66.169 783.052 Q65.6873 781.273 65.0944 780.976 Q64.4645 780.68 62.9452 780.68 L22.9629 780.68 Q21.8883 780.68 21.4436 780.754 Q20.9989 780.828 20.6284 781.162 Q20.2208 781.495 20.0726 782.273 Q19.9243 783.014 19.9243 786.349 Q19.9243 789.314 20.1096 791.315 Q20.2949 793.279 21.036 794.798 Q21.74 796.317 22.6664 797.132 Q23.5557 797.911 25.4455 798.578 Q27.2983 799.208 29.2622 799.467 Q31.2261 799.726 34.6352 800.023 L34.6352 801.913 Z" fill="#000000" fill-rule="nonzero" fill-opacity="1" /><path clip-path="url(#clip360)" d="M68.9482 747.368 L66.6137 747.368 Q66.6137 743.329 66.132 742.402 Q65.6132 741.476 63.1676 741.476 L42.7502 741.476 Q39.9341 741.476 39.2671 742.439 Q38.6001 743.366 38.6001 747.071 L36.2286 747.071 L35.4133 736.473 L63.2417 736.473 Q65.502 736.473 66.0579 735.658 Q66.6137 734.843 66.6137 731.137 L68.9482 731.137 Q68.7258 738.882 68.7258 739.03 Q68.7258 740.068 68.9482 747.368 M22.1847 744.181 Q20.6654 744.181 19.4426 743.032 Q18.1828 741.846 18.1828 740.179 Q18.1828 738.511 19.3315 737.326 Q20.4431 736.14 22.2218 736.14 Q23.9633 736.14 25.112 737.326 Q26.2237 738.511 26.2237 740.179 Q26.2237 741.92 25.0009 743.069 Q23.7781 744.181 22.1847 744.181 Z" fill="#000000" fill-rule="nonzero" fill-opacity="1" /><path clip-path="url(#clip360)" d="M68.9482 726.431 L66.6137 726.431 Q66.6137 722.392 66.132 721.466 Q65.6132 720.54 63.1676 720.54 L42.8244 720.54 Q40.0082 720.54 39.3041 721.54 Q38.6001 722.504 38.6001 726.431 L36.2286 726.431 L35.4133 715.76 L43.3802 715.76 Q35.4133 712.202 35.4133 704.532 Q35.4133 695.639 42.8244 694.416 Q39.9341 693.119 37.6737 690.414 Q35.4133 687.672 35.4133 683.411 Q35.4133 677.704 38.2295 675.444 Q40.1193 673.776 42.2315 673.443 Q44.3436 673.109 49.8278 673.109 L64.3163 673.109 Q65.9096 673.035 66.2802 671.812 Q66.6137 670.589 66.6137 667.18 L68.9482 667.18 Q68.7258 674.925 68.7258 675.666 Q68.7258 676.259 68.9482 684.263 L66.6137 684.263 Q66.6137 680.224 66.132 679.297 Q65.6132 678.334 63.1676 678.334 L45.4923 678.334 Q41.6386 678.334 39.3782 679.52 Q37.0808 680.706 37.0808 683.966 Q37.0808 687.894 40.3787 691.044 Q43.6766 694.194 49.2349 694.194 L63.1676 694.194 Q65.6132 694.194 66.132 693.267 Q66.6137 692.304 66.6137 688.265 L68.9482 688.265 Q68.7258 696.009 68.7258 696.787 Q68.7258 697.38 68.9482 705.347 L66.6137 705.347 Q66.6137 701.308 66.132 700.382 Q65.6132 699.418 63.1676 699.418 L45.4923 699.418 Q41.6386 699.418 39.3782 700.604 Q37.0808 701.79 37.0808 705.051 Q37.0808 708.979 40.3787 712.128 Q43.6766 715.278 49.2349 715.278 L63.1676 715.278 Q65.6132 715.278 66.132 714.351 Q66.6137 713.388 66.6137 709.386 L68.9482 709.386 Q68.7258 717.131 68.7258 717.872 Q68.7258 718.465 68.9482 726.431 Z" fill="#000000" fill-rule="nonzero" fill-opacity="1" /><path clip-path="url(#clip360)" d="M52.2363 663.586 Q45.0847 663.586 40.0082 658.991 Q34.9316 654.396 34.9316 647.801 Q34.9316 641.131 39.2671 637.685 Q43.6025 634.201 49.8278 634.201 Q50.9765 634.201 51.1988 634.498 Q51.4211 634.794 51.4211 636.091 L51.4211 657.287 Q59.1656 657.287 62.797 654.989 Q67.8736 651.803 67.8736 646.43 Q67.8736 645.689 67.7253 644.799 Q67.5771 643.91 66.9472 642.094 Q66.2802 640.278 64.5386 638.685 Q62.797 637.092 60.0549 636.165 Q58.9804 635.943 59.0174 635.202 Q59.0174 634.201 59.9067 634.201 Q60.5737 634.201 62.093 634.943 Q63.5752 635.647 65.3538 637.018 Q67.1325 638.389 68.4664 641.057 Q69.8004 643.688 69.8004 646.874 Q69.8004 653.544 64.7609 658.584 Q59.6844 663.586 52.2363 663.586 M49.8278 657.213 L49.8278 639.204 Q48.2344 639.204 46.4557 639.5 Q44.6771 639.76 42.2315 640.575 Q39.7488 641.353 38.1925 643.206 Q36.6362 645.059 36.6362 647.801 Q36.6362 649.023 37.1549 650.357 Q37.6737 651.654 38.9336 653.248 Q40.1934 654.841 43.0467 655.953 Q45.8999 657.064 49.8278 657.213 Z" fill="#000000" fill-rule="nonzero" fill-opacity="1" /><path clip-path="url(#clip360)" d="M49.976 599.259 Q37.1549 599.259 26.8166 594.478 Q22.4811 592.44 18.8497 589.587 Q15.2184 586.734 13.625 584.844 Q12.0316 582.954 12.0316 582.436 Q12.0316 581.694 12.7727 581.657 Q13.1433 581.657 14.0696 582.658 Q26.5201 594.886 49.976 594.849 Q73.5059 594.849 85.4747 582.954 Q86.7716 581.657 87.1792 581.657 Q87.9203 581.657 87.9203 582.436 Q87.9203 582.954 86.4011 584.77 Q84.8818 586.586 81.3987 589.402 Q77.9155 592.218 73.6541 594.256 Q63.3158 599.259 49.976 599.259 Z" fill="#000000" fill-rule="nonzero" fill-opacity="1" /><path clip-path="url(#clip360)" d="M67.9477 574.839 L57.9428 574.839 Q57.0905 574.839 56.7941 574.802 Q56.4977 574.765 56.2753 574.543 Q56.053 574.32 56.053 573.876 Q56.053 573.357 56.2753 573.172 Q56.4977 572.949 57.3499 572.801 Q62.5747 571.653 65.3538 569.207 Q68.0959 566.724 68.0959 562.241 Q68.0959 557.979 66.2061 555.83 Q64.3163 553.681 61.2037 553.681 Q55.6454 553.681 54.2373 561.574 Q53.3109 566.131 52.7181 568.021 Q52.0881 569.911 50.7171 571.578 Q48.0491 574.839 44.2695 574.839 Q40.4899 574.839 37.7108 571.986 Q34.9316 569.096 34.9316 562.722 Q34.9316 558.461 37.0808 555.571 Q36.4138 554.718 35.858 554.274 Q34.9316 553.273 34.9316 552.754 Q34.9316 552.162 35.3392 552.05 Q35.7098 551.939 36.7844 551.939 L44.4177 551.939 Q45.27 551.939 45.5664 551.976 Q45.8629 552.013 46.0852 552.236 Q46.2705 552.458 46.2705 552.94 Q46.2705 553.792 45.5664 553.829 Q36.3768 554.422 36.3768 562.722 Q36.3768 567.206 38.1184 569.207 Q39.8229 571.208 42.1574 571.208 Q43.4543 571.208 44.4548 570.615 Q45.4182 569.985 46.0111 569.207 Q46.5669 568.392 47.1227 566.909 Q47.6415 565.427 47.8268 564.538 Q48.0121 563.612 48.3826 561.87 Q49.5313 555.793 52.014 553.236 Q55.2007 550.049 59.2397 550.049 Q63.7234 550.049 66.7619 553.088 Q69.8004 556.126 69.8004 562.241 Q69.8004 567.169 66.5025 570.615 Q66.9472 571.06 67.3548 571.393 Q67.7253 571.727 67.8736 571.875 Q68.0218 571.986 68.1329 572.023 Q68.2071 572.06 68.2812 572.134 Q69.8004 573.654 69.8004 574.024 Q69.8004 574.617 69.3928 574.728 Q69.0223 574.839 67.9477 574.839 Z" fill="#000000" fill-rule="nonzero" fill-opacity="1" /><path clip-path="url(#clip360)" d="M87.1792 543.157 Q86.8087 543.157 85.8823 542.194 Q73.4318 529.966 49.976 529.966 Q26.446 529.966 14.5514 541.712 Q13.1803 543.157 12.7727 543.157 Q12.0316 543.157 12.0316 542.416 Q12.0316 541.897 13.5509 540.082 Q15.0701 538.229 18.5533 535.45 Q22.0365 532.634 26.2978 530.558 Q36.6362 525.556 49.976 525.556 Q62.797 525.556 73.1354 530.336 Q77.4708 532.374 81.1022 535.227 Q84.7336 538.081 86.327 539.97 Q87.9203 541.86 87.9203 542.416 Q87.9203 543.157 87.1792 543.157 Z" fill="#000000" fill-rule="nonzero" fill-opacity="1" /><polyline clip-path="url(#clip362)" style="stroke:#0000ff; stroke-linecap:round; stroke-linejoin:round; stroke-width:12; stroke-opacity:1; fill:none" points="1792.02,1186.01 1542.12,970.062 1507.97,743.245 1358.4,522.069 1213.61,301.895 1004.28,82.1398 "/>
<line clip-path="url(#clip362)" x1="1792.02" y1="1186.01" x2="1792.02" y2="1170.01" style="stroke:#0000ff; stroke-width:12; stroke-opacity:1"/>
<line clip-path="url(#clip362)" x1="1792.02" y1="1186.01" x2="1776.02" y2="1186.01" style="stroke:#0000ff; stroke-width:12; stroke-opacity:1"/>
<line clip-path="url(#clip362)" x1="1792.02" y1="1186.01" x2="1792.02" y2="1202.01" style="stroke:#0000ff; stroke-width:12; stroke-opacity:1"/>
<line clip-path="url(#clip362)" x1="1792.02" y1="1186.01" x2="1808.02" y2="1186.01" style="stroke:#0000ff; stroke-width:12; stroke-opacity:1"/>
<line clip-path="url(#clip362)" x1="1542.12" y1="970.062" x2="1542.12" y2="954.062" style="stroke:#0000ff; stroke-width:12; stroke-opacity:1"/>
<line clip-path="url(#clip362)" x1="1542.12" y1="970.062" x2="1526.12" y2="970.062" style="stroke:#0000ff; stroke-width:12; stroke-opacity:1"/>
<line clip-path="url(#clip362)" x1="1542.12" y1="970.062" x2="1542.12" y2="986.062" style="stroke:#0000ff; stroke-width:12; stroke-opacity:1"/>
<line clip-path="url(#clip362)" x1="1542.12" y1="970.062" x2="1558.12" y2="970.062" style="stroke:#0000ff; stroke-width:12; stroke-opacity:1"/>
<line clip-path="url(#clip362)" x1="1507.97" y1="743.245" x2="1507.97" y2="727.245" style="stroke:#0000ff; stroke-width:12; stroke-opacity:1"/>
<line clip-path="url(#clip362)" x1="1507.97" y1="743.245" x2="1491.97" y2="743.245" style="stroke:#0000ff; stroke-width:12; stroke-opacity:1"/>
<line clip-path="url(#clip362)" x1="1507.97" y1="743.245" x2="1507.97" y2="759.245" style="stroke:#0000ff; stroke-width:12; stroke-opacity:1"/>
<line clip-path="url(#clip362)" x1="1507.97" y1="743.245" x2="1523.97" y2="743.245" style="stroke:#0000ff; stroke-width:12; stroke-opacity:1"/>
<line clip-path="url(#clip362)" x1="1358.4" y1="522.069" x2="1358.4" y2="506.069" style="stroke:#0000ff; stroke-width:12; stroke-opacity:1"/>
<line clip-path="url(#clip362)" x1="1358.4" y1="522.069" x2="1342.4" y2="522.069" style="stroke:#0000ff; stroke-width:12; stroke-opacity:1"/>
<line clip-path="url(#clip362)" x1="1358.4" y1="522.069" x2="1358.4" y2="538.069" style="stroke:#0000ff; stroke-width:12; stroke-opacity:1"/>
<line clip-path="url(#clip362)" x1="1358.4" y1="522.069" x2="1374.4" y2="522.069" style="stroke:#0000ff; stroke-width:12; stroke-opacity:1"/>
<line clip-path="url(#clip362)" x1="1213.61" y1="301.895" x2="1213.61" y2="285.895" style="stroke:#0000ff; stroke-width:12; stroke-opacity:1"/>
<line clip-path="url(#clip362)" x1="1213.61" y1="301.895" x2="1197.61" y2="301.895" style="stroke:#0000ff; stroke-width:12; stroke-opacity:1"/>
<line clip-path="url(#clip362)" x1="1213.61" y1="301.895" x2="1213.61" y2="317.895" style="stroke:#0000ff; stroke-width:12; stroke-opacity:1"/>
<line clip-path="url(#clip362)" x1="1213.61" y1="301.895" x2="1229.61" y2="301.895" style="stroke:#0000ff; stroke-width:12; stroke-opacity:1"/>
<line clip-path="url(#clip362)" x1="1004.28" y1="82.1398" x2="1004.28" y2="66.1398" style="stroke:#0000ff; stroke-width:12; stroke-opacity:1"/>
<line clip-path="url(#clip362)" x1="1004.28" y1="82.1398" x2="988.282" y2="82.1398" style="stroke:#0000ff; stroke-width:12; stroke-opacity:1"/>
<line clip-path="url(#clip362)" x1="1004.28" y1="82.1398" x2="1004.28" y2="98.1398" style="stroke:#0000ff; stroke-width:12; stroke-opacity:1"/>
<line clip-path="url(#clip362)" x1="1004.28" y1="82.1398" x2="1020.28" y2="82.1398" style="stroke:#0000ff; stroke-width:12; stroke-opacity:1"/>
<polyline clip-path="url(#clip362)" style="stroke:#5400aa; stroke-linecap:round; stroke-linejoin:round; stroke-width:12; stroke-opacity:1; fill:none" points="1754.45,1226.16 1502.12,1053.92 1133.01,892.429 732.981,721.169 550.238,549.159 526.686,376.824 "/>
<circle clip-path="url(#clip362)" cx="1754.45" cy="1226.16" r="14.4" fill="#5400aa" fill-rule="evenodd" fill-opacity="1" stroke="#000000" stroke-opacity="1" stroke-width="1.536"/>
<circle clip-path="url(#clip362)" cx="1502.12" cy="1053.92" r="14.4" fill="#5400aa" fill-rule="evenodd" fill-opacity="1" stroke="#000000" stroke-opacity="1" stroke-width="1.536"/>
<circle clip-path="url(#clip362)" cx="1133.01" cy="892.429" r="14.4" fill="#5400aa" fill-rule="evenodd" fill-opacity="1" stroke="#000000" stroke-opacity="1" stroke-width="1.536"/>
<circle clip-path="url(#clip362)" cx="732.981" cy="721.169" r="14.4" fill="#5400aa" fill-rule="evenodd" fill-opacity="1" stroke="#000000" stroke-opacity="1" stroke-width="1.536"/>
<circle clip-path="url(#clip362)" cx="550.238" cy="549.159" r="14.4" fill="#5400aa" fill-rule="evenodd" fill-opacity="1" stroke="#000000" stroke-opacity="1" stroke-width="1.536"/>
<circle clip-path="url(#clip362)" cx="526.686" cy="376.824" r="14.4" fill="#5400aa" fill-rule="evenodd" fill-opacity="1" stroke="#000000" stroke-opacity="1" stroke-width="1.536"/>
<polyline clip-path="url(#clip362)" style="stroke:#a90055; stroke-linecap:round; stroke-linejoin:round; stroke-width:12; stroke-opacity:1; fill:none" points="1573.75,1245.33 1289.74,1098.57 826.517,966.662 884.597,843.756 330.236,706.557 322.329,567.93 "/>
<line clip-path="url(#clip362)" x1="1573.75" y1="1245.33" x2="1573.75" y2="1229.33" style="stroke:#a90055; stroke-width:12; stroke-opacity:1"/>
<line clip-path="url(#clip362)" x1="1573.75" y1="1245.33" x2="1557.75" y2="1245.33" style="stroke:#a90055; stroke-width:12; stroke-opacity:1"/>
<line clip-path="url(#clip362)" x1="1573.75" y1="1245.33" x2="1573.75" y2="1261.33" style="stroke:#a90055; stroke-width:12; stroke-opacity:1"/>
<line clip-path="url(#clip362)" x1="1573.75" y1="1245.33" x2="1589.75" y2="1245.33" style="stroke:#a90055; stroke-width:12; stroke-opacity:1"/>
<line clip-path="url(#clip362)" x1="1289.74" y1="1098.57" x2="1289.74" y2="1082.57" style="stroke:#a90055; stroke-width:12; stroke-opacity:1"/>
<line clip-path="url(#clip362)" x1="1289.74" y1="1098.57" x2="1273.74" y2="1098.57" style="stroke:#a90055; stroke-width:12; stroke-opacity:1"/>
<line clip-path="url(#clip362)" x1="1289.74" y1="1098.57" x2="1289.74" y2="1114.57" style="stroke:#a90055; stroke-width:12; stroke-opacity:1"/>
<line clip-path="url(#clip362)" x1="1289.74" y1="1098.57" x2="1305.74" y2="1098.57" style="stroke:#a90055; stroke-width:12; stroke-opacity:1"/>
<line clip-path="url(#clip362)" x1="826.517" y1="966.662" x2="826.517" y2="950.662" style="stroke:#a90055; stroke-width:12; stroke-opacity:1"/>
<line clip-path="url(#clip362)" x1="826.517" y1="966.662" x2="810.517" y2="966.662" style="stroke:#a90055; stroke-width:12; stroke-opacity:1"/>
<line clip-path="url(#clip362)" x1="826.517" y1="966.662" x2="826.517" y2="982.662" style="stroke:#a90055; stroke-width:12; stroke-opacity:1"/>
<line clip-path="url(#clip362)" x1="826.517" y1="966.662" x2="842.517" y2="966.662" style="stroke:#a90055; stroke-width:12; stroke-opacity:1"/>
<line clip-path="url(#clip362)" x1="884.597" y1="843.756" x2="884.597" y2="827.756" style="stroke:#a90055; stroke-width:12; stroke-opacity:1"/>
<line clip-path="url(#clip362)" x1="884.597" y1="843.756" x2="868.597" y2="843.756" style="stroke:#a90055; stroke-width:12; stroke-opacity:1"/>
<line clip-path="url(#clip362)" x1="884.597" y1="843.756" x2="884.597" y2="859.756" style="stroke:#a90055; stroke-width:12; stroke-opacity:1"/>
<line clip-path="url(#clip362)" x1="884.597" y1="843.756" x2="900.597" y2="843.756" style="stroke:#a90055; stroke-width:12; stroke-opacity:1"/>
<line clip-path="url(#clip362)" x1="330.236" y1="706.557" x2="330.236" y2="690.557" style="stroke:#a90055; stroke-width:12; stroke-opacity:1"/>
<line clip-path="url(#clip362)" x1="330.236" y1="706.557" x2="314.236" y2="706.557" style="stroke:#a90055; stroke-width:12; stroke-opacity:1"/>
<line clip-path="url(#clip362)" x1="330.236" y1="706.557" x2="330.236" y2="722.557" style="stroke:#a90055; stroke-width:12; stroke-opacity:1"/>
<line clip-path="url(#clip362)" x1="330.236" y1="706.557" x2="346.236" y2="706.557" style="stroke:#a90055; stroke-width:12; stroke-opacity:1"/>
<line clip-path="url(#clip362)" x1="322.329" y1="567.93" x2="322.329" y2="551.93" style="stroke:#a90055; stroke-width:12; stroke-opacity:1"/>
<line clip-path="url(#clip362)" x1="322.329" y1="567.93" x2="306.329" y2="567.93" style="stroke:#a90055; stroke-width:12; stroke-opacity:1"/>
<line clip-path="url(#clip362)" x1="322.329" y1="567.93" x2="322.329" y2="583.93" style="stroke:#a90055; stroke-width:12; stroke-opacity:1"/>
<line clip-path="url(#clip362)" x1="322.329" y1="567.93" x2="338.329" y2="567.93" style="stroke:#a90055; stroke-width:12; stroke-opacity:1"/>
<path clip-path="url(#clip362)" d="M993.304 960.764 L977.304 976.764 L993.304 992.764 L1009.3 976.764 L993.304 960.764 Z" fill="#ff0000" fill-rule="evenodd" fill-opacity="1" stroke="#000000" stroke-opacity="1" stroke-width="1.536"/>
<path clip-path="url(#clip360)" d="M1902.06 347.543 L2256.76 347.543 L2256.76 88.3434 L1902.06 88.3434  Z" fill="#ffffff" fill-rule="evenodd" fill-opacity="1"/>
<polyline clip-path="url(#clip360)" style="stroke:#000000; stroke-linecap:round; stroke-linejoin:round; stroke-width:4; stroke-opacity:1; fill:none" points="1902.06,347.543 2256.76,347.543 2256.76,88.3434 1902.06,88.3434 1902.06,347.543 "/>
<polyline clip-path="url(#clip360)" style="stroke:#0000ff; stroke-linecap:round; stroke-linejoin:round; stroke-width:12; stroke-opacity:1; fill:none" points="1924.05,140.183 2055.95,140.183 "/>
<line clip-path="url(#clip360)" x1="1990" y1="140.183" x2="1990" y2="119.828" style="stroke:#0000ff; stroke-width:12; stroke-opacity:1"/>
<line clip-path="url(#clip360)" x1="1990" y1="140.183" x2="1969.64" y2="140.183" style="stroke:#0000ff; stroke-width:12; stroke-opacity:1"/>
<line clip-path="url(#clip360)" x1="1990" y1="140.183" x2="1990" y2="160.539" style="stroke:#0000ff; stroke-width:12; stroke-opacity:1"/>
<line clip-path="url(#clip360)" x1="1990" y1="140.183" x2="2010.35" y2="140.183" style="stroke:#0000ff; stroke-width:12; stroke-opacity:1"/>
<path clip-path="url(#clip360)" d="M2077.93 157.463 L2077.93 155.907 L2079.14 155.907 Q2081.88 155.907 2082.5 155.462 Q2083.14 154.993 2083.14 153.511 L2083.14 127.004 Q2083.14 125.547 2082.5 125.102 Q2081.86 124.633 2079.14 124.633 L2077.93 124.633 L2077.93 123.052 L2106.41 123.052 L2107.82 134.44 L2106.56 134.44 Q2106.22 131.55 2105.75 129.894 Q2105.3 128.215 2104.19 126.93 Q2103.1 125.646 2101.3 125.151 Q2099.52 124.633 2096.63 124.633 L2090.11 124.633 Q2088.38 124.633 2088.01 125.003 Q2087.64 125.349 2087.64 126.658 L2087.64 138.788 L2092.18 138.788 Q2095.67 138.788 2096.66 137.577 Q2097.64 136.367 2097.64 132.884 L2098.93 132.884 L2098.93 146.273 L2097.64 146.273 Q2097.64 142.839 2096.66 141.604 Q2095.67 140.369 2092.18 140.369 L2087.64 140.369 L2087.64 153.881 Q2087.64 155.191 2088.01 155.561 Q2088.4 155.907 2090.11 155.907 L2096.85 155.907 Q2099.03 155.907 2100.61 155.635 Q2102.21 155.339 2103.33 154.647 Q2104.44 153.931 2105.18 153.116 Q2105.94 152.3 2106.46 150.843 Q2107.01 149.361 2107.3 148.002 Q2107.62 146.643 2107.97 144.42 L2109.23 144.42 L2107.11 157.463 L2077.93 157.463 Z" fill="#000000" fill-rule="nonzero" fill-opacity="1" /><path clip-path="url(#clip360)" d="M2112.32 157.463 L2112.32 155.907 L2113.53 155.907 Q2116.27 155.907 2116.89 155.462 Q2117.53 154.993 2117.53 153.511 L2117.53 126.856 Q2117.53 125.398 2116.89 124.954 Q2116.25 124.484 2113.53 124.484 L2112.32 124.484 L2112.32 122.903 Q2114.1 123.052 2119.8 123.052 Q2125.46 123.052 2127.24 122.903 L2127.24 124.484 L2126.03 124.484 Q2123.29 124.484 2122.64 124.954 Q2122.03 125.398 2122.03 126.856 L2122.03 142.938 L2137.86 127.819 Q2138.78 127.004 2138.78 126.14 Q2138.78 125.843 2138.63 125.522 Q2138.5 125.176 2137.91 124.83 Q2137.34 124.484 2136.43 124.484 L2136.43 122.903 Q2138.16 123.052 2142.88 123.052 Q2145.86 123.052 2147.17 122.903 L2147.17 124.484 Q2142.97 124.534 2139.99 127.523 L2130.87 136.268 L2142.55 153.461 Q2143.62 155.018 2144.65 155.462 Q2145.69 155.907 2147.87 155.907 L2147.87 157.463 Q2144.68 157.315 2142.06 157.315 Q2136.6 157.315 2134.82 157.463 L2134.82 155.907 Q2137.81 155.907 2137.81 154.376 Q2137.81 153.807 2137.05 152.646 L2127.88 139.109 L2122.03 144.667 L2122.03 153.511 Q2122.03 154.968 2122.64 155.438 Q2123.29 155.907 2126.03 155.907 L2127.24 155.907 L2127.24 157.463 Q2125.46 157.315 2119.75 157.315 Q2114.1 157.315 2112.32 157.463 Z" fill="#000000" fill-rule="nonzero" fill-opacity="1" /><path clip-path="url(#clip360)" d="M2154.44 128.585 L2154.44 127.004 Q2160.51 127.004 2163.65 123.768 Q2164.52 123.768 2164.66 123.966 Q2164.81 124.163 2164.81 125.077 L2164.81 153.461 Q2164.81 154.968 2165.55 155.438 Q2166.29 155.907 2169.53 155.907 L2171.14 155.907 L2171.14 157.463 Q2169.36 157.315 2162.94 157.315 Q2156.51 157.315 2154.76 157.463 L2154.76 155.907 L2156.36 155.907 Q2159.55 155.907 2160.32 155.462 Q2161.08 154.993 2161.08 153.461 L2161.08 127.251 Q2158.44 128.585 2154.44 128.585 Z" fill="#000000" fill-rule="nonzero" fill-opacity="1" /><path clip-path="url(#clip360)" d="M2180.25 144.815 Q2180.25 136.268 2183.44 129.376 Q2184.8 126.485 2186.7 124.064 Q2188.6 121.644 2189.86 120.581 Q2191.12 119.519 2191.47 119.519 Q2191.96 119.519 2191.99 120.013 Q2191.99 120.26 2191.32 120.878 Q2183.17 129.178 2183.19 144.815 Q2183.19 160.502 2191.12 168.481 Q2191.99 169.346 2191.99 169.617 Q2191.99 170.112 2191.47 170.112 Q2191.12 170.112 2189.91 169.099 Q2188.7 168.086 2186.82 165.764 Q2184.95 163.442 2183.59 160.601 Q2180.25 153.709 2180.25 144.815 Z" fill="#000000" fill-rule="nonzero" fill-opacity="1" /><path clip-path="url(#clip360)" d="M2196.98 150.645 Q2196.98 149.138 2197.84 148.422 Q2198.71 147.706 2199.82 147.706 Q2200.98 147.706 2201.79 148.471 Q2202.63 149.213 2202.63 150.522 Q2202.63 151.93 2201.65 152.72 Q2200.68 153.511 2199.3 153.313 Q2200.51 155.339 2202.73 156.253 Q2204.98 157.167 2207.06 157.167 Q2209.23 157.167 2210.98 155.29 Q2212.76 153.412 2212.76 148.817 Q2212.76 144.914 2211.23 142.666 Q2209.72 140.418 2206.73 140.418 L2204.51 140.418 Q2203.74 140.418 2203.52 140.344 Q2203.3 140.27 2203.3 139.85 Q2203.3 139.356 2204.07 139.257 Q2204.83 139.257 2206.04 139.109 Q2208.98 139.01 2210.54 136.466 Q2211.95 134.094 2211.95 130.71 Q2211.95 127.622 2210.46 126.337 Q2209.01 125.028 2207.1 125.028 Q2205.33 125.028 2203.37 125.769 Q2201.42 126.51 2200.36 128.165 Q2203.5 128.165 2203.5 130.71 Q2203.5 131.821 2202.78 132.562 Q2202.09 133.279 2200.93 133.279 Q2199.82 133.279 2199.08 132.587 Q2198.33 131.871 2198.33 130.66 Q2198.33 127.77 2200.9 125.769 Q2203.5 123.768 2207.3 123.768 Q2211.06 123.768 2213.82 125.744 Q2216.62 127.721 2216.62 130.759 Q2216.62 133.748 2214.64 136.194 Q2212.66 138.639 2209.53 139.652 Q2213.38 140.418 2215.68 143.037 Q2217.97 145.631 2217.97 148.817 Q2217.97 152.77 2214.86 155.685 Q2211.75 158.575 2207.2 158.575 Q2203 158.575 2199.99 156.302 Q2196.98 154.03 2196.98 150.645 Z" fill="#000000" fill-rule="nonzero" fill-opacity="1" /><path clip-path="url(#clip360)" d="M2223.04 169.617 Q2223.04 169.37 2223.68 168.753 Q2231.83 160.453 2231.83 144.815 Q2231.83 129.129 2224 121.199 Q2223.04 120.285 2223.04 120.013 Q2223.04 119.519 2223.53 119.519 Q2223.88 119.519 2225.09 120.532 Q2226.32 121.545 2228.18 123.867 Q2230.05 126.189 2231.44 129.03 Q2234.77 135.922 2234.77 144.815 Q2234.77 153.363 2231.59 160.255 Q2230.23 163.145 2228.32 165.566 Q2226.42 167.987 2225.16 169.049 Q2223.9 170.112 2223.53 170.112 Q2223.04 170.112 2223.04 169.617 Z" fill="#000000" fill-rule="nonzero" fill-opacity="1" /><polyline clip-path="url(#clip360)" style="stroke:#5400aa; stroke-linecap:round; stroke-linejoin:round; stroke-width:12; stroke-opacity:1; fill:none" points="1924.05,192.023 2055.95,192.023 "/>
<circle clip-path="url(#clip360)" cx="1990" cy="192.023" r="18.3196" fill="#5400aa" fill-rule="evenodd" fill-opacity="1" stroke="#000000" stroke-opacity="1" stroke-width="2.31304"/>
<path clip-path="url(#clip360)" d="M2077.93 209.303 L2077.93 207.747 L2079.14 207.747 Q2081.88 207.747 2082.5 207.302 Q2083.14 206.833 2083.14 205.351 L2083.14 178.844 Q2083.14 177.387 2082.5 176.942 Q2081.86 176.473 2079.14 176.473 L2077.93 176.473 L2077.93 174.892 L2106.41 174.892 L2107.82 186.28 L2106.56 186.28 Q2106.22 183.39 2105.75 181.734 Q2105.3 180.055 2104.19 178.77 Q2103.1 177.486 2101.3 176.991 Q2099.52 176.473 2096.63 176.473 L2090.11 176.473 Q2088.38 176.473 2088.01 176.843 Q2087.64 177.189 2087.64 178.498 L2087.64 190.628 L2092.18 190.628 Q2095.67 190.628 2096.66 189.417 Q2097.64 188.207 2097.64 184.724 L2098.93 184.724 L2098.93 198.113 L2097.64 198.113 Q2097.64 194.679 2096.66 193.444 Q2095.67 192.209 2092.18 192.209 L2087.64 192.209 L2087.64 205.721 Q2087.64 207.031 2088.01 207.401 Q2088.4 207.747 2090.11 207.747 L2096.85 207.747 Q2099.03 207.747 2100.61 207.475 Q2102.21 207.179 2103.33 206.487 Q2104.44 205.771 2105.18 204.956 Q2105.94 204.14 2106.46 202.683 Q2107.01 201.201 2107.3 199.842 Q2107.62 198.483 2107.97 196.26 L2109.23 196.26 L2107.11 209.303 L2077.93 209.303 Z" fill="#000000" fill-rule="nonzero" fill-opacity="1" /><path clip-path="url(#clip360)" d="M2112.32 209.303 L2112.32 207.747 L2113.53 207.747 Q2116.27 207.747 2116.89 207.302 Q2117.53 206.833 2117.53 205.351 L2117.53 178.696 Q2117.53 177.238 2116.89 176.794 Q2116.25 176.324 2113.53 176.324 L2112.32 176.324 L2112.32 174.743 Q2114.1 174.892 2119.8 174.892 Q2125.46 174.892 2127.24 174.743 L2127.24 176.324 L2126.03 176.324 Q2123.29 176.324 2122.64 176.794 Q2122.03 177.238 2122.03 178.696 L2122.03 194.778 L2137.86 179.659 Q2138.78 178.844 2138.78 177.98 Q2138.78 177.683 2138.63 177.362 Q2138.5 177.016 2137.91 176.67 Q2137.34 176.324 2136.43 176.324 L2136.43 174.743 Q2138.16 174.892 2142.88 174.892 Q2145.86 174.892 2147.17 174.743 L2147.17 176.324 Q2142.97 176.374 2139.99 179.363 L2130.87 188.108 L2142.55 205.301 Q2143.62 206.858 2144.65 207.302 Q2145.69 207.747 2147.87 207.747 L2147.87 209.303 Q2144.68 209.155 2142.06 209.155 Q2136.6 209.155 2134.82 209.303 L2134.82 207.747 Q2137.81 207.747 2137.81 206.216 Q2137.81 205.647 2137.05 204.486 L2127.88 190.949 L2122.03 196.507 L2122.03 205.351 Q2122.03 206.808 2122.64 207.278 Q2123.29 207.747 2126.03 207.747 L2127.24 207.747 L2127.24 209.303 Q2125.46 209.155 2119.75 209.155 Q2114.1 209.155 2112.32 209.303 Z" fill="#000000" fill-rule="nonzero" fill-opacity="1" /><path clip-path="url(#clip360)" d="M2154.44 180.425 L2154.44 178.844 Q2160.51 178.844 2163.65 175.608 Q2164.52 175.608 2164.66 175.806 Q2164.81 176.003 2164.81 176.917 L2164.81 205.301 Q2164.81 206.808 2165.55 207.278 Q2166.29 207.747 2169.53 207.747 L2171.14 207.747 L2171.14 209.303 Q2169.36 209.155 2162.94 209.155 Q2156.51 209.155 2154.76 209.303 L2154.76 207.747 L2156.36 207.747 Q2159.55 207.747 2160.32 207.302 Q2161.08 206.833 2161.08 205.301 L2161.08 179.091 Q2158.44 180.425 2154.44 180.425 Z" fill="#000000" fill-rule="nonzero" fill-opacity="1" /><path clip-path="url(#clip360)" d="M2180.25 196.655 Q2180.25 188.108 2183.44 181.216 Q2184.8 178.325 2186.7 175.904 Q2188.6 173.484 2189.86 172.421 Q2191.12 171.359 2191.47 171.359 Q2191.96 171.359 2191.99 171.853 Q2191.99 172.1 2191.32 172.718 Q2183.17 181.018 2183.19 196.655 Q2183.19 212.342 2191.12 220.321 Q2191.99 221.186 2191.99 221.457 Q2191.99 221.952 2191.47 221.952 Q2191.12 221.952 2189.91 220.939 Q2188.7 219.926 2186.82 217.604 Q2184.95 215.282 2183.59 212.441 Q2180.25 205.549 2180.25 196.655 Z" fill="#000000" fill-rule="nonzero" fill-opacity="1" /><path clip-path="url(#clip360)" d="M2196.26 200.954 L2196.26 199.397 L2211.8 175.657 Q2212.19 175.04 2212.81 175.065 Q2213.38 175.065 2213.5 175.287 Q2213.63 175.509 2213.63 176.374 L2213.63 199.397 L2218.69 199.397 L2218.69 200.954 L2213.63 200.954 L2213.63 205.351 Q2213.63 206.808 2214.22 207.278 Q2214.84 207.747 2217.46 207.747 L2218.52 207.747 L2218.52 209.303 Q2216.44 209.155 2211.65 209.155 Q2206.88 209.155 2204.81 209.303 L2204.81 207.747 L2205.87 207.747 Q2208.49 207.747 2209.11 207.302 Q2209.72 206.833 2209.72 205.351 L2209.72 200.954 L2196.26 200.954 M2197.69 199.397 L2210.02 199.397 L2210.02 180.524 L2197.69 199.397 Z" fill="#000000" fill-rule="nonzero" fill-opacity="1" /><path clip-path="url(#clip360)" d="M2223.04 221.457 Q2223.04 221.21 2223.68 220.593 Q2231.83 212.293 2231.83 196.655 Q2231.83 180.969 2224 173.039 Q2223.04 172.125 2223.04 171.853 Q2223.04 171.359 2223.53 171.359 Q2223.88 171.359 2225.09 172.372 Q2226.32 173.385 2228.18 175.707 Q2230.05 178.029 2231.44 180.87 Q2234.77 187.762 2234.77 196.655 Q2234.77 205.203 2231.59 212.095 Q2230.23 214.985 2228.32 217.406 Q2226.42 219.827 2225.16 220.889 Q2223.9 221.952 2223.53 221.952 Q2223.04 221.952 2223.04 221.457 Z" fill="#000000" fill-rule="nonzero" fill-opacity="1" /><polyline clip-path="url(#clip360)" style="stroke:#a90055; stroke-linecap:round; stroke-linejoin:round; stroke-width:12; stroke-opacity:1; fill:none" points="1924.05,243.863 2055.95,243.863 "/>
<line clip-path="url(#clip360)" x1="1990" y1="243.863" x2="1990" y2="223.508" style="stroke:#a90055; stroke-width:12; stroke-opacity:1"/>
<line clip-path="url(#clip360)" x1="1990" y1="243.863" x2="1969.64" y2="243.863" style="stroke:#a90055; stroke-width:12; stroke-opacity:1"/>
<line clip-path="url(#clip360)" x1="1990" y1="243.863" x2="1990" y2="264.219" style="stroke:#a90055; stroke-width:12; stroke-opacity:1"/>
<line clip-path="url(#clip360)" x1="1990" y1="243.863" x2="2010.35" y2="243.863" style="stroke:#a90055; stroke-width:12; stroke-opacity:1"/>
<path clip-path="url(#clip360)" d="M2077.93 261.143 L2077.93 259.587 L2079.14 259.587 Q2081.88 259.587 2082.5 259.142 Q2083.14 258.673 2083.14 257.191 L2083.14 230.684 Q2083.14 229.227 2082.5 228.782 Q2081.86 228.313 2079.14 228.313 L2077.93 228.313 L2077.93 226.732 L2106.41 226.732 L2107.82 238.12 L2106.56 238.12 Q2106.22 235.23 2105.75 233.574 Q2105.3 231.895 2104.19 230.61 Q2103.1 229.326 2101.3 228.831 Q2099.52 228.313 2096.63 228.313 L2090.11 228.313 Q2088.38 228.313 2088.01 228.683 Q2087.64 229.029 2087.64 230.338 L2087.64 242.468 L2092.18 242.468 Q2095.67 242.468 2096.66 241.257 Q2097.64 240.047 2097.64 236.564 L2098.93 236.564 L2098.93 249.953 L2097.64 249.953 Q2097.64 246.519 2096.66 245.284 Q2095.67 244.049 2092.18 244.049 L2087.64 244.049 L2087.64 257.561 Q2087.64 258.871 2088.01 259.241 Q2088.4 259.587 2090.11 259.587 L2096.85 259.587 Q2099.03 259.587 2100.61 259.315 Q2102.21 259.019 2103.33 258.327 Q2104.44 257.611 2105.18 256.796 Q2105.94 255.98 2106.46 254.523 Q2107.01 253.041 2107.3 251.682 Q2107.62 250.323 2107.97 248.1 L2109.23 248.1 L2107.11 261.143 L2077.93 261.143 Z" fill="#000000" fill-rule="nonzero" fill-opacity="1" /><path clip-path="url(#clip360)" d="M2112.32 261.143 L2112.32 259.587 L2113.53 259.587 Q2116.27 259.587 2116.89 259.142 Q2117.53 258.673 2117.53 257.191 L2117.53 230.536 Q2117.53 229.078 2116.89 228.634 Q2116.25 228.164 2113.53 228.164 L2112.32 228.164 L2112.32 226.583 Q2114.1 226.732 2119.8 226.732 Q2125.46 226.732 2127.24 226.583 L2127.24 228.164 L2126.03 228.164 Q2123.29 228.164 2122.64 228.634 Q2122.03 229.078 2122.03 230.536 L2122.03 246.618 L2137.86 231.499 Q2138.78 230.684 2138.78 229.82 Q2138.78 229.523 2138.63 229.202 Q2138.5 228.856 2137.91 228.51 Q2137.34 228.164 2136.43 228.164 L2136.43 226.583 Q2138.16 226.732 2142.88 226.732 Q2145.86 226.732 2147.17 226.583 L2147.17 228.164 Q2142.97 228.214 2139.99 231.203 L2130.87 239.948 L2142.55 257.141 Q2143.62 258.698 2144.65 259.142 Q2145.69 259.587 2147.87 259.587 L2147.87 261.143 Q2144.68 260.995 2142.06 260.995 Q2136.6 260.995 2134.82 261.143 L2134.82 259.587 Q2137.81 259.587 2137.81 258.056 Q2137.81 257.487 2137.05 256.326 L2127.88 242.789 L2122.03 248.347 L2122.03 257.191 Q2122.03 258.648 2122.64 259.118 Q2123.29 259.587 2126.03 259.587 L2127.24 259.587 L2127.24 261.143 Q2125.46 260.995 2119.75 260.995 Q2114.1 260.995 2112.32 261.143 Z" fill="#000000" fill-rule="nonzero" fill-opacity="1" /><path clip-path="url(#clip360)" d="M2154.44 232.265 L2154.44 230.684 Q2160.51 230.684 2163.65 227.448 Q2164.52 227.448 2164.66 227.646 Q2164.81 227.843 2164.81 228.757 L2164.81 257.141 Q2164.81 258.648 2165.55 259.118 Q2166.29 259.587 2169.53 259.587 L2171.14 259.587 L2171.14 261.143 Q2169.36 260.995 2162.94 260.995 Q2156.51 260.995 2154.76 261.143 L2154.76 259.587 L2156.36 259.587 Q2159.55 259.587 2160.32 259.142 Q2161.08 258.673 2161.08 257.141 L2161.08 230.931 Q2158.44 232.265 2154.44 232.265 Z" fill="#000000" fill-rule="nonzero" fill-opacity="1" /><path clip-path="url(#clip360)" d="M2180.25 248.495 Q2180.25 239.948 2183.44 233.056 Q2184.8 230.165 2186.7 227.744 Q2188.6 225.324 2189.86 224.261 Q2191.12 223.199 2191.47 223.199 Q2191.96 223.199 2191.99 223.693 Q2191.99 223.94 2191.32 224.558 Q2183.17 232.858 2183.19 248.495 Q2183.19 264.182 2191.12 272.161 Q2191.99 273.026 2191.99 273.297 Q2191.99 273.792 2191.47 273.792 Q2191.12 273.792 2189.91 272.779 Q2188.7 271.766 2186.82 269.444 Q2184.95 267.122 2183.59 264.281 Q2180.25 257.389 2180.25 248.495 Z" fill="#000000" fill-rule="nonzero" fill-opacity="1" /><path clip-path="url(#clip360)" d="M2197.37 252.991 Q2197.37 251.484 2198.19 250.916 Q2199 250.323 2199.87 250.323 Q2201.03 250.323 2201.69 251.064 Q2202.39 251.781 2202.39 252.794 Q2202.39 253.807 2201.69 254.548 Q2201.03 255.264 2199.87 255.264 Q2199.3 255.264 2199 255.165 Q2199.67 257.487 2201.69 259.167 Q2203.74 260.847 2206.44 260.847 Q2209.82 260.847 2211.85 257.561 Q2213.06 255.437 2213.06 250.62 Q2213.06 246.371 2212.14 244.246 Q2210.74 241.01 2207.85 241.01 Q2203.74 241.01 2201.32 244.543 Q2201.03 244.987 2200.68 245.012 Q2200.19 245.012 2200.06 244.74 Q2199.97 244.444 2199.97 243.678 L2199.97 228.708 Q2199.97 227.497 2200.46 227.497 Q2200.66 227.497 2201.08 227.646 Q2204.26 229.054 2207.8 229.078 Q2211.43 229.078 2214.69 227.596 Q2214.94 227.448 2215.08 227.448 Q2215.58 227.448 2215.6 228.016 Q2215.6 228.214 2215.18 228.807 Q2214.79 229.375 2213.92 230.141 Q2213.06 230.882 2211.95 231.598 Q2210.83 232.315 2209.2 232.809 Q2207.6 233.278 2205.82 233.278 Q2203.7 233.278 2201.52 232.611 L2201.52 242.468 Q2204.14 239.899 2207.94 239.899 Q2212 239.899 2214.79 243.159 Q2217.58 246.42 2217.58 250.966 Q2217.58 255.733 2214.27 258.994 Q2210.98 262.255 2206.54 262.255 Q2202.49 262.255 2199.92 259.365 Q2197.37 256.475 2197.37 252.991 Z" fill="#000000" fill-rule="nonzero" fill-opacity="1" /><path clip-path="url(#clip360)" d="M2223.04 273.297 Q2223.04 273.05 2223.68 272.433 Q2231.83 264.133 2231.83 248.495 Q2231.83 232.809 2224 224.879 Q2223.04 223.965 2223.04 223.693 Q2223.04 223.199 2223.53 223.199 Q2223.88 223.199 2225.09 224.212 Q2226.32 225.225 2228.18 227.547 Q2230.05 229.869 2231.44 232.71 Q2234.77 239.602 2234.77 248.495 Q2234.77 257.043 2231.59 263.935 Q2230.23 266.825 2228.32 269.246 Q2226.42 271.667 2225.16 272.729 Q2223.9 273.792 2223.53 273.792 Q2223.04 273.792 2223.04 273.297 Z" fill="#000000" fill-rule="nonzero" fill-opacity="1" /><polyline clip-path="url(#clip360)" style="stroke:#ff0000; stroke-linecap:round; stroke-linejoin:round; stroke-width:12; stroke-opacity:1; fill:none" points="1924.05,295.703 2055.95,295.703 "/>
<path clip-path="url(#clip360)" d="M1990 275.348 L1969.64 295.703 L1990 316.059 L2010.35 295.703 L1990 275.348 Z" fill="#ff0000" fill-rule="evenodd" fill-opacity="1" stroke="#000000" stroke-opacity="1" stroke-width="2.31304"/>
<path clip-path="url(#clip360)" d="M2077.93 312.983 L2077.93 311.427 L2079.14 311.427 Q2081.88 311.427 2082.5 310.982 Q2083.14 310.513 2083.14 309.031 L2083.14 282.524 Q2083.14 281.067 2082.5 280.622 Q2081.86 280.153 2079.14 280.153 L2077.93 280.153 L2077.93 278.572 L2106.41 278.572 L2107.82 289.96 L2106.56 289.96 Q2106.22 287.07 2105.75 285.414 Q2105.3 283.735 2104.19 282.45 Q2103.1 281.166 2101.3 280.671 Q2099.52 280.153 2096.63 280.153 L2090.11 280.153 Q2088.38 280.153 2088.01 280.523 Q2087.64 280.869 2087.64 282.178 L2087.64 294.308 L2092.18 294.308 Q2095.67 294.308 2096.66 293.097 Q2097.64 291.887 2097.64 288.404 L2098.93 288.404 L2098.93 301.793 L2097.64 301.793 Q2097.64 298.359 2096.66 297.124 Q2095.67 295.889 2092.18 295.889 L2087.64 295.889 L2087.64 309.401 Q2087.64 310.711 2088.01 311.081 Q2088.4 311.427 2090.11 311.427 L2096.85 311.427 Q2099.03 311.427 2100.61 311.155 Q2102.21 310.859 2103.33 310.167 Q2104.44 309.451 2105.18 308.636 Q2105.94 307.82 2106.46 306.363 Q2107.01 304.881 2107.3 303.522 Q2107.62 302.163 2107.97 299.94 L2109.23 299.94 L2107.11 312.983 L2077.93 312.983 Z" fill="#000000" fill-rule="nonzero" fill-opacity="1" /><path clip-path="url(#clip360)" d="M2112.32 312.983 L2112.32 311.427 L2113.53 311.427 Q2116.27 311.427 2116.89 310.982 Q2117.53 310.513 2117.53 309.031 L2117.53 282.376 Q2117.53 280.918 2116.89 280.474 Q2116.25 280.004 2113.53 280.004 L2112.32 280.004 L2112.32 278.423 Q2114.1 278.572 2119.8 278.572 Q2125.46 278.572 2127.24 278.423 L2127.24 280.004 L2126.03 280.004 Q2123.29 280.004 2122.64 280.474 Q2122.03 280.918 2122.03 282.376 L2122.03 298.458 L2137.86 283.339 Q2138.78 282.524 2138.78 281.66 Q2138.78 281.363 2138.63 281.042 Q2138.5 280.696 2137.91 280.35 Q2137.34 280.004 2136.43 280.004 L2136.43 278.423 Q2138.16 278.572 2142.88 278.572 Q2145.86 278.572 2147.17 278.423 L2147.17 280.004 Q2142.97 280.054 2139.99 283.043 L2130.87 291.788 L2142.55 308.981 Q2143.62 310.538 2144.65 310.982 Q2145.69 311.427 2147.87 311.427 L2147.87 312.983 Q2144.68 312.835 2142.06 312.835 Q2136.6 312.835 2134.82 312.983 L2134.82 311.427 Q2137.81 311.427 2137.81 309.896 Q2137.81 309.327 2137.05 308.166 L2127.88 294.629 L2122.03 300.187 L2122.03 309.031 Q2122.03 310.488 2122.64 310.958 Q2123.29 311.427 2126.03 311.427 L2127.24 311.427 L2127.24 312.983 Q2125.46 312.835 2119.75 312.835 Q2114.1 312.835 2112.32 312.983 Z" fill="#000000" fill-rule="nonzero" fill-opacity="1" /><path clip-path="url(#clip360)" d="M2154.44 284.105 L2154.44 282.524 Q2160.51 282.524 2163.65 279.288 Q2164.52 279.288 2164.66 279.486 Q2164.81 279.683 2164.81 280.597 L2164.81 308.981 Q2164.81 310.488 2165.55 310.958 Q2166.29 311.427 2169.53 311.427 L2171.14 311.427 L2171.14 312.983 Q2169.36 312.835 2162.94 312.835 Q2156.51 312.835 2154.76 312.983 L2154.76 311.427 L2156.36 311.427 Q2159.55 311.427 2160.32 310.982 Q2161.08 310.513 2161.08 308.981 L2161.08 282.771 Q2158.44 284.105 2154.44 284.105 Z" fill="#000000" fill-rule="nonzero" fill-opacity="1" /><path clip-path="url(#clip360)" d="M2180.25 300.335 Q2180.25 291.788 2183.44 284.896 Q2184.8 282.005 2186.7 279.584 Q2188.6 277.164 2189.86 276.101 Q2191.12 275.039 2191.47 275.039 Q2191.96 275.039 2191.99 275.533 Q2191.99 275.78 2191.32 276.398 Q2183.17 284.698 2183.19 300.335 Q2183.19 316.022 2191.12 324.001 Q2191.99 324.866 2191.99 325.137 Q2191.99 325.632 2191.47 325.632 Q2191.12 325.632 2189.91 324.619 Q2188.7 323.606 2186.82 321.284 Q2184.95 318.962 2183.59 316.121 Q2180.25 309.229 2180.25 300.335 Z" fill="#000000" fill-rule="nonzero" fill-opacity="1" /><path clip-path="url(#clip360)" d="M2196.98 297 Q2196.98 289.046 2201.03 284.179 Q2205.08 279.288 2210.29 279.288 Q2213.33 279.288 2215.01 280.844 Q2216.71 282.376 2216.71 284.748 Q2216.71 286.057 2215.95 286.625 Q2215.18 287.193 2214.39 287.193 Q2213.48 287.193 2212.76 286.576 Q2212.05 285.958 2212.05 284.846 Q2212.05 282.574 2214.84 282.574 Q2213.53 280.548 2210.39 280.548 Q2209.43 280.548 2208.44 280.844 Q2207.45 281.116 2206.17 282.055 Q2204.88 282.994 2203.89 284.476 Q2202.91 285.958 2202.21 288.749 Q2201.52 291.541 2201.52 295.172 L2201.52 296.383 Q2203.6 291.368 2207.85 291.393 Q2212.09 291.393 2215.03 294.629 Q2217.97 297.865 2217.97 302.657 Q2217.97 307.573 2214.91 310.834 Q2211.85 314.095 2207.55 314.095 Q2205.62 314.095 2203.87 313.28 Q2202.14 312.489 2200.51 310.661 Q2198.9 308.833 2197.94 305.325 Q2196.98 301.818 2196.98 297 M2201.62 301.546 Q2201.62 306.511 2202.53 308.883 Q2202.68 309.278 2203 309.821 Q2203.35 310.365 2203.92 311.081 Q2204.51 311.773 2205.47 312.242 Q2206.44 312.687 2207.55 312.687 Q2210.93 312.687 2212.56 309.401 Q2213.43 307.573 2213.43 302.608 Q2213.43 297.544 2212.51 295.691 Q2210.96 292.554 2207.8 292.554 Q2205.67 292.554 2204.19 294.011 Q2202.73 295.469 2202.16 297.42 Q2201.62 299.372 2201.62 301.546 Z" fill="#000000" fill-rule="nonzero" fill-opacity="1" /><path clip-path="url(#clip360)" d="M2223.04 325.137 Q2223.04 324.89 2223.68 324.273 Q2231.83 315.973 2231.83 300.335 Q2231.83 284.649 2224 276.719 Q2223.04 275.805 2223.04 275.533 Q2223.04 275.039 2223.53 275.039 Q2223.88 275.039 2225.09 276.052 Q2226.32 277.065 2228.18 279.387 Q2230.05 281.709 2231.44 284.55 Q2234.77 291.442 2234.77 300.335 Q2234.77 308.883 2231.59 315.775 Q2230.23 318.665 2228.32 321.086 Q2226.42 323.507 2225.16 324.569 Q2223.9 325.632 2223.53 325.632 Q2223.04 325.632 2223.04 325.137 Z" fill="#000000" fill-rule="nonzero" fill-opacity="1" /></svg>
