<?xml version="1.0" encoding="utf-8"?>
<svg xmlns="http://www.w3.org/2000/svg" xmlns:xlink="http://www.w3.org/1999/xlink" width="576" height="384" viewBox="0 0 2304 1536">
<defs>
  <clipPath id="clip620">
    <rect x="0" y="0" width="2304" height="1536"/>
  </clipPath>
</defs>
<path clip-path="url(#clip620)" d="M0 1536 L2304 1536 L2304 0 L0 0  Z" fill="#ffffff" fill-rule="evenodd" fill-opacity="1"/>
<defs>
  <clipPath id="clip621">
    <rect x="460" y="0" width="1614" height="1536"/>
  </clipPath>
</defs>
<path clip-path="url(#clip620)" d="M143.739 1292.51 L2256.76 1292.51 L2256.76 114.832 L143.739 114.832  Z" fill="#ffffff" fill-rule="evenodd" fill-opacity="1"/>
<defs>
  <clipPath id="clip622">
    <rect x="143" y="114" width="2114" height="1179"/>
  </clipPath>
</defs>
<polyline clip-path="url(#clip622)" style="stroke:#000000; stroke-linecap:round; stroke-linejoin:round; stroke-width:2.8; stroke-opacity:0.4; fill:none" points="143.739,1292.51 143.739,114.832 "/>
<polyline clip-path="url(#clip622)" style="stroke:#000000; stroke-linecap:round; stroke-linejoin:round; stroke-width:2.8; stroke-opacity:0.4; fill:none" points="566.343,1292.51 566.343,114.832 "/>
<polyline clip-path="url(#clip622)" style="stroke:#000000; stroke-linecap:round; stroke-linejoin:round; stroke-width:2.8; stroke-opacity:0.4; fill:none" points="988.946,1292.51 988.946,114.832 "/>
<polyline clip-path="url(#clip622)" style="stroke:#000000; stroke-linecap:round; stroke-linejoin:round; stroke-width:2.8; stroke-opacity:0.4; fill:none" points="1411.55,1292.51 1411.55,114.832 "/>
<polyline clip-path="url(#clip622)" style="stroke:#000000; stroke-linecap:round; stroke-linejoin:round; stroke-width:2.8; stroke-opacity:0.4; fill:none" points="1834.15,1292.51 1834.15,114.832 "/>
<polyline clip-path="url(#clip622)" style="stroke:#000000; stroke-linecap:round; stroke-linejoin:round; stroke-width:2.8; stroke-opacity:0.4; fill:none" points="2256.76,1292.51 2256.76,114.832 "/>
<polyline clip-path="url(#clip622)" style="stroke:#000000; stroke-linecap:round; stroke-linejoin:round; stroke-width:2; stroke-opacity:0.06; fill:none" points="228.26,1292.51 228.26,114.832 "/>
<polyline clip-path="url(#clip622)" style="stroke:#000000; stroke-linecap:round; stroke-linejoin:round; stroke-width:2; stroke-opacity:0.06; fill:none" points="312.781,1292.51 312.781,114.832 "/>
<polyline clip-path="url(#clip622)" style="stroke:#000000; stroke-linecap:round; stroke-linejoin:round; stroke-width:2; stroke-opacity:0.06; fill:none" points="397.301,1292.51 397.301,114.832 "/>
<polyline clip-path="url(#clip622)" style="stroke:#000000; stroke-linecap:round; stroke-linejoin:round; stroke-width:2; stroke-opacity:0.06; fill:none" points="481.822,1292.51 481.822,114.832 "/>
<polyline clip-path="url(#clip622)" style="stroke:#000000; stroke-linecap:round; stroke-linejoin:round; stroke-width:2; stroke-opacity:0.06; fill:none" points="650.863,1292.51 650.863,114.832 "/>
<polyline clip-path="url(#clip622)" style="stroke:#000000; stroke-linecap:round; stroke-linejoin:round; stroke-width:2; stroke-opacity:0.06; fill:none" points="735.384,1292.51 735.384,114.832 "/>
<polyline clip-path="url(#clip622)" style="stroke:#000000; stroke-linecap:round; stroke-linejoin:round; stroke-width:2; stroke-opacity:0.06; fill:none" points="819.905,1292.51 819.905,114.832 "/>
<polyline clip-path="url(#clip622)" style="stroke:#000000; stroke-linecap:round; stroke-linejoin:round; stroke-width:2; stroke-opacity:0.06; fill:none" points="904.425,1292.51 904.425,114.832 "/>
<polyline clip-path="url(#clip622)" style="stroke:#000000; stroke-linecap:round; stroke-linejoin:round; stroke-width:2; stroke-opacity:0.06; fill:none" points="1073.47,1292.51 1073.47,114.832 "/>
<polyline clip-path="url(#clip622)" style="stroke:#000000; stroke-linecap:round; stroke-linejoin:round; stroke-width:2; stroke-opacity:0.06; fill:none" points="1157.99,1292.51 1157.99,114.832 "/>
<polyline clip-path="url(#clip622)" style="stroke:#000000; stroke-linecap:round; stroke-linejoin:round; stroke-width:2; stroke-opacity:0.06; fill:none" points="1242.51,1292.51 1242.51,114.832 "/>
<polyline clip-path="url(#clip622)" style="stroke:#000000; stroke-linecap:round; stroke-linejoin:round; stroke-width:2; stroke-opacity:0.06; fill:none" points="1327.03,1292.51 1327.03,114.832 "/>
<polyline clip-path="url(#clip622)" style="stroke:#000000; stroke-linecap:round; stroke-linejoin:round; stroke-width:2; stroke-opacity:0.06; fill:none" points="1496.07,1292.51 1496.07,114.832 "/>
<polyline clip-path="url(#clip622)" style="stroke:#000000; stroke-linecap:round; stroke-linejoin:round; stroke-width:2; stroke-opacity:0.06; fill:none" points="1580.59,1292.51 1580.59,114.832 "/>
<polyline clip-path="url(#clip622)" style="stroke:#000000; stroke-linecap:round; stroke-linejoin:round; stroke-width:2; stroke-opacity:0.06; fill:none" points="1665.11,1292.51 1665.11,114.832 "/>
<polyline clip-path="url(#clip622)" style="stroke:#000000; stroke-linecap:round; stroke-linejoin:round; stroke-width:2; stroke-opacity:0.06; fill:none" points="1749.63,1292.51 1749.63,114.832 "/>
<polyline clip-path="url(#clip622)" style="stroke:#000000; stroke-linecap:round; stroke-linejoin:round; stroke-width:2; stroke-opacity:0.06; fill:none" points="1918.67,1292.51 1918.67,114.832 "/>
<polyline clip-path="url(#clip622)" style="stroke:#000000; stroke-linecap:round; stroke-linejoin:round; stroke-width:2; stroke-opacity:0.06; fill:none" points="2003.19,1292.51 2003.19,114.832 "/>
<polyline clip-path="url(#clip622)" style="stroke:#000000; stroke-linecap:round; stroke-linejoin:round; stroke-width:2; stroke-opacity:0.06; fill:none" points="2087.71,1292.51 2087.71,114.832 "/>
<polyline clip-path="url(#clip622)" style="stroke:#000000; stroke-linecap:round; stroke-linejoin:round; stroke-width:2; stroke-opacity:0.06; fill:none" points="2172.24,1292.51 2172.24,114.832 "/>
<polyline clip-path="url(#clip620)" style="stroke:#000000; stroke-linecap:round; stroke-linejoin:round; stroke-width:4; stroke-opacity:1; fill:none" points="143.739,1292.51 2256.76,1292.51 "/>
<polyline clip-path="url(#clip620)" style="stroke:#000000; stroke-linecap:round; stroke-linejoin:round; stroke-width:4; stroke-opacity:1; fill:none" points="143.739,114.832 2256.76,114.832 "/>
<polyline clip-path="url(#clip620)" style="stroke:#000000; stroke-linecap:round; stroke-linejoin:round; stroke-width:4; stroke-opacity:1; fill:none" points="143.739,1292.51 143.739,1273.61 "/>
<polyline clip-path="url(#clip620)" style="stroke:#000000; stroke-linecap:round; stroke-linejoin:round; stroke-width:4; stroke-opacity:1; fill:none" points="566.343,1292.51 566.343,1273.61 "/>
<polyline clip-path="url(#clip620)" style="stroke:#000000; stroke-linecap:round; stroke-linejoin:round; stroke-width:4; stroke-opacity:1; fill:none" points="988.946,1292.51 988.946,1273.61 "/>
<polyline clip-path="url(#clip620)" style="stroke:#000000; stroke-linecap:round; stroke-linejoin:round; stroke-width:4; stroke-opacity:1; fill:none" points="1411.55,1292.51 1411.55,1273.61 "/>
<polyline clip-path="url(#clip620)" style="stroke:#000000; stroke-linecap:round; stroke-linejoin:round; stroke-width:4; stroke-opacity:1; fill:none" points="1834.15,1292.51 1834.15,1273.61 "/>
<polyline clip-path="url(#clip620)" style="stroke:#000000; stroke-linecap:round; stroke-linejoin:round; stroke-width:4; stroke-opacity:1; fill:none" points="2256.76,1292.51 2256.76,1273.61 "/>
<polyline clip-path="url(#clip620)" style="stroke:#000000; stroke-linecap:round; stroke-linejoin:round; stroke-width:4; stroke-opacity:1; fill:none" points="228.26,1292.51 228.26,1283.06 "/>
<polyline clip-path="url(#clip620)" style="stroke:#000000; stroke-linecap:round; stroke-linejoin:round; stroke-width:4; stroke-opacity:1; fill:none" points="312.781,1292.51 312.781,1283.06 "/>
<polyline clip-path="url(#clip620)" style="stroke:#000000; stroke-linecap:round; stroke-linejoin:round; stroke-width:4; stroke-opacity:1; fill:none" points="397.301,1292.51 397.301,1283.06 "/>
<polyline clip-path="url(#clip620)" style="stroke:#000000; stroke-linecap:round; stroke-linejoin:round; stroke-width:4; stroke-opacity:1; fill:none" points="481.822,1292.51 481.822,1283.06 "/>
<polyline clip-path="url(#clip620)" style="stroke:#000000; stroke-linecap:round; stroke-linejoin:round; stroke-width:4; stroke-opacity:1; fill:none" points="650.863,1292.51 650.863,1283.06 "/>
<polyline clip-path="url(#clip620)" style="stroke:#000000; stroke-linecap:round; stroke-linejoin:round; stroke-width:4; stroke-opacity:1; fill:none" points="735.384,1292.51 735.384,1283.06 "/>
<polyline clip-path="url(#clip620)" style="stroke:#000000; stroke-linecap:round; stroke-linejoin:round; stroke-width:4; stroke-opacity:1; fill:none" points="819.905,1292.51 819.905,1283.06 "/>
<polyline clip-path="url(#clip620)" style="stroke:#000000; stroke-linecap:round; stroke-linejoin:round; stroke-width:4; stroke-opacity:1; fill:none" points="904.425,1292.51 904.425,1283.06 "/>
<polyline clip-path="url(#clip620)" style="stroke:#000000; stroke-linecap:round; stroke-linejoin:round; stroke-width:4; stroke-opacity:1; fill:none" points="1073.47,1292.51 1073.47,1283.06 "/>
<polyline clip-path="url(#clip620)" style="stroke:#000000; stroke-linecap:round; stroke-linejoin:round; stroke-width:4; stroke-opacity:1; fill:none" points="1157.99,1292.51 1157.99,1283.06 "/>
<polyline clip-path="url(#clip620)" style="stroke:#000000; stroke-linecap:round; stroke-linejoin:round; stroke-width:4; stroke-opacity:1; fill:none" points="1242.51,1292.51 1242.51,1283.06 "/>
<polyline clip-path="url(#clip620)" style="stroke:#000000; stroke-linecap:round; stroke-linejoin:round; stroke-width:4; stroke-opacity:1; fill:none" points="1327.03,1292.51 1327.03,1283.06 "/>
<polyline clip-path="url(#clip620)" style="stroke:#000000; stroke-linecap:round; stroke-linejoin:round; stroke-width:4; stroke-opacity:1; fill:none" points="1496.07,1292.51 1496.07,1283.06 "/>
<polyline clip-path="url(#clip620)" style="stroke:#000000; stroke-linecap:round; stroke-linejoin:round; stroke-width:4; stroke-opacity:1; fill:none" points="1580.59,1292.51 1580.59,1283.06 "/>
<polyline clip-path="url(#clip620)" style="stroke:#000000; stroke-linecap:round; stroke-linejoin:round; stroke-width:4; stroke-opacity:1; fill:none" points="1665.11,1292.51 1665.11,1283.06 "/>
<polyline clip-path="url(#clip620)" style="stroke:#000000; stroke-linecap:round; stroke-linejoin:round; stroke-width:4; stroke-opacity:1; fill:none" points="1749.63,1292.51 1749.63,1283.06 "/>
<polyline clip-path="url(#clip620)" style="stroke:#000000; stroke-linecap:round; stroke-linejoin:round; stroke-width:4; stroke-opacity:1; fill:none" points="1918.67,1292.51 1918.67,1283.06 "/>
<polyline clip-path="url(#clip620)" style="stroke:#000000; stroke-linecap:round; stroke-linejoin:round; stroke-width:4; stroke-opacity:1; fill:none" points="2003.19,1292.51 2003.19,1283.06 "/>
<polyline clip-path="url(#clip620)" style="stroke:#000000; stroke-linecap:round; stroke-linejoin:round; stroke-width:4; stroke-opacity:1; fill:none" points="2087.71,1292.51 2087.71,1283.06 "/>
<polyline clip-path="url(#clip620)" style="stroke:#000000; stroke-linecap:round; stroke-linejoin:round; stroke-width:4; stroke-opacity:1; fill:none" points="2172.24,1292.51 2172.24,1283.06 "/>
<path clip-path="url(#clip620)" d="M133.092 1337.96 Q133.092 1330.52 134.969 1326.47 Q137.588 1320.44 143.764 1320.44 Q145.073 1320.44 146.432 1320.81 Q147.815 1321.16 149.544 1322.52 Q151.298 1323.88 152.361 1326.1 Q154.386 1330.4 154.386 1337.96 Q154.386 1345.35 152.509 1349.37 Q149.767 1355.25 143.714 1355.25 Q141.442 1355.25 139.12 1354.09 Q136.822 1352.93 135.365 1350.14 Q133.092 1345.96 133.092 1337.96 M137.292 1337.34 Q137.292 1344.97 137.835 1348.01 Q138.453 1351.3 140.132 1352.73 Q141.837 1354.14 143.714 1354.14 Q145.74 1354.14 147.42 1352.63 Q149.125 1351.1 149.643 1347.82 Q150.211 1344.58 150.187 1337.34 Q150.187 1330.3 149.693 1327.48 Q149.026 1324.2 147.247 1322.89 Q145.493 1321.56 143.714 1321.56 Q143.047 1321.56 142.331 1321.75 Q141.639 1321.95 140.627 1322.52 Q139.614 1323.09 138.823 1324.5 Q138.057 1325.9 137.687 1328.03 Q137.292 1330.77 137.292 1337.34 Z" fill="#000000" fill-rule="nonzero" fill-opacity="1" /><path clip-path="url(#clip620)" d="M556.239 1354.14 Q556.239 1353.23 556.313 1352.95 Q556.412 1352.68 556.807 1352.26 L566.515 1341.44 Q571.827 1335.46 571.827 1330.25 Q571.827 1326.87 570.048 1324.45 Q568.294 1322.03 565.058 1322.03 Q562.835 1322.03 560.957 1323.38 Q559.08 1324.74 558.215 1327.16 Q558.363 1327.11 558.882 1327.11 Q560.142 1327.11 560.834 1327.9 Q561.55 1328.7 561.55 1329.76 Q561.55 1331.12 560.661 1331.78 Q559.796 1332.43 558.932 1332.43 Q558.586 1332.43 558.116 1332.35 Q557.672 1332.28 556.955 1331.59 Q556.239 1330.87 556.239 1329.61 Q556.239 1326.08 558.907 1323.26 Q561.599 1320.44 565.7 1320.44 Q570.344 1320.44 573.383 1323.21 Q576.446 1325.95 576.446 1330.25 Q576.446 1331.76 575.977 1333.14 Q575.532 1334.5 574.915 1335.56 Q574.322 1336.63 572.691 1338.33 Q571.061 1340.03 569.752 1341.24 Q568.442 1342.46 565.503 1345.02 L560.142 1350.24 L569.258 1350.24 Q573.704 1350.24 574.05 1349.84 Q574.544 1349.12 575.162 1345.35 L576.446 1345.35 L575.013 1354.14 L556.239 1354.14 Z" fill="#000000" fill-rule="nonzero" fill-opacity="1" /><path clip-path="url(#clip620)" d="M977.731 1345.79 L977.731 1344.23 L993.269 1320.49 Q993.664 1319.88 994.282 1319.9 Q994.85 1319.9 994.973 1320.12 Q995.097 1320.35 995.097 1321.21 L995.097 1344.23 L1000.16 1344.23 L1000.16 1345.79 L995.097 1345.79 L995.097 1350.19 Q995.097 1351.64 995.69 1352.11 Q996.307 1352.58 998.926 1352.58 L999.988 1352.58 L999.988 1354.14 Q997.913 1353.99 993.121 1353.99 Q988.353 1353.99 986.278 1354.14 L986.278 1352.58 L987.34 1352.58 Q989.959 1352.58 990.576 1352.14 Q991.194 1351.67 991.194 1350.19 L991.194 1345.79 L977.731 1345.79 M979.163 1344.23 L991.49 1344.23 L991.49 1325.36 L979.163 1344.23 Z" fill="#000000" fill-rule="nonzero" fill-opacity="1" /><path clip-path="url(#clip620)" d="M1401.05 1338.16 Q1401.05 1330.2 1405.1 1325.34 Q1409.15 1320.44 1414.37 1320.44 Q1417.4 1320.44 1419.08 1322 Q1420.79 1323.53 1420.79 1325.9 Q1420.79 1327.21 1420.02 1327.78 Q1419.26 1328.35 1418.47 1328.35 Q1417.55 1328.35 1416.84 1327.73 Q1416.12 1327.11 1416.12 1326 Q1416.12 1323.73 1418.91 1323.73 Q1417.6 1321.7 1414.46 1321.7 Q1413.5 1321.7 1412.51 1322 Q1411.52 1322.27 1410.24 1323.21 Q1408.96 1324.15 1407.97 1325.63 Q1406.98 1327.11 1406.29 1329.91 Q1405.6 1332.7 1405.6 1336.33 L1405.6 1337.54 Q1407.67 1332.52 1411.92 1332.55 Q1416.17 1332.55 1419.11 1335.79 Q1422.05 1339.02 1422.05 1343.81 Q1422.05 1348.73 1418.98 1351.99 Q1415.92 1355.25 1411.62 1355.25 Q1409.7 1355.25 1407.94 1354.44 Q1406.21 1353.65 1404.58 1351.82 Q1402.98 1349.99 1402.01 1346.48 Q1401.05 1342.97 1401.05 1338.16 M1405.69 1342.7 Q1405.69 1347.67 1406.61 1350.04 Q1406.76 1350.43 1407.08 1350.98 Q1407.42 1351.52 1407.99 1352.24 Q1408.58 1352.93 1409.55 1353.4 Q1410.51 1353.84 1411.62 1353.84 Q1415.01 1353.84 1416.64 1350.56 Q1417.5 1348.73 1417.5 1343.76 Q1417.5 1338.7 1416.59 1336.85 Q1415.03 1333.71 1411.87 1333.71 Q1409.75 1333.71 1408.26 1335.17 Q1406.81 1336.63 1406.24 1338.58 Q1405.69 1340.53 1405.69 1342.7 Z" fill="#000000" fill-rule="nonzero" fill-opacity="1" /><path clip-path="url(#clip620)" d="M1823.65 1346.51 Q1823.65 1340.85 1830.94 1337.19 Q1827.8 1335.07 1827.24 1334.45 Q1825.01 1331.98 1825.01 1328.89 Q1825.01 1325.36 1827.68 1322.91 Q1830.37 1320.44 1834.18 1320.44 Q1837.81 1320.44 1840.55 1322.54 Q1843.29 1324.64 1843.29 1327.98 Q1843.29 1332.67 1837.17 1335.83 Q1841.22 1338.35 1842.18 1339.42 Q1844.65 1342.16 1844.65 1345.64 Q1844.65 1349.69 1841.54 1352.48 Q1838.43 1355.25 1834.13 1355.25 Q1829.93 1355.25 1826.79 1352.81 Q1823.65 1350.36 1823.65 1346.51 M1826.17 1346.51 Q1826.17 1349.64 1828.52 1351.74 Q1830.89 1353.84 1834.18 1353.84 Q1837.36 1353.84 1839.74 1352.02 Q1842.13 1350.19 1842.13 1347.47 Q1842.13 1346.41 1841.76 1345.49 Q1841.42 1344.58 1840.7 1343.86 Q1840.01 1343.12 1839.56 1342.8 Q1839.14 1342.46 1838.33 1341.89 L1832.1 1337.96 Q1826.17 1341.24 1826.17 1346.51 M1827.24 1326.92 Q1827.24 1329.34 1829.78 1331.02 L1836.05 1335.07 Q1841.07 1332.13 1841.07 1327.98 Q1841.07 1325.29 1839.02 1323.51 Q1836.97 1321.7 1834.13 1321.7 Q1831.34 1321.7 1829.29 1323.19 Q1827.24 1324.64 1827.24 1326.92 Z" fill="#000000" fill-rule="nonzero" fill-opacity="1" /><path clip-path="url(#clip620)" d="M2234.72 1325.26 L2234.72 1323.68 Q2240.8 1323.68 2243.93 1320.44 Q2244.8 1320.44 2244.95 1320.64 Q2245.1 1320.84 2245.1 1321.75 L2245.1 1350.14 Q2245.1 1351.64 2245.84 1352.11 Q2246.58 1352.58 2249.81 1352.58 L2251.42 1352.58 L2251.42 1354.14 Q2249.64 1353.99 2243.22 1353.99 Q2236.8 1353.99 2235.04 1354.14 L2235.04 1352.58 L2236.65 1352.58 Q2239.83 1352.58 2240.6 1352.14 Q2241.37 1351.67 2241.37 1350.14 L2241.37 1323.93 Q2238.72 1325.26 2234.72 1325.26 Z" fill="#000000" fill-rule="nonzero" fill-opacity="1" /><path clip-path="url(#clip620)" d="M2257.5 1337.96 Q2257.5 1330.52 2259.37 1326.47 Q2261.99 1320.44 2268.17 1320.44 Q2269.48 1320.44 2270.84 1320.81 Q2272.22 1321.16 2273.95 1322.52 Q2275.7 1323.88 2276.77 1326.1 Q2278.79 1330.4 2278.79 1337.96 Q2278.79 1345.35 2276.91 1349.37 Q2274.17 1355.25 2268.12 1355.25 Q2265.85 1355.25 2263.52 1354.09 Q2261.23 1352.93 2259.77 1350.14 Q2257.5 1345.96 2257.5 1337.96 M2261.7 1337.34 Q2261.7 1344.97 2262.24 1348.01 Q2262.86 1351.3 2264.54 1352.73 Q2266.24 1354.14 2268.12 1354.14 Q2270.15 1354.14 2271.82 1352.63 Q2273.53 1351.1 2274.05 1347.82 Q2274.62 1344.58 2274.59 1337.34 Q2274.59 1330.3 2274.1 1327.48 Q2273.43 1324.2 2271.65 1322.89 Q2269.9 1321.56 2268.12 1321.56 Q2267.45 1321.56 2266.74 1321.75 Q2266.04 1321.95 2265.03 1322.52 Q2264.02 1323.09 2263.23 1324.5 Q2262.46 1325.9 2262.09 1328.03 Q2261.7 1330.77 2261.7 1337.34 Z" fill="#000000" fill-rule="nonzero" fill-opacity="1" /><path clip-path="url(#clip620)" d="M1188.37 1410.77 L1188.37 1409.1 Q1191.85 1408.95 1194.15 1406.51 Q1196.49 1404.02 1197.26 1400.99 Q1198.08 1397.95 1198.15 1394.43 L1200.04 1394.43 L1200.04 1408.4 L1210.9 1408.4 L1210.9 1410.77 L1200.04 1410.77 L1200.04 1431.85 Q1200.04 1440.04 1205.16 1440.04 Q1207.34 1440.04 1208.79 1437.82 Q1210.23 1435.56 1210.23 1431.56 L1210.23 1427.37 L1212.12 1427.37 L1212.12 1431.7 Q1212.12 1435.82 1210.23 1438.89 Q1208.34 1441.97 1204.6 1441.97 Q1203.23 1441.97 1201.86 1441.6 Q1200.53 1441.26 1198.75 1440.37 Q1197.01 1439.45 1195.89 1437.22 Q1194.82 1434.96 1194.82 1431.7 L1194.82 1410.77 L1188.37 1410.77 Z" fill="#000000" fill-rule="nonzero" fill-opacity="1" /><polyline clip-path="url(#clip622)" style="stroke:#000000; stroke-linecap:round; stroke-linejoin:round; stroke-width:2.8; stroke-opacity:0.4; fill:none" points="143.739,1259.18 2256.76,1259.18 "/>
<polyline clip-path="url(#clip622)" style="stroke:#000000; stroke-linecap:round; stroke-linejoin:round; stroke-width:2.8; stroke-opacity:0.4; fill:none" points="143.739,892.852 2256.76,892.852 "/>
<polyline clip-path="url(#clip622)" style="stroke:#000000; stroke-linecap:round; stroke-linejoin:round; stroke-width:2.8; stroke-opacity:0.4; fill:none" points="143.739,526.526 2256.76,526.526 "/>
<polyline clip-path="url(#clip622)" style="stroke:#000000; stroke-linecap:round; stroke-linejoin:round; stroke-width:2.8; stroke-opacity:0.4; fill:none" points="143.739,160.2 2256.76,160.2 "/>
<polyline clip-path="url(#clip622)" style="stroke:#000000; stroke-linecap:round; stroke-linejoin:round; stroke-width:2; stroke-opacity:0.06; fill:none" points="143.739,1185.91 2256.76,1185.91 "/>
<polyline clip-path="url(#clip622)" style="stroke:#000000; stroke-linecap:round; stroke-linejoin:round; stroke-width:2; stroke-opacity:0.06; fill:none" points="143.739,1112.65 2256.76,1112.65 "/>
<polyline clip-path="url(#clip622)" style="stroke:#000000; stroke-linecap:round; stroke-linejoin:round; stroke-width:2; stroke-opacity:0.06; fill:none" points="143.739,1039.38 2256.76,1039.38 "/>
<polyline clip-path="url(#clip622)" style="stroke:#000000; stroke-linecap:round; stroke-linejoin:round; stroke-width:2; stroke-opacity:0.06; fill:none" points="143.739,966.117 2256.76,966.117 "/>
<polyline clip-path="url(#clip622)" style="stroke:#000000; stroke-linecap:round; stroke-linejoin:round; stroke-width:2; stroke-opacity:0.06; fill:none" points="143.739,819.586 2256.76,819.586 "/>
<polyline clip-path="url(#clip622)" style="stroke:#000000; stroke-linecap:round; stroke-linejoin:round; stroke-width:2; stroke-opacity:0.06; fill:none" points="143.739,746.321 2256.76,746.321 "/>
<polyline clip-path="url(#clip622)" style="stroke:#000000; stroke-linecap:round; stroke-linejoin:round; stroke-width:2; stroke-opacity:0.06; fill:none" points="143.739,673.056 2256.76,673.056 "/>
<polyline clip-path="url(#clip622)" style="stroke:#000000; stroke-linecap:round; stroke-linejoin:round; stroke-width:2; stroke-opacity:0.06; fill:none" points="143.739,599.791 2256.76,599.791 "/>
<polyline clip-path="url(#clip622)" style="stroke:#000000; stroke-linecap:round; stroke-linejoin:round; stroke-width:2; stroke-opacity:0.06; fill:none" points="143.739,453.26 2256.76,453.26 "/>
<polyline clip-path="url(#clip622)" style="stroke:#000000; stroke-linecap:round; stroke-linejoin:round; stroke-width:2; stroke-opacity:0.06; fill:none" points="143.739,379.995 2256.76,379.995 "/>
<polyline clip-path="url(#clip622)" style="stroke:#000000; stroke-linecap:round; stroke-linejoin:round; stroke-width:2; stroke-opacity:0.06; fill:none" points="143.739,306.73 2256.76,306.73 "/>
<polyline clip-path="url(#clip622)" style="stroke:#000000; stroke-linecap:round; stroke-linejoin:round; stroke-width:2; stroke-opacity:0.06; fill:none" points="143.739,233.465 2256.76,233.465 "/>
<polyline clip-path="url(#clip620)" style="stroke:#000000; stroke-linecap:round; stroke-linejoin:round; stroke-width:4; stroke-opacity:1; fill:none" points="143.739,1292.51 143.739,114.832 "/>
<polyline clip-path="url(#clip620)" style="stroke:#000000; stroke-linecap:round; stroke-linejoin:round; stroke-width:4; stroke-opacity:1; fill:none" points="2256.76,1292.51 2256.76,114.832 "/>
<polyline clip-path="url(#clip620)" style="stroke:#000000; stroke-linecap:round; stroke-linejoin:round; stroke-width:4; stroke-opacity:1; fill:none" points="143.739,1259.18 162.637,1259.18 "/>
<polyline clip-path="url(#clip620)" style="stroke:#000000; stroke-linecap:round; stroke-linejoin:round; stroke-width:4; stroke-opacity:1; fill:none" points="143.739,892.852 162.637,892.852 "/>
<polyline clip-path="url(#clip620)" style="stroke:#000000; stroke-linecap:round; stroke-linejoin:round; stroke-width:4; stroke-opacity:1; fill:none" points="143.739,526.526 162.637,526.526 "/>
<polyline clip-path="url(#clip620)" style="stroke:#000000; stroke-linecap:round; stroke-linejoin:round; stroke-width:4; stroke-opacity:1; fill:none" points="143.739,160.2 162.637,160.2 "/>
<polyline clip-path="url(#clip620)" style="stroke:#000000; stroke-linecap:round; stroke-linejoin:round; stroke-width:4; stroke-opacity:1; fill:none" points="143.739,1185.91 153.188,1185.91 "/>
<polyline clip-path="url(#clip620)" style="stroke:#000000; stroke-linecap:round; stroke-linejoin:round; stroke-width:4; stroke-opacity:1; fill:none" points="143.739,1112.65 153.188,1112.65 "/>
<polyline clip-path="url(#clip620)" style="stroke:#000000; stroke-linecap:round; stroke-linejoin:round; stroke-width:4; stroke-opacity:1; fill:none" points="143.739,1039.38 153.188,1039.38 "/>
<polyline clip-path="url(#clip620)" style="stroke:#000000; stroke-linecap:round; stroke-linejoin:round; stroke-width:4; stroke-opacity:1; fill:none" points="143.739,966.117 153.188,966.117 "/>
<polyline clip-path="url(#clip620)" style="stroke:#000000; stroke-linecap:round; stroke-linejoin:round; stroke-width:4; stroke-opacity:1; fill:none" points="143.739,819.586 153.188,819.586 "/>
<polyline clip-path="url(#clip620)" style="stroke:#000000; stroke-linecap:round; stroke-linejoin:round; stroke-width:4; stroke-opacity:1; fill:none" points="143.739,746.321 153.188,746.321 "/>
<polyline clip-path="url(#clip620)" style="stroke:#000000; stroke-linecap:round; stroke-linejoin:round; stroke-width:4; stroke-opacity:1; fill:none" points="143.739,673.056 153.188,673.056 "/>
<polyline clip-path="url(#clip620)" style="stroke:#000000; stroke-linecap:round; stroke-linejoin:round; stroke-width:4; stroke-opacity:1; fill:none" points="143.739,599.791 153.188,599.791 "/>
<polyline clip-path="url(#clip620)" style="stroke:#000000; stroke-linecap:round; stroke-linejoin:round; stroke-width:4; stroke-opacity:1; fill:none" points="143.739,453.26 153.188,453.26 "/>
<polyline clip-path="url(#clip620)" style="stroke:#000000; stroke-linecap:round; stroke-linejoin:round; stroke-width:4; stroke-opacity:1; fill:none" points="143.739,379.995 153.188,379.995 "/>
<polyline clip-path="url(#clip620)" style="stroke:#000000; stroke-linecap:round; stroke-linejoin:round; stroke-width:4; stroke-opacity:1; fill:none" points="143.739,306.73 153.188,306.73 "/>
<polyline clip-path="url(#clip620)" style="stroke:#000000; stroke-linecap:round; stroke-linejoin:round; stroke-width:4; stroke-opacity:1; fill:none" points="143.739,233.465 153.188,233.465 "/>
<path clip-path="url(#clip620)" d="M84.8711 1263.09 Q85.1675 1263.39 85.1675 1263.81 Q85.1675 1264.23 84.8711 1264.53 Q84.5746 1264.82 84.1547 1264.82 L52.485 1264.82 Q52.065 1264.82 51.7686 1264.53 Q51.4721 1264.23 51.4721 1263.81 Q51.4721 1263.39 51.7686 1263.09 Q52.065 1262.8 52.485 1262.8 L84.1547 1262.8 Q84.5746 1262.8 84.8711 1263.09 Z" fill="#000000" fill-rule="nonzero" fill-opacity="1" /><path clip-path="url(#clip620)" d="M92.4797 1247.58 L92.4797 1246 Q98.5567 1246 101.694 1242.76 Q102.559 1242.76 102.707 1242.96 Q102.855 1243.16 102.855 1244.07 L102.855 1272.46 Q102.855 1273.96 103.596 1274.43 Q104.337 1274.9 107.573 1274.9 L109.179 1274.9 L109.179 1276.46 Q107.401 1276.31 100.978 1276.31 Q94.5548 1276.31 92.8008 1276.46 L92.8008 1274.9 L94.4066 1274.9 Q97.5933 1274.9 98.3591 1274.46 Q99.1249 1273.99 99.1249 1272.46 L99.1249 1246.25 Q96.4816 1247.58 92.4797 1247.58 Z" fill="#000000" fill-rule="nonzero" fill-opacity="1" /><path clip-path="url(#clip620)" d="M87.8849 893.951 Q87.8849 886.515 89.7623 882.464 Q92.3809 876.436 98.5567 876.436 Q99.866 876.436 101.225 876.807 Q102.608 877.153 104.337 878.511 Q106.091 879.87 107.153 882.093 Q109.179 886.392 109.179 893.951 Q109.179 901.337 107.302 905.364 Q104.56 911.243 98.5073 911.243 Q96.2346 911.243 93.9125 910.082 Q91.6151 908.921 90.1576 906.13 Q87.8849 901.955 87.8849 893.951 M92.0844 893.333 Q92.0844 900.967 92.6279 904.005 Q93.2455 907.291 94.9253 908.723 Q96.6299 910.132 98.5073 910.132 Q100.533 910.132 102.213 908.625 Q103.917 907.093 104.436 903.807 Q105.004 900.571 104.98 893.333 Q104.98 886.293 104.486 883.477 Q103.819 880.191 102.04 878.882 Q100.286 877.548 98.5073 877.548 Q97.8403 877.548 97.1239 877.745 Q96.4322 877.943 95.4194 878.511 Q94.4066 879.079 93.6161 880.488 Q92.8503 881.896 92.4797 884.02 Q92.0844 886.762 92.0844 893.333 Z" fill="#000000" fill-rule="nonzero" fill-opacity="1" /><path clip-path="url(#clip620)" d="M92.4797 514.927 L92.4797 513.346 Q98.5567 513.346 101.694 510.11 Q102.559 510.11 102.707 510.308 Q102.855 510.505 102.855 511.419 L102.855 539.804 Q102.855 541.311 103.596 541.78 Q104.337 542.249 107.573 542.249 L109.179 542.249 L109.179 543.806 Q107.401 543.657 100.978 543.657 Q94.5548 543.657 92.8008 543.806 L92.8008 542.249 L94.4066 542.249 Q97.5933 542.249 98.3591 541.805 Q99.1249 541.335 99.1249 539.804 L99.1249 513.593 Q96.4816 514.927 92.4797 514.927 Z" fill="#000000" fill-rule="nonzero" fill-opacity="1" /><path clip-path="url(#clip620)" d="M88.9718 177.48 Q88.9718 176.566 89.0459 176.294 Q89.1447 176.022 89.54 175.602 L99.2484 164.782 Q104.56 158.804 104.56 153.591 Q104.56 150.207 102.781 147.786 Q101.027 145.365 97.7909 145.365 Q95.5676 145.365 93.6902 146.724 Q91.8127 148.083 90.9481 150.504 Q91.0963 150.454 91.6151 150.454 Q92.875 150.454 93.5667 151.245 Q94.283 152.035 94.283 153.097 Q94.283 154.456 93.3937 155.123 Q92.5291 155.765 91.6645 155.765 Q91.3186 155.765 90.8493 155.691 Q90.4046 155.617 89.6882 154.925 Q88.9718 154.209 88.9718 152.949 Q88.9718 149.417 91.6398 146.6 Q94.3325 143.784 98.4332 143.784 Q103.077 143.784 106.116 146.551 Q109.179 149.293 109.179 153.591 Q109.179 155.098 108.71 156.482 Q108.265 157.84 107.648 158.903 Q107.055 159.965 105.424 161.669 Q103.794 163.374 102.485 164.584 Q101.175 165.795 98.2356 168.364 L92.875 173.576 L101.99 173.576 Q106.437 173.576 106.783 173.181 Q107.277 172.465 107.895 168.685 L109.179 168.685 L107.746 177.48 L88.9718 177.48 Z" fill="#000000" fill-rule="nonzero" fill-opacity="1" /><path clip-path="url(#clip620)" d="M863.417 62.208 L863.417 59.8735 L865.233 59.8735 Q869.346 59.8735 870.272 59.2065 Q871.236 58.5025 871.236 56.2792 L871.236 16.2968 Q871.236 14.1106 870.272 13.4436 Q869.309 12.7395 865.233 12.7395 L863.417 12.7395 L863.417 10.368 L887.244 10.368 Q895.507 10.368 901.25 14.4441 Q907.031 18.4831 907.031 24.0413 Q907.031 28.3026 903.288 31.6376 Q899.546 34.9725 893.765 36.4177 Q901.287 39.0115 903.029 45.1997 L903.993 51.2768 Q904.289 53.463 904.474 54.5747 Q904.697 55.6863 905.03 57.2056 Q905.364 58.7248 905.697 59.4659 Q906.068 60.17 906.586 60.9481 Q907.105 61.6892 907.772 61.9486 Q908.476 62.208 909.403 62.208 Q911.144 62.208 912.626 60.6517 Q914.109 59.0954 914.405 55.464 Q914.553 54.2412 915.331 54.2412 Q916.295 54.2412 916.295 55.464 Q916.295 56.5386 915.998 57.7985 Q915.702 59.0213 914.961 60.4664 Q914.257 61.9116 912.7 62.875 Q911.144 63.8755 909.106 63.8755 Q903.177 63.8755 899.546 60.6887 Q898.027 59.3177 897.323 57.5391 Q896.656 55.7604 896.544 54.3523 Q896.433 52.9442 896.433 49.8316 Q896.433 45.4221 895.952 43.4952 Q895.507 41.5683 893.543 39.6785 Q890.875 37.0847 886.465 37.0847 L877.758 37.0847 L877.758 56.2792 Q877.758 58.4654 878.684 59.1695 Q879.647 59.8735 883.76 59.8735 L885.576 59.8735 L885.576 62.208 Q882.834 61.9857 874.497 61.9857 Q866.159 61.9857 863.417 62.208 M877.758 35.4172 L886.169 35.4172 Q890.208 35.4172 892.913 34.4538 Q895.655 33.4533 896.952 31.6746 Q898.249 29.896 898.731 28.1174 Q899.212 26.3017 899.212 24.0413 Q899.212 21.3733 898.62 19.3724 Q898.027 17.3714 896.73 16.1856 Q895.433 14.9999 894.136 14.2588 Q892.839 13.4806 890.838 13.1842 Q888.837 12.8877 887.466 12.8136 Q886.095 12.7395 883.909 12.7395 Q880.203 12.7395 879.425 12.8877 Q878.573 12.9619 878.239 13.3695 Q877.906 13.7771 877.832 14.2588 Q877.758 14.7034 877.758 15.778 L877.758 35.4172 Z" fill="#000000" fill-rule="nonzero" fill-opacity="1" /><path clip-path="url(#clip620)" d="M919.111 62.208 L919.111 59.8735 Q923.15 59.8735 924.076 59.3918 Q925.003 58.873 925.003 56.4274 L925.003 36.0101 Q925.003 33.1939 924.039 32.5269 Q923.113 31.8599 919.407 31.8599 L919.407 29.4884 L930.005 28.6732 L930.005 56.5015 Q930.005 58.7619 930.82 59.3177 Q931.636 59.8735 935.341 59.8735 L935.341 62.208 Q927.597 61.9857 927.448 61.9857 Q926.411 61.9857 919.111 62.208 M922.298 15.4445 Q922.298 13.9253 923.446 12.7025 Q924.632 11.4426 926.3 11.4426 Q927.967 11.4426 929.153 12.5913 Q930.339 13.703 930.339 15.4816 Q930.339 17.2232 929.153 18.3719 Q927.967 19.4835 926.3 19.4835 Q924.558 19.4835 923.409 18.2607 Q922.298 17.0379 922.298 15.4445 Z" fill="#000000" fill-rule="nonzero" fill-opacity="1" /><path clip-path="url(#clip620)" d="M939.714 68.2109 Q939.714 65.7653 941.566 63.6531 Q943.456 61.541 946.717 60.6146 Q943.382 58.5025 943.382 53.8706 Q943.382 50.3133 945.716 47.5713 Q942.159 44.6069 942.159 39.7526 Q942.159 35.269 945.716 31.9711 Q949.274 28.6732 954.461 28.6732 Q959.019 28.6732 962.502 31.4153 Q966.134 27.858 970.543 27.8209 Q972.507 27.8209 973.434 29.0437 Q974.397 30.2666 974.397 31.5635 Q974.397 32.7122 973.656 33.268 Q972.952 33.8238 972.211 33.8238 Q971.284 33.8238 970.617 33.231 Q969.988 32.601 969.988 31.6376 Q969.988 30.0442 971.21 29.5625 Q970.988 29.4884 970.469 29.4884 Q966.764 29.4884 963.614 32.4528 Q966.727 35.3431 966.727 39.8268 Q966.727 44.3104 963.169 47.6083 Q959.612 50.9062 954.461 50.9062 Q950.2 50.9062 946.939 48.5347 Q945.642 50.0539 945.642 52.129 Q945.642 54.0188 946.791 55.501 Q947.94 56.9832 949.681 57.2056 Q950.2 57.2797 955.351 57.2797 Q958.389 57.2797 960.057 57.3538 Q961.724 57.4279 964.096 57.9467 Q966.504 58.4284 968.394 59.3918 Q973.322 62.1339 973.36 68.0627 Q973.36 72.3981 968.357 75.1032 Q963.392 77.8452 956.499 77.8452 Q949.533 77.8452 944.605 75.0661 Q939.714 72.324 939.714 68.2109 M943.678 68.2109 Q943.678 71.3235 947.347 73.6951 Q951.015 76.1036 956.574 76.1036 Q962.021 76.1036 965.689 73.7321 Q969.395 71.3976 969.395 68.2109 Q969.395 65.9506 968.098 64.5054 Q966.801 63.0603 964.133 62.4674 Q961.502 61.9116 959.649 61.8004 Q957.796 61.6892 954.387 61.6892 L949.904 61.6892 Q947.31 61.8374 945.494 63.7273 Q943.678 65.6171 943.678 68.2109 M947.829 39.8268 Q947.829 49.1646 954.461 49.1646 Q957.796 49.1646 959.834 46.1261 Q961.057 44.0881 961.057 39.7526 Q961.057 30.4148 954.461 30.4148 Q951.127 30.4148 949.051 33.4533 Q947.829 35.4913 947.829 39.8268 Z" fill="#000000" fill-rule="nonzero" fill-opacity="1" /><path clip-path="url(#clip620)" d="M978.066 62.208 L978.066 59.8735 Q982.105 59.8735 983.031 59.3918 Q983.957 58.873 983.957 56.4274 L983.957 36.0101 Q983.957 33.1939 982.994 32.5269 Q982.067 31.8599 978.362 31.8599 L978.362 29.4884 L988.96 28.6732 L988.96 56.5015 Q988.96 58.7619 989.775 59.3177 Q990.59 59.8735 994.296 59.8735 L994.296 62.208 Q986.551 61.9857 986.403 61.9857 Q985.365 61.9857 978.066 62.208 M981.252 15.4445 Q981.252 13.9253 982.401 12.7025 Q983.587 11.4426 985.254 11.4426 Q986.922 11.4426 988.107 12.5913 Q989.293 13.703 989.293 15.4816 Q989.293 17.2232 988.107 18.3719 Q986.922 19.4835 985.254 19.4835 Q983.513 19.4835 982.364 18.2607 Q981.252 17.0379 981.252 15.4445 Z" fill="#000000" fill-rule="nonzero" fill-opacity="1" /><path clip-path="url(#clip620)" d="M999.15 45.9038 Q999.15 38.6781 1004.19 33.6756 Q1009.23 28.6732 1016.05 28.6732 Q1021.83 28.6732 1025.61 33.3792 L1025.61 16.9638 Q1025.61 14.1476 1024.61 13.4436 Q1023.64 12.7395 1019.72 12.7395 L1019.72 10.368 L1030.65 9.55279 L1030.65 55.6122 Q1030.65 58.4284 1031.61 59.1695 Q1032.61 59.8735 1036.54 59.8735 L1036.54 62.208 L1025.38 63.0603 L1025.38 58.0208 Q1021.46 63.0232 1015.23 63.0603 Q1008.71 63.0603 1003.93 58.0578 Q999.15 53.0554 999.15 45.9038 M1005.45 45.9779 Q1005.45 53.0184 1007.64 56.5015 Q1010.67 61.3557 1015.6 61.3557 Q1021.23 61.3557 1024.57 56.0569 Q1025.42 54.7599 1025.38 53.2407 L1025.38 37.6776 Q1025.38 36.1583 1024.57 34.8984 Q1021.46 30.3407 1016.38 30.3407 Q1011.08 30.3407 1007.78 35.1949 Q1005.45 38.8263 1005.45 45.9779 Z" fill="#000000" fill-rule="nonzero" fill-opacity="1" /><path clip-path="url(#clip620)" d="M1066.63 62.208 L1066.63 59.8735 L1068.44 59.8735 Q1072.56 59.8735 1073.48 59.2065 Q1074.45 58.5025 1074.45 56.2792 L1074.45 16.2968 Q1074.45 14.1106 1073.48 13.4436 Q1072.52 12.7395 1068.44 12.7395 L1066.63 12.7395 L1066.63 10.368 L1094.38 10.368 Q1101.61 10.368 1106.42 14.2588 Q1111.24 18.1125 1111.24 23.189 Q1111.24 27.3763 1107.68 30.7112 Q1104.16 34.0462 1098.64 35.1208 Q1104.94 35.7878 1109.09 39.6044 Q1113.28 43.384 1113.28 48.3124 Q1113.28 53.8706 1108.5 58.0578 Q1103.72 62.208 1096.38 62.208 L1066.63 62.208 M1080.75 56.835 Q1080.75 58.7989 1081.3 59.3548 Q1081.86 59.8735 1084.45 59.8735 L1093.94 59.8735 Q1099.38 59.8735 1102.53 56.3162 Q1105.68 52.7219 1105.68 48.2383 Q1105.68 43.7546 1102.9 39.9379 Q1100.16 36.0842 1095.01 36.0842 L1080.75 36.0842 L1080.75 56.835 M1080.75 34.4167 L1091.75 34.4167 Q1097.61 34.4167 1100.72 30.8965 Q1103.87 27.3763 1103.87 23.189 Q1103.87 19.4835 1101.35 16.1115 Q1098.86 12.7395 1093.86 12.7395 L1084.45 12.7395 Q1081.86 12.7395 1081.3 13.2583 Q1080.75 13.7771 1080.75 15.778 L1080.75 34.4167 Z" fill="#000000" fill-rule="nonzero" fill-opacity="1" /><path clip-path="url(#clip620)" d="M1124.69 58.1319 Q1119.69 53.1666 1119.69 45.9779 Q1119.69 38.7522 1124.58 33.4903 Q1129.51 28.1915 1136.55 28.1915 Q1143.44 28.1915 1148.37 33.4533 Q1153.34 38.6781 1153.34 45.9779 Q1153.34 53.1295 1148.33 58.0949 Q1143.37 63.0603 1136.48 63.0603 Q1129.73 63.0603 1124.69 58.1319 M1125.99 45.348 Q1125.99 52.7219 1127.92 56.0569 Q1130.88 61.1334 1136.55 61.1334 Q1139.37 61.1334 1141.7 59.6141 Q1144.07 58.0949 1145.37 55.5381 Q1147.04 52.2031 1147.04 45.348 Q1147.04 38.0481 1145.04 34.8243 Q1142.07 29.896 1136.48 29.896 Q1134.03 29.896 1131.62 31.1929 Q1129.25 32.4528 1127.8 34.9725 Q1125.99 38.3075 1125.99 45.348 Z" fill="#000000" fill-rule="nonzero" fill-opacity="1" /><path clip-path="url(#clip620)" d="M1160.23 45.9038 Q1160.23 38.6781 1165.27 33.6756 Q1170.31 28.6732 1177.13 28.6732 Q1182.91 28.6732 1186.69 33.3792 L1186.69 16.9638 Q1186.69 14.1476 1185.68 13.4436 Q1184.72 12.7395 1180.79 12.7395 L1180.79 10.368 L1191.72 9.55279 L1191.72 55.6122 Q1191.72 58.4284 1192.69 59.1695 Q1193.69 59.8735 1197.62 59.8735 L1197.62 62.208 L1186.46 63.0603 L1186.46 58.0208 Q1182.54 63.0232 1176.31 63.0603 Q1169.79 63.0603 1165.01 58.0578 Q1160.23 53.0554 1160.23 45.9038 M1166.53 45.9779 Q1166.53 53.0184 1168.71 56.5015 Q1171.75 61.3557 1176.68 61.3557 Q1182.31 61.3557 1185.65 56.0569 Q1186.5 54.7599 1186.46 53.2407 L1186.46 37.6776 Q1186.46 36.1583 1185.65 34.8984 Q1182.54 30.3407 1177.46 30.3407 Q1172.16 30.3407 1168.86 35.1949 Q1166.53 38.8263 1166.53 45.9779 Z" fill="#000000" fill-rule="nonzero" fill-opacity="1" /><path clip-path="url(#clip620)" d="M1201.17 71.62 Q1201.17 70.0266 1202.1 69.1743 Q1203.06 68.3591 1204.36 68.3591 Q1205.73 68.3591 1206.62 69.2114 Q1207.55 70.1007 1207.55 71.5459 Q1207.55 74.3621 1204.58 74.7326 Q1206.03 76.1036 1208.14 76.1036 Q1210.4 76.1036 1212.22 74.4362 Q1214.07 72.7687 1214.85 71.1753 Q1215.66 69.582 1216.81 66.6917 Q1217.89 64.4313 1218.7 62.208 L1207.33 34.4908 Q1206.58 32.6751 1205.44 32.2675 Q1204.29 31.8599 1201.17 31.8599 L1201.17 29.4884 Q1204.58 29.7107 1208.55 29.7107 Q1210.88 29.7107 1216.81 29.4884 L1216.81 31.8599 Q1212.55 31.8599 1212.55 33.8238 Q1212.55 34.0462 1212.99 35.1949 L1221.44 55.6122 L1229.11 36.9365 Q1229.56 35.8619 1229.56 35.1208 Q1229.56 32.0081 1226 31.8599 L1226 29.4884 Q1231 29.7107 1232.6 29.7107 Q1235.71 29.7107 1238.27 29.4884 L1238.27 31.8599 Q1233.19 31.8599 1231.23 36.7141 L1217.85 69.1002 Q1214.22 77.7341 1208.14 77.7711 Q1205.25 77.7711 1203.21 75.9925 Q1201.17 74.2138 1201.17 71.62 Z" fill="#000000" fill-rule="nonzero" fill-opacity="1" /><path clip-path="url(#clip620)" d="M1269.21 62.0598 L1269.21 46.8672 Q1269.21 46.0149 1269.24 45.7185 Q1269.28 45.4221 1269.5 45.1997 Q1269.73 44.9774 1270.17 44.9774 Q1271.02 44.9774 1271.1 45.7556 Q1271.32 53.2777 1275.8 57.4279 Q1280.21 61.541 1287.77 61.541 Q1292.33 61.541 1295.15 58.2802 Q1297.96 54.9823 1297.96 50.6839 Q1297.96 46.5708 1295.59 43.6805 Q1294.59 42.3836 1293.33 41.5683 Q1292.11 40.7161 1291.33 40.4567 Q1290.59 40.1973 1289.14 39.8268 Q1279.73 37.5664 1279.14 37.307 Q1274.65 35.7878 1271.91 31.9711 Q1269.21 28.1174 1269.21 23.4114 Q1269.21 17.3343 1273.47 13.036 Q1277.77 8.70052 1283.99 8.70052 Q1287.1 8.70052 1289.7 9.70101 Q1292.33 10.6644 1293.4 11.5538 Q1294.48 12.4431 1296.15 14.0364 L1298.78 9.70101 Q1299.37 8.70052 1299.93 8.70052 Q1300.52 8.70052 1300.63 9.07107 Q1300.78 9.40457 1300.78 10.5162 L1300.78 25.7829 Q1300.78 26.6352 1300.74 26.9316 Q1300.7 27.228 1300.44 27.4133 Q1300.22 27.5986 1299.78 27.5986 Q1299.04 27.5986 1298.85 26.7093 Q1296.74 10.8497 1284.07 10.8497 Q1279.73 10.8497 1276.88 13.7771 Q1274.06 16.6674 1274.06 20.7805 Q1274.06 24.1154 1276.14 26.8575 Q1278.21 29.5625 1281.73 30.4148 L1291.44 32.7492 Q1296.29 33.8979 1299.56 38.1963 Q1302.82 42.4947 1302.82 48.09 Q1302.82 54.5376 1298.59 59.2065 Q1294.4 63.8755 1287.85 63.8755 Q1283.14 63.8755 1279.51 62.3192 Q1275.88 60.7629 1273.91 58.5766 Q1272.39 61.0963 1271.39 62.5044 L1271.17 62.875 Q1270.58 63.8755 1270.02 63.8755 Q1269.43 63.8755 1269.32 63.5049 Q1269.21 63.1344 1269.21 62.0598 Z" fill="#000000" fill-rule="nonzero" fill-opacity="1" /><path clip-path="url(#clip620)" d="M1314.15 58.1319 Q1309.15 53.1666 1309.15 45.9779 Q1309.15 38.7522 1314.04 33.4903 Q1318.97 28.1915 1326.01 28.1915 Q1332.9 28.1915 1337.83 33.4533 Q1342.8 38.6781 1342.8 45.9779 Q1342.8 53.1295 1337.8 58.0949 Q1332.83 63.0603 1325.94 63.0603 Q1319.19 63.0603 1314.15 58.1319 M1315.45 45.348 Q1315.45 52.7219 1317.38 56.0569 Q1320.34 61.1334 1326.01 61.1334 Q1328.83 61.1334 1331.16 59.6141 Q1333.53 58.0949 1334.83 55.5381 Q1336.5 52.2031 1336.5 45.348 Q1336.5 38.0481 1334.5 34.8243 Q1331.53 29.896 1325.94 29.896 Q1323.49 29.896 1321.08 31.1929 Q1318.71 32.4528 1317.27 34.9725 Q1315.45 38.3075 1315.45 45.348 Z" fill="#000000" fill-rule="nonzero" fill-opacity="1" /><path clip-path="url(#clip620)" d="M1347.5 62.208 L1347.5 59.8735 Q1351.54 59.8735 1352.47 59.3918 Q1353.4 58.873 1353.4 56.4274 L1353.4 16.9638 Q1353.4 14.1476 1352.4 13.4436 Q1351.43 12.7395 1347.5 12.7395 L1347.5 10.368 L1358.4 9.55279 L1358.4 56.4274 Q1358.4 58.873 1359.36 59.3918 Q1360.33 59.8735 1364.33 59.8735 L1364.33 62.208 Q1363.4 62.208 1361.47 62.1339 Q1359.55 62.0598 1358.14 62.0227 Q1356.73 61.9857 1355.92 61.9857 Q1355.03 61.9857 1347.5 62.208 Z" fill="#000000" fill-rule="nonzero" fill-opacity="1" /><path clip-path="url(#clip620)" d="M1368.44 31.8599 L1368.44 29.4884 L1379.59 28.6732 L1379.59 53.8706 Q1379.59 55.6863 1379.74 56.7609 Q1379.89 57.7985 1380.48 59.0213 Q1381.11 60.2441 1382.52 60.7999 Q1383.97 61.3557 1386.26 61.3557 Q1390.38 61.3557 1392.9 57.9837 Q1395.45 54.6117 1395.45 49.6093 L1395.45 36.0842 Q1395.45 33.268 1394.45 32.564 Q1393.45 31.8599 1389.52 31.8599 L1389.52 29.4884 L1400.68 28.6732 L1400.68 55.6122 Q1400.68 58.4284 1401.64 59.1695 Q1402.64 59.8735 1406.61 59.8735 L1406.61 62.208 L1395.68 63.0603 L1395.68 56.2051 Q1392.49 63.0232 1385.89 63.0603 Q1382.56 63.0603 1380.26 62.208 Q1378 61.3557 1376.85 60.3182 Q1375.7 59.2436 1375.07 57.2056 Q1374.48 55.1675 1374.41 53.9077 Q1374.33 52.6478 1374.33 50.2022 L1374.33 38.8263 Q1374.33 33.6756 1373.59 32.7863 Q1372.85 31.8599 1368.44 31.8599 Z" fill="#000000" fill-rule="nonzero" fill-opacity="1" /><path clip-path="url(#clip620)" d="M1409.53 31.8599 L1409.53 30.1924 Q1413.02 30.0442 1415.31 27.5986 Q1417.65 25.1159 1418.43 22.0774 Q1419.24 19.0389 1419.32 15.5187 L1421.21 15.5187 L1421.21 29.4884 L1432.06 29.4884 L1432.06 31.8599 L1421.21 31.8599 L1421.21 52.9442 Q1421.21 61.1334 1426.32 61.1334 Q1428.51 61.1334 1429.95 58.9101 Q1431.4 56.6497 1431.4 52.6478 L1431.4 48.4606 L1433.29 48.4606 L1433.29 52.796 Q1433.29 56.9091 1431.4 59.9847 Q1429.51 63.0603 1425.76 63.0603 Q1424.39 63.0603 1423.02 62.6897 Q1421.69 62.3562 1419.91 61.4669 Q1418.17 60.5405 1417.06 58.3172 Q1415.98 56.0569 1415.98 52.796 L1415.98 31.8599 L1409.53 31.8599 Z" fill="#000000" fill-rule="nonzero" fill-opacity="1" /><path clip-path="url(#clip620)" d="M1440.03 62.208 L1440.03 59.8735 Q1444.07 59.8735 1445 59.3918 Q1445.92 58.873 1445.92 56.4274 L1445.92 36.0101 Q1445.92 33.1939 1444.96 32.5269 Q1444.03 31.8599 1440.33 31.8599 L1440.33 29.4884 L1450.92 28.6732 L1450.92 56.5015 Q1450.92 58.7619 1451.74 59.3177 Q1452.56 59.8735 1456.26 59.8735 L1456.26 62.208 Q1448.52 61.9857 1448.37 61.9857 Q1447.33 61.9857 1440.03 62.208 M1443.22 15.4445 Q1443.22 13.9253 1444.37 12.7025 Q1445.55 11.4426 1447.22 11.4426 Q1448.89 11.4426 1450.07 12.5913 Q1451.26 13.703 1451.26 15.4816 Q1451.26 17.2232 1450.07 18.3719 Q1448.89 19.4835 1447.22 19.4835 Q1445.48 19.4835 1444.33 18.2607 Q1443.22 17.0379 1443.22 15.4445 Z" fill="#000000" fill-rule="nonzero" fill-opacity="1" /><path clip-path="url(#clip620)" d="M1465.64 58.1319 Q1460.63 53.1666 1460.63 45.9779 Q1460.63 38.7522 1465.52 33.4903 Q1470.45 28.1915 1477.49 28.1915 Q1484.39 28.1915 1489.31 33.4533 Q1494.28 38.6781 1494.28 45.9779 Q1494.28 53.1295 1489.28 58.0949 Q1484.31 63.0603 1477.42 63.0603 Q1470.68 63.0603 1465.64 58.1319 M1466.93 45.348 Q1466.93 52.7219 1468.86 56.0569 Q1471.82 61.1334 1477.49 61.1334 Q1480.31 61.1334 1482.64 59.6141 Q1485.02 58.0949 1486.31 55.5381 Q1487.98 52.2031 1487.98 45.348 Q1487.98 38.0481 1485.98 34.8243 Q1483.01 29.896 1477.42 29.896 Q1474.97 29.896 1472.57 31.1929 Q1470.19 32.4528 1468.75 34.9725 Q1466.93 38.3075 1466.93 45.348 Z" fill="#000000" fill-rule="nonzero" fill-opacity="1" /><path clip-path="url(#clip620)" d="M1498.91 62.208 L1498.91 59.8735 Q1502.95 59.8735 1503.88 59.3918 Q1504.8 58.873 1504.8 56.4274 L1504.8 36.0842 Q1504.8 33.268 1503.8 32.564 Q1502.84 31.8599 1498.91 31.8599 L1498.91 29.4884 L1509.58 28.6732 L1509.58 36.64 Q1513.14 28.6732 1520.81 28.6732 Q1526.52 28.6732 1528.78 31.4894 Q1530.44 33.3792 1530.78 35.4913 Q1531.15 37.6035 1531.15 43.0876 L1531.15 57.5761 Q1531.22 59.1695 1532.45 59.54 Q1533.67 59.8735 1537.08 59.8735 L1537.08 62.208 Q1529.33 61.9857 1528.56 61.9857 Q1527.96 61.9857 1520 62.208 L1520 59.8735 Q1524.03 59.8735 1524.96 59.3918 Q1525.92 58.873 1525.92 56.4274 L1525.92 38.7522 Q1525.92 34.8984 1524.74 32.6381 Q1523.55 30.3407 1520.29 30.3407 Q1516.36 30.3407 1513.21 33.6386 Q1510.06 36.9365 1510.06 42.4947 L1510.06 56.4274 Q1510.06 58.873 1510.99 59.3918 Q1511.95 59.8735 1515.96 59.8735 L1515.96 62.208 Q1508.21 61.9857 1507.47 61.9857 Q1506.88 61.9857 1498.91 62.208 Z" fill="#000000" fill-rule="nonzero" fill-opacity="1" /><polyline clip-path="url(#clip622)" style="stroke:#d77255; stroke-linecap:round; stroke-linejoin:round; stroke-width:5.6; stroke-opacity:1; fill:none" points="143.739,526.526 144.903,526.537 146.694,526.598 148.837,526.741 151.26,526.995 153.952,527.391 156.885,527.959 160.023,528.724 163.348,529.709 166.827,530.934 170.446,532.416 174.185,534.167 178.033,536.202 181.979,538.528 186.013,541.157 190.132,544.096 194.331,547.354 198.611,550.941 202.97,554.867 207.412,559.141 211.94,563.777 216.56,568.79 221.279,574.198 226.106,580.02 231.054,586.281 236.132,593.009 241.351,600.227 246.708,607.947 252.178,616.139 257.712,624.732 263.263,633.645 268.803,642.823 274.316,652.221 279.793,661.81 285.229,671.561 290.622,681.457 295.97,691.477 301.273,701.61 306.531,711.839 311.744,722.156 316.914,732.547 322.041,743.007 327.126,753.526 332.17,764.096 337.174,774.711 342.139,785.364 347.065,796.051 351.956,806.768 356.81,817.509 361.629,828.269 366.416,839.047 371.169,849.837 375.891,860.637 380.584,871.443 385.248,882.253 389.885,893.065 394.496,903.873 399.095,914.705 403.688,925.572 408.277,936.469 412.865,947.398 417.449,958.347 422.033,969.314 426.613,980.285 431.19,991.25 435.759,1002.19 440.321,1013.1 444.872,1023.96 449.409,1034.75 453.931,1045.45 458.435,1056.05 462.92,1066.53 467.383,1076.87 471.824,1087.07 476.243,1097.09 480.637,1106.94 485.008,1116.59 489.354,1126.03 493.677,1135.25 497.975,1144.23 502.248,1152.96 506.495,1161.42 510.716,1169.6 514.907,1177.48 519.067,1185.05 523.194,1192.28 527.283,1199.17 531.332,1205.7 535.338,1211.86 539.299,1217.64 543.212,1223.04 547.076,1228.05 550.891,1232.67 554.658,1236.9 558.376,1240.75 562.047,1244.21 565.672,1247.3 569.253,1250.02 572.793,1252.37 576.293,1254.36 579.755,1256 583.182,1257.3 586.576,1258.25 589.939,1258.87 593.273,1259.15 596.582,1259.12 599.868,1258.76 603.148,1258.09 606.42,1257.09 609.689,1255.78 612.959,1254.16 616.232,1252.21 619.512,1249.94 622.801,1247.34 626.101,1244.42 629.415,1241.16 632.745,1237.57 636.094,1233.64 639.463,1229.37 642.856,1224.76 646.274,1219.79 649.72,1214.47 653.195,1208.78 656.704,1202.74 660.247,1196.31 663.828,1189.52 667.449,1182.33 671.113,1174.76 674.825,1166.8 678.586,1158.42 682.401,1149.63 686.275,1140.42 690.212,1130.77 694.22,1120.66 698.305,1110.08 702.478,1099 706.748,1087.4 711.122,1075.25 715.593,1062.58 720.123,1049.5 724.656,1036.18 729.155,1022.77 733.601,1009.34 737.987,995.948 742.309,982.615 746.567,969.371 750.764,956.228 754.902,943.199 758.985,930.288 763.016,917.498 767,904.832 770.941,892.289 774.843,879.871 778.723,867.533 782.593,855.247 786.458,843.013 790.324,830.82 794.196,818.667 798.079,806.549 801.978,794.466 805.896,782.418 809.837,770.408 813.805,758.44 817.804,746.519 821.837,734.654 825.907,722.853 830.016,711.133 834.164,699.513 838.35,688.021 842.571,676.688 846.818,665.56 851.082,654.685 855.351,644.114 859.612,633.899 863.854,624.081 868.066,614.696 872.24,605.773 876.369,597.332 880.449,589.384 884.476,581.939 888.448,574.996 892.365,568.558 896.226,562.617 900.031,557.169 903.783,552.203 907.482,547.71 911.131,543.681 914.733,540.104 918.289,536.969 921.803,534.265 925.278,531.981 928.715,530.108 932.118,528.637 935.489,527.559 938.831,526.865 942.146,526.549 945.438,526.602 948.711,527.02 951.98,527.8 955.245,528.942 958.512,530.446 961.784,532.315 965.064,534.552 968.357,537.159 971.664,540.141 974.989,543.504 978.335,547.253 981.704,551.394 985.1,555.935 988.527,560.886 991.987,566.254 995.485,572.05 999.023,578.286 1002.61,584.976 1006.24,592.137 1009.94,599.789 1013.7,607.959 1017.53,616.679 1021.46,625.997 1025.5,635.988 1029.7,646.774 1034.15,658.626 1039.19,672.589 1043.88,686.077 1048.43,699.528 1052.84,712.952 1057.14,726.34 1061.32,739.68 1065.41,752.96 1069.41,766.177 1073.32,779.326 1077.17,792.408 1080.94,805.422 1084.66,818.371 1088.32,831.255 1091.94,844.077 1095.51,856.838 1099.04,869.539 1102.54,882.182 1106.02,894.768 1109.46,907.3 1112.9,919.829 1116.34,932.36 1119.78,944.902 1123.23,957.452 1126.69,970.013 1130.16,982.573 1133.64,995.125 1137.14,1007.65 1140.65,1020.12 1144.17,1032.52 1147.69,1044.8 1151.22,1056.95 1154.74,1068.91 1158.25,1080.65 1161.75,1092.15 1165.22,1103.38 1168.68,1114.32 1172.12,1124.93 1175.53,1135.21 1178.92,1145.14 1182.29,1154.7 1185.62,1163.89 1188.94,1172.68 1192.22,1181.08 1195.48,1189.06 1198.71,1196.63 1201.91,1203.76 1205.08,1210.46 1208.22,1216.73 1211.32,1222.55 1214.4,1227.93 1217.44,1232.86 1220.45,1237.36 1223.43,1241.42 1226.38,1245.04 1229.3,1248.24 1232.18,1251.01 1235.04,1253.37 1237.88,1255.31 1240.68,1256.86 1243.47,1258 1246.23,1258.76 1248.97,1259.13 1251.69,1259.13 1254.39,1258.75 1257.09,1258.01 1259.78,1256.9 1262.47,1255.42 1265.17,1253.57 1267.87,1251.35 1270.57,1248.75 1273.28,1245.78 1276.01,1242.42 1278.75,1238.69 1281.5,1234.56 1284.27,1230.04 1287.05,1225.13 1289.85,1219.82 1292.68,1214.1 1295.53,1207.98 1298.4,1201.44 1301.3,1194.48 1304.22,1187.1 1307.18,1179.29 1310.16,1171.05 1313.18,1162.38 1316.23,1153.26 1319.32,1143.69 1322.46,1133.66 1325.63,1123.16 1328.86,1112.18 1332.14,1100.69 1335.49,1088.68 1338.91,1076.08 1342.43,1062.84 1346.06,1048.87 1349.84,1034.05 1353.73,1018.53 1357.57,1002.94 1361.35,987.414 1365.06,972.012 1368.69,956.761 1372.26,941.681 1375.77,926.777 1379.22,912.053 1382.62,897.508 1385.98,883.134 1389.3,868.909 1392.62,854.738 1395.94,840.639 1399.26,826.577 1402.59,812.543 1405.95,798.523 1409.34,784.502 1412.76,770.479 1416.24,756.447 1419.76,742.422 1423.33,728.448 1426.94,714.621 1430.55,701.066 1434.14,687.902 1437.7,675.202 1441.22,663.011 1444.69,651.354 1448.12,640.245 1451.5,629.687 1454.83,619.684 1458.11,610.232 1461.35,601.33 1464.54,592.971 1467.69,585.15 1470.8,577.862 1473.87,571.096 1476.9,564.848 1479.89,559.108 1482.85,553.867 1485.78,549.116 1488.67,544.846 1491.53,541.047 1494.36,537.71 1497.17,534.826 1499.95,532.387 1502.71,530.382 1505.44,528.804 1508.16,527.645 1510.85,526.897 1513.53,526.552 1516.19,526.605 1518.84,527.048 1521.49,527.881 1524.15,529.104 1526.8,530.717 1529.47,532.722 1532.14,535.123 1534.82,537.922 1537.52,541.124 1540.24,544.733 1542.97,548.754 1545.73,553.193 1548.5,558.056 1551.31,563.348 1554.13,569.076 1556.99,575.247 1559.87,581.869 1562.79,588.946 1565.74,596.492 1568.73,604.51 1571.76,613.013 1574.83,622.012 1577.95,631.521 1581.12,641.56 1584.35,652.152 1587.65,663.327 1591.03,675.133 1594.5,687.621 1598.07,700.832 1601.72,714.684 1605.37,728.883 1608.98,743.209 1612.53,757.571 1616.02,771.91 1619.44,786.195 1622.81,800.398 1626.11,814.508 1629.37,828.512 1632.57,842.408 1635.73,856.192 1638.85,869.864 1641.94,883.423 1644.99,896.874 1648.02,910.216 1651.04,923.526 1654.05,936.803 1657.07,950.064 1660.11,963.31 1663.15,976.549 1666.21,989.775 1669.29,1002.99 1672.4,1016.17 1675.53,1029.31 1678.68,1042.37 1681.85,1055.32 1685.03,1068.11 1688.21,1080.67 1691.39,1092.97 1694.56,1104.95 1697.71,1116.58 1700.84,1127.82 1703.95,1138.66 1707.03,1149.07 1710.09,1159.05 1713.12,1168.57 1716.13,1177.63 1719.1,1186.22 1722.05,1194.34 1724.97,1201.98 1727.87,1209.13 1730.73,1215.79 1733.57,1221.96 1736.38,1227.64 1739.15,1232.83 1741.9,1237.54 1744.62,1241.76 1747.31,1245.51 1749.98,1248.79 1752.62,1251.6 1755.23,1253.96 1757.81,1255.87 1760.38,1257.34 1762.92,1258.37 1765.44,1258.98 1767.94,1259.18 1770.42,1258.96 1772.89,1258.34 1775.36,1257.31 1777.82,1255.88 1780.28,1254.04 1782.75,1251.8 1785.22,1249.15 1787.69,1246.09 1790.18,1242.61 1792.67,1238.72 1795.17,1234.4 1797.69,1229.66 1800.22,1224.49 1802.77,1218.89 1805.34,1212.84 1807.92,1206.35 1810.53,1199.41 1813.16,1192.02 1815.81,1184.16 1818.48,1175.84 1821.18,1167.04 1823.92,1157.77 1826.68,1148.01 1829.48,1137.75 1832.31,1126.99 1835.19,1115.7 1838.12,1103.86 1841.1,1091.45 1844.14,1078.41 1847.26,1064.7 1850.48,1050.24 1853.8,1034.96 1857.21,1018.98 1860.61,1002.75 1863.96,986.488 1867.26,970.272 1870.5,954.138 1873.7,938.116 1876.85,922.21 1879.96,906.432 1883.03,890.773 1886.08,875.231 1889.12,859.734 1892.16,844.275 1895.2,828.855 1898.25,813.493 1901.29,798.23 1904.34,783.123 1907.38,768.242 1910.39,753.652 1913.38,739.408 1916.33,725.548 1919.26,712.102 1922.14,699.09 1925,686.524 1927.82,674.412 1930.61,662.762 1933.37,651.58 1936.1,640.866 1938.8,630.627 1941.48,620.862 1944.13,611.577 1946.76,602.776 1949.36,594.46 1951.93,586.632 1954.49,579.295 1957.02,572.449 1959.53,566.094 1962.01,560.229 1964.47,554.853 1966.91,549.962 1969.33,545.552 1971.72,541.619 1974.09,538.156 1976.45,535.158 1978.78,532.619 1981.1,530.531 1983.4,528.887 1985.68,527.68 1987.94,526.904 1990.19,526.55 1992.43,526.614 1994.66,527.087 1996.89,527.97 1999.11,529.261 2001.34,530.962 2003.57,533.073 2005.81,535.597 2008.06,538.537 2010.31,541.896 2012.58,545.676 2014.86,549.883 2017.15,554.519 2019.46,559.586 2021.78,565.09 2024.12,571.032 2026.47,577.417 2028.85,584.247 2031.25,591.523 2033.66,599.249 2036.1,607.423 2038.56,616.048 2041.04,625.122 2043.54,634.647 2046.07,644.621 2048.62,655.045 2051.21,665.919 2053.82,677.247 2056.46,689.032 2059.14,701.279 2061.86,714.002 2064.62,727.219 2067.43,740.957 2070.31,755.255 2073.26,770.173 2076.3,785.783 2079.45,802.143 2082.67,819.077 2085.88,836.129 2089.05,853.103 2092.18,869.93 2095.27,886.579 2098.33,903.044 2101.35,919.338 2104.38,935.595 2107.42,951.806 2110.47,968.031 2113.57,984.309 2116.72,1000.69 2119.93,1017.18 2123.19,1033.63 2126.43,1049.69 2129.62,1065.17 2132.75,1080 2135.83,1094.17 2138.84,1107.67 2141.79,1120.51 2144.69,1132.71 2147.54,1144.27 2150.34,1155.22 2153.1,1165.56 2155.83,1175.31 2158.51,1184.48 2161.16,1193.07 2163.77,1201.09 2166.35,1208.56 2168.9,1215.47 2171.43,1221.84 2173.92,1227.68 2176.39,1233 2178.83,1237.79 2181.25,1242.08 2183.64,1245.86 2186.02,1249.15 2188.37,1251.96 2190.7,1254.3 2193.01,1256.17 2195.31,1257.58 2197.59,1258.55 2199.86,1259.07 2202.11,1259.16 2204.35,1258.82 2206.59,1258.06 2208.82,1256.87 2211.06,1255.27 2213.31,1253.23 2215.56,1250.77 2217.82,1247.88 2220.09,1244.56 2222.37,1240.79 2224.67,1236.59 2226.98,1231.94 2229.3,1226.83 2231.65,1221.28 2234.01,1215.26 2236.39,1208.78 2238.79,1201.83 2241.22,1194.4 2243.67,1186.5 2246.14,1178.12 2248.64,1169.26 2251.16,1159.91 2253.72,1150.06 2256.3,1139.72 2256.76,1137.87 "/>
<polyline clip-path="url(#clip622)" style="stroke:#009afa; stroke-linecap:round; stroke-linejoin:round; stroke-width:5.6; stroke-opacity:1; fill:none" points="143.739,892.852 144.903,890.581 146.694,887.09 148.837,882.911 151.26,878.191 153.952,872.954 156.885,867.255 160.023,861.174 163.348,854.752 166.827,848.057 170.446,841.125 174.185,834.006 178.033,826.729 181.979,819.325 186.013,811.822 190.132,804.236 194.331,796.589 198.611,788.892 202.97,781.158 207.412,773.394 211.94,765.61 216.56,757.808 221.279,749.992 226.106,742.164 231.054,734.325 236.132,726.476 241.351,718.629 246.708,710.808 252.178,703.074 257.712,695.516 263.263,688.207 268.803,681.191 274.316,674.489 279.793,668.11 285.229,662.058 290.622,656.331 295.97,650.928 301.273,645.843 306.531,641.071 311.744,636.607 316.914,632.446 322.041,628.582 327.126,625.009 332.17,621.723 337.174,618.719 342.139,615.993 347.065,613.539 351.956,611.355 356.81,609.437 361.629,607.782 366.416,606.386 371.169,605.249 375.891,604.367 380.584,603.74 385.248,603.367 389.885,603.245 394.496,603.377 399.095,603.761 403.688,604.403 408.277,605.306 412.865,606.474 417.449,607.912 422.033,609.624 426.613,611.615 431.19,613.889 435.759,616.447 440.321,619.293 444.872,622.429 449.409,625.854 453.931,629.568 458.435,633.572 462.92,637.862 467.383,642.438 471.824,647.297 476.243,652.435 480.637,657.851 485.008,663.538 489.354,669.495 493.677,675.716 497.975,682.195 502.248,688.926 506.495,695.901 510.716,703.11 514.907,710.541 519.067,718.181 523.194,726.013 527.283,734.021 531.332,742.185 535.338,750.486 539.299,758.905 543.212,767.423 547.076,776.021 550.891,784.684 554.658,793.397 558.376,802.146 562.047,810.92 565.672,819.707 569.253,828.498 572.793,837.285 576.293,846.059 579.755,854.816 583.182,863.549 586.576,872.25 589.939,880.915 593.273,889.541 596.582,898.125 599.868,906.664 603.148,915.191 606.42,923.693 609.689,932.176 612.959,940.637 616.232,949.076 619.512,957.49 622.801,965.877 626.101,974.234 629.415,982.556 632.745,990.839 636.094,999.079 639.463,1007.27 642.856,1015.41 646.274,1023.49 649.72,1031.5 653.195,1039.44 656.704,1047.3 660.247,1055.07 663.828,1062.75 667.449,1070.32 671.113,1077.78 674.825,1085.12 678.586,1092.33 682.401,1099.4 686.275,1106.31 690.212,1113.07 694.22,1119.65 698.305,1126.04 702.478,1132.25 706.748,1138.24 711.122,1144.01 715.593,1149.5 720.123,1154.64 724.656,1159.37 729.155,1163.63 733.601,1167.42 737.987,1170.75 742.309,1173.63 746.567,1176.07 750.764,1178.09 754.902,1179.71 758.985,1180.94 763.016,1181.8 767,1182.3 770.941,1182.46 774.843,1182.28 778.723,1181.77 782.593,1180.93 786.458,1179.76 790.324,1178.28 794.196,1176.46 798.079,1174.31 801.978,1171.82 805.896,1168.98 809.837,1165.8 813.805,1162.26 817.804,1158.35 821.837,1154.06 825.907,1149.39 830.016,1144.31 834.164,1138.84 838.35,1132.95 842.571,1126.66 846.818,1119.97 851.082,1112.9 855.351,1105.46 859.612,1097.7 863.854,1089.63 868.066,1081.31 872.24,1072.75 876.369,1063.99 880.449,1055.07 884.476,1046 888.448,1036.82 892.365,1027.55 896.226,1018.2 900.031,1008.8 903.783,999.368 907.482,989.909 911.131,980.44 914.733,970.97 918.289,961.509 921.803,952.065 925.278,942.645 928.715,933.255 932.118,923.901 935.489,914.588 938.831,905.32 942.146,896.1 945.438,886.934 948.711,877.817 951.98,868.717 955.245,859.645 958.512,850.594 961.784,841.567 965.064,832.562 968.357,823.582 971.664,814.628 974.989,805.706 978.335,796.816 981.704,787.966 985.1,779.157 988.527,770.394 991.987,761.682 995.485,753.028 999.023,744.436 1002.61,735.913 1006.24,727.463 1009.94,719.09 1013.7,710.796 1017.53,702.583 1021.46,694.446 1025.5,686.37 1029.7,678.316 1034.15,670.179 1039.19,661.444 1043.88,653.792 1048.43,646.858 1052.84,640.573 1057.14,634.892 1061.32,629.777 1065.41,625.194 1069.41,621.112 1073.32,617.503 1077.17,614.345 1080.94,611.614 1084.66,609.295 1088.32,607.369 1091.94,605.824 1095.51,604.648 1099.04,603.832 1102.54,603.368 1106.02,603.249 1109.46,603.471 1112.9,604.032 1116.34,604.935 1119.78,606.184 1123.23,607.784 1126.69,609.743 1130.16,612.066 1133.64,614.761 1137.14,617.833 1140.65,621.285 1144.17,625.12 1147.69,629.335 1151.22,633.926 1154.74,638.884 1158.25,644.199 1161.75,649.859 1165.22,655.851 1168.68,662.162 1172.12,668.779 1175.53,675.687 1178.92,682.873 1182.29,690.323 1185.62,698.021 1188.94,705.954 1192.22,714.105 1195.48,722.458 1198.71,730.995 1201.91,739.698 1205.08,748.549 1208.22,757.53 1211.32,766.622 1214.4,775.809 1217.44,785.073 1220.45,794.398 1223.43,803.77 1226.38,813.175 1229.3,822.601 1232.18,832.035 1235.04,841.468 1237.88,850.89 1240.68,860.294 1243.47,869.669 1246.23,879.009 1248.97,888.308 1251.69,897.56 1254.39,906.759 1257.09,915.946 1259.78,925.101 1262.47,934.234 1265.17,943.34 1267.87,952.417 1270.57,961.461 1273.28,970.469 1276.01,979.436 1278.75,988.356 1281.5,997.224 1284.27,1006.03 1287.05,1014.77 1289.85,1023.44 1292.68,1032.03 1295.53,1040.52 1298.4,1048.91 1301.3,1057.2 1304.22,1065.35 1307.18,1073.38 1310.16,1081.26 1313.18,1088.99 1316.23,1096.54 1319.32,1103.91 1322.46,1111.09 1325.63,1118.06 1328.86,1124.81 1332.14,1131.33 1335.49,1137.61 1338.91,1143.63 1342.43,1149.39 1346.06,1154.88 1349.84,1160.08 1353.73,1164.88 1357.57,1169.07 1361.35,1172.64 1365.06,1175.61 1368.69,1178.02 1372.26,1179.87 1375.77,1181.21 1379.22,1182.06 1382.62,1182.43 1385.98,1182.36 1389.3,1181.84 1392.62,1180.89 1395.94,1179.5 1399.26,1177.68 1402.59,1175.41 1405.95,1172.69 1409.34,1169.5 1412.76,1165.82 1416.24,1161.63 1419.76,1156.91 1423.33,1151.65 1426.94,1145.87 1430.55,1139.6 1434.14,1132.89 1437.7,1125.8 1441.22,1118.36 1444.69,1110.62 1448.12,1102.59 1451.5,1094.31 1454.83,1085.81 1458.11,1077.11 1461.35,1068.23 1464.54,1059.18 1467.69,1050 1470.8,1040.7 1473.87,1031.3 1476.9,1021.81 1479.89,1012.25 1482.85,1002.64 1485.78,992.978 1488.67,983.29 1491.53,973.584 1494.36,963.869 1497.17,954.154 1499.95,944.45 1502.71,934.762 1505.44,925.101 1508.16,915.472 1510.85,905.882 1513.53,896.336 1516.19,886.839 1518.84,877.392 1521.49,867.959 1524.15,858.553 1526.8,849.168 1529.47,839.81 1532.14,830.478 1534.82,821.177 1537.52,811.91 1540.24,802.685 1542.97,793.504 1545.73,784.377 1548.5,775.307 1551.31,766.306 1554.13,757.379 1556.99,748.538 1559.87,739.79 1562.79,731.149 1565.74,722.621 1568.73,714.222 1571.76,705.961 1574.83,697.85 1577.95,689.902 1581.12,682.128 1584.35,674.537 1587.65,667.14 1591.03,659.944 1594.5,652.962 1598.07,646.22 1601.72,639.806 1605.37,633.876 1608.98,628.511 1612.53,623.716 1616.02,619.484 1619.44,615.792 1622.81,612.621 1626.11,609.946 1629.37,607.747 1632.57,606.004 1635.73,604.699 1638.85,603.816 1641.94,603.341 1644.99,603.263 1648.02,603.571 1651.04,604.263 1654.05,605.337 1657.07,606.799 1660.11,608.653 1663.15,610.906 1666.21,613.566 1669.29,616.644 1672.4,620.149 1675.53,624.089 1678.68,628.468 1681.85,633.287 1685.03,638.539 1688.21,644.208 1691.39,650.278 1694.56,656.726 1697.71,663.53 1700.84,670.67 1703.95,678.123 1707.03,685.87 1710.09,693.892 1713.12,702.17 1716.13,710.684 1719.1,719.416 1722.05,728.346 1724.97,737.456 1727.87,746.726 1730.73,756.135 1733.57,765.665 1736.38,775.296 1739.15,785.011 1741.9,794.792 1744.62,804.623 1747.31,814.488 1749.98,824.373 1752.62,834.266 1755.23,844.155 1757.81,854.028 1760.38,863.876 1762.92,873.69 1765.44,883.462 1767.94,893.185 1770.42,902.851 1772.89,912.479 1775.36,922.08 1777.82,931.65 1780.28,941.188 1782.75,950.692 1785.22,960.158 1787.69,969.582 1790.18,978.959 1792.67,988.283 1795.17,997.545 1797.69,1006.74 1800.22,1015.86 1802.77,1024.89 1805.34,1033.83 1807.92,1042.67 1810.53,1051.39 1813.16,1059.99 1815.81,1068.45 1818.48,1076.76 1821.18,1084.9 1823.92,1092.87 1826.68,1100.65 1829.48,1108.23 1832.31,1115.58 1835.19,1122.71 1838.12,1129.59 1841.1,1136.21 1844.14,1142.55 1847.26,1148.61 1850.48,1154.37 1853.8,1159.78 1857.21,1164.75 1860.61,1169.12 1863.96,1172.84 1867.26,1175.92 1870.5,1178.38 1873.7,1180.24 1876.85,1181.53 1879.96,1182.26 1883.03,1182.45 1886.08,1182.12 1889.12,1181.27 1892.16,1179.9 1895.2,1178 1898.25,1175.58 1901.29,1172.63 1904.34,1169.16 1907.38,1165.19 1910.39,1160.73 1913.38,1155.83 1916.33,1150.49 1919.26,1144.75 1922.14,1138.63 1925,1132.15 1927.82,1125.34 1930.61,1118.2 1933.37,1110.77 1936.1,1103.06 1938.8,1095.08 1941.48,1086.85 1944.13,1078.39 1946.76,1069.72 1949.36,1060.85 1951.93,1051.8 1954.49,1042.6 1957.02,1033.25 1959.53,1023.77 1962.01,1014.19 1964.47,1004.52 1966.91,994.775 1969.33,984.972 1971.72,975.125 1974.09,965.248 1976.45,955.353 1978.78,945.452 1981.1,935.558 1983.4,925.68 1985.68,915.826 1987.94,906.006 1990.19,896.228 1992.43,886.5 1994.66,876.82 1996.89,867.158 1999.11,857.523 2001.34,847.917 2003.57,838.341 2005.81,828.8 2008.06,819.298 2010.31,809.843 2012.58,800.439 2014.86,791.094 2017.15,781.818 2019.46,772.621 2021.78,763.51 2024.12,754.497 2026.47,745.593 2028.85,736.811 2031.25,728.162 2033.66,719.661 2036.1,711.321 2038.56,703.157 2041.04,695.184 2043.54,687.417 2046.07,679.872 2048.62,672.563 2051.21,665.508 2053.82,658.718 2056.46,652.211 2059.14,646.003 2061.86,640.107 2064.62,634.539 2067.43,629.315 2070.31,624.451 2073.26,619.968 2076.3,615.891 2079.45,612.264 2082.67,609.179 2085.88,606.738 2089.05,604.955 2092.18,603.813 2095.27,603.288 2098.33,603.358 2101.35,604.003 2104.38,605.224 2107.42,607.02 2110.47,609.41 2113.57,612.416 2116.72,616.078 2119.93,620.434 2123.19,625.484 2126.43,631.132 2129.62,637.288 2132.75,643.892 2135.83,650.897 2138.84,658.265 2141.79,665.96 2144.69,673.955 2147.54,682.223 2150.34,690.742 2153.1,699.488 2155.83,708.443 2158.51,717.585 2161.16,726.897 2163.77,736.36 2166.35,745.956 2168.9,755.667 2171.43,765.477 2173.92,775.37 2176.39,785.331 2178.83,795.343 2181.25,805.396 2183.64,815.474 2186.02,825.567 2188.37,835.664 2190.7,845.751 2193.01,855.823 2195.31,865.868 2197.59,875.879 2199.86,885.847 2202.11,895.765 2204.35,905.626 2206.59,915.466 2208.82,925.276 2211.06,935.062 2213.31,944.815 2215.56,954.537 2217.82,964.219 2220.09,973.858 2222.37,983.447 2224.67,992.978 2226.98,1002.44 2229.3,1011.83 2231.65,1021.14 2234.01,1030.35 2236.39,1039.45 2238.79,1048.43 2241.22,1057.28 2243.67,1065.99 2246.14,1074.53 2248.64,1082.91 2251.16,1091.09 2253.72,1099.06 2256.3,1106.82 2256.76,1108.14 "/>
<polyline clip-path="url(#clip622)" style="stroke:#707070; stroke-linecap:round; stroke-linejoin:round; stroke-width:5.6; stroke-opacity:1; fill:none" points="143.739,563.158 144.903,563.161 146.694,563.178 148.837,563.218 151.26,563.287 153.952,563.395 156.885,563.548 160.023,563.753 163.348,564.016 166.827,564.338 170.446,564.724 174.185,565.174 178.033,565.691 181.979,566.274 186.013,566.922 190.132,567.635 194.331,568.411 198.611,569.249 202.97,570.147 207.412,571.102 211.94,572.113 216.56,573.176 221.279,574.289 226.106,575.449 231.054,576.652 236.132,577.893 241.351,579.167 246.708,580.462 252.178,581.761 257.712,583.041 263.263,584.278 268.803,585.457 274.316,586.563 279.793,587.585 285.229,588.516 290.622,589.348 295.97,590.073 301.273,590.688 306.531,591.188 311.744,591.569 316.914,591.827 322.041,591.961 327.126,591.968 332.17,591.846 337.174,591.596 342.139,591.216 347.065,590.706 351.956,590.066 356.81,589.297 361.629,588.4 366.416,587.376 371.169,586.226 375.891,584.952 380.584,583.555 385.248,582.038 389.885,580.403 394.496,578.652 399.095,576.783 403.688,574.795 408.277,572.688 412.865,570.465 417.449,568.129 422.033,565.681 426.613,563.127 431.19,560.47 435.759,557.716 440.321,554.87 444.872,551.941 449.409,548.935 453.931,545.86 458.435,542.724 462.92,539.536 467.383,536.303 471.824,533.034 476.243,529.738 480.637,526.422 485.008,523.095 489.354,519.765 493.677,516.439 497.975,513.127 502.248,509.837 506.495,506.576 510.716,503.354 514.907,500.179 519.067,497.06 523.194,494.007 527.283,491.028 531.332,488.13 535.338,485.322 539.299,482.61 543.212,479.999 547.076,477.493 550.891,475.094 554.658,472.806 558.376,470.629 562.047,468.564 565.672,466.61 569.253,464.767 572.793,463.034 576.293,461.409 579.755,459.89 583.182,458.476 586.576,457.164 589.939,455.954 593.273,454.842 596.582,453.826 599.868,452.903 603.148,452.069 606.42,451.323 609.689,450.663 612.959,450.087 616.232,449.595 619.512,449.184 622.801,448.855 626.101,448.605 629.415,448.434 632.745,448.34 636.094,448.322 639.463,448.378 642.856,448.508 646.274,448.709 649.72,448.979 653.195,449.317 656.704,449.72 660.247,450.186 663.828,450.711 667.449,451.294 671.113,451.931 674.825,452.619 678.586,453.354 682.401,454.131 686.275,454.947 690.212,455.797 694.22,456.677 698.305,457.58 702.478,458.502 706.748,459.435 711.122,460.374 715.593,461.304 720.123,462.209 724.656,463.067 729.155,463.863 733.601,464.588 737.987,465.237 742.309,465.805 746.567,466.29 750.764,466.691 754.902,467.008 758.985,467.241 763.016,467.391 767,467.458 770.941,467.444 774.843,467.349 778.723,467.175 782.593,466.921 786.458,466.587 790.324,466.173 794.196,465.68 798.079,465.106 801.978,464.452 805.896,463.718 809.837,462.904 813.805,462.011 817.804,461.038 821.837,459.988 825.907,458.86 830.016,457.658 834.164,456.384 838.35,455.042 842.571,453.638 846.818,452.179 851.082,450.676 855.351,449.138 859.612,447.579 863.854,446.009 868.066,444.439 872.24,442.882 876.369,441.345 880.449,439.838 884.476,438.367 888.448,436.939 892.365,435.56 896.226,434.232 900.031,432.959 903.783,431.745 907.482,430.589 911.131,429.494 914.733,428.461 918.289,427.488 921.803,426.578 925.278,425.728 928.715,424.938 932.118,424.208 935.489,423.536 938.831,422.921 942.146,422.362 945.438,421.857 948.711,421.404 951.98,421.001 955.245,420.646 958.512,420.339 961.784,420.076 965.064,419.858 968.357,419.683 971.664,419.548 974.989,419.452 978.335,419.393 981.704,419.369 985.1,419.378 988.527,419.416 991.987,419.481 995.485,419.57 999.023,419.679 1002.61,419.804 1006.24,419.941 1009.94,420.085 1013.7,420.23 1017.53,420.37 1021.46,420.499 1025.5,420.609 1029.7,420.689 1034.15,420.727 1039.19,420.701 1043.88,420.596 1048.43,420.411 1052.84,420.142 1057.14,419.789 1061.32,419.35 1065.41,418.825 1069.41,418.215 1073.32,417.519 1077.17,416.738 1080.94,415.873 1084.66,414.925 1088.32,413.893 1091.94,412.779 1095.51,411.584 1099.04,410.308 1102.54,408.952 1106.02,407.517 1109.46,406.004 1112.9,404.407 1116.34,402.725 1119.78,400.957 1123.23,399.102 1126.69,397.161 1130.16,395.133 1133.64,393.021 1137.14,390.827 1140.65,388.555 1144.17,386.212 1147.69,383.804 1151.22,381.339 1154.74,378.828 1158.25,376.28 1161.75,373.704 1165.22,371.11 1168.68,368.508 1172.12,365.905 1175.53,363.31 1178.92,360.731 1182.29,358.176 1185.62,355.651 1188.94,353.163 1192.22,350.718 1195.48,348.325 1198.71,345.987 1201.91,343.712 1205.08,341.503 1208.22,339.367 1211.32,337.306 1214.4,335.325 1217.44,333.425 1220.45,331.61 1223.43,329.881 1226.38,328.237 1229.3,326.682 1232.18,325.213 1235.04,323.831 1237.88,322.535 1240.68,321.325 1243.47,320.199 1246.23,319.155 1248.97,318.193 1251.69,317.311 1254.39,316.506 1257.09,315.774 1259.78,315.115 1262.47,314.527 1265.17,314.008 1267.87,313.557 1270.57,313.174 1273.28,312.857 1276.01,312.604 1278.75,312.415 1281.5,312.288 1284.27,312.222 1287.05,312.214 1289.85,312.263 1292.68,312.367 1295.53,312.523 1298.4,312.729 1301.3,312.983 1304.22,313.282 1307.18,313.621 1310.16,313.998 1313.18,314.41 1316.23,314.851 1319.32,315.318 1322.46,315.805 1325.63,316.309 1328.86,316.825 1332.14,317.346 1335.49,317.867 1338.91,318.384 1342.43,318.889 1346.06,319.377 1349.84,319.839 1353.73,320.258 1357.57,320.609 1361.35,320.885 1365.06,321.084 1368.69,321.206 1372.26,321.251 1375.77,321.22 1379.22,321.115 1382.62,320.937 1385.98,320.687 1389.3,320.368 1392.62,319.977 1395.94,319.517 1399.26,318.985 1402.59,318.383 1405.95,317.708 1409.34,316.961 1412.76,316.142 1416.24,315.249 1419.76,314.283 1423.33,313.249 1426.94,312.155 1430.55,311.013 1434.14,309.84 1437.7,308.647 1441.22,307.446 1444.69,306.247 1448.12,305.058 1451.5,303.886 1454.83,302.738 1458.11,301.619 1461.35,300.535 1464.54,299.49 1467.69,298.489 1470.8,297.535 1473.87,296.632 1476.9,295.781 1479.89,294.984 1482.85,294.245 1485.78,293.563 1488.67,292.94 1491.53,292.377 1494.36,291.873 1497.17,291.429 1499.95,291.045 1502.71,290.721 1505.44,290.455 1508.16,290.246 1510.85,290.095 1513.53,290 1516.19,289.96 1518.84,289.973 1521.49,290.04 1524.15,290.157 1526.8,290.327 1529.47,290.546 1532.14,290.814 1534.82,291.131 1537.52,291.494 1540.24,291.904 1542.97,292.357 1545.73,292.852 1548.5,293.388 1551.31,293.961 1554.13,294.57 1556.99,295.211 1559.87,295.881 1562.79,296.578 1565.74,297.296 1568.73,298.032 1571.76,298.781 1574.83,299.538 1577.95,300.297 1581.12,301.054 1584.35,301.801 1587.65,302.532 1591.03,303.24 1594.5,303.917 1598.07,304.551 1601.72,305.124 1605.37,305.615 1608.98,306.01 1612.53,306.304 1616.02,306.495 1619.44,306.583 1622.81,306.568 1626.11,306.452 1629.37,306.237 1632.57,305.924 1635.73,305.516 1638.85,305.013 1641.94,304.419 1644.99,303.735 1648.02,302.962 1651.04,302.097 1654.05,301.14 1657.07,300.089 1660.11,298.945 1663.15,297.706 1666.21,296.372 1669.29,294.941 1672.4,293.416 1675.53,291.797 1678.68,290.087 1681.85,288.293 1685.03,286.421 1688.21,284.482 1691.39,282.486 1694.56,280.445 1697.71,278.369 1700.84,276.267 1703.95,274.15 1707.03,272.026 1710.09,269.903 1713.12,267.787 1716.13,265.687 1719.1,263.609 1722.05,261.559 1724.97,259.543 1727.87,257.567 1730.73,255.635 1733.57,253.751 1736.38,251.921 1739.15,250.147 1741.9,248.432 1744.62,246.778 1747.31,245.187 1749.98,243.66 1752.62,242.198 1755.23,240.801 1757.81,239.469 1760.38,238.202 1762.92,236.998 1765.44,235.858 1767.94,234.78 1770.42,233.763 1772.89,232.802 1775.36,231.896 1777.82,231.042 1780.28,230.24 1782.75,229.487 1785.22,228.783 1787.69,228.125 1790.18,227.513 1792.67,226.944 1795.17,226.417 1797.69,225.93 1800.22,225.48 1802.77,225.066 1805.34,224.685 1807.92,224.334 1810.53,224.011 1813.16,223.711 1815.81,223.432 1818.48,223.169 1821.18,222.919 1823.92,222.678 1826.68,222.439 1829.48,222.2 1832.31,221.953 1835.19,221.693 1838.12,221.412 1841.1,221.105 1844.14,220.762 1847.26,220.374 1850.48,219.928 1853.8,219.413 1857.21,218.82 1860.61,218.157 1863.96,217.428 1867.26,216.632 1870.5,215.77 1873.7,214.842 1876.85,213.848 1879.96,212.789 1883.03,211.663 1886.08,210.472 1889.12,209.21 1892.16,207.874 1895.2,206.467 1898.25,204.987 1901.29,203.44 1904.34,201.833 1907.38,200.174 1910.39,198.474 1913.38,196.743 1916.33,194.989 1919.26,193.222 1922.14,191.449 1925,189.676 1927.82,187.91 1930.61,186.156 1933.37,184.421 1936.1,182.708 1938.8,181.023 1941.48,179.37 1944.13,177.754 1946.76,176.18 1949.36,174.651 1951.93,173.172 1954.49,171.746 1957.02,170.376 1959.53,169.066 1962.01,167.817 1964.47,166.632 1966.91,165.513 1969.33,164.461 1971.72,163.477 1974.09,162.562 1976.45,161.715 1978.78,160.938 1981.1,160.229 1983.4,159.588 1985.68,159.015 1987.94,158.509 1990.19,158.068 1992.43,157.692 1994.66,157.378 1996.89,157.125 1999.11,156.932 2001.34,156.798 2003.57,156.723 2005.81,156.705 2008.06,156.743 2010.31,156.837 2012.58,156.985 2014.86,157.186 2017.15,157.439 2019.46,157.741 2021.78,158.092 2024.12,158.488 2026.47,158.929 2028.85,159.41 2031.25,159.931 2033.66,160.486 2036.1,161.074 2038.56,161.689 2041.04,162.33 2043.54,162.991 2046.07,163.667 2048.62,164.356 2051.21,165.051 2053.82,165.747 2056.46,166.441 2059.14,167.125 2061.86,167.796 2064.62,168.448 2067.43,169.075 2070.31,169.671 2073.26,170.231 2076.3,170.746 2079.45,171.209 2082.67,171.601 2085.88,171.908 2089.05,172.123 2092.18,172.246 2095.27,172.279 2098.33,172.225 2101.35,172.085 2104.38,171.859 2107.42,171.548 2110.47,171.151 2113.57,170.665 2116.72,170.088 2119.93,169.417 2123.19,168.658 2126.43,167.83 2129.62,166.951 2132.75,166.033 2135.83,165.087 2138.84,164.122 2141.79,163.148 2144.69,162.17 2147.54,161.195 2150.34,160.229 2153.1,159.278 2155.83,158.347 2158.51,157.439 2161.16,156.56 2163.77,155.713 2166.35,154.902 2168.9,154.129 2171.43,153.397 2173.92,152.708 2176.39,152.065 2178.83,151.469 2181.25,150.921 2183.64,150.422 2186.02,149.973 2188.37,149.575 2190.7,149.226 2193.01,148.928 2195.31,148.68 2197.59,148.481 2199.86,148.33 2202.11,148.228 2204.35,148.172 2206.59,148.163 2208.82,148.198 2211.06,148.278 2213.31,148.401 2215.56,148.567 2217.82,148.774 2220.09,149.023 2222.37,149.31 2224.67,149.635 2226.98,149.996 2229.3,150.392 2231.65,150.819 2234.01,151.275 2236.39,151.758 2238.79,152.265 2241.22,152.793 2243.67,153.336 2246.14,153.893 2248.64,154.458 2251.16,155.027 2253.72,155.594 2256.3,156.155 2256.76,156.252 "/>
</svg>
