<?xml version="1.0" encoding="utf-8"?>
<svg xmlns="http://www.w3.org/2000/svg" xmlns:xlink="http://www.w3.org/1999/xlink" width="576" height="384" viewBox="0 0 2304 1536">
<defs>
  <clipPath id="clip860">
    <rect x="0" y="0" width="2304" height="1536"/>
  </clipPath>
</defs>
<path clip-path="url(#clip860)" d="M0 1536 L2304 1536 L2304 0 L0 0  Z" fill="#ffffff" fill-rule="evenodd" fill-opacity="1"/>
<defs>
  <clipPath id="clip861">
    <rect x="460" y="0" width="1614" height="1536"/>
  </clipPath>
</defs>
<path clip-path="url(#clip860)" d="M214.993 1280.22 L1445.54 1280.22 L1445.54 47.2441 L214.993 47.2441  Z" fill="#ffffff" fill-rule="evenodd" fill-opacity="1"/>
<defs>
  <clipPath id="clip862">
    <rect x="214" y="47" width="1232" height="1234"/>
  </clipPath>
</defs>
<polyline clip-path="url(#clip862)" style="stroke:#000000; stroke-linecap:round; stroke-linejoin:round; stroke-width:2.8; stroke-opacity:0.4; fill:none" points="282.846,1280.22 282.846,47.2441 "/>
<polyline clip-path="url(#clip862)" style="stroke:#000000; stroke-linecap:round; stroke-linejoin:round; stroke-width:2.8; stroke-opacity:0.4; fill:none" points="987.434,1280.22 987.434,47.2441 "/>
<polyline clip-path="url(#clip862)" style="stroke:#000000; stroke-linecap:round; stroke-linejoin:round; stroke-width:2; stroke-opacity:0.06; fill:none" points="235.322,1280.22 235.322,47.2441 "/>
<polyline clip-path="url(#clip862)" style="stroke:#000000; stroke-linecap:round; stroke-linejoin:round; stroke-width:2; stroke-opacity:0.06; fill:none" points="255.533,1280.22 255.533,47.2441 "/>
<polyline clip-path="url(#clip862)" style="stroke:#000000; stroke-linecap:round; stroke-linejoin:round; stroke-width:2; stroke-opacity:0.06; fill:none" points="270.701,1280.22 270.701,47.2441 "/>
<polyline clip-path="url(#clip862)" style="stroke:#000000; stroke-linecap:round; stroke-linejoin:round; stroke-width:2; stroke-opacity:0.06; fill:none" points="282.846,1280.22 282.846,47.2441 "/>
<polyline clip-path="url(#clip862)" style="stroke:#000000; stroke-linecap:round; stroke-linejoin:round; stroke-width:2; stroke-opacity:0.06; fill:none" points="282.846,1280.22 282.846,47.2441 "/>
<polyline clip-path="url(#clip862)" style="stroke:#000000; stroke-linecap:round; stroke-linejoin:round; stroke-width:2; stroke-opacity:0.06; fill:none" points="345.858,1280.22 345.858,47.2441 "/>
<polyline clip-path="url(#clip862)" style="stroke:#000000; stroke-linecap:round; stroke-linejoin:round; stroke-width:2; stroke-opacity:0.06; fill:none" points="376.24,1280.22 376.24,47.2441 "/>
<polyline clip-path="url(#clip862)" style="stroke:#000000; stroke-linecap:round; stroke-linejoin:round; stroke-width:2; stroke-opacity:0.06; fill:none" points="396.451,1280.22 396.451,47.2441 "/>
<polyline clip-path="url(#clip862)" style="stroke:#000000; stroke-linecap:round; stroke-linejoin:round; stroke-width:2; stroke-opacity:0.06; fill:none" points="411.618,1280.22 411.618,47.2441 "/>
<polyline clip-path="url(#clip862)" style="stroke:#000000; stroke-linecap:round; stroke-linejoin:round; stroke-width:2; stroke-opacity:0.06; fill:none" points="423.763,1280.22 423.763,47.2441 "/>
<polyline clip-path="url(#clip862)" style="stroke:#000000; stroke-linecap:round; stroke-linejoin:round; stroke-width:2; stroke-opacity:0.06; fill:none" points="423.763,1280.22 423.763,47.2441 "/>
<polyline clip-path="url(#clip862)" style="stroke:#000000; stroke-linecap:round; stroke-linejoin:round; stroke-width:2; stroke-opacity:0.06; fill:none" points="486.776,1280.22 486.776,47.2441 "/>
<polyline clip-path="url(#clip862)" style="stroke:#000000; stroke-linecap:round; stroke-linejoin:round; stroke-width:2; stroke-opacity:0.06; fill:none" points="517.158,1280.22 517.158,47.2441 "/>
<polyline clip-path="url(#clip862)" style="stroke:#000000; stroke-linecap:round; stroke-linejoin:round; stroke-width:2; stroke-opacity:0.06; fill:none" points="537.368,1280.22 537.368,47.2441 "/>
<polyline clip-path="url(#clip862)" style="stroke:#000000; stroke-linecap:round; stroke-linejoin:round; stroke-width:2; stroke-opacity:0.06; fill:none" points="552.536,1280.22 552.536,47.2441 "/>
<polyline clip-path="url(#clip862)" style="stroke:#000000; stroke-linecap:round; stroke-linejoin:round; stroke-width:2; stroke-opacity:0.06; fill:none" points="564.681,1280.22 564.681,47.2441 "/>
<polyline clip-path="url(#clip862)" style="stroke:#000000; stroke-linecap:round; stroke-linejoin:round; stroke-width:2; stroke-opacity:0.06; fill:none" points="564.681,1280.22 564.681,47.2441 "/>
<polyline clip-path="url(#clip862)" style="stroke:#000000; stroke-linecap:round; stroke-linejoin:round; stroke-width:2; stroke-opacity:0.06; fill:none" points="627.694,1280.22 627.694,47.2441 "/>
<polyline clip-path="url(#clip862)" style="stroke:#000000; stroke-linecap:round; stroke-linejoin:round; stroke-width:2; stroke-opacity:0.06; fill:none" points="658.075,1280.22 658.075,47.2441 "/>
<polyline clip-path="url(#clip862)" style="stroke:#000000; stroke-linecap:round; stroke-linejoin:round; stroke-width:2; stroke-opacity:0.06; fill:none" points="678.286,1280.22 678.286,47.2441 "/>
<polyline clip-path="url(#clip862)" style="stroke:#000000; stroke-linecap:round; stroke-linejoin:round; stroke-width:2; stroke-opacity:0.06; fill:none" points="693.454,1280.22 693.454,47.2441 "/>
<polyline clip-path="url(#clip862)" style="stroke:#000000; stroke-linecap:round; stroke-linejoin:round; stroke-width:2; stroke-opacity:0.06; fill:none" points="705.599,1280.22 705.599,47.2441 "/>
<polyline clip-path="url(#clip862)" style="stroke:#000000; stroke-linecap:round; stroke-linejoin:round; stroke-width:2; stroke-opacity:0.06; fill:none" points="705.599,1280.22 705.599,47.2441 "/>
<polyline clip-path="url(#clip862)" style="stroke:#000000; stroke-linecap:round; stroke-linejoin:round; stroke-width:2; stroke-opacity:0.06; fill:none" points="768.611,1280.22 768.611,47.2441 "/>
<polyline clip-path="url(#clip862)" style="stroke:#000000; stroke-linecap:round; stroke-linejoin:round; stroke-width:2; stroke-opacity:0.06; fill:none" points="798.993,1280.22 798.993,47.2441 "/>
<polyline clip-path="url(#clip862)" style="stroke:#000000; stroke-linecap:round; stroke-linejoin:round; stroke-width:2; stroke-opacity:0.06; fill:none" points="819.204,1280.22 819.204,47.2441 "/>
<polyline clip-path="url(#clip862)" style="stroke:#000000; stroke-linecap:round; stroke-linejoin:round; stroke-width:2; stroke-opacity:0.06; fill:none" points="834.371,1280.22 834.371,47.2441 "/>
<polyline clip-path="url(#clip862)" style="stroke:#000000; stroke-linecap:round; stroke-linejoin:round; stroke-width:2; stroke-opacity:0.06; fill:none" points="345.858,1280.22 345.858,47.2441 "/>
<polyline clip-path="url(#clip862)" style="stroke:#000000; stroke-linecap:round; stroke-linejoin:round; stroke-width:2; stroke-opacity:0.06; fill:none" points="376.24,1280.22 376.24,47.2441 "/>
<polyline clip-path="url(#clip862)" style="stroke:#000000; stroke-linecap:round; stroke-linejoin:round; stroke-width:2; stroke-opacity:0.06; fill:none" points="396.451,1280.22 396.451,47.2441 "/>
<polyline clip-path="url(#clip862)" style="stroke:#000000; stroke-linecap:round; stroke-linejoin:round; stroke-width:2; stroke-opacity:0.06; fill:none" points="411.618,1280.22 411.618,47.2441 "/>
<polyline clip-path="url(#clip862)" style="stroke:#000000; stroke-linecap:round; stroke-linejoin:round; stroke-width:2; stroke-opacity:0.06; fill:none" points="423.763,1280.22 423.763,47.2441 "/>
<polyline clip-path="url(#clip862)" style="stroke:#000000; stroke-linecap:round; stroke-linejoin:round; stroke-width:2; stroke-opacity:0.06; fill:none" points="423.763,1280.22 423.763,47.2441 "/>
<polyline clip-path="url(#clip862)" style="stroke:#000000; stroke-linecap:round; stroke-linejoin:round; stroke-width:2; stroke-opacity:0.06; fill:none" points="486.776,1280.22 486.776,47.2441 "/>
<polyline clip-path="url(#clip862)" style="stroke:#000000; stroke-linecap:round; stroke-linejoin:round; stroke-width:2; stroke-opacity:0.06; fill:none" points="517.158,1280.22 517.158,47.2441 "/>
<polyline clip-path="url(#clip862)" style="stroke:#000000; stroke-linecap:round; stroke-linejoin:round; stroke-width:2; stroke-opacity:0.06; fill:none" points="537.368,1280.22 537.368,47.2441 "/>
<polyline clip-path="url(#clip862)" style="stroke:#000000; stroke-linecap:round; stroke-linejoin:round; stroke-width:2; stroke-opacity:0.06; fill:none" points="552.536,1280.22 552.536,47.2441 "/>
<polyline clip-path="url(#clip862)" style="stroke:#000000; stroke-linecap:round; stroke-linejoin:round; stroke-width:2; stroke-opacity:0.06; fill:none" points="564.681,1280.22 564.681,47.2441 "/>
<polyline clip-path="url(#clip862)" style="stroke:#000000; stroke-linecap:round; stroke-linejoin:round; stroke-width:2; stroke-opacity:0.06; fill:none" points="564.681,1280.22 564.681,47.2441 "/>
<polyline clip-path="url(#clip862)" style="stroke:#000000; stroke-linecap:round; stroke-linejoin:round; stroke-width:2; stroke-opacity:0.06; fill:none" points="627.694,1280.22 627.694,47.2441 "/>
<polyline clip-path="url(#clip862)" style="stroke:#000000; stroke-linecap:round; stroke-linejoin:round; stroke-width:2; stroke-opacity:0.06; fill:none" points="658.075,1280.22 658.075,47.2441 "/>
<polyline clip-path="url(#clip862)" style="stroke:#000000; stroke-linecap:round; stroke-linejoin:round; stroke-width:2; stroke-opacity:0.06; fill:none" points="678.286,1280.22 678.286,47.2441 "/>
<polyline clip-path="url(#clip862)" style="stroke:#000000; stroke-linecap:round; stroke-linejoin:round; stroke-width:2; stroke-opacity:0.06; fill:none" points="693.454,1280.22 693.454,47.2441 "/>
<polyline clip-path="url(#clip862)" style="stroke:#000000; stroke-linecap:round; stroke-linejoin:round; stroke-width:2; stroke-opacity:0.06; fill:none" points="705.599,1280.22 705.599,47.2441 "/>
<polyline clip-path="url(#clip862)" style="stroke:#000000; stroke-linecap:round; stroke-linejoin:round; stroke-width:2; stroke-opacity:0.06; fill:none" points="705.599,1280.22 705.599,47.2441 "/>
<polyline clip-path="url(#clip862)" style="stroke:#000000; stroke-linecap:round; stroke-linejoin:round; stroke-width:2; stroke-opacity:0.06; fill:none" points="768.611,1280.22 768.611,47.2441 "/>
<polyline clip-path="url(#clip862)" style="stroke:#000000; stroke-linecap:round; stroke-linejoin:round; stroke-width:2; stroke-opacity:0.06; fill:none" points="798.993,1280.22 798.993,47.2441 "/>
<polyline clip-path="url(#clip862)" style="stroke:#000000; stroke-linecap:round; stroke-linejoin:round; stroke-width:2; stroke-opacity:0.06; fill:none" points="819.204,1280.22 819.204,47.2441 "/>
<polyline clip-path="url(#clip862)" style="stroke:#000000; stroke-linecap:round; stroke-linejoin:round; stroke-width:2; stroke-opacity:0.06; fill:none" points="834.371,1280.22 834.371,47.2441 "/>
<polyline clip-path="url(#clip862)" style="stroke:#000000; stroke-linecap:round; stroke-linejoin:round; stroke-width:2; stroke-opacity:0.06; fill:none" points="846.516,1280.22 846.516,47.2441 "/>
<polyline clip-path="url(#clip862)" style="stroke:#000000; stroke-linecap:round; stroke-linejoin:round; stroke-width:2; stroke-opacity:0.06; fill:none" points="846.516,1280.22 846.516,47.2441 "/>
<polyline clip-path="url(#clip862)" style="stroke:#000000; stroke-linecap:round; stroke-linejoin:round; stroke-width:2; stroke-opacity:0.06; fill:none" points="909.529,1280.22 909.529,47.2441 "/>
<polyline clip-path="url(#clip862)" style="stroke:#000000; stroke-linecap:round; stroke-linejoin:round; stroke-width:2; stroke-opacity:0.06; fill:none" points="939.911,1280.22 939.911,47.2441 "/>
<polyline clip-path="url(#clip862)" style="stroke:#000000; stroke-linecap:round; stroke-linejoin:round; stroke-width:2; stroke-opacity:0.06; fill:none" points="960.121,1280.22 960.121,47.2441 "/>
<polyline clip-path="url(#clip862)" style="stroke:#000000; stroke-linecap:round; stroke-linejoin:round; stroke-width:2; stroke-opacity:0.06; fill:none" points="975.289,1280.22 975.289,47.2441 "/>
<polyline clip-path="url(#clip862)" style="stroke:#000000; stroke-linecap:round; stroke-linejoin:round; stroke-width:2; stroke-opacity:0.06; fill:none" points="1050.45,1280.22 1050.45,47.2441 "/>
<polyline clip-path="url(#clip862)" style="stroke:#000000; stroke-linecap:round; stroke-linejoin:round; stroke-width:2; stroke-opacity:0.06; fill:none" points="1080.83,1280.22 1080.83,47.2441 "/>
<polyline clip-path="url(#clip862)" style="stroke:#000000; stroke-linecap:round; stroke-linejoin:round; stroke-width:2; stroke-opacity:0.06; fill:none" points="1101.04,1280.22 1101.04,47.2441 "/>
<polyline clip-path="url(#clip862)" style="stroke:#000000; stroke-linecap:round; stroke-linejoin:round; stroke-width:2; stroke-opacity:0.06; fill:none" points="1116.21,1280.22 1116.21,47.2441 "/>
<polyline clip-path="url(#clip862)" style="stroke:#000000; stroke-linecap:round; stroke-linejoin:round; stroke-width:2; stroke-opacity:0.06; fill:none" points="1128.35,1280.22 1128.35,47.2441 "/>
<polyline clip-path="url(#clip862)" style="stroke:#000000; stroke-linecap:round; stroke-linejoin:round; stroke-width:2; stroke-opacity:0.06; fill:none" points="1128.35,1280.22 1128.35,47.2441 "/>
<polyline clip-path="url(#clip862)" style="stroke:#000000; stroke-linecap:round; stroke-linejoin:round; stroke-width:2; stroke-opacity:0.06; fill:none" points="1191.36,1280.22 1191.36,47.2441 "/>
<polyline clip-path="url(#clip862)" style="stroke:#000000; stroke-linecap:round; stroke-linejoin:round; stroke-width:2; stroke-opacity:0.06; fill:none" points="1221.75,1280.22 1221.75,47.2441 "/>
<polyline clip-path="url(#clip862)" style="stroke:#000000; stroke-linecap:round; stroke-linejoin:round; stroke-width:2; stroke-opacity:0.06; fill:none" points="1241.96,1280.22 1241.96,47.2441 "/>
<polyline clip-path="url(#clip862)" style="stroke:#000000; stroke-linecap:round; stroke-linejoin:round; stroke-width:2; stroke-opacity:0.06; fill:none" points="1257.12,1280.22 1257.12,47.2441 "/>
<polyline clip-path="url(#clip862)" style="stroke:#000000; stroke-linecap:round; stroke-linejoin:round; stroke-width:2; stroke-opacity:0.06; fill:none" points="1269.27,1280.22 1269.27,47.2441 "/>
<polyline clip-path="url(#clip862)" style="stroke:#000000; stroke-linecap:round; stroke-linejoin:round; stroke-width:2; stroke-opacity:0.06; fill:none" points="1269.27,1280.22 1269.27,47.2441 "/>
<polyline clip-path="url(#clip862)" style="stroke:#000000; stroke-linecap:round; stroke-linejoin:round; stroke-width:2; stroke-opacity:0.06; fill:none" points="1332.28,1280.22 1332.28,47.2441 "/>
<polyline clip-path="url(#clip862)" style="stroke:#000000; stroke-linecap:round; stroke-linejoin:round; stroke-width:2; stroke-opacity:0.06; fill:none" points="1362.66,1280.22 1362.66,47.2441 "/>
<polyline clip-path="url(#clip862)" style="stroke:#000000; stroke-linecap:round; stroke-linejoin:round; stroke-width:2; stroke-opacity:0.06; fill:none" points="1382.87,1280.22 1382.87,47.2441 "/>
<polyline clip-path="url(#clip862)" style="stroke:#000000; stroke-linecap:round; stroke-linejoin:round; stroke-width:2; stroke-opacity:0.06; fill:none" points="1398.04,1280.22 1398.04,47.2441 "/>
<polyline clip-path="url(#clip862)" style="stroke:#000000; stroke-linecap:round; stroke-linejoin:round; stroke-width:2; stroke-opacity:0.06; fill:none" points="1410.19,1280.22 1410.19,47.2441 "/>
<polyline clip-path="url(#clip860)" style="stroke:#000000; stroke-linecap:round; stroke-linejoin:round; stroke-width:4; stroke-opacity:1; fill:none" points="214.993,1280.22 1445.54,1280.22 "/>
<polyline clip-path="url(#clip860)" style="stroke:#000000; stroke-linecap:round; stroke-linejoin:round; stroke-width:4; stroke-opacity:1; fill:none" points="214.993,47.2441 1445.54,47.2441 "/>
<polyline clip-path="url(#clip860)" style="stroke:#000000; stroke-linecap:round; stroke-linejoin:round; stroke-width:4; stroke-opacity:1; fill:none" points="282.846,1280.22 282.846,1261.33 "/>
<polyline clip-path="url(#clip860)" style="stroke:#000000; stroke-linecap:round; stroke-linejoin:round; stroke-width:4; stroke-opacity:1; fill:none" points="987.434,1280.22 987.434,1261.33 "/>
<polyline clip-path="url(#clip860)" style="stroke:#000000; stroke-linecap:round; stroke-linejoin:round; stroke-width:4; stroke-opacity:1; fill:none" points="235.322,1280.22 235.322,1270.78 "/>
<polyline clip-path="url(#clip860)" style="stroke:#000000; stroke-linecap:round; stroke-linejoin:round; stroke-width:4; stroke-opacity:1; fill:none" points="255.533,1280.22 255.533,1270.78 "/>
<polyline clip-path="url(#clip860)" style="stroke:#000000; stroke-linecap:round; stroke-linejoin:round; stroke-width:4; stroke-opacity:1; fill:none" points="270.701,1280.22 270.701,1270.78 "/>
<polyline clip-path="url(#clip860)" style="stroke:#000000; stroke-linecap:round; stroke-linejoin:round; stroke-width:4; stroke-opacity:1; fill:none" points="282.846,1280.22 282.846,1270.78 "/>
<polyline clip-path="url(#clip860)" style="stroke:#000000; stroke-linecap:round; stroke-linejoin:round; stroke-width:4; stroke-opacity:1; fill:none" points="282.846,1280.22 282.846,1270.78 "/>
<polyline clip-path="url(#clip860)" style="stroke:#000000; stroke-linecap:round; stroke-linejoin:round; stroke-width:4; stroke-opacity:1; fill:none" points="345.858,1280.22 345.858,1270.78 "/>
<polyline clip-path="url(#clip860)" style="stroke:#000000; stroke-linecap:round; stroke-linejoin:round; stroke-width:4; stroke-opacity:1; fill:none" points="376.24,1280.22 376.24,1270.78 "/>
<polyline clip-path="url(#clip860)" style="stroke:#000000; stroke-linecap:round; stroke-linejoin:round; stroke-width:4; stroke-opacity:1; fill:none" points="396.451,1280.22 396.451,1270.78 "/>
<polyline clip-path="url(#clip860)" style="stroke:#000000; stroke-linecap:round; stroke-linejoin:round; stroke-width:4; stroke-opacity:1; fill:none" points="411.618,1280.22 411.618,1270.78 "/>
<polyline clip-path="url(#clip860)" style="stroke:#000000; stroke-linecap:round; stroke-linejoin:round; stroke-width:4; stroke-opacity:1; fill:none" points="423.763,1280.22 423.763,1270.78 "/>
<polyline clip-path="url(#clip860)" style="stroke:#000000; stroke-linecap:round; stroke-linejoin:round; stroke-width:4; stroke-opacity:1; fill:none" points="423.763,1280.22 423.763,1270.78 "/>
<polyline clip-path="url(#clip860)" style="stroke:#000000; stroke-linecap:round; stroke-linejoin:round; stroke-width:4; stroke-opacity:1; fill:none" points="486.776,1280.22 486.776,1270.78 "/>
<polyline clip-path="url(#clip860)" style="stroke:#000000; stroke-linecap:round; stroke-linejoin:round; stroke-width:4; stroke-opacity:1; fill:none" points="517.158,1280.22 517.158,1270.78 "/>
<polyline clip-path="url(#clip860)" style="stroke:#000000; stroke-linecap:round; stroke-linejoin:round; stroke-width:4; stroke-opacity:1; fill:none" points="537.368,1280.22 537.368,1270.78 "/>
<polyline clip-path="url(#clip860)" style="stroke:#000000; stroke-linecap:round; stroke-linejoin:round; stroke-width:4; stroke-opacity:1; fill:none" points="552.536,1280.22 552.536,1270.78 "/>
<polyline clip-path="url(#clip860)" style="stroke:#000000; stroke-linecap:round; stroke-linejoin:round; stroke-width:4; stroke-opacity:1; fill:none" points="564.681,1280.22 564.681,1270.78 "/>
<polyline clip-path="url(#clip860)" style="stroke:#000000; stroke-linecap:round; stroke-linejoin:round; stroke-width:4; stroke-opacity:1; fill:none" points="564.681,1280.22 564.681,1270.78 "/>
<polyline clip-path="url(#clip860)" style="stroke:#000000; stroke-linecap:round; stroke-linejoin:round; stroke-width:4; stroke-opacity:1; fill:none" points="627.694,1280.22 627.694,1270.78 "/>
<polyline clip-path="url(#clip860)" style="stroke:#000000; stroke-linecap:round; stroke-linejoin:round; stroke-width:4; stroke-opacity:1; fill:none" points="658.075,1280.22 658.075,1270.78 "/>
<polyline clip-path="url(#clip860)" style="stroke:#000000; stroke-linecap:round; stroke-linejoin:round; stroke-width:4; stroke-opacity:1; fill:none" points="678.286,1280.22 678.286,1270.78 "/>
<polyline clip-path="url(#clip860)" style="stroke:#000000; stroke-linecap:round; stroke-linejoin:round; stroke-width:4; stroke-opacity:1; fill:none" points="693.454,1280.22 693.454,1270.78 "/>
<polyline clip-path="url(#clip860)" style="stroke:#000000; stroke-linecap:round; stroke-linejoin:round; stroke-width:4; stroke-opacity:1; fill:none" points="705.599,1280.22 705.599,1270.78 "/>
<polyline clip-path="url(#clip860)" style="stroke:#000000; stroke-linecap:round; stroke-linejoin:round; stroke-width:4; stroke-opacity:1; fill:none" points="705.599,1280.22 705.599,1270.78 "/>
<polyline clip-path="url(#clip860)" style="stroke:#000000; stroke-linecap:round; stroke-linejoin:round; stroke-width:4; stroke-opacity:1; fill:none" points="768.611,1280.22 768.611,1270.78 "/>
<polyline clip-path="url(#clip860)" style="stroke:#000000; stroke-linecap:round; stroke-linejoin:round; stroke-width:4; stroke-opacity:1; fill:none" points="798.993,1280.22 798.993,1270.78 "/>
<polyline clip-path="url(#clip860)" style="stroke:#000000; stroke-linecap:round; stroke-linejoin:round; stroke-width:4; stroke-opacity:1; fill:none" points="819.204,1280.22 819.204,1270.78 "/>
<polyline clip-path="url(#clip860)" style="stroke:#000000; stroke-linecap:round; stroke-linejoin:round; stroke-width:4; stroke-opacity:1; fill:none" points="834.371,1280.22 834.371,1270.78 "/>
<polyline clip-path="url(#clip860)" style="stroke:#000000; stroke-linecap:round; stroke-linejoin:round; stroke-width:4; stroke-opacity:1; fill:none" points="345.858,1280.22 345.858,1270.78 "/>
<polyline clip-path="url(#clip860)" style="stroke:#000000; stroke-linecap:round; stroke-linejoin:round; stroke-width:4; stroke-opacity:1; fill:none" points="376.24,1280.22 376.24,1270.78 "/>
<polyline clip-path="url(#clip860)" style="stroke:#000000; stroke-linecap:round; stroke-linejoin:round; stroke-width:4; stroke-opacity:1; fill:none" points="396.451,1280.22 396.451,1270.78 "/>
<polyline clip-path="url(#clip860)" style="stroke:#000000; stroke-linecap:round; stroke-linejoin:round; stroke-width:4; stroke-opacity:1; fill:none" points="411.618,1280.22 411.618,1270.78 "/>
<polyline clip-path="url(#clip860)" style="stroke:#000000; stroke-linecap:round; stroke-linejoin:round; stroke-width:4; stroke-opacity:1; fill:none" points="423.763,1280.22 423.763,1270.78 "/>
<polyline clip-path="url(#clip860)" style="stroke:#000000; stroke-linecap:round; stroke-linejoin:round; stroke-width:4; stroke-opacity:1; fill:none" points="423.763,1280.22 423.763,1270.78 "/>
<polyline clip-path="url(#clip860)" style="stroke:#000000; stroke-linecap:round; stroke-linejoin:round; stroke-width:4; stroke-opacity:1; fill:none" points="486.776,1280.22 486.776,1270.78 "/>
<polyline clip-path="url(#clip860)" style="stroke:#000000; stroke-linecap:round; stroke-linejoin:round; stroke-width:4; stroke-opacity:1; fill:none" points="517.158,1280.22 517.158,1270.78 "/>
<polyline clip-path="url(#clip860)" style="stroke:#000000; stroke-linecap:round; stroke-linejoin:round; stroke-width:4; stroke-opacity:1; fill:none" points="537.368,1280.22 537.368,1270.78 "/>
<polyline clip-path="url(#clip860)" style="stroke:#000000; stroke-linecap:round; stroke-linejoin:round; stroke-width:4; stroke-opacity:1; fill:none" points="552.536,1280.22 552.536,1270.78 "/>
<polyline clip-path="url(#clip860)" style="stroke:#000000; stroke-linecap:round; stroke-linejoin:round; stroke-width:4; stroke-opacity:1; fill:none" points="564.681,1280.22 564.681,1270.78 "/>
<polyline clip-path="url(#clip860)" style="stroke:#000000; stroke-linecap:round; stroke-linejoin:round; stroke-width:4; stroke-opacity:1; fill:none" points="564.681,1280.22 564.681,1270.78 "/>
<polyline clip-path="url(#clip860)" style="stroke:#000000; stroke-linecap:round; stroke-linejoin:round; stroke-width:4; stroke-opacity:1; fill:none" points="627.694,1280.22 627.694,1270.78 "/>
<polyline clip-path="url(#clip860)" style="stroke:#000000; stroke-linecap:round; stroke-linejoin:round; stroke-width:4; stroke-opacity:1; fill:none" points="658.075,1280.22 658.075,1270.78 "/>
<polyline clip-path="url(#clip860)" style="stroke:#000000; stroke-linecap:round; stroke-linejoin:round; stroke-width:4; stroke-opacity:1; fill:none" points="678.286,1280.22 678.286,1270.78 "/>
<polyline clip-path="url(#clip860)" style="stroke:#000000; stroke-linecap:round; stroke-linejoin:round; stroke-width:4; stroke-opacity:1; fill:none" points="693.454,1280.22 693.454,1270.78 "/>
<polyline clip-path="url(#clip860)" style="stroke:#000000; stroke-linecap:round; stroke-linejoin:round; stroke-width:4; stroke-opacity:1; fill:none" points="705.599,1280.22 705.599,1270.78 "/>
<polyline clip-path="url(#clip860)" style="stroke:#000000; stroke-linecap:round; stroke-linejoin:round; stroke-width:4; stroke-opacity:1; fill:none" points="705.599,1280.22 705.599,1270.78 "/>
<polyline clip-path="url(#clip860)" style="stroke:#000000; stroke-linecap:round; stroke-linejoin:round; stroke-width:4; stroke-opacity:1; fill:none" points="768.611,1280.22 768.611,1270.78 "/>
<polyline clip-path="url(#clip860)" style="stroke:#000000; stroke-linecap:round; stroke-linejoin:round; stroke-width:4; stroke-opacity:1; fill:none" points="798.993,1280.22 798.993,1270.78 "/>
<polyline clip-path="url(#clip860)" style="stroke:#000000; stroke-linecap:round; stroke-linejoin:round; stroke-width:4; stroke-opacity:1; fill:none" points="819.204,1280.22 819.204,1270.78 "/>
<polyline clip-path="url(#clip860)" style="stroke:#000000; stroke-linecap:round; stroke-linejoin:round; stroke-width:4; stroke-opacity:1; fill:none" points="834.371,1280.22 834.371,1270.78 "/>
<polyline clip-path="url(#clip860)" style="stroke:#000000; stroke-linecap:round; stroke-linejoin:round; stroke-width:4; stroke-opacity:1; fill:none" points="846.516,1280.22 846.516,1270.78 "/>
<polyline clip-path="url(#clip860)" style="stroke:#000000; stroke-linecap:round; stroke-linejoin:round; stroke-width:4; stroke-opacity:1; fill:none" points="846.516,1280.22 846.516,1270.78 "/>
<polyline clip-path="url(#clip860)" style="stroke:#000000; stroke-linecap:round; stroke-linejoin:round; stroke-width:4; stroke-opacity:1; fill:none" points="909.529,1280.22 909.529,1270.78 "/>
<polyline clip-path="url(#clip860)" style="stroke:#000000; stroke-linecap:round; stroke-linejoin:round; stroke-width:4; stroke-opacity:1; fill:none" points="939.911,1280.22 939.911,1270.78 "/>
<polyline clip-path="url(#clip860)" style="stroke:#000000; stroke-linecap:round; stroke-linejoin:round; stroke-width:4; stroke-opacity:1; fill:none" points="960.121,1280.22 960.121,1270.78 "/>
<polyline clip-path="url(#clip860)" style="stroke:#000000; stroke-linecap:round; stroke-linejoin:round; stroke-width:4; stroke-opacity:1; fill:none" points="975.289,1280.22 975.289,1270.78 "/>
<polyline clip-path="url(#clip860)" style="stroke:#000000; stroke-linecap:round; stroke-linejoin:round; stroke-width:4; stroke-opacity:1; fill:none" points="1050.45,1280.22 1050.45,1270.78 "/>
<polyline clip-path="url(#clip860)" style="stroke:#000000; stroke-linecap:round; stroke-linejoin:round; stroke-width:4; stroke-opacity:1; fill:none" points="1080.83,1280.22 1080.83,1270.78 "/>
<polyline clip-path="url(#clip860)" style="stroke:#000000; stroke-linecap:round; stroke-linejoin:round; stroke-width:4; stroke-opacity:1; fill:none" points="1101.04,1280.22 1101.04,1270.78 "/>
<polyline clip-path="url(#clip860)" style="stroke:#000000; stroke-linecap:round; stroke-linejoin:round; stroke-width:4; stroke-opacity:1; fill:none" points="1116.21,1280.22 1116.21,1270.78 "/>
<polyline clip-path="url(#clip860)" style="stroke:#000000; stroke-linecap:round; stroke-linejoin:round; stroke-width:4; stroke-opacity:1; fill:none" points="1128.35,1280.22 1128.35,1270.78 "/>
<polyline clip-path="url(#clip860)" style="stroke:#000000; stroke-linecap:round; stroke-linejoin:round; stroke-width:4; stroke-opacity:1; fill:none" points="1128.35,1280.22 1128.35,1270.78 "/>
<polyline clip-path="url(#clip860)" style="stroke:#000000; stroke-linecap:round; stroke-linejoin:round; stroke-width:4; stroke-opacity:1; fill:none" points="1191.36,1280.22 1191.36,1270.78 "/>
<polyline clip-path="url(#clip860)" style="stroke:#000000; stroke-linecap:round; stroke-linejoin:round; stroke-width:4; stroke-opacity:1; fill:none" points="1221.75,1280.22 1221.75,1270.78 "/>
<polyline clip-path="url(#clip860)" style="stroke:#000000; stroke-linecap:round; stroke-linejoin:round; stroke-width:4; stroke-opacity:1; fill:none" points="1241.96,1280.22 1241.96,1270.78 "/>
<polyline clip-path="url(#clip860)" style="stroke:#000000; stroke-linecap:round; stroke-linejoin:round; stroke-width:4; stroke-opacity:1; fill:none" points="1257.12,1280.22 1257.12,1270.78 "/>
<polyline clip-path="url(#clip860)" style="stroke:#000000; stroke-linecap:round; stroke-linejoin:round; stroke-width:4; stroke-opacity:1; fill:none" points="1269.27,1280.22 1269.27,1270.78 "/>
<polyline clip-path="url(#clip860)" style="stroke:#000000; stroke-linecap:round; stroke-linejoin:round; stroke-width:4; stroke-opacity:1; fill:none" points="1269.27,1280.22 1269.27,1270.78 "/>
<polyline clip-path="url(#clip860)" style="stroke:#000000; stroke-linecap:round; stroke-linejoin:round; stroke-width:4; stroke-opacity:1; fill:none" points="1332.28,1280.22 1332.28,1270.78 "/>
<polyline clip-path="url(#clip860)" style="stroke:#000000; stroke-linecap:round; stroke-linejoin:round; stroke-width:4; stroke-opacity:1; fill:none" points="1362.66,1280.22 1362.66,1270.78 "/>
<polyline clip-path="url(#clip860)" style="stroke:#000000; stroke-linecap:round; stroke-linejoin:round; stroke-width:4; stroke-opacity:1; fill:none" points="1382.87,1280.22 1382.87,1270.78 "/>
<polyline clip-path="url(#clip860)" style="stroke:#000000; stroke-linecap:round; stroke-linejoin:round; stroke-width:4; stroke-opacity:1; fill:none" points="1398.04,1280.22 1398.04,1270.78 "/>
<polyline clip-path="url(#clip860)" style="stroke:#000000; stroke-linecap:round; stroke-linejoin:round; stroke-width:4; stroke-opacity:1; fill:none" points="1410.19,1280.22 1410.19,1270.78 "/>
<path clip-path="url(#clip860)" d="M226.247 1328.64 L226.247 1327.06 Q232.324 1327.06 235.462 1323.82 Q236.326 1323.82 236.475 1324.02 Q236.623 1324.22 236.623 1325.13 L236.623 1353.51 Q236.623 1355.02 237.364 1355.49 Q238.105 1355.96 241.341 1355.96 L242.947 1355.96 L242.947 1357.52 Q241.168 1357.37 234.745 1357.37 Q228.322 1357.37 226.569 1357.52 L226.569 1355.96 L228.174 1355.96 Q231.361 1355.96 232.127 1355.52 Q232.893 1355.05 232.893 1353.51 L232.893 1327.3 Q230.249 1328.64 226.247 1328.64 Z" fill="#000000" fill-rule="nonzero" fill-opacity="1" /><path clip-path="url(#clip860)" d="M249.024 1341.34 Q249.024 1333.9 250.901 1329.85 Q253.52 1323.82 259.696 1323.82 Q261.005 1323.82 262.364 1324.19 Q263.747 1324.54 265.476 1325.9 Q267.23 1327.25 268.292 1329.48 Q270.318 1333.78 270.318 1341.34 Q270.318 1348.72 268.441 1352.75 Q265.699 1358.63 259.646 1358.63 Q257.374 1358.63 255.051 1357.47 Q252.754 1356.31 251.297 1353.51 Q249.024 1349.34 249.024 1341.34 M253.223 1340.72 Q253.223 1348.35 253.767 1351.39 Q254.384 1354.68 256.064 1356.11 Q257.769 1357.52 259.646 1357.52 Q261.672 1357.52 263.352 1356.01 Q265.056 1354.48 265.575 1351.19 Q266.143 1347.96 266.119 1340.72 Q266.119 1333.68 265.625 1330.86 Q264.958 1327.58 263.179 1326.27 Q261.425 1324.93 259.646 1324.93 Q258.979 1324.93 258.263 1325.13 Q257.571 1325.33 256.558 1325.9 Q255.546 1326.46 254.755 1327.87 Q253.989 1329.28 253.619 1331.41 Q253.223 1334.15 253.223 1340.72 Z" fill="#000000" fill-rule="nonzero" fill-opacity="1" /><path clip-path="url(#clip860)" d="M297.455 1319.25 Q297.696 1319.49 297.696 1319.83 Q297.696 1320.17 297.455 1320.41 Q297.214 1320.65 296.873 1320.65 L271.141 1320.65 Q270.8 1320.65 270.559 1320.41 Q270.318 1320.17 270.318 1319.83 Q270.318 1319.49 270.559 1319.25 Q270.8 1319.01 271.141 1319.01 L296.873 1319.01 Q297.214 1319.01 297.455 1319.25 Z" fill="#000000" fill-rule="nonzero" fill-opacity="1" /><path clip-path="url(#clip860)" d="M303.637 1306.64 L303.637 1305.36 Q308.574 1305.36 311.123 1302.73 Q311.826 1302.73 311.946 1302.89 Q312.067 1303.05 312.067 1303.79 L312.067 1326.85 Q312.067 1328.08 312.669 1328.46 Q313.271 1328.84 315.9 1328.84 L317.205 1328.84 L317.205 1330.11 Q315.76 1329.99 310.541 1329.99 Q305.323 1329.99 303.898 1330.11 L303.898 1328.84 L305.202 1328.84 Q307.792 1328.84 308.414 1328.48 Q309.036 1328.1 309.036 1326.85 L309.036 1305.56 Q306.888 1306.64 303.637 1306.64 Z" fill="#000000" fill-rule="nonzero" fill-opacity="1" /><path clip-path="url(#clip860)" d="M322.143 1316.96 Q322.143 1310.92 323.668 1307.63 Q325.796 1302.73 330.814 1302.73 Q331.877 1302.73 332.981 1303.03 Q334.105 1303.31 335.51 1304.41 Q336.935 1305.52 337.798 1307.32 Q339.444 1310.82 339.444 1316.96 Q339.444 1322.96 337.919 1326.23 Q335.691 1331.01 330.773 1331.01 Q328.927 1331.01 327.04 1330.07 Q325.174 1329.12 323.989 1326.85 Q322.143 1323.46 322.143 1316.96 M325.555 1316.46 Q325.555 1322.66 325.996 1325.13 Q326.498 1327.8 327.863 1328.96 Q329.248 1330.11 330.773 1330.11 Q332.419 1330.11 333.784 1328.88 Q335.169 1327.64 335.591 1324.97 Q336.052 1322.34 336.032 1316.46 Q336.032 1310.74 335.631 1308.45 Q335.089 1305.78 333.644 1304.72 Q332.219 1303.63 330.773 1303.63 Q330.232 1303.63 329.649 1303.79 Q329.087 1303.95 328.265 1304.41 Q327.442 1304.88 326.799 1306.02 Q326.177 1307.16 325.876 1308.89 Q325.555 1311.12 325.555 1316.46 Z" fill="#000000" fill-rule="nonzero" fill-opacity="1" /><path clip-path="url(#clip860)" d="M941.333 1328.64 L941.333 1327.06 Q947.41 1327.06 950.547 1323.82 Q951.412 1323.82 951.56 1324.02 Q951.708 1324.22 951.708 1325.13 L951.708 1353.51 Q951.708 1355.02 952.449 1355.49 Q953.19 1355.96 956.427 1355.96 L958.032 1355.96 L958.032 1357.52 Q956.254 1357.37 949.831 1357.37 Q943.408 1357.37 941.654 1357.52 L941.654 1355.96 L943.26 1355.96 Q946.446 1355.96 947.212 1355.52 Q947.978 1355.05 947.978 1353.51 L947.978 1327.3 Q945.335 1328.64 941.333 1328.64 Z" fill="#000000" fill-rule="nonzero" fill-opacity="1" /><path clip-path="url(#clip860)" d="M964.109 1341.34 Q964.109 1333.9 965.987 1329.85 Q968.605 1323.82 974.781 1323.82 Q976.09 1323.82 977.449 1324.19 Q978.832 1324.54 980.562 1325.9 Q982.316 1327.25 983.378 1329.48 Q985.404 1333.78 985.404 1341.34 Q985.404 1348.72 983.526 1352.75 Q980.784 1358.63 974.732 1358.63 Q972.459 1358.63 970.137 1357.47 Q967.839 1356.31 966.382 1353.51 Q964.109 1349.34 964.109 1341.34 M968.309 1340.72 Q968.309 1348.35 968.852 1351.39 Q969.47 1354.68 971.15 1356.11 Q972.854 1357.52 974.732 1357.52 Q976.757 1357.52 978.437 1356.01 Q980.142 1354.48 980.661 1351.19 Q981.229 1347.96 981.204 1340.72 Q981.204 1333.68 980.71 1330.86 Q980.043 1327.58 978.264 1326.27 Q976.51 1324.93 974.732 1324.93 Q974.065 1324.93 973.348 1325.13 Q972.657 1325.33 971.644 1325.9 Q970.631 1326.46 969.84 1327.87 Q969.075 1329.28 968.704 1331.41 Q968.309 1334.15 968.309 1340.72 Z" fill="#000000" fill-rule="nonzero" fill-opacity="1" /><path clip-path="url(#clip860)" d="M1012.54 1319.25 Q1012.78 1319.49 1012.78 1319.83 Q1012.78 1320.17 1012.54 1320.41 Q1012.3 1320.65 1011.96 1320.65 L986.227 1320.65 Q985.885 1320.65 985.644 1320.41 Q985.404 1320.17 985.404 1319.83 Q985.404 1319.49 985.644 1319.25 Q985.885 1319.01 986.227 1319.01 L1011.96 1319.01 Q1012.3 1319.01 1012.54 1319.25 Z" fill="#000000" fill-rule="nonzero" fill-opacity="1" /><path clip-path="url(#clip860)" d="M1017.12 1323.48 Q1017.12 1322.26 1017.78 1321.8 Q1018.44 1321.31 1019.14 1321.31 Q1020.09 1321.31 1020.63 1321.92 Q1021.19 1322.5 1021.19 1323.32 Q1021.19 1324.14 1020.63 1324.75 Q1020.09 1325.33 1019.14 1325.33 Q1018.68 1325.33 1018.44 1325.25 Q1018.98 1327.14 1020.63 1328.5 Q1022.29 1329.87 1024.48 1329.87 Q1027.23 1329.87 1028.88 1327.2 Q1029.86 1325.47 1029.86 1321.56 Q1029.86 1318.1 1029.12 1316.38 Q1027.98 1313.75 1025.63 1313.75 Q1022.29 1313.75 1020.33 1316.62 Q1020.09 1316.98 1019.81 1317 Q1019.4 1317 1019.3 1316.78 Q1019.22 1316.54 1019.22 1315.92 L1019.22 1303.75 Q1019.22 1302.77 1019.63 1302.77 Q1019.79 1302.77 1020.13 1302.89 Q1022.72 1304.03 1025.59 1304.05 Q1028.54 1304.05 1031.19 1302.85 Q1031.39 1302.73 1031.51 1302.73 Q1031.91 1302.73 1031.93 1303.19 Q1031.93 1303.35 1031.59 1303.83 Q1031.27 1304.29 1030.56 1304.92 Q1029.86 1305.52 1028.96 1306.1 Q1028.06 1306.68 1026.73 1307.08 Q1025.43 1307.47 1023.98 1307.47 Q1022.25 1307.47 1020.49 1306.92 L1020.49 1314.93 Q1022.62 1312.84 1025.71 1312.84 Q1029 1312.84 1031.27 1315.49 Q1033.53 1318.14 1033.53 1321.84 Q1033.53 1325.71 1030.85 1328.36 Q1028.18 1331.01 1024.56 1331.01 Q1021.27 1331.01 1019.18 1328.66 Q1017.12 1326.31 1017.12 1323.48 Z" fill="#000000" fill-rule="nonzero" fill-opacity="1" /><path clip-path="url(#clip860)" d="M743.318 1447.26 L743.318 1444.92 L745.134 1444.92 Q749.247 1444.92 750.173 1444.26 Q751.137 1443.55 751.137 1441.33 L751.137 1401.57 Q751.137 1399.38 750.173 1398.72 Q749.21 1398.01 745.134 1398.01 L743.318 1398.01 L743.318 1395.64 L786.043 1395.64 L788.155 1412.72 L786.265 1412.72 Q785.746 1408.39 785.042 1405.9 Q784.375 1403.38 782.708 1401.46 Q781.077 1399.53 778.372 1398.79 Q775.704 1398.01 771.369 1398.01 L761.586 1398.01 Q758.992 1398.01 758.437 1398.57 Q757.881 1399.09 757.881 1401.05 L757.881 1419.24 L764.699 1419.24 Q769.924 1419.24 771.406 1417.43 Q772.888 1415.61 772.888 1410.39 L774.815 1410.39 L774.815 1430.47 L772.888 1430.47 Q772.888 1425.32 771.406 1423.47 Q769.924 1421.62 764.699 1421.62 L757.881 1421.62 L757.881 1441.88 Q757.881 1443.85 758.437 1444.4 Q759.029 1444.92 761.586 1444.92 L771.702 1444.92 Q774.963 1444.92 777.335 1444.52 Q779.743 1444.07 781.411 1443.03 Q783.078 1441.96 784.19 1440.74 Q785.338 1439.51 786.117 1437.33 Q786.932 1435.1 787.377 1433.07 Q787.858 1431.03 788.377 1427.69 L790.267 1427.69 L787.08 1447.26 L743.318 1447.26 Z" fill="#000000" fill-rule="nonzero" fill-opacity="1" /><path clip-path="url(#clip860)" d="M794.491 1447.26 L794.491 1444.92 Q798.53 1444.92 799.456 1444.44 Q800.42 1443.92 800.42 1441.48 L800.42 1421.13 Q800.42 1418.32 799.419 1417.61 Q798.456 1416.91 794.491 1416.91 L794.491 1414.54 L805.052 1413.72 L805.052 1422.06 Q806.126 1418.8 808.387 1416.28 Q810.684 1413.72 814.39 1413.72 Q816.835 1413.72 818.392 1415.09 Q819.985 1416.46 819.985 1418.35 Q819.985 1420.02 818.947 1420.87 Q817.947 1421.69 816.724 1421.69 Q815.353 1421.69 814.39 1420.84 Q813.463 1419.95 813.463 1418.43 Q813.463 1417.5 813.871 1416.8 Q814.316 1416.06 814.649 1415.8 Q814.983 1415.54 815.205 1415.46 Q815.057 1415.39 814.39 1415.39 Q810.202 1415.39 807.794 1419.58 Q805.422 1423.73 805.422 1429.66 L805.422 1441.33 Q805.422 1443.51 806.312 1444.22 Q807.238 1444.92 811.203 1444.92 L812.796 1444.92 L812.796 1447.26 Q809.758 1447.03 803.162 1447.03 Q802.236 1447.03 800.79 1447.07 Q799.345 1447.11 797.455 1447.18 Q795.566 1447.26 794.491 1447.26 Z" fill="#000000" fill-rule="nonzero" fill-opacity="1" /><path clip-path="url(#clip860)" d="M824.135 1447.26 L824.135 1444.92 Q828.174 1444.92 829.1 1444.44 Q830.064 1443.92 830.064 1441.48 L830.064 1421.13 Q830.064 1418.32 829.063 1417.61 Q828.1 1416.91 824.135 1416.91 L824.135 1414.54 L834.696 1413.72 L834.696 1422.06 Q835.77 1418.8 838.031 1416.28 Q840.328 1413.72 844.034 1413.72 Q846.479 1413.72 848.036 1415.09 Q849.629 1416.46 849.629 1418.35 Q849.629 1420.02 848.591 1420.87 Q847.591 1421.69 846.368 1421.69 Q844.997 1421.69 844.034 1420.84 Q843.107 1419.95 843.107 1418.43 Q843.107 1417.5 843.515 1416.8 Q843.96 1416.06 844.293 1415.8 Q844.627 1415.54 844.849 1415.46 Q844.701 1415.39 844.034 1415.39 Q839.846 1415.39 837.438 1419.58 Q835.066 1423.73 835.066 1429.66 L835.066 1441.33 Q835.066 1443.51 835.956 1444.22 Q836.882 1444.92 840.847 1444.92 L842.44 1444.92 L842.44 1447.26 Q839.402 1447.03 832.806 1447.03 Q831.88 1447.03 830.434 1447.07 Q828.989 1447.11 827.1 1447.18 Q825.21 1447.26 824.135 1447.26 Z" fill="#000000" fill-rule="nonzero" fill-opacity="1" /><path clip-path="url(#clip860)" d="M858.782 1443.18 Q853.779 1438.22 853.779 1431.03 Q853.779 1423.8 858.67 1418.54 Q863.599 1413.24 870.639 1413.24 Q877.531 1413.24 882.46 1418.5 Q887.425 1423.73 887.425 1431.03 Q887.425 1438.18 882.423 1443.14 Q877.457 1448.11 870.565 1448.11 Q863.821 1448.11 858.782 1443.18 M860.079 1430.4 Q860.079 1437.77 862.005 1441.11 Q864.97 1446.18 870.639 1446.18 Q873.455 1446.18 875.79 1444.66 Q878.161 1443.14 879.458 1440.59 Q881.126 1437.25 881.126 1430.4 Q881.126 1423.1 879.125 1419.87 Q876.16 1414.95 870.565 1414.95 Q868.119 1414.95 865.711 1416.24 Q863.339 1417.5 861.894 1420.02 Q860.079 1423.36 860.079 1430.4 Z" fill="#000000" fill-rule="nonzero" fill-opacity="1" /><path clip-path="url(#clip860)" d="M891.724 1447.26 L891.724 1444.92 Q895.763 1444.92 896.689 1444.44 Q897.652 1443.92 897.652 1441.48 L897.652 1421.13 Q897.652 1418.32 896.652 1417.61 Q895.688 1416.91 891.724 1416.91 L891.724 1414.54 L902.284 1413.72 L902.284 1422.06 Q903.359 1418.8 905.619 1416.28 Q907.917 1413.72 911.622 1413.72 Q914.068 1413.72 915.624 1415.09 Q917.217 1416.46 917.217 1418.35 Q917.217 1420.02 916.18 1420.87 Q915.179 1421.69 913.957 1421.69 Q912.586 1421.69 911.622 1420.84 Q910.696 1419.95 910.696 1418.43 Q910.696 1417.5 911.103 1416.8 Q911.548 1416.06 911.881 1415.8 Q912.215 1415.54 912.437 1415.46 Q912.289 1415.39 911.622 1415.39 Q907.435 1415.39 905.026 1419.58 Q902.655 1423.73 902.655 1429.66 L902.655 1441.33 Q902.655 1443.51 903.544 1444.22 Q904.47 1444.92 908.435 1444.92 L910.029 1444.92 L910.029 1447.26 Q906.99 1447.03 900.394 1447.03 Q899.468 1447.03 898.023 1447.07 Q896.578 1447.11 894.688 1447.18 Q892.798 1447.26 891.724 1447.26 Z" fill="#000000" fill-rule="nonzero" fill-opacity="1" /><polyline clip-path="url(#clip862)" style="stroke:#000000; stroke-linecap:round; stroke-linejoin:round; stroke-width:2.8; stroke-opacity:0.4; fill:none" points="214.993,958.521 1445.54,958.521 "/>
<polyline clip-path="url(#clip862)" style="stroke:#000000; stroke-linecap:round; stroke-linejoin:round; stroke-width:2.8; stroke-opacity:0.4; fill:none" points="214.993,316.838 1445.54,316.838 "/>
<polyline clip-path="url(#clip862)" style="stroke:#000000; stroke-linecap:round; stroke-linejoin:round; stroke-width:2; stroke-opacity:0.06; fill:none" points="214.993,1174.92 1445.54,1174.92 "/>
<polyline clip-path="url(#clip862)" style="stroke:#000000; stroke-linecap:round; stroke-linejoin:round; stroke-width:2; stroke-opacity:0.06; fill:none" points="214.993,1082.89 1445.54,1082.89 "/>
<polyline clip-path="url(#clip862)" style="stroke:#000000; stroke-linecap:round; stroke-linejoin:round; stroke-width:2; stroke-opacity:0.06; fill:none" points="214.993,1013.83 1445.54,1013.83 "/>
<polyline clip-path="url(#clip862)" style="stroke:#000000; stroke-linecap:round; stroke-linejoin:round; stroke-width:2; stroke-opacity:0.06; fill:none" points="214.993,671.587 1445.54,671.587 "/>
<polyline clip-path="url(#clip862)" style="stroke:#000000; stroke-linecap:round; stroke-linejoin:round; stroke-width:2; stroke-opacity:0.06; fill:none" points="214.993,533.241 1445.54,533.241 "/>
<polyline clip-path="url(#clip862)" style="stroke:#000000; stroke-linecap:round; stroke-linejoin:round; stroke-width:2; stroke-opacity:0.06; fill:none" points="214.993,441.209 1445.54,441.209 "/>
<polyline clip-path="url(#clip862)" style="stroke:#000000; stroke-linecap:round; stroke-linejoin:round; stroke-width:2; stroke-opacity:0.06; fill:none" points="214.993,372.143 1445.54,372.143 "/>
<polyline clip-path="url(#clip860)" style="stroke:#000000; stroke-linecap:round; stroke-linejoin:round; stroke-width:4; stroke-opacity:1; fill:none" points="214.993,1280.22 214.993,47.2441 "/>
<polyline clip-path="url(#clip860)" style="stroke:#000000; stroke-linecap:round; stroke-linejoin:round; stroke-width:4; stroke-opacity:1; fill:none" points="1445.54,1280.22 1445.54,47.2441 "/>
<polyline clip-path="url(#clip860)" style="stroke:#000000; stroke-linecap:round; stroke-linejoin:round; stroke-width:4; stroke-opacity:1; fill:none" points="214.993,958.521 226.382,958.521 "/>
<polyline clip-path="url(#clip860)" style="stroke:#000000; stroke-linecap:round; stroke-linejoin:round; stroke-width:4; stroke-opacity:1; fill:none" points="214.993,316.838 226.382,316.838 "/>
<polyline clip-path="url(#clip860)" style="stroke:#000000; stroke-linecap:round; stroke-linejoin:round; stroke-width:4; stroke-opacity:1; fill:none" points="214.993,1174.92 220.687,1174.92 "/>
<polyline clip-path="url(#clip860)" style="stroke:#000000; stroke-linecap:round; stroke-linejoin:round; stroke-width:4; stroke-opacity:1; fill:none" points="214.993,1082.89 220.687,1082.89 "/>
<polyline clip-path="url(#clip860)" style="stroke:#000000; stroke-linecap:round; stroke-linejoin:round; stroke-width:4; stroke-opacity:1; fill:none" points="214.993,1013.83 220.687,1013.83 "/>
<polyline clip-path="url(#clip860)" style="stroke:#000000; stroke-linecap:round; stroke-linejoin:round; stroke-width:4; stroke-opacity:1; fill:none" points="214.993,671.587 220.687,671.587 "/>
<polyline clip-path="url(#clip860)" style="stroke:#000000; stroke-linecap:round; stroke-linejoin:round; stroke-width:4; stroke-opacity:1; fill:none" points="214.993,533.241 220.687,533.241 "/>
<polyline clip-path="url(#clip860)" style="stroke:#000000; stroke-linecap:round; stroke-linejoin:round; stroke-width:4; stroke-opacity:1; fill:none" points="214.993,441.209 220.687,441.209 "/>
<polyline clip-path="url(#clip860)" style="stroke:#000000; stroke-linecap:round; stroke-linejoin:round; stroke-width:4; stroke-opacity:1; fill:none" points="214.993,372.143 220.687,372.143 "/>
<path clip-path="url(#clip860)" d="M119.06 953.37 L119.06 951.789 Q125.137 951.789 128.275 948.553 Q129.139 948.553 129.287 948.751 Q129.436 948.948 129.436 949.862 L129.436 978.247 Q129.436 979.753 130.177 980.223 Q130.918 980.692 134.154 980.692 L135.76 980.692 L135.76 982.248 Q133.981 982.1 127.558 982.1 Q121.135 982.1 119.381 982.248 L119.381 980.692 L120.987 980.692 Q124.174 980.692 124.94 980.247 Q125.705 979.778 125.705 978.247 L125.705 952.036 Q123.062 953.37 119.06 953.37 Z" fill="#000000" fill-rule="nonzero" fill-opacity="1" /><path clip-path="url(#clip860)" d="M141.837 966.068 Q141.837 958.632 143.714 954.581 Q146.333 948.553 152.509 948.553 Q153.818 948.553 155.176 948.924 Q156.56 949.269 158.289 950.628 Q160.043 951.987 161.105 954.21 Q163.131 958.509 163.131 966.068 Q163.131 973.454 161.253 977.481 Q158.511 983.36 152.459 983.36 Q150.186 983.36 147.864 982.199 Q145.567 981.038 144.109 978.247 Q141.837 974.072 141.837 966.068 M146.036 965.45 Q146.036 973.084 146.58 976.122 Q147.197 979.408 148.877 980.84 Q150.582 982.248 152.459 982.248 Q154.485 982.248 156.165 980.742 Q157.869 979.21 158.388 975.924 Q158.956 972.688 158.931 965.45 Q158.931 958.41 158.437 955.594 Q157.77 952.308 155.992 950.999 Q154.238 949.665 152.459 949.665 Q151.792 949.665 151.076 949.862 Q150.384 950.06 149.371 950.628 Q148.358 951.196 147.568 952.604 Q146.802 954.013 146.431 956.137 Q146.036 958.879 146.036 965.45 Z" fill="#000000" fill-rule="nonzero" fill-opacity="1" /><path clip-path="url(#clip860)" d="M163.131 941.691 Q163.131 935.65 164.656 932.358 Q166.784 927.461 171.802 927.461 Q172.866 927.461 173.97 927.762 Q175.094 928.043 176.499 929.147 Q177.924 930.251 178.787 932.057 Q180.433 935.549 180.433 941.691 Q180.433 947.693 178.907 950.964 Q176.679 955.741 171.762 955.741 Q169.915 955.741 168.028 954.798 Q166.162 953.855 164.978 951.586 Q163.131 948.194 163.131 941.691 M166.543 941.189 Q166.543 947.392 166.985 949.86 Q167.486 952.53 168.851 953.694 Q170.236 954.838 171.762 954.838 Q173.408 954.838 174.772 953.614 Q176.157 952.369 176.579 949.7 Q177.04 947.07 177.02 941.189 Q177.02 935.469 176.619 933.181 Q176.077 930.511 174.632 929.448 Q173.207 928.364 171.762 928.364 Q171.22 928.364 170.638 928.524 Q170.076 928.685 169.253 929.147 Q168.43 929.608 167.788 930.752 Q167.165 931.896 166.864 933.623 Q166.543 935.85 166.543 941.189 Z" fill="#000000" fill-rule="nonzero" fill-opacity="1" /><path clip-path="url(#clip860)" d="M122.793 311.688 L122.793 310.107 Q128.87 310.107 132.008 306.871 Q132.872 306.871 133.021 307.068 Q133.169 307.266 133.169 308.18 L133.169 336.564 Q133.169 338.071 133.91 338.54 Q134.651 339.01 137.887 339.01 L139.493 339.01 L139.493 340.566 Q137.714 340.418 131.291 340.418 Q124.869 340.418 123.115 340.566 L123.115 339.01 L124.72 339.01 Q127.907 339.01 128.673 338.565 Q129.439 338.096 129.439 336.564 L129.439 310.354 Q126.795 311.688 122.793 311.688 Z" fill="#000000" fill-rule="nonzero" fill-opacity="1" /><path clip-path="url(#clip860)" d="M145.57 324.385 Q145.57 316.95 147.447 312.898 Q150.066 306.871 156.242 306.871 Q157.551 306.871 158.91 307.241 Q160.293 307.587 162.022 308.946 Q163.776 310.304 164.839 312.528 Q166.864 316.826 166.864 324.385 Q166.864 331.772 164.987 335.798 Q162.245 341.678 156.192 341.678 Q153.92 341.678 151.598 340.517 Q149.3 339.356 147.843 336.564 Q145.57 332.389 145.57 324.385 M149.77 323.768 Q149.77 331.401 150.313 334.44 Q150.931 337.725 152.61 339.158 Q154.315 340.566 156.192 340.566 Q158.218 340.566 159.898 339.059 Q161.602 337.527 162.121 334.242 Q162.689 331.006 162.665 323.768 Q162.665 316.727 162.171 313.911 Q161.504 310.626 159.725 309.316 Q157.971 307.982 156.192 307.982 Q155.525 307.982 154.809 308.18 Q154.117 308.377 153.104 308.946 Q152.092 309.514 151.301 310.922 Q150.535 312.33 150.165 314.455 Q149.77 317.197 149.77 323.768 Z" fill="#000000" fill-rule="nonzero" fill-opacity="1" /><path clip-path="url(#clip860)" d="M166.864 289.692 L166.864 288.407 Q171.802 288.407 174.351 285.778 Q175.053 285.778 175.174 285.939 Q175.294 286.099 175.294 286.842 L175.294 309.904 Q175.294 311.128 175.896 311.51 Q176.499 311.891 179.128 311.891 L180.433 311.891 L180.433 313.156 Q178.987 313.035 173.769 313.035 Q168.55 313.035 167.125 313.156 L167.125 311.891 L168.43 311.891 Q171.019 311.891 171.641 311.53 Q172.263 311.148 172.263 309.904 L172.263 288.608 Q170.116 289.692 166.864 289.692 Z" fill="#000000" fill-rule="nonzero" fill-opacity="1" /><path clip-path="url(#clip860)" d="M34.6352 801.913 L17.5899 800.467 L17.5899 754.112 L34.6352 752.666 L34.6352 754.556 Q31.2261 754.853 29.2622 755.149 Q27.2983 755.408 25.4455 756.075 Q23.5557 756.705 22.6664 757.521 Q21.74 758.299 21.036 759.818 Q20.2949 761.337 20.1096 763.301 Q19.9243 765.265 19.9243 768.23 Q19.9243 771.713 20.0726 772.565 Q20.2949 773.491 20.9619 773.714 Q21.5918 773.936 22.9629 773.936 L62.9452 773.936 Q64.4645 773.936 65.0944 773.64 Q65.6873 773.306 66.169 771.564 Q66.6137 769.823 66.6137 765.969 L66.6137 762.931 L68.9482 762.931 Q68.7258 766.043 68.7258 777.345 Q68.7258 788.573 68.9482 791.685 L66.6137 791.685 L66.6137 788.647 Q66.6137 784.793 66.169 783.052 Q65.6873 781.273 65.0944 780.976 Q64.4645 780.68 62.9452 780.68 L22.9629 780.68 Q21.8883 780.68 21.4436 780.754 Q20.9989 780.828 20.6284 781.162 Q20.2208 781.495 20.0726 782.273 Q19.9243 783.014 19.9243 786.349 Q19.9243 789.314 20.1096 791.315 Q20.2949 793.279 21.036 794.798 Q21.74 796.317 22.6664 797.132 Q23.5557 797.911 25.4455 798.578 Q27.2983 799.208 29.2622 799.467 Q31.2261 799.726 34.6352 800.023 L34.6352 801.913 Z" fill="#000000" fill-rule="nonzero" fill-opacity="1" /><path clip-path="url(#clip860)" d="M68.9482 747.368 L66.6137 747.368 Q66.6137 743.329 66.132 742.402 Q65.6132 741.476 63.1676 741.476 L42.7502 741.476 Q39.9341 741.476 39.2671 742.439 Q38.6001 743.366 38.6001 747.071 L36.2286 747.071 L35.4133 736.473 L63.2417 736.473 Q65.502 736.473 66.0579 735.658 Q66.6137 734.843 66.6137 731.137 L68.9482 731.137 Q68.7258 738.882 68.7258 739.03 Q68.7258 740.068 68.9482 747.368 M22.1847 744.181 Q20.6654 744.181 19.4426 743.032 Q18.1828 741.846 18.1828 740.179 Q18.1828 738.511 19.3315 737.326 Q20.4431 736.14 22.2218 736.14 Q23.9633 736.14 25.112 737.326 Q26.2237 738.511 26.2237 740.179 Q26.2237 741.92 25.0009 743.069 Q23.7781 744.181 22.1847 744.181 Z" fill="#000000" fill-rule="nonzero" fill-opacity="1" /><path clip-path="url(#clip860)" d="M68.9482 726.431 L66.6137 726.431 Q66.6137 722.392 66.132 721.466 Q65.6132 720.54 63.1676 720.54 L42.8244 720.54 Q40.0082 720.54 39.3041 721.54 Q38.6001 722.504 38.6001 726.431 L36.2286 726.431 L35.4133 715.76 L43.3802 715.76 Q35.4133 712.202 35.4133 704.532 Q35.4133 695.639 42.8244 694.416 Q39.9341 693.119 37.6737 690.414 Q35.4133 687.672 35.4133 683.411 Q35.4133 677.704 38.2295 675.444 Q40.1193 673.776 42.2315 673.443 Q44.3436 673.109 49.8278 673.109 L64.3163 673.109 Q65.9096 673.035 66.2802 671.812 Q66.6137 670.589 66.6137 667.18 L68.9482 667.18 Q68.7258 674.925 68.7258 675.666 Q68.7258 676.259 68.9482 684.263 L66.6137 684.263 Q66.6137 680.224 66.132 679.297 Q65.6132 678.334 63.1676 678.334 L45.4923 678.334 Q41.6386 678.334 39.3782 679.52 Q37.0808 680.706 37.0808 683.966 Q37.0808 687.894 40.3787 691.044 Q43.6766 694.194 49.2349 694.194 L63.1676 694.194 Q65.6132 694.194 66.132 693.267 Q66.6137 692.304 66.6137 688.265 L68.9482 688.265 Q68.7258 696.009 68.7258 696.787 Q68.7258 697.38 68.9482 705.347 L66.6137 705.347 Q66.6137 701.308 66.132 700.382 Q65.6132 699.418 63.1676 699.418 L45.4923 699.418 Q41.6386 699.418 39.3782 700.604 Q37.0808 701.79 37.0808 705.051 Q37.0808 708.979 40.3787 712.128 Q43.6766 715.278 49.2349 715.278 L63.1676 715.278 Q65.6132 715.278 66.132 714.351 Q66.6137 713.388 66.6137 709.386 L68.9482 709.386 Q68.7258 717.131 68.7258 717.872 Q68.7258 718.465 68.9482 726.431 Z" fill="#000000" fill-rule="nonzero" fill-opacity="1" /><path clip-path="url(#clip860)" d="M52.2363 663.586 Q45.0847 663.586 40.0082 658.991 Q34.9316 654.396 34.9316 647.801 Q34.9316 641.131 39.2671 637.685 Q43.6025 634.201 49.8278 634.201 Q50.9765 634.201 51.1988 634.498 Q51.4211 634.794 51.4211 636.091 L51.4211 657.287 Q59.1656 657.287 62.797 654.989 Q67.8736 651.803 67.8736 646.43 Q67.8736 645.689 67.7253 644.799 Q67.5771 643.91 66.9472 642.094 Q66.2802 640.278 64.5386 638.685 Q62.797 637.092 60.0549 636.165 Q58.9804 635.943 59.0174 635.202 Q59.0174 634.201 59.9067 634.201 Q60.5737 634.201 62.093 634.943 Q63.5752 635.647 65.3538 637.018 Q67.1325 638.389 68.4664 641.057 Q69.8004 643.688 69.8004 646.874 Q69.8004 653.544 64.7609 658.584 Q59.6844 663.586 52.2363 663.586 M49.8278 657.213 L49.8278 639.204 Q48.2344 639.204 46.4557 639.5 Q44.6771 639.76 42.2315 640.575 Q39.7488 641.353 38.1925 643.206 Q36.6362 645.059 36.6362 647.801 Q36.6362 649.023 37.1549 650.357 Q37.6737 651.654 38.9336 653.248 Q40.1934 654.841 43.0467 655.953 Q45.8999 657.064 49.8278 657.213 Z" fill="#000000" fill-rule="nonzero" fill-opacity="1" /><path clip-path="url(#clip860)" d="M49.976 599.259 Q37.1549 599.259 26.8166 594.478 Q22.4811 592.44 18.8497 589.587 Q15.2184 586.734 13.625 584.844 Q12.0316 582.954 12.0316 582.436 Q12.0316 581.694 12.7727 581.657 Q13.1433 581.657 14.0696 582.658 Q26.5201 594.886 49.976 594.849 Q73.5059 594.849 85.4747 582.954 Q86.7716 581.657 87.1792 581.657 Q87.9203 581.657 87.9203 582.436 Q87.9203 582.954 86.4011 584.77 Q84.8818 586.586 81.3987 589.402 Q77.9155 592.218 73.6541 594.256 Q63.3158 599.259 49.976 599.259 Z" fill="#000000" fill-rule="nonzero" fill-opacity="1" /><path clip-path="url(#clip860)" d="M67.9477 574.839 L57.9428 574.839 Q57.0905 574.839 56.7941 574.802 Q56.4977 574.765 56.2753 574.543 Q56.053 574.32 56.053 573.876 Q56.053 573.357 56.2753 573.172 Q56.4977 572.949 57.3499 572.801 Q62.5747 571.653 65.3538 569.207 Q68.0959 566.724 68.0959 562.241 Q68.0959 557.979 66.2061 555.83 Q64.3163 553.681 61.2037 553.681 Q55.6454 553.681 54.2373 561.574 Q53.3109 566.131 52.7181 568.021 Q52.0881 569.911 50.7171 571.578 Q48.0491 574.839 44.2695 574.839 Q40.4899 574.839 37.7108 571.986 Q34.9316 569.096 34.9316 562.722 Q34.9316 558.461 37.0808 555.571 Q36.4138 554.718 35.858 554.274 Q34.9316 553.273 34.9316 552.754 Q34.9316 552.162 35.3392 552.05 Q35.7098 551.939 36.7844 551.939 L44.4177 551.939 Q45.27 551.939 45.5664 551.976 Q45.8629 552.013 46.0852 552.236 Q46.2705 552.458 46.2705 552.94 Q46.2705 553.792 45.5664 553.829 Q36.3768 554.422 36.3768 562.722 Q36.3768 567.206 38.1184 569.207 Q39.8229 571.208 42.1574 571.208 Q43.4543 571.208 44.4548 570.615 Q45.4182 569.985 46.0111 569.207 Q46.5669 568.392 47.1227 566.909 Q47.6415 565.427 47.8268 564.538 Q48.0121 563.612 48.3826 561.87 Q49.5313 555.793 52.014 553.236 Q55.2007 550.049 59.2397 550.049 Q63.7234 550.049 66.7619 553.088 Q69.8004 556.126 69.8004 562.241 Q69.8004 567.169 66.5025 570.615 Q66.9472 571.06 67.3548 571.393 Q67.7253 571.727 67.8736 571.875 Q68.0218 571.986 68.1329 572.023 Q68.2071 572.06 68.2812 572.134 Q69.8004 573.654 69.8004 574.024 Q69.8004 574.617 69.3928 574.728 Q69.0223 574.839 67.9477 574.839 Z" fill="#000000" fill-rule="nonzero" fill-opacity="1" /><path clip-path="url(#clip860)" d="M87.1792 543.157 Q86.8087 543.157 85.8823 542.194 Q73.4318 529.966 49.976 529.966 Q26.446 529.966 14.5514 541.712 Q13.1803 543.157 12.7727 543.157 Q12.0316 543.157 12.0316 542.416 Q12.0316 541.897 13.5509 540.082 Q15.0701 538.229 18.5533 535.45 Q22.0365 532.634 26.2978 530.558 Q36.6362 525.556 49.976 525.556 Q62.797 525.556 73.1354 530.336 Q77.4708 532.374 81.1022 535.227 Q84.7336 538.081 86.327 539.97 Q87.9203 541.86 87.9203 542.416 Q87.9203 543.157 87.1792 543.157 Z" fill="#000000" fill-rule="nonzero" fill-opacity="1" /><polyline clip-path="url(#clip862)" style="stroke:#d77255; stroke-linecap:round; stroke-linejoin:round; stroke-width:12; stroke-opacity:1; fill:none" points="1410.72,1245.33 1264.34,1097.33 1120.78,721.491 978.722,596.306 837.298,357.18 696.149,82.1398 "/>
<line clip-path="url(#clip862)" x1="1410.72" y1="1245.33" x2="1410.72" y2="1229.33" style="stroke:#d77255; stroke-width:12; stroke-opacity:1"/>
<line clip-path="url(#clip862)" x1="1410.72" y1="1245.33" x2="1394.72" y2="1245.33" style="stroke:#d77255; stroke-width:12; stroke-opacity:1"/>
<line clip-path="url(#clip862)" x1="1410.72" y1="1245.33" x2="1410.72" y2="1261.33" style="stroke:#d77255; stroke-width:12; stroke-opacity:1"/>
<line clip-path="url(#clip862)" x1="1410.72" y1="1245.33" x2="1426.72" y2="1245.33" style="stroke:#d77255; stroke-width:12; stroke-opacity:1"/>
<line clip-path="url(#clip862)" x1="1264.34" y1="1097.33" x2="1264.34" y2="1081.33" style="stroke:#d77255; stroke-width:12; stroke-opacity:1"/>
<line clip-path="url(#clip862)" x1="1264.34" y1="1097.33" x2="1248.34" y2="1097.33" style="stroke:#d77255; stroke-width:12; stroke-opacity:1"/>
<line clip-path="url(#clip862)" x1="1264.34" y1="1097.33" x2="1264.34" y2="1113.33" style="stroke:#d77255; stroke-width:12; stroke-opacity:1"/>
<line clip-path="url(#clip862)" x1="1264.34" y1="1097.33" x2="1280.34" y2="1097.33" style="stroke:#d77255; stroke-width:12; stroke-opacity:1"/>
<line clip-path="url(#clip862)" x1="1120.78" y1="721.491" x2="1120.78" y2="705.491" style="stroke:#d77255; stroke-width:12; stroke-opacity:1"/>
<line clip-path="url(#clip862)" x1="1120.78" y1="721.491" x2="1104.78" y2="721.491" style="stroke:#d77255; stroke-width:12; stroke-opacity:1"/>
<line clip-path="url(#clip862)" x1="1120.78" y1="721.491" x2="1120.78" y2="737.491" style="stroke:#d77255; stroke-width:12; stroke-opacity:1"/>
<line clip-path="url(#clip862)" x1="1120.78" y1="721.491" x2="1136.78" y2="721.491" style="stroke:#d77255; stroke-width:12; stroke-opacity:1"/>
<line clip-path="url(#clip862)" x1="978.722" y1="596.306" x2="978.722" y2="580.306" style="stroke:#d77255; stroke-width:12; stroke-opacity:1"/>
<line clip-path="url(#clip862)" x1="978.722" y1="596.306" x2="962.722" y2="596.306" style="stroke:#d77255; stroke-width:12; stroke-opacity:1"/>
<line clip-path="url(#clip862)" x1="978.722" y1="596.306" x2="978.722" y2="612.306" style="stroke:#d77255; stroke-width:12; stroke-opacity:1"/>
<line clip-path="url(#clip862)" x1="978.722" y1="596.306" x2="994.722" y2="596.306" style="stroke:#d77255; stroke-width:12; stroke-opacity:1"/>
<line clip-path="url(#clip862)" x1="837.298" y1="357.18" x2="837.298" y2="341.18" style="stroke:#d77255; stroke-width:12; stroke-opacity:1"/>
<line clip-path="url(#clip862)" x1="837.298" y1="357.18" x2="821.298" y2="357.18" style="stroke:#d77255; stroke-width:12; stroke-opacity:1"/>
<line clip-path="url(#clip862)" x1="837.298" y1="357.18" x2="837.298" y2="373.18" style="stroke:#d77255; stroke-width:12; stroke-opacity:1"/>
<line clip-path="url(#clip862)" x1="837.298" y1="357.18" x2="853.298" y2="357.18" style="stroke:#d77255; stroke-width:12; stroke-opacity:1"/>
<line clip-path="url(#clip862)" x1="696.149" y1="82.1398" x2="696.149" y2="66.1398" style="stroke:#d77255; stroke-width:12; stroke-opacity:1"/>
<line clip-path="url(#clip862)" x1="696.149" y1="82.1398" x2="680.149" y2="82.1398" style="stroke:#d77255; stroke-width:12; stroke-opacity:1"/>
<line clip-path="url(#clip862)" x1="696.149" y1="82.1398" x2="696.149" y2="98.1398" style="stroke:#d77255; stroke-width:12; stroke-opacity:1"/>
<line clip-path="url(#clip862)" x1="696.149" y1="82.1398" x2="712.149" y2="82.1398" style="stroke:#d77255; stroke-width:12; stroke-opacity:1"/>
<polyline clip-path="url(#clip862)" style="stroke:#d77255; stroke-linecap:round; stroke-linejoin:round; stroke-width:12; stroke-opacity:1; fill:none" points="1361.93,1163.44 1120.67,1081.68 914.102,985.631 686.458,846.871 632.875,570.873 249.819,534.064 "/>
<circle clip-path="url(#clip862)" cx="1361.93" cy="1163.44" r="14.4" fill="#d77255" fill-rule="evenodd" fill-opacity="1" stroke="#000000" stroke-opacity="1" stroke-width="1.536"/>
<circle clip-path="url(#clip862)" cx="1120.67" cy="1081.68" r="14.4" fill="#d77255" fill-rule="evenodd" fill-opacity="1" stroke="#000000" stroke-opacity="1" stroke-width="1.536"/>
<circle clip-path="url(#clip862)" cx="914.102" cy="985.631" r="14.4" fill="#d77255" fill-rule="evenodd" fill-opacity="1" stroke="#000000" stroke-opacity="1" stroke-width="1.536"/>
<circle clip-path="url(#clip862)" cx="686.458" cy="846.871" r="14.4" fill="#d77255" fill-rule="evenodd" fill-opacity="1" stroke="#000000" stroke-opacity="1" stroke-width="1.536"/>
<circle clip-path="url(#clip862)" cx="632.875" cy="570.873" r="14.4" fill="#d77255" fill-rule="evenodd" fill-opacity="1" stroke="#000000" stroke-opacity="1" stroke-width="1.536"/>
<circle clip-path="url(#clip862)" cx="249.819" cy="534.064" r="14.4" fill="#d77255" fill-rule="evenodd" fill-opacity="1" stroke="#000000" stroke-opacity="1" stroke-width="1.536"/>
<path clip-path="url(#clip860)" d="M1513.6 243.863 L2256.76 243.863 L2256.76 88.3434 L1513.6 88.3434  Z" fill="#ffffff" fill-rule="evenodd" fill-opacity="1"/>
<polyline clip-path="url(#clip860)" style="stroke:#000000; stroke-linecap:round; stroke-linejoin:round; stroke-width:4; stroke-opacity:1; fill:none" points="1513.6,243.863 2256.76,243.863 2256.76,88.3434 1513.6,88.3434 1513.6,243.863 "/>
<polyline clip-path="url(#clip860)" style="stroke:#d77255; stroke-linecap:round; stroke-linejoin:round; stroke-width:12; stroke-opacity:1; fill:none" points="1536.29,140.183 1672.41,140.183 "/>
<line clip-path="url(#clip860)" x1="1604.35" y1="140.183" x2="1604.35" y2="119.178" style="stroke:#d77255; stroke-width:12; stroke-opacity:1"/>
<line clip-path="url(#clip860)" x1="1604.35" y1="140.183" x2="1583.34" y2="140.183" style="stroke:#d77255; stroke-width:12; stroke-opacity:1"/>
<line clip-path="url(#clip860)" x1="1604.35" y1="140.183" x2="1604.35" y2="161.189" style="stroke:#d77255; stroke-width:12; stroke-opacity:1"/>
<line clip-path="url(#clip860)" x1="1604.35" y1="140.183" x2="1625.35" y2="140.183" style="stroke:#d77255; stroke-width:12; stroke-opacity:1"/>
<path clip-path="url(#clip860)" d="M1695.09 157.463 L1695.09 155.907 L1696.3 155.907 Q1699.04 155.907 1699.66 155.462 Q1700.3 154.993 1700.3 153.511 L1700.3 127.004 Q1700.3 125.547 1699.66 125.102 Q1699.02 124.633 1696.3 124.633 L1695.09 124.633 L1695.09 123.052 L1723.57 123.052 L1724.98 134.44 L1723.72 134.44 Q1723.38 131.55 1722.91 129.894 Q1722.46 128.215 1721.35 126.93 Q1720.26 125.646 1718.46 125.151 Q1716.68 124.633 1713.79 124.633 L1707.27 124.633 Q1705.54 124.633 1705.17 125.003 Q1704.8 125.349 1704.8 126.658 L1704.8 138.788 L1709.35 138.788 Q1712.83 138.788 1713.82 137.577 Q1714.81 136.367 1714.81 132.884 L1716.09 132.884 L1716.09 146.273 L1714.81 146.273 Q1714.81 142.839 1713.82 141.604 Q1712.83 140.369 1709.35 140.369 L1704.8 140.369 L1704.8 153.881 Q1704.8 155.191 1705.17 155.561 Q1705.57 155.907 1707.27 155.907 L1714.01 155.907 Q1716.19 155.907 1717.77 155.635 Q1719.38 155.339 1720.49 154.647 Q1721.6 153.931 1722.34 153.116 Q1723.11 152.3 1723.62 150.843 Q1724.17 149.361 1724.46 148.002 Q1724.79 146.643 1725.13 144.42 L1726.39 144.42 L1724.27 157.463 L1695.09 157.463 Z" fill="#000000" fill-rule="nonzero" fill-opacity="1" /><path clip-path="url(#clip860)" d="M1729.48 157.463 L1729.48 155.907 L1730.69 155.907 Q1733.43 155.907 1734.05 155.462 Q1734.69 154.993 1734.69 153.511 L1734.69 126.856 Q1734.69 125.398 1734.05 124.954 Q1733.41 124.484 1730.69 124.484 L1729.48 124.484 L1729.48 122.903 Q1731.26 123.052 1736.96 123.052 Q1742.62 123.052 1744.4 122.903 L1744.4 124.484 L1743.19 124.484 Q1740.45 124.484 1739.8 124.954 Q1739.19 125.398 1739.19 126.856 L1739.19 142.938 L1755.02 127.819 Q1755.94 127.004 1755.94 126.14 Q1755.94 125.843 1755.79 125.522 Q1755.66 125.176 1755.07 124.83 Q1754.5 124.484 1753.59 124.484 L1753.59 122.903 Q1755.32 123.052 1760.04 123.052 Q1763.03 123.052 1764.34 122.903 L1764.34 124.484 Q1760.14 124.534 1757.15 127.523 L1748.03 136.268 L1759.72 153.461 Q1760.78 155.018 1761.82 155.462 Q1762.85 155.907 1765.03 155.907 L1765.03 157.463 Q1761.84 157.315 1759.22 157.315 Q1753.76 157.315 1751.98 157.463 L1751.98 155.907 Q1754.97 155.907 1754.97 154.376 Q1754.97 153.807 1754.21 152.646 L1745.04 139.109 L1739.19 144.667 L1739.19 153.511 Q1739.19 154.968 1739.8 155.438 Q1740.45 155.907 1743.19 155.907 L1744.4 155.907 L1744.4 157.463 Q1742.62 157.315 1736.91 157.315 Q1731.26 157.315 1729.48 157.463 Z" fill="#000000" fill-rule="nonzero" fill-opacity="1" /><path clip-path="url(#clip860)" d="M1769.08 141.283 Q1769.08 133.847 1770.96 129.796 Q1773.57 123.768 1779.75 123.768 Q1781.06 123.768 1782.42 124.139 Q1783.8 124.484 1785.53 125.843 Q1787.28 127.202 1788.35 129.425 Q1790.37 133.724 1790.37 141.283 Q1790.37 148.669 1788.5 152.696 Q1785.75 158.575 1779.7 158.575 Q1777.43 158.575 1775.11 157.414 Q1772.81 156.253 1771.35 153.461 Q1769.08 149.287 1769.08 141.283 M1773.28 140.665 Q1773.28 148.298 1773.82 151.337 Q1774.44 154.623 1776.12 156.055 Q1777.82 157.463 1779.7 157.463 Q1781.73 157.463 1783.41 155.957 Q1785.11 154.425 1785.63 151.139 Q1786.2 147.903 1786.17 140.665 Q1786.17 133.625 1785.68 130.809 Q1785.01 127.523 1783.23 126.214 Q1781.48 124.88 1779.7 124.88 Q1779.03 124.88 1778.32 125.077 Q1777.63 125.275 1776.61 125.843 Q1775.6 126.411 1774.81 127.819 Q1774.04 129.228 1773.67 131.352 Q1773.28 134.094 1773.28 140.665 Z" fill="#000000" fill-rule="nonzero" fill-opacity="1" /><path clip-path="url(#clip860)" d="M1797.41 144.815 Q1797.41 136.268 1800.6 129.376 Q1801.96 126.485 1803.86 124.064 Q1805.76 121.644 1807.02 120.581 Q1808.28 119.519 1808.63 119.519 Q1809.12 119.519 1809.15 120.013 Q1809.15 120.26 1808.48 120.878 Q1800.33 129.178 1800.35 144.815 Q1800.35 160.502 1808.28 168.481 Q1809.15 169.346 1809.15 169.617 Q1809.15 170.112 1808.63 170.112 Q1808.28 170.112 1807.07 169.099 Q1805.86 168.086 1803.98 165.764 Q1802.11 163.442 1800.75 160.601 Q1797.41 153.709 1797.41 144.815 Z" fill="#000000" fill-rule="nonzero" fill-opacity="1" /><path clip-path="url(#clip860)" d="M1814.53 157.463 Q1814.53 156.549 1814.61 156.278 Q1814.71 156.006 1815.1 155.586 L1824.81 144.766 Q1830.12 138.788 1830.12 133.575 Q1830.12 130.191 1828.34 127.77 Q1826.59 125.349 1823.35 125.349 Q1821.13 125.349 1819.25 126.708 Q1817.37 128.066 1816.51 130.487 Q1816.66 130.438 1817.18 130.438 Q1818.44 130.438 1819.13 131.228 Q1819.84 132.019 1819.84 133.081 Q1819.84 134.44 1818.95 135.107 Q1818.09 135.749 1817.23 135.749 Q1816.88 135.749 1816.41 135.675 Q1815.97 135.601 1815.25 134.909 Q1814.53 134.193 1814.53 132.933 Q1814.53 129.4 1817.2 126.584 Q1819.89 123.768 1823.99 123.768 Q1828.64 123.768 1831.68 126.535 Q1834.74 129.277 1834.74 133.575 Q1834.74 135.082 1834.27 136.466 Q1833.83 137.824 1833.21 138.887 Q1832.62 139.949 1830.98 141.653 Q1829.35 143.358 1828.05 144.568 Q1826.74 145.779 1823.8 148.348 L1818.44 153.56 L1827.55 153.56 Q1832 153.56 1832.34 153.165 Q1832.84 152.449 1833.46 148.669 L1834.74 148.669 L1833.31 157.463 L1814.53 157.463 Z" fill="#000000" fill-rule="nonzero" fill-opacity="1" /><path clip-path="url(#clip860)" d="M1840.2 169.617 Q1840.2 169.37 1840.84 168.753 Q1848.99 160.453 1848.99 144.815 Q1848.99 129.129 1841.16 121.199 Q1840.2 120.285 1840.2 120.013 Q1840.2 119.519 1840.69 119.519 Q1841.04 119.519 1842.25 120.532 Q1843.48 121.545 1845.34 123.867 Q1847.22 126.189 1848.6 129.03 Q1851.93 135.922 1851.93 144.815 Q1851.93 153.363 1848.75 160.255 Q1847.39 163.145 1845.49 165.566 Q1843.58 167.987 1842.32 169.049 Q1841.06 170.112 1840.69 170.112 Q1840.2 170.112 1840.2 169.617 Z" fill="#000000" fill-rule="nonzero" fill-opacity="1" /><path clip-path="url(#clip860)" d="M1878.76 144.815 Q1878.76 136.268 1881.95 129.376 Q1883.31 126.485 1885.21 124.064 Q1887.11 121.644 1888.37 120.581 Q1889.63 119.519 1889.98 119.519 Q1890.47 119.519 1890.5 120.013 Q1890.5 120.26 1889.83 120.878 Q1881.68 129.178 1881.7 144.815 Q1881.7 160.502 1889.63 168.481 Q1890.5 169.346 1890.5 169.617 Q1890.5 170.112 1889.98 170.112 Q1889.63 170.112 1888.42 169.099 Q1887.21 168.086 1885.33 165.764 Q1883.45 163.442 1882.1 160.601 Q1878.76 153.709 1878.76 144.815 Z" fill="#000000" fill-rule="nonzero" fill-opacity="1" /><path clip-path="url(#clip860)" d="M1897.86 128.585 L1897.86 127.004 Q1903.93 127.004 1907.07 123.768 Q1907.94 123.768 1908.08 123.966 Q1908.23 124.163 1908.23 125.077 L1908.23 153.461 Q1908.23 154.968 1908.97 155.438 Q1909.71 155.907 1912.95 155.907 L1914.56 155.907 L1914.56 157.463 Q1912.78 157.315 1906.35 157.315 Q1899.93 157.315 1898.18 157.463 L1898.18 155.907 L1899.78 155.907 Q1902.97 155.907 1903.74 155.462 Q1904.5 154.993 1904.5 153.461 L1904.5 127.251 Q1901.86 128.585 1897.86 128.585 Z" fill="#000000" fill-rule="nonzero" fill-opacity="1" /><path clip-path="url(#clip860)" d="M1920.34 156.796 L1920.34 150.127 Q1920.34 149.558 1920.36 149.361 Q1920.39 149.163 1920.53 149.015 Q1920.68 148.867 1920.98 148.867 Q1921.33 148.867 1921.45 149.015 Q1921.6 149.163 1921.7 149.731 Q1922.46 153.214 1924.09 155.067 Q1925.75 156.895 1928.74 156.895 Q1931.58 156.895 1933.01 155.635 Q1934.44 154.376 1934.44 152.3 Q1934.44 148.595 1929.18 147.656 Q1926.14 147.039 1924.88 146.643 Q1923.62 146.223 1922.51 145.309 Q1920.34 143.531 1920.34 141.011 Q1920.34 138.491 1922.24 136.639 Q1924.17 134.786 1928.41 134.786 Q1931.26 134.786 1933.18 136.219 Q1933.75 135.774 1934.05 135.403 Q1934.71 134.786 1935.06 134.786 Q1935.46 134.786 1935.53 135.057 Q1935.6 135.305 1935.6 136.021 L1935.6 141.11 Q1935.6 141.678 1935.58 141.876 Q1935.55 142.073 1935.41 142.221 Q1935.26 142.345 1934.94 142.345 Q1934.37 142.345 1934.34 141.876 Q1933.95 135.749 1928.41 135.749 Q1925.43 135.749 1924.09 136.91 Q1922.76 138.047 1922.76 139.603 Q1922.76 140.468 1923.15 141.135 Q1923.57 141.777 1924.09 142.172 Q1924.64 142.543 1925.62 142.913 Q1926.61 143.259 1927.2 143.383 Q1927.82 143.506 1928.98 143.753 Q1933.03 144.519 1934.74 146.174 Q1936.86 148.298 1936.86 150.991 Q1936.86 153.98 1934.84 156.006 Q1932.81 158.032 1928.74 158.032 Q1925.45 158.032 1923.15 155.833 Q1922.86 156.129 1922.63 156.401 Q1922.41 156.648 1922.31 156.747 Q1922.24 156.846 1922.21 156.92 Q1922.19 156.969 1922.14 157.019 Q1921.13 158.032 1920.88 158.032 Q1920.49 158.032 1920.41 157.76 Q1920.34 157.513 1920.34 156.796 Z" fill="#000000" fill-rule="nonzero" fill-opacity="1" /><path clip-path="url(#clip860)" d="M1939.53 137.231 L1939.53 136.12 Q1941.85 136.021 1943.39 134.391 Q1944.94 132.735 1945.46 130.71 Q1946 128.684 1946.05 126.337 L1947.31 126.337 L1947.31 135.65 L1954.55 135.65 L1954.55 137.231 L1947.31 137.231 L1947.31 151.288 Q1947.31 156.747 1950.72 156.747 Q1952.18 156.747 1953.14 155.265 Q1954.11 153.758 1954.11 151.09 L1954.11 148.298 L1955.37 148.298 L1955.37 151.189 Q1955.37 153.931 1954.11 155.981 Q1952.85 158.032 1950.35 158.032 Q1949.44 158.032 1948.52 157.785 Q1947.63 157.562 1946.45 156.969 Q1945.29 156.352 1944.55 154.87 Q1943.83 153.363 1943.83 151.189 L1943.83 137.231 L1939.53 137.231 Z" fill="#000000" fill-rule="nonzero" fill-opacity="1" /><path clip-path="url(#clip860)" d="M1979.75 154.746 Q1976.41 151.436 1976.41 146.643 Q1976.41 141.826 1979.67 138.318 Q1982.96 134.786 1987.65 134.786 Q1992.25 134.786 1995.53 138.294 Q1998.84 141.777 1998.84 146.643 Q1998.84 151.411 1995.51 154.721 Q1992.2 158.032 1987.6 158.032 Q1983.11 158.032 1979.75 154.746 M1980.61 146.223 Q1980.61 151.139 1981.9 153.363 Q1983.87 156.747 1987.65 156.747 Q1989.53 156.747 1991.09 155.734 Q1992.67 154.721 1993.53 153.017 Q1994.64 150.794 1994.64 146.223 Q1994.64 141.357 1993.31 139.208 Q1991.33 135.922 1987.6 135.922 Q1985.97 135.922 1984.37 136.787 Q1982.79 137.627 1981.82 139.306 Q1980.61 141.53 1980.61 146.223 Z" fill="#000000" fill-rule="nonzero" fill-opacity="1" /><path clip-path="url(#clip860)" d="M2001.71 157.463 L2001.71 155.907 Q2004.4 155.907 2005.02 155.586 Q2005.66 155.24 2005.66 153.61 L2005.66 140.048 Q2005.66 138.17 2005 137.701 Q2004.35 137.231 2001.71 137.231 L2001.71 135.65 L2008.75 135.107 L2008.75 140.665 Q2009.47 138.491 2010.97 136.811 Q2012.51 135.107 2014.98 135.107 Q2016.61 135.107 2017.64 136.021 Q2018.71 136.935 2018.71 138.195 Q2018.71 139.306 2018.01 139.875 Q2017.35 140.418 2016.53 140.418 Q2015.62 140.418 2014.98 139.85 Q2014.36 139.257 2014.36 138.244 Q2014.36 137.627 2014.63 137.157 Q2014.93 136.663 2015.15 136.49 Q2015.37 136.317 2015.52 136.268 Q2015.42 136.219 2014.98 136.219 Q2012.18 136.219 2010.58 139.01 Q2009 141.777 2009 145.729 L2009 153.511 Q2009 154.968 2009.59 155.438 Q2010.21 155.907 2012.85 155.907 L2013.91 155.907 L2013.91 157.463 Q2011.89 157.315 2007.49 157.315 Q2006.87 157.315 2005.91 157.34 Q2004.95 157.365 2003.69 157.414 Q2002.43 157.463 2001.71 157.463 Z" fill="#000000" fill-rule="nonzero" fill-opacity="1" /><path clip-path="url(#clip860)" d="M2021.79 146.594 Q2021.79 141.777 2025.15 138.442 Q2028.51 135.107 2033.06 135.107 Q2036.91 135.107 2039.43 138.244 L2039.43 127.301 Q2039.43 125.423 2038.76 124.954 Q2038.12 124.484 2035.5 124.484 L2035.5 122.903 L2042.79 122.36 L2042.79 153.066 Q2042.79 154.944 2043.43 155.438 Q2044.1 155.907 2046.72 155.907 L2046.72 157.463 L2039.28 158.032 L2039.28 154.672 Q2036.67 158.007 2032.51 158.032 Q2028.17 158.032 2024.98 154.697 Q2021.79 151.362 2021.79 146.594 M2025.99 146.643 Q2025.99 151.337 2027.45 153.659 Q2029.48 156.895 2032.76 156.895 Q2036.52 156.895 2038.74 153.363 Q2039.31 152.498 2039.28 151.485 L2039.28 141.11 Q2039.28 140.097 2038.74 139.257 Q2036.67 136.219 2033.28 136.219 Q2029.75 136.219 2027.55 139.455 Q2025.99 141.876 2025.99 146.643 Z" fill="#000000" fill-rule="nonzero" fill-opacity="1" /><path clip-path="url(#clip860)" d="M2049.54 146.322 Q2049.54 141.554 2052.6 138.17 Q2055.66 134.786 2060.06 134.786 Q2064.51 134.786 2066.8 137.676 Q2069.13 140.566 2069.13 144.717 Q2069.13 145.482 2068.93 145.631 Q2068.73 145.779 2067.87 145.779 L2053.74 145.779 Q2053.74 150.942 2055.27 153.363 Q2057.39 156.747 2060.97 156.747 Q2061.47 156.747 2062.06 156.648 Q2062.65 156.549 2063.86 156.129 Q2065.07 155.685 2066.14 154.524 Q2067.2 153.363 2067.82 151.535 Q2067.96 150.818 2068.46 150.843 Q2069.13 150.843 2069.13 151.436 Q2069.13 151.88 2068.63 152.893 Q2068.16 153.881 2067.25 155.067 Q2066.33 156.253 2064.56 157.142 Q2062.8 158.032 2060.68 158.032 Q2056.23 158.032 2052.87 154.672 Q2049.54 151.288 2049.54 146.322 M2053.78 144.717 L2065.79 144.717 Q2065.79 143.654 2065.59 142.469 Q2065.42 141.283 2064.88 139.652 Q2064.36 137.997 2063.12 136.96 Q2061.89 135.922 2060.06 135.922 Q2059.24 135.922 2058.35 136.268 Q2057.49 136.614 2056.43 137.454 Q2055.37 138.294 2054.62 140.196 Q2053.88 142.098 2053.78 144.717 Z" fill="#000000" fill-rule="nonzero" fill-opacity="1" /><path clip-path="url(#clip860)" d="M2071.99 157.463 L2071.99 155.907 Q2074.68 155.907 2075.3 155.586 Q2075.94 155.24 2075.94 153.61 L2075.94 140.048 Q2075.94 138.17 2075.28 137.701 Q2074.63 137.231 2071.99 137.231 L2071.99 135.65 L2079.03 135.107 L2079.03 140.665 Q2079.75 138.491 2081.25 136.811 Q2082.79 135.107 2085.26 135.107 Q2086.89 135.107 2087.92 136.021 Q2088.99 136.935 2088.99 138.195 Q2088.99 139.306 2088.3 139.875 Q2087.63 140.418 2086.81 140.418 Q2085.9 140.418 2085.26 139.85 Q2084.64 139.257 2084.64 138.244 Q2084.64 137.627 2084.91 137.157 Q2085.21 136.663 2085.43 136.49 Q2085.65 136.317 2085.8 136.268 Q2085.7 136.219 2085.26 136.219 Q2082.47 136.219 2080.86 139.01 Q2079.28 141.777 2079.28 145.729 L2079.28 153.511 Q2079.28 154.968 2079.87 155.438 Q2080.49 155.907 2083.13 155.907 L2084.19 155.907 L2084.19 157.463 Q2082.17 157.315 2077.77 157.315 Q2077.15 157.315 2076.19 157.34 Q2075.23 157.365 2073.97 157.414 Q2072.71 157.463 2071.99 157.463 Z" fill="#000000" fill-rule="nonzero" fill-opacity="1" /><path clip-path="url(#clip860)" d="M2110.01 140.319 Q2110.01 132.587 2114.95 127.202 Q2119.92 121.792 2126.81 121.792 Q2133.75 121.792 2138.69 127.202 Q2143.66 132.612 2143.66 140.319 Q2143.66 147.953 2138.69 153.264 Q2133.72 158.575 2126.81 158.575 Q2119.99 158.575 2115 153.289 Q2110.01 148.002 2110.01 140.319 M2115.22 139.603 Q2115.22 144.297 2116.33 147.903 Q2117.45 151.485 2119.22 153.437 Q2121.03 155.388 2122.95 156.327 Q2124.88 157.266 2126.86 157.266 Q2128.78 157.266 2130.66 156.352 Q2132.56 155.438 2134.37 153.511 Q2136.17 151.584 2137.31 147.977 Q2138.44 144.371 2138.44 139.603 Q2138.44 135.897 2137.65 132.933 Q2136.86 129.944 2135.63 128.141 Q2134.39 126.337 2132.79 125.151 Q2131.2 123.966 2129.7 123.521 Q2128.22 123.052 2126.81 123.052 Q2125.03 123.052 2123.18 123.842 Q2121.32 124.633 2119.45 126.387 Q2117.59 128.116 2116.41 131.55 Q2115.22 134.959 2115.22 139.603 Z" fill="#000000" fill-rule="nonzero" fill-opacity="1" /><path clip-path="url(#clip860)" d="M2148.25 157.463 L2148.25 155.907 L2149.46 155.907 Q2152.2 155.907 2152.82 155.462 Q2153.46 154.993 2153.46 153.511 L2153.46 126.856 Q2153.46 125.398 2152.82 124.954 Q2152.18 124.484 2149.46 124.484 L2148.25 124.484 L2148.25 122.903 L2166.75 122.903 Q2173.23 122.903 2177.72 128.066 Q2182.24 133.229 2182.24 140.468 Q2182.24 147.557 2177.7 152.523 Q2173.18 157.463 2166.75 157.463 L2148.25 157.463 M2157.81 153.881 Q2157.81 155.191 2158.18 155.561 Q2158.55 155.907 2160.28 155.907 L2165.39 155.907 Q2168.73 155.907 2170.98 154.548 Q2173.23 153.165 2174.39 151.584 Q2177.18 147.78 2177.18 140.468 Q2177.18 132.785 2174.56 129.178 Q2171.17 124.484 2165.34 124.484 L2160.28 124.484 Q2158.55 124.484 2158.18 124.83 Q2157.81 125.176 2157.81 126.51 L2157.81 153.881 Z" fill="#000000" fill-rule="nonzero" fill-opacity="1" /><path clip-path="url(#clip860)" d="M2186.74 157.463 L2186.74 155.907 L2187.95 155.907 Q2190.69 155.907 2191.31 155.462 Q2191.95 154.993 2191.95 153.511 L2191.95 127.004 Q2191.95 125.547 2191.31 125.102 Q2190.67 124.633 2187.95 124.633 L2186.74 124.633 L2186.74 123.052 L2215.22 123.052 L2216.63 134.44 L2215.37 134.44 Q2215.02 131.55 2214.55 129.894 Q2214.11 128.215 2213 126.93 Q2211.91 125.646 2210.11 125.151 Q2208.33 124.633 2205.44 124.633 L2198.92 124.633 Q2197.19 124.633 2196.82 125.003 Q2196.45 125.349 2196.45 126.658 L2196.45 138.788 L2200.99 138.788 Q2204.48 138.788 2205.46 137.577 Q2206.45 136.367 2206.45 132.884 L2207.74 132.884 L2207.74 146.273 L2206.45 146.273 Q2206.45 142.839 2205.46 141.604 Q2204.48 140.369 2200.99 140.369 L2196.45 140.369 L2196.45 153.881 Q2196.45 155.191 2196.82 155.561 Q2197.21 155.907 2198.92 155.907 L2205.66 155.907 Q2207.83 155.907 2209.42 155.635 Q2211.02 155.339 2212.13 154.647 Q2213.24 153.931 2213.99 153.116 Q2214.75 152.3 2215.27 150.843 Q2215.81 149.361 2216.11 148.002 Q2216.43 146.643 2216.78 144.42 L2218.04 144.42 L2215.91 157.463 L2186.74 157.463 Z" fill="#000000" fill-rule="nonzero" fill-opacity="1" /><path clip-path="url(#clip860)" d="M2222.34 169.617 Q2222.34 169.37 2222.98 168.753 Q2231.13 160.453 2231.13 144.815 Q2231.13 129.129 2223.3 121.199 Q2222.34 120.285 2222.34 120.013 Q2222.34 119.519 2222.83 119.519 Q2223.18 119.519 2224.39 120.532 Q2225.62 121.545 2227.47 123.867 Q2229.35 126.189 2230.73 129.03 Q2234.07 135.922 2234.07 144.815 Q2234.07 153.363 2230.88 160.255 Q2229.52 163.145 2227.62 165.566 Q2225.72 167.987 2224.46 169.049 Q2223.2 170.112 2222.83 170.112 Q2222.34 170.112 2222.34 169.617 Z" fill="#000000" fill-rule="nonzero" fill-opacity="1" /><polyline clip-path="url(#clip860)" style="stroke:#d77255; stroke-linecap:round; stroke-linejoin:round; stroke-width:12; stroke-opacity:1; fill:none" points="1536.29,192.023 1672.41,192.023 "/>
<circle clip-path="url(#clip860)" cx="1604.35" cy="192.023" r="18.9052" fill="#d77255" fill-rule="evenodd" fill-opacity="1" stroke="#000000" stroke-opacity="1" stroke-width="2.31304"/>
<path clip-path="url(#clip860)" d="M1695.09 209.303 L1695.09 207.747 L1696.3 207.747 Q1699.04 207.747 1699.66 207.302 Q1700.3 206.833 1700.3 205.351 L1700.3 178.844 Q1700.3 177.387 1699.66 176.942 Q1699.02 176.473 1696.3 176.473 L1695.09 176.473 L1695.09 174.892 L1723.57 174.892 L1724.98 186.28 L1723.72 186.28 Q1723.38 183.39 1722.91 181.734 Q1722.46 180.055 1721.35 178.77 Q1720.26 177.486 1718.46 176.991 Q1716.68 176.473 1713.79 176.473 L1707.27 176.473 Q1705.54 176.473 1705.17 176.843 Q1704.8 177.189 1704.8 178.498 L1704.8 190.628 L1709.35 190.628 Q1712.83 190.628 1713.82 189.417 Q1714.81 188.207 1714.81 184.724 L1716.09 184.724 L1716.09 198.113 L1714.81 198.113 Q1714.81 194.679 1713.82 193.444 Q1712.83 192.209 1709.35 192.209 L1704.8 192.209 L1704.8 205.721 Q1704.8 207.031 1705.17 207.401 Q1705.57 207.747 1707.27 207.747 L1714.01 207.747 Q1716.19 207.747 1717.77 207.475 Q1719.38 207.179 1720.49 206.487 Q1721.6 205.771 1722.34 204.956 Q1723.11 204.14 1723.62 202.683 Q1724.17 201.201 1724.46 199.842 Q1724.79 198.483 1725.13 196.26 L1726.39 196.26 L1724.27 209.303 L1695.09 209.303 Z" fill="#000000" fill-rule="nonzero" fill-opacity="1" /><path clip-path="url(#clip860)" d="M1729.48 209.303 L1729.48 207.747 L1730.69 207.747 Q1733.43 207.747 1734.05 207.302 Q1734.69 206.833 1734.69 205.351 L1734.69 178.696 Q1734.69 177.238 1734.05 176.794 Q1733.41 176.324 1730.69 176.324 L1729.48 176.324 L1729.48 174.743 Q1731.26 174.892 1736.96 174.892 Q1742.62 174.892 1744.4 174.743 L1744.4 176.324 L1743.19 176.324 Q1740.45 176.324 1739.8 176.794 Q1739.19 177.238 1739.19 178.696 L1739.19 194.778 L1755.02 179.659 Q1755.94 178.844 1755.94 177.98 Q1755.94 177.683 1755.79 177.362 Q1755.66 177.016 1755.07 176.67 Q1754.5 176.324 1753.59 176.324 L1753.59 174.743 Q1755.32 174.892 1760.04 174.892 Q1763.03 174.892 1764.34 174.743 L1764.34 176.324 Q1760.14 176.374 1757.15 179.363 L1748.03 188.108 L1759.72 205.301 Q1760.78 206.858 1761.82 207.302 Q1762.85 207.747 1765.03 207.747 L1765.03 209.303 Q1761.84 209.155 1759.22 209.155 Q1753.76 209.155 1751.98 209.303 L1751.98 207.747 Q1754.97 207.747 1754.97 206.216 Q1754.97 205.647 1754.21 204.486 L1745.04 190.949 L1739.19 196.507 L1739.19 205.351 Q1739.19 206.808 1739.8 207.278 Q1740.45 207.747 1743.19 207.747 L1744.4 207.747 L1744.4 209.303 Q1742.62 209.155 1736.91 209.155 Q1731.26 209.155 1729.48 209.303 Z" fill="#000000" fill-rule="nonzero" fill-opacity="1" /><path clip-path="url(#clip860)" d="M1771.6 180.425 L1771.6 178.844 Q1777.68 178.844 1780.81 175.608 Q1781.68 175.608 1781.83 175.806 Q1781.97 176.003 1781.97 176.917 L1781.97 205.301 Q1781.97 206.808 1782.71 207.278 Q1783.46 207.747 1786.69 207.747 L1788.3 207.747 L1788.3 209.303 Q1786.52 209.155 1780.1 209.155 Q1773.67 209.155 1771.92 209.303 L1771.92 207.747 L1773.52 207.747 Q1776.71 207.747 1777.48 207.302 Q1778.24 206.833 1778.24 205.301 L1778.24 179.091 Q1775.6 180.425 1771.6 180.425 Z" fill="#000000" fill-rule="nonzero" fill-opacity="1" /><path clip-path="url(#clip860)" d="M1797.41 196.655 Q1797.41 188.108 1800.6 181.216 Q1801.96 178.325 1803.86 175.904 Q1805.76 173.484 1807.02 172.421 Q1808.28 171.359 1808.63 171.359 Q1809.12 171.359 1809.15 171.853 Q1809.15 172.1 1808.48 172.718 Q1800.33 181.018 1800.35 196.655 Q1800.35 212.342 1808.28 220.321 Q1809.15 221.186 1809.15 221.457 Q1809.15 221.952 1808.63 221.952 Q1808.28 221.952 1807.07 220.939 Q1805.86 219.926 1803.98 217.604 Q1802.11 215.282 1800.75 212.441 Q1797.41 205.549 1797.41 196.655 Z" fill="#000000" fill-rule="nonzero" fill-opacity="1" /><path clip-path="url(#clip860)" d="M1813.42 200.954 L1813.42 199.397 L1828.96 175.657 Q1829.35 175.04 1829.97 175.065 Q1830.54 175.065 1830.66 175.287 Q1830.79 175.509 1830.79 176.374 L1830.79 199.397 L1835.85 199.397 L1835.85 200.954 L1830.79 200.954 L1830.79 205.351 Q1830.79 206.808 1831.38 207.278 Q1832 207.747 1834.62 207.747 L1835.68 207.747 L1835.68 209.303 Q1833.6 209.155 1828.81 209.155 Q1824.04 209.155 1821.97 209.303 L1821.97 207.747 L1823.03 207.747 Q1825.65 207.747 1826.27 207.302 Q1826.88 206.833 1826.88 205.351 L1826.88 200.954 L1813.42 200.954 M1814.85 199.397 L1827.18 199.397 L1827.18 180.524 L1814.85 199.397 Z" fill="#000000" fill-rule="nonzero" fill-opacity="1" /><path clip-path="url(#clip860)" d="M1840.2 221.457 Q1840.2 221.21 1840.84 220.593 Q1848.99 212.293 1848.99 196.655 Q1848.99 180.969 1841.16 173.039 Q1840.2 172.125 1840.2 171.853 Q1840.2 171.359 1840.69 171.359 Q1841.04 171.359 1842.25 172.372 Q1843.48 173.385 1845.34 175.707 Q1847.22 178.029 1848.6 180.87 Q1851.93 187.762 1851.93 196.655 Q1851.93 205.203 1848.75 212.095 Q1847.39 214.985 1845.49 217.406 Q1843.58 219.827 1842.32 220.889 Q1841.06 221.952 1840.69 221.952 Q1840.2 221.952 1840.2 221.457 Z" fill="#000000" fill-rule="nonzero" fill-opacity="1" /><path clip-path="url(#clip860)" d="M1878.76 196.655 Q1878.76 188.108 1881.95 181.216 Q1883.31 178.325 1885.21 175.904 Q1887.11 173.484 1888.37 172.421 Q1889.63 171.359 1889.98 171.359 Q1890.47 171.359 1890.5 171.853 Q1890.5 172.1 1889.83 172.718 Q1881.68 181.018 1881.7 196.655 Q1881.7 212.342 1889.63 220.321 Q1890.5 221.186 1890.5 221.457 Q1890.5 221.952 1889.98 221.952 Q1889.63 221.952 1888.42 220.939 Q1887.21 219.926 1885.33 217.604 Q1883.45 215.282 1882.1 212.441 Q1878.76 205.549 1878.76 196.655 Z" fill="#000000" fill-rule="nonzero" fill-opacity="1" /><path clip-path="url(#clip860)" d="M1897.86 180.425 L1897.86 178.844 Q1903.93 178.844 1907.07 175.608 Q1907.94 175.608 1908.08 175.806 Q1908.23 176.003 1908.23 176.917 L1908.23 205.301 Q1908.23 206.808 1908.97 207.278 Q1909.71 207.747 1912.95 207.747 L1914.56 207.747 L1914.56 209.303 Q1912.78 209.155 1906.35 209.155 Q1899.93 209.155 1898.18 209.303 L1898.18 207.747 L1899.78 207.747 Q1902.97 207.747 1903.74 207.302 Q1904.5 206.833 1904.5 205.301 L1904.5 179.091 Q1901.86 180.425 1897.86 180.425 Z" fill="#000000" fill-rule="nonzero" fill-opacity="1" /><path clip-path="url(#clip860)" d="M1920.34 208.636 L1920.34 201.967 Q1920.34 201.398 1920.36 201.201 Q1920.39 201.003 1920.53 200.855 Q1920.68 200.707 1920.98 200.707 Q1921.33 200.707 1921.45 200.855 Q1921.6 201.003 1921.7 201.571 Q1922.46 205.054 1924.09 206.907 Q1925.75 208.735 1928.74 208.735 Q1931.58 208.735 1933.01 207.475 Q1934.44 206.216 1934.44 204.14 Q1934.44 200.435 1929.18 199.496 Q1926.14 198.879 1924.88 198.483 Q1923.62 198.063 1922.51 197.149 Q1920.34 195.371 1920.34 192.851 Q1920.34 190.331 1922.24 188.479 Q1924.17 186.626 1928.41 186.626 Q1931.26 186.626 1933.18 188.059 Q1933.75 187.614 1934.05 187.243 Q1934.71 186.626 1935.06 186.626 Q1935.46 186.626 1935.53 186.897 Q1935.6 187.145 1935.6 187.861 L1935.6 192.95 Q1935.6 193.518 1935.58 193.716 Q1935.55 193.913 1935.41 194.061 Q1935.26 194.185 1934.94 194.185 Q1934.37 194.185 1934.34 193.716 Q1933.95 187.589 1928.41 187.589 Q1925.43 187.589 1924.09 188.75 Q1922.76 189.887 1922.76 191.443 Q1922.76 192.308 1923.15 192.975 Q1923.57 193.617 1924.09 194.012 Q1924.64 194.383 1925.62 194.753 Q1926.61 195.099 1927.2 195.223 Q1927.82 195.346 1928.98 195.593 Q1933.03 196.359 1934.74 198.014 Q1936.86 200.138 1936.86 202.831 Q1936.86 205.82 1934.84 207.846 Q1932.81 209.872 1928.74 209.872 Q1925.45 209.872 1923.15 207.673 Q1922.86 207.969 1922.63 208.241 Q1922.41 208.488 1922.31 208.587 Q1922.24 208.686 1922.21 208.76 Q1922.19 208.809 1922.14 208.859 Q1921.13 209.872 1920.88 209.872 Q1920.49 209.872 1920.41 209.6 Q1920.34 209.353 1920.34 208.636 Z" fill="#000000" fill-rule="nonzero" fill-opacity="1" /><path clip-path="url(#clip860)" d="M1939.53 189.071 L1939.53 187.96 Q1941.85 187.861 1943.39 186.231 Q1944.94 184.575 1945.46 182.55 Q1946 180.524 1946.05 178.177 L1947.31 178.177 L1947.31 187.49 L1954.55 187.49 L1954.55 189.071 L1947.31 189.071 L1947.31 203.128 Q1947.31 208.587 1950.72 208.587 Q1952.18 208.587 1953.14 207.105 Q1954.11 205.598 1954.11 202.93 L1954.11 200.138 L1955.37 200.138 L1955.37 203.029 Q1955.37 205.771 1954.11 207.821 Q1952.85 209.872 1950.35 209.872 Q1949.44 209.872 1948.52 209.625 Q1947.63 209.402 1946.45 208.809 Q1945.29 208.192 1944.55 206.71 Q1943.83 205.203 1943.83 203.029 L1943.83 189.071 L1939.53 189.071 Z" fill="#000000" fill-rule="nonzero" fill-opacity="1" /><path clip-path="url(#clip860)" d="M1979.75 206.586 Q1976.41 203.276 1976.41 198.483 Q1976.41 193.666 1979.67 190.158 Q1982.96 186.626 1987.65 186.626 Q1992.25 186.626 1995.53 190.134 Q1998.84 193.617 1998.84 198.483 Q1998.84 203.251 1995.51 206.561 Q1992.2 209.872 1987.6 209.872 Q1983.11 209.872 1979.75 206.586 M1980.61 198.063 Q1980.61 202.979 1981.9 205.203 Q1983.87 208.587 1987.65 208.587 Q1989.53 208.587 1991.09 207.574 Q1992.67 206.561 1993.53 204.857 Q1994.64 202.634 1994.64 198.063 Q1994.64 193.197 1993.31 191.048 Q1991.33 187.762 1987.6 187.762 Q1985.97 187.762 1984.37 188.627 Q1982.79 189.467 1981.82 191.146 Q1980.61 193.37 1980.61 198.063 Z" fill="#000000" fill-rule="nonzero" fill-opacity="1" /><path clip-path="url(#clip860)" d="M2001.71 209.303 L2001.71 207.747 Q2004.4 207.747 2005.02 207.426 Q2005.66 207.08 2005.66 205.45 L2005.66 191.888 Q2005.66 190.01 2005 189.541 Q2004.35 189.071 2001.71 189.071 L2001.71 187.49 L2008.75 186.947 L2008.75 192.505 Q2009.47 190.331 2010.97 188.651 Q2012.51 186.947 2014.98 186.947 Q2016.61 186.947 2017.64 187.861 Q2018.71 188.775 2018.71 190.035 Q2018.71 191.146 2018.01 191.715 Q2017.35 192.258 2016.53 192.258 Q2015.62 192.258 2014.98 191.69 Q2014.36 191.097 2014.36 190.084 Q2014.36 189.467 2014.63 188.997 Q2014.93 188.503 2015.15 188.33 Q2015.37 188.157 2015.52 188.108 Q2015.42 188.059 2014.98 188.059 Q2012.18 188.059 2010.58 190.85 Q2009 193.617 2009 197.569 L2009 205.351 Q2009 206.808 2009.59 207.278 Q2010.21 207.747 2012.85 207.747 L2013.91 207.747 L2013.91 209.303 Q2011.89 209.155 2007.49 209.155 Q2006.87 209.155 2005.91 209.18 Q2004.95 209.205 2003.69 209.254 Q2002.43 209.303 2001.71 209.303 Z" fill="#000000" fill-rule="nonzero" fill-opacity="1" /><path clip-path="url(#clip860)" d="M2021.79 198.434 Q2021.79 193.617 2025.15 190.282 Q2028.51 186.947 2033.06 186.947 Q2036.91 186.947 2039.43 190.084 L2039.43 179.141 Q2039.43 177.263 2038.76 176.794 Q2038.12 176.324 2035.5 176.324 L2035.5 174.743 L2042.79 174.2 L2042.79 204.906 Q2042.79 206.784 2043.43 207.278 Q2044.1 207.747 2046.72 207.747 L2046.72 209.303 L2039.28 209.872 L2039.28 206.512 Q2036.67 209.847 2032.51 209.872 Q2028.17 209.872 2024.98 206.537 Q2021.79 203.202 2021.79 198.434 M2025.99 198.483 Q2025.99 203.177 2027.45 205.499 Q2029.48 208.735 2032.76 208.735 Q2036.52 208.735 2038.74 205.203 Q2039.31 204.338 2039.28 203.325 L2039.28 192.95 Q2039.28 191.937 2038.74 191.097 Q2036.67 188.059 2033.28 188.059 Q2029.75 188.059 2027.55 191.295 Q2025.99 193.716 2025.99 198.483 Z" fill="#000000" fill-rule="nonzero" fill-opacity="1" /><path clip-path="url(#clip860)" d="M2049.54 198.162 Q2049.54 193.394 2052.6 190.01 Q2055.66 186.626 2060.06 186.626 Q2064.51 186.626 2066.8 189.516 Q2069.13 192.406 2069.13 196.557 Q2069.13 197.322 2068.93 197.471 Q2068.73 197.619 2067.87 197.619 L2053.74 197.619 Q2053.74 202.782 2055.27 205.203 Q2057.39 208.587 2060.97 208.587 Q2061.47 208.587 2062.06 208.488 Q2062.65 208.389 2063.86 207.969 Q2065.07 207.525 2066.14 206.364 Q2067.2 205.203 2067.82 203.375 Q2067.96 202.658 2068.46 202.683 Q2069.13 202.683 2069.13 203.276 Q2069.13 203.72 2068.63 204.733 Q2068.16 205.721 2067.25 206.907 Q2066.33 208.093 2064.56 208.982 Q2062.8 209.872 2060.68 209.872 Q2056.23 209.872 2052.87 206.512 Q2049.54 203.128 2049.54 198.162 M2053.78 196.557 L2065.79 196.557 Q2065.79 195.494 2065.59 194.309 Q2065.42 193.123 2064.88 191.492 Q2064.36 189.837 2063.12 188.8 Q2061.89 187.762 2060.06 187.762 Q2059.24 187.762 2058.35 188.108 Q2057.49 188.454 2056.43 189.294 Q2055.37 190.134 2054.62 192.036 Q2053.88 193.938 2053.78 196.557 Z" fill="#000000" fill-rule="nonzero" fill-opacity="1" /><path clip-path="url(#clip860)" d="M2071.99 209.303 L2071.99 207.747 Q2074.68 207.747 2075.3 207.426 Q2075.94 207.08 2075.94 205.45 L2075.94 191.888 Q2075.94 190.01 2075.28 189.541 Q2074.63 189.071 2071.99 189.071 L2071.99 187.49 L2079.03 186.947 L2079.03 192.505 Q2079.75 190.331 2081.25 188.651 Q2082.79 186.947 2085.26 186.947 Q2086.89 186.947 2087.92 187.861 Q2088.99 188.775 2088.99 190.035 Q2088.99 191.146 2088.3 191.715 Q2087.63 192.258 2086.81 192.258 Q2085.9 192.258 2085.26 191.69 Q2084.64 191.097 2084.64 190.084 Q2084.64 189.467 2084.91 188.997 Q2085.21 188.503 2085.43 188.33 Q2085.65 188.157 2085.8 188.108 Q2085.7 188.059 2085.26 188.059 Q2082.47 188.059 2080.86 190.85 Q2079.28 193.617 2079.28 197.569 L2079.28 205.351 Q2079.28 206.808 2079.87 207.278 Q2080.49 207.747 2083.13 207.747 L2084.19 207.747 L2084.19 209.303 Q2082.17 209.155 2077.77 209.155 Q2077.15 209.155 2076.19 209.18 Q2075.23 209.205 2073.97 209.254 Q2072.71 209.303 2071.99 209.303 Z" fill="#000000" fill-rule="nonzero" fill-opacity="1" /><path clip-path="url(#clip860)" d="M2110.01 192.159 Q2110.01 184.427 2114.95 179.042 Q2119.92 173.632 2126.81 173.632 Q2133.75 173.632 2138.69 179.042 Q2143.66 184.452 2143.66 192.159 Q2143.66 199.793 2138.69 205.104 Q2133.72 210.415 2126.81 210.415 Q2119.99 210.415 2115 205.129 Q2110.01 199.842 2110.01 192.159 M2115.22 191.443 Q2115.22 196.137 2116.33 199.743 Q2117.45 203.325 2119.22 205.277 Q2121.03 207.228 2122.95 208.167 Q2124.88 209.106 2126.86 209.106 Q2128.78 209.106 2130.66 208.192 Q2132.56 207.278 2134.37 205.351 Q2136.17 203.424 2137.31 199.817 Q2138.44 196.211 2138.44 191.443 Q2138.44 187.737 2137.65 184.773 Q2136.86 181.784 2135.63 179.981 Q2134.39 178.177 2132.79 176.991 Q2131.2 175.806 2129.7 175.361 Q2128.22 174.892 2126.81 174.892 Q2125.03 174.892 2123.18 175.682 Q2121.32 176.473 2119.45 178.227 Q2117.59 179.956 2116.41 183.39 Q2115.22 186.799 2115.22 191.443 Z" fill="#000000" fill-rule="nonzero" fill-opacity="1" /><path clip-path="url(#clip860)" d="M2148.25 209.303 L2148.25 207.747 L2149.46 207.747 Q2152.2 207.747 2152.82 207.302 Q2153.46 206.833 2153.46 205.351 L2153.46 178.696 Q2153.46 177.238 2152.82 176.794 Q2152.18 176.324 2149.46 176.324 L2148.25 176.324 L2148.25 174.743 L2166.75 174.743 Q2173.23 174.743 2177.72 179.906 Q2182.24 185.069 2182.24 192.308 Q2182.24 199.397 2177.7 204.363 Q2173.18 209.303 2166.75 209.303 L2148.25 209.303 M2157.81 205.721 Q2157.81 207.031 2158.18 207.401 Q2158.55 207.747 2160.28 207.747 L2165.39 207.747 Q2168.73 207.747 2170.98 206.388 Q2173.23 205.005 2174.39 203.424 Q2177.18 199.62 2177.18 192.308 Q2177.18 184.625 2174.56 181.018 Q2171.17 176.324 2165.34 176.324 L2160.28 176.324 Q2158.55 176.324 2158.18 176.67 Q2157.81 177.016 2157.81 178.35 L2157.81 205.721 Z" fill="#000000" fill-rule="nonzero" fill-opacity="1" /><path clip-path="url(#clip860)" d="M2186.74 209.303 L2186.74 207.747 L2187.95 207.747 Q2190.69 207.747 2191.31 207.302 Q2191.95 206.833 2191.95 205.351 L2191.95 178.844 Q2191.95 177.387 2191.31 176.942 Q2190.67 176.473 2187.95 176.473 L2186.74 176.473 L2186.74 174.892 L2215.22 174.892 L2216.63 186.28 L2215.37 186.28 Q2215.02 183.39 2214.55 181.734 Q2214.11 180.055 2213 178.77 Q2211.91 177.486 2210.11 176.991 Q2208.33 176.473 2205.44 176.473 L2198.92 176.473 Q2197.19 176.473 2196.82 176.843 Q2196.45 177.189 2196.45 178.498 L2196.45 190.628 L2200.99 190.628 Q2204.48 190.628 2205.46 189.417 Q2206.45 188.207 2206.45 184.724 L2207.74 184.724 L2207.74 198.113 L2206.45 198.113 Q2206.45 194.679 2205.46 193.444 Q2204.48 192.209 2200.99 192.209 L2196.45 192.209 L2196.45 205.721 Q2196.45 207.031 2196.82 207.401 Q2197.21 207.747 2198.92 207.747 L2205.66 207.747 Q2207.83 207.747 2209.42 207.475 Q2211.02 207.179 2212.13 206.487 Q2213.24 205.771 2213.99 204.956 Q2214.75 204.14 2215.27 202.683 Q2215.81 201.201 2216.11 199.842 Q2216.43 198.483 2216.78 196.26 L2218.04 196.26 L2215.91 209.303 L2186.74 209.303 Z" fill="#000000" fill-rule="nonzero" fill-opacity="1" /><path clip-path="url(#clip860)" d="M2222.34 221.457 Q2222.34 221.21 2222.98 220.593 Q2231.13 212.293 2231.13 196.655 Q2231.13 180.969 2223.3 173.039 Q2222.34 172.125 2222.34 171.853 Q2222.34 171.359 2222.83 171.359 Q2223.18 171.359 2224.39 172.372 Q2225.62 173.385 2227.47 175.707 Q2229.35 178.029 2230.73 180.87 Q2234.07 187.762 2234.07 196.655 Q2234.07 205.203 2230.88 212.095 Q2229.52 214.985 2227.62 217.406 Q2225.72 219.827 2224.46 220.889 Q2223.2 221.952 2222.83 221.952 Q2222.34 221.952 2222.34 221.457 Z" fill="#000000" fill-rule="nonzero" fill-opacity="1" /></svg>
