<?xml version="1.0" encoding="utf-8"?>
<svg xmlns="http://www.w3.org/2000/svg" xmlns:xlink="http://www.w3.org/1999/xlink" width="576" height="384" viewBox="0 0 2304 1536">
<defs>
  <clipPath id="clip470">
    <rect x="0" y="0" width="2304" height="1536"/>
  </clipPath>
</defs>
<path clip-path="url(#clip470)" d="M0 1536 L2304 1536 L2304 0 L0 0  Z" fill="#ffffff" fill-rule="evenodd" fill-opacity="1"/>
<defs>
  <clipPath id="clip471">
    <rect x="460" y="0" width="1614" height="1536"/>
  </clipPath>
</defs>
<path clip-path="url(#clip470)" d="M278.238 1280.22 L1836.11 1280.22 L1836.11 47.2441 L278.238 47.2441  Z" fill="#ffffff" fill-rule="evenodd" fill-opacity="1"/>
<defs>
  <clipPath id="clip472">
    <rect x="278" y="47" width="1559" height="1234"/>
  </clipPath>
</defs>
<polyline clip-path="url(#clip472)" style="stroke:#000000; stroke-linecap:round; stroke-linejoin:round; stroke-width:2.8; stroke-opacity:0.4; fill:none" points="437.228,1280.22 437.228,47.2441 "/>
<polyline clip-path="url(#clip472)" style="stroke:#000000; stroke-linecap:round; stroke-linejoin:round; stroke-width:2.8; stroke-opacity:0.4; fill:none" points="735.264,1280.22 735.264,47.2441 "/>
<polyline clip-path="url(#clip472)" style="stroke:#000000; stroke-linecap:round; stroke-linejoin:round; stroke-width:2.8; stroke-opacity:0.4; fill:none" points="1033.3,1280.22 1033.3,47.2441 "/>
<polyline clip-path="url(#clip472)" style="stroke:#000000; stroke-linecap:round; stroke-linejoin:round; stroke-width:2.8; stroke-opacity:0.4; fill:none" points="1331.34,1280.22 1331.34,47.2441 "/>
<polyline clip-path="url(#clip472)" style="stroke:#000000; stroke-linecap:round; stroke-linejoin:round; stroke-width:2.8; stroke-opacity:0.4; fill:none" points="1629.37,1280.22 1629.37,47.2441 "/>
<polyline clip-path="url(#clip472)" style="stroke:#000000; stroke-linecap:round; stroke-linejoin:round; stroke-width:2; stroke-opacity:0.06; fill:none" points="336.717,1280.22 336.717,47.2441 "/>
<polyline clip-path="url(#clip472)" style="stroke:#000000; stroke-linecap:round; stroke-linejoin:round; stroke-width:2; stroke-opacity:0.06; fill:none" points="379.462,1280.22 379.462,47.2441 "/>
<polyline clip-path="url(#clip472)" style="stroke:#000000; stroke-linecap:round; stroke-linejoin:round; stroke-width:2; stroke-opacity:0.06; fill:none" points="411.541,1280.22 411.541,47.2441 "/>
<polyline clip-path="url(#clip472)" style="stroke:#000000; stroke-linecap:round; stroke-linejoin:round; stroke-width:2; stroke-opacity:0.06; fill:none" points="570.497,1280.22 570.497,47.2441 "/>
<polyline clip-path="url(#clip472)" style="stroke:#000000; stroke-linecap:round; stroke-linejoin:round; stroke-width:2; stroke-opacity:0.06; fill:none" points="634.753,1280.22 634.753,47.2441 "/>
<polyline clip-path="url(#clip472)" style="stroke:#000000; stroke-linecap:round; stroke-linejoin:round; stroke-width:2; stroke-opacity:0.06; fill:none" points="677.498,1280.22 677.498,47.2441 "/>
<polyline clip-path="url(#clip472)" style="stroke:#000000; stroke-linecap:round; stroke-linejoin:round; stroke-width:2; stroke-opacity:0.06; fill:none" points="709.577,1280.22 709.577,47.2441 "/>
<polyline clip-path="url(#clip472)" style="stroke:#000000; stroke-linecap:round; stroke-linejoin:round; stroke-width:2; stroke-opacity:0.06; fill:none" points="868.533,1280.22 868.533,47.2441 "/>
<polyline clip-path="url(#clip472)" style="stroke:#000000; stroke-linecap:round; stroke-linejoin:round; stroke-width:2; stroke-opacity:0.06; fill:none" points="932.79,1280.22 932.79,47.2441 "/>
<polyline clip-path="url(#clip472)" style="stroke:#000000; stroke-linecap:round; stroke-linejoin:round; stroke-width:2; stroke-opacity:0.06; fill:none" points="975.535,1280.22 975.535,47.2441 "/>
<polyline clip-path="url(#clip472)" style="stroke:#000000; stroke-linecap:round; stroke-linejoin:round; stroke-width:2; stroke-opacity:0.06; fill:none" points="1007.61,1280.22 1007.61,47.2441 "/>
<polyline clip-path="url(#clip472)" style="stroke:#000000; stroke-linecap:round; stroke-linejoin:round; stroke-width:2; stroke-opacity:0.06; fill:none" points="1166.57,1280.22 1166.57,47.2441 "/>
<polyline clip-path="url(#clip472)" style="stroke:#000000; stroke-linecap:round; stroke-linejoin:round; stroke-width:2; stroke-opacity:0.06; fill:none" points="1230.83,1280.22 1230.83,47.2441 "/>
<polyline clip-path="url(#clip472)" style="stroke:#000000; stroke-linecap:round; stroke-linejoin:round; stroke-width:2; stroke-opacity:0.06; fill:none" points="1273.57,1280.22 1273.57,47.2441 "/>
<polyline clip-path="url(#clip472)" style="stroke:#000000; stroke-linecap:round; stroke-linejoin:round; stroke-width:2; stroke-opacity:0.06; fill:none" points="1305.65,1280.22 1305.65,47.2441 "/>
<polyline clip-path="url(#clip472)" style="stroke:#000000; stroke-linecap:round; stroke-linejoin:round; stroke-width:2; stroke-opacity:0.06; fill:none" points="1464.61,1280.22 1464.61,47.2441 "/>
<polyline clip-path="url(#clip472)" style="stroke:#000000; stroke-linecap:round; stroke-linejoin:round; stroke-width:2; stroke-opacity:0.06; fill:none" points="1528.86,1280.22 1528.86,47.2441 "/>
<polyline clip-path="url(#clip472)" style="stroke:#000000; stroke-linecap:round; stroke-linejoin:round; stroke-width:2; stroke-opacity:0.06; fill:none" points="1571.61,1280.22 1571.61,47.2441 "/>
<polyline clip-path="url(#clip472)" style="stroke:#000000; stroke-linecap:round; stroke-linejoin:round; stroke-width:2; stroke-opacity:0.06; fill:none" points="1603.69,1280.22 1603.69,47.2441 "/>
<polyline clip-path="url(#clip472)" style="stroke:#000000; stroke-linecap:round; stroke-linejoin:round; stroke-width:2; stroke-opacity:0.06; fill:none" points="1762.64,1280.22 1762.64,47.2441 "/>
<polyline clip-path="url(#clip472)" style="stroke:#000000; stroke-linecap:round; stroke-linejoin:round; stroke-width:2; stroke-opacity:0.06; fill:none" points="1826.9,1280.22 1826.9,47.2441 "/>
<polyline clip-path="url(#clip470)" style="stroke:#000000; stroke-linecap:round; stroke-linejoin:round; stroke-width:4; stroke-opacity:1; fill:none" points="278.238,1280.22 1836.11,1280.22 "/>
<polyline clip-path="url(#clip470)" style="stroke:#000000; stroke-linecap:round; stroke-linejoin:round; stroke-width:4; stroke-opacity:1; fill:none" points="278.238,47.2441 1836.11,47.2441 "/>
<polyline clip-path="url(#clip470)" style="stroke:#000000; stroke-linecap:round; stroke-linejoin:round; stroke-width:4; stroke-opacity:1; fill:none" points="437.228,1280.22 437.228,1261.33 "/>
<polyline clip-path="url(#clip470)" style="stroke:#000000; stroke-linecap:round; stroke-linejoin:round; stroke-width:4; stroke-opacity:1; fill:none" points="735.264,1280.22 735.264,1261.33 "/>
<polyline clip-path="url(#clip470)" style="stroke:#000000; stroke-linecap:round; stroke-linejoin:round; stroke-width:4; stroke-opacity:1; fill:none" points="1033.3,1280.22 1033.3,1261.33 "/>
<polyline clip-path="url(#clip470)" style="stroke:#000000; stroke-linecap:round; stroke-linejoin:round; stroke-width:4; stroke-opacity:1; fill:none" points="1331.34,1280.22 1331.34,1261.33 "/>
<polyline clip-path="url(#clip470)" style="stroke:#000000; stroke-linecap:round; stroke-linejoin:round; stroke-width:4; stroke-opacity:1; fill:none" points="1629.37,1280.22 1629.37,1261.33 "/>
<polyline clip-path="url(#clip470)" style="stroke:#000000; stroke-linecap:round; stroke-linejoin:round; stroke-width:4; stroke-opacity:1; fill:none" points="336.717,1280.22 336.717,1270.78 "/>
<polyline clip-path="url(#clip470)" style="stroke:#000000; stroke-linecap:round; stroke-linejoin:round; stroke-width:4; stroke-opacity:1; fill:none" points="379.462,1280.22 379.462,1270.78 "/>
<polyline clip-path="url(#clip470)" style="stroke:#000000; stroke-linecap:round; stroke-linejoin:round; stroke-width:4; stroke-opacity:1; fill:none" points="411.541,1280.22 411.541,1270.78 "/>
<polyline clip-path="url(#clip470)" style="stroke:#000000; stroke-linecap:round; stroke-linejoin:round; stroke-width:4; stroke-opacity:1; fill:none" points="570.497,1280.22 570.497,1270.78 "/>
<polyline clip-path="url(#clip470)" style="stroke:#000000; stroke-linecap:round; stroke-linejoin:round; stroke-width:4; stroke-opacity:1; fill:none" points="634.753,1280.22 634.753,1270.78 "/>
<polyline clip-path="url(#clip470)" style="stroke:#000000; stroke-linecap:round; stroke-linejoin:round; stroke-width:4; stroke-opacity:1; fill:none" points="677.498,1280.22 677.498,1270.78 "/>
<polyline clip-path="url(#clip470)" style="stroke:#000000; stroke-linecap:round; stroke-linejoin:round; stroke-width:4; stroke-opacity:1; fill:none" points="709.577,1280.22 709.577,1270.78 "/>
<polyline clip-path="url(#clip470)" style="stroke:#000000; stroke-linecap:round; stroke-linejoin:round; stroke-width:4; stroke-opacity:1; fill:none" points="868.533,1280.22 868.533,1270.78 "/>
<polyline clip-path="url(#clip470)" style="stroke:#000000; stroke-linecap:round; stroke-linejoin:round; stroke-width:4; stroke-opacity:1; fill:none" points="932.79,1280.22 932.79,1270.78 "/>
<polyline clip-path="url(#clip470)" style="stroke:#000000; stroke-linecap:round; stroke-linejoin:round; stroke-width:4; stroke-opacity:1; fill:none" points="975.535,1280.22 975.535,1270.78 "/>
<polyline clip-path="url(#clip470)" style="stroke:#000000; stroke-linecap:round; stroke-linejoin:round; stroke-width:4; stroke-opacity:1; fill:none" points="1007.61,1280.22 1007.61,1270.78 "/>
<polyline clip-path="url(#clip470)" style="stroke:#000000; stroke-linecap:round; stroke-linejoin:round; stroke-width:4; stroke-opacity:1; fill:none" points="1166.57,1280.22 1166.57,1270.78 "/>
<polyline clip-path="url(#clip470)" style="stroke:#000000; stroke-linecap:round; stroke-linejoin:round; stroke-width:4; stroke-opacity:1; fill:none" points="1230.83,1280.22 1230.83,1270.78 "/>
<polyline clip-path="url(#clip470)" style="stroke:#000000; stroke-linecap:round; stroke-linejoin:round; stroke-width:4; stroke-opacity:1; fill:none" points="1273.57,1280.22 1273.57,1270.78 "/>
<polyline clip-path="url(#clip470)" style="stroke:#000000; stroke-linecap:round; stroke-linejoin:round; stroke-width:4; stroke-opacity:1; fill:none" points="1305.65,1280.22 1305.65,1270.78 "/>
<polyline clip-path="url(#clip470)" style="stroke:#000000; stroke-linecap:round; stroke-linejoin:round; stroke-width:4; stroke-opacity:1; fill:none" points="1464.61,1280.22 1464.61,1270.78 "/>
<polyline clip-path="url(#clip470)" style="stroke:#000000; stroke-linecap:round; stroke-linejoin:round; stroke-width:4; stroke-opacity:1; fill:none" points="1528.86,1280.22 1528.86,1270.78 "/>
<polyline clip-path="url(#clip470)" style="stroke:#000000; stroke-linecap:round; stroke-linejoin:round; stroke-width:4; stroke-opacity:1; fill:none" points="1571.61,1280.22 1571.61,1270.78 "/>
<polyline clip-path="url(#clip470)" style="stroke:#000000; stroke-linecap:round; stroke-linejoin:round; stroke-width:4; stroke-opacity:1; fill:none" points="1603.69,1280.22 1603.69,1270.78 "/>
<polyline clip-path="url(#clip470)" style="stroke:#000000; stroke-linecap:round; stroke-linejoin:round; stroke-width:4; stroke-opacity:1; fill:none" points="1762.64,1280.22 1762.64,1270.78 "/>
<polyline clip-path="url(#clip470)" style="stroke:#000000; stroke-linecap:round; stroke-linejoin:round; stroke-width:4; stroke-opacity:1; fill:none" points="1826.9,1280.22 1826.9,1270.78 "/>
<path clip-path="url(#clip470)" d="M380.689 1328.64 L380.689 1327.06 Q386.766 1327.06 389.904 1323.82 Q390.768 1323.82 390.916 1324.02 Q391.065 1324.22 391.065 1325.13 L391.065 1353.51 Q391.065 1355.02 391.806 1355.49 Q392.547 1355.96 395.783 1355.96 L397.389 1355.96 L397.389 1357.52 Q395.61 1357.37 389.187 1357.37 Q382.764 1357.37 381.01 1357.52 L381.01 1355.96 L382.616 1355.96 Q385.803 1355.96 386.569 1355.52 Q387.334 1355.05 387.334 1353.51 L387.334 1327.3 Q384.691 1328.64 380.689 1328.64 Z" fill="#000000" fill-rule="nonzero" fill-opacity="1" /><path clip-path="url(#clip470)" d="M403.466 1341.34 Q403.466 1333.9 405.343 1329.85 Q407.962 1323.82 414.138 1323.82 Q415.447 1323.82 416.806 1324.19 Q418.189 1324.54 419.918 1325.9 Q421.672 1327.25 422.734 1329.48 Q424.76 1333.78 424.76 1341.34 Q424.76 1348.72 422.883 1352.75 Q420.141 1358.63 414.088 1358.63 Q411.815 1358.63 409.493 1357.47 Q407.196 1356.31 405.738 1353.51 Q403.466 1349.34 403.466 1341.34 M407.665 1340.72 Q407.665 1348.35 408.209 1351.39 Q408.826 1354.68 410.506 1356.11 Q412.211 1357.52 414.088 1357.52 Q416.114 1357.52 417.794 1356.01 Q419.498 1354.48 420.017 1351.19 Q420.585 1347.96 420.56 1340.72 Q420.56 1333.68 420.066 1330.86 Q419.399 1327.58 417.621 1326.27 Q415.867 1324.93 414.088 1324.93 Q413.421 1324.93 412.705 1325.13 Q412.013 1325.33 411 1325.9 Q409.987 1326.46 409.197 1327.87 Q408.431 1329.28 408.061 1331.41 Q407.665 1334.15 407.665 1340.72 Z" fill="#000000" fill-rule="nonzero" fill-opacity="1" /><path clip-path="url(#clip470)" d="M451.897 1319.25 Q452.138 1319.49 452.138 1319.83 Q452.138 1320.17 451.897 1320.41 Q451.656 1320.65 451.315 1320.65 L425.583 1320.65 Q425.242 1320.65 425.001 1320.41 Q424.76 1320.17 424.76 1319.83 Q424.76 1319.49 425.001 1319.25 Q425.242 1319.01 425.583 1319.01 L451.315 1319.01 Q451.656 1319.01 451.897 1319.25 Z" fill="#000000" fill-rule="nonzero" fill-opacity="1" /><path clip-path="url(#clip470)" d="M458.079 1306.64 L458.079 1305.36 Q463.016 1305.36 465.565 1302.73 Q466.268 1302.73 466.388 1302.89 Q466.509 1303.05 466.509 1303.79 L466.509 1326.85 Q466.509 1328.08 467.111 1328.46 Q467.713 1328.84 470.342 1328.84 L471.647 1328.84 L471.647 1330.11 Q470.202 1329.99 464.983 1329.99 Q459.765 1329.99 458.34 1330.11 L458.34 1328.84 L459.644 1328.84 Q462.233 1328.84 462.856 1328.48 Q463.478 1328.1 463.478 1326.85 L463.478 1305.56 Q461.33 1306.64 458.079 1306.64 Z" fill="#000000" fill-rule="nonzero" fill-opacity="1" /><path clip-path="url(#clip470)" d="M476.705 1324.57 Q476.705 1323.34 477.408 1322.76 Q478.11 1322.18 479.013 1322.18 Q479.957 1322.18 480.619 1322.8 Q481.301 1323.4 481.301 1324.47 Q481.301 1325.61 480.499 1326.25 Q479.716 1326.89 478.592 1326.73 Q479.575 1328.38 481.382 1329.12 Q483.208 1329.87 484.894 1329.87 Q486.66 1329.87 488.086 1328.34 Q489.531 1326.81 489.531 1323.08 Q489.531 1319.91 488.286 1318.08 Q487.062 1316.26 484.633 1316.26 L482.827 1316.26 Q482.205 1316.26 482.024 1316.2 Q481.843 1316.14 481.843 1315.8 Q481.843 1315.39 482.466 1315.31 Q483.088 1315.31 484.071 1315.19 Q486.46 1315.11 487.724 1313.05 Q488.868 1311.12 488.868 1308.37 Q488.868 1305.86 487.664 1304.82 Q486.48 1303.75 484.934 1303.75 Q483.489 1303.75 481.904 1304.35 Q480.318 1304.96 479.455 1306.3 Q482.004 1306.3 482.004 1308.37 Q482.004 1309.27 481.422 1309.87 Q480.86 1310.46 479.916 1310.46 Q479.013 1310.46 478.411 1309.89 Q477.809 1309.31 477.809 1308.33 Q477.809 1305.98 479.896 1304.35 Q482.004 1302.73 485.095 1302.73 Q488.146 1302.73 490.394 1304.33 Q492.662 1305.94 492.662 1308.41 Q492.662 1310.84 491.056 1312.82 Q489.45 1314.81 486.901 1315.63 Q490.032 1316.26 491.899 1318.38 Q493.766 1320.49 493.766 1323.08 Q493.766 1326.29 491.237 1328.66 Q488.708 1331.01 485.015 1331.01 Q481.602 1331.01 479.154 1329.16 Q476.705 1327.32 476.705 1324.57 Z" fill="#000000" fill-rule="nonzero" fill-opacity="1" /><path clip-path="url(#clip470)" d="M678.886 1328.64 L678.886 1327.06 Q684.963 1327.06 688.101 1323.82 Q688.965 1323.82 689.113 1324.02 Q689.262 1324.22 689.262 1325.13 L689.262 1353.51 Q689.262 1355.02 690.003 1355.49 Q690.744 1355.96 693.98 1355.96 L695.586 1355.96 L695.586 1357.52 Q693.807 1357.37 687.384 1357.37 Q680.961 1357.37 679.207 1357.52 L679.207 1355.96 L680.813 1355.96 Q684 1355.96 684.766 1355.52 Q685.531 1355.05 685.531 1353.51 L685.531 1327.3 Q682.888 1328.64 678.886 1328.64 Z" fill="#000000" fill-rule="nonzero" fill-opacity="1" /><path clip-path="url(#clip470)" d="M701.663 1341.34 Q701.663 1333.9 703.54 1329.85 Q706.159 1323.82 712.335 1323.82 Q713.644 1323.82 715.002 1324.19 Q716.386 1324.54 718.115 1325.9 Q719.869 1327.25 720.931 1329.48 Q722.957 1333.78 722.957 1341.34 Q722.957 1348.72 721.08 1352.75 Q718.337 1358.63 712.285 1358.63 Q710.012 1358.63 707.69 1357.47 Q705.393 1356.31 703.935 1353.51 Q701.663 1349.34 701.663 1341.34 M705.862 1340.72 Q705.862 1348.35 706.406 1351.39 Q707.023 1354.68 708.703 1356.11 Q710.408 1357.52 712.285 1357.52 Q714.311 1357.52 715.991 1356.01 Q717.695 1354.48 718.214 1351.19 Q718.782 1347.96 718.757 1340.72 Q718.757 1333.68 718.263 1330.86 Q717.596 1327.58 715.818 1326.27 Q714.064 1324.93 712.285 1324.93 Q711.618 1324.93 710.902 1325.13 Q710.21 1325.33 709.197 1325.9 Q708.184 1326.46 707.394 1327.87 Q706.628 1329.28 706.258 1331.41 Q705.862 1334.15 705.862 1340.72 Z" fill="#000000" fill-rule="nonzero" fill-opacity="1" /><path clip-path="url(#clip470)" d="M750.094 1319.25 Q750.334 1319.49 750.334 1319.83 Q750.334 1320.17 750.094 1320.41 Q749.853 1320.65 749.512 1320.65 L723.78 1320.65 Q723.439 1320.65 723.198 1320.41 Q722.957 1320.17 722.957 1319.83 Q722.957 1319.49 723.198 1319.25 Q723.439 1319.01 723.78 1319.01 L749.512 1319.01 Q749.853 1319.01 750.094 1319.25 Z" fill="#000000" fill-rule="nonzero" fill-opacity="1" /><path clip-path="url(#clip470)" d="M756.276 1306.64 L756.276 1305.36 Q761.213 1305.36 763.762 1302.73 Q764.465 1302.73 764.585 1302.89 Q764.706 1303.05 764.706 1303.79 L764.706 1326.85 Q764.706 1328.08 765.308 1328.46 Q765.91 1328.84 768.539 1328.84 L769.844 1328.84 L769.844 1330.11 Q768.399 1329.99 763.18 1329.99 Q757.962 1329.99 756.537 1330.11 L756.537 1328.84 L757.841 1328.84 Q760.43 1328.84 761.053 1328.48 Q761.675 1328.1 761.675 1326.85 L761.675 1305.56 Q759.527 1306.64 756.276 1306.64 Z" fill="#000000" fill-rule="nonzero" fill-opacity="1" /><path clip-path="url(#clip470)" d="M775.223 1330.11 Q775.223 1329.36 775.283 1329.14 Q775.364 1328.92 775.685 1328.58 L783.573 1319.79 Q787.888 1314.93 787.888 1310.7 Q787.888 1307.95 786.443 1305.98 Q785.018 1304.01 782.389 1304.01 Q780.582 1304.01 779.057 1305.12 Q777.531 1306.22 776.829 1308.19 Q776.949 1308.15 777.371 1308.15 Q778.394 1308.15 778.956 1308.79 Q779.538 1309.43 779.538 1310.3 Q779.538 1311.4 778.816 1311.94 Q778.113 1312.46 777.411 1312.46 Q777.13 1312.46 776.749 1312.4 Q776.387 1312.34 775.805 1311.78 Q775.223 1311.2 775.223 1310.18 Q775.223 1307.3 777.391 1305.02 Q779.579 1302.73 782.91 1302.73 Q786.684 1302.73 789.153 1304.98 Q791.642 1307.2 791.642 1310.7 Q791.642 1311.92 791.26 1313.05 Q790.899 1314.15 790.397 1315.01 Q789.915 1315.88 788.591 1317.26 Q787.266 1318.65 786.202 1319.63 Q785.138 1320.61 782.75 1322.7 L778.394 1326.93 L785.801 1326.93 Q789.414 1326.93 789.695 1326.61 Q790.096 1326.03 790.598 1322.96 L791.642 1322.96 L790.477 1330.11 L775.223 1330.11 Z" fill="#000000" fill-rule="nonzero" fill-opacity="1" /><path clip-path="url(#clip470)" d="M977.545 1328.64 L977.545 1327.06 Q983.622 1327.06 986.759 1323.82 Q987.624 1323.82 987.772 1324.02 Q987.92 1324.22 987.92 1325.13 L987.92 1353.51 Q987.92 1355.02 988.661 1355.49 Q989.402 1355.96 992.639 1355.96 L994.244 1355.96 L994.244 1357.52 Q992.466 1357.37 986.043 1357.37 Q979.62 1357.37 977.866 1357.52 L977.866 1355.96 L979.472 1355.96 Q982.658 1355.96 983.424 1355.52 Q984.19 1355.05 984.19 1353.51 L984.19 1327.3 Q981.547 1328.64 977.545 1328.64 Z" fill="#000000" fill-rule="nonzero" fill-opacity="1" /><path clip-path="url(#clip470)" d="M1000.32 1341.34 Q1000.32 1333.9 1002.2 1329.85 Q1004.82 1323.82 1010.99 1323.82 Q1012.3 1323.82 1013.66 1324.19 Q1015.04 1324.54 1016.77 1325.9 Q1018.53 1327.25 1019.59 1329.48 Q1021.62 1333.78 1021.62 1341.34 Q1021.62 1348.72 1019.74 1352.75 Q1017 1358.63 1010.94 1358.63 Q1008.67 1358.63 1006.35 1357.47 Q1004.05 1356.31 1002.59 1353.51 Q1000.32 1349.34 1000.32 1341.34 M1004.52 1340.72 Q1004.52 1348.35 1005.06 1351.39 Q1005.68 1354.68 1007.36 1356.11 Q1009.07 1357.52 1010.94 1357.52 Q1012.97 1357.52 1014.65 1356.01 Q1016.35 1354.48 1016.87 1351.19 Q1017.44 1347.96 1017.42 1340.72 Q1017.42 1333.68 1016.92 1330.86 Q1016.25 1327.58 1014.48 1326.27 Q1012.72 1324.93 1010.94 1324.93 Q1010.28 1324.93 1009.56 1325.13 Q1008.87 1325.33 1007.86 1325.9 Q1006.84 1326.46 1006.05 1327.87 Q1005.29 1329.28 1004.92 1331.41 Q1004.52 1334.15 1004.52 1340.72 Z" fill="#000000" fill-rule="nonzero" fill-opacity="1" /><path clip-path="url(#clip470)" d="M1048.75 1319.25 Q1048.99 1319.49 1048.99 1319.83 Q1048.99 1320.17 1048.75 1320.41 Q1048.51 1320.65 1048.17 1320.65 L1022.44 1320.65 Q1022.1 1320.65 1021.86 1320.41 Q1021.62 1320.17 1021.62 1319.83 Q1021.62 1319.49 1021.86 1319.25 Q1022.1 1319.01 1022.44 1319.01 L1048.17 1319.01 Q1048.51 1319.01 1048.75 1319.25 Z" fill="#000000" fill-rule="nonzero" fill-opacity="1" /><path clip-path="url(#clip470)" d="M1054.93 1306.64 L1054.93 1305.36 Q1059.87 1305.36 1062.42 1302.73 Q1063.12 1302.73 1063.24 1302.89 Q1063.36 1303.05 1063.36 1303.79 L1063.36 1326.85 Q1063.36 1328.08 1063.97 1328.46 Q1064.57 1328.84 1067.2 1328.84 L1068.5 1328.84 L1068.5 1330.11 Q1067.06 1329.99 1061.84 1329.99 Q1056.62 1329.99 1055.2 1330.11 L1055.2 1328.84 L1056.5 1328.84 Q1059.09 1328.84 1059.71 1328.48 Q1060.33 1328.1 1060.33 1326.85 L1060.33 1305.56 Q1058.19 1306.64 1054.93 1306.64 Z" fill="#000000" fill-rule="nonzero" fill-opacity="1" /><path clip-path="url(#clip470)" d="M1075.49 1306.64 L1075.49 1305.36 Q1080.42 1305.36 1082.97 1302.73 Q1083.68 1302.73 1083.8 1302.89 Q1083.92 1303.05 1083.92 1303.79 L1083.92 1326.85 Q1083.92 1328.08 1084.52 1328.46 Q1085.12 1328.84 1087.75 1328.84 L1089.06 1328.84 L1089.06 1330.11 Q1087.61 1329.99 1082.39 1329.99 Q1077.17 1329.99 1075.75 1330.11 L1075.75 1328.84 L1077.05 1328.84 Q1079.64 1328.84 1080.26 1328.48 Q1080.89 1328.1 1080.89 1326.85 L1080.89 1305.56 Q1078.74 1306.64 1075.49 1306.64 Z" fill="#000000" fill-rule="nonzero" fill-opacity="1" /><path clip-path="url(#clip470)" d="M1274.74 1328.64 L1274.74 1327.06 Q1280.82 1327.06 1283.95 1323.82 Q1284.82 1323.82 1284.97 1324.02 Q1285.11 1324.22 1285.11 1325.13 L1285.11 1353.51 Q1285.11 1355.02 1285.85 1355.49 Q1286.6 1355.96 1289.83 1355.96 L1291.44 1355.96 L1291.44 1357.52 Q1289.66 1357.37 1283.24 1357.37 Q1276.81 1357.37 1275.06 1357.52 L1275.06 1355.96 L1276.66 1355.96 Q1279.85 1355.96 1280.62 1355.52 Q1281.38 1355.05 1281.38 1353.51 L1281.38 1327.3 Q1278.74 1328.64 1274.74 1328.64 Z" fill="#000000" fill-rule="nonzero" fill-opacity="1" /><path clip-path="url(#clip470)" d="M1297.51 1341.34 Q1297.51 1333.9 1299.39 1329.85 Q1302.01 1323.82 1308.19 1323.82 Q1309.5 1323.82 1310.85 1324.19 Q1312.24 1324.54 1313.97 1325.9 Q1315.72 1327.25 1316.78 1329.48 Q1318.81 1333.78 1318.81 1341.34 Q1318.81 1348.72 1316.93 1352.75 Q1314.19 1358.63 1308.14 1358.63 Q1305.86 1358.63 1303.54 1357.47 Q1301.24 1356.31 1299.79 1353.51 Q1297.51 1349.34 1297.51 1341.34 M1301.71 1340.72 Q1301.71 1348.35 1302.26 1351.39 Q1302.88 1354.68 1304.56 1356.11 Q1306.26 1357.52 1308.14 1357.52 Q1310.16 1357.52 1311.84 1356.01 Q1313.55 1354.48 1314.07 1351.19 Q1314.63 1347.96 1314.61 1340.72 Q1314.61 1333.68 1314.12 1330.86 Q1313.45 1327.58 1311.67 1326.27 Q1309.92 1324.93 1308.14 1324.93 Q1307.47 1324.93 1306.75 1325.13 Q1306.06 1325.33 1305.05 1325.9 Q1304.04 1326.46 1303.25 1327.87 Q1302.48 1329.28 1302.11 1331.41 Q1301.71 1334.15 1301.71 1340.72 Z" fill="#000000" fill-rule="nonzero" fill-opacity="1" /><path clip-path="url(#clip470)" d="M1345.95 1319.25 Q1346.19 1319.49 1346.19 1319.83 Q1346.19 1320.17 1345.95 1320.41 Q1345.7 1320.65 1345.36 1320.65 L1319.63 1320.65 Q1319.29 1320.65 1319.05 1320.41 Q1318.81 1320.17 1318.81 1319.83 Q1318.81 1319.49 1319.05 1319.25 Q1319.29 1319.01 1319.63 1319.01 L1345.36 1319.01 Q1345.7 1319.01 1345.95 1319.25 Z" fill="#000000" fill-rule="nonzero" fill-opacity="1" /><path clip-path="url(#clip470)" d="M1352.13 1306.64 L1352.13 1305.36 Q1357.07 1305.36 1359.61 1302.73 Q1360.32 1302.73 1360.44 1302.89 Q1360.56 1303.05 1360.56 1303.79 L1360.56 1326.85 Q1360.56 1328.08 1361.16 1328.46 Q1361.76 1328.84 1364.39 1328.84 L1365.7 1328.84 L1365.7 1330.11 Q1364.25 1329.99 1359.03 1329.99 Q1353.81 1329.99 1352.39 1330.11 L1352.39 1328.84 L1353.69 1328.84 Q1356.28 1328.84 1356.9 1328.48 Q1357.53 1328.1 1357.53 1326.85 L1357.53 1305.56 Q1355.38 1306.64 1352.13 1306.64 Z" fill="#000000" fill-rule="nonzero" fill-opacity="1" /><path clip-path="url(#clip470)" d="M1370.63 1316.96 Q1370.63 1310.92 1372.16 1307.63 Q1374.29 1302.73 1379.3 1302.73 Q1380.37 1302.73 1381.47 1303.03 Q1382.6 1303.31 1384 1304.41 Q1385.43 1305.52 1386.29 1307.32 Q1387.94 1310.82 1387.94 1316.96 Q1387.94 1322.96 1386.41 1326.23 Q1384.18 1331.01 1379.26 1331.01 Q1377.42 1331.01 1375.53 1330.07 Q1373.66 1329.12 1372.48 1326.85 Q1370.63 1323.46 1370.63 1316.96 M1374.05 1316.46 Q1374.05 1322.66 1374.49 1325.13 Q1374.99 1327.8 1376.35 1328.96 Q1377.74 1330.11 1379.26 1330.11 Q1380.91 1330.11 1382.27 1328.88 Q1383.66 1327.64 1384.08 1324.97 Q1384.54 1322.34 1384.52 1316.46 Q1384.52 1310.74 1384.12 1308.45 Q1383.58 1305.78 1382.13 1304.72 Q1380.71 1303.63 1379.26 1303.63 Q1378.72 1303.63 1378.14 1303.79 Q1377.58 1303.95 1376.76 1304.41 Q1375.93 1304.88 1375.29 1306.02 Q1374.67 1307.16 1374.37 1308.89 Q1374.05 1311.12 1374.05 1316.46 Z" fill="#000000" fill-rule="nonzero" fill-opacity="1" /><path clip-path="url(#clip470)" d="M1583.11 1328.64 L1583.11 1327.06 Q1589.19 1327.06 1592.33 1323.82 Q1593.19 1323.82 1593.34 1324.02 Q1593.49 1324.22 1593.49 1325.13 L1593.49 1353.51 Q1593.49 1355.02 1594.23 1355.49 Q1594.97 1355.96 1598.21 1355.96 L1599.81 1355.96 L1599.81 1357.52 Q1598.03 1357.37 1591.61 1357.37 Q1585.19 1357.37 1583.43 1357.52 L1583.43 1355.96 L1585.04 1355.96 Q1588.22 1355.96 1588.99 1355.52 Q1589.76 1355.05 1589.76 1353.51 L1589.76 1327.3 Q1587.11 1328.64 1583.11 1328.64 Z" fill="#000000" fill-rule="nonzero" fill-opacity="1" /><path clip-path="url(#clip470)" d="M1605.89 1341.34 Q1605.89 1333.9 1607.77 1329.85 Q1610.38 1323.82 1616.56 1323.82 Q1617.87 1323.82 1619.23 1324.19 Q1620.61 1324.54 1622.34 1325.9 Q1624.09 1327.25 1625.16 1329.48 Q1627.18 1333.78 1627.18 1341.34 Q1627.18 1348.72 1625.3 1352.75 Q1622.56 1358.63 1616.51 1358.63 Q1614.24 1358.63 1611.92 1357.47 Q1609.62 1356.31 1608.16 1353.51 Q1605.89 1349.34 1605.89 1341.34 M1610.09 1340.72 Q1610.09 1348.35 1610.63 1351.39 Q1611.25 1354.68 1612.93 1356.11 Q1614.63 1357.52 1616.51 1357.52 Q1618.54 1357.52 1620.22 1356.01 Q1621.92 1354.48 1622.44 1351.19 Q1623.01 1347.96 1622.98 1340.72 Q1622.98 1333.68 1622.49 1330.86 Q1621.82 1327.58 1620.04 1326.27 Q1618.29 1324.93 1616.51 1324.93 Q1615.84 1324.93 1615.13 1325.13 Q1614.44 1325.33 1613.42 1325.9 Q1612.41 1326.46 1611.62 1327.87 Q1610.85 1329.28 1610.48 1331.41 Q1610.09 1334.15 1610.09 1340.72 Z" fill="#000000" fill-rule="nonzero" fill-opacity="1" /><path clip-path="url(#clip470)" d="M1654.32 1319.25 Q1654.56 1319.49 1654.56 1319.83 Q1654.56 1320.17 1654.32 1320.41 Q1654.08 1320.65 1653.74 1320.65 L1628.01 1320.65 Q1627.66 1320.65 1627.42 1320.41 Q1627.18 1320.17 1627.18 1319.83 Q1627.18 1319.49 1627.42 1319.25 Q1627.66 1319.01 1628.01 1319.01 L1653.74 1319.01 Q1654.08 1319.01 1654.32 1319.25 Z" fill="#000000" fill-rule="nonzero" fill-opacity="1" /><path clip-path="url(#clip470)" d="M1658.57 1311.98 Q1658.57 1309.79 1659.22 1308.31 Q1659.86 1306.8 1661.2 1305.32 Q1663.67 1302.73 1667.24 1302.73 Q1668.77 1302.73 1670.11 1303.37 Q1671.48 1304.01 1672.76 1305.48 Q1674.07 1306.92 1674.85 1309.79 Q1675.63 1312.64 1675.63 1316.58 Q1675.63 1322.94 1672.54 1326.97 Q1669.47 1331.01 1665.32 1331.01 Q1662.69 1331.01 1661.14 1329.83 Q1659.6 1328.62 1659.6 1326.57 Q1659.6 1325.51 1660.2 1325.07 Q1660.8 1324.61 1661.48 1324.61 Q1662.23 1324.61 1662.81 1325.11 Q1663.39 1325.59 1663.39 1326.49 Q1663.39 1327.24 1662.91 1327.82 Q1662.45 1328.38 1661.24 1328.38 Q1662.43 1329.87 1665.28 1329.87 Q1666.3 1329.87 1667.33 1329.4 Q1668.35 1328.92 1669.45 1327.78 Q1670.58 1326.61 1671.26 1324.19 Q1671.94 1321.76 1671.94 1318.34 L1671.94 1317.04 Q1670.3 1321.15 1666.8 1321.15 Q1663.35 1321.15 1660.96 1318.5 Q1658.57 1315.86 1658.57 1311.98 M1662.27 1312.02 Q1662.27 1316.1 1663.01 1317.6 Q1664.27 1320.19 1666.84 1320.19 Q1669.35 1320.19 1670.6 1317.96 Q1671.86 1315.71 1671.86 1312.8 Q1671.86 1308.77 1671.2 1307 Q1669.97 1303.75 1667.24 1303.75 Q1664.54 1303.75 1663.13 1306.34 Q1662.27 1307.87 1662.27 1312.02 Z" fill="#000000" fill-rule="nonzero" fill-opacity="1" /><path clip-path="url(#clip470)" d="M970.225 1447.26 L970.225 1444.92 L972.041 1444.92 Q976.154 1444.92 977.08 1444.26 Q978.044 1443.55 978.044 1441.33 L978.044 1401.57 Q978.044 1399.38 977.08 1398.72 Q976.117 1398.01 972.041 1398.01 L970.225 1398.01 L970.225 1395.64 L1012.95 1395.64 L1015.06 1412.72 L1013.17 1412.72 Q1012.65 1408.39 1011.95 1405.9 Q1011.28 1403.38 1009.61 1401.46 Q1007.98 1399.53 1005.28 1398.79 Q1002.61 1398.01 998.276 1398.01 L988.493 1398.01 Q985.899 1398.01 985.344 1398.57 Q984.788 1399.09 984.788 1401.05 L984.788 1419.24 L991.606 1419.24 Q996.831 1419.24 998.313 1417.43 Q999.795 1415.61 999.795 1410.39 L1001.72 1410.39 L1001.72 1430.47 L999.795 1430.47 Q999.795 1425.32 998.313 1423.47 Q996.831 1421.62 991.606 1421.62 L984.788 1421.62 L984.788 1441.88 Q984.788 1443.85 985.344 1444.4 Q985.937 1444.92 988.493 1444.92 L998.609 1444.92 Q1001.87 1444.92 1004.24 1444.52 Q1006.65 1444.07 1008.32 1443.03 Q1009.99 1441.96 1011.1 1440.74 Q1012.25 1439.51 1013.02 1437.33 Q1013.84 1435.1 1014.28 1433.07 Q1014.77 1431.03 1015.28 1427.69 L1017.17 1427.69 L1013.99 1447.26 L970.225 1447.26 Z" fill="#000000" fill-rule="nonzero" fill-opacity="1" /><path clip-path="url(#clip470)" d="M1021.4 1447.26 L1021.4 1444.92 Q1025.44 1444.92 1026.36 1444.44 Q1027.33 1443.92 1027.33 1441.48 L1027.33 1421.13 Q1027.33 1418.32 1026.33 1417.61 Q1025.36 1416.91 1021.4 1416.91 L1021.4 1414.54 L1031.96 1413.72 L1031.96 1422.06 Q1033.03 1418.8 1035.29 1416.28 Q1037.59 1413.72 1041.3 1413.72 Q1043.74 1413.72 1045.3 1415.09 Q1046.89 1416.46 1046.89 1418.35 Q1046.89 1420.02 1045.85 1420.87 Q1044.85 1421.69 1043.63 1421.69 Q1042.26 1421.69 1041.3 1420.84 Q1040.37 1419.95 1040.37 1418.43 Q1040.37 1417.5 1040.78 1416.8 Q1041.22 1416.06 1041.56 1415.8 Q1041.89 1415.54 1042.11 1415.46 Q1041.96 1415.39 1041.3 1415.39 Q1037.11 1415.39 1034.7 1419.58 Q1032.33 1423.73 1032.33 1429.66 L1032.33 1441.33 Q1032.33 1443.51 1033.22 1444.22 Q1034.15 1444.92 1038.11 1444.92 L1039.7 1444.92 L1039.7 1447.26 Q1036.66 1447.03 1030.07 1447.03 Q1029.14 1447.03 1027.7 1447.07 Q1026.25 1447.11 1024.36 1447.18 Q1022.47 1447.26 1021.4 1447.26 Z" fill="#000000" fill-rule="nonzero" fill-opacity="1" /><path clip-path="url(#clip470)" d="M1051.04 1447.26 L1051.04 1444.92 Q1055.08 1444.92 1056.01 1444.44 Q1056.97 1443.92 1056.97 1441.48 L1056.97 1421.13 Q1056.97 1418.32 1055.97 1417.61 Q1055.01 1416.91 1051.04 1416.91 L1051.04 1414.54 L1061.6 1413.72 L1061.6 1422.06 Q1062.68 1418.8 1064.94 1416.28 Q1067.24 1413.72 1070.94 1413.72 Q1073.39 1413.72 1074.94 1415.09 Q1076.54 1416.46 1076.54 1418.35 Q1076.54 1420.02 1075.5 1420.87 Q1074.5 1421.69 1073.28 1421.69 Q1071.9 1421.69 1070.94 1420.84 Q1070.01 1419.95 1070.01 1418.43 Q1070.01 1417.5 1070.42 1416.8 Q1070.87 1416.06 1071.2 1415.8 Q1071.53 1415.54 1071.76 1415.46 Q1071.61 1415.39 1070.94 1415.39 Q1066.75 1415.39 1064.34 1419.58 Q1061.97 1423.73 1061.97 1429.66 L1061.97 1441.33 Q1061.97 1443.51 1062.86 1444.22 Q1063.79 1444.92 1067.75 1444.92 L1069.35 1444.92 L1069.35 1447.26 Q1066.31 1447.03 1059.71 1447.03 Q1058.79 1447.03 1057.34 1447.07 Q1055.9 1447.11 1054.01 1447.18 Q1052.12 1447.26 1051.04 1447.26 Z" fill="#000000" fill-rule="nonzero" fill-opacity="1" /><path clip-path="url(#clip470)" d="M1085.69 1443.18 Q1080.69 1438.22 1080.69 1431.03 Q1080.69 1423.8 1085.58 1418.54 Q1090.51 1413.24 1097.55 1413.24 Q1104.44 1413.24 1109.37 1418.5 Q1114.33 1423.73 1114.33 1431.03 Q1114.33 1438.18 1109.33 1443.14 Q1104.36 1448.11 1097.47 1448.11 Q1090.73 1448.11 1085.69 1443.18 M1086.99 1430.4 Q1086.99 1437.77 1088.91 1441.11 Q1091.88 1446.18 1097.55 1446.18 Q1100.36 1446.18 1102.7 1444.66 Q1105.07 1443.14 1106.37 1440.59 Q1108.03 1437.25 1108.03 1430.4 Q1108.03 1423.1 1106.03 1419.87 Q1103.07 1414.95 1097.47 1414.95 Q1095.03 1414.95 1092.62 1416.24 Q1090.25 1417.5 1088.8 1420.02 Q1086.99 1423.36 1086.99 1430.4 Z" fill="#000000" fill-rule="nonzero" fill-opacity="1" /><path clip-path="url(#clip470)" d="M1118.63 1447.26 L1118.63 1444.92 Q1122.67 1444.92 1123.6 1444.44 Q1124.56 1443.92 1124.56 1441.48 L1124.56 1421.13 Q1124.56 1418.32 1123.56 1417.61 Q1122.6 1416.91 1118.63 1416.91 L1118.63 1414.54 L1129.19 1413.72 L1129.19 1422.06 Q1130.27 1418.8 1132.53 1416.28 Q1134.82 1413.72 1138.53 1413.72 Q1140.97 1413.72 1142.53 1415.09 Q1144.12 1416.46 1144.12 1418.35 Q1144.12 1420.02 1143.09 1420.87 Q1142.09 1421.69 1140.86 1421.69 Q1139.49 1421.69 1138.53 1420.84 Q1137.6 1419.95 1137.6 1418.43 Q1137.6 1417.5 1138.01 1416.8 Q1138.46 1416.06 1138.79 1415.8 Q1139.12 1415.54 1139.34 1415.46 Q1139.2 1415.39 1138.53 1415.39 Q1134.34 1415.39 1131.93 1419.58 Q1129.56 1423.73 1129.56 1429.66 L1129.56 1441.33 Q1129.56 1443.51 1130.45 1444.22 Q1131.38 1444.92 1135.34 1444.92 L1136.94 1444.92 L1136.94 1447.26 Q1133.9 1447.03 1127.3 1447.03 Q1126.38 1447.03 1124.93 1447.07 Q1123.48 1447.11 1121.6 1447.18 Q1119.71 1447.26 1118.63 1447.26 Z" fill="#000000" fill-rule="nonzero" fill-opacity="1" /><polyline clip-path="url(#clip472)" style="stroke:#000000; stroke-linecap:round; stroke-linejoin:round; stroke-width:2.8; stroke-opacity:0.4; fill:none" points="278.238,1134.85 1836.11,1134.85 "/>
<polyline clip-path="url(#clip472)" style="stroke:#000000; stroke-linecap:round; stroke-linejoin:round; stroke-width:2.8; stroke-opacity:0.4; fill:none" points="278.238,700.507 1836.11,700.507 "/>
<polyline clip-path="url(#clip472)" style="stroke:#000000; stroke-linecap:round; stroke-linejoin:round; stroke-width:2.8; stroke-opacity:0.4; fill:none" points="278.238,266.161 1836.11,266.161 "/>
<polyline clip-path="url(#clip470)" style="stroke:#000000; stroke-linecap:round; stroke-linejoin:round; stroke-width:4; stroke-opacity:1; fill:none" points="278.238,1280.22 278.238,47.2441 "/>
<polyline clip-path="url(#clip470)" style="stroke:#000000; stroke-linecap:round; stroke-linejoin:round; stroke-width:4; stroke-opacity:1; fill:none" points="1836.11,1280.22 1836.11,47.2441 "/>
<polyline clip-path="url(#clip470)" style="stroke:#000000; stroke-linecap:round; stroke-linejoin:round; stroke-width:4; stroke-opacity:1; fill:none" points="278.238,1134.85 293.118,1134.85 "/>
<polyline clip-path="url(#clip470)" style="stroke:#000000; stroke-linecap:round; stroke-linejoin:round; stroke-width:4; stroke-opacity:1; fill:none" points="278.238,700.507 293.118,700.507 "/>
<polyline clip-path="url(#clip470)" style="stroke:#000000; stroke-linecap:round; stroke-linejoin:round; stroke-width:4; stroke-opacity:1; fill:none" points="278.238,266.161 293.118,266.161 "/>
<path clip-path="url(#clip470)" d="M119.06 1129.7 L119.06 1128.12 Q125.137 1128.12 128.275 1124.88 Q129.139 1124.88 129.287 1125.08 Q129.436 1125.28 129.436 1126.19 L129.436 1154.58 Q129.436 1156.08 130.177 1156.55 Q130.918 1157.02 134.154 1157.02 L135.76 1157.02 L135.76 1158.58 Q133.981 1158.43 127.558 1158.43 Q121.135 1158.43 119.381 1158.58 L119.381 1157.02 L120.987 1157.02 Q124.174 1157.02 124.94 1156.58 Q125.705 1156.11 125.705 1154.58 L125.705 1128.37 Q123.062 1129.7 119.06 1129.7 Z" fill="#000000" fill-rule="nonzero" fill-opacity="1" /><path clip-path="url(#clip470)" d="M141.837 1142.4 Q141.837 1134.96 143.714 1130.91 Q146.333 1124.88 152.509 1124.88 Q153.818 1124.88 155.176 1125.26 Q156.56 1125.6 158.289 1126.96 Q160.043 1128.32 161.105 1130.54 Q163.131 1134.84 163.131 1142.4 Q163.131 1149.79 161.253 1153.81 Q158.511 1159.69 152.459 1159.69 Q150.186 1159.69 147.864 1158.53 Q145.567 1157.37 144.109 1154.58 Q141.837 1150.4 141.837 1142.4 M146.036 1141.78 Q146.036 1149.42 146.58 1152.45 Q147.197 1155.74 148.877 1157.17 Q150.582 1158.58 152.459 1158.58 Q154.485 1158.58 156.165 1157.07 Q157.869 1155.54 158.388 1152.26 Q158.956 1149.02 158.931 1141.78 Q158.931 1134.74 158.437 1131.93 Q157.77 1128.64 155.992 1127.33 Q154.238 1126 152.459 1126 Q151.792 1126 151.076 1126.19 Q150.384 1126.39 149.371 1126.96 Q148.358 1127.53 147.568 1128.94 Q146.802 1130.34 146.431 1132.47 Q146.036 1135.21 146.036 1141.78 Z" fill="#000000" fill-rule="nonzero" fill-opacity="1" /><path clip-path="url(#clip470)" d="M190.268 1120.31 Q190.508 1120.55 190.508 1120.89 Q190.508 1121.23 190.268 1121.48 Q190.027 1121.72 189.686 1121.72 L163.954 1121.72 Q163.613 1121.72 163.372 1121.48 Q163.131 1121.23 163.131 1120.89 Q163.131 1120.55 163.372 1120.31 Q163.613 1120.07 163.954 1120.07 L189.686 1120.07 Q190.027 1120.07 190.268 1120.31 Z" fill="#000000" fill-rule="nonzero" fill-opacity="1" /><path clip-path="url(#clip470)" d="M194.844 1131.17 Q194.844 1130.43 194.904 1130.21 Q194.984 1129.99 195.306 1129.64 L203.194 1120.85 Q207.509 1116 207.509 1111.76 Q207.509 1109.01 206.064 1107.04 Q204.639 1105.08 202.009 1105.08 Q200.203 1105.08 198.678 1106.18 Q197.152 1107.28 196.45 1109.25 Q196.57 1109.21 196.992 1109.21 Q198.015 1109.21 198.577 1109.85 Q199.159 1110.5 199.159 1111.36 Q199.159 1112.46 198.437 1113 Q197.734 1113.53 197.032 1113.53 Q196.751 1113.53 196.369 1113.47 Q196.008 1113.41 195.426 1112.84 Q194.844 1112.26 194.844 1111.24 Q194.844 1108.37 197.012 1106.08 Q199.199 1103.79 202.531 1103.79 Q206.305 1103.79 208.773 1106.04 Q211.262 1108.27 211.262 1111.76 Q211.262 1112.98 210.881 1114.11 Q210.52 1115.21 210.018 1116.08 Q209.536 1116.94 208.211 1118.32 Q206.887 1119.71 205.823 1120.69 Q204.759 1121.68 202.371 1123.76 L198.015 1128 L205.422 1128 Q209.034 1128 209.315 1127.68 Q209.717 1127.1 210.219 1124.02 L211.262 1124.02 L210.098 1131.17 L194.844 1131.17 Z" fill="#000000" fill-rule="nonzero" fill-opacity="1" /><path clip-path="url(#clip470)" d="M217.464 1130.51 Q216.842 1129.84 216.842 1128.98 Q216.842 1128.12 217.464 1127.5 Q218.087 1126.85 219.03 1126.85 Q219.933 1126.85 220.535 1127.46 Q221.158 1128.04 221.158 1129 Q221.158 1129.95 220.495 1130.57 Q219.853 1131.17 219.03 1131.17 Q218.087 1131.17 217.464 1130.51 Z" fill="#000000" fill-rule="nonzero" fill-opacity="1" /><path clip-path="url(#clip470)" d="M226.376 1118.02 Q226.376 1111.98 227.902 1108.69 Q230.029 1103.79 235.047 1103.79 Q236.111 1103.79 237.215 1104.09 Q238.339 1104.37 239.744 1105.48 Q241.169 1106.58 242.032 1108.39 Q243.678 1111.88 243.678 1118.02 Q243.678 1124.02 242.152 1127.3 Q239.924 1132.07 235.007 1132.07 Q233.16 1132.07 231.274 1131.13 Q229.407 1130.19 228.223 1127.92 Q226.376 1124.53 226.376 1118.02 M229.788 1117.52 Q229.788 1123.72 230.23 1126.19 Q230.732 1128.86 232.097 1130.03 Q233.481 1131.17 235.007 1131.17 Q236.653 1131.17 238.018 1129.95 Q239.403 1128.7 239.824 1126.03 Q240.286 1123.4 240.266 1117.52 Q240.266 1111.8 239.864 1109.51 Q239.322 1106.84 237.877 1105.78 Q236.452 1104.7 235.007 1104.7 Q234.465 1104.7 233.883 1104.86 Q233.321 1105.02 232.498 1105.48 Q231.675 1105.94 231.033 1107.08 Q230.411 1108.23 230.109 1109.95 Q229.788 1112.18 229.788 1117.52 Z" fill="#000000" fill-rule="nonzero" fill-opacity="1" /><path clip-path="url(#clip470)" d="M119.502 695.356 L119.502 693.775 Q125.579 693.775 128.716 690.539 Q129.581 690.539 129.729 690.736 Q129.877 690.934 129.877 691.848 L129.877 720.232 Q129.877 721.739 130.618 722.209 Q131.359 722.678 134.595 722.678 L136.201 722.678 L136.201 724.234 Q134.423 724.086 128 724.086 Q121.577 724.086 119.823 724.234 L119.823 722.678 L121.429 722.678 Q124.615 722.678 125.381 722.233 Q126.147 721.764 126.147 720.232 L126.147 694.022 Q123.504 695.356 119.502 695.356 Z" fill="#000000" fill-rule="nonzero" fill-opacity="1" /><path clip-path="url(#clip470)" d="M142.278 708.054 Q142.278 700.618 144.156 696.566 Q146.774 690.539 152.95 690.539 Q154.259 690.539 155.618 690.909 Q157.001 691.255 158.731 692.614 Q160.485 693.973 161.547 696.196 Q163.573 700.494 163.573 708.054 Q163.573 715.44 161.695 719.466 Q158.953 725.346 152.901 725.346 Q150.628 725.346 148.306 724.185 Q146.008 723.024 144.551 720.232 Q142.278 716.057 142.278 708.054 M146.478 707.436 Q146.478 715.069 147.021 718.108 Q147.639 721.393 149.319 722.826 Q151.023 724.234 152.901 724.234 Q154.926 724.234 156.606 722.727 Q158.311 721.196 158.829 717.91 Q159.398 714.674 159.373 707.436 Q159.373 700.396 158.879 697.579 Q158.212 694.294 156.433 692.984 Q154.679 691.651 152.901 691.651 Q152.234 691.651 151.517 691.848 Q150.826 692.046 149.813 692.614 Q148.8 693.182 148.009 694.59 Q147.244 695.998 146.873 698.123 Q146.478 700.865 146.478 707.436 Z" fill="#000000" fill-rule="nonzero" fill-opacity="1" /><path clip-path="url(#clip470)" d="M190.709 685.965 Q190.95 686.206 190.95 686.547 Q190.95 686.888 190.709 687.129 Q190.468 687.37 190.127 687.37 L164.395 687.37 Q164.054 687.37 163.813 687.129 Q163.573 686.888 163.573 686.547 Q163.573 686.206 163.813 685.965 Q164.054 685.724 164.395 685.724 L190.127 685.724 Q190.468 685.724 190.709 685.965 Z" fill="#000000" fill-rule="nonzero" fill-opacity="1" /><path clip-path="url(#clip470)" d="M196.891 673.36 L196.891 672.076 Q201.829 672.076 204.378 669.446 Q205.08 669.446 205.201 669.607 Q205.321 669.767 205.321 670.51 L205.321 693.572 Q205.321 694.797 205.923 695.178 Q206.525 695.559 209.155 695.559 L210.459 695.559 L210.459 696.824 Q209.014 696.703 203.796 696.703 Q198.577 696.703 197.152 696.824 L197.152 695.559 L198.457 695.559 Q201.046 695.559 201.668 695.198 Q202.29 694.817 202.29 693.572 L202.29 672.276 Q200.143 673.36 196.891 673.36 Z" fill="#000000" fill-rule="nonzero" fill-opacity="1" /><path clip-path="url(#clip470)" d="M217.906 696.161 Q217.284 695.499 217.284 694.636 Q217.284 693.773 217.906 693.151 Q218.528 692.508 219.472 692.508 Q220.375 692.508 220.977 693.111 Q221.599 693.693 221.599 694.656 Q221.599 695.599 220.937 696.222 Q220.295 696.824 219.472 696.824 Q218.528 696.824 217.906 696.161 Z" fill="#000000" fill-rule="nonzero" fill-opacity="1" /><path clip-path="url(#clip470)" d="M227.259 690.2 Q227.259 688.976 227.922 688.514 Q228.584 688.033 229.287 688.033 Q230.23 688.033 230.772 688.635 Q231.334 689.217 231.334 690.04 Q231.334 690.863 230.772 691.465 Q230.23 692.047 229.287 692.047 Q228.825 692.047 228.584 691.967 Q229.126 693.853 230.772 695.218 Q232.438 696.583 234.626 696.583 Q237.375 696.583 239.021 693.913 Q240.005 692.187 240.005 688.273 Q240.005 684.821 239.262 683.095 Q238.118 680.466 235.77 680.466 Q232.438 680.466 230.471 683.336 Q230.23 683.697 229.949 683.717 Q229.547 683.717 229.447 683.496 Q229.367 683.256 229.367 682.633 L229.367 670.47 Q229.367 669.486 229.768 669.486 Q229.929 669.486 230.27 669.607 Q232.859 670.751 235.729 670.771 Q238.68 670.771 241.329 669.567 Q241.53 669.446 241.651 669.446 Q242.052 669.446 242.072 669.908 Q242.072 670.069 241.731 670.55 Q241.41 671.012 240.707 671.634 Q240.005 672.236 239.102 672.818 Q238.198 673.4 236.874 673.802 Q235.569 674.183 234.124 674.183 Q232.398 674.183 230.631 673.641 L230.631 681.65 Q232.759 679.562 235.85 679.562 Q239.142 679.562 241.41 682.212 Q243.678 684.861 243.678 688.554 Q243.678 692.428 240.988 695.078 Q238.319 697.727 234.706 697.727 Q231.414 697.727 229.327 695.379 Q227.259 693.03 227.259 690.2 Z" fill="#000000" fill-rule="nonzero" fill-opacity="1" /><path clip-path="url(#clip470)" d="M119.06 261.01 L119.06 259.429 Q125.137 259.429 128.275 256.193 Q129.139 256.193 129.287 256.391 Q129.436 256.588 129.436 257.502 L129.436 285.887 Q129.436 287.393 130.177 287.863 Q130.918 288.332 134.154 288.332 L135.76 288.332 L135.76 289.888 Q133.981 289.74 127.558 289.74 Q121.135 289.74 119.381 289.888 L119.381 288.332 L120.987 288.332 Q124.174 288.332 124.94 287.888 Q125.705 287.418 125.705 285.887 L125.705 259.676 Q123.062 261.01 119.06 261.01 Z" fill="#000000" fill-rule="nonzero" fill-opacity="1" /><path clip-path="url(#clip470)" d="M141.837 273.708 Q141.837 266.272 143.714 262.221 Q146.333 256.193 152.509 256.193 Q153.818 256.193 155.176 256.564 Q156.56 256.909 158.289 258.268 Q160.043 259.627 161.105 261.85 Q163.131 266.149 163.131 273.708 Q163.131 281.094 161.253 285.121 Q158.511 291 152.459 291 Q150.186 291 147.864 289.839 Q145.567 288.678 144.109 285.887 Q141.837 281.712 141.837 273.708 M146.036 273.09 Q146.036 280.724 146.58 283.762 Q147.197 287.048 148.877 288.48 Q150.582 289.888 152.459 289.888 Q154.485 289.888 156.165 288.382 Q157.869 286.85 158.388 283.564 Q158.956 280.328 158.931 273.09 Q158.931 266.05 158.437 263.234 Q157.77 259.948 155.992 258.639 Q154.238 257.305 152.459 257.305 Q151.792 257.305 151.076 257.502 Q150.384 257.7 149.371 258.268 Q148.358 258.836 147.568 260.244 Q146.802 261.653 146.431 263.777 Q146.036 266.519 146.036 273.09 Z" fill="#000000" fill-rule="nonzero" fill-opacity="1" /><path clip-path="url(#clip470)" d="M190.268 251.619 Q190.508 251.86 190.508 252.201 Q190.508 252.543 190.268 252.784 Q190.027 253.024 189.686 253.024 L163.954 253.024 Q163.613 253.024 163.372 252.784 Q163.131 252.543 163.131 252.201 Q163.131 251.86 163.372 251.619 Q163.613 251.379 163.954 251.379 L189.686 251.379 Q190.027 251.379 190.268 251.619 Z" fill="#000000" fill-rule="nonzero" fill-opacity="1" /><path clip-path="url(#clip470)" d="M196.45 239.015 L196.45 237.73 Q201.387 237.73 203.936 235.101 Q204.639 235.101 204.759 235.261 Q204.88 235.422 204.88 236.164 L204.88 259.226 Q204.88 260.451 205.482 260.832 Q206.084 261.214 208.713 261.214 L210.018 261.214 L210.018 262.478 Q208.573 262.358 203.354 262.358 Q198.136 262.358 196.711 262.478 L196.711 261.214 L198.015 261.214 Q200.604 261.214 201.227 260.852 Q201.849 260.471 201.849 259.226 L201.849 237.931 Q199.701 239.015 196.45 239.015 Z" fill="#000000" fill-rule="nonzero" fill-opacity="1" /><path clip-path="url(#clip470)" d="M217.464 261.816 Q216.842 261.153 216.842 260.29 Q216.842 259.427 217.464 258.805 Q218.087 258.163 219.03 258.163 Q219.933 258.163 220.535 258.765 Q221.158 259.347 221.158 260.31 Q221.158 261.254 220.495 261.876 Q219.853 262.478 219.03 262.478 Q218.087 262.478 217.464 261.816 Z" fill="#000000" fill-rule="nonzero" fill-opacity="1" /><path clip-path="url(#clip470)" d="M226.376 249.331 Q226.376 243.29 227.902 239.998 Q230.029 235.101 235.047 235.101 Q236.111 235.101 237.215 235.402 Q238.339 235.683 239.744 236.787 Q241.169 237.891 242.032 239.697 Q243.678 243.189 243.678 249.331 Q243.678 255.333 242.152 258.604 Q239.924 263.381 235.007 263.381 Q233.16 263.381 231.274 262.438 Q229.407 261.495 228.223 259.226 Q226.376 255.834 226.376 249.331 M229.788 248.829 Q229.788 255.032 230.23 257.5 Q230.732 260.17 232.097 261.334 Q233.481 262.478 235.007 262.478 Q236.653 262.478 238.018 261.254 Q239.403 260.009 239.824 257.34 Q240.286 254.71 240.266 248.829 Q240.266 243.109 239.864 240.821 Q239.322 238.151 237.877 237.088 Q236.452 236.004 235.007 236.004 Q234.465 236.004 233.883 236.164 Q233.321 236.325 232.498 236.787 Q231.675 237.248 231.033 238.392 Q230.411 239.536 230.109 241.263 Q229.788 243.49 229.788 248.829 Z" fill="#000000" fill-rule="nonzero" fill-opacity="1" /><path clip-path="url(#clip470)" d="M34.6352 801.913 L17.5899 800.467 L17.5899 754.112 L34.6352 752.666 L34.6352 754.556 Q31.2261 754.853 29.2622 755.149 Q27.2983 755.408 25.4455 756.075 Q23.5557 756.705 22.6664 757.521 Q21.74 758.299 21.036 759.818 Q20.2949 761.337 20.1096 763.301 Q19.9243 765.265 19.9243 768.23 Q19.9243 771.713 20.0726 772.565 Q20.2949 773.491 20.9619 773.714 Q21.5918 773.936 22.9629 773.936 L62.9452 773.936 Q64.4645 773.936 65.0944 773.64 Q65.6873 773.306 66.169 771.564 Q66.6137 769.823 66.6137 765.969 L66.6137 762.931 L68.9482 762.931 Q68.7258 766.043 68.7258 777.345 Q68.7258 788.573 68.9482 791.685 L66.6137 791.685 L66.6137 788.647 Q66.6137 784.793 66.169 783.052 Q65.6873 781.273 65.0944 780.976 Q64.4645 780.68 62.9452 780.68 L22.9629 780.68 Q21.8883 780.68 21.4436 780.754 Q20.9989 780.828 20.6284 781.162 Q20.2208 781.495 20.0726 782.273 Q19.9243 783.014 19.9243 786.349 Q19.9243 789.314 20.1096 791.315 Q20.2949 793.279 21.036 794.798 Q21.74 796.317 22.6664 797.132 Q23.5557 797.911 25.4455 798.578 Q27.2983 799.208 29.2622 799.467 Q31.2261 799.726 34.6352 800.023 L34.6352 801.913 Z" fill="#000000" fill-rule="nonzero" fill-opacity="1" /><path clip-path="url(#clip470)" d="M68.9482 747.368 L66.6137 747.368 Q66.6137 743.329 66.132 742.402 Q65.6132 741.476 63.1676 741.476 L42.7502 741.476 Q39.9341 741.476 39.2671 742.439 Q38.6001 743.366 38.6001 747.071 L36.2286 747.071 L35.4133 736.473 L63.2417 736.473 Q65.502 736.473 66.0579 735.658 Q66.6137 734.843 66.6137 731.137 L68.9482 731.137 Q68.7258 738.882 68.7258 739.03 Q68.7258 740.068 68.9482 747.368 M22.1847 744.181 Q20.6654 744.181 19.4426 743.032 Q18.1828 741.846 18.1828 740.179 Q18.1828 738.511 19.3315 737.326 Q20.4431 736.14 22.2218 736.14 Q23.9633 736.14 25.112 737.326 Q26.2237 738.511 26.2237 740.179 Q26.2237 741.92 25.0009 743.069 Q23.7781 744.181 22.1847 744.181 Z" fill="#000000" fill-rule="nonzero" fill-opacity="1" /><path clip-path="url(#clip470)" d="M68.9482 726.431 L66.6137 726.431 Q66.6137 722.392 66.132 721.466 Q65.6132 720.54 63.1676 720.54 L42.8244 720.54 Q40.0082 720.54 39.3041 721.54 Q38.6001 722.504 38.6001 726.431 L36.2286 726.431 L35.4133 715.76 L43.3802 715.76 Q35.4133 712.202 35.4133 704.532 Q35.4133 695.639 42.8244 694.416 Q39.9341 693.119 37.6737 690.414 Q35.4133 687.672 35.4133 683.411 Q35.4133 677.704 38.2295 675.444 Q40.1193 673.776 42.2315 673.443 Q44.3436 673.109 49.8278 673.109 L64.3163 673.109 Q65.9096 673.035 66.2802 671.812 Q66.6137 670.589 66.6137 667.18 L68.9482 667.18 Q68.7258 674.925 68.7258 675.666 Q68.7258 676.259 68.9482 684.263 L66.6137 684.263 Q66.6137 680.224 66.132 679.297 Q65.6132 678.334 63.1676 678.334 L45.4923 678.334 Q41.6386 678.334 39.3782 679.52 Q37.0808 680.706 37.0808 683.966 Q37.0808 687.894 40.3787 691.044 Q43.6766 694.194 49.2349 694.194 L63.1676 694.194 Q65.6132 694.194 66.132 693.267 Q66.6137 692.304 66.6137 688.265 L68.9482 688.265 Q68.7258 696.009 68.7258 696.787 Q68.7258 697.38 68.9482 705.347 L66.6137 705.347 Q66.6137 701.308 66.132 700.382 Q65.6132 699.418 63.1676 699.418 L45.4923 699.418 Q41.6386 699.418 39.3782 700.604 Q37.0808 701.79 37.0808 705.051 Q37.0808 708.979 40.3787 712.128 Q43.6766 715.278 49.2349 715.278 L63.1676 715.278 Q65.6132 715.278 66.132 714.351 Q66.6137 713.388 66.6137 709.386 L68.9482 709.386 Q68.7258 717.131 68.7258 717.872 Q68.7258 718.465 68.9482 726.431 Z" fill="#000000" fill-rule="nonzero" fill-opacity="1" /><path clip-path="url(#clip470)" d="M52.2363 663.586 Q45.0847 663.586 40.0082 658.991 Q34.9316 654.396 34.9316 647.801 Q34.9316 641.131 39.2671 637.685 Q43.6025 634.201 49.8278 634.201 Q50.9765 634.201 51.1988 634.498 Q51.4211 634.794 51.4211 636.091 L51.4211 657.287 Q59.1656 657.287 62.797 654.989 Q67.8736 651.803 67.8736 646.43 Q67.8736 645.689 67.7253 644.799 Q67.5771 643.91 66.9472 642.094 Q66.2802 640.278 64.5386 638.685 Q62.797 637.092 60.0549 636.165 Q58.9804 635.943 59.0174 635.202 Q59.0174 634.201 59.9067 634.201 Q60.5737 634.201 62.093 634.943 Q63.5752 635.647 65.3538 637.018 Q67.1325 638.389 68.4664 641.057 Q69.8004 643.688 69.8004 646.874 Q69.8004 653.544 64.7609 658.584 Q59.6844 663.586 52.2363 663.586 M49.8278 657.213 L49.8278 639.204 Q48.2344 639.204 46.4557 639.5 Q44.6771 639.76 42.2315 640.575 Q39.7488 641.353 38.1925 643.206 Q36.6362 645.059 36.6362 647.801 Q36.6362 649.023 37.1549 650.357 Q37.6737 651.654 38.9336 653.248 Q40.1934 654.841 43.0467 655.953 Q45.8999 657.064 49.8278 657.213 Z" fill="#000000" fill-rule="nonzero" fill-opacity="1" /><path clip-path="url(#clip470)" d="M49.976 599.259 Q37.1549 599.259 26.8166 594.478 Q22.4811 592.44 18.8497 589.587 Q15.2184 586.734 13.625 584.844 Q12.0316 582.954 12.0316 582.436 Q12.0316 581.694 12.7727 581.657 Q13.1433 581.657 14.0696 582.658 Q26.5201 594.886 49.976 594.849 Q73.5059 594.849 85.4747 582.954 Q86.7716 581.657 87.1792 581.657 Q87.9203 581.657 87.9203 582.436 Q87.9203 582.954 86.4011 584.77 Q84.8818 586.586 81.3987 589.402 Q77.9155 592.218 73.6541 594.256 Q63.3158 599.259 49.976 599.259 Z" fill="#000000" fill-rule="nonzero" fill-opacity="1" /><path clip-path="url(#clip470)" d="M67.9477 574.839 L57.9428 574.839 Q57.0905 574.839 56.7941 574.802 Q56.4977 574.765 56.2753 574.543 Q56.053 574.32 56.053 573.876 Q56.053 573.357 56.2753 573.172 Q56.4977 572.949 57.3499 572.801 Q62.5747 571.653 65.3538 569.207 Q68.0959 566.724 68.0959 562.241 Q68.0959 557.979 66.2061 555.83 Q64.3163 553.681 61.2037 553.681 Q55.6454 553.681 54.2373 561.574 Q53.3109 566.131 52.7181 568.021 Q52.0881 569.911 50.7171 571.578 Q48.0491 574.839 44.2695 574.839 Q40.4899 574.839 37.7108 571.986 Q34.9316 569.096 34.9316 562.722 Q34.9316 558.461 37.0808 555.571 Q36.4138 554.718 35.858 554.274 Q34.9316 553.273 34.9316 552.754 Q34.9316 552.162 35.3392 552.05 Q35.7098 551.939 36.7844 551.939 L44.4177 551.939 Q45.27 551.939 45.5664 551.976 Q45.8629 552.013 46.0852 552.236 Q46.2705 552.458 46.2705 552.94 Q46.2705 553.792 45.5664 553.829 Q36.3768 554.422 36.3768 562.722 Q36.3768 567.206 38.1184 569.207 Q39.8229 571.208 42.1574 571.208 Q43.4543 571.208 44.4548 570.615 Q45.4182 569.985 46.0111 569.207 Q46.5669 568.392 47.1227 566.909 Q47.6415 565.427 47.8268 564.538 Q48.0121 563.612 48.3826 561.87 Q49.5313 555.793 52.014 553.236 Q55.2007 550.049 59.2397 550.049 Q63.7234 550.049 66.7619 553.088 Q69.8004 556.126 69.8004 562.241 Q69.8004 567.169 66.5025 570.615 Q66.9472 571.06 67.3548 571.393 Q67.7253 571.727 67.8736 571.875 Q68.0218 571.986 68.1329 572.023 Q68.2071 572.06 68.2812 572.134 Q69.8004 573.654 69.8004 574.024 Q69.8004 574.617 69.3928 574.728 Q69.0223 574.839 67.9477 574.839 Z" fill="#000000" fill-rule="nonzero" fill-opacity="1" /><path clip-path="url(#clip470)" d="M87.1792 543.157 Q86.8087 543.157 85.8823 542.194 Q73.4318 529.966 49.976 529.966 Q26.446 529.966 14.5514 541.712 Q13.1803 543.157 12.7727 543.157 Q12.0316 543.157 12.0316 542.416 Q12.0316 541.897 13.5509 540.082 Q15.0701 538.229 18.5533 535.45 Q22.0365 532.634 26.2978 530.558 Q36.6362 525.556 49.976 525.556 Q62.797 525.556 73.1354 530.336 Q77.4708 532.374 81.1022 535.227 Q84.7336 538.081 86.327 539.97 Q87.9203 541.86 87.9203 542.416 Q87.9203 543.157 87.1792 543.157 Z" fill="#000000" fill-rule="nonzero" fill-opacity="1" /><polyline clip-path="url(#clip472)" style="stroke:#0000ff; stroke-linecap:round; stroke-linejoin:round; stroke-width:12; stroke-opacity:1; fill:none" points="1792.02,946.442 1336.92,732.004 879.898,519.089 460.89,302.524 537.337,82.1398 "/>
<line clip-path="url(#clip472)" x1="1792.02" y1="946.442" x2="1792.02" y2="930.442" style="stroke:#0000ff; stroke-width:12; stroke-opacity:1"/>
<line clip-path="url(#clip472)" x1="1792.02" y1="946.442" x2="1776.02" y2="946.442" style="stroke:#0000ff; stroke-width:12; stroke-opacity:1"/>
<line clip-path="url(#clip472)" x1="1792.02" y1="946.442" x2="1792.02" y2="962.442" style="stroke:#0000ff; stroke-width:12; stroke-opacity:1"/>
<line clip-path="url(#clip472)" x1="1792.02" y1="946.442" x2="1808.02" y2="946.442" style="stroke:#0000ff; stroke-width:12; stroke-opacity:1"/>
<line clip-path="url(#clip472)" x1="1336.92" y1="732.004" x2="1336.92" y2="716.004" style="stroke:#0000ff; stroke-width:12; stroke-opacity:1"/>
<line clip-path="url(#clip472)" x1="1336.92" y1="732.004" x2="1320.92" y2="732.004" style="stroke:#0000ff; stroke-width:12; stroke-opacity:1"/>
<line clip-path="url(#clip472)" x1="1336.92" y1="732.004" x2="1336.92" y2="748.004" style="stroke:#0000ff; stroke-width:12; stroke-opacity:1"/>
<line clip-path="url(#clip472)" x1="1336.92" y1="732.004" x2="1352.92" y2="732.004" style="stroke:#0000ff; stroke-width:12; stroke-opacity:1"/>
<line clip-path="url(#clip472)" x1="879.898" y1="519.089" x2="879.898" y2="503.089" style="stroke:#0000ff; stroke-width:12; stroke-opacity:1"/>
<line clip-path="url(#clip472)" x1="879.898" y1="519.089" x2="863.898" y2="519.089" style="stroke:#0000ff; stroke-width:12; stroke-opacity:1"/>
<line clip-path="url(#clip472)" x1="879.898" y1="519.089" x2="879.898" y2="535.089" style="stroke:#0000ff; stroke-width:12; stroke-opacity:1"/>
<line clip-path="url(#clip472)" x1="879.898" y1="519.089" x2="895.898" y2="519.089" style="stroke:#0000ff; stroke-width:12; stroke-opacity:1"/>
<line clip-path="url(#clip472)" x1="460.89" y1="302.524" x2="460.89" y2="286.524" style="stroke:#0000ff; stroke-width:12; stroke-opacity:1"/>
<line clip-path="url(#clip472)" x1="460.89" y1="302.524" x2="444.89" y2="302.524" style="stroke:#0000ff; stroke-width:12; stroke-opacity:1"/>
<line clip-path="url(#clip472)" x1="460.89" y1="302.524" x2="460.89" y2="318.524" style="stroke:#0000ff; stroke-width:12; stroke-opacity:1"/>
<line clip-path="url(#clip472)" x1="460.89" y1="302.524" x2="476.89" y2="302.524" style="stroke:#0000ff; stroke-width:12; stroke-opacity:1"/>
<line clip-path="url(#clip472)" x1="537.337" y1="82.1398" x2="537.337" y2="66.1398" style="stroke:#0000ff; stroke-width:12; stroke-opacity:1"/>
<line clip-path="url(#clip472)" x1="537.337" y1="82.1398" x2="521.337" y2="82.1398" style="stroke:#0000ff; stroke-width:12; stroke-opacity:1"/>
<line clip-path="url(#clip472)" x1="537.337" y1="82.1398" x2="537.337" y2="98.1398" style="stroke:#0000ff; stroke-width:12; stroke-opacity:1"/>
<line clip-path="url(#clip472)" x1="537.337" y1="82.1398" x2="553.337" y2="82.1398" style="stroke:#0000ff; stroke-width:12; stroke-opacity:1"/>
<polyline clip-path="url(#clip472)" style="stroke:#7f007f; stroke-linecap:round; stroke-linejoin:round; stroke-width:12; stroke-opacity:1; fill:none" points="1537.86,1223.17 1035.76,1058.17 322.329,905.518 533.609,732.295 537.304,562.912 "/>
<circle clip-path="url(#clip472)" cx="1537.86" cy="1223.17" r="14.4" fill="#7f007f" fill-rule="evenodd" fill-opacity="1" stroke="#000000" stroke-opacity="1" stroke-width="1.536"/>
<circle clip-path="url(#clip472)" cx="1035.76" cy="1058.17" r="14.4" fill="#7f007f" fill-rule="evenodd" fill-opacity="1" stroke="#000000" stroke-opacity="1" stroke-width="1.536"/>
<circle clip-path="url(#clip472)" cx="322.329" cy="905.518" r="14.4" fill="#7f007f" fill-rule="evenodd" fill-opacity="1" stroke="#000000" stroke-opacity="1" stroke-width="1.536"/>
<circle clip-path="url(#clip472)" cx="533.609" cy="732.295" r="14.4" fill="#7f007f" fill-rule="evenodd" fill-opacity="1" stroke="#000000" stroke-opacity="1" stroke-width="1.536"/>
<circle clip-path="url(#clip472)" cx="537.304" cy="562.912" r="14.4" fill="#7f007f" fill-rule="evenodd" fill-opacity="1" stroke="#000000" stroke-opacity="1" stroke-width="1.536"/>
<polyline clip-path="url(#clip472)" style="stroke:#ff0000; stroke-linecap:round; stroke-linejoin:round; stroke-width:12; stroke-opacity:1; fill:none" points="1558.11,1245.33 725.991,1201.14 506.199,1064.55 535.344,923.258 537.128,778.006 "/>
<line clip-path="url(#clip472)" x1="1558.11" y1="1245.33" x2="1558.11" y2="1229.33" style="stroke:#ff0000; stroke-width:12; stroke-opacity:1"/>
<line clip-path="url(#clip472)" x1="1558.11" y1="1245.33" x2="1542.11" y2="1245.33" style="stroke:#ff0000; stroke-width:12; stroke-opacity:1"/>
<line clip-path="url(#clip472)" x1="1558.11" y1="1245.33" x2="1558.11" y2="1261.33" style="stroke:#ff0000; stroke-width:12; stroke-opacity:1"/>
<line clip-path="url(#clip472)" x1="1558.11" y1="1245.33" x2="1574.11" y2="1245.33" style="stroke:#ff0000; stroke-width:12; stroke-opacity:1"/>
<line clip-path="url(#clip472)" x1="725.991" y1="1201.14" x2="725.991" y2="1185.14" style="stroke:#ff0000; stroke-width:12; stroke-opacity:1"/>
<line clip-path="url(#clip472)" x1="725.991" y1="1201.14" x2="709.991" y2="1201.14" style="stroke:#ff0000; stroke-width:12; stroke-opacity:1"/>
<line clip-path="url(#clip472)" x1="725.991" y1="1201.14" x2="725.991" y2="1217.14" style="stroke:#ff0000; stroke-width:12; stroke-opacity:1"/>
<line clip-path="url(#clip472)" x1="725.991" y1="1201.14" x2="741.991" y2="1201.14" style="stroke:#ff0000; stroke-width:12; stroke-opacity:1"/>
<line clip-path="url(#clip472)" x1="506.199" y1="1064.55" x2="506.199" y2="1048.55" style="stroke:#ff0000; stroke-width:12; stroke-opacity:1"/>
<line clip-path="url(#clip472)" x1="506.199" y1="1064.55" x2="490.199" y2="1064.55" style="stroke:#ff0000; stroke-width:12; stroke-opacity:1"/>
<line clip-path="url(#clip472)" x1="506.199" y1="1064.55" x2="506.199" y2="1080.55" style="stroke:#ff0000; stroke-width:12; stroke-opacity:1"/>
<line clip-path="url(#clip472)" x1="506.199" y1="1064.55" x2="522.199" y2="1064.55" style="stroke:#ff0000; stroke-width:12; stroke-opacity:1"/>
<line clip-path="url(#clip472)" x1="535.344" y1="923.258" x2="535.344" y2="907.258" style="stroke:#ff0000; stroke-width:12; stroke-opacity:1"/>
<line clip-path="url(#clip472)" x1="535.344" y1="923.258" x2="519.344" y2="923.258" style="stroke:#ff0000; stroke-width:12; stroke-opacity:1"/>
<line clip-path="url(#clip472)" x1="535.344" y1="923.258" x2="535.344" y2="939.258" style="stroke:#ff0000; stroke-width:12; stroke-opacity:1"/>
<line clip-path="url(#clip472)" x1="535.344" y1="923.258" x2="551.344" y2="923.258" style="stroke:#ff0000; stroke-width:12; stroke-opacity:1"/>
<line clip-path="url(#clip472)" x1="537.128" y1="778.006" x2="537.128" y2="762.006" style="stroke:#ff0000; stroke-width:12; stroke-opacity:1"/>
<line clip-path="url(#clip472)" x1="537.128" y1="778.006" x2="521.128" y2="778.006" style="stroke:#ff0000; stroke-width:12; stroke-opacity:1"/>
<line clip-path="url(#clip472)" x1="537.128" y1="778.006" x2="537.128" y2="794.006" style="stroke:#ff0000; stroke-width:12; stroke-opacity:1"/>
<line clip-path="url(#clip472)" x1="537.128" y1="778.006" x2="553.128" y2="778.006" style="stroke:#ff0000; stroke-width:12; stroke-opacity:1"/>
<path clip-path="url(#clip470)" d="M1902.06 295.703 L2256.76 295.703 L2256.76 88.3434 L1902.06 88.3434  Z" fill="#ffffff" fill-rule="evenodd" fill-opacity="1"/>
<polyline clip-path="url(#clip470)" style="stroke:#000000; stroke-linecap:round; stroke-linejoin:round; stroke-width:4; stroke-opacity:1; fill:none" points="1902.06,295.703 2256.76,295.703 2256.76,88.3434 1902.06,88.3434 1902.06,295.703 "/>
<polyline clip-path="url(#clip470)" style="stroke:#0000ff; stroke-linecap:round; stroke-linejoin:round; stroke-width:12; stroke-opacity:1; fill:none" points="1924.05,140.183 2055.95,140.183 "/>
<line clip-path="url(#clip470)" x1="1990" y1="140.183" x2="1990" y2="119.828" style="stroke:#0000ff; stroke-width:12; stroke-opacity:1"/>
<line clip-path="url(#clip470)" x1="1990" y1="140.183" x2="1969.64" y2="140.183" style="stroke:#0000ff; stroke-width:12; stroke-opacity:1"/>
<line clip-path="url(#clip470)" x1="1990" y1="140.183" x2="1990" y2="160.539" style="stroke:#0000ff; stroke-width:12; stroke-opacity:1"/>
<line clip-path="url(#clip470)" x1="1990" y1="140.183" x2="2010.35" y2="140.183" style="stroke:#0000ff; stroke-width:12; stroke-opacity:1"/>
<path clip-path="url(#clip470)" d="M2077.93 157.463 L2077.93 155.907 L2079.14 155.907 Q2081.88 155.907 2082.5 155.462 Q2083.14 154.993 2083.14 153.511 L2083.14 127.004 Q2083.14 125.547 2082.5 125.102 Q2081.86 124.633 2079.14 124.633 L2077.93 124.633 L2077.93 123.052 L2106.41 123.052 L2107.82 134.44 L2106.56 134.44 Q2106.22 131.55 2105.75 129.894 Q2105.3 128.215 2104.19 126.93 Q2103.1 125.646 2101.3 125.151 Q2099.52 124.633 2096.63 124.633 L2090.11 124.633 Q2088.38 124.633 2088.01 125.003 Q2087.64 125.349 2087.64 126.658 L2087.64 138.788 L2092.18 138.788 Q2095.67 138.788 2096.66 137.577 Q2097.64 136.367 2097.64 132.884 L2098.93 132.884 L2098.93 146.273 L2097.64 146.273 Q2097.64 142.839 2096.66 141.604 Q2095.67 140.369 2092.18 140.369 L2087.64 140.369 L2087.64 153.881 Q2087.64 155.191 2088.01 155.561 Q2088.4 155.907 2090.11 155.907 L2096.85 155.907 Q2099.03 155.907 2100.61 155.635 Q2102.21 155.339 2103.33 154.647 Q2104.44 153.931 2105.18 153.116 Q2105.94 152.3 2106.46 150.843 Q2107.01 149.361 2107.3 148.002 Q2107.62 146.643 2107.97 144.42 L2109.23 144.42 L2107.11 157.463 L2077.93 157.463 Z" fill="#000000" fill-rule="nonzero" fill-opacity="1" /><path clip-path="url(#clip470)" d="M2112.32 157.463 L2112.32 155.907 L2113.53 155.907 Q2116.27 155.907 2116.89 155.462 Q2117.53 154.993 2117.53 153.511 L2117.53 126.856 Q2117.53 125.398 2116.89 124.954 Q2116.25 124.484 2113.53 124.484 L2112.32 124.484 L2112.32 122.903 Q2114.1 123.052 2119.8 123.052 Q2125.46 123.052 2127.24 122.903 L2127.24 124.484 L2126.03 124.484 Q2123.29 124.484 2122.64 124.954 Q2122.03 125.398 2122.03 126.856 L2122.03 142.938 L2137.86 127.819 Q2138.78 127.004 2138.78 126.14 Q2138.78 125.843 2138.63 125.522 Q2138.5 125.176 2137.91 124.83 Q2137.34 124.484 2136.43 124.484 L2136.43 122.903 Q2138.16 123.052 2142.88 123.052 Q2145.86 123.052 2147.17 122.903 L2147.17 124.484 Q2142.97 124.534 2139.99 127.523 L2130.87 136.268 L2142.55 153.461 Q2143.62 155.018 2144.65 155.462 Q2145.69 155.907 2147.87 155.907 L2147.87 157.463 Q2144.68 157.315 2142.06 157.315 Q2136.6 157.315 2134.82 157.463 L2134.82 155.907 Q2137.81 155.907 2137.81 154.376 Q2137.81 153.807 2137.05 152.646 L2127.88 139.109 L2122.03 144.667 L2122.03 153.511 Q2122.03 154.968 2122.64 155.438 Q2123.29 155.907 2126.03 155.907 L2127.24 155.907 L2127.24 157.463 Q2125.46 157.315 2119.75 157.315 Q2114.1 157.315 2112.32 157.463 Z" fill="#000000" fill-rule="nonzero" fill-opacity="1" /><path clip-path="url(#clip470)" d="M2154.44 128.585 L2154.44 127.004 Q2160.51 127.004 2163.65 123.768 Q2164.52 123.768 2164.66 123.966 Q2164.81 124.163 2164.81 125.077 L2164.81 153.461 Q2164.81 154.968 2165.55 155.438 Q2166.29 155.907 2169.53 155.907 L2171.14 155.907 L2171.14 157.463 Q2169.36 157.315 2162.94 157.315 Q2156.51 157.315 2154.76 157.463 L2154.76 155.907 L2156.36 155.907 Q2159.55 155.907 2160.32 155.462 Q2161.08 154.993 2161.08 153.461 L2161.08 127.251 Q2158.44 128.585 2154.44 128.585 Z" fill="#000000" fill-rule="nonzero" fill-opacity="1" /><path clip-path="url(#clip470)" d="M2180.25 144.815 Q2180.25 136.268 2183.44 129.376 Q2184.8 126.485 2186.7 124.064 Q2188.6 121.644 2189.86 120.581 Q2191.12 119.519 2191.47 119.519 Q2191.96 119.519 2191.99 120.013 Q2191.99 120.26 2191.32 120.878 Q2183.17 129.178 2183.19 144.815 Q2183.19 160.502 2191.12 168.481 Q2191.99 169.346 2191.99 169.617 Q2191.99 170.112 2191.47 170.112 Q2191.12 170.112 2189.91 169.099 Q2188.7 168.086 2186.82 165.764 Q2184.95 163.442 2183.59 160.601 Q2180.25 153.709 2180.25 144.815 Z" fill="#000000" fill-rule="nonzero" fill-opacity="1" /><path clip-path="url(#clip470)" d="M2197.37 157.463 Q2197.37 156.549 2197.45 156.278 Q2197.54 156.006 2197.94 155.586 L2207.65 144.766 Q2212.96 138.788 2212.96 133.575 Q2212.96 130.191 2211.18 127.77 Q2209.43 125.349 2206.19 125.349 Q2203.97 125.349 2202.09 126.708 Q2200.21 128.066 2199.35 130.487 Q2199.5 130.438 2200.01 130.438 Q2201.27 130.438 2201.97 131.228 Q2202.68 132.019 2202.68 133.081 Q2202.68 134.44 2201.79 135.107 Q2200.93 135.749 2200.06 135.749 Q2199.72 135.749 2199.25 135.675 Q2198.8 135.601 2198.09 134.909 Q2197.37 134.193 2197.37 132.933 Q2197.37 129.4 2200.04 126.584 Q2202.73 123.768 2206.83 123.768 Q2211.48 123.768 2214.52 126.535 Q2217.58 129.277 2217.58 133.575 Q2217.58 135.082 2217.11 136.466 Q2216.66 137.824 2216.05 138.887 Q2215.45 139.949 2213.82 141.653 Q2212.19 143.358 2210.88 144.568 Q2209.57 145.779 2206.64 148.348 L2201.27 153.56 L2210.39 153.56 Q2214.84 153.56 2215.18 153.165 Q2215.68 152.449 2216.29 148.669 L2217.58 148.669 L2216.15 157.463 L2197.37 157.463 Z" fill="#000000" fill-rule="nonzero" fill-opacity="1" /><path clip-path="url(#clip470)" d="M2223.04 169.617 Q2223.04 169.37 2223.68 168.753 Q2231.83 160.453 2231.83 144.815 Q2231.83 129.129 2224 121.199 Q2223.04 120.285 2223.04 120.013 Q2223.04 119.519 2223.53 119.519 Q2223.88 119.519 2225.09 120.532 Q2226.32 121.545 2228.18 123.867 Q2230.05 126.189 2231.44 129.03 Q2234.77 135.922 2234.77 144.815 Q2234.77 153.363 2231.59 160.255 Q2230.23 163.145 2228.32 165.566 Q2226.42 167.987 2225.16 169.049 Q2223.9 170.112 2223.53 170.112 Q2223.04 170.112 2223.04 169.617 Z" fill="#000000" fill-rule="nonzero" fill-opacity="1" /><polyline clip-path="url(#clip470)" style="stroke:#7f007f; stroke-linecap:round; stroke-linejoin:round; stroke-width:12; stroke-opacity:1; fill:none" points="1924.05,192.023 2055.95,192.023 "/>
<circle clip-path="url(#clip470)" cx="1990" cy="192.023" r="18.3196" fill="#7f007f" fill-rule="evenodd" fill-opacity="1" stroke="#000000" stroke-opacity="1" stroke-width="2.31304"/>
<path clip-path="url(#clip470)" d="M2077.93 209.303 L2077.93 207.747 L2079.14 207.747 Q2081.88 207.747 2082.5 207.302 Q2083.14 206.833 2083.14 205.351 L2083.14 178.844 Q2083.14 177.387 2082.5 176.942 Q2081.86 176.473 2079.14 176.473 L2077.93 176.473 L2077.93 174.892 L2106.41 174.892 L2107.82 186.28 L2106.56 186.28 Q2106.22 183.39 2105.75 181.734 Q2105.3 180.055 2104.19 178.77 Q2103.1 177.486 2101.3 176.991 Q2099.52 176.473 2096.63 176.473 L2090.11 176.473 Q2088.38 176.473 2088.01 176.843 Q2087.64 177.189 2087.64 178.498 L2087.64 190.628 L2092.18 190.628 Q2095.67 190.628 2096.66 189.417 Q2097.64 188.207 2097.64 184.724 L2098.93 184.724 L2098.93 198.113 L2097.64 198.113 Q2097.64 194.679 2096.66 193.444 Q2095.67 192.209 2092.18 192.209 L2087.64 192.209 L2087.64 205.721 Q2087.64 207.031 2088.01 207.401 Q2088.4 207.747 2090.11 207.747 L2096.85 207.747 Q2099.03 207.747 2100.61 207.475 Q2102.21 207.179 2103.33 206.487 Q2104.44 205.771 2105.18 204.956 Q2105.94 204.14 2106.46 202.683 Q2107.01 201.201 2107.3 199.842 Q2107.62 198.483 2107.97 196.26 L2109.23 196.26 L2107.11 209.303 L2077.93 209.303 Z" fill="#000000" fill-rule="nonzero" fill-opacity="1" /><path clip-path="url(#clip470)" d="M2112.32 209.303 L2112.32 207.747 L2113.53 207.747 Q2116.27 207.747 2116.89 207.302 Q2117.53 206.833 2117.53 205.351 L2117.53 178.696 Q2117.53 177.238 2116.89 176.794 Q2116.25 176.324 2113.53 176.324 L2112.32 176.324 L2112.32 174.743 Q2114.1 174.892 2119.8 174.892 Q2125.46 174.892 2127.24 174.743 L2127.24 176.324 L2126.03 176.324 Q2123.29 176.324 2122.64 176.794 Q2122.03 177.238 2122.03 178.696 L2122.03 194.778 L2137.86 179.659 Q2138.78 178.844 2138.78 177.98 Q2138.78 177.683 2138.63 177.362 Q2138.5 177.016 2137.91 176.67 Q2137.34 176.324 2136.43 176.324 L2136.43 174.743 Q2138.16 174.892 2142.88 174.892 Q2145.86 174.892 2147.17 174.743 L2147.17 176.324 Q2142.97 176.374 2139.99 179.363 L2130.87 188.108 L2142.55 205.301 Q2143.62 206.858 2144.65 207.302 Q2145.69 207.747 2147.87 207.747 L2147.87 209.303 Q2144.68 209.155 2142.06 209.155 Q2136.6 209.155 2134.82 209.303 L2134.82 207.747 Q2137.81 207.747 2137.81 206.216 Q2137.81 205.647 2137.05 204.486 L2127.88 190.949 L2122.03 196.507 L2122.03 205.351 Q2122.03 206.808 2122.64 207.278 Q2123.29 207.747 2126.03 207.747 L2127.24 207.747 L2127.24 209.303 Q2125.46 209.155 2119.75 209.155 Q2114.1 209.155 2112.32 209.303 Z" fill="#000000" fill-rule="nonzero" fill-opacity="1" /><path clip-path="url(#clip470)" d="M2154.44 180.425 L2154.44 178.844 Q2160.51 178.844 2163.65 175.608 Q2164.52 175.608 2164.66 175.806 Q2164.81 176.003 2164.81 176.917 L2164.81 205.301 Q2164.81 206.808 2165.55 207.278 Q2166.29 207.747 2169.53 207.747 L2171.14 207.747 L2171.14 209.303 Q2169.36 209.155 2162.94 209.155 Q2156.51 209.155 2154.76 209.303 L2154.76 207.747 L2156.36 207.747 Q2159.55 207.747 2160.32 207.302 Q2161.08 206.833 2161.08 205.301 L2161.08 179.091 Q2158.44 180.425 2154.44 180.425 Z" fill="#000000" fill-rule="nonzero" fill-opacity="1" /><path clip-path="url(#clip470)" d="M2180.25 196.655 Q2180.25 188.108 2183.44 181.216 Q2184.8 178.325 2186.7 175.904 Q2188.6 173.484 2189.86 172.421 Q2191.12 171.359 2191.47 171.359 Q2191.96 171.359 2191.99 171.853 Q2191.99 172.1 2191.32 172.718 Q2183.17 181.018 2183.19 196.655 Q2183.19 212.342 2191.12 220.321 Q2191.99 221.186 2191.99 221.457 Q2191.99 221.952 2191.47 221.952 Q2191.12 221.952 2189.91 220.939 Q2188.7 219.926 2186.82 217.604 Q2184.95 215.282 2183.59 212.441 Q2180.25 205.549 2180.25 196.655 Z" fill="#000000" fill-rule="nonzero" fill-opacity="1" /><path clip-path="url(#clip470)" d="M2196.98 202.485 Q2196.98 200.978 2197.84 200.262 Q2198.71 199.546 2199.82 199.546 Q2200.98 199.546 2201.79 200.311 Q2202.63 201.053 2202.63 202.362 Q2202.63 203.77 2201.65 204.56 Q2200.68 205.351 2199.3 205.153 Q2200.51 207.179 2202.73 208.093 Q2204.98 209.007 2207.06 209.007 Q2209.23 209.007 2210.98 207.13 Q2212.76 205.252 2212.76 200.657 Q2212.76 196.754 2211.23 194.506 Q2209.72 192.258 2206.73 192.258 L2204.51 192.258 Q2203.74 192.258 2203.52 192.184 Q2203.3 192.11 2203.3 191.69 Q2203.3 191.196 2204.07 191.097 Q2204.83 191.097 2206.04 190.949 Q2208.98 190.85 2210.54 188.306 Q2211.95 185.934 2211.95 182.55 Q2211.95 179.462 2210.46 178.177 Q2209.01 176.868 2207.1 176.868 Q2205.33 176.868 2203.37 177.609 Q2201.42 178.35 2200.36 180.005 Q2203.5 180.005 2203.5 182.55 Q2203.5 183.661 2202.78 184.402 Q2202.09 185.119 2200.93 185.119 Q2199.82 185.119 2199.08 184.427 Q2198.33 183.711 2198.33 182.5 Q2198.33 179.61 2200.9 177.609 Q2203.5 175.608 2207.3 175.608 Q2211.06 175.608 2213.82 177.584 Q2216.62 179.561 2216.62 182.599 Q2216.62 185.588 2214.64 188.034 Q2212.66 190.479 2209.53 191.492 Q2213.38 192.258 2215.68 194.877 Q2217.97 197.471 2217.97 200.657 Q2217.97 204.61 2214.86 207.525 Q2211.75 210.415 2207.2 210.415 Q2203 210.415 2199.99 208.142 Q2196.98 205.87 2196.98 202.485 Z" fill="#000000" fill-rule="nonzero" fill-opacity="1" /><path clip-path="url(#clip470)" d="M2223.04 221.457 Q2223.04 221.21 2223.68 220.593 Q2231.83 212.293 2231.83 196.655 Q2231.83 180.969 2224 173.039 Q2223.04 172.125 2223.04 171.853 Q2223.04 171.359 2223.53 171.359 Q2223.88 171.359 2225.09 172.372 Q2226.32 173.385 2228.18 175.707 Q2230.05 178.029 2231.44 180.87 Q2234.77 187.762 2234.77 196.655 Q2234.77 205.203 2231.59 212.095 Q2230.23 214.985 2228.32 217.406 Q2226.42 219.827 2225.16 220.889 Q2223.9 221.952 2223.53 221.952 Q2223.04 221.952 2223.04 221.457 Z" fill="#000000" fill-rule="nonzero" fill-opacity="1" /><polyline clip-path="url(#clip470)" style="stroke:#ff0000; stroke-linecap:round; stroke-linejoin:round; stroke-width:12; stroke-opacity:1; fill:none" points="1924.05,243.863 2055.95,243.863 "/>
<line clip-path="url(#clip470)" x1="1990" y1="243.863" x2="1990" y2="223.508" style="stroke:#ff0000; stroke-width:12; stroke-opacity:1"/>
<line clip-path="url(#clip470)" x1="1990" y1="243.863" x2="1969.64" y2="243.863" style="stroke:#ff0000; stroke-width:12; stroke-opacity:1"/>
<line clip-path="url(#clip470)" x1="1990" y1="243.863" x2="1990" y2="264.219" style="stroke:#ff0000; stroke-width:12; stroke-opacity:1"/>
<line clip-path="url(#clip470)" x1="1990" y1="243.863" x2="2010.35" y2="243.863" style="stroke:#ff0000; stroke-width:12; stroke-opacity:1"/>
<path clip-path="url(#clip470)" d="M2077.93 261.143 L2077.93 259.587 L2079.14 259.587 Q2081.88 259.587 2082.5 259.142 Q2083.14 258.673 2083.14 257.191 L2083.14 230.684 Q2083.14 229.227 2082.5 228.782 Q2081.86 228.313 2079.14 228.313 L2077.93 228.313 L2077.93 226.732 L2106.41 226.732 L2107.82 238.12 L2106.56 238.12 Q2106.22 235.23 2105.75 233.574 Q2105.3 231.895 2104.19 230.61 Q2103.1 229.326 2101.3 228.831 Q2099.52 228.313 2096.63 228.313 L2090.11 228.313 Q2088.38 228.313 2088.01 228.683 Q2087.64 229.029 2087.64 230.338 L2087.64 242.468 L2092.18 242.468 Q2095.67 242.468 2096.66 241.257 Q2097.64 240.047 2097.64 236.564 L2098.93 236.564 L2098.93 249.953 L2097.64 249.953 Q2097.64 246.519 2096.66 245.284 Q2095.67 244.049 2092.18 244.049 L2087.64 244.049 L2087.64 257.561 Q2087.64 258.871 2088.01 259.241 Q2088.4 259.587 2090.11 259.587 L2096.85 259.587 Q2099.03 259.587 2100.61 259.315 Q2102.21 259.019 2103.33 258.327 Q2104.44 257.611 2105.18 256.796 Q2105.94 255.98 2106.46 254.523 Q2107.01 253.041 2107.3 251.682 Q2107.62 250.323 2107.97 248.1 L2109.23 248.1 L2107.11 261.143 L2077.93 261.143 Z" fill="#000000" fill-rule="nonzero" fill-opacity="1" /><path clip-path="url(#clip470)" d="M2112.32 261.143 L2112.32 259.587 L2113.53 259.587 Q2116.27 259.587 2116.89 259.142 Q2117.53 258.673 2117.53 257.191 L2117.53 230.536 Q2117.53 229.078 2116.89 228.634 Q2116.25 228.164 2113.53 228.164 L2112.32 228.164 L2112.32 226.583 Q2114.1 226.732 2119.8 226.732 Q2125.46 226.732 2127.24 226.583 L2127.24 228.164 L2126.03 228.164 Q2123.29 228.164 2122.64 228.634 Q2122.03 229.078 2122.03 230.536 L2122.03 246.618 L2137.86 231.499 Q2138.78 230.684 2138.78 229.82 Q2138.78 229.523 2138.63 229.202 Q2138.5 228.856 2137.91 228.51 Q2137.34 228.164 2136.43 228.164 L2136.43 226.583 Q2138.16 226.732 2142.88 226.732 Q2145.86 226.732 2147.17 226.583 L2147.17 228.164 Q2142.97 228.214 2139.99 231.203 L2130.87 239.948 L2142.55 257.141 Q2143.62 258.698 2144.65 259.142 Q2145.69 259.587 2147.87 259.587 L2147.87 261.143 Q2144.68 260.995 2142.06 260.995 Q2136.6 260.995 2134.82 261.143 L2134.82 259.587 Q2137.81 259.587 2137.81 258.056 Q2137.81 257.487 2137.05 256.326 L2127.88 242.789 L2122.03 248.347 L2122.03 257.191 Q2122.03 258.648 2122.64 259.118 Q2123.29 259.587 2126.03 259.587 L2127.24 259.587 L2127.24 261.143 Q2125.46 260.995 2119.75 260.995 Q2114.1 260.995 2112.32 261.143 Z" fill="#000000" fill-rule="nonzero" fill-opacity="1" /><path clip-path="url(#clip470)" d="M2154.44 232.265 L2154.44 230.684 Q2160.51 230.684 2163.65 227.448 Q2164.52 227.448 2164.66 227.646 Q2164.81 227.843 2164.81 228.757 L2164.81 257.141 Q2164.81 258.648 2165.55 259.118 Q2166.29 259.587 2169.53 259.587 L2171.14 259.587 L2171.14 261.143 Q2169.36 260.995 2162.94 260.995 Q2156.51 260.995 2154.76 261.143 L2154.76 259.587 L2156.36 259.587 Q2159.55 259.587 2160.32 259.142 Q2161.08 258.673 2161.08 257.141 L2161.08 230.931 Q2158.44 232.265 2154.44 232.265 Z" fill="#000000" fill-rule="nonzero" fill-opacity="1" /><path clip-path="url(#clip470)" d="M2180.25 248.495 Q2180.25 239.948 2183.44 233.056 Q2184.8 230.165 2186.7 227.744 Q2188.6 225.324 2189.86 224.261 Q2191.12 223.199 2191.47 223.199 Q2191.96 223.199 2191.99 223.693 Q2191.99 223.94 2191.32 224.558 Q2183.17 232.858 2183.19 248.495 Q2183.19 264.182 2191.12 272.161 Q2191.99 273.026 2191.99 273.297 Q2191.99 273.792 2191.47 273.792 Q2191.12 273.792 2189.91 272.779 Q2188.7 271.766 2186.82 269.444 Q2184.95 267.122 2183.59 264.281 Q2180.25 257.389 2180.25 248.495 Z" fill="#000000" fill-rule="nonzero" fill-opacity="1" /><path clip-path="url(#clip470)" d="M2196.26 252.794 L2196.26 251.237 L2211.8 227.497 Q2212.19 226.88 2212.81 226.905 Q2213.38 226.905 2213.5 227.127 Q2213.63 227.349 2213.63 228.214 L2213.63 251.237 L2218.69 251.237 L2218.69 252.794 L2213.63 252.794 L2213.63 257.191 Q2213.63 258.648 2214.22 259.118 Q2214.84 259.587 2217.46 259.587 L2218.52 259.587 L2218.52 261.143 Q2216.44 260.995 2211.65 260.995 Q2206.88 260.995 2204.81 261.143 L2204.81 259.587 L2205.87 259.587 Q2208.49 259.587 2209.11 259.142 Q2209.72 258.673 2209.72 257.191 L2209.72 252.794 L2196.26 252.794 M2197.69 251.237 L2210.02 251.237 L2210.02 232.364 L2197.69 251.237 Z" fill="#000000" fill-rule="nonzero" fill-opacity="1" /><path clip-path="url(#clip470)" d="M2223.04 273.297 Q2223.04 273.05 2223.68 272.433 Q2231.83 264.133 2231.83 248.495 Q2231.83 232.809 2224 224.879 Q2223.04 223.965 2223.04 223.693 Q2223.04 223.199 2223.53 223.199 Q2223.88 223.199 2225.09 224.212 Q2226.32 225.225 2228.18 227.547 Q2230.05 229.869 2231.44 232.71 Q2234.77 239.602 2234.77 248.495 Q2234.77 257.043 2231.59 263.935 Q2230.23 266.825 2228.32 269.246 Q2226.42 271.667 2225.16 272.729 Q2223.9 273.792 2223.53 273.792 Q2223.04 273.792 2223.04 273.297 Z" fill="#000000" fill-rule="nonzero" fill-opacity="1" /></svg>
