<?xml version="1.0" encoding="utf-8"?>
<svg xmlns="http://www.w3.org/2000/svg" xmlns:xlink="http://www.w3.org/1999/xlink" width="600" height="400" viewBox="0 0 2400 1600">
<defs>
  <clipPath id="clip250">
    <rect x="0" y="0" width="2400" height="1600"/>
  </clipPath>
</defs>
<path clip-path="url(#clip250)" d="M0 1600 L2400 1600 L2400 0 L0 0  Z" fill="#ffffff" fill-rule="evenodd" fill-opacity="1"/>
<defs>
  <clipPath id="clip251">
    <rect x="480" y="0" width="1681" height="1600"/>
  </clipPath>
</defs>
<path clip-path="url(#clip250)" d="M219.866 1423.18 L2352.76 1423.18 L2352.76 47.2441 L219.866 47.2441  Z" fill="#ffffff" fill-rule="evenodd" fill-opacity="1"/>
<defs>
  <clipPath id="clip252">
    <rect x="219" y="47" width="2134" height="1377"/>
  </clipPath>
</defs>
<polyline clip-path="url(#clip252)" style="stroke:#000000; stroke-linecap:round; stroke-linejoin:round; stroke-width:2; stroke-opacity:0.1; fill:none" points="280.231,1423.18 280.231,47.2441 "/>
<polyline clip-path="url(#clip252)" style="stroke:#000000; stroke-linecap:round; stroke-linejoin:round; stroke-width:2; stroke-opacity:0.1; fill:none" points="783.271,1423.18 783.271,47.2441 "/>
<polyline clip-path="url(#clip252)" style="stroke:#000000; stroke-linecap:round; stroke-linejoin:round; stroke-width:2; stroke-opacity:0.1; fill:none" points="1286.31,1423.18 1286.31,47.2441 "/>
<polyline clip-path="url(#clip252)" style="stroke:#000000; stroke-linecap:round; stroke-linejoin:round; stroke-width:2; stroke-opacity:0.1; fill:none" points="1789.35,1423.18 1789.35,47.2441 "/>
<polyline clip-path="url(#clip252)" style="stroke:#000000; stroke-linecap:round; stroke-linejoin:round; stroke-width:2; stroke-opacity:0.1; fill:none" points="2292.39,1423.18 2292.39,47.2441 "/>
<polyline clip-path="url(#clip250)" style="stroke:#000000; stroke-linecap:round; stroke-linejoin:round; stroke-width:4; stroke-opacity:1; fill:none" points="219.866,1423.18 2352.76,1423.18 "/>
<polyline clip-path="url(#clip250)" style="stroke:#000000; stroke-linecap:round; stroke-linejoin:round; stroke-width:4; stroke-opacity:1; fill:none" points="280.231,1423.18 280.231,1404.28 "/>
<polyline clip-path="url(#clip250)" style="stroke:#000000; stroke-linecap:round; stroke-linejoin:round; stroke-width:4; stroke-opacity:1; fill:none" points="783.271,1423.18 783.271,1404.28 "/>
<polyline clip-path="url(#clip250)" style="stroke:#000000; stroke-linecap:round; stroke-linejoin:round; stroke-width:4; stroke-opacity:1; fill:none" points="1286.31,1423.18 1286.31,1404.28 "/>
<polyline clip-path="url(#clip250)" style="stroke:#000000; stroke-linecap:round; stroke-linejoin:round; stroke-width:4; stroke-opacity:1; fill:none" points="1789.35,1423.18 1789.35,1404.28 "/>
<polyline clip-path="url(#clip250)" style="stroke:#000000; stroke-linecap:round; stroke-linejoin:round; stroke-width:4; stroke-opacity:1; fill:none" points="2292.39,1423.18 2292.39,1404.28 "/>
<path clip-path="url(#clip250)" d="M280.231 1454.1 Q276.62 1454.1 274.791 1457.66 Q272.986 1461.2 272.986 1468.33 Q272.986 1475.44 274.791 1479.01 Q276.62 1482.55 280.231 1482.55 Q283.865 1482.55 285.671 1479.01 Q287.5 1475.44 287.5 1468.33 Q287.5 1461.2 285.671 1457.66 Q283.865 1454.1 280.231 1454.1 M280.231 1450.39 Q286.041 1450.39 289.097 1455 Q292.175 1459.58 292.175 1468.33 Q292.175 1477.06 289.097 1481.67 Q286.041 1486.25 280.231 1486.25 Q274.421 1486.25 271.342 1481.67 Q268.287 1477.06 268.287 1468.33 Q268.287 1459.58 271.342 1455 Q274.421 1450.39 280.231 1450.39 Z" fill="#000000" fill-rule="nonzero" fill-opacity="1" /><path clip-path="url(#clip250)" d="M773.549 1451.02 L791.905 1451.02 L791.905 1454.96 L777.831 1454.96 L777.831 1463.43 Q778.85 1463.08 779.868 1462.92 Q780.887 1462.73 781.905 1462.73 Q787.692 1462.73 791.072 1465.9 Q794.452 1469.08 794.452 1474.49 Q794.452 1480.07 790.979 1483.17 Q787.507 1486.25 781.188 1486.25 Q779.012 1486.25 776.743 1485.88 Q774.498 1485.51 772.091 1484.77 L772.091 1480.07 Q774.174 1481.2 776.396 1481.76 Q778.618 1482.32 781.095 1482.32 Q785.1 1482.32 787.438 1480.21 Q789.776 1478.1 789.776 1474.49 Q789.776 1470.88 787.438 1468.77 Q785.1 1466.67 781.095 1466.67 Q779.22 1466.67 777.345 1467.08 Q775.493 1467.5 773.549 1468.38 L773.549 1451.02 Z" fill="#000000" fill-rule="nonzero" fill-opacity="1" /><path clip-path="url(#clip250)" d="M1261 1481.64 L1268.64 1481.64 L1268.64 1455.28 L1260.33 1456.95 L1260.33 1452.69 L1268.59 1451.02 L1273.27 1451.02 L1273.27 1481.64 L1280.91 1481.64 L1280.91 1485.58 L1261 1485.58 L1261 1481.64 Z" fill="#000000" fill-rule="nonzero" fill-opacity="1" /><path clip-path="url(#clip250)" d="M1300.35 1454.1 Q1296.74 1454.1 1294.91 1457.66 Q1293.11 1461.2 1293.11 1468.33 Q1293.11 1475.44 1294.91 1479.01 Q1296.74 1482.55 1300.35 1482.55 Q1303.98 1482.55 1305.79 1479.01 Q1307.62 1475.44 1307.62 1468.33 Q1307.62 1461.2 1305.79 1457.66 Q1303.98 1454.1 1300.35 1454.1 M1300.35 1450.39 Q1306.16 1450.39 1309.22 1455 Q1312.29 1459.58 1312.29 1468.33 Q1312.29 1477.06 1309.22 1481.67 Q1306.16 1486.25 1300.35 1486.25 Q1294.54 1486.25 1291.46 1481.67 Q1288.41 1477.06 1288.41 1468.33 Q1288.41 1459.58 1291.46 1455 Q1294.54 1450.39 1300.35 1450.39 Z" fill="#000000" fill-rule="nonzero" fill-opacity="1" /><path clip-path="url(#clip250)" d="M1764.54 1481.64 L1772.18 1481.64 L1772.18 1455.28 L1763.87 1456.95 L1763.87 1452.69 L1772.13 1451.02 L1776.8 1451.02 L1776.8 1481.64 L1784.44 1481.64 L1784.44 1485.58 L1764.54 1485.58 L1764.54 1481.64 Z" fill="#000000" fill-rule="nonzero" fill-opacity="1" /><path clip-path="url(#clip250)" d="M1793.93 1451.02 L1812.29 1451.02 L1812.29 1454.96 L1798.22 1454.96 L1798.22 1463.43 Q1799.24 1463.08 1800.25 1462.92 Q1801.27 1462.73 1802.29 1462.73 Q1808.08 1462.73 1811.46 1465.9 Q1814.84 1469.08 1814.84 1474.49 Q1814.84 1480.07 1811.36 1483.17 Q1807.89 1486.25 1801.57 1486.25 Q1799.4 1486.25 1797.13 1485.88 Q1794.88 1485.51 1792.48 1484.77 L1792.48 1480.07 Q1794.56 1481.2 1796.78 1481.76 Q1799 1482.32 1801.48 1482.32 Q1805.49 1482.32 1807.82 1480.21 Q1810.16 1478.1 1810.16 1474.49 Q1810.16 1470.88 1807.82 1468.77 Q1805.49 1466.67 1801.48 1466.67 Q1799.61 1466.67 1797.73 1467.08 Q1795.88 1467.5 1793.93 1468.38 L1793.93 1451.02 Z" fill="#000000" fill-rule="nonzero" fill-opacity="1" /><path clip-path="url(#clip250)" d="M2271.16 1481.64 L2287.48 1481.64 L2287.48 1485.58 L2265.54 1485.58 L2265.54 1481.64 Q2268.2 1478.89 2272.78 1474.26 Q2277.39 1469.61 2278.57 1468.27 Q2280.82 1465.74 2281.7 1464.01 Q2282.6 1462.25 2282.6 1460.56 Q2282.6 1457.8 2280.66 1456.07 Q2278.73 1454.33 2275.63 1454.33 Q2273.43 1454.33 2270.98 1455.09 Q2268.55 1455.86 2265.77 1457.41 L2265.77 1452.69 Q2268.59 1451.55 2271.05 1450.97 Q2273.5 1450.39 2275.54 1450.39 Q2280.91 1450.39 2284.1 1453.08 Q2287.3 1455.77 2287.3 1460.26 Q2287.3 1462.39 2286.49 1464.31 Q2285.7 1466.2 2283.59 1468.8 Q2283.02 1469.47 2279.91 1472.69 Q2276.81 1475.88 2271.16 1481.64 Z" fill="#000000" fill-rule="nonzero" fill-opacity="1" /><path clip-path="url(#clip250)" d="M2307.3 1454.1 Q2303.69 1454.1 2301.86 1457.66 Q2300.05 1461.2 2300.05 1468.33 Q2300.05 1475.44 2301.86 1479.01 Q2303.69 1482.55 2307.3 1482.55 Q2310.93 1482.55 2312.74 1479.01 Q2314.57 1475.44 2314.57 1468.33 Q2314.57 1461.2 2312.74 1457.66 Q2310.93 1454.1 2307.3 1454.1 M2307.3 1450.39 Q2313.11 1450.39 2316.16 1455 Q2319.24 1459.58 2319.24 1468.33 Q2319.24 1477.06 2316.16 1481.67 Q2313.11 1486.25 2307.3 1486.25 Q2301.49 1486.25 2298.41 1481.67 Q2295.35 1477.06 2295.35 1468.33 Q2295.35 1459.58 2298.41 1455 Q2301.49 1450.39 2307.3 1450.39 Z" fill="#000000" fill-rule="nonzero" fill-opacity="1" /><path clip-path="url(#clip250)" d="M1285.37 1522.27 L1285.37 1532.4 L1297.44 1532.4 L1297.44 1536.95 L1285.37 1536.95 L1285.37 1556.3 Q1285.37 1560.66 1286.55 1561.9 Q1287.76 1563.14 1291.42 1563.14 L1297.44 1563.14 L1297.44 1568.04 L1291.42 1568.04 Q1284.64 1568.04 1282.06 1565.53 Q1279.48 1562.98 1279.48 1556.3 L1279.48 1536.95 L1275.19 1536.95 L1275.19 1532.4 L1279.48 1532.4 L1279.48 1522.27 L1285.37 1522.27 Z" fill="#000000" fill-rule="nonzero" fill-opacity="1" /><polyline clip-path="url(#clip252)" style="stroke:#000000; stroke-linecap:round; stroke-linejoin:round; stroke-width:2; stroke-opacity:0.1; fill:none" points="219.866,1309.98 2352.76,1309.98 "/>
<polyline clip-path="url(#clip252)" style="stroke:#000000; stroke-linecap:round; stroke-linejoin:round; stroke-width:2; stroke-opacity:0.1; fill:none" points="219.866,1106.01 2352.76,1106.01 "/>
<polyline clip-path="url(#clip252)" style="stroke:#000000; stroke-linecap:round; stroke-linejoin:round; stroke-width:2; stroke-opacity:0.1; fill:none" points="219.866,902.048 2352.76,902.048 "/>
<polyline clip-path="url(#clip252)" style="stroke:#000000; stroke-linecap:round; stroke-linejoin:round; stroke-width:2; stroke-opacity:0.1; fill:none" points="219.866,698.082 2352.76,698.082 "/>
<polyline clip-path="url(#clip252)" style="stroke:#000000; stroke-linecap:round; stroke-linejoin:round; stroke-width:2; stroke-opacity:0.1; fill:none" points="219.866,494.117 2352.76,494.117 "/>
<polyline clip-path="url(#clip252)" style="stroke:#000000; stroke-linecap:round; stroke-linejoin:round; stroke-width:2; stroke-opacity:0.1; fill:none" points="219.866,290.151 2352.76,290.151 "/>
<polyline clip-path="url(#clip252)" style="stroke:#000000; stroke-linecap:round; stroke-linejoin:round; stroke-width:2; stroke-opacity:0.1; fill:none" points="219.866,86.1857 2352.76,86.1857 "/>
<polyline clip-path="url(#clip250)" style="stroke:#000000; stroke-linecap:round; stroke-linejoin:round; stroke-width:4; stroke-opacity:1; fill:none" points="219.866,1423.18 219.866,47.2441 "/>
<polyline clip-path="url(#clip250)" style="stroke:#000000; stroke-linecap:round; stroke-linejoin:round; stroke-width:4; stroke-opacity:1; fill:none" points="219.866,1309.98 238.764,1309.98 "/>
<polyline clip-path="url(#clip250)" style="stroke:#000000; stroke-linecap:round; stroke-linejoin:round; stroke-width:4; stroke-opacity:1; fill:none" points="219.866,1106.01 238.764,1106.01 "/>
<polyline clip-path="url(#clip250)" style="stroke:#000000; stroke-linecap:round; stroke-linejoin:round; stroke-width:4; stroke-opacity:1; fill:none" points="219.866,902.048 238.764,902.048 "/>
<polyline clip-path="url(#clip250)" style="stroke:#000000; stroke-linecap:round; stroke-linejoin:round; stroke-width:4; stroke-opacity:1; fill:none" points="219.866,698.082 238.764,698.082 "/>
<polyline clip-path="url(#clip250)" style="stroke:#000000; stroke-linecap:round; stroke-linejoin:round; stroke-width:4; stroke-opacity:1; fill:none" points="219.866,494.117 238.764,494.117 "/>
<polyline clip-path="url(#clip250)" style="stroke:#000000; stroke-linecap:round; stroke-linejoin:round; stroke-width:4; stroke-opacity:1; fill:none" points="219.866,290.151 238.764,290.151 "/>
<polyline clip-path="url(#clip250)" style="stroke:#000000; stroke-linecap:round; stroke-linejoin:round; stroke-width:4; stroke-opacity:1; fill:none" points="219.866,86.1857 238.764,86.1857 "/>
<path clip-path="url(#clip250)" d="M126.205 1295.78 Q122.593 1295.78 120.765 1299.34 Q118.959 1302.88 118.959 1310.01 Q118.959 1317.12 120.765 1320.68 Q122.593 1324.23 126.205 1324.23 Q129.839 1324.23 131.644 1320.68 Q133.473 1317.12 133.473 1310.01 Q133.473 1302.88 131.644 1299.34 Q129.839 1295.78 126.205 1295.78 M126.205 1292.07 Q132.015 1292.07 135.07 1296.68 Q138.149 1301.26 138.149 1310.01 Q138.149 1318.74 135.07 1323.35 Q132.015 1327.93 126.205 1327.93 Q120.394 1327.93 117.316 1323.35 Q114.26 1318.74 114.26 1310.01 Q114.26 1301.26 117.316 1296.68 Q120.394 1292.07 126.205 1292.07 Z" fill="#000000" fill-rule="nonzero" fill-opacity="1" /><path clip-path="url(#clip250)" d="M146.366 1321.38 L151.251 1321.38 L151.251 1327.26 L146.366 1327.26 L146.366 1321.38 Z" fill="#000000" fill-rule="nonzero" fill-opacity="1" /><path clip-path="url(#clip250)" d="M174.283 1296.77 L162.477 1315.22 L174.283 1315.22 L174.283 1296.77 M173.056 1292.7 L178.936 1292.7 L178.936 1315.22 L183.866 1315.22 L183.866 1319.11 L178.936 1319.11 L178.936 1327.26 L174.283 1327.26 L174.283 1319.11 L158.681 1319.11 L158.681 1314.6 L173.056 1292.7 Z" fill="#000000" fill-rule="nonzero" fill-opacity="1" /><path clip-path="url(#clip250)" d="M127.686 1091.81 Q124.075 1091.81 122.246 1095.38 Q120.441 1098.92 120.441 1106.05 Q120.441 1113.15 122.246 1116.72 Q124.075 1120.26 127.686 1120.26 Q131.32 1120.26 133.126 1116.72 Q134.954 1113.15 134.954 1106.05 Q134.954 1098.92 133.126 1095.38 Q131.32 1091.81 127.686 1091.81 M127.686 1088.11 Q133.496 1088.11 136.552 1092.71 Q139.63 1097.3 139.63 1106.05 Q139.63 1114.77 136.552 1119.38 Q133.496 1123.96 127.686 1123.96 Q121.876 1123.96 118.797 1119.38 Q115.742 1114.77 115.742 1106.05 Q115.742 1097.3 118.797 1092.71 Q121.876 1088.11 127.686 1088.11 Z" fill="#000000" fill-rule="nonzero" fill-opacity="1" /><path clip-path="url(#clip250)" d="M147.848 1117.41 L152.732 1117.41 L152.732 1123.29 L147.848 1123.29 L147.848 1117.41 Z" fill="#000000" fill-rule="nonzero" fill-opacity="1" /><path clip-path="url(#clip250)" d="M162.964 1088.73 L181.32 1088.73 L181.32 1092.67 L167.246 1092.67 L167.246 1101.14 Q168.264 1100.79 169.283 1100.63 Q170.302 1100.45 171.32 1100.45 Q177.107 1100.45 180.487 1103.62 Q183.866 1106.79 183.866 1112.21 Q183.866 1117.78 180.394 1120.89 Q176.922 1123.96 170.602 1123.96 Q168.427 1123.96 166.158 1123.59 Q163.913 1123.22 161.505 1122.48 L161.505 1117.78 Q163.589 1118.92 165.811 1119.47 Q168.033 1120.03 170.51 1120.03 Q174.514 1120.03 176.852 1117.92 Q179.19 1115.82 179.19 1112.21 Q179.19 1108.59 176.852 1106.49 Q174.514 1104.38 170.51 1104.38 Q168.635 1104.38 166.76 1104.8 Q164.908 1105.21 162.964 1106.09 L162.964 1088.73 Z" fill="#000000" fill-rule="nonzero" fill-opacity="1" /><path clip-path="url(#clip250)" d="M126.529 887.846 Q122.918 887.846 121.089 891.411 Q119.283 894.953 119.283 902.082 Q119.283 909.189 121.089 912.753 Q122.918 916.295 126.529 916.295 Q130.163 916.295 131.968 912.753 Q133.797 909.189 133.797 902.082 Q133.797 894.953 131.968 891.411 Q130.163 887.846 126.529 887.846 M126.529 884.143 Q132.339 884.143 135.394 888.749 Q138.473 893.332 138.473 902.082 Q138.473 910.809 135.394 915.416 Q132.339 919.999 126.529 919.999 Q120.718 919.999 117.64 915.416 Q114.584 910.809 114.584 902.082 Q114.584 893.332 117.64 888.749 Q120.718 884.143 126.529 884.143 Z" fill="#000000" fill-rule="nonzero" fill-opacity="1" /><path clip-path="url(#clip250)" d="M146.691 913.448 L151.575 913.448 L151.575 919.328 L146.691 919.328 L146.691 913.448 Z" fill="#000000" fill-rule="nonzero" fill-opacity="1" /><path clip-path="url(#clip250)" d="M172.339 900.184 Q169.19 900.184 167.339 902.337 Q165.51 904.49 165.51 908.24 Q165.51 911.966 167.339 914.142 Q169.19 916.295 172.339 916.295 Q175.487 916.295 177.315 914.142 Q179.167 911.966 179.167 908.24 Q179.167 904.49 177.315 902.337 Q175.487 900.184 172.339 900.184 M181.621 885.531 L181.621 889.791 Q179.862 888.957 178.056 888.518 Q176.274 888.078 174.514 888.078 Q169.885 888.078 167.431 891.203 Q165.001 894.328 164.653 900.647 Q166.019 898.633 168.079 897.568 Q170.139 896.48 172.616 896.48 Q177.825 896.48 180.834 899.652 Q183.866 902.8 183.866 908.24 Q183.866 913.564 180.718 916.781 Q177.57 919.999 172.339 919.999 Q166.343 919.999 163.172 915.416 Q160.001 910.809 160.001 902.082 Q160.001 893.888 163.89 889.027 Q167.778 884.143 174.329 884.143 Q176.089 884.143 177.871 884.49 Q179.676 884.837 181.621 885.531 Z" fill="#000000" fill-rule="nonzero" fill-opacity="1" /><path clip-path="url(#clip250)" d="M127.593 683.881 Q123.982 683.881 122.154 687.446 Q120.348 690.987 120.348 698.117 Q120.348 705.223 122.154 708.788 Q123.982 712.33 127.593 712.33 Q131.228 712.33 133.033 708.788 Q134.862 705.223 134.862 698.117 Q134.862 690.987 133.033 687.446 Q131.228 683.881 127.593 683.881 M127.593 680.177 Q133.404 680.177 136.459 684.784 Q139.538 689.367 139.538 698.117 Q139.538 706.844 136.459 711.45 Q133.404 716.033 127.593 716.033 Q121.783 716.033 118.705 711.45 Q115.649 706.844 115.649 698.117 Q115.649 689.367 118.705 684.784 Q121.783 680.177 127.593 680.177 Z" fill="#000000" fill-rule="nonzero" fill-opacity="1" /><path clip-path="url(#clip250)" d="M147.755 709.482 L152.64 709.482 L152.64 715.362 L147.755 715.362 L147.755 709.482 Z" fill="#000000" fill-rule="nonzero" fill-opacity="1" /><path clip-path="url(#clip250)" d="M161.644 680.802 L183.866 680.802 L183.866 682.793 L171.32 715.362 L166.436 715.362 L178.241 684.737 L161.644 684.737 L161.644 680.802 Z" fill="#000000" fill-rule="nonzero" fill-opacity="1" /><path clip-path="url(#clip250)" d="M126.783 479.915 Q123.172 479.915 121.343 483.48 Q119.538 487.022 119.538 494.151 Q119.538 501.258 121.343 504.823 Q123.172 508.364 126.783 508.364 Q130.417 508.364 132.223 504.823 Q134.052 501.258 134.052 494.151 Q134.052 487.022 132.223 483.48 Q130.417 479.915 126.783 479.915 M126.783 476.212 Q132.593 476.212 135.649 480.818 Q138.728 485.401 138.728 494.151 Q138.728 502.878 135.649 507.485 Q132.593 512.068 126.783 512.068 Q120.973 512.068 117.894 507.485 Q114.839 502.878 114.839 494.151 Q114.839 485.401 117.894 480.818 Q120.973 476.212 126.783 476.212 Z" fill="#000000" fill-rule="nonzero" fill-opacity="1" /><path clip-path="url(#clip250)" d="M146.945 505.517 L151.829 505.517 L151.829 511.397 L146.945 511.397 L146.945 505.517 Z" fill="#000000" fill-rule="nonzero" fill-opacity="1" /><path clip-path="url(#clip250)" d="M172.014 494.985 Q168.681 494.985 166.76 496.767 Q164.862 498.549 164.862 501.674 Q164.862 504.799 166.76 506.582 Q168.681 508.364 172.014 508.364 Q175.348 508.364 177.269 506.582 Q179.19 504.776 179.19 501.674 Q179.19 498.549 177.269 496.767 Q175.371 494.985 172.014 494.985 M167.339 492.994 Q164.329 492.253 162.64 490.193 Q160.973 488.133 160.973 485.17 Q160.973 481.026 163.913 478.619 Q166.876 476.212 172.014 476.212 Q177.176 476.212 180.116 478.619 Q183.056 481.026 183.056 485.17 Q183.056 488.133 181.366 490.193 Q179.7 492.253 176.714 492.994 Q180.093 493.781 181.968 496.073 Q183.866 498.364 183.866 501.674 Q183.866 506.698 180.788 509.383 Q177.732 512.068 172.014 512.068 Q166.297 512.068 163.218 509.383 Q160.163 506.698 160.163 501.674 Q160.163 498.364 162.061 496.073 Q163.959 493.781 167.339 492.994 M165.626 485.61 Q165.626 488.295 167.292 489.799 Q168.982 491.304 172.014 491.304 Q175.024 491.304 176.714 489.799 Q178.426 488.295 178.426 485.61 Q178.426 482.925 176.714 481.42 Q175.024 479.915 172.014 479.915 Q168.982 479.915 167.292 481.42 Q165.626 482.925 165.626 485.61 Z" fill="#000000" fill-rule="nonzero" fill-opacity="1" /><path clip-path="url(#clip250)" d="M126.876 275.95 Q123.265 275.95 121.436 279.515 Q119.63 283.056 119.63 290.186 Q119.63 297.292 121.436 300.857 Q123.265 304.399 126.876 304.399 Q130.51 304.399 132.316 300.857 Q134.144 297.292 134.144 290.186 Q134.144 283.056 132.316 279.515 Q130.51 275.95 126.876 275.95 M126.876 272.246 Q132.686 272.246 135.742 276.853 Q138.82 281.436 138.82 290.186 Q138.82 298.913 135.742 303.519 Q132.686 308.102 126.876 308.102 Q121.066 308.102 117.987 303.519 Q114.931 298.913 114.931 290.186 Q114.931 281.436 117.987 276.853 Q121.066 272.246 126.876 272.246 Z" fill="#000000" fill-rule="nonzero" fill-opacity="1" /><path clip-path="url(#clip250)" d="M147.038 301.552 L151.922 301.552 L151.922 307.431 L147.038 307.431 L147.038 301.552 Z" fill="#000000" fill-rule="nonzero" fill-opacity="1" /><path clip-path="url(#clip250)" d="M162.246 306.714 L162.246 302.454 Q164.005 303.288 165.811 303.727 Q167.616 304.167 169.352 304.167 Q173.982 304.167 176.413 301.065 Q178.866 297.94 179.214 291.598 Q177.871 293.589 175.811 294.653 Q173.751 295.718 171.251 295.718 Q166.065 295.718 163.033 292.593 Q160.024 289.445 160.024 284.005 Q160.024 278.681 163.172 275.464 Q166.32 272.246 171.552 272.246 Q177.547 272.246 180.695 276.853 Q183.866 281.436 183.866 290.186 Q183.866 298.357 179.977 303.241 Q176.112 308.102 169.561 308.102 Q167.802 308.102 165.996 307.755 Q164.19 307.408 162.246 306.714 M171.552 292.061 Q174.7 292.061 176.528 289.908 Q178.38 287.755 178.38 284.005 Q178.38 280.279 176.528 278.126 Q174.7 275.95 171.552 275.95 Q168.403 275.95 166.552 278.126 Q164.723 280.279 164.723 284.005 Q164.723 287.755 166.552 289.908 Q168.403 292.061 171.552 292.061 Z" fill="#000000" fill-rule="nonzero" fill-opacity="1" /><path clip-path="url(#clip250)" d="M117.501 99.5305 L125.14 99.5305 L125.14 73.1649 L116.83 74.8316 L116.83 70.5723 L125.093 68.9057 L129.769 68.9057 L129.769 99.5305 L137.408 99.5305 L137.408 103.466 L117.501 103.466 L117.501 99.5305 Z" fill="#000000" fill-rule="nonzero" fill-opacity="1" /><path clip-path="url(#clip250)" d="M146.853 97.5861 L151.737 97.5861 L151.737 103.466 L146.853 103.466 L146.853 97.5861 Z" fill="#000000" fill-rule="nonzero" fill-opacity="1" /><path clip-path="url(#clip250)" d="M171.922 71.9844 Q168.311 71.9844 166.482 75.5492 Q164.677 79.0908 164.677 86.2204 Q164.677 93.3268 166.482 96.8916 Q168.311 100.433 171.922 100.433 Q175.556 100.433 177.362 96.8916 Q179.19 93.3268 179.19 86.2204 Q179.19 79.0908 177.362 75.5492 Q175.556 71.9844 171.922 71.9844 M171.922 68.2807 Q177.732 68.2807 180.788 72.8871 Q183.866 77.4704 183.866 86.2204 Q183.866 94.9472 180.788 99.5537 Q177.732 104.137 171.922 104.137 Q166.112 104.137 163.033 99.5537 Q159.978 94.9472 159.978 86.2204 Q159.978 77.4704 163.033 72.8871 Q166.112 68.2807 171.922 68.2807 Z" fill="#000000" fill-rule="nonzero" fill-opacity="1" /><path clip-path="url(#clip250)" d="M49.9359 788.509 L28.3562 788.509 L28.3562 782.652 L49.7131 782.652 Q54.7739 782.652 57.3202 780.679 Q59.8346 778.706 59.8346 774.759 Q59.8346 770.016 56.8109 767.279 Q53.7872 764.51 48.5673 764.51 L28.3562 764.51 L28.3562 758.654 L64.0042 758.654 L64.0042 764.51 L58.5296 764.51 Q61.7762 766.643 63.3676 769.475 Q64.9272 772.276 64.9272 776 Q64.9272 782.143 61.1078 785.326 Q57.2883 788.509 49.9359 788.509 M27.4968 773.772 L27.4968 773.772 Z" fill="#000000" fill-rule="nonzero" fill-opacity="1" /><path clip-path="url(#clip250)" d="M14.5426 732.522 Q21.8632 736.787 29.0246 738.856 Q36.186 740.925 43.5384 740.925 Q50.8908 740.925 58.1159 738.856 Q65.3091 736.756 72.5979 732.522 L72.5979 737.615 Q65.1182 742.389 57.8931 744.776 Q50.668 747.132 43.5384 747.132 Q36.4406 747.132 29.2474 744.776 Q22.0542 742.421 14.5426 737.615 L14.5426 732.522 Z" fill="#000000" fill-rule="nonzero" fill-opacity="1" /><path clip-path="url(#clip250)" d="M18.2347 715.367 L28.3562 715.367 L28.3562 703.304 L32.9077 703.304 L32.9077 715.367 L52.2594 715.367 Q56.6199 715.367 57.8613 714.189 Q59.1026 712.98 59.1026 709.319 L59.1026 703.304 L64.0042 703.304 L64.0042 709.319 Q64.0042 716.099 61.4897 718.677 Q58.9434 721.255 52.2594 721.255 L32.9077 721.255 L32.9077 725.552 L28.3562 725.552 L28.3562 721.255 L18.2347 721.255 L18.2347 715.367 Z" fill="#000000" fill-rule="nonzero" fill-opacity="1" /><path clip-path="url(#clip250)" d="M14.5426 696.524 L14.5426 691.432 Q22.0542 686.658 29.2474 684.302 Q36.4406 681.915 43.5384 681.915 Q50.668 681.915 57.8931 684.302 Q65.1182 686.658 72.5979 691.432 L72.5979 696.524 Q65.3091 692.291 58.1159 690.222 Q50.8908 688.122 43.5384 688.122 Q36.186 688.122 29.0246 690.222 Q21.8632 692.291 14.5426 696.524 Z" fill="#000000" fill-rule="nonzero" fill-opacity="1" /><path clip-path="url(#clip252)" d="M280.231 86.1857 L282.245 92.6294 L284.259 99.0144 L286.274 105.342 L288.288 111.612 L290.302 117.826 L292.316 123.985 L294.33 130.089 L296.344 136.139 L298.359 142.137 L300.373 148.082 L302.387 153.976 L304.401 159.819 L306.415 165.612 L308.43 171.356 L310.444 177.051 L312.458 182.698 L314.472 188.297 L316.486 193.85 L318.5 199.357 L320.515 204.819 L322.529 210.235 L324.543 215.608 L326.557 220.937 L328.571 226.222 L330.585 231.465 L332.6 236.667 L334.614 241.827 L336.628 246.946 L338.642 252.024 L340.656 257.063 L342.67 262.063 L344.685 267.023 L346.699 271.946 L348.713 276.83 L350.727 281.677 L352.741 286.488 L354.756 291.262 L356.77 296 L358.784 300.702 L360.798 305.369 L362.812 310.002 L364.826 314.6 L366.841 319.164 L368.855 323.695 L370.869 328.193 L372.883 332.659 L374.897 337.092 L376.911 341.493 L378.926 345.863 L380.94 350.201 L382.954 354.509 L384.968 358.786 L386.982 363.033 L388.996 367.251 L391.011 371.439 L393.025 375.598 L395.039 379.729 L397.053 383.831 L399.067 387.904 L401.082 391.951 L403.096 395.969 L405.11 399.961 L407.124 403.925 L409.138 407.864 L411.152 411.775 L413.167 415.661 L415.181 419.522 L417.195 423.356 L419.209 427.166 L421.223 430.951 L423.237 434.711 L425.252 438.447 L427.266 442.158 L429.28 445.846 L431.294 449.51 L433.308 453.151 L435.322 456.769 L437.337 460.364 L439.351 463.937 L441.365 467.487 L443.379 471.014 L445.393 474.52 L447.408 478.005 L449.422 481.467 L451.436 484.909 L453.45 488.329 L455.464 491.729 L457.478 495.108 L459.493 498.466 L461.507 501.804 L463.521 505.123 L465.535 508.421 L467.549 511.7 L469.563 514.959 L471.578 518.199 L473.592 521.42 L475.606 524.622 L477.62 527.806 L479.634 530.97 L481.648 534.117 L483.663 537.245 L485.677 540.356 L487.691 543.448 L489.705 546.523 L491.719 549.58 L493.734 552.62 L495.748 555.643 L497.762 558.649 L499.776 561.638 L501.79 564.61 L503.804 567.566 L505.819 570.505 L507.833 573.428 L509.847 576.335 L511.861 579.226 L513.875 582.101 L515.889 584.961 L517.904 587.805 L519.918 590.633 L521.932 593.446 L523.946 596.245 L525.96 599.028 L527.974 601.796 L529.989 604.55 L532.003 607.289 L534.017 610.013 L536.031 612.724 L538.045 615.42 L540.06 618.102 L542.074 620.769 L544.088 623.423 L546.102 626.064 L548.116 628.691 L550.13 631.304 L552.145 633.903 L554.159 636.49 L556.173 639.063 L558.187 641.624 L560.201 644.171 L562.215 646.705 L564.23 649.227 L566.244 651.736 L568.258 654.233 L570.272 656.717 L572.286 659.189 L574.301 661.649 L576.315 664.096 L578.329 666.532 L580.343 668.955 L582.357 671.367 L584.371 673.767 L586.386 676.155 L588.4 678.532 L590.414 680.897 L592.428 683.251 L594.442 685.594 L596.456 687.926 L598.471 690.246 L600.485 692.556 L602.499 694.854 L604.513 697.142 L606.527 699.418 L608.541 701.685 L610.556 703.94 L612.57 706.185 L614.584 708.42 L616.598 710.644 L618.612 712.858 L620.627 715.062 L622.641 717.256 L624.655 719.44 L626.669 721.613 L628.683 723.777 L630.697 725.931 L632.712 728.076 L634.726 730.21 L636.74 732.335 L638.754 734.451 L640.768 736.557 L642.782 738.653 L644.797 740.741 L646.811 742.819 L648.825 744.888 L650.839 746.947 L652.853 748.998 L654.867 751.04 L656.882 753.073 L658.896 755.097 L660.91 757.112 L662.924 759.118 L664.938 761.116 L666.953 763.105 L668.967 765.086 L670.981 767.058 L672.995 769.022 L675.009 770.977 L677.023 772.924 L679.038 774.863 L681.052 776.794 L683.066 778.716 L685.08 780.63 L687.094 782.537 L689.108 784.435 L691.123 786.326 L693.137 788.208 L695.151 790.083 L697.165 791.95 L699.179 793.81 L701.193 795.661 L703.208 797.506 L705.222 799.342 L707.236 801.171 L709.25 802.993 L711.264 804.807 L713.279 806.614 L715.293 808.414 L717.307 810.206 L719.321 811.992 L721.335 813.77 L723.349 815.541 L725.364 817.305 L727.378 819.062 L729.392 820.811 L731.406 822.555 L733.42 824.291 L735.434 826.02 L737.449 827.743 L739.463 829.458 L741.477 831.168 L743.491 832.87 L745.505 834.566 L747.519 836.255 L749.534 837.938 L751.548 839.614 L753.562 841.284 L755.576 842.948 L757.59 844.605 L759.605 846.255 L761.619 847.9 L763.633 849.538 L765.647 851.17 L767.661 852.796 L769.675 854.416 L771.69 856.029 L773.704 857.637 L775.718 859.239 L777.732 860.834 L779.746 862.424 L781.76 864.008 L783.775 865.586 L785.789 867.158 L787.803 868.724 L789.817 870.285 L791.831 871.839 L793.845 873.389 L795.86 874.932 L797.874 876.47 L799.888 878.002 L801.902 879.529 L803.916 881.05 L805.931 882.566 L807.945 884.076 L809.959 885.581 L811.973 887.08 L813.987 888.574 L816.001 890.063 L818.016 891.547 L820.03 893.025 L822.044 894.498 L824.058 895.965 L826.072 897.428 L828.086 898.885 L830.101 900.338 L832.115 901.785 L834.129 903.227 L836.143 904.664 L838.157 906.096 L840.171 907.524 L842.186 908.946 L844.2 910.363 L846.214 911.776 L848.228 913.183 L850.242 914.586 L852.257 915.984 L854.271 917.377 L856.285 918.766 L858.299 920.15 L860.313 921.529 L862.327 922.903 L864.342 924.273 L866.356 925.638 L868.37 926.998 L870.384 928.354 L872.398 929.706 L874.412 931.053 L876.427 932.395 L878.441 933.733 L880.455 935.067 L882.469 936.396 L884.483 937.721 L886.498 939.041 L888.512 940.357 L890.526 941.669 L892.54 942.976 L894.554 944.279 L896.568 945.578 L898.583 946.873 L900.597 948.163 L902.611 949.449 L904.625 950.732 L906.639 952.009 L908.653 953.283 L910.668 954.553 L912.682 955.819 L914.696 957.08 L916.71 958.338 L918.724 959.592 L920.738 960.841 L922.753 962.087 L924.767 963.329 L926.781 964.566 L928.795 965.8 L930.809 967.03 L932.824 968.257 L934.838 969.479 L936.852 970.697 L938.866 971.912 L940.88 973.123 L942.894 974.33 L944.909 975.533 L946.923 976.733 L948.937 977.929 L950.951 979.121 L952.965 980.31 L954.979 981.495 L956.994 982.676 L959.008 983.854 L961.022 985.028 L963.036 986.199 L965.05 987.366 L967.064 988.529 L969.079 989.689 L971.093 990.845 L973.107 991.998 L975.121 993.148 L977.135 994.294 L979.15 995.436 L981.164 996.575 L983.178 997.711 L985.192 998.843 L987.206 999.972 L989.22 1001.1 L991.235 1002.22 L993.249 1003.34 L995.263 1004.46 L997.277 1005.57 L999.291 1006.68 L1001.31 1007.78 L1003.32 1008.89 L1005.33 1009.98 L1007.35 1011.08 L1009.36 1012.17 L1011.38 1013.26 L1013.39 1014.35 L1015.4 1015.43 L1017.42 1016.51 L1019.43 1017.59 L1021.45 1018.67 L1023.46 1019.74 L1025.48 1020.8 L1027.49 1021.87 L1029.5 1022.93 L1031.52 1023.99 L1033.53 1025.05 L1035.55 1026.1 L1037.56 1027.15 L1039.57 1028.2 L1041.59 1029.24 L1043.6 1030.28 L1045.62 1031.32 L1047.63 1032.35 L1049.65 1033.39 L1051.66 1034.42 L1053.67 1035.44 L1055.69 1036.47 L1057.7 1037.49 L1059.72 1038.5 L1061.73 1039.52 L1063.74 1040.53 L1065.76 1041.54 L1067.77 1042.55 L1069.79 1043.55 L1071.8 1044.55 L1073.82 1045.55 L1075.83 1046.55 L1077.84 1047.54 L1079.86 1048.53 L1081.87 1049.52 L1083.89 1050.5 L1085.9 1051.49 L1087.91 1052.46 L1089.93 1053.44 L1091.94 1054.42 L1093.96 1055.39 L1095.97 1056.36 L1097.99 1057.32 L1100 1058.29 L1102.01 1059.25 L1104.03 1060.21 L1106.04 1061.16 L1108.06 1062.12 L1110.07 1063.07 L1112.09 1064.02 L1114.1 1064.96 L1116.11 1065.91 L1118.13 1066.85 L1120.14 1067.79 L1122.16 1068.72 L1124.17 1069.65 L1126.18 1070.59 L1128.2 1071.51 L1130.21 1072.44 L1132.23 1073.37 L1134.24 1074.29 L1136.26 1075.21 L1138.27 1076.12 L1140.28 1077.04 L1142.3 1077.95 L1144.31 1078.86 L1146.33 1079.77 L1148.34 1080.67 L1150.35 1081.57 L1152.37 1082.47 L1154.38 1083.37 L1156.4 1084.27 L1158.41 1085.16 L1160.43 1086.05 L1162.44 1086.94 L1164.45 1087.83 L1166.47 1088.71 L1168.48 1089.59 L1170.5 1090.47 L1172.51 1091.35 L1174.52 1092.23 L1176.54 1093.1 L1178.55 1093.97 L1180.57 1094.84 L1182.58 1095.71 L1184.6 1096.57 L1186.61 1097.43 L1188.62 1098.29 L1190.64 1099.15 L1192.65 1100.01 L1194.67 1100.86 L1196.68 1101.71 L1198.69 1102.56 L1200.71 1103.41 L1202.72 1104.26 L1204.74 1105.1 L1206.75 1105.94 L1208.77 1106.78 L1210.78 1107.62 L1212.79 1108.45 L1214.81 1109.29 L1216.82 1110.12 L1218.84 1110.95 L1220.85 1111.77 L1222.86 1112.6 L1224.88 1113.42 L1226.89 1114.24 L1228.91 1115.06 L1230.92 1115.88 L1232.94 1116.69 L1234.95 1117.51 L1236.96 1118.32 L1238.98 1119.13 L1240.99 1119.94 L1243.01 1120.74 L1245.02 1121.54 L1247.03 1122.35 L1249.05 1123.15 L1251.06 1123.94 L1253.08 1124.74 L1255.09 1125.53 L1257.11 1126.33 L1259.12 1127.12 L1261.13 1127.91 L1263.15 1128.69 L1265.16 1129.48 L1267.18 1130.26 L1269.19 1131.04 L1271.2 1131.82 L1273.22 1132.6 L1275.23 1133.37 L1277.25 1134.15 L1279.26 1134.92 L1281.28 1135.69 L1283.29 1136.46 L1285.3 1137.23 L1287.32 1137.99 L1289.33 1138.75 L1291.35 1139.52 L1293.36 1140.27 L1295.37 1141.03 L1297.39 1141.79 L1299.4 1142.54 L1301.42 1143.3 L1303.43 1144.05 L1305.45 1144.8 L1307.46 1145.54 L1309.47 1146.29 L1311.49 1147.04 L1313.5 1147.78 L1315.52 1148.52 L1317.53 1149.26 L1319.54 1150 L1321.56 1150.73 L1323.57 1151.47 L1325.59 1152.2 L1327.6 1152.93 L1329.62 1153.66 L1331.63 1154.39 L1333.64 1155.11 L1335.66 1155.84 L1337.67 1156.56 L1339.69 1157.28 L1341.7 1158 L1343.72 1158.72 L1345.73 1159.44 L1347.74 1160.15 L1349.76 1160.87 L1351.77 1161.58 L1353.79 1162.29 L1355.8 1163 L1357.81 1163.7 L1359.83 1164.41 L1361.84 1165.11 L1363.86 1165.82 L1365.87 1166.52 L1367.89 1167.22 L1369.9 1167.91 L1371.91 1168.61 L1373.93 1169.31 L1375.94 1170 L1377.96 1170.69 L1379.97 1171.38 L1381.98 1172.07 L1384 1172.76 L1386.01 1173.45 L1388.03 1174.13 L1390.04 1174.81 L1392.06 1175.49 L1394.07 1176.17 L1396.08 1176.85 L1398.1 1177.53 L1400.11 1178.21 L1402.13 1178.88 L1404.14 1179.55 L1406.15 1180.23 L1408.17 1180.9 L1410.18 1181.57 L1412.2 1182.23 L1414.21 1182.9 L1416.23 1183.56 L1418.24 1184.23 L1420.25 1184.89 L1422.27 1185.55 L1424.28 1186.21 L1426.3 1186.87 L1428.31 1187.52 L1430.32 1188.18 L1432.34 1188.83 L1434.35 1189.48 L1436.37 1190.13 L1438.38 1190.78 L1440.4 1191.43 L1442.41 1192.08 L1444.42 1192.72 L1446.44 1193.37 L1448.45 1194.01 L1450.47 1194.65 L1452.48 1195.29 L1454.49 1195.93 L1456.51 1196.57 L1458.52 1197.2 L1460.54 1197.84 L1462.55 1198.47 L1464.57 1199.11 L1466.58 1199.74 L1468.59 1200.37 L1470.61 1201 L1472.62 1201.62 L1474.64 1202.25 L1476.65 1202.87 L1478.66 1203.5 L1480.68 1204.12 L1482.69 1204.74 L1484.71 1205.36 L1486.72 1205.98 L1488.74 1206.6 L1490.75 1207.21 L1492.76 1207.83 L1494.78 1208.44 L1496.79 1209.05 L1498.81 1209.66 L1500.82 1210.27 L1502.83 1210.88 L1504.85 1211.49 L1506.86 1212.1 L1508.88 1212.7 L1510.89 1213.31 L1512.91 1213.91 L1514.92 1214.51 L1516.93 1215.11 L1518.95 1215.71 L1520.96 1216.31 L1522.98 1216.91 L1524.99 1217.5 L1527 1218.1 L1529.02 1218.69 L1531.03 1219.28 L1533.05 1219.87 L1535.06 1220.46 L1537.08 1221.05 L1539.09 1221.64 L1541.1 1222.23 L1543.12 1222.81 L1545.13 1223.4 L1547.15 1223.98 L1549.16 1224.56 L1551.17 1225.14 L1553.19 1225.72 L1555.2 1226.3 L1557.22 1226.88 L1559.23 1227.45 L1561.25 1228.03 L1563.26 1228.6 L1565.27 1229.18 L1567.29 1229.75 L1569.3 1230.32 L1571.32 1230.89 L1573.33 1231.46 L1575.35 1232.03 L1577.36 1232.59 L1579.37 1233.16 L1581.39 1233.72 L1583.4 1234.29 L1585.42 1234.85 L1587.43 1235.41 L1589.44 1235.97 L1591.46 1236.53 L1593.47 1237.09 L1595.49 1237.65 L1597.5 1238.2 L1599.52 1238.76 L1601.53 1239.31 L1603.54 1239.86 L1605.56 1240.42 L1607.57 1240.97 L1609.59 1241.52 L1611.6 1242.07 L1613.61 1242.61 L1615.63 1243.16 L1617.64 1243.71 L1619.66 1244.25 L1621.67 1244.8 L1623.69 1245.34 L1625.7 1245.88 L1627.71 1246.42 L1629.73 1246.96 L1631.74 1247.5 L1633.76 1248.04 L1635.77 1248.58 L1637.78 1249.11 L1639.8 1249.65 L1641.81 1250.18 L1643.83 1250.71 L1645.84 1251.25 L1647.86 1251.78 L1649.87 1252.31 L1651.88 1252.84 L1653.9 1253.37 L1655.91 1253.89 L1657.93 1254.42 L1659.94 1254.94 L1661.95 1255.47 L1663.97 1255.99 L1665.98 1256.52 L1668 1257.04 L1670.01 1257.56 L1672.03 1258.08 L1674.04 1258.6 L1676.05 1259.11 L1678.07 1259.63 L1680.08 1260.15 L1682.1 1260.66 L1684.11 1261.18 L1686.12 1261.69 L1688.14 1262.2 L1690.15 1262.71 L1692.17 1263.23 L1694.18 1263.74 L1696.2 1264.24 L1698.21 1264.75 L1700.22 1265.26 L1702.24 1265.77 L1704.25 1266.27 L1706.27 1266.78 L1708.28 1267.28 L1710.29 1267.78 L1712.31 1268.28 L1714.32 1268.78 L1716.34 1269.28 L1718.35 1269.78 L1720.37 1270.28 L1722.38 1270.78 L1724.39 1271.28 L1726.41 1271.77 L1728.42 1272.27 L1730.44 1272.76 L1732.45 1273.25 L1734.46 1273.75 L1736.48 1274.24 L1738.49 1274.73 L1740.51 1275.22 L1742.52 1275.71 L1744.54 1276.19 L1746.55 1276.68 L1748.56 1277.17 L1750.58 1277.65 L1752.59 1278.14 L1754.61 1278.62 L1756.62 1279.11 L1758.63 1279.59 L1760.65 1280.07 L1762.66 1280.55 L1764.68 1281.03 L1766.69 1281.51 L1768.71 1281.99 L1770.72 1282.46 L1772.73 1282.94 L1774.75 1283.42 L1776.76 1283.89 L1778.78 1284.37 L1780.79 1284.84 L1782.81 1285.31 L1784.82 1285.78 L1786.83 1286.26 L1788.85 1286.73 L1790.86 1287.2 L1792.88 1287.66 L1794.89 1288.13 L1796.9 1288.6 L1798.92 1289.07 L1800.93 1289.53 L1802.95 1290 L1804.96 1290.46 L1806.98 1290.92 L1808.99 1291.39 L1811 1291.85 L1813.02 1292.31 L1815.03 1292.77 L1817.05 1293.23 L1819.06 1293.69 L1821.07 1294.14 L1823.09 1294.6 L1825.1 1295.06 L1827.12 1295.51 L1829.13 1295.97 L1831.15 1296.42 L1833.16 1296.88 L1835.17 1297.33 L1837.19 1297.78 L1839.2 1298.23 L1841.22 1298.68 L1843.23 1299.13 L1845.24 1299.58 L1847.26 1300.03 L1849.27 1300.48 L1851.29 1300.93 L1853.3 1301.37 L1855.32 1301.82 L1857.33 1302.26 L1859.34 1302.71 L1861.36 1303.15 L1863.37 1303.59 L1865.39 1304.03 L1867.4 1304.48 L1869.41 1304.92 L1871.43 1305.36 L1873.44 1305.79 L1875.46 1306.23 L1877.47 1306.67 L1879.49 1307.11 L1881.5 1307.54 L1883.51 1307.98 L1885.53 1308.41 L1887.54 1308.85 L1889.56 1309.28 L1891.57 1309.71 L1893.58 1310.15 L1895.6 1310.58 L1897.61 1311.01 L1899.63 1311.44 L1901.64 1311.87 L1903.66 1312.3 L1905.67 1312.73 L1907.68 1313.15 L1909.7 1313.58 L1911.71 1314.01 L1913.73 1314.43 L1915.74 1314.86 L1917.75 1315.28 L1919.77 1315.7 L1921.78 1316.13 L1923.8 1316.55 L1925.81 1316.97 L1927.83 1317.39 L1929.84 1317.81 L1931.85 1318.23 L1933.87 1318.65 L1935.88 1319.07 L1937.9 1319.49 L1939.91 1319.9 L1941.92 1320.32 L1943.94 1320.73 L1945.95 1321.15 L1947.97 1321.56 L1949.98 1321.98 L1952 1322.39 L1954.01 1322.8 L1956.02 1323.21 L1958.04 1323.63 L1960.05 1324.04 L1962.07 1324.45 L1964.08 1324.86 L1966.09 1325.26 L1968.11 1325.67 L1970.12 1326.08 L1972.14 1326.49 L1974.15 1326.89 L1976.17 1327.3 L1978.18 1327.7 L1980.19 1328.11 L1982.21 1328.51 L1984.22 1328.91 L1986.24 1329.32 L1988.25 1329.72 L1990.26 1330.12 L1992.28 1330.52 L1994.29 1330.92 L1996.31 1331.32 L1998.32 1331.72 L2000.34 1332.12 L2002.35 1332.52 L2004.36 1332.91 L2006.38 1333.31 L2008.39 1333.71 L2010.41 1334.1 L2012.42 1334.5 L2014.44 1334.89 L2016.45 1335.28 L2018.46 1335.68 L2020.48 1336.07 L2022.49 1336.46 L2024.51 1336.85 L2026.52 1337.24 L2028.53 1337.63 L2030.55 1338.02 L2032.56 1338.41 L2034.58 1338.8 L2036.59 1339.19 L2038.61 1339.57 L2040.62 1339.96 L2042.63 1340.35 L2044.65 1340.73 L2046.66 1341.12 L2048.68 1341.5 L2050.69 1341.89 L2052.7 1342.27 L2054.72 1342.65 L2056.73 1343.03 L2058.75 1343.42 L2060.76 1343.8 L2062.78 1344.18 L2064.79 1344.56 L2066.8 1344.94 L2068.82 1345.32 L2070.83 1345.69 L2072.85 1346.07 L2074.86 1346.45 L2076.87 1346.83 L2078.89 1347.2 L2080.9 1347.58 L2082.92 1347.95 L2084.93 1348.33 L2086.95 1348.7 L2088.96 1349.07 L2090.97 1349.45 L2092.99 1349.82 L2095 1350.19 L2097.02 1350.56 L2099.03 1350.93 L2101.04 1351.3 L2103.06 1351.67 L2105.07 1352.04 L2107.09 1352.41 L2109.1 1352.78 L2111.12 1353.15 L2113.13 1353.51 L2115.14 1353.88 L2117.16 1354.25 L2119.17 1354.61 L2121.19 1354.98 L2123.2 1355.34 L2125.21 1355.71 L2127.23 1356.07 L2129.24 1356.43 L2131.26 1356.8 L2133.27 1357.16 L2135.29 1357.52 L2137.3 1357.88 L2139.31 1358.24 L2141.33 1358.6 L2143.34 1358.96 L2145.36 1359.32 L2147.37 1359.68 L2149.38 1360.04 L2151.4 1360.39 L2153.41 1360.75 L2155.43 1361.11 L2157.44 1361.46 L2159.46 1361.82 L2161.47 1362.17 L2163.48 1362.53 L2165.5 1362.88 L2167.51 1363.23 L2169.53 1363.59 L2171.54 1363.94 L2173.55 1364.29 L2175.57 1364.64 L2177.58 1364.99 L2179.6 1365.34 L2181.61 1365.69 L2183.63 1366.04 L2185.64 1366.39 L2187.65 1366.74 L2189.67 1367.09 L2191.68 1367.44 L2193.7 1367.79 L2195.71 1368.13 L2197.72 1368.48 L2199.74 1368.82 L2201.75 1369.17 L2203.77 1369.51 L2205.78 1369.86 L2207.8 1370.2 L2209.81 1370.55 L2211.82 1370.89 L2213.84 1371.23 L2215.85 1371.57 L2217.87 1371.92 L2219.88 1372.26 L2221.9 1372.6 L2223.91 1372.94 L2225.92 1373.28 L2227.94 1373.62 L2229.95 1373.96 L2231.97 1374.29 L2233.98 1374.63 L2235.99 1374.97 L2238.01 1375.31 L2240.02 1375.64 L2242.04 1375.98 L2244.05 1376.31 L2246.07 1376.65 L2248.08 1376.98 L2250.09 1377.32 L2252.11 1377.65 L2254.12 1377.99 L2256.14 1378.32 L2258.15 1378.65 L2260.16 1378.98 L2262.18 1379.32 L2264.19 1379.65 L2266.21 1379.98 L2268.22 1380.31 L2270.24 1380.64 L2272.25 1380.97 L2274.26 1381.3 L2276.28 1381.62 L2278.29 1381.95 L2280.31 1382.28 L2282.32 1382.61 L2284.33 1382.93 L2286.35 1383.26 L2288.36 1383.59 L2290.38 1383.91 L2292.39 1384.24 L2292.39 1384.24 L2290.38 1383.91 L2288.36 1383.59 L2286.35 1383.26 L2284.33 1382.93 L2282.32 1382.61 L2280.31 1382.28 L2278.29 1381.95 L2276.28 1381.62 L2274.26 1381.3 L2272.25 1380.97 L2270.24 1380.64 L2268.22 1380.31 L2266.21 1379.98 L2264.19 1379.65 L2262.18 1379.32 L2260.16 1378.98 L2258.15 1378.65 L2256.14 1378.32 L2254.12 1377.99 L2252.11 1377.65 L2250.09 1377.32 L2248.08 1376.98 L2246.07 1376.65 L2244.05 1376.31 L2242.04 1375.98 L2240.02 1375.64 L2238.01 1375.31 L2235.99 1374.97 L2233.98 1374.63 L2231.97 1374.29 L2229.95 1373.96 L2227.94 1373.62 L2225.92 1373.28 L2223.91 1372.94 L2221.9 1372.6 L2219.88 1372.26 L2217.87 1371.92 L2215.85 1371.57 L2213.84 1371.23 L2211.82 1370.89 L2209.81 1370.55 L2207.8 1370.2 L2205.78 1369.86 L2203.77 1369.51 L2201.75 1369.17 L2199.74 1368.82 L2197.72 1368.48 L2195.71 1368.13 L2193.7 1367.79 L2191.68 1367.44 L2189.67 1367.09 L2187.65 1366.74 L2185.64 1366.39 L2183.63 1366.04 L2181.61 1365.69 L2179.6 1365.34 L2177.58 1364.99 L2175.57 1364.64 L2173.55 1364.29 L2171.54 1363.94 L2169.53 1363.59 L2167.51 1363.23 L2165.5 1362.88 L2163.48 1362.53 L2161.47 1362.17 L2159.46 1361.82 L2157.44 1361.46 L2155.43 1361.11 L2153.41 1360.75 L2151.4 1360.39 L2149.38 1360.04 L2147.37 1359.68 L2145.36 1359.32 L2143.34 1358.96 L2141.33 1358.6 L2139.31 1358.24 L2137.3 1357.88 L2135.29 1357.52 L2133.27 1357.16 L2131.26 1356.8 L2129.24 1356.43 L2127.23 1356.07 L2125.21 1355.71 L2123.2 1355.34 L2121.19 1354.98 L2119.17 1354.61 L2117.16 1354.25 L2115.14 1353.88 L2113.13 1353.51 L2111.12 1353.15 L2109.1 1352.78 L2107.09 1352.41 L2105.07 1352.04 L2103.06 1351.67 L2101.04 1351.3 L2099.03 1350.93 L2097.02 1350.56 L2095 1350.19 L2092.99 1349.82 L2090.97 1349.45 L2088.96 1349.07 L2086.95 1348.7 L2084.93 1348.33 L2082.92 1347.95 L2080.9 1347.58 L2078.89 1347.2 L2076.87 1346.83 L2074.86 1346.45 L2072.85 1346.07 L2070.83 1345.69 L2068.82 1345.32 L2066.8 1344.94 L2064.79 1344.56 L2062.78 1344.18 L2060.76 1343.8 L2058.75 1343.42 L2056.73 1343.03 L2054.72 1342.65 L2052.7 1342.27 L2050.69 1341.89 L2048.68 1341.5 L2046.66 1341.12 L2044.65 1340.73 L2042.63 1340.35 L2040.62 1339.96 L2038.61 1339.57 L2036.59 1339.19 L2034.58 1338.8 L2032.56 1338.41 L2030.55 1338.02 L2028.53 1337.63 L2026.52 1337.24 L2024.51 1336.85 L2022.49 1336.46 L2020.48 1336.07 L2018.46 1335.68 L2016.45 1335.28 L2014.44 1334.89 L2012.42 1334.5 L2010.41 1334.1 L2008.39 1333.71 L2006.38 1333.31 L2004.36 1332.91 L2002.35 1332.52 L2000.34 1332.12 L1998.32 1331.72 L1996.31 1331.32 L1994.29 1330.92 L1992.28 1330.52 L1990.26 1330.12 L1988.25 1329.72 L1986.24 1329.32 L1984.22 1328.91 L1982.21 1328.51 L1980.19 1328.11 L1978.18 1327.7 L1976.17 1327.3 L1974.15 1326.89 L1972.14 1326.49 L1970.12 1326.08 L1968.11 1325.67 L1966.09 1325.26 L1964.08 1324.86 L1962.07 1324.45 L1960.05 1324.04 L1958.04 1323.63 L1956.02 1323.21 L1954.01 1322.8 L1952 1322.39 L1949.98 1321.98 L1947.97 1321.56 L1945.95 1321.15 L1943.94 1320.73 L1941.92 1320.32 L1939.91 1319.9 L1937.9 1319.49 L1935.88 1319.07 L1933.87 1318.65 L1931.85 1318.23 L1929.84 1317.81 L1927.83 1317.39 L1925.81 1316.97 L1923.8 1316.55 L1921.78 1316.13 L1919.77 1315.7 L1917.75 1315.28 L1915.74 1314.86 L1913.73 1314.43 L1911.71 1314.01 L1909.7 1313.58 L1907.68 1313.15 L1905.67 1312.73 L1903.66 1312.3 L1901.64 1311.87 L1899.63 1311.44 L1897.61 1311.01 L1895.6 1310.58 L1893.58 1310.15 L1891.57 1309.71 L1889.56 1309.28 L1887.54 1308.85 L1885.53 1308.41 L1883.51 1307.98 L1881.5 1307.54 L1879.49 1307.11 L1877.47 1306.67 L1875.46 1306.23 L1873.44 1305.79 L1871.43 1305.36 L1869.41 1304.92 L1867.4 1304.48 L1865.39 1304.03 L1863.37 1303.59 L1861.36 1303.15 L1859.34 1302.71 L1857.33 1302.26 L1855.32 1301.82 L1853.3 1301.37 L1851.29 1300.93 L1849.27 1300.48 L1847.26 1300.03 L1845.24 1299.58 L1843.23 1299.13 L1841.22 1298.68 L1839.2 1298.23 L1837.19 1297.78 L1835.17 1297.33 L1833.16 1296.88 L1831.15 1296.42 L1829.13 1295.97 L1827.12 1295.51 L1825.1 1295.06 L1823.09 1294.6 L1821.07 1294.14 L1819.06 1293.69 L1817.05 1293.23 L1815.03 1292.77 L1813.02 1292.31 L1811 1291.85 L1808.99 1291.39 L1806.98 1290.92 L1804.96 1290.46 L1802.95 1290 L1800.93 1289.53 L1798.92 1289.07 L1796.9 1288.6 L1794.89 1288.13 L1792.88 1287.66 L1790.86 1287.2 L1788.85 1286.73 L1786.83 1286.26 L1784.82 1285.78 L1782.81 1285.31 L1780.79 1284.84 L1778.78 1284.37 L1776.76 1283.89 L1774.75 1283.42 L1772.73 1282.94 L1770.72 1282.46 L1768.71 1281.99 L1766.69 1281.51 L1764.68 1281.03 L1762.66 1280.55 L1760.65 1280.07 L1758.63 1279.59 L1756.62 1279.11 L1754.61 1278.62 L1752.59 1278.14 L1750.58 1277.65 L1748.56 1277.17 L1746.55 1276.68 L1744.54 1276.19 L1742.52 1275.71 L1740.51 1275.22 L1738.49 1274.73 L1736.48 1274.24 L1734.46 1273.75 L1732.45 1273.25 L1730.44 1272.76 L1728.42 1272.27 L1726.41 1271.77 L1724.39 1271.28 L1722.38 1270.78 L1720.37 1270.28 L1718.35 1269.78 L1716.34 1269.28 L1714.32 1268.78 L1712.31 1268.28 L1710.29 1267.78 L1708.28 1267.28 L1706.27 1266.78 L1704.25 1266.27 L1702.24 1265.77 L1700.22 1265.26 L1698.21 1264.75 L1696.2 1264.24 L1694.18 1263.74 L1692.17 1263.23 L1690.15 1262.71 L1688.14 1262.2 L1686.12 1261.69 L1684.11 1261.18 L1682.1 1260.66 L1680.08 1260.15 L1678.07 1259.63 L1676.05 1259.11 L1674.04 1258.6 L1672.03 1258.08 L1670.01 1257.56 L1668 1257.04 L1665.98 1256.52 L1663.97 1255.99 L1661.95 1255.47 L1659.94 1254.94 L1657.93 1254.42 L1655.91 1253.89 L1653.9 1253.37 L1651.88 1252.84 L1649.87 1252.31 L1647.86 1251.78 L1645.84 1251.25 L1643.83 1250.71 L1641.81 1250.18 L1639.8 1249.65 L1637.78 1249.11 L1635.77 1248.58 L1633.76 1248.04 L1631.74 1247.5 L1629.73 1246.96 L1627.71 1246.42 L1625.7 1245.88 L1623.69 1245.34 L1621.67 1244.8 L1619.66 1244.25 L1617.64 1243.71 L1615.63 1243.16 L1613.61 1242.61 L1611.6 1242.07 L1609.59 1241.52 L1607.57 1240.97 L1605.56 1240.42 L1603.54 1239.86 L1601.53 1239.31 L1599.52 1238.76 L1597.5 1238.2 L1595.49 1237.65 L1593.47 1237.09 L1591.46 1236.53 L1589.44 1235.97 L1587.43 1235.41 L1585.42 1234.85 L1583.4 1234.29 L1581.39 1233.72 L1579.37 1233.16 L1577.36 1232.59 L1575.35 1232.03 L1573.33 1231.46 L1571.32 1230.89 L1569.3 1230.32 L1567.29 1229.75 L1565.27 1229.18 L1563.26 1228.6 L1561.25 1228.03 L1559.23 1227.45 L1557.22 1226.88 L1555.2 1226.3 L1553.19 1225.72 L1551.17 1225.14 L1549.16 1224.56 L1547.15 1223.98 L1545.13 1223.4 L1543.12 1222.81 L1541.1 1222.23 L1539.09 1221.64 L1537.08 1221.05 L1535.06 1220.46 L1533.05 1219.87 L1531.03 1219.28 L1529.02 1218.69 L1527 1218.1 L1524.99 1217.5 L1522.98 1216.91 L1520.96 1216.31 L1518.95 1215.71 L1516.93 1215.11 L1514.92 1214.51 L1512.91 1213.91 L1510.89 1213.31 L1508.88 1212.7 L1506.86 1212.1 L1504.85 1211.49 L1502.83 1210.88 L1500.82 1210.27 L1498.81 1209.66 L1496.79 1209.05 L1494.78 1208.44 L1492.76 1207.83 L1490.75 1207.21 L1488.74 1206.6 L1486.72 1205.98 L1484.71 1205.36 L1482.69 1204.74 L1480.68 1204.12 L1478.66 1203.5 L1476.65 1202.87 L1474.64 1202.25 L1472.62 1201.62 L1470.61 1201 L1468.59 1200.37 L1466.58 1199.74 L1464.57 1199.11 L1462.55 1198.47 L1460.54 1197.84 L1458.52 1197.2 L1456.51 1196.57 L1454.49 1195.93 L1452.48 1195.29 L1450.47 1194.65 L1448.45 1194.01 L1446.44 1193.37 L1444.42 1192.72 L1442.41 1192.08 L1440.4 1191.43 L1438.38 1190.78 L1436.37 1190.13 L1434.35 1189.48 L1432.34 1188.83 L1430.32 1188.18 L1428.31 1187.52 L1426.3 1186.87 L1424.28 1186.21 L1422.27 1185.55 L1420.25 1184.89 L1418.24 1184.23 L1416.23 1183.56 L1414.21 1182.9 L1412.2 1182.23 L1410.18 1181.57 L1408.17 1180.9 L1406.15 1180.23 L1404.14 1179.55 L1402.13 1178.88 L1400.11 1178.21 L1398.1 1177.53 L1396.08 1176.85 L1394.07 1176.17 L1392.06 1175.49 L1390.04 1174.81 L1388.03 1174.13 L1386.01 1173.45 L1384 1172.76 L1381.98 1172.07 L1379.97 1171.38 L1377.96 1170.69 L1375.94 1170 L1373.93 1169.31 L1371.91 1168.61 L1369.9 1167.91 L1367.89 1167.22 L1365.87 1166.52 L1363.86 1165.82 L1361.84 1165.11 L1359.83 1164.41 L1357.81 1163.7 L1355.8 1163 L1353.79 1162.29 L1351.77 1161.58 L1349.76 1160.87 L1347.74 1160.15 L1345.73 1159.44 L1343.72 1158.72 L1341.7 1158 L1339.69 1157.28 L1337.67 1156.56 L1335.66 1155.84 L1333.64 1155.11 L1331.63 1154.39 L1329.62 1153.66 L1327.6 1152.93 L1325.59 1152.2 L1323.57 1151.47 L1321.56 1150.73 L1319.54 1150 L1317.53 1149.26 L1315.52 1148.52 L1313.5 1147.78 L1311.49 1147.04 L1309.47 1146.29 L1307.46 1145.54 L1305.45 1144.8 L1303.43 1144.05 L1301.42 1143.3 L1299.4 1142.54 L1297.39 1141.79 L1295.37 1141.03 L1293.36 1140.27 L1291.35 1139.52 L1289.33 1138.75 L1287.32 1137.99 L1285.3 1137.23 L1283.29 1136.46 L1281.28 1135.69 L1279.26 1134.92 L1277.25 1134.15 L1275.23 1133.37 L1273.22 1132.6 L1271.2 1131.82 L1269.19 1131.04 L1267.18 1130.26 L1265.16 1129.48 L1263.15 1128.69 L1261.13 1127.91 L1259.12 1127.12 L1257.11 1126.33 L1255.09 1125.53 L1253.08 1124.74 L1251.06 1123.94 L1249.05 1123.15 L1247.03 1122.35 L1245.02 1121.54 L1243.01 1120.74 L1240.99 1119.94 L1238.98 1119.13 L1236.96 1118.32 L1234.95 1117.51 L1232.94 1116.69 L1230.92 1115.88 L1228.91 1115.06 L1226.89 1114.24 L1224.88 1113.42 L1222.86 1112.6 L1220.85 1111.77 L1218.84 1110.95 L1216.82 1110.12 L1214.81 1109.29 L1212.79 1108.45 L1210.78 1107.62 L1208.77 1106.78 L1206.75 1105.94 L1204.74 1105.1 L1202.72 1104.26 L1200.71 1103.41 L1198.69 1102.56 L1196.68 1101.71 L1194.67 1100.86 L1192.65 1100.01 L1190.64 1099.15 L1188.62 1098.29 L1186.61 1097.43 L1184.6 1096.57 L1182.58 1095.71 L1180.57 1094.84 L1178.55 1093.97 L1176.54 1093.1 L1174.52 1092.23 L1172.51 1091.35 L1170.5 1090.47 L1168.48 1089.59 L1166.47 1088.71 L1164.45 1087.83 L1162.44 1086.94 L1160.43 1086.05 L1158.41 1085.16 L1156.4 1084.27 L1154.38 1083.37 L1152.37 1082.47 L1150.35 1081.57 L1148.34 1080.67 L1146.33 1079.77 L1144.31 1078.86 L1142.3 1077.95 L1140.28 1077.04 L1138.27 1076.12 L1136.26 1075.21 L1134.24 1074.29 L1132.23 1073.37 L1130.21 1072.44 L1128.2 1071.51 L1126.18 1070.59 L1124.17 1069.65 L1122.16 1068.72 L1120.14 1067.79 L1118.13 1066.85 L1116.11 1065.91 L1114.1 1064.96 L1112.09 1064.02 L1110.07 1063.07 L1108.06 1062.12 L1106.04 1061.16 L1104.03 1060.21 L1102.01 1059.25 L1100 1058.29 L1097.99 1057.32 L1095.97 1056.36 L1093.96 1055.39 L1091.94 1054.42 L1089.93 1053.44 L1087.91 1052.46 L1085.9 1051.49 L1083.89 1050.5 L1081.87 1049.52 L1079.86 1048.53 L1077.84 1047.54 L1075.83 1046.55 L1073.82 1045.55 L1071.8 1044.55 L1069.79 1043.55 L1067.77 1042.55 L1065.76 1041.54 L1063.74 1040.53 L1061.73 1039.52 L1059.72 1038.5 L1057.7 1037.49 L1055.69 1036.47 L1053.67 1035.44 L1051.66 1034.42 L1049.65 1033.39 L1047.63 1032.35 L1045.62 1031.32 L1043.6 1030.28 L1041.59 1029.24 L1039.57 1028.2 L1037.56 1027.15 L1035.55 1026.1 L1033.53 1025.05 L1031.52 1023.99 L1029.5 1022.93 L1027.49 1021.87 L1025.48 1020.8 L1023.46 1019.74 L1021.45 1018.67 L1019.43 1017.59 L1017.42 1016.51 L1015.4 1015.43 L1013.39 1014.35 L1011.38 1013.26 L1009.36 1012.17 L1007.35 1011.08 L1005.33 1009.98 L1003.32 1008.89 L1001.31 1007.78 L999.291 1006.68 L997.277 1005.57 L995.263 1004.46 L993.249 1003.34 L991.235 1002.22 L989.22 1001.1 L987.206 999.972 L985.192 998.843 L983.178 997.711 L981.164 996.575 L979.15 995.436 L977.135 994.294 L975.121 993.148 L973.107 991.998 L971.093 990.845 L969.079 989.689 L967.064 988.529 L965.05 987.366 L963.036 986.199 L961.022 985.028 L959.008 983.854 L956.994 982.676 L954.979 981.495 L952.965 980.31 L950.951 979.121 L948.937 977.929 L946.923 976.733 L944.909 975.533 L942.894 974.33 L940.88 973.123 L938.866 971.912 L936.852 970.697 L934.838 969.479 L932.824 968.257 L930.809 967.03 L928.795 965.8 L926.781 964.566 L924.767 963.329 L922.753 962.087 L920.738 960.841 L918.724 959.592 L916.71 958.338 L914.696 957.08 L912.682 955.819 L910.668 954.553 L908.653 953.283 L906.639 952.009 L904.625 950.732 L902.611 949.449 L900.597 948.163 L898.583 946.873 L896.568 945.578 L894.554 944.279 L892.54 942.976 L890.526 941.669 L888.512 940.357 L886.498 939.041 L884.483 937.721 L882.469 936.396 L880.455 935.067 L878.441 933.733 L876.427 932.395 L874.412 931.053 L872.398 929.706 L870.384 928.354 L868.37 926.998 L866.356 925.638 L864.342 924.273 L862.327 922.903 L860.313 921.529 L858.299 920.15 L856.285 918.766 L854.271 917.377 L852.257 915.984 L850.242 914.586 L848.228 913.183 L846.214 911.776 L844.2 910.363 L842.186 908.946 L840.171 907.524 L838.157 906.096 L836.143 904.664 L834.129 903.227 L832.115 901.785 L830.101 900.338 L828.086 898.885 L826.072 897.428 L824.058 895.965 L822.044 894.498 L820.03 893.025 L818.016 891.547 L816.001 890.063 L813.987 888.574 L811.973 887.08 L809.959 885.581 L807.945 884.076 L805.931 882.566 L803.916 881.05 L801.902 879.529 L799.888 878.002 L797.874 876.47 L795.86 874.932 L793.845 873.389 L791.831 871.839 L789.817 870.285 L787.803 868.724 L785.789 867.158 L783.775 865.586 L781.76 864.008 L779.746 862.424 L777.732 860.834 L775.718 859.239 L773.704 857.637 L771.69 856.029 L769.675 854.416 L767.661 852.796 L765.647 851.17 L763.633 849.538 L761.619 847.9 L759.605 846.255 L757.59 844.605 L755.576 842.948 L753.562 841.284 L751.548 839.614 L749.534 837.938 L747.519 836.255 L745.505 834.566 L743.491 832.87 L741.477 831.168 L739.463 829.458 L737.449 827.743 L735.434 826.02 L733.42 824.291 L731.406 822.555 L729.392 820.811 L727.378 819.062 L725.364 817.305 L723.349 815.541 L721.335 813.77 L719.321 811.992 L717.307 810.206 L715.293 808.414 L713.279 806.614 L711.264 804.807 L709.25 802.993 L707.236 801.171 L705.222 799.342 L703.208 797.506 L701.193 795.661 L699.179 793.81 L697.165 791.95 L695.151 790.083 L693.137 788.208 L691.123 786.326 L689.108 784.435 L687.094 782.537 L685.08 780.63 L683.066 778.716 L681.052 776.794 L679.038 774.863 L677.023 772.924 L675.009 770.977 L672.995 769.022 L670.981 767.058 L668.967 765.086 L666.953 763.105 L664.938 761.116 L662.924 759.118 L660.91 757.112 L658.896 755.097 L656.882 753.073 L654.867 751.04 L652.853 748.998 L650.839 746.947 L648.825 744.888 L646.811 742.819 L644.797 740.741 L642.782 738.653 L640.768 736.557 L638.754 734.451 L636.74 732.335 L634.726 730.21 L632.712 728.076 L630.697 725.931 L628.683 723.777 L626.669 721.613 L624.655 719.44 L622.641 717.256 L620.627 715.062 L618.612 712.858 L616.598 710.644 L614.584 708.42 L612.57 706.185 L610.556 703.94 L608.541 701.685 L606.527 699.418 L604.513 697.142 L602.499 694.854 L600.485 692.556 L598.471 690.246 L596.456 687.926 L594.442 685.594 L592.428 683.251 L590.414 680.897 L588.4 678.532 L586.386 676.155 L584.371 673.767 L582.357 671.367 L580.343 668.955 L578.329 666.532 L576.315 664.096 L574.301 661.649 L572.286 659.189 L570.272 656.717 L568.258 654.233 L566.244 651.736 L564.23 649.227 L562.215 646.705 L560.201 644.171 L558.187 641.624 L556.173 639.063 L554.159 636.49 L552.145 633.903 L550.13 631.304 L548.116 628.691 L546.102 626.064 L544.088 623.423 L542.074 620.769 L540.06 618.102 L538.045 615.42 L536.031 612.724 L534.017 610.013 L532.003 607.289 L529.989 604.55 L527.974 601.796 L525.96 599.028 L523.946 596.245 L521.932 593.446 L519.918 590.633 L517.904 587.805 L515.889 584.961 L513.875 582.101 L511.861 579.226 L509.847 576.335 L507.833 573.428 L505.819 570.505 L503.804 567.566 L501.79 564.61 L499.776 561.638 L497.762 558.649 L495.748 555.643 L493.734 552.62 L491.719 549.58 L489.705 546.523 L487.691 543.448 L485.677 540.356 L483.663 537.245 L481.648 534.117 L479.634 530.97 L477.62 527.806 L475.606 524.622 L473.592 521.42 L471.578 518.199 L469.563 514.959 L467.549 511.7 L465.535 508.421 L463.521 505.123 L461.507 501.804 L459.493 498.466 L457.478 495.108 L455.464 491.729 L453.45 488.329 L451.436 484.909 L449.422 481.467 L447.408 478.005 L445.393 474.52 L443.379 471.014 L441.365 467.487 L439.351 463.937 L437.337 460.364 L435.322 456.769 L433.308 453.151 L431.294 449.51 L429.28 445.846 L427.266 442.158 L425.252 438.447 L423.237 434.711 L421.223 430.951 L419.209 427.166 L417.195 423.356 L415.181 419.522 L413.167 415.661 L411.152 411.775 L409.138 407.864 L407.124 403.925 L405.11 399.961 L403.096 395.969 L401.082 391.951 L399.067 387.904 L397.053 383.831 L395.039 379.729 L393.025 375.598 L391.011 371.439 L388.996 367.251 L386.982 363.033 L384.968 358.786 L382.954 354.509 L380.94 350.201 L378.926 345.863 L376.911 341.493 L374.897 337.092 L372.883 332.659 L370.869 328.193 L368.855 323.695 L366.841 319.164 L364.826 314.6 L362.812 310.002 L360.798 305.369 L358.784 300.702 L356.77 296 L354.756 291.262 L352.741 286.488 L350.727 281.677 L348.713 276.83 L346.699 271.946 L344.685 267.023 L342.67 262.063 L340.656 257.063 L338.642 252.024 L336.628 246.946 L334.614 241.827 L332.6 236.667 L330.585 231.465 L328.571 226.222 L326.557 220.937 L324.543 215.608 L322.529 210.235 L320.515 204.819 L318.5 199.357 L316.486 193.85 L314.472 188.297 L312.458 182.698 L310.444 177.051 L308.43 171.356 L306.415 165.612 L304.401 159.819 L302.387 153.976 L300.373 148.082 L298.359 142.137 L296.344 136.139 L294.33 130.089 L292.316 123.985 L290.302 117.826 L288.288 111.612 L286.274 105.342 L284.259 99.0144 L282.245 92.6294 L280.231 86.1857  Z" fill="#000000" fill-rule="evenodd" fill-opacity="0.5"/>
<polyline clip-path="url(#clip252)" style="stroke:#000000; stroke-linecap:round; stroke-linejoin:round; stroke-width:4; stroke-opacity:1; fill:none" stroke-dasharray="16, 10" points="280.231,86.1857 282.245,92.6294 284.259,99.0144 286.274,105.342 288.288,111.612 290.302,117.826 292.316,123.985 294.33,130.089 296.344,136.139 298.359,142.137 300.373,148.082 302.387,153.976 304.401,159.819 306.415,165.612 308.43,171.356 310.444,177.051 312.458,182.698 314.472,188.297 316.486,193.85 318.5,199.357 320.515,204.819 322.529,210.235 324.543,215.608 326.557,220.937 328.571,226.222 330.585,231.465 332.6,236.667 334.614,241.827 336.628,246.946 338.642,252.024 340.656,257.063 342.67,262.063 344.685,267.023 346.699,271.946 348.713,276.83 350.727,281.677 352.741,286.488 354.756,291.262 356.77,296 358.784,300.702 360.798,305.369 362.812,310.002 364.826,314.6 366.841,319.164 368.855,323.695 370.869,328.193 372.883,332.659 374.897,337.092 376.911,341.493 378.926,345.863 380.94,350.201 382.954,354.509 384.968,358.786 386.982,363.033 388.996,367.251 391.011,371.439 393.025,375.598 395.039,379.729 397.053,383.831 399.067,387.904 401.082,391.951 403.096,395.969 405.11,399.961 407.124,403.925 409.138,407.864 411.152,411.775 413.167,415.661 415.181,419.522 417.195,423.356 419.209,427.166 421.223,430.951 423.237,434.711 425.252,438.447 427.266,442.158 429.28,445.846 431.294,449.51 433.308,453.151 435.322,456.769 437.337,460.364 439.351,463.937 441.365,467.487 443.379,471.014 445.393,474.52 447.408,478.005 449.422,481.467 451.436,484.909 453.45,488.329 455.464,491.729 457.478,495.108 459.493,498.466 461.507,501.804 463.521,505.123 465.535,508.421 467.549,511.7 469.563,514.959 471.578,518.199 473.592,521.42 475.606,524.622 477.62,527.806 479.634,530.97 481.648,534.117 483.663,537.245 485.677,540.356 487.691,543.448 489.705,546.523 491.719,549.58 493.734,552.62 495.748,555.643 497.762,558.649 499.776,561.638 501.79,564.61 503.804,567.566 505.819,570.505 507.833,573.428 509.847,576.335 511.861,579.226 513.875,582.101 515.889,584.961 517.904,587.805 519.918,590.633 521.932,593.446 523.946,596.245 525.96,599.028 527.974,601.796 529.989,604.55 532.003,607.289 534.017,610.013 536.031,612.724 538.045,615.42 540.06,618.102 542.074,620.769 544.088,623.423 546.102,626.064 548.116,628.691 550.13,631.304 552.145,633.903 554.159,636.49 556.173,639.063 558.187,641.624 560.201,644.171 562.215,646.705 564.23,649.227 566.244,651.736 568.258,654.233 570.272,656.717 572.286,659.189 574.301,661.649 576.315,664.096 578.329,666.532 580.343,668.955 582.357,671.367 584.371,673.767 586.386,676.155 588.4,678.532 590.414,680.897 592.428,683.251 594.442,685.594 596.456,687.926 598.471,690.246 600.485,692.556 602.499,694.854 604.513,697.142 606.527,699.418 608.541,701.685 610.556,703.94 612.57,706.185 614.584,708.42 616.598,710.644 618.612,712.858 620.627,715.062 622.641,717.256 624.655,719.44 626.669,721.613 628.683,723.777 630.697,725.931 632.712,728.076 634.726,730.21 636.74,732.335 638.754,734.451 640.768,736.557 642.782,738.653 644.797,740.741 646.811,742.819 648.825,744.888 650.839,746.947 652.853,748.998 654.867,751.04 656.882,753.073 658.896,755.097 660.91,757.112 662.924,759.118 664.938,761.116 666.953,763.105 668.967,765.086 670.981,767.058 672.995,769.022 675.009,770.977 677.023,772.924 679.038,774.863 681.052,776.794 683.066,778.716 685.08,780.63 687.094,782.537 689.108,784.435 691.123,786.326 693.137,788.208 695.151,790.083 697.165,791.95 699.179,793.81 701.193,795.661 703.208,797.506 705.222,799.342 707.236,801.171 709.25,802.993 711.264,804.807 713.279,806.614 715.293,808.414 717.307,810.206 719.321,811.992 721.335,813.77 723.349,815.541 725.364,817.305 727.378,819.062 729.392,820.811 731.406,822.555 733.42,824.291 735.434,826.02 737.449,827.743 739.463,829.458 741.477,831.168 743.491,832.87 745.505,834.566 747.519,836.255 749.534,837.938 751.548,839.614 753.562,841.284 755.576,842.948 757.59,844.605 759.605,846.255 761.619,847.9 763.633,849.538 765.647,851.17 767.661,852.796 769.675,854.416 771.69,856.029 773.704,857.637 775.718,859.239 777.732,860.834 779.746,862.424 781.76,864.008 783.775,865.586 785.789,867.158 787.803,868.724 789.817,870.285 791.831,871.839 793.845,873.389 795.86,874.932 797.874,876.47 799.888,878.002 801.902,879.529 803.916,881.05 805.931,882.566 807.945,884.076 809.959,885.581 811.973,887.08 813.987,888.574 816.001,890.063 818.016,891.547 820.03,893.025 822.044,894.498 824.058,895.965 826.072,897.428 828.086,898.885 830.101,900.338 832.115,901.785 834.129,903.227 836.143,904.664 838.157,906.096 840.171,907.524 842.186,908.946 844.2,910.363 846.214,911.776 848.228,913.183 850.242,914.586 852.257,915.984 854.271,917.377 856.285,918.766 858.299,920.15 860.313,921.529 862.327,922.903 864.342,924.273 866.356,925.638 868.37,926.998 870.384,928.354 872.398,929.706 874.412,931.053 876.427,932.395 878.441,933.733 880.455,935.067 882.469,936.396 884.483,937.721 886.498,939.041 888.512,940.357 890.526,941.669 892.54,942.976 894.554,944.279 896.568,945.578 898.583,946.873 900.597,948.163 902.611,949.449 904.625,950.732 906.639,952.009 908.653,953.283 910.668,954.553 912.682,955.819 914.696,957.08 916.71,958.338 918.724,959.592 920.738,960.841 922.753,962.087 924.767,963.329 926.781,964.566 928.795,965.8 930.809,967.03 932.824,968.257 934.838,969.479 936.852,970.697 938.866,971.912 940.88,973.123 942.894,974.33 944.909,975.533 946.923,976.733 948.937,977.929 950.951,979.121 952.965,980.31 954.979,981.495 956.994,982.676 959.008,983.854 961.022,985.028 963.036,986.199 965.05,987.366 967.064,988.529 969.079,989.689 971.093,990.845 973.107,991.998 975.121,993.148 977.135,994.294 979.15,995.436 981.164,996.575 983.178,997.711 985.192,998.843 987.206,999.972 989.22,1001.1 991.235,1002.22 993.249,1003.34 995.263,1004.46 997.277,1005.57 999.291,1006.68 1001.31,1007.78 1003.32,1008.89 1005.33,1009.98 1007.35,1011.08 1009.36,1012.17 1011.38,1013.26 1013.39,1014.35 1015.4,1015.43 1017.42,1016.51 1019.43,1017.59 1021.45,1018.67 1023.46,1019.74 1025.48,1020.8 1027.49,1021.87 1029.5,1022.93 1031.52,1023.99 1033.53,1025.05 1035.55,1026.1 1037.56,1027.15 1039.57,1028.2 1041.59,1029.24 1043.6,1030.28 1045.62,1031.32 1047.63,1032.35 1049.65,1033.39 1051.66,1034.42 1053.67,1035.44 1055.69,1036.47 1057.7,1037.49 1059.72,1038.5 1061.73,1039.52 1063.74,1040.53 1065.76,1041.54 1067.77,1042.55 1069.79,1043.55 1071.8,1044.55 1073.82,1045.55 1075.83,1046.55 1077.84,1047.54 1079.86,1048.53 1081.87,1049.52 1083.89,1050.5 1085.9,1051.49 1087.91,1052.46 1089.93,1053.44 1091.94,1054.42 1093.96,1055.39 1095.97,1056.36 1097.99,1057.32 1100,1058.29 1102.01,1059.25 1104.03,1060.21 1106.04,1061.16 1108.06,1062.12 1110.07,1063.07 1112.09,1064.02 1114.1,1064.96 1116.11,1065.91 1118.13,1066.85 1120.14,1067.79 1122.16,1068.72 1124.17,1069.65 1126.18,1070.59 1128.2,1071.51 1130.21,1072.44 1132.23,1073.37 1134.24,1074.29 1136.26,1075.21 1138.27,1076.12 1140.28,1077.04 1142.3,1077.95 1144.31,1078.86 1146.33,1079.77 1148.34,1080.67 1150.35,1081.57 1152.37,1082.47 1154.38,1083.37 1156.4,1084.27 1158.41,1085.16 1160.43,1086.05 1162.44,1086.94 1164.45,1087.83 1166.47,1088.71 1168.48,1089.59 1170.5,1090.47 1172.51,1091.35 1174.52,1092.23 1176.54,1093.1 1178.55,1093.97 1180.57,1094.84 1182.58,1095.71 1184.6,1096.57 1186.61,1097.43 1188.62,1098.29 1190.64,1099.15 1192.65,1100.01 1194.67,1100.86 1196.68,1101.71 1198.69,1102.56 1200.71,1103.41 1202.72,1104.26 1204.74,1105.1 1206.75,1105.94 1208.77,1106.78 1210.78,1107.62 1212.79,1108.45 1214.81,1109.29 1216.82,1110.12 1218.84,1110.95 1220.85,1111.77 1222.86,1112.6 1224.88,1113.42 1226.89,1114.24 1228.91,1115.06 1230.92,1115.88 1232.94,1116.69 1234.95,1117.51 1236.96,1118.32 1238.98,1119.13 1240.99,1119.94 1243.01,1120.74 1245.02,1121.54 1247.03,1122.35 1249.05,1123.15 1251.06,1123.94 1253.08,1124.74 1255.09,1125.53 1257.11,1126.33 1259.12,1127.12 1261.13,1127.91 1263.15,1128.69 1265.16,1129.48 1267.18,1130.26 1269.19,1131.04 1271.2,1131.82 1273.22,1132.6 1275.23,1133.37 1277.25,1134.15 1279.26,1134.92 1281.28,1135.69 1283.29,1136.46 1285.3,1137.23 1287.32,1137.99 1289.33,1138.75 1291.35,1139.52 1293.36,1140.27 1295.37,1141.03 1297.39,1141.79 1299.4,1142.54 1301.42,1143.3 1303.43,1144.05 1305.45,1144.8 1307.46,1145.54 1309.47,1146.29 1311.49,1147.04 1313.5,1147.78 1315.52,1148.52 1317.53,1149.26 1319.54,1150 1321.56,1150.73 1323.57,1151.47 1325.59,1152.2 1327.6,1152.93 1329.62,1153.66 1331.63,1154.39 1333.64,1155.11 1335.66,1155.84 1337.67,1156.56 1339.69,1157.28 1341.7,1158 1343.72,1158.72 1345.73,1159.44 1347.74,1160.15 1349.76,1160.87 1351.77,1161.58 1353.79,1162.29 1355.8,1163 1357.81,1163.7 1359.83,1164.41 1361.84,1165.11 1363.86,1165.82 1365.87,1166.52 1367.89,1167.22 1369.9,1167.91 1371.91,1168.61 1373.93,1169.31 1375.94,1170 1377.96,1170.69 1379.97,1171.38 1381.98,1172.07 1384,1172.76 1386.01,1173.45 1388.03,1174.13 1390.04,1174.81 1392.06,1175.49 1394.07,1176.17 1396.08,1176.85 1398.1,1177.53 1400.11,1178.21 1402.13,1178.88 1404.14,1179.55 1406.15,1180.23 1408.17,1180.9 1410.18,1181.57 1412.2,1182.23 1414.21,1182.9 1416.23,1183.56 1418.24,1184.23 1420.25,1184.89 1422.27,1185.55 1424.28,1186.21 1426.3,1186.87 1428.31,1187.52 1430.32,1188.18 1432.34,1188.83 1434.35,1189.48 1436.37,1190.13 1438.38,1190.78 1440.4,1191.43 1442.41,1192.08 1444.42,1192.72 1446.44,1193.37 1448.45,1194.01 1450.47,1194.65 1452.48,1195.29 1454.49,1195.93 1456.51,1196.57 1458.52,1197.2 1460.54,1197.84 1462.55,1198.47 1464.57,1199.11 1466.58,1199.74 1468.59,1200.37 1470.61,1201 1472.62,1201.62 1474.64,1202.25 1476.65,1202.87 1478.66,1203.5 1480.68,1204.12 1482.69,1204.74 1484.71,1205.36 1486.72,1205.98 1488.74,1206.6 1490.75,1207.21 1492.76,1207.83 1494.78,1208.44 1496.79,1209.05 1498.81,1209.66 1500.82,1210.27 1502.83,1210.88 1504.85,1211.49 1506.86,1212.1 1508.88,1212.7 1510.89,1213.31 1512.91,1213.91 1514.92,1214.51 1516.93,1215.11 1518.95,1215.71 1520.96,1216.31 1522.98,1216.91 1524.99,1217.5 1527,1218.1 1529.02,1218.69 1531.03,1219.28 1533.05,1219.87 1535.06,1220.46 1537.08,1221.05 1539.09,1221.64 1541.1,1222.23 1543.12,1222.81 1545.13,1223.4 1547.15,1223.98 1549.16,1224.56 1551.17,1225.14 1553.19,1225.72 1555.2,1226.3 1557.22,1226.88 1559.23,1227.45 1561.25,1228.03 1563.26,1228.6 1565.27,1229.18 1567.29,1229.75 1569.3,1230.32 1571.32,1230.89 1573.33,1231.46 1575.35,1232.03 1577.36,1232.59 1579.37,1233.16 1581.39,1233.72 1583.4,1234.29 1585.42,1234.85 1587.43,1235.41 1589.44,1235.97 1591.46,1236.53 1593.47,1237.09 1595.49,1237.65 1597.5,1238.2 1599.52,1238.76 1601.53,1239.31 1603.54,1239.86 1605.56,1240.42 1607.57,1240.97 1609.59,1241.52 1611.6,1242.07 1613.61,1242.61 1615.63,1243.16 1617.64,1243.71 1619.66,1244.25 1621.67,1244.8 1623.69,1245.34 1625.7,1245.88 1627.71,1246.42 1629.73,1246.96 1631.74,1247.5 1633.76,1248.04 1635.77,1248.58 1637.78,1249.11 1639.8,1249.65 1641.81,1250.18 1643.83,1250.71 1645.84,1251.25 1647.86,1251.78 1649.87,1252.31 1651.88,1252.84 1653.9,1253.37 1655.91,1253.89 1657.93,1254.42 1659.94,1254.94 1661.95,1255.47 1663.97,1255.99 1665.98,1256.52 1668,1257.04 1670.01,1257.56 1672.03,1258.08 1674.04,1258.6 1676.05,1259.11 1678.07,1259.63 1680.08,1260.15 1682.1,1260.66 1684.11,1261.18 1686.12,1261.69 1688.14,1262.2 1690.15,1262.71 1692.17,1263.23 1694.18,1263.74 1696.2,1264.24 1698.21,1264.75 1700.22,1265.26 1702.24,1265.77 1704.25,1266.27 1706.27,1266.78 1708.28,1267.28 1710.29,1267.78 1712.31,1268.28 1714.32,1268.78 1716.34,1269.28 1718.35,1269.78 1720.37,1270.28 1722.38,1270.78 1724.39,1271.28 1726.41,1271.77 1728.42,1272.27 1730.44,1272.76 1732.45,1273.25 1734.46,1273.75 1736.48,1274.24 1738.49,1274.73 1740.51,1275.22 1742.52,1275.71 1744.54,1276.19 1746.55,1276.68 1748.56,1277.17 1750.58,1277.65 1752.59,1278.14 1754.61,1278.62 1756.62,1279.11 1758.63,1279.59 1760.65,1280.07 1762.66,1280.55 1764.68,1281.03 1766.69,1281.51 1768.71,1281.99 1770.72,1282.46 1772.73,1282.94 1774.75,1283.42 1776.76,1283.89 1778.78,1284.37 1780.79,1284.84 1782.81,1285.31 1784.82,1285.78 1786.83,1286.26 1788.85,1286.73 1790.86,1287.2 1792.88,1287.66 1794.89,1288.13 1796.9,1288.6 1798.92,1289.07 1800.93,1289.53 1802.95,1290 1804.96,1290.46 1806.98,1290.92 1808.99,1291.39 1811,1291.85 1813.02,1292.31 1815.03,1292.77 1817.05,1293.23 1819.06,1293.69 1821.07,1294.14 1823.09,1294.6 1825.1,1295.06 1827.12,1295.51 1829.13,1295.97 1831.15,1296.42 1833.16,1296.88 1835.17,1297.33 1837.19,1297.78 1839.2,1298.23 1841.22,1298.68 1843.23,1299.13 1845.24,1299.58 1847.26,1300.03 1849.27,1300.48 1851.29,1300.93 1853.3,1301.37 1855.32,1301.82 1857.33,1302.26 1859.34,1302.71 1861.36,1303.15 1863.37,1303.59 1865.39,1304.03 1867.4,1304.48 1869.41,1304.92 1871.43,1305.36 1873.44,1305.79 1875.46,1306.23 1877.47,1306.67 1879.49,1307.11 1881.5,1307.54 1883.51,1307.98 1885.53,1308.41 1887.54,1308.85 1889.56,1309.28 1891.57,1309.71 1893.58,1310.15 1895.6,1310.58 1897.61,1311.01 1899.63,1311.44 1901.64,1311.87 1903.66,1312.3 1905.67,1312.73 1907.68,1313.15 1909.7,1313.58 1911.71,1314.01 1913.73,1314.43 1915.74,1314.86 1917.75,1315.28 1919.77,1315.7 1921.78,1316.13 1923.8,1316.55 1925.81,1316.97 1927.83,1317.39 1929.84,1317.81 1931.85,1318.23 1933.87,1318.65 1935.88,1319.07 1937.9,1319.49 1939.91,1319.9 1941.92,1320.32 1943.94,1320.73 1945.95,1321.15 1947.97,1321.56 1949.98,1321.98 1952,1322.39 1954.01,1322.8 1956.02,1323.21 1958.04,1323.63 1960.05,1324.04 1962.07,1324.45 1964.08,1324.86 1966.09,1325.26 1968.11,1325.67 1970.12,1326.08 1972.14,1326.49 1974.15,1326.89 1976.17,1327.3 1978.18,1327.7 1980.19,1328.11 1982.21,1328.51 1984.22,1328.91 1986.24,1329.32 1988.25,1329.72 1990.26,1330.12 1992.28,1330.52 1994.29,1330.92 1996.31,1331.32 1998.32,1331.72 2000.34,1332.12 2002.35,1332.52 2004.36,1332.91 2006.38,1333.31 2008.39,1333.71 2010.41,1334.1 2012.42,1334.5 2014.44,1334.89 2016.45,1335.28 2018.46,1335.68 2020.48,1336.07 2022.49,1336.46 2024.51,1336.85 2026.52,1337.24 2028.53,1337.63 2030.55,1338.02 2032.56,1338.41 2034.58,1338.8 2036.59,1339.19 2038.61,1339.57 2040.62,1339.96 2042.63,1340.35 2044.65,1340.73 2046.66,1341.12 2048.68,1341.5 2050.69,1341.89 2052.7,1342.27 2054.72,1342.65 2056.73,1343.03 2058.75,1343.42 2060.76,1343.8 2062.78,1344.18 2064.79,1344.56 2066.8,1344.94 2068.82,1345.32 2070.83,1345.69 2072.85,1346.07 2074.86,1346.45 2076.87,1346.83 2078.89,1347.2 2080.9,1347.58 2082.92,1347.95 2084.93,1348.33 2086.95,1348.7 2088.96,1349.07 2090.97,1349.45 2092.99,1349.82 2095,1350.19 2097.02,1350.56 2099.03,1350.93 2101.04,1351.3 2103.06,1351.67 2105.07,1352.04 2107.09,1352.41 2109.1,1352.78 2111.12,1353.15 2113.13,1353.51 2115.14,1353.88 2117.16,1354.25 2119.17,1354.61 2121.19,1354.98 2123.2,1355.34 2125.21,1355.71 2127.23,1356.07 2129.24,1356.43 2131.26,1356.8 2133.27,1357.16 2135.29,1357.52 2137.3,1357.88 2139.31,1358.24 2141.33,1358.6 2143.34,1358.96 2145.36,1359.32 2147.37,1359.68 2149.38,1360.04 2151.4,1360.39 2153.41,1360.75 2155.43,1361.11 2157.44,1361.46 2159.46,1361.82 2161.47,1362.17 2163.48,1362.53 2165.5,1362.88 2167.51,1363.23 2169.53,1363.59 2171.54,1363.94 2173.55,1364.29 2175.57,1364.64 2177.58,1364.99 2179.6,1365.34 2181.61,1365.69 2183.63,1366.04 2185.64,1366.39 2187.65,1366.74 2189.67,1367.09 2191.68,1367.44 2193.7,1367.79 2195.71,1368.13 2197.72,1368.48 2199.74,1368.82 2201.75,1369.17 2203.77,1369.51 2205.78,1369.86 2207.8,1370.2 2209.81,1370.55 2211.82,1370.89 2213.84,1371.23 2215.85,1371.57 2217.87,1371.92 2219.88,1372.26 2221.9,1372.6 2223.91,1372.94 2225.92,1373.28 2227.94,1373.62 2229.95,1373.96 2231.97,1374.29 2233.98,1374.63 2235.99,1374.97 2238.01,1375.31 2240.02,1375.64 2242.04,1375.98 2244.05,1376.31 2246.07,1376.65 2248.08,1376.98 2250.09,1377.32 2252.11,1377.65 2254.12,1377.99 2256.14,1378.32 2258.15,1378.65 2260.16,1378.98 2262.18,1379.32 2264.19,1379.65 2266.21,1379.98 2268.22,1380.31 2270.24,1380.64 2272.25,1380.97 2274.26,1381.3 2276.28,1381.62 2278.29,1381.95 2280.31,1382.28 2282.32,1382.61 2284.33,1382.93 2286.35,1383.26 2288.36,1383.59 2290.38,1383.91 2292.39,1384.24 "/>
<path clip-path="url(#clip250)" d="M1836.82 196.789 L2281.66 196.789 L2281.66 93.1086 L1836.82 93.1086  Z" fill="#ffffff" fill-rule="evenodd" fill-opacity="1"/>
<polyline clip-path="url(#clip250)" style="stroke:#000000; stroke-linecap:round; stroke-linejoin:round; stroke-width:4; stroke-opacity:1; fill:none" points="1836.82,196.789 2281.66,196.789 2281.66,93.1086 1836.82,93.1086 1836.82,196.789 "/>
<polyline clip-path="url(#clip250)" style="stroke:#000000; stroke-linecap:round; stroke-linejoin:round; stroke-width:4; stroke-opacity:1; fill:none" stroke-dasharray="16, 10" points="1860.52,144.949 2002.71,144.949 "/>
<path clip-path="url(#clip250)" d="M2042.8 146.025 Q2044.3 146.534 2045.72 148.201 Q2047.15 149.868 2048.59 152.784 L2053.33 162.229 L2048.31 162.229 L2043.89 153.363 Q2042.17 149.891 2040.55 148.756 Q2038.96 147.622 2036.18 147.622 L2031.09 147.622 L2031.09 162.229 L2026.41 162.229 L2026.41 127.669 L2036.97 127.669 Q2042.89 127.669 2045.81 130.145 Q2048.73 132.622 2048.73 137.622 Q2048.73 140.886 2047.2 143.039 Q2045.69 145.192 2042.8 146.025 M2031.09 131.511 L2031.09 143.78 L2036.97 143.78 Q2040.35 143.78 2042.06 142.229 Q2043.8 140.655 2043.8 137.622 Q2043.8 134.59 2042.06 133.062 Q2040.35 131.511 2036.97 131.511 L2031.09 131.511 Z" fill="#000000" fill-rule="nonzero" fill-opacity="1" /><path clip-path="url(#clip250)" d="M2079.21 148.201 L2079.21 150.284 L2059.63 150.284 Q2059.91 154.682 2062.27 156.997 Q2064.65 159.289 2068.89 159.289 Q2071.34 159.289 2073.63 158.687 Q2075.95 158.085 2078.22 156.881 L2078.22 160.909 Q2075.92 161.881 2073.52 162.391 Q2071.11 162.9 2068.63 162.9 Q2062.43 162.9 2058.8 159.289 Q2055.18 155.678 2055.18 149.52 Q2055.18 143.155 2058.61 139.428 Q2062.06 135.678 2067.89 135.678 Q2073.12 135.678 2076.16 139.057 Q2079.21 142.414 2079.21 148.201 M2074.95 146.951 Q2074.91 143.456 2072.98 141.372 Q2071.09 139.289 2067.94 139.289 Q2064.37 139.289 2062.22 141.303 Q2060.09 143.317 2059.77 146.974 L2074.95 146.951 Z" fill="#000000" fill-rule="nonzero" fill-opacity="1" /><path clip-path="url(#clip250)" d="M2099.33 126.21 L2099.33 129.752 L2095.25 129.752 Q2092.96 129.752 2092.06 130.678 Q2091.18 131.604 2091.18 134.011 L2091.18 136.303 L2098.19 136.303 L2098.19 139.613 L2091.18 139.613 L2091.18 162.229 L2086.9 162.229 L2086.9 139.613 L2082.82 139.613 L2082.82 136.303 L2086.9 136.303 L2086.9 134.497 Q2086.9 130.169 2088.91 128.201 Q2090.92 126.21 2095.3 126.21 L2099.33 126.21 Z" fill="#000000" fill-rule="nonzero" fill-opacity="1" /><path clip-path="url(#clip250)" d="M2125.07 148.201 L2125.07 150.284 L2105.48 150.284 Q2105.76 154.682 2108.12 156.997 Q2110.51 159.289 2114.74 159.289 Q2117.2 159.289 2119.49 158.687 Q2121.8 158.085 2124.07 156.881 L2124.07 160.909 Q2121.78 161.881 2119.37 162.391 Q2116.97 162.9 2114.49 162.9 Q2108.29 162.9 2104.65 159.289 Q2101.04 155.678 2101.04 149.52 Q2101.04 143.155 2104.47 139.428 Q2107.92 135.678 2113.75 135.678 Q2118.98 135.678 2122.01 139.057 Q2125.07 142.414 2125.07 148.201 M2120.81 146.951 Q2120.76 143.456 2118.84 141.372 Q2116.94 139.289 2113.79 139.289 Q2110.23 139.289 2108.08 141.303 Q2105.95 143.317 2105.62 146.974 L2120.81 146.951 Z" fill="#000000" fill-rule="nonzero" fill-opacity="1" /><path clip-path="url(#clip250)" d="M2147.08 140.284 Q2146.36 139.868 2145.51 139.682 Q2144.67 139.474 2143.66 139.474 Q2140.04 139.474 2138.1 141.835 Q2136.18 144.173 2136.18 148.571 L2136.18 162.229 L2131.9 162.229 L2131.9 136.303 L2136.18 136.303 L2136.18 140.331 Q2137.52 137.969 2139.67 136.835 Q2141.83 135.678 2144.91 135.678 Q2145.35 135.678 2145.88 135.747 Q2146.41 135.794 2147.06 135.909 L2147.08 140.284 Z" fill="#000000" fill-rule="nonzero" fill-opacity="1" /><path clip-path="url(#clip250)" d="M2172.68 148.201 L2172.68 150.284 L2153.1 150.284 Q2153.38 154.682 2155.74 156.997 Q2158.12 159.289 2162.36 159.289 Q2164.81 159.289 2167.1 158.687 Q2169.42 158.085 2171.69 156.881 L2171.69 160.909 Q2169.4 161.881 2166.99 162.391 Q2164.58 162.9 2162.1 162.9 Q2155.9 162.9 2152.27 159.289 Q2148.66 155.678 2148.66 149.52 Q2148.66 143.155 2152.08 139.428 Q2155.53 135.678 2161.36 135.678 Q2166.6 135.678 2169.63 139.057 Q2172.68 142.414 2172.68 148.201 M2168.42 146.951 Q2168.38 143.456 2166.46 141.372 Q2164.56 139.289 2161.41 139.289 Q2157.85 139.289 2155.69 141.303 Q2153.56 143.317 2153.24 146.974 L2168.42 146.951 Z" fill="#000000" fill-rule="nonzero" fill-opacity="1" /><path clip-path="url(#clip250)" d="M2201.23 146.581 L2201.23 162.229 L2196.97 162.229 L2196.97 146.719 Q2196.97 143.039 2195.53 141.21 Q2194.1 139.382 2191.23 139.382 Q2187.78 139.382 2185.79 141.581 Q2183.79 143.78 2183.79 147.576 L2183.79 162.229 L2179.51 162.229 L2179.51 136.303 L2183.79 136.303 L2183.79 140.331 Q2185.32 137.993 2187.38 136.835 Q2189.47 135.678 2192.17 135.678 Q2196.64 135.678 2198.93 138.456 Q2201.23 141.21 2201.23 146.581 Z" fill="#000000" fill-rule="nonzero" fill-opacity="1" /><path clip-path="url(#clip250)" d="M2228.38 137.298 L2228.38 141.28 Q2226.57 140.284 2224.74 139.798 Q2222.94 139.289 2221.09 139.289 Q2216.94 139.289 2214.65 141.928 Q2212.36 144.544 2212.36 149.289 Q2212.36 154.034 2214.65 156.673 Q2216.94 159.289 2221.09 159.289 Q2222.94 159.289 2224.74 158.803 Q2226.57 158.293 2228.38 157.298 L2228.38 161.233 Q2226.6 162.067 2224.67 162.483 Q2222.78 162.9 2220.62 162.9 Q2214.77 162.9 2211.32 159.219 Q2207.87 155.539 2207.87 149.289 Q2207.87 142.946 2211.34 139.312 Q2214.84 135.678 2220.9 135.678 Q2222.87 135.678 2224.74 136.095 Q2226.62 136.488 2228.38 137.298 Z" fill="#000000" fill-rule="nonzero" fill-opacity="1" /><path clip-path="url(#clip250)" d="M2257.96 148.201 L2257.96 150.284 L2238.38 150.284 Q2238.66 154.682 2241.02 156.997 Q2243.4 159.289 2247.64 159.289 Q2250.09 159.289 2252.38 158.687 Q2254.7 158.085 2256.97 156.881 L2256.97 160.909 Q2254.67 161.881 2252.27 162.391 Q2249.86 162.9 2247.38 162.9 Q2241.18 162.9 2237.54 159.289 Q2233.93 155.678 2233.93 149.52 Q2233.93 143.155 2237.36 139.428 Q2240.81 135.678 2246.64 135.678 Q2251.87 135.678 2254.91 139.057 Q2257.96 142.414 2257.96 148.201 M2253.7 146.951 Q2253.66 143.456 2251.73 141.372 Q2249.84 139.289 2246.69 139.289 Q2243.12 139.289 2240.97 141.303 Q2238.84 143.317 2238.52 146.974 L2253.7 146.951 Z" fill="#000000" fill-rule="nonzero" fill-opacity="1" /></svg>
