<?xml version="1.0" encoding="utf-8"?>
<svg xmlns="http://www.w3.org/2000/svg" xmlns:xlink="http://www.w3.org/1999/xlink" width="600" height="400" viewBox="0 0 2400 1600">
<defs>
  <clipPath id="clip430">
    <rect x="0" y="0" width="2400" height="1600"/>
  </clipPath>
</defs>
<path clip-path="url(#clip430)" d="M0 1600 L2400 1600 L2400 0 L0 0  Z" fill="#ffffff" fill-rule="evenodd" fill-opacity="1"/>
<defs>
  <clipPath id="clip431">
    <rect x="480" y="0" width="1681" height="1600"/>
  </clipPath>
</defs>
<path clip-path="url(#clip430)" d="M219.866 1423.18 L2352.76 1423.18 L2352.76 47.2441 L219.866 47.2441  Z" fill="#ffffff" fill-rule="evenodd" fill-opacity="1"/>
<defs>
  <clipPath id="clip432">
    <rect x="219" y="47" width="2134" height="1377"/>
  </clipPath>
</defs>
<polyline clip-path="url(#clip432)" style="stroke:#000000; stroke-linecap:round; stroke-linejoin:round; stroke-width:2; stroke-opacity:0.1; fill:none" points="280.231,1423.18 280.231,47.2441 "/>
<polyline clip-path="url(#clip432)" style="stroke:#000000; stroke-linecap:round; stroke-linejoin:round; stroke-width:2; stroke-opacity:0.1; fill:none" points="783.271,1423.18 783.271,47.2441 "/>
<polyline clip-path="url(#clip432)" style="stroke:#000000; stroke-linecap:round; stroke-linejoin:round; stroke-width:2; stroke-opacity:0.1; fill:none" points="1286.31,1423.18 1286.31,47.2441 "/>
<polyline clip-path="url(#clip432)" style="stroke:#000000; stroke-linecap:round; stroke-linejoin:round; stroke-width:2; stroke-opacity:0.1; fill:none" points="1789.35,1423.18 1789.35,47.2441 "/>
<polyline clip-path="url(#clip432)" style="stroke:#000000; stroke-linecap:round; stroke-linejoin:round; stroke-width:2; stroke-opacity:0.1; fill:none" points="2292.39,1423.18 2292.39,47.2441 "/>
<polyline clip-path="url(#clip430)" style="stroke:#000000; stroke-linecap:round; stroke-linejoin:round; stroke-width:4; stroke-opacity:1; fill:none" points="219.866,1423.18 2352.76,1423.18 "/>
<polyline clip-path="url(#clip430)" style="stroke:#000000; stroke-linecap:round; stroke-linejoin:round; stroke-width:4; stroke-opacity:1; fill:none" points="280.231,1423.18 280.231,1404.28 "/>
<polyline clip-path="url(#clip430)" style="stroke:#000000; stroke-linecap:round; stroke-linejoin:round; stroke-width:4; stroke-opacity:1; fill:none" points="783.271,1423.18 783.271,1404.28 "/>
<polyline clip-path="url(#clip430)" style="stroke:#000000; stroke-linecap:round; stroke-linejoin:round; stroke-width:4; stroke-opacity:1; fill:none" points="1286.31,1423.18 1286.31,1404.28 "/>
<polyline clip-path="url(#clip430)" style="stroke:#000000; stroke-linecap:round; stroke-linejoin:round; stroke-width:4; stroke-opacity:1; fill:none" points="1789.35,1423.18 1789.35,1404.28 "/>
<polyline clip-path="url(#clip430)" style="stroke:#000000; stroke-linecap:round; stroke-linejoin:round; stroke-width:4; stroke-opacity:1; fill:none" points="2292.39,1423.18 2292.39,1404.28 "/>
<path clip-path="url(#clip430)" d="M280.231 1454.1 Q276.62 1454.1 274.791 1457.66 Q272.986 1461.2 272.986 1468.33 Q272.986 1475.44 274.791 1479.01 Q276.62 1482.55 280.231 1482.55 Q283.865 1482.55 285.671 1479.01 Q287.5 1475.44 287.5 1468.33 Q287.5 1461.2 285.671 1457.66 Q283.865 1454.1 280.231 1454.1 M280.231 1450.39 Q286.041 1450.39 289.097 1455 Q292.175 1459.58 292.175 1468.33 Q292.175 1477.06 289.097 1481.67 Q286.041 1486.25 280.231 1486.25 Q274.421 1486.25 271.342 1481.67 Q268.287 1477.06 268.287 1468.33 Q268.287 1459.58 271.342 1455 Q274.421 1450.39 280.231 1450.39 Z" fill="#000000" fill-rule="nonzero" fill-opacity="1" /><path clip-path="url(#clip430)" d="M773.549 1451.02 L791.905 1451.02 L791.905 1454.96 L777.831 1454.96 L777.831 1463.43 Q778.85 1463.08 779.868 1462.92 Q780.887 1462.73 781.905 1462.73 Q787.692 1462.73 791.072 1465.9 Q794.452 1469.08 794.452 1474.49 Q794.452 1480.07 790.979 1483.17 Q787.507 1486.25 781.188 1486.25 Q779.012 1486.25 776.743 1485.88 Q774.498 1485.51 772.091 1484.77 L772.091 1480.07 Q774.174 1481.2 776.396 1481.76 Q778.618 1482.32 781.095 1482.32 Q785.1 1482.32 787.438 1480.21 Q789.776 1478.1 789.776 1474.49 Q789.776 1470.88 787.438 1468.77 Q785.1 1466.67 781.095 1466.67 Q779.22 1466.67 777.345 1467.08 Q775.493 1467.5 773.549 1468.38 L773.549 1451.02 Z" fill="#000000" fill-rule="nonzero" fill-opacity="1" /><path clip-path="url(#clip430)" d="M1261 1481.64 L1268.64 1481.64 L1268.64 1455.28 L1260.33 1456.95 L1260.33 1452.69 L1268.59 1451.02 L1273.27 1451.02 L1273.27 1481.64 L1280.91 1481.64 L1280.91 1485.58 L1261 1485.58 L1261 1481.64 Z" fill="#000000" fill-rule="nonzero" fill-opacity="1" /><path clip-path="url(#clip430)" d="M1300.35 1454.1 Q1296.74 1454.1 1294.91 1457.66 Q1293.11 1461.2 1293.11 1468.33 Q1293.11 1475.44 1294.91 1479.01 Q1296.74 1482.55 1300.35 1482.55 Q1303.98 1482.55 1305.79 1479.01 Q1307.62 1475.44 1307.62 1468.33 Q1307.62 1461.2 1305.79 1457.66 Q1303.98 1454.1 1300.35 1454.1 M1300.35 1450.39 Q1306.16 1450.39 1309.22 1455 Q1312.29 1459.58 1312.29 1468.33 Q1312.29 1477.06 1309.22 1481.67 Q1306.16 1486.25 1300.35 1486.25 Q1294.54 1486.25 1291.46 1481.67 Q1288.41 1477.06 1288.41 1468.33 Q1288.41 1459.58 1291.46 1455 Q1294.54 1450.39 1300.35 1450.39 Z" fill="#000000" fill-rule="nonzero" fill-opacity="1" /><path clip-path="url(#clip430)" d="M1764.54 1481.64 L1772.18 1481.64 L1772.18 1455.28 L1763.87 1456.95 L1763.87 1452.69 L1772.13 1451.02 L1776.8 1451.02 L1776.8 1481.64 L1784.44 1481.64 L1784.44 1485.58 L1764.54 1485.58 L1764.54 1481.64 Z" fill="#000000" fill-rule="nonzero" fill-opacity="1" /><path clip-path="url(#clip430)" d="M1793.93 1451.02 L1812.29 1451.02 L1812.29 1454.96 L1798.22 1454.96 L1798.22 1463.43 Q1799.24 1463.08 1800.25 1462.92 Q1801.27 1462.73 1802.29 1462.73 Q1808.08 1462.73 1811.46 1465.9 Q1814.84 1469.08 1814.84 1474.49 Q1814.84 1480.07 1811.36 1483.17 Q1807.89 1486.25 1801.57 1486.25 Q1799.4 1486.25 1797.13 1485.88 Q1794.88 1485.51 1792.48 1484.77 L1792.48 1480.07 Q1794.56 1481.2 1796.78 1481.76 Q1799 1482.32 1801.48 1482.32 Q1805.49 1482.32 1807.82 1480.21 Q1810.16 1478.1 1810.16 1474.49 Q1810.16 1470.88 1807.82 1468.77 Q1805.49 1466.67 1801.48 1466.67 Q1799.61 1466.67 1797.73 1467.08 Q1795.88 1467.5 1793.93 1468.38 L1793.93 1451.02 Z" fill="#000000" fill-rule="nonzero" fill-opacity="1" /><path clip-path="url(#clip430)" d="M2271.16 1481.64 L2287.48 1481.64 L2287.48 1485.58 L2265.54 1485.58 L2265.54 1481.64 Q2268.2 1478.89 2272.78 1474.26 Q2277.39 1469.61 2278.57 1468.27 Q2280.82 1465.74 2281.7 1464.01 Q2282.6 1462.25 2282.6 1460.56 Q2282.6 1457.8 2280.66 1456.07 Q2278.73 1454.33 2275.63 1454.33 Q2273.43 1454.33 2270.98 1455.09 Q2268.55 1455.86 2265.77 1457.41 L2265.77 1452.69 Q2268.59 1451.55 2271.05 1450.97 Q2273.5 1450.39 2275.54 1450.39 Q2280.91 1450.39 2284.1 1453.08 Q2287.3 1455.77 2287.3 1460.26 Q2287.3 1462.39 2286.49 1464.31 Q2285.7 1466.2 2283.59 1468.8 Q2283.02 1469.47 2279.91 1472.69 Q2276.81 1475.88 2271.16 1481.64 Z" fill="#000000" fill-rule="nonzero" fill-opacity="1" /><path clip-path="url(#clip430)" d="M2307.3 1454.1 Q2303.69 1454.1 2301.86 1457.66 Q2300.05 1461.2 2300.05 1468.33 Q2300.05 1475.44 2301.86 1479.01 Q2303.69 1482.55 2307.3 1482.55 Q2310.93 1482.55 2312.74 1479.01 Q2314.57 1475.44 2314.57 1468.33 Q2314.57 1461.2 2312.74 1457.66 Q2310.93 1454.1 2307.3 1454.1 M2307.3 1450.39 Q2313.11 1450.39 2316.16 1455 Q2319.24 1459.58 2319.24 1468.33 Q2319.24 1477.06 2316.16 1481.67 Q2313.11 1486.25 2307.3 1486.25 Q2301.49 1486.25 2298.41 1481.67 Q2295.35 1477.06 2295.35 1468.33 Q2295.35 1459.58 2298.41 1455 Q2301.49 1450.39 2307.3 1450.39 Z" fill="#000000" fill-rule="nonzero" fill-opacity="1" /><path clip-path="url(#clip430)" d="M1285.37 1522.27 L1285.37 1532.4 L1297.44 1532.4 L1297.44 1536.95 L1285.37 1536.95 L1285.37 1556.3 Q1285.37 1560.66 1286.55 1561.9 Q1287.76 1563.14 1291.42 1563.14 L1297.44 1563.14 L1297.44 1568.04 L1291.42 1568.04 Q1284.64 1568.04 1282.06 1565.53 Q1279.48 1562.98 1279.48 1556.3 L1279.48 1536.95 L1275.19 1536.95 L1275.19 1532.4 L1279.48 1532.4 L1279.48 1522.27 L1285.37 1522.27 Z" fill="#000000" fill-rule="nonzero" fill-opacity="1" /><polyline clip-path="url(#clip432)" style="stroke:#000000; stroke-linecap:round; stroke-linejoin:round; stroke-width:2; stroke-opacity:0.1; fill:none" points="219.866,1239.72 2352.76,1239.72 "/>
<polyline clip-path="url(#clip432)" style="stroke:#000000; stroke-linecap:round; stroke-linejoin:round; stroke-width:2; stroke-opacity:0.1; fill:none" points="219.866,872.806 2352.76,872.806 "/>
<polyline clip-path="url(#clip432)" style="stroke:#000000; stroke-linecap:round; stroke-linejoin:round; stroke-width:2; stroke-opacity:0.1; fill:none" points="219.866,505.889 2352.76,505.889 "/>
<polyline clip-path="url(#clip432)" style="stroke:#000000; stroke-linecap:round; stroke-linejoin:round; stroke-width:2; stroke-opacity:0.1; fill:none" points="219.866,138.973 2352.76,138.973 "/>
<polyline clip-path="url(#clip430)" style="stroke:#000000; stroke-linecap:round; stroke-linejoin:round; stroke-width:4; stroke-opacity:1; fill:none" points="219.866,1423.18 219.866,47.2441 "/>
<polyline clip-path="url(#clip430)" style="stroke:#000000; stroke-linecap:round; stroke-linejoin:round; stroke-width:4; stroke-opacity:1; fill:none" points="219.866,1239.72 238.764,1239.72 "/>
<polyline clip-path="url(#clip430)" style="stroke:#000000; stroke-linecap:round; stroke-linejoin:round; stroke-width:4; stroke-opacity:1; fill:none" points="219.866,872.806 238.764,872.806 "/>
<polyline clip-path="url(#clip430)" style="stroke:#000000; stroke-linecap:round; stroke-linejoin:round; stroke-width:4; stroke-opacity:1; fill:none" points="219.866,505.889 238.764,505.889 "/>
<polyline clip-path="url(#clip430)" style="stroke:#000000; stroke-linecap:round; stroke-linejoin:round; stroke-width:4; stroke-opacity:1; fill:none" points="219.866,138.973 238.764,138.973 "/>
<path clip-path="url(#clip430)" d="M126.205 1225.52 Q122.593 1225.52 120.765 1229.09 Q118.959 1232.63 118.959 1239.76 Q118.959 1246.86 120.765 1250.43 Q122.593 1253.97 126.205 1253.97 Q129.839 1253.97 131.644 1250.43 Q133.473 1246.86 133.473 1239.76 Q133.473 1232.63 131.644 1229.09 Q129.839 1225.52 126.205 1225.52 M126.205 1221.82 Q132.015 1221.82 135.07 1226.42 Q138.149 1231.01 138.149 1239.76 Q138.149 1248.48 135.07 1253.09 Q132.015 1257.67 126.205 1257.67 Q120.394 1257.67 117.316 1253.09 Q114.26 1248.48 114.26 1239.76 Q114.26 1231.01 117.316 1226.42 Q120.394 1221.82 126.205 1221.82 Z" fill="#000000" fill-rule="nonzero" fill-opacity="1" /><path clip-path="url(#clip430)" d="M146.366 1251.12 L151.251 1251.12 L151.251 1257 L146.366 1257 L146.366 1251.12 Z" fill="#000000" fill-rule="nonzero" fill-opacity="1" /><path clip-path="url(#clip430)" d="M174.283 1226.52 L162.477 1244.96 L174.283 1244.96 L174.283 1226.52 M173.056 1222.44 L178.936 1222.44 L178.936 1244.96 L183.866 1244.96 L183.866 1248.85 L178.936 1248.85 L178.936 1257 L174.283 1257 L174.283 1248.85 L158.681 1248.85 L158.681 1244.34 L173.056 1222.44 Z" fill="#000000" fill-rule="nonzero" fill-opacity="1" /><path clip-path="url(#clip430)" d="M126.529 858.604 Q122.918 858.604 121.089 862.169 Q119.283 865.711 119.283 872.84 Q119.283 879.947 121.089 883.512 Q122.918 887.053 126.529 887.053 Q130.163 887.053 131.968 883.512 Q133.797 879.947 133.797 872.84 Q133.797 865.711 131.968 862.169 Q130.163 858.604 126.529 858.604 M126.529 854.901 Q132.339 854.901 135.394 859.507 Q138.473 864.09 138.473 872.84 Q138.473 881.567 135.394 886.174 Q132.339 890.757 126.529 890.757 Q120.718 890.757 117.64 886.174 Q114.584 881.567 114.584 872.84 Q114.584 864.09 117.64 859.507 Q120.718 854.901 126.529 854.901 Z" fill="#000000" fill-rule="nonzero" fill-opacity="1" /><path clip-path="url(#clip430)" d="M146.691 884.206 L151.575 884.206 L151.575 890.086 L146.691 890.086 L146.691 884.206 Z" fill="#000000" fill-rule="nonzero" fill-opacity="1" /><path clip-path="url(#clip430)" d="M172.339 870.942 Q169.19 870.942 167.339 873.095 Q165.51 875.248 165.51 878.998 Q165.51 882.724 167.339 884.9 Q169.19 887.053 172.339 887.053 Q175.487 887.053 177.315 884.9 Q179.167 882.724 179.167 878.998 Q179.167 875.248 177.315 873.095 Q175.487 870.942 172.339 870.942 M181.621 856.289 L181.621 860.549 Q179.862 859.715 178.056 859.276 Q176.274 858.836 174.514 858.836 Q169.885 858.836 167.431 861.961 Q165.001 865.086 164.653 871.405 Q166.019 869.391 168.079 868.326 Q170.139 867.238 172.616 867.238 Q177.825 867.238 180.834 870.41 Q183.866 873.558 183.866 878.998 Q183.866 884.322 180.718 887.539 Q177.57 890.757 172.339 890.757 Q166.343 890.757 163.172 886.174 Q160.001 881.567 160.001 872.84 Q160.001 864.646 163.89 859.785 Q167.778 854.901 174.329 854.901 Q176.089 854.901 177.871 855.248 Q179.676 855.595 181.621 856.289 Z" fill="#000000" fill-rule="nonzero" fill-opacity="1" /><path clip-path="url(#clip430)" d="M126.783 491.688 Q123.172 491.688 121.343 495.253 Q119.538 498.794 119.538 505.924 Q119.538 513.031 121.343 516.595 Q123.172 520.137 126.783 520.137 Q130.417 520.137 132.223 516.595 Q134.052 513.031 134.052 505.924 Q134.052 498.794 132.223 495.253 Q130.417 491.688 126.783 491.688 M126.783 487.984 Q132.593 487.984 135.649 492.591 Q138.728 497.174 138.728 505.924 Q138.728 514.651 135.649 519.257 Q132.593 523.841 126.783 523.841 Q120.973 523.841 117.894 519.257 Q114.839 514.651 114.839 505.924 Q114.839 497.174 117.894 492.591 Q120.973 487.984 126.783 487.984 Z" fill="#000000" fill-rule="nonzero" fill-opacity="1" /><path clip-path="url(#clip430)" d="M146.945 517.29 L151.829 517.29 L151.829 523.169 L146.945 523.169 L146.945 517.29 Z" fill="#000000" fill-rule="nonzero" fill-opacity="1" /><path clip-path="url(#clip430)" d="M172.014 506.757 Q168.681 506.757 166.76 508.54 Q164.862 510.322 164.862 513.447 Q164.862 516.572 166.76 518.355 Q168.681 520.137 172.014 520.137 Q175.348 520.137 177.269 518.355 Q179.19 516.549 179.19 513.447 Q179.19 510.322 177.269 508.54 Q175.371 506.757 172.014 506.757 M167.339 504.767 Q164.329 504.026 162.64 501.966 Q160.973 499.906 160.973 496.943 Q160.973 492.799 163.913 490.392 Q166.876 487.984 172.014 487.984 Q177.176 487.984 180.116 490.392 Q183.056 492.799 183.056 496.943 Q183.056 499.906 181.366 501.966 Q179.7 504.026 176.714 504.767 Q180.093 505.554 181.968 507.845 Q183.866 510.137 183.866 513.447 Q183.866 518.47 180.788 521.155 Q177.732 523.841 172.014 523.841 Q166.297 523.841 163.218 521.155 Q160.163 518.47 160.163 513.447 Q160.163 510.137 162.061 507.845 Q163.959 505.554 167.339 504.767 M165.626 497.382 Q165.626 500.068 167.292 501.572 Q168.982 503.077 172.014 503.077 Q175.024 503.077 176.714 501.572 Q178.426 500.068 178.426 497.382 Q178.426 494.697 176.714 493.193 Q175.024 491.688 172.014 491.688 Q168.982 491.688 167.292 493.193 Q165.626 494.697 165.626 497.382 Z" fill="#000000" fill-rule="nonzero" fill-opacity="1" /><path clip-path="url(#clip430)" d="M117.501 152.318 L125.14 152.318 L125.14 125.952 L116.83 127.619 L116.83 123.36 L125.093 121.693 L129.769 121.693 L129.769 152.318 L137.408 152.318 L137.408 156.253 L117.501 156.253 L117.501 152.318 Z" fill="#000000" fill-rule="nonzero" fill-opacity="1" /><path clip-path="url(#clip430)" d="M146.853 150.374 L151.737 150.374 L151.737 156.253 L146.853 156.253 L146.853 150.374 Z" fill="#000000" fill-rule="nonzero" fill-opacity="1" /><path clip-path="url(#clip430)" d="M171.922 124.772 Q168.311 124.772 166.482 128.337 Q164.677 131.878 164.677 139.008 Q164.677 146.114 166.482 149.679 Q168.311 153.221 171.922 153.221 Q175.556 153.221 177.362 149.679 Q179.19 146.114 179.19 139.008 Q179.19 131.878 177.362 128.337 Q175.556 124.772 171.922 124.772 M171.922 121.068 Q177.732 121.068 180.788 125.675 Q183.866 130.258 183.866 139.008 Q183.866 147.735 180.788 152.341 Q177.732 156.924 171.922 156.924 Q166.112 156.924 163.033 152.341 Q159.978 147.735 159.978 139.008 Q159.978 130.258 163.033 125.675 Q166.112 121.068 171.922 121.068 Z" fill="#000000" fill-rule="nonzero" fill-opacity="1" /><path clip-path="url(#clip430)" d="M49.9359 788.509 L28.3562 788.509 L28.3562 782.652 L49.7131 782.652 Q54.7739 782.652 57.3202 780.679 Q59.8346 778.706 59.8346 774.759 Q59.8346 770.016 56.8109 767.279 Q53.7872 764.51 48.5673 764.51 L28.3562 764.51 L28.3562 758.654 L64.0042 758.654 L64.0042 764.51 L58.5296 764.51 Q61.7762 766.643 63.3676 769.475 Q64.9272 772.276 64.9272 776 Q64.9272 782.143 61.1078 785.326 Q57.2883 788.509 49.9359 788.509 M27.4968 773.772 L27.4968 773.772 Z" fill="#000000" fill-rule="nonzero" fill-opacity="1" /><path clip-path="url(#clip430)" d="M14.5426 732.522 Q21.8632 736.787 29.0246 738.856 Q36.186 740.925 43.5384 740.925 Q50.8908 740.925 58.1159 738.856 Q65.3091 736.756 72.5979 732.522 L72.5979 737.615 Q65.1182 742.389 57.8931 744.776 Q50.668 747.132 43.5384 747.132 Q36.4406 747.132 29.2474 744.776 Q22.0542 742.421 14.5426 737.615 L14.5426 732.522 Z" fill="#000000" fill-rule="nonzero" fill-opacity="1" /><path clip-path="url(#clip430)" d="M18.2347 715.367 L28.3562 715.367 L28.3562 703.304 L32.9077 703.304 L32.9077 715.367 L52.2594 715.367 Q56.6199 715.367 57.8613 714.189 Q59.1026 712.98 59.1026 709.319 L59.1026 703.304 L64.0042 703.304 L64.0042 709.319 Q64.0042 716.099 61.4897 718.677 Q58.9434 721.255 52.2594 721.255 L32.9077 721.255 L32.9077 725.552 L28.3562 725.552 L28.3562 721.255 L18.2347 721.255 L18.2347 715.367 Z" fill="#000000" fill-rule="nonzero" fill-opacity="1" /><path clip-path="url(#clip430)" d="M14.5426 696.524 L14.5426 691.432 Q22.0542 686.658 29.2474 684.302 Q36.4406 681.915 43.5384 681.915 Q50.668 681.915 57.8931 684.302 Q65.1182 686.658 72.5979 691.432 L72.5979 696.524 Q65.3091 692.291 58.1159 690.222 Q50.8908 688.122 43.5384 688.122 Q36.186 688.122 29.0246 690.222 Q21.8632 692.291 14.5426 696.524 Z" fill="#000000" fill-rule="nonzero" fill-opacity="1" /><path clip-path="url(#clip432)" d="M280.231 138.973 L282.245 144.769 L284.259 150.512 L286.274 156.203 L288.288 161.843 L290.302 167.432 L292.316 172.972 L294.33 178.462 L296.344 183.904 L298.359 189.299 L300.373 194.646 L302.387 199.948 L304.401 205.203 L306.415 210.414 L308.43 215.58 L310.444 220.702 L312.458 225.782 L314.472 230.818 L316.486 235.813 L318.5 240.766 L320.515 245.678 L322.529 250.551 L324.543 255.383 L326.557 260.176 L328.571 264.93 L330.585 269.646 L332.6 274.324 L334.614 278.965 L336.628 283.57 L338.642 288.138 L340.656 292.67 L342.67 297.167 L344.685 301.629 L346.699 306.056 L348.713 310.45 L350.727 314.81 L352.741 319.136 L354.756 323.43 L356.77 327.692 L358.784 331.921 L360.798 336.119 L362.812 340.286 L364.826 344.422 L366.841 348.527 L368.855 352.603 L370.869 356.649 L372.883 360.665 L374.897 364.652 L376.911 368.611 L378.926 372.541 L380.94 376.444 L382.954 380.318 L384.968 384.165 L386.982 387.986 L388.996 391.779 L391.011 395.546 L393.025 399.287 L395.039 403.002 L397.053 406.692 L399.067 410.356 L401.082 413.995 L403.096 417.61 L405.11 421.2 L407.124 424.766 L409.138 428.309 L411.152 431.827 L413.167 435.322 L415.181 438.794 L417.195 442.244 L419.209 445.67 L421.223 449.074 L423.237 452.456 L425.252 455.817 L427.266 459.155 L429.28 462.472 L431.294 465.768 L433.308 469.043 L435.322 472.297 L437.337 475.531 L439.351 478.744 L441.365 481.937 L443.379 485.11 L445.393 488.263 L447.408 491.397 L449.422 494.512 L451.436 497.607 L453.45 500.684 L455.464 503.742 L457.478 506.781 L459.493 509.802 L461.507 512.804 L463.521 515.789 L465.535 518.755 L467.549 521.705 L469.563 524.636 L471.578 527.55 L473.592 530.448 L475.606 533.328 L477.62 536.191 L479.634 539.038 L481.648 541.868 L483.663 544.682 L485.677 547.479 L487.691 550.261 L489.705 553.027 L491.719 555.776 L493.734 558.511 L495.748 561.23 L497.762 563.933 L499.776 566.622 L501.79 569.295 L503.804 571.954 L505.819 574.597 L507.833 577.227 L509.847 579.841 L511.861 582.442 L513.875 585.028 L515.889 587.6 L517.904 590.158 L519.918 592.702 L521.932 595.232 L523.946 597.749 L525.96 600.252 L527.974 602.742 L529.989 605.219 L532.003 607.683 L534.017 610.134 L536.031 612.571 L538.045 614.996 L540.06 617.408 L542.074 619.808 L544.088 622.195 L546.102 624.57 L548.116 626.933 L550.13 629.283 L552.145 631.622 L554.159 633.948 L556.173 636.263 L558.187 638.566 L560.201 640.857 L562.215 643.136 L564.23 645.405 L566.244 647.662 L568.258 649.907 L570.272 652.142 L572.286 654.365 L574.301 656.577 L576.315 658.779 L578.329 660.969 L580.343 663.149 L582.357 665.318 L584.371 667.477 L586.386 669.625 L588.4 671.763 L590.414 673.891 L592.428 676.008 L594.442 678.115 L596.456 680.212 L598.471 682.299 L600.485 684.377 L602.499 686.444 L604.513 688.502 L606.527 690.55 L608.541 692.588 L610.556 694.617 L612.57 696.636 L614.584 698.646 L616.598 700.647 L618.612 702.638 L620.627 704.62 L622.641 706.594 L624.655 708.558 L626.669 710.513 L628.683 712.459 L630.697 714.397 L632.712 716.325 L634.726 718.245 L636.74 720.157 L638.754 722.059 L640.768 723.954 L642.782 725.84 L644.797 727.717 L646.811 729.586 L648.825 731.447 L650.839 733.3 L652.853 735.144 L654.867 736.981 L656.882 738.809 L658.896 740.63 L660.91 742.442 L662.924 744.247 L664.938 746.044 L666.953 747.833 L668.967 749.614 L670.981 751.388 L672.995 753.155 L675.009 754.913 L677.023 756.665 L679.038 758.408 L681.052 760.145 L683.066 761.874 L685.08 763.596 L687.094 765.311 L689.108 767.018 L691.123 768.719 L693.137 770.412 L695.151 772.098 L697.165 773.778 L699.179 775.45 L701.193 777.116 L703.208 778.775 L705.222 780.427 L707.236 782.072 L709.25 783.71 L711.264 785.342 L713.279 786.967 L715.293 788.586 L717.307 790.198 L719.321 791.804 L721.335 793.403 L723.349 794.996 L725.364 796.583 L727.378 798.163 L729.392 799.737 L731.406 801.305 L733.42 802.867 L735.434 804.422 L737.449 805.971 L739.463 807.515 L741.477 809.052 L743.491 810.583 L745.505 812.109 L747.519 813.628 L749.534 815.142 L751.548 816.65 L753.562 818.151 L755.576 819.648 L757.59 821.138 L759.605 822.623 L761.619 824.102 L763.633 825.576 L765.647 827.044 L767.661 828.506 L769.675 829.963 L771.69 831.414 L773.704 832.86 L775.718 834.301 L777.732 835.736 L779.746 837.166 L781.76 838.59 L783.775 840.01 L785.789 841.424 L787.803 842.833 L789.817 844.236 L791.831 845.635 L793.845 847.028 L795.86 848.416 L797.874 849.8 L799.888 851.178 L801.902 852.551 L803.916 853.919 L805.931 855.283 L807.945 856.641 L809.959 857.994 L811.973 859.343 L813.987 860.687 L816.001 862.026 L818.016 863.36 L820.03 864.69 L822.044 866.015 L824.058 867.335 L826.072 868.65 L828.086 869.961 L830.101 871.268 L832.115 872.569 L834.129 873.867 L836.143 875.159 L838.157 876.447 L840.171 877.731 L842.186 879.01 L844.2 880.285 L846.214 881.556 L848.228 882.822 L850.242 884.083 L852.257 885.341 L854.271 886.594 L856.285 887.843 L858.299 889.088 L860.313 890.328 L862.327 891.564 L864.342 892.796 L866.356 894.024 L868.37 895.248 L870.384 896.467 L872.398 897.683 L874.412 898.894 L876.427 900.102 L878.441 901.305 L880.455 902.505 L882.469 903.7 L884.483 904.892 L886.498 906.079 L888.512 907.263 L890.526 908.443 L892.54 909.619 L894.554 910.791 L896.568 911.959 L898.583 913.124 L900.597 914.285 L902.611 915.441 L904.625 916.595 L906.639 917.744 L908.653 918.89 L910.668 920.032 L912.682 921.17 L914.696 922.305 L916.71 923.436 L918.724 924.564 L920.738 925.688 L922.753 926.808 L924.767 927.925 L926.781 929.039 L928.795 930.148 L930.809 931.255 L932.824 932.358 L934.838 933.457 L936.852 934.553 L938.866 935.646 L940.88 936.735 L942.894 937.821 L944.909 938.903 L946.923 939.982 L948.937 941.058 L950.951 942.13 L952.965 943.199 L954.979 944.265 L956.994 945.328 L959.008 946.387 L961.022 947.443 L963.036 948.496 L965.05 949.545 L967.064 950.592 L969.079 951.635 L971.093 952.675 L973.107 953.712 L975.121 954.746 L977.135 955.777 L979.15 956.805 L981.164 957.829 L983.178 958.851 L985.192 959.869 L987.206 960.885 L989.22 961.897 L991.235 962.907 L993.249 963.913 L995.263 964.917 L997.277 965.917 L999.291 966.915 L1001.31 967.91 L1003.32 968.901 L1005.33 969.89 L1007.35 970.876 L1009.36 971.859 L1011.38 972.839 L1013.39 973.817 L1015.4 974.791 L1017.42 975.763 L1019.43 976.732 L1021.45 977.698 L1023.46 978.662 L1025.48 979.622 L1027.49 980.58 L1029.5 981.535 L1031.52 982.488 L1033.53 983.438 L1035.55 984.385 L1037.56 985.329 L1039.57 986.271 L1041.59 987.21 L1043.6 988.146 L1045.62 989.08 L1047.63 990.011 L1049.65 990.939 L1051.66 991.865 L1053.67 992.788 L1055.69 993.709 L1057.7 994.627 L1059.72 995.543 L1061.73 996.456 L1063.74 997.366 L1065.76 998.274 L1067.77 999.18 L1069.79 1000.08 L1071.8 1000.98 L1073.82 1001.88 L1075.83 1002.78 L1077.84 1003.67 L1079.86 1004.56 L1081.87 1005.45 L1083.89 1006.33 L1085.9 1007.22 L1087.91 1008.1 L1089.93 1008.98 L1091.94 1009.85 L1093.96 1010.73 L1095.97 1011.6 L1097.99 1012.47 L1100 1013.34 L1102.01 1014.2 L1104.03 1015.06 L1106.04 1015.92 L1108.06 1016.78 L1110.07 1017.64 L1112.09 1018.49 L1114.1 1019.34 L1116.11 1020.19 L1118.13 1021.04 L1120.14 1021.88 L1122.16 1022.72 L1124.17 1023.56 L1126.18 1024.4 L1128.2 1025.23 L1130.21 1026.07 L1132.23 1026.9 L1134.24 1027.73 L1136.26 1028.55 L1138.27 1029.38 L1140.28 1030.2 L1142.3 1031.02 L1144.31 1031.84 L1146.33 1032.66 L1148.34 1033.47 L1150.35 1034.28 L1152.37 1035.09 L1154.38 1035.9 L1156.4 1036.7 L1158.41 1037.51 L1160.43 1038.31 L1162.44 1039.11 L1164.45 1039.91 L1166.47 1040.7 L1168.48 1041.5 L1170.5 1042.29 L1172.51 1043.08 L1174.52 1043.86 L1176.54 1044.65 L1178.55 1045.43 L1180.57 1046.21 L1182.58 1046.99 L1184.6 1047.77 L1186.61 1048.55 L1188.62 1049.32 L1190.64 1050.09 L1192.65 1050.86 L1194.67 1051.63 L1196.68 1052.4 L1198.69 1053.16 L1200.71 1053.92 L1202.72 1054.68 L1204.74 1055.44 L1206.75 1056.2 L1208.77 1056.95 L1210.78 1057.71 L1212.79 1058.46 L1214.81 1059.21 L1216.82 1059.96 L1218.84 1060.7 L1220.85 1061.44 L1222.86 1062.19 L1224.88 1062.93 L1226.89 1063.67 L1228.91 1064.4 L1230.92 1065.14 L1232.94 1065.87 L1234.95 1066.6 L1236.96 1067.33 L1238.98 1068.06 L1240.99 1068.79 L1243.01 1069.51 L1245.02 1070.23 L1247.03 1070.95 L1249.05 1071.67 L1251.06 1072.39 L1253.08 1073.11 L1255.09 1073.82 L1257.11 1074.53 L1259.12 1075.25 L1261.13 1075.95 L1263.15 1076.66 L1265.16 1077.37 L1267.18 1078.07 L1269.19 1078.78 L1271.2 1079.48 L1273.22 1080.18 L1275.23 1080.87 L1277.25 1081.57 L1279.26 1082.26 L1281.28 1082.96 L1283.29 1083.65 L1285.3 1084.34 L1287.32 1085.03 L1289.33 1085.71 L1291.35 1086.4 L1293.36 1087.08 L1295.37 1087.76 L1297.39 1088.44 L1299.4 1089.12 L1301.42 1089.8 L1303.43 1090.47 L1305.45 1091.15 L1307.46 1091.82 L1309.47 1092.49 L1311.49 1093.16 L1313.5 1093.83 L1315.52 1094.5 L1317.53 1095.16 L1319.54 1095.82 L1321.56 1096.49 L1323.57 1097.15 L1325.59 1097.81 L1327.6 1098.46 L1329.62 1099.12 L1331.63 1099.77 L1333.64 1100.43 L1335.66 1101.08 L1337.67 1101.73 L1339.69 1102.38 L1341.7 1103.03 L1343.72 1103.67 L1345.73 1104.32 L1347.74 1104.96 L1349.76 1105.6 L1351.77 1106.24 L1353.79 1106.88 L1355.8 1107.52 L1357.81 1108.15 L1359.83 1108.79 L1361.84 1109.42 L1363.86 1110.05 L1365.87 1110.68 L1367.89 1111.31 L1369.9 1111.94 L1371.91 1112.57 L1373.93 1113.19 L1375.94 1113.82 L1377.96 1114.44 L1379.97 1115.06 L1381.98 1115.68 L1384 1116.3 L1386.01 1116.92 L1388.03 1117.53 L1390.04 1118.15 L1392.06 1118.76 L1394.07 1119.37 L1396.08 1119.98 L1398.1 1120.59 L1400.11 1121.2 L1402.13 1121.81 L1404.14 1122.41 L1406.15 1123.02 L1408.17 1123.62 L1410.18 1124.22 L1412.2 1124.82 L1414.21 1125.42 L1416.23 1126.02 L1418.24 1126.61 L1420.25 1127.21 L1422.27 1127.8 L1424.28 1128.4 L1426.3 1128.99 L1428.31 1129.58 L1430.32 1130.17 L1432.34 1130.75 L1434.35 1131.34 L1436.37 1131.93 L1438.38 1132.51 L1440.4 1133.09 L1442.41 1133.68 L1444.42 1134.26 L1446.44 1134.84 L1448.45 1135.41 L1450.47 1135.99 L1452.48 1136.57 L1454.49 1137.14 L1456.51 1137.71 L1458.52 1138.29 L1460.54 1138.86 L1462.55 1139.43 L1464.57 1140 L1466.58 1140.56 L1468.59 1141.13 L1470.61 1141.7 L1472.62 1142.26 L1474.64 1142.82 L1476.65 1143.39 L1478.66 1143.95 L1480.68 1144.51 L1482.69 1145.07 L1484.71 1145.62 L1486.72 1146.18 L1488.74 1146.73 L1490.75 1147.29 L1492.76 1147.84 L1494.78 1148.39 L1496.79 1148.94 L1498.81 1149.49 L1500.82 1150.04 L1502.83 1150.59 L1504.85 1151.14 L1506.86 1151.68 L1508.88 1152.23 L1510.89 1152.77 L1512.91 1153.31 L1514.92 1153.85 L1516.93 1154.39 L1518.95 1154.93 L1520.96 1155.47 L1522.98 1156.01 L1524.99 1156.54 L1527 1157.08 L1529.02 1157.61 L1531.03 1158.14 L1533.05 1158.68 L1535.06 1159.21 L1537.08 1159.74 L1539.09 1160.26 L1541.1 1160.79 L1543.12 1161.32 L1545.13 1161.84 L1547.15 1162.37 L1549.16 1162.89 L1551.17 1163.41 L1553.19 1163.94 L1555.2 1164.46 L1557.22 1164.98 L1559.23 1165.49 L1561.25 1166.01 L1563.26 1166.53 L1565.27 1167.04 L1567.29 1167.56 L1569.3 1168.07 L1571.32 1168.59 L1573.33 1169.1 L1575.35 1169.61 L1577.36 1170.12 L1579.37 1170.63 L1581.39 1171.13 L1583.4 1171.64 L1585.42 1172.15 L1587.43 1172.65 L1589.44 1173.16 L1591.46 1173.66 L1593.47 1174.16 L1595.49 1174.66 L1597.5 1175.16 L1599.52 1175.66 L1601.53 1176.16 L1603.54 1176.66 L1605.56 1177.15 L1607.57 1177.65 L1609.59 1178.14 L1611.6 1178.64 L1613.61 1179.13 L1615.63 1179.62 L1617.64 1180.11 L1619.66 1180.6 L1621.67 1181.09 L1623.69 1181.58 L1625.7 1182.07 L1627.71 1182.56 L1629.73 1183.04 L1631.74 1183.53 L1633.76 1184.01 L1635.77 1184.49 L1637.78 1184.98 L1639.8 1185.46 L1641.81 1185.94 L1643.83 1186.42 L1645.84 1186.89 L1647.86 1187.37 L1649.87 1187.85 L1651.88 1188.33 L1653.9 1188.8 L1655.91 1189.28 L1657.93 1189.75 L1659.94 1190.22 L1661.95 1190.69 L1663.97 1191.16 L1665.98 1191.63 L1668 1192.1 L1670.01 1192.57 L1672.03 1193.04 L1674.04 1193.51 L1676.05 1193.97 L1678.07 1194.44 L1680.08 1194.9 L1682.1 1195.36 L1684.11 1195.83 L1686.12 1196.29 L1688.14 1196.75 L1690.15 1197.21 L1692.17 1197.67 L1694.18 1198.13 L1696.2 1198.59 L1698.21 1199.04 L1700.22 1199.5 L1702.24 1199.95 L1704.25 1200.41 L1706.27 1200.86 L1708.28 1201.32 L1710.29 1201.77 L1712.31 1202.22 L1714.32 1202.67 L1716.34 1203.12 L1718.35 1203.57 L1720.37 1204.02 L1722.38 1204.46 L1724.39 1204.91 L1726.41 1205.36 L1728.42 1205.8 L1730.44 1206.25 L1732.45 1206.69 L1734.46 1207.13 L1736.48 1207.57 L1738.49 1208.02 L1740.51 1208.46 L1742.52 1208.9 L1744.54 1209.33 L1746.55 1209.77 L1748.56 1210.21 L1750.58 1210.65 L1752.59 1211.08 L1754.61 1211.52 L1756.62 1211.95 L1758.63 1212.39 L1760.65 1212.82 L1762.66 1213.25 L1764.68 1213.68 L1766.69 1214.11 L1768.71 1214.55 L1770.72 1214.97 L1772.73 1215.4 L1774.75 1215.83 L1776.76 1216.26 L1778.78 1216.69 L1780.79 1217.11 L1782.81 1217.54 L1784.82 1217.96 L1786.83 1218.38 L1788.85 1218.81 L1790.86 1219.23 L1792.88 1219.65 L1794.89 1220.07 L1796.9 1220.49 L1798.92 1220.91 L1800.93 1221.33 L1802.95 1221.75 L1804.96 1222.17 L1806.98 1222.58 L1808.99 1223 L1811 1223.41 L1813.02 1223.83 L1815.03 1224.24 L1817.05 1224.66 L1819.06 1225.07 L1821.07 1225.48 L1823.09 1225.89 L1825.1 1226.3 L1827.12 1226.71 L1829.13 1227.12 L1831.15 1227.53 L1833.16 1227.94 L1835.17 1228.34 L1837.19 1228.75 L1839.2 1229.16 L1841.22 1229.56 L1843.23 1229.97 L1845.24 1230.37 L1847.26 1230.77 L1849.27 1231.18 L1851.29 1231.58 L1853.3 1231.98 L1855.32 1232.38 L1857.33 1232.78 L1859.34 1233.18 L1861.36 1233.58 L1863.37 1233.98 L1865.39 1234.37 L1867.4 1234.77 L1869.41 1235.17 L1871.43 1235.56 L1873.44 1235.96 L1875.46 1236.35 L1877.47 1236.75 L1879.49 1237.14 L1881.5 1237.53 L1883.51 1237.92 L1885.53 1238.31 L1887.54 1238.71 L1889.56 1239.1 L1891.57 1239.48 L1893.58 1239.87 L1895.6 1240.26 L1897.61 1240.65 L1899.63 1241.04 L1901.64 1241.42 L1903.66 1241.81 L1905.67 1242.19 L1907.68 1242.58 L1909.7 1242.96 L1911.71 1243.34 L1913.73 1243.73 L1915.74 1244.11 L1917.75 1244.49 L1919.77 1244.87 L1921.78 1245.25 L1923.8 1245.63 L1925.81 1246.01 L1927.83 1246.39 L1929.84 1246.77 L1931.85 1247.14 L1933.87 1247.52 L1935.88 1247.9 L1937.9 1248.27 L1939.91 1248.65 L1941.92 1249.02 L1943.94 1249.4 L1945.95 1249.77 L1947.97 1250.14 L1949.98 1250.51 L1952 1250.89 L1954.01 1251.26 L1956.02 1251.63 L1958.04 1252 L1960.05 1252.37 L1962.07 1252.73 L1964.08 1253.1 L1966.09 1253.47 L1968.11 1253.84 L1970.12 1254.2 L1972.14 1254.57 L1974.15 1254.94 L1976.17 1255.3 L1978.18 1255.66 L1980.19 1256.03 L1982.21 1256.39 L1984.22 1256.75 L1986.24 1257.12 L1988.25 1257.48 L1990.26 1257.84 L1992.28 1258.2 L1994.29 1258.56 L1996.31 1258.92 L1998.32 1259.28 L2000.34 1259.64 L2002.35 1259.99 L2004.36 1260.35 L2006.38 1260.71 L2008.39 1261.06 L2010.41 1261.42 L2012.42 1261.77 L2014.44 1262.13 L2016.45 1262.48 L2018.46 1262.84 L2020.48 1263.19 L2022.49 1263.54 L2024.51 1263.89 L2026.52 1264.24 L2028.53 1264.6 L2030.55 1264.95 L2032.56 1265.3 L2034.58 1265.65 L2036.59 1265.99 L2038.61 1266.34 L2040.62 1266.69 L2042.63 1267.04 L2044.65 1267.38 L2046.66 1267.73 L2048.68 1268.08 L2050.69 1268.42 L2052.7 1268.77 L2054.72 1269.11 L2056.73 1269.45 L2058.75 1269.8 L2060.76 1270.14 L2062.78 1270.48 L2064.79 1270.82 L2066.8 1271.17 L2068.82 1271.51 L2070.83 1271.85 L2072.85 1272.19 L2074.86 1272.53 L2076.87 1272.86 L2078.89 1273.2 L2080.9 1273.54 L2082.92 1273.88 L2084.93 1274.22 L2086.95 1274.55 L2088.96 1274.89 L2090.97 1275.22 L2092.99 1275.56 L2095 1275.89 L2097.02 1276.23 L2099.03 1276.56 L2101.04 1276.89 L2103.06 1277.23 L2105.07 1277.56 L2107.09 1277.89 L2109.1 1278.22 L2111.12 1278.55 L2113.13 1278.88 L2115.14 1279.21 L2117.16 1279.54 L2119.17 1279.87 L2121.19 1280.2 L2123.2 1280.52 L2125.21 1280.85 L2127.23 1281.18 L2129.24 1281.51 L2131.26 1281.83 L2133.27 1282.16 L2135.29 1282.48 L2137.3 1282.81 L2139.31 1283.13 L2141.33 1283.46 L2143.34 1283.78 L2145.36 1284.1 L2147.37 1284.42 L2149.38 1284.75 L2151.4 1285.07 L2153.41 1285.39 L2155.43 1285.71 L2157.44 1286.03 L2159.46 1286.35 L2161.47 1286.67 L2163.48 1286.99 L2165.5 1287.31 L2167.51 1287.62 L2169.53 1287.94 L2171.54 1288.26 L2173.55 1288.57 L2175.57 1288.89 L2177.58 1289.21 L2179.6 1289.52 L2181.61 1289.84 L2183.63 1290.15 L2185.64 1290.46 L2187.65 1290.78 L2189.67 1291.09 L2191.68 1291.4 L2193.7 1291.72 L2195.71 1292.03 L2197.72 1292.34 L2199.74 1292.65 L2201.75 1292.96 L2203.77 1293.27 L2205.78 1293.58 L2207.8 1293.89 L2209.81 1294.2 L2211.82 1294.51 L2213.84 1294.82 L2215.85 1295.12 L2217.87 1295.43 L2219.88 1295.74 L2221.9 1296.04 L2223.91 1296.35 L2225.92 1296.66 L2227.94 1296.96 L2229.95 1297.27 L2231.97 1297.57 L2233.98 1297.87 L2235.99 1298.18 L2238.01 1298.48 L2240.02 1298.78 L2242.04 1299.09 L2244.05 1299.39 L2246.07 1299.69 L2248.08 1299.99 L2250.09 1300.29 L2252.11 1300.59 L2254.12 1300.89 L2256.14 1301.19 L2258.15 1301.49 L2260.16 1301.79 L2262.18 1302.09 L2264.19 1302.39 L2266.21 1302.68 L2268.22 1302.98 L2270.24 1303.28 L2272.25 1303.57 L2274.26 1303.87 L2276.28 1304.16 L2278.29 1304.46 L2280.31 1304.75 L2282.32 1305.05 L2284.33 1305.34 L2286.35 1305.64 L2288.36 1305.93 L2290.38 1306.22 L2292.39 1306.52 L2292.39 1306.52 L2290.38 1306.22 L2288.36 1305.93 L2286.35 1305.64 L2284.33 1305.34 L2282.32 1305.05 L2280.31 1304.75 L2278.29 1304.46 L2276.28 1304.16 L2274.26 1303.87 L2272.25 1303.57 L2270.24 1303.28 L2268.22 1302.98 L2266.21 1302.68 L2264.19 1302.39 L2262.18 1302.09 L2260.16 1301.79 L2258.15 1301.49 L2256.14 1301.19 L2254.12 1300.89 L2252.11 1300.59 L2250.09 1300.29 L2248.08 1299.99 L2246.07 1299.69 L2244.05 1299.39 L2242.04 1299.09 L2240.02 1298.78 L2238.01 1298.48 L2235.99 1298.18 L2233.98 1297.87 L2231.97 1297.57 L2229.95 1297.27 L2227.94 1296.96 L2225.92 1296.66 L2223.91 1296.35 L2221.9 1296.04 L2219.88 1295.74 L2217.87 1295.43 L2215.85 1295.12 L2213.84 1294.82 L2211.82 1294.51 L2209.81 1294.2 L2207.8 1293.89 L2205.78 1293.58 L2203.77 1293.27 L2201.75 1292.96 L2199.74 1292.65 L2197.72 1292.34 L2195.71 1292.03 L2193.7 1291.72 L2191.68 1291.4 L2189.67 1291.09 L2187.65 1290.78 L2185.64 1290.46 L2183.63 1290.15 L2181.61 1289.84 L2179.6 1289.52 L2177.58 1289.21 L2175.57 1288.89 L2173.55 1288.57 L2171.54 1288.26 L2169.53 1287.94 L2167.51 1287.62 L2165.5 1287.31 L2163.48 1286.99 L2161.47 1286.67 L2159.46 1286.35 L2157.44 1286.03 L2155.43 1285.71 L2153.41 1285.39 L2151.4 1285.07 L2149.38 1284.75 L2147.37 1284.42 L2145.36 1284.1 L2143.34 1283.78 L2141.33 1283.46 L2139.31 1283.13 L2137.3 1282.81 L2135.29 1282.48 L2133.27 1282.16 L2131.26 1281.83 L2129.24 1281.51 L2127.23 1281.18 L2125.21 1280.85 L2123.2 1280.52 L2121.19 1280.2 L2119.17 1279.87 L2117.16 1279.54 L2115.14 1279.21 L2113.13 1278.88 L2111.12 1278.55 L2109.1 1278.22 L2107.09 1277.89 L2105.07 1277.56 L2103.06 1277.23 L2101.04 1276.89 L2099.03 1276.56 L2097.02 1276.23 L2095 1275.89 L2092.99 1275.56 L2090.97 1275.22 L2088.96 1274.89 L2086.95 1274.55 L2084.93 1274.22 L2082.92 1273.88 L2080.9 1273.54 L2078.89 1273.2 L2076.87 1272.86 L2074.86 1272.53 L2072.85 1272.19 L2070.83 1271.85 L2068.82 1271.51 L2066.8 1271.17 L2064.79 1270.82 L2062.78 1270.48 L2060.76 1270.14 L2058.75 1269.8 L2056.73 1269.45 L2054.72 1269.11 L2052.7 1268.77 L2050.69 1268.42 L2048.68 1268.08 L2046.66 1267.73 L2044.65 1267.38 L2042.63 1267.04 L2040.62 1266.69 L2038.61 1266.34 L2036.59 1265.99 L2034.58 1265.65 L2032.56 1265.3 L2030.55 1264.95 L2028.53 1264.6 L2026.52 1264.24 L2024.51 1263.89 L2022.49 1263.54 L2020.48 1263.19 L2018.46 1262.84 L2016.45 1262.48 L2014.44 1262.13 L2012.42 1261.77 L2010.41 1261.42 L2008.39 1261.06 L2006.38 1260.71 L2004.36 1260.35 L2002.35 1259.99 L2000.34 1259.64 L1998.32 1259.28 L1996.31 1258.92 L1994.29 1258.56 L1992.28 1258.2 L1990.26 1257.84 L1988.25 1257.48 L1986.24 1257.12 L1984.22 1256.75 L1982.21 1256.39 L1980.19 1256.03 L1978.18 1255.66 L1976.17 1255.3 L1974.15 1254.94 L1972.14 1254.57 L1970.12 1254.2 L1968.11 1253.84 L1966.09 1253.47 L1964.08 1253.1 L1962.07 1252.73 L1960.05 1252.37 L1958.04 1252 L1956.02 1251.63 L1954.01 1251.26 L1952 1250.89 L1949.98 1250.51 L1947.97 1250.14 L1945.95 1249.77 L1943.94 1249.4 L1941.92 1249.02 L1939.91 1248.65 L1937.9 1248.27 L1935.88 1247.9 L1933.87 1247.52 L1931.85 1247.14 L1929.84 1246.77 L1927.83 1246.39 L1925.81 1246.01 L1923.8 1245.63 L1921.78 1245.25 L1919.77 1244.87 L1917.75 1244.49 L1915.74 1244.11 L1913.73 1243.73 L1911.71 1243.34 L1909.7 1242.96 L1907.68 1242.58 L1905.67 1242.19 L1903.66 1241.81 L1901.64 1241.42 L1899.63 1241.04 L1897.61 1240.65 L1895.6 1240.26 L1893.58 1239.87 L1891.57 1239.48 L1889.56 1239.1 L1887.54 1238.71 L1885.53 1238.31 L1883.51 1237.92 L1881.5 1237.53 L1879.49 1237.14 L1877.47 1236.75 L1875.46 1236.35 L1873.44 1235.96 L1871.43 1235.56 L1869.41 1235.17 L1867.4 1234.77 L1865.39 1234.37 L1863.37 1233.98 L1861.36 1233.58 L1859.34 1233.18 L1857.33 1232.78 L1855.32 1232.38 L1853.3 1231.98 L1851.29 1231.58 L1849.27 1231.18 L1847.26 1230.77 L1845.24 1230.37 L1843.23 1229.97 L1841.22 1229.56 L1839.2 1229.16 L1837.19 1228.75 L1835.17 1228.34 L1833.16 1227.94 L1831.15 1227.53 L1829.13 1227.12 L1827.12 1226.71 L1825.1 1226.3 L1823.09 1225.89 L1821.07 1225.48 L1819.06 1225.07 L1817.05 1224.66 L1815.03 1224.24 L1813.02 1223.83 L1811 1223.41 L1808.99 1223 L1806.98 1222.58 L1804.96 1222.17 L1802.95 1221.75 L1800.93 1221.33 L1798.92 1220.91 L1796.9 1220.49 L1794.89 1220.07 L1792.88 1219.65 L1790.86 1219.23 L1788.85 1218.81 L1786.83 1218.38 L1784.82 1217.96 L1782.81 1217.54 L1780.79 1217.11 L1778.78 1216.69 L1776.76 1216.26 L1774.75 1215.83 L1772.73 1215.4 L1770.72 1214.97 L1768.71 1214.55 L1766.69 1214.11 L1764.68 1213.68 L1762.66 1213.25 L1760.65 1212.82 L1758.63 1212.39 L1756.62 1211.95 L1754.61 1211.52 L1752.59 1211.08 L1750.58 1210.65 L1748.56 1210.21 L1746.55 1209.77 L1744.54 1209.33 L1742.52 1208.9 L1740.51 1208.46 L1738.49 1208.02 L1736.48 1207.57 L1734.46 1207.13 L1732.45 1206.69 L1730.44 1206.25 L1728.42 1205.8 L1726.41 1205.36 L1724.39 1204.91 L1722.38 1204.46 L1720.37 1204.02 L1718.35 1203.57 L1716.34 1203.12 L1714.32 1202.67 L1712.31 1202.22 L1710.29 1201.77 L1708.28 1201.32 L1706.27 1200.86 L1704.25 1200.41 L1702.24 1199.95 L1700.22 1199.5 L1698.21 1199.04 L1696.2 1198.59 L1694.18 1198.13 L1692.17 1197.67 L1690.15 1197.21 L1688.14 1196.75 L1686.12 1196.29 L1684.11 1195.83 L1682.1 1195.36 L1680.08 1194.9 L1678.07 1194.44 L1676.05 1193.97 L1674.04 1193.51 L1672.03 1193.04 L1670.01 1192.57 L1668 1192.1 L1665.98 1191.63 L1663.97 1191.16 L1661.95 1190.69 L1659.94 1190.22 L1657.93 1189.75 L1655.91 1189.28 L1653.9 1188.8 L1651.88 1188.33 L1649.87 1187.85 L1647.86 1187.37 L1645.84 1186.89 L1643.83 1186.42 L1641.81 1185.94 L1639.8 1185.46 L1637.78 1184.98 L1635.77 1184.49 L1633.76 1184.01 L1631.74 1183.53 L1629.73 1183.04 L1627.71 1182.56 L1625.7 1182.07 L1623.69 1181.58 L1621.67 1181.09 L1619.66 1180.6 L1617.64 1180.11 L1615.63 1179.62 L1613.61 1179.13 L1611.6 1178.64 L1609.59 1178.14 L1607.57 1177.65 L1605.56 1177.15 L1603.54 1176.66 L1601.53 1176.16 L1599.52 1175.66 L1597.5 1175.16 L1595.49 1174.66 L1593.47 1174.16 L1591.46 1173.66 L1589.44 1173.16 L1587.43 1172.65 L1585.42 1172.15 L1583.4 1171.64 L1581.39 1171.13 L1579.37 1170.63 L1577.36 1170.12 L1575.35 1169.61 L1573.33 1169.1 L1571.32 1168.59 L1569.3 1168.07 L1567.29 1167.56 L1565.27 1167.04 L1563.26 1166.53 L1561.25 1166.01 L1559.23 1165.49 L1557.22 1164.98 L1555.2 1164.46 L1553.19 1163.94 L1551.17 1163.41 L1549.16 1162.89 L1547.15 1162.37 L1545.13 1161.84 L1543.12 1161.32 L1541.1 1160.79 L1539.09 1160.26 L1537.08 1159.74 L1535.06 1159.21 L1533.05 1158.68 L1531.03 1158.14 L1529.02 1157.61 L1527 1157.08 L1524.99 1156.54 L1522.98 1156.01 L1520.96 1155.47 L1518.95 1154.93 L1516.93 1154.39 L1514.92 1153.85 L1512.91 1153.31 L1510.89 1152.77 L1508.88 1152.23 L1506.86 1151.68 L1504.85 1151.14 L1502.83 1150.59 L1500.82 1150.04 L1498.81 1149.49 L1496.79 1148.94 L1494.78 1148.39 L1492.76 1147.84 L1490.75 1147.29 L1488.74 1146.73 L1486.72 1146.18 L1484.71 1145.62 L1482.69 1145.07 L1480.68 1144.51 L1478.66 1143.95 L1476.65 1143.39 L1474.64 1142.82 L1472.62 1142.26 L1470.61 1141.7 L1468.59 1141.13 L1466.58 1140.56 L1464.57 1140 L1462.55 1139.43 L1460.54 1138.86 L1458.52 1138.29 L1456.51 1137.71 L1454.49 1137.14 L1452.48 1136.57 L1450.47 1135.99 L1448.45 1135.41 L1446.44 1134.84 L1444.42 1134.26 L1442.41 1133.68 L1440.4 1133.09 L1438.38 1132.51 L1436.37 1131.93 L1434.35 1131.34 L1432.34 1130.75 L1430.32 1130.17 L1428.31 1129.58 L1426.3 1128.99 L1424.28 1128.4 L1422.27 1127.8 L1420.25 1127.21 L1418.24 1126.61 L1416.23 1126.02 L1414.21 1125.42 L1412.2 1124.82 L1410.18 1124.22 L1408.17 1123.62 L1406.15 1123.02 L1404.14 1122.41 L1402.13 1121.81 L1400.11 1121.2 L1398.1 1120.59 L1396.08 1119.98 L1394.07 1119.37 L1392.06 1118.76 L1390.04 1118.15 L1388.03 1117.53 L1386.01 1116.92 L1384 1116.3 L1381.98 1115.68 L1379.97 1115.06 L1377.96 1114.44 L1375.94 1113.82 L1373.93 1113.19 L1371.91 1112.57 L1369.9 1111.94 L1367.89 1111.31 L1365.87 1110.68 L1363.86 1110.05 L1361.84 1109.42 L1359.83 1108.79 L1357.81 1108.15 L1355.8 1107.52 L1353.79 1106.88 L1351.77 1106.24 L1349.76 1105.6 L1347.74 1104.96 L1345.73 1104.32 L1343.72 1103.67 L1341.7 1103.03 L1339.69 1102.38 L1337.67 1101.73 L1335.66 1101.08 L1333.64 1100.43 L1331.63 1099.77 L1329.62 1099.12 L1327.6 1098.46 L1325.59 1097.81 L1323.57 1097.15 L1321.56 1096.49 L1319.54 1095.82 L1317.53 1095.16 L1315.52 1094.5 L1313.5 1093.83 L1311.49 1093.16 L1309.47 1092.49 L1307.46 1091.82 L1305.45 1091.15 L1303.43 1090.47 L1301.42 1089.8 L1299.4 1089.12 L1297.39 1088.44 L1295.37 1087.76 L1293.36 1087.08 L1291.35 1086.4 L1289.33 1085.71 L1287.32 1085.03 L1285.3 1084.34 L1283.29 1083.65 L1281.28 1082.96 L1279.26 1082.26 L1277.25 1081.57 L1275.23 1080.87 L1273.22 1080.18 L1271.2 1079.48 L1269.19 1078.78 L1267.18 1078.07 L1265.16 1077.37 L1263.15 1076.66 L1261.13 1075.95 L1259.12 1075.25 L1257.11 1074.53 L1255.09 1073.82 L1253.08 1073.11 L1251.06 1072.39 L1249.05 1071.67 L1247.03 1070.95 L1245.02 1070.23 L1243.01 1069.51 L1240.99 1068.79 L1238.98 1068.06 L1236.96 1067.33 L1234.95 1066.6 L1232.94 1065.87 L1230.92 1065.14 L1228.91 1064.4 L1226.89 1063.67 L1224.88 1062.93 L1222.86 1062.19 L1220.85 1061.44 L1218.84 1060.7 L1216.82 1059.96 L1214.81 1059.21 L1212.79 1058.46 L1210.78 1057.71 L1208.77 1056.95 L1206.75 1056.2 L1204.74 1055.44 L1202.72 1054.68 L1200.71 1053.92 L1198.69 1053.16 L1196.68 1052.4 L1194.67 1051.63 L1192.65 1050.86 L1190.64 1050.09 L1188.62 1049.32 L1186.61 1048.55 L1184.6 1047.77 L1182.58 1046.99 L1180.57 1046.21 L1178.55 1045.43 L1176.54 1044.65 L1174.52 1043.86 L1172.51 1043.08 L1170.5 1042.29 L1168.48 1041.5 L1166.47 1040.7 L1164.45 1039.91 L1162.44 1039.11 L1160.43 1038.31 L1158.41 1037.51 L1156.4 1036.7 L1154.38 1035.9 L1152.37 1035.09 L1150.35 1034.28 L1148.34 1033.47 L1146.33 1032.66 L1144.31 1031.84 L1142.3 1031.02 L1140.28 1030.2 L1138.27 1029.38 L1136.26 1028.55 L1134.24 1027.73 L1132.23 1026.9 L1130.21 1026.07 L1128.2 1025.23 L1126.18 1024.4 L1124.17 1023.56 L1122.16 1022.72 L1120.14 1021.88 L1118.13 1021.04 L1116.11 1020.19 L1114.1 1019.34 L1112.09 1018.49 L1110.07 1017.64 L1108.06 1016.78 L1106.04 1015.92 L1104.03 1015.06 L1102.01 1014.2 L1100 1013.34 L1097.99 1012.47 L1095.97 1011.6 L1093.96 1010.73 L1091.94 1009.85 L1089.93 1008.98 L1087.91 1008.1 L1085.9 1007.22 L1083.89 1006.33 L1081.87 1005.45 L1079.86 1004.56 L1077.84 1003.67 L1075.83 1002.78 L1073.82 1001.88 L1071.8 1000.98 L1069.79 1000.08 L1067.77 999.18 L1065.76 998.274 L1063.74 997.366 L1061.73 996.456 L1059.72 995.543 L1057.7 994.627 L1055.69 993.709 L1053.67 992.788 L1051.66 991.865 L1049.65 990.939 L1047.63 990.011 L1045.62 989.08 L1043.6 988.146 L1041.59 987.21 L1039.57 986.271 L1037.56 985.329 L1035.55 984.385 L1033.53 983.438 L1031.52 982.488 L1029.5 981.535 L1027.49 980.58 L1025.48 979.622 L1023.46 978.662 L1021.45 977.698 L1019.43 976.732 L1017.42 975.763 L1015.4 974.791 L1013.39 973.817 L1011.38 972.839 L1009.36 971.859 L1007.35 970.876 L1005.33 969.89 L1003.32 968.901 L1001.31 967.91 L999.291 966.915 L997.277 965.917 L995.263 964.917 L993.249 963.913 L991.235 962.907 L989.22 961.897 L987.206 960.885 L985.192 959.869 L983.178 958.851 L981.164 957.829 L979.15 956.805 L977.135 955.777 L975.121 954.746 L973.107 953.712 L971.093 952.675 L969.079 951.635 L967.064 950.592 L965.05 949.545 L963.036 948.496 L961.022 947.443 L959.008 946.387 L956.994 945.328 L954.979 944.265 L952.965 943.199 L950.951 942.13 L948.937 941.058 L946.923 939.982 L944.909 938.903 L942.894 937.821 L940.88 936.735 L938.866 935.646 L936.852 934.553 L934.838 933.457 L932.824 932.358 L930.809 931.255 L928.795 930.148 L926.781 929.039 L924.767 927.925 L922.753 926.808 L920.738 925.688 L918.724 924.564 L916.71 923.436 L914.696 922.305 L912.682 921.17 L910.668 920.032 L908.653 918.89 L906.639 917.744 L904.625 916.595 L902.611 915.441 L900.597 914.285 L898.583 913.124 L896.568 911.959 L894.554 910.791 L892.54 909.619 L890.526 908.443 L888.512 907.263 L886.498 906.079 L884.483 904.892 L882.469 903.7 L880.455 902.505 L878.441 901.305 L876.427 900.102 L874.412 898.894 L872.398 897.683 L870.384 896.467 L868.37 895.248 L866.356 894.024 L864.342 892.796 L862.327 891.564 L860.313 890.328 L858.299 889.088 L856.285 887.843 L854.271 886.594 L852.257 885.341 L850.242 884.083 L848.228 882.822 L846.214 881.556 L844.2 880.285 L842.186 879.01 L840.171 877.731 L838.157 876.447 L836.143 875.159 L834.129 873.867 L832.115 872.569 L830.101 871.268 L828.086 869.961 L826.072 868.65 L824.058 867.335 L822.044 866.015 L820.03 864.69 L818.016 863.36 L816.001 862.026 L813.987 860.687 L811.973 859.343 L809.959 857.994 L807.945 856.641 L805.931 855.283 L803.916 853.919 L801.902 852.551 L799.888 851.178 L797.874 849.8 L795.86 848.416 L793.845 847.028 L791.831 845.635 L789.817 844.236 L787.803 842.833 L785.789 841.424 L783.775 840.01 L781.76 838.59 L779.746 837.166 L777.732 835.736 L775.718 834.301 L773.704 832.86 L771.69 831.414 L769.675 829.963 L767.661 828.506 L765.647 827.044 L763.633 825.576 L761.619 824.102 L759.605 822.623 L757.59 821.138 L755.576 819.648 L753.562 818.151 L751.548 816.65 L749.534 815.142 L747.519 813.628 L745.505 812.109 L743.491 810.583 L741.477 809.052 L739.463 807.515 L737.449 805.971 L735.434 804.422 L733.42 802.867 L731.406 801.305 L729.392 799.737 L727.378 798.163 L725.364 796.583 L723.349 794.996 L721.335 793.403 L719.321 791.804 L717.307 790.198 L715.293 788.586 L713.279 786.967 L711.264 785.342 L709.25 783.71 L707.236 782.072 L705.222 780.427 L703.208 778.775 L701.193 777.116 L699.179 775.45 L697.165 773.778 L695.151 772.098 L693.137 770.412 L691.123 768.719 L689.108 767.018 L687.094 765.311 L685.08 763.596 L683.066 761.874 L681.052 760.145 L679.038 758.408 L677.023 756.665 L675.009 754.913 L672.995 753.155 L670.981 751.388 L668.967 749.614 L666.953 747.833 L664.938 746.044 L662.924 744.247 L660.91 742.442 L658.896 740.63 L656.882 738.809 L654.867 736.981 L652.853 735.144 L650.839 733.3 L648.825 731.447 L646.811 729.586 L644.797 727.717 L642.782 725.84 L640.768 723.954 L638.754 722.059 L636.74 720.157 L634.726 718.245 L632.712 716.325 L630.697 714.397 L628.683 712.459 L626.669 710.513 L624.655 708.558 L622.641 706.594 L620.627 704.62 L618.612 702.638 L616.598 700.647 L614.584 698.646 L612.57 696.636 L610.556 694.617 L608.541 692.588 L606.527 690.55 L604.513 688.502 L602.499 686.444 L600.485 684.377 L598.471 682.299 L596.456 680.212 L594.442 678.115 L592.428 676.008 L590.414 673.891 L588.4 671.763 L586.386 669.625 L584.371 667.477 L582.357 665.318 L580.343 663.149 L578.329 660.969 L576.315 658.779 L574.301 656.577 L572.286 654.365 L570.272 652.142 L568.258 649.907 L566.244 647.662 L564.23 645.405 L562.215 643.136 L560.201 640.857 L558.187 638.566 L556.173 636.263 L554.159 633.948 L552.145 631.622 L550.13 629.283 L548.116 626.933 L546.102 624.57 L544.088 622.195 L542.074 619.808 L540.06 617.408 L538.045 614.996 L536.031 612.571 L534.017 610.134 L532.003 607.683 L529.989 605.219 L527.974 602.742 L525.96 600.252 L523.946 597.749 L521.932 595.232 L519.918 592.702 L517.904 590.158 L515.889 587.6 L513.875 585.028 L511.861 582.442 L509.847 579.841 L507.833 577.227 L505.819 574.597 L503.804 571.954 L501.79 569.295 L499.776 566.622 L497.762 563.933 L495.748 561.23 L493.734 558.511 L491.719 555.776 L489.705 553.027 L487.691 550.261 L485.677 547.479 L483.663 544.682 L481.648 541.868 L479.634 539.038 L477.62 536.191 L475.606 533.328 L473.592 530.448 L471.578 527.55 L469.563 524.636 L467.549 521.705 L465.535 518.755 L463.521 515.789 L461.507 512.804 L459.493 509.802 L457.478 506.781 L455.464 503.742 L453.45 500.684 L451.436 497.607 L449.422 494.512 L447.408 491.397 L445.393 488.263 L443.379 485.11 L441.365 481.937 L439.351 478.744 L437.337 475.531 L435.322 472.297 L433.308 469.043 L431.294 465.768 L429.28 462.472 L427.266 459.155 L425.252 455.817 L423.237 452.456 L421.223 449.074 L419.209 445.67 L417.195 442.244 L415.181 438.794 L413.167 435.322 L411.152 431.827 L409.138 428.309 L407.124 424.766 L405.11 421.2 L403.096 417.61 L401.082 413.995 L399.067 410.356 L397.053 406.692 L395.039 403.002 L393.025 399.287 L391.011 395.546 L388.996 391.779 L386.982 387.986 L384.968 384.165 L382.954 380.318 L380.94 376.444 L378.926 372.541 L376.911 368.611 L374.897 364.652 L372.883 360.665 L370.869 356.649 L368.855 352.603 L366.841 348.527 L364.826 344.422 L362.812 340.286 L360.798 336.119 L358.784 331.921 L356.77 327.692 L354.756 323.43 L352.741 319.136 L350.727 314.81 L348.713 310.45 L346.699 306.056 L344.685 301.629 L342.67 297.167 L340.656 292.67 L338.642 288.138 L336.628 283.57 L334.614 278.965 L332.6 274.324 L330.585 269.646 L328.571 264.93 L326.557 260.176 L324.543 255.383 L322.529 250.551 L320.515 245.678 L318.5 240.766 L316.486 235.813 L314.472 230.818 L312.458 225.782 L310.444 220.702 L308.43 215.58 L306.415 210.414 L304.401 205.203 L302.387 199.948 L300.373 194.646 L298.359 189.299 L296.344 183.904 L294.33 178.462 L292.316 172.972 L290.302 167.432 L288.288 161.843 L286.274 156.203 L284.259 150.512 L282.245 144.769 L280.231 138.973  Z" fill="#000000" fill-rule="evenodd" fill-opacity="0.5"/>
<polyline clip-path="url(#clip432)" style="stroke:#000000; stroke-linecap:round; stroke-linejoin:round; stroke-width:4; stroke-opacity:1; fill:none" stroke-dasharray="16, 10" points="280.231,138.973 282.245,144.769 284.259,150.512 286.274,156.203 288.288,161.843 290.302,167.432 292.316,172.972 294.33,178.462 296.344,183.904 298.359,189.299 300.373,194.646 302.387,199.948 304.401,205.203 306.415,210.414 308.43,215.58 310.444,220.702 312.458,225.782 314.472,230.818 316.486,235.813 318.5,240.766 320.515,245.678 322.529,250.551 324.543,255.383 326.557,260.176 328.571,264.93 330.585,269.646 332.6,274.324 334.614,278.965 336.628,283.57 338.642,288.138 340.656,292.67 342.67,297.167 344.685,301.629 346.699,306.056 348.713,310.45 350.727,314.81 352.741,319.136 354.756,323.43 356.77,327.692 358.784,331.921 360.798,336.119 362.812,340.286 364.826,344.422 366.841,348.527 368.855,352.603 370.869,356.649 372.883,360.665 374.897,364.652 376.911,368.611 378.926,372.541 380.94,376.444 382.954,380.318 384.968,384.165 386.982,387.986 388.996,391.779 391.011,395.546 393.025,399.287 395.039,403.002 397.053,406.692 399.067,410.356 401.082,413.995 403.096,417.61 405.11,421.2 407.124,424.766 409.138,428.309 411.152,431.827 413.167,435.322 415.181,438.794 417.195,442.244 419.209,445.67 421.223,449.074 423.237,452.456 425.252,455.817 427.266,459.155 429.28,462.472 431.294,465.768 433.308,469.043 435.322,472.297 437.337,475.531 439.351,478.744 441.365,481.937 443.379,485.11 445.393,488.263 447.408,491.397 449.422,494.512 451.436,497.607 453.45,500.684 455.464,503.742 457.478,506.781 459.493,509.802 461.507,512.804 463.521,515.789 465.535,518.755 467.549,521.705 469.563,524.636 471.578,527.55 473.592,530.448 475.606,533.328 477.62,536.191 479.634,539.038 481.648,541.868 483.663,544.682 485.677,547.479 487.691,550.261 489.705,553.027 491.719,555.776 493.734,558.511 495.748,561.23 497.762,563.933 499.776,566.622 501.79,569.295 503.804,571.954 505.819,574.597 507.833,577.227 509.847,579.841 511.861,582.442 513.875,585.028 515.889,587.6 517.904,590.158 519.918,592.702 521.932,595.232 523.946,597.749 525.96,600.252 527.974,602.742 529.989,605.219 532.003,607.683 534.017,610.134 536.031,612.571 538.045,614.996 540.06,617.408 542.074,619.808 544.088,622.195 546.102,624.57 548.116,626.933 550.13,629.283 552.145,631.622 554.159,633.948 556.173,636.263 558.187,638.566 560.201,640.857 562.215,643.136 564.23,645.405 566.244,647.662 568.258,649.907 570.272,652.142 572.286,654.365 574.301,656.577 576.315,658.779 578.329,660.969 580.343,663.149 582.357,665.318 584.371,667.477 586.386,669.625 588.4,671.763 590.414,673.891 592.428,676.008 594.442,678.115 596.456,680.212 598.471,682.299 600.485,684.377 602.499,686.444 604.513,688.502 606.527,690.55 608.541,692.588 610.556,694.617 612.57,696.636 614.584,698.646 616.598,700.647 618.612,702.638 620.627,704.62 622.641,706.594 624.655,708.558 626.669,710.513 628.683,712.459 630.697,714.397 632.712,716.325 634.726,718.245 636.74,720.157 638.754,722.059 640.768,723.954 642.782,725.84 644.797,727.717 646.811,729.586 648.825,731.447 650.839,733.3 652.853,735.144 654.867,736.981 656.882,738.809 658.896,740.63 660.91,742.442 662.924,744.247 664.938,746.044 666.953,747.833 668.967,749.614 670.981,751.388 672.995,753.155 675.009,754.913 677.023,756.665 679.038,758.408 681.052,760.145 683.066,761.874 685.08,763.596 687.094,765.311 689.108,767.018 691.123,768.719 693.137,770.412 695.151,772.098 697.165,773.778 699.179,775.45 701.193,777.116 703.208,778.775 705.222,780.427 707.236,782.072 709.25,783.71 711.264,785.342 713.279,786.967 715.293,788.586 717.307,790.198 719.321,791.804 721.335,793.403 723.349,794.996 725.364,796.583 727.378,798.163 729.392,799.737 731.406,801.305 733.42,802.867 735.434,804.422 737.449,805.971 739.463,807.515 741.477,809.052 743.491,810.583 745.505,812.109 747.519,813.628 749.534,815.142 751.548,816.65 753.562,818.151 755.576,819.648 757.59,821.138 759.605,822.623 761.619,824.102 763.633,825.576 765.647,827.044 767.661,828.506 769.675,829.963 771.69,831.414 773.704,832.86 775.718,834.301 777.732,835.736 779.746,837.166 781.76,838.59 783.775,840.01 785.789,841.424 787.803,842.833 789.817,844.236 791.831,845.635 793.845,847.028 795.86,848.416 797.874,849.8 799.888,851.178 801.902,852.551 803.916,853.919 805.931,855.283 807.945,856.641 809.959,857.994 811.973,859.343 813.987,860.687 816.001,862.026 818.016,863.36 820.03,864.69 822.044,866.015 824.058,867.335 826.072,868.65 828.086,869.961 830.101,871.268 832.115,872.569 834.129,873.867 836.143,875.159 838.157,876.447 840.171,877.731 842.186,879.01 844.2,880.285 846.214,881.556 848.228,882.822 850.242,884.083 852.257,885.341 854.271,886.594 856.285,887.843 858.299,889.088 860.313,890.328 862.327,891.564 864.342,892.796 866.356,894.024 868.37,895.248 870.384,896.467 872.398,897.683 874.412,898.894 876.427,900.102 878.441,901.305 880.455,902.505 882.469,903.7 884.483,904.892 886.498,906.079 888.512,907.263 890.526,908.443 892.54,909.619 894.554,910.791 896.568,911.959 898.583,913.124 900.597,914.285 902.611,915.441 904.625,916.595 906.639,917.744 908.653,918.89 910.668,920.032 912.682,921.17 914.696,922.305 916.71,923.436 918.724,924.564 920.738,925.688 922.753,926.808 924.767,927.925 926.781,929.039 928.795,930.148 930.809,931.255 932.824,932.358 934.838,933.457 936.852,934.553 938.866,935.646 940.88,936.735 942.894,937.821 944.909,938.903 946.923,939.982 948.937,941.058 950.951,942.13 952.965,943.199 954.979,944.265 956.994,945.328 959.008,946.387 961.022,947.443 963.036,948.496 965.05,949.545 967.064,950.592 969.079,951.635 971.093,952.675 973.107,953.712 975.121,954.746 977.135,955.777 979.15,956.805 981.164,957.829 983.178,958.851 985.192,959.869 987.206,960.885 989.22,961.897 991.235,962.907 993.249,963.913 995.263,964.917 997.277,965.917 999.291,966.915 1001.31,967.91 1003.32,968.901 1005.33,969.89 1007.35,970.876 1009.36,971.859 1011.38,972.839 1013.39,973.817 1015.4,974.791 1017.42,975.763 1019.43,976.732 1021.45,977.698 1023.46,978.662 1025.48,979.622 1027.49,980.58 1029.5,981.535 1031.52,982.488 1033.53,983.438 1035.55,984.385 1037.56,985.329 1039.57,986.271 1041.59,987.21 1043.6,988.146 1045.62,989.08 1047.63,990.011 1049.65,990.939 1051.66,991.865 1053.67,992.788 1055.69,993.709 1057.7,994.627 1059.72,995.543 1061.73,996.456 1063.74,997.366 1065.76,998.274 1067.77,999.18 1069.79,1000.08 1071.8,1000.98 1073.82,1001.88 1075.83,1002.78 1077.84,1003.67 1079.86,1004.56 1081.87,1005.45 1083.89,1006.33 1085.9,1007.22 1087.91,1008.1 1089.93,1008.98 1091.94,1009.85 1093.96,1010.73 1095.97,1011.6 1097.99,1012.47 1100,1013.34 1102.01,1014.2 1104.03,1015.06 1106.04,1015.92 1108.06,1016.78 1110.07,1017.64 1112.09,1018.49 1114.1,1019.34 1116.11,1020.19 1118.13,1021.04 1120.14,1021.88 1122.16,1022.72 1124.17,1023.56 1126.18,1024.4 1128.2,1025.23 1130.21,1026.07 1132.23,1026.9 1134.24,1027.73 1136.26,1028.55 1138.27,1029.38 1140.28,1030.2 1142.3,1031.02 1144.31,1031.84 1146.33,1032.66 1148.34,1033.47 1150.35,1034.28 1152.37,1035.09 1154.38,1035.9 1156.4,1036.7 1158.41,1037.51 1160.43,1038.31 1162.44,1039.11 1164.45,1039.91 1166.47,1040.7 1168.48,1041.5 1170.5,1042.29 1172.51,1043.08 1174.52,1043.86 1176.54,1044.65 1178.55,1045.43 1180.57,1046.21 1182.58,1046.99 1184.6,1047.77 1186.61,1048.55 1188.62,1049.32 1190.64,1050.09 1192.65,1050.86 1194.67,1051.63 1196.68,1052.4 1198.69,1053.16 1200.71,1053.92 1202.72,1054.68 1204.74,1055.44 1206.75,1056.2 1208.77,1056.95 1210.78,1057.71 1212.79,1058.46 1214.81,1059.21 1216.82,1059.96 1218.84,1060.7 1220.85,1061.44 1222.86,1062.19 1224.88,1062.93 1226.89,1063.67 1228.91,1064.4 1230.92,1065.14 1232.94,1065.87 1234.95,1066.6 1236.96,1067.33 1238.98,1068.06 1240.99,1068.79 1243.01,1069.51 1245.02,1070.23 1247.03,1070.95 1249.05,1071.67 1251.06,1072.39 1253.08,1073.11 1255.09,1073.82 1257.11,1074.53 1259.12,1075.25 1261.13,1075.95 1263.15,1076.66 1265.16,1077.37 1267.18,1078.07 1269.19,1078.78 1271.2,1079.48 1273.22,1080.18 1275.23,1080.87 1277.25,1081.57 1279.26,1082.26 1281.28,1082.96 1283.29,1083.65 1285.3,1084.34 1287.32,1085.03 1289.33,1085.71 1291.35,1086.4 1293.36,1087.08 1295.37,1087.76 1297.39,1088.44 1299.4,1089.12 1301.42,1089.8 1303.43,1090.47 1305.45,1091.15 1307.46,1091.82 1309.47,1092.49 1311.49,1093.16 1313.5,1093.83 1315.52,1094.5 1317.53,1095.16 1319.54,1095.82 1321.56,1096.49 1323.57,1097.15 1325.59,1097.81 1327.6,1098.46 1329.62,1099.12 1331.63,1099.77 1333.64,1100.43 1335.66,1101.08 1337.67,1101.73 1339.69,1102.38 1341.7,1103.03 1343.72,1103.67 1345.73,1104.32 1347.74,1104.96 1349.76,1105.6 1351.77,1106.24 1353.79,1106.88 1355.8,1107.52 1357.81,1108.15 1359.83,1108.79 1361.84,1109.42 1363.86,1110.05 1365.87,1110.68 1367.89,1111.31 1369.9,1111.94 1371.91,1112.57 1373.93,1113.19 1375.94,1113.82 1377.96,1114.44 1379.97,1115.06 1381.98,1115.68 1384,1116.3 1386.01,1116.92 1388.03,1117.53 1390.04,1118.15 1392.06,1118.76 1394.07,1119.37 1396.08,1119.98 1398.1,1120.59 1400.11,1121.2 1402.13,1121.81 1404.14,1122.41 1406.15,1123.02 1408.17,1123.62 1410.18,1124.22 1412.2,1124.82 1414.21,1125.42 1416.23,1126.02 1418.24,1126.61 1420.25,1127.21 1422.27,1127.8 1424.28,1128.4 1426.3,1128.99 1428.31,1129.58 1430.32,1130.17 1432.34,1130.75 1434.35,1131.34 1436.37,1131.93 1438.38,1132.51 1440.4,1133.09 1442.41,1133.68 1444.42,1134.26 1446.44,1134.84 1448.45,1135.41 1450.47,1135.99 1452.48,1136.57 1454.49,1137.14 1456.51,1137.71 1458.52,1138.29 1460.54,1138.86 1462.55,1139.43 1464.57,1140 1466.58,1140.56 1468.59,1141.13 1470.61,1141.7 1472.62,1142.26 1474.64,1142.82 1476.65,1143.39 1478.66,1143.95 1480.68,1144.51 1482.69,1145.07 1484.71,1145.62 1486.72,1146.18 1488.74,1146.73 1490.75,1147.29 1492.76,1147.84 1494.78,1148.39 1496.79,1148.94 1498.81,1149.49 1500.82,1150.04 1502.83,1150.59 1504.85,1151.14 1506.86,1151.68 1508.88,1152.23 1510.89,1152.77 1512.91,1153.31 1514.92,1153.85 1516.93,1154.39 1518.95,1154.93 1520.96,1155.47 1522.98,1156.01 1524.99,1156.54 1527,1157.08 1529.02,1157.61 1531.03,1158.14 1533.05,1158.68 1535.06,1159.21 1537.08,1159.74 1539.09,1160.26 1541.1,1160.79 1543.12,1161.32 1545.13,1161.84 1547.15,1162.37 1549.16,1162.89 1551.17,1163.41 1553.19,1163.94 1555.2,1164.46 1557.22,1164.98 1559.23,1165.49 1561.25,1166.01 1563.26,1166.53 1565.27,1167.04 1567.29,1167.56 1569.3,1168.07 1571.32,1168.59 1573.33,1169.1 1575.35,1169.61 1577.36,1170.12 1579.37,1170.63 1581.39,1171.13 1583.4,1171.64 1585.42,1172.15 1587.43,1172.65 1589.44,1173.16 1591.46,1173.66 1593.47,1174.16 1595.49,1174.66 1597.5,1175.16 1599.52,1175.66 1601.53,1176.16 1603.54,1176.66 1605.56,1177.15 1607.57,1177.65 1609.59,1178.14 1611.6,1178.64 1613.61,1179.13 1615.63,1179.62 1617.64,1180.11 1619.66,1180.6 1621.67,1181.09 1623.69,1181.58 1625.7,1182.07 1627.71,1182.56 1629.73,1183.04 1631.74,1183.53 1633.76,1184.01 1635.77,1184.49 1637.78,1184.98 1639.8,1185.46 1641.81,1185.94 1643.83,1186.42 1645.84,1186.89 1647.86,1187.37 1649.87,1187.85 1651.88,1188.33 1653.9,1188.8 1655.91,1189.28 1657.93,1189.75 1659.94,1190.22 1661.95,1190.69 1663.97,1191.16 1665.98,1191.63 1668,1192.1 1670.01,1192.57 1672.03,1193.04 1674.04,1193.51 1676.05,1193.97 1678.07,1194.44 1680.08,1194.9 1682.1,1195.36 1684.11,1195.83 1686.12,1196.29 1688.14,1196.75 1690.15,1197.21 1692.17,1197.67 1694.18,1198.13 1696.2,1198.59 1698.21,1199.04 1700.22,1199.5 1702.24,1199.95 1704.25,1200.41 1706.27,1200.86 1708.28,1201.32 1710.29,1201.77 1712.31,1202.22 1714.32,1202.67 1716.34,1203.12 1718.35,1203.57 1720.37,1204.02 1722.38,1204.46 1724.39,1204.91 1726.41,1205.36 1728.42,1205.8 1730.44,1206.25 1732.45,1206.69 1734.46,1207.13 1736.48,1207.57 1738.49,1208.02 1740.51,1208.46 1742.52,1208.9 1744.54,1209.33 1746.55,1209.77 1748.56,1210.21 1750.58,1210.65 1752.59,1211.08 1754.61,1211.52 1756.62,1211.95 1758.63,1212.39 1760.65,1212.82 1762.66,1213.25 1764.68,1213.68 1766.69,1214.11 1768.71,1214.55 1770.72,1214.97 1772.73,1215.4 1774.75,1215.83 1776.76,1216.26 1778.78,1216.69 1780.79,1217.11 1782.81,1217.54 1784.82,1217.96 1786.83,1218.38 1788.85,1218.81 1790.86,1219.23 1792.88,1219.65 1794.89,1220.07 1796.9,1220.49 1798.92,1220.91 1800.93,1221.33 1802.95,1221.75 1804.96,1222.17 1806.98,1222.58 1808.99,1223 1811,1223.41 1813.02,1223.83 1815.03,1224.24 1817.05,1224.66 1819.06,1225.07 1821.07,1225.48 1823.09,1225.89 1825.1,1226.3 1827.12,1226.71 1829.13,1227.12 1831.15,1227.53 1833.16,1227.94 1835.17,1228.34 1837.19,1228.75 1839.2,1229.16 1841.22,1229.56 1843.23,1229.97 1845.24,1230.37 1847.26,1230.77 1849.27,1231.18 1851.29,1231.58 1853.3,1231.98 1855.32,1232.38 1857.33,1232.78 1859.34,1233.18 1861.36,1233.58 1863.37,1233.98 1865.39,1234.37 1867.4,1234.77 1869.41,1235.17 1871.43,1235.56 1873.44,1235.96 1875.46,1236.35 1877.47,1236.75 1879.49,1237.14 1881.5,1237.53 1883.51,1237.92 1885.53,1238.31 1887.54,1238.71 1889.56,1239.1 1891.57,1239.48 1893.58,1239.87 1895.6,1240.26 1897.61,1240.65 1899.63,1241.04 1901.64,1241.42 1903.66,1241.81 1905.67,1242.19 1907.68,1242.58 1909.7,1242.96 1911.71,1243.34 1913.73,1243.73 1915.74,1244.11 1917.75,1244.49 1919.77,1244.87 1921.78,1245.25 1923.8,1245.63 1925.81,1246.01 1927.83,1246.39 1929.84,1246.77 1931.85,1247.14 1933.87,1247.52 1935.88,1247.9 1937.9,1248.27 1939.91,1248.65 1941.92,1249.02 1943.94,1249.4 1945.95,1249.77 1947.97,1250.14 1949.98,1250.51 1952,1250.89 1954.01,1251.26 1956.02,1251.63 1958.04,1252 1960.05,1252.37 1962.07,1252.73 1964.08,1253.1 1966.09,1253.47 1968.11,1253.84 1970.12,1254.2 1972.14,1254.57 1974.15,1254.94 1976.17,1255.3 1978.18,1255.66 1980.19,1256.03 1982.21,1256.39 1984.22,1256.75 1986.24,1257.12 1988.25,1257.48 1990.26,1257.84 1992.28,1258.2 1994.29,1258.56 1996.31,1258.92 1998.32,1259.28 2000.34,1259.64 2002.35,1259.99 2004.36,1260.35 2006.38,1260.71 2008.39,1261.06 2010.41,1261.42 2012.42,1261.77 2014.44,1262.13 2016.45,1262.48 2018.46,1262.84 2020.48,1263.19 2022.49,1263.54 2024.51,1263.89 2026.52,1264.24 2028.53,1264.6 2030.55,1264.95 2032.56,1265.3 2034.58,1265.65 2036.59,1265.99 2038.61,1266.34 2040.62,1266.69 2042.63,1267.04 2044.65,1267.38 2046.66,1267.73 2048.68,1268.08 2050.69,1268.42 2052.7,1268.77 2054.72,1269.11 2056.73,1269.45 2058.75,1269.8 2060.76,1270.14 2062.78,1270.48 2064.79,1270.82 2066.8,1271.17 2068.82,1271.51 2070.83,1271.85 2072.85,1272.19 2074.86,1272.53 2076.87,1272.86 2078.89,1273.2 2080.9,1273.54 2082.92,1273.88 2084.93,1274.22 2086.95,1274.55 2088.96,1274.89 2090.97,1275.22 2092.99,1275.56 2095,1275.89 2097.02,1276.23 2099.03,1276.56 2101.04,1276.89 2103.06,1277.23 2105.07,1277.56 2107.09,1277.89 2109.1,1278.22 2111.12,1278.55 2113.13,1278.88 2115.14,1279.21 2117.16,1279.54 2119.17,1279.87 2121.19,1280.2 2123.2,1280.52 2125.21,1280.85 2127.23,1281.18 2129.24,1281.51 2131.26,1281.83 2133.27,1282.16 2135.29,1282.48 2137.3,1282.81 2139.31,1283.13 2141.33,1283.46 2143.34,1283.78 2145.36,1284.1 2147.37,1284.42 2149.38,1284.75 2151.4,1285.07 2153.41,1285.39 2155.43,1285.71 2157.44,1286.03 2159.46,1286.35 2161.47,1286.67 2163.48,1286.99 2165.5,1287.31 2167.51,1287.62 2169.53,1287.94 2171.54,1288.26 2173.55,1288.57 2175.57,1288.89 2177.58,1289.21 2179.6,1289.52 2181.61,1289.84 2183.63,1290.15 2185.64,1290.46 2187.65,1290.78 2189.67,1291.09 2191.68,1291.4 2193.7,1291.72 2195.71,1292.03 2197.72,1292.34 2199.74,1292.65 2201.75,1292.96 2203.77,1293.27 2205.78,1293.58 2207.8,1293.89 2209.81,1294.2 2211.82,1294.51 2213.84,1294.82 2215.85,1295.12 2217.87,1295.43 2219.88,1295.74 2221.9,1296.04 2223.91,1296.35 2225.92,1296.66 2227.94,1296.96 2229.95,1297.27 2231.97,1297.57 2233.98,1297.87 2235.99,1298.18 2238.01,1298.48 2240.02,1298.78 2242.04,1299.09 2244.05,1299.39 2246.07,1299.69 2248.08,1299.99 2250.09,1300.29 2252.11,1300.59 2254.12,1300.89 2256.14,1301.19 2258.15,1301.49 2260.16,1301.79 2262.18,1302.09 2264.19,1302.39 2266.21,1302.68 2268.22,1302.98 2270.24,1303.28 2272.25,1303.57 2274.26,1303.87 2276.28,1304.16 2278.29,1304.46 2280.31,1304.75 2282.32,1305.05 2284.33,1305.34 2286.35,1305.64 2288.36,1305.93 2290.38,1306.22 2292.39,1306.52 "/>
<path clip-path="url(#clip432)" d="M280.231 138.973 L682.663 767.168 L1085.1 1011.54 L1487.53 1151.94 L1889.96 1245.79 L2292.39 1316.31 L2292.39 1294.9 L1889.96 1229.67 L1487.53 1137.09 L1085.1 997.759 L682.663 759.188 L280.231 138.973  Z" fill="#389826" fill-rule="evenodd" fill-opacity="0.5"/>
<polyline clip-path="url(#clip432)" style="stroke:#389826; stroke-linecap:round; stroke-linejoin:round; stroke-width:4; stroke-opacity:1; fill:none" points="280.231,138.973 682.663,763.178 1085.1,1004.65 1487.53,1144.52 1889.96,1237.73 2292.39,1305.6 "/>
<path clip-path="url(#clip432)" d="M280.231 146.973 L274.575 144.629 L272.231 138.973 L274.575 133.317 L280.231 130.973 L285.887 133.317 L288.231 138.973 L285.887 144.629 Z" fill="#389826" fill-rule="evenodd" fill-opacity="1" stroke="#000000" stroke-opacity="1" stroke-width="3.2"/>
<path clip-path="url(#clip432)" d="M682.663 771.178 L677.007 768.834 L674.663 763.178 L677.007 757.522 L682.663 755.178 L688.319 757.522 L690.663 763.178 L688.319 768.834 Z" fill="#389826" fill-rule="evenodd" fill-opacity="1" stroke="#000000" stroke-opacity="1" stroke-width="3.2"/>
<path clip-path="url(#clip432)" d="M1085.1 1012.65 L1079.44 1010.3 L1077.1 1004.65 L1079.44 998.993 L1085.1 996.649 L1090.75 998.993 L1093.1 1004.65 L1090.75 1010.3 Z" fill="#389826" fill-rule="evenodd" fill-opacity="1" stroke="#000000" stroke-opacity="1" stroke-width="3.2"/>
<path clip-path="url(#clip432)" d="M1487.53 1152.52 L1481.87 1150.17 L1479.53 1144.52 L1481.87 1138.86 L1487.53 1136.52 L1493.18 1138.86 L1495.53 1144.52 L1493.18 1150.17 Z" fill="#389826" fill-rule="evenodd" fill-opacity="1" stroke="#000000" stroke-opacity="1" stroke-width="3.2"/>
<path clip-path="url(#clip432)" d="M1889.96 1245.73 L1884.3 1243.39 L1881.96 1237.73 L1884.3 1232.08 L1889.96 1229.73 L1895.62 1232.08 L1897.96 1237.73 L1895.62 1243.39 Z" fill="#389826" fill-rule="evenodd" fill-opacity="1" stroke="#000000" stroke-opacity="1" stroke-width="3.2"/>
<path clip-path="url(#clip432)" d="M2292.39 1313.6 L2286.74 1311.26 L2284.39 1305.6 L2286.74 1299.95 L2292.39 1297.6 L2298.05 1299.95 L2300.39 1305.6 L2298.05 1311.26 Z" fill="#389826" fill-rule="evenodd" fill-opacity="1" stroke="#000000" stroke-opacity="1" stroke-width="3.2"/>
<path clip-path="url(#clip430)" d="M1799 248.629 L2281.66 248.629 L2281.66 93.1086 L1799 93.1086  Z" fill="#ffffff" fill-rule="evenodd" fill-opacity="1"/>
<polyline clip-path="url(#clip430)" style="stroke:#000000; stroke-linecap:round; stroke-linejoin:round; stroke-width:4; stroke-opacity:1; fill:none" points="1799,248.629 2281.66,248.629 2281.66,93.1086 1799,93.1086 1799,248.629 "/>
<polyline clip-path="url(#clip430)" style="stroke:#000000; stroke-linecap:round; stroke-linejoin:round; stroke-width:4; stroke-opacity:1; fill:none" stroke-dasharray="16, 10" points="1822.7,144.949 1964.89,144.949 "/>
<path clip-path="url(#clip430)" d="M2004.98 146.025 Q2006.48 146.534 2007.89 148.201 Q2009.33 149.868 2010.76 152.784 L2015.51 162.229 L2010.49 162.229 L2006.06 153.363 Q2004.35 149.891 2002.73 148.756 Q2001.13 147.622 1998.36 147.622 L1993.26 147.622 L1993.26 162.229 L1988.59 162.229 L1988.59 127.669 L1999.14 127.669 Q2005.07 127.669 2007.99 130.145 Q2010.9 132.622 2010.9 137.622 Q2010.9 140.886 2009.37 143.039 Q2007.87 145.192 2004.98 146.025 M1993.26 131.511 L1993.26 143.78 L1999.14 143.78 Q2002.52 143.78 2004.24 142.229 Q2005.97 140.655 2005.97 137.622 Q2005.97 134.59 2004.24 133.062 Q2002.52 131.511 1999.14 131.511 L1993.26 131.511 Z" fill="#000000" fill-rule="nonzero" fill-opacity="1" /><path clip-path="url(#clip430)" d="M2041.39 148.201 L2041.39 150.284 L2021.8 150.284 Q2022.08 154.682 2024.44 156.997 Q2026.83 159.289 2031.06 159.289 Q2033.52 159.289 2035.81 158.687 Q2038.12 158.085 2040.39 156.881 L2040.39 160.909 Q2038.1 161.881 2035.69 162.391 Q2033.29 162.9 2030.81 162.9 Q2024.61 162.9 2020.97 159.289 Q2017.36 155.678 2017.36 149.52 Q2017.36 143.155 2020.79 139.428 Q2024.24 135.678 2030.07 135.678 Q2035.3 135.678 2038.33 139.057 Q2041.39 142.414 2041.39 148.201 M2037.13 146.951 Q2037.08 143.456 2035.16 141.372 Q2033.26 139.289 2030.11 139.289 Q2026.55 139.289 2024.4 141.303 Q2022.27 143.317 2021.94 146.974 L2037.13 146.951 Z" fill="#000000" fill-rule="nonzero" fill-opacity="1" /><path clip-path="url(#clip430)" d="M2061.5 126.21 L2061.5 129.752 L2057.43 129.752 Q2055.14 129.752 2054.24 130.678 Q2053.36 131.604 2053.36 134.011 L2053.36 136.303 L2060.37 136.303 L2060.37 139.613 L2053.36 139.613 L2053.36 162.229 L2049.07 162.229 L2049.07 139.613 L2045 139.613 L2045 136.303 L2049.07 136.303 L2049.07 134.497 Q2049.07 130.169 2051.09 128.201 Q2053.1 126.21 2057.48 126.21 L2061.5 126.21 Z" fill="#000000" fill-rule="nonzero" fill-opacity="1" /><path clip-path="url(#clip430)" d="M2087.24 148.201 L2087.24 150.284 L2067.66 150.284 Q2067.94 154.682 2070.3 156.997 Q2072.68 159.289 2076.92 159.289 Q2079.37 159.289 2081.67 158.687 Q2083.98 158.085 2086.25 156.881 L2086.25 160.909 Q2083.96 161.881 2081.55 162.391 Q2079.14 162.9 2076.67 162.9 Q2070.46 162.9 2066.83 159.289 Q2063.22 155.678 2063.22 149.52 Q2063.22 143.155 2066.64 139.428 Q2070.09 135.678 2075.92 135.678 Q2081.16 135.678 2084.19 139.057 Q2087.24 142.414 2087.24 148.201 M2082.98 146.951 Q2082.94 143.456 2081.02 141.372 Q2079.12 139.289 2075.97 139.289 Q2072.41 139.289 2070.25 141.303 Q2068.12 143.317 2067.8 146.974 L2082.98 146.951 Z" fill="#000000" fill-rule="nonzero" fill-opacity="1" /><path clip-path="url(#clip430)" d="M2109.26 140.284 Q2108.54 139.868 2107.68 139.682 Q2106.85 139.474 2105.83 139.474 Q2102.22 139.474 2100.28 141.835 Q2098.36 144.173 2098.36 148.571 L2098.36 162.229 L2094.07 162.229 L2094.07 136.303 L2098.36 136.303 L2098.36 140.331 Q2099.7 137.969 2101.85 136.835 Q2104 135.678 2107.08 135.678 Q2107.52 135.678 2108.05 135.747 Q2108.59 135.794 2109.23 135.909 L2109.26 140.284 Z" fill="#000000" fill-rule="nonzero" fill-opacity="1" /><path clip-path="url(#clip430)" d="M2134.86 148.201 L2134.86 150.284 L2115.28 150.284 Q2115.55 154.682 2117.92 156.997 Q2120.3 159.289 2124.54 159.289 Q2126.99 159.289 2129.28 158.687 Q2131.6 158.085 2133.86 156.881 L2133.86 160.909 Q2131.57 161.881 2129.17 162.391 Q2126.76 162.9 2124.28 162.9 Q2118.08 162.9 2114.44 159.289 Q2110.83 155.678 2110.83 149.52 Q2110.83 143.155 2114.26 139.428 Q2117.71 135.678 2123.54 135.678 Q2128.77 135.678 2131.8 139.057 Q2134.86 142.414 2134.86 148.201 M2130.6 146.951 Q2130.55 143.456 2128.63 141.372 Q2126.73 139.289 2123.59 139.289 Q2120.02 139.289 2117.87 141.303 Q2115.74 143.317 2115.42 146.974 L2130.6 146.951 Z" fill="#000000" fill-rule="nonzero" fill-opacity="1" /><path clip-path="url(#clip430)" d="M2163.4 146.581 L2163.4 162.229 L2159.14 162.229 L2159.14 146.719 Q2159.14 143.039 2157.71 141.21 Q2156.27 139.382 2153.4 139.382 Q2149.95 139.382 2147.96 141.581 Q2145.97 143.78 2145.97 147.576 L2145.97 162.229 L2141.69 162.229 L2141.69 136.303 L2145.97 136.303 L2145.97 140.331 Q2147.5 137.993 2149.56 136.835 Q2151.64 135.678 2154.35 135.678 Q2158.82 135.678 2161.11 138.456 Q2163.4 141.21 2163.4 146.581 Z" fill="#000000" fill-rule="nonzero" fill-opacity="1" /><path clip-path="url(#clip430)" d="M2190.55 137.298 L2190.55 141.28 Q2188.75 140.284 2186.92 139.798 Q2185.11 139.289 2183.26 139.289 Q2179.12 139.289 2176.83 141.928 Q2174.54 144.544 2174.54 149.289 Q2174.54 154.034 2176.83 156.673 Q2179.12 159.289 2183.26 159.289 Q2185.11 159.289 2186.92 158.803 Q2188.75 158.293 2190.55 157.298 L2190.55 161.233 Q2188.77 162.067 2186.85 162.483 Q2184.95 162.9 2182.8 162.9 Q2176.94 162.9 2173.49 159.219 Q2170.04 155.539 2170.04 149.289 Q2170.04 142.946 2173.52 139.312 Q2177.01 135.678 2183.08 135.678 Q2185.04 135.678 2186.92 136.095 Q2188.79 136.488 2190.55 137.298 Z" fill="#000000" fill-rule="nonzero" fill-opacity="1" /><path clip-path="url(#clip430)" d="M2220.14 148.201 L2220.14 150.284 L2200.55 150.284 Q2200.83 154.682 2203.19 156.997 Q2205.58 159.289 2209.81 159.289 Q2212.27 159.289 2214.56 158.687 Q2216.87 158.085 2219.14 156.881 L2219.14 160.909 Q2216.85 161.881 2214.44 162.391 Q2212.04 162.9 2209.56 162.9 Q2203.35 162.9 2199.72 159.289 Q2196.11 155.678 2196.11 149.52 Q2196.11 143.155 2199.54 139.428 Q2202.98 135.678 2208.82 135.678 Q2214.05 135.678 2217.08 139.057 Q2220.14 142.414 2220.14 148.201 M2215.88 146.951 Q2215.83 143.456 2213.91 141.372 Q2212.01 139.289 2208.86 139.289 Q2205.3 139.289 2203.15 141.303 Q2201.02 143.317 2200.69 146.974 L2215.88 146.951 Z" fill="#000000" fill-rule="nonzero" fill-opacity="1" /><polyline clip-path="url(#clip430)" style="stroke:#389826; stroke-linecap:round; stroke-linejoin:round; stroke-width:4; stroke-opacity:1; fill:none" points="1822.7,196.789 1964.89,196.789 "/>
<path clip-path="url(#clip430)" d="M1893.79 217.269 L1879.31 211.268 L1873.31 196.789 L1879.31 182.309 L1893.79 176.309 L1908.27 182.309 L1914.27 196.789 L1908.27 211.268 Z" fill="#389826" fill-rule="evenodd" fill-opacity="1" stroke="#000000" stroke-opacity="1" stroke-width="8.192"/>
<path clip-path="url(#clip430)" d="M1988.59 179.509 L2010.44 179.509 L2010.44 183.444 L1993.26 183.444 L1993.26 193.675 L2009.72 193.675 L2009.72 197.61 L1993.26 197.61 L1993.26 210.133 L2010.86 210.133 L2010.86 214.069 L1988.59 214.069 L1988.59 179.509 Z" fill="#000000" fill-rule="nonzero" fill-opacity="1" /><path clip-path="url(#clip430)" d="M2018.54 179.509 L2023.22 179.509 L2023.22 194.115 L2038.73 179.509 L2044.74 179.509 L2027.59 195.62 L2045.97 214.069 L2039.81 214.069 L2023.22 197.425 L2023.22 214.069 L2018.54 214.069 L2018.54 179.509 Z" fill="#000000" fill-rule="nonzero" fill-opacity="1" /><path clip-path="url(#clip430)" d="M2050.86 210.133 L2058.49 210.133 L2058.49 183.768 L2050.18 185.435 L2050.18 181.175 L2058.45 179.509 L2063.12 179.509 L2063.12 210.133 L2070.76 210.133 L2070.76 214.069 L2050.86 214.069 L2050.86 210.133 Z" fill="#000000" fill-rule="nonzero" fill-opacity="1" /><path clip-path="url(#clip430)" d="M2112.01 184.347 L2112.01 197.24 L2124.91 197.24 L2124.91 201.175 L2112.01 201.175 L2112.01 214.069 L2108.12 214.069 L2108.12 201.175 L2095.23 201.175 L2095.23 197.24 L2108.12 197.24 L2108.12 184.347 L2112.01 184.347 Z" fill="#000000" fill-rule="nonzero" fill-opacity="1" /><path clip-path="url(#clip430)" d="M2149.65 179.509 L2154.33 179.509 L2154.33 214.069 L2149.65 214.069 L2149.65 179.509 Z" fill="#000000" fill-rule="nonzero" fill-opacity="1" /><path clip-path="url(#clip430)" d="M2177.66 182.68 Q2172.57 182.68 2169.56 186.476 Q2166.57 190.272 2166.57 196.823 Q2166.57 203.351 2169.56 207.147 Q2172.57 210.944 2177.66 210.944 Q2182.75 210.944 2185.72 207.147 Q2188.7 203.351 2188.7 196.823 Q2188.7 190.272 2185.72 186.476 Q2182.75 182.68 2177.66 182.68 M2177.66 178.884 Q2184.93 178.884 2189.28 183.768 Q2193.63 188.629 2193.63 196.823 Q2193.63 204.995 2189.28 209.879 Q2184.93 214.74 2177.66 214.74 Q2170.37 214.74 2165.99 209.879 Q2161.64 205.018 2161.64 196.823 Q2161.64 188.629 2165.99 183.768 Q2170.37 178.884 2177.66 178.884 Z" fill="#000000" fill-rule="nonzero" fill-opacity="1" /><path clip-path="url(#clip430)" d="M2200.41 179.509 L2205.11 179.509 L2205.11 200.504 Q2205.11 206.059 2207.13 208.513 Q2209.14 210.944 2213.66 210.944 Q2218.15 210.944 2220.16 208.513 Q2222.17 206.059 2222.17 200.504 L2222.17 179.509 L2226.87 179.509 L2226.87 201.083 Q2226.87 207.842 2223.52 211.291 Q2220.18 214.74 2213.66 214.74 Q2207.1 214.74 2203.75 211.291 Q2200.41 207.842 2200.41 201.083 L2200.41 179.509 Z" fill="#000000" fill-rule="nonzero" fill-opacity="1" /><path clip-path="url(#clip430)" d="M2240.32 183.351 L2240.32 196.337 L2246.2 196.337 Q2249.47 196.337 2251.25 194.647 Q2253.03 192.958 2253.03 189.833 Q2253.03 186.731 2251.25 185.041 Q2249.47 183.351 2246.2 183.351 L2240.32 183.351 M2235.65 179.509 L2246.2 179.509 Q2252.01 179.509 2254.97 182.147 Q2257.96 184.763 2257.96 189.833 Q2257.96 194.948 2254.97 197.564 Q2252.01 200.18 2246.2 200.18 L2240.32 200.18 L2240.32 214.069 L2235.65 214.069 L2235.65 179.509 Z" fill="#000000" fill-rule="nonzero" fill-opacity="1" /></svg>
